<?xml version="1.0" encoding="UTF-8" standalone="no"?>
<!DOCTYPE svg PUBLIC "-//W3C//DTD SVG 1.1//EN"
 "http://www.w3.org/Graphics/SVG/1.1/DTD/svg11.dtd">
<!-- Generated by graphviz version 2.43.0 (0)
 -->
<!-- Title: /home/runner/work/Raytracer/Raytracer/src/Entities/IPrimitive.hpp Pages: 1 -->
<svg width="1703pt" height="206pt"
 viewBox="0.00 0.00 1703.00 206.00" xmlns="http://www.w3.org/2000/svg" xmlns:xlink="http://www.w3.org/1999/xlink">
<g id="graph0" class="graph" transform="scale(1 1) rotate(0) translate(4 202)">
<title>/home/runner/work/Raytracer/Raytracer/src/Entities/IPrimitive.hpp</title>
<polygon fill="white" stroke="transparent" points="-4,4 -4,-202 1699,-202 1699,4 -4,4"/>
<!-- Node1 -->
<g id="node1" class="node">
<title>Node1</title>
<g id="a_node1"><a xlink:title=" ">
<polygon fill="#bfbfbf" stroke="black" points="743,-156.5 743,-197.5 902,-197.5 902,-156.5 743,-156.5"/>
<text text-anchor="start" x="751" y="-185.5" font-family="Helvetica,sans-Serif" font-size="10.00">/home/runner/work/Raytracer</text>
<text text-anchor="start" x="751" y="-174.5" font-family="Helvetica,sans-Serif" font-size="10.00">/Raytracer/src/Entities</text>
<text text-anchor="middle" x="822.5" y="-163.5" font-family="Helvetica,sans-Serif" font-size="10.00">/IPrimitive.hpp</text>
</a>
</g>
</g>
<!-- Node2 -->
<g id="node2" class="node">
<title>Node2</title>
<g id="a_node2"><a xlink:href="$a00209.html" xlink:title=" ">
<polygon fill="white" stroke="black" points="0,-84 0,-114 175,-114 175,-84 0,-84"/>
<text text-anchor="start" x="8" y="-102" font-family="Helvetica,sans-Serif" font-size="10.00">/home/runner/work/Raytracer</text>
<text text-anchor="middle" x="87.5" y="-91" font-family="Helvetica,sans-Serif" font-size="10.00">/Raytracer/src/Scenes/Scene.hpp</text>
</a>
</g>
</g>
<!-- Node1&#45;&gt;Node2 -->
<g id="edge1" class="edge">
<title>Node1&#45;&gt;Node2</title>
<path fill="none" stroke="midnightblue" d="M732.75,-171.48C608.75,-164.48 378.26,-148.72 183.5,-120 172.47,-118.37 160.8,-116.27 149.54,-114.04"/>
<polygon fill="midnightblue" stroke="midnightblue" points="732.77,-174.99 742.95,-172.05 733.16,-168 732.77,-174.99"/>
</g>
<!-- Node4 -->
<g id="node4" class="node">
<title>Node4</title>
<g id="a_node4"><a xlink:href="$a00266.html" xlink:title=" ">
<polygon fill="white" stroke="black" points="193,-78.5 193,-119.5 352,-119.5 352,-78.5 193,-78.5"/>
<text text-anchor="start" x="201" y="-107.5" font-family="Helvetica,sans-Serif" font-size="10.00">/home/runner/work/Raytracer</text>
<text text-anchor="start" x="201" y="-96.5" font-family="Helvetica,sans-Serif" font-size="10.00">/Raytracer/PluginsExt/Cone</text>
<text text-anchor="middle" x="272.5" y="-85.5" font-family="Helvetica,sans-Serif" font-size="10.00">/ConeEntity.hpp</text>
</a>
</g>
</g>
<!-- Node1&#45;&gt;Node4 -->
<g id="edge3" class="edge">
<title>Node1&#45;&gt;Node4</title>
<path fill="none" stroke="midnightblue" d="M732.65,-167.77C639.46,-158.62 489.7,-142.13 361.5,-120 358.53,-119.49 355.52,-118.94 352.48,-118.37"/>
<polygon fill="midnightblue" stroke="midnightblue" points="732.32,-171.26 742.61,-168.75 733,-164.29 732.32,-171.26"/>
</g>
<!-- Node6 -->
<g id="node6" class="node">
<title>Node6</title>
<g id="a_node6"><a xlink:href="$a00272.html" xlink:title=" ">
<polygon fill="white" stroke="black" points="370.5,-78.5 370.5,-119.5 534.5,-119.5 534.5,-78.5 370.5,-78.5"/>
<text text-anchor="start" x="378.5" y="-107.5" font-family="Helvetica,sans-Serif" font-size="10.00">/home/runner/work/Raytracer</text>
<text text-anchor="start" x="378.5" y="-96.5" font-family="Helvetica,sans-Serif" font-size="10.00">/Raytracer/PluginsExt/Cylinder</text>
<text text-anchor="middle" x="452.5" y="-85.5" font-family="Helvetica,sans-Serif" font-size="10.00">/CylinderEntity.hpp</text>
</a>
</g>
</g>
<!-- Node1&#45;&gt;Node6 -->
<g id="edge5" class="edge">
<title>Node1&#45;&gt;Node6</title>
<path fill="none" stroke="midnightblue" d="M732.73,-158.41C677.99,-147.58 606.65,-133.28 543.5,-120 540.65,-119.4 537.75,-118.79 534.83,-118.16"/>
<polygon fill="midnightblue" stroke="midnightblue" points="732.26,-161.89 742.75,-160.39 733.62,-155.02 732.26,-161.89"/>
</g>
<!-- Node8 -->
<g id="node8" class="node">
<title>Node8</title>
<g id="a_node8"><a xlink:href="$a00278.html" xlink:title=" ">
<polygon fill="white" stroke="black" points="553,-78.5 553,-119.5 712,-119.5 712,-78.5 553,-78.5"/>
<text text-anchor="start" x="561" y="-107.5" font-family="Helvetica,sans-Serif" font-size="10.00">/home/runner/work/Raytracer</text>
<text text-anchor="start" x="561" y="-96.5" font-family="Helvetica,sans-Serif" font-size="10.00">/Raytracer/PluginsExt/Disk</text>
<text text-anchor="middle" x="632.5" y="-85.5" font-family="Helvetica,sans-Serif" font-size="10.00">/DiskEntity.hpp</text>
</a>
</g>
</g>
<!-- Node1&#45;&gt;Node8 -->
<g id="edge7" class="edge">
<title>Node1&#45;&gt;Node8</title>
<path fill="none" stroke="midnightblue" d="M764.02,-152.61C737.5,-142 706.5,-129.6 681.26,-119.51"/>
<polygon fill="midnightblue" stroke="midnightblue" points="762.99,-155.96 773.57,-156.43 765.59,-149.46 762.99,-155.96"/>
</g>
<!-- Node10 -->
<g id="node10" class="node">
<title>Node10</title>
<g id="a_node10"><a xlink:href="$a00284.html" xlink:title=" ">
<polygon fill="white" stroke="black" points="730,-78.5 730,-119.5 915,-119.5 915,-78.5 730,-78.5"/>
<text text-anchor="start" x="738" y="-107.5" font-family="Helvetica,sans-Serif" font-size="10.00">/home/runner/work/Raytracer</text>
<text text-anchor="start" x="738" y="-96.5" font-family="Helvetica,sans-Serif" font-size="10.00">/Raytracer/PluginsExt/LimitedCone</text>
<text text-anchor="middle" x="822.5" y="-85.5" font-family="Helvetica,sans-Serif" font-size="10.00">/LimitedConeEntity.hpp</text>
</a>
</g>
</g>
<!-- Node1&#45;&gt;Node10 -->
<g id="edge9" class="edge">
<title>Node1&#45;&gt;Node10</title>
<path fill="none" stroke="midnightblue" d="M822.5,-146.3C822.5,-137.3 822.5,-127.65 822.5,-119.51"/>
<polygon fill="midnightblue" stroke="midnightblue" points="819,-146.43 822.5,-156.43 826,-146.43 819,-146.43"/>
</g>
<!-- Node12 -->
<g id="node12" class="node">
<title>Node12</title>
<g id="a_node12"><a xlink:href="$a00290.html" xlink:title=" ">
<polygon fill="white" stroke="black" points="933,-78.5 933,-119.5 1134,-119.5 1134,-78.5 933,-78.5"/>
<text text-anchor="start" x="941" y="-107.5" font-family="Helvetica,sans-Serif" font-size="10.00">/home/runner/work/Raytracer</text>
<text text-anchor="start" x="941" y="-96.5" font-family="Helvetica,sans-Serif" font-size="10.00">/Raytracer/PluginsExt/LimitedCylinder</text>
<text text-anchor="middle" x="1033.5" y="-85.5" font-family="Helvetica,sans-Serif" font-size="10.00">/LimitedCylinderEntity.hpp</text>
</a>
</g>
</g>
<!-- Node1&#45;&gt;Node12 -->
<g id="edge11" class="edge">
<title>Node1&#45;&gt;Node12</title>
<path fill="none" stroke="midnightblue" d="M886.28,-153.03C915.99,-142.33 950.95,-129.73 979.35,-119.51"/>
<polygon fill="midnightblue" stroke="midnightblue" points="885.06,-149.75 876.84,-156.43 887.43,-156.33 885.06,-149.75"/>
</g>
<!-- Node14 -->
<g id="node14" class="node">
<title>Node14</title>
<g id="a_node14"><a xlink:href="$a00296.html" xlink:title=" ">
<polygon fill="white" stroke="black" points="1152.5,-78.5 1152.5,-119.5 1340.5,-119.5 1340.5,-78.5 1152.5,-78.5"/>
<text text-anchor="start" x="1160.5" y="-107.5" font-family="Helvetica,sans-Serif" font-size="10.00">/home/runner/work/Raytracer</text>
<text text-anchor="start" x="1160.5" y="-96.5" font-family="Helvetica,sans-Serif" font-size="10.00">/Raytracer/PluginsExt/LimitedPlane</text>
<text text-anchor="middle" x="1246.5" y="-85.5" font-family="Helvetica,sans-Serif" font-size="10.00">/LimitedPlaneEntity.hpp</text>
</a>
</g>
</g>
<!-- Node1&#45;&gt;Node14 -->
<g id="edge13" class="edge">
<title>Node1&#45;&gt;Node14</title>
<path fill="none" stroke="midnightblue" d="M912.22,-160.71C976.4,-149.67 1064.83,-134.26 1142.5,-120 1145.76,-119.4 1149.07,-118.79 1152.41,-118.17"/>
<polygon fill="midnightblue" stroke="midnightblue" points="911.39,-157.3 902.13,-162.45 912.58,-164.2 911.39,-157.3"/>
</g>
<!-- Node16 -->
<g id="node16" class="node">
<title>Node16</title>
<g id="a_node16"><a xlink:href="$a00308.html" xlink:title=" ">
<polygon fill="white" stroke="black" points="1359,-78.5 1359,-119.5 1518,-119.5 1518,-78.5 1359,-78.5"/>
<text text-anchor="start" x="1367" y="-107.5" font-family="Helvetica,sans-Serif" font-size="10.00">/home/runner/work/Raytracer</text>
<text text-anchor="start" x="1367" y="-96.5" font-family="Helvetica,sans-Serif" font-size="10.00">/Raytracer/PluginsExt/Plane</text>
<text text-anchor="middle" x="1438.5" y="-85.5" font-family="Helvetica,sans-Serif" font-size="10.00">/PlaneEntity.hpp</text>
</a>
</g>
</g>
<!-- Node1&#45;&gt;Node16 -->
<g id="edge15" class="edge">
<title>Node1&#45;&gt;Node16</title>
<path fill="none" stroke="midnightblue" d="M912.61,-169.6C1017.88,-161.39 1197.07,-145.14 1349.5,-120 1352.47,-119.51 1355.49,-118.98 1358.53,-118.43"/>
<polygon fill="midnightblue" stroke="midnightblue" points="912.05,-166.13 902.35,-170.39 912.59,-173.11 912.05,-166.13"/>
</g>
<!-- Node18 -->
<g id="node18" class="node">
<title>Node18</title>
<g id="a_node18"><a xlink:href="$a00320.html" xlink:title=" ">
<polygon fill="white" stroke="black" points="1536,-78.5 1536,-119.5 1695,-119.5 1695,-78.5 1536,-78.5"/>
<text text-anchor="start" x="1544" y="-107.5" font-family="Helvetica,sans-Serif" font-size="10.00">/home/runner/work/Raytracer</text>
<text text-anchor="start" x="1544" y="-96.5" font-family="Helvetica,sans-Serif" font-size="10.00">/Raytracer/PluginsExt/Sphere</text>
<text text-anchor="middle" x="1615.5" y="-85.5" font-family="Helvetica,sans-Serif" font-size="10.00">/SphereEntity.hpp</text>
</a>
</g>
</g>
<!-- Node1&#45;&gt;Node18 -->
<g id="edge17" class="edge">
<title>Node1&#45;&gt;Node18</title>
<path fill="none" stroke="midnightblue" d="M912.34,-172.93C1046.61,-167.42 1307.33,-153.17 1526.5,-120 1529.48,-119.55 1532.5,-119.06 1535.55,-118.53"/>
<polygon fill="midnightblue" stroke="midnightblue" points="911.95,-169.44 902.1,-173.34 912.24,-176.44 911.95,-169.44"/>
</g>
<!-- Node3 -->
<g id="node3" class="node">
<title>Node3</title>
<g id="a_node3"><a xlink:href="$a00146.html" xlink:title=" ">
<polygon fill="white" stroke="black" points="8,-6 8,-36 167,-36 167,-6 8,-6"/>
<text text-anchor="start" x="16" y="-24" font-family="Helvetica,sans-Serif" font-size="10.00">/home/runner/work/Raytracer</text>
<text text-anchor="middle" x="87.5" y="-13" font-family="Helvetica,sans-Serif" font-size="10.00">/Raytracer/src/Main.hpp</text>
</a>
</g>
</g>
<!-- Node2&#45;&gt;Node3 -->
<g id="edge2" class="edge">
<title>Node2&#45;&gt;Node3</title>
<path fill="none" stroke="midnightblue" d="M87.5,-73.59C87.5,-61.26 87.5,-46.72 87.5,-36.23"/>
<polygon fill="midnightblue" stroke="midnightblue" points="84,-73.7 87.5,-83.7 91,-73.71 84,-73.7"/>
</g>
<!-- Node5 -->
<g id="node5" class="node">
<title>Node5</title>
<g id="a_node5"><a xlink:href="$a00263.html" xlink:title=" ">
<polygon fill="white" stroke="black" points="193,-0.5 193,-41.5 352,-41.5 352,-0.5 193,-0.5"/>
<text text-anchor="start" x="201" y="-29.5" font-family="Helvetica,sans-Serif" font-size="10.00">/home/runner/work/Raytracer</text>
<text text-anchor="start" x="201" y="-18.5" font-family="Helvetica,sans-Serif" font-size="10.00">/Raytracer/PluginsExt/Cone</text>
<text text-anchor="middle" x="272.5" y="-7.5" font-family="Helvetica,sans-Serif" font-size="10.00">/ConeCreator.hpp</text>
</a>
</g>
</g>
<!-- Node4&#45;&gt;Node5 -->
<g id="edge4" class="edge">
<title>Node4&#45;&gt;Node5</title>
<path fill="none" stroke="midnightblue" d="M272.5,-68.3C272.5,-59.3 272.5,-49.65 272.5,-41.51"/>
<polygon fill="midnightblue" stroke="midnightblue" points="269,-68.43 272.5,-78.43 276,-68.43 269,-68.43"/>
</g>
<!-- Node7 -->
<g id="node7" class="node">
<title>Node7</title>
<g id="a_node7"><a xlink:href="$a00269.html" xlink:title=" ">
<polygon fill="white" stroke="black" points="370.5,-0.5 370.5,-41.5 534.5,-41.5 534.5,-0.5 370.5,-0.5"/>
<text text-anchor="start" x="378.5" y="-29.5" font-family="Helvetica,sans-Serif" font-size="10.00">/home/runner/work/Raytracer</text>
<text text-anchor="start" x="378.5" y="-18.5" font-family="Helvetica,sans-Serif" font-size="10.00">/Raytracer/PluginsExt/Cylinder</text>
<text text-anchor="middle" x="452.5" y="-7.5" font-family="Helvetica,sans-Serif" font-size="10.00">/CylinderCreator.hpp</text>
</a>
</g>
</g>
<!-- Node6&#45;&gt;Node7 -->
<g id="edge6" class="edge">
<title>Node6&#45;&gt;Node7</title>
<path fill="none" stroke="midnightblue" d="M452.5,-68.3C452.5,-59.3 452.5,-49.65 452.5,-41.51"/>
<polygon fill="midnightblue" stroke="midnightblue" points="449,-68.43 452.5,-78.43 456,-68.43 449,-68.43"/>
</g>
<!-- Node9 -->
<g id="node9" class="node">
<title>Node9</title>
<g id="a_node9"><a xlink:href="$a00275.html" xlink:title=" ">
<polygon fill="white" stroke="black" points="553,-0.5 553,-41.5 712,-41.5 712,-0.5 553,-0.5"/>
<text text-anchor="start" x="561" y="-29.5" font-family="Helvetica,sans-Serif" font-size="10.00">/home/runner/work/Raytracer</text>
<text text-anchor="start" x="561" y="-18.5" font-family="Helvetica,sans-Serif" font-size="10.00">/Raytracer/PluginsExt/Disk</text>
<text text-anchor="middle" x="632.5" y="-7.5" font-family="Helvetica,sans-Serif" font-size="10.00">/DiskCreator.hpp</text>
</a>
</g>
</g>
<!-- Node8&#45;&gt;Node9 -->
<g id="edge8" class="edge">
<title>Node8&#45;&gt;Node9</title>
<path fill="none" stroke="midnightblue" d="M632.5,-68.3C632.5,-59.3 632.5,-49.65 632.5,-41.51"/>
<polygon fill="midnightblue" stroke="midnightblue" points="629,-68.43 632.5,-78.43 636,-68.43 629,-68.43"/>
</g>
<!-- Node11 -->
<g id="node11" class="node">
<title>Node11</title>
<g id="a_node11"><a xlink:href="$a00281.html" xlink:title=" ">
<polygon fill="white" stroke="black" points="730,-0.5 730,-41.5 915,-41.5 915,-0.5 730,-0.5"/>
<text text-anchor="start" x="738" y="-29.5" font-family="Helvetica,sans-Serif" font-size="10.00">/home/runner/work/Raytracer</text>
<text text-anchor="start" x="738" y="-18.5" font-family="Helvetica,sans-Serif" font-size="10.00">/Raytracer/PluginsExt/LimitedCone</text>
<text text-anchor="middle" x="822.5" y="-7.5" font-family="Helvetica,sans-Serif" font-size="10.00">/LimitedConeCreator.hpp</text>
</a>
</g>
</g>
<!-- Node10&#45;&gt;Node11 -->
<g id="edge10" class="edge">
<title>Node10&#45;&gt;Node11</title>
<path fill="none" stroke="midnightblue" d="M822.5,-68.3C822.5,-59.3 822.5,-49.65 822.5,-41.51"/>
<polygon fill="midnightblue" stroke="midnightblue" points="819,-68.43 822.5,-78.43 826,-68.43 819,-68.43"/>
</g>
<!-- Node13 -->
<g id="node13" class="node">
<title>Node13</title>
<g id="a_node13"><a xlink:href="$a00287.html" xlink:title=" ">
<polygon fill="white" stroke="black" points="933,-0.5 933,-41.5 1134,-41.5 1134,-0.5 933,-0.5"/>
<text text-anchor="start" x="941" y="-29.5" font-family="Helvetica,sans-Serif" font-size="10.00">/home/runner/work/Raytracer</text>
<text text-anchor="start" x="941" y="-18.5" font-family="Helvetica,sans-Serif" font-size="10.00">/Raytracer/PluginsExt/LimitedCylinder</text>
<text text-anchor="middle" x="1033.5" y="-7.5" font-family="Helvetica,sans-Serif" font-size="10.00">/LimitedCylinderCreator.hpp</text>
</a>
</g>
</g>
<!-- Node12&#45;&gt;Node13 -->
<g id="edge12" class="edge">
<title>Node12&#45;&gt;Node13</title>
<path fill="none" stroke="midnightblue" d="M1033.5,-68.3C1033.5,-59.3 1033.5,-49.65 1033.5,-41.51"/>
<polygon fill="midnightblue" stroke="midnightblue" points="1030,-68.43 1033.5,-78.43 1037,-68.43 1030,-68.43"/>
</g>
<!-- Node15 -->
<g id="node15" class="node">
<title>Node15</title>
<g id="a_node15"><a xlink:href="$a00293.html" xlink:title=" ">
<polygon fill="white" stroke="black" points="1152.5,-0.5 1152.5,-41.5 1340.5,-41.5 1340.5,-0.5 1152.5,-0.5"/>
<text text-anchor="start" x="1160.5" y="-29.5" font-family="Helvetica,sans-Serif" font-size="10.00">/home/runner/work/Raytracer</text>
<text text-anchor="start" x="1160.5" y="-18.5" font-family="Helvetica,sans-Serif" font-size="10.00">/Raytracer/PluginsExt/LimitedPlane</text>
<text text-anchor="middle" x="1246.5" y="-7.5" font-family="Helvetica,sans-Serif" font-size="10.00">/LimitedPlaneCreator.hpp</text>
</a>
</g>
</g>
<!-- Node14&#45;&gt;Node15 -->
<g id="edge14" class="edge">
<title>Node14&#45;&gt;Node15</title>
<path fill="none" stroke="midnightblue" d="M1246.5,-68.3C1246.5,-59.3 1246.5,-49.65 1246.5,-41.51"/>
<polygon fill="midnightblue" stroke="midnightblue" points="1243,-68.43 1246.5,-78.43 1250,-68.43 1243,-68.43"/>
</g>
<!-- Node17 -->
<g id="node17" class="node">
<title>Node17</title>
<g id="a_node17"><a xlink:href="$a00305.html" xlink:title=" ">
<polygon fill="white" stroke="black" points="1359,-0.5 1359,-41.5 1518,-41.5 1518,-0.5 1359,-0.5"/>
<text text-anchor="start" x="1367" y="-29.5" font-family="Helvetica,sans-Serif" font-size="10.00">/home/runner/work/Raytracer</text>
<text text-anchor="start" x="1367" y="-18.5" font-family="Helvetica,sans-Serif" font-size="10.00">/Raytracer/PluginsExt/Plane</text>
<text text-anchor="middle" x="1438.5" y="-7.5" font-family="Helvetica,sans-Serif" font-size="10.00">/PlaneCreator.hpp</text>
</a>
</g>
</g>
<!-- Node16&#45;&gt;Node17 -->
<g id="edge16" class="edge">
<title>Node16&#45;&gt;Node17</title>
<path fill="none" stroke="midnightblue" d="M1438.5,-68.3C1438.5,-59.3 1438.5,-49.65 1438.5,-41.51"/>
<polygon fill="midnightblue" stroke="midnightblue" points="1435,-68.43 1438.5,-78.43 1442,-68.43 1435,-68.43"/>
</g>
<!-- Node19 -->
<g id="node19" class="node">
<title>Node19</title>
<g id="a_node19"><a xlink:href="$a00317.html" xlink:title=" ">
<polygon fill="white" stroke="black" points="1536,-0.5 1536,-41.5 1695,-41.5 1695,-0.5 1536,-0.5"/>
<text text-anchor="start" x="1544" y="-29.5" font-family="Helvetica,sans-Serif" font-size="10.00">/home/runner/work/Raytracer</text>
<text text-anchor="start" x="1544" y="-18.5" font-family="Helvetica,sans-Serif" font-size="10.00">/Raytracer/PluginsExt/Sphere</text>
<text text-anchor="middle" x="1615.5" y="-7.5" font-family="Helvetica,sans-Serif" font-size="10.00">/SphereCreator.hpp</text>
</a>
</g>
</g>
<!-- Node18&#45;&gt;Node19 -->
<g id="edge18" class="edge">
<title>Node18&#45;&gt;Node19</title>
<path fill="none" stroke="midnightblue" d="M1615.5,-68.3C1615.5,-59.3 1615.5,-49.65 1615.5,-41.51"/>
<polygon fill="midnightblue" stroke="midnightblue" points="1612,-68.43 1615.5,-78.43 1619,-68.43 1612,-68.43"/>
</g>
</g>
</svg>
