<?xml version="1.0" encoding="UTF-8" standalone="no"?>
<!DOCTYPE svg PUBLIC "-//W3C//DTD SVG 1.1//EN"
 "http://www.w3.org/Graphics/SVG/1.1/DTD/svg11.dtd">
<!-- Generated by graphviz version 2.43.0 (0)
 -->
<!-- Title: /home/runner/work/Raytracer/Raytracer/src/Factories/MaterialFactory.hpp Pages: 1 -->
<svg width="1199pt" height="442pt"
 viewBox="0.00 0.00 1199.47 442.00" xmlns="http://www.w3.org/2000/svg" xmlns:xlink="http://www.w3.org/1999/xlink">
<g id="graph0" class="graph" transform="scale(1 1) rotate(0) translate(4 438)">
<title>/home/runner/work/Raytracer/Raytracer/src/Factories/MaterialFactory.hpp</title>
<polygon fill="white" stroke="transparent" points="-4,4 -4,-438 1195.47,-438 1195.47,4 -4,4"/>
<!-- Node1 -->
<g id="node1" class="node">
<title>Node1</title>
<g id="a_node1"><a xlink:title=" ">
<polygon fill="#bfbfbf" stroke="black" points="212.97,-392.5 212.97,-433.5 371.97,-433.5 371.97,-392.5 212.97,-392.5"/>
<text text-anchor="start" x="220.97" y="-421.5" font-family="Helvetica,sans-Serif" font-size="10.00">/home/runner/work/Raytracer</text>
<text text-anchor="start" x="220.97" y="-410.5" font-family="Helvetica,sans-Serif" font-size="10.00">/Raytracer/src/Factories</text>
<text text-anchor="middle" x="292.47" y="-399.5" font-family="Helvetica,sans-Serif" font-size="10.00">/MaterialFactory.hpp</text>
</a>
</g>
</g>
<!-- Node2 -->
<g id="node2" class="node">
<title>Node2</title>
<g id="a_node2"><a xlink:href="$a00107.html" xlink:title=" ">
<polygon fill="white" stroke="black" points="148.97,-280.5 148.97,-299.5 263.97,-299.5 263.97,-280.5 148.97,-280.5"/>
<text text-anchor="middle" x="206.47" y="-287.5" font-family="Helvetica,sans-Serif" font-size="10.00">IMaterialFactory.hpp</text>
</a>
</g>
</g>
<!-- Node1&#45;&gt;Node2 -->
<g id="edge1" class="edge">
<title>Node1&#45;&gt;Node2</title>
<path fill="none" stroke="midnightblue" d="M278.47,-392.29C261.81,-368.85 234.28,-330.13 218.53,-307.96"/>
<polygon fill="midnightblue" stroke="midnightblue" points="221.22,-305.7 212.57,-299.57 215.51,-309.75 221.22,-305.7"/>
</g>
<!-- Node5 -->
<g id="node5" class="node">
<title>Node5</title>
<g id="a_node5"><a xlink:href="$a00119.html" xlink:title=" ">
<polygon fill="white" stroke="black" points="259.97,-224.5 259.97,-243.5 332.97,-243.5 332.97,-224.5 259.97,-224.5"/>
<text text-anchor="middle" x="296.47" y="-231.5" font-family="Helvetica,sans-Serif" font-size="10.00">ILogger.hpp</text>
</a>
</g>
</g>
<!-- Node1&#45;&gt;Node5 -->
<g id="edge24" class="edge">
<title>Node1&#45;&gt;Node5</title>
<path fill="none" stroke="midnightblue" d="M292.92,-392.38C293.69,-358.08 295.28,-287.66 296.05,-253.88"/>
<polygon fill="midnightblue" stroke="midnightblue" points="299.55,-253.66 296.28,-243.58 292.56,-253.5 299.55,-253.66"/>
</g>
<!-- Node6 -->
<g id="node6" class="node">
<title>Node6</title>
<g id="a_node6"><a xlink:href="$a00077.html" xlink:title=" ">
<polygon fill="white" stroke="black" points="834.97,-224.5 834.97,-243.5 915.97,-243.5 915.97,-224.5 834.97,-224.5"/>
<text text-anchor="middle" x="875.47" y="-231.5" font-family="Helvetica,sans-Serif" font-size="10.00">IMaterial.hpp</text>
</a>
</g>
</g>
<!-- Node1&#45;&gt;Node6 -->
<g id="edge50" class="edge">
<title>Node1&#45;&gt;Node6</title>
<path fill="none" stroke="midnightblue" d="M372.08,-405.28C507.18,-392.37 773.51,-359.93 843.47,-300 857.63,-287.87 866.12,-268 870.76,-253.41"/>
<polygon fill="midnightblue" stroke="midnightblue" points="874.21,-254.08 873.59,-243.51 867.48,-252.16 874.21,-254.08"/>
</g>
<!-- Node17 -->
<g id="node17" class="node">
<title>Node17</title>
<g id="a_node17"><a xlink:href="$a00113.html" xlink:title=" ">
<polygon fill="white" stroke="black" points="45.97,-280.5 45.97,-299.5 122.97,-299.5 122.97,-280.5 45.97,-280.5"/>
<text text-anchor="middle" x="84.47" y="-287.5" font-family="Helvetica,sans-Serif" font-size="10.00">TFactory.hpp</text>
</a>
</g>
</g>
<!-- Node1&#45;&gt;Node17 -->
<g id="edge25" class="edge">
<title>Node1&#45;&gt;Node17</title>
<path fill="none" stroke="midnightblue" d="M258.59,-392.29C216.32,-367.7 145.13,-326.28 108.24,-304.82"/>
<polygon fill="midnightblue" stroke="midnightblue" points="109.62,-301.58 99.21,-299.57 106.1,-307.63 109.62,-301.58"/>
</g>
<!-- Node19 -->
<g id="node19" class="node">
<title>Node19</title>
<g id="a_node19"><a xlink:href="$a00176.html" xlink:title=" ">
<polygon fill="white" stroke="black" points="539.47,-336.5 539.47,-355.5 655.47,-355.5 655.47,-336.5 539.47,-336.5"/>
<text text-anchor="middle" x="597.47" y="-343.5" font-family="Helvetica,sans-Serif" font-size="10.00">MaterialHandler.hpp</text>
</a>
</g>
</g>
<!-- Node1&#45;&gt;Node19 -->
<g id="edge31" class="edge">
<title>Node1&#45;&gt;Node19</title>
<path fill="none" stroke="midnightblue" d="M372.21,-395.01C427.63,-383.2 499.78,-367.82 547.31,-357.69"/>
<polygon fill="midnightblue" stroke="midnightblue" points="548.31,-361.06 557.36,-355.55 546.85,-354.21 548.31,-361.06"/>
</g>
<!-- Node3 -->
<g id="node3" class="node">
<title>Node3</title>
<g id="a_node3"><a xlink:title=" ">
<polygon fill="white" stroke="#bfbfbf" points="274.47,-168.5 274.47,-187.5 318.47,-187.5 318.47,-168.5 274.47,-168.5"/>
<text text-anchor="middle" x="296.47" y="-175.5" font-family="Helvetica,sans-Serif" font-size="10.00">string</text>
</a>
</g>
</g>
<!-- Node2&#45;&gt;Node3 -->
<g id="edge2" class="edge">
<title>Node2&#45;&gt;Node3</title>
<path fill="none" stroke="midnightblue" d="M211.83,-280.23C219.83,-267.4 235.64,-242.97 251.47,-224 260.15,-213.61 270.82,-202.86 279.6,-194.47"/>
<polygon fill="midnightblue" stroke="midnightblue" points="282.12,-196.91 287.01,-187.51 277.33,-191.8 282.12,-196.91"/>
</g>
<!-- Node4 -->
<g id="node4" class="node">
<title>Node4</title>
<g id="a_node4"><a xlink:title=" ">
<polygon fill="white" stroke="#bfbfbf" points="609.47,-0.5 609.47,-19.5 667.47,-19.5 667.47,-0.5 609.47,-0.5"/>
<text text-anchor="middle" x="638.47" y="-7.5" font-family="Helvetica,sans-Serif" font-size="10.00">memory</text>
</a>
</g>
</g>
<!-- Node2&#45;&gt;Node4 -->
<g id="edge3" class="edge">
<title>Node2&#45;&gt;Node4</title>
<path fill="none" stroke="midnightblue" d="M199.17,-280.23C185.07,-262.39 155.47,-220.05 155.47,-179 155.47,-179 155.47,-179 155.47,-121 155.47,-22.57 481.7,-41.65 599.37,-19.98"/>
<polygon fill="midnightblue" stroke="midnightblue" points="600.35,-23.36 609.44,-17.91 598.93,-16.5 600.35,-23.36"/>
</g>
<!-- Node2&#45;&gt;Node5 -->
<g id="edge4" class="edge">
<title>Node2&#45;&gt;Node5</title>
<path fill="none" stroke="midnightblue" d="M220.93,-280.32C234.97,-271.9 256.52,-258.97 273.02,-249.07"/>
<polygon fill="midnightblue" stroke="midnightblue" points="275.28,-251.8 282.05,-243.65 271.67,-245.8 275.28,-251.8"/>
</g>
<!-- Node2&#45;&gt;Node6 -->
<g id="edge6" class="edge">
<title>Node2&#45;&gt;Node6</title>
<path fill="none" stroke="midnightblue" d="M264.09,-284.35C392.82,-273.96 702.06,-249 824.4,-239.12"/>
<polygon fill="midnightblue" stroke="midnightblue" points="824.93,-242.59 834.62,-238.3 824.37,-235.61 824.93,-242.59"/>
</g>
<!-- Node10 -->
<g id="node10" class="node">
<title>Node10</title>
<g id="a_node10"><a xlink:href="$a00206.html" xlink:title=" ">
<polygon fill="white" stroke="black" points="523.97,-56.5 523.97,-75.5 598.97,-75.5 598.97,-56.5 523.97,-56.5"/>
<text text-anchor="middle" x="561.47" y="-63.5" font-family="Helvetica,sans-Serif" font-size="10.00">ISetting.hpp</text>
</a>
</g>
</g>
<!-- Node2&#45;&gt;Node10 -->
<g id="edge23" class="edge">
<title>Node2&#45;&gt;Node10</title>
<path fill="none" stroke="midnightblue" d="M208.08,-280.44C212.69,-258.23 228.15,-198.41 265.47,-168 339.25,-107.9 450.73,-82.76 513.72,-72.87"/>
<polygon fill="midnightblue" stroke="midnightblue" points="514.4,-76.31 523.77,-71.36 513.36,-69.38 514.4,-76.31"/>
</g>
<!-- Node5&#45;&gt;Node3 -->
<g id="edge5" class="edge">
<title>Node5&#45;&gt;Node3</title>
<path fill="none" stroke="midnightblue" d="M296.47,-224.08C296.47,-217.01 296.47,-206.86 296.47,-197.99"/>
<polygon fill="midnightblue" stroke="midnightblue" points="299.97,-197.75 296.47,-187.75 292.97,-197.75 299.97,-197.75"/>
</g>
<!-- Node7 -->
<g id="node7" class="node">
<title>Node7</title>
<g id="a_node7"><a xlink:href="$a00137.html" xlink:title=" ">
<polygon fill="white" stroke="black" points="923.97,-168.5 923.97,-187.5 978.97,-187.5 978.97,-168.5 923.97,-168.5"/>
<text text-anchor="middle" x="951.47" y="-175.5" font-family="Helvetica,sans-Serif" font-size="10.00">Ray.hpp</text>
</a>
</g>
</g>
<!-- Node6&#45;&gt;Node7 -->
<g id="edge7" class="edge">
<title>Node6&#45;&gt;Node7</title>
<path fill="none" stroke="midnightblue" d="M887.69,-224.32C899.25,-216.11 916.85,-203.6 930.64,-193.81"/>
<polygon fill="midnightblue" stroke="midnightblue" points="932.92,-196.48 939.04,-187.83 928.86,-190.77 932.92,-196.48"/>
</g>
<!-- Node8 -->
<g id="node8" class="node">
<title>Node8</title>
<g id="a_node8"><a xlink:href="$a00092.html" xlink:title=" ">
<polygon fill="white" stroke="black" points="874.97,-112.5 874.97,-131.5 951.97,-131.5 951.97,-112.5 874.97,-112.5"/>
<text text-anchor="middle" x="913.47" y="-119.5" font-family="Helvetica,sans-Serif" font-size="10.00">Vector3f.hpp</text>
</a>
</g>
</g>
<!-- Node6&#45;&gt;Node8 -->
<g id="edge22" class="edge">
<title>Node6&#45;&gt;Node8</title>
<path fill="none" stroke="midnightblue" d="M916.06,-228.27C941.47,-222.98 972.36,-211.77 988.47,-188 1003.2,-166.28 973.86,-147.4 947.68,-135.67"/>
<polygon fill="midnightblue" stroke="midnightblue" points="948.83,-132.35 938.26,-131.67 946.1,-138.8 948.83,-132.35"/>
</g>
<!-- Node12 -->
<g id="node12" class="node">
<title>Node12</title>
<g id="a_node12"><a xlink:href="$a00122.html" xlink:title=" ">
<polygon fill="white" stroke="black" points="970.47,-112.5 970.47,-131.5 1032.47,-131.5 1032.47,-112.5 970.47,-112.5"/>
<text text-anchor="middle" x="1001.47" y="-119.5" font-family="Helvetica,sans-Serif" font-size="10.00">Color.hpp</text>
</a>
</g>
</g>
<!-- Node6&#45;&gt;Node12 -->
<g id="edge13" class="edge">
<title>Node6&#45;&gt;Node12</title>
<path fill="none" stroke="midnightblue" d="M916.06,-232.06C981.8,-229.59 1107.04,-220.61 1134.47,-188 1163.2,-153.85 1091.76,-136.12 1042.83,-128.25"/>
<polygon fill="midnightblue" stroke="midnightblue" points="1043.18,-124.76 1032.77,-126.72 1042.13,-131.68 1043.18,-124.76"/>
</g>
<!-- Node14 -->
<g id="node14" class="node">
<title>Node14</title>
<g id="a_node14"><a xlink:href="$a00200.html" xlink:title=" ">
<polygon fill="white" stroke="black" points="807.47,-168.5 807.47,-187.5 905.47,-187.5 905.47,-168.5 807.47,-168.5"/>
<text text-anchor="middle" x="856.47" y="-175.5" font-family="Helvetica,sans-Serif" font-size="10.00">IDisplayable.hpp</text>
</a>
</g>
</g>
<!-- Node6&#45;&gt;Node14 -->
<g id="edge17" class="edge">
<title>Node6&#45;&gt;Node14</title>
<path fill="none" stroke="midnightblue" d="M872.34,-224.08C869.79,-216.85 866.12,-206.41 862.95,-197.4"/>
<polygon fill="midnightblue" stroke="midnightblue" points="866.17,-196.02 859.55,-187.75 859.57,-198.35 866.17,-196.02"/>
</g>
<!-- Node16 -->
<g id="node16" class="node">
<title>Node16</title>
<g id="a_node16"><a xlink:href="$a00083.html" xlink:title=" ">
<polygon fill="white" stroke="black" points="1035.97,-168.5 1035.97,-187.5 1124.97,-187.5 1124.97,-168.5 1035.97,-168.5"/>
<text text-anchor="middle" x="1080.47" y="-175.5" font-family="Helvetica,sans-Serif" font-size="10.00">ITransform.hpp</text>
</a>
</g>
</g>
<!-- Node6&#45;&gt;Node16 -->
<g id="edge20" class="edge">
<title>Node6&#45;&gt;Node16</title>
<path fill="none" stroke="midnightblue" d="M907.96,-224.44C943.19,-215.16 999.58,-200.31 1038.23,-190.13"/>
<polygon fill="midnightblue" stroke="midnightblue" points="1039.37,-193.45 1048.14,-187.52 1037.58,-186.68 1039.37,-193.45"/>
</g>
<!-- Node7&#45;&gt;Node8 -->
<g id="edge8" class="edge">
<title>Node7&#45;&gt;Node8</title>
<path fill="none" stroke="midnightblue" d="M945.2,-168.08C939.83,-160.46 931.96,-149.26 925.4,-139.94"/>
<polygon fill="midnightblue" stroke="midnightblue" points="928.25,-137.91 919.63,-131.75 922.53,-141.94 928.25,-137.91"/>
</g>
<!-- Node9 -->
<g id="node9" class="node">
<title>Node9</title>
<g id="a_node9"><a xlink:title=" ">
<polygon fill="white" stroke="#bfbfbf" points="892.97,-56.5 892.97,-75.5 949.97,-75.5 949.97,-56.5 892.97,-56.5"/>
<text text-anchor="middle" x="921.47" y="-63.5" font-family="Helvetica,sans-Serif" font-size="10.00">ostream</text>
</a>
</g>
</g>
<!-- Node8&#45;&gt;Node9 -->
<g id="edge9" class="edge">
<title>Node8&#45;&gt;Node9</title>
<path fill="none" stroke="midnightblue" d="M914.8,-112.08C915.86,-104.93 917.38,-94.64 918.71,-85.69"/>
<polygon fill="midnightblue" stroke="midnightblue" points="922.17,-86.16 920.18,-75.75 915.25,-85.13 922.17,-86.16"/>
</g>
<!-- Node8&#45;&gt;Node10 -->
<g id="edge10" class="edge">
<title>Node8&#45;&gt;Node10</title>
<path fill="none" stroke="midnightblue" d="M874.8,-115.07C809.94,-105.12 679.47,-85.1 609.08,-74.3"/>
<polygon fill="midnightblue" stroke="midnightblue" points="609.56,-70.84 599.15,-72.78 608.5,-77.76 609.56,-70.84"/>
</g>
<!-- Node10&#45;&gt;Node4 -->
<g id="edge11" class="edge">
<title>Node10&#45;&gt;Node4</title>
<path fill="none" stroke="midnightblue" d="M573.85,-56.32C585.63,-48.06 603.61,-35.45 617.61,-25.63"/>
<polygon fill="midnightblue" stroke="midnightblue" points="619.96,-28.26 626.13,-19.65 615.94,-22.53 619.96,-28.26"/>
</g>
<!-- Node11 -->
<g id="node11" class="node">
<title>Node11</title>
<g id="a_node11"><a xlink:title=" ">
<polygon fill="white" stroke="#bfbfbf" points="507.97,-0.5 507.97,-19.5 590.97,-19.5 590.97,-0.5 507.97,-0.5"/>
<text text-anchor="middle" x="549.47" y="-7.5" font-family="Helvetica,sans-Serif" font-size="10.00">libconfig.h++</text>
</a>
</g>
</g>
<!-- Node10&#45;&gt;Node11 -->
<g id="edge12" class="edge">
<title>Node10&#45;&gt;Node11</title>
<path fill="none" stroke="midnightblue" d="M559.49,-56.08C557.9,-48.93 555.62,-38.64 553.63,-29.69"/>
<polygon fill="midnightblue" stroke="midnightblue" points="557.01,-28.75 551.42,-19.75 550.17,-30.27 557.01,-28.75"/>
</g>
<!-- Node12&#45;&gt;Node9 -->
<g id="edge15" class="edge">
<title>Node12&#45;&gt;Node9</title>
<path fill="none" stroke="midnightblue" d="M988.62,-112.32C976.26,-103.98 957.34,-91.21 942.74,-81.35"/>
<polygon fill="midnightblue" stroke="midnightblue" points="944.54,-78.35 934.3,-75.65 940.63,-84.15 944.54,-78.35"/>
</g>
<!-- Node12&#45;&gt;Node10 -->
<g id="edge16" class="edge">
<title>Node12&#45;&gt;Node10</title>
<path fill="none" stroke="midnightblue" d="M970.1,-113.6C967.19,-113.02 964.28,-112.47 961.47,-112 835.1,-90.74 684.53,-76.85 609.27,-70.68"/>
<polygon fill="midnightblue" stroke="midnightblue" points="609.42,-67.18 599.17,-69.86 608.85,-74.15 609.42,-67.18"/>
</g>
<!-- Node13 -->
<g id="node13" class="node">
<title>Node13</title>
<g id="a_node13"><a xlink:title=" ">
<polygon fill="white" stroke="#bfbfbf" points="977.47,-56.5 977.47,-75.5 1025.47,-75.5 1025.47,-56.5 977.47,-56.5"/>
<text text-anchor="middle" x="1001.47" y="-63.5" font-family="Helvetica,sans-Serif" font-size="10.00">mutex</text>
</a>
</g>
</g>
<!-- Node12&#45;&gt;Node13 -->
<g id="edge14" class="edge">
<title>Node12&#45;&gt;Node13</title>
<path fill="none" stroke="midnightblue" d="M1001.47,-112.08C1001.47,-105.01 1001.47,-94.86 1001.47,-85.99"/>
<polygon fill="midnightblue" stroke="midnightblue" points="1004.97,-85.75 1001.47,-75.75 997.97,-85.75 1004.97,-85.75"/>
</g>
<!-- Node14&#45;&gt;Node4 -->
<g id="edge18" class="edge">
<title>Node14&#45;&gt;Node4</title>
<path fill="none" stroke="midnightblue" d="M904.45,-168.49C956.36,-158.79 1032.92,-142.88 1041.47,-132 1052.89,-117.47 1056.26,-77.54 1034.47,-56 1009.37,-31.18 772.59,-17.33 677.61,-12.74"/>
<polygon fill="midnightblue" stroke="midnightblue" points="677.7,-9.24 667.54,-12.26 677.37,-16.23 677.7,-9.24"/>
</g>
<!-- Node15 -->
<g id="node15" class="node">
<title>Node15</title>
<g id="a_node15"><a xlink:title=" ">
<polygon fill="white" stroke="#bfbfbf" points="731.97,-112.5 731.97,-131.5 778.97,-131.5 778.97,-112.5 731.97,-112.5"/>
<text text-anchor="middle" x="755.47" y="-119.5" font-family="Helvetica,sans-Serif" font-size="10.00">vector</text>
</a>
</g>
</g>
<!-- Node14&#45;&gt;Node15 -->
<g id="edge19" class="edge">
<title>Node14&#45;&gt;Node15</title>
<path fill="none" stroke="midnightblue" d="M840.25,-168.32C824.12,-159.7 799.17,-146.36 780.51,-136.39"/>
<polygon fill="midnightblue" stroke="midnightblue" points="782.13,-133.28 771.66,-131.65 778.83,-139.46 782.13,-133.28"/>
</g>
<!-- Node16&#45;&gt;Node8 -->
<g id="edge21" class="edge">
<title>Node16&#45;&gt;Node8</title>
<path fill="none" stroke="midnightblue" d="M1054.01,-168.44C1025.8,-159.32 980.93,-144.81 949.51,-134.65"/>
<polygon fill="midnightblue" stroke="midnightblue" points="950.4,-131.26 939.81,-131.52 948.25,-137.92 950.4,-131.26"/>
</g>
<!-- Node17&#45;&gt;Node3 -->
<g id="edge26" class="edge">
<title>Node17&#45;&gt;Node3</title>
<path fill="none" stroke="midnightblue" d="M101.11,-280.37C138.03,-261.21 227.02,-215.04 271,-192.22"/>
<polygon fill="midnightblue" stroke="midnightblue" points="272.65,-195.3 279.92,-187.59 269.43,-189.09 272.65,-195.3"/>
</g>
<!-- Node17&#45;&gt;Node4 -->
<g id="edge27" class="edge">
<title>Node17&#45;&gt;Node4</title>
<path fill="none" stroke="midnightblue" d="M83.82,-280.45C82.47,-261.95 79.47,-216.85 79.47,-179 79.47,-179 79.47,-179 79.47,-121 79.47,-64.98 134.2,-73.32 187.47,-56 359.62,-0.03 416.57,-47.57 599.18,-19.96"/>
<polygon fill="midnightblue" stroke="midnightblue" points="599.76,-23.41 609.1,-18.4 598.68,-16.49 599.76,-23.41"/>
</g>
<!-- Node17&#45;&gt;Node5 -->
<g id="edge29" class="edge">
<title>Node17&#45;&gt;Node5</title>
<path fill="none" stroke="midnightblue" d="M118.07,-280.44C154.66,-271.12 213.31,-256.18 253.3,-246"/>
<polygon fill="midnightblue" stroke="midnightblue" points="254.21,-249.38 263.04,-243.52 252.49,-242.59 254.21,-249.38"/>
</g>
<!-- Node17&#45;&gt;Node10 -->
<g id="edge30" class="edge">
<title>Node17&#45;&gt;Node10</title>
<path fill="none" stroke="midnightblue" d="M57.77,-280.43C28.2,-269.48 -13.13,-248.92 4.47,-224 64.32,-139.3 389.88,-89.11 513.67,-72.85"/>
<polygon fill="midnightblue" stroke="midnightblue" points="514.16,-76.32 523.62,-71.56 513.25,-69.37 514.16,-76.32"/>
</g>
<!-- Node18 -->
<g id="node18" class="node">
<title>Node18</title>
<g id="a_node18"><a xlink:title=" ">
<polygon fill="white" stroke="#bfbfbf" points="13.47,-224.5 13.47,-243.5 51.47,-243.5 51.47,-224.5 13.47,-224.5"/>
<text text-anchor="middle" x="32.47" y="-231.5" font-family="Helvetica,sans-Serif" font-size="10.00">map</text>
</a>
</g>
</g>
<!-- Node17&#45;&gt;Node18 -->
<g id="edge28" class="edge">
<title>Node17&#45;&gt;Node18</title>
<path fill="none" stroke="midnightblue" d="M75.89,-280.08C68.32,-272.22 57.1,-260.57 47.96,-251.08"/>
<polygon fill="midnightblue" stroke="midnightblue" points="50.36,-248.53 40.9,-243.75 45.32,-253.38 50.36,-248.53"/>
</g>
<!-- Node19&#45;&gt;Node3 -->
<g id="edge33" class="edge">
<title>Node19&#45;&gt;Node3</title>
<path fill="none" stroke="midnightblue" d="M566.17,-336.46C539.31,-328.59 499.91,-315.77 467.47,-300 426.12,-279.89 418.03,-270.54 380.47,-244 357.26,-227.6 331.55,-207.38 314.77,-193.89"/>
<polygon fill="midnightblue" stroke="midnightblue" points="316.84,-191.07 306.86,-187.51 312.44,-196.51 316.84,-191.07"/>
</g>
<!-- Node19&#45;&gt;Node4 -->
<g id="edge32" class="edge">
<title>Node19&#45;&gt;Node4</title>
<path fill="none" stroke="midnightblue" d="M655.51,-340.33C804.98,-327.51 1191.47,-289.14 1191.47,-235 1191.47,-235 1191.47,-235 1191.47,-121 1191.47,-16.15 804.22,-9.75 677.84,-10.46"/>
<polygon fill="midnightblue" stroke="midnightblue" points="677.79,-6.96 667.82,-10.53 677.84,-13.96 677.79,-6.96"/>
</g>
<!-- Node19&#45;&gt;Node5 -->
<g id="edge40" class="edge">
<title>Node19&#45;&gt;Node5</title>
<path fill="none" stroke="midnightblue" d="M539.4,-344.67C487.8,-342.05 411.87,-332.3 354.47,-300 334.17,-288.57 317.31,-267.37 307.09,-252.28"/>
<polygon fill="midnightblue" stroke="midnightblue" points="309.99,-250.32 301.61,-243.83 304.11,-254.12 309.99,-250.32"/>
</g>
<!-- Node19&#45;&gt;Node6 -->
<g id="edge34" class="edge">
<title>Node19&#45;&gt;Node6</title>
<path fill="none" stroke="midnightblue" d="M655.53,-343.26C702.32,-339.58 768.35,-329.09 818.47,-300 838.28,-288.5 854.73,-267.62 864.78,-252.63"/>
<polygon fill="midnightblue" stroke="midnightblue" points="868,-254.09 870.44,-243.78 862.1,-250.32 868,-254.09"/>
</g>
<!-- Node19&#45;&gt;Node10 -->
<g id="edge49" class="edge">
<title>Node19&#45;&gt;Node10</title>
<path fill="none" stroke="midnightblue" d="M607.51,-336.43C626.42,-319.27 665.47,-278.56 665.47,-235 665.47,-235 665.47,-235 665.47,-177 665.47,-132.22 619.41,-98.32 588.6,-80.66"/>
<polygon fill="midnightblue" stroke="midnightblue" points="590.04,-77.46 579.59,-75.7 586.66,-83.59 590.04,-77.46"/>
</g>
<!-- Node20 -->
<g id="node20" class="node">
<title>Node20</title>
<g id="a_node20"><a xlink:href="$a00173.html" xlink:title=" ">
<polygon fill="white" stroke="black" points="693.47,-280.5 693.47,-299.5 809.47,-299.5 809.47,-280.5 693.47,-280.5"/>
<text text-anchor="middle" x="751.47" y="-287.5" font-family="Helvetica,sans-Serif" font-size="10.00">IMaterialCreator.hpp</text>
</a>
</g>
</g>
<!-- Node19&#45;&gt;Node20 -->
<g id="edge35" class="edge">
<title>Node19&#45;&gt;Node20</title>
<path fill="none" stroke="midnightblue" d="M621.88,-336.44C647.67,-327.4 688.55,-313.06 717.49,-302.92"/>
<polygon fill="midnightblue" stroke="midnightblue" points="718.91,-306.13 727.19,-299.52 716.59,-299.52 718.91,-306.13"/>
</g>
<!-- Node21 -->
<g id="node21" class="node">
<title>Node21</title>
<g id="a_node21"><a xlink:href="$a00182.html" xlink:title=" ">
<polygon fill="white" stroke="black" points="475.97,-280.5 475.97,-299.5 580.97,-299.5 580.97,-280.5 475.97,-280.5"/>
<text text-anchor="middle" x="528.47" y="-287.5" font-family="Helvetica,sans-Serif" font-size="10.00">PluginHandler.hpp</text>
</a>
</g>
</g>
<!-- Node19&#45;&gt;Node21 -->
<g id="edge41" class="edge">
<title>Node19&#45;&gt;Node21</title>
<path fill="none" stroke="midnightblue" d="M586.39,-336.32C575.99,-328.18 560.21,-315.84 547.75,-306.09"/>
<polygon fill="midnightblue" stroke="midnightblue" points="549.79,-303.24 539.76,-299.83 545.48,-308.75 549.79,-303.24"/>
</g>
<!-- Node20&#45;&gt;Node4 -->
<g id="edge36" class="edge">
<title>Node20&#45;&gt;Node4</title>
<path fill="none" stroke="midnightblue" d="M754.74,-280.45C766.42,-249.32 804.55,-142.21 788.47,-112 764.41,-66.78 710.09,-38.18 673.85,-23.37"/>
<polygon fill="midnightblue" stroke="midnightblue" points="674.74,-19.96 664.15,-19.56 672.18,-26.48 674.74,-19.96"/>
</g>
<!-- Node20&#45;&gt;Node5 -->
<g id="edge38" class="edge">
<title>Node20&#45;&gt;Node5</title>
<path fill="none" stroke="midnightblue" d="M693.39,-282.11C602.08,-271.27 426.79,-250.47 343.13,-240.54"/>
<polygon fill="midnightblue" stroke="midnightblue" points="343.5,-237.06 333.16,-239.35 342.67,-244.01 343.5,-237.06"/>
</g>
<!-- Node20&#45;&gt;Node6 -->
<g id="edge37" class="edge">
<title>Node20&#45;&gt;Node6</title>
<path fill="none" stroke="midnightblue" d="M771.12,-280.44C791.44,-271.6 823.38,-257.69 846.57,-247.59"/>
<polygon fill="midnightblue" stroke="midnightblue" points="848.15,-250.72 855.92,-243.52 845.35,-244.3 848.15,-250.72"/>
</g>
<!-- Node20&#45;&gt;Node10 -->
<g id="edge39" class="edge">
<title>Node20&#45;&gt;Node10</title>
<path fill="none" stroke="midnightblue" d="M750.39,-280.28C746.44,-251.98 730.22,-161.64 679.47,-112 660.41,-93.35 632.83,-82.27 609.12,-75.77"/>
<polygon fill="midnightblue" stroke="midnightblue" points="609.79,-72.32 599.24,-73.25 608.07,-79.11 609.79,-72.32"/>
</g>
<!-- Node21&#45;&gt;Node3 -->
<g id="edge42" class="edge">
<title>Node21&#45;&gt;Node3</title>
<path fill="none" stroke="midnightblue" d="M507.37,-280.45C486.03,-271.69 452.2,-257.49 423.47,-244 387.49,-227.1 346.71,-205.85 321.29,-192.34"/>
<polygon fill="midnightblue" stroke="midnightblue" points="322.81,-189.18 312.34,-187.56 319.52,-195.36 322.81,-189.18"/>
</g>
<!-- Node21&#45;&gt;Node4 -->
<g id="edge43" class="edge">
<title>Node21&#45;&gt;Node4</title>
<path fill="none" stroke="midnightblue" d="M554.32,-280.41C571.97,-273.29 594.6,-261.47 608.47,-244 627.2,-220.43 627.47,-209.1 627.47,-179 627.47,-179 627.47,-179 627.47,-121 627.47,-88.79 632.2,-51.53 635.46,-29.69"/>
<polygon fill="midnightblue" stroke="midnightblue" points="638.96,-29.95 637.04,-19.53 632.04,-28.87 638.96,-29.95"/>
</g>
<!-- Node21&#45;&gt;Node5 -->
<g id="edge47" class="edge">
<title>Node21&#45;&gt;Node5</title>
<path fill="none" stroke="midnightblue" d="M491.71,-280.44C451.41,-271.06 386.67,-255.99 342.89,-245.8"/>
<polygon fill="midnightblue" stroke="midnightblue" points="343.6,-242.37 333.06,-243.52 342.01,-249.19 343.6,-242.37"/>
</g>
<!-- Node21&#45;&gt;Node10 -->
<g id="edge48" class="edge">
<title>Node21&#45;&gt;Node10</title>
<path fill="none" stroke="midnightblue" d="M502.97,-280.47C486.49,-273.48 466.34,-261.79 456.47,-244 452.17,-236.23 453.89,-232.51 456.47,-224 474.09,-165.96 521.07,-109.82 545.78,-83.14"/>
<polygon fill="midnightblue" stroke="midnightblue" points="548.63,-85.22 552.96,-75.55 543.55,-80.42 548.63,-85.22"/>
</g>
<!-- Node21&#45;&gt;Node15 -->
<g id="edge45" class="edge">
<title>Node21&#45;&gt;Node15</title>
<path fill="none" stroke="midnightblue" d="M560.49,-280.36C584.17,-273.03 616.5,-260.98 641.47,-244 685.05,-214.37 724.46,-165.46 743.48,-139.84"/>
<polygon fill="midnightblue" stroke="midnightblue" points="746.47,-141.68 749.53,-131.53 740.81,-137.55 746.47,-141.68"/>
</g>
<!-- Node22 -->
<g id="node22" class="node">
<title>Node22</title>
<g id="a_node22"><a xlink:title=" ">
<polygon fill="white" stroke="#bfbfbf" points="465.47,-224.5 465.47,-243.5 515.47,-243.5 515.47,-224.5 465.47,-224.5"/>
<text text-anchor="middle" x="490.47" y="-231.5" font-family="Helvetica,sans-Serif" font-size="10.00">dlfcn.h</text>
</a>
</g>
</g>
<!-- Node21&#45;&gt;Node22 -->
<g id="edge44" class="edge">
<title>Node21&#45;&gt;Node22</title>
<path fill="none" stroke="midnightblue" d="M522.2,-280.08C516.83,-272.46 508.96,-261.26 502.4,-251.94"/>
<polygon fill="midnightblue" stroke="midnightblue" points="505.25,-249.91 496.63,-243.75 499.53,-253.94 505.25,-249.91"/>
</g>
<!-- Node23 -->
<g id="node23" class="node">
<title>Node23</title>
<g id="a_node23"><a xlink:title=" ">
<polygon fill="white" stroke="#bfbfbf" points="533.97,-224.5 533.97,-243.5 598.97,-243.5 598.97,-224.5 533.97,-224.5"/>
<text text-anchor="middle" x="566.47" y="-231.5" font-family="Helvetica,sans-Serif" font-size="10.00">functional</text>
</a>
</g>
</g>
<!-- Node21&#45;&gt;Node23 -->
<g id="edge46" class="edge">
<title>Node21&#45;&gt;Node23</title>
<path fill="none" stroke="midnightblue" d="M534.75,-280.08C540.12,-272.46 547.99,-261.26 554.55,-251.94"/>
<polygon fill="midnightblue" stroke="midnightblue" points="557.42,-253.94 560.32,-243.75 551.7,-249.91 557.42,-253.94"/>
</g>
</g>
</svg>
