<?xml version="1.0" encoding="UTF-8" standalone="no"?>
<!DOCTYPE svg PUBLIC "-//W3C//DTD SVG 1.1//EN"
 "http://www.w3.org/Graphics/SVG/1.1/DTD/svg11.dtd">
<!-- Generated by graphviz version 2.43.0 (0)
 -->
<!-- Title: /home/runner/work/Raytracer/Raytracer/src/Plugins/Entities/EntityHandler.hpp Pages: 1 -->
<svg width="802pt" height="351pt"
 viewBox="0.00 0.00 802.00 351.00" xmlns="http://www.w3.org/2000/svg" xmlns:xlink="http://www.w3.org/1999/xlink">
<g id="graph0" class="graph" transform="scale(1 1) rotate(0) translate(4 347)">
<title>/home/runner/work/Raytracer/Raytracer/src/Plugins/Entities/EntityHandler.hpp</title>
<polygon fill="white" stroke="transparent" points="-4,4 -4,-347 798,-347 798,4 -4,4"/>
<!-- Node1 -->
<g id="node1" class="node">
<title>Node1</title>
<g id="a_node1"><a xlink:title=" ">
<polygon fill="#bfbfbf" stroke="black" points="104.5,-301.5 104.5,-342.5 266.5,-342.5 266.5,-301.5 104.5,-301.5"/>
<text text-anchor="start" x="112.5" y="-330.5" font-family="Helvetica,sans-Serif" font-size="10.00">/home/runner/work/Raytracer</text>
<text text-anchor="start" x="112.5" y="-319.5" font-family="Helvetica,sans-Serif" font-size="10.00">/Raytracer/src/Plugins/Entities</text>
<text text-anchor="middle" x="185.5" y="-308.5" font-family="Helvetica,sans-Serif" font-size="10.00">/EntityHandler.hpp</text>
</a>
</g>
</g>
<!-- Node2 -->
<g id="node2" class="node">
<title>Node2</title>
<g id="a_node2"><a xlink:href="$a00131.html" xlink:title=" ">
<polygon fill="white" stroke="black" points="160,-223.5 160,-264.5 319,-264.5 319,-223.5 160,-223.5"/>
<text text-anchor="start" x="168" y="-252.5" font-family="Helvetica,sans-Serif" font-size="10.00">/home/runner/work/Raytracer</text>
<text text-anchor="start" x="168" y="-241.5" font-family="Helvetica,sans-Serif" font-size="10.00">/Raytracer/src/Factories</text>
<text text-anchor="middle" x="239.5" y="-230.5" font-family="Helvetica,sans-Serif" font-size="10.00">/EntityFactory.hpp</text>
</a>
</g>
</g>
<!-- Node1&#45;&gt;Node2 -->
<g id="edge1" class="edge">
<title>Node1&#45;&gt;Node2</title>
<path fill="none" stroke="midnightblue" d="M205.36,-293.05C212.1,-283.57 219.47,-273.18 225.64,-264.51"/>
<polygon fill="midnightblue" stroke="midnightblue" points="202.35,-291.25 199.41,-301.43 208.05,-295.3 202.35,-291.25"/>
</g>
<!-- Node3 -->
<g id="node3" class="node">
<title>Node3</title>
<g id="a_node3"><a xlink:href="$a00194.html" xlink:title=" ">
<polygon fill="white" stroke="black" points="51.5,-145.5 51.5,-186.5 213.5,-186.5 213.5,-145.5 51.5,-145.5"/>
<text text-anchor="start" x="59.5" y="-174.5" font-family="Helvetica,sans-Serif" font-size="10.00">/home/runner/work/Raytracer</text>
<text text-anchor="start" x="59.5" y="-163.5" font-family="Helvetica,sans-Serif" font-size="10.00">/Raytracer/src/Plugins/Entities</text>
<text text-anchor="middle" x="132.5" y="-152.5" font-family="Helvetica,sans-Serif" font-size="10.00">/EntityLoader.hpp</text>
</a>
</g>
</g>
<!-- Node1&#45;&gt;Node3 -->
<g id="edge10" class="edge">
<title>Node1&#45;&gt;Node3</title>
<path fill="none" stroke="midnightblue" d="M165.11,-292.98C159.64,-284.35 154.22,-274.6 150.5,-265 140.43,-239.04 135.9,-206.97 133.93,-186.74"/>
<polygon fill="midnightblue" stroke="midnightblue" points="162.31,-295.09 170.75,-301.5 168.15,-291.23 162.31,-295.09"/>
</g>
<!-- Node2&#45;&gt;Node3 -->
<g id="edge2" class="edge">
<title>Node2&#45;&gt;Node3</title>
<path fill="none" stroke="midnightblue" d="M203.79,-217.64C189.5,-207.49 173.3,-195.98 159.96,-186.51"/>
<polygon fill="midnightblue" stroke="midnightblue" points="201.77,-220.49 211.94,-223.43 205.82,-214.78 201.77,-220.49"/>
</g>
<!-- Node6 -->
<g id="node6" class="node">
<title>Node6</title>
<g id="a_node6"><a xlink:href="$a00245.html" xlink:title=" ">
<polygon fill="white" stroke="black" points="260,-151 260,-181 435,-181 435,-151 260,-151"/>
<text text-anchor="start" x="268" y="-169" font-family="Helvetica,sans-Serif" font-size="10.00">/home/runner/work/Raytracer</text>
<text text-anchor="middle" x="347.5" y="-158" font-family="Helvetica,sans-Serif" font-size="10.00">/Raytracer/src/Scenes/Scene.hpp</text>
</a>
</g>
</g>
<!-- Node2&#45;&gt;Node6 -->
<g id="edge5" class="edge">
<title>Node2&#45;&gt;Node6</title>
<path fill="none" stroke="midnightblue" d="M275.52,-217.66C292.75,-205.53 312.75,-191.45 327.29,-181.23"/>
<polygon fill="midnightblue" stroke="midnightblue" points="273.48,-214.81 267.31,-223.43 277.51,-220.54 273.48,-214.81"/>
</g>
<!-- Node4 -->
<g id="node4" class="node">
<title>Node4</title>
<g id="a_node4"><a xlink:href="$a00248.html" xlink:title=" ">
<polygon fill="white" stroke="black" points="0,-73 0,-103 207,-103 207,-73 0,-73"/>
<text text-anchor="start" x="8" y="-91" font-family="Helvetica,sans-Serif" font-size="10.00">/home/runner/work/Raytracer</text>
<text text-anchor="middle" x="103.5" y="-80" font-family="Helvetica,sans-Serif" font-size="10.00">/Raytracer/src/Scenes/SceneLoader.hpp</text>
</a>
</g>
</g>
<!-- Node3&#45;&gt;Node4 -->
<g id="edge3" class="edge">
<title>Node3&#45;&gt;Node4</title>
<path fill="none" stroke="midnightblue" d="M121.42,-135.96C117.14,-124.75 112.44,-112.43 108.93,-103.23"/>
<polygon fill="midnightblue" stroke="midnightblue" points="118.2,-137.33 125.03,-145.43 124.74,-134.84 118.2,-137.33"/>
</g>
<!-- Node5 -->
<g id="node5" class="node">
<title>Node5</title>
<g id="a_node5"><a xlink:href="$a00092.html" xlink:title=" ">
<polygon fill="white" stroke="black" points="78,-0.5 78,-30.5 261,-30.5 261,-0.5 78,-0.5"/>
<text text-anchor="start" x="86" y="-18.5" font-family="Helvetica,sans-Serif" font-size="10.00">/home/runner/work/Raytracer</text>
<text text-anchor="middle" x="169.5" y="-7.5" font-family="Helvetica,sans-Serif" font-size="10.00">/Raytracer/src/Display/Display.hpp</text>
</a>
</g>
</g>
<!-- Node4&#45;&gt;Node5 -->
<g id="edge4" class="edge">
<title>Node4&#45;&gt;Node5</title>
<path fill="none" stroke="midnightblue" d="M123.75,-65.36C134.29,-54.11 146.86,-40.68 156.16,-30.75"/>
<polygon fill="midnightblue" stroke="midnightblue" points="121.14,-63.04 116.86,-72.73 126.25,-67.83 121.14,-63.04"/>
</g>
<!-- Node6&#45;&gt;Node5 -->
<g id="edge6" class="edge">
<title>Node6&#45;&gt;Node5</title>
<path fill="none" stroke="midnightblue" d="M310.74,-146.08C292.96,-136.14 271.78,-123.11 254.5,-109 252.47,-107.34 205.67,-56.14 182.4,-30.64"/>
<polygon fill="midnightblue" stroke="midnightblue" points="309.24,-149.25 319.69,-150.98 312.61,-143.11 309.24,-149.25"/>
</g>
<!-- Node7 -->
<g id="node7" class="node">
<title>Node7</title>
<g id="a_node7"><a xlink:href="$a00098.html" xlink:title=" ">
<polygon fill="white" stroke="black" points="263.5,-67.5 263.5,-108.5 431.5,-108.5 431.5,-67.5 263.5,-67.5"/>
<text text-anchor="start" x="271.5" y="-96.5" font-family="Helvetica,sans-Serif" font-size="10.00">/home/runner/work/Raytracer</text>
<text text-anchor="start" x="271.5" y="-85.5" font-family="Helvetica,sans-Serif" font-size="10.00">/Raytracer/src/Display/Modules</text>
<text text-anchor="middle" x="347.5" y="-74.5" font-family="Helvetica,sans-Serif" font-size="10.00">/CanvasModule.hpp</text>
</a>
</g>
</g>
<!-- Node6&#45;&gt;Node7 -->
<g id="edge7" class="edge">
<title>Node6&#45;&gt;Node7</title>
<path fill="none" stroke="midnightblue" d="M347.5,-140.66C347.5,-130.33 347.5,-118.44 347.5,-108.68"/>
<polygon fill="midnightblue" stroke="midnightblue" points="344,-140.7 347.5,-150.7 351,-140.71 344,-140.7"/>
</g>
<!-- Node8 -->
<g id="node8" class="node">
<title>Node8</title>
<g id="a_node8"><a xlink:href="$a00101.html" xlink:title=" ">
<polygon fill="white" stroke="black" points="449.5,-67.5 449.5,-108.5 617.5,-108.5 617.5,-67.5 449.5,-67.5"/>
<text text-anchor="start" x="457.5" y="-96.5" font-family="Helvetica,sans-Serif" font-size="10.00">/home/runner/work/Raytracer</text>
<text text-anchor="start" x="457.5" y="-85.5" font-family="Helvetica,sans-Serif" font-size="10.00">/Raytracer/src/Display/Modules</text>
<text text-anchor="middle" x="533.5" y="-74.5" font-family="Helvetica,sans-Serif" font-size="10.00">/ProgressModule.hpp</text>
</a>
</g>
</g>
<!-- Node6&#45;&gt;Node8 -->
<g id="edge8" class="edge">
<title>Node6&#45;&gt;Node8</title>
<path fill="none" stroke="midnightblue" d="M391.66,-146.96C419.89,-135.42 456.51,-120.46 485.46,-108.63"/>
<polygon fill="midnightblue" stroke="midnightblue" points="389.98,-143.86 382.05,-150.88 392.63,-150.34 389.98,-143.86"/>
</g>
<!-- Node9 -->
<g id="node9" class="node">
<title>Node9</title>
<g id="a_node9"><a xlink:href="$a00182.html" xlink:title=" ">
<polygon fill="white" stroke="black" points="635,-73 635,-103 794,-103 794,-73 635,-73"/>
<text text-anchor="start" x="643" y="-91" font-family="Helvetica,sans-Serif" font-size="10.00">/home/runner/work/Raytracer</text>
<text text-anchor="middle" x="714.5" y="-80" font-family="Helvetica,sans-Serif" font-size="10.00">/Raytracer/src/Main.hpp</text>
</a>
</g>
</g>
<!-- Node6&#45;&gt;Node9 -->
<g id="edge9" class="edge">
<title>Node6&#45;&gt;Node9</title>
<path fill="none" stroke="midnightblue" d="M430.01,-149.01C485.61,-138.09 560.55,-123.11 626.5,-109 635.23,-107.13 644.44,-105.1 653.48,-103.08"/>
<polygon fill="midnightblue" stroke="midnightblue" points="429,-145.64 419.86,-151 430.35,-152.51 429,-145.64"/>
</g>
</g>
</svg>
