<?xml version="1.0" encoding="UTF-8" standalone="no"?>
<!DOCTYPE svg PUBLIC "-//W3C//DTD SVG 1.1//EN"
 "http://www.w3.org/Graphics/SVG/1.1/DTD/svg11.dtd">
<!-- Generated by graphviz version 2.43.0 (0)
 -->
<!-- Title: /home/runner/work/Raytracer/Raytracer/src/Entities/IPrimitive.hpp Pages: 1 -->
<svg width="640pt" height="330pt"
 viewBox="0.00 0.00 639.50 330.00" xmlns="http://www.w3.org/2000/svg" xmlns:xlink="http://www.w3.org/1999/xlink">
<g id="graph0" class="graph" transform="scale(1 1) rotate(0) translate(4 326)">
<title>/home/runner/work/Raytracer/Raytracer/src/Entities/IPrimitive.hpp</title>
<polygon fill="white" stroke="transparent" points="-4,4 -4,-326 635.5,-326 635.5,4 -4,4"/>
<!-- Node1 -->
<g id="node1" class="node">
<title>Node1</title>
<g id="a_node1"><a xlink:title=" ">
<polygon fill="#bfbfbf" stroke="black" points="196.5,-280.5 196.5,-321.5 355.5,-321.5 355.5,-280.5 196.5,-280.5"/>
<text text-anchor="start" x="204.5" y="-309.5" font-family="Helvetica,sans-Serif" font-size="10.00">/home/runner/work/Raytracer</text>
<text text-anchor="start" x="204.5" y="-298.5" font-family="Helvetica,sans-Serif" font-size="10.00">/Raytracer/src/Entities</text>
<text text-anchor="middle" x="276" y="-287.5" font-family="Helvetica,sans-Serif" font-size="10.00">/IPrimitive.hpp</text>
</a>
</g>
</g>
<!-- Node2 -->
<g id="node2" class="node">
<title>Node2</title>
<g id="a_node2"><a xlink:title=" ">
<polygon fill="white" stroke="#bfbfbf" points="0,-224.5 0,-243.5 56,-243.5 56,-224.5 0,-224.5"/>
<text text-anchor="middle" x="28" y="-231.5" font-family="Helvetica,sans-Serif" font-size="10.00">optional</text>
</a>
</g>
</g>
<!-- Node1&#45;&gt;Node2 -->
<g id="edge1" class="edge">
<title>Node1&#45;&gt;Node2</title>
<path fill="none" stroke="midnightblue" d="M201.59,-280.5C157.05,-268.82 102.29,-254.47 66.33,-245.05"/>
<polygon fill="midnightblue" stroke="midnightblue" points="66.82,-241.56 56.26,-242.41 65.04,-248.33 66.82,-241.56"/>
</g>
<!-- Node3 -->
<g id="node3" class="node">
<title>Node3</title>
<g id="a_node3"><a xlink:href="$a00161.html" xlink:title=" ">
<polygon fill="white" stroke="black" points="383,-168.5 383,-187.5 445,-187.5 445,-168.5 383,-168.5"/>
<text text-anchor="middle" x="414" y="-175.5" font-family="Helvetica,sans-Serif" font-size="10.00">Color.hpp</text>
</a>
</g>
</g>
<!-- Node1&#45;&gt;Node3 -->
<g id="edge2" class="edge">
<title>Node1&#45;&gt;Node3</title>
<path fill="none" stroke="midnightblue" d="M342.51,-280.43C361.72,-271.94 381.2,-260.14 395,-244 406.1,-231.03 410.72,-211.86 412.64,-197.7"/>
<polygon fill="midnightblue" stroke="midnightblue" points="416.13,-197.94 413.67,-187.63 409.17,-197.22 416.13,-197.94"/>
</g>
<!-- Node11 -->
<g id="node11" class="node">
<title>Node11</title>
<g id="a_node11"><a xlink:href="$a00239.html" xlink:title=" ">
<polygon fill="white" stroke="black" points="485,-168.5 485,-187.5 583,-187.5 583,-168.5 485,-168.5"/>
<text text-anchor="middle" x="534" y="-175.5" font-family="Helvetica,sans-Serif" font-size="10.00">IDisplayable.hpp</text>
</a>
</g>
</g>
<!-- Node1&#45;&gt;Node11 -->
<g id="edge10" class="edge">
<title>Node1&#45;&gt;Node11</title>
<path fill="none" stroke="midnightblue" d="M328.03,-280.46C354.13,-270.27 386.06,-257.19 414,-244 448.43,-227.75 486.91,-206.3 510.79,-192.57"/>
<polygon fill="midnightblue" stroke="midnightblue" points="512.59,-195.58 519.49,-187.54 509.08,-189.52 512.59,-195.58"/>
</g>
<!-- Node13 -->
<g id="node13" class="node">
<title>Node13</title>
<g id="a_node13"><a xlink:href="$a00110.html" xlink:title=" ">
<polygon fill="white" stroke="black" points="164,-224.5 164,-243.5 232,-243.5 232,-224.5 164,-224.5"/>
<text text-anchor="middle" x="198" y="-231.5" font-family="Helvetica,sans-Serif" font-size="10.00">IEntity.hpp</text>
</a>
</g>
</g>
<!-- Node1&#45;&gt;Node13 -->
<g id="edge13" class="edge">
<title>Node1&#45;&gt;Node13</title>
<path fill="none" stroke="midnightblue" d="M252.6,-280.5C240.98,-270.82 227.16,-259.3 216.33,-250.27"/>
<polygon fill="midnightblue" stroke="midnightblue" points="218.31,-247.37 208.38,-243.65 213.82,-252.74 218.31,-247.37"/>
</g>
<!-- Node15 -->
<g id="node15" class="node">
<title>Node15</title>
<g id="a_node15"><a xlink:href="$a00131.html" xlink:title=" ">
<polygon fill="white" stroke="black" points="91.5,-112.5 91.5,-131.5 168.5,-131.5 168.5,-112.5 91.5,-112.5"/>
<text text-anchor="middle" x="130" y="-119.5" font-family="Helvetica,sans-Serif" font-size="10.00">Vector3f.hpp</text>
</a>
</g>
</g>
<!-- Node1&#45;&gt;Node15 -->
<g id="edge26" class="edge">
<title>Node1&#45;&gt;Node15</title>
<path fill="none" stroke="midnightblue" d="M212.46,-280.39C170.98,-263.54 121.24,-234.46 103,-188 96.54,-171.55 106,-152.94 115.45,-139.86"/>
<polygon fill="midnightblue" stroke="midnightblue" points="118.37,-141.81 121.79,-131.79 112.86,-137.49 118.37,-141.81"/>
</g>
<!-- Node16 -->
<g id="node16" class="node">
<title>Node16</title>
<g id="a_node16"><a xlink:href="$a00116.html" xlink:title=" ">
<polygon fill="white" stroke="black" points="304.5,-224.5 304.5,-243.5 385.5,-243.5 385.5,-224.5 304.5,-224.5"/>
<text text-anchor="middle" x="345" y="-231.5" font-family="Helvetica,sans-Serif" font-size="10.00">IMaterial.hpp</text>
</a>
</g>
</g>
<!-- Node1&#45;&gt;Node16 -->
<g id="edge18" class="edge">
<title>Node1&#45;&gt;Node16</title>
<path fill="none" stroke="midnightblue" d="M296.7,-280.5C306.87,-270.92 318.96,-259.53 328.5,-250.54"/>
<polygon fill="midnightblue" stroke="midnightblue" points="330.94,-253.06 335.82,-243.65 326.14,-247.96 330.94,-253.06"/>
</g>
<!-- Node17 -->
<g id="node17" class="node">
<title>Node17</title>
<g id="a_node17"><a xlink:href="$a00176.html" xlink:title=" ">
<polygon fill="white" stroke="black" points="271.5,-168.5 271.5,-187.5 326.5,-187.5 326.5,-168.5 271.5,-168.5"/>
<text text-anchor="middle" x="299" y="-175.5" font-family="Helvetica,sans-Serif" font-size="10.00">Ray.hpp</text>
</a>
</g>
</g>
<!-- Node1&#45;&gt;Node17 -->
<g id="edge25" class="edge">
<title>Node1&#45;&gt;Node17</title>
<path fill="none" stroke="midnightblue" d="M279.75,-280.29C284.1,-257.37 291.24,-219.85 295.49,-197.47"/>
<polygon fill="midnightblue" stroke="midnightblue" points="298.94,-198.05 297.37,-187.57 292.06,-196.75 298.94,-198.05"/>
</g>
<!-- Node4 -->
<g id="node4" class="node">
<title>Node4</title>
<g id="a_node4"><a xlink:title=" ">
<polygon fill="white" stroke="#bfbfbf" points="442,-112.5 442,-131.5 490,-131.5 490,-112.5 442,-112.5"/>
<text text-anchor="middle" x="466" y="-119.5" font-family="Helvetica,sans-Serif" font-size="10.00">mutex</text>
</a>
</g>
</g>
<!-- Node3&#45;&gt;Node4 -->
<g id="edge3" class="edge">
<title>Node3&#45;&gt;Node4</title>
<path fill="none" stroke="midnightblue" d="M422.59,-168.08C430.16,-160.22 441.38,-148.57 450.51,-139.08"/>
<polygon fill="midnightblue" stroke="midnightblue" points="453.16,-141.38 457.57,-131.75 448.12,-136.53 453.16,-141.38"/>
</g>
<!-- Node5 -->
<g id="node5" class="node">
<title>Node5</title>
<g id="a_node5"><a xlink:title=" ">
<polygon fill="white" stroke="#bfbfbf" points="470.5,-56.5 470.5,-75.5 527.5,-75.5 527.5,-56.5 470.5,-56.5"/>
<text text-anchor="middle" x="499" y="-63.5" font-family="Helvetica,sans-Serif" font-size="10.00">ostream</text>
</a>
</g>
</g>
<!-- Node3&#45;&gt;Node5 -->
<g id="edge4" class="edge">
<title>Node3&#45;&gt;Node5</title>
<path fill="none" stroke="midnightblue" d="M445.22,-169.29C464.37,-162.77 487.37,-151.31 499,-132 507.36,-118.12 506.34,-99.35 503.83,-85.56"/>
<polygon fill="midnightblue" stroke="midnightblue" points="507.24,-84.75 501.66,-75.74 500.41,-86.26 507.24,-84.75"/>
</g>
<!-- Node6 -->
<g id="node6" class="node">
<title>Node6</title>
<g id="a_node6"><a xlink:title=" ">
<polygon fill="white" stroke="#bfbfbf" points="186.5,-112.5 186.5,-131.5 323.5,-131.5 323.5,-112.5 186.5,-112.5"/>
<text text-anchor="middle" x="255" y="-119.5" font-family="Helvetica,sans-Serif" font-size="10.00">SFML/Graphics/Color.hpp</text>
</a>
</g>
</g>
<!-- Node3&#45;&gt;Node6 -->
<g id="edge5" class="edge">
<title>Node3&#45;&gt;Node6</title>
<path fill="none" stroke="midnightblue" d="M388.81,-168.44C362.06,-159.36 319.6,-144.94 289.69,-134.78"/>
<polygon fill="midnightblue" stroke="midnightblue" points="290.67,-131.42 280.08,-131.52 288.42,-138.05 290.67,-131.42"/>
</g>
<!-- Node7 -->
<g id="node7" class="node">
<title>Node7</title>
<g id="a_node7"><a xlink:title=" ">
<polygon fill="white" stroke="#bfbfbf" points="342,-112.5 342,-131.5 386,-131.5 386,-112.5 342,-112.5"/>
<text text-anchor="middle" x="364" y="-119.5" font-family="Helvetica,sans-Serif" font-size="10.00">string</text>
</a>
</g>
</g>
<!-- Node3&#45;&gt;Node7 -->
<g id="edge6" class="edge">
<title>Node3&#45;&gt;Node7</title>
<path fill="none" stroke="midnightblue" d="M405.74,-168.08C398.54,-160.3 387.89,-148.8 379.15,-139.37"/>
<polygon fill="midnightblue" stroke="midnightblue" points="381.47,-136.71 372.1,-131.75 376.33,-141.47 381.47,-136.71"/>
</g>
<!-- Node8 -->
<g id="node8" class="node">
<title>Node8</title>
<g id="a_node8"><a xlink:href="$a00245.html" xlink:title=" ">
<polygon fill="white" stroke="black" points="376.5,-56.5 376.5,-75.5 451.5,-75.5 451.5,-56.5 376.5,-56.5"/>
<text text-anchor="middle" x="414" y="-63.5" font-family="Helvetica,sans-Serif" font-size="10.00">ISetting.hpp</text>
</a>
</g>
</g>
<!-- Node3&#45;&gt;Node8 -->
<g id="edge7" class="edge">
<title>Node3&#45;&gt;Node8</title>
<path fill="none" stroke="midnightblue" d="M414,-168.37C414,-150.62 414,-109.67 414,-85.6"/>
<polygon fill="midnightblue" stroke="midnightblue" points="417.5,-85.59 414,-75.59 410.5,-85.59 417.5,-85.59"/>
</g>
<!-- Node9 -->
<g id="node9" class="node">
<title>Node9</title>
<g id="a_node9"><a xlink:title=" ">
<polygon fill="white" stroke="#bfbfbf" points="500,-0.5 500,-19.5 558,-19.5 558,-0.5 500,-0.5"/>
<text text-anchor="middle" x="529" y="-7.5" font-family="Helvetica,sans-Serif" font-size="10.00">memory</text>
</a>
</g>
</g>
<!-- Node8&#45;&gt;Node9 -->
<g id="edge8" class="edge">
<title>Node8&#45;&gt;Node9</title>
<path fill="none" stroke="midnightblue" d="M432.22,-56.44C450.9,-47.68 480.16,-33.94 501.62,-23.86"/>
<polygon fill="midnightblue" stroke="midnightblue" points="503.3,-26.93 510.86,-19.52 500.32,-20.6 503.3,-26.93"/>
</g>
<!-- Node10 -->
<g id="node10" class="node">
<title>Node10</title>
<g id="a_node10"><a xlink:title=" ">
<polygon fill="white" stroke="#bfbfbf" points="372.5,-0.5 372.5,-19.5 455.5,-19.5 455.5,-0.5 372.5,-0.5"/>
<text text-anchor="middle" x="414" y="-7.5" font-family="Helvetica,sans-Serif" font-size="10.00">libconfig.h++</text>
</a>
</g>
</g>
<!-- Node8&#45;&gt;Node10 -->
<g id="edge9" class="edge">
<title>Node8&#45;&gt;Node10</title>
<path fill="none" stroke="midnightblue" d="M414,-56.08C414,-49.01 414,-38.86 414,-29.99"/>
<polygon fill="midnightblue" stroke="midnightblue" points="417.5,-29.75 414,-19.75 410.5,-29.75 417.5,-29.75"/>
</g>
<!-- Node11&#45;&gt;Node9 -->
<g id="edge11" class="edge">
<title>Node11&#45;&gt;Node9</title>
<path fill="none" stroke="midnightblue" d="M534.87,-168.47C536.75,-148.67 540.71,-98.07 537,-56 536.22,-47.2 534.61,-37.54 533.03,-29.43"/>
<polygon fill="midnightblue" stroke="midnightblue" points="536.44,-28.65 530.99,-19.57 529.59,-30.07 536.44,-28.65"/>
</g>
<!-- Node12 -->
<g id="node12" class="node">
<title>Node12</title>
<g id="a_node12"><a xlink:title=" ">
<polygon fill="white" stroke="#bfbfbf" points="584.5,-112.5 584.5,-131.5 631.5,-131.5 631.5,-112.5 584.5,-112.5"/>
<text text-anchor="middle" x="608" y="-119.5" font-family="Helvetica,sans-Serif" font-size="10.00">vector</text>
</a>
</g>
</g>
<!-- Node11&#45;&gt;Node12 -->
<g id="edge12" class="edge">
<title>Node11&#45;&gt;Node12</title>
<path fill="none" stroke="midnightblue" d="M545.89,-168.32C557.15,-160.11 574.29,-147.6 587.71,-137.81"/>
<polygon fill="midnightblue" stroke="midnightblue" points="589.88,-140.56 595.89,-131.83 585.75,-134.9 589.88,-140.56"/>
</g>
<!-- Node14 -->
<g id="node14" class="node">
<title>Node14</title>
<g id="a_node14"><a xlink:href="$a00122.html" xlink:title=" ">
<polygon fill="white" stroke="black" points="112.5,-168.5 112.5,-187.5 253.5,-187.5 253.5,-168.5 112.5,-168.5"/>
<text text-anchor="middle" x="183" y="-175.5" font-family="Helvetica,sans-Serif" font-size="10.00">Transform/ITransform.hpp</text>
</a>
</g>
</g>
<!-- Node13&#45;&gt;Node14 -->
<g id="edge14" class="edge">
<title>Node13&#45;&gt;Node14</title>
<path fill="none" stroke="midnightblue" d="M195.52,-224.08C193.51,-216.85 190.61,-206.41 188.11,-197.4"/>
<polygon fill="midnightblue" stroke="midnightblue" points="191.48,-196.45 185.43,-187.75 184.74,-198.32 191.48,-196.45"/>
</g>
<!-- Node14&#45;&gt;Node15 -->
<g id="edge15" class="edge">
<title>Node14&#45;&gt;Node15</title>
<path fill="none" stroke="midnightblue" d="M174.25,-168.08C166.53,-160.22 155.1,-148.57 145.78,-139.08"/>
<polygon fill="midnightblue" stroke="midnightblue" points="148.09,-136.44 138.59,-131.75 143.1,-141.34 148.09,-136.44"/>
</g>
<!-- Node15&#45;&gt;Node5 -->
<g id="edge16" class="edge">
<title>Node15&#45;&gt;Node5</title>
<path fill="none" stroke="midnightblue" d="M168.69,-113.39C171.5,-112.9 174.29,-112.43 177,-112 299.46,-92.53 334.06,-98.37 460.37,-75.92"/>
<polygon fill="midnightblue" stroke="midnightblue" points="461.21,-79.33 470.43,-74.11 459.97,-72.44 461.21,-79.33"/>
</g>
<!-- Node15&#45;&gt;Node8 -->
<g id="edge17" class="edge">
<title>Node15&#45;&gt;Node8</title>
<path fill="none" stroke="midnightblue" d="M168.73,-113.58C171.53,-113.04 174.31,-112.51 177,-112 242.54,-99.5 318.29,-85.13 366.16,-76.06"/>
<polygon fill="midnightblue" stroke="midnightblue" points="367.06,-79.45 376.23,-74.15 365.76,-72.58 367.06,-79.45"/>
</g>
<!-- Node16&#45;&gt;Node3 -->
<g id="edge21" class="edge">
<title>Node16&#45;&gt;Node3</title>
<path fill="none" stroke="midnightblue" d="M356.09,-224.32C366.49,-216.18 382.26,-203.84 394.72,-194.09"/>
<polygon fill="midnightblue" stroke="midnightblue" points="396.99,-196.75 402.71,-187.83 392.68,-191.24 396.99,-196.75"/>
</g>
<!-- Node16&#45;&gt;Node11 -->
<g id="edge22" class="edge">
<title>Node16&#45;&gt;Node11</title>
<path fill="none" stroke="midnightblue" d="M374.95,-224.44C407.16,-215.24 458.53,-200.56 494.14,-190.39"/>
<polygon fill="midnightblue" stroke="midnightblue" points="495.54,-193.63 504.19,-187.52 493.62,-186.9 495.54,-193.63"/>
</g>
<!-- Node16&#45;&gt;Node14 -->
<g id="edge23" class="edge">
<title>Node16&#45;&gt;Node14</title>
<path fill="none" stroke="midnightblue" d="M319.33,-224.44C292.08,-215.36 248.82,-200.94 218.35,-190.78"/>
<polygon fill="midnightblue" stroke="midnightblue" points="219.14,-187.36 208.55,-187.52 216.93,-194 219.14,-187.36"/>
</g>
<!-- Node16&#45;&gt;Node15 -->
<g id="edge24" class="edge">
<title>Node16&#45;&gt;Node15</title>
<path fill="none" stroke="midnightblue" d="M346.64,-224.12C348.66,-210.23 350.24,-183.39 336,-168 333.29,-165.07 238.66,-145.25 178.61,-132.91"/>
<polygon fill="midnightblue" stroke="midnightblue" points="179.06,-129.43 168.56,-130.85 177.65,-136.28 179.06,-129.43"/>
</g>
<!-- Node16&#45;&gt;Node17 -->
<g id="edge19" class="edge">
<title>Node16&#45;&gt;Node17</title>
<path fill="none" stroke="midnightblue" d="M337.4,-224.08C330.77,-216.3 320.98,-204.8 312.94,-195.37"/>
<polygon fill="midnightblue" stroke="midnightblue" points="315.6,-193.09 306.45,-187.75 310.27,-197.63 315.6,-193.09"/>
</g>
<!-- Node17&#45;&gt;Node15 -->
<g id="edge20" class="edge">
<title>Node17&#45;&gt;Node15</title>
<path fill="none" stroke="midnightblue" d="M272.22,-168.44C243.67,-159.32 198.27,-144.81 166.46,-134.65"/>
<polygon fill="midnightblue" stroke="midnightblue" points="167.24,-131.23 156.65,-131.52 165.11,-137.89 167.24,-131.23"/>
</g>
</g>
</svg>
