<?xml version="1.0" encoding="UTF-8" standalone="no"?>
<!DOCTYPE svg PUBLIC "-//W3C//DTD SVG 1.1//EN"
 "http://www.w3.org/Graphics/SVG/1.1/DTD/svg11.dtd">
<!-- Generated by graphviz version 2.43.0 (0)
 -->
<!-- Title: /home/runner/work/Raytracer/Raytracer/src/Factories/IFilterFactory.hpp Pages: 1 -->
<svg width="436pt" height="386pt"
 viewBox="0.00 0.00 436.00 386.00" xmlns="http://www.w3.org/2000/svg" xmlns:xlink="http://www.w3.org/1999/xlink">
<g id="graph0" class="graph" transform="scale(1 1) rotate(0) translate(4 382)">
<title>/home/runner/work/Raytracer/Raytracer/src/Factories/IFilterFactory.hpp</title>
<polygon fill="white" stroke="transparent" points="-4,4 -4,-382 432,-382 432,4 -4,4"/>
<!-- Node1 -->
<g id="node1" class="node">
<title>Node1</title>
<g id="a_node1"><a xlink:title=" ">
<polygon fill="#bfbfbf" stroke="black" points="0,-336.5 0,-377.5 159,-377.5 159,-336.5 0,-336.5"/>
<text text-anchor="start" x="8" y="-365.5" font-family="Helvetica,sans-Serif" font-size="10.00">/home/runner/work/Raytracer</text>
<text text-anchor="start" x="8" y="-354.5" font-family="Helvetica,sans-Serif" font-size="10.00">/Raytracer/src/Factories</text>
<text text-anchor="middle" x="79.5" y="-343.5" font-family="Helvetica,sans-Serif" font-size="10.00">/IFilterFactory.hpp</text>
</a>
</g>
</g>
<!-- Node2 -->
<g id="node2" class="node">
<title>Node2</title>
<g id="a_node2"><a xlink:href="$a00206.html" xlink:title=" ">
<polygon fill="white" stroke="black" points="208,-56.5 208,-75.5 283,-75.5 283,-56.5 208,-56.5"/>
<text text-anchor="middle" x="245.5" y="-63.5" font-family="Helvetica,sans-Serif" font-size="10.00">ISetting.hpp</text>
</a>
</g>
</g>
<!-- Node1&#45;&gt;Node2 -->
<g id="edge1" class="edge">
<title>Node1&#45;&gt;Node2</title>
<path fill="none" stroke="midnightblue" d="M61.05,-336.33C41.83,-313.71 14.5,-274.58 14.5,-235 14.5,-235 14.5,-235 14.5,-177 14.5,-96.51 130.23,-74.86 197.86,-69.07"/>
<polygon fill="midnightblue" stroke="midnightblue" points="198.17,-72.56 207.87,-68.3 197.63,-65.58 198.17,-72.56"/>
</g>
<!-- Node5 -->
<g id="node5" class="node">
<title>Node5</title>
<g id="a_node5"><a xlink:href="$a00119.html" xlink:title=" ">
<polygon fill="white" stroke="black" points="43,-224.5 43,-243.5 116,-243.5 116,-224.5 43,-224.5"/>
<text text-anchor="middle" x="79.5" y="-231.5" font-family="Helvetica,sans-Serif" font-size="10.00">ILogger.hpp</text>
</a>
</g>
</g>
<!-- Node1&#45;&gt;Node5 -->
<g id="edge4" class="edge">
<title>Node1&#45;&gt;Node5</title>
<path fill="none" stroke="midnightblue" d="M79.5,-336.29C79.5,-313.48 79.5,-276.19 79.5,-253.78"/>
<polygon fill="midnightblue" stroke="midnightblue" points="83,-253.57 79.5,-243.57 76,-253.57 83,-253.57"/>
</g>
<!-- Node7 -->
<g id="node7" class="node">
<title>Node7</title>
<g id="a_node7"><a xlink:href="$a00116.html" xlink:title=" ">
<polygon fill="white" stroke="black" points="122,-280.5 122,-299.5 187,-299.5 187,-280.5 122,-280.5"/>
<text text-anchor="middle" x="154.5" y="-287.5" font-family="Helvetica,sans-Serif" font-size="10.00">IFilter.hpp</text>
</a>
</g>
</g>
<!-- Node1&#45;&gt;Node7 -->
<g id="edge6" class="edge">
<title>Node1&#45;&gt;Node7</title>
<path fill="none" stroke="midnightblue" d="M102,-336.5C113.17,-326.82 126.46,-315.3 136.88,-306.27"/>
<polygon fill="midnightblue" stroke="midnightblue" points="139.25,-308.85 144.52,-299.65 134.67,-303.56 139.25,-308.85"/>
</g>
<!-- Node3 -->
<g id="node3" class="node">
<title>Node3</title>
<g id="a_node3"><a xlink:title=" ">
<polygon fill="white" stroke="#bfbfbf" points="334.5,-0.5 334.5,-19.5 392.5,-19.5 392.5,-0.5 334.5,-0.5"/>
<text text-anchor="middle" x="363.5" y="-7.5" font-family="Helvetica,sans-Serif" font-size="10.00">memory</text>
</a>
</g>
</g>
<!-- Node2&#45;&gt;Node3 -->
<g id="edge2" class="edge">
<title>Node2&#45;&gt;Node3</title>
<path fill="none" stroke="midnightblue" d="M264.2,-56.44C283.44,-47.64 313.65,-33.81 335.7,-23.72"/>
<polygon fill="midnightblue" stroke="midnightblue" points="337.25,-26.86 344.89,-19.52 334.34,-20.5 337.25,-26.86"/>
</g>
<!-- Node4 -->
<g id="node4" class="node">
<title>Node4</title>
<g id="a_node4"><a xlink:title=" ">
<polygon fill="white" stroke="#bfbfbf" points="204,-0.5 204,-19.5 287,-19.5 287,-0.5 204,-0.5"/>
<text text-anchor="middle" x="245.5" y="-7.5" font-family="Helvetica,sans-Serif" font-size="10.00">libconfig.h++</text>
</a>
</g>
</g>
<!-- Node2&#45;&gt;Node4 -->
<g id="edge3" class="edge">
<title>Node2&#45;&gt;Node4</title>
<path fill="none" stroke="midnightblue" d="M245.5,-56.08C245.5,-49.01 245.5,-38.86 245.5,-29.99"/>
<polygon fill="midnightblue" stroke="midnightblue" points="249,-29.75 245.5,-19.75 242,-29.75 249,-29.75"/>
</g>
<!-- Node6 -->
<g id="node6" class="node">
<title>Node6</title>
<g id="a_node6"><a xlink:title=" ">
<polygon fill="white" stroke="#bfbfbf" points="42.5,-168.5 42.5,-187.5 86.5,-187.5 86.5,-168.5 42.5,-168.5"/>
<text text-anchor="middle" x="64.5" y="-175.5" font-family="Helvetica,sans-Serif" font-size="10.00">string</text>
</a>
</g>
</g>
<!-- Node5&#45;&gt;Node6 -->
<g id="edge5" class="edge">
<title>Node5&#45;&gt;Node6</title>
<path fill="none" stroke="midnightblue" d="M77.02,-224.08C75.01,-216.85 72.11,-206.41 69.61,-197.4"/>
<polygon fill="midnightblue" stroke="midnightblue" points="72.98,-196.45 66.93,-187.75 66.24,-198.32 72.98,-196.45"/>
</g>
<!-- Node8 -->
<g id="node8" class="node">
<title>Node8</title>
<g id="a_node8"><a xlink:href="$a00125.html" xlink:title=" ">
<polygon fill="white" stroke="black" points="149.5,-224.5 149.5,-243.5 217.5,-243.5 217.5,-224.5 149.5,-224.5"/>
<text text-anchor="middle" x="183.5" y="-231.5" font-family="Helvetica,sans-Serif" font-size="10.00">Image.hpp</text>
</a>
</g>
</g>
<!-- Node7&#45;&gt;Node8 -->
<g id="edge7" class="edge">
<title>Node7&#45;&gt;Node8</title>
<path fill="none" stroke="midnightblue" d="M159.29,-280.08C163.26,-272.69 169.03,-261.95 173.93,-252.81"/>
<polygon fill="midnightblue" stroke="midnightblue" points="177.15,-254.22 178.8,-243.75 170.99,-250.91 177.15,-254.22"/>
</g>
<!-- Node8&#45;&gt;Node6 -->
<g id="edge9" class="edge">
<title>Node8&#45;&gt;Node6</title>
<path fill="none" stroke="midnightblue" d="M164.64,-224.44C145.23,-215.64 114.77,-201.81 92.54,-191.72"/>
<polygon fill="midnightblue" stroke="midnightblue" points="93.82,-188.46 83.27,-187.52 90.93,-194.84 93.82,-188.46"/>
</g>
<!-- Node9 -->
<g id="node9" class="node">
<title>Node9</title>
<g id="a_node9"><a xlink:title=" ">
<polygon fill="white" stroke="#bfbfbf" points="105,-168.5 105,-187.5 158,-187.5 158,-168.5 105,-168.5"/>
<text text-anchor="middle" x="131.5" y="-175.5" font-family="Helvetica,sans-Serif" font-size="10.00">cstddef</text>
</a>
</g>
</g>
<!-- Node8&#45;&gt;Node9 -->
<g id="edge8" class="edge">
<title>Node8&#45;&gt;Node9</title>
<path fill="none" stroke="midnightblue" d="M174.91,-224.08C167.34,-216.22 156.12,-204.57 146.99,-195.08"/>
<polygon fill="midnightblue" stroke="midnightblue" points="149.38,-192.53 139.93,-187.75 144.34,-197.38 149.38,-192.53"/>
</g>
<!-- Node10 -->
<g id="node10" class="node">
<title>Node10</title>
<g id="a_node10"><a xlink:title=" ">
<polygon fill="white" stroke="#bfbfbf" points="176,-168.5 176,-187.5 223,-187.5 223,-168.5 176,-168.5"/>
<text text-anchor="middle" x="199.5" y="-175.5" font-family="Helvetica,sans-Serif" font-size="10.00">vector</text>
</a>
</g>
</g>
<!-- Node8&#45;&gt;Node10 -->
<g id="edge10" class="edge">
<title>Node8&#45;&gt;Node10</title>
<path fill="none" stroke="midnightblue" d="M186.14,-224.08C188.29,-216.85 191.38,-206.41 194.05,-197.4"/>
<polygon fill="midnightblue" stroke="midnightblue" points="197.42,-198.33 196.91,-187.75 190.71,-196.34 197.42,-198.33"/>
</g>
<!-- Node11 -->
<g id="node11" class="node">
<title>Node11</title>
<g id="a_node11"><a xlink:href="$a00122.html" xlink:title=" ">
<polygon fill="white" stroke="black" points="241.5,-168.5 241.5,-187.5 303.5,-187.5 303.5,-168.5 241.5,-168.5"/>
<text text-anchor="middle" x="272.5" y="-175.5" font-family="Helvetica,sans-Serif" font-size="10.00">Color.hpp</text>
</a>
</g>
</g>
<!-- Node8&#45;&gt;Node11 -->
<g id="edge11" class="edge">
<title>Node8&#45;&gt;Node11</title>
<path fill="none" stroke="midnightblue" d="M197.8,-224.32C211.68,-215.9 232.99,-202.97 249.3,-193.07"/>
<polygon fill="midnightblue" stroke="midnightblue" points="251.5,-195.83 258.24,-187.65 247.87,-189.85 251.5,-195.83"/>
</g>
<!-- Node14 -->
<g id="node14" class="node">
<title>Node14</title>
<g id="a_node14"><a xlink:href="$a00089.html" xlink:title=" ">
<polygon fill="white" stroke="black" points="322,-168.5 322,-187.5 399,-187.5 399,-168.5 322,-168.5"/>
<text text-anchor="middle" x="360.5" y="-175.5" font-family="Helvetica,sans-Serif" font-size="10.00">Vector2i.hpp</text>
</a>
</g>
</g>
<!-- Node8&#45;&gt;Node14 -->
<g id="edge15" class="edge">
<title>Node8&#45;&gt;Node14</title>
<path fill="none" stroke="midnightblue" d="M211.55,-224.44C241.58,-215.28 289.41,-200.69 322.74,-190.52"/>
<polygon fill="midnightblue" stroke="midnightblue" points="324.04,-193.78 332.59,-187.52 322,-187.09 324.04,-193.78"/>
</g>
<!-- Node11&#45;&gt;Node2 -->
<g id="edge14" class="edge">
<title>Node11&#45;&gt;Node2</title>
<path fill="none" stroke="midnightblue" d="M250.04,-168.38C234.73,-161.18 215.64,-149.29 206.5,-132 197.35,-114.69 212.01,-95.54 225.9,-82.54"/>
<polygon fill="midnightblue" stroke="midnightblue" points="228.56,-84.87 233.8,-75.66 223.96,-79.59 228.56,-84.87"/>
</g>
<!-- Node12 -->
<g id="node12" class="node">
<title>Node12</title>
<g id="a_node12"><a xlink:title=" ">
<polygon fill="white" stroke="#bfbfbf" points="215.5,-112.5 215.5,-131.5 263.5,-131.5 263.5,-112.5 215.5,-112.5"/>
<text text-anchor="middle" x="239.5" y="-119.5" font-family="Helvetica,sans-Serif" font-size="10.00">mutex</text>
</a>
</g>
</g>
<!-- Node11&#45;&gt;Node12 -->
<g id="edge12" class="edge">
<title>Node11&#45;&gt;Node12</title>
<path fill="none" stroke="midnightblue" d="M267.05,-168.08C262.49,-160.61 255.83,-149.72 250.21,-140.52"/>
<polygon fill="midnightblue" stroke="midnightblue" points="253.05,-138.46 244.85,-131.75 247.08,-142.11 253.05,-138.46"/>
</g>
<!-- Node13 -->
<g id="node13" class="node">
<title>Node13</title>
<g id="a_node13"><a xlink:title=" ">
<polygon fill="white" stroke="#bfbfbf" points="282,-112.5 282,-131.5 339,-131.5 339,-112.5 282,-112.5"/>
<text text-anchor="middle" x="310.5" y="-119.5" font-family="Helvetica,sans-Serif" font-size="10.00">ostream</text>
</a>
</g>
</g>
<!-- Node11&#45;&gt;Node13 -->
<g id="edge13" class="edge">
<title>Node11&#45;&gt;Node13</title>
<path fill="none" stroke="midnightblue" d="M278.77,-168.08C284.14,-160.46 292.02,-149.26 298.58,-139.94"/>
<polygon fill="midnightblue" stroke="midnightblue" points="301.45,-141.94 304.34,-131.75 295.72,-137.91 301.45,-141.94"/>
</g>
<!-- Node14&#45;&gt;Node13 -->
<g id="edge16" class="edge">
<title>Node14&#45;&gt;Node13</title>
<path fill="none" stroke="midnightblue" d="M352.24,-168.08C345.04,-160.3 334.39,-148.8 325.65,-139.37"/>
<polygon fill="midnightblue" stroke="midnightblue" points="327.97,-136.71 318.6,-131.75 322.83,-141.47 327.97,-136.71"/>
</g>
<!-- Node15 -->
<g id="node15" class="node">
<title>Node15</title>
<g id="a_node15"><a xlink:href="$a00197.html" xlink:title=" ">
<polygon fill="white" stroke="black" points="357,-112.5 357,-131.5 428,-131.5 428,-112.5 357,-112.5"/>
<text text-anchor="middle" x="392.5" y="-119.5" font-family="Helvetica,sans-Serif" font-size="10.00">IConfig.hpp</text>
</a>
</g>
</g>
<!-- Node14&#45;&gt;Node15 -->
<g id="edge17" class="edge">
<title>Node14&#45;&gt;Node15</title>
<path fill="none" stroke="midnightblue" d="M365.78,-168.08C370.21,-160.61 376.66,-149.72 382.12,-140.52"/>
<polygon fill="midnightblue" stroke="midnightblue" points="385.23,-142.14 387.31,-131.75 379.21,-138.57 385.23,-142.14"/>
</g>
<!-- Node15&#45;&gt;Node2 -->
<g id="edge19" class="edge">
<title>Node15&#45;&gt;Node2</title>
<path fill="none" stroke="midnightblue" d="M369.21,-112.44C344.69,-103.44 305.9,-89.19 278.3,-79.05"/>
<polygon fill="midnightblue" stroke="midnightblue" points="279.28,-75.68 268.68,-75.52 276.86,-82.25 279.28,-75.68"/>
</g>
<!-- Node15&#45;&gt;Node3 -->
<g id="edge18" class="edge">
<title>Node15&#45;&gt;Node3</title>
<path fill="none" stroke="midnightblue" d="M390.22,-112.37C385.52,-94.54 374.65,-53.3 368.32,-29.27"/>
<polygon fill="midnightblue" stroke="midnightblue" points="371.7,-28.37 365.77,-19.59 364.93,-30.15 371.7,-28.37"/>
</g>
</g>
</svg>
