<?xml version="1.0" encoding="UTF-8" standalone="no"?>
<!DOCTYPE svg PUBLIC "-//W3C//DTD SVG 1.1//EN"
 "http://www.w3.org/Graphics/SVG/1.1/DTD/svg11.dtd">
<!-- Generated by graphviz version 2.43.0 (0)
 -->
<!-- Title: /home/runner/work/Raytracer/Raytracer/src/Entities/Transform/Transform.hpp Pages: 1 -->
<svg width="3423pt" height="206pt"
 viewBox="0.00 0.00 3423.00 206.00" xmlns="http://www.w3.org/2000/svg" xmlns:xlink="http://www.w3.org/1999/xlink">
<g id="graph0" class="graph" transform="scale(1 1) rotate(0) translate(4 202)">
<title>/home/runner/work/Raytracer/Raytracer/src/Entities/Transform/Transform.hpp</title>
<polygon fill="white" stroke="transparent" points="-4,4 -4,-202 3419,-202 3419,4 -4,4"/>
<!-- Node1 -->
<g id="node1" class="node">
<title>Node1</title>
<g id="a_node1"><a xlink:title=" ">
<polygon fill="#bfbfbf" stroke="black" points="1630.5,-156.5 1630.5,-197.5 1789.5,-197.5 1789.5,-156.5 1630.5,-156.5"/>
<text text-anchor="start" x="1638.5" y="-185.5" font-family="Helvetica,sans-Serif" font-size="10.00">/home/runner/work/Raytracer</text>
<text text-anchor="start" x="1638.5" y="-174.5" font-family="Helvetica,sans-Serif" font-size="10.00">/Raytracer/src/Entities</text>
<text text-anchor="middle" x="1710" y="-163.5" font-family="Helvetica,sans-Serif" font-size="10.00">/Transform/Transform.hpp</text>
</a>
</g>
</g>
<!-- Node2 -->
<g id="node2" class="node">
<title>Node2</title>
<g id="a_node2"><a xlink:href="$a00074.html" xlink:title=" ">
<polygon fill="white" stroke="black" points="0,-78.5 0,-119.5 168,-119.5 168,-78.5 0,-78.5"/>
<text text-anchor="start" x="8" y="-107.5" font-family="Helvetica,sans-Serif" font-size="10.00">/home/runner/work/Raytracer</text>
<text text-anchor="start" x="8" y="-96.5" font-family="Helvetica,sans-Serif" font-size="10.00">/Raytracer/src/Display/Modules</text>
<text text-anchor="middle" x="84" y="-85.5" font-family="Helvetica,sans-Serif" font-size="10.00">/CanvasModule.hpp</text>
</a>
</g>
</g>
<!-- Node1&#45;&gt;Node2 -->
<g id="edge1" class="edge">
<title>Node1&#45;&gt;Node2</title>
<path fill="none" stroke="midnightblue" d="M1620.06,-174.79C1335.79,-170.62 458.93,-155.19 177,-120 174.05,-119.63 171.06,-119.22 168.04,-118.76"/>
<polygon fill="midnightblue" stroke="midnightblue" points="1620.27,-178.29 1630.32,-174.93 1620.37,-171.29 1620.27,-178.29"/>
</g>
<!-- Node3 -->
<g id="node3" class="node">
<title>Node3</title>
<g id="a_node3"><a xlink:href="$a00077.html" xlink:title=" ">
<polygon fill="white" stroke="black" points="186,-78.5 186,-119.5 354,-119.5 354,-78.5 186,-78.5"/>
<text text-anchor="start" x="194" y="-107.5" font-family="Helvetica,sans-Serif" font-size="10.00">/home/runner/work/Raytracer</text>
<text text-anchor="start" x="194" y="-96.5" font-family="Helvetica,sans-Serif" font-size="10.00">/Raytracer/src/Display/Modules</text>
<text text-anchor="middle" x="270" y="-85.5" font-family="Helvetica,sans-Serif" font-size="10.00">/ProgressModule.hpp</text>
</a>
</g>
</g>
<!-- Node1&#45;&gt;Node3 -->
<g id="edge2" class="edge">
<title>Node1&#45;&gt;Node3</title>
<path fill="none" stroke="midnightblue" d="M1619.95,-174.26C1359.28,-168.9 607.16,-151.1 363,-120 360.05,-119.62 357.06,-119.2 354.04,-118.74"/>
<polygon fill="midnightblue" stroke="midnightblue" points="1620.06,-177.76 1630.13,-174.47 1620.2,-170.76 1620.06,-177.76"/>
</g>
<!-- Node4 -->
<g id="node4" class="node">
<title>Node4</title>
<g id="a_node4"><a xlink:href="$a00236.html" xlink:title=" ">
<polygon fill="white" stroke="black" points="372.5,-78.5 372.5,-119.5 561.5,-119.5 561.5,-78.5 372.5,-78.5"/>
<text text-anchor="start" x="380.5" y="-107.5" font-family="Helvetica,sans-Serif" font-size="10.00">/home/runner/work/Raytracer</text>
<text text-anchor="start" x="380.5" y="-96.5" font-family="Helvetica,sans-Serif" font-size="10.00">/Raytracer/PluginsExt/AmbientLight</text>
<text text-anchor="middle" x="467" y="-85.5" font-family="Helvetica,sans-Serif" font-size="10.00">/AmbientLightEntity.hpp</text>
</a>
</g>
</g>
<!-- Node1&#45;&gt;Node4 -->
<g id="edge3" class="edge">
<title>Node1&#45;&gt;Node4</title>
<path fill="none" stroke="midnightblue" d="M1620.19,-175.87C1427.35,-174.66 959.64,-166.69 571,-120 567.9,-119.63 564.75,-119.22 561.57,-118.77"/>
<polygon fill="midnightblue" stroke="midnightblue" points="1620.26,-179.37 1630.28,-175.93 1620.3,-172.37 1620.26,-179.37"/>
</g>
<!-- Node6 -->
<g id="node6" class="node">
<title>Node6</title>
<g id="a_node6"><a xlink:href="$a00254.html" xlink:title=" ">
<polygon fill="white" stroke="black" points="580,-78.5 580,-119.5 742,-119.5 742,-78.5 580,-78.5"/>
<text text-anchor="start" x="588" y="-107.5" font-family="Helvetica,sans-Serif" font-size="10.00">/home/runner/work/Raytracer</text>
<text text-anchor="start" x="588" y="-96.5" font-family="Helvetica,sans-Serif" font-size="10.00">/Raytracer/PluginsExt/Camera</text>
<text text-anchor="middle" x="661" y="-85.5" font-family="Helvetica,sans-Serif" font-size="10.00">/Basic/CameraEntity.hpp</text>
</a>
</g>
</g>
<!-- Node1&#45;&gt;Node6 -->
<g id="edge5" class="edge">
<title>Node1&#45;&gt;Node6</title>
<path fill="none" stroke="midnightblue" d="M1620.15,-175.54C1449.8,-173.62 1068.47,-164.25 751,-120 748.15,-119.6 745.25,-119.16 742.33,-118.69"/>
<polygon fill="midnightblue" stroke="midnightblue" points="1620.29,-179.05 1630.32,-175.65 1620.36,-172.05 1620.29,-179.05"/>
</g>
<!-- Node8 -->
<g id="node8" class="node">
<title>Node8</title>
<g id="a_node8"><a xlink:href="$a00260.html" xlink:title=" ">
<polygon fill="white" stroke="black" points="760,-78.5 760,-119.5 938,-119.5 938,-78.5 760,-78.5"/>
<text text-anchor="start" x="768" y="-107.5" font-family="Helvetica,sans-Serif" font-size="10.00">/home/runner/work/Raytracer</text>
<text text-anchor="start" x="768" y="-96.5" font-family="Helvetica,sans-Serif" font-size="10.00">/Raytracer/PluginsExt/Camera</text>
<text text-anchor="middle" x="849" y="-85.5" font-family="Helvetica,sans-Serif" font-size="10.00">/Cluster/CameraClusterEntity.hpp</text>
</a>
</g>
</g>
<!-- Node1&#45;&gt;Node8 -->
<g id="edge7" class="edge">
<title>Node1&#45;&gt;Node8</title>
<path fill="none" stroke="midnightblue" d="M1620.24,-173.14C1477.22,-167.74 1189.04,-153.44 947,-120 944.08,-119.6 941.11,-119.16 938.11,-118.69"/>
<polygon fill="midnightblue" stroke="midnightblue" points="1620.16,-176.64 1630.29,-173.51 1620.42,-169.64 1620.16,-176.64"/>
</g>
<!-- Node10 -->
<g id="node10" class="node">
<title>Node10</title>
<g id="a_node10"><a xlink:href="$a00269.html" xlink:title=" ">
<polygon fill="white" stroke="black" points="956.5,-78.5 956.5,-119.5 1157.5,-119.5 1157.5,-78.5 956.5,-78.5"/>
<text text-anchor="start" x="964.5" y="-107.5" font-family="Helvetica,sans-Serif" font-size="10.00">/home/runner/work/Raytracer</text>
<text text-anchor="start" x="964.5" y="-96.5" font-family="Helvetica,sans-Serif" font-size="10.00">/Raytracer/PluginsExt/Camera</text>
<text text-anchor="middle" x="1057" y="-85.5" font-family="Helvetica,sans-Serif" font-size="10.00">/FullCustom/CameraCustomEntity.hpp</text>
</a>
</g>
</g>
<!-- Node1&#45;&gt;Node10 -->
<g id="edge9" class="edge">
<title>Node1&#45;&gt;Node10</title>
<path fill="none" stroke="midnightblue" d="M1620.27,-168.95C1512.21,-159.95 1325.34,-142.78 1166,-120 1163.24,-119.61 1160.44,-119.19 1157.62,-118.76"/>
<polygon fill="midnightblue" stroke="midnightblue" points="1620.22,-172.46 1630.48,-169.79 1620.8,-165.48 1620.22,-172.46"/>
</g>
<!-- Node12 -->
<g id="node12" class="node">
<title>Node12</title>
<g id="a_node12"><a xlink:href="$a00284.html" xlink:title=" ">
<polygon fill="white" stroke="black" points="1175.5,-78.5 1175.5,-119.5 1334.5,-119.5 1334.5,-78.5 1175.5,-78.5"/>
<text text-anchor="start" x="1183.5" y="-107.5" font-family="Helvetica,sans-Serif" font-size="10.00">/home/runner/work/Raytracer</text>
<text text-anchor="start" x="1183.5" y="-96.5" font-family="Helvetica,sans-Serif" font-size="10.00">/Raytracer/PluginsExt/Cone</text>
<text text-anchor="middle" x="1255" y="-85.5" font-family="Helvetica,sans-Serif" font-size="10.00">/ConeEntity.hpp</text>
</a>
</g>
</g>
<!-- Node1&#45;&gt;Node12 -->
<g id="edge11" class="edge">
<title>Node1&#45;&gt;Node12</title>
<path fill="none" stroke="midnightblue" d="M1620.23,-164.03C1545.96,-153.71 1437.81,-137.7 1344,-120 1340.89,-119.41 1337.72,-118.8 1334.52,-118.16"/>
<polygon fill="midnightblue" stroke="midnightblue" points="1620.1,-167.55 1630.48,-165.45 1621.06,-160.61 1620.1,-167.55"/>
</g>
<!-- Node14 -->
<g id="node14" class="node">
<title>Node14</title>
<g id="a_node14"><a xlink:href="$a00290.html" xlink:title=" ">
<polygon fill="white" stroke="black" points="1353,-78.5 1353,-119.5 1517,-119.5 1517,-78.5 1353,-78.5"/>
<text text-anchor="start" x="1361" y="-107.5" font-family="Helvetica,sans-Serif" font-size="10.00">/home/runner/work/Raytracer</text>
<text text-anchor="start" x="1361" y="-96.5" font-family="Helvetica,sans-Serif" font-size="10.00">/Raytracer/PluginsExt/Cylinder</text>
<text text-anchor="middle" x="1435" y="-85.5" font-family="Helvetica,sans-Serif" font-size="10.00">/CylinderEntity.hpp</text>
</a>
</g>
</g>
<!-- Node1&#45;&gt;Node14 -->
<g id="edge13" class="edge">
<title>Node1&#45;&gt;Node14</title>
<path fill="none" stroke="midnightblue" d="M1629.38,-153.72C1590.14,-142.87 1543.39,-129.96 1505.58,-119.51"/>
<polygon fill="midnightblue" stroke="midnightblue" points="1628.61,-157.14 1639.18,-156.43 1630.47,-150.39 1628.61,-157.14"/>
</g>
<!-- Node16 -->
<g id="node16" class="node">
<title>Node16</title>
<g id="a_node16"><a xlink:href="$a00296.html" xlink:title=" ">
<polygon fill="white" stroke="black" points="1535.5,-78.5 1535.5,-119.5 1694.5,-119.5 1694.5,-78.5 1535.5,-78.5"/>
<text text-anchor="start" x="1543.5" y="-107.5" font-family="Helvetica,sans-Serif" font-size="10.00">/home/runner/work/Raytracer</text>
<text text-anchor="start" x="1543.5" y="-96.5" font-family="Helvetica,sans-Serif" font-size="10.00">/Raytracer/PluginsExt/Disk</text>
<text text-anchor="middle" x="1615" y="-85.5" font-family="Helvetica,sans-Serif" font-size="10.00">/DiskEntity.hpp</text>
</a>
</g>
</g>
<!-- Node1&#45;&gt;Node16 -->
<g id="edge15" class="edge">
<title>Node1&#45;&gt;Node16</title>
<path fill="none" stroke="midnightblue" d="M1677.58,-150.06C1665.07,-140.06 1651.01,-128.8 1639.38,-119.51"/>
<polygon fill="midnightblue" stroke="midnightblue" points="1675.54,-152.91 1685.54,-156.43 1679.91,-147.45 1675.54,-152.91"/>
</g>
<!-- Node18 -->
<g id="node18" class="node">
<title>Node18</title>
<g id="a_node18"><a xlink:href="$a00302.html" xlink:title=" ">
<polygon fill="white" stroke="black" points="1712.5,-78.5 1712.5,-119.5 1897.5,-119.5 1897.5,-78.5 1712.5,-78.5"/>
<text text-anchor="start" x="1720.5" y="-107.5" font-family="Helvetica,sans-Serif" font-size="10.00">/home/runner/work/Raytracer</text>
<text text-anchor="start" x="1720.5" y="-96.5" font-family="Helvetica,sans-Serif" font-size="10.00">/Raytracer/PluginsExt/LimitedCone</text>
<text text-anchor="middle" x="1805" y="-85.5" font-family="Helvetica,sans-Serif" font-size="10.00">/LimitedConeEntity.hpp</text>
</a>
</g>
</g>
<!-- Node1&#45;&gt;Node18 -->
<g id="edge17" class="edge">
<title>Node1&#45;&gt;Node18</title>
<path fill="none" stroke="midnightblue" d="M1742.42,-150.06C1754.93,-140.06 1768.99,-128.8 1780.62,-119.51"/>
<polygon fill="midnightblue" stroke="midnightblue" points="1740.09,-147.45 1734.46,-156.43 1744.46,-152.91 1740.09,-147.45"/>
</g>
<!-- Node20 -->
<g id="node20" class="node">
<title>Node20</title>
<g id="a_node20"><a xlink:href="$a00308.html" xlink:title=" ">
<polygon fill="white" stroke="black" points="1915.5,-78.5 1915.5,-119.5 2116.5,-119.5 2116.5,-78.5 1915.5,-78.5"/>
<text text-anchor="start" x="1923.5" y="-107.5" font-family="Helvetica,sans-Serif" font-size="10.00">/home/runner/work/Raytracer</text>
<text text-anchor="start" x="1923.5" y="-96.5" font-family="Helvetica,sans-Serif" font-size="10.00">/Raytracer/PluginsExt/LimitedCylinder</text>
<text text-anchor="middle" x="2016" y="-85.5" font-family="Helvetica,sans-Serif" font-size="10.00">/LimitedCylinderEntity.hpp</text>
</a>
</g>
</g>
<!-- Node1&#45;&gt;Node20 -->
<g id="edge19" class="edge">
<title>Node1&#45;&gt;Node20</title>
<path fill="none" stroke="midnightblue" d="M1798.6,-153.99C1842.49,-143.09 1895.03,-130.04 1937.46,-119.51"/>
<polygon fill="midnightblue" stroke="midnightblue" points="1797.66,-150.62 1788.8,-156.43 1799.35,-157.41 1797.66,-150.62"/>
</g>
<!-- Node22 -->
<g id="node22" class="node">
<title>Node22</title>
<g id="a_node22"><a xlink:href="$a00314.html" xlink:title=" ">
<polygon fill="white" stroke="black" points="2135,-78.5 2135,-119.5 2323,-119.5 2323,-78.5 2135,-78.5"/>
<text text-anchor="start" x="2143" y="-107.5" font-family="Helvetica,sans-Serif" font-size="10.00">/home/runner/work/Raytracer</text>
<text text-anchor="start" x="2143" y="-96.5" font-family="Helvetica,sans-Serif" font-size="10.00">/Raytracer/PluginsExt/LimitedPlane</text>
<text text-anchor="middle" x="2229" y="-85.5" font-family="Helvetica,sans-Serif" font-size="10.00">/LimitedPlaneEntity.hpp</text>
</a>
</g>
</g>
<!-- Node1&#45;&gt;Node22 -->
<g id="edge21" class="edge">
<title>Node1&#45;&gt;Node22</title>
<path fill="none" stroke="midnightblue" d="M1799.8,-165.35C1884,-155.02 2013.31,-138.26 2125,-120 2128.27,-119.47 2131.59,-118.91 2134.94,-118.33"/>
<polygon fill="midnightblue" stroke="midnightblue" points="1799.26,-161.89 1789.75,-166.58 1800.11,-168.84 1799.26,-161.89"/>
</g>
<!-- Node24 -->
<g id="node24" class="node">
<title>Node24</title>
<g id="a_node24"><a xlink:href="$a00326.html" xlink:title=" ">
<polygon fill="white" stroke="black" points="2341.5,-78.5 2341.5,-119.5 2500.5,-119.5 2500.5,-78.5 2341.5,-78.5"/>
<text text-anchor="start" x="2349.5" y="-107.5" font-family="Helvetica,sans-Serif" font-size="10.00">/home/runner/work/Raytracer</text>
<text text-anchor="start" x="2349.5" y="-96.5" font-family="Helvetica,sans-Serif" font-size="10.00">/Raytracer/PluginsExt/Plane</text>
<text text-anchor="middle" x="2421" y="-85.5" font-family="Helvetica,sans-Serif" font-size="10.00">/PlaneEntity.hpp</text>
</a>
</g>
</g>
<!-- Node1&#45;&gt;Node24 -->
<g id="edge23" class="edge">
<title>Node1&#45;&gt;Node24</title>
<path fill="none" stroke="midnightblue" d="M1799.93,-171.62C1921.29,-164.85 2143.94,-149.47 2332,-120 2334.97,-119.53 2337.99,-119.03 2341.04,-118.49"/>
<polygon fill="midnightblue" stroke="midnightblue" points="1799.73,-168.12 1789.94,-172.17 1800.12,-175.11 1799.73,-168.12"/>
</g>
<!-- Node26 -->
<g id="node26" class="node">
<title>Node26</title>
<g id="a_node26"><a xlink:href="$a00332.html" xlink:title=" ">
<polygon fill="white" stroke="black" points="2518.5,-78.5 2518.5,-119.5 2691.5,-119.5 2691.5,-78.5 2518.5,-78.5"/>
<text text-anchor="start" x="2526.5" y="-107.5" font-family="Helvetica,sans-Serif" font-size="10.00">/home/runner/work/Raytracer</text>
<text text-anchor="start" x="2526.5" y="-96.5" font-family="Helvetica,sans-Serif" font-size="10.00">/Raytracer/PluginsExt/PointLight</text>
<text text-anchor="middle" x="2605" y="-85.5" font-family="Helvetica,sans-Serif" font-size="10.00">/PointLightEntity.hpp</text>
</a>
</g>
</g>
<!-- Node1&#45;&gt;Node26 -->
<g id="edge25" class="edge">
<title>Node1&#45;&gt;Node26</title>
<path fill="none" stroke="midnightblue" d="M1800.17,-173.66C1948.6,-168.91 2253.43,-155.41 2509,-120 2512.12,-119.57 2515.29,-119.09 2518.49,-118.59"/>
<polygon fill="midnightblue" stroke="midnightblue" points="1799.64,-170.17 1789.75,-173.98 1799.86,-177.17 1799.64,-170.17"/>
</g>
<!-- Node28 -->
<g id="node28" class="node">
<title>Node28</title>
<g id="a_node28"><a xlink:href="$a00344.html" xlink:title=" ">
<polygon fill="white" stroke="black" points="2709.5,-78.5 2709.5,-119.5 2868.5,-119.5 2868.5,-78.5 2709.5,-78.5"/>
<text text-anchor="start" x="2717.5" y="-107.5" font-family="Helvetica,sans-Serif" font-size="10.00">/home/runner/work/Raytracer</text>
<text text-anchor="start" x="2717.5" y="-96.5" font-family="Helvetica,sans-Serif" font-size="10.00">/Raytracer/PluginsExt/Sphere</text>
<text text-anchor="middle" x="2789" y="-85.5" font-family="Helvetica,sans-Serif" font-size="10.00">/SphereEntity.hpp</text>
</a>
</g>
</g>
<!-- Node1&#45;&gt;Node28 -->
<g id="edge27" class="edge">
<title>Node1&#45;&gt;Node28</title>
<path fill="none" stroke="midnightblue" d="M1799.83,-175.85C1974.23,-174.47 2370.48,-166.03 2700,-120 2702.98,-119.58 2706.01,-119.12 2709.06,-118.62"/>
<polygon fill="midnightblue" stroke="midnightblue" points="1799.65,-172.35 1789.67,-175.93 1799.7,-179.35 1799.65,-172.35"/>
</g>
<!-- Node30 -->
<g id="node30" class="node">
<title>Node30</title>
<g id="a_node30"><a xlink:href="$a00350.html" xlink:title=" ">
<polygon fill="white" stroke="black" points="2887,-78.5 2887,-119.5 3057,-119.5 3057,-78.5 2887,-78.5"/>
<text text-anchor="start" x="2895" y="-107.5" font-family="Helvetica,sans-Serif" font-size="10.00">/home/runner/work/Raytracer</text>
<text text-anchor="start" x="2895" y="-96.5" font-family="Helvetica,sans-Serif" font-size="10.00">/Raytracer/PluginsExt/SpotLight</text>
<text text-anchor="middle" x="2972" y="-85.5" font-family="Helvetica,sans-Serif" font-size="10.00">/SpotLightEntity.hpp</text>
</a>
</g>
</g>
<!-- Node1&#45;&gt;Node30 -->
<g id="edge29" class="edge">
<title>Node1&#45;&gt;Node30</title>
<path fill="none" stroke="midnightblue" d="M1799.89,-176.56C1996.21,-176.7 2477.75,-171.27 2877,-120 2880.26,-119.58 2883.57,-119.11 2886.92,-118.6"/>
<polygon fill="midnightblue" stroke="midnightblue" points="1799.63,-173.06 1789.62,-176.54 1799.62,-180.06 1799.63,-173.06"/>
</g>
<!-- Node32 -->
<g id="node32" class="node">
<title>Node32</title>
<g id="a_node32"><a xlink:href="$a00356.html" xlink:title=" ">
<polygon fill="white" stroke="black" points="3075.5,-78.5 3075.5,-119.5 3234.5,-119.5 3234.5,-78.5 3075.5,-78.5"/>
<text text-anchor="start" x="3083.5" y="-107.5" font-family="Helvetica,sans-Serif" font-size="10.00">/home/runner/work/Raytracer</text>
<text text-anchor="start" x="3083.5" y="-96.5" font-family="Helvetica,sans-Serif" font-size="10.00">/Raytracer/PluginsExt/Torus</text>
<text text-anchor="middle" x="3155" y="-85.5" font-family="Helvetica,sans-Serif" font-size="10.00">/TorusEntity.hpp</text>
</a>
</g>
</g>
<!-- Node1&#45;&gt;Node32 -->
<g id="edge31" class="edge">
<title>Node1&#45;&gt;Node32</title>
<path fill="none" stroke="midnightblue" d="M1799.75,-174.4C2061.34,-169.4 2820.07,-152.44 3066,-120 3068.98,-119.61 3072.01,-119.16 3075.07,-118.67"/>
<polygon fill="midnightblue" stroke="midnightblue" points="1799.46,-170.9 1789.53,-174.59 1799.6,-177.9 1799.46,-170.9"/>
</g>
<!-- Node34 -->
<g id="node34" class="node">
<title>Node34</title>
<g id="a_node34"><a xlink:href="$a00368.html" xlink:title=" ">
<polygon fill="white" stroke="black" points="3253,-78.5 3253,-119.5 3415,-119.5 3415,-78.5 3253,-78.5"/>
<text text-anchor="start" x="3261" y="-107.5" font-family="Helvetica,sans-Serif" font-size="10.00">/home/runner/work/Raytracer</text>
<text text-anchor="start" x="3261" y="-96.5" font-family="Helvetica,sans-Serif" font-size="10.00">/Raytracer/PluginsExt/Triangle</text>
<text text-anchor="middle" x="3334" y="-85.5" font-family="Helvetica,sans-Serif" font-size="10.00">/TriangleEntity.hpp</text>
</a>
</g>
</g>
<!-- Node1&#45;&gt;Node34 -->
<g id="edge33" class="edge">
<title>Node1&#45;&gt;Node34</title>
<path fill="none" stroke="midnightblue" d="M1799.95,-174.84C2084.23,-170.83 2961.15,-155.82 3243,-120 3246.21,-119.59 3249.47,-119.13 3252.76,-118.61"/>
<polygon fill="midnightblue" stroke="midnightblue" points="1799.64,-171.34 1789.69,-174.98 1799.73,-178.34 1799.64,-171.34"/>
</g>
<!-- Node5 -->
<g id="node5" class="node">
<title>Node5</title>
<g id="a_node5"><a xlink:href="$a00233.html" xlink:title=" ">
<polygon fill="white" stroke="black" points="356.5,-0.5 356.5,-41.5 545.5,-41.5 545.5,-0.5 356.5,-0.5"/>
<text text-anchor="start" x="364.5" y="-29.5" font-family="Helvetica,sans-Serif" font-size="10.00">/home/runner/work/Raytracer</text>
<text text-anchor="start" x="364.5" y="-18.5" font-family="Helvetica,sans-Serif" font-size="10.00">/Raytracer/PluginsExt/AmbientLight</text>
<text text-anchor="middle" x="451" y="-7.5" font-family="Helvetica,sans-Serif" font-size="10.00">/AmbientLightCreator.hpp</text>
</a>
</g>
</g>
<!-- Node4&#45;&gt;Node5 -->
<g id="edge4" class="edge">
<title>Node4&#45;&gt;Node5</title>
<path fill="none" stroke="midnightblue" d="M460.81,-68.59C458.9,-59.51 456.84,-49.74 455.11,-41.51"/>
<polygon fill="midnightblue" stroke="midnightblue" points="457.39,-69.36 462.88,-78.43 464.24,-67.92 457.39,-69.36"/>
</g>
<!-- Node7 -->
<g id="node7" class="node">
<title>Node7</title>
<g id="a_node7"><a xlink:href="$a00251.html" xlink:title=" ">
<polygon fill="white" stroke="black" points="564,-0.5 564,-41.5 726,-41.5 726,-0.5 564,-0.5"/>
<text text-anchor="start" x="572" y="-29.5" font-family="Helvetica,sans-Serif" font-size="10.00">/home/runner/work/Raytracer</text>
<text text-anchor="start" x="572" y="-18.5" font-family="Helvetica,sans-Serif" font-size="10.00">/Raytracer/PluginsExt/Camera</text>
<text text-anchor="middle" x="645" y="-7.5" font-family="Helvetica,sans-Serif" font-size="10.00">/Basic/CameraCreator.hpp</text>
</a>
</g>
</g>
<!-- Node6&#45;&gt;Node7 -->
<g id="edge6" class="edge">
<title>Node6&#45;&gt;Node7</title>
<path fill="none" stroke="midnightblue" d="M654.81,-68.59C652.9,-59.51 650.84,-49.74 649.11,-41.51"/>
<polygon fill="midnightblue" stroke="midnightblue" points="651.39,-69.36 656.88,-78.43 658.24,-67.92 651.39,-69.36"/>
</g>
<!-- Node9 -->
<g id="node9" class="node">
<title>Node9</title>
<g id="a_node9"><a xlink:href="$a00257.html" xlink:title=" ">
<polygon fill="white" stroke="black" points="744,-0.5 744,-41.5 930,-41.5 930,-0.5 744,-0.5"/>
<text text-anchor="start" x="752" y="-29.5" font-family="Helvetica,sans-Serif" font-size="10.00">/home/runner/work/Raytracer</text>
<text text-anchor="start" x="752" y="-18.5" font-family="Helvetica,sans-Serif" font-size="10.00">/Raytracer/PluginsExt/Camera</text>
<text text-anchor="middle" x="837" y="-7.5" font-family="Helvetica,sans-Serif" font-size="10.00">/Cluster/CameraClusterCreator.hpp</text>
</a>
</g>
</g>
<!-- Node8&#45;&gt;Node9 -->
<g id="edge8" class="edge">
<title>Node8&#45;&gt;Node9</title>
<path fill="none" stroke="midnightblue" d="M844.31,-68.3C842.89,-59.3 841.37,-49.65 840.08,-41.51"/>
<polygon fill="midnightblue" stroke="midnightblue" points="840.89,-69.1 845.91,-78.43 847.81,-68 840.89,-69.1"/>
</g>
<!-- Node11 -->
<g id="node11" class="node">
<title>Node11</title>
<g id="a_node11"><a xlink:href="$a00266.html" xlink:title=" ">
<polygon fill="white" stroke="black" points="948.5,-0.5 948.5,-41.5 1157.5,-41.5 1157.5,-0.5 948.5,-0.5"/>
<text text-anchor="start" x="956.5" y="-29.5" font-family="Helvetica,sans-Serif" font-size="10.00">/home/runner/work/Raytracer</text>
<text text-anchor="start" x="956.5" y="-18.5" font-family="Helvetica,sans-Serif" font-size="10.00">/Raytracer/PluginsExt/Camera</text>
<text text-anchor="middle" x="1053" y="-7.5" font-family="Helvetica,sans-Serif" font-size="10.00">/FullCustom/CameraCustomCreator.hpp</text>
</a>
</g>
</g>
<!-- Node10&#45;&gt;Node11 -->
<g id="edge10" class="edge">
<title>Node10&#45;&gt;Node11</title>
<path fill="none" stroke="midnightblue" d="M1055.44,-68.3C1054.96,-59.3 1054.46,-49.65 1054.03,-41.51"/>
<polygon fill="midnightblue" stroke="midnightblue" points="1051.95,-68.63 1055.97,-78.43 1058.94,-68.26 1051.95,-68.63"/>
</g>
<!-- Node13 -->
<g id="node13" class="node">
<title>Node13</title>
<g id="a_node13"><a xlink:href="$a00281.html" xlink:title=" ">
<polygon fill="white" stroke="black" points="1175.5,-0.5 1175.5,-41.5 1334.5,-41.5 1334.5,-0.5 1175.5,-0.5"/>
<text text-anchor="start" x="1183.5" y="-29.5" font-family="Helvetica,sans-Serif" font-size="10.00">/home/runner/work/Raytracer</text>
<text text-anchor="start" x="1183.5" y="-18.5" font-family="Helvetica,sans-Serif" font-size="10.00">/Raytracer/PluginsExt/Cone</text>
<text text-anchor="middle" x="1255" y="-7.5" font-family="Helvetica,sans-Serif" font-size="10.00">/ConeCreator.hpp</text>
</a>
</g>
</g>
<!-- Node12&#45;&gt;Node13 -->
<g id="edge12" class="edge">
<title>Node12&#45;&gt;Node13</title>
<path fill="none" stroke="midnightblue" d="M1255,-68.3C1255,-59.3 1255,-49.65 1255,-41.51"/>
<polygon fill="midnightblue" stroke="midnightblue" points="1251.5,-68.43 1255,-78.43 1258.5,-68.43 1251.5,-68.43"/>
</g>
<!-- Node15 -->
<g id="node15" class="node">
<title>Node15</title>
<g id="a_node15"><a xlink:href="$a00287.html" xlink:title=" ">
<polygon fill="white" stroke="black" points="1353,-0.5 1353,-41.5 1517,-41.5 1517,-0.5 1353,-0.5"/>
<text text-anchor="start" x="1361" y="-29.5" font-family="Helvetica,sans-Serif" font-size="10.00">/home/runner/work/Raytracer</text>
<text text-anchor="start" x="1361" y="-18.5" font-family="Helvetica,sans-Serif" font-size="10.00">/Raytracer/PluginsExt/Cylinder</text>
<text text-anchor="middle" x="1435" y="-7.5" font-family="Helvetica,sans-Serif" font-size="10.00">/CylinderCreator.hpp</text>
</a>
</g>
</g>
<!-- Node14&#45;&gt;Node15 -->
<g id="edge14" class="edge">
<title>Node14&#45;&gt;Node15</title>
<path fill="none" stroke="midnightblue" d="M1435,-68.3C1435,-59.3 1435,-49.65 1435,-41.51"/>
<polygon fill="midnightblue" stroke="midnightblue" points="1431.5,-68.43 1435,-78.43 1438.5,-68.43 1431.5,-68.43"/>
</g>
<!-- Node17 -->
<g id="node17" class="node">
<title>Node17</title>
<g id="a_node17"><a xlink:href="$a00293.html" xlink:title=" ">
<polygon fill="white" stroke="black" points="1535.5,-0.5 1535.5,-41.5 1694.5,-41.5 1694.5,-0.5 1535.5,-0.5"/>
<text text-anchor="start" x="1543.5" y="-29.5" font-family="Helvetica,sans-Serif" font-size="10.00">/home/runner/work/Raytracer</text>
<text text-anchor="start" x="1543.5" y="-18.5" font-family="Helvetica,sans-Serif" font-size="10.00">/Raytracer/PluginsExt/Disk</text>
<text text-anchor="middle" x="1615" y="-7.5" font-family="Helvetica,sans-Serif" font-size="10.00">/DiskCreator.hpp</text>
</a>
</g>
</g>
<!-- Node16&#45;&gt;Node17 -->
<g id="edge16" class="edge">
<title>Node16&#45;&gt;Node17</title>
<path fill="none" stroke="midnightblue" d="M1615,-68.3C1615,-59.3 1615,-49.65 1615,-41.51"/>
<polygon fill="midnightblue" stroke="midnightblue" points="1611.5,-68.43 1615,-78.43 1618.5,-68.43 1611.5,-68.43"/>
</g>
<!-- Node19 -->
<g id="node19" class="node">
<title>Node19</title>
<g id="a_node19"><a xlink:href="$a00299.html" xlink:title=" ">
<polygon fill="white" stroke="black" points="1712.5,-0.5 1712.5,-41.5 1897.5,-41.5 1897.5,-0.5 1712.5,-0.5"/>
<text text-anchor="start" x="1720.5" y="-29.5" font-family="Helvetica,sans-Serif" font-size="10.00">/home/runner/work/Raytracer</text>
<text text-anchor="start" x="1720.5" y="-18.5" font-family="Helvetica,sans-Serif" font-size="10.00">/Raytracer/PluginsExt/LimitedCone</text>
<text text-anchor="middle" x="1805" y="-7.5" font-family="Helvetica,sans-Serif" font-size="10.00">/LimitedConeCreator.hpp</text>
</a>
</g>
</g>
<!-- Node18&#45;&gt;Node19 -->
<g id="edge18" class="edge">
<title>Node18&#45;&gt;Node19</title>
<path fill="none" stroke="midnightblue" d="M1805,-68.3C1805,-59.3 1805,-49.65 1805,-41.51"/>
<polygon fill="midnightblue" stroke="midnightblue" points="1801.5,-68.43 1805,-78.43 1808.5,-68.43 1801.5,-68.43"/>
</g>
<!-- Node21 -->
<g id="node21" class="node">
<title>Node21</title>
<g id="a_node21"><a xlink:href="$a00305.html" xlink:title=" ">
<polygon fill="white" stroke="black" points="1915.5,-0.5 1915.5,-41.5 2116.5,-41.5 2116.5,-0.5 1915.5,-0.5"/>
<text text-anchor="start" x="1923.5" y="-29.5" font-family="Helvetica,sans-Serif" font-size="10.00">/home/runner/work/Raytracer</text>
<text text-anchor="start" x="1923.5" y="-18.5" font-family="Helvetica,sans-Serif" font-size="10.00">/Raytracer/PluginsExt/LimitedCylinder</text>
<text text-anchor="middle" x="2016" y="-7.5" font-family="Helvetica,sans-Serif" font-size="10.00">/LimitedCylinderCreator.hpp</text>
</a>
</g>
</g>
<!-- Node20&#45;&gt;Node21 -->
<g id="edge20" class="edge">
<title>Node20&#45;&gt;Node21</title>
<path fill="none" stroke="midnightblue" d="M2016,-68.3C2016,-59.3 2016,-49.65 2016,-41.51"/>
<polygon fill="midnightblue" stroke="midnightblue" points="2012.5,-68.43 2016,-78.43 2019.5,-68.43 2012.5,-68.43"/>
</g>
<!-- Node23 -->
<g id="node23" class="node">
<title>Node23</title>
<g id="a_node23"><a xlink:href="$a00311.html" xlink:title=" ">
<polygon fill="white" stroke="black" points="2135,-0.5 2135,-41.5 2323,-41.5 2323,-0.5 2135,-0.5"/>
<text text-anchor="start" x="2143" y="-29.5" font-family="Helvetica,sans-Serif" font-size="10.00">/home/runner/work/Raytracer</text>
<text text-anchor="start" x="2143" y="-18.5" font-family="Helvetica,sans-Serif" font-size="10.00">/Raytracer/PluginsExt/LimitedPlane</text>
<text text-anchor="middle" x="2229" y="-7.5" font-family="Helvetica,sans-Serif" font-size="10.00">/LimitedPlaneCreator.hpp</text>
</a>
</g>
</g>
<!-- Node22&#45;&gt;Node23 -->
<g id="edge22" class="edge">
<title>Node22&#45;&gt;Node23</title>
<path fill="none" stroke="midnightblue" d="M2229,-68.3C2229,-59.3 2229,-49.65 2229,-41.51"/>
<polygon fill="midnightblue" stroke="midnightblue" points="2225.5,-68.43 2229,-78.43 2232.5,-68.43 2225.5,-68.43"/>
</g>
<!-- Node25 -->
<g id="node25" class="node">
<title>Node25</title>
<g id="a_node25"><a xlink:href="$a00323.html" xlink:title=" ">
<polygon fill="white" stroke="black" points="2341.5,-0.5 2341.5,-41.5 2500.5,-41.5 2500.5,-0.5 2341.5,-0.5"/>
<text text-anchor="start" x="2349.5" y="-29.5" font-family="Helvetica,sans-Serif" font-size="10.00">/home/runner/work/Raytracer</text>
<text text-anchor="start" x="2349.5" y="-18.5" font-family="Helvetica,sans-Serif" font-size="10.00">/Raytracer/PluginsExt/Plane</text>
<text text-anchor="middle" x="2421" y="-7.5" font-family="Helvetica,sans-Serif" font-size="10.00">/PlaneCreator.hpp</text>
</a>
</g>
</g>
<!-- Node24&#45;&gt;Node25 -->
<g id="edge24" class="edge">
<title>Node24&#45;&gt;Node25</title>
<path fill="none" stroke="midnightblue" d="M2421,-68.3C2421,-59.3 2421,-49.65 2421,-41.51"/>
<polygon fill="midnightblue" stroke="midnightblue" points="2417.5,-68.43 2421,-78.43 2424.5,-68.43 2417.5,-68.43"/>
</g>
<!-- Node27 -->
<g id="node27" class="node">
<title>Node27</title>
<g id="a_node27"><a xlink:href="$a00329.html" xlink:title=" ">
<polygon fill="white" stroke="black" points="2518.5,-0.5 2518.5,-41.5 2691.5,-41.5 2691.5,-0.5 2518.5,-0.5"/>
<text text-anchor="start" x="2526.5" y="-29.5" font-family="Helvetica,sans-Serif" font-size="10.00">/home/runner/work/Raytracer</text>
<text text-anchor="start" x="2526.5" y="-18.5" font-family="Helvetica,sans-Serif" font-size="10.00">/Raytracer/PluginsExt/PointLight</text>
<text text-anchor="middle" x="2605" y="-7.5" font-family="Helvetica,sans-Serif" font-size="10.00">/PointLightCreator.hpp</text>
</a>
</g>
</g>
<!-- Node26&#45;&gt;Node27 -->
<g id="edge26" class="edge">
<title>Node26&#45;&gt;Node27</title>
<path fill="none" stroke="midnightblue" d="M2605,-68.3C2605,-59.3 2605,-49.65 2605,-41.51"/>
<polygon fill="midnightblue" stroke="midnightblue" points="2601.5,-68.43 2605,-78.43 2608.5,-68.43 2601.5,-68.43"/>
</g>
<!-- Node29 -->
<g id="node29" class="node">
<title>Node29</title>
<g id="a_node29"><a xlink:href="$a00341.html" xlink:title=" ">
<polygon fill="white" stroke="black" points="2709.5,-0.5 2709.5,-41.5 2868.5,-41.5 2868.5,-0.5 2709.5,-0.5"/>
<text text-anchor="start" x="2717.5" y="-29.5" font-family="Helvetica,sans-Serif" font-size="10.00">/home/runner/work/Raytracer</text>
<text text-anchor="start" x="2717.5" y="-18.5" font-family="Helvetica,sans-Serif" font-size="10.00">/Raytracer/PluginsExt/Sphere</text>
<text text-anchor="middle" x="2789" y="-7.5" font-family="Helvetica,sans-Serif" font-size="10.00">/SphereCreator.hpp</text>
</a>
</g>
</g>
<!-- Node28&#45;&gt;Node29 -->
<g id="edge28" class="edge">
<title>Node28&#45;&gt;Node29</title>
<path fill="none" stroke="midnightblue" d="M2789,-68.3C2789,-59.3 2789,-49.65 2789,-41.51"/>
<polygon fill="midnightblue" stroke="midnightblue" points="2785.5,-68.43 2789,-78.43 2792.5,-68.43 2785.5,-68.43"/>
</g>
<!-- Node31 -->
<g id="node31" class="node">
<title>Node31</title>
<g id="a_node31"><a xlink:href="$a00347.html" xlink:title=" ">
<polygon fill="white" stroke="black" points="2887,-0.5 2887,-41.5 3057,-41.5 3057,-0.5 2887,-0.5"/>
<text text-anchor="start" x="2895" y="-29.5" font-family="Helvetica,sans-Serif" font-size="10.00">/home/runner/work/Raytracer</text>
<text text-anchor="start" x="2895" y="-18.5" font-family="Helvetica,sans-Serif" font-size="10.00">/Raytracer/PluginsExt/SpotLight</text>
<text text-anchor="middle" x="2972" y="-7.5" font-family="Helvetica,sans-Serif" font-size="10.00">/SpotLightCreator.hpp</text>
</a>
</g>
</g>
<!-- Node30&#45;&gt;Node31 -->
<g id="edge30" class="edge">
<title>Node30&#45;&gt;Node31</title>
<path fill="none" stroke="midnightblue" d="M2972,-68.3C2972,-59.3 2972,-49.65 2972,-41.51"/>
<polygon fill="midnightblue" stroke="midnightblue" points="2968.5,-68.43 2972,-78.43 2975.5,-68.43 2968.5,-68.43"/>
</g>
<!-- Node33 -->
<g id="node33" class="node">
<title>Node33</title>
<g id="a_node33"><a xlink:href="$a00353.html" xlink:title=" ">
<polygon fill="white" stroke="black" points="3075.5,-0.5 3075.5,-41.5 3234.5,-41.5 3234.5,-0.5 3075.5,-0.5"/>
<text text-anchor="start" x="3083.5" y="-29.5" font-family="Helvetica,sans-Serif" font-size="10.00">/home/runner/work/Raytracer</text>
<text text-anchor="start" x="3083.5" y="-18.5" font-family="Helvetica,sans-Serif" font-size="10.00">/Raytracer/PluginsExt/Torus</text>
<text text-anchor="middle" x="3155" y="-7.5" font-family="Helvetica,sans-Serif" font-size="10.00">/TorusCreator.hpp</text>
</a>
</g>
</g>
<!-- Node32&#45;&gt;Node33 -->
<g id="edge32" class="edge">
<title>Node32&#45;&gt;Node33</title>
<path fill="none" stroke="midnightblue" d="M3155,-68.3C3155,-59.3 3155,-49.65 3155,-41.51"/>
<polygon fill="midnightblue" stroke="midnightblue" points="3151.5,-68.43 3155,-78.43 3158.5,-68.43 3151.5,-68.43"/>
</g>
<!-- Node35 -->
<g id="node35" class="node">
<title>Node35</title>
<g id="a_node35"><a xlink:href="$a00365.html" xlink:title=" ">
<polygon fill="white" stroke="black" points="3253,-0.5 3253,-41.5 3415,-41.5 3415,-0.5 3253,-0.5"/>
<text text-anchor="start" x="3261" y="-29.5" font-family="Helvetica,sans-Serif" font-size="10.00">/home/runner/work/Raytracer</text>
<text text-anchor="start" x="3261" y="-18.5" font-family="Helvetica,sans-Serif" font-size="10.00">/Raytracer/PluginsExt/Triangle</text>
<text text-anchor="middle" x="3334" y="-7.5" font-family="Helvetica,sans-Serif" font-size="10.00">/TriangleCreator.hpp</text>
</a>
</g>
</g>
<!-- Node34&#45;&gt;Node35 -->
<g id="edge34" class="edge">
<title>Node34&#45;&gt;Node35</title>
<path fill="none" stroke="midnightblue" d="M3334,-68.3C3334,-59.3 3334,-49.65 3334,-41.51"/>
<polygon fill="midnightblue" stroke="midnightblue" points="3330.5,-68.43 3334,-78.43 3337.5,-68.43 3330.5,-68.43"/>
</g>
</g>
</svg>
