<?xml version="1.0" encoding="UTF-8" standalone="no"?>
<!DOCTYPE svg PUBLIC "-//W3C//DTD SVG 1.1//EN"
 "http://www.w3.org/Graphics/SVG/1.1/DTD/svg11.dtd">
<!-- Generated by graphviz version 2.43.0 (0)
 -->
<!-- Title: /home/runner/work/Raytracer/Raytracer/src/Factories/FilterFactory.hpp Pages: 1 -->
<svg width="872pt" height="498pt"
 viewBox="0.00 0.00 871.64 498.00" xmlns="http://www.w3.org/2000/svg" xmlns:xlink="http://www.w3.org/1999/xlink">
<g id="graph0" class="graph" transform="scale(1 1) rotate(0) translate(4 494)">
<title>/home/runner/work/Raytracer/Raytracer/src/Factories/FilterFactory.hpp</title>
<polygon fill="white" stroke="transparent" points="-4,4 -4,-494 867.64,-494 867.64,4 -4,4"/>
<!-- Node1 -->
<g id="node1" class="node">
<title>Node1</title>
<g id="a_node1"><a xlink:title=" ">
<polygon fill="#bfbfbf" stroke="black" points="323.14,-448.5 323.14,-489.5 482.14,-489.5 482.14,-448.5 323.14,-448.5"/>
<text text-anchor="start" x="331.14" y="-477.5" font-family="Helvetica,sans-Serif" font-size="10.00">/home/runner/work/Raytracer</text>
<text text-anchor="start" x="331.14" y="-466.5" font-family="Helvetica,sans-Serif" font-size="10.00">/Raytracer/src/Factories</text>
<text text-anchor="middle" x="402.64" y="-455.5" font-family="Helvetica,sans-Serif" font-size="10.00">/FilterFactory.hpp</text>
</a>
</g>
</g>
<!-- Node2 -->
<g id="node2" class="node">
<title>Node2</title>
<g id="a_node2"><a xlink:href="$a00143.html" xlink:title=" ">
<polygon fill="white" stroke="black" points="138.14,-336.5 138.14,-355.5 237.14,-355.5 237.14,-336.5 138.14,-336.5"/>
<text text-anchor="middle" x="187.64" y="-343.5" font-family="Helvetica,sans-Serif" font-size="10.00">IFilterFactory.hpp</text>
</a>
</g>
</g>
<!-- Node1&#45;&gt;Node2 -->
<g id="edge1" class="edge">
<title>Node1&#45;&gt;Node2</title>
<path fill="none" stroke="midnightblue" d="M360.49,-448.44C339,-438.13 312.61,-424.97 289.64,-412 260.93,-395.8 229.08,-375.03 208.73,-361.39"/>
<polygon fill="midnightblue" stroke="midnightblue" points="210.49,-358.35 200.25,-355.66 206.58,-364.15 210.49,-358.35"/>
</g>
<!-- Node6 -->
<g id="node6" class="node">
<title>Node6</title>
<g id="a_node6"><a xlink:href="$a00158.html" xlink:title=" ">
<polygon fill="white" stroke="black" points="284.14,-224.5 284.14,-243.5 357.14,-243.5 357.14,-224.5 284.14,-224.5"/>
<text text-anchor="middle" x="320.64" y="-231.5" font-family="Helvetica,sans-Serif" font-size="10.00">ILogger.hpp</text>
</a>
</g>
</g>
<!-- Node1&#45;&gt;Node6 -->
<g id="edge23" class="edge">
<title>Node1&#45;&gt;Node6</title>
<path fill="none" stroke="midnightblue" d="M395.51,-448.38C384.16,-417.07 361.35,-353.82 342.64,-300 337.19,-284.35 331.17,-266.52 326.81,-253.5"/>
<polygon fill="midnightblue" stroke="midnightblue" points="330.07,-252.22 323.58,-243.85 323.43,-254.44 330.07,-252.22"/>
</g>
<!-- Node9 -->
<g id="node9" class="node">
<title>Node9</title>
<g id="a_node9"><a xlink:href="$a00155.html" xlink:title=" ">
<polygon fill="white" stroke="black" points="370.14,-280.5 370.14,-299.5 435.14,-299.5 435.14,-280.5 370.14,-280.5"/>
<text text-anchor="middle" x="402.64" y="-287.5" font-family="Helvetica,sans-Serif" font-size="10.00">IFilter.hpp</text>
</a>
</g>
</g>
<!-- Node1&#45;&gt;Node9 -->
<g id="edge49" class="edge">
<title>Node1&#45;&gt;Node9</title>
<path fill="none" stroke="midnightblue" d="M402.64,-448.38C402.64,-414.08 402.64,-343.66 402.64,-309.88"/>
<polygon fill="midnightblue" stroke="midnightblue" points="406.14,-309.58 402.64,-299.58 399.14,-309.58 406.14,-309.58"/>
</g>
<!-- Node19 -->
<g id="node19" class="node">
<title>Node19</title>
<g id="a_node19"><a xlink:href="$a00152.html" xlink:title=" ">
<polygon fill="white" stroke="black" points="693.14,-280.5 693.14,-299.5 770.14,-299.5 770.14,-280.5 693.14,-280.5"/>
<text text-anchor="middle" x="731.64" y="-287.5" font-family="Helvetica,sans-Serif" font-size="10.00">TFactory.hpp</text>
</a>
</g>
</g>
<!-- Node1&#45;&gt;Node19 -->
<g id="edge24" class="edge">
<title>Node1&#45;&gt;Node19</title>
<path fill="none" stroke="midnightblue" d="M480.2,-448.44C538.81,-430.98 619.07,-401.11 678.64,-356 696.16,-342.73 711.44,-322.51 721.04,-308.15"/>
<polygon fill="midnightblue" stroke="midnightblue" points="724.01,-310 726.49,-299.69 718.13,-306.21 724.01,-310"/>
</g>
<!-- Node21 -->
<g id="node21" class="node">
<title>Node21</title>
<g id="a_node21"><a xlink:href="$a00203.html" xlink:title=" ">
<polygon fill="white" stroke="black" points="440.64,-392.5 440.64,-411.5 540.64,-411.5 540.64,-392.5 440.64,-392.5"/>
<text text-anchor="middle" x="490.64" y="-399.5" font-family="Helvetica,sans-Serif" font-size="10.00">FilterHandler.hpp</text>
</a>
</g>
</g>
<!-- Node1&#45;&gt;Node21 -->
<g id="edge30" class="edge">
<title>Node1&#45;&gt;Node21</title>
<path fill="none" stroke="midnightblue" d="M429.04,-448.5C442.4,-438.63 458.36,-426.84 470.68,-417.74"/>
<polygon fill="midnightblue" stroke="midnightblue" points="472.96,-420.41 478.92,-411.65 468.8,-414.78 472.96,-420.41"/>
</g>
<!-- Node3 -->
<g id="node3" class="node">
<title>Node3</title>
<g id="a_node3"><a xlink:href="$a00245.html" xlink:title=" ">
<polygon fill="white" stroke="black" points="566.14,-56.5 566.14,-75.5 641.14,-75.5 641.14,-56.5 566.14,-56.5"/>
<text text-anchor="middle" x="603.64" y="-63.5" font-family="Helvetica,sans-Serif" font-size="10.00">ISetting.hpp</text>
</a>
</g>
</g>
<!-- Node2&#45;&gt;Node3 -->
<g id="edge2" class="edge">
<title>Node2&#45;&gt;Node3</title>
<path fill="none" stroke="midnightblue" d="M146.44,-336.48C83.01,-321.27 -27.84,-285.17 6.64,-224 53.83,-140.27 100.6,-142.84 191.64,-112 258.06,-89.5 462.23,-75.17 555.84,-69.62"/>
<polygon fill="midnightblue" stroke="midnightblue" points="556.11,-73.11 565.89,-69.03 555.7,-66.12 556.11,-73.11"/>
</g>
<!-- Node2&#45;&gt;Node6 -->
<g id="edge5" class="edge">
<title>Node2&#45;&gt;Node6</title>
<path fill="none" stroke="midnightblue" d="M198.07,-336.37C220.6,-317.73 274.05,-273.53 302.34,-250.13"/>
<polygon fill="midnightblue" stroke="midnightblue" points="304.77,-252.66 310.25,-243.59 300.31,-247.27 304.77,-252.66"/>
</g>
<!-- Node2&#45;&gt;Node9 -->
<g id="edge8" class="edge">
<title>Node2&#45;&gt;Node9</title>
<path fill="none" stroke="midnightblue" d="M221.7,-336.44C259.25,-327.01 319.7,-311.83 360.27,-301.64"/>
<polygon fill="midnightblue" stroke="midnightblue" points="361.29,-304.99 370.14,-299.16 359.58,-298.2 361.29,-304.99"/>
</g>
<!-- Node4 -->
<g id="node4" class="node">
<title>Node4</title>
<g id="a_node4"><a xlink:title=" ">
<polygon fill="white" stroke="#bfbfbf" points="701.64,-0.5 701.64,-19.5 759.64,-19.5 759.64,-0.5 701.64,-0.5"/>
<text text-anchor="middle" x="730.64" y="-7.5" font-family="Helvetica,sans-Serif" font-size="10.00">memory</text>
</a>
</g>
</g>
<!-- Node3&#45;&gt;Node4 -->
<g id="edge3" class="edge">
<title>Node3&#45;&gt;Node4</title>
<path fill="none" stroke="midnightblue" d="M623.76,-56.44C644.66,-47.56 677.57,-33.56 701.35,-23.45"/>
<polygon fill="midnightblue" stroke="midnightblue" points="702.77,-26.65 710.61,-19.52 700.03,-20.21 702.77,-26.65"/>
</g>
<!-- Node5 -->
<g id="node5" class="node">
<title>Node5</title>
<g id="a_node5"><a xlink:title=" ">
<polygon fill="white" stroke="#bfbfbf" points="562.14,-0.5 562.14,-19.5 645.14,-19.5 645.14,-0.5 562.14,-0.5"/>
<text text-anchor="middle" x="603.64" y="-7.5" font-family="Helvetica,sans-Serif" font-size="10.00">libconfig.h++</text>
</a>
</g>
</g>
<!-- Node3&#45;&gt;Node5 -->
<g id="edge4" class="edge">
<title>Node3&#45;&gt;Node5</title>
<path fill="none" stroke="midnightblue" d="M603.64,-56.08C603.64,-49.01 603.64,-38.86 603.64,-29.99"/>
<polygon fill="midnightblue" stroke="midnightblue" points="607.14,-29.75 603.64,-19.75 600.14,-29.75 607.14,-29.75"/>
</g>
<!-- Node7 -->
<g id="node7" class="node">
<title>Node7</title>
<g id="a_node7"><a xlink:title=" ">
<polygon fill="white" stroke="#bfbfbf" points="150.14,-168.5 150.14,-187.5 215.14,-187.5 215.14,-168.5 150.14,-168.5"/>
<text text-anchor="middle" x="182.64" y="-175.5" font-family="Helvetica,sans-Serif" font-size="10.00">functional</text>
</a>
</g>
</g>
<!-- Node6&#45;&gt;Node7 -->
<g id="edge6" class="edge">
<title>Node6&#45;&gt;Node7</title>
<path fill="none" stroke="midnightblue" d="M298.77,-224.44C275.86,-215.48 239.66,-201.31 213.77,-191.18"/>
<polygon fill="midnightblue" stroke="midnightblue" points="214.99,-187.9 204.4,-187.52 212.44,-194.42 214.99,-187.9"/>
</g>
<!-- Node8 -->
<g id="node8" class="node">
<title>Node8</title>
<g id="a_node8"><a xlink:title=" ">
<polygon fill="white" stroke="#bfbfbf" points="298.64,-168.5 298.64,-187.5 342.64,-187.5 342.64,-168.5 298.64,-168.5"/>
<text text-anchor="middle" x="320.64" y="-175.5" font-family="Helvetica,sans-Serif" font-size="10.00">string</text>
</a>
</g>
</g>
<!-- Node6&#45;&gt;Node8 -->
<g id="edge7" class="edge">
<title>Node6&#45;&gt;Node8</title>
<path fill="none" stroke="midnightblue" d="M320.64,-224.08C320.64,-217.01 320.64,-206.86 320.64,-197.99"/>
<polygon fill="midnightblue" stroke="midnightblue" points="324.14,-197.75 320.64,-187.75 317.14,-197.75 324.14,-197.75"/>
</g>
<!-- Node10 -->
<g id="node10" class="node">
<title>Node10</title>
<g id="a_node10"><a xlink:href="$a00164.html" xlink:title=" ">
<polygon fill="white" stroke="black" points="451.64,-224.5 451.64,-243.5 519.64,-243.5 519.64,-224.5 451.64,-224.5"/>
<text text-anchor="middle" x="485.64" y="-231.5" font-family="Helvetica,sans-Serif" font-size="10.00">Image.hpp</text>
</a>
</g>
</g>
<!-- Node9&#45;&gt;Node10 -->
<g id="edge9" class="edge">
<title>Node9&#45;&gt;Node10</title>
<path fill="none" stroke="midnightblue" d="M415.97,-280.32C428.8,-271.98 448.42,-259.21 463.58,-249.35"/>
<polygon fill="midnightblue" stroke="midnightblue" points="465.86,-252.04 472.33,-243.65 462.04,-246.17 465.86,-252.04"/>
</g>
<!-- Node10&#45;&gt;Node8 -->
<g id="edge11" class="edge">
<title>Node10&#45;&gt;Node8</title>
<path fill="none" stroke="midnightblue" d="M459.49,-224.44C430.38,-214.92 383.34,-199.52 352.21,-189.33"/>
<polygon fill="midnightblue" stroke="midnightblue" points="353.29,-186 342.7,-186.22 351.11,-192.66 353.29,-186"/>
</g>
<!-- Node11 -->
<g id="node11" class="node">
<title>Node11</title>
<g id="a_node11"><a xlink:title=" ">
<polygon fill="white" stroke="#bfbfbf" points="441.14,-168.5 441.14,-187.5 494.14,-187.5 494.14,-168.5 441.14,-168.5"/>
<text text-anchor="middle" x="467.64" y="-175.5" font-family="Helvetica,sans-Serif" font-size="10.00">cstddef</text>
</a>
</g>
</g>
<!-- Node10&#45;&gt;Node11 -->
<g id="edge10" class="edge">
<title>Node10&#45;&gt;Node11</title>
<path fill="none" stroke="midnightblue" d="M482.66,-224.08C480.25,-216.85 476.77,-206.41 473.77,-197.4"/>
<polygon fill="midnightblue" stroke="midnightblue" points="477.04,-196.13 470.55,-187.75 470.39,-198.34 477.04,-196.13"/>
</g>
<!-- Node12 -->
<g id="node12" class="node">
<title>Node12</title>
<g id="a_node12"><a xlink:title=" ">
<polygon fill="white" stroke="#bfbfbf" points="233.14,-168.5 233.14,-187.5 280.14,-187.5 280.14,-168.5 233.14,-168.5"/>
<text text-anchor="middle" x="256.64" y="-175.5" font-family="Helvetica,sans-Serif" font-size="10.00">vector</text>
</a>
</g>
</g>
<!-- Node10&#45;&gt;Node12 -->
<g id="edge12" class="edge">
<title>Node10&#45;&gt;Node12</title>
<path fill="none" stroke="midnightblue" d="M451.54,-225.61C414.35,-217.46 352.84,-203.69 290.42,-188.12"/>
<polygon fill="midnightblue" stroke="midnightblue" points="290.95,-184.64 280.4,-185.6 289.25,-191.43 290.95,-184.64"/>
</g>
<!-- Node13 -->
<g id="node13" class="node">
<title>Node13</title>
<g id="a_node13"><a xlink:href="$a00161.html" xlink:title=" ">
<polygon fill="white" stroke="black" points="360.64,-168.5 360.64,-187.5 422.64,-187.5 422.64,-168.5 360.64,-168.5"/>
<text text-anchor="middle" x="391.64" y="-175.5" font-family="Helvetica,sans-Serif" font-size="10.00">Color.hpp</text>
</a>
</g>
</g>
<!-- Node10&#45;&gt;Node13 -->
<g id="edge13" class="edge">
<title>Node10&#45;&gt;Node13</title>
<path fill="none" stroke="midnightblue" d="M470.53,-224.32C455.73,-215.82 432.94,-202.73 415.65,-192.8"/>
<polygon fill="midnightblue" stroke="midnightblue" points="417.12,-189.6 406.7,-187.65 413.63,-195.67 417.12,-189.6"/>
</g>
<!-- Node17 -->
<g id="node17" class="node">
<title>Node17</title>
<g id="a_node17"><a xlink:href="$a00128.html" xlink:title=" ">
<polygon fill="white" stroke="black" points="512.14,-168.5 512.14,-187.5 589.14,-187.5 589.14,-168.5 512.14,-168.5"/>
<text text-anchor="middle" x="550.64" y="-175.5" font-family="Helvetica,sans-Serif" font-size="10.00">Vector2i.hpp</text>
</a>
</g>
</g>
<!-- Node10&#45;&gt;Node17 -->
<g id="edge18" class="edge">
<title>Node10&#45;&gt;Node17</title>
<path fill="none" stroke="midnightblue" d="M496.08,-224.32C505.78,-216.26 520.45,-204.08 532.14,-194.37"/>
<polygon fill="midnightblue" stroke="midnightblue" points="534.55,-196.92 540,-187.83 530.07,-191.53 534.55,-196.92"/>
</g>
<!-- Node13&#45;&gt;Node3 -->
<g id="edge17" class="edge">
<title>Node13&#45;&gt;Node3</title>
<path fill="none" stroke="midnightblue" d="M362.36,-168.43C334.45,-159.6 295.4,-145.29 286.64,-132 281.74,-124.58 280.81,-118.71 286.64,-112 320.9,-72.53 475.89,-66.77 555.74,-66.49"/>
<polygon fill="midnightblue" stroke="midnightblue" points="556.03,-69.99 566.02,-66.48 556.02,-62.99 556.03,-69.99"/>
</g>
<!-- Node14 -->
<g id="node14" class="node">
<title>Node14</title>
<g id="a_node14"><a xlink:title=" ">
<polygon fill="white" stroke="#bfbfbf" points="451.64,-112.5 451.64,-131.5 499.64,-131.5 499.64,-112.5 451.64,-112.5"/>
<text text-anchor="middle" x="475.64" y="-119.5" font-family="Helvetica,sans-Serif" font-size="10.00">mutex</text>
</a>
</g>
</g>
<!-- Node13&#45;&gt;Node14 -->
<g id="edge14" class="edge">
<title>Node13&#45;&gt;Node14</title>
<path fill="none" stroke="midnightblue" d="M405.13,-168.32C418.24,-159.9 438.35,-146.97 453.74,-137.07"/>
<polygon fill="midnightblue" stroke="midnightblue" points="455.65,-140.01 462.17,-131.65 451.87,-134.12 455.65,-140.01"/>
</g>
<!-- Node15 -->
<g id="node15" class="node">
<title>Node15</title>
<g id="a_node15"><a xlink:title=" ">
<polygon fill="white" stroke="#bfbfbf" points="518.14,-112.5 518.14,-131.5 575.14,-131.5 575.14,-112.5 518.14,-112.5"/>
<text text-anchor="middle" x="546.64" y="-119.5" font-family="Helvetica,sans-Serif" font-size="10.00">ostream</text>
</a>
</g>
</g>
<!-- Node13&#45;&gt;Node15 -->
<g id="edge15" class="edge">
<title>Node13&#45;&gt;Node15</title>
<path fill="none" stroke="midnightblue" d="M416.2,-168.44C442.16,-159.4 483.3,-145.06 512.43,-134.92"/>
<polygon fill="midnightblue" stroke="midnightblue" points="513.9,-138.11 522.19,-131.52 511.6,-131.5 513.9,-138.11"/>
</g>
<!-- Node16 -->
<g id="node16" class="node">
<title>Node16</title>
<g id="a_node16"><a xlink:title=" ">
<polygon fill="white" stroke="#bfbfbf" points="296.14,-112.5 296.14,-131.5 433.14,-131.5 433.14,-112.5 296.14,-112.5"/>
<text text-anchor="middle" x="364.64" y="-119.5" font-family="Helvetica,sans-Serif" font-size="10.00">SFML/Graphics/Color.hpp</text>
</a>
</g>
</g>
<!-- Node13&#45;&gt;Node16 -->
<g id="edge16" class="edge">
<title>Node13&#45;&gt;Node16</title>
<path fill="none" stroke="midnightblue" d="M387.18,-168.08C383.48,-160.69 378.11,-149.95 373.54,-140.81"/>
<polygon fill="midnightblue" stroke="midnightblue" points="376.61,-139.13 369.01,-131.75 370.35,-142.26 376.61,-139.13"/>
</g>
<!-- Node17&#45;&gt;Node15 -->
<g id="edge19" class="edge">
<title>Node17&#45;&gt;Node15</title>
<path fill="none" stroke="midnightblue" d="M549.98,-168.08C549.45,-161.01 548.7,-150.86 548.04,-141.99"/>
<polygon fill="midnightblue" stroke="midnightblue" points="551.51,-141.47 547.28,-131.75 544.53,-141.98 551.51,-141.47"/>
</g>
<!-- Node18 -->
<g id="node18" class="node">
<title>Node18</title>
<g id="a_node18"><a xlink:href="$a00236.html" xlink:title=" ">
<polygon fill="white" stroke="black" points="632.14,-112.5 632.14,-131.5 703.14,-131.5 703.14,-112.5 632.14,-112.5"/>
<text text-anchor="middle" x="667.64" y="-119.5" font-family="Helvetica,sans-Serif" font-size="10.00">IConfig.hpp</text>
</a>
</g>
</g>
<!-- Node17&#45;&gt;Node18 -->
<g id="edge20" class="edge">
<title>Node17&#45;&gt;Node18</title>
<path fill="none" stroke="midnightblue" d="M569.17,-168.44C588.26,-159.64 618.21,-145.81 640.07,-135.72"/>
<polygon fill="midnightblue" stroke="midnightblue" points="641.57,-138.88 649.18,-131.52 638.64,-132.53 641.57,-138.88"/>
</g>
<!-- Node18&#45;&gt;Node3 -->
<g id="edge22" class="edge">
<title>Node18&#45;&gt;Node3</title>
<path fill="none" stroke="midnightblue" d="M657.35,-112.32C647.8,-104.26 633.36,-92.08 621.85,-82.37"/>
<polygon fill="midnightblue" stroke="midnightblue" points="624.01,-79.61 614.11,-75.83 619.49,-84.96 624.01,-79.61"/>
</g>
<!-- Node18&#45;&gt;Node4 -->
<g id="edge21" class="edge">
<title>Node18&#45;&gt;Node4</title>
<path fill="none" stroke="midnightblue" d="M672.58,-112.37C682.93,-94.3 707.05,-52.18 720.72,-28.31"/>
<polygon fill="midnightblue" stroke="midnightblue" points="723.78,-30.01 725.72,-19.59 717.71,-26.53 723.78,-30.01"/>
</g>
<!-- Node19&#45;&gt;Node3 -->
<g id="edge29" class="edge">
<title>Node19&#45;&gt;Node3</title>
<path fill="none" stroke="midnightblue" d="M733.48,-280.15C738.77,-252.23 751.2,-164.67 711.64,-112 697.19,-92.78 673.02,-81.71 651.2,-75.36"/>
<polygon fill="midnightblue" stroke="midnightblue" points="651.94,-71.94 641.38,-72.77 650.15,-78.71 651.94,-71.94"/>
</g>
<!-- Node19&#45;&gt;Node4 -->
<g id="edge26" class="edge">
<title>Node19&#45;&gt;Node4</title>
<path fill="none" stroke="midnightblue" d="M754.82,-280.48C771.52,-273.22 793.37,-261.19 806.64,-244 825.03,-220.17 825.64,-209.1 825.64,-179 825.64,-179 825.64,-179 825.64,-121 825.64,-77.74 783.03,-43.09 754.88,-24.91"/>
<polygon fill="midnightblue" stroke="midnightblue" points="756.67,-21.9 746.32,-19.6 752.97,-27.85 756.67,-21.9"/>
</g>
<!-- Node19&#45;&gt;Node6 -->
<g id="edge28" class="edge">
<title>Node19&#45;&gt;Node6</title>
<path fill="none" stroke="midnightblue" d="M692.97,-283.92C617.18,-273.96 449.36,-251.91 367.44,-241.15"/>
<polygon fill="midnightblue" stroke="midnightblue" points="367.79,-237.67 357.42,-239.83 366.88,-244.61 367.79,-237.67"/>
</g>
<!-- Node19&#45;&gt;Node8 -->
<g id="edge25" class="edge">
<title>Node19&#45;&gt;Node8</title>
<path fill="none" stroke="midnightblue" d="M692.8,-287.07C636.4,-283.36 529.1,-272.84 442.64,-244 422.81,-237.39 373.5,-209.69 343.99,-192.66"/>
<polygon fill="midnightblue" stroke="midnightblue" points="345.58,-189.53 335.17,-187.54 342.07,-195.58 345.58,-189.53"/>
</g>
<!-- Node20 -->
<g id="node20" class="node">
<title>Node20</title>
<g id="a_node20"><a xlink:title=" ">
<polygon fill="white" stroke="#bfbfbf" points="759.64,-224.5 759.64,-243.5 797.64,-243.5 797.64,-224.5 759.64,-224.5"/>
<text text-anchor="middle" x="778.64" y="-231.5" font-family="Helvetica,sans-Serif" font-size="10.00">map</text>
</a>
</g>
</g>
<!-- Node19&#45;&gt;Node20 -->
<g id="edge27" class="edge">
<title>Node19&#45;&gt;Node20</title>
<path fill="none" stroke="midnightblue" d="M739.4,-280.08C746.17,-272.3 756.18,-260.8 764.39,-251.37"/>
<polygon fill="midnightblue" stroke="midnightblue" points="767.09,-253.59 771.02,-243.75 761.81,-249 767.09,-253.59"/>
</g>
<!-- Node21&#45;&gt;Node4 -->
<g id="edge31" class="edge">
<title>Node21&#45;&gt;Node4</title>
<path fill="none" stroke="midnightblue" d="M540.94,-396.76C642.75,-386.79 863.64,-357.5 863.64,-291 863.64,-291 863.64,-291 863.64,-121 863.64,-70.73 806.51,-39.1 767.13,-23.27"/>
<polygon fill="midnightblue" stroke="midnightblue" points="768.14,-19.91 757.55,-19.59 765.63,-26.45 768.14,-19.91"/>
</g>
<!-- Node21&#45;&gt;Node6 -->
<g id="edge34" class="edge">
<title>Node21&#45;&gt;Node6</title>
<path fill="none" stroke="midnightblue" d="M476.4,-392.38C450.94,-376.48 396.89,-340.43 360.64,-300 347.68,-285.55 336.46,-266.36 329.22,-252.58"/>
<polygon fill="midnightblue" stroke="midnightblue" points="332.34,-250.99 324.69,-243.65 326.1,-254.15 332.34,-250.99"/>
</g>
<!-- Node21&#45;&gt;Node8 -->
<g id="edge32" class="edge">
<title>Node21&#45;&gt;Node8</title>
<path fill="none" stroke="midnightblue" d="M488.88,-392.35C484.32,-371.42 470.51,-317.03 443.64,-280 428.8,-259.55 419.17,-260.03 399.64,-244 378.9,-226.99 355.13,-207.42 339.13,-194.24"/>
<polygon fill="midnightblue" stroke="midnightblue" points="341.05,-191.29 331.11,-187.63 336.6,-196.69 341.05,-191.29"/>
</g>
<!-- Node21&#45;&gt;Node9 -->
<g id="edge33" class="edge">
<title>Node21&#45;&gt;Node9</title>
<path fill="none" stroke="midnightblue" d="M483.73,-392.37C469.14,-374.14 434.98,-331.43 415.98,-307.68"/>
<polygon fill="midnightblue" stroke="midnightblue" points="418.49,-305.21 409.51,-299.59 413.02,-309.59 418.49,-305.21"/>
</g>
<!-- Node21&#45;&gt;Node18 -->
<g id="edge48" class="edge">
<title>Node21&#45;&gt;Node18</title>
<path fill="none" stroke="midnightblue" d="M540.78,-399.38C573.93,-395.48 615.57,-384.66 639.64,-356 692.31,-293.28 679.52,-185.38 671.6,-141.94"/>
<polygon fill="midnightblue" stroke="midnightblue" points="675,-141.06 669.65,-131.91 668.13,-142.4 675,-141.06"/>
</g>
<!-- Node22 -->
<g id="node22" class="node">
<title>Node22</title>
<g id="a_node22"><a xlink:href="$a00221.html" xlink:title=" ">
<polygon fill="white" stroke="black" points="128.14,-280.5 128.14,-299.5 233.14,-299.5 233.14,-280.5 128.14,-280.5"/>
<text text-anchor="middle" x="180.64" y="-287.5" font-family="Helvetica,sans-Serif" font-size="10.00">PluginHandler.hpp</text>
</a>
</g>
</g>
<!-- Node21&#45;&gt;Node22 -->
<g id="edge35" class="edge">
<title>Node21&#45;&gt;Node22</title>
<path fill="none" stroke="midnightblue" d="M453.9,-392.5C420.55,-384.4 370.21,-371.2 327.64,-356 284.43,-340.58 236.09,-318.15 207.03,-304.08"/>
<polygon fill="midnightblue" stroke="midnightblue" points="208.47,-300.89 197.95,-299.65 205.4,-307.18 208.47,-300.89"/>
</g>
<!-- Node24 -->
<g id="node24" class="node">
<title>Node24</title>
<g id="a_node24"><a xlink:href="$a00209.html" xlink:title=" ">
<polygon fill="white" stroke="black" points="530.14,-336.5 530.14,-355.5 631.14,-355.5 631.14,-336.5 530.14,-336.5"/>
<text text-anchor="middle" x="580.64" y="-343.5" font-family="Helvetica,sans-Serif" font-size="10.00">IFilterCreator.hpp</text>
</a>
</g>
</g>
<!-- Node21&#45;&gt;Node24 -->
<g id="edge43" class="edge">
<title>Node21&#45;&gt;Node24</title>
<path fill="none" stroke="midnightblue" d="M505.1,-392.32C519.14,-383.9 540.68,-370.97 557.18,-361.07"/>
<polygon fill="midnightblue" stroke="midnightblue" points="559.44,-363.8 566.21,-355.65 555.84,-357.8 559.44,-363.8"/>
</g>
<!-- Node22&#45;&gt;Node3 -->
<g id="edge42" class="edge">
<title>Node22&#45;&gt;Node3</title>
<path fill="none" stroke="midnightblue" d="M172.98,-280.38C155.4,-259.51 115.55,-205.25 140.64,-168 186.93,-99.25 447.2,-76.15 555.91,-69.44"/>
<polygon fill="midnightblue" stroke="midnightblue" points="556.18,-72.93 565.95,-68.84 555.76,-65.94 556.18,-72.93"/>
</g>
<!-- Node22&#45;&gt;Node4 -->
<g id="edge37" class="edge">
<title>Node22&#45;&gt;Node4</title>
<path fill="none" stroke="midnightblue" d="M167.98,-280.26C157.39,-272.17 142.88,-259.15 135.64,-244 121.02,-213.43 115.88,-198.96 129.64,-168 144.71,-134.07 158.36,-128.48 191.64,-112 280.6,-67.93 582.34,-28.63 691.12,-15.58"/>
<polygon fill="midnightblue" stroke="midnightblue" points="691.82,-19.02 701.34,-14.36 690.99,-12.07 691.82,-19.02"/>
</g>
<!-- Node22&#45;&gt;Node6 -->
<g id="edge41" class="edge">
<title>Node22&#45;&gt;Node6</title>
<path fill="none" stroke="midnightblue" d="M202.82,-280.44C226.06,-271.48 262.78,-257.31 289.05,-247.18"/>
<polygon fill="midnightblue" stroke="midnightblue" points="290.49,-250.38 298.56,-243.52 287.97,-243.85 290.49,-250.38"/>
</g>
<!-- Node22&#45;&gt;Node7 -->
<g id="edge40" class="edge">
<title>Node22&#45;&gt;Node7</title>
<path fill="none" stroke="midnightblue" d="M180.79,-280.37C181.12,-262.62 181.86,-221.67 182.3,-197.6"/>
<polygon fill="midnightblue" stroke="midnightblue" points="185.8,-197.65 182.48,-187.59 178.8,-197.53 185.8,-197.65"/>
</g>
<!-- Node22&#45;&gt;Node8 -->
<g id="edge36" class="edge">
<title>Node22&#45;&gt;Node8</title>
<path fill="none" stroke="midnightblue" d="M191.62,-280.37C215.44,-261.65 272.08,-217.15 301.76,-193.83"/>
<polygon fill="midnightblue" stroke="midnightblue" points="304,-196.52 309.7,-187.59 299.68,-191.02 304,-196.52"/>
</g>
<!-- Node22&#45;&gt;Node12 -->
<g id="edge39" class="edge">
<title>Node22&#45;&gt;Node12</title>
<path fill="none" stroke="midnightblue" d="M186.6,-280.37C199.14,-262.22 228.45,-219.8 244.9,-195.99"/>
<polygon fill="midnightblue" stroke="midnightblue" points="247.9,-197.81 250.7,-187.59 242.14,-193.83 247.9,-197.81"/>
</g>
<!-- Node23 -->
<g id="node23" class="node">
<title>Node23</title>
<g id="a_node23"><a xlink:title=" ">
<polygon fill="white" stroke="#bfbfbf" points="15.64,-224.5 15.64,-243.5 65.64,-243.5 65.64,-224.5 15.64,-224.5"/>
<text text-anchor="middle" x="40.64" y="-231.5" font-family="Helvetica,sans-Serif" font-size="10.00">dlfcn.h</text>
</a>
</g>
</g>
<!-- Node22&#45;&gt;Node23 -->
<g id="edge38" class="edge">
<title>Node22&#45;&gt;Node23</title>
<path fill="none" stroke="midnightblue" d="M158.45,-280.44C135.21,-271.48 98.49,-257.31 72.22,-247.18"/>
<polygon fill="midnightblue" stroke="midnightblue" points="73.31,-243.85 62.72,-243.52 70.79,-250.38 73.31,-243.85"/>
</g>
<!-- Node24&#45;&gt;Node3 -->
<g id="edge47" class="edge">
<title>Node24&#45;&gt;Node3</title>
<path fill="none" stroke="midnightblue" d="M581.78,-336.16C584.81,-312.31 593.17,-244.58 597.64,-188 600.49,-151.78 602.23,-109.35 603.05,-85.58"/>
<polygon fill="midnightblue" stroke="midnightblue" points="606.55,-85.63 603.38,-75.52 599.56,-85.4 606.55,-85.63"/>
</g>
<!-- Node24&#45;&gt;Node4 -->
<g id="edge44" class="edge">
<title>Node24&#45;&gt;Node4</title>
<path fill="none" stroke="midnightblue" d="M587.77,-336.33C610.19,-308.6 679.62,-218.75 711.64,-132 724.42,-97.37 728.6,-54.07 729.97,-29.78"/>
<polygon fill="midnightblue" stroke="midnightblue" points="733.48,-29.65 730.44,-19.5 726.49,-29.33 733.48,-29.65"/>
</g>
<!-- Node24&#45;&gt;Node6 -->
<g id="edge46" class="edge">
<title>Node24&#45;&gt;Node6</title>
<path fill="none" stroke="midnightblue" d="M563.99,-336.49C538.43,-323.56 487.83,-298.52 443.64,-280 414.51,-267.79 380.79,-255.59 356.03,-246.98"/>
<polygon fill="midnightblue" stroke="midnightblue" points="356.94,-243.59 346.34,-243.63 354.65,-250.2 356.94,-243.59"/>
</g>
<!-- Node24&#45;&gt;Node9 -->
<g id="edge45" class="edge">
<title>Node24&#45;&gt;Node9</title>
<path fill="none" stroke="midnightblue" d="M552.43,-336.44C522.23,-327.28 474.12,-312.69 440.61,-302.52"/>
<polygon fill="midnightblue" stroke="midnightblue" points="441.29,-299.07 430.71,-299.52 439.26,-305.77 441.29,-299.07"/>
</g>
</g>
</svg>
