<?xml version="1.0" encoding="UTF-8" standalone="no"?>
<!DOCTYPE svg PUBLIC "-//W3C//DTD SVG 1.1//EN"
 "http://www.w3.org/Graphics/SVG/1.1/DTD/svg11.dtd">
<!-- Generated by graphviz version 2.43.0 (0)
 -->
<!-- Title: /home/runner/work/Raytracer/Raytracer/src/Factories/TFactory.hpp Pages: 1 -->
<svg width="1099pt" height="351pt"
 viewBox="0.00 0.00 1098.50 351.00" xmlns="http://www.w3.org/2000/svg" xmlns:xlink="http://www.w3.org/1999/xlink">
<g id="graph0" class="graph" transform="scale(1 1) rotate(0) translate(4 347)">
<title>/home/runner/work/Raytracer/Raytracer/src/Factories/TFactory.hpp</title>
<polygon fill="white" stroke="transparent" points="-4,4 -4,-347 1094.5,-347 1094.5,4 -4,4"/>
<!-- Node1 -->
<g id="node1" class="node">
<title>Node1</title>
<g id="a_node1"><a xlink:title=" ">
<polygon fill="#bfbfbf" stroke="black" points="610.5,-301.5 610.5,-342.5 769.5,-342.5 769.5,-301.5 610.5,-301.5"/>
<text text-anchor="start" x="618.5" y="-330.5" font-family="Helvetica,sans-Serif" font-size="10.00">/home/runner/work/Raytracer</text>
<text text-anchor="start" x="618.5" y="-319.5" font-family="Helvetica,sans-Serif" font-size="10.00">/Raytracer/src/Factories</text>
<text text-anchor="middle" x="690" y="-308.5" font-family="Helvetica,sans-Serif" font-size="10.00">/TFactory.hpp</text>
</a>
</g>
</g>
<!-- Node2 -->
<g id="node2" class="node">
<title>Node2</title>
<g id="a_node2"><a xlink:href="$a00134.html" xlink:title=" ">
<polygon fill="white" stroke="black" points="237.5,-223.5 237.5,-264.5 396.5,-264.5 396.5,-223.5 237.5,-223.5"/>
<text text-anchor="start" x="245.5" y="-252.5" font-family="Helvetica,sans-Serif" font-size="10.00">/home/runner/work/Raytracer</text>
<text text-anchor="start" x="245.5" y="-241.5" font-family="Helvetica,sans-Serif" font-size="10.00">/Raytracer/src/Factories</text>
<text text-anchor="middle" x="317" y="-230.5" font-family="Helvetica,sans-Serif" font-size="10.00">/EntityFactory.hpp</text>
</a>
</g>
</g>
<!-- Node1&#45;&gt;Node2 -->
<g id="edge1" class="edge">
<title>Node1&#45;&gt;Node2</title>
<path fill="none" stroke="midnightblue" d="M600.22,-303.39C545.26,-292.52 473.52,-278.18 410,-265 405.63,-264.09 401.15,-263.16 396.63,-262.2"/>
<polygon fill="midnightblue" stroke="midnightblue" points="599.79,-306.87 610.28,-305.37 601.15,-300 599.79,-306.87"/>
</g>
<!-- Node3 -->
<g id="node3" class="node">
<title>Node3</title>
<g id="a_node3"><a xlink:href="$a00197.html" xlink:title=" ">
<polygon fill="white" stroke="black" points="427,-145.5 427,-186.5 589,-186.5 589,-145.5 427,-145.5"/>
<text text-anchor="start" x="435" y="-174.5" font-family="Helvetica,sans-Serif" font-size="10.00">/home/runner/work/Raytracer</text>
<text text-anchor="start" x="435" y="-163.5" font-family="Helvetica,sans-Serif" font-size="10.00">/Raytracer/src/Plugins/Entities</text>
<text text-anchor="middle" x="508" y="-152.5" font-family="Helvetica,sans-Serif" font-size="10.00">/EntityLoader.hpp</text>
</a>
</g>
</g>
<!-- Node1&#45;&gt;Node3 -->
<g id="edge16" class="edge">
<title>Node1&#45;&gt;Node3</title>
<path fill="none" stroke="midnightblue" d="M599.93,-312.3C537.68,-304.22 462.66,-289.61 443,-265 431.35,-250.41 435.22,-239.97 443,-223 449.77,-208.24 462.55,-195.9 475.01,-186.59"/>
<polygon fill="midnightblue" stroke="midnightblue" points="599.84,-315.82 610.2,-313.6 600.72,-308.88 599.84,-315.82"/>
</g>
<!-- Node10 -->
<g id="node10" class="node">
<title>Node10</title>
<g id="a_node10"><a xlink:href="$a00137.html" xlink:title=" ">
<polygon fill="white" stroke="black" points="717.5,-223.5 717.5,-264.5 876.5,-264.5 876.5,-223.5 717.5,-223.5"/>
<text text-anchor="start" x="725.5" y="-252.5" font-family="Helvetica,sans-Serif" font-size="10.00">/home/runner/work/Raytracer</text>
<text text-anchor="start" x="725.5" y="-241.5" font-family="Helvetica,sans-Serif" font-size="10.00">/Raytracer/src/Factories</text>
<text text-anchor="middle" x="797" y="-230.5" font-family="Helvetica,sans-Serif" font-size="10.00">/FilterFactory.hpp</text>
</a>
</g>
</g>
<!-- Node1&#45;&gt;Node10 -->
<g id="edge10" class="edge">
<title>Node1&#45;&gt;Node10</title>
<path fill="none" stroke="midnightblue" d="M725.71,-295.64C740,-285.49 756.2,-273.98 769.54,-264.51"/>
<polygon fill="midnightblue" stroke="midnightblue" points="723.68,-292.78 717.56,-301.43 727.73,-298.49 723.68,-292.78"/>
</g>
<!-- Node11 -->
<g id="node11" class="node">
<title>Node11</title>
<g id="a_node11"><a xlink:href="$a00206.html" xlink:title=" ">
<polygon fill="white" stroke="black" points="610.5,-145.5 610.5,-186.5 769.5,-186.5 769.5,-145.5 610.5,-145.5"/>
<text text-anchor="start" x="618.5" y="-174.5" font-family="Helvetica,sans-Serif" font-size="10.00">/home/runner/work/Raytracer</text>
<text text-anchor="start" x="618.5" y="-163.5" font-family="Helvetica,sans-Serif" font-size="10.00">/Raytracer/src/Plugins/Filters</text>
<text text-anchor="middle" x="690" y="-152.5" font-family="Helvetica,sans-Serif" font-size="10.00">/FilterLoader.hpp</text>
</a>
</g>
</g>
<!-- Node1&#45;&gt;Node11 -->
<g id="edge17" class="edge">
<title>Node1&#45;&gt;Node11</title>
<path fill="none" stroke="midnightblue" d="M690,-291.36C690,-260.61 690,-213.36 690,-186.83"/>
<polygon fill="midnightblue" stroke="midnightblue" points="686.5,-291.5 690,-301.5 693.5,-291.5 686.5,-291.5"/>
</g>
<!-- Node12 -->
<g id="node12" class="node">
<title>Node12</title>
<g id="a_node12"><a xlink:href="$a00149.html" xlink:title=" ">
<polygon fill="white" stroke="black" points="931.5,-223.5 931.5,-264.5 1090.5,-264.5 1090.5,-223.5 931.5,-223.5"/>
<text text-anchor="start" x="939.5" y="-252.5" font-family="Helvetica,sans-Serif" font-size="10.00">/home/runner/work/Raytracer</text>
<text text-anchor="start" x="939.5" y="-241.5" font-family="Helvetica,sans-Serif" font-size="10.00">/Raytracer/src/Factories</text>
<text text-anchor="middle" x="1011" y="-230.5" font-family="Helvetica,sans-Serif" font-size="10.00">/MaterialFactory.hpp</text>
</a>
</g>
</g>
<!-- Node1&#45;&gt;Node12 -->
<g id="edge13" class="edge">
<title>Node1&#45;&gt;Node12</title>
<path fill="none" stroke="midnightblue" d="M779.76,-299.75C827.37,-288.48 885.37,-274.74 931.37,-263.85"/>
<polygon fill="midnightblue" stroke="midnightblue" points="778.69,-296.41 769.76,-302.12 780.3,-303.22 778.69,-296.41"/>
</g>
<!-- Node13 -->
<g id="node13" class="node">
<title>Node13</title>
<g id="a_node13"><a xlink:href="$a00218.html" xlink:title=" ">
<polygon fill="white" stroke="black" points="802.5,-145.5 802.5,-186.5 973.5,-186.5 973.5,-145.5 802.5,-145.5"/>
<text text-anchor="start" x="810.5" y="-174.5" font-family="Helvetica,sans-Serif" font-size="10.00">/home/runner/work/Raytracer</text>
<text text-anchor="start" x="810.5" y="-163.5" font-family="Helvetica,sans-Serif" font-size="10.00">/Raytracer/src/Plugins/Materials</text>
<text text-anchor="middle" x="888" y="-152.5" font-family="Helvetica,sans-Serif" font-size="10.00">/MaterialLoader.hpp</text>
</a>
</g>
</g>
<!-- Node1&#45;&gt;Node13 -->
<g id="edge18" class="edge">
<title>Node1&#45;&gt;Node13</title>
<path fill="none" stroke="midnightblue" d="M779.77,-305.78C824.3,-296.25 871.43,-282.45 885,-265 902.34,-242.69 898.46,-208.11 893.58,-186.55"/>
<polygon fill="midnightblue" stroke="midnightblue" points="778.81,-302.41 769.73,-307.87 780.23,-309.26 778.81,-302.41"/>
</g>
<!-- Node14 -->
<g id="node14" class="node">
<title>Node14</title>
<g id="a_node14"><a xlink:href="$a00224.html" xlink:title=" ">
<polygon fill="white" stroke="black" points="452.5,-229 452.5,-259 661.5,-259 661.5,-229 452.5,-229"/>
<text text-anchor="start" x="460.5" y="-247" font-family="Helvetica,sans-Serif" font-size="10.00">/home/runner/work/Raytracer</text>
<text text-anchor="middle" x="557" y="-236" font-family="Helvetica,sans-Serif" font-size="10.00">/Raytracer/src/Plugins/PluginLoader.hpp</text>
</a>
</g>
</g>
<!-- Node1&#45;&gt;Node14 -->
<g id="edge19" class="edge">
<title>Node1&#45;&gt;Node14</title>
<path fill="none" stroke="midnightblue" d="M646.8,-296.31C625.32,-284.04 600.12,-269.64 581.89,-259.23"/>
<polygon fill="midnightblue" stroke="midnightblue" points="645.33,-299.51 655.75,-301.43 648.8,-293.43 645.33,-299.51"/>
</g>
<!-- Node2&#45;&gt;Node3 -->
<g id="edge2" class="edge">
<title>Node2&#45;&gt;Node3</title>
<path fill="none" stroke="midnightblue" d="M375.79,-219.61C402.45,-209 433.61,-196.6 458.98,-186.51"/>
<polygon fill="midnightblue" stroke="midnightblue" points="374.18,-216.48 366.19,-223.43 376.77,-222.98 374.18,-216.48"/>
</g>
<!-- Node6 -->
<g id="node6" class="node">
<title>Node6</title>
<g id="a_node6"><a xlink:href="$a00248.html" xlink:title=" ">
<polygon fill="white" stroke="black" points="229.5,-151 229.5,-181 404.5,-181 404.5,-151 229.5,-151"/>
<text text-anchor="start" x="237.5" y="-169" font-family="Helvetica,sans-Serif" font-size="10.00">/home/runner/work/Raytracer</text>
<text text-anchor="middle" x="317" y="-158" font-family="Helvetica,sans-Serif" font-size="10.00">/Raytracer/src/Scenes/Scene.hpp</text>
</a>
</g>
</g>
<!-- Node2&#45;&gt;Node6 -->
<g id="edge5" class="edge">
<title>Node2&#45;&gt;Node6</title>
<path fill="none" stroke="midnightblue" d="M317,-213.28C317,-202.25 317,-190.25 317,-181.23"/>
<polygon fill="midnightblue" stroke="midnightblue" points="313.5,-213.43 317,-223.43 320.5,-213.43 313.5,-213.43"/>
</g>
<!-- Node4 -->
<g id="node4" class="node">
<title>Node4</title>
<g id="a_node4"><a xlink:href="$a00251.html" xlink:title=" ">
<polygon fill="white" stroke="black" points="586.5,-73 586.5,-103 793.5,-103 793.5,-73 586.5,-73"/>
<text text-anchor="start" x="594.5" y="-91" font-family="Helvetica,sans-Serif" font-size="10.00">/home/runner/work/Raytracer</text>
<text text-anchor="middle" x="690" y="-80" font-family="Helvetica,sans-Serif" font-size="10.00">/Raytracer/src/Scenes/SceneLoader.hpp</text>
</a>
</g>
</g>
<!-- Node3&#45;&gt;Node4 -->
<g id="edge3" class="edge">
<title>Node3&#45;&gt;Node4</title>
<path fill="none" stroke="midnightblue" d="M564.41,-141.45C594.48,-128.89 630.49,-113.85 656.22,-103.11"/>
<polygon fill="midnightblue" stroke="midnightblue" points="562.75,-138.34 554.87,-145.43 565.45,-144.8 562.75,-138.34"/>
</g>
<!-- Node5 -->
<g id="node5" class="node">
<title>Node5</title>
<g id="a_node5"><a xlink:href="$a00095.html" xlink:title=" ">
<polygon fill="white" stroke="black" points="532.5,-0.5 532.5,-30.5 715.5,-30.5 715.5,-0.5 532.5,-0.5"/>
<text text-anchor="start" x="540.5" y="-18.5" font-family="Helvetica,sans-Serif" font-size="10.00">/home/runner/work/Raytracer</text>
<text text-anchor="middle" x="624" y="-7.5" font-family="Helvetica,sans-Serif" font-size="10.00">/Raytracer/src/Display/Display.hpp</text>
</a>
</g>
</g>
<!-- Node4&#45;&gt;Node5 -->
<g id="edge4" class="edge">
<title>Node4&#45;&gt;Node5</title>
<path fill="none" stroke="midnightblue" d="M669.75,-65.36C659.21,-54.11 646.64,-40.68 637.34,-30.75"/>
<polygon fill="midnightblue" stroke="midnightblue" points="667.25,-67.83 676.64,-72.73 672.36,-63.04 667.25,-67.83"/>
</g>
<!-- Node6&#45;&gt;Node5 -->
<g id="edge6" class="edge">
<title>Node6&#45;&gt;Node5</title>
<path fill="none" stroke="midnightblue" d="M390.14,-148.77C449.71,-135.19 526.01,-116.81 539,-109 560.58,-96.03 559.98,-85.55 577,-67 588.34,-54.65 601.33,-40.7 610.78,-30.6"/>
<polygon fill="midnightblue" stroke="midnightblue" points="389.34,-145.37 380.36,-150.99 390.89,-152.19 389.34,-145.37"/>
</g>
<!-- Node7 -->
<g id="node7" class="node">
<title>Node7</title>
<g id="a_node7"><a xlink:href="$a00101.html" xlink:title=" ">
<polygon fill="white" stroke="black" points="0,-67.5 0,-108.5 168,-108.5 168,-67.5 0,-67.5"/>
<text text-anchor="start" x="8" y="-96.5" font-family="Helvetica,sans-Serif" font-size="10.00">/home/runner/work/Raytracer</text>
<text text-anchor="start" x="8" y="-85.5" font-family="Helvetica,sans-Serif" font-size="10.00">/Raytracer/src/Display/Modules</text>
<text text-anchor="middle" x="84" y="-74.5" font-family="Helvetica,sans-Serif" font-size="10.00">/CanvasModule.hpp</text>
</a>
</g>
</g>
<!-- Node6&#45;&gt;Node7 -->
<g id="edge7" class="edge">
<title>Node6&#45;&gt;Node7</title>
<path fill="none" stroke="midnightblue" d="M264.22,-147.79C228.44,-136.11 181.07,-120.66 143.87,-108.53"/>
<polygon fill="midnightblue" stroke="midnightblue" points="263.4,-151.2 273.99,-150.97 265.57,-144.54 263.4,-151.2"/>
</g>
<!-- Node8 -->
<g id="node8" class="node">
<title>Node8</title>
<g id="a_node8"><a xlink:href="$a00104.html" xlink:title=" ">
<polygon fill="white" stroke="black" points="186,-67.5 186,-108.5 354,-108.5 354,-67.5 186,-67.5"/>
<text text-anchor="start" x="194" y="-96.5" font-family="Helvetica,sans-Serif" font-size="10.00">/home/runner/work/Raytracer</text>
<text text-anchor="start" x="194" y="-85.5" font-family="Helvetica,sans-Serif" font-size="10.00">/Raytracer/src/Display/Modules</text>
<text text-anchor="middle" x="270" y="-74.5" font-family="Helvetica,sans-Serif" font-size="10.00">/ProgressModule.hpp</text>
</a>
</g>
</g>
<!-- Node6&#45;&gt;Node8 -->
<g id="edge8" class="edge">
<title>Node6&#45;&gt;Node8</title>
<path fill="none" stroke="midnightblue" d="M302.75,-141.95C296.18,-131.33 288.46,-118.85 282.17,-108.68"/>
<polygon fill="midnightblue" stroke="midnightblue" points="299.92,-144.04 308.16,-150.7 305.88,-140.36 299.92,-144.04"/>
</g>
<!-- Node9 -->
<g id="node9" class="node">
<title>Node9</title>
<g id="a_node9"><a xlink:href="$a00185.html" xlink:title=" ">
<polygon fill="white" stroke="black" points="371.5,-73 371.5,-103 530.5,-103 530.5,-73 371.5,-73"/>
<text text-anchor="start" x="379.5" y="-91" font-family="Helvetica,sans-Serif" font-size="10.00">/home/runner/work/Raytracer</text>
<text text-anchor="middle" x="451" y="-80" font-family="Helvetica,sans-Serif" font-size="10.00">/Raytracer/src/Main.hpp</text>
</a>
</g>
</g>
<!-- Node6&#45;&gt;Node9 -->
<g id="edge9" class="edge">
<title>Node6&#45;&gt;Node9</title>
<path fill="none" stroke="midnightblue" d="M350.81,-145.82C374.29,-132.51 405.03,-115.07 426.24,-103.04"/>
<polygon fill="midnightblue" stroke="midnightblue" points="348.86,-142.91 341.89,-150.88 352.32,-148.99 348.86,-142.91"/>
</g>
<!-- Node10&#45;&gt;Node11 -->
<g id="edge11" class="edge">
<title>Node10&#45;&gt;Node11</title>
<path fill="none" stroke="midnightblue" d="M761.29,-217.64C747,-207.49 730.8,-195.98 717.46,-186.51"/>
<polygon fill="midnightblue" stroke="midnightblue" points="759.27,-220.49 769.44,-223.43 763.32,-214.78 759.27,-220.49"/>
</g>
<!-- Node11&#45;&gt;Node4 -->
<g id="edge12" class="edge">
<title>Node11&#45;&gt;Node4</title>
<path fill="none" stroke="midnightblue" d="M690,-135.28C690,-124.25 690,-112.25 690,-103.23"/>
<polygon fill="midnightblue" stroke="midnightblue" points="686.5,-135.43 690,-145.43 693.5,-135.43 686.5,-135.43"/>
</g>
<!-- Node12&#45;&gt;Node13 -->
<g id="edge14" class="edge">
<title>Node12&#45;&gt;Node13</title>
<path fill="none" stroke="midnightblue" d="M970.41,-217.92C953.87,-207.7 935.05,-196.07 919.57,-186.51"/>
<polygon fill="midnightblue" stroke="midnightblue" points="968.98,-221.15 979.32,-223.43 972.66,-215.19 968.98,-221.15"/>
</g>
<!-- Node13&#45;&gt;Node4 -->
<g id="edge15" class="edge">
<title>Node13&#45;&gt;Node4</title>
<path fill="none" stroke="midnightblue" d="M827.48,-141.77C794.59,-129.15 754.99,-113.94 726.75,-103.11"/>
<polygon fill="midnightblue" stroke="midnightblue" points="826.42,-145.11 837.01,-145.43 828.93,-138.58 826.42,-145.11"/>
</g>
<!-- Node14&#45;&gt;Node3 -->
<g id="edge20" class="edge">
<title>Node14&#45;&gt;Node3</title>
<path fill="none" stroke="midnightblue" d="M542.35,-220.27C535.45,-209.58 527.31,-196.96 520.69,-186.68"/>
<polygon fill="midnightblue" stroke="midnightblue" points="539.42,-222.2 547.78,-228.7 545.31,-218.4 539.42,-222.2"/>
</g>
<!-- Node14&#45;&gt;Node11 -->
<g id="edge21" class="edge">
<title>Node14&#45;&gt;Node11</title>
<path fill="none" stroke="midnightblue" d="M590.44,-223.89C610.36,-212.51 635.58,-198.1 655.65,-186.63"/>
<polygon fill="midnightblue" stroke="midnightblue" points="588.65,-220.88 581.7,-228.88 592.12,-226.96 588.65,-220.88"/>
</g>
<!-- Node14&#45;&gt;Node13 -->
<g id="edge22" class="edge">
<title>Node14&#45;&gt;Node13</title>
<path fill="none" stroke="midnightblue" d="M628.09,-226.68C679.35,-214.91 748.75,-198.97 802.94,-186.53"/>
<polygon fill="midnightblue" stroke="midnightblue" points="627.06,-223.32 618.1,-228.97 628.63,-230.15 627.06,-223.32"/>
</g>
</g>
</svg>
