<?xml version="1.0" encoding="UTF-8" standalone="no"?>
<!DOCTYPE svg PUBLIC "-//W3C//DTD SVG 1.1//EN"
 "http://www.w3.org/Graphics/SVG/1.1/DTD/svg11.dtd">
<!-- Generated by graphviz version 2.43.0 (0)
 -->
<!-- Title: /home/runner/work/Raytracer/Raytracer/src/Factories/IMaterialFactory.hpp Pages: 1 -->
<svg width="548pt" height="330pt"
 viewBox="0.00 0.00 548.06 330.00" xmlns="http://www.w3.org/2000/svg" xmlns:xlink="http://www.w3.org/1999/xlink">
<g id="graph0" class="graph" transform="scale(1 1) rotate(0) translate(4 326)">
<title>/home/runner/work/Raytracer/Raytracer/src/Factories/IMaterialFactory.hpp</title>
<polygon fill="white" stroke="transparent" points="-4,4 -4,-326 544.06,-326 544.06,4 -4,4"/>
<!-- Node1 -->
<g id="node1" class="node">
<title>Node1</title>
<g id="a_node1"><a xlink:title=" ">
<polygon fill="#bfbfbf" stroke="black" points="60,-280.5 60,-321.5 219,-321.5 219,-280.5 60,-280.5"/>
<text text-anchor="start" x="68" y="-309.5" font-family="Helvetica,sans-Serif" font-size="10.00">/home/runner/work/Raytracer</text>
<text text-anchor="start" x="68" y="-298.5" font-family="Helvetica,sans-Serif" font-size="10.00">/Raytracer/src/Factories</text>
<text text-anchor="middle" x="139.5" y="-287.5" font-family="Helvetica,sans-Serif" font-size="10.00">/IMaterialFactory.hpp</text>
</a>
</g>
</g>
<!-- Node2 -->
<g id="node2" class="node">
<title>Node2</title>
<g id="a_node2"><a xlink:title=" ">
<polygon fill="white" stroke="#bfbfbf" points="41.5,-168.5 41.5,-187.5 85.5,-187.5 85.5,-168.5 41.5,-168.5"/>
<text text-anchor="middle" x="63.5" y="-175.5" font-family="Helvetica,sans-Serif" font-size="10.00">string</text>
</a>
</g>
</g>
<!-- Node1&#45;&gt;Node2 -->
<g id="edge1" class="edge">
<title>Node1&#45;&gt;Node2</title>
<path fill="none" stroke="midnightblue" d="M127.12,-280.29C112.46,-256.96 88.29,-218.47 74.34,-196.26"/>
<polygon fill="midnightblue" stroke="midnightblue" points="77.17,-194.18 68.89,-187.57 71.24,-197.9 77.17,-194.18"/>
</g>
<!-- Node3 -->
<g id="node3" class="node">
<title>Node3</title>
<g id="a_node3"><a xlink:title=" ">
<polygon fill="white" stroke="#bfbfbf" points="154.5,-0.5 154.5,-19.5 212.5,-19.5 212.5,-0.5 154.5,-0.5"/>
<text text-anchor="middle" x="183.5" y="-7.5" font-family="Helvetica,sans-Serif" font-size="10.00">memory</text>
</a>
</g>
</g>
<!-- Node1&#45;&gt;Node3 -->
<g id="edge2" class="edge">
<title>Node1&#45;&gt;Node3</title>
<path fill="none" stroke="midnightblue" d="M139.5,-280.3C139.5,-256.35 139.5,-214.71 139.5,-179 139.5,-179 139.5,-179 139.5,-121 139.5,-86.04 158.9,-49.01 171.93,-28.07"/>
<polygon fill="midnightblue" stroke="midnightblue" points="174.89,-29.95 177.38,-19.65 169.01,-26.15 174.89,-29.95"/>
</g>
<!-- Node4 -->
<g id="node4" class="node">
<title>Node4</title>
<g id="a_node4"><a xlink:href="$a00119.html" xlink:title=" ">
<polygon fill="white" stroke="black" points="0,-224.5 0,-243.5 73,-243.5 73,-224.5 0,-224.5"/>
<text text-anchor="middle" x="36.5" y="-231.5" font-family="Helvetica,sans-Serif" font-size="10.00">ILogger.hpp</text>
</a>
</g>
</g>
<!-- Node1&#45;&gt;Node4 -->
<g id="edge3" class="edge">
<title>Node1&#45;&gt;Node4</title>
<path fill="none" stroke="midnightblue" d="M108.6,-280.5C92.65,-270.44 73.56,-258.38 59.02,-249.21"/>
<polygon fill="midnightblue" stroke="midnightblue" points="60.54,-246.03 50.21,-243.65 56.8,-251.95 60.54,-246.03"/>
</g>
<!-- Node5 -->
<g id="node5" class="node">
<title>Node5</title>
<g id="a_node5"><a xlink:href="$a00077.html" xlink:title=" ">
<polygon fill="white" stroke="black" points="289,-224.5 289,-243.5 370,-243.5 370,-224.5 289,-224.5"/>
<text text-anchor="middle" x="329.5" y="-231.5" font-family="Helvetica,sans-Serif" font-size="10.00">IMaterial.hpp</text>
</a>
</g>
</g>
<!-- Node1&#45;&gt;Node5 -->
<g id="edge5" class="edge">
<title>Node1&#45;&gt;Node5</title>
<path fill="none" stroke="midnightblue" d="M196.51,-280.5C228.44,-269.57 267.23,-256.3 294.65,-246.92"/>
<polygon fill="midnightblue" stroke="midnightblue" points="295.88,-250.2 304.21,-243.65 293.61,-243.58 295.88,-250.2"/>
</g>
<!-- Node9 -->
<g id="node9" class="node">
<title>Node9</title>
<g id="a_node9"><a xlink:href="$a00206.html" xlink:title=" ">
<polygon fill="white" stroke="black" points="395,-56.5 395,-75.5 470,-75.5 470,-56.5 395,-56.5"/>
<text text-anchor="middle" x="432.5" y="-63.5" font-family="Helvetica,sans-Serif" font-size="10.00">ISetting.hpp</text>
</a>
</g>
</g>
<!-- Node1&#45;&gt;Node9 -->
<g id="edge22" class="edge">
<title>Node1&#45;&gt;Node9</title>
<path fill="none" stroke="midnightblue" d="M219.29,-289.15C323.41,-273.11 496.63,-239.32 532.5,-188 561.21,-146.92 497.06,-102.41 458.65,-80.61"/>
<polygon fill="midnightblue" stroke="midnightblue" points="459.96,-77.33 449.51,-75.57 456.58,-83.46 459.96,-77.33"/>
</g>
<!-- Node4&#45;&gt;Node2 -->
<g id="edge4" class="edge">
<title>Node4&#45;&gt;Node2</title>
<path fill="none" stroke="midnightblue" d="M40.96,-224.08C44.65,-216.69 50.02,-205.95 54.59,-196.81"/>
<polygon fill="midnightblue" stroke="midnightblue" points="57.78,-198.26 59.12,-187.75 51.52,-195.13 57.78,-198.26"/>
</g>
<!-- Node6 -->
<g id="node6" class="node">
<title>Node6</title>
<g id="a_node6"><a xlink:href="$a00137.html" xlink:title=" ">
<polygon fill="white" stroke="black" points="468,-168.5 468,-187.5 523,-187.5 523,-168.5 468,-168.5"/>
<text text-anchor="middle" x="495.5" y="-175.5" font-family="Helvetica,sans-Serif" font-size="10.00">Ray.hpp</text>
</a>
</g>
</g>
<!-- Node5&#45;&gt;Node6 -->
<g id="edge6" class="edge">
<title>Node5&#45;&gt;Node6</title>
<path fill="none" stroke="midnightblue" d="M355.8,-224.44C383.85,-215.32 428.44,-200.81 459.68,-190.65"/>
<polygon fill="midnightblue" stroke="midnightblue" points="460.89,-193.94 469.32,-187.52 458.73,-187.28 460.89,-193.94"/>
</g>
<!-- Node7 -->
<g id="node7" class="node">
<title>Node7</title>
<g id="a_node7"><a xlink:href="$a00092.html" xlink:title=" ">
<polygon fill="white" stroke="black" points="394,-112.5 394,-131.5 471,-131.5 471,-112.5 394,-112.5"/>
<text text-anchor="middle" x="432.5" y="-119.5" font-family="Helvetica,sans-Serif" font-size="10.00">Vector3f.hpp</text>
</a>
</g>
</g>
<!-- Node5&#45;&gt;Node7 -->
<g id="edge21" class="edge">
<title>Node5&#45;&gt;Node7</title>
<path fill="none" stroke="midnightblue" d="M363.45,-224.47C383.08,-217.77 406.58,-206.42 420.5,-188 430.44,-174.84 433,-155.96 433.34,-141.94"/>
<polygon fill="midnightblue" stroke="midnightblue" points="436.83,-141.49 433.21,-131.53 429.83,-141.58 436.83,-141.49"/>
</g>
<!-- Node11 -->
<g id="node11" class="node">
<title>Node11</title>
<g id="a_node11"><a xlink:href="$a00122.html" xlink:title=" ">
<polygon fill="white" stroke="black" points="301.5,-112.5 301.5,-131.5 363.5,-131.5 363.5,-112.5 301.5,-112.5"/>
<text text-anchor="middle" x="332.5" y="-119.5" font-family="Helvetica,sans-Serif" font-size="10.00">Color.hpp</text>
</a>
</g>
</g>
<!-- Node5&#45;&gt;Node11 -->
<g id="edge12" class="edge">
<title>Node5&#45;&gt;Node11</title>
<path fill="none" stroke="midnightblue" d="M324.81,-224.22C318.73,-211.78 309.4,-188.28 313.5,-168 315.39,-158.65 319.29,-148.83 323.07,-140.75"/>
<polygon fill="midnightblue" stroke="midnightblue" points="326.29,-142.14 327.62,-131.63 320.03,-139.01 326.29,-142.14"/>
</g>
<!-- Node13 -->
<g id="node13" class="node">
<title>Node13</title>
<g id="a_node13"><a xlink:href="$a00200.html" xlink:title=" ">
<polygon fill="white" stroke="black" points="167.5,-168.5 167.5,-187.5 265.5,-187.5 265.5,-168.5 167.5,-168.5"/>
<text text-anchor="middle" x="216.5" y="-175.5" font-family="Helvetica,sans-Serif" font-size="10.00">IDisplayable.hpp</text>
</a>
</g>
</g>
<!-- Node5&#45;&gt;Node13 -->
<g id="edge16" class="edge">
<title>Node5&#45;&gt;Node13</title>
<path fill="none" stroke="midnightblue" d="M311.59,-224.44C293.25,-215.68 264.49,-201.94 243.41,-191.86"/>
<polygon fill="midnightblue" stroke="midnightblue" points="244.85,-188.67 234.32,-187.52 241.83,-194.99 244.85,-188.67"/>
</g>
<!-- Node15 -->
<g id="node15" class="node">
<title>Node15</title>
<g id="a_node15"><a xlink:href="$a00083.html" xlink:title=" ">
<polygon fill="white" stroke="black" points="322,-168.5 322,-187.5 411,-187.5 411,-168.5 322,-168.5"/>
<text text-anchor="middle" x="366.5" y="-175.5" font-family="Helvetica,sans-Serif" font-size="10.00">ITransform.hpp</text>
</a>
</g>
</g>
<!-- Node5&#45;&gt;Node15 -->
<g id="edge19" class="edge">
<title>Node5&#45;&gt;Node15</title>
<path fill="none" stroke="midnightblue" d="M335.61,-224.08C340.78,-216.53 348.35,-205.49 354.69,-196.23"/>
<polygon fill="midnightblue" stroke="midnightblue" points="357.74,-197.98 360.5,-187.75 351.96,-194.02 357.74,-197.98"/>
</g>
<!-- Node6&#45;&gt;Node7 -->
<g id="edge7" class="edge">
<title>Node6&#45;&gt;Node7</title>
<path fill="none" stroke="midnightblue" d="M485.38,-168.32C475.97,-160.26 461.76,-148.08 450.43,-138.37"/>
<polygon fill="midnightblue" stroke="midnightblue" points="452.68,-135.68 442.81,-131.83 448.12,-141 452.68,-135.68"/>
</g>
<!-- Node8 -->
<g id="node8" class="node">
<title>Node8</title>
<g id="a_node8"><a xlink:title=" ">
<polygon fill="white" stroke="#bfbfbf" points="320,-56.5 320,-75.5 377,-75.5 377,-56.5 320,-56.5"/>
<text text-anchor="middle" x="348.5" y="-63.5" font-family="Helvetica,sans-Serif" font-size="10.00">ostream</text>
</a>
</g>
</g>
<!-- Node7&#45;&gt;Node8 -->
<g id="edge8" class="edge">
<title>Node7&#45;&gt;Node8</title>
<path fill="none" stroke="midnightblue" d="M419,-112.32C405.9,-103.9 385.79,-90.97 370.39,-81.07"/>
<polygon fill="midnightblue" stroke="midnightblue" points="372.27,-78.12 361.96,-75.65 368.48,-84.01 372.27,-78.12"/>
</g>
<!-- Node7&#45;&gt;Node9 -->
<g id="edge9" class="edge">
<title>Node7&#45;&gt;Node9</title>
<path fill="none" stroke="midnightblue" d="M432.5,-112.08C432.5,-105.01 432.5,-94.86 432.5,-85.99"/>
<polygon fill="midnightblue" stroke="midnightblue" points="436,-85.75 432.5,-75.75 429,-85.75 436,-85.75"/>
</g>
<!-- Node9&#45;&gt;Node3 -->
<g id="edge10" class="edge">
<title>Node9&#45;&gt;Node3</title>
<path fill="none" stroke="midnightblue" d="M394.95,-56.86C348.5,-46.78 269.79,-29.71 222.62,-19.48"/>
<polygon fill="midnightblue" stroke="midnightblue" points="223.29,-16.05 212.78,-17.35 221.81,-22.89 223.29,-16.05"/>
</g>
<!-- Node10 -->
<g id="node10" class="node">
<title>Node10</title>
<g id="a_node10"><a xlink:title=" ">
<polygon fill="white" stroke="#bfbfbf" points="391,-0.5 391,-19.5 474,-19.5 474,-0.5 391,-0.5"/>
<text text-anchor="middle" x="432.5" y="-7.5" font-family="Helvetica,sans-Serif" font-size="10.00">libconfig.h++</text>
</a>
</g>
</g>
<!-- Node9&#45;&gt;Node10 -->
<g id="edge11" class="edge">
<title>Node9&#45;&gt;Node10</title>
<path fill="none" stroke="midnightblue" d="M432.5,-56.08C432.5,-49.01 432.5,-38.86 432.5,-29.99"/>
<polygon fill="midnightblue" stroke="midnightblue" points="436,-29.75 432.5,-19.75 429,-29.75 436,-29.75"/>
</g>
<!-- Node11&#45;&gt;Node8 -->
<g id="edge14" class="edge">
<title>Node11&#45;&gt;Node8</title>
<path fill="none" stroke="midnightblue" d="M335.14,-112.08C337.29,-104.85 340.38,-94.41 343.05,-85.4"/>
<polygon fill="midnightblue" stroke="midnightblue" points="346.42,-86.33 345.91,-75.75 339.71,-84.34 346.42,-86.33"/>
</g>
<!-- Node11&#45;&gt;Node9 -->
<g id="edge15" class="edge">
<title>Node11&#45;&gt;Node9</title>
<path fill="none" stroke="midnightblue" d="M348.57,-112.32C364.46,-103.74 389.01,-90.49 407.46,-80.52"/>
<polygon fill="midnightblue" stroke="midnightblue" points="409.34,-83.49 416.47,-75.65 406.01,-77.33 409.34,-83.49"/>
</g>
<!-- Node12 -->
<g id="node12" class="node">
<title>Node12</title>
<g id="a_node12"><a xlink:title=" ">
<polygon fill="white" stroke="#bfbfbf" points="253.5,-56.5 253.5,-75.5 301.5,-75.5 301.5,-56.5 253.5,-56.5"/>
<text text-anchor="middle" x="277.5" y="-63.5" font-family="Helvetica,sans-Serif" font-size="10.00">mutex</text>
</a>
</g>
</g>
<!-- Node11&#45;&gt;Node12 -->
<g id="edge13" class="edge">
<title>Node11&#45;&gt;Node12</title>
<path fill="none" stroke="midnightblue" d="M323.42,-112.08C315.33,-104.14 303.3,-92.34 293.59,-82.8"/>
<polygon fill="midnightblue" stroke="midnightblue" points="296,-80.26 286.41,-75.75 291.1,-85.25 296,-80.26"/>
</g>
<!-- Node13&#45;&gt;Node3 -->
<g id="edge17" class="edge">
<title>Node13&#45;&gt;Node3</title>
<path fill="none" stroke="midnightblue" d="M213.7,-168.45C210.84,-159.46 206.41,-144.85 203.5,-132 195.38,-96.13 189.11,-53.58 185.9,-29.69"/>
<polygon fill="midnightblue" stroke="midnightblue" points="189.34,-29.03 184.56,-19.58 182.4,-29.95 189.34,-29.03"/>
</g>
<!-- Node14 -->
<g id="node14" class="node">
<title>Node14</title>
<g id="a_node14"><a xlink:title=" ">
<polygon fill="white" stroke="#bfbfbf" points="212,-112.5 212,-131.5 259,-131.5 259,-112.5 212,-112.5"/>
<text text-anchor="middle" x="235.5" y="-119.5" font-family="Helvetica,sans-Serif" font-size="10.00">vector</text>
</a>
</g>
</g>
<!-- Node13&#45;&gt;Node14 -->
<g id="edge18" class="edge">
<title>Node13&#45;&gt;Node14</title>
<path fill="none" stroke="midnightblue" d="M219.64,-168.08C222.18,-160.85 225.86,-150.41 229.03,-141.4"/>
<polygon fill="midnightblue" stroke="midnightblue" points="232.4,-142.35 232.42,-131.75 225.8,-140.02 232.4,-142.35"/>
</g>
<!-- Node15&#45;&gt;Node7 -->
<g id="edge20" class="edge">
<title>Node15&#45;&gt;Node7</title>
<path fill="none" stroke="midnightblue" d="M377.1,-168.32C386.96,-160.26 401.85,-148.08 413.72,-138.37"/>
<polygon fill="midnightblue" stroke="midnightblue" points="416.18,-140.88 421.7,-131.83 411.75,-135.46 416.18,-140.88"/>
</g>
</g>
</svg>
