<?xml version="1.0" encoding="UTF-8" standalone="no"?>
<!DOCTYPE svg PUBLIC "-//W3C//DTD SVG 1.1//EN"
 "http://www.w3.org/Graphics/SVG/1.1/DTD/svg11.dtd">
<!-- Generated by graphviz version 2.43.0 (0)
 -->
<!-- Title: /home/runner/work/Raytracer/Raytracer/src/Plugins/Materials/IMaterialCreator.hpp Pages: 1 -->
<svg width="1242pt" height="418pt"
 viewBox="0.00 0.00 1242.00 418.00" xmlns="http://www.w3.org/2000/svg" xmlns:xlink="http://www.w3.org/1999/xlink">
<g id="graph0" class="graph" transform="scale(1 1) rotate(0) translate(4 414)">
<title>/home/runner/work/Raytracer/Raytracer/src/Plugins/Materials/IMaterialCreator.hpp</title>
<polygon fill="white" stroke="transparent" points="-4,4 -4,-414 1238,-414 1238,4 -4,4"/>
<!-- Node1 -->
<g id="node1" class="node">
<title>Node1</title>
<g id="a_node1"><a xlink:title=" ">
<polygon fill="#bfbfbf" stroke="black" points="544,-368.5 544,-409.5 715,-409.5 715,-368.5 544,-368.5"/>
<text text-anchor="start" x="552" y="-397.5" font-family="Helvetica,sans-Serif" font-size="10.00">/home/runner/work/Raytracer</text>
<text text-anchor="start" x="552" y="-386.5" font-family="Helvetica,sans-Serif" font-size="10.00">/Raytracer/src/Plugins/Materials</text>
<text text-anchor="middle" x="629.5" y="-375.5" font-family="Helvetica,sans-Serif" font-size="10.00">/IMaterialCreator.hpp</text>
</a>
</g>
</g>
<!-- Node2 -->
<g id="node2" class="node">
<title>Node2</title>
<g id="a_node2"><a xlink:href="$a00188.html" xlink:title=" ">
<polygon fill="white" stroke="black" points="47,-290.5 47,-331.5 218,-331.5 218,-290.5 47,-290.5"/>
<text text-anchor="start" x="55" y="-319.5" font-family="Helvetica,sans-Serif" font-size="10.00">/home/runner/work/Raytracer</text>
<text text-anchor="start" x="55" y="-308.5" font-family="Helvetica,sans-Serif" font-size="10.00">/Raytracer/src/Plugins/Materials</text>
<text text-anchor="middle" x="132.5" y="-297.5" font-family="Helvetica,sans-Serif" font-size="10.00">/MaterialHandler.hpp</text>
</a>
</g>
</g>
<!-- Node1&#45;&gt;Node2 -->
<g id="edge1" class="edge">
<title>Node1&#45;&gt;Node2</title>
<path fill="none" stroke="midnightblue" d="M533.5,-376.52C451.87,-366.31 331.68,-350.2 227.5,-332 224.43,-331.46 221.3,-330.9 218.15,-330.32"/>
<polygon fill="midnightblue" stroke="midnightblue" points="533.4,-380.03 543.75,-377.8 534.26,-373.09 533.4,-380.03"/>
</g>
<!-- Node7 -->
<g id="node7" class="node">
<title>Node7</title>
<g id="a_node7"><a xlink:href="$a00275.html" xlink:title=" ">
<polygon fill="white" stroke="black" points="236.5,-290.5 236.5,-331.5 418.5,-331.5 418.5,-290.5 236.5,-290.5"/>
<text text-anchor="start" x="244.5" y="-319.5" font-family="Helvetica,sans-Serif" font-size="10.00">/home/runner/work/Raytracer</text>
<text text-anchor="start" x="244.5" y="-308.5" font-family="Helvetica,sans-Serif" font-size="10.00">/Raytracer/PluginsExt/ChessBoard</text>
<text text-anchor="middle" x="327.5" y="-297.5" font-family="Helvetica,sans-Serif" font-size="10.00">Material/ChessBoardCreator.hpp</text>
</a>
</g>
</g>
<!-- Node1&#45;&gt;Node7 -->
<g id="edge7" class="edge">
<title>Node1&#45;&gt;Node7</title>
<path fill="none" stroke="midnightblue" d="M541.78,-365.92C498.52,-355.04 446.8,-342.02 405.01,-331.51"/>
<polygon fill="midnightblue" stroke="midnightblue" points="541.18,-369.38 551.73,-368.43 542.88,-362.59 541.18,-369.38"/>
</g>
<!-- Node8 -->
<g id="node8" class="node">
<title>Node8</title>
<g id="a_node8"><a xlink:href="$a00320.html" xlink:title=" ">
<polygon fill="white" stroke="black" points="436.5,-290.5 436.5,-331.5 624.5,-331.5 624.5,-290.5 436.5,-290.5"/>
<text text-anchor="start" x="444.5" y="-319.5" font-family="Helvetica,sans-Serif" font-size="10.00">/home/runner/work/Raytracer</text>
<text text-anchor="start" x="444.5" y="-308.5" font-family="Helvetica,sans-Serif" font-size="10.00">/Raytracer/PluginsExt/PlainMaterial</text>
<text text-anchor="middle" x="530.5" y="-297.5" font-family="Helvetica,sans-Serif" font-size="10.00">/PlainMaterialCreator.hpp</text>
</a>
</g>
</g>
<!-- Node1&#45;&gt;Node8 -->
<g id="edge8" class="edge">
<title>Node1&#45;&gt;Node8</title>
<path fill="none" stroke="midnightblue" d="M595.72,-362.06C582.68,-352.06 568.02,-340.8 555.91,-331.51"/>
<polygon fill="midnightblue" stroke="midnightblue" points="593.94,-365.11 604.01,-368.43 598.2,-359.56 593.94,-365.11"/>
</g>
<!-- Node9 -->
<g id="node9" class="node">
<title>Node9</title>
<g id="a_node9"><a xlink:href="$a00335.html" xlink:title=" ">
<polygon fill="white" stroke="black" points="642.5,-290.5 642.5,-331.5 816.5,-331.5 816.5,-290.5 642.5,-290.5"/>
<text text-anchor="start" x="650.5" y="-319.5" font-family="Helvetica,sans-Serif" font-size="10.00">/home/runner/work/Raytracer</text>
<text text-anchor="start" x="650.5" y="-308.5" font-family="Helvetica,sans-Serif" font-size="10.00">/Raytracer/PluginsExt/Refraction</text>
<text text-anchor="middle" x="729.5" y="-297.5" font-family="Helvetica,sans-Serif" font-size="10.00">Material/RefractionCreator.hpp</text>
</a>
</g>
</g>
<!-- Node1&#45;&gt;Node9 -->
<g id="edge9" class="edge">
<title>Node1&#45;&gt;Node9</title>
<path fill="none" stroke="midnightblue" d="M663.25,-362.35C676.51,-352.27 691.48,-340.89 703.83,-331.51"/>
<polygon fill="midnightblue" stroke="midnightblue" points="661.1,-359.59 655.25,-368.43 665.33,-365.16 661.1,-359.59"/>
</g>
<!-- Node10 -->
<g id="node10" class="node">
<title>Node10</title>
<g id="a_node10"><a xlink:href="$a00359.html" xlink:title=" ">
<polygon fill="white" stroke="black" points="834.5,-290.5 834.5,-331.5 1022.5,-331.5 1022.5,-290.5 834.5,-290.5"/>
<text text-anchor="start" x="842.5" y="-319.5" font-family="Helvetica,sans-Serif" font-size="10.00">/home/runner/work/Raytracer</text>
<text text-anchor="start" x="842.5" y="-308.5" font-family="Helvetica,sans-Serif" font-size="10.00">/Raytracer/PluginsExt/Transparency</text>
<text text-anchor="middle" x="928.5" y="-297.5" font-family="Helvetica,sans-Serif" font-size="10.00">Material/TransparencyCreator.hpp</text>
</a>
</g>
</g>
<!-- Node1&#45;&gt;Node10 -->
<g id="edge10" class="edge">
<title>Node1&#45;&gt;Node10</title>
<path fill="none" stroke="midnightblue" d="M716.35,-365.92C759.18,-355.04 810.39,-342.02 851.76,-331.51"/>
<polygon fill="midnightblue" stroke="midnightblue" points="715.33,-362.57 706.5,-368.43 717.05,-369.36 715.33,-362.57"/>
</g>
<!-- Node11 -->
<g id="node11" class="node">
<title>Node11</title>
<g id="a_node11"><a xlink:href="$a00371.html" xlink:title=" ">
<polygon fill="white" stroke="black" points="1041,-290.5 1041,-331.5 1234,-331.5 1234,-290.5 1041,-290.5"/>
<text text-anchor="start" x="1049" y="-319.5" font-family="Helvetica,sans-Serif" font-size="10.00">/home/runner/work/Raytracer</text>
<text text-anchor="start" x="1049" y="-308.5" font-family="Helvetica,sans-Serif" font-size="10.00">/Raytracer/PluginsExt/ZebraMaterial</text>
<text text-anchor="middle" x="1137.5" y="-297.5" font-family="Helvetica,sans-Serif" font-size="10.00">/ZebraCreator.hpp</text>
</a>
</g>
</g>
<!-- Node1&#45;&gt;Node11 -->
<g id="edge11" class="edge">
<title>Node1&#45;&gt;Node11</title>
<path fill="none" stroke="midnightblue" d="M725.41,-375.96C806.98,-365.4 927.14,-349.1 1031.5,-332 1034.55,-331.5 1037.65,-330.98 1040.77,-330.45"/>
<polygon fill="midnightblue" stroke="midnightblue" points="724.63,-372.53 715.16,-377.28 725.52,-379.47 724.63,-372.53"/>
</g>
<!-- Node3 -->
<g id="node3" class="node">
<title>Node3</title>
<g id="a_node3"><a xlink:href="$a00122.html" xlink:title=" ">
<polygon fill="white" stroke="black" points="0,-212.5 0,-253.5 159,-253.5 159,-212.5 0,-212.5"/>
<text text-anchor="start" x="8" y="-241.5" font-family="Helvetica,sans-Serif" font-size="10.00">/home/runner/work/Raytracer</text>
<text text-anchor="start" x="8" y="-230.5" font-family="Helvetica,sans-Serif" font-size="10.00">/Raytracer/src/Factories</text>
<text text-anchor="middle" x="79.5" y="-219.5" font-family="Helvetica,sans-Serif" font-size="10.00">/MaterialFactory.hpp</text>
</a>
</g>
</g>
<!-- Node2&#45;&gt;Node3 -->
<g id="edge2" class="edge">
<title>Node2&#45;&gt;Node3</title>
<path fill="none" stroke="midnightblue" d="M113.01,-282.05C106.39,-272.57 99.16,-262.18 93.1,-253.51"/>
<polygon fill="midnightblue" stroke="midnightblue" points="110.26,-284.23 118.85,-290.43 116,-280.22 110.26,-284.23"/>
</g>
<!-- Node4 -->
<g id="node4" class="node">
<title>Node4</title>
<g id="a_node4"><a xlink:href="$a00191.html" xlink:title=" ">
<polygon fill="white" stroke="black" points="47,-134.5 47,-175.5 218,-175.5 218,-134.5 47,-134.5"/>
<text text-anchor="start" x="55" y="-163.5" font-family="Helvetica,sans-Serif" font-size="10.00">/home/runner/work/Raytracer</text>
<text text-anchor="start" x="55" y="-152.5" font-family="Helvetica,sans-Serif" font-size="10.00">/Raytracer/src/Plugins/Materials</text>
<text text-anchor="middle" x="132.5" y="-141.5" font-family="Helvetica,sans-Serif" font-size="10.00">/MaterialLoader.hpp</text>
</a>
</g>
</g>
<!-- Node2&#45;&gt;Node4 -->
<g id="edge6" class="edge">
<title>Node2&#45;&gt;Node4</title>
<path fill="none" stroke="midnightblue" d="M154.28,-281.92C159.68,-273.42 164.71,-263.73 167.5,-254 172.65,-236.06 172.65,-229.94 167.5,-212 163.74,-198.89 155.91,-185.86 148.61,-175.68"/>
<polygon fill="midnightblue" stroke="midnightblue" points="151.31,-280.07 148.61,-290.32 157.11,-283.99 151.31,-280.07"/>
</g>
<!-- Node3&#45;&gt;Node4 -->
<g id="edge3" class="edge">
<title>Node3&#45;&gt;Node4</title>
<path fill="none" stroke="midnightblue" d="M98.99,-204.05C105.61,-194.57 112.84,-184.18 118.9,-175.51"/>
<polygon fill="midnightblue" stroke="midnightblue" points="96,-202.22 93.15,-212.43 101.74,-206.23 96,-202.22"/>
</g>
<!-- Node5 -->
<g id="node5" class="node">
<title>Node5</title>
<g id="a_node5"><a xlink:href="$a00224.html" xlink:title=" ">
<polygon fill="white" stroke="black" points="29,-67.5 29,-97.5 236,-97.5 236,-67.5 29,-67.5"/>
<text text-anchor="start" x="37" y="-85.5" font-family="Helvetica,sans-Serif" font-size="10.00">/home/runner/work/Raytracer</text>
<text text-anchor="middle" x="132.5" y="-74.5" font-family="Helvetica,sans-Serif" font-size="10.00">/Raytracer/src/Scenes/SceneLoader.hpp</text>
</a>
</g>
</g>
<!-- Node4&#45;&gt;Node5 -->
<g id="edge4" class="edge">
<title>Node4&#45;&gt;Node5</title>
<path fill="none" stroke="midnightblue" d="M132.5,-124.08C132.5,-115.01 132.5,-105.45 132.5,-97.89"/>
<polygon fill="midnightblue" stroke="midnightblue" points="129,-124.36 132.5,-134.36 136,-124.36 129,-124.36"/>
</g>
<!-- Node6 -->
<g id="node6" class="node">
<title>Node6</title>
<g id="a_node6"><a xlink:href="$a00068.html" xlink:title=" ">
<polygon fill="white" stroke="black" points="41,-0.5 41,-30.5 224,-30.5 224,-0.5 41,-0.5"/>
<text text-anchor="start" x="49" y="-18.5" font-family="Helvetica,sans-Serif" font-size="10.00">/home/runner/work/Raytracer</text>
<text text-anchor="middle" x="132.5" y="-7.5" font-family="Helvetica,sans-Serif" font-size="10.00">/Raytracer/src/Display/Display.hpp</text>
</a>
</g>
</g>
<!-- Node5&#45;&gt;Node6 -->
<g id="edge5" class="edge">
<title>Node5&#45;&gt;Node6</title>
<path fill="none" stroke="midnightblue" d="M132.5,-57.11C132.5,-48.15 132.5,-38.32 132.5,-30.58"/>
<polygon fill="midnightblue" stroke="midnightblue" points="129,-57.4 132.5,-67.4 136,-57.4 129,-57.4"/>
</g>
</g>
</svg>
