<?xml version="1.0" encoding="UTF-8" standalone="no"?>
<!DOCTYPE svg PUBLIC "-//W3C//DTD SVG 1.1//EN"
 "http://www.w3.org/Graphics/SVG/1.1/DTD/svg11.dtd">
<!-- Generated by graphviz version 2.43.0 (0)
 -->
<!-- Title: /home/runner/work/Raytracer/Raytracer/src/Entities/Transform/Vector2i.hpp Pages: 1 -->
<svg width="2289pt" height="652pt"
 viewBox="0.00 0.00 2288.50 652.00" xmlns="http://www.w3.org/2000/svg" xmlns:xlink="http://www.w3.org/1999/xlink">
<g id="graph0" class="graph" transform="scale(1 1) rotate(0) translate(4 648)">
<title>/home/runner/work/Raytracer/Raytracer/src/Entities/Transform/Vector2i.hpp</title>
<polygon fill="white" stroke="transparent" points="-4,4 -4,-648 2284.5,-648 2284.5,4 -4,4"/>
<!-- Node1 -->
<g id="node1" class="node">
<title>Node1</title>
<g id="a_node1"><a xlink:title=" ">
<polygon fill="#bfbfbf" stroke="black" points="727,-602.5 727,-643.5 886,-643.5 886,-602.5 727,-602.5"/>
<text text-anchor="start" x="735" y="-631.5" font-family="Helvetica,sans-Serif" font-size="10.00">/home/runner/work/Raytracer</text>
<text text-anchor="start" x="735" y="-620.5" font-family="Helvetica,sans-Serif" font-size="10.00">/Raytracer/src/Entities</text>
<text text-anchor="middle" x="806.5" y="-609.5" font-family="Helvetica,sans-Serif" font-size="10.00">/Transform/Vector2i.hpp</text>
</a>
</g>
</g>
<!-- Node2 -->
<g id="node2" class="node">
<title>Node2</title>
<g id="a_node2"><a xlink:href="$a00080.html" xlink:title=" ">
<polygon fill="white" stroke="black" points="989,-368.5 989,-409.5 1148,-409.5 1148,-368.5 989,-368.5"/>
<text text-anchor="start" x="997" y="-397.5" font-family="Helvetica,sans-Serif" font-size="10.00">/home/runner/work/Raytracer</text>
<text text-anchor="start" x="997" y="-386.5" font-family="Helvetica,sans-Serif" font-size="10.00">/Raytracer/src/Entities</text>
<text text-anchor="middle" x="1068.5" y="-375.5" font-family="Helvetica,sans-Serif" font-size="10.00">/ICamera.hpp</text>
</a>
</g>
</g>
<!-- Node1&#45;&gt;Node2 -->
<g id="edge1" class="edge">
<title>Node1&#45;&gt;Node2</title>
<path fill="none" stroke="midnightblue" d="M853.58,-597.31C869.12,-588.3 886.1,-577.48 900.5,-566 962.93,-516.24 1024.75,-444.02 1052.83,-409.63"/>
<polygon fill="midnightblue" stroke="midnightblue" points="851.59,-594.41 844.63,-602.4 855.05,-600.5 851.59,-594.41"/>
</g>
<!-- Node5 -->
<g id="node5" class="node">
<title>Node5</title>
<g id="a_node5"><a xlink:href="$a00152.html" xlink:title=" ">
<polygon fill="white" stroke="black" points="0,-296 0,-326 205,-326 205,-296 0,-296"/>
<text text-anchor="start" x="8" y="-314" font-family="Helvetica,sans-Serif" font-size="10.00">/home/runner/work/Raytracer</text>
<text text-anchor="middle" x="102.5" y="-303" font-family="Helvetica,sans-Serif" font-size="10.00">/Raytracer/src/Images/RayIterrator.hpp</text>
</a>
</g>
</g>
<!-- Node1&#45;&gt;Node5 -->
<g id="edge42" class="edge">
<title>Node1&#45;&gt;Node5</title>
<path fill="none" stroke="midnightblue" d="M732.67,-599.32C703.38,-589.79 669.57,-578.11 639.5,-566 439.07,-485.32 207.05,-366.58 129.38,-326.11"/>
<polygon fill="midnightblue" stroke="midnightblue" points="731.82,-602.73 742.42,-602.47 733.98,-596.07 731.82,-602.73"/>
</g>
<!-- Node11 -->
<g id="node11" class="node">
<title>Node11</title>
<g id="a_node11"><a xlink:href="$a00254.html" xlink:title=" ">
<polygon fill="white" stroke="black" points="222.5,-290.5 222.5,-331.5 400.5,-331.5 400.5,-290.5 222.5,-290.5"/>
<text text-anchor="start" x="230.5" y="-319.5" font-family="Helvetica,sans-Serif" font-size="10.00">/home/runner/work/Raytracer</text>
<text text-anchor="start" x="230.5" y="-308.5" font-family="Helvetica,sans-Serif" font-size="10.00">/Raytracer/PluginsExt/Camera</text>
<text text-anchor="middle" x="311.5" y="-297.5" font-family="Helvetica,sans-Serif" font-size="10.00">/Cluster/CameraClusterEntity.hpp</text>
</a>
</g>
</g>
<!-- Node1&#45;&gt;Node11 -->
<g id="edge43" class="edge">
<title>Node1&#45;&gt;Node11</title>
<path fill="none" stroke="midnightblue" d="M763.17,-597.2C746.61,-587.6 727.6,-576.42 710.5,-566 570.97,-480.94 407.27,-374.64 341.28,-331.52"/>
<polygon fill="midnightblue" stroke="midnightblue" points="761.69,-600.39 772.1,-602.36 765.19,-594.33 761.69,-600.39"/>
</g>
<!-- Node13 -->
<g id="node13" class="node">
<title>Node13</title>
<g id="a_node13"><a xlink:href="$a00257.html" xlink:title=" ">
<polygon fill="white" stroke="black" points="418,-290.5 418,-331.5 585,-331.5 585,-290.5 418,-290.5"/>
<text text-anchor="start" x="426" y="-319.5" font-family="Helvetica,sans-Serif" font-size="10.00">/home/runner/work/Raytracer</text>
<text text-anchor="start" x="426" y="-308.5" font-family="Helvetica,sans-Serif" font-size="10.00">/Raytracer/PluginsExt/Camera</text>
<text text-anchor="middle" x="501.5" y="-297.5" font-family="Helvetica,sans-Serif" font-size="10.00">/Cluster/ClusterRayIterator.hpp</text>
</a>
</g>
</g>
<!-- Node1&#45;&gt;Node13 -->
<g id="edge44" class="edge">
<title>Node1&#45;&gt;Node13</title>
<path fill="none" stroke="midnightblue" d="M779.68,-594.74C719.23,-533.3 573.52,-385.2 520.88,-331.7"/>
<polygon fill="midnightblue" stroke="midnightblue" points="777.45,-597.46 786.96,-602.14 782.44,-592.55 777.45,-597.46"/>
</g>
<!-- Node14 -->
<g id="node14" class="node">
<title>Node14</title>
<g id="a_node14"><a xlink:href="$a00263.html" xlink:title=" ">
<polygon fill="white" stroke="black" points="603,-290.5 603,-331.5 804,-331.5 804,-290.5 603,-290.5"/>
<text text-anchor="start" x="611" y="-319.5" font-family="Helvetica,sans-Serif" font-size="10.00">/home/runner/work/Raytracer</text>
<text text-anchor="start" x="611" y="-308.5" font-family="Helvetica,sans-Serif" font-size="10.00">/Raytracer/PluginsExt/Camera</text>
<text text-anchor="middle" x="703.5" y="-297.5" font-family="Helvetica,sans-Serif" font-size="10.00">/FullCustom/CameraCustomEntity.hpp</text>
</a>
</g>
</g>
<!-- Node1&#45;&gt;Node14 -->
<g id="edge45" class="edge">
<title>Node1&#45;&gt;Node14</title>
<path fill="none" stroke="midnightblue" d="M796.68,-592.45C775.83,-529.7 727.6,-384.55 710.04,-331.7"/>
<polygon fill="midnightblue" stroke="midnightblue" points="793.43,-593.75 799.9,-602.14 800.07,-591.54 793.43,-593.75"/>
</g>
<!-- Node16 -->
<g id="node16" class="node">
<title>Node16</title>
<g id="a_node16"><a xlink:href="$a00266.html" xlink:title=" ">
<polygon fill="white" stroke="black" points="822.5,-290.5 822.5,-331.5 1012.5,-331.5 1012.5,-290.5 822.5,-290.5"/>
<text text-anchor="start" x="830.5" y="-319.5" font-family="Helvetica,sans-Serif" font-size="10.00">/home/runner/work/Raytracer</text>
<text text-anchor="start" x="830.5" y="-308.5" font-family="Helvetica,sans-Serif" font-size="10.00">/Raytracer/PluginsExt/Camera</text>
<text text-anchor="middle" x="917.5" y="-297.5" font-family="Helvetica,sans-Serif" font-size="10.00">/FullCustom/CustomRayIterator.hpp</text>
</a>
</g>
</g>
<!-- Node1&#45;&gt;Node16 -->
<g id="edge46" class="edge">
<title>Node1&#45;&gt;Node16</title>
<path fill="none" stroke="midnightblue" d="M817.08,-592.45C839.55,-529.7 891.52,-384.55 910.45,-331.7"/>
<polygon fill="midnightblue" stroke="midnightblue" points="813.69,-591.54 813.61,-602.14 820.28,-593.9 813.69,-591.54"/>
</g>
<!-- Node17 -->
<g id="node17" class="node">
<title>Node17</title>
<g id="a_node17"><a xlink:href="$a00137.html" xlink:title=" ">
<polygon fill="white" stroke="black" points="1362.5,-530 1362.5,-560 1540.5,-560 1540.5,-530 1362.5,-530"/>
<text text-anchor="start" x="1370.5" y="-548" font-family="Helvetica,sans-Serif" font-size="10.00">/home/runner/work/Raytracer</text>
<text text-anchor="middle" x="1451.5" y="-537" font-family="Helvetica,sans-Serif" font-size="10.00">/Raytracer/src/Images/Image.hpp</text>
</a>
</g>
</g>
<!-- Node1&#45;&gt;Node17 -->
<g id="edge18" class="edge">
<title>Node1&#45;&gt;Node17</title>
<path fill="none" stroke="midnightblue" d="M896.39,-611.41C1019.6,-596.89 1239.59,-570.97 1362.39,-556.5"/>
<polygon fill="midnightblue" stroke="midnightblue" points="895.76,-607.96 886.24,-612.6 896.58,-614.91 895.76,-607.96"/>
</g>
<!-- Node28 -->
<g id="node28" class="node">
<title>Node28</title>
<g id="a_node28"><a xlink:href="$a00308.html" xlink:title=" ">
<polygon fill="white" stroke="black" points="1719.5,-524.5 1719.5,-565.5 1907.5,-565.5 1907.5,-524.5 1719.5,-524.5"/>
<text text-anchor="start" x="1727.5" y="-553.5" font-family="Helvetica,sans-Serif" font-size="10.00">/home/runner/work/Raytracer</text>
<text text-anchor="start" x="1727.5" y="-542.5" font-family="Helvetica,sans-Serif" font-size="10.00">/Raytracer/PluginsExt/LimitedPlane</text>
<text text-anchor="middle" x="1813.5" y="-531.5" font-family="Helvetica,sans-Serif" font-size="10.00">/LimitedPlaneEntity.hpp</text>
</a>
</g>
</g>
<!-- Node1&#45;&gt;Node28 -->
<g id="edge47" class="edge">
<title>Node1&#45;&gt;Node28</title>
<path fill="none" stroke="midnightblue" d="M896.45,-615.23C1036.18,-604.72 1313.86,-583.81 1549.5,-566 1605.88,-561.74 1669.02,-556.96 1719.42,-553.14"/>
<polygon fill="midnightblue" stroke="midnightblue" points="895.93,-611.76 886.22,-616 896.45,-618.74 895.93,-611.76"/>
</g>
<!-- Node3 -->
<g id="node3" class="node">
<title>Node3</title>
<g id="a_node3"><a xlink:href="$a00074.html" xlink:title=" ">
<polygon fill="white" stroke="black" points="988.5,-212.5 988.5,-253.5 1156.5,-253.5 1156.5,-212.5 988.5,-212.5"/>
<text text-anchor="start" x="996.5" y="-241.5" font-family="Helvetica,sans-Serif" font-size="10.00">/home/runner/work/Raytracer</text>
<text text-anchor="start" x="996.5" y="-230.5" font-family="Helvetica,sans-Serif" font-size="10.00">/Raytracer/src/Display/Modules</text>
<text text-anchor="middle" x="1072.5" y="-219.5" font-family="Helvetica,sans-Serif" font-size="10.00">/CanvasModule.hpp</text>
</a>
</g>
</g>
<!-- Node2&#45;&gt;Node3 -->
<g id="edge2" class="edge">
<title>Node2&#45;&gt;Node3</title>
<path fill="none" stroke="midnightblue" d="M1157.24,-367.61C1174.7,-359.43 1190.88,-348 1201.5,-332 1211.83,-316.45 1211.74,-305.61 1201.5,-290 1190.65,-273.46 1173.75,-261.79 1155.72,-253.55"/>
<polygon fill="midnightblue" stroke="midnightblue" points="1155.8,-364.41 1148.01,-371.59 1158.58,-370.84 1155.8,-364.41"/>
</g>
<!-- Node4 -->
<g id="node4" class="node">
<title>Node4</title>
<g id="a_node4"><a xlink:href="$a00077.html" xlink:title=" ">
<polygon fill="white" stroke="black" points="1174.5,-212.5 1174.5,-253.5 1342.5,-253.5 1342.5,-212.5 1174.5,-212.5"/>
<text text-anchor="start" x="1182.5" y="-241.5" font-family="Helvetica,sans-Serif" font-size="10.00">/home/runner/work/Raytracer</text>
<text text-anchor="start" x="1182.5" y="-230.5" font-family="Helvetica,sans-Serif" font-size="10.00">/Raytracer/src/Display/Modules</text>
<text text-anchor="middle" x="1258.5" y="-219.5" font-family="Helvetica,sans-Serif" font-size="10.00">/ProgressModule.hpp</text>
</a>
</g>
</g>
<!-- Node2&#45;&gt;Node4 -->
<g id="edge3" class="edge">
<title>Node2&#45;&gt;Node4</title>
<path fill="none" stroke="midnightblue" d="M1157.61,-368.74C1179.97,-360.44 1202.44,-348.67 1219.5,-332 1241.38,-310.63 1251.31,-275.44 1255.57,-253.55"/>
<polygon fill="midnightblue" stroke="midnightblue" points="1156.33,-365.48 1148.05,-372.09 1158.64,-372.09 1156.33,-365.48"/>
</g>
<!-- Node2&#45;&gt;Node5 -->
<g id="edge4" class="edge">
<title>Node2&#45;&gt;Node5</title>
<path fill="none" stroke="midnightblue" d="M978.93,-385.46C822.93,-380.29 491.44,-366.03 213.5,-332 200.48,-330.41 186.67,-328.28 173.38,-326"/>
<polygon fill="midnightblue" stroke="midnightblue" points="978.84,-388.96 988.95,-385.79 979.07,-381.96 978.84,-388.96"/>
</g>
<!-- Node6 -->
<g id="node6" class="node">
<title>Node6</title>
<g id="a_node6"><a xlink:href="$a00221.html" xlink:title=" ">
<polygon fill="white" stroke="black" points="1287,-296 1287,-326 1462,-326 1462,-296 1287,-296"/>
<text text-anchor="start" x="1295" y="-314" font-family="Helvetica,sans-Serif" font-size="10.00">/home/runner/work/Raytracer</text>
<text text-anchor="middle" x="1374.5" y="-303" font-family="Helvetica,sans-Serif" font-size="10.00">/Raytracer/src/Scenes/Scene.hpp</text>
</a>
</g>
</g>
<!-- Node2&#45;&gt;Node6 -->
<g id="edge5" class="edge">
<title>Node2&#45;&gt;Node6</title>
<path fill="none" stroke="midnightblue" d="M1157.15,-365.98C1208.9,-353.13 1272.66,-337.29 1317.7,-326.11"/>
<polygon fill="midnightblue" stroke="midnightblue" points="1156.16,-362.62 1147.3,-368.43 1157.85,-369.41 1156.16,-362.62"/>
</g>
<!-- Node9 -->
<g id="node9" class="node">
<title>Node9</title>
<g id="a_node9"><a xlink:href="$a00248.html" xlink:title=" ">
<polygon fill="white" stroke="black" points="1030.5,-290.5 1030.5,-331.5 1192.5,-331.5 1192.5,-290.5 1030.5,-290.5"/>
<text text-anchor="start" x="1038.5" y="-319.5" font-family="Helvetica,sans-Serif" font-size="10.00">/home/runner/work/Raytracer</text>
<text text-anchor="start" x="1038.5" y="-308.5" font-family="Helvetica,sans-Serif" font-size="10.00">/Raytracer/PluginsExt/Camera</text>
<text text-anchor="middle" x="1111.5" y="-297.5" font-family="Helvetica,sans-Serif" font-size="10.00">/Basic/CameraEntity.hpp</text>
</a>
</g>
</g>
<!-- Node2&#45;&gt;Node9 -->
<g id="edge10" class="edge">
<title>Node2&#45;&gt;Node9</title>
<path fill="none" stroke="midnightblue" d="M1084.64,-359.47C1089.92,-350.14 1095.65,-340.01 1100.46,-331.51"/>
<polygon fill="midnightblue" stroke="midnightblue" points="1081.45,-358 1079.57,-368.43 1087.54,-361.45 1081.45,-358"/>
</g>
<!-- Node2&#45;&gt;Node11 -->
<g id="edge12" class="edge">
<title>Node2&#45;&gt;Node11</title>
<path fill="none" stroke="midnightblue" d="M978.82,-383.77C851.5,-377 611.27,-361.4 408.5,-332 405.95,-331.63 403.36,-331.23 400.75,-330.82"/>
<polygon fill="midnightblue" stroke="midnightblue" points="978.74,-387.27 988.91,-384.3 979.11,-380.28 978.74,-387.27"/>
</g>
<!-- Node2&#45;&gt;Node13 -->
<g id="edge14" class="edge">
<title>Node2&#45;&gt;Node13</title>
<path fill="none" stroke="midnightblue" d="M978.52,-380.01C882.71,-370.89 726.85,-354.3 593.5,-332 590.76,-331.54 587.98,-331.06 585.17,-330.55"/>
<polygon fill="midnightblue" stroke="midnightblue" points="978.46,-383.52 988.74,-380.97 979.12,-376.55 978.46,-383.52"/>
</g>
<!-- Node2&#45;&gt;Node14 -->
<g id="edge15" class="edge">
<title>Node2&#45;&gt;Node14</title>
<path fill="none" stroke="midnightblue" d="M978.74,-369.31C923.59,-357.83 853.05,-343.14 797.19,-331.51"/>
<polygon fill="midnightblue" stroke="midnightblue" points="978.35,-372.8 988.85,-371.42 979.77,-365.95 978.35,-372.8"/>
</g>
<!-- Node2&#45;&gt;Node16 -->
<g id="edge17" class="edge">
<title>Node2&#45;&gt;Node16</title>
<path fill="none" stroke="midnightblue" d="M1020.63,-363.91C999.87,-353.46 975.87,-341.38 956.25,-331.51"/>
<polygon fill="midnightblue" stroke="midnightblue" points="1019.11,-367.06 1029.61,-368.43 1022.25,-360.81 1019.11,-367.06"/>
</g>
<!-- Node6&#45;&gt;Node3 -->
<g id="edge7" class="edge">
<title>Node6&#45;&gt;Node3</title>
<path fill="none" stroke="midnightblue" d="M1309.05,-293.53C1262.34,-281.78 1199.35,-265.92 1150.11,-253.53"/>
<polygon fill="midnightblue" stroke="midnightblue" points="1308.2,-296.93 1318.76,-295.97 1309.91,-290.14 1308.2,-296.93"/>
</g>
<!-- Node6&#45;&gt;Node4 -->
<g id="edge8" class="edge">
<title>Node6&#45;&gt;Node4</title>
<path fill="none" stroke="midnightblue" d="M1344.42,-290.29C1327.27,-279.06 1305.84,-265.02 1288.68,-253.77"/>
<polygon fill="midnightblue" stroke="midnightblue" points="1342.67,-293.33 1352.95,-295.88 1346.51,-287.48 1342.67,-293.33"/>
</g>
<!-- Node7 -->
<g id="node7" class="node">
<title>Node7</title>
<g id="a_node7"><a xlink:href="$a00068.html" xlink:title=" ">
<polygon fill="white" stroke="black" points="1521,-0.5 1521,-30.5 1704,-30.5 1704,-0.5 1521,-0.5"/>
<text text-anchor="start" x="1529" y="-18.5" font-family="Helvetica,sans-Serif" font-size="10.00">/home/runner/work/Raytracer</text>
<text text-anchor="middle" x="1612.5" y="-7.5" font-family="Helvetica,sans-Serif" font-size="10.00">/Raytracer/src/Display/Display.hpp</text>
</a>
</g>
</g>
<!-- Node6&#45;&gt;Node7 -->
<g id="edge6" class="edge">
<title>Node6&#45;&gt;Node7</title>
<path fill="none" stroke="midnightblue" d="M1461.05,-292.82C1485.07,-284.48 1509.47,-272.16 1527.5,-254 1592.14,-188.89 1607.91,-71.29 1611.5,-30.72"/>
<polygon fill="midnightblue" stroke="midnightblue" points="1459.94,-289.5 1451.53,-295.94 1462.12,-296.15 1459.94,-289.5"/>
</g>
<!-- Node8 -->
<g id="node8" class="node">
<title>Node8</title>
<g id="a_node8"><a xlink:href="$a00158.html" xlink:title=" ">
<polygon fill="white" stroke="black" points="1360,-218 1360,-248 1519,-248 1519,-218 1360,-218"/>
<text text-anchor="start" x="1368" y="-236" font-family="Helvetica,sans-Serif" font-size="10.00">/home/runner/work/Raytracer</text>
<text text-anchor="middle" x="1439.5" y="-225" font-family="Helvetica,sans-Serif" font-size="10.00">/Raytracer/src/Main.hpp</text>
</a>
</g>
</g>
<!-- Node6&#45;&gt;Node8 -->
<g id="edge9" class="edge">
<title>Node6&#45;&gt;Node8</title>
<path fill="none" stroke="midnightblue" d="M1393.48,-287.81C1404.41,-275.03 1417.81,-259.36 1427.33,-248.23"/>
<polygon fill="midnightblue" stroke="midnightblue" points="1390.57,-285.83 1386.73,-295.7 1395.89,-290.38 1390.57,-285.83"/>
</g>
<!-- Node10 -->
<g id="node10" class="node">
<title>Node10</title>
<g id="a_node10"><a xlink:href="$a00245.html" xlink:title=" ">
<polygon fill="white" stroke="black" points="808.5,-212.5 808.5,-253.5 970.5,-253.5 970.5,-212.5 808.5,-212.5"/>
<text text-anchor="start" x="816.5" y="-241.5" font-family="Helvetica,sans-Serif" font-size="10.00">/home/runner/work/Raytracer</text>
<text text-anchor="start" x="816.5" y="-230.5" font-family="Helvetica,sans-Serif" font-size="10.00">/Raytracer/PluginsExt/Camera</text>
<text text-anchor="middle" x="889.5" y="-219.5" font-family="Helvetica,sans-Serif" font-size="10.00">/Basic/CameraCreator.hpp</text>
</a>
</g>
</g>
<!-- Node9&#45;&gt;Node10 -->
<g id="edge11" class="edge">
<title>Node9&#45;&gt;Node10</title>
<path fill="none" stroke="midnightblue" d="M1044.8,-287.17C1013.46,-276.44 976.48,-263.78 946.48,-253.51"/>
<polygon fill="midnightblue" stroke="midnightblue" points="1043.73,-290.5 1054.33,-290.43 1046,-283.88 1043.73,-290.5"/>
</g>
<!-- Node12 -->
<g id="node12" class="node">
<title>Node12</title>
<g id="a_node12"><a xlink:href="$a00251.html" xlink:title=" ">
<polygon fill="white" stroke="black" points="218.5,-212.5 218.5,-253.5 404.5,-253.5 404.5,-212.5 218.5,-212.5"/>
<text text-anchor="start" x="226.5" y="-241.5" font-family="Helvetica,sans-Serif" font-size="10.00">/home/runner/work/Raytracer</text>
<text text-anchor="start" x="226.5" y="-230.5" font-family="Helvetica,sans-Serif" font-size="10.00">/Raytracer/PluginsExt/Camera</text>
<text text-anchor="middle" x="311.5" y="-219.5" font-family="Helvetica,sans-Serif" font-size="10.00">/Cluster/CameraClusterCreator.hpp</text>
</a>
</g>
</g>
<!-- Node11&#45;&gt;Node12 -->
<g id="edge13" class="edge">
<title>Node11&#45;&gt;Node12</title>
<path fill="none" stroke="midnightblue" d="M311.5,-280.3C311.5,-271.3 311.5,-261.65 311.5,-253.51"/>
<polygon fill="midnightblue" stroke="midnightblue" points="308,-280.43 311.5,-290.43 315,-280.43 308,-280.43"/>
</g>
<!-- Node15 -->
<g id="node15" class="node">
<title>Node15</title>
<g id="a_node15"><a xlink:href="$a00260.html" xlink:title=" ">
<polygon fill="white" stroke="black" points="581,-212.5 581,-253.5 790,-253.5 790,-212.5 581,-212.5"/>
<text text-anchor="start" x="589" y="-241.5" font-family="Helvetica,sans-Serif" font-size="10.00">/home/runner/work/Raytracer</text>
<text text-anchor="start" x="589" y="-230.5" font-family="Helvetica,sans-Serif" font-size="10.00">/Raytracer/PluginsExt/Camera</text>
<text text-anchor="middle" x="685.5" y="-219.5" font-family="Helvetica,sans-Serif" font-size="10.00">/FullCustom/CameraCustomCreator.hpp</text>
</a>
</g>
</g>
<!-- Node14&#45;&gt;Node15 -->
<g id="edge16" class="edge">
<title>Node14&#45;&gt;Node15</title>
<path fill="none" stroke="midnightblue" d="M696.53,-280.59C694.38,-271.51 692.07,-261.74 690.12,-253.51"/>
<polygon fill="midnightblue" stroke="midnightblue" points="693.15,-281.5 698.86,-290.43 699.97,-279.89 693.15,-281.5"/>
</g>
<!-- Node17&#45;&gt;Node2 -->
<g id="edge19" class="edge">
<title>Node17&#45;&gt;Node2</title>
<path fill="none" stroke="midnightblue" d="M1407.2,-526.19C1334.94,-497.13 1192.27,-439.76 1117.24,-409.6"/>
<polygon fill="midnightblue" stroke="midnightblue" points="1405.91,-529.44 1416.5,-529.93 1408.52,-522.95 1405.91,-529.44"/>
</g>
<!-- Node17&#45;&gt;Node6 -->
<g id="edge40" class="edge">
<title>Node17&#45;&gt;Node6</title>
<path fill="none" stroke="midnightblue" d="M1438.36,-520.9C1424.11,-494.81 1401.75,-450.66 1389.5,-410 1380.76,-380.99 1376.95,-345.55 1375.42,-326.23"/>
<polygon fill="midnightblue" stroke="midnightblue" points="1435.31,-522.61 1443.21,-529.66 1441.43,-519.22 1435.31,-522.61"/>
</g>
<!-- Node18 -->
<g id="node18" class="node">
<title>Node18</title>
<g id="a_node18"><a xlink:href="$a00128.html" xlink:title=" ">
<polygon fill="white" stroke="black" points="1538.5,-452 1538.5,-482 1706.5,-482 1706.5,-452 1538.5,-452"/>
<text text-anchor="start" x="1546.5" y="-470" font-family="Helvetica,sans-Serif" font-size="10.00">/home/runner/work/Raytracer</text>
<text text-anchor="middle" x="1622.5" y="-459" font-family="Helvetica,sans-Serif" font-size="10.00">/Raytracer/src/Filters/IFilter.hpp</text>
</a>
</g>
</g>
<!-- Node17&#45;&gt;Node18 -->
<g id="edge20" class="edge">
<title>Node17&#45;&gt;Node18</title>
<path fill="none" stroke="midnightblue" d="M1492.68,-525.7C1522.87,-512.28 1563.24,-494.34 1590.91,-482.04"/>
<polygon fill="midnightblue" stroke="midnightblue" points="1490.98,-522.62 1483.26,-529.88 1493.82,-529.02 1490.98,-522.62"/>
</g>
<!-- Node23 -->
<g id="node23" class="node">
<title>Node23</title>
<g id="a_node23"><a xlink:href="$a00140.html" xlink:title=" ">
<polygon fill="white" stroke="black" points="1902.5,-368.5 1902.5,-409.5 2080.5,-409.5 2080.5,-368.5 1902.5,-368.5"/>
<text text-anchor="start" x="1910.5" y="-397.5" font-family="Helvetica,sans-Serif" font-size="10.00">/home/runner/work/Raytracer</text>
<text text-anchor="start" x="1910.5" y="-386.5" font-family="Helvetica,sans-Serif" font-size="10.00">/Raytracer/src/Images/ImagePipe</text>
<text text-anchor="middle" x="1991.5" y="-375.5" font-family="Helvetica,sans-Serif" font-size="10.00">Line.hpp</text>
</a>
</g>
</g>
<!-- Node17&#45;&gt;Node23 -->
<g id="edge39" class="edge">
<title>Node17&#45;&gt;Node23</title>
<path fill="none" stroke="midnightblue" d="M1550.91,-536.26C1602.43,-529.03 1664.96,-515.04 1715.5,-488 1739.05,-475.4 1735.12,-458.92 1758.5,-446 1771.47,-438.83 1842.2,-422.29 1902.36,-409.04"/>
<polygon fill="midnightblue" stroke="midnightblue" points="1550.21,-532.82 1540.76,-537.62 1551.14,-539.76 1550.21,-532.82"/>
</g>
<!-- Node27 -->
<g id="node27" class="node">
<title>Node27</title>
<g id="a_node27"><a xlink:href="$a00242.html" xlink:title=" ">
<polygon fill="white" stroke="black" points="2098.5,-368.5 2098.5,-409.5 2280.5,-409.5 2280.5,-368.5 2098.5,-368.5"/>
<text text-anchor="start" x="2106.5" y="-397.5" font-family="Helvetica,sans-Serif" font-size="10.00">/home/runner/work/Raytracer</text>
<text text-anchor="start" x="2106.5" y="-386.5" font-family="Helvetica,sans-Serif" font-size="10.00">/Raytracer/PluginsExt/AntiAliasing</text>
<text text-anchor="middle" x="2189.5" y="-375.5" font-family="Helvetica,sans-Serif" font-size="10.00">/SSAAx4/SSAAx4Filter.hpp</text>
</a>
</g>
</g>
<!-- Node17&#45;&gt;Node27 -->
<g id="edge41" class="edge">
<title>Node17&#45;&gt;Node27</title>
<path fill="none" stroke="midnightblue" d="M1550.53,-540.48C1611.29,-534.78 1688.97,-520.92 1750.5,-488 1773.5,-475.69 1768.11,-457.55 1791.5,-446 1911.11,-386.91 1957.77,-431.1 2089.5,-410 2092.38,-409.54 2095.31,-409.05 2098.27,-408.55"/>
<polygon fill="midnightblue" stroke="midnightblue" points="1550.2,-536.99 1540.55,-541.36 1550.82,-543.97 1550.2,-536.99"/>
</g>
<!-- Node18&#45;&gt;Node2 -->
<g id="edge21" class="edge">
<title>Node18&#45;&gt;Node2</title>
<path fill="none" stroke="midnightblue" d="M1528.21,-453.07C1421.2,-438.38 1248.51,-414.69 1148.03,-400.91"/>
<polygon fill="midnightblue" stroke="midnightblue" points="1527.98,-456.57 1538.36,-454.46 1528.93,-449.63 1527.98,-456.57"/>
</g>
<!-- Node19 -->
<g id="node19" class="node">
<title>Node19</title>
<g id="a_node19"><a xlink:href="$a00110.html" xlink:title=" ">
<polygon fill="white" stroke="black" points="1574,-212.5 1574,-253.5 1733,-253.5 1733,-212.5 1574,-212.5"/>
<text text-anchor="start" x="1582" y="-241.5" font-family="Helvetica,sans-Serif" font-size="10.00">/home/runner/work/Raytracer</text>
<text text-anchor="start" x="1582" y="-230.5" font-family="Helvetica,sans-Serif" font-size="10.00">/Raytracer/src/Factories</text>
<text text-anchor="middle" x="1653.5" y="-219.5" font-family="Helvetica,sans-Serif" font-size="10.00">/FilterFactory.hpp</text>
</a>
</g>
</g>
<!-- Node18&#45;&gt;Node19 -->
<g id="edge22" class="edge">
<title>Node18&#45;&gt;Node19</title>
<path fill="none" stroke="midnightblue" d="M1613.14,-442.02C1601.08,-407.29 1583.84,-341.53 1603.5,-290 1608.84,-276 1619.47,-263.27 1629.57,-253.51"/>
<polygon fill="midnightblue" stroke="midnightblue" points="1609.97,-443.54 1616.68,-451.75 1616.55,-441.15 1609.97,-443.54"/>
</g>
<!-- Node20 -->
<g id="node20" class="node">
<title>Node20</title>
<g id="a_node20"><a xlink:href="$a00179.html" xlink:title=" ">
<polygon fill="white" stroke="black" points="1660,-134.5 1660,-175.5 1819,-175.5 1819,-134.5 1660,-134.5"/>
<text text-anchor="start" x="1668" y="-163.5" font-family="Helvetica,sans-Serif" font-size="10.00">/home/runner/work/Raytracer</text>
<text text-anchor="start" x="1668" y="-152.5" font-family="Helvetica,sans-Serif" font-size="10.00">/Raytracer/src/Plugins/Filters</text>
<text text-anchor="middle" x="1739.5" y="-141.5" font-family="Helvetica,sans-Serif" font-size="10.00">/FilterLoader.hpp</text>
</a>
</g>
</g>
<!-- Node18&#45;&gt;Node20 -->
<g id="edge32" class="edge">
<title>Node18&#45;&gt;Node20</title>
<path fill="none" stroke="midnightblue" d="M1633.66,-442.78C1646.31,-417.28 1666.81,-378.54 1679.5,-368 1716.16,-337.55 1753.04,-370.95 1780.5,-332 1814.76,-283.41 1775.83,-210.32 1753.3,-175.62"/>
<polygon fill="midnightblue" stroke="midnightblue" points="1630.49,-441.3 1629.23,-451.82 1636.77,-444.38 1630.49,-441.3"/>
</g>
<!-- Node22 -->
<g id="node22" class="node">
<title>Node22</title>
<g id="a_node22"><a xlink:href="$a00116.html" xlink:title=" ">
<polygon fill="white" stroke="black" points="1398,-368.5 1398,-409.5 1557,-409.5 1557,-368.5 1398,-368.5"/>
<text text-anchor="start" x="1406" y="-397.5" font-family="Helvetica,sans-Serif" font-size="10.00">/home/runner/work/Raytracer</text>
<text text-anchor="start" x="1406" y="-386.5" font-family="Helvetica,sans-Serif" font-size="10.00">/Raytracer/src/Factories</text>
<text text-anchor="middle" x="1477.5" y="-375.5" font-family="Helvetica,sans-Serif" font-size="10.00">/IFilterFactory.hpp</text>
</a>
</g>
</g>
<!-- Node18&#45;&gt;Node22 -->
<g id="edge26" class="edge">
<title>Node18&#45;&gt;Node22</title>
<path fill="none" stroke="midnightblue" d="M1586.62,-447.2C1564.82,-435.77 1537.03,-421.2 1514.95,-409.63"/>
<polygon fill="midnightblue" stroke="midnightblue" points="1585.08,-450.34 1595.57,-451.88 1588.33,-444.14 1585.08,-450.34"/>
</g>
<!-- Node18&#45;&gt;Node23 -->
<g id="edge28" class="edge">
<title>Node18&#45;&gt;Node23</title>
<path fill="none" stroke="midnightblue" d="M1700.62,-449.91C1759.61,-437.76 1840.64,-421.07 1902.19,-408.39"/>
<polygon fill="midnightblue" stroke="midnightblue" points="1699.7,-446.53 1690.61,-451.97 1701.11,-453.38 1699.7,-446.53"/>
</g>
<!-- Node24 -->
<g id="node24" class="node">
<title>Node24</title>
<g id="a_node24"><a xlink:href="$a00176.html" xlink:title=" ">
<polygon fill="white" stroke="black" points="1612,-290.5 1612,-331.5 1771,-331.5 1771,-290.5 1612,-290.5"/>
<text text-anchor="start" x="1620" y="-319.5" font-family="Helvetica,sans-Serif" font-size="10.00">/home/runner/work/Raytracer</text>
<text text-anchor="start" x="1620" y="-308.5" font-family="Helvetica,sans-Serif" font-size="10.00">/Raytracer/src/Plugins/Filters</text>
<text text-anchor="middle" x="1691.5" y="-297.5" font-family="Helvetica,sans-Serif" font-size="10.00">/FilterHandler.hpp</text>
</a>
</g>
</g>
<!-- Node18&#45;&gt;Node24 -->
<g id="edge29" class="edge">
<title>Node18&#45;&gt;Node24</title>
<path fill="none" stroke="midnightblue" d="M1625.45,-441.64C1628.63,-421.17 1634.87,-391.57 1646.5,-368 1653.07,-354.69 1663.26,-341.65 1672.28,-331.51"/>
<polygon fill="midnightblue" stroke="midnightblue" points="1621.96,-441.31 1624.03,-451.7 1628.89,-442.3 1621.96,-441.31"/>
</g>
<!-- Node25 -->
<g id="node25" class="node">
<title>Node25</title>
<g id="a_node25"><a xlink:href="$a00182.html" xlink:title=" ">
<polygon fill="white" stroke="black" points="1688,-368.5 1688,-409.5 1847,-409.5 1847,-368.5 1688,-368.5"/>
<text text-anchor="start" x="1696" y="-397.5" font-family="Helvetica,sans-Serif" font-size="10.00">/home/runner/work/Raytracer</text>
<text text-anchor="start" x="1696" y="-386.5" font-family="Helvetica,sans-Serif" font-size="10.00">/Raytracer/src/Plugins/Filters</text>
<text text-anchor="middle" x="1767.5" y="-375.5" font-family="Helvetica,sans-Serif" font-size="10.00">/IFilterCreator.hpp</text>
</a>
</g>
</g>
<!-- Node18&#45;&gt;Node25 -->
<g id="edge33" class="edge">
<title>Node18&#45;&gt;Node25</title>
<path fill="none" stroke="midnightblue" d="M1658.38,-447.2C1680.18,-435.77 1707.97,-421.2 1730.05,-409.63"/>
<polygon fill="midnightblue" stroke="midnightblue" points="1656.67,-444.14 1649.43,-451.88 1659.92,-450.34 1656.67,-444.14"/>
</g>
<!-- Node26 -->
<g id="node26" class="node">
<title>Node26</title>
<g id="a_node26"><a xlink:href="$a00239.html" xlink:title=" ">
<polygon fill="white" stroke="black" points="1826.5,-290.5 1826.5,-331.5 2008.5,-331.5 2008.5,-290.5 1826.5,-290.5"/>
<text text-anchor="start" x="1834.5" y="-319.5" font-family="Helvetica,sans-Serif" font-size="10.00">/home/runner/work/Raytracer</text>
<text text-anchor="start" x="1834.5" y="-308.5" font-family="Helvetica,sans-Serif" font-size="10.00">/Raytracer/PluginsExt/AntiAliasing</text>
<text text-anchor="middle" x="1917.5" y="-297.5" font-family="Helvetica,sans-Serif" font-size="10.00">/SSAAx4/SSAAx4Creator.hpp</text>
</a>
</g>
</g>
<!-- Node18&#45;&gt;Node26 -->
<g id="edge36" class="edge">
<title>Node18&#45;&gt;Node26</title>
<path fill="none" stroke="midnightblue" d="M1696.31,-449.75C1762.36,-435 1849.81,-414.82 1856.5,-410 1883.81,-390.32 1901.55,-354.26 1910.51,-331.8"/>
<polygon fill="midnightblue" stroke="midnightblue" points="1695.32,-446.39 1686.32,-451.98 1696.84,-453.22 1695.32,-446.39"/>
</g>
<!-- Node18&#45;&gt;Node27 -->
<g id="edge37" class="edge">
<title>Node18&#45;&gt;Node27</title>
<path fill="none" stroke="midnightblue" d="M1716.72,-451.67C1730.71,-449.68 1744.98,-447.73 1758.5,-446 1905.28,-427.23 1943.25,-432.53 2089.5,-410 2092.39,-409.56 2095.32,-409.08 2098.27,-408.59"/>
<polygon fill="midnightblue" stroke="midnightblue" points="1715.99,-448.24 1706.59,-453.13 1716.98,-455.17 1715.99,-448.24"/>
</g>
<!-- Node19&#45;&gt;Node20 -->
<g id="edge23" class="edge">
<title>Node19&#45;&gt;Node20</title>
<path fill="none" stroke="midnightblue" d="M1683.17,-205.78C1694.41,-195.84 1707.01,-184.72 1717.43,-175.51"/>
<polygon fill="midnightblue" stroke="midnightblue" points="1680.82,-203.18 1675.65,-212.43 1685.46,-208.43 1680.82,-203.18"/>
</g>
<!-- Node21 -->
<g id="node21" class="node">
<title>Node21</title>
<g id="a_node21"><a xlink:href="$a00224.html" xlink:title=" ">
<polygon fill="white" stroke="black" points="1616,-67.5 1616,-97.5 1823,-97.5 1823,-67.5 1616,-67.5"/>
<text text-anchor="start" x="1624" y="-85.5" font-family="Helvetica,sans-Serif" font-size="10.00">/home/runner/work/Raytracer</text>
<text text-anchor="middle" x="1719.5" y="-74.5" font-family="Helvetica,sans-Serif" font-size="10.00">/Raytracer/src/Scenes/SceneLoader.hpp</text>
</a>
</g>
</g>
<!-- Node20&#45;&gt;Node21 -->
<g id="edge24" class="edge">
<title>Node20&#45;&gt;Node21</title>
<path fill="none" stroke="midnightblue" d="M1731.18,-124.67C1728.56,-115.42 1725.77,-105.61 1723.58,-97.89"/>
<polygon fill="midnightblue" stroke="midnightblue" points="1727.83,-125.7 1733.93,-134.36 1734.57,-123.79 1727.83,-125.7"/>
</g>
<!-- Node21&#45;&gt;Node7 -->
<g id="edge25" class="edge">
<title>Node21&#45;&gt;Node7</title>
<path fill="none" stroke="midnightblue" d="M1687.42,-62.02C1670.77,-51.9 1650.81,-39.77 1635.67,-30.58"/>
<polygon fill="midnightblue" stroke="midnightblue" points="1685.92,-65.2 1696.28,-67.4 1689.55,-59.21 1685.92,-65.2"/>
</g>
<!-- Node22&#45;&gt;Node19 -->
<g id="edge27" class="edge">
<title>Node22&#45;&gt;Node19</title>
<path fill="none" stroke="midnightblue" d="M1500.56,-360.63C1518.56,-340.06 1544.74,-311.81 1570.5,-290 1586.15,-276.75 1605.01,-263.81 1620.79,-253.72"/>
<polygon fill="midnightblue" stroke="midnightblue" points="1497.75,-358.53 1493.85,-368.38 1503.04,-363.11 1497.75,-358.53"/>
</g>
<!-- Node24&#45;&gt;Node19 -->
<g id="edge30" class="edge">
<title>Node24&#45;&gt;Node19</title>
<path fill="none" stroke="midnightblue" d="M1677.23,-281.47C1672.57,-272.14 1667.5,-262.01 1663.25,-253.51"/>
<polygon fill="midnightblue" stroke="midnightblue" points="1674.11,-283.05 1681.71,-290.43 1680.37,-279.92 1674.11,-283.05"/>
</g>
<!-- Node24&#45;&gt;Node20 -->
<g id="edge31" class="edge">
<title>Node24&#45;&gt;Node20</title>
<path fill="none" stroke="midnightblue" d="M1723.36,-283.04C1731.11,-274.62 1738.36,-264.7 1742.5,-254 1752.46,-228.28 1748.61,-195.87 1744.44,-175.53"/>
<polygon fill="midnightblue" stroke="midnightblue" points="1720.7,-280.75 1716.17,-290.33 1725.68,-285.66 1720.7,-280.75"/>
</g>
<!-- Node25&#45;&gt;Node24 -->
<g id="edge34" class="edge">
<title>Node25&#45;&gt;Node24</title>
<path fill="none" stroke="midnightblue" d="M1740.7,-361.2C1730.92,-351.42 1720.04,-340.54 1711.01,-331.51"/>
<polygon fill="midnightblue" stroke="midnightblue" points="1738.38,-363.83 1747.93,-368.43 1743.33,-358.88 1738.38,-363.83"/>
</g>
<!-- Node25&#45;&gt;Node26 -->
<g id="edge35" class="edge">
<title>Node25&#45;&gt;Node26</title>
<path fill="none" stroke="midnightblue" d="M1815.05,-363.91C1835.67,-353.46 1859.51,-341.38 1879,-331.51"/>
<polygon fill="midnightblue" stroke="midnightblue" points="1813.47,-360.79 1806.13,-368.43 1816.63,-367.03 1813.47,-360.79"/>
</g>
<!-- Node27&#45;&gt;Node26 -->
<g id="edge38" class="edge">
<title>Node27&#45;&gt;Node26</title>
<path fill="none" stroke="midnightblue" d="M2109.76,-365.72C2070.94,-354.87 2024.71,-341.96 1987.31,-331.51"/>
<polygon fill="midnightblue" stroke="midnightblue" points="2108.88,-369.11 2119.45,-368.43 2110.76,-362.37 2108.88,-369.11"/>
</g>
<!-- Node29 -->
<g id="node29" class="node">
<title>Node29</title>
<g id="a_node29"><a xlink:href="$a00305.html" xlink:title=" ">
<polygon fill="white" stroke="black" points="1800.5,-446.5 1800.5,-487.5 1988.5,-487.5 1988.5,-446.5 1800.5,-446.5"/>
<text text-anchor="start" x="1808.5" y="-475.5" font-family="Helvetica,sans-Serif" font-size="10.00">/home/runner/work/Raytracer</text>
<text text-anchor="start" x="1808.5" y="-464.5" font-family="Helvetica,sans-Serif" font-size="10.00">/Raytracer/PluginsExt/LimitedPlane</text>
<text text-anchor="middle" x="1894.5" y="-453.5" font-family="Helvetica,sans-Serif" font-size="10.00">/LimitedPlaneCreator.hpp</text>
</a>
</g>
</g>
<!-- Node28&#45;&gt;Node29 -->
<g id="edge48" class="edge">
<title>Node28&#45;&gt;Node29</title>
<path fill="none" stroke="midnightblue" d="M1841.75,-517.49C1852.26,-507.63 1863.99,-496.63 1873.71,-487.51"/>
<polygon fill="midnightblue" stroke="midnightblue" points="1839.26,-515.03 1834.36,-524.43 1844.05,-520.14 1839.26,-515.03"/>
</g>
</g>
</svg>
