<?xml version="1.0" encoding="UTF-8" standalone="no"?>
<!DOCTYPE svg PUBLIC "-//W3C//DTD SVG 1.1//EN"
 "http://www.w3.org/Graphics/SVG/1.1/DTD/svg11.dtd">
<!-- Generated by graphviz version 2.43.0 (0)
 -->
<!-- Title: /home/runner/work/Raytracer/Raytracer/src/Entities/ICamera.hpp Pages: 1 -->
<svg width="617pt" height="386pt"
 viewBox="0.00 0.00 616.50 386.00" xmlns="http://www.w3.org/2000/svg" xmlns:xlink="http://www.w3.org/1999/xlink">
<g id="graph0" class="graph" transform="scale(1 1) rotate(0) translate(4 382)">
<title>/home/runner/work/Raytracer/Raytracer/src/Entities/ICamera.hpp</title>
<polygon fill="white" stroke="transparent" points="-4,4 -4,-382 612.5,-382 612.5,4 -4,4"/>
<!-- Node1 -->
<g id="node1" class="node">
<title>Node1</title>
<g id="a_node1"><a xlink:title=" ">
<polygon fill="#bfbfbf" stroke="black" points="262.5,-336.5 262.5,-377.5 421.5,-377.5 421.5,-336.5 262.5,-336.5"/>
<text text-anchor="start" x="270.5" y="-365.5" font-family="Helvetica,sans-Serif" font-size="10.00">/home/runner/work/Raytracer</text>
<text text-anchor="start" x="270.5" y="-354.5" font-family="Helvetica,sans-Serif" font-size="10.00">/Raytracer/src/Entities</text>
<text text-anchor="middle" x="342" y="-343.5" font-family="Helvetica,sans-Serif" font-size="10.00">/ICamera.hpp</text>
</a>
</g>
</g>
<!-- Node2 -->
<g id="node2" class="node">
<title>Node2</title>
<g id="a_node2"><a xlink:title=" ">
<polygon fill="white" stroke="#bfbfbf" points="56.5,-168.5 56.5,-187.5 109.5,-187.5 109.5,-168.5 56.5,-168.5"/>
<text text-anchor="middle" x="83" y="-175.5" font-family="Helvetica,sans-Serif" font-size="10.00">cstddef</text>
</a>
</g>
</g>
<!-- Node1&#45;&gt;Node2 -->
<g id="edge1" class="edge">
<title>Node1&#45;&gt;Node2</title>
<path fill="none" stroke="midnightblue" d="M271.1,-336.38C245.84,-327.53 217.97,-315.51 195,-300 151.69,-270.75 113.19,-221.68 94.67,-195.93"/>
<polygon fill="midnightblue" stroke="midnightblue" points="97.4,-193.74 88.77,-187.58 91.68,-197.77 97.4,-193.74"/>
</g>
<!-- Node3 -->
<g id="node3" class="node">
<title>Node3</title>
<g id="a_node3"><a xlink:title=" ">
<polygon fill="white" stroke="#bfbfbf" points="463,-280.5 463,-299.5 495,-299.5 495,-280.5 463,-280.5"/>
<text text-anchor="middle" x="479" y="-287.5" font-family="Helvetica,sans-Serif" font-size="10.00">list</text>
</a>
</g>
</g>
<!-- Node1&#45;&gt;Node3 -->
<g id="edge2" class="edge">
<title>Node1&#45;&gt;Node3</title>
<path fill="none" stroke="midnightblue" d="M383.1,-336.5C406.03,-325.62 433.85,-312.42 453.62,-303.04"/>
<polygon fill="midnightblue" stroke="midnightblue" points="455.34,-306.1 462.88,-298.65 452.34,-299.77 455.34,-306.1"/>
</g>
<!-- Node4 -->
<g id="node4" class="node">
<title>Node4</title>
<g id="a_node4"><a xlink:href="$a00128.html" xlink:title=" ">
<polygon fill="white" stroke="black" points="246.5,-168.5 246.5,-187.5 375.5,-187.5 375.5,-168.5 246.5,-168.5"/>
<text text-anchor="middle" x="311" y="-175.5" font-family="Helvetica,sans-Serif" font-size="10.00">Transform/Vector2i.hpp</text>
</a>
</g>
</g>
<!-- Node1&#45;&gt;Node4 -->
<g id="edge3" class="edge">
<title>Node1&#45;&gt;Node4</title>
<path fill="none" stroke="midnightblue" d="M337.51,-336.36C335.13,-325.64 332.25,-312.12 330,-300 323.3,-263.89 316.99,-221.42 313.6,-197.61"/>
<polygon fill="midnightblue" stroke="midnightblue" points="317.04,-196.95 312.17,-187.54 310.11,-197.93 317.04,-196.95"/>
</g>
<!-- Node10 -->
<g id="node10" class="node">
<title>Node10</title>
<g id="a_node10"><a xlink:href="$a00239.html" xlink:title=" ">
<polygon fill="white" stroke="black" points="499,-224.5 499,-243.5 597,-243.5 597,-224.5 499,-224.5"/>
<text text-anchor="middle" x="548" y="-231.5" font-family="Helvetica,sans-Serif" font-size="10.00">IDisplayable.hpp</text>
</a>
</g>
</g>
<!-- Node1&#45;&gt;Node10 -->
<g id="edge10" class="edge">
<title>Node1&#45;&gt;Node10</title>
<path fill="none" stroke="midnightblue" d="M368.43,-336.41C390.68,-320.32 423.64,-297.44 454,-280 474.98,-267.95 499.68,-256.22 518.5,-247.75"/>
<polygon fill="midnightblue" stroke="midnightblue" points="520.03,-250.9 527.75,-243.64 517.19,-244.5 520.03,-250.9"/>
</g>
<!-- Node12 -->
<g id="node12" class="node">
<title>Node12</title>
<g id="a_node12"><a xlink:href="$a00164.html" xlink:title=" ">
<polygon fill="white" stroke="black" points="163,-224.5 163,-243.5 231,-243.5 231,-224.5 163,-224.5"/>
<text text-anchor="middle" x="197" y="-231.5" font-family="Helvetica,sans-Serif" font-size="10.00">Image.hpp</text>
</a>
</g>
</g>
<!-- Node1&#45;&gt;Node12 -->
<g id="edge13" class="edge">
<title>Node1&#45;&gt;Node12</title>
<path fill="none" stroke="midnightblue" d="M262.16,-337.07C242.17,-328.75 222.58,-316.89 209,-300 198.56,-287.02 196.1,-267.85 195.93,-253.7"/>
<polygon fill="midnightblue" stroke="midnightblue" points="199.43,-253.71 196.17,-243.63 192.43,-253.54 199.43,-253.71"/>
</g>
<!-- Node17 -->
<g id="node17" class="node">
<title>Node17</title>
<g id="a_node17"><a xlink:href="$a00155.html" xlink:title=" ">
<polygon fill="white" stroke="black" points="217.5,-280.5 217.5,-299.5 282.5,-299.5 282.5,-280.5 217.5,-280.5"/>
<text text-anchor="middle" x="250" y="-287.5" font-family="Helvetica,sans-Serif" font-size="10.00">IFilter.hpp</text>
</a>
</g>
</g>
<!-- Node1&#45;&gt;Node17 -->
<g id="edge24" class="edge">
<title>Node1&#45;&gt;Node17</title>
<path fill="none" stroke="midnightblue" d="M314.4,-336.5C300.29,-326.53 283.42,-314.61 270.49,-305.48"/>
<polygon fill="midnightblue" stroke="midnightblue" points="272.43,-302.56 262.25,-299.65 268.39,-308.28 272.43,-302.56"/>
</g>
<!-- Node18 -->
<g id="node18" class="node">
<title>Node18</title>
<g id="a_node18"><a xlink:href="$a00242.html" xlink:title=" ">
<polygon fill="white" stroke="black" points="513.5,-280.5 513.5,-299.5 608.5,-299.5 608.5,-280.5 513.5,-280.5"/>
<text text-anchor="middle" x="561" y="-287.5" font-family="Helvetica,sans-Serif" font-size="10.00">ISceneState.hpp</text>
</a>
</g>
</g>
<!-- Node1&#45;&gt;Node18 -->
<g id="edge26" class="edge">
<title>Node1&#45;&gt;Node18</title>
<path fill="none" stroke="midnightblue" d="M407.71,-336.5C445.11,-325.4 490.68,-311.87 522.36,-302.47"/>
<polygon fill="midnightblue" stroke="midnightblue" points="523.54,-305.77 532.14,-299.57 521.55,-299.06 523.54,-305.77"/>
</g>
<!-- Node19 -->
<g id="node19" class="node">
<title>Node19</title>
<g id="a_node19"><a xlink:href="$a00110.html" xlink:title=" ">
<polygon fill="white" stroke="black" points="339,-280.5 339,-299.5 407,-299.5 407,-280.5 339,-280.5"/>
<text text-anchor="middle" x="373" y="-287.5" font-family="Helvetica,sans-Serif" font-size="10.00">IEntity.hpp</text>
</a>
</g>
</g>
<!-- Node1&#45;&gt;Node19 -->
<g id="edge27" class="edge">
<title>Node1&#45;&gt;Node19</title>
<path fill="none" stroke="midnightblue" d="M351.3,-336.5C355.51,-327.68 360.44,-317.34 364.54,-308.74"/>
<polygon fill="midnightblue" stroke="midnightblue" points="367.73,-310.19 368.87,-299.65 361.41,-307.17 367.73,-310.19"/>
</g>
<!-- Node5 -->
<g id="node5" class="node">
<title>Node5</title>
<g id="a_node5"><a xlink:title=" ">
<polygon fill="white" stroke="#bfbfbf" points="411.5,-112.5 411.5,-131.5 468.5,-131.5 468.5,-112.5 411.5,-112.5"/>
<text text-anchor="middle" x="440" y="-119.5" font-family="Helvetica,sans-Serif" font-size="10.00">ostream</text>
</a>
</g>
</g>
<!-- Node4&#45;&gt;Node5 -->
<g id="edge4" class="edge">
<title>Node4&#45;&gt;Node5</title>
<path fill="none" stroke="midnightblue" d="M331.44,-168.44C352.67,-159.56 386.1,-145.56 410.25,-135.45"/>
<polygon fill="midnightblue" stroke="midnightblue" points="411.78,-138.61 419.66,-131.52 409.08,-132.15 411.78,-138.61"/>
</g>
<!-- Node6 -->
<g id="node6" class="node">
<title>Node6</title>
<g id="a_node6"><a xlink:href="$a00236.html" xlink:title=" ">
<polygon fill="white" stroke="black" points="322.5,-112.5 322.5,-131.5 393.5,-131.5 393.5,-112.5 322.5,-112.5"/>
<text text-anchor="middle" x="358" y="-119.5" font-family="Helvetica,sans-Serif" font-size="10.00">IConfig.hpp</text>
</a>
</g>
</g>
<!-- Node4&#45;&gt;Node6 -->
<g id="edge5" class="edge">
<title>Node4&#45;&gt;Node6</title>
<path fill="none" stroke="midnightblue" d="M318.76,-168.08C325.54,-160.3 335.54,-148.8 343.76,-139.37"/>
<polygon fill="midnightblue" stroke="midnightblue" points="346.46,-141.59 350.38,-131.75 341.18,-137 346.46,-141.59"/>
</g>
<!-- Node7 -->
<g id="node7" class="node">
<title>Node7</title>
<g id="a_node7"><a xlink:title=" ">
<polygon fill="white" stroke="#bfbfbf" points="407,-0.5 407,-19.5 465,-19.5 465,-0.5 407,-0.5"/>
<text text-anchor="middle" x="436" y="-7.5" font-family="Helvetica,sans-Serif" font-size="10.00">memory</text>
</a>
</g>
</g>
<!-- Node6&#45;&gt;Node7 -->
<g id="edge6" class="edge">
<title>Node6&#45;&gt;Node7</title>
<path fill="none" stroke="midnightblue" d="M369.18,-112.3C379.48,-103.87 394.67,-90.28 405,-76 415.52,-61.45 423.99,-42.77 429.4,-29.17"/>
<polygon fill="midnightblue" stroke="midnightblue" points="432.79,-30.12 433.07,-19.53 426.24,-27.64 432.79,-30.12"/>
</g>
<!-- Node8 -->
<g id="node8" class="node">
<title>Node8</title>
<g id="a_node8"><a xlink:href="$a00245.html" xlink:title=" ">
<polygon fill="white" stroke="black" points="320.5,-56.5 320.5,-75.5 395.5,-75.5 395.5,-56.5 320.5,-56.5"/>
<text text-anchor="middle" x="358" y="-63.5" font-family="Helvetica,sans-Serif" font-size="10.00">ISetting.hpp</text>
</a>
</g>
</g>
<!-- Node6&#45;&gt;Node8 -->
<g id="edge7" class="edge">
<title>Node6&#45;&gt;Node8</title>
<path fill="none" stroke="midnightblue" d="M358,-112.08C358,-105.01 358,-94.86 358,-85.99"/>
<polygon fill="midnightblue" stroke="midnightblue" points="361.5,-85.75 358,-75.75 354.5,-85.75 361.5,-85.75"/>
</g>
<!-- Node8&#45;&gt;Node7 -->
<g id="edge8" class="edge">
<title>Node8&#45;&gt;Node7</title>
<path fill="none" stroke="midnightblue" d="M370.53,-56.32C382.59,-47.98 401.03,-35.21 415.27,-25.35"/>
<polygon fill="midnightblue" stroke="midnightblue" points="417.27,-28.22 423.5,-19.65 413.28,-22.47 417.27,-28.22"/>
</g>
<!-- Node9 -->
<g id="node9" class="node">
<title>Node9</title>
<g id="a_node9"><a xlink:title=" ">
<polygon fill="white" stroke="#bfbfbf" points="305.5,-0.5 305.5,-19.5 388.5,-19.5 388.5,-0.5 305.5,-0.5"/>
<text text-anchor="middle" x="347" y="-7.5" font-family="Helvetica,sans-Serif" font-size="10.00">libconfig.h++</text>
</a>
</g>
</g>
<!-- Node8&#45;&gt;Node9 -->
<g id="edge9" class="edge">
<title>Node8&#45;&gt;Node9</title>
<path fill="none" stroke="midnightblue" d="M356.18,-56.08C354.73,-48.93 352.63,-38.64 350.81,-29.69"/>
<polygon fill="midnightblue" stroke="midnightblue" points="354.21,-28.85 348.78,-19.75 347.35,-30.25 354.21,-28.85"/>
</g>
<!-- Node10&#45;&gt;Node7 -->
<g id="edge11" class="edge">
<title>Node10&#45;&gt;Node7</title>
<path fill="none" stroke="midnightblue" d="M549.09,-224.31C550.36,-211.57 551.52,-187.26 545,-168 525.23,-109.61 476.75,-53.28 451.64,-26.78"/>
<polygon fill="midnightblue" stroke="midnightblue" points="454.12,-24.31 444.66,-19.54 449.08,-29.17 454.12,-24.31"/>
</g>
<!-- Node11 -->
<g id="node11" class="node">
<title>Node11</title>
<g id="a_node11"><a xlink:title=" ">
<polygon fill="white" stroke="#bfbfbf" points="393.5,-168.5 393.5,-187.5 440.5,-187.5 440.5,-168.5 393.5,-168.5"/>
<text text-anchor="middle" x="417" y="-175.5" font-family="Helvetica,sans-Serif" font-size="10.00">vector</text>
</a>
</g>
</g>
<!-- Node10&#45;&gt;Node11 -->
<g id="edge12" class="edge">
<title>Node10&#45;&gt;Node11</title>
<path fill="none" stroke="midnightblue" d="M527.24,-224.44C505.68,-215.56 471.74,-201.56 447.21,-191.45"/>
<polygon fill="midnightblue" stroke="midnightblue" points="448.24,-188.09 437.66,-187.52 445.57,-194.56 448.24,-188.09"/>
</g>
<!-- Node12&#45;&gt;Node2 -->
<g id="edge14" class="edge">
<title>Node12&#45;&gt;Node2</title>
<path fill="none" stroke="midnightblue" d="M178.94,-224.44C160.43,-215.68 131.42,-201.94 110.14,-191.86"/>
<polygon fill="midnightblue" stroke="midnightblue" points="111.51,-188.63 100.98,-187.52 108.52,-194.96 111.51,-188.63"/>
</g>
<!-- Node12&#45;&gt;Node4 -->
<g id="edge23" class="edge">
<title>Node12&#45;&gt;Node4</title>
<path fill="none" stroke="midnightblue" d="M215.06,-224.44C233.57,-215.68 262.58,-201.94 283.86,-191.86"/>
<polygon fill="midnightblue" stroke="midnightblue" points="285.48,-194.96 293.02,-187.52 282.49,-188.63 285.48,-194.96"/>
</g>
<!-- Node12&#45;&gt;Node11 -->
<g id="edge16" class="edge">
<title>Node12&#45;&gt;Node11</title>
<path fill="none" stroke="midnightblue" d="M231.06,-225.27C266.81,-217.06 324.87,-203.47 383.47,-188.33"/>
<polygon fill="midnightblue" stroke="midnightblue" points="384.46,-191.69 393.26,-185.79 382.7,-184.91 384.46,-191.69"/>
</g>
<!-- Node13 -->
<g id="node13" class="node">
<title>Node13</title>
<g id="a_node13"><a xlink:title=" ">
<polygon fill="white" stroke="#bfbfbf" points="0,-112.5 0,-131.5 44,-131.5 44,-112.5 0,-112.5"/>
<text text-anchor="middle" x="22" y="-119.5" font-family="Helvetica,sans-Serif" font-size="10.00">string</text>
</a>
</g>
</g>
<!-- Node12&#45;&gt;Node13 -->
<g id="edge15" class="edge">
<title>Node12&#45;&gt;Node13</title>
<path fill="none" stroke="midnightblue" d="M187.86,-224.17C173.73,-210.83 145.33,-185.26 118,-168 97.5,-155.05 72.67,-143.51 53.41,-135.36"/>
<polygon fill="midnightblue" stroke="midnightblue" points="54.74,-132.12 44.16,-131.53 52.06,-138.59 54.74,-132.12"/>
</g>
<!-- Node14 -->
<g id="node14" class="node">
<title>Node14</title>
<g id="a_node14"><a xlink:href="$a00161.html" xlink:title=" ">
<polygon fill="white" stroke="black" points="166,-168.5 166,-187.5 228,-187.5 228,-168.5 166,-168.5"/>
<text text-anchor="middle" x="197" y="-175.5" font-family="Helvetica,sans-Serif" font-size="10.00">Color.hpp</text>
</a>
</g>
</g>
<!-- Node12&#45;&gt;Node14 -->
<g id="edge17" class="edge">
<title>Node12&#45;&gt;Node14</title>
<path fill="none" stroke="midnightblue" d="M197,-224.08C197,-217.01 197,-206.86 197,-197.99"/>
<polygon fill="midnightblue" stroke="midnightblue" points="200.5,-197.75 197,-187.75 193.5,-197.75 200.5,-197.75"/>
</g>
<!-- Node14&#45;&gt;Node5 -->
<g id="edge19" class="edge">
<title>Node14&#45;&gt;Node5</title>
<path fill="none" stroke="midnightblue" d="M228.34,-170.12C231.6,-169.4 234.87,-168.69 238,-168 308.17,-152.64 328.17,-149.16 401.17,-132.39"/>
<polygon fill="midnightblue" stroke="midnightblue" points="402.37,-135.7 411.33,-130.04 400.8,-128.88 402.37,-135.7"/>
</g>
<!-- Node14&#45;&gt;Node8 -->
<g id="edge22" class="edge">
<title>Node14&#45;&gt;Node8</title>
<path fill="none" stroke="midnightblue" d="M201.69,-168.23C209.44,-154.5 226.15,-127.86 247,-112 267.02,-96.77 292.91,-85.89 314.65,-78.64"/>
<polygon fill="midnightblue" stroke="midnightblue" points="315.84,-81.94 324.31,-75.57 313.71,-75.27 315.84,-81.94"/>
</g>
<!-- Node14&#45;&gt;Node13 -->
<g id="edge21" class="edge">
<title>Node14&#45;&gt;Node13</title>
<path fill="none" stroke="midnightblue" d="M169.27,-168.44C137.83,-158.74 86.66,-142.95 53.67,-132.77"/>
<polygon fill="midnightblue" stroke="midnightblue" points="54.65,-129.41 44.06,-129.81 52.58,-136.1 54.65,-129.41"/>
</g>
<!-- Node15 -->
<g id="node15" class="node">
<title>Node15</title>
<g id="a_node15"><a xlink:title=" ">
<polygon fill="white" stroke="#bfbfbf" points="256,-112.5 256,-131.5 304,-131.5 304,-112.5 256,-112.5"/>
<text text-anchor="middle" x="280" y="-119.5" font-family="Helvetica,sans-Serif" font-size="10.00">mutex</text>
</a>
</g>
</g>
<!-- Node14&#45;&gt;Node15 -->
<g id="edge18" class="edge">
<title>Node14&#45;&gt;Node15</title>
<path fill="none" stroke="midnightblue" d="M210.34,-168.32C223.16,-159.98 242.78,-147.21 257.94,-137.35"/>
<polygon fill="midnightblue" stroke="midnightblue" points="260.22,-140.04 266.7,-131.65 256.41,-134.17 260.22,-140.04"/>
</g>
<!-- Node16 -->
<g id="node16" class="node">
<title>Node16</title>
<g id="a_node16"><a xlink:title=" ">
<polygon fill="white" stroke="#bfbfbf" points="62.5,-112.5 62.5,-131.5 199.5,-131.5 199.5,-112.5 62.5,-112.5"/>
<text text-anchor="middle" x="131" y="-119.5" font-family="Helvetica,sans-Serif" font-size="10.00">SFML/Graphics/Color.hpp</text>
</a>
</g>
</g>
<!-- Node14&#45;&gt;Node16 -->
<g id="edge20" class="edge">
<title>Node14&#45;&gt;Node16</title>
<path fill="none" stroke="midnightblue" d="M186.4,-168.32C176.54,-160.26 161.65,-148.08 149.78,-138.37"/>
<polygon fill="midnightblue" stroke="midnightblue" points="151.75,-135.46 141.8,-131.83 147.32,-140.88 151.75,-135.46"/>
</g>
<!-- Node17&#45;&gt;Node12 -->
<g id="edge25" class="edge">
<title>Node17&#45;&gt;Node12</title>
<path fill="none" stroke="midnightblue" d="M241.25,-280.08C233.53,-272.22 222.1,-260.57 212.78,-251.08"/>
<polygon fill="midnightblue" stroke="midnightblue" points="215.09,-248.44 205.59,-243.75 210.1,-253.34 215.09,-248.44"/>
</g>
<!-- Node20 -->
<g id="node20" class="node">
<title>Node20</title>
<g id="a_node20"><a xlink:href="$a00122.html" xlink:title=" ">
<polygon fill="white" stroke="black" points="339.5,-224.5 339.5,-243.5 480.5,-243.5 480.5,-224.5 339.5,-224.5"/>
<text text-anchor="middle" x="410" y="-231.5" font-family="Helvetica,sans-Serif" font-size="10.00">Transform/ITransform.hpp</text>
</a>
</g>
</g>
<!-- Node19&#45;&gt;Node20 -->
<g id="edge28" class="edge">
<title>Node19&#45;&gt;Node20</title>
<path fill="none" stroke="midnightblue" d="M379.11,-280.08C384.28,-272.53 391.85,-261.49 398.19,-252.23"/>
<polygon fill="midnightblue" stroke="midnightblue" points="401.24,-253.98 404,-243.75 395.46,-250.02 401.24,-253.98"/>
</g>
<!-- Node21 -->
<g id="node21" class="node">
<title>Node21</title>
<g id="a_node21"><a xlink:href="$a00131.html" xlink:title=" ">
<polygon fill="white" stroke="black" points="458.5,-168.5 458.5,-187.5 535.5,-187.5 535.5,-168.5 458.5,-168.5"/>
<text text-anchor="middle" x="497" y="-175.5" font-family="Helvetica,sans-Serif" font-size="10.00">Vector3f.hpp</text>
</a>
</g>
</g>
<!-- Node20&#45;&gt;Node21 -->
<g id="edge29" class="edge">
<title>Node20&#45;&gt;Node21</title>
<path fill="none" stroke="midnightblue" d="M423.98,-224.32C437.55,-215.9 458.38,-202.97 474.32,-193.07"/>
<polygon fill="midnightblue" stroke="midnightblue" points="476.41,-195.9 483.06,-187.65 472.71,-189.95 476.41,-195.9"/>
</g>
<!-- Node21&#45;&gt;Node5 -->
<g id="edge30" class="edge">
<title>Node21&#45;&gt;Node5</title>
<path fill="none" stroke="midnightblue" d="M487.84,-168.32C479.5,-160.42 466.97,-148.55 456.82,-138.94"/>
<polygon fill="midnightblue" stroke="midnightblue" points="458.99,-136.17 449.32,-131.83 454.18,-141.25 458.99,-136.17"/>
</g>
<!-- Node21&#45;&gt;Node8 -->
<g id="edge31" class="edge">
<title>Node21&#45;&gt;Node8</title>
<path fill="none" stroke="midnightblue" d="M496.83,-168.23C496.09,-154.5 492.72,-127.85 478,-112 459.17,-91.72 430.32,-80.52 405.62,-74.37"/>
<polygon fill="midnightblue" stroke="midnightblue" points="406.22,-70.92 395.69,-72.11 404.66,-77.74 406.22,-70.92"/>
</g>
</g>
</svg>
