<?xml version="1.0" encoding="UTF-8" standalone="no"?>
<!DOCTYPE svg PUBLIC "-//W3C//DTD SVG 1.1//EN"
 "http://www.w3.org/Graphics/SVG/1.1/DTD/svg11.dtd">
<!-- Generated by graphviz version 2.43.0 (0)
 -->
<!-- Title: /home/runner/work/Raytracer/Raytracer/src/Entities/IMaterial.hpp Pages: 1 -->
<svg width="546pt" height="274pt"
 viewBox="0.00 0.00 546.00 274.00" xmlns="http://www.w3.org/2000/svg" xmlns:xlink="http://www.w3.org/1999/xlink">
<g id="graph0" class="graph" transform="scale(1 1) rotate(0) translate(4 270)">
<title>/home/runner/work/Raytracer/Raytracer/src/Entities/IMaterial.hpp</title>
<polygon fill="white" stroke="transparent" points="-4,4 -4,-270 542,-270 542,4 -4,4"/>
<!-- Node1 -->
<g id="node1" class="node">
<title>Node1</title>
<g id="a_node1"><a xlink:title=" ">
<polygon fill="#bfbfbf" stroke="black" points="100,-224.5 100,-265.5 259,-265.5 259,-224.5 100,-224.5"/>
<text text-anchor="start" x="108" y="-253.5" font-family="Helvetica,sans-Serif" font-size="10.00">/home/runner/work/Raytracer</text>
<text text-anchor="start" x="108" y="-242.5" font-family="Helvetica,sans-Serif" font-size="10.00">/Raytracer/src/Entities</text>
<text text-anchor="middle" x="179.5" y="-231.5" font-family="Helvetica,sans-Serif" font-size="10.00">/IMaterial.hpp</text>
</a>
</g>
</g>
<!-- Node2 -->
<g id="node2" class="node">
<title>Node2</title>
<g id="a_node2"><a xlink:href="$a00176.html" xlink:title=" ">
<polygon fill="white" stroke="black" points="62,-168.5 62,-187.5 117,-187.5 117,-168.5 62,-168.5"/>
<text text-anchor="middle" x="89.5" y="-175.5" font-family="Helvetica,sans-Serif" font-size="10.00">Ray.hpp</text>
</a>
</g>
</g>
<!-- Node1&#45;&gt;Node2 -->
<g id="edge1" class="edge">
<title>Node1&#45;&gt;Node2</title>
<path fill="none" stroke="midnightblue" d="M152.5,-224.5C138.83,-214.63 122.51,-202.84 109.91,-193.74"/>
<polygon fill="midnightblue" stroke="midnightblue" points="111.64,-190.67 101.48,-187.65 107.54,-196.34 111.64,-190.67"/>
</g>
<!-- Node3 -->
<g id="node3" class="node">
<title>Node3</title>
<g id="a_node3"><a xlink:href="$a00131.html" xlink:title=" ">
<polygon fill="white" stroke="black" points="51,-112.5 51,-131.5 128,-131.5 128,-112.5 51,-112.5"/>
<text text-anchor="middle" x="89.5" y="-119.5" font-family="Helvetica,sans-Serif" font-size="10.00">Vector3f.hpp</text>
</a>
</g>
</g>
<!-- Node1&#45;&gt;Node3 -->
<g id="edge18" class="edge">
<title>Node1&#45;&gt;Node3</title>
<path fill="none" stroke="midnightblue" d="M99.85,-225.24C81.24,-216.96 63.62,-205.06 52.5,-188 41.73,-171.48 56.76,-151.68 70.77,-138.31"/>
<polygon fill="midnightblue" stroke="midnightblue" points="73.15,-140.88 78.28,-131.61 68.49,-135.66 73.15,-140.88"/>
</g>
<!-- Node8 -->
<g id="node8" class="node">
<title>Node8</title>
<g id="a_node8"><a xlink:href="$a00161.html" xlink:title=" ">
<polygon fill="white" stroke="black" points="183.5,-112.5 183.5,-131.5 245.5,-131.5 245.5,-112.5 183.5,-112.5"/>
<text text-anchor="middle" x="214.5" y="-119.5" font-family="Helvetica,sans-Serif" font-size="10.00">Color.hpp</text>
</a>
</g>
</g>
<!-- Node1&#45;&gt;Node8 -->
<g id="edge7" class="edge">
<title>Node1&#45;&gt;Node8</title>
<path fill="none" stroke="midnightblue" d="M205.4,-224.26C215.92,-214.61 226.9,-202.05 232.5,-188 238.71,-172.4 232.31,-153.87 225.48,-140.6"/>
<polygon fill="midnightblue" stroke="midnightblue" points="228.36,-138.58 220.38,-131.61 222.27,-142.03 228.36,-138.58"/>
</g>
<!-- Node12 -->
<g id="node12" class="node">
<title>Node12</title>
<g id="a_node12"><a xlink:href="$a00239.html" xlink:title=" ">
<polygon fill="white" stroke="black" points="413.5,-168.5 413.5,-187.5 511.5,-187.5 511.5,-168.5 413.5,-168.5"/>
<text text-anchor="middle" x="462.5" y="-175.5" font-family="Helvetica,sans-Serif" font-size="10.00">IDisplayable.hpp</text>
</a>
</g>
</g>
<!-- Node1&#45;&gt;Node12 -->
<g id="edge13" class="edge">
<title>Node1&#45;&gt;Node12</title>
<path fill="none" stroke="midnightblue" d="M259.08,-225.72C309.48,-214.14 372.94,-199.57 415.45,-189.81"/>
<polygon fill="midnightblue" stroke="midnightblue" points="416.3,-193.2 425.26,-187.55 414.73,-186.38 416.3,-193.2"/>
</g>
<!-- Node14 -->
<g id="node14" class="node">
<title>Node14</title>
<g id="a_node14"><a xlink:href="$a00122.html" xlink:title=" ">
<polygon fill="white" stroke="black" points="135,-168.5 135,-187.5 224,-187.5 224,-168.5 135,-168.5"/>
<text text-anchor="middle" x="179.5" y="-175.5" font-family="Helvetica,sans-Serif" font-size="10.00">ITransform.hpp</text>
</a>
</g>
</g>
<!-- Node1&#45;&gt;Node14 -->
<g id="edge16" class="edge">
<title>Node1&#45;&gt;Node14</title>
<path fill="none" stroke="midnightblue" d="M179.5,-224.5C179.5,-216.07 179.5,-206.24 179.5,-197.87"/>
<polygon fill="midnightblue" stroke="midnightblue" points="183,-197.65 179.5,-187.65 176,-197.65 183,-197.65"/>
</g>
<!-- Node2&#45;&gt;Node3 -->
<g id="edge2" class="edge">
<title>Node2&#45;&gt;Node3</title>
<path fill="none" stroke="midnightblue" d="M89.5,-168.08C89.5,-161.01 89.5,-150.86 89.5,-141.99"/>
<polygon fill="midnightblue" stroke="midnightblue" points="93,-141.75 89.5,-131.75 86,-141.75 93,-141.75"/>
</g>
<!-- Node4 -->
<g id="node4" class="node">
<title>Node4</title>
<g id="a_node4"><a xlink:title=" ">
<polygon fill="white" stroke="#bfbfbf" points="0,-56.5 0,-75.5 57,-75.5 57,-56.5 0,-56.5"/>
<text text-anchor="middle" x="28.5" y="-63.5" font-family="Helvetica,sans-Serif" font-size="10.00">ostream</text>
</a>
</g>
</g>
<!-- Node3&#45;&gt;Node4 -->
<g id="edge3" class="edge">
<title>Node3&#45;&gt;Node4</title>
<path fill="none" stroke="midnightblue" d="M79.7,-112.32C70.68,-104.34 57.09,-92.31 46.18,-82.65"/>
<polygon fill="midnightblue" stroke="midnightblue" points="48.29,-79.84 38.48,-75.83 43.65,-85.08 48.29,-79.84"/>
</g>
<!-- Node5 -->
<g id="node5" class="node">
<title>Node5</title>
<g id="a_node5"><a xlink:href="$a00245.html" xlink:title=" ">
<polygon fill="white" stroke="black" points="75,-56.5 75,-75.5 150,-75.5 150,-56.5 75,-56.5"/>
<text text-anchor="middle" x="112.5" y="-63.5" font-family="Helvetica,sans-Serif" font-size="10.00">ISetting.hpp</text>
</a>
</g>
</g>
<!-- Node3&#45;&gt;Node5 -->
<g id="edge4" class="edge">
<title>Node3&#45;&gt;Node5</title>
<path fill="none" stroke="midnightblue" d="M93.3,-112.08C96.41,-104.77 100.92,-94.18 104.79,-85.1"/>
<polygon fill="midnightblue" stroke="midnightblue" points="108.07,-86.32 108.77,-75.75 101.63,-83.58 108.07,-86.32"/>
</g>
<!-- Node6 -->
<g id="node6" class="node">
<title>Node6</title>
<g id="a_node6"><a xlink:title=" ">
<polygon fill="white" stroke="#bfbfbf" points="302.5,-0.5 302.5,-19.5 360.5,-19.5 360.5,-0.5 302.5,-0.5"/>
<text text-anchor="middle" x="331.5" y="-7.5" font-family="Helvetica,sans-Serif" font-size="10.00">memory</text>
</a>
</g>
</g>
<!-- Node5&#45;&gt;Node6 -->
<g id="edge5" class="edge">
<title>Node5&#45;&gt;Node6</title>
<path fill="none" stroke="midnightblue" d="M147.2,-56.44C186.67,-46.71 250.98,-30.85 292.25,-20.68"/>
<polygon fill="midnightblue" stroke="midnightblue" points="293.35,-24.01 302.22,-18.22 291.67,-17.22 293.35,-24.01"/>
</g>
<!-- Node7 -->
<g id="node7" class="node">
<title>Node7</title>
<g id="a_node7"><a xlink:title=" ">
<polygon fill="white" stroke="#bfbfbf" points="71,-0.5 71,-19.5 154,-19.5 154,-0.5 71,-0.5"/>
<text text-anchor="middle" x="112.5" y="-7.5" font-family="Helvetica,sans-Serif" font-size="10.00">libconfig.h++</text>
</a>
</g>
</g>
<!-- Node5&#45;&gt;Node7 -->
<g id="edge6" class="edge">
<title>Node5&#45;&gt;Node7</title>
<path fill="none" stroke="midnightblue" d="M112.5,-56.08C112.5,-49.01 112.5,-38.86 112.5,-29.99"/>
<polygon fill="midnightblue" stroke="midnightblue" points="116,-29.75 112.5,-19.75 109,-29.75 116,-29.75"/>
</g>
<!-- Node8&#45;&gt;Node4 -->
<g id="edge9" class="edge">
<title>Node8&#45;&gt;Node4</title>
<path fill="none" stroke="midnightblue" d="M185.03,-112.44C153.14,-103.19 102.17,-88.39 67.11,-78.21"/>
<polygon fill="midnightblue" stroke="midnightblue" points="67.8,-74.77 57.22,-75.34 65.85,-81.49 67.8,-74.77"/>
</g>
<!-- Node8&#45;&gt;Node5 -->
<g id="edge12" class="edge">
<title>Node8&#45;&gt;Node5</title>
<path fill="none" stroke="midnightblue" d="M198.11,-112.32C181.83,-103.7 156.63,-90.36 137.78,-80.39"/>
<polygon fill="midnightblue" stroke="midnightblue" points="139.32,-77.24 128.85,-75.65 136.05,-83.43 139.32,-77.24"/>
</g>
<!-- Node9 -->
<g id="node9" class="node">
<title>Node9</title>
<g id="a_node9"><a xlink:title=" ">
<polygon fill="white" stroke="#bfbfbf" points="168.5,-56.5 168.5,-75.5 216.5,-75.5 216.5,-56.5 168.5,-56.5"/>
<text text-anchor="middle" x="192.5" y="-63.5" font-family="Helvetica,sans-Serif" font-size="10.00">mutex</text>
</a>
</g>
</g>
<!-- Node8&#45;&gt;Node9 -->
<g id="edge8" class="edge">
<title>Node8&#45;&gt;Node9</title>
<path fill="none" stroke="midnightblue" d="M210.87,-112.08C207.89,-104.77 203.57,-94.18 199.88,-85.1"/>
<polygon fill="midnightblue" stroke="midnightblue" points="203.08,-83.69 196.07,-75.75 196.6,-86.33 203.08,-83.69"/>
</g>
<!-- Node10 -->
<g id="node10" class="node">
<title>Node10</title>
<g id="a_node10"><a xlink:title=" ">
<polygon fill="white" stroke="#bfbfbf" points="235,-56.5 235,-75.5 372,-75.5 372,-56.5 235,-56.5"/>
<text text-anchor="middle" x="303.5" y="-63.5" font-family="Helvetica,sans-Serif" font-size="10.00">SFML/Graphics/Color.hpp</text>
</a>
</g>
</g>
<!-- Node8&#45;&gt;Node10 -->
<g id="edge10" class="edge">
<title>Node8&#45;&gt;Node10</title>
<path fill="none" stroke="midnightblue" d="M228.8,-112.32C242.68,-103.9 263.99,-90.97 280.3,-81.07"/>
<polygon fill="midnightblue" stroke="midnightblue" points="282.5,-83.83 289.24,-75.65 278.87,-77.85 282.5,-83.83"/>
</g>
<!-- Node11 -->
<g id="node11" class="node">
<title>Node11</title>
<g id="a_node11"><a xlink:title=" ">
<polygon fill="white" stroke="#bfbfbf" points="390.5,-56.5 390.5,-75.5 434.5,-75.5 434.5,-56.5 390.5,-56.5"/>
<text text-anchor="middle" x="412.5" y="-63.5" font-family="Helvetica,sans-Serif" font-size="10.00">string</text>
</a>
</g>
</g>
<!-- Node8&#45;&gt;Node11 -->
<g id="edge11" class="edge">
<title>Node8&#45;&gt;Node11</title>
<path fill="none" stroke="midnightblue" d="M245.64,-112.8C277.25,-104.44 327.85,-90.93 380.62,-76.21"/>
<polygon fill="midnightblue" stroke="midnightblue" points="381.81,-79.51 390.5,-73.44 379.93,-72.77 381.81,-79.51"/>
</g>
<!-- Node12&#45;&gt;Node6 -->
<g id="edge14" class="edge">
<title>Node12&#45;&gt;Node6</title>
<path fill="none" stroke="midnightblue" d="M463.81,-168.25C466.54,-146.62 470.51,-89.94 443.5,-56 425.72,-33.66 395.15,-22.36 370.43,-16.67"/>
<polygon fill="midnightblue" stroke="midnightblue" points="371.1,-13.23 360.6,-14.62 369.68,-20.08 371.1,-13.23"/>
</g>
<!-- Node13 -->
<g id="node13" class="node">
<title>Node13</title>
<g id="a_node13"><a xlink:title=" ">
<polygon fill="white" stroke="#bfbfbf" points="491,-112.5 491,-131.5 538,-131.5 538,-112.5 491,-112.5"/>
<text text-anchor="middle" x="514.5" y="-119.5" font-family="Helvetica,sans-Serif" font-size="10.00">vector</text>
</a>
</g>
</g>
<!-- Node12&#45;&gt;Node13 -->
<g id="edge15" class="edge">
<title>Node12&#45;&gt;Node13</title>
<path fill="none" stroke="midnightblue" d="M471.09,-168.08C478.66,-160.22 489.88,-148.57 499.01,-139.08"/>
<polygon fill="midnightblue" stroke="midnightblue" points="501.66,-141.38 506.07,-131.75 496.62,-136.53 501.66,-141.38"/>
</g>
<!-- Node14&#45;&gt;Node3 -->
<g id="edge17" class="edge">
<title>Node14&#45;&gt;Node3</title>
<path fill="none" stroke="midnightblue" d="M165.04,-168.32C151,-159.9 129.45,-146.97 112.96,-137.07"/>
<polygon fill="midnightblue" stroke="midnightblue" points="114.3,-133.8 103.92,-131.65 110.7,-139.8 114.3,-133.8"/>
</g>
</g>
</svg>
