<?xml version="1.0" encoding="UTF-8" standalone="no"?>
<!DOCTYPE svg PUBLIC "-//W3C//DTD SVG 1.1//EN"
 "http://www.w3.org/Graphics/SVG/1.1/DTD/svg11.dtd">
<!-- Generated by graphviz version 2.43.0 (0)
 -->
<!-- Title: /home/runner/work/Raytracer/Raytracer/src/Images/Image.hpp Pages: 1 -->
<svg width="2393pt" height="552pt"
 viewBox="0.00 0.00 2393.15 552.00" xmlns="http://www.w3.org/2000/svg" xmlns:xlink="http://www.w3.org/1999/xlink">
<g id="graph0" class="graph" transform="scale(1 1) rotate(0) translate(4 548)">
<title>/home/runner/work/Raytracer/Raytracer/src/Images/Image.hpp</title>
<polygon fill="white" stroke="transparent" points="-4,4 -4,-548 2389.15,-548 2389.15,4 -4,4"/>
<!-- Node1 -->
<g id="node1" class="node">
<title>Node1</title>
<g id="a_node1"><a xlink:title=" ">
<polygon fill="#bfbfbf" stroke="black" points="1506.15,-513.5 1506.15,-543.5 1684.15,-543.5 1684.15,-513.5 1506.15,-513.5"/>
<text text-anchor="start" x="1514.15" y="-531.5" font-family="Helvetica,sans-Serif" font-size="10.00">/home/runner/work/Raytracer</text>
<text text-anchor="middle" x="1595.15" y="-520.5" font-family="Helvetica,sans-Serif" font-size="10.00">/Raytracer/src/Images/Image.hpp</text>
</a>
</g>
</g>
<!-- Node2 -->
<g id="node2" class="node">
<title>Node2</title>
<g id="a_node2"><a xlink:href="$a00101.html" xlink:title=" ">
<polygon fill="white" stroke="black" points="764.65,-368.5 764.65,-409.5 923.65,-409.5 923.65,-368.5 764.65,-368.5"/>
<text text-anchor="start" x="772.65" y="-397.5" font-family="Helvetica,sans-Serif" font-size="10.00">/home/runner/work/Raytracer</text>
<text text-anchor="start" x="772.65" y="-386.5" font-family="Helvetica,sans-Serif" font-size="10.00">/Raytracer/src/Entities</text>
<text text-anchor="middle" x="844.15" y="-375.5" font-family="Helvetica,sans-Serif" font-size="10.00">/ICamera.hpp</text>
</a>
</g>
</g>
<!-- Node1&#45;&gt;Node2 -->
<g id="edge1" class="edge">
<title>Node1&#45;&gt;Node2</title>
<path fill="none" stroke="midnightblue" d="M1508.77,-511.69C1361.97,-484.81 1065.89,-430.6 923.79,-404.58"/>
<polygon fill="midnightblue" stroke="midnightblue" points="1508.19,-515.14 1518.65,-513.5 1509.45,-508.25 1508.19,-515.14"/>
</g>
<!-- Node6 -->
<g id="node6" class="node">
<title>Node6</title>
<g id="a_node6"><a xlink:href="$a00242.html" xlink:title=" ">
<polygon fill="white" stroke="black" points="44.65,-296 44.65,-326 219.65,-326 219.65,-296 44.65,-296"/>
<text text-anchor="start" x="52.65" y="-314" font-family="Helvetica,sans-Serif" font-size="10.00">/home/runner/work/Raytracer</text>
<text text-anchor="middle" x="132.15" y="-303" font-family="Helvetica,sans-Serif" font-size="10.00">/Raytracer/src/Scenes/Scene.hpp</text>
</a>
</g>
</g>
<!-- Node1&#45;&gt;Node6 -->
<g id="edge42" class="edge">
<title>Node1&#45;&gt;Node6</title>
<path fill="none" stroke="midnightblue" d="M1496.16,-517.66C1405.67,-508.34 1268.2,-493.36 1149.15,-477 797.84,-428.71 380.73,-356.26 210.42,-326.03"/>
<polygon fill="midnightblue" stroke="midnightblue" points="1495.83,-521.14 1506.14,-518.68 1496.55,-514.18 1495.83,-521.14"/>
</g>
<!-- Node17 -->
<g id="node17" class="node">
<title>Node17</title>
<g id="a_node17"><a xlink:href="$a00149.html" xlink:title=" ">
<polygon fill="white" stroke="black" points="1604.15,-446.5 1604.15,-476.5 1772.15,-476.5 1772.15,-446.5 1604.15,-446.5"/>
<text text-anchor="start" x="1612.15" y="-464.5" font-family="Helvetica,sans-Serif" font-size="10.00">/home/runner/work/Raytracer</text>
<text text-anchor="middle" x="1688.15" y="-453.5" font-family="Helvetica,sans-Serif" font-size="10.00">/Raytracer/src/Filters/IFilter.hpp</text>
</a>
</g>
</g>
<!-- Node1&#45;&gt;Node17 -->
<g id="edge18" class="edge">
<title>Node1&#45;&gt;Node17</title>
<path fill="none" stroke="midnightblue" d="M1623.83,-507.45C1638.14,-497.45 1655.1,-485.6 1668.01,-476.58"/>
<polygon fill="midnightblue" stroke="midnightblue" points="1621.52,-504.8 1615.33,-513.4 1625.53,-510.54 1621.52,-504.8"/>
</g>
<!-- Node22 -->
<g id="node22" class="node">
<title>Node22</title>
<g id="a_node22"><a xlink:href="$a00161.html" xlink:title=" ">
<polygon fill="white" stroke="black" points="1249.15,-368.5 1249.15,-409.5 1427.15,-409.5 1427.15,-368.5 1249.15,-368.5"/>
<text text-anchor="start" x="1257.15" y="-397.5" font-family="Helvetica,sans-Serif" font-size="10.00">/home/runner/work/Raytracer</text>
<text text-anchor="start" x="1257.15" y="-386.5" font-family="Helvetica,sans-Serif" font-size="10.00">/Raytracer/src/Images/ImagePipe</text>
<text text-anchor="middle" x="1338.15" y="-375.5" font-family="Helvetica,sans-Serif" font-size="10.00">Line.hpp</text>
</a>
</g>
</g>
<!-- Node1&#45;&gt;Node22 -->
<g id="edge41" class="edge">
<title>Node1&#45;&gt;Node22</title>
<path fill="none" stroke="midnightblue" d="M1559.71,-508.54C1511.07,-482.52 1424.08,-435.98 1374.81,-409.62"/>
<polygon fill="midnightblue" stroke="midnightblue" points="1558.14,-511.67 1568.61,-513.3 1561.44,-505.5 1558.14,-511.67"/>
</g>
<!-- Node27 -->
<g id="node27" class="node">
<title>Node27</title>
<g id="a_node27"><a xlink:href="$a00263.html" xlink:title=" ">
<polygon fill="white" stroke="black" points="1987.15,-368.5 1987.15,-409.5 2169.15,-409.5 2169.15,-368.5 1987.15,-368.5"/>
<text text-anchor="start" x="1995.15" y="-397.5" font-family="Helvetica,sans-Serif" font-size="10.00">/home/runner/work/Raytracer</text>
<text text-anchor="start" x="1995.15" y="-386.5" font-family="Helvetica,sans-Serif" font-size="10.00">/Raytracer/PluginsExt/AntiAliasing</text>
<text text-anchor="middle" x="2078.15" y="-375.5" font-family="Helvetica,sans-Serif" font-size="10.00">/SSAAx4/SSAAx4Filter.hpp</text>
</a>
</g>
</g>
<!-- Node1&#45;&gt;Node27 -->
<g id="edge43" class="edge">
<title>Node1&#45;&gt;Node27</title>
<path fill="none" stroke="midnightblue" d="M1658.03,-510.76C1694.11,-501.07 1740.23,-488.55 1781.15,-477 1861.04,-454.46 1952.67,-427.43 2012.78,-409.55"/>
<polygon fill="midnightblue" stroke="midnightblue" points="1656.89,-507.44 1648.14,-513.41 1658.7,-514.2 1656.89,-507.44"/>
</g>
<!-- Node28 -->
<g id="node28" class="node">
<title>Node28</title>
<g id="a_node28"><a xlink:href="$a00269.html" xlink:title=" ">
<polygon fill="white" stroke="black" points="2187.15,-368.5 2187.15,-409.5 2385.15,-409.5 2385.15,-368.5 2187.15,-368.5"/>
<text text-anchor="start" x="2195.15" y="-397.5" font-family="Helvetica,sans-Serif" font-size="10.00">/home/runner/work/Raytracer</text>
<text text-anchor="start" x="2195.15" y="-386.5" font-family="Helvetica,sans-Serif" font-size="10.00">/Raytracer/PluginsExt/BlackAndWhite</text>
<text text-anchor="middle" x="2286.15" y="-375.5" font-family="Helvetica,sans-Serif" font-size="10.00">/BlackAndWhiteFilter.hpp</text>
</a>
</g>
</g>
<!-- Node1&#45;&gt;Node28 -->
<g id="edge44" class="edge">
<title>Node1&#45;&gt;Node28</title>
<path fill="none" stroke="midnightblue" d="M1675.6,-511.49C1802.95,-486.15 2050.58,-436.88 2188.11,-409.51"/>
<polygon fill="midnightblue" stroke="midnightblue" points="1674.65,-508.11 1665.53,-513.5 1676.02,-514.98 1674.65,-508.11"/>
</g>
<!-- Node3 -->
<g id="node3" class="node">
<title>Node3</title>
<g id="a_node3"><a xlink:href="$a00095.html" xlink:title=" ">
<polygon fill="white" stroke="black" points="194.15,-212.5 194.15,-253.5 362.15,-253.5 362.15,-212.5 194.15,-212.5"/>
<text text-anchor="start" x="202.15" y="-241.5" font-family="Helvetica,sans-Serif" font-size="10.00">/home/runner/work/Raytracer</text>
<text text-anchor="start" x="202.15" y="-230.5" font-family="Helvetica,sans-Serif" font-size="10.00">/Raytracer/src/Display/Modules</text>
<text text-anchor="middle" x="278.15" y="-219.5" font-family="Helvetica,sans-Serif" font-size="10.00">/CanvasModule.hpp</text>
</a>
</g>
</g>
<!-- Node2&#45;&gt;Node3 -->
<g id="edge2" class="edge">
<title>Node2&#45;&gt;Node3</title>
<path fill="none" stroke="midnightblue" d="M754.4,-382.43C596.32,-372.19 283.29,-349.79 267.15,-332 247.93,-310.83 258.47,-275.58 268.11,-253.62"/>
<polygon fill="midnightblue" stroke="midnightblue" points="754.38,-385.94 764.58,-383.09 754.83,-378.95 754.38,-385.94"/>
</g>
<!-- Node4 -->
<g id="node4" class="node">
<title>Node4</title>
<g id="a_node4"><a xlink:href="$a00098.html" xlink:title=" ">
<polygon fill="white" stroke="black" points="380.15,-212.5 380.15,-253.5 548.15,-253.5 548.15,-212.5 380.15,-212.5"/>
<text text-anchor="start" x="388.15" y="-241.5" font-family="Helvetica,sans-Serif" font-size="10.00">/home/runner/work/Raytracer</text>
<text text-anchor="start" x="388.15" y="-230.5" font-family="Helvetica,sans-Serif" font-size="10.00">/Raytracer/src/Display/Modules</text>
<text text-anchor="middle" x="464.15" y="-219.5" font-family="Helvetica,sans-Serif" font-size="10.00">/ProgressModule.hpp</text>
</a>
</g>
</g>
<!-- Node2&#45;&gt;Node4 -->
<g id="edge3" class="edge">
<title>Node2&#45;&gt;Node4</title>
<path fill="none" stroke="midnightblue" d="M754.45,-381.92C669.82,-374.59 550.5,-359.66 513.15,-332 487.31,-312.87 474.23,-276.29 468.33,-253.63"/>
<polygon fill="midnightblue" stroke="midnightblue" points="754.34,-385.42 764.59,-382.78 754.92,-378.45 754.34,-385.42"/>
</g>
<!-- Node5 -->
<g id="node5" class="node">
<title>Node5</title>
<g id="a_node5"><a xlink:href="$a00173.html" xlink:title=" ">
<polygon fill="white" stroke="black" points="741.65,-296 741.65,-326 946.65,-326 946.65,-296 741.65,-296"/>
<text text-anchor="start" x="749.65" y="-314" font-family="Helvetica,sans-Serif" font-size="10.00">/home/runner/work/Raytracer</text>
<text text-anchor="middle" x="844.15" y="-303" font-family="Helvetica,sans-Serif" font-size="10.00">/Raytracer/src/Images/RayIterrator.hpp</text>
</a>
</g>
</g>
<!-- Node2&#45;&gt;Node5 -->
<g id="edge4" class="edge">
<title>Node2&#45;&gt;Node5</title>
<path fill="none" stroke="midnightblue" d="M844.15,-358.28C844.15,-347.25 844.15,-335.25 844.15,-326.23"/>
<polygon fill="midnightblue" stroke="midnightblue" points="840.65,-358.43 844.15,-368.43 847.65,-358.43 840.65,-358.43"/>
</g>
<!-- Node2&#45;&gt;Node6 -->
<g id="edge5" class="edge">
<title>Node2&#45;&gt;Node6</title>
<path fill="none" stroke="midnightblue" d="M754.22,-382.63C634.93,-374.84 418.01,-358.39 234.15,-332 222.54,-330.33 210.24,-328.22 198.37,-326"/>
<polygon fill="midnightblue" stroke="midnightblue" points="754.19,-386.13 764.39,-383.28 754.64,-379.15 754.19,-386.13"/>
</g>
<!-- Node9 -->
<g id="node9" class="node">
<title>Node9</title>
<g id="a_node9"><a xlink:href="$a00275.html" xlink:title=" ">
<polygon fill="white" stroke="black" points="965.15,-290.5 965.15,-331.5 1127.15,-331.5 1127.15,-290.5 965.15,-290.5"/>
<text text-anchor="start" x="973.15" y="-319.5" font-family="Helvetica,sans-Serif" font-size="10.00">/home/runner/work/Raytracer</text>
<text text-anchor="start" x="973.15" y="-308.5" font-family="Helvetica,sans-Serif" font-size="10.00">/Raytracer/PluginsExt/Camera</text>
<text text-anchor="middle" x="1046.15" y="-297.5" font-family="Helvetica,sans-Serif" font-size="10.00">/Basic/CameraEntity.hpp</text>
</a>
</g>
</g>
<!-- Node2&#45;&gt;Node9 -->
<g id="edge10" class="edge">
<title>Node2&#45;&gt;Node9</title>
<path fill="none" stroke="midnightblue" d="M905.58,-364.89C933.93,-354.22 967.23,-341.69 994.3,-331.51"/>
<polygon fill="midnightblue" stroke="midnightblue" points="904.29,-361.63 896.17,-368.43 906.76,-368.18 904.29,-361.63"/>
</g>
<!-- Node11 -->
<g id="node11" class="node">
<title>Node11</title>
<g id="a_node11"><a xlink:href="$a00281.html" xlink:title=" ">
<polygon fill="white" stroke="black" points="1145.15,-290.5 1145.15,-331.5 1323.15,-331.5 1323.15,-290.5 1145.15,-290.5"/>
<text text-anchor="start" x="1153.15" y="-319.5" font-family="Helvetica,sans-Serif" font-size="10.00">/home/runner/work/Raytracer</text>
<text text-anchor="start" x="1153.15" y="-308.5" font-family="Helvetica,sans-Serif" font-size="10.00">/Raytracer/PluginsExt/Camera</text>
<text text-anchor="middle" x="1234.15" y="-297.5" font-family="Helvetica,sans-Serif" font-size="10.00">/Cluster/CameraClusterEntity.hpp</text>
</a>
</g>
</g>
<!-- Node2&#45;&gt;Node11 -->
<g id="edge12" class="edge">
<title>Node2&#45;&gt;Node11</title>
<path fill="none" stroke="midnightblue" d="M933.66,-371.12C991.47,-360.14 1068.29,-345.43 1136.15,-332 1139.04,-331.43 1141.99,-330.84 1144.96,-330.25"/>
<polygon fill="midnightblue" stroke="midnightblue" points="933,-367.68 923.82,-372.98 934.3,-374.56 933,-367.68"/>
</g>
<!-- Node13 -->
<g id="node13" class="node">
<title>Node13</title>
<g id="a_node13"><a xlink:href="$a00284.html" xlink:title=" ">
<polygon fill="white" stroke="black" points="1340.65,-290.5 1340.65,-331.5 1507.65,-331.5 1507.65,-290.5 1340.65,-290.5"/>
<text text-anchor="start" x="1348.65" y="-319.5" font-family="Helvetica,sans-Serif" font-size="10.00">/home/runner/work/Raytracer</text>
<text text-anchor="start" x="1348.65" y="-308.5" font-family="Helvetica,sans-Serif" font-size="10.00">/Raytracer/PluginsExt/Camera</text>
<text text-anchor="middle" x="1424.15" y="-297.5" font-family="Helvetica,sans-Serif" font-size="10.00">/Cluster/ClusterRayIterator.hpp</text>
</a>
</g>
</g>
<!-- Node2&#45;&gt;Node13 -->
<g id="edge14" class="edge">
<title>Node2&#45;&gt;Node13</title>
<path fill="none" stroke="midnightblue" d="M934.12,-380.39C1032.33,-371.45 1194.01,-354.88 1332.15,-332 1334.89,-331.55 1337.67,-331.06 1340.48,-330.56"/>
<polygon fill="midnightblue" stroke="midnightblue" points="933.58,-376.92 923.94,-381.31 934.21,-383.89 933.58,-376.92"/>
</g>
<!-- Node14 -->
<g id="node14" class="node">
<title>Node14</title>
<g id="a_node14"><a xlink:href="$a00290.html" xlink:title=" ">
<polygon fill="white" stroke="black" points="522.65,-290.5 522.65,-331.5 723.65,-331.5 723.65,-290.5 522.65,-290.5"/>
<text text-anchor="start" x="530.65" y="-319.5" font-family="Helvetica,sans-Serif" font-size="10.00">/home/runner/work/Raytracer</text>
<text text-anchor="start" x="530.65" y="-308.5" font-family="Helvetica,sans-Serif" font-size="10.00">/Raytracer/PluginsExt/Camera</text>
<text text-anchor="middle" x="623.15" y="-297.5" font-family="Helvetica,sans-Serif" font-size="10.00">/FullCustom/CameraCustomEntity.hpp</text>
</a>
</g>
</g>
<!-- Node2&#45;&gt;Node14 -->
<g id="edge15" class="edge">
<title>Node2&#45;&gt;Node14</title>
<path fill="none" stroke="midnightblue" d="M777.74,-365.17C746.55,-354.44 709.74,-341.78 679.87,-331.51"/>
<polygon fill="midnightblue" stroke="midnightblue" points="776.64,-368.49 787.23,-368.43 778.91,-361.87 776.64,-368.49"/>
</g>
<!-- Node16 -->
<g id="node16" class="node">
<title>Node16</title>
<g id="a_node16"><a xlink:href="$a00293.html" xlink:title=" ">
<polygon fill="white" stroke="black" points="276.15,-290.5 276.15,-331.5 466.15,-331.5 466.15,-290.5 276.15,-290.5"/>
<text text-anchor="start" x="284.15" y="-319.5" font-family="Helvetica,sans-Serif" font-size="10.00">/home/runner/work/Raytracer</text>
<text text-anchor="start" x="284.15" y="-308.5" font-family="Helvetica,sans-Serif" font-size="10.00">/Raytracer/PluginsExt/Camera</text>
<text text-anchor="middle" x="371.15" y="-297.5" font-family="Helvetica,sans-Serif" font-size="10.00">/FullCustom/CustomRayIterator.hpp</text>
</a>
</g>
</g>
<!-- Node2&#45;&gt;Node16 -->
<g id="edge17" class="edge">
<title>Node2&#45;&gt;Node16</title>
<path fill="none" stroke="midnightblue" d="M754.33,-374.92C680.59,-364 573.48,-347.74 480.15,-332 475.59,-331.23 470.94,-330.43 466.23,-329.61"/>
<polygon fill="midnightblue" stroke="midnightblue" points="754.11,-378.42 764.51,-376.42 755.13,-371.5 754.11,-378.42"/>
</g>
<!-- Node6&#45;&gt;Node3 -->
<g id="edge7" class="edge">
<title>Node6&#45;&gt;Node3</title>
<path fill="none" stroke="midnightblue" d="M168.27,-291.2C190.22,-279.77 218.21,-265.2 240.44,-253.63"/>
<polygon fill="midnightblue" stroke="midnightblue" points="166.52,-288.16 159.27,-295.88 169.75,-294.37 166.52,-288.16"/>
</g>
<!-- Node6&#45;&gt;Node4 -->
<g id="edge8" class="edge">
<title>Node6&#45;&gt;Node4</title>
<path fill="none" stroke="midnightblue" d="M203.21,-293.73C255.03,-281.87 325.46,-265.75 380.08,-253.24"/>
<polygon fill="midnightblue" stroke="midnightblue" points="202.39,-290.33 193.43,-295.97 203.96,-297.15 202.39,-290.33"/>
</g>
<!-- Node7 -->
<g id="node7" class="node">
<title>Node7</title>
<g id="a_node7"><a xlink:href="$a00089.html" xlink:title=" ">
<polygon fill="white" stroke="black" points="655.65,-0.5 655.65,-30.5 838.65,-30.5 838.65,-0.5 655.65,-0.5"/>
<text text-anchor="start" x="663.65" y="-18.5" font-family="Helvetica,sans-Serif" font-size="10.00">/home/runner/work/Raytracer</text>
<text text-anchor="middle" x="747.15" y="-7.5" font-family="Helvetica,sans-Serif" font-size="10.00">/Raytracer/src/Display/Display.hpp</text>
</a>
</g>
</g>
<!-- Node6&#45;&gt;Node7 -->
<g id="edge6" class="edge">
<title>Node6&#45;&gt;Node7</title>
<path fill="none" stroke="midnightblue" d="M57.21,-292.13C37.99,-283.8 19.54,-271.65 8.15,-254 -1.98,-238.32 -3.24,-226.79 8.15,-212 87.18,-109.34 475.54,-49.55 655.4,-26.96"/>
<polygon fill="midnightblue" stroke="midnightblue" points="56.1,-295.46 66.68,-295.92 58.7,-288.96 56.1,-295.46"/>
</g>
<!-- Node8 -->
<g id="node8" class="node">
<title>Node8</title>
<g id="a_node8"><a xlink:href="$a00179.html" xlink:title=" ">
<polygon fill="white" stroke="black" points="17.65,-218 17.65,-248 176.65,-248 176.65,-218 17.65,-218"/>
<text text-anchor="start" x="25.65" y="-236" font-family="Helvetica,sans-Serif" font-size="10.00">/home/runner/work/Raytracer</text>
<text text-anchor="middle" x="97.15" y="-225" font-family="Helvetica,sans-Serif" font-size="10.00">/Raytracer/src/Main.hpp</text>
</a>
</g>
</g>
<!-- Node6&#45;&gt;Node8 -->
<g id="edge9" class="edge">
<title>Node6&#45;&gt;Node8</title>
<path fill="none" stroke="midnightblue" d="M121.25,-286.33C115.5,-273.85 108.63,-258.94 103.7,-248.23"/>
<polygon fill="midnightblue" stroke="midnightblue" points="118.2,-288.09 125.56,-295.7 124.56,-285.16 118.2,-288.09"/>
</g>
<!-- Node10 -->
<g id="node10" class="node">
<title>Node10</title>
<g id="a_node10"><a xlink:href="$a00272.html" xlink:title=" ">
<polygon fill="white" stroke="black" points="963.15,-212.5 963.15,-253.5 1125.15,-253.5 1125.15,-212.5 963.15,-212.5"/>
<text text-anchor="start" x="971.15" y="-241.5" font-family="Helvetica,sans-Serif" font-size="10.00">/home/runner/work/Raytracer</text>
<text text-anchor="start" x="971.15" y="-230.5" font-family="Helvetica,sans-Serif" font-size="10.00">/Raytracer/PluginsExt/Camera</text>
<text text-anchor="middle" x="1044.15" y="-219.5" font-family="Helvetica,sans-Serif" font-size="10.00">/Basic/CameraCreator.hpp</text>
</a>
</g>
</g>
<!-- Node9&#45;&gt;Node10 -->
<g id="edge11" class="edge">
<title>Node9&#45;&gt;Node10</title>
<path fill="none" stroke="midnightblue" d="M1045.36,-280.3C1045.13,-271.3 1044.87,-261.65 1044.66,-253.51"/>
<polygon fill="midnightblue" stroke="midnightblue" points="1041.87,-280.52 1045.63,-290.43 1048.87,-280.34 1041.87,-280.52"/>
</g>
<!-- Node12 -->
<g id="node12" class="node">
<title>Node12</title>
<g id="a_node12"><a xlink:href="$a00278.html" xlink:title=" ">
<polygon fill="white" stroke="black" points="1143.15,-212.5 1143.15,-253.5 1329.15,-253.5 1329.15,-212.5 1143.15,-212.5"/>
<text text-anchor="start" x="1151.15" y="-241.5" font-family="Helvetica,sans-Serif" font-size="10.00">/home/runner/work/Raytracer</text>
<text text-anchor="start" x="1151.15" y="-230.5" font-family="Helvetica,sans-Serif" font-size="10.00">/Raytracer/PluginsExt/Camera</text>
<text text-anchor="middle" x="1236.15" y="-219.5" font-family="Helvetica,sans-Serif" font-size="10.00">/Cluster/CameraClusterCreator.hpp</text>
</a>
</g>
</g>
<!-- Node11&#45;&gt;Node12 -->
<g id="edge13" class="edge">
<title>Node11&#45;&gt;Node12</title>
<path fill="none" stroke="midnightblue" d="M1234.93,-280.3C1235.16,-271.3 1235.42,-261.65 1235.63,-253.51"/>
<polygon fill="midnightblue" stroke="midnightblue" points="1231.43,-280.34 1234.66,-290.43 1238.42,-280.52 1231.43,-280.34"/>
</g>
<!-- Node15 -->
<g id="node15" class="node">
<title>Node15</title>
<g id="a_node15"><a xlink:href="$a00287.html" xlink:title=" ">
<polygon fill="white" stroke="black" points="566.65,-212.5 566.65,-253.5 775.65,-253.5 775.65,-212.5 566.65,-212.5"/>
<text text-anchor="start" x="574.65" y="-241.5" font-family="Helvetica,sans-Serif" font-size="10.00">/home/runner/work/Raytracer</text>
<text text-anchor="start" x="574.65" y="-230.5" font-family="Helvetica,sans-Serif" font-size="10.00">/Raytracer/PluginsExt/Camera</text>
<text text-anchor="middle" x="671.15" y="-219.5" font-family="Helvetica,sans-Serif" font-size="10.00">/FullCustom/CameraCustomCreator.hpp</text>
</a>
</g>
</g>
<!-- Node14&#45;&gt;Node15 -->
<g id="edge16" class="edge">
<title>Node14&#45;&gt;Node15</title>
<path fill="none" stroke="midnightblue" d="M640.98,-281.76C646.92,-272.35 653.4,-262.1 658.83,-253.51"/>
<polygon fill="midnightblue" stroke="midnightblue" points="637.89,-280.1 635.51,-290.43 643.81,-283.84 637.89,-280.1"/>
</g>
<!-- Node17&#45;&gt;Node2 -->
<g id="edge19" class="edge">
<title>Node17&#45;&gt;Node2</title>
<path fill="none" stroke="midnightblue" d="M1594.11,-452.64C1426.76,-438.67 1080.2,-409.72 923.8,-396.65"/>
<polygon fill="midnightblue" stroke="midnightblue" points="1593.88,-456.14 1604.13,-453.48 1594.46,-449.16 1593.88,-456.14"/>
</g>
<!-- Node18 -->
<g id="node18" class="node">
<title>Node18</title>
<g id="a_node18"><a xlink:href="$a00131.html" xlink:title=" ">
<polygon fill="white" stroke="black" points="1562.65,-212.5 1562.65,-253.5 1721.65,-253.5 1721.65,-212.5 1562.65,-212.5"/>
<text text-anchor="start" x="1570.65" y="-241.5" font-family="Helvetica,sans-Serif" font-size="10.00">/home/runner/work/Raytracer</text>
<text text-anchor="start" x="1570.65" y="-230.5" font-family="Helvetica,sans-Serif" font-size="10.00">/Raytracer/src/Factories</text>
<text text-anchor="middle" x="1642.15" y="-219.5" font-family="Helvetica,sans-Serif" font-size="10.00">/FilterFactory.hpp</text>
</a>
</g>
</g>
<!-- Node17&#45;&gt;Node18 -->
<g id="edge20" class="edge">
<title>Node17&#45;&gt;Node18</title>
<path fill="none" stroke="midnightblue" d="M1682.93,-436.25C1677.41,-410.43 1668.49,-368.37 1661.15,-332 1655.66,-304.82 1649.61,-273.33 1645.84,-253.54"/>
<polygon fill="midnightblue" stroke="midnightblue" points="1679.56,-437.21 1685.08,-446.25 1686.4,-435.74 1679.56,-437.21"/>
</g>
<!-- Node19 -->
<g id="node19" class="node">
<title>Node19</title>
<g id="a_node19"><a xlink:href="$a00200.html" xlink:title=" ">
<polygon fill="white" stroke="black" points="1508.65,-134.5 1508.65,-175.5 1667.65,-175.5 1667.65,-134.5 1508.65,-134.5"/>
<text text-anchor="start" x="1516.65" y="-163.5" font-family="Helvetica,sans-Serif" font-size="10.00">/home/runner/work/Raytracer</text>
<text text-anchor="start" x="1516.65" y="-152.5" font-family="Helvetica,sans-Serif" font-size="10.00">/Raytracer/src/Plugins/Filters</text>
<text text-anchor="middle" x="1588.15" y="-141.5" font-family="Helvetica,sans-Serif" font-size="10.00">/FilterLoader.hpp</text>
</a>
</g>
</g>
<!-- Node17&#45;&gt;Node19 -->
<g id="edge30" class="edge">
<title>Node17&#45;&gt;Node19</title>
<path fill="none" stroke="midnightblue" d="M1594.12,-449.87C1543.96,-442.05 1489.47,-429.36 1474.15,-410 1462.56,-395.36 1466.25,-384.91 1474.15,-368 1484.69,-345.42 1503.35,-352.76 1517.15,-332 1548.03,-285.51 1531.27,-262.91 1554.15,-212 1559.83,-199.34 1567.82,-186.03 1574.63,-175.56"/>
<polygon fill="midnightblue" stroke="midnightblue" points="1593.67,-453.34 1604.08,-451.37 1594.71,-446.42 1593.67,-453.34"/>
</g>
<!-- Node21 -->
<g id="node21" class="node">
<title>Node21</title>
<g id="a_node21"><a xlink:href="$a00137.html" xlink:title=" ">
<polygon fill="white" stroke="black" points="1482.65,-368.5 1482.65,-409.5 1641.65,-409.5 1641.65,-368.5 1482.65,-368.5"/>
<text text-anchor="start" x="1490.65" y="-397.5" font-family="Helvetica,sans-Serif" font-size="10.00">/home/runner/work/Raytracer</text>
<text text-anchor="start" x="1490.65" y="-386.5" font-family="Helvetica,sans-Serif" font-size="10.00">/Raytracer/src/Factories</text>
<text text-anchor="middle" x="1562.15" y="-375.5" font-family="Helvetica,sans-Serif" font-size="10.00">/IFilterFactory.hpp</text>
</a>
</g>
</g>
<!-- Node17&#45;&gt;Node21 -->
<g id="edge24" class="edge">
<title>Node17&#45;&gt;Node21</title>
<path fill="none" stroke="midnightblue" d="M1654.14,-441.47C1636.54,-431.63 1615.08,-419.62 1597.32,-409.68"/>
<polygon fill="midnightblue" stroke="midnightblue" points="1652.51,-444.57 1662.95,-446.4 1655.93,-438.47 1652.51,-444.57"/>
</g>
<!-- Node17&#45;&gt;Node22 -->
<g id="edge26" class="edge">
<title>Node17&#45;&gt;Node22</title>
<path fill="none" stroke="midnightblue" d="M1608.7,-444.5C1554.69,-433.62 1483.16,-419.21 1427.22,-407.94"/>
<polygon fill="midnightblue" stroke="midnightblue" points="1608.08,-447.94 1618.58,-446.49 1609.47,-441.08 1608.08,-447.94"/>
</g>
<!-- Node23 -->
<g id="node23" class="node">
<title>Node23</title>
<g id="a_node23"><a xlink:href="$a00197.html" xlink:title=" ">
<polygon fill="white" stroke="black" points="1669.65,-290.5 1669.65,-331.5 1828.65,-331.5 1828.65,-290.5 1669.65,-290.5"/>
<text text-anchor="start" x="1677.65" y="-319.5" font-family="Helvetica,sans-Serif" font-size="10.00">/home/runner/work/Raytracer</text>
<text text-anchor="start" x="1677.65" y="-308.5" font-family="Helvetica,sans-Serif" font-size="10.00">/Raytracer/src/Plugins/Filters</text>
<text text-anchor="middle" x="1749.15" y="-297.5" font-family="Helvetica,sans-Serif" font-size="10.00">/FilterHandler.hpp</text>
</a>
</g>
</g>
<!-- Node17&#45;&gt;Node23 -->
<g id="edge27" class="edge">
<title>Node17&#45;&gt;Node23</title>
<path fill="none" stroke="midnightblue" d="M1697.86,-436.84C1709.84,-407.69 1729.97,-358.68 1741.12,-331.55"/>
<polygon fill="midnightblue" stroke="midnightblue" points="1694.56,-435.68 1693.99,-446.26 1701.03,-438.34 1694.56,-435.68"/>
</g>
<!-- Node24 -->
<g id="node24" class="node">
<title>Node24</title>
<g id="a_node24"><a xlink:href="$a00203.html" xlink:title=" ">
<polygon fill="white" stroke="black" points="1772.65,-368.5 1772.65,-409.5 1931.65,-409.5 1931.65,-368.5 1772.65,-368.5"/>
<text text-anchor="start" x="1780.65" y="-397.5" font-family="Helvetica,sans-Serif" font-size="10.00">/home/runner/work/Raytracer</text>
<text text-anchor="start" x="1780.65" y="-386.5" font-family="Helvetica,sans-Serif" font-size="10.00">/Raytracer/src/Plugins/Filters</text>
<text text-anchor="middle" x="1852.15" y="-375.5" font-family="Helvetica,sans-Serif" font-size="10.00">/IFilterCreator.hpp</text>
</a>
</g>
</g>
<!-- Node17&#45;&gt;Node24 -->
<g id="edge31" class="edge">
<title>Node17&#45;&gt;Node24</title>
<path fill="none" stroke="midnightblue" d="M1730.25,-442.4C1753.65,-432.34 1782.77,-419.83 1806.68,-409.55"/>
<polygon fill="midnightblue" stroke="midnightblue" points="1728.74,-439.24 1720.94,-446.4 1731.51,-445.67 1728.74,-439.24"/>
</g>
<!-- Node25 -->
<g id="node25" class="node">
<title>Node25</title>
<g id="a_node25"><a xlink:href="$a00260.html" xlink:title=" ">
<polygon fill="white" stroke="black" points="1847.15,-290.5 1847.15,-331.5 2029.15,-331.5 2029.15,-290.5 1847.15,-290.5"/>
<text text-anchor="start" x="1855.15" y="-319.5" font-family="Helvetica,sans-Serif" font-size="10.00">/home/runner/work/Raytracer</text>
<text text-anchor="start" x="1855.15" y="-308.5" font-family="Helvetica,sans-Serif" font-size="10.00">/Raytracer/PluginsExt/AntiAliasing</text>
<text text-anchor="middle" x="1938.15" y="-297.5" font-family="Helvetica,sans-Serif" font-size="10.00">/SSAAx4/SSAAx4Creator.hpp</text>
</a>
</g>
</g>
<!-- Node17&#45;&gt;Node25 -->
<g id="edge35" class="edge">
<title>Node17&#45;&gt;Node25</title>
<path fill="none" stroke="midnightblue" d="M1706.92,-438.83C1714.52,-429.96 1723.33,-419.55 1731.15,-410 1746.18,-391.63 1744.66,-381.56 1764.15,-368 1788.63,-350.96 1818.59,-338.88 1846.71,-330.42"/>
<polygon fill="midnightblue" stroke="midnightblue" points="1704.21,-436.61 1700.34,-446.48 1709.52,-441.18 1704.21,-436.61"/>
</g>
<!-- Node26 -->
<g id="node26" class="node">
<title>Node26</title>
<g id="a_node26"><a xlink:href="$a00266.html" xlink:title=" ">
<polygon fill="white" stroke="black" points="2047.15,-290.5 2047.15,-331.5 2245.15,-331.5 2245.15,-290.5 2047.15,-290.5"/>
<text text-anchor="start" x="2055.15" y="-319.5" font-family="Helvetica,sans-Serif" font-size="10.00">/home/runner/work/Raytracer</text>
<text text-anchor="start" x="2055.15" y="-308.5" font-family="Helvetica,sans-Serif" font-size="10.00">/Raytracer/PluginsExt/BlackAndWhite</text>
<text text-anchor="middle" x="2146.15" y="-297.5" font-family="Helvetica,sans-Serif" font-size="10.00">/BlackAndWhiteCreator.hpp</text>
</a>
</g>
</g>
<!-- Node17&#45;&gt;Node26 -->
<g id="edge38" class="edge">
<title>Node17&#45;&gt;Node26</title>
<path fill="none" stroke="midnightblue" d="M1782.52,-456.15C1832.43,-450.39 1893.13,-437.67 1941.15,-410 1962.7,-397.58 1957.41,-381.74 1978.15,-368 2002.37,-351.95 2031.6,-340.12 2058.84,-331.58"/>
<polygon fill="midnightblue" stroke="midnightblue" points="1781.94,-452.69 1772.37,-457.24 1782.69,-459.65 1781.94,-452.69"/>
</g>
<!-- Node17&#45;&gt;Node27 -->
<g id="edge36" class="edge">
<title>Node17&#45;&gt;Node27</title>
<path fill="none" stroke="midnightblue" d="M1778.86,-444.73C1834.89,-434.92 1908.22,-421.93 1973.15,-410 1977.71,-409.16 1982.38,-408.3 1987.1,-407.42"/>
<polygon fill="midnightblue" stroke="midnightblue" points="1778.21,-441.29 1768.97,-446.46 1779.42,-448.19 1778.21,-441.29"/>
</g>
<!-- Node17&#45;&gt;Node28 -->
<g id="edge39" class="edge">
<title>Node17&#45;&gt;Node28</title>
<path fill="none" stroke="midnightblue" d="M1782.47,-453.05C1881.34,-444.7 2041.07,-429.72 2178.15,-410 2181.07,-409.58 2184.04,-409.14 2187.03,-408.67"/>
<polygon fill="midnightblue" stroke="midnightblue" points="1782.18,-449.56 1772.5,-453.88 1782.76,-456.53 1782.18,-449.56"/>
</g>
<!-- Node18&#45;&gt;Node19 -->
<g id="edge21" class="edge">
<title>Node18&#45;&gt;Node19</title>
<path fill="none" stroke="midnightblue" d="M1622.28,-204.05C1615.55,-194.57 1608.17,-184.18 1602.01,-175.51"/>
<polygon fill="midnightblue" stroke="midnightblue" points="1619.59,-206.3 1628.24,-212.43 1625.3,-202.25 1619.59,-206.3"/>
</g>
<!-- Node20 -->
<g id="node20" class="node">
<title>Node20</title>
<g id="a_node20"><a xlink:href="$a00245.html" xlink:title=" ">
<polygon fill="white" stroke="black" points="1090.65,-67.5 1090.65,-97.5 1297.65,-97.5 1297.65,-67.5 1090.65,-67.5"/>
<text text-anchor="start" x="1098.65" y="-85.5" font-family="Helvetica,sans-Serif" font-size="10.00">/home/runner/work/Raytracer</text>
<text text-anchor="middle" x="1194.15" y="-74.5" font-family="Helvetica,sans-Serif" font-size="10.00">/Raytracer/src/Scenes/SceneLoader.hpp</text>
</a>
</g>
</g>
<!-- Node19&#45;&gt;Node20 -->
<g id="edge22" class="edge">
<title>Node19&#45;&gt;Node20</title>
<path fill="none" stroke="midnightblue" d="M1498.55,-137.97C1430.41,-125.78 1337.59,-109.17 1272.41,-97.5"/>
<polygon fill="midnightblue" stroke="midnightblue" points="1497.95,-141.42 1508.41,-139.73 1499.19,-134.53 1497.95,-141.42"/>
</g>
<!-- Node20&#45;&gt;Node7 -->
<g id="edge23" class="edge">
<title>Node20&#45;&gt;Node7</title>
<path fill="none" stroke="midnightblue" d="M1087.65,-66.01C1011.86,-54.99 911.06,-40.34 838.83,-29.83"/>
<polygon fill="midnightblue" stroke="midnightblue" points="1087.3,-69.5 1097.7,-67.48 1088.31,-62.57 1087.3,-69.5"/>
</g>
<!-- Node21&#45;&gt;Node18 -->
<g id="edge25" class="edge">
<title>Node21&#45;&gt;Node18</title>
<path fill="none" stroke="midnightblue" d="M1576.92,-359.56C1592.87,-328.85 1617.88,-280.71 1631.84,-253.83"/>
<polygon fill="midnightblue" stroke="midnightblue" points="1573.78,-358.01 1572.28,-368.5 1579.99,-361.24 1573.78,-358.01"/>
</g>
<!-- Node23&#45;&gt;Node18 -->
<g id="edge28" class="edge">
<title>Node23&#45;&gt;Node18</title>
<path fill="none" stroke="midnightblue" d="M1713.43,-284.64C1699.15,-274.49 1682.95,-262.98 1669.61,-253.51"/>
<polygon fill="midnightblue" stroke="midnightblue" points="1711.41,-287.49 1721.59,-290.43 1715.46,-281.78 1711.41,-287.49"/>
</g>
<!-- Node23&#45;&gt;Node19 -->
<g id="edge29" class="edge">
<title>Node23&#45;&gt;Node19</title>
<path fill="none" stroke="midnightblue" d="M1750.91,-280.28C1750.6,-259.03 1746.77,-230.95 1731.15,-212 1715.12,-192.56 1691.43,-179.84 1667.94,-171.53"/>
<polygon fill="midnightblue" stroke="midnightblue" points="1747.41,-280.36 1750.81,-290.39 1754.41,-280.43 1747.41,-280.36"/>
</g>
<!-- Node24&#45;&gt;Node23 -->
<g id="edge32" class="edge">
<title>Node24&#45;&gt;Node23</title>
<path fill="none" stroke="midnightblue" d="M1817.38,-362.35C1803.72,-352.27 1788.3,-340.89 1775.58,-331.51"/>
<polygon fill="midnightblue" stroke="midnightblue" points="1815.5,-365.31 1825.62,-368.43 1819.65,-359.67 1815.5,-365.31"/>
</g>
<!-- Node24&#45;&gt;Node25 -->
<g id="edge33" class="edge">
<title>Node24&#45;&gt;Node25</title>
<path fill="none" stroke="midnightblue" d="M1881.82,-361.78C1893.06,-351.84 1905.65,-340.72 1916.07,-331.51"/>
<polygon fill="midnightblue" stroke="midnightblue" points="1879.47,-359.18 1874.29,-368.43 1884.1,-364.43 1879.47,-359.18"/>
</g>
<!-- Node24&#45;&gt;Node26 -->
<g id="edge34" class="edge">
<title>Node24&#45;&gt;Node26</title>
<path fill="none" stroke="midnightblue" d="M1937.54,-365.92C1979.66,-355.04 2030.01,-342.02 2070.69,-331.51"/>
<polygon fill="midnightblue" stroke="midnightblue" points="1936.66,-362.54 1927.86,-368.43 1938.42,-369.31 1936.66,-362.54"/>
</g>
<!-- Node27&#45;&gt;Node25 -->
<g id="edge37" class="edge">
<title>Node27&#45;&gt;Node25</title>
<path fill="none" stroke="midnightblue" d="M2033.25,-363.63C2014.12,-353.24 1992.1,-341.29 1974.08,-331.51"/>
<polygon fill="midnightblue" stroke="midnightblue" points="2031.63,-366.73 2042.09,-368.43 2034.97,-360.58 2031.63,-366.73"/>
</g>
<!-- Node28&#45;&gt;Node26 -->
<g id="edge40" class="edge">
<title>Node28&#45;&gt;Node26</title>
<path fill="none" stroke="midnightblue" d="M2241.25,-363.63C2222.12,-353.24 2200.1,-341.29 2182.08,-331.51"/>
<polygon fill="midnightblue" stroke="midnightblue" points="2239.63,-366.73 2250.09,-368.43 2242.97,-360.58 2239.63,-366.73"/>
</g>
</g>
</svg>
