<?xml version="1.0" encoding="UTF-8" standalone="no"?>
<!DOCTYPE svg PUBLIC "-//W3C//DTD SVG 1.1//EN"
 "http://www.w3.org/Graphics/SVG/1.1/DTD/svg11.dtd">
<!-- Generated by graphviz version 2.43.0 (0)
 -->
<!-- Title: /home/runner/work/Raytracer/Raytracer/src/Images/PixelThread.hpp Pages: 1 -->
<svg width="520pt" height="263pt"
 viewBox="0.00 0.00 520.00 263.00" xmlns="http://www.w3.org/2000/svg" xmlns:xlink="http://www.w3.org/1999/xlink">
<g id="graph0" class="graph" transform="scale(1 1) rotate(0) translate(4 259)">
<title>/home/runner/work/Raytracer/Raytracer/src/Images/PixelThread.hpp</title>
<polygon fill="white" stroke="transparent" points="-4,4 -4,-259 516,-259 516,4 -4,4"/>
<!-- Node1 -->
<g id="node1" class="node">
<title>Node1</title>
<g id="a_node1"><a xlink:title=" ">
<polygon fill="#bfbfbf" stroke="black" points="80,-224.5 80,-254.5 284,-254.5 284,-224.5 80,-224.5"/>
<text text-anchor="start" x="88" y="-242.5" font-family="Helvetica,sans-Serif" font-size="10.00">/home/runner/work/Raytracer</text>
<text text-anchor="middle" x="182" y="-231.5" font-family="Helvetica,sans-Serif" font-size="10.00">/Raytracer/src/Images/PixelThread.hpp</text>
</a>
</g>
</g>
<!-- Node2 -->
<g id="node2" class="node">
<title>Node2</title>
<g id="a_node2"><a xlink:href="$a00239.html" xlink:title=" ">
<polygon fill="white" stroke="black" points="0,-168.5 0,-187.5 98,-187.5 98,-168.5 0,-168.5"/>
<text text-anchor="middle" x="49" y="-175.5" font-family="Helvetica,sans-Serif" font-size="10.00">IDisplayable.hpp</text>
</a>
</g>
</g>
<!-- Node1&#45;&gt;Node2 -->
<g id="edge1" class="edge">
<title>Node1&#45;&gt;Node2</title>
<path fill="none" stroke="midnightblue" d="M150.48,-224.4C128.36,-214.51 99.03,-201.38 77.59,-191.79"/>
<polygon fill="midnightblue" stroke="midnightblue" points="78.91,-188.55 68.35,-187.66 76.05,-194.94 78.91,-188.55"/>
</g>
<!-- Node4 -->
<g id="node4" class="node">
<title>Node4</title>
<g id="a_node4"><a xlink:title=" ">
<polygon fill="white" stroke="#bfbfbf" points="78.5,-112.5 78.5,-131.5 125.5,-131.5 125.5,-112.5 78.5,-112.5"/>
<text text-anchor="middle" x="102" y="-119.5" font-family="Helvetica,sans-Serif" font-size="10.00">vector</text>
</a>
</g>
</g>
<!-- Node1&#45;&gt;Node4 -->
<g id="edge17" class="edge">
<title>Node1&#45;&gt;Node4</title>
<path fill="none" stroke="midnightblue" d="M171.45,-224.48C163.95,-214.42 153.7,-200.49 145,-188 133.8,-171.92 121.51,-153.23 112.95,-140.03"/>
<polygon fill="midnightblue" stroke="midnightblue" points="115.8,-138 107.44,-131.5 109.92,-141.8 115.8,-138"/>
</g>
<!-- Node5 -->
<g id="node5" class="node">
<title>Node5</title>
<g id="a_node5"><a xlink:href="$a00176.html" xlink:title=" ">
<polygon fill="white" stroke="black" points="154.5,-168.5 154.5,-187.5 209.5,-187.5 209.5,-168.5 154.5,-168.5"/>
<text text-anchor="middle" x="182" y="-175.5" font-family="Helvetica,sans-Serif" font-size="10.00">Ray.hpp</text>
</a>
</g>
</g>
<!-- Node1&#45;&gt;Node5 -->
<g id="edge4" class="edge">
<title>Node1&#45;&gt;Node5</title>
<path fill="none" stroke="midnightblue" d="M182,-224.4C182,-216.47 182,-206.46 182,-197.86"/>
<polygon fill="midnightblue" stroke="midnightblue" points="185.5,-197.66 182,-187.66 178.5,-197.66 185.5,-197.66"/>
</g>
<!-- Node10 -->
<g id="node10" class="node">
<title>Node10</title>
<g id="a_node10"><a xlink:href="$a00161.html" xlink:title=" ">
<polygon fill="white" stroke="black" points="239,-112.5 239,-131.5 301,-131.5 301,-112.5 239,-112.5"/>
<text text-anchor="middle" x="270" y="-119.5" font-family="Helvetica,sans-Serif" font-size="10.00">Color.hpp</text>
</a>
</g>
</g>
<!-- Node1&#45;&gt;Node10 -->
<g id="edge10" class="edge">
<title>Node1&#45;&gt;Node10</title>
<path fill="none" stroke="midnightblue" d="M192.79,-224.34C209.08,-202.96 239.88,-162.53 257.25,-139.73"/>
<polygon fill="midnightblue" stroke="midnightblue" points="260.12,-141.74 263.39,-131.67 254.55,-137.5 260.12,-141.74"/>
</g>
<!-- Node14 -->
<g id="node14" class="node">
<title>Node14</title>
<g id="a_node14"><a xlink:title=" ">
<polygon fill="white" stroke="#bfbfbf" points="266.5,-168.5 266.5,-187.5 331.5,-187.5 331.5,-168.5 266.5,-168.5"/>
<text text-anchor="middle" x="299" y="-175.5" font-family="Helvetica,sans-Serif" font-size="10.00">functional</text>
</a>
</g>
</g>
<!-- Node1&#45;&gt;Node14 -->
<g id="edge16" class="edge">
<title>Node1&#45;&gt;Node14</title>
<path fill="none" stroke="midnightblue" d="M209.73,-224.4C228.83,-214.68 254.06,-201.86 272.82,-192.31"/>
<polygon fill="midnightblue" stroke="midnightblue" points="274.65,-195.31 281.98,-187.66 271.48,-189.07 274.65,-195.31"/>
</g>
<!-- Node3 -->
<g id="node3" class="node">
<title>Node3</title>
<g id="a_node3"><a xlink:title=" ">
<polygon fill="white" stroke="#bfbfbf" points="46,-0.5 46,-19.5 104,-19.5 104,-0.5 46,-0.5"/>
<text text-anchor="middle" x="75" y="-7.5" font-family="Helvetica,sans-Serif" font-size="10.00">memory</text>
</a>
</g>
</g>
<!-- Node2&#45;&gt;Node3 -->
<g id="edge2" class="edge">
<title>Node2&#45;&gt;Node3</title>
<path fill="none" stroke="midnightblue" d="M50.4,-168.08C54.49,-141.95 66.51,-65.21 72.09,-29.58"/>
<polygon fill="midnightblue" stroke="midnightblue" points="75.57,-29.99 73.66,-19.57 68.65,-28.91 75.57,-29.99"/>
</g>
<!-- Node2&#45;&gt;Node4 -->
<g id="edge3" class="edge">
<title>Node2&#45;&gt;Node4</title>
<path fill="none" stroke="midnightblue" d="M57.75,-168.08C65.47,-160.22 76.9,-148.57 86.22,-139.08"/>
<polygon fill="midnightblue" stroke="midnightblue" points="88.9,-141.34 93.41,-131.75 83.91,-136.44 88.9,-141.34"/>
</g>
<!-- Node6 -->
<g id="node6" class="node">
<title>Node6</title>
<g id="a_node6"><a xlink:href="$a00131.html" xlink:title=" ">
<polygon fill="white" stroke="black" points="143.5,-112.5 143.5,-131.5 220.5,-131.5 220.5,-112.5 143.5,-112.5"/>
<text text-anchor="middle" x="182" y="-119.5" font-family="Helvetica,sans-Serif" font-size="10.00">Vector3f.hpp</text>
</a>
</g>
</g>
<!-- Node5&#45;&gt;Node6 -->
<g id="edge5" class="edge">
<title>Node5&#45;&gt;Node6</title>
<path fill="none" stroke="midnightblue" d="M182,-168.08C182,-161.01 182,-150.86 182,-141.99"/>
<polygon fill="midnightblue" stroke="midnightblue" points="185.5,-141.75 182,-131.75 178.5,-141.75 185.5,-141.75"/>
</g>
<!-- Node7 -->
<g id="node7" class="node">
<title>Node7</title>
<g id="a_node7"><a xlink:title=" ">
<polygon fill="white" stroke="#bfbfbf" points="77.5,-56.5 77.5,-75.5 134.5,-75.5 134.5,-56.5 77.5,-56.5"/>
<text text-anchor="middle" x="106" y="-63.5" font-family="Helvetica,sans-Serif" font-size="10.00">ostream</text>
</a>
</g>
</g>
<!-- Node6&#45;&gt;Node7 -->
<g id="edge6" class="edge">
<title>Node6&#45;&gt;Node7</title>
<path fill="none" stroke="midnightblue" d="M169.79,-112.32C158.22,-104.11 140.62,-91.6 126.84,-81.81"/>
<polygon fill="midnightblue" stroke="midnightblue" points="128.61,-78.77 118.43,-75.83 124.56,-84.48 128.61,-78.77"/>
</g>
<!-- Node8 -->
<g id="node8" class="node">
<title>Node8</title>
<g id="a_node8"><a xlink:href="$a00245.html" xlink:title=" ">
<polygon fill="white" stroke="black" points="152.5,-56.5 152.5,-75.5 227.5,-75.5 227.5,-56.5 152.5,-56.5"/>
<text text-anchor="middle" x="190" y="-63.5" font-family="Helvetica,sans-Serif" font-size="10.00">ISetting.hpp</text>
</a>
</g>
</g>
<!-- Node6&#45;&gt;Node8 -->
<g id="edge7" class="edge">
<title>Node6&#45;&gt;Node8</title>
<path fill="none" stroke="midnightblue" d="M183.32,-112.08C184.38,-104.93 185.91,-94.64 187.23,-85.69"/>
<polygon fill="midnightblue" stroke="midnightblue" points="190.7,-86.16 188.7,-75.75 183.78,-85.13 190.7,-86.16"/>
</g>
<!-- Node8&#45;&gt;Node3 -->
<g id="edge8" class="edge">
<title>Node8&#45;&gt;Node3</title>
<path fill="none" stroke="midnightblue" d="M171.78,-56.44C153.1,-47.68 123.84,-33.94 102.38,-23.86"/>
<polygon fill="midnightblue" stroke="midnightblue" points="103.68,-20.6 93.14,-19.52 100.7,-26.93 103.68,-20.6"/>
</g>
<!-- Node9 -->
<g id="node9" class="node">
<title>Node9</title>
<g id="a_node9"><a xlink:title=" ">
<polygon fill="white" stroke="#bfbfbf" points="148.5,-0.5 148.5,-19.5 231.5,-19.5 231.5,-0.5 148.5,-0.5"/>
<text text-anchor="middle" x="190" y="-7.5" font-family="Helvetica,sans-Serif" font-size="10.00">libconfig.h++</text>
</a>
</g>
</g>
<!-- Node8&#45;&gt;Node9 -->
<g id="edge9" class="edge">
<title>Node8&#45;&gt;Node9</title>
<path fill="none" stroke="midnightblue" d="M190,-56.08C190,-49.01 190,-38.86 190,-29.99"/>
<polygon fill="midnightblue" stroke="midnightblue" points="193.5,-29.75 190,-19.75 186.5,-29.75 193.5,-29.75"/>
</g>
<!-- Node10&#45;&gt;Node7 -->
<g id="edge12" class="edge">
<title>Node10&#45;&gt;Node7</title>
<path fill="none" stroke="midnightblue" d="M244.01,-112.44C216.3,-103.32 172.25,-88.81 141.38,-78.65"/>
<polygon fill="midnightblue" stroke="midnightblue" points="142.46,-75.32 131.86,-75.52 140.27,-81.97 142.46,-75.32"/>
</g>
<!-- Node10&#45;&gt;Node8 -->
<g id="edge15" class="edge">
<title>Node10&#45;&gt;Node8</title>
<path fill="none" stroke="midnightblue" d="M257.15,-112.32C244.78,-103.98 225.87,-91.21 211.26,-81.35"/>
<polygon fill="midnightblue" stroke="midnightblue" points="213.07,-78.35 202.82,-75.65 209.15,-84.15 213.07,-78.35"/>
</g>
<!-- Node11 -->
<g id="node11" class="node">
<title>Node11</title>
<g id="a_node11"><a xlink:title=" ">
<polygon fill="white" stroke="#bfbfbf" points="246,-56.5 246,-75.5 294,-75.5 294,-56.5 246,-56.5"/>
<text text-anchor="middle" x="270" y="-63.5" font-family="Helvetica,sans-Serif" font-size="10.00">mutex</text>
</a>
</g>
</g>
<!-- Node10&#45;&gt;Node11 -->
<g id="edge11" class="edge">
<title>Node10&#45;&gt;Node11</title>
<path fill="none" stroke="midnightblue" d="M270,-112.08C270,-105.01 270,-94.86 270,-85.99"/>
<polygon fill="midnightblue" stroke="midnightblue" points="273.5,-85.75 270,-75.75 266.5,-85.75 273.5,-85.75"/>
</g>
<!-- Node12 -->
<g id="node12" class="node">
<title>Node12</title>
<g id="a_node12"><a xlink:title=" ">
<polygon fill="white" stroke="#bfbfbf" points="312.5,-56.5 312.5,-75.5 449.5,-75.5 449.5,-56.5 312.5,-56.5"/>
<text text-anchor="middle" x="381" y="-63.5" font-family="Helvetica,sans-Serif" font-size="10.00">SFML/Graphics/Color.hpp</text>
</a>
</g>
</g>
<!-- Node10&#45;&gt;Node12 -->
<g id="edge13" class="edge">
<title>Node10&#45;&gt;Node12</title>
<path fill="none" stroke="midnightblue" d="M287.83,-112.32C305.72,-103.62 333.48,-90.12 354.05,-80.11"/>
<polygon fill="midnightblue" stroke="midnightblue" points="355.75,-83.18 363.21,-75.65 352.69,-76.88 355.75,-83.18"/>
</g>
<!-- Node13 -->
<g id="node13" class="node">
<title>Node13</title>
<g id="a_node13"><a xlink:title=" ">
<polygon fill="white" stroke="#bfbfbf" points="468,-56.5 468,-75.5 512,-75.5 512,-56.5 468,-56.5"/>
<text text-anchor="middle" x="490" y="-63.5" font-family="Helvetica,sans-Serif" font-size="10.00">string</text>
</a>
</g>
</g>
<!-- Node10&#45;&gt;Node13 -->
<g id="edge14" class="edge">
<title>Node10&#45;&gt;Node13</title>
<path fill="none" stroke="midnightblue" d="M301.22,-114.06C336.88,-106.02 397.2,-92.1 457.94,-76.19"/>
<polygon fill="midnightblue" stroke="midnightblue" points="458.91,-79.55 467.69,-73.62 457.12,-72.78 458.91,-79.55"/>
</g>
</g>
</svg>
