<?xml version="1.0" encoding="UTF-8" standalone="no"?>
<!DOCTYPE svg PUBLIC "-//W3C//DTD SVG 1.1//EN"
 "http://www.w3.org/Graphics/SVG/1.1/DTD/svg11.dtd">
<!-- Generated by graphviz version 2.43.0 (0)
 -->
<!-- Title: /home/runner/work/Raytracer/Raytracer/src/Plugins/Entities/IEntityCreator.hpp Pages: 1 -->
<svg width="3174pt" height="429pt"
 viewBox="0.00 0.00 3173.50 429.00" xmlns="http://www.w3.org/2000/svg" xmlns:xlink="http://www.w3.org/1999/xlink">
<g id="graph0" class="graph" transform="scale(1 1) rotate(0) translate(4 425)">
<title>/home/runner/work/Raytracer/Raytracer/src/Plugins/Entities/IEntityCreator.hpp</title>
<polygon fill="white" stroke="transparent" points="-4,4 -4,-425 3169.5,-425 3169.5,4 -4,4"/>
<!-- Node1 -->
<g id="node1" class="node">
<title>Node1</title>
<g id="a_node1"><a xlink:title=" ">
<polygon fill="#bfbfbf" stroke="black" points="1557.5,-379.5 1557.5,-420.5 1719.5,-420.5 1719.5,-379.5 1557.5,-379.5"/>
<text text-anchor="start" x="1565.5" y="-408.5" font-family="Helvetica,sans-Serif" font-size="10.00">/home/runner/work/Raytracer</text>
<text text-anchor="start" x="1565.5" y="-397.5" font-family="Helvetica,sans-Serif" font-size="10.00">/Raytracer/src/Plugins/Entities</text>
<text text-anchor="middle" x="1638.5" y="-386.5" font-family="Helvetica,sans-Serif" font-size="10.00">/IEntityCreator.hpp</text>
</a>
</g>
</g>
<!-- Node2 -->
<g id="node2" class="node">
<title>Node2</title>
<g id="a_node2"><a xlink:href="$a00167.html" xlink:title=" ">
<polygon fill="white" stroke="black" points="104.5,-301.5 104.5,-342.5 266.5,-342.5 266.5,-301.5 104.5,-301.5"/>
<text text-anchor="start" x="112.5" y="-330.5" font-family="Helvetica,sans-Serif" font-size="10.00">/home/runner/work/Raytracer</text>
<text text-anchor="start" x="112.5" y="-319.5" font-family="Helvetica,sans-Serif" font-size="10.00">/Raytracer/src/Plugins/Entities</text>
<text text-anchor="middle" x="185.5" y="-308.5" font-family="Helvetica,sans-Serif" font-size="10.00">/EntityHandler.hpp</text>
</a>
</g>
</g>
<!-- Node1&#45;&gt;Node2 -->
<g id="edge1" class="edge">
<title>Node1&#45;&gt;Node2</title>
<path fill="none" stroke="midnightblue" d="M1546.9,-397.36C1282.68,-392.29 522.3,-375.23 275.5,-343 272.64,-342.63 269.74,-342.21 266.82,-341.75"/>
<polygon fill="midnightblue" stroke="midnightblue" points="1547.16,-400.86 1557.22,-397.56 1547.29,-393.87 1547.16,-400.86"/>
</g>
<!-- Node11 -->
<g id="node11" class="node">
<title>Node11</title>
<g id="a_node11"><a xlink:href="$a00233.html" xlink:title=" ">
<polygon fill="white" stroke="black" points="285,-301.5 285,-342.5 474,-342.5 474,-301.5 285,-301.5"/>
<text text-anchor="start" x="293" y="-330.5" font-family="Helvetica,sans-Serif" font-size="10.00">/home/runner/work/Raytracer</text>
<text text-anchor="start" x="293" y="-319.5" font-family="Helvetica,sans-Serif" font-size="10.00">/Raytracer/PluginsExt/AmbientLight</text>
<text text-anchor="middle" x="379.5" y="-308.5" font-family="Helvetica,sans-Serif" font-size="10.00">/AmbientLightCreator.hpp</text>
</a>
</g>
</g>
<!-- Node1&#45;&gt;Node11 -->
<g id="edge12" class="edge">
<title>Node1&#45;&gt;Node11</title>
<path fill="none" stroke="midnightblue" d="M1547.06,-398.95C1351.3,-397.89 877.36,-390.18 483.5,-343 480.4,-342.63 477.25,-342.22 474.07,-341.78"/>
<polygon fill="midnightblue" stroke="midnightblue" points="1547.29,-402.45 1557.3,-399 1547.32,-395.45 1547.29,-402.45"/>
</g>
<!-- Node12 -->
<g id="node12" class="node">
<title>Node12</title>
<g id="a_node12"><a xlink:href="$a00245.html" xlink:title=" ">
<polygon fill="white" stroke="black" points="492.5,-301.5 492.5,-342.5 654.5,-342.5 654.5,-301.5 492.5,-301.5"/>
<text text-anchor="start" x="500.5" y="-330.5" font-family="Helvetica,sans-Serif" font-size="10.00">/home/runner/work/Raytracer</text>
<text text-anchor="start" x="500.5" y="-319.5" font-family="Helvetica,sans-Serif" font-size="10.00">/Raytracer/PluginsExt/Camera</text>
<text text-anchor="middle" x="573.5" y="-308.5" font-family="Helvetica,sans-Serif" font-size="10.00">/Basic/CameraCreator.hpp</text>
</a>
</g>
</g>
<!-- Node1&#45;&gt;Node12 -->
<g id="edge13" class="edge">
<title>Node1&#45;&gt;Node12</title>
<path fill="none" stroke="midnightblue" d="M1547.41,-398.66C1374.35,-396.92 986.43,-387.86 663.5,-343 660.65,-342.6 657.75,-342.16 654.83,-341.69"/>
<polygon fill="midnightblue" stroke="midnightblue" points="1547.46,-402.16 1557.49,-398.75 1547.53,-395.16 1547.46,-402.16"/>
</g>
<!-- Node13 -->
<g id="node13" class="node">
<title>Node13</title>
<g id="a_node13"><a xlink:href="$a00251.html" xlink:title=" ">
<polygon fill="white" stroke="black" points="672.5,-301.5 672.5,-342.5 858.5,-342.5 858.5,-301.5 672.5,-301.5"/>
<text text-anchor="start" x="680.5" y="-330.5" font-family="Helvetica,sans-Serif" font-size="10.00">/home/runner/work/Raytracer</text>
<text text-anchor="start" x="680.5" y="-319.5" font-family="Helvetica,sans-Serif" font-size="10.00">/Raytracer/PluginsExt/Camera</text>
<text text-anchor="middle" x="765.5" y="-308.5" font-family="Helvetica,sans-Serif" font-size="10.00">/Cluster/CameraClusterCreator.hpp</text>
</a>
</g>
</g>
<!-- Node1&#45;&gt;Node13 -->
<g id="edge14" class="edge">
<title>Node1&#45;&gt;Node13</title>
<path fill="none" stroke="midnightblue" d="M1547.09,-395.88C1402.51,-390.15 1112.43,-375.44 868.5,-343 865.25,-342.57 861.95,-342.1 858.62,-341.6"/>
<polygon fill="midnightblue" stroke="midnightblue" points="1547.12,-399.38 1557.25,-396.28 1547.39,-392.39 1547.12,-399.38"/>
</g>
<!-- Node14 -->
<g id="node14" class="node">
<title>Node14</title>
<g id="a_node14"><a xlink:href="$a00260.html" xlink:title=" ">
<polygon fill="white" stroke="black" points="877,-301.5 877,-342.5 1086,-342.5 1086,-301.5 877,-301.5"/>
<text text-anchor="start" x="885" y="-330.5" font-family="Helvetica,sans-Serif" font-size="10.00">/home/runner/work/Raytracer</text>
<text text-anchor="start" x="885" y="-319.5" font-family="Helvetica,sans-Serif" font-size="10.00">/Raytracer/PluginsExt/Camera</text>
<text text-anchor="middle" x="981.5" y="-308.5" font-family="Helvetica,sans-Serif" font-size="10.00">/FullCustom/CameraCustomCreator.hpp</text>
</a>
</g>
</g>
<!-- Node1&#45;&gt;Node14 -->
<g id="edge15" class="edge">
<title>Node1&#45;&gt;Node14</title>
<path fill="none" stroke="midnightblue" d="M1547.11,-391.57C1439,-382.31 1253.72,-365.01 1095.5,-343 1092.42,-342.57 1089.29,-342.12 1086.13,-341.65"/>
<polygon fill="midnightblue" stroke="midnightblue" points="1547.07,-395.08 1557.33,-392.44 1547.66,-388.1 1547.07,-395.08"/>
</g>
<!-- Node15 -->
<g id="node15" class="node">
<title>Node15</title>
<g id="a_node15"><a xlink:href="$a00275.html" xlink:title=" ">
<polygon fill="white" stroke="black" points="1104,-301.5 1104,-342.5 1263,-342.5 1263,-301.5 1104,-301.5"/>
<text text-anchor="start" x="1112" y="-330.5" font-family="Helvetica,sans-Serif" font-size="10.00">/home/runner/work/Raytracer</text>
<text text-anchor="start" x="1112" y="-319.5" font-family="Helvetica,sans-Serif" font-size="10.00">/Raytracer/PluginsExt/Cone</text>
<text text-anchor="middle" x="1183.5" y="-308.5" font-family="Helvetica,sans-Serif" font-size="10.00">/ConeCreator.hpp</text>
</a>
</g>
</g>
<!-- Node1&#45;&gt;Node15 -->
<g id="edge16" class="edge">
<title>Node1&#45;&gt;Node15</title>
<path fill="none" stroke="midnightblue" d="M1546.93,-386.78C1472.72,-376.45 1365.56,-360.55 1272.5,-343 1269.39,-342.41 1266.22,-341.8 1263.02,-341.16"/>
<polygon fill="midnightblue" stroke="midnightblue" points="1546.8,-390.3 1557.18,-388.2 1547.76,-383.36 1546.8,-390.3"/>
</g>
<!-- Node16 -->
<g id="node16" class="node">
<title>Node16</title>
<g id="a_node16"><a xlink:href="$a00281.html" xlink:title=" ">
<polygon fill="white" stroke="black" points="1281.5,-301.5 1281.5,-342.5 1445.5,-342.5 1445.5,-301.5 1281.5,-301.5"/>
<text text-anchor="start" x="1289.5" y="-330.5" font-family="Helvetica,sans-Serif" font-size="10.00">/home/runner/work/Raytracer</text>
<text text-anchor="start" x="1289.5" y="-319.5" font-family="Helvetica,sans-Serif" font-size="10.00">/Raytracer/PluginsExt/Cylinder</text>
<text text-anchor="middle" x="1363.5" y="-308.5" font-family="Helvetica,sans-Serif" font-size="10.00">/CylinderCreator.hpp</text>
</a>
</g>
</g>
<!-- Node1&#45;&gt;Node16 -->
<g id="edge17" class="edge">
<title>Node1&#45;&gt;Node16</title>
<path fill="none" stroke="midnightblue" d="M1557.88,-376.72C1518.64,-365.87 1471.89,-352.96 1434.08,-342.51"/>
<polygon fill="midnightblue" stroke="midnightblue" points="1557.11,-380.14 1567.68,-379.43 1558.97,-373.39 1557.11,-380.14"/>
</g>
<!-- Node17 -->
<g id="node17" class="node">
<title>Node17</title>
<g id="a_node17"><a xlink:href="$a00287.html" xlink:title=" ">
<polygon fill="white" stroke="black" points="1464,-301.5 1464,-342.5 1623,-342.5 1623,-301.5 1464,-301.5"/>
<text text-anchor="start" x="1472" y="-330.5" font-family="Helvetica,sans-Serif" font-size="10.00">/home/runner/work/Raytracer</text>
<text text-anchor="start" x="1472" y="-319.5" font-family="Helvetica,sans-Serif" font-size="10.00">/Raytracer/PluginsExt/Disk</text>
<text text-anchor="middle" x="1543.5" y="-308.5" font-family="Helvetica,sans-Serif" font-size="10.00">/DiskCreator.hpp</text>
</a>
</g>
</g>
<!-- Node1&#45;&gt;Node17 -->
<g id="edge18" class="edge">
<title>Node1&#45;&gt;Node17</title>
<path fill="none" stroke="midnightblue" d="M1606.08,-373.06C1593.57,-363.06 1579.51,-351.8 1567.88,-342.51"/>
<polygon fill="midnightblue" stroke="midnightblue" points="1604.04,-375.91 1614.04,-379.43 1608.41,-370.45 1604.04,-375.91"/>
</g>
<!-- Node18 -->
<g id="node18" class="node">
<title>Node18</title>
<g id="a_node18"><a xlink:href="$a00293.html" xlink:title=" ">
<polygon fill="white" stroke="black" points="1641,-301.5 1641,-342.5 1826,-342.5 1826,-301.5 1641,-301.5"/>
<text text-anchor="start" x="1649" y="-330.5" font-family="Helvetica,sans-Serif" font-size="10.00">/home/runner/work/Raytracer</text>
<text text-anchor="start" x="1649" y="-319.5" font-family="Helvetica,sans-Serif" font-size="10.00">/Raytracer/PluginsExt/LimitedCone</text>
<text text-anchor="middle" x="1733.5" y="-308.5" font-family="Helvetica,sans-Serif" font-size="10.00">/LimitedConeCreator.hpp</text>
</a>
</g>
</g>
<!-- Node1&#45;&gt;Node18 -->
<g id="edge19" class="edge">
<title>Node1&#45;&gt;Node18</title>
<path fill="none" stroke="midnightblue" d="M1670.92,-373.06C1683.43,-363.06 1697.49,-351.8 1709.12,-342.51"/>
<polygon fill="midnightblue" stroke="midnightblue" points="1668.59,-370.45 1662.96,-379.43 1672.96,-375.91 1668.59,-370.45"/>
</g>
<!-- Node19 -->
<g id="node19" class="node">
<title>Node19</title>
<g id="a_node19"><a xlink:href="$a00299.html" xlink:title=" ">
<polygon fill="white" stroke="black" points="1844,-301.5 1844,-342.5 2045,-342.5 2045,-301.5 1844,-301.5"/>
<text text-anchor="start" x="1852" y="-330.5" font-family="Helvetica,sans-Serif" font-size="10.00">/home/runner/work/Raytracer</text>
<text text-anchor="start" x="1852" y="-319.5" font-family="Helvetica,sans-Serif" font-size="10.00">/Raytracer/PluginsExt/LimitedCylinder</text>
<text text-anchor="middle" x="1944.5" y="-308.5" font-family="Helvetica,sans-Serif" font-size="10.00">/LimitedCylinderCreator.hpp</text>
</a>
</g>
</g>
<!-- Node1&#45;&gt;Node19 -->
<g id="edge20" class="edge">
<title>Node1&#45;&gt;Node19</title>
<path fill="none" stroke="midnightblue" d="M1727.1,-376.99C1770.99,-366.09 1823.53,-353.04 1865.96,-342.51"/>
<polygon fill="midnightblue" stroke="midnightblue" points="1726.16,-373.62 1717.3,-379.43 1727.85,-380.41 1726.16,-373.62"/>
</g>
<!-- Node20 -->
<g id="node20" class="node">
<title>Node20</title>
<g id="a_node20"><a xlink:href="$a00305.html" xlink:title=" ">
<polygon fill="white" stroke="black" points="2063.5,-301.5 2063.5,-342.5 2251.5,-342.5 2251.5,-301.5 2063.5,-301.5"/>
<text text-anchor="start" x="2071.5" y="-330.5" font-family="Helvetica,sans-Serif" font-size="10.00">/home/runner/work/Raytracer</text>
<text text-anchor="start" x="2071.5" y="-319.5" font-family="Helvetica,sans-Serif" font-size="10.00">/Raytracer/PluginsExt/LimitedPlane</text>
<text text-anchor="middle" x="2157.5" y="-308.5" font-family="Helvetica,sans-Serif" font-size="10.00">/LimitedPlaneCreator.hpp</text>
</a>
</g>
</g>
<!-- Node1&#45;&gt;Node20 -->
<g id="edge21" class="edge">
<title>Node1&#45;&gt;Node20</title>
<path fill="none" stroke="midnightblue" d="M1729.7,-388.27C1814.13,-377.96 1943.07,-361.3 2054.5,-343 2057.38,-342.53 2060.29,-342.04 2063.24,-341.53"/>
<polygon fill="midnightblue" stroke="midnightblue" points="1729.13,-384.81 1719.62,-389.49 1729.97,-391.76 1729.13,-384.81"/>
</g>
<!-- Node21 -->
<g id="node21" class="node">
<title>Node21</title>
<g id="a_node21"><a xlink:href="$a00317.html" xlink:title=" ">
<polygon fill="white" stroke="black" points="2270,-301.5 2270,-342.5 2429,-342.5 2429,-301.5 2270,-301.5"/>
<text text-anchor="start" x="2278" y="-330.5" font-family="Helvetica,sans-Serif" font-size="10.00">/home/runner/work/Raytracer</text>
<text text-anchor="start" x="2278" y="-319.5" font-family="Helvetica,sans-Serif" font-size="10.00">/Raytracer/PluginsExt/Plane</text>
<text text-anchor="middle" x="2349.5" y="-308.5" font-family="Helvetica,sans-Serif" font-size="10.00">/PlaneCreator.hpp</text>
</a>
</g>
</g>
<!-- Node1&#45;&gt;Node21 -->
<g id="edge22" class="edge">
<title>Node1&#45;&gt;Node21</title>
<path fill="none" stroke="midnightblue" d="M1729.95,-394.53C1851.63,-387.73 2073.22,-372.34 2260.5,-343 2263.47,-342.53 2266.49,-342.03 2269.54,-341.49"/>
<polygon fill="midnightblue" stroke="midnightblue" points="1729.72,-391.04 1719.93,-395.08 1730.11,-398.03 1729.72,-391.04"/>
</g>
<!-- Node22 -->
<g id="node22" class="node">
<title>Node22</title>
<g id="a_node22"><a xlink:href="$a00323.html" xlink:title=" ">
<polygon fill="white" stroke="black" points="2447,-301.5 2447,-342.5 2620,-342.5 2620,-301.5 2447,-301.5"/>
<text text-anchor="start" x="2455" y="-330.5" font-family="Helvetica,sans-Serif" font-size="10.00">/home/runner/work/Raytracer</text>
<text text-anchor="start" x="2455" y="-319.5" font-family="Helvetica,sans-Serif" font-size="10.00">/Raytracer/PluginsExt/PointLight</text>
<text text-anchor="middle" x="2533.5" y="-308.5" font-family="Helvetica,sans-Serif" font-size="10.00">/PointLightCreator.hpp</text>
</a>
</g>
</g>
<!-- Node1&#45;&gt;Node22 -->
<g id="edge23" class="edge">
<title>Node1&#45;&gt;Node22</title>
<path fill="none" stroke="midnightblue" d="M1729.52,-396.7C1878.41,-392.03 2183.06,-378.66 2438.5,-343 2441.25,-342.62 2444.05,-342.2 2446.87,-341.75"/>
<polygon fill="midnightblue" stroke="midnightblue" points="1729.39,-393.2 1719.5,-397.01 1729.61,-400.2 1729.39,-393.2"/>
</g>
<!-- Node23 -->
<g id="node23" class="node">
<title>Node23</title>
<g id="a_node23"><a xlink:href="$a00329.html" xlink:title=" ">
<polygon fill="white" stroke="black" points="2638,-301.5 2638,-342.5 2797,-342.5 2797,-301.5 2638,-301.5"/>
<text text-anchor="start" x="2646" y="-330.5" font-family="Helvetica,sans-Serif" font-size="10.00">/home/runner/work/Raytracer</text>
<text text-anchor="start" x="2646" y="-319.5" font-family="Helvetica,sans-Serif" font-size="10.00">/Raytracer/PluginsExt/Sphere</text>
<text text-anchor="middle" x="2717.5" y="-308.5" font-family="Helvetica,sans-Serif" font-size="10.00">/SphereCreator.hpp</text>
</a>
</g>
</g>
<!-- Node1&#45;&gt;Node23 -->
<g id="edge24" class="edge">
<title>Node1&#45;&gt;Node23</title>
<path fill="none" stroke="midnightblue" d="M1729.76,-398.92C1905.03,-397.65 2300.54,-389.35 2629.5,-343 2632.29,-342.61 2635.13,-342.17 2637.98,-341.7"/>
<polygon fill="midnightblue" stroke="midnightblue" points="1729.53,-395.42 1719.55,-398.99 1729.58,-402.42 1729.53,-395.42"/>
</g>
<!-- Node24 -->
<g id="node24" class="node">
<title>Node24</title>
<g id="a_node24"><a xlink:href="$a00335.html" xlink:title=" ">
<polygon fill="white" stroke="black" points="2815.5,-301.5 2815.5,-342.5 2985.5,-342.5 2985.5,-301.5 2815.5,-301.5"/>
<text text-anchor="start" x="2823.5" y="-330.5" font-family="Helvetica,sans-Serif" font-size="10.00">/home/runner/work/Raytracer</text>
<text text-anchor="start" x="2823.5" y="-319.5" font-family="Helvetica,sans-Serif" font-size="10.00">/Raytracer/PluginsExt/SpotLight</text>
<text text-anchor="middle" x="2900.5" y="-308.5" font-family="Helvetica,sans-Serif" font-size="10.00">/SpotLightCreator.hpp</text>
</a>
</g>
</g>
<!-- Node1&#45;&gt;Node24 -->
<g id="edge25" class="edge">
<title>Node1&#45;&gt;Node24</title>
<path fill="none" stroke="midnightblue" d="M1729.64,-399.63C1926.89,-399.89 2407.75,-394.63 2806.5,-343 2809.4,-342.63 2812.33,-342.21 2815.3,-341.76"/>
<polygon fill="midnightblue" stroke="midnightblue" points="1729.62,-396.13 1719.61,-399.61 1729.6,-403.13 1729.62,-396.13"/>
</g>
<!-- Node25 -->
<g id="node25" class="node">
<title>Node25</title>
<g id="a_node25"><a xlink:href="$a00341.html" xlink:title=" ">
<polygon fill="white" stroke="black" points="3003.5,-301.5 3003.5,-342.5 3165.5,-342.5 3165.5,-301.5 3003.5,-301.5"/>
<text text-anchor="start" x="3011.5" y="-330.5" font-family="Helvetica,sans-Serif" font-size="10.00">/home/runner/work/Raytracer</text>
<text text-anchor="start" x="3011.5" y="-319.5" font-family="Helvetica,sans-Serif" font-size="10.00">/Raytracer/PluginsExt/Triangle</text>
<text text-anchor="middle" x="3084.5" y="-308.5" font-family="Helvetica,sans-Serif" font-size="10.00">/TriangleCreator.hpp</text>
</a>
</g>
</g>
<!-- Node1&#45;&gt;Node25 -->
<g id="edge26" class="edge">
<title>Node1&#45;&gt;Node25</title>
<path fill="none" stroke="midnightblue" d="M1730.09,-397.34C1993.38,-392.22 2749.11,-375.07 2994.5,-343 2997.36,-342.63 3000.26,-342.21 3003.18,-341.75"/>
<polygon fill="midnightblue" stroke="midnightblue" points="1729.74,-393.84 1719.81,-397.54 1729.87,-400.84 1729.74,-393.84"/>
</g>
<!-- Node3 -->
<g id="node3" class="node">
<title>Node3</title>
<g id="a_node3"><a xlink:href="$a00107.html" xlink:title=" ">
<polygon fill="white" stroke="black" points="160,-223.5 160,-264.5 319,-264.5 319,-223.5 160,-223.5"/>
<text text-anchor="start" x="168" y="-252.5" font-family="Helvetica,sans-Serif" font-size="10.00">/home/runner/work/Raytracer</text>
<text text-anchor="start" x="168" y="-241.5" font-family="Helvetica,sans-Serif" font-size="10.00">/Raytracer/src/Factories</text>
<text text-anchor="middle" x="239.5" y="-230.5" font-family="Helvetica,sans-Serif" font-size="10.00">/EntityFactory.hpp</text>
</a>
</g>
</g>
<!-- Node2&#45;&gt;Node3 -->
<g id="edge2" class="edge">
<title>Node2&#45;&gt;Node3</title>
<path fill="none" stroke="midnightblue" d="M205.36,-293.05C212.1,-283.57 219.47,-273.18 225.64,-264.51"/>
<polygon fill="midnightblue" stroke="midnightblue" points="202.35,-291.25 199.41,-301.43 208.05,-295.3 202.35,-291.25"/>
</g>
<!-- Node4 -->
<g id="node4" class="node">
<title>Node4</title>
<g id="a_node4"><a xlink:href="$a00170.html" xlink:title=" ">
<polygon fill="white" stroke="black" points="51.5,-145.5 51.5,-186.5 213.5,-186.5 213.5,-145.5 51.5,-145.5"/>
<text text-anchor="start" x="59.5" y="-174.5" font-family="Helvetica,sans-Serif" font-size="10.00">/home/runner/work/Raytracer</text>
<text text-anchor="start" x="59.5" y="-163.5" font-family="Helvetica,sans-Serif" font-size="10.00">/Raytracer/src/Plugins/Entities</text>
<text text-anchor="middle" x="132.5" y="-152.5" font-family="Helvetica,sans-Serif" font-size="10.00">/EntityLoader.hpp</text>
</a>
</g>
</g>
<!-- Node2&#45;&gt;Node4 -->
<g id="edge11" class="edge">
<title>Node2&#45;&gt;Node4</title>
<path fill="none" stroke="midnightblue" d="M165.11,-292.98C159.64,-284.35 154.22,-274.6 150.5,-265 140.43,-239.04 135.9,-206.97 133.93,-186.74"/>
<polygon fill="midnightblue" stroke="midnightblue" points="162.31,-295.09 170.75,-301.5 168.15,-291.23 162.31,-295.09"/>
</g>
<!-- Node3&#45;&gt;Node4 -->
<g id="edge3" class="edge">
<title>Node3&#45;&gt;Node4</title>
<path fill="none" stroke="midnightblue" d="M203.79,-217.64C189.5,-207.49 173.3,-195.98 159.96,-186.51"/>
<polygon fill="midnightblue" stroke="midnightblue" points="201.77,-220.49 211.94,-223.43 205.82,-214.78 201.77,-220.49"/>
</g>
<!-- Node7 -->
<g id="node7" class="node">
<title>Node7</title>
<g id="a_node7"><a xlink:href="$a00221.html" xlink:title=" ">
<polygon fill="white" stroke="black" points="260,-151 260,-181 435,-181 435,-151 260,-151"/>
<text text-anchor="start" x="268" y="-169" font-family="Helvetica,sans-Serif" font-size="10.00">/home/runner/work/Raytracer</text>
<text text-anchor="middle" x="347.5" y="-158" font-family="Helvetica,sans-Serif" font-size="10.00">/Raytracer/src/Scenes/Scene.hpp</text>
</a>
</g>
</g>
<!-- Node3&#45;&gt;Node7 -->
<g id="edge6" class="edge">
<title>Node3&#45;&gt;Node7</title>
<path fill="none" stroke="midnightblue" d="M275.52,-217.66C292.75,-205.53 312.75,-191.45 327.29,-181.23"/>
<polygon fill="midnightblue" stroke="midnightblue" points="273.48,-214.81 267.31,-223.43 277.51,-220.54 273.48,-214.81"/>
</g>
<!-- Node5 -->
<g id="node5" class="node">
<title>Node5</title>
<g id="a_node5"><a xlink:href="$a00224.html" xlink:title=" ">
<polygon fill="white" stroke="black" points="0,-73 0,-103 207,-103 207,-73 0,-73"/>
<text text-anchor="start" x="8" y="-91" font-family="Helvetica,sans-Serif" font-size="10.00">/home/runner/work/Raytracer</text>
<text text-anchor="middle" x="103.5" y="-80" font-family="Helvetica,sans-Serif" font-size="10.00">/Raytracer/src/Scenes/SceneLoader.hpp</text>
</a>
</g>
</g>
<!-- Node4&#45;&gt;Node5 -->
<g id="edge4" class="edge">
<title>Node4&#45;&gt;Node5</title>
<path fill="none" stroke="midnightblue" d="M121.42,-135.96C117.14,-124.75 112.44,-112.43 108.93,-103.23"/>
<polygon fill="midnightblue" stroke="midnightblue" points="118.2,-137.33 125.03,-145.43 124.74,-134.84 118.2,-137.33"/>
</g>
<!-- Node6 -->
<g id="node6" class="node">
<title>Node6</title>
<g id="a_node6"><a xlink:href="$a00068.html" xlink:title=" ">
<polygon fill="white" stroke="black" points="78,-0.5 78,-30.5 261,-30.5 261,-0.5 78,-0.5"/>
<text text-anchor="start" x="86" y="-18.5" font-family="Helvetica,sans-Serif" font-size="10.00">/home/runner/work/Raytracer</text>
<text text-anchor="middle" x="169.5" y="-7.5" font-family="Helvetica,sans-Serif" font-size="10.00">/Raytracer/src/Display/Display.hpp</text>
</a>
</g>
</g>
<!-- Node5&#45;&gt;Node6 -->
<g id="edge5" class="edge">
<title>Node5&#45;&gt;Node6</title>
<path fill="none" stroke="midnightblue" d="M123.75,-65.36C134.29,-54.11 146.86,-40.68 156.16,-30.75"/>
<polygon fill="midnightblue" stroke="midnightblue" points="121.14,-63.04 116.86,-72.73 126.25,-67.83 121.14,-63.04"/>
</g>
<!-- Node7&#45;&gt;Node6 -->
<g id="edge7" class="edge">
<title>Node7&#45;&gt;Node6</title>
<path fill="none" stroke="midnightblue" d="M310.74,-146.08C292.96,-136.14 271.78,-123.11 254.5,-109 252.47,-107.34 205.67,-56.14 182.4,-30.64"/>
<polygon fill="midnightblue" stroke="midnightblue" points="309.24,-149.25 319.69,-150.98 312.61,-143.11 309.24,-149.25"/>
</g>
<!-- Node8 -->
<g id="node8" class="node">
<title>Node8</title>
<g id="a_node8"><a xlink:href="$a00074.html" xlink:title=" ">
<polygon fill="white" stroke="black" points="263.5,-67.5 263.5,-108.5 431.5,-108.5 431.5,-67.5 263.5,-67.5"/>
<text text-anchor="start" x="271.5" y="-96.5" font-family="Helvetica,sans-Serif" font-size="10.00">/home/runner/work/Raytracer</text>
<text text-anchor="start" x="271.5" y="-85.5" font-family="Helvetica,sans-Serif" font-size="10.00">/Raytracer/src/Display/Modules</text>
<text text-anchor="middle" x="347.5" y="-74.5" font-family="Helvetica,sans-Serif" font-size="10.00">/CanvasModule.hpp</text>
</a>
</g>
</g>
<!-- Node7&#45;&gt;Node8 -->
<g id="edge8" class="edge">
<title>Node7&#45;&gt;Node8</title>
<path fill="none" stroke="midnightblue" d="M347.5,-140.66C347.5,-130.33 347.5,-118.44 347.5,-108.68"/>
<polygon fill="midnightblue" stroke="midnightblue" points="344,-140.7 347.5,-150.7 351,-140.71 344,-140.7"/>
</g>
<!-- Node9 -->
<g id="node9" class="node">
<title>Node9</title>
<g id="a_node9"><a xlink:href="$a00077.html" xlink:title=" ">
<polygon fill="white" stroke="black" points="449.5,-67.5 449.5,-108.5 617.5,-108.5 617.5,-67.5 449.5,-67.5"/>
<text text-anchor="start" x="457.5" y="-96.5" font-family="Helvetica,sans-Serif" font-size="10.00">/home/runner/work/Raytracer</text>
<text text-anchor="start" x="457.5" y="-85.5" font-family="Helvetica,sans-Serif" font-size="10.00">/Raytracer/src/Display/Modules</text>
<text text-anchor="middle" x="533.5" y="-74.5" font-family="Helvetica,sans-Serif" font-size="10.00">/ProgressModule.hpp</text>
</a>
</g>
</g>
<!-- Node7&#45;&gt;Node9 -->
<g id="edge9" class="edge">
<title>Node7&#45;&gt;Node9</title>
<path fill="none" stroke="midnightblue" d="M391.66,-146.96C419.89,-135.42 456.51,-120.46 485.46,-108.63"/>
<polygon fill="midnightblue" stroke="midnightblue" points="389.98,-143.86 382.05,-150.88 392.63,-150.34 389.98,-143.86"/>
</g>
<!-- Node10 -->
<g id="node10" class="node">
<title>Node10</title>
<g id="a_node10"><a xlink:href="$a00158.html" xlink:title=" ">
<polygon fill="white" stroke="black" points="635,-73 635,-103 794,-103 794,-73 635,-73"/>
<text text-anchor="start" x="643" y="-91" font-family="Helvetica,sans-Serif" font-size="10.00">/home/runner/work/Raytracer</text>
<text text-anchor="middle" x="714.5" y="-80" font-family="Helvetica,sans-Serif" font-size="10.00">/Raytracer/src/Main.hpp</text>
</a>
</g>
</g>
<!-- Node7&#45;&gt;Node10 -->
<g id="edge10" class="edge">
<title>Node7&#45;&gt;Node10</title>
<path fill="none" stroke="midnightblue" d="M430.01,-149.01C485.61,-138.09 560.55,-123.11 626.5,-109 635.23,-107.13 644.44,-105.1 653.48,-103.08"/>
<polygon fill="midnightblue" stroke="midnightblue" points="429,-145.64 419.86,-151 430.35,-152.51 429,-145.64"/>
</g>
</g>
</svg>
