<?xml version="1.0" encoding="UTF-8" standalone="no"?>
<!DOCTYPE svg PUBLIC "-//W3C//DTD SVG 1.1//EN"
 "http://www.w3.org/Graphics/SVG/1.1/DTD/svg11.dtd">
<!-- Generated by graphviz version 2.43.0 (0)
 -->
<!-- Title: /home/runner/work/Raytracer/Raytracer/src/Images/Image.hpp Pages: 1 -->
<svg width="413pt" height="263pt"
 viewBox="0.00 0.00 413.00 263.00" xmlns="http://www.w3.org/2000/svg" xmlns:xlink="http://www.w3.org/1999/xlink">
<g id="graph0" class="graph" transform="scale(1 1) rotate(0) translate(4 259)">
<title>/home/runner/work/Raytracer/Raytracer/src/Images/Image.hpp</title>
<polygon fill="white" stroke="transparent" points="-4,4 -4,-259 409,-259 409,4 -4,4"/>
<!-- Node1 -->
<g id="node1" class="node">
<title>Node1</title>
<g id="a_node1"><a xlink:title=" ">
<polygon fill="#bfbfbf" stroke="black" points="68.5,-224.5 68.5,-254.5 246.5,-254.5 246.5,-224.5 68.5,-224.5"/>
<text text-anchor="start" x="76.5" y="-242.5" font-family="Helvetica,sans-Serif" font-size="10.00">/home/runner/work/Raytracer</text>
<text text-anchor="middle" x="157.5" y="-231.5" font-family="Helvetica,sans-Serif" font-size="10.00">/Raytracer/src/Images/Image.hpp</text>
</a>
</g>
</g>
<!-- Node2 -->
<g id="node2" class="node">
<title>Node2</title>
<g id="a_node2"><a xlink:title=" ">
<polygon fill="white" stroke="#bfbfbf" points="0,-168.5 0,-187.5 53,-187.5 53,-168.5 0,-168.5"/>
<text text-anchor="middle" x="26.5" y="-175.5" font-family="Helvetica,sans-Serif" font-size="10.00">cstddef</text>
</a>
</g>
</g>
<!-- Node1&#45;&gt;Node2 -->
<g id="edge1" class="edge">
<title>Node1&#45;&gt;Node2</title>
<path fill="none" stroke="midnightblue" d="M126.45,-224.4C104.77,-214.55 76.04,-201.5 54.95,-191.92"/>
<polygon fill="midnightblue" stroke="midnightblue" points="56.11,-188.61 45.56,-187.66 53.22,-194.98 56.11,-188.61"/>
</g>
<!-- Node3 -->
<g id="node3" class="node">
<title>Node3</title>
<g id="a_node3"><a xlink:title=" ">
<polygon fill="white" stroke="#bfbfbf" points="71.5,-168.5 71.5,-187.5 115.5,-187.5 115.5,-168.5 71.5,-168.5"/>
<text text-anchor="middle" x="93.5" y="-175.5" font-family="Helvetica,sans-Serif" font-size="10.00">string</text>
</a>
</g>
</g>
<!-- Node1&#45;&gt;Node3 -->
<g id="edge2" class="edge">
<title>Node1&#45;&gt;Node3</title>
<path fill="none" stroke="midnightblue" d="M142.33,-224.4C132.75,-215.49 120.34,-203.95 110.43,-194.74"/>
<polygon fill="midnightblue" stroke="midnightblue" points="112.52,-191.9 102.81,-187.66 107.75,-197.03 112.52,-191.9"/>
</g>
<!-- Node4 -->
<g id="node4" class="node">
<title>Node4</title>
<g id="a_node4"><a xlink:title=" ">
<polygon fill="white" stroke="#bfbfbf" points="134,-168.5 134,-187.5 181,-187.5 181,-168.5 134,-168.5"/>
<text text-anchor="middle" x="157.5" y="-175.5" font-family="Helvetica,sans-Serif" font-size="10.00">vector</text>
</a>
</g>
</g>
<!-- Node1&#45;&gt;Node4 -->
<g id="edge3" class="edge">
<title>Node1&#45;&gt;Node4</title>
<path fill="none" stroke="midnightblue" d="M157.5,-224.4C157.5,-216.47 157.5,-206.46 157.5,-197.86"/>
<polygon fill="midnightblue" stroke="midnightblue" points="161,-197.66 157.5,-187.66 154,-197.66 161,-197.66"/>
</g>
<!-- Node5 -->
<g id="node5" class="node">
<title>Node5</title>
<g id="a_node5"><a xlink:href="$a00122.html" xlink:title=" ">
<polygon fill="white" stroke="black" points="199.5,-168.5 199.5,-187.5 261.5,-187.5 261.5,-168.5 199.5,-168.5"/>
<text text-anchor="middle" x="230.5" y="-175.5" font-family="Helvetica,sans-Serif" font-size="10.00">Color.hpp</text>
</a>
</g>
</g>
<!-- Node1&#45;&gt;Node5 -->
<g id="edge4" class="edge">
<title>Node1&#45;&gt;Node5</title>
<path fill="none" stroke="midnightblue" d="M174.8,-224.4C185.95,-215.31 200.45,-203.49 211.86,-194.19"/>
<polygon fill="midnightblue" stroke="midnightblue" points="214.34,-196.69 219.88,-187.66 209.92,-191.26 214.34,-196.69"/>
</g>
<!-- Node11 -->
<g id="node11" class="node">
<title>Node11</title>
<g id="a_node11"><a xlink:href="$a00089.html" xlink:title=" ">
<polygon fill="white" stroke="black" points="280,-168.5 280,-187.5 357,-187.5 357,-168.5 280,-168.5"/>
<text text-anchor="middle" x="318.5" y="-175.5" font-family="Helvetica,sans-Serif" font-size="10.00">Vector2i.hpp</text>
</a>
</g>
</g>
<!-- Node1&#45;&gt;Node11 -->
<g id="edge10" class="edge">
<title>Node1&#45;&gt;Node11</title>
<path fill="none" stroke="midnightblue" d="M195.65,-224.4C223.03,-214.28 259.54,-200.79 285.63,-191.15"/>
<polygon fill="midnightblue" stroke="midnightblue" points="286.91,-194.41 295.07,-187.66 284.48,-187.84 286.91,-194.41"/>
</g>
<!-- Node6 -->
<g id="node6" class="node">
<title>Node6</title>
<g id="a_node6"><a xlink:title=" ">
<polygon fill="white" stroke="#bfbfbf" points="154.5,-112.5 154.5,-131.5 202.5,-131.5 202.5,-112.5 154.5,-112.5"/>
<text text-anchor="middle" x="178.5" y="-119.5" font-family="Helvetica,sans-Serif" font-size="10.00">mutex</text>
</a>
</g>
</g>
<!-- Node5&#45;&gt;Node6 -->
<g id="edge5" class="edge">
<title>Node5&#45;&gt;Node6</title>
<path fill="none" stroke="midnightblue" d="M221.91,-168.08C214.34,-160.22 203.12,-148.57 193.99,-139.08"/>
<polygon fill="midnightblue" stroke="midnightblue" points="196.38,-136.53 186.93,-131.75 191.34,-141.38 196.38,-136.53"/>
</g>
<!-- Node7 -->
<g id="node7" class="node">
<title>Node7</title>
<g id="a_node7"><a xlink:title=" ">
<polygon fill="white" stroke="#bfbfbf" points="259,-112.5 259,-131.5 316,-131.5 316,-112.5 259,-112.5"/>
<text text-anchor="middle" x="287.5" y="-119.5" font-family="Helvetica,sans-Serif" font-size="10.00">ostream</text>
</a>
</g>
</g>
<!-- Node5&#45;&gt;Node7 -->
<g id="edge6" class="edge">
<title>Node5&#45;&gt;Node7</title>
<path fill="none" stroke="midnightblue" d="M239.66,-168.32C248,-160.42 260.53,-148.55 270.68,-138.94"/>
<polygon fill="midnightblue" stroke="midnightblue" points="273.32,-141.25 278.18,-131.83 268.51,-136.17 273.32,-141.25"/>
</g>
<!-- Node8 -->
<g id="node8" class="node">
<title>Node8</title>
<g id="a_node8"><a xlink:href="$a00206.html" xlink:title=" ">
<polygon fill="white" stroke="black" points="254,-56.5 254,-75.5 329,-75.5 329,-56.5 254,-56.5"/>
<text text-anchor="middle" x="291.5" y="-63.5" font-family="Helvetica,sans-Serif" font-size="10.00">ISetting.hpp</text>
</a>
</g>
</g>
<!-- Node5&#45;&gt;Node8 -->
<g id="edge7" class="edge">
<title>Node5&#45;&gt;Node8</title>
<path fill="none" stroke="midnightblue" d="M231.76,-168.08C233.89,-155.05 239.03,-130.39 249.5,-112 255.75,-101.02 265.19,-90.59 273.53,-82.53"/>
<polygon fill="midnightblue" stroke="midnightblue" points="276.07,-84.95 281.06,-75.6 271.33,-79.8 276.07,-84.95"/>
</g>
<!-- Node9 -->
<g id="node9" class="node">
<title>Node9</title>
<g id="a_node9"><a xlink:title=" ">
<polygon fill="white" stroke="#bfbfbf" points="340.5,-0.5 340.5,-19.5 398.5,-19.5 398.5,-0.5 340.5,-0.5"/>
<text text-anchor="middle" x="369.5" y="-7.5" font-family="Helvetica,sans-Serif" font-size="10.00">memory</text>
</a>
</g>
</g>
<!-- Node8&#45;&gt;Node9 -->
<g id="edge8" class="edge">
<title>Node8&#45;&gt;Node9</title>
<path fill="none" stroke="midnightblue" d="M304.03,-56.32C316.09,-47.98 334.53,-35.21 348.77,-25.35"/>
<polygon fill="midnightblue" stroke="midnightblue" points="350.77,-28.22 357,-19.65 346.78,-22.47 350.77,-28.22"/>
</g>
<!-- Node10 -->
<g id="node10" class="node">
<title>Node10</title>
<g id="a_node10"><a xlink:title=" ">
<polygon fill="white" stroke="#bfbfbf" points="239,-0.5 239,-19.5 322,-19.5 322,-0.5 239,-0.5"/>
<text text-anchor="middle" x="280.5" y="-7.5" font-family="Helvetica,sans-Serif" font-size="10.00">libconfig.h++</text>
</a>
</g>
</g>
<!-- Node8&#45;&gt;Node10 -->
<g id="edge9" class="edge">
<title>Node8&#45;&gt;Node10</title>
<path fill="none" stroke="midnightblue" d="M289.68,-56.08C288.23,-48.93 286.13,-38.64 284.31,-29.69"/>
<polygon fill="midnightblue" stroke="midnightblue" points="287.71,-28.85 282.28,-19.75 280.85,-30.25 287.71,-28.85"/>
</g>
<!-- Node11&#45;&gt;Node7 -->
<g id="edge11" class="edge">
<title>Node11&#45;&gt;Node7</title>
<path fill="none" stroke="midnightblue" d="M313.38,-168.08C309.09,-160.61 302.84,-149.72 297.56,-140.52"/>
<polygon fill="midnightblue" stroke="midnightblue" points="300.54,-138.68 292.52,-131.75 294.47,-142.17 300.54,-138.68"/>
</g>
<!-- Node12 -->
<g id="node12" class="node">
<title>Node12</title>
<g id="a_node12"><a xlink:href="$a00197.html" xlink:title=" ">
<polygon fill="white" stroke="black" points="334,-112.5 334,-131.5 405,-131.5 405,-112.5 334,-112.5"/>
<text text-anchor="middle" x="369.5" y="-119.5" font-family="Helvetica,sans-Serif" font-size="10.00">IConfig.hpp</text>
</a>
</g>
</g>
<!-- Node11&#45;&gt;Node12 -->
<g id="edge12" class="edge">
<title>Node11&#45;&gt;Node12</title>
<path fill="none" stroke="midnightblue" d="M326.92,-168.08C334.35,-160.22 345.35,-148.57 354.31,-139.08"/>
<polygon fill="midnightblue" stroke="midnightblue" points="356.91,-141.42 361.24,-131.75 351.82,-136.62 356.91,-141.42"/>
</g>
<!-- Node12&#45;&gt;Node8 -->
<g id="edge14" class="edge">
<title>Node12&#45;&gt;Node8</title>
<path fill="none" stroke="midnightblue" d="M356.97,-112.32C344.91,-103.98 326.47,-91.21 312.23,-81.35"/>
<polygon fill="midnightblue" stroke="midnightblue" points="314.22,-78.47 304,-75.65 310.23,-84.22 314.22,-78.47"/>
</g>
<!-- Node12&#45;&gt;Node9 -->
<g id="edge13" class="edge">
<title>Node12&#45;&gt;Node9</title>
<path fill="none" stroke="midnightblue" d="M369.5,-112.37C369.5,-94.62 369.5,-53.67 369.5,-29.6"/>
<polygon fill="midnightblue" stroke="midnightblue" points="373,-29.59 369.5,-19.59 366,-29.59 373,-29.59"/>
</g>
</g>
</svg>
