<?xml version="1.0" encoding="UTF-8" standalone="no"?>
<!DOCTYPE svg PUBLIC "-//W3C//DTD SVG 1.1//EN"
 "http://www.w3.org/Graphics/SVG/1.1/DTD/svg11.dtd">
<!-- Generated by graphviz version 2.43.0 (0)
 -->
<!-- Title: /home/runner/work/Raytracer/Raytracer/src/Images/PixelThread.hpp Pages: 1 -->
<svg width="468pt" height="263pt"
 viewBox="0.00 0.00 468.00 263.00" xmlns="http://www.w3.org/2000/svg" xmlns:xlink="http://www.w3.org/1999/xlink">
<g id="graph0" class="graph" transform="scale(1 1) rotate(0) translate(4 259)">
<title>/home/runner/work/Raytracer/Raytracer/src/Images/PixelThread.hpp</title>
<polygon fill="white" stroke="transparent" points="-4,4 -4,-259 464,-259 464,4 -4,4"/>
<!-- Node1 -->
<g id="node1" class="node">
<title>Node1</title>
<g id="a_node1"><a xlink:title=" ">
<polygon fill="#bfbfbf" stroke="black" points="80,-224.5 80,-254.5 284,-254.5 284,-224.5 80,-224.5"/>
<text text-anchor="start" x="88" y="-242.5" font-family="Helvetica,sans-Serif" font-size="10.00">/home/runner/work/Raytracer</text>
<text text-anchor="middle" x="182" y="-231.5" font-family="Helvetica,sans-Serif" font-size="10.00">/Raytracer/src/Images/PixelThread.hpp</text>
</a>
</g>
</g>
<!-- Node2 -->
<g id="node2" class="node">
<title>Node2</title>
<g id="a_node2"><a xlink:href="$a00212.html" xlink:title=" ">
<polygon fill="white" stroke="black" points="0,-168.5 0,-187.5 98,-187.5 98,-168.5 0,-168.5"/>
<text text-anchor="middle" x="49" y="-175.5" font-family="Helvetica,sans-Serif" font-size="10.00">IDisplayable.hpp</text>
</a>
</g>
</g>
<!-- Node1&#45;&gt;Node2 -->
<g id="edge1" class="edge">
<title>Node1&#45;&gt;Node2</title>
<path fill="none" stroke="midnightblue" d="M150.48,-224.4C128.36,-214.51 99.03,-201.38 77.59,-191.79"/>
<polygon fill="midnightblue" stroke="midnightblue" points="78.91,-188.55 68.35,-187.66 76.05,-194.94 78.91,-188.55"/>
</g>
<!-- Node4 -->
<g id="node4" class="node">
<title>Node4</title>
<g id="a_node4"><a xlink:title=" ">
<polygon fill="white" stroke="#bfbfbf" points="77.5,-112.5 77.5,-131.5 124.5,-131.5 124.5,-112.5 77.5,-112.5"/>
<text text-anchor="middle" x="101" y="-119.5" font-family="Helvetica,sans-Serif" font-size="10.00">vector</text>
</a>
</g>
</g>
<!-- Node1&#45;&gt;Node4 -->
<g id="edge16" class="edge">
<title>Node1&#45;&gt;Node4</title>
<path fill="none" stroke="midnightblue" d="M171.49,-224.45C164.01,-214.38 153.76,-200.44 145,-188 133.76,-172.04 121.32,-153.59 112.55,-140.44"/>
<polygon fill="midnightblue" stroke="midnightblue" points="115.33,-138.29 106.87,-131.9 109.5,-142.17 115.33,-138.29"/>
</g>
<!-- Node5 -->
<g id="node5" class="node">
<title>Node5</title>
<g id="a_node5"><a xlink:href="$a00149.html" xlink:title=" ">
<polygon fill="white" stroke="black" points="154.5,-168.5 154.5,-187.5 209.5,-187.5 209.5,-168.5 154.5,-168.5"/>
<text text-anchor="middle" x="182" y="-175.5" font-family="Helvetica,sans-Serif" font-size="10.00">Ray.hpp</text>
</a>
</g>
</g>
<!-- Node1&#45;&gt;Node5 -->
<g id="edge4" class="edge">
<title>Node1&#45;&gt;Node5</title>
<path fill="none" stroke="midnightblue" d="M182,-224.4C182,-216.47 182,-206.46 182,-197.86"/>
<polygon fill="midnightblue" stroke="midnightblue" points="185.5,-197.66 182,-187.66 178.5,-197.66 185.5,-197.66"/>
</g>
<!-- Node10 -->
<g id="node10" class="node">
<title>Node10</title>
<g id="a_node10"><a xlink:href="$a00134.html" xlink:title=" ">
<polygon fill="white" stroke="black" points="238,-112.5 238,-131.5 300,-131.5 300,-112.5 238,-112.5"/>
<text text-anchor="middle" x="269" y="-119.5" font-family="Helvetica,sans-Serif" font-size="10.00">Color.hpp</text>
</a>
</g>
</g>
<!-- Node1&#45;&gt;Node10 -->
<g id="edge10" class="edge">
<title>Node1&#45;&gt;Node10</title>
<path fill="none" stroke="midnightblue" d="M192.67,-224.34C208.77,-202.96 239.22,-162.53 256.4,-139.73"/>
<polygon fill="midnightblue" stroke="midnightblue" points="259.25,-141.76 262.47,-131.67 253.66,-137.55 259.25,-141.76"/>
</g>
<!-- Node13 -->
<g id="node13" class="node">
<title>Node13</title>
<g id="a_node13"><a xlink:title=" ">
<polygon fill="white" stroke="#bfbfbf" points="266.5,-168.5 266.5,-187.5 331.5,-187.5 331.5,-168.5 266.5,-168.5"/>
<text text-anchor="middle" x="299" y="-175.5" font-family="Helvetica,sans-Serif" font-size="10.00">functional</text>
</a>
</g>
</g>
<!-- Node1&#45;&gt;Node13 -->
<g id="edge15" class="edge">
<title>Node1&#45;&gt;Node13</title>
<path fill="none" stroke="midnightblue" d="M209.73,-224.4C228.83,-214.68 254.06,-201.86 272.82,-192.31"/>
<polygon fill="midnightblue" stroke="midnightblue" points="274.65,-195.31 281.98,-187.66 271.48,-189.07 274.65,-195.31"/>
</g>
<!-- Node3 -->
<g id="node3" class="node">
<title>Node3</title>
<g id="a_node3"><a xlink:title=" ">
<polygon fill="white" stroke="#bfbfbf" points="20,-0.5 20,-19.5 78,-19.5 78,-0.5 20,-0.5"/>
<text text-anchor="middle" x="49" y="-7.5" font-family="Helvetica,sans-Serif" font-size="10.00">memory</text>
</a>
</g>
</g>
<!-- Node2&#45;&gt;Node3 -->
<g id="edge2" class="edge">
<title>Node2&#45;&gt;Node3</title>
<path fill="none" stroke="midnightblue" d="M49,-168.08C49,-141.95 49,-65.21 49,-29.58"/>
<polygon fill="midnightblue" stroke="midnightblue" points="52.5,-29.57 49,-19.57 45.5,-29.57 52.5,-29.57"/>
</g>
<!-- Node2&#45;&gt;Node4 -->
<g id="edge3" class="edge">
<title>Node2&#45;&gt;Node4</title>
<path fill="none" stroke="midnightblue" d="M57.59,-168.08C65.16,-160.22 76.38,-148.57 85.51,-139.08"/>
<polygon fill="midnightblue" stroke="midnightblue" points="88.16,-141.38 92.57,-131.75 83.12,-136.53 88.16,-141.38"/>
</g>
<!-- Node6 -->
<g id="node6" class="node">
<title>Node6</title>
<g id="a_node6"><a xlink:href="$a00104.html" xlink:title=" ">
<polygon fill="white" stroke="black" points="142.5,-112.5 142.5,-131.5 219.5,-131.5 219.5,-112.5 142.5,-112.5"/>
<text text-anchor="middle" x="181" y="-119.5" font-family="Helvetica,sans-Serif" font-size="10.00">Vector3f.hpp</text>
</a>
</g>
</g>
<!-- Node5&#45;&gt;Node6 -->
<g id="edge5" class="edge">
<title>Node5&#45;&gt;Node6</title>
<path fill="none" stroke="midnightblue" d="M181.83,-168.08C181.7,-161.01 181.52,-150.86 181.35,-141.99"/>
<polygon fill="midnightblue" stroke="midnightblue" points="184.85,-141.68 181.16,-131.75 177.85,-141.81 184.85,-141.68"/>
</g>
<!-- Node7 -->
<g id="node7" class="node">
<title>Node7</title>
<g id="a_node7"><a xlink:title=" ">
<polygon fill="white" stroke="#bfbfbf" points="181.5,-56.5 181.5,-75.5 238.5,-75.5 238.5,-56.5 181.5,-56.5"/>
<text text-anchor="middle" x="210" y="-63.5" font-family="Helvetica,sans-Serif" font-size="10.00">ostream</text>
</a>
</g>
</g>
<!-- Node6&#45;&gt;Node7 -->
<g id="edge6" class="edge">
<title>Node6&#45;&gt;Node7</title>
<path fill="none" stroke="midnightblue" d="M185.79,-112.08C189.76,-104.69 195.53,-93.95 200.43,-84.81"/>
<polygon fill="midnightblue" stroke="midnightblue" points="203.65,-86.22 205.3,-75.75 197.49,-82.91 203.65,-86.22"/>
</g>
<!-- Node8 -->
<g id="node8" class="node">
<title>Node8</title>
<g id="a_node8"><a xlink:href="$a00218.html" xlink:title=" ">
<polygon fill="white" stroke="black" points="88.5,-56.5 88.5,-75.5 163.5,-75.5 163.5,-56.5 88.5,-56.5"/>
<text text-anchor="middle" x="126" y="-63.5" font-family="Helvetica,sans-Serif" font-size="10.00">ISetting.hpp</text>
</a>
</g>
</g>
<!-- Node6&#45;&gt;Node8 -->
<g id="edge7" class="edge">
<title>Node6&#45;&gt;Node8</title>
<path fill="none" stroke="midnightblue" d="M171.92,-112.08C163.83,-104.14 151.8,-92.34 142.09,-82.8"/>
<polygon fill="midnightblue" stroke="midnightblue" points="144.5,-80.26 134.91,-75.75 139.6,-85.25 144.5,-80.26"/>
</g>
<!-- Node8&#45;&gt;Node3 -->
<g id="edge8" class="edge">
<title>Node8&#45;&gt;Node3</title>
<path fill="none" stroke="midnightblue" d="M113.63,-56.32C101.84,-48.06 83.87,-35.45 69.86,-25.63"/>
<polygon fill="midnightblue" stroke="midnightblue" points="71.54,-22.53 61.34,-19.65 67.52,-28.26 71.54,-22.53"/>
</g>
<!-- Node9 -->
<g id="node9" class="node">
<title>Node9</title>
<g id="a_node9"><a xlink:title=" ">
<polygon fill="white" stroke="#bfbfbf" points="96.5,-0.5 96.5,-19.5 179.5,-19.5 179.5,-0.5 96.5,-0.5"/>
<text text-anchor="middle" x="138" y="-7.5" font-family="Helvetica,sans-Serif" font-size="10.00">libconfig.h++</text>
</a>
</g>
</g>
<!-- Node8&#45;&gt;Node9 -->
<g id="edge9" class="edge">
<title>Node8&#45;&gt;Node9</title>
<path fill="none" stroke="midnightblue" d="M127.98,-56.08C129.57,-48.93 131.86,-38.64 133.85,-29.69"/>
<polygon fill="midnightblue" stroke="midnightblue" points="137.3,-30.27 136.06,-19.75 130.47,-28.75 137.3,-30.27"/>
</g>
<!-- Node10&#45;&gt;Node7 -->
<g id="edge12" class="edge">
<title>Node10&#45;&gt;Node7</title>
<path fill="none" stroke="midnightblue" d="M259.52,-112.32C250.8,-104.34 237.66,-92.31 227.1,-82.65"/>
<polygon fill="midnightblue" stroke="midnightblue" points="229.39,-80 219.65,-75.83 224.67,-85.17 229.39,-80"/>
</g>
<!-- Node10&#45;&gt;Node8 -->
<g id="edge14" class="edge">
<title>Node10&#45;&gt;Node8</title>
<path fill="none" stroke="midnightblue" d="M246.34,-112.44C222.6,-103.48 185.09,-89.31 158.26,-79.18"/>
<polygon fill="midnightblue" stroke="midnightblue" points="159.14,-75.77 148.55,-75.52 156.67,-82.32 159.14,-75.77"/>
</g>
<!-- Node11 -->
<g id="node11" class="node">
<title>Node11</title>
<g id="a_node11"><a xlink:title=" ">
<polygon fill="white" stroke="#bfbfbf" points="412,-56.5 412,-75.5 460,-75.5 460,-56.5 412,-56.5"/>
<text text-anchor="middle" x="436" y="-63.5" font-family="Helvetica,sans-Serif" font-size="10.00">mutex</text>
</a>
</g>
</g>
<!-- Node10&#45;&gt;Node11 -->
<g id="edge11" class="edge">
<title>Node10&#45;&gt;Node11</title>
<path fill="none" stroke="midnightblue" d="M295.46,-112.44C324.34,-103.1 370.66,-88.13 402.16,-77.94"/>
<polygon fill="midnightblue" stroke="midnightblue" points="403.39,-81.22 411.83,-74.82 401.24,-74.56 403.39,-81.22"/>
</g>
<!-- Node12 -->
<g id="node12" class="node">
<title>Node12</title>
<g id="a_node12"><a xlink:title=" ">
<polygon fill="white" stroke="#bfbfbf" points="256.5,-56.5 256.5,-75.5 393.5,-75.5 393.5,-56.5 256.5,-56.5"/>
<text text-anchor="middle" x="325" y="-63.5" font-family="Helvetica,sans-Serif" font-size="10.00">SFML/Graphics/Color.hpp</text>
</a>
</g>
</g>
<!-- Node10&#45;&gt;Node12 -->
<g id="edge13" class="edge">
<title>Node10&#45;&gt;Node12</title>
<path fill="none" stroke="midnightblue" d="M278,-112.32C286.19,-104.42 298.51,-92.55 308.47,-82.94"/>
<polygon fill="midnightblue" stroke="midnightblue" points="311.07,-85.29 315.84,-75.83 306.21,-80.26 311.07,-85.29"/>
</g>
</g>
</svg>
