<?xml version="1.0" encoding="UTF-8" standalone="no"?>
<!DOCTYPE svg PUBLIC "-//W3C//DTD SVG 1.1//EN"
 "http://www.w3.org/Graphics/SVG/1.1/DTD/svg11.dtd">
<!-- Generated by graphviz version 2.43.0 (0)
 -->
<!-- Title: /home/runner/work/Raytracer/Raytracer/src/Plugins/Entities/IEntityCreator.hpp Pages: 1 -->
<svg width="3352pt" height="429pt"
 viewBox="0.00 0.00 3351.50 429.00" xmlns="http://www.w3.org/2000/svg" xmlns:xlink="http://www.w3.org/1999/xlink">
<g id="graph0" class="graph" transform="scale(1 1) rotate(0) translate(4 425)">
<title>/home/runner/work/Raytracer/Raytracer/src/Plugins/Entities/IEntityCreator.hpp</title>
<polygon fill="white" stroke="transparent" points="-4,4 -4,-425 3347.5,-425 3347.5,4 -4,4"/>
<!-- Node1 -->
<g id="node1" class="node">
<title>Node1</title>
<g id="a_node1"><a xlink:title=" ">
<polygon fill="#bfbfbf" stroke="black" points="1652.5,-379.5 1652.5,-420.5 1814.5,-420.5 1814.5,-379.5 1652.5,-379.5"/>
<text text-anchor="start" x="1660.5" y="-408.5" font-family="Helvetica,sans-Serif" font-size="10.00">/home/runner/work/Raytracer</text>
<text text-anchor="start" x="1660.5" y="-397.5" font-family="Helvetica,sans-Serif" font-size="10.00">/Raytracer/src/Plugins/Entities</text>
<text text-anchor="middle" x="1733.5" y="-386.5" font-family="Helvetica,sans-Serif" font-size="10.00">/IEntityCreator.hpp</text>
</a>
</g>
</g>
<!-- Node2 -->
<g id="node2" class="node">
<title>Node2</title>
<g id="a_node2"><a xlink:href="$a00191.html" xlink:title=" ">
<polygon fill="white" stroke="black" points="104.5,-301.5 104.5,-342.5 266.5,-342.5 266.5,-301.5 104.5,-301.5"/>
<text text-anchor="start" x="112.5" y="-330.5" font-family="Helvetica,sans-Serif" font-size="10.00">/home/runner/work/Raytracer</text>
<text text-anchor="start" x="112.5" y="-319.5" font-family="Helvetica,sans-Serif" font-size="10.00">/Raytracer/src/Plugins/Entities</text>
<text text-anchor="middle" x="185.5" y="-308.5" font-family="Helvetica,sans-Serif" font-size="10.00">/EntityHandler.hpp</text>
</a>
</g>
</g>
<!-- Node1&#45;&gt;Node2 -->
<g id="edge1" class="edge">
<title>Node1&#45;&gt;Node2</title>
<path fill="none" stroke="midnightblue" d="M1641.82,-397.64C1365.19,-393.2 541.52,-377.38 275.5,-343 272.64,-342.63 269.74,-342.21 266.82,-341.76"/>
<polygon fill="midnightblue" stroke="midnightblue" points="1642.16,-401.15 1652.22,-397.81 1642.28,-394.15 1642.16,-401.15"/>
</g>
<!-- Node11 -->
<g id="node11" class="node">
<title>Node11</title>
<g id="a_node11"><a xlink:href="$a00257.html" xlink:title=" ">
<polygon fill="white" stroke="black" points="285,-301.5 285,-342.5 474,-342.5 474,-301.5 285,-301.5"/>
<text text-anchor="start" x="293" y="-330.5" font-family="Helvetica,sans-Serif" font-size="10.00">/home/runner/work/Raytracer</text>
<text text-anchor="start" x="293" y="-319.5" font-family="Helvetica,sans-Serif" font-size="10.00">/Raytracer/PluginsExt/AmbientLight</text>
<text text-anchor="middle" x="379.5" y="-308.5" font-family="Helvetica,sans-Serif" font-size="10.00">/AmbientLightCreator.hpp</text>
</a>
</g>
</g>
<!-- Node1&#45;&gt;Node11 -->
<g id="edge12" class="edge">
<title>Node1&#45;&gt;Node11</title>
<path fill="none" stroke="midnightblue" d="M1642.16,-399.44C1435.2,-399.44 914.97,-393.88 483.5,-343 480.4,-342.63 477.25,-342.23 474.07,-341.79"/>
<polygon fill="midnightblue" stroke="midnightblue" points="1642.37,-402.94 1652.37,-399.43 1642.37,-395.94 1642.37,-402.94"/>
</g>
<!-- Node12 -->
<g id="node12" class="node">
<title>Node12</title>
<g id="a_node12"><a xlink:href="$a00275.html" xlink:title=" ">
<polygon fill="white" stroke="black" points="492.5,-301.5 492.5,-342.5 654.5,-342.5 654.5,-301.5 492.5,-301.5"/>
<text text-anchor="start" x="500.5" y="-330.5" font-family="Helvetica,sans-Serif" font-size="10.00">/home/runner/work/Raytracer</text>
<text text-anchor="start" x="500.5" y="-319.5" font-family="Helvetica,sans-Serif" font-size="10.00">/Raytracer/PluginsExt/Camera</text>
<text text-anchor="middle" x="573.5" y="-308.5" font-family="Helvetica,sans-Serif" font-size="10.00">/Basic/CameraCreator.hpp</text>
</a>
</g>
</g>
<!-- Node1&#45;&gt;Node12 -->
<g id="edge13" class="edge">
<title>Node1&#45;&gt;Node12</title>
<path fill="none" stroke="midnightblue" d="M1641.94,-399.32C1456.43,-398.85 1023.25,-392.04 663.5,-343 660.65,-342.61 657.75,-342.18 654.83,-341.71"/>
<polygon fill="midnightblue" stroke="midnightblue" points="1642.19,-402.82 1652.2,-399.34 1642.2,-395.82 1642.19,-402.82"/>
</g>
<!-- Node13 -->
<g id="node13" class="node">
<title>Node13</title>
<g id="a_node13"><a xlink:href="$a00281.html" xlink:title=" ">
<polygon fill="white" stroke="black" points="672.5,-301.5 672.5,-342.5 858.5,-342.5 858.5,-301.5 672.5,-301.5"/>
<text text-anchor="start" x="680.5" y="-330.5" font-family="Helvetica,sans-Serif" font-size="10.00">/home/runner/work/Raytracer</text>
<text text-anchor="start" x="680.5" y="-319.5" font-family="Helvetica,sans-Serif" font-size="10.00">/Raytracer/PluginsExt/Camera</text>
<text text-anchor="middle" x="765.5" y="-308.5" font-family="Helvetica,sans-Serif" font-size="10.00">/Cluster/CameraClusterCreator.hpp</text>
</a>
</g>
</g>
<!-- Node1&#45;&gt;Node13 -->
<g id="edge14" class="edge">
<title>Node1&#45;&gt;Node13</title>
<path fill="none" stroke="midnightblue" d="M1642.22,-396.9C1484.06,-392.42 1149.09,-379.18 868.5,-343 865.25,-342.58 861.94,-342.12 858.61,-341.63"/>
<polygon fill="midnightblue" stroke="midnightblue" points="1642.28,-400.41 1652.37,-397.19 1642.48,-393.41 1642.28,-400.41"/>
</g>
<!-- Node14 -->
<g id="node14" class="node">
<title>Node14</title>
<g id="a_node14"><a xlink:href="$a00290.html" xlink:title=" ">
<polygon fill="white" stroke="black" points="877,-301.5 877,-342.5 1086,-342.5 1086,-301.5 877,-301.5"/>
<text text-anchor="start" x="885" y="-330.5" font-family="Helvetica,sans-Serif" font-size="10.00">/home/runner/work/Raytracer</text>
<text text-anchor="start" x="885" y="-319.5" font-family="Helvetica,sans-Serif" font-size="10.00">/Raytracer/PluginsExt/Camera</text>
<text text-anchor="middle" x="981.5" y="-308.5" font-family="Helvetica,sans-Serif" font-size="10.00">/FullCustom/CameraCustomCreator.hpp</text>
</a>
</g>
</g>
<!-- Node1&#45;&gt;Node14 -->
<g id="edge15" class="edge">
<title>Node1&#45;&gt;Node14</title>
<path fill="none" stroke="midnightblue" d="M1642.22,-393.47C1518.14,-385.38 1289.45,-368.48 1095.5,-343 1092.41,-342.59 1089.28,-342.16 1086.12,-341.71"/>
<polygon fill="midnightblue" stroke="midnightblue" points="1642.23,-396.98 1652.43,-394.13 1642.68,-389.99 1642.23,-396.98"/>
</g>
<!-- Node15 -->
<g id="node15" class="node">
<title>Node15</title>
<g id="a_node15"><a xlink:href="$a00305.html" xlink:title=" ">
<polygon fill="white" stroke="black" points="1104,-301.5 1104,-342.5 1263,-342.5 1263,-301.5 1104,-301.5"/>
<text text-anchor="start" x="1112" y="-330.5" font-family="Helvetica,sans-Serif" font-size="10.00">/home/runner/work/Raytracer</text>
<text text-anchor="start" x="1112" y="-319.5" font-family="Helvetica,sans-Serif" font-size="10.00">/Raytracer/PluginsExt/Cone</text>
<text text-anchor="middle" x="1183.5" y="-308.5" font-family="Helvetica,sans-Serif" font-size="10.00">/ConeCreator.hpp</text>
</a>
</g>
</g>
<!-- Node1&#45;&gt;Node15 -->
<g id="edge16" class="edge">
<title>Node1&#45;&gt;Node15</title>
<path fill="none" stroke="midnightblue" d="M1642.39,-390.65C1549.11,-381.47 1400.13,-365.04 1272.5,-343 1269.53,-342.49 1266.52,-341.94 1263.48,-341.37"/>
<polygon fill="midnightblue" stroke="midnightblue" points="1642.07,-394.14 1652.36,-391.63 1642.75,-387.17 1642.07,-394.14"/>
</g>
<!-- Node16 -->
<g id="node16" class="node">
<title>Node16</title>
<g id="a_node16"><a xlink:href="$a00311.html" xlink:title=" ">
<polygon fill="white" stroke="black" points="1281.5,-301.5 1281.5,-342.5 1445.5,-342.5 1445.5,-301.5 1281.5,-301.5"/>
<text text-anchor="start" x="1289.5" y="-330.5" font-family="Helvetica,sans-Serif" font-size="10.00">/home/runner/work/Raytracer</text>
<text text-anchor="start" x="1289.5" y="-319.5" font-family="Helvetica,sans-Serif" font-size="10.00">/Raytracer/PluginsExt/Cylinder</text>
<text text-anchor="middle" x="1363.5" y="-308.5" font-family="Helvetica,sans-Serif" font-size="10.00">/CylinderCreator.hpp</text>
</a>
</g>
</g>
<!-- Node1&#45;&gt;Node16 -->
<g id="edge17" class="edge">
<title>Node1&#45;&gt;Node16</title>
<path fill="none" stroke="midnightblue" d="M1642.29,-380.99C1587.99,-370.18 1517.76,-356.04 1455.5,-343 1452.3,-342.33 1449.04,-341.64 1445.75,-340.94"/>
<polygon fill="midnightblue" stroke="midnightblue" points="1641.74,-384.45 1652.23,-382.97 1643.11,-377.59 1641.74,-384.45"/>
</g>
<!-- Node17 -->
<g id="node17" class="node">
<title>Node17</title>
<g id="a_node17"><a xlink:href="$a00317.html" xlink:title=" ">
<polygon fill="white" stroke="black" points="1464,-301.5 1464,-342.5 1623,-342.5 1623,-301.5 1464,-301.5"/>
<text text-anchor="start" x="1472" y="-330.5" font-family="Helvetica,sans-Serif" font-size="10.00">/home/runner/work/Raytracer</text>
<text text-anchor="start" x="1472" y="-319.5" font-family="Helvetica,sans-Serif" font-size="10.00">/Raytracer/PluginsExt/Disk</text>
<text text-anchor="middle" x="1543.5" y="-308.5" font-family="Helvetica,sans-Serif" font-size="10.00">/DiskCreator.hpp</text>
</a>
</g>
</g>
<!-- Node1&#45;&gt;Node17 -->
<g id="edge18" class="edge">
<title>Node1&#45;&gt;Node17</title>
<path fill="none" stroke="midnightblue" d="M1675.02,-375.61C1648.5,-365 1617.5,-352.6 1592.26,-342.51"/>
<polygon fill="midnightblue" stroke="midnightblue" points="1673.99,-378.96 1684.57,-379.43 1676.59,-372.46 1673.99,-378.96"/>
</g>
<!-- Node18 -->
<g id="node18" class="node">
<title>Node18</title>
<g id="a_node18"><a xlink:href="$a00323.html" xlink:title=" ">
<polygon fill="white" stroke="black" points="1641,-301.5 1641,-342.5 1826,-342.5 1826,-301.5 1641,-301.5"/>
<text text-anchor="start" x="1649" y="-330.5" font-family="Helvetica,sans-Serif" font-size="10.00">/home/runner/work/Raytracer</text>
<text text-anchor="start" x="1649" y="-319.5" font-family="Helvetica,sans-Serif" font-size="10.00">/Raytracer/PluginsExt/LimitedCone</text>
<text text-anchor="middle" x="1733.5" y="-308.5" font-family="Helvetica,sans-Serif" font-size="10.00">/LimitedConeCreator.hpp</text>
</a>
</g>
</g>
<!-- Node1&#45;&gt;Node18 -->
<g id="edge19" class="edge">
<title>Node1&#45;&gt;Node18</title>
<path fill="none" stroke="midnightblue" d="M1733.5,-369.3C1733.5,-360.3 1733.5,-350.65 1733.5,-342.51"/>
<polygon fill="midnightblue" stroke="midnightblue" points="1730,-369.43 1733.5,-379.43 1737,-369.43 1730,-369.43"/>
</g>
<!-- Node19 -->
<g id="node19" class="node">
<title>Node19</title>
<g id="a_node19"><a xlink:href="$a00329.html" xlink:title=" ">
<polygon fill="white" stroke="black" points="1844,-301.5 1844,-342.5 2045,-342.5 2045,-301.5 1844,-301.5"/>
<text text-anchor="start" x="1852" y="-330.5" font-family="Helvetica,sans-Serif" font-size="10.00">/home/runner/work/Raytracer</text>
<text text-anchor="start" x="1852" y="-319.5" font-family="Helvetica,sans-Serif" font-size="10.00">/Raytracer/PluginsExt/LimitedCylinder</text>
<text text-anchor="middle" x="1944.5" y="-308.5" font-family="Helvetica,sans-Serif" font-size="10.00">/LimitedCylinderCreator.hpp</text>
</a>
</g>
</g>
<!-- Node1&#45;&gt;Node19 -->
<g id="edge20" class="edge">
<title>Node1&#45;&gt;Node19</title>
<path fill="none" stroke="midnightblue" d="M1797.28,-376.03C1826.99,-365.33 1861.95,-352.73 1890.35,-342.51"/>
<polygon fill="midnightblue" stroke="midnightblue" points="1796.06,-372.75 1787.84,-379.43 1798.43,-379.33 1796.06,-372.75"/>
</g>
<!-- Node20 -->
<g id="node20" class="node">
<title>Node20</title>
<g id="a_node20"><a xlink:href="$a00335.html" xlink:title=" ">
<polygon fill="white" stroke="black" points="2063.5,-301.5 2063.5,-342.5 2251.5,-342.5 2251.5,-301.5 2063.5,-301.5"/>
<text text-anchor="start" x="2071.5" y="-330.5" font-family="Helvetica,sans-Serif" font-size="10.00">/home/runner/work/Raytracer</text>
<text text-anchor="start" x="2071.5" y="-319.5" font-family="Helvetica,sans-Serif" font-size="10.00">/Raytracer/PluginsExt/LimitedPlane</text>
<text text-anchor="middle" x="2157.5" y="-308.5" font-family="Helvetica,sans-Serif" font-size="10.00">/LimitedPlaneCreator.hpp</text>
</a>
</g>
</g>
<!-- Node1&#45;&gt;Node20 -->
<g id="edge21" class="edge">
<title>Node1&#45;&gt;Node20</title>
<path fill="none" stroke="midnightblue" d="M1824.82,-383.55C1889.1,-372.55 1977.14,-357.26 2054.5,-343 2057.46,-342.46 2060.46,-341.9 2063.49,-341.33"/>
<polygon fill="midnightblue" stroke="midnightblue" points="1823.98,-380.14 1814.71,-385.27 1825.16,-387.04 1823.98,-380.14"/>
</g>
<!-- Node21 -->
<g id="node21" class="node">
<title>Node21</title>
<g id="a_node21"><a xlink:href="$a00353.html" xlink:title=" ">
<polygon fill="white" stroke="black" points="2270,-301.5 2270,-342.5 2429,-342.5 2429,-301.5 2270,-301.5"/>
<text text-anchor="start" x="2278" y="-330.5" font-family="Helvetica,sans-Serif" font-size="10.00">/home/runner/work/Raytracer</text>
<text text-anchor="start" x="2278" y="-319.5" font-family="Helvetica,sans-Serif" font-size="10.00">/Raytracer/PluginsExt/Plane</text>
<text text-anchor="middle" x="2349.5" y="-308.5" font-family="Helvetica,sans-Serif" font-size="10.00">/PlaneCreator.hpp</text>
</a>
</g>
</g>
<!-- Node1&#45;&gt;Node21 -->
<g id="edge22" class="edge">
<title>Node1&#45;&gt;Node21</title>
<path fill="none" stroke="midnightblue" d="M1824.98,-392.49C1930.43,-384.25 2108.73,-368.03 2260.5,-343 2263.47,-342.51 2266.49,-341.98 2269.53,-341.43"/>
<polygon fill="midnightblue" stroke="midnightblue" points="1824.39,-389.03 1814.69,-393.29 1824.93,-396.01 1824.39,-389.03"/>
</g>
<!-- Node22 -->
<g id="node22" class="node">
<title>Node22</title>
<g id="a_node22"><a xlink:href="$a00359.html" xlink:title=" ">
<polygon fill="white" stroke="black" points="2447,-301.5 2447,-342.5 2620,-342.5 2620,-301.5 2447,-301.5"/>
<text text-anchor="start" x="2455" y="-330.5" font-family="Helvetica,sans-Serif" font-size="10.00">/home/runner/work/Raytracer</text>
<text text-anchor="start" x="2455" y="-319.5" font-family="Helvetica,sans-Serif" font-size="10.00">/Raytracer/PluginsExt/PointLight</text>
<text text-anchor="middle" x="2533.5" y="-308.5" font-family="Helvetica,sans-Serif" font-size="10.00">/PointLightCreator.hpp</text>
</a>
</g>
</g>
<!-- Node1&#45;&gt;Node22 -->
<g id="edge23" class="edge">
<title>Node1&#45;&gt;Node22</title>
<path fill="none" stroke="midnightblue" d="M1825.04,-395.48C1959.91,-389.45 2219.69,-374.59 2438.5,-343 2441.25,-342.6 2444.04,-342.17 2446.86,-341.72"/>
<polygon fill="midnightblue" stroke="midnightblue" points="1824.6,-392 1814.76,-395.93 1824.91,-398.99 1824.6,-392"/>
</g>
<!-- Node23 -->
<g id="node23" class="node">
<title>Node23</title>
<g id="a_node23"><a xlink:href="$a00371.html" xlink:title=" ">
<polygon fill="white" stroke="black" points="2638,-301.5 2638,-342.5 2797,-342.5 2797,-301.5 2638,-301.5"/>
<text text-anchor="start" x="2646" y="-330.5" font-family="Helvetica,sans-Serif" font-size="10.00">/home/runner/work/Raytracer</text>
<text text-anchor="start" x="2646" y="-319.5" font-family="Helvetica,sans-Serif" font-size="10.00">/Raytracer/PluginsExt/Sphere</text>
<text text-anchor="middle" x="2717.5" y="-308.5" font-family="Helvetica,sans-Serif" font-size="10.00">/SphereCreator.hpp</text>
</a>
</g>
</g>
<!-- Node1&#45;&gt;Node23 -->
<g id="edge24" class="edge">
<title>Node1&#45;&gt;Node23</title>
<path fill="none" stroke="midnightblue" d="M1825.01,-398.13C1987.69,-395.51 2337.59,-385.01 2629.5,-343 2632.29,-342.6 2635.13,-342.15 2637.98,-341.68"/>
<polygon fill="midnightblue" stroke="midnightblue" points="1824.51,-394.64 1814.57,-398.29 1824.62,-401.64 1824.51,-394.64"/>
</g>
<!-- Node24 -->
<g id="node24" class="node">
<title>Node24</title>
<g id="a_node24"><a xlink:href="$a00377.html" xlink:title=" ">
<polygon fill="white" stroke="black" points="2815.5,-301.5 2815.5,-342.5 2985.5,-342.5 2985.5,-301.5 2815.5,-301.5"/>
<text text-anchor="start" x="2823.5" y="-330.5" font-family="Helvetica,sans-Serif" font-size="10.00">/home/runner/work/Raytracer</text>
<text text-anchor="start" x="2823.5" y="-319.5" font-family="Helvetica,sans-Serif" font-size="10.00">/Raytracer/PluginsExt/SpotLight</text>
<text text-anchor="middle" x="2900.5" y="-308.5" font-family="Helvetica,sans-Serif" font-size="10.00">/SpotLightCreator.hpp</text>
</a>
</g>
</g>
<!-- Node1&#45;&gt;Node24 -->
<g id="edge25" class="edge">
<title>Node1&#45;&gt;Node24</title>
<path fill="none" stroke="midnightblue" d="M1824.93,-399.07C2010.69,-398.14 2445.29,-390.55 2806.5,-343 2809.39,-342.62 2812.33,-342.2 2815.3,-341.74"/>
<polygon fill="midnightblue" stroke="midnightblue" points="1824.64,-395.57 1814.66,-399.11 1824.67,-402.57 1824.64,-395.57"/>
</g>
<!-- Node25 -->
<g id="node25" class="node">
<title>Node25</title>
<g id="a_node25"><a xlink:href="$a00383.html" xlink:title=" ">
<polygon fill="white" stroke="black" points="3004,-301.5 3004,-342.5 3163,-342.5 3163,-301.5 3004,-301.5"/>
<text text-anchor="start" x="3012" y="-330.5" font-family="Helvetica,sans-Serif" font-size="10.00">/home/runner/work/Raytracer</text>
<text text-anchor="start" x="3012" y="-319.5" font-family="Helvetica,sans-Serif" font-size="10.00">/Raytracer/PluginsExt/Torus</text>
<text text-anchor="middle" x="3083.5" y="-308.5" font-family="Helvetica,sans-Serif" font-size="10.00">/TorusCreator.hpp</text>
</a>
</g>
</g>
<!-- Node1&#45;&gt;Node25 -->
<g id="edge26" class="edge">
<title>Node1&#45;&gt;Node25</title>
<path fill="none" stroke="midnightblue" d="M1824.74,-397.04C2074.92,-391.34 2768.21,-373.21 2994.5,-343 2997.48,-342.6 3000.51,-342.15 3003.57,-341.66"/>
<polygon fill="midnightblue" stroke="midnightblue" points="1824.51,-393.55 1814.59,-397.27 1824.67,-400.54 1824.51,-393.55"/>
</g>
<!-- Node26 -->
<g id="node26" class="node">
<title>Node26</title>
<g id="a_node26"><a xlink:href="$a00395.html" xlink:title=" ">
<polygon fill="white" stroke="black" points="3181.5,-301.5 3181.5,-342.5 3343.5,-342.5 3343.5,-301.5 3181.5,-301.5"/>
<text text-anchor="start" x="3189.5" y="-330.5" font-family="Helvetica,sans-Serif" font-size="10.00">/home/runner/work/Raytracer</text>
<text text-anchor="start" x="3189.5" y="-319.5" font-family="Helvetica,sans-Serif" font-size="10.00">/Raytracer/PluginsExt/Triangle</text>
<text text-anchor="middle" x="3262.5" y="-308.5" font-family="Helvetica,sans-Serif" font-size="10.00">/TriangleCreator.hpp</text>
</a>
</g>
</g>
<!-- Node1&#45;&gt;Node26 -->
<g id="edge27" class="edge">
<title>Node1&#45;&gt;Node26</title>
<path fill="none" stroke="midnightblue" d="M1824.94,-397.59C2098.91,-393.03 2910.26,-376.96 3172.5,-343 3175.36,-342.63 3178.26,-342.21 3181.18,-341.76"/>
<polygon fill="midnightblue" stroke="midnightblue" points="1824.58,-394.1 1814.64,-397.76 1824.7,-401.1 1824.58,-394.1"/>
</g>
<!-- Node3 -->
<g id="node3" class="node">
<title>Node3</title>
<g id="a_node3"><a xlink:href="$a00131.html" xlink:title=" ">
<polygon fill="white" stroke="black" points="160,-223.5 160,-264.5 319,-264.5 319,-223.5 160,-223.5"/>
<text text-anchor="start" x="168" y="-252.5" font-family="Helvetica,sans-Serif" font-size="10.00">/home/runner/work/Raytracer</text>
<text text-anchor="start" x="168" y="-241.5" font-family="Helvetica,sans-Serif" font-size="10.00">/Raytracer/src/Factories</text>
<text text-anchor="middle" x="239.5" y="-230.5" font-family="Helvetica,sans-Serif" font-size="10.00">/EntityFactory.hpp</text>
</a>
</g>
</g>
<!-- Node2&#45;&gt;Node3 -->
<g id="edge2" class="edge">
<title>Node2&#45;&gt;Node3</title>
<path fill="none" stroke="midnightblue" d="M205.36,-293.05C212.1,-283.57 219.47,-273.18 225.64,-264.51"/>
<polygon fill="midnightblue" stroke="midnightblue" points="202.35,-291.25 199.41,-301.43 208.05,-295.3 202.35,-291.25"/>
</g>
<!-- Node4 -->
<g id="node4" class="node">
<title>Node4</title>
<g id="a_node4"><a xlink:href="$a00194.html" xlink:title=" ">
<polygon fill="white" stroke="black" points="51.5,-145.5 51.5,-186.5 213.5,-186.5 213.5,-145.5 51.5,-145.5"/>
<text text-anchor="start" x="59.5" y="-174.5" font-family="Helvetica,sans-Serif" font-size="10.00">/home/runner/work/Raytracer</text>
<text text-anchor="start" x="59.5" y="-163.5" font-family="Helvetica,sans-Serif" font-size="10.00">/Raytracer/src/Plugins/Entities</text>
<text text-anchor="middle" x="132.5" y="-152.5" font-family="Helvetica,sans-Serif" font-size="10.00">/EntityLoader.hpp</text>
</a>
</g>
</g>
<!-- Node2&#45;&gt;Node4 -->
<g id="edge11" class="edge">
<title>Node2&#45;&gt;Node4</title>
<path fill="none" stroke="midnightblue" d="M165.11,-292.98C159.64,-284.35 154.22,-274.6 150.5,-265 140.43,-239.04 135.9,-206.97 133.93,-186.74"/>
<polygon fill="midnightblue" stroke="midnightblue" points="162.31,-295.09 170.75,-301.5 168.15,-291.23 162.31,-295.09"/>
</g>
<!-- Node3&#45;&gt;Node4 -->
<g id="edge3" class="edge">
<title>Node3&#45;&gt;Node4</title>
<path fill="none" stroke="midnightblue" d="M203.79,-217.64C189.5,-207.49 173.3,-195.98 159.96,-186.51"/>
<polygon fill="midnightblue" stroke="midnightblue" points="201.77,-220.49 211.94,-223.43 205.82,-214.78 201.77,-220.49"/>
</g>
<!-- Node7 -->
<g id="node7" class="node">
<title>Node7</title>
<g id="a_node7"><a xlink:href="$a00245.html" xlink:title=" ">
<polygon fill="white" stroke="black" points="260,-151 260,-181 435,-181 435,-151 260,-151"/>
<text text-anchor="start" x="268" y="-169" font-family="Helvetica,sans-Serif" font-size="10.00">/home/runner/work/Raytracer</text>
<text text-anchor="middle" x="347.5" y="-158" font-family="Helvetica,sans-Serif" font-size="10.00">/Raytracer/src/Scenes/Scene.hpp</text>
</a>
</g>
</g>
<!-- Node3&#45;&gt;Node7 -->
<g id="edge6" class="edge">
<title>Node3&#45;&gt;Node7</title>
<path fill="none" stroke="midnightblue" d="M275.52,-217.66C292.75,-205.53 312.75,-191.45 327.29,-181.23"/>
<polygon fill="midnightblue" stroke="midnightblue" points="273.48,-214.81 267.31,-223.43 277.51,-220.54 273.48,-214.81"/>
</g>
<!-- Node5 -->
<g id="node5" class="node">
<title>Node5</title>
<g id="a_node5"><a xlink:href="$a00248.html" xlink:title=" ">
<polygon fill="white" stroke="black" points="0,-73 0,-103 207,-103 207,-73 0,-73"/>
<text text-anchor="start" x="8" y="-91" font-family="Helvetica,sans-Serif" font-size="10.00">/home/runner/work/Raytracer</text>
<text text-anchor="middle" x="103.5" y="-80" font-family="Helvetica,sans-Serif" font-size="10.00">/Raytracer/src/Scenes/SceneLoader.hpp</text>
</a>
</g>
</g>
<!-- Node4&#45;&gt;Node5 -->
<g id="edge4" class="edge">
<title>Node4&#45;&gt;Node5</title>
<path fill="none" stroke="midnightblue" d="M121.42,-135.96C117.14,-124.75 112.44,-112.43 108.93,-103.23"/>
<polygon fill="midnightblue" stroke="midnightblue" points="118.2,-137.33 125.03,-145.43 124.74,-134.84 118.2,-137.33"/>
</g>
<!-- Node6 -->
<g id="node6" class="node">
<title>Node6</title>
<g id="a_node6"><a xlink:href="$a00092.html" xlink:title=" ">
<polygon fill="white" stroke="black" points="78,-0.5 78,-30.5 261,-30.5 261,-0.5 78,-0.5"/>
<text text-anchor="start" x="86" y="-18.5" font-family="Helvetica,sans-Serif" font-size="10.00">/home/runner/work/Raytracer</text>
<text text-anchor="middle" x="169.5" y="-7.5" font-family="Helvetica,sans-Serif" font-size="10.00">/Raytracer/src/Display/Display.hpp</text>
</a>
</g>
</g>
<!-- Node5&#45;&gt;Node6 -->
<g id="edge5" class="edge">
<title>Node5&#45;&gt;Node6</title>
<path fill="none" stroke="midnightblue" d="M123.75,-65.36C134.29,-54.11 146.86,-40.68 156.16,-30.75"/>
<polygon fill="midnightblue" stroke="midnightblue" points="121.14,-63.04 116.86,-72.73 126.25,-67.83 121.14,-63.04"/>
</g>
<!-- Node7&#45;&gt;Node6 -->
<g id="edge7" class="edge">
<title>Node7&#45;&gt;Node6</title>
<path fill="none" stroke="midnightblue" d="M310.74,-146.08C292.96,-136.14 271.78,-123.11 254.5,-109 252.47,-107.34 205.67,-56.14 182.4,-30.64"/>
<polygon fill="midnightblue" stroke="midnightblue" points="309.24,-149.25 319.69,-150.98 312.61,-143.11 309.24,-149.25"/>
</g>
<!-- Node8 -->
<g id="node8" class="node">
<title>Node8</title>
<g id="a_node8"><a xlink:href="$a00098.html" xlink:title=" ">
<polygon fill="white" stroke="black" points="263.5,-67.5 263.5,-108.5 431.5,-108.5 431.5,-67.5 263.5,-67.5"/>
<text text-anchor="start" x="271.5" y="-96.5" font-family="Helvetica,sans-Serif" font-size="10.00">/home/runner/work/Raytracer</text>
<text text-anchor="start" x="271.5" y="-85.5" font-family="Helvetica,sans-Serif" font-size="10.00">/Raytracer/src/Display/Modules</text>
<text text-anchor="middle" x="347.5" y="-74.5" font-family="Helvetica,sans-Serif" font-size="10.00">/CanvasModule.hpp</text>
</a>
</g>
</g>
<!-- Node7&#45;&gt;Node8 -->
<g id="edge8" class="edge">
<title>Node7&#45;&gt;Node8</title>
<path fill="none" stroke="midnightblue" d="M347.5,-140.66C347.5,-130.33 347.5,-118.44 347.5,-108.68"/>
<polygon fill="midnightblue" stroke="midnightblue" points="344,-140.7 347.5,-150.7 351,-140.71 344,-140.7"/>
</g>
<!-- Node9 -->
<g id="node9" class="node">
<title>Node9</title>
<g id="a_node9"><a xlink:href="$a00101.html" xlink:title=" ">
<polygon fill="white" stroke="black" points="449.5,-67.5 449.5,-108.5 617.5,-108.5 617.5,-67.5 449.5,-67.5"/>
<text text-anchor="start" x="457.5" y="-96.5" font-family="Helvetica,sans-Serif" font-size="10.00">/home/runner/work/Raytracer</text>
<text text-anchor="start" x="457.5" y="-85.5" font-family="Helvetica,sans-Serif" font-size="10.00">/Raytracer/src/Display/Modules</text>
<text text-anchor="middle" x="533.5" y="-74.5" font-family="Helvetica,sans-Serif" font-size="10.00">/ProgressModule.hpp</text>
</a>
</g>
</g>
<!-- Node7&#45;&gt;Node9 -->
<g id="edge9" class="edge">
<title>Node7&#45;&gt;Node9</title>
<path fill="none" stroke="midnightblue" d="M391.66,-146.96C419.89,-135.42 456.51,-120.46 485.46,-108.63"/>
<polygon fill="midnightblue" stroke="midnightblue" points="389.98,-143.86 382.05,-150.88 392.63,-150.34 389.98,-143.86"/>
</g>
<!-- Node10 -->
<g id="node10" class="node">
<title>Node10</title>
<g id="a_node10"><a xlink:href="$a00182.html" xlink:title=" ">
<polygon fill="white" stroke="black" points="635,-73 635,-103 794,-103 794,-73 635,-73"/>
<text text-anchor="start" x="643" y="-91" font-family="Helvetica,sans-Serif" font-size="10.00">/home/runner/work/Raytracer</text>
<text text-anchor="middle" x="714.5" y="-80" font-family="Helvetica,sans-Serif" font-size="10.00">/Raytracer/src/Main.hpp</text>
</a>
</g>
</g>
<!-- Node7&#45;&gt;Node10 -->
<g id="edge10" class="edge">
<title>Node7&#45;&gt;Node10</title>
<path fill="none" stroke="midnightblue" d="M430.01,-149.01C485.61,-138.09 560.55,-123.11 626.5,-109 635.23,-107.13 644.44,-105.1 653.48,-103.08"/>
<polygon fill="midnightblue" stroke="midnightblue" points="429,-145.64 419.86,-151 430.35,-152.51 429,-145.64"/>
</g>
</g>
</svg>
