<?xml version="1.0" encoding="UTF-8" standalone="no"?>
<!DOCTYPE svg PUBLIC "-//W3C//DTD SVG 1.1//EN"
 "http://www.w3.org/Graphics/SVG/1.1/DTD/svg11.dtd">
<!-- Generated by graphviz version 2.43.0 (0)
 -->
<!-- Title: /home/runner/work/Raytracer/Raytracer/src/Plugins/Materials/IMaterialCreator.hpp Pages: 1 -->
<svg width="522pt" height="330pt"
 viewBox="0.00 0.00 521.50 330.00" xmlns="http://www.w3.org/2000/svg" xmlns:xlink="http://www.w3.org/1999/xlink">
<g id="graph0" class="graph" transform="scale(1 1) rotate(0) translate(4 326)">
<title>/home/runner/work/Raytracer/Raytracer/src/Plugins/Materials/IMaterialCreator.hpp</title>
<polygon fill="white" stroke="transparent" points="-4,4 -4,-326 517.5,-326 517.5,4 -4,4"/>
<!-- Node1 -->
<g id="node1" class="node">
<title>Node1</title>
<g id="a_node1"><a xlink:title=" ">
<polygon fill="#bfbfbf" stroke="black" points="269.5,-280.5 269.5,-321.5 440.5,-321.5 440.5,-280.5 269.5,-280.5"/>
<text text-anchor="start" x="277.5" y="-309.5" font-family="Helvetica,sans-Serif" font-size="10.00">/home/runner/work/Raytracer</text>
<text text-anchor="start" x="277.5" y="-298.5" font-family="Helvetica,sans-Serif" font-size="10.00">/Raytracer/src/Plugins/Materials</text>
<text text-anchor="middle" x="355" y="-287.5" font-family="Helvetica,sans-Serif" font-size="10.00">/IMaterialCreator.hpp</text>
</a>
</g>
</g>
<!-- Node2 -->
<g id="node2" class="node">
<title>Node2</title>
<g id="a_node2"><a xlink:title=" ">
<polygon fill="white" stroke="#bfbfbf" points="15,-0.5 15,-19.5 73,-19.5 73,-0.5 15,-0.5"/>
<text text-anchor="middle" x="44" y="-7.5" font-family="Helvetica,sans-Serif" font-size="10.00">memory</text>
</a>
</g>
</g>
<!-- Node1&#45;&gt;Node2 -->
<g id="edge1" class="edge">
<title>Node1&#45;&gt;Node2</title>
<path fill="none" stroke="midnightblue" d="M269.06,-288.15C164,-271.19 0,-235.65 0,-179 0,-179 0,-179 0,-121 0,-86.04 19.4,-49.01 32.43,-28.07"/>
<polygon fill="midnightblue" stroke="midnightblue" points="35.39,-29.95 37.88,-19.65 29.51,-26.15 35.39,-29.95"/>
</g>
<!-- Node3 -->
<g id="node3" class="node">
<title>Node3</title>
<g id="a_node3"><a xlink:href="$a00077.html" xlink:title=" ">
<polygon fill="white" stroke="black" points="222.5,-224.5 222.5,-243.5 303.5,-243.5 303.5,-224.5 222.5,-224.5"/>
<text text-anchor="middle" x="263" y="-231.5" font-family="Helvetica,sans-Serif" font-size="10.00">IMaterial.hpp</text>
</a>
</g>
</g>
<!-- Node1&#45;&gt;Node3 -->
<g id="edge2" class="edge">
<title>Node1&#45;&gt;Node3</title>
<path fill="none" stroke="midnightblue" d="M327.4,-280.5C313.29,-270.53 296.42,-258.61 283.49,-249.48"/>
<polygon fill="midnightblue" stroke="midnightblue" points="285.43,-246.56 275.25,-243.65 281.39,-252.28 285.43,-246.56"/>
</g>
<!-- Node7 -->
<g id="node7" class="node">
<title>Node7</title>
<g id="a_node7"><a xlink:href="$a00206.html" xlink:title=" ">
<polygon fill="white" stroke="black" points="255.5,-56.5 255.5,-75.5 330.5,-75.5 330.5,-56.5 255.5,-56.5"/>
<text text-anchor="middle" x="293" y="-63.5" font-family="Helvetica,sans-Serif" font-size="10.00">ISetting.hpp</text>
</a>
</g>
</g>
<!-- Node1&#45;&gt;Node7 -->
<g id="edge21" class="edge">
<title>Node1&#45;&gt;Node7</title>
<path fill="none" stroke="midnightblue" d="M368.34,-280.36C384.34,-254.22 407.22,-206.77 392,-168 377.05,-129.94 339.65,-98.65 315.34,-81.44"/>
<polygon fill="midnightblue" stroke="midnightblue" points="317.27,-78.51 307.04,-75.74 313.31,-84.29 317.27,-78.51"/>
</g>
<!-- Node14 -->
<g id="node14" class="node">
<title>Node14</title>
<g id="a_node14"><a xlink:href="$a00119.html" xlink:title=" ">
<polygon fill="white" stroke="black" points="440.5,-224.5 440.5,-243.5 513.5,-243.5 513.5,-224.5 440.5,-224.5"/>
<text text-anchor="middle" x="477" y="-231.5" font-family="Helvetica,sans-Serif" font-size="10.00">ILogger.hpp</text>
</a>
</g>
</g>
<!-- Node1&#45;&gt;Node14 -->
<g id="edge19" class="edge">
<title>Node1&#45;&gt;Node14</title>
<path fill="none" stroke="midnightblue" d="M391.6,-280.5C411.03,-270.15 434.4,-257.69 451.78,-248.43"/>
<polygon fill="midnightblue" stroke="midnightblue" points="453.58,-251.44 460.76,-243.65 450.29,-245.27 453.58,-251.44"/>
</g>
<!-- Node4 -->
<g id="node4" class="node">
<title>Node4</title>
<g id="a_node4"><a xlink:href="$a00137.html" xlink:title=" ">
<polygon fill="white" stroke="black" points="328.5,-168.5 328.5,-187.5 383.5,-187.5 383.5,-168.5 328.5,-168.5"/>
<text text-anchor="middle" x="356" y="-175.5" font-family="Helvetica,sans-Serif" font-size="10.00">Ray.hpp</text>
</a>
</g>
</g>
<!-- Node3&#45;&gt;Node4 -->
<g id="edge3" class="edge">
<title>Node3&#45;&gt;Node4</title>
<path fill="none" stroke="midnightblue" d="M277.94,-224.32C292.59,-215.82 315.13,-202.73 332.24,-192.8"/>
<polygon fill="midnightblue" stroke="midnightblue" points="334.2,-195.7 341.1,-187.65 330.69,-189.65 334.2,-195.7"/>
</g>
<!-- Node5 -->
<g id="node5" class="node">
<title>Node5</title>
<g id="a_node5"><a xlink:href="$a00092.html" xlink:title=" ">
<polygon fill="white" stroke="black" points="254.5,-112.5 254.5,-131.5 331.5,-131.5 331.5,-112.5 254.5,-112.5"/>
<text text-anchor="middle" x="293" y="-119.5" font-family="Helvetica,sans-Serif" font-size="10.00">Vector3f.hpp</text>
</a>
</g>
</g>
<!-- Node3&#45;&gt;Node5 -->
<g id="edge18" class="edge">
<title>Node3&#45;&gt;Node5</title>
<path fill="none" stroke="midnightblue" d="M266.82,-224.18C270.6,-215.21 276.32,-200.84 280,-188 284.42,-172.6 287.87,-154.73 290.11,-141.62"/>
<polygon fill="midnightblue" stroke="midnightblue" points="293.6,-141.95 291.75,-131.52 286.69,-140.83 293.6,-141.95"/>
</g>
<!-- Node9 -->
<g id="node9" class="node">
<title>Node9</title>
<g id="a_node9"><a xlink:href="$a00122.html" xlink:title=" ">
<polygon fill="white" stroke="black" points="162,-112.5 162,-131.5 224,-131.5 224,-112.5 162,-112.5"/>
<text text-anchor="middle" x="193" y="-119.5" font-family="Helvetica,sans-Serif" font-size="10.00">Color.hpp</text>
</a>
</g>
</g>
<!-- Node3&#45;&gt;Node9 -->
<g id="edge9" class="edge">
<title>Node3&#45;&gt;Node9</title>
<path fill="none" stroke="midnightblue" d="M225.9,-224.46C206.56,-217.92 184.57,-206.72 173,-188 163.82,-173.15 171.92,-153.77 180.4,-140.04"/>
<polygon fill="midnightblue" stroke="midnightblue" points="183.42,-141.82 186.12,-131.57 177.62,-137.9 183.42,-141.82"/>
</g>
<!-- Node11 -->
<g id="node11" class="node">
<title>Node11</title>
<g id="a_node11"><a xlink:href="$a00200.html" xlink:title=" ">
<polygon fill="white" stroke="black" points="28,-168.5 28,-187.5 126,-187.5 126,-168.5 28,-168.5"/>
<text text-anchor="middle" x="77" y="-175.5" font-family="Helvetica,sans-Serif" font-size="10.00">IDisplayable.hpp</text>
</a>
</g>
</g>
<!-- Node3&#45;&gt;Node11 -->
<g id="edge13" class="edge">
<title>Node3&#45;&gt;Node11</title>
<path fill="none" stroke="midnightblue" d="M233.53,-224.44C201.83,-215.24 151.27,-200.56 116.23,-190.39"/>
<polygon fill="midnightblue" stroke="midnightblue" points="116.91,-186.94 106.33,-187.52 114.96,-193.67 116.91,-186.94"/>
</g>
<!-- Node13 -->
<g id="node13" class="node">
<title>Node13</title>
<g id="a_node13"><a xlink:href="$a00083.html" xlink:title=" ">
<polygon fill="white" stroke="black" points="182.5,-168.5 182.5,-187.5 271.5,-187.5 271.5,-168.5 182.5,-168.5"/>
<text text-anchor="middle" x="227" y="-175.5" font-family="Helvetica,sans-Serif" font-size="10.00">ITransform.hpp</text>
</a>
</g>
</g>
<!-- Node3&#45;&gt;Node13 -->
<g id="edge16" class="edge">
<title>Node3&#45;&gt;Node13</title>
<path fill="none" stroke="midnightblue" d="M257.06,-224.08C252.02,-216.53 244.66,-205.49 238.49,-196.23"/>
<polygon fill="midnightblue" stroke="midnightblue" points="241.29,-194.13 232.83,-187.75 235.47,-198.01 241.29,-194.13"/>
</g>
<!-- Node4&#45;&gt;Node5 -->
<g id="edge4" class="edge">
<title>Node4&#45;&gt;Node5</title>
<path fill="none" stroke="midnightblue" d="M345.88,-168.32C336.47,-160.26 322.26,-148.08 310.93,-138.37"/>
<polygon fill="midnightblue" stroke="midnightblue" points="313.18,-135.68 303.31,-131.83 308.62,-141 313.18,-135.68"/>
</g>
<!-- Node6 -->
<g id="node6" class="node">
<title>Node6</title>
<g id="a_node6"><a xlink:title=" ">
<polygon fill="white" stroke="#bfbfbf" points="180.5,-56.5 180.5,-75.5 237.5,-75.5 237.5,-56.5 180.5,-56.5"/>
<text text-anchor="middle" x="209" y="-63.5" font-family="Helvetica,sans-Serif" font-size="10.00">ostream</text>
</a>
</g>
</g>
<!-- Node5&#45;&gt;Node6 -->
<g id="edge5" class="edge">
<title>Node5&#45;&gt;Node6</title>
<path fill="none" stroke="midnightblue" d="M279.5,-112.32C266.4,-103.9 246.29,-90.97 230.89,-81.07"/>
<polygon fill="midnightblue" stroke="midnightblue" points="232.77,-78.12 222.46,-75.65 228.98,-84.01 232.77,-78.12"/>
</g>
<!-- Node5&#45;&gt;Node7 -->
<g id="edge6" class="edge">
<title>Node5&#45;&gt;Node7</title>
<path fill="none" stroke="midnightblue" d="M293,-112.08C293,-105.01 293,-94.86 293,-85.99"/>
<polygon fill="midnightblue" stroke="midnightblue" points="296.5,-85.75 293,-75.75 289.5,-85.75 296.5,-85.75"/>
</g>
<!-- Node7&#45;&gt;Node2 -->
<g id="edge7" class="edge">
<title>Node7&#45;&gt;Node2</title>
<path fill="none" stroke="midnightblue" d="M255.45,-56.86C209,-46.78 130.29,-29.71 83.12,-19.48"/>
<polygon fill="midnightblue" stroke="midnightblue" points="83.79,-16.05 73.28,-17.35 82.31,-22.89 83.79,-16.05"/>
</g>
<!-- Node8 -->
<g id="node8" class="node">
<title>Node8</title>
<g id="a_node8"><a xlink:title=" ">
<polygon fill="white" stroke="#bfbfbf" points="251.5,-0.5 251.5,-19.5 334.5,-19.5 334.5,-0.5 251.5,-0.5"/>
<text text-anchor="middle" x="293" y="-7.5" font-family="Helvetica,sans-Serif" font-size="10.00">libconfig.h++</text>
</a>
</g>
</g>
<!-- Node7&#45;&gt;Node8 -->
<g id="edge8" class="edge">
<title>Node7&#45;&gt;Node8</title>
<path fill="none" stroke="midnightblue" d="M293,-56.08C293,-49.01 293,-38.86 293,-29.99"/>
<polygon fill="midnightblue" stroke="midnightblue" points="296.5,-29.75 293,-19.75 289.5,-29.75 296.5,-29.75"/>
</g>
<!-- Node9&#45;&gt;Node6 -->
<g id="edge11" class="edge">
<title>Node9&#45;&gt;Node6</title>
<path fill="none" stroke="midnightblue" d="M195.64,-112.08C197.79,-104.85 200.88,-94.41 203.55,-85.4"/>
<polygon fill="midnightblue" stroke="midnightblue" points="206.92,-86.33 206.41,-75.75 200.21,-84.34 206.92,-86.33"/>
</g>
<!-- Node9&#45;&gt;Node7 -->
<g id="edge12" class="edge">
<title>Node9&#45;&gt;Node7</title>
<path fill="none" stroke="midnightblue" d="M209.07,-112.32C224.96,-103.74 249.51,-90.49 267.96,-80.52"/>
<polygon fill="midnightblue" stroke="midnightblue" points="269.84,-83.49 276.97,-75.65 266.51,-77.33 269.84,-83.49"/>
</g>
<!-- Node10 -->
<g id="node10" class="node">
<title>Node10</title>
<g id="a_node10"><a xlink:title=" ">
<polygon fill="white" stroke="#bfbfbf" points="114,-56.5 114,-75.5 162,-75.5 162,-56.5 114,-56.5"/>
<text text-anchor="middle" x="138" y="-63.5" font-family="Helvetica,sans-Serif" font-size="10.00">mutex</text>
</a>
</g>
</g>
<!-- Node9&#45;&gt;Node10 -->
<g id="edge10" class="edge">
<title>Node9&#45;&gt;Node10</title>
<path fill="none" stroke="midnightblue" d="M183.92,-112.08C175.83,-104.14 163.8,-92.34 154.09,-82.8"/>
<polygon fill="midnightblue" stroke="midnightblue" points="156.5,-80.26 146.91,-75.75 151.6,-85.25 156.5,-80.26"/>
</g>
<!-- Node11&#45;&gt;Node2 -->
<g id="edge14" class="edge">
<title>Node11&#45;&gt;Node2</title>
<path fill="none" stroke="midnightblue" d="M73.94,-168.48C70.81,-159.5 66,-144.91 63,-132 54.67,-96.23 48.93,-53.64 46.08,-29.72"/>
<polygon fill="midnightblue" stroke="midnightblue" points="49.53,-29.12 44.91,-19.59 42.58,-29.93 49.53,-29.12"/>
</g>
<!-- Node12 -->
<g id="node12" class="node">
<title>Node12</title>
<g id="a_node12"><a xlink:title=" ">
<polygon fill="white" stroke="#bfbfbf" points="72.5,-112.5 72.5,-131.5 119.5,-131.5 119.5,-112.5 72.5,-112.5"/>
<text text-anchor="middle" x="96" y="-119.5" font-family="Helvetica,sans-Serif" font-size="10.00">vector</text>
</a>
</g>
</g>
<!-- Node11&#45;&gt;Node12 -->
<g id="edge15" class="edge">
<title>Node11&#45;&gt;Node12</title>
<path fill="none" stroke="midnightblue" d="M80.14,-168.08C82.68,-160.85 86.36,-150.41 89.53,-141.4"/>
<polygon fill="midnightblue" stroke="midnightblue" points="92.9,-142.35 92.92,-131.75 86.3,-140.02 92.9,-142.35"/>
</g>
<!-- Node13&#45;&gt;Node5 -->
<g id="edge17" class="edge">
<title>Node13&#45;&gt;Node5</title>
<path fill="none" stroke="midnightblue" d="M237.6,-168.32C247.46,-160.26 262.35,-148.08 274.22,-138.37"/>
<polygon fill="midnightblue" stroke="midnightblue" points="276.68,-140.88 282.2,-131.83 272.25,-135.46 276.68,-140.88"/>
</g>
<!-- Node15 -->
<g id="node15" class="node">
<title>Node15</title>
<g id="a_node15"><a xlink:title=" ">
<polygon fill="white" stroke="#bfbfbf" points="455,-168.5 455,-187.5 499,-187.5 499,-168.5 455,-168.5"/>
<text text-anchor="middle" x="477" y="-175.5" font-family="Helvetica,sans-Serif" font-size="10.00">string</text>
</a>
</g>
</g>
<!-- Node14&#45;&gt;Node15 -->
<g id="edge20" class="edge">
<title>Node14&#45;&gt;Node15</title>
<path fill="none" stroke="midnightblue" d="M477,-224.08C477,-217.01 477,-206.86 477,-197.99"/>
<polygon fill="midnightblue" stroke="midnightblue" points="480.5,-197.75 477,-187.75 473.5,-197.75 480.5,-197.75"/>
</g>
</g>
</svg>
