<?xml version="1.0" encoding="UTF-8" standalone="no"?>
<!DOCTYPE svg PUBLIC "-//W3C//DTD SVG 1.1//EN"
 "http://www.w3.org/Graphics/SVG/1.1/DTD/svg11.dtd">
<!-- Generated by graphviz version 2.43.0 (0)
 -->
<!-- Title: /home/runner/work/Raytracer/Raytracer/src/Entities/IPrimitive.hpp Pages: 1 -->
<svg width="548pt" height="330pt"
 viewBox="0.00 0.00 548.13 330.00" xmlns="http://www.w3.org/2000/svg" xmlns:xlink="http://www.w3.org/1999/xlink">
<g id="graph0" class="graph" transform="scale(1 1) rotate(0) translate(4 326)">
<title>/home/runner/work/Raytracer/Raytracer/src/Entities/IPrimitive.hpp</title>
<polygon fill="white" stroke="transparent" points="-4,4 -4,-326 544.13,-326 544.13,4 -4,4"/>
<!-- Node1 -->
<g id="node1" class="node">
<title>Node1</title>
<g id="a_node1"><a xlink:title=" ">
<polygon fill="#bfbfbf" stroke="black" points="219.63,-280.5 219.63,-321.5 378.63,-321.5 378.63,-280.5 219.63,-280.5"/>
<text text-anchor="start" x="227.63" y="-309.5" font-family="Helvetica,sans-Serif" font-size="10.00">/home/runner/work/Raytracer</text>
<text text-anchor="start" x="227.63" y="-298.5" font-family="Helvetica,sans-Serif" font-size="10.00">/Raytracer/src/Entities</text>
<text text-anchor="middle" x="299.13" y="-287.5" font-family="Helvetica,sans-Serif" font-size="10.00">/IPrimitive.hpp</text>
</a>
</g>
</g>
<!-- Node2 -->
<g id="node2" class="node">
<title>Node2</title>
<g id="a_node2"><a xlink:title=" ">
<polygon fill="white" stroke="#bfbfbf" points="60.13,-224.5 60.13,-243.5 116.13,-243.5 116.13,-224.5 60.13,-224.5"/>
<text text-anchor="middle" x="88.13" y="-231.5" font-family="Helvetica,sans-Serif" font-size="10.00">optional</text>
</a>
</g>
</g>
<!-- Node1&#45;&gt;Node2 -->
<g id="edge1" class="edge">
<title>Node1&#45;&gt;Node2</title>
<path fill="none" stroke="midnightblue" d="M235.83,-280.5C199.94,-269.44 156.27,-255.99 125.76,-246.59"/>
<polygon fill="midnightblue" stroke="midnightblue" points="126.53,-243.17 115.94,-243.57 124.47,-249.86 126.53,-243.17"/>
</g>
<!-- Node3 -->
<g id="node3" class="node">
<title>Node3</title>
<g id="a_node3"><a xlink:href="$a00161.html" xlink:title=" ">
<polygon fill="white" stroke="black" points="52.13,-168.5 52.13,-187.5 114.13,-187.5 114.13,-168.5 52.13,-168.5"/>
<text text-anchor="middle" x="83.13" y="-175.5" font-family="Helvetica,sans-Serif" font-size="10.00">Color.hpp</text>
</a>
</g>
</g>
<!-- Node1&#45;&gt;Node3 -->
<g id="edge2" class="edge">
<title>Node1&#45;&gt;Node3</title>
<path fill="none" stroke="midnightblue" d="M241.11,-280.4C216.3,-270.94 187.49,-258.49 163.13,-244 139.25,-229.8 114.91,-208.92 99.46,-194.68"/>
<polygon fill="midnightblue" stroke="midnightblue" points="101.53,-191.83 91.84,-187.54 96.74,-196.93 101.53,-191.83"/>
</g>
<!-- Node10 -->
<g id="node10" class="node">
<title>Node10</title>
<g id="a_node10"><a xlink:href="$a00239.html" xlink:title=" ">
<polygon fill="white" stroke="black" points="442.13,-168.5 442.13,-187.5 540.13,-187.5 540.13,-168.5 442.13,-168.5"/>
<text text-anchor="middle" x="491.13" y="-175.5" font-family="Helvetica,sans-Serif" font-size="10.00">IDisplayable.hpp</text>
</a>
</g>
</g>
<!-- Node1&#45;&gt;Node10 -->
<g id="edge9" class="edge">
<title>Node1&#45;&gt;Node10</title>
<path fill="none" stroke="midnightblue" d="M357.21,-280.41C380.35,-271.2 406.55,-258.93 428.13,-244 447.82,-230.37 466.39,-209.94 478.2,-195.63"/>
<polygon fill="midnightblue" stroke="midnightblue" points="481.1,-197.62 484.63,-187.63 475.64,-193.23 481.1,-197.62"/>
</g>
<!-- Node12 -->
<g id="node12" class="node">
<title>Node12</title>
<g id="a_node12"><a xlink:href="$a00110.html" xlink:title=" ">
<polygon fill="white" stroke="black" points="172.13,-224.5 172.13,-243.5 240.13,-243.5 240.13,-224.5 172.13,-224.5"/>
<text text-anchor="middle" x="206.13" y="-231.5" font-family="Helvetica,sans-Serif" font-size="10.00">IEntity.hpp</text>
</a>
</g>
</g>
<!-- Node1&#45;&gt;Node12 -->
<g id="edge12" class="edge">
<title>Node1&#45;&gt;Node12</title>
<path fill="none" stroke="midnightblue" d="M271.23,-280.5C256.97,-270.53 239.92,-258.61 226.84,-249.48"/>
<polygon fill="midnightblue" stroke="midnightblue" points="228.71,-246.51 218.51,-243.65 224.7,-252.25 228.71,-246.51"/>
</g>
<!-- Node14 -->
<g id="node14" class="node">
<title>Node14</title>
<g id="a_node14"><a xlink:href="$a00131.html" xlink:title=" ">
<polygon fill="white" stroke="black" points="274.63,-112.5 274.63,-131.5 351.63,-131.5 351.63,-112.5 274.63,-112.5"/>
<text text-anchor="middle" x="313.13" y="-119.5" font-family="Helvetica,sans-Serif" font-size="10.00">Vector3f.hpp</text>
</a>
</g>
</g>
<!-- Node1&#45;&gt;Node14 -->
<g id="edge25" class="edge">
<title>Node1&#45;&gt;Node14</title>
<path fill="none" stroke="midnightblue" d="M327.54,-280.45C340.45,-270.58 355.22,-257.79 366.13,-244 383.39,-222.17 387.74,-215.08 394.13,-188 396.17,-179.35 398.64,-175.66 394.13,-168 385.21,-152.84 369.14,-142.43 353.65,-135.46"/>
<polygon fill="midnightblue" stroke="midnightblue" points="354.74,-132.12 344.16,-131.56 352.08,-138.6 354.74,-132.12"/>
</g>
<!-- Node15 -->
<g id="node15" class="node">
<title>Node15</title>
<g id="a_node15"><a xlink:href="$a00116.html" xlink:title=" ">
<polygon fill="white" stroke="black" points="258.63,-224.5 258.63,-243.5 339.63,-243.5 339.63,-224.5 258.63,-224.5"/>
<text text-anchor="middle" x="299.13" y="-231.5" font-family="Helvetica,sans-Serif" font-size="10.00">IMaterial.hpp</text>
</a>
</g>
</g>
<!-- Node1&#45;&gt;Node15 -->
<g id="edge17" class="edge">
<title>Node1&#45;&gt;Node15</title>
<path fill="none" stroke="midnightblue" d="M299.13,-280.5C299.13,-272.07 299.13,-262.24 299.13,-253.87"/>
<polygon fill="midnightblue" stroke="midnightblue" points="302.63,-253.65 299.13,-243.65 295.63,-253.65 302.63,-253.65"/>
</g>
<!-- Node16 -->
<g id="node16" class="node">
<title>Node16</title>
<g id="a_node16"><a xlink:href="$a00176.html" xlink:title=" ">
<polygon fill="white" stroke="black" points="330.63,-168.5 330.63,-187.5 385.63,-187.5 385.63,-168.5 330.63,-168.5"/>
<text text-anchor="middle" x="358.13" y="-175.5" font-family="Helvetica,sans-Serif" font-size="10.00">Ray.hpp</text>
</a>
</g>
</g>
<!-- Node1&#45;&gt;Node16 -->
<g id="edge24" class="edge">
<title>Node1&#45;&gt;Node16</title>
<path fill="none" stroke="midnightblue" d="M321.39,-280.26C331.15,-270.36 341.81,-257.59 348.13,-244 354.84,-229.59 357.21,-211.63 357.98,-198.24"/>
<polygon fill="midnightblue" stroke="midnightblue" points="361.49,-197.96 358.31,-187.86 354.49,-197.74 361.49,-197.96"/>
</g>
<!-- Node4 -->
<g id="node4" class="node">
<title>Node4</title>
<g id="a_node4"><a xlink:title=" ">
<polygon fill="white" stroke="#bfbfbf" points="170.13,-112.5 170.13,-131.5 218.13,-131.5 218.13,-112.5 170.13,-112.5"/>
<text text-anchor="middle" x="194.13" y="-119.5" font-family="Helvetica,sans-Serif" font-size="10.00">mutex</text>
</a>
</g>
</g>
<!-- Node3&#45;&gt;Node4 -->
<g id="edge3" class="edge">
<title>Node3&#45;&gt;Node4</title>
<path fill="none" stroke="midnightblue" d="M100.97,-168.32C118.85,-159.62 146.61,-146.12 167.18,-136.11"/>
<polygon fill="midnightblue" stroke="midnightblue" points="168.88,-139.18 176.34,-131.65 165.82,-132.88 168.88,-139.18"/>
</g>
<!-- Node5 -->
<g id="node5" class="node">
<title>Node5</title>
<g id="a_node5"><a xlink:title=" ">
<polygon fill="white" stroke="#bfbfbf" points="284.63,-56.5 284.63,-75.5 341.63,-75.5 341.63,-56.5 284.63,-56.5"/>
<text text-anchor="middle" x="313.13" y="-63.5" font-family="Helvetica,sans-Serif" font-size="10.00">ostream</text>
</a>
</g>
</g>
<!-- Node3&#45;&gt;Node5 -->
<g id="edge4" class="edge">
<title>Node3&#45;&gt;Node5</title>
<path fill="none" stroke="midnightblue" d="M114.26,-168.62C150.33,-158.69 207.33,-142.18 227.13,-132 253.21,-118.59 279.58,-97.24 296.12,-82.7"/>
<polygon fill="midnightblue" stroke="midnightblue" points="298.71,-85.08 303.82,-75.79 294.04,-79.87 298.71,-85.08"/>
</g>
<!-- Node6 -->
<g id="node6" class="node">
<title>Node6</title>
<g id="a_node6"><a xlink:title=" ">
<polygon fill="white" stroke="#bfbfbf" points="14.63,-112.5 14.63,-131.5 151.63,-131.5 151.63,-112.5 14.63,-112.5"/>
<text text-anchor="middle" x="83.13" y="-119.5" font-family="Helvetica,sans-Serif" font-size="10.00">SFML/Graphics/Color.hpp</text>
</a>
</g>
</g>
<!-- Node3&#45;&gt;Node6 -->
<g id="edge5" class="edge">
<title>Node3&#45;&gt;Node6</title>
<path fill="none" stroke="midnightblue" d="M83.13,-168.08C83.13,-161.01 83.13,-150.86 83.13,-141.99"/>
<polygon fill="midnightblue" stroke="midnightblue" points="86.63,-141.75 83.13,-131.75 79.63,-141.75 86.63,-141.75"/>
</g>
<!-- Node7 -->
<g id="node7" class="node">
<title>Node7</title>
<g id="a_node7"><a xlink:href="$a00245.html" xlink:title=" ">
<polygon fill="white" stroke="black" points="191.63,-56.5 191.63,-75.5 266.63,-75.5 266.63,-56.5 191.63,-56.5"/>
<text text-anchor="middle" x="229.13" y="-63.5" font-family="Helvetica,sans-Serif" font-size="10.00">ISetting.hpp</text>
</a>
</g>
</g>
<!-- Node3&#45;&gt;Node7 -->
<g id="edge6" class="edge">
<title>Node3&#45;&gt;Node7</title>
<path fill="none" stroke="midnightblue" d="M58.01,-168.47C28.47,-157.11 -14.25,-135.66 5.13,-112 26.95,-85.37 122.16,-74.16 181.21,-69.71"/>
<polygon fill="midnightblue" stroke="midnightblue" points="181.71,-73.18 191.43,-68.98 181.21,-66.2 181.71,-73.18"/>
</g>
<!-- Node8 -->
<g id="node8" class="node">
<title>Node8</title>
<g id="a_node8"><a xlink:title=" ">
<polygon fill="white" stroke="#bfbfbf" points="334.13,-0.5 334.13,-19.5 392.13,-19.5 392.13,-0.5 334.13,-0.5"/>
<text text-anchor="middle" x="363.13" y="-7.5" font-family="Helvetica,sans-Serif" font-size="10.00">memory</text>
</a>
</g>
</g>
<!-- Node7&#45;&gt;Node8 -->
<g id="edge7" class="edge">
<title>Node7&#45;&gt;Node8</title>
<path fill="none" stroke="midnightblue" d="M250.37,-56.44C272.52,-47.52 307.45,-33.44 332.57,-23.32"/>
<polygon fill="midnightblue" stroke="midnightblue" points="334.03,-26.5 342,-19.52 331.42,-20.01 334.03,-26.5"/>
</g>
<!-- Node9 -->
<g id="node9" class="node">
<title>Node9</title>
<g id="a_node9"><a xlink:title=" ">
<polygon fill="white" stroke="#bfbfbf" points="187.63,-0.5 187.63,-19.5 270.63,-19.5 270.63,-0.5 187.63,-0.5"/>
<text text-anchor="middle" x="229.13" y="-7.5" font-family="Helvetica,sans-Serif" font-size="10.00">libconfig.h++</text>
</a>
</g>
</g>
<!-- Node7&#45;&gt;Node9 -->
<g id="edge8" class="edge">
<title>Node7&#45;&gt;Node9</title>
<path fill="none" stroke="midnightblue" d="M229.13,-56.08C229.13,-49.01 229.13,-38.86 229.13,-29.99"/>
<polygon fill="midnightblue" stroke="midnightblue" points="232.63,-29.75 229.13,-19.75 225.63,-29.75 232.63,-29.75"/>
</g>
<!-- Node10&#45;&gt;Node8 -->
<g id="edge10" class="edge">
<title>Node10&#45;&gt;Node8</title>
<path fill="none" stroke="midnightblue" d="M484.25,-168.08C463.75,-141.49 402.87,-62.54 376.06,-27.76"/>
<polygon fill="midnightblue" stroke="midnightblue" points="378.62,-25.35 369.74,-19.57 373.07,-29.62 378.62,-25.35"/>
</g>
<!-- Node11 -->
<g id="node11" class="node">
<title>Node11</title>
<g id="a_node11"><a xlink:title=" ">
<polygon fill="white" stroke="#bfbfbf" points="467.63,-112.5 467.63,-131.5 514.63,-131.5 514.63,-112.5 467.63,-112.5"/>
<text text-anchor="middle" x="491.13" y="-119.5" font-family="Helvetica,sans-Serif" font-size="10.00">vector</text>
</a>
</g>
</g>
<!-- Node10&#45;&gt;Node11 -->
<g id="edge11" class="edge">
<title>Node10&#45;&gt;Node11</title>
<path fill="none" stroke="midnightblue" d="M491.13,-168.08C491.13,-161.01 491.13,-150.86 491.13,-141.99"/>
<polygon fill="midnightblue" stroke="midnightblue" points="494.63,-141.75 491.13,-131.75 487.63,-141.75 494.63,-141.75"/>
</g>
<!-- Node13 -->
<g id="node13" class="node">
<title>Node13</title>
<g id="a_node13"><a xlink:href="$a00122.html" xlink:title=" ">
<polygon fill="white" stroke="black" points="132.63,-168.5 132.63,-187.5 273.63,-187.5 273.63,-168.5 132.63,-168.5"/>
<text text-anchor="middle" x="203.13" y="-175.5" font-family="Helvetica,sans-Serif" font-size="10.00">Transform/ITransform.hpp</text>
</a>
</g>
</g>
<!-- Node12&#45;&gt;Node13 -->
<g id="edge13" class="edge">
<title>Node12&#45;&gt;Node13</title>
<path fill="none" stroke="midnightblue" d="M205.64,-224.08C205.24,-217.01 204.68,-206.86 204.19,-197.99"/>
<polygon fill="midnightblue" stroke="midnightblue" points="207.67,-197.54 203.62,-187.75 200.68,-197.93 207.67,-197.54"/>
</g>
<!-- Node13&#45;&gt;Node14 -->
<g id="edge14" class="edge">
<title>Node13&#45;&gt;Node14</title>
<path fill="none" stroke="midnightblue" d="M220.81,-168.32C238.53,-159.62 266.04,-146.12 286.42,-136.11"/>
<polygon fill="midnightblue" stroke="midnightblue" points="288.07,-139.2 295.5,-131.65 284.98,-132.92 288.07,-139.2"/>
</g>
<!-- Node14&#45;&gt;Node5 -->
<g id="edge15" class="edge">
<title>Node14&#45;&gt;Node5</title>
<path fill="none" stroke="midnightblue" d="M313.13,-112.08C313.13,-105.01 313.13,-94.86 313.13,-85.99"/>
<polygon fill="midnightblue" stroke="midnightblue" points="316.63,-85.75 313.13,-75.75 309.63,-85.75 316.63,-85.75"/>
</g>
<!-- Node14&#45;&gt;Node7 -->
<g id="edge16" class="edge">
<title>Node14&#45;&gt;Node7</title>
<path fill="none" stroke="midnightblue" d="M299.64,-112.32C286.53,-103.9 266.42,-90.97 251.03,-81.07"/>
<polygon fill="midnightblue" stroke="midnightblue" points="252.9,-78.12 242.6,-75.65 249.11,-84.01 252.9,-78.12"/>
</g>
<!-- Node15&#45;&gt;Node3 -->
<g id="edge20" class="edge">
<title>Node15&#45;&gt;Node3</title>
<path fill="none" stroke="midnightblue" d="M264.91,-224.44C226.74,-214.9 165.04,-199.48 124.28,-189.29"/>
<polygon fill="midnightblue" stroke="midnightblue" points="124.94,-185.85 114.39,-186.82 123.25,-192.64 124.94,-185.85"/>
</g>
<!-- Node15&#45;&gt;Node10 -->
<g id="edge21" class="edge">
<title>Node15&#45;&gt;Node10</title>
<path fill="none" stroke="midnightblue" d="M329.56,-224.44C362.42,-215.2 414.92,-200.44 451.11,-190.26"/>
<polygon fill="midnightblue" stroke="midnightblue" points="452.17,-193.59 460.85,-187.52 450.28,-186.85 452.17,-193.59"/>
</g>
<!-- Node15&#45;&gt;Node13 -->
<g id="edge22" class="edge">
<title>Node15&#45;&gt;Node13</title>
<path fill="none" stroke="midnightblue" d="M283.71,-224.32C268.59,-215.82 245.32,-202.73 227.66,-192.8"/>
<polygon fill="midnightblue" stroke="midnightblue" points="228.95,-189.51 218.52,-187.65 225.52,-195.61 228.95,-189.51"/>
</g>
<!-- Node15&#45;&gt;Node14 -->
<g id="edge23" class="edge">
<title>Node15&#45;&gt;Node14</title>
<path fill="none" stroke="midnightblue" d="M300.23,-224.37C302.49,-206.62 307.7,-165.67 310.77,-141.6"/>
<polygon fill="midnightblue" stroke="midnightblue" points="314.25,-141.95 312.04,-131.59 307.3,-141.07 314.25,-141.95"/>
</g>
<!-- Node15&#45;&gt;Node16 -->
<g id="edge18" class="edge">
<title>Node15&#45;&gt;Node16</title>
<path fill="none" stroke="midnightblue" d="M308.61,-224.32C317.33,-216.34 330.48,-204.31 341.03,-194.65"/>
<polygon fill="midnightblue" stroke="midnightblue" points="343.47,-197.17 348.48,-187.83 338.74,-192 343.47,-197.17"/>
</g>
<!-- Node16&#45;&gt;Node14 -->
<g id="edge19" class="edge">
<title>Node16&#45;&gt;Node14</title>
<path fill="none" stroke="midnightblue" d="M350.7,-168.08C344.28,-160.38 334.83,-149.03 327.01,-139.65"/>
<polygon fill="midnightblue" stroke="midnightblue" points="329.52,-137.19 320.43,-131.75 324.14,-141.67 329.52,-137.19"/>
</g>
</g>
</svg>
