<?xml version="1.0" encoding="UTF-8" standalone="no"?>
<!DOCTYPE svg PUBLIC "-//W3C//DTD SVG 1.1//EN"
 "http://www.w3.org/Graphics/SVG/1.1/DTD/svg11.dtd">
<!-- Generated by graphviz version 2.43.0 (0)
 -->
<!-- Title: /home/runner/work/Raytracer/Raytracer/src/Entities/ICamera.hpp Pages: 1 -->
<svg width="1719pt" height="206pt"
 viewBox="0.00 0.00 1719.00 206.00" xmlns="http://www.w3.org/2000/svg" xmlns:xlink="http://www.w3.org/1999/xlink">
<g id="graph0" class="graph" transform="scale(1 1) rotate(0) translate(4 202)">
<title>/home/runner/work/Raytracer/Raytracer/src/Entities/ICamera.hpp</title>
<polygon fill="white" stroke="transparent" points="-4,4 -4,-202 1715,-202 1715,4 -4,4"/>
<!-- Node1 -->
<g id="node1" class="node">
<title>Node1</title>
<g id="a_node1"><a xlink:title=" ">
<polygon fill="#bfbfbf" stroke="black" points="742.5,-156.5 742.5,-197.5 901.5,-197.5 901.5,-156.5 742.5,-156.5"/>
<text text-anchor="start" x="750.5" y="-185.5" font-family="Helvetica,sans-Serif" font-size="10.00">/home/runner/work/Raytracer</text>
<text text-anchor="start" x="750.5" y="-174.5" font-family="Helvetica,sans-Serif" font-size="10.00">/Raytracer/src/Entities</text>
<text text-anchor="middle" x="822" y="-163.5" font-family="Helvetica,sans-Serif" font-size="10.00">/ICamera.hpp</text>
</a>
</g>
</g>
<!-- Node2 -->
<g id="node2" class="node">
<title>Node2</title>
<g id="a_node2"><a xlink:href="$a00098.html" xlink:title=" ">
<polygon fill="white" stroke="black" points="0,-0.5 0,-41.5 168,-41.5 168,-0.5 0,-0.5"/>
<text text-anchor="start" x="8" y="-29.5" font-family="Helvetica,sans-Serif" font-size="10.00">/home/runner/work/Raytracer</text>
<text text-anchor="start" x="8" y="-18.5" font-family="Helvetica,sans-Serif" font-size="10.00">/Raytracer/src/Display/Modules</text>
<text text-anchor="middle" x="84" y="-7.5" font-family="Helvetica,sans-Serif" font-size="10.00">/CanvasModule.hpp</text>
</a>
</g>
</g>
<!-- Node1&#45;&gt;Node2 -->
<g id="edge1" class="edge">
<title>Node1&#45;&gt;Node2</title>
<path fill="none" stroke="midnightblue" d="M732.08,-176.43C623.18,-174.75 435.18,-164.73 281,-120 218.63,-101.91 152.22,-64.63 114.64,-41.62"/>
<polygon fill="midnightblue" stroke="midnightblue" points="732.33,-179.93 742.37,-176.57 732.42,-172.93 732.33,-179.93"/>
</g>
<!-- Node3 -->
<g id="node3" class="node">
<title>Node3</title>
<g id="a_node3"><a xlink:href="$a00101.html" xlink:title=" ">
<polygon fill="white" stroke="black" points="186,-0.5 186,-41.5 354,-41.5 354,-0.5 186,-0.5"/>
<text text-anchor="start" x="194" y="-29.5" font-family="Helvetica,sans-Serif" font-size="10.00">/home/runner/work/Raytracer</text>
<text text-anchor="start" x="194" y="-18.5" font-family="Helvetica,sans-Serif" font-size="10.00">/Raytracer/src/Display/Modules</text>
<text text-anchor="middle" x="270" y="-7.5" font-family="Helvetica,sans-Serif" font-size="10.00">/ProgressModule.hpp</text>
</a>
</g>
</g>
<!-- Node1&#45;&gt;Node3 -->
<g id="edge2" class="edge">
<title>Node1&#45;&gt;Node3</title>
<path fill="none" stroke="midnightblue" d="M732.34,-176.46C604.94,-175.42 379.76,-166.74 315,-120 289.34,-101.48 277.95,-64.71 273.17,-41.85"/>
<polygon fill="midnightblue" stroke="midnightblue" points="732.45,-179.96 742.47,-176.53 732.5,-172.96 732.45,-179.96"/>
</g>
<!-- Node4 -->
<g id="node4" class="node">
<title>Node4</title>
<g id="a_node4"><a xlink:href="$a00176.html" xlink:title=" ">
<polygon fill="white" stroke="black" points="517.5,-84 517.5,-114 722.5,-114 722.5,-84 517.5,-84"/>
<text text-anchor="start" x="525.5" y="-102" font-family="Helvetica,sans-Serif" font-size="10.00">/home/runner/work/Raytracer</text>
<text text-anchor="middle" x="620" y="-91" font-family="Helvetica,sans-Serif" font-size="10.00">/Raytracer/src/Images/RayIterrator.hpp</text>
</a>
</g>
</g>
<!-- Node1&#45;&gt;Node4 -->
<g id="edge3" class="edge">
<title>Node1&#45;&gt;Node4</title>
<path fill="none" stroke="midnightblue" d="M760.26,-152.77C726.7,-140.15 686.3,-124.94 657.49,-114.11"/>
<polygon fill="midnightblue" stroke="midnightblue" points="759.39,-156.18 769.98,-156.43 761.85,-149.63 759.39,-156.18"/>
</g>
<!-- Node5 -->
<g id="node5" class="node">
<title>Node5</title>
<g id="a_node5"><a xlink:href="$a00245.html" xlink:title=" ">
<polygon fill="white" stroke="black" points="324.5,-84 324.5,-114 499.5,-114 499.5,-84 324.5,-84"/>
<text text-anchor="start" x="332.5" y="-102" font-family="Helvetica,sans-Serif" font-size="10.00">/home/runner/work/Raytracer</text>
<text text-anchor="middle" x="412" y="-91" font-family="Helvetica,sans-Serif" font-size="10.00">/Raytracer/src/Scenes/Scene.hpp</text>
</a>
</g>
</g>
<!-- Node1&#45;&gt;Node5 -->
<g id="edge4" class="edge">
<title>Node1&#45;&gt;Node5</title>
<path fill="none" stroke="midnightblue" d="M732.3,-160.71C669.43,-149.82 583.47,-134.59 508,-120 498.31,-118.13 488.08,-116.07 478.05,-114.02"/>
<polygon fill="midnightblue" stroke="midnightblue" points="731.74,-164.17 742.19,-162.42 732.93,-157.27 731.74,-164.17"/>
</g>
<!-- Node8 -->
<g id="node8" class="node">
<title>Node8</title>
<g id="a_node8"><a xlink:href="$a00278.html" xlink:title=" ">
<polygon fill="white" stroke="black" points="741,-78.5 741,-119.5 903,-119.5 903,-78.5 741,-78.5"/>
<text text-anchor="start" x="749" y="-107.5" font-family="Helvetica,sans-Serif" font-size="10.00">/home/runner/work/Raytracer</text>
<text text-anchor="start" x="749" y="-96.5" font-family="Helvetica,sans-Serif" font-size="10.00">/Raytracer/PluginsExt/Camera</text>
<text text-anchor="middle" x="822" y="-85.5" font-family="Helvetica,sans-Serif" font-size="10.00">/Basic/CameraEntity.hpp</text>
</a>
</g>
</g>
<!-- Node1&#45;&gt;Node8 -->
<g id="edge9" class="edge">
<title>Node1&#45;&gt;Node8</title>
<path fill="none" stroke="midnightblue" d="M822,-146.3C822,-137.3 822,-127.65 822,-119.51"/>
<polygon fill="midnightblue" stroke="midnightblue" points="818.5,-146.43 822,-156.43 825.5,-146.43 818.5,-146.43"/>
</g>
<!-- Node10 -->
<g id="node10" class="node">
<title>Node10</title>
<g id="a_node10"><a xlink:href="$a00284.html" xlink:title=" ">
<polygon fill="white" stroke="black" points="921,-78.5 921,-119.5 1099,-119.5 1099,-78.5 921,-78.5"/>
<text text-anchor="start" x="929" y="-107.5" font-family="Helvetica,sans-Serif" font-size="10.00">/home/runner/work/Raytracer</text>
<text text-anchor="start" x="929" y="-96.5" font-family="Helvetica,sans-Serif" font-size="10.00">/Raytracer/PluginsExt/Camera</text>
<text text-anchor="middle" x="1010" y="-85.5" font-family="Helvetica,sans-Serif" font-size="10.00">/Cluster/CameraClusterEntity.hpp</text>
</a>
</g>
</g>
<!-- Node1&#45;&gt;Node10 -->
<g id="edge11" class="edge">
<title>Node1&#45;&gt;Node10</title>
<path fill="none" stroke="midnightblue" d="M879.86,-152.61C906.1,-142 936.78,-129.6 961.75,-119.51"/>
<polygon fill="midnightblue" stroke="midnightblue" points="878.37,-149.44 870.41,-156.43 881,-155.93 878.37,-149.44"/>
</g>
<!-- Node12 -->
<g id="node12" class="node">
<title>Node12</title>
<g id="a_node12"><a xlink:href="$a00287.html" xlink:title=" ">
<polygon fill="white" stroke="black" points="1116.5,-78.5 1116.5,-119.5 1283.5,-119.5 1283.5,-78.5 1116.5,-78.5"/>
<text text-anchor="start" x="1124.5" y="-107.5" font-family="Helvetica,sans-Serif" font-size="10.00">/home/runner/work/Raytracer</text>
<text text-anchor="start" x="1124.5" y="-96.5" font-family="Helvetica,sans-Serif" font-size="10.00">/Raytracer/PluginsExt/Camera</text>
<text text-anchor="middle" x="1200" y="-85.5" font-family="Helvetica,sans-Serif" font-size="10.00">/Cluster/ClusterRayIterator.hpp</text>
</a>
</g>
</g>
<!-- Node1&#45;&gt;Node12 -->
<g id="edge13" class="edge">
<title>Node1&#45;&gt;Node12</title>
<path fill="none" stroke="midnightblue" d="M911.57,-158.96C967.99,-148.1 1042.33,-133.57 1108,-120 1110.72,-119.44 1113.49,-118.86 1116.28,-118.28"/>
<polygon fill="midnightblue" stroke="midnightblue" points="910.77,-155.55 901.61,-160.87 912.09,-162.42 910.77,-155.55"/>
</g>
<!-- Node13 -->
<g id="node13" class="node">
<title>Node13</title>
<g id="a_node13"><a xlink:href="$a00293.html" xlink:title=" ">
<polygon fill="white" stroke="black" points="1301.5,-78.5 1301.5,-119.5 1502.5,-119.5 1502.5,-78.5 1301.5,-78.5"/>
<text text-anchor="start" x="1309.5" y="-107.5" font-family="Helvetica,sans-Serif" font-size="10.00">/home/runner/work/Raytracer</text>
<text text-anchor="start" x="1309.5" y="-96.5" font-family="Helvetica,sans-Serif" font-size="10.00">/Raytracer/PluginsExt/Camera</text>
<text text-anchor="middle" x="1402" y="-85.5" font-family="Helvetica,sans-Serif" font-size="10.00">/FullCustom/CameraCustomEntity.hpp</text>
</a>
</g>
</g>
<!-- Node1&#45;&gt;Node13 -->
<g id="edge14" class="edge">
<title>Node1&#45;&gt;Node13</title>
<path fill="none" stroke="midnightblue" d="M911.93,-167.01C1006.88,-157.13 1160.82,-139.96 1293,-120 1295.76,-119.58 1298.55,-119.15 1301.37,-118.7"/>
<polygon fill="midnightblue" stroke="midnightblue" points="911.38,-163.55 901.79,-168.07 912.1,-170.51 911.38,-163.55"/>
</g>
<!-- Node15 -->
<g id="node15" class="node">
<title>Node15</title>
<g id="a_node15"><a xlink:href="$a00296.html" xlink:title=" ">
<polygon fill="white" stroke="black" points="1521,-78.5 1521,-119.5 1711,-119.5 1711,-78.5 1521,-78.5"/>
<text text-anchor="start" x="1529" y="-107.5" font-family="Helvetica,sans-Serif" font-size="10.00">/home/runner/work/Raytracer</text>
<text text-anchor="start" x="1529" y="-96.5" font-family="Helvetica,sans-Serif" font-size="10.00">/Raytracer/PluginsExt/Camera</text>
<text text-anchor="middle" x="1616" y="-85.5" font-family="Helvetica,sans-Serif" font-size="10.00">/FullCustom/CustomRayIterator.hpp</text>
</a>
</g>
</g>
<!-- Node1&#45;&gt;Node15 -->
<g id="edge16" class="edge">
<title>Node1&#45;&gt;Node15</title>
<path fill="none" stroke="midnightblue" d="M911.79,-171.84C1043.78,-165.02 1297.72,-149.21 1512,-120 1514.91,-119.6 1517.87,-119.18 1520.85,-118.73"/>
<polygon fill="midnightblue" stroke="midnightblue" points="911.54,-168.35 901.73,-172.36 911.9,-175.34 911.54,-168.35"/>
</g>
<!-- Node5&#45;&gt;Node2 -->
<g id="edge6" class="edge">
<title>Node5&#45;&gt;Node2</title>
<path fill="none" stroke="midnightblue" d="M341.55,-81.68C290.76,-69.91 221.99,-53.97 168.29,-41.53"/>
<polygon fill="midnightblue" stroke="midnightblue" points="340.93,-85.12 351.46,-83.97 342.51,-78.3 340.93,-85.12"/>
</g>
<!-- Node5&#45;&gt;Node3 -->
<g id="edge7" class="edge">
<title>Node5&#45;&gt;Node3</title>
<path fill="none" stroke="midnightblue" d="M376.58,-79.04C355.27,-67.64 328.2,-53.15 306.67,-41.63"/>
<polygon fill="midnightblue" stroke="midnightblue" points="375.16,-82.25 385.62,-83.88 378.46,-76.08 375.16,-82.25"/>
</g>
<!-- Node6 -->
<g id="node6" class="node">
<title>Node6</title>
<g id="a_node6"><a xlink:href="$a00092.html" xlink:title=" ">
<polygon fill="white" stroke="black" points="548.5,-6 548.5,-36 731.5,-36 731.5,-6 548.5,-6"/>
<text text-anchor="start" x="556.5" y="-24" font-family="Helvetica,sans-Serif" font-size="10.00">/home/runner/work/Raytracer</text>
<text text-anchor="middle" x="640" y="-13" font-family="Helvetica,sans-Serif" font-size="10.00">/Raytracer/src/Display/Display.hpp</text>
</a>
</g>
</g>
<!-- Node5&#45;&gt;Node6 -->
<g id="edge5" class="edge">
<title>Node5&#45;&gt;Node6</title>
<path fill="none" stroke="midnightblue" d="M463.78,-80.74C504.3,-67.23 559.93,-48.69 597.78,-36.07"/>
<polygon fill="midnightblue" stroke="midnightblue" points="462.46,-77.49 454.08,-83.97 464.68,-84.13 462.46,-77.49"/>
</g>
<!-- Node7 -->
<g id="node7" class="node">
<title>Node7</title>
<g id="a_node7"><a xlink:href="$a00182.html" xlink:title=" ">
<polygon fill="white" stroke="black" points="371.5,-6 371.5,-36 530.5,-36 530.5,-6 371.5,-6"/>
<text text-anchor="start" x="379.5" y="-24" font-family="Helvetica,sans-Serif" font-size="10.00">/home/runner/work/Raytracer</text>
<text text-anchor="middle" x="451" y="-13" font-family="Helvetica,sans-Serif" font-size="10.00">/Raytracer/src/Main.hpp</text>
</a>
</g>
</g>
<!-- Node5&#45;&gt;Node7 -->
<g id="edge8" class="edge">
<title>Node5&#45;&gt;Node7</title>
<path fill="none" stroke="midnightblue" d="M423.95,-74.7C430.4,-62.14 438.15,-47.04 443.7,-36.23"/>
<polygon fill="midnightblue" stroke="midnightblue" points="420.79,-73.21 419.34,-83.7 427.02,-76.41 420.79,-73.21"/>
</g>
<!-- Node9 -->
<g id="node9" class="node">
<title>Node9</title>
<g id="a_node9"><a xlink:href="$a00275.html" xlink:title=" ">
<polygon fill="white" stroke="black" points="750,-0.5 750,-41.5 912,-41.5 912,-0.5 750,-0.5"/>
<text text-anchor="start" x="758" y="-29.5" font-family="Helvetica,sans-Serif" font-size="10.00">/home/runner/work/Raytracer</text>
<text text-anchor="start" x="758" y="-18.5" font-family="Helvetica,sans-Serif" font-size="10.00">/Raytracer/PluginsExt/Camera</text>
<text text-anchor="middle" x="831" y="-7.5" font-family="Helvetica,sans-Serif" font-size="10.00">/Basic/CameraCreator.hpp</text>
</a>
</g>
</g>
<!-- Node8&#45;&gt;Node9 -->
<g id="edge10" class="edge">
<title>Node8&#45;&gt;Node9</title>
<path fill="none" stroke="midnightblue" d="M825.52,-68.3C826.58,-59.3 827.73,-49.65 828.69,-41.51"/>
<polygon fill="midnightblue" stroke="midnightblue" points="822.02,-68.09 824.32,-78.43 828.97,-68.91 822.02,-68.09"/>
</g>
<!-- Node11 -->
<g id="node11" class="node">
<title>Node11</title>
<g id="a_node11"><a xlink:href="$a00281.html" xlink:title=" ">
<polygon fill="white" stroke="black" points="930,-0.5 930,-41.5 1116,-41.5 1116,-0.5 930,-0.5"/>
<text text-anchor="start" x="938" y="-29.5" font-family="Helvetica,sans-Serif" font-size="10.00">/home/runner/work/Raytracer</text>
<text text-anchor="start" x="938" y="-18.5" font-family="Helvetica,sans-Serif" font-size="10.00">/Raytracer/PluginsExt/Camera</text>
<text text-anchor="middle" x="1023" y="-7.5" font-family="Helvetica,sans-Serif" font-size="10.00">/Cluster/CameraClusterCreator.hpp</text>
</a>
</g>
</g>
<!-- Node10&#45;&gt;Node11 -->
<g id="edge12" class="edge">
<title>Node10&#45;&gt;Node11</title>
<path fill="none" stroke="midnightblue" d="M1015.08,-68.3C1016.62,-59.3 1018.27,-49.65 1019.66,-41.51"/>
<polygon fill="midnightblue" stroke="midnightblue" points="1011.58,-67.98 1013.35,-78.43 1018.48,-69.16 1011.58,-67.98"/>
</g>
<!-- Node14 -->
<g id="node14" class="node">
<title>Node14</title>
<g id="a_node14"><a xlink:href="$a00290.html" xlink:title=" ">
<polygon fill="white" stroke="black" points="1297.5,-0.5 1297.5,-41.5 1506.5,-41.5 1506.5,-0.5 1297.5,-0.5"/>
<text text-anchor="start" x="1305.5" y="-29.5" font-family="Helvetica,sans-Serif" font-size="10.00">/home/runner/work/Raytracer</text>
<text text-anchor="start" x="1305.5" y="-18.5" font-family="Helvetica,sans-Serif" font-size="10.00">/Raytracer/PluginsExt/Camera</text>
<text text-anchor="middle" x="1402" y="-7.5" font-family="Helvetica,sans-Serif" font-size="10.00">/FullCustom/CameraCustomCreator.hpp</text>
</a>
</g>
</g>
<!-- Node13&#45;&gt;Node14 -->
<g id="edge15" class="edge">
<title>Node13&#45;&gt;Node14</title>
<path fill="none" stroke="midnightblue" d="M1402,-68.3C1402,-59.3 1402,-49.65 1402,-41.51"/>
<polygon fill="midnightblue" stroke="midnightblue" points="1398.5,-68.43 1402,-78.43 1405.5,-68.43 1398.5,-68.43"/>
</g>
</g>
</svg>
