<?xml version="1.0" encoding="UTF-8" standalone="no"?>
<!DOCTYPE svg PUBLIC "-//W3C//DTD SVG 1.1//EN"
 "http://www.w3.org/Graphics/SVG/1.1/DTD/svg11.dtd">
<!-- Generated by graphviz version 2.43.0 (0)
 -->
<!-- Title: /home/runner/work/Raytracer/Raytracer/src/Factories/EntityFactory.hpp Pages: 1 -->
<svg width="922pt" height="442pt"
 viewBox="0.00 0.00 921.50 442.00" xmlns="http://www.w3.org/2000/svg" xmlns:xlink="http://www.w3.org/1999/xlink">
<g id="graph0" class="graph" transform="scale(1 1) rotate(0) translate(4 438)">
<title>/home/runner/work/Raytracer/Raytracer/src/Factories/EntityFactory.hpp</title>
<polygon fill="white" stroke="transparent" points="-4,4 -4,-438 917.5,-438 917.5,4 -4,4"/>
<!-- Node1 -->
<g id="node1" class="node">
<title>Node1</title>
<g id="a_node1"><a xlink:title=" ">
<polygon fill="#bfbfbf" stroke="black" points="466.5,-392.5 466.5,-433.5 625.5,-433.5 625.5,-392.5 466.5,-392.5"/>
<text text-anchor="start" x="474.5" y="-421.5" font-family="Helvetica,sans-Serif" font-size="10.00">/home/runner/work/Raytracer</text>
<text text-anchor="start" x="474.5" y="-410.5" font-family="Helvetica,sans-Serif" font-size="10.00">/Raytracer/src/Factories</text>
<text text-anchor="middle" x="546" y="-399.5" font-family="Helvetica,sans-Serif" font-size="10.00">/EntityFactory.hpp</text>
</a>
</g>
</g>
<!-- Node2 -->
<g id="node2" class="node">
<title>Node2</title>
<g id="a_node2"><a xlink:href="$a00140.html" xlink:title=" ">
<polygon fill="white" stroke="black" points="810.5,-280.5 810.5,-299.5 913.5,-299.5 913.5,-280.5 810.5,-280.5"/>
<text text-anchor="middle" x="862" y="-287.5" font-family="Helvetica,sans-Serif" font-size="10.00">IEntityFactory.hpp</text>
</a>
</g>
</g>
<!-- Node1&#45;&gt;Node2 -->
<g id="edge1" class="edge">
<title>Node1&#45;&gt;Node2</title>
<path fill="none" stroke="midnightblue" d="M625.71,-405.52C676.89,-398.69 743.38,-384.68 796,-356 817.96,-344.03 837.59,-322.62 849.62,-307.66"/>
<polygon fill="midnightblue" stroke="midnightblue" points="852.42,-309.76 855.79,-299.71 846.89,-305.47 852.42,-309.76"/>
</g>
<!-- Node5 -->
<g id="node5" class="node">
<title>Node5</title>
<g id="a_node5"><a xlink:href="$a00158.html" xlink:title=" ">
<polygon fill="white" stroke="black" points="522.5,-224.5 522.5,-243.5 595.5,-243.5 595.5,-224.5 522.5,-224.5"/>
<text text-anchor="middle" x="559" y="-231.5" font-family="Helvetica,sans-Serif" font-size="10.00">ILogger.hpp</text>
</a>
</g>
</g>
<!-- Node1&#45;&gt;Node5 -->
<g id="edge15" class="edge">
<title>Node1&#45;&gt;Node5</title>
<path fill="none" stroke="midnightblue" d="M547.44,-392.38C549.96,-358.08 555.13,-287.66 557.61,-253.88"/>
<polygon fill="midnightblue" stroke="midnightblue" points="561.13,-253.81 558.37,-243.58 554.15,-253.3 561.13,-253.81"/>
</g>
<!-- Node7 -->
<g id="node7" class="node">
<title>Node7</title>
<g id="a_node7"><a xlink:href="$a00110.html" xlink:title=" ">
<polygon fill="white" stroke="black" points="690,-224.5 690,-243.5 758,-243.5 758,-224.5 690,-224.5"/>
<text text-anchor="middle" x="724" y="-231.5" font-family="Helvetica,sans-Serif" font-size="10.00">IEntity.hpp</text>
</a>
</g>
</g>
<!-- Node1&#45;&gt;Node7 -->
<g id="edge41" class="edge">
<title>Node1&#45;&gt;Node7</title>
<path fill="none" stroke="midnightblue" d="M591.41,-392.38C628.69,-373.91 679.92,-342.71 709,-300 718.27,-286.39 721.87,-267.85 723.24,-254.05"/>
<polygon fill="midnightblue" stroke="midnightblue" points="726.75,-254 723.94,-243.79 719.76,-253.52 726.75,-254"/>
</g>
<!-- Node13 -->
<g id="node13" class="node">
<title>Node13</title>
<g id="a_node13"><a xlink:href="$a00152.html" xlink:title=" ">
<polygon fill="white" stroke="black" points="112.5,-280.5 112.5,-299.5 189.5,-299.5 189.5,-280.5 112.5,-280.5"/>
<text text-anchor="middle" x="151" y="-287.5" font-family="Helvetica,sans-Serif" font-size="10.00">TFactory.hpp</text>
</a>
</g>
</g>
<!-- Node1&#45;&gt;Node13 -->
<g id="edge16" class="edge">
<title>Node1&#45;&gt;Node13</title>
<path fill="none" stroke="midnightblue" d="M482.1,-392.42C399.02,-366.98 256.58,-323.34 188.88,-302.6"/>
<polygon fill="midnightblue" stroke="midnightblue" points="189.65,-299.18 179.06,-299.6 187.6,-305.87 189.65,-299.18"/>
</g>
<!-- Node15 -->
<g id="node15" class="node">
<title>Node15</title>
<g id="a_node15"><a xlink:href="$a00194.html" xlink:title=" ">
<polygon fill="white" stroke="black" points="414,-336.5 414,-355.5 518,-355.5 518,-336.5 414,-336.5"/>
<text text-anchor="middle" x="466" y="-343.5" font-family="Helvetica,sans-Serif" font-size="10.00">EntityHandler.hpp</text>
</a>
</g>
</g>
<!-- Node1&#45;&gt;Node15 -->
<g id="edge22" class="edge">
<title>Node1&#45;&gt;Node15</title>
<path fill="none" stroke="midnightblue" d="M522,-392.5C509.97,-382.72 495.63,-371.07 484.47,-362.01"/>
<polygon fill="midnightblue" stroke="midnightblue" points="486.62,-359.24 476.65,-355.65 482.2,-364.67 486.62,-359.24"/>
</g>
<!-- Node3 -->
<g id="node3" class="node">
<title>Node3</title>
<g id="a_node3"><a xlink:title=" ">
<polygon fill="white" stroke="#bfbfbf" points="274,-168.5 274,-187.5 318,-187.5 318,-168.5 274,-168.5"/>
<text text-anchor="middle" x="296" y="-175.5" font-family="Helvetica,sans-Serif" font-size="10.00">string</text>
</a>
</g>
</g>
<!-- Node2&#45;&gt;Node3 -->
<g id="edge2" class="edge">
<title>Node2&#45;&gt;Node3</title>
<path fill="none" stroke="midnightblue" d="M852.93,-280.39C837,-265.85 802.32,-236.8 767,-224 725.92,-209.12 427.83,-187.89 328.27,-181.14"/>
<polygon fill="midnightblue" stroke="midnightblue" points="328.42,-177.65 318.2,-180.47 327.95,-184.63 328.42,-177.65"/>
</g>
<!-- Node4 -->
<g id="node4" class="node">
<title>Node4</title>
<g id="a_node4"><a xlink:title=" ">
<polygon fill="white" stroke="#bfbfbf" points="338,-0.5 338,-19.5 396,-19.5 396,-0.5 338,-0.5"/>
<text text-anchor="middle" x="367" y="-7.5" font-family="Helvetica,sans-Serif" font-size="10.00">memory</text>
</a>
</g>
</g>
<!-- Node2&#45;&gt;Node4 -->
<g id="edge3" class="edge">
<title>Node2&#45;&gt;Node4</title>
<path fill="none" stroke="midnightblue" d="M867.28,-280.23C877.73,-262.04 900,-218.6 900,-179 900,-179 900,-179 900,-121 900,-79.51 870.65,-73.42 833,-56 794.71,-38.29 512.02,-19.71 406.54,-13.32"/>
<polygon fill="midnightblue" stroke="midnightblue" points="406.51,-9.81 396.31,-12.7 406.09,-16.8 406.51,-9.81"/>
</g>
<!-- Node2&#45;&gt;Node5 -->
<g id="edge4" class="edge">
<title>Node2&#45;&gt;Node5</title>
<path fill="none" stroke="midnightblue" d="M813.99,-280.44C756.96,-270.28 662.47,-253.44 605.92,-243.36"/>
<polygon fill="midnightblue" stroke="midnightblue" points="606.29,-239.87 595.83,-241.56 605.06,-246.76 606.29,-239.87"/>
</g>
<!-- Node2&#45;&gt;Node7 -->
<g id="edge7" class="edge">
<title>Node2&#45;&gt;Node7</title>
<path fill="none" stroke="midnightblue" d="M840.13,-280.44C817.22,-271.48 781.02,-257.31 755.13,-247.18"/>
<polygon fill="midnightblue" stroke="midnightblue" points="756.35,-243.9 745.76,-243.52 753.8,-250.42 756.35,-243.9"/>
</g>
<!-- Node11 -->
<g id="node11" class="node">
<title>Node11</title>
<g id="a_node11"><a xlink:href="$a00245.html" xlink:title=" ">
<polygon fill="white" stroke="black" points="578.5,-56.5 578.5,-75.5 653.5,-75.5 653.5,-56.5 578.5,-56.5"/>
<text text-anchor="middle" x="616" y="-63.5" font-family="Helvetica,sans-Serif" font-size="10.00">ISetting.hpp</text>
</a>
</g>
</g>
<!-- Node2&#45;&gt;Node11 -->
<g id="edge14" class="edge">
<title>Node2&#45;&gt;Node11</title>
<path fill="none" stroke="midnightblue" d="M864.24,-280.21C870.93,-251.7 887.65,-160.8 843,-112 819.46,-86.27 723.48,-74.75 664.12,-69.99"/>
<polygon fill="midnightblue" stroke="midnightblue" points="664.08,-66.48 653.85,-69.21 663.55,-73.46 664.08,-66.48"/>
</g>
<!-- Node5&#45;&gt;Node3 -->
<g id="edge6" class="edge">
<title>Node5&#45;&gt;Node3</title>
<path fill="none" stroke="midnightblue" d="M522.43,-225.49C470.75,-214.88 377.19,-195.67 328.08,-185.59"/>
<polygon fill="midnightblue" stroke="midnightblue" points="328.52,-182.1 318.02,-183.52 327.11,-188.96 328.52,-182.1"/>
</g>
<!-- Node6 -->
<g id="node6" class="node">
<title>Node6</title>
<g id="a_node6"><a xlink:title=" ">
<polygon fill="white" stroke="#bfbfbf" points="484.5,-168.5 484.5,-187.5 549.5,-187.5 549.5,-168.5 484.5,-168.5"/>
<text text-anchor="middle" x="517" y="-175.5" font-family="Helvetica,sans-Serif" font-size="10.00">functional</text>
</a>
</g>
</g>
<!-- Node5&#45;&gt;Node6 -->
<g id="edge5" class="edge">
<title>Node5&#45;&gt;Node6</title>
<path fill="none" stroke="midnightblue" d="M552.06,-224.08C546.07,-216.38 537.25,-205.03 529.95,-195.65"/>
<polygon fill="midnightblue" stroke="midnightblue" points="532.71,-193.5 523.81,-187.75 527.18,-197.79 532.71,-193.5"/>
</g>
<!-- Node8 -->
<g id="node8" class="node">
<title>Node8</title>
<g id="a_node8"><a xlink:href="$a00122.html" xlink:title=" ">
<polygon fill="white" stroke="black" points="644.5,-168.5 644.5,-187.5 785.5,-187.5 785.5,-168.5 644.5,-168.5"/>
<text text-anchor="middle" x="715" y="-175.5" font-family="Helvetica,sans-Serif" font-size="10.00">Transform/ITransform.hpp</text>
</a>
</g>
</g>
<!-- Node7&#45;&gt;Node8 -->
<g id="edge8" class="edge">
<title>Node7&#45;&gt;Node8</title>
<path fill="none" stroke="midnightblue" d="M722.51,-224.08C721.32,-216.93 719.61,-206.64 718.12,-197.69"/>
<polygon fill="midnightblue" stroke="midnightblue" points="721.55,-197.04 716.46,-187.75 714.65,-198.19 721.55,-197.04"/>
</g>
<!-- Node9 -->
<g id="node9" class="node">
<title>Node9</title>
<g id="a_node9"><a xlink:href="$a00131.html" xlink:title=" ">
<polygon fill="white" stroke="black" points="756.5,-112.5 756.5,-131.5 833.5,-131.5 833.5,-112.5 756.5,-112.5"/>
<text text-anchor="middle" x="795" y="-119.5" font-family="Helvetica,sans-Serif" font-size="10.00">Vector3f.hpp</text>
</a>
</g>
</g>
<!-- Node8&#45;&gt;Node9 -->
<g id="edge9" class="edge">
<title>Node8&#45;&gt;Node9</title>
<path fill="none" stroke="midnightblue" d="M727.85,-168.32C740.22,-159.98 759.13,-147.21 773.74,-137.35"/>
<polygon fill="midnightblue" stroke="midnightblue" points="775.85,-140.15 782.18,-131.65 771.93,-134.35 775.85,-140.15"/>
</g>
<!-- Node10 -->
<g id="node10" class="node">
<title>Node10</title>
<g id="a_node10"><a xlink:title=" ">
<polygon fill="white" stroke="#bfbfbf" points="766.5,-56.5 766.5,-75.5 823.5,-75.5 823.5,-56.5 766.5,-56.5"/>
<text text-anchor="middle" x="795" y="-63.5" font-family="Helvetica,sans-Serif" font-size="10.00">ostream</text>
</a>
</g>
</g>
<!-- Node9&#45;&gt;Node10 -->
<g id="edge10" class="edge">
<title>Node9&#45;&gt;Node10</title>
<path fill="none" stroke="midnightblue" d="M795,-112.08C795,-105.01 795,-94.86 795,-85.99"/>
<polygon fill="midnightblue" stroke="midnightblue" points="798.5,-85.75 795,-75.75 791.5,-85.75 798.5,-85.75"/>
</g>
<!-- Node9&#45;&gt;Node11 -->
<g id="edge11" class="edge">
<title>Node9&#45;&gt;Node11</title>
<path fill="none" stroke="midnightblue" d="M766.64,-112.44C736.26,-103.28 687.89,-88.69 654.18,-78.52"/>
<polygon fill="midnightblue" stroke="midnightblue" points="654.82,-75.05 644.23,-75.52 652.79,-81.76 654.82,-75.05"/>
</g>
<!-- Node11&#45;&gt;Node4 -->
<g id="edge12" class="edge">
<title>Node11&#45;&gt;Node4</title>
<path fill="none" stroke="midnightblue" d="M578.45,-56.86C532,-46.78 453.29,-29.71 406.12,-19.48"/>
<polygon fill="midnightblue" stroke="midnightblue" points="406.79,-16.05 396.28,-17.35 405.31,-22.89 406.79,-16.05"/>
</g>
<!-- Node12 -->
<g id="node12" class="node">
<title>Node12</title>
<g id="a_node12"><a xlink:title=" ">
<polygon fill="white" stroke="#bfbfbf" points="574.5,-0.5 574.5,-19.5 657.5,-19.5 657.5,-0.5 574.5,-0.5"/>
<text text-anchor="middle" x="616" y="-7.5" font-family="Helvetica,sans-Serif" font-size="10.00">libconfig.h++</text>
</a>
</g>
</g>
<!-- Node11&#45;&gt;Node12 -->
<g id="edge13" class="edge">
<title>Node11&#45;&gt;Node12</title>
<path fill="none" stroke="midnightblue" d="M616,-56.08C616,-49.01 616,-38.86 616,-29.99"/>
<polygon fill="midnightblue" stroke="midnightblue" points="619.5,-29.75 616,-19.75 612.5,-29.75 619.5,-29.75"/>
</g>
<!-- Node13&#45;&gt;Node3 -->
<g id="edge17" class="edge">
<title>Node13&#45;&gt;Node3</title>
<path fill="none" stroke="midnightblue" d="M161.32,-280.37C176.55,-267.71 206.06,-243.5 232,-224 245.98,-213.49 262.09,-202.17 274.64,-193.51"/>
<polygon fill="midnightblue" stroke="midnightblue" points="276.81,-196.27 283.08,-187.73 272.85,-190.5 276.81,-196.27"/>
</g>
<!-- Node13&#45;&gt;Node4 -->
<g id="edge18" class="edge">
<title>Node13&#45;&gt;Node4</title>
<path fill="none" stroke="midnightblue" d="M142.83,-280.38C127.07,-262.81 94,-220.94 94,-179 94,-179 94,-179 94,-121 94,-71.22 252.13,-33.5 327.7,-18.31"/>
<polygon fill="midnightblue" stroke="midnightblue" points="328.65,-21.69 337.78,-16.32 327.3,-14.82 328.65,-21.69"/>
</g>
<!-- Node13&#45;&gt;Node5 -->
<g id="edge20" class="edge">
<title>Node13&#45;&gt;Node5</title>
<path fill="none" stroke="midnightblue" d="M189.75,-283.87C265.1,-273.9 431.07,-251.93 512.33,-241.18"/>
<polygon fill="midnightblue" stroke="midnightblue" points="512.82,-244.64 522.28,-239.86 511.9,-237.7 512.82,-244.64"/>
</g>
<!-- Node13&#45;&gt;Node11 -->
<g id="edge21" class="edge">
<title>Node13&#45;&gt;Node11</title>
<path fill="none" stroke="midnightblue" d="M156.41,-280.29C170.93,-257.72 213.15,-197.1 265,-168 364.67,-112.06 497.99,-84.82 568.17,-73.6"/>
<polygon fill="midnightblue" stroke="midnightblue" points="569.12,-77 578.46,-72 568.04,-70.08 569.12,-77"/>
</g>
<!-- Node14 -->
<g id="node14" class="node">
<title>Node14</title>
<g id="a_node14"><a xlink:title=" ">
<polygon fill="white" stroke="#bfbfbf" points="28,-224.5 28,-243.5 66,-243.5 66,-224.5 28,-224.5"/>
<text text-anchor="middle" x="47" y="-231.5" font-family="Helvetica,sans-Serif" font-size="10.00">map</text>
</a>
</g>
</g>
<!-- Node13&#45;&gt;Node14 -->
<g id="edge19" class="edge">
<title>Node13&#45;&gt;Node14</title>
<path fill="none" stroke="midnightblue" d="M134.29,-280.32C117.69,-271.7 92,-258.36 72.78,-248.39"/>
<polygon fill="midnightblue" stroke="midnightblue" points="74.16,-245.16 63.67,-243.65 70.93,-251.37 74.16,-245.16"/>
</g>
<!-- Node15&#45;&gt;Node3 -->
<g id="edge24" class="edge">
<title>Node15&#45;&gt;Node3</title>
<path fill="none" stroke="midnightblue" d="M433.26,-336.49C408.59,-329.16 374.57,-317.05 348,-300 318.11,-280.82 304.74,-276.75 291,-244 284.84,-229.32 286.96,-211.16 290.12,-197.76"/>
<polygon fill="midnightblue" stroke="midnightblue" points="293.58,-198.39 292.86,-187.82 286.83,-196.53 293.58,-198.39"/>
</g>
<!-- Node15&#45;&gt;Node4 -->
<g id="edge23" class="edge">
<title>Node15&#45;&gt;Node4</title>
<path fill="none" stroke="midnightblue" d="M413.9,-343.64C292.3,-339.05 0,-319.27 0,-235 0,-235 0,-235 0,-121 0,-53.12 233.27,-23.56 327.86,-14.36"/>
<polygon fill="midnightblue" stroke="midnightblue" points="328.27,-17.84 337.9,-13.41 327.61,-10.87 328.27,-17.84"/>
</g>
<!-- Node15&#45;&gt;Node5 -->
<g id="edge31" class="edge">
<title>Node15&#45;&gt;Node5</title>
<path fill="none" stroke="midnightblue" d="M473.3,-336.37C488.78,-318.05 525.14,-275.05 545.17,-251.36"/>
<polygon fill="midnightblue" stroke="midnightblue" points="547.95,-253.49 551.74,-243.59 542.61,-248.97 547.95,-253.49"/>
</g>
<!-- Node15&#45;&gt;Node7 -->
<g id="edge25" class="edge">
<title>Node15&#45;&gt;Node7</title>
<path fill="none" stroke="midnightblue" d="M518.22,-339.39C574.8,-332.45 660.57,-319.16 687,-300 702.74,-288.6 712.72,-268.31 718.3,-253.42"/>
<polygon fill="midnightblue" stroke="midnightblue" points="721.68,-254.34 721.6,-243.74 715.06,-252.08 721.68,-254.34"/>
</g>
<!-- Node15&#45;&gt;Node11 -->
<g id="edge40" class="edge">
<title>Node15&#45;&gt;Node11</title>
<path fill="none" stroke="midnightblue" d="M518.1,-343.96C569.3,-341.02 648.35,-331.23 709,-300 764.8,-271.27 780.58,-249.08 795,-188 797.04,-179.35 799.48,-175.68 795,-168 786.37,-153.23 690.21,-103.9 642.51,-80.09"/>
<polygon fill="midnightblue" stroke="midnightblue" points="643.9,-76.87 633.38,-75.55 640.78,-83.14 643.9,-76.87"/>
</g>
<!-- Node16 -->
<g id="node16" class="node">
<title>Node16</title>
<g id="a_node16"><a xlink:href="$a00200.html" xlink:title=" ">
<polygon fill="white" stroke="black" points="574,-280.5 574,-299.5 678,-299.5 678,-280.5 574,-280.5"/>
<text text-anchor="middle" x="626" y="-287.5" font-family="Helvetica,sans-Serif" font-size="10.00">IEntityCreator.hpp</text>
</a>
</g>
</g>
<!-- Node15&#45;&gt;Node16 -->
<g id="edge26" class="edge">
<title>Node15&#45;&gt;Node16</title>
<path fill="none" stroke="midnightblue" d="M491.35,-336.44C518.27,-327.36 561,-312.94 591.09,-302.78"/>
<polygon fill="midnightblue" stroke="midnightblue" points="592.41,-306.03 600.77,-299.52 590.17,-299.4 592.41,-306.03"/>
</g>
<!-- Node17 -->
<g id="node17" class="node">
<title>Node17</title>
<g id="a_node17"><a xlink:href="$a00221.html" xlink:title=" ">
<polygon fill="white" stroke="black" points="357.5,-280.5 357.5,-299.5 462.5,-299.5 462.5,-280.5 357.5,-280.5"/>
<text text-anchor="middle" x="410" y="-287.5" font-family="Helvetica,sans-Serif" font-size="10.00">PluginHandler.hpp</text>
</a>
</g>
</g>
<!-- Node15&#45;&gt;Node17 -->
<g id="edge32" class="edge">
<title>Node15&#45;&gt;Node17</title>
<path fill="none" stroke="midnightblue" d="M457,-336.32C448.81,-328.42 436.49,-316.55 426.53,-306.94"/>
<polygon fill="midnightblue" stroke="midnightblue" points="428.79,-304.26 419.16,-299.83 423.93,-309.29 428.79,-304.26"/>
</g>
<!-- Node16&#45;&gt;Node4 -->
<g id="edge27" class="edge">
<title>Node16&#45;&gt;Node4</title>
<path fill="none" stroke="midnightblue" d="M624.09,-280.17C621.06,-267.27 614.41,-242.75 604,-224 551.13,-128.82 439.47,-54.09 390.67,-24.63"/>
<polygon fill="midnightblue" stroke="midnightblue" points="392.43,-21.6 382.05,-19.5 388.85,-27.62 392.43,-21.6"/>
</g>
<!-- Node16&#45;&gt;Node5 -->
<g id="edge29" class="edge">
<title>Node16&#45;&gt;Node5</title>
<path fill="none" stroke="midnightblue" d="M615.24,-280.32C605.23,-272.26 590.11,-260.08 578.07,-250.37"/>
<polygon fill="midnightblue" stroke="midnightblue" points="579.94,-247.38 569.96,-243.83 575.55,-252.83 579.94,-247.38"/>
</g>
<!-- Node16&#45;&gt;Node7 -->
<g id="edge28" class="edge">
<title>Node16&#45;&gt;Node7</title>
<path fill="none" stroke="midnightblue" d="M641.75,-280.32C657.32,-271.74 681.38,-258.49 699.46,-248.52"/>
<polygon fill="midnightblue" stroke="midnightblue" points="701.22,-251.55 708.29,-243.65 697.85,-245.42 701.22,-251.55"/>
</g>
<!-- Node16&#45;&gt;Node11 -->
<g id="edge30" class="edge">
<title>Node16&#45;&gt;Node11</title>
<path fill="none" stroke="midnightblue" d="M629.09,-280.17C632.05,-271.2 636.32,-256.83 638,-244 639.15,-235.19 638.62,-232.87 638,-224 634.5,-173.83 624.79,-115.28 619.51,-85.89"/>
<polygon fill="midnightblue" stroke="midnightblue" points="622.91,-85.02 617.67,-75.81 616.03,-86.27 622.91,-85.02"/>
</g>
<!-- Node17&#45;&gt;Node3 -->
<g id="edge33" class="edge">
<title>Node17&#45;&gt;Node3</title>
<path fill="none" stroke="midnightblue" d="M362.62,-280.5C341.04,-274.12 317.2,-263.07 303,-244 293.16,-230.78 292.23,-211.65 293.27,-197.56"/>
<polygon fill="midnightblue" stroke="midnightblue" points="296.75,-197.89 294.39,-187.56 289.8,-197.11 296.75,-197.89"/>
</g>
<!-- Node17&#45;&gt;Node4 -->
<g id="edge34" class="edge">
<title>Node17&#45;&gt;Node4</title>
<path fill="none" stroke="midnightblue" d="M357.45,-283.17C297.6,-273.27 208,-247.08 208,-179 208,-179 208,-179 208,-121 208,-62.83 280.85,-33.01 327.93,-19.81"/>
<polygon fill="midnightblue" stroke="midnightblue" points="329.08,-23.13 337.84,-17.17 327.27,-16.37 329.08,-23.13"/>
</g>
<!-- Node17&#45;&gt;Node5 -->
<g id="edge38" class="edge">
<title>Node17&#45;&gt;Node5</title>
<path fill="none" stroke="midnightblue" d="M433.61,-280.44C458.46,-271.44 497.77,-257.19 525.75,-247.05"/>
<polygon fill="midnightblue" stroke="midnightblue" points="527.29,-250.21 535.5,-243.52 524.91,-243.63 527.29,-250.21"/>
</g>
<!-- Node17&#45;&gt;Node6 -->
<g id="edge37" class="edge">
<title>Node17&#45;&gt;Node6</title>
<path fill="none" stroke="midnightblue" d="M423.8,-280.4C436.6,-272.03 455.76,-258.49 470,-244 484.43,-229.31 497.87,-209.9 506.65,-196.13"/>
<polygon fill="midnightblue" stroke="midnightblue" points="509.64,-197.96 511.94,-187.62 503.69,-194.27 509.64,-197.96"/>
</g>
<!-- Node17&#45;&gt;Node11 -->
<g id="edge39" class="edge">
<title>Node17&#45;&gt;Node11</title>
<path fill="none" stroke="midnightblue" d="M415.11,-280.45C420.45,-271.45 429,-256.83 436,-244 454.17,-210.66 450.2,-196.75 475,-168 508.51,-129.15 559.87,-97.28 590.47,-80.3"/>
<polygon fill="midnightblue" stroke="midnightblue" points="592.15,-83.37 599.27,-75.52 588.81,-77.22 592.15,-83.37"/>
</g>
<!-- Node18 -->
<g id="node18" class="node">
<title>Node18</title>
<g id="a_node18"><a xlink:title=" ">
<polygon fill="white" stroke="#bfbfbf" points="312,-224.5 312,-243.5 362,-243.5 362,-224.5 312,-224.5"/>
<text text-anchor="middle" x="337" y="-231.5" font-family="Helvetica,sans-Serif" font-size="10.00">dlfcn.h</text>
</a>
</g>
</g>
<!-- Node17&#45;&gt;Node18 -->
<g id="edge35" class="edge">
<title>Node17&#45;&gt;Node18</title>
<path fill="none" stroke="midnightblue" d="M398.27,-280.32C387.16,-272.11 370.26,-259.6 357.02,-249.81"/>
<polygon fill="midnightblue" stroke="midnightblue" points="359.06,-246.97 348.94,-243.83 354.9,-252.59 359.06,-246.97"/>
</g>
<!-- Node19 -->
<g id="node19" class="node">
<title>Node19</title>
<g id="a_node19"><a xlink:title=" ">
<polygon fill="white" stroke="#bfbfbf" points="380.5,-224.5 380.5,-243.5 427.5,-243.5 427.5,-224.5 380.5,-224.5"/>
<text text-anchor="middle" x="404" y="-231.5" font-family="Helvetica,sans-Serif" font-size="10.00">vector</text>
</a>
</g>
</g>
<!-- Node17&#45;&gt;Node19 -->
<g id="edge36" class="edge">
<title>Node17&#45;&gt;Node19</title>
<path fill="none" stroke="midnightblue" d="M409.01,-280.08C408.21,-272.93 407.07,-262.64 406.08,-253.69"/>
<polygon fill="midnightblue" stroke="midnightblue" points="409.56,-253.3 404.97,-243.75 402.6,-254.08 409.56,-253.3"/>
</g>
</g>
</svg>
