<?xml version="1.0" encoding="UTF-8" standalone="no"?>
<!DOCTYPE svg PUBLIC "-//W3C//DTD SVG 1.1//EN"
 "http://www.w3.org/Graphics/SVG/1.1/DTD/svg11.dtd">
<!-- Generated by graphviz version 2.43.0 (0)
 -->
<!-- Title: /home/runner/work/Raytracer/Raytracer/src/Factories/MaterialFactory.hpp Pages: 1 -->
<svg width="1206pt" height="442pt"
 viewBox="0.00 0.00 1206.08 442.00" xmlns="http://www.w3.org/2000/svg" xmlns:xlink="http://www.w3.org/1999/xlink">
<g id="graph0" class="graph" transform="scale(1 1) rotate(0) translate(4 438)">
<title>/home/runner/work/Raytracer/Raytracer/src/Factories/MaterialFactory.hpp</title>
<polygon fill="white" stroke="transparent" points="-4,4 -4,-438 1202.08,-438 1202.08,4 -4,4"/>
<!-- Node1 -->
<g id="node1" class="node">
<title>Node1</title>
<g id="a_node1"><a xlink:title=" ">
<polygon fill="#bfbfbf" stroke="black" points="310.5,-392.5 310.5,-433.5 469.5,-433.5 469.5,-392.5 310.5,-392.5"/>
<text text-anchor="start" x="318.5" y="-421.5" font-family="Helvetica,sans-Serif" font-size="10.00">/home/runner/work/Raytracer</text>
<text text-anchor="start" x="318.5" y="-410.5" font-family="Helvetica,sans-Serif" font-size="10.00">/Raytracer/src/Factories</text>
<text text-anchor="middle" x="390" y="-399.5" font-family="Helvetica,sans-Serif" font-size="10.00">/MaterialFactory.hpp</text>
</a>
</g>
</g>
<!-- Node2 -->
<g id="node2" class="node">
<title>Node2</title>
<g id="a_node2"><a xlink:href="$a00140.html" xlink:title=" ">
<polygon fill="white" stroke="black" points="246.5,-280.5 246.5,-299.5 361.5,-299.5 361.5,-280.5 246.5,-280.5"/>
<text text-anchor="middle" x="304" y="-287.5" font-family="Helvetica,sans-Serif" font-size="10.00">IMaterialFactory.hpp</text>
</a>
</g>
</g>
<!-- Node1&#45;&gt;Node2 -->
<g id="edge1" class="edge">
<title>Node1&#45;&gt;Node2</title>
<path fill="none" stroke="midnightblue" d="M375.99,-392.29C359.33,-368.85 331.81,-330.13 316.06,-307.96"/>
<polygon fill="midnightblue" stroke="midnightblue" points="318.74,-305.7 310.09,-299.57 313.03,-309.75 318.74,-305.7"/>
</g>
<!-- Node5 -->
<g id="node5" class="node">
<title>Node5</title>
<g id="a_node5"><a xlink:href="$a00152.html" xlink:title=" ">
<polygon fill="white" stroke="black" points="322.5,-224.5 322.5,-243.5 395.5,-243.5 395.5,-224.5 322.5,-224.5"/>
<text text-anchor="middle" x="359" y="-231.5" font-family="Helvetica,sans-Serif" font-size="10.00">ILogger.hpp</text>
</a>
</g>
</g>
<!-- Node1&#45;&gt;Node5 -->
<g id="edge26" class="edge">
<title>Node1&#45;&gt;Node5</title>
<path fill="none" stroke="midnightblue" d="M387.56,-392.22C384.25,-366.33 377.82,-319.57 370,-280 368.26,-271.21 365.96,-261.55 363.9,-253.45"/>
<polygon fill="midnightblue" stroke="midnightblue" points="367.24,-252.37 361.34,-243.58 360.47,-254.13 367.24,-252.37"/>
</g>
<!-- Node7 -->
<g id="node7" class="node">
<title>Node7</title>
<g id="a_node7"><a xlink:href="$a00110.html" xlink:title=" ">
<polygon fill="white" stroke="black" points="799.5,-224.5 799.5,-243.5 880.5,-243.5 880.5,-224.5 799.5,-224.5"/>
<text text-anchor="middle" x="840" y="-231.5" font-family="Helvetica,sans-Serif" font-size="10.00">IMaterial.hpp</text>
</a>
</g>
</g>
<!-- Node1&#45;&gt;Node7 -->
<g id="edge52" class="edge">
<title>Node1&#45;&gt;Node7</title>
<path fill="none" stroke="midnightblue" d="M469.64,-409.79C560.92,-403.31 710.46,-380.1 808,-300 822.41,-288.17 830.86,-268.25 835.42,-253.57"/>
<polygon fill="midnightblue" stroke="midnightblue" points="838.89,-254.16 838.19,-243.59 832.14,-252.29 838.89,-254.16"/>
</g>
<!-- Node19 -->
<g id="node19" class="node">
<title>Node19</title>
<g id="a_node19"><a xlink:href="$a00146.html" xlink:title=" ">
<polygon fill="white" stroke="black" points="89.5,-280.5 89.5,-299.5 166.5,-299.5 166.5,-280.5 89.5,-280.5"/>
<text text-anchor="middle" x="128" y="-287.5" font-family="Helvetica,sans-Serif" font-size="10.00">TFactory.hpp</text>
</a>
</g>
</g>
<!-- Node1&#45;&gt;Node19 -->
<g id="edge27" class="edge">
<title>Node1&#45;&gt;Node19</title>
<path fill="none" stroke="midnightblue" d="M347.61,-392.42C293.64,-367.5 201.89,-325.13 155.95,-303.91"/>
<polygon fill="midnightblue" stroke="midnightblue" points="157.16,-300.61 146.61,-299.6 154.22,-306.97 157.16,-300.61"/>
</g>
<!-- Node21 -->
<g id="node21" class="node">
<title>Node21</title>
<g id="a_node21"><a xlink:href="$a00209.html" xlink:title=" ">
<polygon fill="white" stroke="black" points="454,-336.5 454,-355.5 570,-355.5 570,-336.5 454,-336.5"/>
<text text-anchor="middle" x="512" y="-343.5" font-family="Helvetica,sans-Serif" font-size="10.00">MaterialHandler.hpp</text>
</a>
</g>
</g>
<!-- Node1&#45;&gt;Node21 -->
<g id="edge33" class="edge">
<title>Node1&#45;&gt;Node21</title>
<path fill="none" stroke="midnightblue" d="M426.6,-392.5C446.03,-382.15 469.4,-369.69 486.78,-360.43"/>
<polygon fill="midnightblue" stroke="midnightblue" points="488.58,-363.44 495.76,-355.65 485.29,-357.27 488.58,-363.44"/>
</g>
<!-- Node3 -->
<g id="node3" class="node">
<title>Node3</title>
<g id="a_node3"><a xlink:title=" ">
<polygon fill="white" stroke="#bfbfbf" points="337,-168.5 337,-187.5 381,-187.5 381,-168.5 337,-168.5"/>
<text text-anchor="middle" x="359" y="-175.5" font-family="Helvetica,sans-Serif" font-size="10.00">string</text>
</a>
</g>
</g>
<!-- Node2&#45;&gt;Node3 -->
<g id="edge2" class="edge">
<title>Node2&#45;&gt;Node3</title>
<path fill="none" stroke="midnightblue" d="M303.48,-280.49C303.05,-267.56 303.67,-242.51 313,-224 318.85,-212.39 328.89,-202.04 338.1,-194.2"/>
<polygon fill="midnightblue" stroke="midnightblue" points="340.55,-196.72 346.18,-187.74 336.18,-191.25 340.55,-196.72"/>
</g>
<!-- Node4 -->
<g id="node4" class="node">
<title>Node4</title>
<g id="a_node4"><a xlink:title=" ">
<polygon fill="white" stroke="#bfbfbf" points="615,-0.5 615,-19.5 673,-19.5 673,-0.5 615,-0.5"/>
<text text-anchor="middle" x="644" y="-7.5" font-family="Helvetica,sans-Serif" font-size="10.00">memory</text>
</a>
</g>
</g>
<!-- Node2&#45;&gt;Node4 -->
<g id="edge3" class="edge">
<title>Node2&#45;&gt;Node4</title>
<path fill="none" stroke="midnightblue" d="M264.37,-280.47C216.41,-267.54 142,-237.98 142,-179 142,-179 142,-179 142,-121 142,-97.35 486.59,-37.38 604.77,-17.51"/>
<polygon fill="midnightblue" stroke="midnightblue" points="605.56,-20.93 614.84,-15.82 604.4,-14.02 605.56,-20.93"/>
</g>
<!-- Node2&#45;&gt;Node5 -->
<g id="edge4" class="edge">
<title>Node2&#45;&gt;Node5</title>
<path fill="none" stroke="midnightblue" d="M313.08,-280.08C321.17,-272.14 333.2,-260.34 342.91,-250.8"/>
<polygon fill="midnightblue" stroke="midnightblue" points="345.4,-253.25 350.09,-243.75 340.5,-248.26 345.4,-253.25"/>
</g>
<!-- Node2&#45;&gt;Node7 -->
<g id="edge7" class="edge">
<title>Node2&#45;&gt;Node7</title>
<path fill="none" stroke="midnightblue" d="M361.62,-283.2C466.99,-272.58 689.1,-250.2 789.2,-240.12"/>
<polygon fill="midnightblue" stroke="midnightblue" points="789.76,-243.58 799.35,-239.09 789.05,-236.62 789.76,-243.58"/>
</g>
<!-- Node11 -->
<g id="node11" class="node">
<title>Node11</title>
<g id="a_node11"><a xlink:href="$a00239.html" xlink:title=" ">
<polygon fill="white" stroke="black" points="490.5,-56.5 490.5,-75.5 565.5,-75.5 565.5,-56.5 490.5,-56.5"/>
<text text-anchor="middle" x="528" y="-63.5" font-family="Helvetica,sans-Serif" font-size="10.00">ISetting.hpp</text>
</a>
</g>
</g>
<!-- Node2&#45;&gt;Node11 -->
<g id="edge25" class="edge">
<title>Node2&#45;&gt;Node11</title>
<path fill="none" stroke="midnightblue" d="M303.75,-280.37C303.5,-271.32 303.14,-256.66 303,-244 302.9,-235.11 301.15,-232.69 303,-224 308.68,-197.34 309.19,-187.73 328,-168 372.29,-121.54 442.59,-93.01 486.96,-78.6"/>
<polygon fill="midnightblue" stroke="midnightblue" points="488.07,-81.92 496.56,-75.57 485.97,-75.24 488.07,-81.92"/>
</g>
<!-- Node5&#45;&gt;Node3 -->
<g id="edge6" class="edge">
<title>Node5&#45;&gt;Node3</title>
<path fill="none" stroke="midnightblue" d="M359,-224.08C359,-217.01 359,-206.86 359,-197.99"/>
<polygon fill="midnightblue" stroke="midnightblue" points="362.5,-197.75 359,-187.75 355.5,-197.75 362.5,-197.75"/>
</g>
<!-- Node6 -->
<g id="node6" class="node">
<title>Node6</title>
<g id="a_node6"><a xlink:title=" ">
<polygon fill="white" stroke="#bfbfbf" points="403.5,-168.5 403.5,-187.5 468.5,-187.5 468.5,-168.5 403.5,-168.5"/>
<text text-anchor="middle" x="436" y="-175.5" font-family="Helvetica,sans-Serif" font-size="10.00">functional</text>
</a>
</g>
</g>
<!-- Node5&#45;&gt;Node6 -->
<g id="edge5" class="edge">
<title>Node5&#45;&gt;Node6</title>
<path fill="none" stroke="midnightblue" d="M371.37,-224.32C383.16,-216.06 401.13,-203.45 415.14,-193.63"/>
<polygon fill="midnightblue" stroke="midnightblue" points="417.48,-196.26 423.66,-187.65 413.46,-190.53 417.48,-196.26"/>
</g>
<!-- Node8 -->
<g id="node8" class="node">
<title>Node8</title>
<g id="a_node8"><a xlink:href="$a00170.html" xlink:title=" ">
<polygon fill="white" stroke="black" points="1048.5,-168.5 1048.5,-187.5 1103.5,-187.5 1103.5,-168.5 1048.5,-168.5"/>
<text text-anchor="middle" x="1076" y="-175.5" font-family="Helvetica,sans-Serif" font-size="10.00">Ray.hpp</text>
</a>
</g>
</g>
<!-- Node7&#45;&gt;Node8 -->
<g id="edge8" class="edge">
<title>Node7&#45;&gt;Node8</title>
<path fill="none" stroke="midnightblue" d="M877.39,-224.44C921.53,-214.35 994.47,-197.65 1038.61,-187.56"/>
<polygon fill="midnightblue" stroke="midnightblue" points="1039.4,-190.97 1048.37,-185.32 1037.84,-184.14 1039.4,-190.97"/>
</g>
<!-- Node9 -->
<g id="node9" class="node">
<title>Node9</title>
<g id="a_node9"><a xlink:href="$a00125.html" xlink:title=" ">
<polygon fill="white" stroke="black" points="908.5,-112.5 908.5,-131.5 985.5,-131.5 985.5,-112.5 908.5,-112.5"/>
<text text-anchor="middle" x="947" y="-119.5" font-family="Helvetica,sans-Serif" font-size="10.00">Vector3f.hpp</text>
</a>
</g>
</g>
<!-- Node7&#45;&gt;Node9 -->
<g id="edge24" class="edge">
<title>Node7&#45;&gt;Node9</title>
<path fill="none" stroke="midnightblue" d="M880.69,-227.28C923.45,-220.33 986.48,-207.13 1001,-188 1014.75,-169.88 992.03,-149.86 971.98,-136.9"/>
<polygon fill="midnightblue" stroke="midnightblue" points="973.74,-133.87 963.38,-131.63 970.08,-139.84 973.74,-133.87"/>
</g>
<!-- Node13 -->
<g id="node13" class="node">
<title>Node13</title>
<g id="a_node13"><a xlink:href="$a00155.html" xlink:title=" ">
<polygon fill="white" stroke="black" points="1004,-112.5 1004,-131.5 1066,-131.5 1066,-112.5 1004,-112.5"/>
<text text-anchor="middle" x="1035" y="-119.5" font-family="Helvetica,sans-Serif" font-size="10.00">Color.hpp</text>
</a>
</g>
</g>
<!-- Node7&#45;&gt;Node13 -->
<g id="edge14" class="edge">
<title>Node7&#45;&gt;Node13</title>
<path fill="none" stroke="midnightblue" d="M880.55,-232.47C949.18,-230.62 1083.67,-222.56 1113,-188 1130.83,-166.99 1097.8,-147.4 1069.37,-135.33"/>
<polygon fill="midnightblue" stroke="midnightblue" points="1070.57,-132.04 1059.99,-131.54 1067.95,-138.53 1070.57,-132.04"/>
</g>
<!-- Node16 -->
<g id="node16" class="node">
<title>Node16</title>
<g id="a_node16"><a xlink:href="$a00233.html" xlink:title=" ">
<polygon fill="white" stroke="black" points="786,-168.5 786,-187.5 884,-187.5 884,-168.5 786,-168.5"/>
<text text-anchor="middle" x="835" y="-175.5" font-family="Helvetica,sans-Serif" font-size="10.00">IDisplayable.hpp</text>
</a>
</g>
</g>
<!-- Node7&#45;&gt;Node16 -->
<g id="edge19" class="edge">
<title>Node7&#45;&gt;Node16</title>
<path fill="none" stroke="midnightblue" d="M839.17,-224.08C838.52,-217.01 837.58,-206.86 836.76,-197.99"/>
<polygon fill="midnightblue" stroke="midnightblue" points="840.22,-197.39 835.81,-187.75 833.25,-198.03 840.22,-197.39"/>
</g>
<!-- Node18 -->
<g id="node18" class="node">
<title>Node18</title>
<g id="a_node18"><a xlink:href="$a00116.html" xlink:title=" ">
<polygon fill="white" stroke="black" points="902.5,-168.5 902.5,-187.5 991.5,-187.5 991.5,-168.5 902.5,-168.5"/>
<text text-anchor="middle" x="947" y="-175.5" font-family="Helvetica,sans-Serif" font-size="10.00">ITransform.hpp</text>
</a>
</g>
</g>
<!-- Node7&#45;&gt;Node18 -->
<g id="edge22" class="edge">
<title>Node7&#45;&gt;Node18</title>
<path fill="none" stroke="midnightblue" d="M857.19,-224.32C874.35,-215.66 900.95,-202.24 920.75,-192.25"/>
<polygon fill="midnightblue" stroke="midnightblue" points="922.5,-195.28 929.85,-187.65 919.35,-189.04 922.5,-195.28"/>
</g>
<!-- Node8&#45;&gt;Node9 -->
<g id="edge9" class="edge">
<title>Node8&#45;&gt;Node9</title>
<path fill="none" stroke="midnightblue" d="M1055.56,-168.44C1034.33,-159.56 1000.9,-145.56 976.75,-135.45"/>
<polygon fill="midnightblue" stroke="midnightblue" points="977.92,-132.15 967.34,-131.52 975.22,-138.61 977.92,-132.15"/>
</g>
<!-- Node10 -->
<g id="node10" class="node">
<title>Node10</title>
<g id="a_node10"><a xlink:title=" ">
<polygon fill="white" stroke="#bfbfbf" points="890.5,-56.5 890.5,-75.5 947.5,-75.5 947.5,-56.5 890.5,-56.5"/>
<text text-anchor="middle" x="919" y="-63.5" font-family="Helvetica,sans-Serif" font-size="10.00">ostream</text>
</a>
</g>
</g>
<!-- Node9&#45;&gt;Node10 -->
<g id="edge10" class="edge">
<title>Node9&#45;&gt;Node10</title>
<path fill="none" stroke="midnightblue" d="M942.38,-112.08C938.54,-104.69 932.98,-93.95 928.24,-84.81"/>
<polygon fill="midnightblue" stroke="midnightblue" points="931.25,-83.02 923.54,-75.75 925.03,-86.24 931.25,-83.02"/>
</g>
<!-- Node9&#45;&gt;Node11 -->
<g id="edge11" class="edge">
<title>Node9&#45;&gt;Node11</title>
<path fill="none" stroke="midnightblue" d="M908.33,-116.02C831.42,-106.1 659.44,-83.94 575.68,-73.14"/>
<polygon fill="midnightblue" stroke="midnightblue" points="576.03,-69.66 565.67,-71.85 575.14,-76.6 576.03,-69.66"/>
</g>
<!-- Node11&#45;&gt;Node4 -->
<g id="edge12" class="edge">
<title>Node11&#45;&gt;Node4</title>
<path fill="none" stroke="midnightblue" d="M546.38,-56.44C565.22,-47.68 594.73,-33.94 616.38,-23.86"/>
<polygon fill="midnightblue" stroke="midnightblue" points="618.12,-26.91 625.71,-19.52 615.16,-20.56 618.12,-26.91"/>
</g>
<!-- Node12 -->
<g id="node12" class="node">
<title>Node12</title>
<g id="a_node12"><a xlink:title=" ">
<polygon fill="white" stroke="#bfbfbf" points="486.5,-0.5 486.5,-19.5 569.5,-19.5 569.5,-0.5 486.5,-0.5"/>
<text text-anchor="middle" x="528" y="-7.5" font-family="Helvetica,sans-Serif" font-size="10.00">libconfig.h++</text>
</a>
</g>
</g>
<!-- Node11&#45;&gt;Node12 -->
<g id="edge13" class="edge">
<title>Node11&#45;&gt;Node12</title>
<path fill="none" stroke="midnightblue" d="M528,-56.08C528,-49.01 528,-38.86 528,-29.99"/>
<polygon fill="midnightblue" stroke="midnightblue" points="531.5,-29.75 528,-19.75 524.5,-29.75 531.5,-29.75"/>
</g>
<!-- Node13&#45;&gt;Node10 -->
<g id="edge16" class="edge">
<title>Node13&#45;&gt;Node10</title>
<path fill="none" stroke="midnightblue" d="M1016.62,-112.44C997.78,-103.68 968.27,-89.94 946.62,-79.86"/>
<polygon fill="midnightblue" stroke="midnightblue" points="947.84,-76.56 937.29,-75.52 944.88,-82.91 947.84,-76.56"/>
</g>
<!-- Node13&#45;&gt;Node11 -->
<g id="edge18" class="edge">
<title>Node13&#45;&gt;Node11</title>
<path fill="none" stroke="midnightblue" d="M1003.63,-113.55C1000.72,-112.98 997.81,-112.45 995,-112 842.9,-87.66 660.67,-74.72 575.83,-69.63"/>
<polygon fill="midnightblue" stroke="midnightblue" points="575.92,-66.12 565.73,-69.03 575.51,-73.11 575.92,-66.12"/>
</g>
<!-- Node14 -->
<g id="node14" class="node">
<title>Node14</title>
<g id="a_node14"><a xlink:title=" ">
<polygon fill="white" stroke="#bfbfbf" points="1121,-56.5 1121,-75.5 1169,-75.5 1169,-56.5 1121,-56.5"/>
<text text-anchor="middle" x="1145" y="-63.5" font-family="Helvetica,sans-Serif" font-size="10.00">mutex</text>
</a>
</g>
</g>
<!-- Node13&#45;&gt;Node14 -->
<g id="edge15" class="edge">
<title>Node13&#45;&gt;Node14</title>
<path fill="none" stroke="midnightblue" d="M1052.67,-112.32C1070.39,-103.62 1097.9,-90.12 1118.29,-80.11"/>
<polygon fill="midnightblue" stroke="midnightblue" points="1119.94,-83.2 1127.37,-75.65 1116.85,-76.92 1119.94,-83.2"/>
</g>
<!-- Node15 -->
<g id="node15" class="node">
<title>Node15</title>
<g id="a_node15"><a xlink:title=" ">
<polygon fill="white" stroke="#bfbfbf" points="965.5,-56.5 965.5,-75.5 1102.5,-75.5 1102.5,-56.5 965.5,-56.5"/>
<text text-anchor="middle" x="1034" y="-63.5" font-family="Helvetica,sans-Serif" font-size="10.00">SFML/Graphics/Color.hpp</text>
</a>
</g>
</g>
<!-- Node13&#45;&gt;Node15 -->
<g id="edge17" class="edge">
<title>Node13&#45;&gt;Node15</title>
<path fill="none" stroke="midnightblue" d="M1034.83,-112.08C1034.7,-105.01 1034.52,-94.86 1034.35,-85.99"/>
<polygon fill="midnightblue" stroke="midnightblue" points="1037.85,-85.68 1034.16,-75.75 1030.85,-85.81 1037.85,-85.68"/>
</g>
<!-- Node16&#45;&gt;Node4 -->
<g id="edge20" class="edge">
<title>Node16&#45;&gt;Node4</title>
<path fill="none" stroke="midnightblue" d="M839.06,-168.08C844.35,-155.07 851.93,-130.42 843,-112 813.57,-51.3 732.12,-26.45 683.02,-16.76"/>
<polygon fill="midnightblue" stroke="midnightblue" points="683.54,-13.3 673.07,-14.91 682.26,-20.18 683.54,-13.3"/>
</g>
<!-- Node17 -->
<g id="node17" class="node">
<title>Node17</title>
<g id="a_node17"><a xlink:title=" ">
<polygon fill="white" stroke="#bfbfbf" points="786.5,-112.5 786.5,-131.5 833.5,-131.5 833.5,-112.5 786.5,-112.5"/>
<text text-anchor="middle" x="810" y="-119.5" font-family="Helvetica,sans-Serif" font-size="10.00">vector</text>
</a>
</g>
</g>
<!-- Node16&#45;&gt;Node17 -->
<g id="edge21" class="edge">
<title>Node16&#45;&gt;Node17</title>
<path fill="none" stroke="midnightblue" d="M830.87,-168.08C827.49,-160.77 822.58,-150.18 818.38,-141.1"/>
<polygon fill="midnightblue" stroke="midnightblue" points="821.43,-139.36 814.05,-131.75 815.08,-142.3 821.43,-139.36"/>
</g>
<!-- Node18&#45;&gt;Node9 -->
<g id="edge23" class="edge">
<title>Node18&#45;&gt;Node9</title>
<path fill="none" stroke="midnightblue" d="M947,-168.08C947,-161.01 947,-150.86 947,-141.99"/>
<polygon fill="midnightblue" stroke="midnightblue" points="950.5,-141.75 947,-131.75 943.5,-141.75 950.5,-141.75"/>
</g>
<!-- Node19&#45;&gt;Node3 -->
<g id="edge28" class="edge">
<title>Node19&#45;&gt;Node3</title>
<path fill="none" stroke="midnightblue" d="M146.13,-280.37C186.52,-261.13 284.14,-214.65 331.84,-191.93"/>
<polygon fill="midnightblue" stroke="midnightblue" points="333.43,-195.05 340.96,-187.59 330.42,-188.73 333.43,-195.05"/>
</g>
<!-- Node19&#45;&gt;Node4 -->
<g id="edge29" class="edge">
<title>Node19&#45;&gt;Node4</title>
<path fill="none" stroke="midnightblue" d="M118.85,-280.25C101.61,-262.77 66,-221.53 66,-179 66,-179 66,-179 66,-121 66,-49.5 533.39,-25.97 579,-20 587.35,-18.91 596.3,-17.69 604.81,-16.52"/>
<polygon fill="midnightblue" stroke="midnightblue" points="605.47,-19.97 614.89,-15.12 604.51,-13.03 605.47,-19.97"/>
</g>
<!-- Node19&#45;&gt;Node5 -->
<g id="edge31" class="edge">
<title>Node19&#45;&gt;Node5</title>
<path fill="none" stroke="midnightblue" d="M164.6,-280.44C204.73,-271.06 269.2,-255.99 312.78,-245.8"/>
<polygon fill="midnightblue" stroke="midnightblue" points="313.63,-249.2 322.57,-243.52 312.03,-242.38 313.63,-249.2"/>
</g>
<!-- Node19&#45;&gt;Node11 -->
<g id="edge32" class="edge">
<title>Node19&#45;&gt;Node11</title>
<path fill="none" stroke="midnightblue" d="M128.82,-280.19C132.08,-250.81 146.83,-155.61 204,-112 246.35,-79.7 400.59,-70.57 480.01,-68"/>
<polygon fill="midnightblue" stroke="midnightblue" points="480.35,-71.49 490.24,-67.69 480.14,-64.5 480.35,-71.49"/>
</g>
<!-- Node20 -->
<g id="node20" class="node">
<title>Node20</title>
<g id="a_node20"><a xlink:title=" ">
<polygon fill="white" stroke="#bfbfbf" points="0,-224.5 0,-243.5 38,-243.5 38,-224.5 0,-224.5"/>
<text text-anchor="middle" x="19" y="-231.5" font-family="Helvetica,sans-Serif" font-size="10.00">map</text>
</a>
</g>
</g>
<!-- Node19&#45;&gt;Node20 -->
<g id="edge30" class="edge">
<title>Node19&#45;&gt;Node20</title>
<path fill="none" stroke="midnightblue" d="M110.49,-280.32C92.93,-271.62 65.67,-258.12 45.47,-248.11"/>
<polygon fill="midnightblue" stroke="midnightblue" points="46.98,-244.96 36.47,-243.65 43.88,-251.23 46.98,-244.96"/>
</g>
<!-- Node21&#45;&gt;Node3 -->
<g id="edge35" class="edge">
<title>Node21&#45;&gt;Node3</title>
<path fill="none" stroke="midnightblue" d="M504.57,-336.34C487.28,-316.27 442.87,-265.14 404,-224 394.7,-214.16 384,-203.44 375.37,-194.92"/>
<polygon fill="midnightblue" stroke="midnightblue" points="377.71,-192.32 368.12,-187.82 372.81,-197.32 377.71,-192.32"/>
</g>
<!-- Node21&#45;&gt;Node4 -->
<g id="edge34" class="edge">
<title>Node21&#45;&gt;Node4</title>
<path fill="none" stroke="midnightblue" d="M570.11,-341.76C735.51,-331.79 1197,-298.27 1197,-235 1197,-235 1197,-235 1197,-121 1197,-90.9 1201.3,-75.05 1178,-56 1139.93,-24.88 800.59,-14.47 683.51,-11.79"/>
<polygon fill="midnightblue" stroke="midnightblue" points="683.29,-8.28 673.21,-11.56 683.13,-15.28 683.29,-8.28"/>
</g>
<!-- Node21&#45;&gt;Node5 -->
<g id="edge42" class="edge">
<title>Node21&#45;&gt;Node5</title>
<path fill="none" stroke="midnightblue" d="M499.99,-336.37C473.85,-317.57 411.53,-272.77 379.21,-249.53"/>
<polygon fill="midnightblue" stroke="midnightblue" points="381.11,-246.59 370.95,-243.59 377.03,-252.27 381.11,-246.59"/>
</g>
<!-- Node21&#45;&gt;Node7 -->
<g id="edge36" class="edge">
<title>Node21&#45;&gt;Node7</title>
<path fill="none" stroke="midnightblue" d="M570,-339.97C638.42,-333.24 747.37,-319.83 783,-300 803.2,-288.76 819.73,-267.51 829.69,-252.37"/>
<polygon fill="midnightblue" stroke="midnightblue" points="832.67,-254.21 835.02,-243.88 826.74,-250.49 832.67,-254.21"/>
</g>
<!-- Node21&#45;&gt;Node11 -->
<g id="edge51" class="edge">
<title>Node21&#45;&gt;Node11</title>
<path fill="none" stroke="midnightblue" d="M453.91,-342.62C382.91,-338.53 268.34,-327.73 237,-300 214.46,-280.06 218,-265.1 218,-235 218,-235 218,-235 218,-177 218,-122 393.51,-87.49 480.41,-73.77"/>
<polygon fill="midnightblue" stroke="midnightblue" points="480.95,-77.23 490.3,-72.24 479.88,-70.31 480.95,-77.23"/>
</g>
<!-- Node22 -->
<g id="node22" class="node">
<title>Node22</title>
<g id="a_node22"><a xlink:href="$a00206.html" xlink:title=" ">
<polygon fill="white" stroke="black" points="658,-280.5 658,-299.5 774,-299.5 774,-280.5 658,-280.5"/>
<text text-anchor="middle" x="716" y="-287.5" font-family="Helvetica,sans-Serif" font-size="10.00">IMaterialCreator.hpp</text>
</a>
</g>
</g>
<!-- Node21&#45;&gt;Node22 -->
<g id="edge37" class="edge">
<title>Node21&#45;&gt;Node22</title>
<path fill="none" stroke="midnightblue" d="M544.32,-336.44C579.39,-327.16 635.5,-312.31 673.96,-302.13"/>
<polygon fill="midnightblue" stroke="midnightblue" points="675.06,-305.46 683.83,-299.52 673.26,-298.69 675.06,-305.46"/>
</g>
<!-- Node23 -->
<g id="node23" class="node">
<title>Node23</title>
<g id="a_node23"><a xlink:href="$a00215.html" xlink:title=" ">
<polygon fill="white" stroke="black" points="497.5,-280.5 497.5,-299.5 602.5,-299.5 602.5,-280.5 497.5,-280.5"/>
<text text-anchor="middle" x="550" y="-287.5" font-family="Helvetica,sans-Serif" font-size="10.00">PluginHandler.hpp</text>
</a>
</g>
</g>
<!-- Node21&#45;&gt;Node23 -->
<g id="edge43" class="edge">
<title>Node21&#45;&gt;Node23</title>
<path fill="none" stroke="midnightblue" d="M518.27,-336.08C523.64,-328.46 531.52,-317.26 538.08,-307.94"/>
<polygon fill="midnightblue" stroke="midnightblue" points="540.95,-309.94 543.84,-299.75 535.22,-305.91 540.95,-309.94"/>
</g>
<!-- Node22&#45;&gt;Node4 -->
<g id="edge38" class="edge">
<title>Node22&#45;&gt;Node4</title>
<path fill="none" stroke="midnightblue" d="M721.84,-280.31C733.38,-262.26 758,-219.07 758,-179 758,-179 758,-179 758,-121 758,-74.11 707.45,-40.89 673.67,-23.93"/>
<polygon fill="midnightblue" stroke="midnightblue" points="675.17,-20.77 664.64,-19.58 672.13,-27.07 675.17,-20.77"/>
</g>
<!-- Node22&#45;&gt;Node5 -->
<g id="edge40" class="edge">
<title>Node22&#45;&gt;Node5</title>
<path fill="none" stroke="midnightblue" d="M659.43,-280.44C589.26,-269.83 470.93,-251.93 405.68,-242.06"/>
<polygon fill="midnightblue" stroke="midnightblue" points="406.09,-238.58 395.68,-240.55 405.05,-245.51 406.09,-238.58"/>
</g>
<!-- Node22&#45;&gt;Node7 -->
<g id="edge39" class="edge">
<title>Node22&#45;&gt;Node7</title>
<path fill="none" stroke="midnightblue" d="M735.65,-280.44C755.96,-271.6 787.9,-257.69 811.1,-247.59"/>
<polygon fill="midnightblue" stroke="midnightblue" points="812.67,-250.72 820.44,-243.52 809.88,-244.3 812.67,-250.72"/>
</g>
<!-- Node22&#45;&gt;Node11 -->
<g id="edge41" class="edge">
<title>Node22&#45;&gt;Node11</title>
<path fill="none" stroke="midnightblue" d="M708.63,-280.3C680.5,-247.08 579.59,-127.92 542.13,-83.68"/>
<polygon fill="midnightblue" stroke="midnightblue" points="544.66,-81.25 535.52,-75.88 539.31,-85.78 544.66,-81.25"/>
</g>
<!-- Node23&#45;&gt;Node3 -->
<g id="edge44" class="edge">
<title>Node23&#45;&gt;Node3</title>
<path fill="none" stroke="midnightblue" d="M535.17,-280.34C513.74,-267.85 472.89,-244.06 438,-224 419.64,-213.44 398.83,-201.59 383.18,-192.7"/>
<polygon fill="midnightblue" stroke="midnightblue" points="384.59,-189.48 374.17,-187.59 381.13,-195.57 384.59,-189.48"/>
</g>
<!-- Node23&#45;&gt;Node4 -->
<g id="edge45" class="edge">
<title>Node23&#45;&gt;Node4</title>
<path fill="none" stroke="midnightblue" d="M565.52,-280.35C592.22,-264.2 644,-226.73 644,-179 644,-179 644,-179 644,-121 644,-88.95 644,-51.64 644,-29.75"/>
<polygon fill="midnightblue" stroke="midnightblue" points="647.5,-29.56 644,-19.56 640.5,-29.56 647.5,-29.56"/>
</g>
<!-- Node23&#45;&gt;Node5 -->
<g id="edge49" class="edge">
<title>Node23&#45;&gt;Node5</title>
<path fill="none" stroke="midnightblue" d="M519.74,-280.44C487.04,-271.2 434.82,-256.44 398.82,-246.26"/>
<polygon fill="midnightblue" stroke="midnightblue" points="399.7,-242.87 389.12,-243.52 397.79,-249.61 399.7,-242.87"/>
</g>
<!-- Node23&#45;&gt;Node6 -->
<g id="edge48" class="edge">
<title>Node23&#45;&gt;Node6</title>
<path fill="none" stroke="midnightblue" d="M561.28,-280.38C576.73,-267.53 601.05,-242.84 587,-224 562.3,-190.86 514.16,-181.17 478.85,-178.78"/>
<polygon fill="midnightblue" stroke="midnightblue" points="478.97,-175.28 468.8,-178.28 478.61,-182.28 478.97,-175.28"/>
</g>
<!-- Node23&#45;&gt;Node11 -->
<g id="edge50" class="edge">
<title>Node23&#45;&gt;Node11</title>
<path fill="none" stroke="midnightblue" d="M541.52,-280.23C533.95,-271.75 523.4,-258.13 519,-244 501.75,-188.55 514.83,-118.65 522.89,-85.75"/>
<polygon fill="midnightblue" stroke="midnightblue" points="526.36,-86.3 525.48,-75.74 519.59,-84.55 526.36,-86.3"/>
</g>
<!-- Node23&#45;&gt;Node17 -->
<g id="edge47" class="edge">
<title>Node23&#45;&gt;Node17</title>
<path fill="none" stroke="midnightblue" d="M576.27,-280.37C598.76,-272.45 631.59,-259.6 658,-244 711.69,-212.29 767.11,-163.27 793.75,-138.49"/>
<polygon fill="midnightblue" stroke="midnightblue" points="796.17,-141.01 801.07,-131.62 791.38,-135.91 796.17,-141.01"/>
</g>
<!-- Node24 -->
<g id="node24" class="node">
<title>Node24</title>
<g id="a_node24"><a xlink:title=" ">
<polygon fill="white" stroke="#bfbfbf" points="528,-224.5 528,-243.5 578,-243.5 578,-224.5 528,-224.5"/>
<text text-anchor="middle" x="553" y="-231.5" font-family="Helvetica,sans-Serif" font-size="10.00">dlfcn.h</text>
</a>
</g>
</g>
<!-- Node23&#45;&gt;Node24 -->
<g id="edge46" class="edge">
<title>Node23&#45;&gt;Node24</title>
<path fill="none" stroke="midnightblue" d="M550.5,-280.08C550.89,-273.01 551.45,-262.86 551.95,-253.99"/>
<polygon fill="midnightblue" stroke="midnightblue" points="555.45,-253.93 552.51,-243.75 548.46,-253.54 555.45,-253.93"/>
</g>
</g>
</svg>
