<?xml version="1.0" encoding="UTF-8" standalone="no"?>
<!DOCTYPE svg PUBLIC "-//W3C//DTD SVG 1.1//EN"
 "http://www.w3.org/Graphics/SVG/1.1/DTD/svg11.dtd">
<!-- Generated by graphviz version 2.43.0 (0)
 -->
<!-- Title: /home/runner/work/Raytracer/Raytracer/src/Scenes/ConfigWrapper.hpp Pages: 1 -->
<svg width="443pt" height="207pt"
 viewBox="0.00 0.00 443.00 207.00" xmlns="http://www.w3.org/2000/svg" xmlns:xlink="http://www.w3.org/1999/xlink">
<g id="graph0" class="graph" transform="scale(1 1) rotate(0) translate(4 203)">
<title>/home/runner/work/Raytracer/Raytracer/src/Scenes/ConfigWrapper.hpp</title>
<polygon fill="white" stroke="transparent" points="-4,4 -4,-203 439,-203 439,4 -4,4"/>
<!-- Node1 -->
<g id="node1" class="node">
<title>Node1</title>
<g id="a_node1"><a xlink:title=" ">
<polygon fill="#bfbfbf" stroke="black" points="161,-168.5 161,-198.5 378,-198.5 378,-168.5 161,-168.5"/>
<text text-anchor="start" x="169" y="-186.5" font-family="Helvetica,sans-Serif" font-size="10.00">/home/runner/work/Raytracer</text>
<text text-anchor="middle" x="269.5" y="-175.5" font-family="Helvetica,sans-Serif" font-size="10.00">/Raytracer/src/Scenes/ConfigWrapper.hpp</text>
</a>
</g>
</g>
<!-- Node2 -->
<g id="node2" class="node">
<title>Node2</title>
<g id="a_node2"><a xlink:title=" ">
<polygon fill="white" stroke="#bfbfbf" points="0,-0.5 0,-19.5 83,-19.5 83,-0.5 0,-0.5"/>
<text text-anchor="middle" x="41.5" y="-7.5" font-family="Helvetica,sans-Serif" font-size="10.00">libconfig.h++</text>
</a>
</g>
</g>
<!-- Node1&#45;&gt;Node2 -->
<g id="edge1" class="edge">
<title>Node1&#45;&gt;Node2</title>
<path fill="none" stroke="midnightblue" d="M184.71,-168.49C154.59,-160.9 121.49,-149.36 94.5,-132 66.93,-114.27 59.04,-106.29 46.5,-76 40.47,-61.44 39.52,-43.5 39.91,-30.15"/>
<polygon fill="midnightblue" stroke="midnightblue" points="43.42,-29.99 40.5,-19.81 36.43,-29.59 43.42,-29.99"/>
</g>
<!-- Node3 -->
<g id="node3" class="node">
<title>Node3</title>
<g id="a_node3"><a xlink:title=" ">
<polygon fill="white" stroke="#bfbfbf" points="233.5,-0.5 233.5,-19.5 291.5,-19.5 291.5,-0.5 233.5,-0.5"/>
<text text-anchor="middle" x="262.5" y="-7.5" font-family="Helvetica,sans-Serif" font-size="10.00">memory</text>
</a>
</g>
</g>
<!-- Node1&#45;&gt;Node3 -->
<g id="edge2" class="edge">
<title>Node1&#45;&gt;Node3</title>
<path fill="none" stroke="midnightblue" d="M287.52,-168.21C297.55,-159.07 309.07,-146.27 314.5,-132 317.66,-123.69 316.29,-120.71 314.5,-112 307.92,-79.96 288.04,-47.04 274.85,-27.83"/>
<polygon fill="midnightblue" stroke="midnightblue" points="277.64,-25.71 269.01,-19.57 271.93,-29.75 277.64,-25.71"/>
</g>
<!-- Node4 -->
<g id="node4" class="node">
<title>Node4</title>
<g id="a_node4"><a xlink:href="$a00197.html" xlink:title=" ">
<polygon fill="white" stroke="black" points="234,-112.5 234,-131.5 305,-131.5 305,-112.5 234,-112.5"/>
<text text-anchor="middle" x="269.5" y="-119.5" font-family="Helvetica,sans-Serif" font-size="10.00">IConfig.hpp</text>
</a>
</g>
</g>
<!-- Node1&#45;&gt;Node4 -->
<g id="edge3" class="edge">
<title>Node1&#45;&gt;Node4</title>
<path fill="none" stroke="midnightblue" d="M269.5,-168.4C269.5,-160.47 269.5,-150.46 269.5,-141.86"/>
<polygon fill="midnightblue" stroke="midnightblue" points="273,-141.66 269.5,-131.66 266,-141.66 273,-141.66"/>
</g>
<!-- Node6 -->
<g id="node6" class="node">
<title>Node6</title>
<g id="a_node6"><a xlink:href="$a00119.html" xlink:title=" ">
<polygon fill="white" stroke="black" points="362,-112.5 362,-131.5 435,-131.5 435,-112.5 362,-112.5"/>
<text text-anchor="middle" x="398.5" y="-119.5" font-family="Helvetica,sans-Serif" font-size="10.00">ILogger.hpp</text>
</a>
</g>
</g>
<!-- Node1&#45;&gt;Node6 -->
<g id="edge8" class="edge">
<title>Node1&#45;&gt;Node6</title>
<path fill="none" stroke="midnightblue" d="M300.07,-168.4C321.43,-158.55 349.72,-145.5 370.48,-135.92"/>
<polygon fill="midnightblue" stroke="midnightblue" points="372.11,-139.02 379.73,-131.66 369.18,-132.67 372.11,-139.02"/>
</g>
<!-- Node8 -->
<g id="node8" class="node">
<title>Node8</title>
<g id="a_node8"><a xlink:href="$a00218.html" xlink:title=" ">
<polygon fill="white" stroke="black" points="103,-112.5 103,-131.5 216,-131.5 216,-112.5 103,-112.5"/>
<text text-anchor="middle" x="159.5" y="-119.5" font-family="Helvetica,sans-Serif" font-size="10.00">SettingWrapper.hpp</text>
</a>
</g>
</g>
<!-- Node1&#45;&gt;Node8 -->
<g id="edge10" class="edge">
<title>Node1&#45;&gt;Node8</title>
<path fill="none" stroke="midnightblue" d="M243.43,-168.4C225.63,-158.77 202.19,-146.09 184.6,-136.58"/>
<polygon fill="midnightblue" stroke="midnightblue" points="185.97,-133.34 175.51,-131.66 182.64,-139.49 185.97,-133.34"/>
</g>
<!-- Node4&#45;&gt;Node3 -->
<g id="edge4" class="edge">
<title>Node4&#45;&gt;Node3</title>
<path fill="none" stroke="midnightblue" d="M271.9,-112.14C274.97,-99.6 279.54,-75.97 276.5,-56 275.13,-47 272.31,-37.33 269.55,-29.26"/>
<polygon fill="midnightblue" stroke="midnightblue" points="272.81,-27.98 266.1,-19.78 266.23,-30.37 272.81,-27.98"/>
</g>
<!-- Node5 -->
<g id="node5" class="node">
<title>Node5</title>
<g id="a_node5"><a xlink:href="$a00206.html" xlink:title=" ">
<polygon fill="white" stroke="black" points="192,-56.5 192,-75.5 267,-75.5 267,-56.5 192,-56.5"/>
<text text-anchor="middle" x="229.5" y="-63.5" font-family="Helvetica,sans-Serif" font-size="10.00">ISetting.hpp</text>
</a>
</g>
</g>
<!-- Node4&#45;&gt;Node5 -->
<g id="edge5" class="edge">
<title>Node4&#45;&gt;Node5</title>
<path fill="none" stroke="midnightblue" d="M262.89,-112.08C257.24,-104.46 248.96,-93.26 242.05,-83.94"/>
<polygon fill="midnightblue" stroke="midnightblue" points="244.75,-81.7 235.98,-75.75 239.12,-85.87 244.75,-81.7"/>
</g>
<!-- Node5&#45;&gt;Node2 -->
<g id="edge7" class="edge">
<title>Node5&#45;&gt;Node2</title>
<path fill="none" stroke="midnightblue" d="M199.71,-56.44C167.67,-47.24 116.57,-32.56 81.15,-22.39"/>
<polygon fill="midnightblue" stroke="midnightblue" points="81.73,-18.91 71.15,-19.52 79.79,-25.64 81.73,-18.91"/>
</g>
<!-- Node5&#45;&gt;Node3 -->
<g id="edge6" class="edge">
<title>Node5&#45;&gt;Node3</title>
<path fill="none" stroke="midnightblue" d="M234.95,-56.08C239.51,-48.61 246.17,-37.72 251.79,-28.52"/>
<polygon fill="midnightblue" stroke="midnightblue" points="254.92,-30.11 257.15,-19.75 248.95,-26.46 254.92,-30.11"/>
</g>
<!-- Node7 -->
<g id="node7" class="node">
<title>Node7</title>
<g id="a_node7"><a xlink:title=" ">
<polygon fill="white" stroke="#bfbfbf" points="376.5,-56.5 376.5,-75.5 420.5,-75.5 420.5,-56.5 376.5,-56.5"/>
<text text-anchor="middle" x="398.5" y="-63.5" font-family="Helvetica,sans-Serif" font-size="10.00">string</text>
</a>
</g>
</g>
<!-- Node6&#45;&gt;Node7 -->
<g id="edge9" class="edge">
<title>Node6&#45;&gt;Node7</title>
<path fill="none" stroke="midnightblue" d="M398.5,-112.08C398.5,-105.01 398.5,-94.86 398.5,-85.99"/>
<polygon fill="midnightblue" stroke="midnightblue" points="402,-85.75 398.5,-75.75 395,-85.75 402,-85.75"/>
</g>
<!-- Node8&#45;&gt;Node2 -->
<g id="edge11" class="edge">
<title>Node8&#45;&gt;Node2</title>
<path fill="none" stroke="midnightblue" d="M122.36,-112.35C101.47,-105.68 76.45,-94.4 60.5,-76 49.32,-63.1 44.71,-43.93 42.81,-29.74"/>
<polygon fill="midnightblue" stroke="midnightblue" points="46.28,-29.25 41.8,-19.65 39.32,-29.95 46.28,-29.25"/>
</g>
<!-- Node8&#45;&gt;Node3 -->
<g id="edge12" class="edge">
<title>Node8&#45;&gt;Node3</title>
<path fill="none" stroke="midnightblue" d="M160.73,-112.47C163.05,-99.07 169.18,-72.88 183.5,-56 195.59,-41.74 213.4,-31.05 229.05,-23.67"/>
<polygon fill="midnightblue" stroke="midnightblue" points="230.72,-26.76 238.44,-19.5 227.88,-20.36 230.72,-26.76"/>
</g>
<!-- Node8&#45;&gt;Node5 -->
<g id="edge14" class="edge">
<title>Node8&#45;&gt;Node5</title>
<path fill="none" stroke="midnightblue" d="M170.75,-112.32C181.3,-104.18 197.3,-91.84 209.94,-82.09"/>
<polygon fill="midnightblue" stroke="midnightblue" points="212.27,-84.71 218.05,-75.83 207.99,-79.17 212.27,-84.71"/>
</g>
<!-- Node9 -->
<g id="node9" class="node">
<title>Node9</title>
<g id="a_node9"><a xlink:title=" ">
<polygon fill="white" stroke="#bfbfbf" points="70,-56.5 70,-75.5 135,-75.5 135,-56.5 70,-56.5"/>
<text text-anchor="middle" x="102.5" y="-63.5" font-family="Helvetica,sans-Serif" font-size="10.00">exception</text>
</a>
</g>
</g>
<!-- Node8&#45;&gt;Node9 -->
<g id="edge13" class="edge">
<title>Node8&#45;&gt;Node9</title>
<path fill="none" stroke="midnightblue" d="M150.34,-112.32C142,-104.42 129.47,-92.55 119.32,-82.94"/>
<polygon fill="midnightblue" stroke="midnightblue" points="121.49,-80.17 111.82,-75.83 116.68,-85.25 121.49,-80.17"/>
</g>
</g>
</svg>
