<?xml version="1.0" encoding="UTF-8" standalone="no"?>
<!DOCTYPE svg PUBLIC "-//W3C//DTD SVG 1.1//EN"
 "http://www.w3.org/Graphics/SVG/1.1/DTD/svg11.dtd">
<!-- Generated by graphviz version 2.43.0 (0)
 -->
<!-- Title: /home/runner/work/Raytracer/Raytracer/PluginsExt/Cone/ConeCreator.hpp Pages: 1 -->
<svg width="742pt" height="442pt"
 viewBox="0.00 0.00 741.50 442.00" xmlns="http://www.w3.org/2000/svg" xmlns:xlink="http://www.w3.org/1999/xlink">
<g id="graph0" class="graph" transform="scale(1 1) rotate(0) translate(4 438)">
<title>/home/runner/work/Raytracer/Raytracer/PluginsExt/Cone/ConeCreator.hpp</title>
<polygon fill="white" stroke="transparent" points="-4,4 -4,-438 737.5,-438 737.5,4 -4,4"/>
<!-- Node1 -->
<g id="node1" class="node">
<title>Node1</title>
<g id="a_node1"><a xlink:title=" ">
<polygon fill="#bfbfbf" stroke="black" points="151.5,-392.5 151.5,-433.5 310.5,-433.5 310.5,-392.5 151.5,-392.5"/>
<text text-anchor="start" x="159.5" y="-421.5" font-family="Helvetica,sans-Serif" font-size="10.00">/home/runner/work/Raytracer</text>
<text text-anchor="start" x="159.5" y="-410.5" font-family="Helvetica,sans-Serif" font-size="10.00">/Raytracer/PluginsExt/Cone</text>
<text text-anchor="middle" x="231" y="-399.5" font-family="Helvetica,sans-Serif" font-size="10.00">/ConeCreator.hpp</text>
</a>
</g>
</g>
<!-- Node2 -->
<g id="node2" class="node">
<title>Node2</title>
<g id="a_node2"><a xlink:title=" ">
<polygon fill="white" stroke="#bfbfbf" points="66.5,-112.5 66.5,-131.5 113.5,-131.5 113.5,-112.5 66.5,-112.5"/>
<text text-anchor="middle" x="90" y="-119.5" font-family="Helvetica,sans-Serif" font-size="10.00">vector</text>
</a>
</g>
</g>
<!-- Node1&#45;&gt;Node2 -->
<g id="edge1" class="edge">
<title>Node1&#45;&gt;Node2</title>
<path fill="none" stroke="midnightblue" d="M151.18,-403.07C84.41,-390.63 0,-361.06 0,-291 0,-291 0,-291 0,-233 0,-190.66 40.44,-155.66 67.1,-137.18"/>
<polygon fill="midnightblue" stroke="midnightblue" points="69.16,-140.02 75.54,-131.56 65.28,-134.19 69.16,-140.02"/>
</g>
<!-- Node3 -->
<g id="node3" class="node">
<title>Node3</title>
<g id="a_node3"><a xlink:href="$a00161.html" xlink:title=" ">
<polygon fill="white" stroke="black" points="219,-336.5 219,-355.5 323,-355.5 323,-336.5 219,-336.5"/>
<text text-anchor="middle" x="271" y="-343.5" font-family="Helvetica,sans-Serif" font-size="10.00">IEntityCreator.hpp</text>
</a>
</g>
</g>
<!-- Node1&#45;&gt;Node3 -->
<g id="edge2" class="edge">
<title>Node1&#45;&gt;Node3</title>
<path fill="none" stroke="midnightblue" d="M243,-392.5C248.54,-383.49 255.07,-372.89 260.42,-364.19"/>
<polygon fill="midnightblue" stroke="midnightblue" points="263.42,-366 265.68,-355.65 257.45,-362.33 263.42,-366"/>
</g>
<!-- Node11 -->
<g id="node11" class="node">
<title>Node11</title>
<g id="a_node11"><a xlink:href="$a00119.html" xlink:title=" ">
<polygon fill="white" stroke="black" points="154.5,-280.5 154.5,-299.5 227.5,-299.5 227.5,-280.5 154.5,-280.5"/>
<text text-anchor="middle" x="191" y="-287.5" font-family="Helvetica,sans-Serif" font-size="10.00">ILogger.hpp</text>
</a>
</g>
</g>
<!-- Node1&#45;&gt;Node11 -->
<g id="edge14" class="edge">
<title>Node1&#45;&gt;Node11</title>
<path fill="none" stroke="midnightblue" d="M223.25,-392.43C219.12,-381.74 214.07,-368.22 210,-356 204.83,-340.49 199.67,-322.65 196.04,-309.59"/>
<polygon fill="midnightblue" stroke="midnightblue" points="199.4,-308.61 193.37,-299.9 192.65,-310.47 199.4,-308.61"/>
</g>
<!-- Node13 -->
<g id="node13" class="node">
<title>Node13</title>
<g id="a_node13"><a xlink:href="$a00260.html" xlink:title=" ">
<polygon fill="white" stroke="black" points="346.5,-336.5 346.5,-355.5 435.5,-355.5 435.5,-336.5 346.5,-336.5"/>
<text text-anchor="middle" x="391" y="-343.5" font-family="Helvetica,sans-Serif" font-size="10.00">ConeEntity.hpp</text>
</a>
</g>
</g>
<!-- Node1&#45;&gt;Node13 -->
<g id="edge15" class="edge">
<title>Node1&#45;&gt;Node13</title>
<path fill="none" stroke="midnightblue" d="M279.01,-392.5C305.42,-381.77 337.41,-368.77 360.43,-359.42"/>
<polygon fill="midnightblue" stroke="midnightblue" points="361.75,-362.66 369.7,-355.65 359.12,-356.17 361.75,-362.66"/>
</g>
<!-- Node4 -->
<g id="node4" class="node">
<title>Node4</title>
<g id="a_node4"><a xlink:title=" ">
<polygon fill="white" stroke="#bfbfbf" points="113,-0.5 113,-19.5 171,-19.5 171,-0.5 113,-0.5"/>
<text text-anchor="middle" x="142" y="-7.5" font-family="Helvetica,sans-Serif" font-size="10.00">memory</text>
</a>
</g>
</g>
<!-- Node3&#45;&gt;Node4 -->
<g id="edge3" class="edge">
<title>Node3&#45;&gt;Node4</title>
<path fill="none" stroke="midnightblue" d="M218.71,-342.71C150.01,-336.58 38,-314.4 38,-235 38,-235 38,-235 38,-121 38,-76.22 84.06,-42.32 114.88,-24.66"/>
<polygon fill="midnightblue" stroke="midnightblue" points="116.81,-27.59 123.88,-19.7 113.44,-21.46 116.81,-27.59"/>
</g>
<!-- Node5 -->
<g id="node5" class="node">
<title>Node5</title>
<g id="a_node5"><a xlink:href="$a00071.html" xlink:title=" ">
<polygon fill="white" stroke="black" points="456,-224.5 456,-243.5 524,-243.5 524,-224.5 456,-224.5"/>
<text text-anchor="middle" x="490" y="-231.5" font-family="Helvetica,sans-Serif" font-size="10.00">IEntity.hpp</text>
</a>
</g>
</g>
<!-- Node3&#45;&gt;Node5 -->
<g id="edge4" class="edge">
<title>Node3&#45;&gt;Node5</title>
<path fill="none" stroke="midnightblue" d="M288.18,-336.37C326.32,-317.21 418.26,-271.04 463.69,-248.22"/>
<polygon fill="midnightblue" stroke="midnightblue" points="465.53,-251.21 472.9,-243.59 462.39,-244.95 465.53,-251.21"/>
</g>
<!-- Node9 -->
<g id="node9" class="node">
<title>Node9</title>
<g id="a_node9"><a xlink:href="$a00206.html" xlink:title=" ">
<polygon fill="white" stroke="black" points="346.5,-56.5 346.5,-75.5 421.5,-75.5 421.5,-56.5 346.5,-56.5"/>
<text text-anchor="middle" x="384" y="-63.5" font-family="Helvetica,sans-Serif" font-size="10.00">ISetting.hpp</text>
</a>
</g>
</g>
<!-- Node3&#45;&gt;Node9 -->
<g id="edge13" class="edge">
<title>Node3&#45;&gt;Node9</title>
<path fill="none" stroke="midnightblue" d="M318.84,-336.45C422.38,-317.3 658,-269.88 658,-235 658,-235 658,-235 658,-177 658,-128.8 510.14,-92.06 431.66,-75.95"/>
<polygon fill="midnightblue" stroke="midnightblue" points="432.02,-72.45 421.52,-73.9 430.63,-79.31 432.02,-72.45"/>
</g>
<!-- Node3&#45;&gt;Node11 -->
<g id="edge11" class="edge">
<title>Node3&#45;&gt;Node11</title>
<path fill="none" stroke="midnightblue" d="M258.15,-336.32C245.78,-327.98 226.87,-315.21 212.26,-305.35"/>
<polygon fill="midnightblue" stroke="midnightblue" points="214.07,-302.35 203.82,-299.65 210.15,-308.15 214.07,-302.35"/>
</g>
<!-- Node6 -->
<g id="node6" class="node">
<title>Node6</title>
<g id="a_node6"><a xlink:href="$a00083.html" xlink:title=" ">
<polygon fill="white" stroke="black" points="412.5,-168.5 412.5,-187.5 553.5,-187.5 553.5,-168.5 412.5,-168.5"/>
<text text-anchor="middle" x="483" y="-175.5" font-family="Helvetica,sans-Serif" font-size="10.00">Transform/ITransform.hpp</text>
</a>
</g>
</g>
<!-- Node5&#45;&gt;Node6 -->
<g id="edge5" class="edge">
<title>Node5&#45;&gt;Node6</title>
<path fill="none" stroke="midnightblue" d="M488.84,-224.08C487.92,-216.93 486.58,-206.64 485.42,-197.69"/>
<polygon fill="midnightblue" stroke="midnightblue" points="488.89,-197.22 484.13,-187.75 481.95,-198.12 488.89,-197.22"/>
</g>
<!-- Node7 -->
<g id="node7" class="node">
<title>Node7</title>
<g id="a_node7"><a xlink:href="$a00092.html" xlink:title=" ">
<polygon fill="white" stroke="black" points="345.5,-112.5 345.5,-131.5 422.5,-131.5 422.5,-112.5 345.5,-112.5"/>
<text text-anchor="middle" x="384" y="-119.5" font-family="Helvetica,sans-Serif" font-size="10.00">Vector3f.hpp</text>
</a>
</g>
</g>
<!-- Node6&#45;&gt;Node7 -->
<g id="edge6" class="edge">
<title>Node6&#45;&gt;Node7</title>
<path fill="none" stroke="midnightblue" d="M467.09,-168.32C451.36,-159.74 427.06,-146.49 408.79,-136.52"/>
<polygon fill="midnightblue" stroke="midnightblue" points="410.32,-133.37 399.87,-131.65 406.97,-139.52 410.32,-133.37"/>
</g>
<!-- Node8 -->
<g id="node8" class="node">
<title>Node8</title>
<g id="a_node8"><a xlink:title=" ">
<polygon fill="white" stroke="#bfbfbf" points="227.5,-56.5 227.5,-75.5 284.5,-75.5 284.5,-56.5 227.5,-56.5"/>
<text text-anchor="middle" x="256" y="-63.5" font-family="Helvetica,sans-Serif" font-size="10.00">ostream</text>
</a>
</g>
</g>
<!-- Node7&#45;&gt;Node8 -->
<g id="edge7" class="edge">
<title>Node7&#45;&gt;Node8</title>
<path fill="none" stroke="midnightblue" d="M363.72,-112.44C342.65,-103.56 309.48,-89.56 285.51,-79.45"/>
<polygon fill="midnightblue" stroke="midnightblue" points="286.76,-76.18 276.19,-75.52 284.04,-82.63 286.76,-76.18"/>
</g>
<!-- Node7&#45;&gt;Node9 -->
<g id="edge8" class="edge">
<title>Node7&#45;&gt;Node9</title>
<path fill="none" stroke="midnightblue" d="M384,-112.08C384,-105.01 384,-94.86 384,-85.99"/>
<polygon fill="midnightblue" stroke="midnightblue" points="387.5,-85.75 384,-75.75 380.5,-85.75 387.5,-85.75"/>
</g>
<!-- Node9&#45;&gt;Node4 -->
<g id="edge9" class="edge">
<title>Node9&#45;&gt;Node4</title>
<path fill="none" stroke="midnightblue" d="M346.45,-56.62C301.53,-46.6 226.67,-29.89 181.08,-19.72"/>
<polygon fill="midnightblue" stroke="midnightblue" points="181.78,-16.29 171.26,-17.53 180.26,-23.12 181.78,-16.29"/>
</g>
<!-- Node10 -->
<g id="node10" class="node">
<title>Node10</title>
<g id="a_node10"><a xlink:title=" ">
<polygon fill="white" stroke="#bfbfbf" points="342.5,-0.5 342.5,-19.5 425.5,-19.5 425.5,-0.5 342.5,-0.5"/>
<text text-anchor="middle" x="384" y="-7.5" font-family="Helvetica,sans-Serif" font-size="10.00">libconfig.h++</text>
</a>
</g>
</g>
<!-- Node9&#45;&gt;Node10 -->
<g id="edge10" class="edge">
<title>Node9&#45;&gt;Node10</title>
<path fill="none" stroke="midnightblue" d="M384,-56.08C384,-49.01 384,-38.86 384,-29.99"/>
<polygon fill="midnightblue" stroke="midnightblue" points="387.5,-29.75 384,-19.75 380.5,-29.75 387.5,-29.75"/>
</g>
<!-- Node12 -->
<g id="node12" class="node">
<title>Node12</title>
<g id="a_node12"><a xlink:title=" ">
<polygon fill="white" stroke="#bfbfbf" points="68,-224.5 68,-243.5 112,-243.5 112,-224.5 68,-224.5"/>
<text text-anchor="middle" x="90" y="-231.5" font-family="Helvetica,sans-Serif" font-size="10.00">string</text>
</a>
</g>
</g>
<!-- Node11&#45;&gt;Node12 -->
<g id="edge12" class="edge">
<title>Node11&#45;&gt;Node12</title>
<path fill="none" stroke="midnightblue" d="M174.77,-280.32C158.65,-271.7 133.7,-258.36 115.04,-248.39"/>
<polygon fill="midnightblue" stroke="midnightblue" points="116.66,-245.28 106.19,-243.65 113.36,-251.46 116.66,-245.28"/>
</g>
<!-- Node13&#45;&gt;Node11 -->
<g id="edge17" class="edge">
<title>Node13&#45;&gt;Node11</title>
<path fill="none" stroke="midnightblue" d="M359.31,-336.44C324.93,-327.16 269.92,-312.31 232.21,-302.13"/>
<polygon fill="midnightblue" stroke="midnightblue" points="233.11,-298.74 222.54,-299.52 231.28,-305.5 233.11,-298.74"/>
</g>
<!-- Node14 -->
<g id="node14" class="node">
<title>Node14</title>
<g id="a_node14"><a xlink:title=" ">
<polygon fill="white" stroke="#bfbfbf" points="686.5,-280.5 686.5,-299.5 733.5,-299.5 733.5,-280.5 686.5,-280.5"/>
<text text-anchor="middle" x="710" y="-287.5" font-family="Helvetica,sans-Serif" font-size="10.00">cmath</text>
</a>
</g>
</g>
<!-- Node13&#45;&gt;Node14 -->
<g id="edge16" class="edge">
<title>Node13&#45;&gt;Node14</title>
<path fill="none" stroke="midnightblue" d="M435.96,-338.84C491.59,-330.99 589.13,-316.43 672,-300 673.45,-299.71 674.94,-299.41 676.44,-299.09"/>
<polygon fill="midnightblue" stroke="midnightblue" points="677.34,-302.47 686.34,-296.89 675.82,-295.64 677.34,-302.47"/>
</g>
<!-- Node15 -->
<g id="node15" class="node">
<title>Node15</title>
<g id="a_node15"><a xlink:href="$a00080.html" xlink:title=" ">
<polygon fill="white" stroke="black" points="245.5,-280.5 245.5,-299.5 330.5,-299.5 330.5,-280.5 245.5,-280.5"/>
<text text-anchor="middle" x="288" y="-287.5" font-family="Helvetica,sans-Serif" font-size="10.00">IPrimitive.hpp</text>
</a>
</g>
</g>
<!-- Node13&#45;&gt;Node15 -->
<g id="edge18" class="edge">
<title>Node13&#45;&gt;Node15</title>
<path fill="none" stroke="midnightblue" d="M374.45,-336.32C358.01,-327.7 332.57,-314.36 313.53,-304.39"/>
<polygon fill="midnightblue" stroke="midnightblue" points="314.99,-301.2 304.51,-299.65 311.74,-307.4 314.99,-301.2"/>
</g>
<!-- Node20 -->
<g id="node20" class="node">
<title>Node20</title>
<g id="a_node20"><a xlink:href="$a00077.html" xlink:title=" ">
<polygon fill="white" stroke="black" points="356.5,-224.5 356.5,-243.5 437.5,-243.5 437.5,-224.5 356.5,-224.5"/>
<text text-anchor="middle" x="397" y="-231.5" font-family="Helvetica,sans-Serif" font-size="10.00">IMaterial.hpp</text>
</a>
</g>
</g>
<!-- Node13&#45;&gt;Node20 -->
<g id="edge41" class="edge">
<title>Node13&#45;&gt;Node20</title>
<path fill="none" stroke="midnightblue" d="M391.47,-336.37C392.44,-318.62 394.67,-277.67 395.99,-253.6"/>
<polygon fill="midnightblue" stroke="midnightblue" points="399.48,-253.77 396.53,-243.59 392.49,-253.39 399.48,-253.77"/>
</g>
<!-- Node22 -->
<g id="node22" class="node">
<title>Node22</title>
<g id="a_node22"><a xlink:href="$a00086.html" xlink:title=" ">
<polygon fill="white" stroke="black" points="542,-224.5 542,-243.5 628,-243.5 628,-224.5 542,-224.5"/>
<text text-anchor="middle" x="585" y="-231.5" font-family="Helvetica,sans-Serif" font-size="10.00">Transform.hpp</text>
</a>
</g>
</g>
<!-- Node13&#45;&gt;Node22 -->
<g id="edge37" class="edge">
<title>Node13&#45;&gt;Node22</title>
<path fill="none" stroke="midnightblue" d="M406.22,-336.37C439.8,-317.33 520.42,-271.62 560.93,-248.65"/>
<polygon fill="midnightblue" stroke="midnightblue" points="562.88,-251.57 569.85,-243.59 559.42,-245.48 562.88,-251.57"/>
</g>
<!-- Node15&#45;&gt;Node5 -->
<g id="edge27" class="edge">
<title>Node15&#45;&gt;Node5</title>
<path fill="none" stroke="midnightblue" d="M320.01,-280.44C354.73,-271.16 410.29,-256.31 448.38,-246.13"/>
<polygon fill="midnightblue" stroke="midnightblue" points="449.39,-249.48 458.14,-243.52 447.58,-242.72 449.39,-249.48"/>
</g>
<!-- Node15&#45;&gt;Node7 -->
<g id="edge36" class="edge">
<title>Node15&#45;&gt;Node7</title>
<path fill="none" stroke="midnightblue" d="M282.36,-280.48C276.95,-271.74 269.14,-257.56 266,-244 257.98,-209.36 266.25,-193.53 291,-168 305.61,-152.94 326.28,-142.24 344.43,-135.07"/>
<polygon fill="midnightblue" stroke="midnightblue" points="345.77,-138.31 353.92,-131.54 343.33,-131.75 345.77,-138.31"/>
</g>
<!-- Node16 -->
<g id="node16" class="node">
<title>Node16</title>
<g id="a_node16"><a xlink:title=" ">
<polygon fill="white" stroke="#bfbfbf" points="282,-224.5 282,-243.5 338,-243.5 338,-224.5 282,-224.5"/>
<text text-anchor="middle" x="310" y="-231.5" font-family="Helvetica,sans-Serif" font-size="10.00">optional</text>
</a>
</g>
</g>
<!-- Node15&#45;&gt;Node16 -->
<g id="edge19" class="edge">
<title>Node15&#45;&gt;Node16</title>
<path fill="none" stroke="midnightblue" d="M291.63,-280.08C294.61,-272.77 298.93,-262.18 302.62,-253.1"/>
<polygon fill="midnightblue" stroke="midnightblue" points="305.9,-254.33 306.43,-243.75 299.42,-251.69 305.9,-254.33"/>
</g>
<!-- Node17 -->
<g id="node17" class="node">
<title>Node17</title>
<g id="a_node17"><a xlink:href="$a00122.html" xlink:title=" ">
<polygon fill="white" stroke="black" points="182,-168.5 182,-187.5 244,-187.5 244,-168.5 182,-168.5"/>
<text text-anchor="middle" x="213" y="-175.5" font-family="Helvetica,sans-Serif" font-size="10.00">Color.hpp</text>
</a>
</g>
</g>
<!-- Node15&#45;&gt;Node17 -->
<g id="edge20" class="edge">
<title>Node15&#45;&gt;Node17</title>
<path fill="none" stroke="midnightblue" d="M253.82,-280.49C235.01,-273.88 213.26,-262.6 202,-244 193.4,-229.8 198.08,-210.83 203.75,-197.05"/>
<polygon fill="midnightblue" stroke="midnightblue" points="207.05,-198.23 208.07,-187.69 200.7,-195.3 207.05,-198.23"/>
</g>
<!-- Node19 -->
<g id="node19" class="node">
<title>Node19</title>
<g id="a_node19"><a xlink:href="$a00200.html" xlink:title=" ">
<polygon fill="white" stroke="black" points="66,-168.5 66,-187.5 164,-187.5 164,-168.5 66,-168.5"/>
<text text-anchor="middle" x="115" y="-175.5" font-family="Helvetica,sans-Serif" font-size="10.00">IDisplayable.hpp</text>
</a>
</g>
</g>
<!-- Node15&#45;&gt;Node19 -->
<g id="edge24" class="edge">
<title>Node15&#45;&gt;Node19</title>
<path fill="none" stroke="midnightblue" d="M266.31,-280.39C246.74,-272.22 217.5,-258.98 194,-244 171,-229.34 147.17,-208.88 131.78,-194.85"/>
<polygon fill="midnightblue" stroke="midnightblue" points="133.87,-192.02 124.15,-187.8 129.12,-197.16 133.87,-192.02"/>
</g>
<!-- Node15&#45;&gt;Node20 -->
<g id="edge28" class="edge">
<title>Node15&#45;&gt;Node20</title>
<path fill="none" stroke="midnightblue" d="M305.51,-280.32C323.07,-271.62 350.33,-258.12 370.53,-248.11"/>
<polygon fill="midnightblue" stroke="midnightblue" points="372.12,-251.23 379.53,-243.65 369.02,-244.96 372.12,-251.23"/>
</g>
<!-- Node21 -->
<g id="node21" class="node">
<title>Node21</title>
<g id="a_node21"><a xlink:href="$a00137.html" xlink:title=" ">
<polygon fill="white" stroke="black" points="300.5,-168.5 300.5,-187.5 355.5,-187.5 355.5,-168.5 300.5,-168.5"/>
<text text-anchor="middle" x="328" y="-175.5" font-family="Helvetica,sans-Serif" font-size="10.00">Ray.hpp</text>
</a>
</g>
</g>
<!-- Node15&#45;&gt;Node21 -->
<g id="edge35" class="edge">
<title>Node15&#45;&gt;Node21</title>
<path fill="none" stroke="midnightblue" d="M282.46,-280.2C275.12,-267.32 264.07,-242.84 273,-224 279.13,-211.07 290.99,-200.62 302.14,-193.05"/>
<polygon fill="midnightblue" stroke="midnightblue" points="304.19,-195.9 310.8,-187.61 300.47,-189.97 304.19,-195.9"/>
</g>
<!-- Node17&#45;&gt;Node8 -->
<g id="edge22" class="edge">
<title>Node17&#45;&gt;Node8</title>
<path fill="none" stroke="midnightblue" d="M214.92,-168.4C217.86,-155.77 224.01,-131.6 232,-112 235.8,-102.67 240.96,-92.75 245.53,-84.6"/>
<polygon fill="midnightblue" stroke="midnightblue" points="248.7,-86.11 250.66,-75.7 242.63,-82.62 248.7,-86.11"/>
</g>
<!-- Node17&#45;&gt;Node9 -->
<g id="edge23" class="edge">
<title>Node17&#45;&gt;Node9</title>
<path fill="none" stroke="midnightblue" d="M231.05,-168.5C248.58,-159.99 275.75,-146.17 298,-132 322.47,-116.42 348.83,-95.88 365.82,-82.1"/>
<polygon fill="midnightblue" stroke="midnightblue" points="368.28,-84.61 373.8,-75.57 363.84,-79.2 368.28,-84.61"/>
</g>
<!-- Node18 -->
<g id="node18" class="node">
<title>Node18</title>
<g id="a_node18"><a xlink:title=" ">
<polygon fill="white" stroke="#bfbfbf" points="241,-112.5 241,-131.5 289,-131.5 289,-112.5 241,-112.5"/>
<text text-anchor="middle" x="265" y="-119.5" font-family="Helvetica,sans-Serif" font-size="10.00">mutex</text>
</a>
</g>
</g>
<!-- Node17&#45;&gt;Node18 -->
<g id="edge21" class="edge">
<title>Node17&#45;&gt;Node18</title>
<path fill="none" stroke="midnightblue" d="M221.59,-168.08C229.16,-160.22 240.38,-148.57 249.51,-139.08"/>
<polygon fill="midnightblue" stroke="midnightblue" points="252.16,-141.38 256.57,-131.75 247.12,-136.53 252.16,-141.38"/>
</g>
<!-- Node19&#45;&gt;Node2 -->
<g id="edge26" class="edge">
<title>Node19&#45;&gt;Node2</title>
<path fill="none" stroke="midnightblue" d="M110.87,-168.08C107.49,-160.77 102.58,-150.18 98.38,-141.1"/>
<polygon fill="midnightblue" stroke="midnightblue" points="101.43,-139.36 94.05,-131.75 95.08,-142.3 101.43,-139.36"/>
</g>
<!-- Node19&#45;&gt;Node4 -->
<g id="edge25" class="edge">
<title>Node19&#45;&gt;Node4</title>
<path fill="none" stroke="midnightblue" d="M116.45,-168.08C120.7,-141.95 133.18,-65.21 138.98,-29.58"/>
<polygon fill="midnightblue" stroke="midnightblue" points="142.46,-30 140.61,-19.57 135.55,-28.88 142.46,-30"/>
</g>
<!-- Node20&#45;&gt;Node6 -->
<g id="edge33" class="edge">
<title>Node20&#45;&gt;Node6</title>
<path fill="none" stroke="midnightblue" d="M410.82,-224.32C424.23,-215.9 444.82,-202.97 460.59,-193.07"/>
<polygon fill="midnightblue" stroke="midnightblue" points="462.61,-195.94 469.22,-187.65 458.89,-190.01 462.61,-195.94"/>
</g>
<!-- Node20&#45;&gt;Node7 -->
<g id="edge34" class="edge">
<title>Node20&#45;&gt;Node7</title>
<path fill="none" stroke="midnightblue" d="M395.98,-224.37C393.88,-206.62 389.04,-165.67 386.2,-141.6"/>
<polygon fill="midnightblue" stroke="midnightblue" points="389.66,-141.11 385.02,-131.59 382.71,-141.93 389.66,-141.11"/>
</g>
<!-- Node20&#45;&gt;Node17 -->
<g id="edge31" class="edge">
<title>Node20&#45;&gt;Node17</title>
<path fill="none" stroke="midnightblue" d="M367.84,-224.44C336.49,-215.24 286.47,-200.56 251.8,-190.39"/>
<polygon fill="midnightblue" stroke="midnightblue" points="252.6,-186.97 242.02,-187.52 250.63,-193.69 252.6,-186.97"/>
</g>
<!-- Node20&#45;&gt;Node19 -->
<g id="edge32" class="edge">
<title>Node20&#45;&gt;Node19</title>
<path fill="none" stroke="midnightblue" d="M356.3,-225.21C307.04,-215.77 223.94,-199.86 169.28,-189.39"/>
<polygon fill="midnightblue" stroke="midnightblue" points="169.89,-185.95 159.41,-187.5 168.58,-192.82 169.89,-185.95"/>
</g>
<!-- Node20&#45;&gt;Node21 -->
<g id="edge29" class="edge">
<title>Node20&#45;&gt;Node21</title>
<path fill="none" stroke="midnightblue" d="M385.91,-224.32C375.51,-216.18 359.74,-203.84 347.28,-194.09"/>
<polygon fill="midnightblue" stroke="midnightblue" points="349.32,-191.24 339.29,-187.83 345.01,-196.75 349.32,-191.24"/>
</g>
<!-- Node21&#45;&gt;Node7 -->
<g id="edge30" class="edge">
<title>Node21&#45;&gt;Node7</title>
<path fill="none" stroke="midnightblue" d="M337,-168.32C345.19,-160.42 357.51,-148.55 367.47,-138.94"/>
<polygon fill="midnightblue" stroke="midnightblue" points="370.07,-141.29 374.84,-131.83 365.21,-136.26 370.07,-141.29"/>
</g>
<!-- Node22&#45;&gt;Node6 -->
<g id="edge38" class="edge">
<title>Node22&#45;&gt;Node6</title>
<path fill="none" stroke="midnightblue" d="M568.61,-224.32C552.33,-215.7 527.13,-202.36 508.28,-192.39"/>
<polygon fill="midnightblue" stroke="midnightblue" points="509.82,-189.24 499.35,-187.65 506.55,-195.43 509.82,-189.24"/>
</g>
<!-- Node22&#45;&gt;Node7 -->
<g id="edge40" class="edge">
<title>Node22&#45;&gt;Node7</title>
<path fill="none" stroke="midnightblue" d="M584.62,-224.45C583.52,-210.53 579.28,-183.03 563,-168 527.69,-135.41 472.33,-125.56 432.53,-122.99"/>
<polygon fill="midnightblue" stroke="midnightblue" points="432.68,-119.49 422.51,-122.48 432.32,-126.49 432.68,-119.49"/>
</g>
<!-- Node22&#45;&gt;Node9 -->
<g id="edge39" class="edge">
<title>Node22&#45;&gt;Node9</title>
<path fill="none" stroke="midnightblue" d="M587.36,-224.19C590.38,-210.88 594.02,-185.34 583,-168 549.45,-115.18 479.02,-88.81 431.6,-76.53"/>
<polygon fill="midnightblue" stroke="midnightblue" points="432.4,-73.13 421.86,-74.12 430.72,-79.92 432.4,-73.13"/>
</g>
</g>
</svg>
