<?xml version="1.0" encoding="UTF-8" standalone="no"?>
<!DOCTYPE svg PUBLIC "-//W3C//DTD SVG 1.1//EN"
 "http://www.w3.org/Graphics/SVG/1.1/DTD/svg11.dtd">
<!-- Generated by graphviz version 2.43.0 (0)
 -->
<!-- Title: /home/runner/work/Raytracer/Raytracer/src/Plugins/Materials/IMaterialCreator.hpp Pages: 1 -->
<svg width="615pt" height="330pt"
 viewBox="0.00 0.00 615.00 330.00" xmlns="http://www.w3.org/2000/svg" xmlns:xlink="http://www.w3.org/1999/xlink">
<g id="graph0" class="graph" transform="scale(1 1) rotate(0) translate(4 326)">
<title>/home/runner/work/Raytracer/Raytracer/src/Plugins/Materials/IMaterialCreator.hpp</title>
<polygon fill="white" stroke="transparent" points="-4,4 -4,-326 611,-326 611,4 -4,4"/>
<!-- Node1 -->
<g id="node1" class="node">
<title>Node1</title>
<g id="a_node1"><a xlink:title=" ">
<polygon fill="#bfbfbf" stroke="black" points="29.5,-280.5 29.5,-321.5 200.5,-321.5 200.5,-280.5 29.5,-280.5"/>
<text text-anchor="start" x="37.5" y="-309.5" font-family="Helvetica,sans-Serif" font-size="10.00">/home/runner/work/Raytracer</text>
<text text-anchor="start" x="37.5" y="-298.5" font-family="Helvetica,sans-Serif" font-size="10.00">/Raytracer/src/Plugins/Materials</text>
<text text-anchor="middle" x="115" y="-287.5" font-family="Helvetica,sans-Serif" font-size="10.00">/IMaterialCreator.hpp</text>
</a>
</g>
</g>
<!-- Node2 -->
<g id="node2" class="node">
<title>Node2</title>
<g id="a_node2"><a xlink:title=" ">
<polygon fill="white" stroke="#bfbfbf" points="47,-0.5 47,-19.5 105,-19.5 105,-0.5 47,-0.5"/>
<text text-anchor="middle" x="76" y="-7.5" font-family="Helvetica,sans-Serif" font-size="10.00">memory</text>
</a>
</g>
</g>
<!-- Node1&#45;&gt;Node2 -->
<g id="edge1" class="edge">
<title>Node1&#45;&gt;Node2</title>
<path fill="none" stroke="midnightblue" d="M77.03,-280.32C43.53,-259.93 0,-224.65 0,-179 0,-179 0,-179 0,-121 0,-81.28 33.96,-45.5 56.48,-26.15"/>
<polygon fill="midnightblue" stroke="midnightblue" points="58.98,-28.63 64.46,-19.57 54.52,-23.24 58.98,-28.63"/>
</g>
<!-- Node3 -->
<g id="node3" class="node">
<title>Node3</title>
<g id="a_node3"><a xlink:href="$a00116.html" xlink:title=" ">
<polygon fill="white" stroke="black" points="179.5,-224.5 179.5,-243.5 260.5,-243.5 260.5,-224.5 179.5,-224.5"/>
<text text-anchor="middle" x="220" y="-231.5" font-family="Helvetica,sans-Serif" font-size="10.00">IMaterial.hpp</text>
</a>
</g>
</g>
<!-- Node1&#45;&gt;Node3 -->
<g id="edge2" class="edge">
<title>Node1&#45;&gt;Node3</title>
<path fill="none" stroke="midnightblue" d="M146.5,-280.5C162.91,-270.34 182.6,-258.16 197.46,-248.95"/>
<polygon fill="midnightblue" stroke="midnightblue" points="199.36,-251.89 206.02,-243.65 195.68,-245.94 199.36,-251.89"/>
</g>
<!-- Node7 -->
<g id="node7" class="node">
<title>Node7</title>
<g id="a_node7"><a xlink:href="$a00245.html" xlink:title=" ">
<polygon fill="white" stroke="black" points="148.5,-56.5 148.5,-75.5 223.5,-75.5 223.5,-56.5 148.5,-56.5"/>
<text text-anchor="middle" x="186" y="-63.5" font-family="Helvetica,sans-Serif" font-size="10.00">ISetting.hpp</text>
</a>
</g>
</g>
<!-- Node1&#45;&gt;Node7 -->
<g id="edge24" class="edge">
<title>Node1&#45;&gt;Node7</title>
<path fill="none" stroke="midnightblue" d="M96.57,-280.4C75.08,-255.07 44.03,-209.32 57,-168 66.08,-139.06 73.06,-131.84 96,-112 112.28,-97.92 133.73,-86.97 151.61,-79.4"/>
<polygon fill="midnightblue" stroke="midnightblue" points="153.16,-82.55 161.11,-75.54 150.53,-76.06 153.16,-82.55"/>
</g>
<!-- Node16 -->
<g id="node16" class="node">
<title>Node16</title>
<g id="a_node16"><a xlink:href="$a00158.html" xlink:title=" ">
<polygon fill="white" stroke="black" points="484.5,-224.5 484.5,-243.5 557.5,-243.5 557.5,-224.5 484.5,-224.5"/>
<text text-anchor="middle" x="521" y="-231.5" font-family="Helvetica,sans-Serif" font-size="10.00">ILogger.hpp</text>
</a>
</g>
</g>
<!-- Node1&#45;&gt;Node16 -->
<g id="edge21" class="edge">
<title>Node1&#45;&gt;Node16</title>
<path fill="none" stroke="midnightblue" d="M200.61,-286.29C283.97,-272.95 407.58,-253.16 474.27,-242.48"/>
<polygon fill="midnightblue" stroke="midnightblue" points="475.15,-245.89 484.47,-240.85 474.04,-238.97 475.15,-245.89"/>
</g>
<!-- Node4 -->
<g id="node4" class="node">
<title>Node4</title>
<g id="a_node4"><a xlink:href="$a00176.html" xlink:title=" ">
<polygon fill="white" stroke="black" points="220.5,-168.5 220.5,-187.5 275.5,-187.5 275.5,-168.5 220.5,-168.5"/>
<text text-anchor="middle" x="248" y="-175.5" font-family="Helvetica,sans-Serif" font-size="10.00">Ray.hpp</text>
</a>
</g>
</g>
<!-- Node3&#45;&gt;Node4 -->
<g id="edge3" class="edge">
<title>Node3&#45;&gt;Node4</title>
<path fill="none" stroke="midnightblue" d="M224.62,-224.08C228.46,-216.69 234.02,-205.95 238.76,-196.81"/>
<polygon fill="midnightblue" stroke="midnightblue" points="241.97,-198.24 243.46,-187.75 235.75,-195.02 241.97,-198.24"/>
</g>
<!-- Node5 -->
<g id="node5" class="node">
<title>Node5</title>
<g id="a_node5"><a xlink:href="$a00131.html" xlink:title=" ">
<polygon fill="white" stroke="black" points="169.5,-112.5 169.5,-131.5 246.5,-131.5 246.5,-112.5 169.5,-112.5"/>
<text text-anchor="middle" x="208" y="-119.5" font-family="Helvetica,sans-Serif" font-size="10.00">Vector3f.hpp</text>
</a>
</g>
</g>
<!-- Node3&#45;&gt;Node5 -->
<g id="edge20" class="edge">
<title>Node3&#45;&gt;Node5</title>
<path fill="none" stroke="midnightblue" d="M218.17,-224.42C216.32,-215.39 213.52,-200.76 212,-188 210.16,-172.54 209.14,-154.91 208.59,-141.92"/>
<polygon fill="midnightblue" stroke="midnightblue" points="212.09,-141.73 208.22,-131.86 205.09,-141.98 212.09,-141.73"/>
</g>
<!-- Node9 -->
<g id="node9" class="node">
<title>Node9</title>
<g id="a_node9"><a xlink:href="$a00161.html" xlink:title=" ">
<polygon fill="white" stroke="black" points="405,-168.5 405,-187.5 467,-187.5 467,-168.5 405,-168.5"/>
<text text-anchor="middle" x="436" y="-175.5" font-family="Helvetica,sans-Serif" font-size="10.00">Color.hpp</text>
</a>
</g>
</g>
<!-- Node3&#45;&gt;Node9 -->
<g id="edge9" class="edge">
<title>Node3&#45;&gt;Node9</title>
<path fill="none" stroke="midnightblue" d="M254.23,-224.44C292.39,-214.9 354.09,-199.48 394.85,-189.29"/>
<polygon fill="midnightblue" stroke="midnightblue" points="395.89,-192.64 404.74,-186.82 394.19,-185.85 395.89,-192.64"/>
</g>
<!-- Node13 -->
<g id="node13" class="node">
<title>Node13</title>
<g id="a_node13"><a xlink:href="$a00239.html" xlink:title=" ">
<polygon fill="white" stroke="black" points="66,-168.5 66,-187.5 164,-187.5 164,-168.5 66,-168.5"/>
<text text-anchor="middle" x="115" y="-175.5" font-family="Helvetica,sans-Serif" font-size="10.00">IDisplayable.hpp</text>
</a>
</g>
</g>
<!-- Node3&#45;&gt;Node13 -->
<g id="edge15" class="edge">
<title>Node3&#45;&gt;Node13</title>
<path fill="none" stroke="midnightblue" d="M203.13,-224.32C186.29,-215.66 160.19,-202.24 140.76,-192.25"/>
<polygon fill="midnightblue" stroke="midnightblue" points="142.32,-189.12 131.83,-187.65 139.12,-195.34 142.32,-189.12"/>
</g>
<!-- Node15 -->
<g id="node15" class="node">
<title>Node15</title>
<g id="a_node15"><a xlink:href="$a00122.html" xlink:title=" ">
<polygon fill="white" stroke="black" points="293.5,-168.5 293.5,-187.5 382.5,-187.5 382.5,-168.5 293.5,-168.5"/>
<text text-anchor="middle" x="338" y="-175.5" font-family="Helvetica,sans-Serif" font-size="10.00">ITransform.hpp</text>
</a>
</g>
</g>
<!-- Node3&#45;&gt;Node15 -->
<g id="edge18" class="edge">
<title>Node3&#45;&gt;Node15</title>
<path fill="none" stroke="midnightblue" d="M238.7,-224.44C257.94,-215.64 288.15,-201.81 310.2,-191.72"/>
<polygon fill="midnightblue" stroke="midnightblue" points="311.75,-194.86 319.39,-187.52 308.84,-188.5 311.75,-194.86"/>
</g>
<!-- Node4&#45;&gt;Node5 -->
<g id="edge4" class="edge">
<title>Node4&#45;&gt;Node5</title>
<path fill="none" stroke="midnightblue" d="M241.39,-168.08C235.74,-160.46 227.46,-149.26 220.55,-139.94"/>
<polygon fill="midnightblue" stroke="midnightblue" points="223.25,-137.7 214.48,-131.75 217.62,-141.87 223.25,-137.7"/>
</g>
<!-- Node6 -->
<g id="node6" class="node">
<title>Node6</title>
<g id="a_node6"><a xlink:title=" ">
<polygon fill="white" stroke="#bfbfbf" points="384.5,-56.5 384.5,-75.5 441.5,-75.5 441.5,-56.5 384.5,-56.5"/>
<text text-anchor="middle" x="413" y="-63.5" font-family="Helvetica,sans-Serif" font-size="10.00">ostream</text>
</a>
</g>
</g>
<!-- Node5&#45;&gt;Node6 -->
<g id="edge5" class="edge">
<title>Node5&#45;&gt;Node6</title>
<path fill="none" stroke="midnightblue" d="M240.48,-112.44C276.86,-102.86 335.77,-87.34 374.45,-77.15"/>
<polygon fill="midnightblue" stroke="midnightblue" points="375.53,-80.49 384.31,-74.56 373.75,-73.72 375.53,-80.49"/>
</g>
<!-- Node5&#45;&gt;Node7 -->
<g id="edge6" class="edge">
<title>Node5&#45;&gt;Node7</title>
<path fill="none" stroke="midnightblue" d="M204.37,-112.08C201.39,-104.77 197.07,-94.18 193.38,-85.1"/>
<polygon fill="midnightblue" stroke="midnightblue" points="196.58,-83.69 189.57,-75.75 190.1,-86.33 196.58,-83.69"/>
</g>
<!-- Node7&#45;&gt;Node2 -->
<g id="edge7" class="edge">
<title>Node7&#45;&gt;Node2</title>
<path fill="none" stroke="midnightblue" d="M168.33,-56.32C150.61,-47.62 123.1,-34.12 102.71,-24.11"/>
<polygon fill="midnightblue" stroke="midnightblue" points="104.15,-20.92 93.63,-19.65 101.06,-27.2 104.15,-20.92"/>
</g>
<!-- Node8 -->
<g id="node8" class="node">
<title>Node8</title>
<g id="a_node8"><a xlink:title=" ">
<polygon fill="white" stroke="#bfbfbf" points="144.5,-0.5 144.5,-19.5 227.5,-19.5 227.5,-0.5 144.5,-0.5"/>
<text text-anchor="middle" x="186" y="-7.5" font-family="Helvetica,sans-Serif" font-size="10.00">libconfig.h++</text>
</a>
</g>
</g>
<!-- Node7&#45;&gt;Node8 -->
<g id="edge8" class="edge">
<title>Node7&#45;&gt;Node8</title>
<path fill="none" stroke="midnightblue" d="M186,-56.08C186,-49.01 186,-38.86 186,-29.99"/>
<polygon fill="midnightblue" stroke="midnightblue" points="189.5,-29.75 186,-19.75 182.5,-29.75 189.5,-29.75"/>
</g>
<!-- Node9&#45;&gt;Node6 -->
<g id="edge11" class="edge">
<title>Node9&#45;&gt;Node6</title>
<path fill="none" stroke="midnightblue" d="M460.57,-168.46C488.1,-157.47 526.9,-136.8 511,-112 497.91,-91.59 472.99,-80.32 451.56,-74.16"/>
<polygon fill="midnightblue" stroke="midnightblue" points="452.25,-70.72 441.7,-71.6 450.5,-77.5 452.25,-70.72"/>
</g>
<!-- Node9&#45;&gt;Node7 -->
<g id="edge14" class="edge">
<title>Node9&#45;&gt;Node7</title>
<path fill="none" stroke="midnightblue" d="M448.49,-168.5C465.98,-155.58 493.92,-130.56 478,-112 447.1,-75.98 308.3,-68.52 233.74,-67.15"/>
<polygon fill="midnightblue" stroke="midnightblue" points="233.71,-63.65 223.66,-67 233.61,-70.65 233.71,-63.65"/>
</g>
<!-- Node10 -->
<g id="node10" class="node">
<title>Node10</title>
<g id="a_node10"><a xlink:title=" ">
<polygon fill="white" stroke="#bfbfbf" points="265,-112.5 265,-131.5 313,-131.5 313,-112.5 265,-112.5"/>
<text text-anchor="middle" x="289" y="-119.5" font-family="Helvetica,sans-Serif" font-size="10.00">mutex</text>
</a>
</g>
</g>
<!-- Node9&#45;&gt;Node10 -->
<g id="edge10" class="edge">
<title>Node9&#45;&gt;Node10</title>
<path fill="none" stroke="midnightblue" d="M412.71,-168.44C388.19,-159.44 349.4,-145.19 321.8,-135.05"/>
<polygon fill="midnightblue" stroke="midnightblue" points="322.78,-131.68 312.18,-131.52 320.36,-138.25 322.78,-131.68"/>
</g>
<!-- Node11 -->
<g id="node11" class="node">
<title>Node11</title>
<g id="a_node11"><a xlink:title=" ">
<polygon fill="white" stroke="#bfbfbf" points="331.5,-112.5 331.5,-131.5 468.5,-131.5 468.5,-112.5 331.5,-112.5"/>
<text text-anchor="middle" x="400" y="-119.5" font-family="Helvetica,sans-Serif" font-size="10.00">SFML/Graphics/Color.hpp</text>
</a>
</g>
</g>
<!-- Node9&#45;&gt;Node11 -->
<g id="edge12" class="edge">
<title>Node9&#45;&gt;Node11</title>
<path fill="none" stroke="midnightblue" d="M430.06,-168.08C425.02,-160.53 417.66,-149.49 411.49,-140.23"/>
<polygon fill="midnightblue" stroke="midnightblue" points="414.29,-138.13 405.83,-131.75 408.47,-142.01 414.29,-138.13"/>
</g>
<!-- Node12 -->
<g id="node12" class="node">
<title>Node12</title>
<g id="a_node12"><a xlink:title=" ">
<polygon fill="white" stroke="#bfbfbf" points="563,-112.5 563,-131.5 607,-131.5 607,-112.5 563,-112.5"/>
<text text-anchor="middle" x="585" y="-119.5" font-family="Helvetica,sans-Serif" font-size="10.00">string</text>
</a>
</g>
</g>
<!-- Node9&#45;&gt;Node12 -->
<g id="edge13" class="edge">
<title>Node9&#45;&gt;Node12</title>
<path fill="none" stroke="midnightblue" d="M459.61,-168.44C484.9,-159.28 525.17,-144.68 553.22,-134.52"/>
<polygon fill="midnightblue" stroke="midnightblue" points="554.75,-137.69 562.96,-130.99 552.36,-131.11 554.75,-137.69"/>
</g>
<!-- Node13&#45;&gt;Node2 -->
<g id="edge16" class="edge">
<title>Node13&#45;&gt;Node2</title>
<path fill="none" stroke="midnightblue" d="M110.58,-168.26C106.25,-159.35 99.77,-145.03 96,-132 85.78,-96.67 80.24,-53.93 77.73,-29.86"/>
<polygon fill="midnightblue" stroke="midnightblue" points="81.19,-29.27 76.73,-19.66 74.22,-29.96 81.19,-29.27"/>
</g>
<!-- Node14 -->
<g id="node14" class="node">
<title>Node14</title>
<g id="a_node14"><a xlink:title=" ">
<polygon fill="white" stroke="#bfbfbf" points="104.5,-112.5 104.5,-131.5 151.5,-131.5 151.5,-112.5 104.5,-112.5"/>
<text text-anchor="middle" x="128" y="-119.5" font-family="Helvetica,sans-Serif" font-size="10.00">vector</text>
</a>
</g>
</g>
<!-- Node13&#45;&gt;Node14 -->
<g id="edge17" class="edge">
<title>Node13&#45;&gt;Node14</title>
<path fill="none" stroke="midnightblue" d="M117.15,-168.08C118.87,-160.93 121.35,-150.64 123.5,-141.69"/>
<polygon fill="midnightblue" stroke="midnightblue" points="126.96,-142.29 125.89,-131.75 120.15,-140.65 126.96,-142.29"/>
</g>
<!-- Node15&#45;&gt;Node5 -->
<g id="edge19" class="edge">
<title>Node15&#45;&gt;Node5</title>
<path fill="none" stroke="midnightblue" d="M317.4,-168.44C296.01,-159.56 262.32,-145.56 237.98,-135.45"/>
<polygon fill="midnightblue" stroke="midnightblue" points="239.08,-132.12 228.5,-131.52 236.39,-138.58 239.08,-132.12"/>
</g>
<!-- Node16&#45;&gt;Node12 -->
<g id="edge23" class="edge">
<title>Node16&#45;&gt;Node12</title>
<path fill="none" stroke="midnightblue" d="M531.3,-224.32C540.72,-215.89 554.45,-202.31 563,-188 571.59,-173.62 577.38,-155.42 580.86,-141.94"/>
<polygon fill="midnightblue" stroke="midnightblue" points="584.33,-142.46 583.24,-131.92 577.52,-140.84 584.33,-142.46"/>
</g>
<!-- Node17 -->
<g id="node17" class="node">
<title>Node17</title>
<g id="a_node17"><a xlink:title=" ">
<polygon fill="white" stroke="#bfbfbf" points="488.5,-168.5 488.5,-187.5 553.5,-187.5 553.5,-168.5 488.5,-168.5"/>
<text text-anchor="middle" x="521" y="-175.5" font-family="Helvetica,sans-Serif" font-size="10.00">functional</text>
</a>
</g>
</g>
<!-- Node16&#45;&gt;Node17 -->
<g id="edge22" class="edge">
<title>Node16&#45;&gt;Node17</title>
<path fill="none" stroke="midnightblue" d="M521,-224.08C521,-217.01 521,-206.86 521,-197.99"/>
<polygon fill="midnightblue" stroke="midnightblue" points="524.5,-197.75 521,-187.75 517.5,-197.75 524.5,-197.75"/>
</g>
</g>
</svg>
