<?xml version="1.0" encoding="UTF-8" standalone="no"?>
<!DOCTYPE svg PUBLIC "-//W3C//DTD SVG 1.1//EN"
 "http://www.w3.org/Graphics/SVG/1.1/DTD/svg11.dtd">
<!-- Generated by graphviz version 2.43.0 (0)
 -->
<!-- Title: /home/runner/work/Raytracer/Raytracer/src/Scenes/Displayable.hpp Pages: 1 -->
<svg width="304pt" height="151pt"
 viewBox="0.00 0.00 304.06 151.00" xmlns="http://www.w3.org/2000/svg" xmlns:xlink="http://www.w3.org/1999/xlink">
<g id="graph0" class="graph" transform="scale(1 1) rotate(0) translate(4 147)">
<title>/home/runner/work/Raytracer/Raytracer/src/Scenes/Displayable.hpp</title>
<polygon fill="white" stroke="transparent" points="-4,4 -4,-147 300.06,-147 300.06,4 -4,4"/>
<!-- Node1 -->
<g id="node1" class="node">
<title>Node1</title>
<g id="a_node1"><a xlink:title=" ">
<polygon fill="#bfbfbf" stroke="black" points="47.5,-112.5 47.5,-142.5 250.5,-142.5 250.5,-112.5 47.5,-112.5"/>
<text text-anchor="start" x="55.5" y="-130.5" font-family="Helvetica,sans-Serif" font-size="10.00">/home/runner/work/Raytracer</text>
<text text-anchor="middle" x="149" y="-119.5" font-family="Helvetica,sans-Serif" font-size="10.00">/Raytracer/src/Scenes/Displayable.hpp</text>
</a>
</g>
</g>
<!-- Node2 -->
<g id="node2" class="node">
<title>Node2</title>
<g id="a_node2"><a xlink:title=" ">
<polygon fill="white" stroke="#bfbfbf" points="0,-56.5 0,-75.5 44,-75.5 44,-56.5 0,-56.5"/>
<text text-anchor="middle" x="22" y="-63.5" font-family="Helvetica,sans-Serif" font-size="10.00">string</text>
</a>
</g>
</g>
<!-- Node1&#45;&gt;Node2 -->
<g id="edge1" class="edge">
<title>Node1&#45;&gt;Node2</title>
<path fill="none" stroke="midnightblue" d="M118.9,-112.4C97.88,-102.55 70.03,-89.5 49.58,-79.92"/>
<polygon fill="midnightblue" stroke="midnightblue" points="51.02,-76.73 40.48,-75.66 48.05,-83.07 51.02,-76.73"/>
</g>
<!-- Node3 -->
<g id="node3" class="node">
<title>Node3</title>
<g id="a_node3"><a xlink:title=" ">
<polygon fill="white" stroke="#bfbfbf" points="83,-0.5 83,-19.5 141,-19.5 141,-0.5 83,-0.5"/>
<text text-anchor="middle" x="112" y="-7.5" font-family="Helvetica,sans-Serif" font-size="10.00">memory</text>
</a>
</g>
</g>
<!-- Node1&#45;&gt;Node3 -->
<g id="edge2" class="edge">
<title>Node1&#45;&gt;Node3</title>
<path fill="none" stroke="midnightblue" d="M124.41,-112.29C111.91,-103.59 97.91,-91.19 91,-76 83.88,-60.37 91.54,-41.62 99.54,-28.28"/>
<polygon fill="midnightblue" stroke="midnightblue" points="102.64,-29.93 105.21,-19.65 96.79,-26.08 102.64,-29.93"/>
</g>
<!-- Node4 -->
<g id="node4" class="node">
<title>Node4</title>
<g id="a_node4"><a xlink:title=" ">
<polygon fill="white" stroke="#bfbfbf" points="162.5,-0.5 162.5,-19.5 209.5,-19.5 209.5,-0.5 162.5,-0.5"/>
<text text-anchor="middle" x="186" y="-7.5" font-family="Helvetica,sans-Serif" font-size="10.00">vector</text>
</a>
</g>
</g>
<!-- Node1&#45;&gt;Node4 -->
<g id="edge3" class="edge">
<title>Node1&#45;&gt;Node4</title>
<path fill="none" stroke="midnightblue" d="M239.85,-112.38C259.85,-104.87 278.7,-93.42 291,-76 312.28,-45.85 257.48,-26.86 219.28,-17.65"/>
<polygon fill="midnightblue" stroke="midnightblue" points="220.04,-14.23 209.51,-15.42 218.48,-21.06 220.04,-14.23"/>
</g>
<!-- Node5 -->
<g id="node5" class="node">
<title>Node5</title>
<g id="a_node5"><a xlink:title=" ">
<polygon fill="white" stroke="#bfbfbf" points="216.5,-56.5 216.5,-75.5 281.5,-75.5 281.5,-56.5 216.5,-56.5"/>
<text text-anchor="middle" x="249" y="-63.5" font-family="Helvetica,sans-Serif" font-size="10.00">functional</text>
</a>
</g>
</g>
<!-- Node1&#45;&gt;Node5 -->
<g id="edge4" class="edge">
<title>Node1&#45;&gt;Node5</title>
<path fill="none" stroke="midnightblue" d="M172.7,-112.4C188.73,-102.86 209.8,-90.32 225.74,-80.84"/>
<polygon fill="midnightblue" stroke="midnightblue" points="227.64,-83.78 234.45,-75.66 224.07,-77.76 227.64,-83.78"/>
</g>
<!-- Node6 -->
<g id="node6" class="node">
<title>Node6</title>
<g id="a_node6"><a xlink:href="$a00239.html" xlink:title=" ">
<polygon fill="white" stroke="black" points="100,-56.5 100,-75.5 198,-75.5 198,-56.5 100,-56.5"/>
<text text-anchor="middle" x="149" y="-63.5" font-family="Helvetica,sans-Serif" font-size="10.00">IDisplayable.hpp</text>
</a>
</g>
</g>
<!-- Node1&#45;&gt;Node6 -->
<g id="edge5" class="edge">
<title>Node1&#45;&gt;Node6</title>
<path fill="none" stroke="midnightblue" d="M149,-112.4C149,-104.47 149,-94.46 149,-85.86"/>
<polygon fill="midnightblue" stroke="midnightblue" points="152.5,-85.66 149,-75.66 145.5,-85.66 152.5,-85.66"/>
</g>
<!-- Node6&#45;&gt;Node3 -->
<g id="edge6" class="edge">
<title>Node6&#45;&gt;Node3</title>
<path fill="none" stroke="midnightblue" d="M142.89,-56.08C137.72,-48.53 130.15,-37.49 123.81,-28.23"/>
<polygon fill="midnightblue" stroke="midnightblue" points="126.54,-26.02 118,-19.75 120.76,-29.98 126.54,-26.02"/>
</g>
<!-- Node6&#45;&gt;Node4 -->
<g id="edge7" class="edge">
<title>Node6&#45;&gt;Node4</title>
<path fill="none" stroke="midnightblue" d="M155.11,-56.08C160.28,-48.53 167.85,-37.49 174.19,-28.23"/>
<polygon fill="midnightblue" stroke="midnightblue" points="177.24,-29.98 180,-19.75 171.46,-26.02 177.24,-29.98"/>
</g>
</g>
</svg>
