<?xml version="1.0" encoding="UTF-8" standalone="no"?>
<!DOCTYPE svg PUBLIC "-//W3C//DTD SVG 1.1//EN"
 "http://www.w3.org/Graphics/SVG/1.1/DTD/svg11.dtd">
<!-- Generated by graphviz version 2.43.0 (0)
 -->
<!-- Title: /home/runner/work/Raytracer/Raytracer/src/Plugins/Materials/IMaterialCreator.hpp Pages: 1 -->
<svg width="589pt" height="330pt"
 viewBox="0.00 0.00 588.50 330.00" xmlns="http://www.w3.org/2000/svg" xmlns:xlink="http://www.w3.org/1999/xlink">
<g id="graph0" class="graph" transform="scale(1 1) rotate(0) translate(4 326)">
<title>/home/runner/work/Raytracer/Raytracer/src/Plugins/Materials/IMaterialCreator.hpp</title>
<polygon fill="white" stroke="transparent" points="-4,4 -4,-326 584.5,-326 584.5,4 -4,4"/>
<!-- Node1 -->
<g id="node1" class="node">
<title>Node1</title>
<g id="a_node1"><a xlink:title=" ">
<polygon fill="#bfbfbf" stroke="black" points="275.5,-280.5 275.5,-321.5 446.5,-321.5 446.5,-280.5 275.5,-280.5"/>
<text text-anchor="start" x="283.5" y="-309.5" font-family="Helvetica,sans-Serif" font-size="10.00">/home/runner/work/Raytracer</text>
<text text-anchor="start" x="283.5" y="-298.5" font-family="Helvetica,sans-Serif" font-size="10.00">/Raytracer/src/Plugins/Materials</text>
<text text-anchor="middle" x="361" y="-287.5" font-family="Helvetica,sans-Serif" font-size="10.00">/IMaterialCreator.hpp</text>
</a>
</g>
</g>
<!-- Node2 -->
<g id="node2" class="node">
<title>Node2</title>
<g id="a_node2"><a xlink:title=" ">
<polygon fill="white" stroke="#bfbfbf" points="9,-0.5 9,-19.5 67,-19.5 67,-0.5 9,-0.5"/>
<text text-anchor="middle" x="38" y="-7.5" font-family="Helvetica,sans-Serif" font-size="10.00">memory</text>
</a>
</g>
</g>
<!-- Node1&#45;&gt;Node2 -->
<g id="edge1" class="edge">
<title>Node1&#45;&gt;Node2</title>
<path fill="none" stroke="midnightblue" d="M275.45,-288.7C168.7,-272.14 0,-236.84 0,-179 0,-179 0,-179 0,-121 0,-86.81 16.6,-49.76 27.86,-28.57"/>
<polygon fill="midnightblue" stroke="midnightblue" points="30.95,-30.22 32.72,-19.77 24.82,-26.83 30.95,-30.22"/>
</g>
<!-- Node3 -->
<g id="node3" class="node">
<title>Node3</title>
<g id="a_node3"><a xlink:href="$a00110.html" xlink:title=" ">
<polygon fill="white" stroke="black" points="220.5,-224.5 220.5,-243.5 301.5,-243.5 301.5,-224.5 220.5,-224.5"/>
<text text-anchor="middle" x="261" y="-231.5" font-family="Helvetica,sans-Serif" font-size="10.00">IMaterial.hpp</text>
</a>
</g>
</g>
<!-- Node1&#45;&gt;Node3 -->
<g id="edge2" class="edge">
<title>Node1&#45;&gt;Node3</title>
<path fill="none" stroke="midnightblue" d="M331,-280.5C315.52,-270.44 296.98,-258.38 282.87,-249.21"/>
<polygon fill="midnightblue" stroke="midnightblue" points="284.6,-246.17 274.31,-243.65 280.79,-252.04 284.6,-246.17"/>
</g>
<!-- Node7 -->
<g id="node7" class="node">
<title>Node7</title>
<g id="a_node7"><a xlink:href="$a00239.html" xlink:title=" ">
<polygon fill="white" stroke="black" points="362.5,-56.5 362.5,-75.5 437.5,-75.5 437.5,-56.5 362.5,-56.5"/>
<text text-anchor="middle" x="400" y="-63.5" font-family="Helvetica,sans-Serif" font-size="10.00">ISetting.hpp</text>
</a>
</g>
</g>
<!-- Node1&#45;&gt;Node7 -->
<g id="edge23" class="edge">
<title>Node1&#45;&gt;Node7</title>
<path fill="none" stroke="midnightblue" d="M364.33,-280.13C371.77,-235.68 389.67,-128.73 396.9,-85.54"/>
<polygon fill="midnightblue" stroke="midnightblue" points="400.36,-86.03 398.56,-75.59 393.46,-84.87 400.36,-86.03"/>
</g>
<!-- Node15 -->
<g id="node15" class="node">
<title>Node15</title>
<g id="a_node15"><a xlink:href="$a00152.html" xlink:title=" ">
<polygon fill="white" stroke="black" points="445.5,-224.5 445.5,-243.5 518.5,-243.5 518.5,-224.5 445.5,-224.5"/>
<text text-anchor="middle" x="482" y="-231.5" font-family="Helvetica,sans-Serif" font-size="10.00">ILogger.hpp</text>
</a>
</g>
</g>
<!-- Node1&#45;&gt;Node15 -->
<g id="edge20" class="edge">
<title>Node1&#45;&gt;Node15</title>
<path fill="none" stroke="midnightblue" d="M397.3,-280.5C416.57,-270.15 439.75,-257.69 456.99,-248.43"/>
<polygon fill="midnightblue" stroke="midnightblue" points="458.74,-251.47 465.89,-243.65 455.43,-245.3 458.74,-251.47"/>
</g>
<!-- Node4 -->
<g id="node4" class="node">
<title>Node4</title>
<g id="a_node4"><a xlink:href="$a00170.html" xlink:title=" ">
<polygon fill="white" stroke="black" points="188.5,-168.5 188.5,-187.5 243.5,-187.5 243.5,-168.5 188.5,-168.5"/>
<text text-anchor="middle" x="216" y="-175.5" font-family="Helvetica,sans-Serif" font-size="10.00">Ray.hpp</text>
</a>
</g>
</g>
<!-- Node3&#45;&gt;Node4 -->
<g id="edge3" class="edge">
<title>Node3&#45;&gt;Node4</title>
<path fill="none" stroke="midnightblue" d="M253.57,-224.08C247.15,-216.38 237.69,-205.03 229.88,-195.65"/>
<polygon fill="midnightblue" stroke="midnightblue" points="232.38,-193.19 223.29,-187.75 227.01,-197.67 232.38,-193.19"/>
</g>
<!-- Node5 -->
<g id="node5" class="node">
<title>Node5</title>
<g id="a_node5"><a xlink:href="$a00125.html" xlink:title=" ">
<polygon fill="white" stroke="black" points="277.5,-112.5 277.5,-131.5 354.5,-131.5 354.5,-112.5 277.5,-112.5"/>
<text text-anchor="middle" x="316" y="-119.5" font-family="Helvetica,sans-Serif" font-size="10.00">Vector3f.hpp</text>
</a>
</g>
</g>
<!-- Node3&#45;&gt;Node5 -->
<g id="edge19" class="edge">
<title>Node3&#45;&gt;Node5</title>
<path fill="none" stroke="midnightblue" d="M301.55,-225.26C322.52,-218.98 346.32,-207.78 359,-188 370.13,-170.64 352.76,-150.91 336.89,-137.78"/>
<polygon fill="midnightblue" stroke="midnightblue" points="338.92,-134.94 328.88,-131.57 334.63,-140.47 338.92,-134.94"/>
</g>
<!-- Node9 -->
<g id="node9" class="node">
<title>Node9</title>
<g id="a_node9"><a xlink:href="$a00155.html" xlink:title=" ">
<polygon fill="white" stroke="black" points="170,-112.5 170,-131.5 232,-131.5 232,-112.5 170,-112.5"/>
<text text-anchor="middle" x="201" y="-119.5" font-family="Helvetica,sans-Serif" font-size="10.00">Color.hpp</text>
</a>
</g>
</g>
<!-- Node3&#45;&gt;Node9 -->
<g id="edge9" class="edge">
<title>Node3&#45;&gt;Node9</title>
<path fill="none" stroke="midnightblue" d="M229.19,-224.38C211.05,-217.66 189.84,-206.31 179,-188 170.13,-173.01 178.57,-153.93 187.44,-140.33"/>
<polygon fill="midnightblue" stroke="midnightblue" points="190.49,-142.08 193.45,-131.91 184.79,-138.02 190.49,-142.08"/>
</g>
<!-- Node12 -->
<g id="node12" class="node">
<title>Node12</title>
<g id="a_node12"><a xlink:href="$a00233.html" xlink:title=" ">
<polygon fill="white" stroke="black" points="34,-168.5 34,-187.5 132,-187.5 132,-168.5 34,-168.5"/>
<text text-anchor="middle" x="83" y="-175.5" font-family="Helvetica,sans-Serif" font-size="10.00">IDisplayable.hpp</text>
</a>
</g>
</g>
<!-- Node3&#45;&gt;Node12 -->
<g id="edge14" class="edge">
<title>Node3&#45;&gt;Node12</title>
<path fill="none" stroke="midnightblue" d="M232.8,-224.44C202.59,-215.28 154.49,-200.69 120.97,-190.52"/>
<polygon fill="midnightblue" stroke="midnightblue" points="121.66,-187.07 111.07,-187.52 119.63,-193.77 121.66,-187.07"/>
</g>
<!-- Node14 -->
<g id="node14" class="node">
<title>Node14</title>
<g id="a_node14"><a xlink:href="$a00116.html" xlink:title=" ">
<polygon fill="white" stroke="black" points="261.5,-168.5 261.5,-187.5 350.5,-187.5 350.5,-168.5 261.5,-168.5"/>
<text text-anchor="middle" x="306" y="-175.5" font-family="Helvetica,sans-Serif" font-size="10.00">ITransform.hpp</text>
</a>
</g>
</g>
<!-- Node3&#45;&gt;Node14 -->
<g id="edge17" class="edge">
<title>Node3&#45;&gt;Node14</title>
<path fill="none" stroke="midnightblue" d="M268.43,-224.08C274.85,-216.38 284.31,-205.03 292.12,-195.65"/>
<polygon fill="midnightblue" stroke="midnightblue" points="294.99,-197.67 298.71,-187.75 289.62,-193.19 294.99,-197.67"/>
</g>
<!-- Node4&#45;&gt;Node5 -->
<g id="edge4" class="edge">
<title>Node4&#45;&gt;Node5</title>
<path fill="none" stroke="midnightblue" d="M232.07,-168.32C247.96,-159.74 272.51,-146.49 290.96,-136.52"/>
<polygon fill="midnightblue" stroke="midnightblue" points="292.84,-139.49 299.97,-131.65 289.51,-133.33 292.84,-139.49"/>
</g>
<!-- Node6 -->
<g id="node6" class="node">
<title>Node6</title>
<g id="a_node6"><a xlink:title=" ">
<polygon fill="white" stroke="#bfbfbf" points="287.5,-56.5 287.5,-75.5 344.5,-75.5 344.5,-56.5 287.5,-56.5"/>
<text text-anchor="middle" x="316" y="-63.5" font-family="Helvetica,sans-Serif" font-size="10.00">ostream</text>
</a>
</g>
</g>
<!-- Node5&#45;&gt;Node6 -->
<g id="edge5" class="edge">
<title>Node5&#45;&gt;Node6</title>
<path fill="none" stroke="midnightblue" d="M316,-112.08C316,-105.01 316,-94.86 316,-85.99"/>
<polygon fill="midnightblue" stroke="midnightblue" points="319.5,-85.75 316,-75.75 312.5,-85.75 319.5,-85.75"/>
</g>
<!-- Node5&#45;&gt;Node7 -->
<g id="edge6" class="edge">
<title>Node5&#45;&gt;Node7</title>
<path fill="none" stroke="midnightblue" d="M329.5,-112.32C342.6,-103.9 362.71,-90.97 378.11,-81.07"/>
<polygon fill="midnightblue" stroke="midnightblue" points="380.02,-84.01 386.54,-75.65 376.23,-78.12 380.02,-84.01"/>
</g>
<!-- Node7&#45;&gt;Node2 -->
<g id="edge7" class="edge">
<title>Node7&#45;&gt;Node2</title>
<path fill="none" stroke="midnightblue" d="M362.32,-57.62C359.17,-57.05 356.03,-56.51 353,-56 254.05,-39.47 136.98,-23.75 77.28,-16"/>
<polygon fill="midnightblue" stroke="midnightblue" points="77.53,-12.51 67.17,-14.7 76.64,-19.45 77.53,-12.51"/>
</g>
<!-- Node8 -->
<g id="node8" class="node">
<title>Node8</title>
<g id="a_node8"><a xlink:title=" ">
<polygon fill="white" stroke="#bfbfbf" points="358.5,-0.5 358.5,-19.5 441.5,-19.5 441.5,-0.5 358.5,-0.5"/>
<text text-anchor="middle" x="400" y="-7.5" font-family="Helvetica,sans-Serif" font-size="10.00">libconfig.h++</text>
</a>
</g>
</g>
<!-- Node7&#45;&gt;Node8 -->
<g id="edge8" class="edge">
<title>Node7&#45;&gt;Node8</title>
<path fill="none" stroke="midnightblue" d="M400,-56.08C400,-49.01 400,-38.86 400,-29.99"/>
<polygon fill="midnightblue" stroke="midnightblue" points="403.5,-29.75 400,-19.75 396.5,-29.75 403.5,-29.75"/>
</g>
<!-- Node9&#45;&gt;Node6 -->
<g id="edge11" class="edge">
<title>Node9&#45;&gt;Node6</title>
<path fill="none" stroke="midnightblue" d="M219.22,-112.44C237.9,-103.68 267.16,-89.94 288.62,-79.86"/>
<polygon fill="midnightblue" stroke="midnightblue" points="290.3,-82.93 297.86,-75.52 287.32,-76.6 290.3,-82.93"/>
</g>
<!-- Node9&#45;&gt;Node7 -->
<g id="edge13" class="edge">
<title>Node9&#45;&gt;Node7</title>
<path fill="none" stroke="midnightblue" d="M232.09,-112.56C266.21,-103.3 321.13,-88.4 358.81,-78.18"/>
<polygon fill="midnightblue" stroke="midnightblue" points="359.73,-81.55 368.47,-75.56 357.9,-74.8 359.73,-81.55"/>
</g>
<!-- Node10 -->
<g id="node10" class="node">
<title>Node10</title>
<g id="a_node10"><a xlink:title=" ">
<polygon fill="white" stroke="#bfbfbf" points="66,-56.5 66,-75.5 114,-75.5 114,-56.5 66,-56.5"/>
<text text-anchor="middle" x="90" y="-63.5" font-family="Helvetica,sans-Serif" font-size="10.00">mutex</text>
</a>
</g>
</g>
<!-- Node9&#45;&gt;Node10 -->
<g id="edge10" class="edge">
<title>Node9&#45;&gt;Node10</title>
<path fill="none" stroke="midnightblue" d="M183.17,-112.32C165.28,-103.62 137.52,-90.12 116.95,-80.11"/>
<polygon fill="midnightblue" stroke="midnightblue" points="118.31,-76.88 107.79,-75.65 115.25,-83.18 118.31,-76.88"/>
</g>
<!-- Node11 -->
<g id="node11" class="node">
<title>Node11</title>
<g id="a_node11"><a xlink:title=" ">
<polygon fill="white" stroke="#bfbfbf" points="132.5,-56.5 132.5,-75.5 269.5,-75.5 269.5,-56.5 132.5,-56.5"/>
<text text-anchor="middle" x="201" y="-63.5" font-family="Helvetica,sans-Serif" font-size="10.00">SFML/Graphics/Color.hpp</text>
</a>
</g>
</g>
<!-- Node9&#45;&gt;Node11 -->
<g id="edge12" class="edge">
<title>Node9&#45;&gt;Node11</title>
<path fill="none" stroke="midnightblue" d="M201,-112.08C201,-105.01 201,-94.86 201,-85.99"/>
<polygon fill="midnightblue" stroke="midnightblue" points="204.5,-85.75 201,-75.75 197.5,-85.75 204.5,-85.75"/>
</g>
<!-- Node12&#45;&gt;Node2 -->
<g id="edge15" class="edge">
<title>Node12&#45;&gt;Node2</title>
<path fill="none" stroke="midnightblue" d="M76.58,-168.17C70.54,-159.43 61.75,-145.44 57,-132 44.76,-97.37 40.39,-54.38 38.84,-30.08"/>
<polygon fill="midnightblue" stroke="midnightblue" points="42.31,-29.57 38.28,-19.78 35.32,-29.95 42.31,-29.57"/>
</g>
<!-- Node13 -->
<g id="node13" class="node">
<title>Node13</title>
<g id="a_node13"><a xlink:title=" ">
<polygon fill="white" stroke="#bfbfbf" points="66.5,-112.5 66.5,-131.5 113.5,-131.5 113.5,-112.5 66.5,-112.5"/>
<text text-anchor="middle" x="90" y="-119.5" font-family="Helvetica,sans-Serif" font-size="10.00">vector</text>
</a>
</g>
</g>
<!-- Node12&#45;&gt;Node13 -->
<g id="edge16" class="edge">
<title>Node12&#45;&gt;Node13</title>
<path fill="none" stroke="midnightblue" d="M84.16,-168.08C85.08,-160.93 86.42,-150.64 87.58,-141.69"/>
<polygon fill="midnightblue" stroke="midnightblue" points="91.05,-142.12 88.87,-131.75 84.11,-141.22 91.05,-142.12"/>
</g>
<!-- Node14&#45;&gt;Node5 -->
<g id="edge18" class="edge">
<title>Node14&#45;&gt;Node5</title>
<path fill="none" stroke="midnightblue" d="M307.65,-168.08C308.98,-160.93 310.88,-150.64 312.54,-141.69"/>
<polygon fill="midnightblue" stroke="midnightblue" points="316,-142.22 314.38,-131.75 309.12,-140.95 316,-142.22"/>
</g>
<!-- Node16 -->
<g id="node16" class="node">
<title>Node16</title>
<g id="a_node16"><a xlink:title=" ">
<polygon fill="white" stroke="#bfbfbf" points="515.5,-168.5 515.5,-187.5 580.5,-187.5 580.5,-168.5 515.5,-168.5"/>
<text text-anchor="middle" x="548" y="-175.5" font-family="Helvetica,sans-Serif" font-size="10.00">functional</text>
</a>
</g>
</g>
<!-- Node15&#45;&gt;Node16 -->
<g id="edge21" class="edge">
<title>Node15&#45;&gt;Node16</title>
<path fill="none" stroke="midnightblue" d="M492.6,-224.32C502.46,-216.26 517.35,-204.08 529.22,-194.37"/>
<polygon fill="midnightblue" stroke="midnightblue" points="531.68,-196.88 537.2,-187.83 527.25,-191.46 531.68,-196.88"/>
</g>
<!-- Node17 -->
<g id="node17" class="node">
<title>Node17</title>
<g id="a_node17"><a xlink:title=" ">
<polygon fill="white" stroke="#bfbfbf" points="453,-168.5 453,-187.5 497,-187.5 497,-168.5 453,-168.5"/>
<text text-anchor="middle" x="475" y="-175.5" font-family="Helvetica,sans-Serif" font-size="10.00">string</text>
</a>
</g>
</g>
<!-- Node15&#45;&gt;Node17 -->
<g id="edge22" class="edge">
<title>Node15&#45;&gt;Node17</title>
<path fill="none" stroke="midnightblue" d="M480.84,-224.08C479.92,-216.93 478.58,-206.64 477.42,-197.69"/>
<polygon fill="midnightblue" stroke="midnightblue" points="480.89,-197.22 476.13,-187.75 473.95,-198.12 480.89,-197.22"/>
</g>
</g>
</svg>
