<?xml version="1.0" encoding="UTF-8" standalone="no"?>
<!DOCTYPE svg PUBLIC "-//W3C//DTD SVG 1.1//EN"
 "http://www.w3.org/Graphics/SVG/1.1/DTD/svg11.dtd">
<!-- Generated by graphviz version 2.43.0 (0)
 -->
<!-- Title: /home/runner/work/Raytracer/Raytracer/src/Plugins/Filters/FilterHandler.hpp Pages: 1 -->
<svg width="823pt" height="442pt"
 viewBox="0.00 0.00 823.41 442.00" xmlns="http://www.w3.org/2000/svg" xmlns:xlink="http://www.w3.org/1999/xlink">
<g id="graph0" class="graph" transform="scale(1 1) rotate(0) translate(4 438)">
<title>/home/runner/work/Raytracer/Raytracer/src/Plugins/Filters/FilterHandler.hpp</title>
<polygon fill="white" stroke="transparent" points="-4,4 -4,-438 819.41,-438 819.41,4 -4,4"/>
<!-- Node1 -->
<g id="node1" class="node">
<title>Node1</title>
<g id="a_node1"><a xlink:title=" ">
<polygon fill="#bfbfbf" stroke="black" points="288.5,-392.5 288.5,-433.5 447.5,-433.5 447.5,-392.5 288.5,-392.5"/>
<text text-anchor="start" x="296.5" y="-421.5" font-family="Helvetica,sans-Serif" font-size="10.00">/home/runner/work/Raytracer</text>
<text text-anchor="start" x="296.5" y="-410.5" font-family="Helvetica,sans-Serif" font-size="10.00">/Raytracer/src/Plugins/Filters</text>
<text text-anchor="middle" x="368" y="-399.5" font-family="Helvetica,sans-Serif" font-size="10.00">/FilterHandler.hpp</text>
</a>
</g>
</g>
<!-- Node2 -->
<g id="node2" class="node">
<title>Node2</title>
<g id="a_node2"><a xlink:title=" ">
<polygon fill="white" stroke="#bfbfbf" points="642,-0.5 642,-19.5 700,-19.5 700,-0.5 642,-0.5"/>
<text text-anchor="middle" x="671" y="-7.5" font-family="Helvetica,sans-Serif" font-size="10.00">memory</text>
</a>
</g>
</g>
<!-- Node1&#45;&gt;Node2 -->
<g id="edge1" class="edge">
<title>Node1&#45;&gt;Node2</title>
<path fill="none" stroke="midnightblue" d="M288.29,-408.2C227.02,-402.65 141.69,-389.07 74,-356 34.67,-336.78 0,-334.77 0,-291 0,-291 0,-291 0,-121 0,-56.58 487.87,-22.04 631.6,-13.26"/>
<polygon fill="midnightblue" stroke="midnightblue" points="631.97,-16.75 641.74,-12.65 631.54,-9.76 631.97,-16.75"/>
</g>
<!-- Node3 -->
<g id="node3" class="node">
<title>Node3</title>
<g id="a_node3"><a xlink:title=" ">
<polygon fill="white" stroke="#bfbfbf" points="470,-112.5 470,-131.5 514,-131.5 514,-112.5 470,-112.5"/>
<text text-anchor="middle" x="492" y="-119.5" font-family="Helvetica,sans-Serif" font-size="10.00">string</text>
</a>
</g>
</g>
<!-- Node1&#45;&gt;Node3 -->
<g id="edge2" class="edge">
<title>Node1&#45;&gt;Node3</title>
<path fill="none" stroke="midnightblue" d="M288.28,-395.85C234.02,-379.67 172,-348.59 172,-291 172,-291 172,-291 172,-233 172,-202.77 169.09,-187.72 192,-168 197.08,-163.63 383.53,-137.79 459.89,-127.36"/>
<polygon fill="midnightblue" stroke="midnightblue" points="460.47,-130.81 469.9,-126 459.52,-123.88 460.47,-130.81"/>
</g>
<!-- Node4 -->
<g id="node4" class="node">
<title>Node4</title>
<g id="a_node4"><a xlink:href="$a00155.html" xlink:title=" ">
<polygon fill="white" stroke="black" points="396.5,-280.5 396.5,-299.5 461.5,-299.5 461.5,-280.5 396.5,-280.5"/>
<text text-anchor="middle" x="429" y="-287.5" font-family="Helvetica,sans-Serif" font-size="10.00">IFilter.hpp</text>
</a>
</g>
</g>
<!-- Node1&#45;&gt;Node4 -->
<g id="edge3" class="edge">
<title>Node1&#45;&gt;Node4</title>
<path fill="none" stroke="midnightblue" d="M377.94,-392.29C389.65,-369.06 408.93,-330.82 420.15,-308.56"/>
<polygon fill="midnightblue" stroke="midnightblue" points="423.3,-310.08 424.68,-299.57 417.05,-306.93 423.3,-310.08"/>
</g>
<!-- Node15 -->
<g id="node15" class="node">
<title>Node15</title>
<g id="a_node15"><a xlink:href="$a00236.html" xlink:title=" ">
<polygon fill="white" stroke="black" points="45.5,-112.5 45.5,-131.5 116.5,-131.5 116.5,-112.5 45.5,-112.5"/>
<text text-anchor="middle" x="81" y="-119.5" font-family="Helvetica,sans-Serif" font-size="10.00">IConfig.hpp</text>
</a>
</g>
</g>
<!-- Node1&#45;&gt;Node15 -->
<g id="edge37" class="edge">
<title>Node1&#45;&gt;Node15</title>
<path fill="none" stroke="midnightblue" d="M288.12,-399.05C190.45,-380.91 38,-344.09 38,-291 38,-291 38,-291 38,-233 38,-198.31 56.78,-161.42 69.52,-140.4"/>
<polygon fill="midnightblue" stroke="midnightblue" points="72.65,-142 75.02,-131.67 66.73,-138.27 72.65,-142"/>
</g>
<!-- Node16 -->
<g id="node16" class="node">
<title>Node16</title>
<g id="a_node16"><a xlink:href="$a00158.html" xlink:title=" ">
<polygon fill="white" stroke="black" points="455.5,-168.5 455.5,-187.5 528.5,-187.5 528.5,-168.5 455.5,-168.5"/>
<text text-anchor="middle" x="492" y="-175.5" font-family="Helvetica,sans-Serif" font-size="10.00">ILogger.hpp</text>
</a>
</g>
</g>
<!-- Node1&#45;&gt;Node16 -->
<g id="edge21" class="edge">
<title>Node1&#45;&gt;Node16</title>
<path fill="none" stroke="midnightblue" d="M367.18,-392.47C366.85,-365.62 369.23,-316.48 388,-280 407.28,-242.53 445.83,-210.87 470.19,-193.45"/>
<polygon fill="midnightblue" stroke="midnightblue" points="472.26,-196.27 478.47,-187.69 468.26,-190.53 472.26,-196.27"/>
</g>
<!-- Node18 -->
<g id="node18" class="node">
<title>Node18</title>
<g id="a_node18"><a xlink:href="$a00221.html" xlink:title=" ">
<polygon fill="white" stroke="black" points="583.5,-224.5 583.5,-243.5 688.5,-243.5 688.5,-224.5 583.5,-224.5"/>
<text text-anchor="middle" x="636" y="-231.5" font-family="Helvetica,sans-Serif" font-size="10.00">PluginHandler.hpp</text>
</a>
</g>
</g>
<!-- Node1&#45;&gt;Node18 -->
<g id="edge24" class="edge">
<title>Node1&#45;&gt;Node18</title>
<path fill="none" stroke="midnightblue" d="M447.55,-399.9C482.08,-391.74 521.5,-378.22 552,-356 589.4,-328.75 615.9,-279.55 628.22,-253.06"/>
<polygon fill="midnightblue" stroke="midnightblue" points="631.47,-254.37 632.37,-243.82 625.08,-251.51 631.47,-254.37"/>
</g>
<!-- Node20 -->
<g id="node20" class="node">
<title>Node20</title>
<g id="a_node20"><a xlink:href="$a00209.html" xlink:title=" ">
<polygon fill="white" stroke="black" points="441.5,-336.5 441.5,-355.5 542.5,-355.5 542.5,-336.5 441.5,-336.5"/>
<text text-anchor="middle" x="492" y="-343.5" font-family="Helvetica,sans-Serif" font-size="10.00">IFilterCreator.hpp</text>
</a>
</g>
</g>
<!-- Node1&#45;&gt;Node20 -->
<g id="edge32" class="edge">
<title>Node1&#45;&gt;Node20</title>
<path fill="none" stroke="midnightblue" d="M405.2,-392.5C424.95,-382.15 448.71,-369.69 466.37,-360.43"/>
<polygon fill="midnightblue" stroke="midnightblue" points="468.26,-363.4 475.49,-355.65 465.01,-357.2 468.26,-363.4"/>
</g>
<!-- Node5 -->
<g id="node5" class="node">
<title>Node5</title>
<g id="a_node5"><a xlink:href="$a00164.html" xlink:title=" ">
<polygon fill="white" stroke="black" points="271,-224.5 271,-243.5 339,-243.5 339,-224.5 271,-224.5"/>
<text text-anchor="middle" x="305" y="-231.5" font-family="Helvetica,sans-Serif" font-size="10.00">Image.hpp</text>
</a>
</g>
</g>
<!-- Node4&#45;&gt;Node5 -->
<g id="edge4" class="edge">
<title>Node4&#45;&gt;Node5</title>
<path fill="none" stroke="midnightblue" d="M409.35,-280.44C389.04,-271.6 357.1,-257.69 333.9,-247.59"/>
<polygon fill="midnightblue" stroke="midnightblue" points="335.12,-244.3 324.56,-243.52 332.33,-250.72 335.12,-244.3"/>
</g>
<!-- Node5&#45;&gt;Node3 -->
<g id="edge6" class="edge">
<title>Node5&#45;&gt;Node3</title>
<path fill="none" stroke="midnightblue" d="M313.31,-224.43C326.74,-210.96 354.47,-184.68 382,-168 406.9,-152.91 437.78,-140.78 460.47,-132.94"/>
<polygon fill="midnightblue" stroke="midnightblue" points="461.6,-136.25 469.96,-129.74 459.37,-129.62 461.6,-136.25"/>
</g>
<!-- Node6 -->
<g id="node6" class="node">
<title>Node6</title>
<g id="a_node6"><a xlink:title=" ">
<polygon fill="white" stroke="#bfbfbf" points="200.5,-168.5 200.5,-187.5 253.5,-187.5 253.5,-168.5 200.5,-168.5"/>
<text text-anchor="middle" x="227" y="-175.5" font-family="Helvetica,sans-Serif" font-size="10.00">cstddef</text>
</a>
</g>
</g>
<!-- Node5&#45;&gt;Node6 -->
<g id="edge5" class="edge">
<title>Node5&#45;&gt;Node6</title>
<path fill="none" stroke="midnightblue" d="M292.47,-224.32C280.41,-215.98 261.97,-203.21 247.73,-193.35"/>
<polygon fill="midnightblue" stroke="midnightblue" points="249.72,-190.47 239.5,-187.65 245.73,-196.22 249.72,-190.47"/>
</g>
<!-- Node7 -->
<g id="node7" class="node">
<title>Node7</title>
<g id="a_node7"><a xlink:title=" ">
<polygon fill="white" stroke="#bfbfbf" points="390.5,-168.5 390.5,-187.5 437.5,-187.5 437.5,-168.5 390.5,-168.5"/>
<text text-anchor="middle" x="414" y="-175.5" font-family="Helvetica,sans-Serif" font-size="10.00">vector</text>
</a>
</g>
</g>
<!-- Node5&#45;&gt;Node7 -->
<g id="edge7" class="edge">
<title>Node5&#45;&gt;Node7</title>
<path fill="none" stroke="midnightblue" d="M322.51,-224.32C340.07,-215.62 367.33,-202.12 387.53,-192.11"/>
<polygon fill="midnightblue" stroke="midnightblue" points="389.12,-195.23 396.53,-187.65 386.02,-188.96 389.12,-195.23"/>
</g>
<!-- Node8 -->
<g id="node8" class="node">
<title>Node8</title>
<g id="a_node8"><a xlink:href="$a00161.html" xlink:title=" ">
<polygon fill="white" stroke="black" points="272,-168.5 272,-187.5 334,-187.5 334,-168.5 272,-168.5"/>
<text text-anchor="middle" x="303" y="-175.5" font-family="Helvetica,sans-Serif" font-size="10.00">Color.hpp</text>
</a>
</g>
</g>
<!-- Node5&#45;&gt;Node8 -->
<g id="edge8" class="edge">
<title>Node5&#45;&gt;Node8</title>
<path fill="none" stroke="midnightblue" d="M304.67,-224.08C304.41,-217.01 304.03,-206.86 303.7,-197.99"/>
<polygon fill="midnightblue" stroke="midnightblue" points="307.19,-197.61 303.32,-187.75 300.2,-197.87 307.19,-197.61"/>
</g>
<!-- Node14 -->
<g id="node14" class="node">
<title>Node14</title>
<g id="a_node14"><a xlink:href="$a00128.html" xlink:title=" ">
<polygon fill="white" stroke="black" points="66.5,-168.5 66.5,-187.5 143.5,-187.5 143.5,-168.5 66.5,-168.5"/>
<text text-anchor="middle" x="105" y="-175.5" font-family="Helvetica,sans-Serif" font-size="10.00">Vector2i.hpp</text>
</a>
</g>
</g>
<!-- Node5&#45;&gt;Node14 -->
<g id="edge16" class="edge">
<title>Node5&#45;&gt;Node14</title>
<path fill="none" stroke="midnightblue" d="M273.31,-224.44C238.93,-215.16 183.92,-200.31 146.21,-190.13"/>
<polygon fill="midnightblue" stroke="midnightblue" points="147.11,-186.74 136.54,-187.52 145.28,-193.5 147.11,-186.74"/>
</g>
<!-- Node8&#45;&gt;Node3 -->
<g id="edge12" class="edge">
<title>Node8&#45;&gt;Node3</title>
<path fill="none" stroke="midnightblue" d="M332.95,-168.44C367.62,-158.54 424.5,-142.28 460.02,-132.14"/>
<polygon fill="midnightblue" stroke="midnightblue" points="461.22,-135.44 469.87,-129.32 459.29,-128.7 461.22,-135.44"/>
</g>
<!-- Node9 -->
<g id="node9" class="node">
<title>Node9</title>
<g id="a_node9"><a xlink:title=" ">
<polygon fill="white" stroke="#bfbfbf" points="210,-112.5 210,-131.5 258,-131.5 258,-112.5 210,-112.5"/>
<text text-anchor="middle" x="234" y="-119.5" font-family="Helvetica,sans-Serif" font-size="10.00">mutex</text>
</a>
</g>
</g>
<!-- Node8&#45;&gt;Node9 -->
<g id="edge9" class="edge">
<title>Node8&#45;&gt;Node9</title>
<path fill="none" stroke="midnightblue" d="M291.91,-168.32C281.51,-160.18 265.74,-147.84 253.28,-138.09"/>
<polygon fill="midnightblue" stroke="midnightblue" points="255.32,-135.24 245.29,-131.83 251.01,-140.75 255.32,-135.24"/>
</g>
<!-- Node10 -->
<g id="node10" class="node">
<title>Node10</title>
<g id="a_node10"><a xlink:title=" ">
<polygon fill="white" stroke="#bfbfbf" points="134.5,-112.5 134.5,-131.5 191.5,-131.5 191.5,-112.5 134.5,-112.5"/>
<text text-anchor="middle" x="163" y="-119.5" font-family="Helvetica,sans-Serif" font-size="10.00">ostream</text>
</a>
</g>
</g>
<!-- Node8&#45;&gt;Node10 -->
<g id="edge10" class="edge">
<title>Node8&#45;&gt;Node10</title>
<path fill="none" stroke="midnightblue" d="M280.82,-168.44C257.57,-159.48 220.85,-145.31 194.58,-135.18"/>
<polygon fill="midnightblue" stroke="midnightblue" points="195.67,-131.85 185.08,-131.52 193.15,-138.38 195.67,-131.85"/>
</g>
<!-- Node11 -->
<g id="node11" class="node">
<title>Node11</title>
<g id="a_node11"><a xlink:title=" ">
<polygon fill="white" stroke="#bfbfbf" points="276.5,-112.5 276.5,-131.5 413.5,-131.5 413.5,-112.5 276.5,-112.5"/>
<text text-anchor="middle" x="345" y="-119.5" font-family="Helvetica,sans-Serif" font-size="10.00">SFML/Graphics/Color.hpp</text>
</a>
</g>
</g>
<!-- Node8&#45;&gt;Node11 -->
<g id="edge11" class="edge">
<title>Node8&#45;&gt;Node11</title>
<path fill="none" stroke="midnightblue" d="M309.94,-168.08C315.93,-160.38 324.75,-149.03 332.05,-139.65"/>
<polygon fill="midnightblue" stroke="midnightblue" points="334.82,-141.79 338.19,-131.75 329.29,-137.5 334.82,-141.79"/>
</g>
<!-- Node12 -->
<g id="node12" class="node">
<title>Node12</title>
<g id="a_node12"><a xlink:href="$a00245.html" xlink:title=" ">
<polygon fill="white" stroke="black" points="711.5,-56.5 711.5,-75.5 786.5,-75.5 786.5,-56.5 711.5,-56.5"/>
<text text-anchor="middle" x="749" y="-63.5" font-family="Helvetica,sans-Serif" font-size="10.00">ISetting.hpp</text>
</a>
</g>
</g>
<!-- Node8&#45;&gt;Node12 -->
<g id="edge13" class="edge">
<title>Node8&#45;&gt;Node12</title>
<path fill="none" stroke="midnightblue" d="M328.66,-168.43C353.21,-159.98 391.13,-146.3 423,-132 440.41,-124.19 442.88,-118 461,-112 542.8,-84.91 643.2,-73.95 701.27,-69.65"/>
<polygon fill="midnightblue" stroke="midnightblue" points="701.52,-73.14 711.25,-68.94 701.03,-66.16 701.52,-73.14"/>
</g>
<!-- Node12&#45;&gt;Node2 -->
<g id="edge14" class="edge">
<title>Node12&#45;&gt;Node2</title>
<path fill="none" stroke="midnightblue" d="M736.47,-56.32C724.41,-47.98 705.97,-35.21 691.73,-25.35"/>
<polygon fill="midnightblue" stroke="midnightblue" points="693.72,-22.47 683.5,-19.65 689.73,-28.22 693.72,-22.47"/>
</g>
<!-- Node13 -->
<g id="node13" class="node">
<title>Node13</title>
<g id="a_node13"><a xlink:title=" ">
<polygon fill="white" stroke="#bfbfbf" points="718.5,-0.5 718.5,-19.5 801.5,-19.5 801.5,-0.5 718.5,-0.5"/>
<text text-anchor="middle" x="760" y="-7.5" font-family="Helvetica,sans-Serif" font-size="10.00">libconfig.h++</text>
</a>
</g>
</g>
<!-- Node12&#45;&gt;Node13 -->
<g id="edge15" class="edge">
<title>Node12&#45;&gt;Node13</title>
<path fill="none" stroke="midnightblue" d="M750.82,-56.08C752.27,-48.93 754.37,-38.64 756.19,-29.69"/>
<polygon fill="midnightblue" stroke="midnightblue" points="759.65,-30.25 758.22,-19.75 752.79,-28.85 759.65,-30.25"/>
</g>
<!-- Node14&#45;&gt;Node10 -->
<g id="edge17" class="edge">
<title>Node14&#45;&gt;Node10</title>
<path fill="none" stroke="midnightblue" d="M114.32,-168.32C122.89,-160.34 135.81,-148.31 146.19,-138.65"/>
<polygon fill="midnightblue" stroke="midnightblue" points="148.58,-141.21 153.51,-131.83 143.81,-136.09 148.58,-141.21"/>
</g>
<!-- Node14&#45;&gt;Node15 -->
<g id="edge18" class="edge">
<title>Node14&#45;&gt;Node15</title>
<path fill="none" stroke="midnightblue" d="M101.04,-168.08C97.79,-160.77 93.08,-150.18 89.05,-141.1"/>
<polygon fill="midnightblue" stroke="midnightblue" points="92.15,-139.47 84.89,-131.75 85.75,-142.31 92.15,-139.47"/>
</g>
<!-- Node15&#45;&gt;Node2 -->
<g id="edge19" class="edge">
<title>Node15&#45;&gt;Node2</title>
<path fill="none" stroke="midnightblue" d="M116.85,-113.78C119.95,-113.17 123.03,-112.57 126,-112 315.28,-75.53 542.04,-34.29 631.73,-18.08"/>
<polygon fill="midnightblue" stroke="midnightblue" points="632.51,-21.5 641.73,-16.27 631.27,-14.61 632.51,-21.5"/>
</g>
<!-- Node15&#45;&gt;Node12 -->
<g id="edge20" class="edge">
<title>Node15&#45;&gt;Node12</title>
<path fill="none" stroke="midnightblue" d="M116.79,-113.42C119.9,-112.89 123,-112.41 126,-112 339.24,-83.09 596.22,-71.96 701.01,-68.42"/>
<polygon fill="midnightblue" stroke="midnightblue" points="701.38,-71.91 711.26,-68.08 701.15,-64.91 701.38,-71.91"/>
</g>
<!-- Node16&#45;&gt;Node3 -->
<g id="edge23" class="edge">
<title>Node16&#45;&gt;Node3</title>
<path fill="none" stroke="midnightblue" d="M492,-168.08C492,-161.01 492,-150.86 492,-141.99"/>
<polygon fill="midnightblue" stroke="midnightblue" points="495.5,-141.75 492,-131.75 488.5,-141.75 495.5,-141.75"/>
</g>
<!-- Node17 -->
<g id="node17" class="node">
<title>Node17</title>
<g id="a_node17"><a xlink:title=" ">
<polygon fill="white" stroke="#bfbfbf" points="565.5,-112.5 565.5,-131.5 630.5,-131.5 630.5,-112.5 565.5,-112.5"/>
<text text-anchor="middle" x="598" y="-119.5" font-family="Helvetica,sans-Serif" font-size="10.00">functional</text>
</a>
</g>
</g>
<!-- Node16&#45;&gt;Node17 -->
<g id="edge22" class="edge">
<title>Node16&#45;&gt;Node17</title>
<path fill="none" stroke="midnightblue" d="M509.03,-168.32C526.03,-159.66 552.38,-146.24 571.99,-136.25"/>
<polygon fill="midnightblue" stroke="midnightblue" points="573.69,-139.31 581.01,-131.65 570.51,-133.08 573.69,-139.31"/>
</g>
<!-- Node18&#45;&gt;Node2 -->
<g id="edge26" class="edge">
<title>Node18&#45;&gt;Node2</title>
<path fill="none" stroke="midnightblue" d="M641.7,-224.47C647.21,-215.72 655.25,-201.53 659,-188 674.44,-132.22 673.68,-62.95 672.18,-30.06"/>
<polygon fill="midnightblue" stroke="midnightblue" points="675.66,-29.48 671.63,-19.68 668.67,-29.85 675.66,-29.48"/>
</g>
<!-- Node18&#45;&gt;Node3 -->
<g id="edge25" class="edge">
<title>Node18&#45;&gt;Node3</title>
<path fill="none" stroke="midnightblue" d="M624.46,-224.42C612.35,-215.41 592.78,-200.78 576,-188 553.64,-170.97 528.13,-151.17 511.14,-137.94"/>
<polygon fill="midnightblue" stroke="midnightblue" points="513.14,-135.06 503.1,-131.68 508.84,-140.58 513.14,-135.06"/>
</g>
<!-- Node18&#45;&gt;Node7 -->
<g id="edge28" class="edge">
<title>Node18&#45;&gt;Node7</title>
<path fill="none" stroke="midnightblue" d="M598.62,-224.48C562.44,-216.14 505.82,-202.89 447.52,-188.07"/>
<polygon fill="midnightblue" stroke="midnightblue" points="448.32,-184.66 437.77,-185.58 446.59,-191.45 448.32,-184.66"/>
</g>
<!-- Node18&#45;&gt;Node12 -->
<g id="edge31" class="edge">
<title>Node18&#45;&gt;Node12</title>
<path fill="none" stroke="midnightblue" d="M661.58,-224.38C679.04,-217.24 701.39,-205.41 715,-188 738.77,-157.59 745.93,-111.43 748.08,-85.8"/>
<polygon fill="midnightblue" stroke="midnightblue" points="751.58,-85.82 748.75,-75.61 744.6,-85.35 751.58,-85.82"/>
</g>
<!-- Node18&#45;&gt;Node16 -->
<g id="edge30" class="edge">
<title>Node18&#45;&gt;Node16</title>
<path fill="none" stroke="midnightblue" d="M613.18,-224.44C589.17,-215.44 551.17,-201.19 524.13,-191.05"/>
<polygon fill="midnightblue" stroke="midnightblue" points="525.3,-187.75 514.71,-187.52 522.84,-194.3 525.3,-187.75"/>
</g>
<!-- Node18&#45;&gt;Node17 -->
<g id="edge29" class="edge">
<title>Node18&#45;&gt;Node17</title>
<path fill="none" stroke="midnightblue" d="M639.79,-224.2C644.76,-211.34 651.94,-186.86 644,-168 638.97,-156.05 629.06,-145.69 619.71,-137.93"/>
<polygon fill="midnightblue" stroke="midnightblue" points="621.84,-135.15 611.79,-131.81 617.56,-140.69 621.84,-135.15"/>
</g>
<!-- Node19 -->
<g id="node19" class="node">
<title>Node19</title>
<g id="a_node19"><a xlink:title=" ">
<polygon fill="white" stroke="#bfbfbf" points="585,-168.5 585,-187.5 635,-187.5 635,-168.5 585,-168.5"/>
<text text-anchor="middle" x="610" y="-175.5" font-family="Helvetica,sans-Serif" font-size="10.00">dlfcn.h</text>
</a>
</g>
</g>
<!-- Node18&#45;&gt;Node19 -->
<g id="edge27" class="edge">
<title>Node18&#45;&gt;Node19</title>
<path fill="none" stroke="midnightblue" d="M631.71,-224.08C628.15,-216.69 622.98,-205.95 618.58,-196.81"/>
<polygon fill="midnightblue" stroke="midnightblue" points="621.71,-195.24 614.21,-187.75 615.4,-198.28 621.71,-195.24"/>
</g>
<!-- Node20&#45;&gt;Node2 -->
<g id="edge33" class="edge">
<title>Node20&#45;&gt;Node2</title>
<path fill="none" stroke="midnightblue" d="M542.95,-341.53C591.45,-336.78 665.63,-325.67 725,-300 770.29,-280.42 815,-284.34 815,-235 815,-235 815,-235 815,-121 815,-90.9 816.62,-77.92 796,-56 783.99,-43.23 742.15,-29.75 710.15,-20.92"/>
<polygon fill="midnightblue" stroke="midnightblue" points="710.73,-17.45 700.16,-18.22 708.9,-24.2 710.73,-17.45"/>
</g>
<!-- Node20&#45;&gt;Node4 -->
<g id="edge34" class="edge">
<title>Node20&#45;&gt;Node4</title>
<path fill="none" stroke="midnightblue" d="M481.88,-336.32C472.47,-328.26 458.26,-316.08 446.93,-306.37"/>
<polygon fill="midnightblue" stroke="midnightblue" points="449.18,-303.68 439.31,-299.83 444.62,-309 449.18,-303.68"/>
</g>
<!-- Node20&#45;&gt;Node12 -->
<g id="edge36" class="edge">
<title>Node20&#45;&gt;Node12</title>
<path fill="none" stroke="midnightblue" d="M541.32,-336.45C622.89,-320.9 777,-284.92 777,-235 777,-235 777,-235 777,-177 777,-143.79 764.87,-106.63 756.57,-85.12"/>
<polygon fill="midnightblue" stroke="midnightblue" points="759.75,-83.63 752.78,-75.65 753.25,-86.23 759.75,-83.63"/>
</g>
<!-- Node20&#45;&gt;Node16 -->
<g id="edge35" class="edge">
<title>Node20&#45;&gt;Node16</title>
<path fill="none" stroke="midnightblue" d="M492,-336.08C492,-309.95 492,-233.21 492,-197.58"/>
<polygon fill="midnightblue" stroke="midnightblue" points="495.5,-197.57 492,-187.57 488.5,-197.57 495.5,-197.57"/>
</g>
</g>
</svg>
