<?xml version="1.0" encoding="UTF-8" standalone="no"?>
<!DOCTYPE svg PUBLIC "-//W3C//DTD SVG 1.1//EN"
 "http://www.w3.org/Graphics/SVG/1.1/DTD/svg11.dtd">
<!-- Generated by graphviz version 2.43.0 (0)
 -->
<!-- Title: /home/runner/work/Raytracer/Raytracer/PluginsExt/ChessBoardMaterial/ChessBoardCreator.hpp Pages: 1 -->
<svg width="854pt" height="386pt"
 viewBox="0.00 0.00 854.10 386.00" xmlns="http://www.w3.org/2000/svg" xmlns:xlink="http://www.w3.org/1999/xlink">
<g id="graph0" class="graph" transform="scale(1 1) rotate(0) translate(4 382)">
<title>/home/runner/work/Raytracer/Raytracer/PluginsExt/ChessBoardMaterial/ChessBoardCreator.hpp</title>
<polygon fill="white" stroke="transparent" points="-4,4 -4,-382 850.1,-382 850.1,4 -4,4"/>
<!-- Node1 -->
<g id="node1" class="node">
<title>Node1</title>
<g id="a_node1"><a xlink:title=" ">
<polygon fill="#bfbfbf" stroke="black" points="87.2,-336.5 87.2,-377.5 269.2,-377.5 269.2,-336.5 87.2,-336.5"/>
<text text-anchor="start" x="95.2" y="-365.5" font-family="Helvetica,sans-Serif" font-size="10.00">/home/runner/work/Raytracer</text>
<text text-anchor="start" x="95.2" y="-354.5" font-family="Helvetica,sans-Serif" font-size="10.00">/Raytracer/PluginsExt/ChessBoard</text>
<text text-anchor="middle" x="178.2" y="-343.5" font-family="Helvetica,sans-Serif" font-size="10.00">Material/ChessBoardCreator.hpp</text>
</a>
</g>
</g>
<!-- Node2 -->
<g id="node2" class="node">
<title>Node2</title>
<g id="a_node2"><a xlink:title=" ">
<polygon fill="white" stroke="#bfbfbf" points="206.7,-112.5 206.7,-131.5 253.7,-131.5 253.7,-112.5 206.7,-112.5"/>
<text text-anchor="middle" x="230.2" y="-119.5" font-family="Helvetica,sans-Serif" font-size="10.00">vector</text>
</a>
</g>
</g>
<!-- Node1&#45;&gt;Node2 -->
<g id="edge1" class="edge">
<title>Node1&#45;&gt;Node2</title>
<path fill="none" stroke="midnightblue" d="M138.04,-336.39C74.2,-302.65 -38.2,-231.15 13.2,-168 35.91,-140.09 141.26,-128.94 196.38,-124.96"/>
<polygon fill="midnightblue" stroke="midnightblue" points="196.95,-128.43 206.69,-124.26 196.48,-121.45 196.95,-128.43"/>
</g>
<!-- Node3 -->
<g id="node3" class="node">
<title>Node3</title>
<g id="a_node3"><a xlink:title=" ">
<polygon fill="white" stroke="#bfbfbf" points="272.2,-0.5 272.2,-19.5 330.2,-19.5 330.2,-0.5 272.2,-0.5"/>
<text text-anchor="middle" x="301.2" y="-7.5" font-family="Helvetica,sans-Serif" font-size="10.00">memory</text>
</a>
</g>
</g>
<!-- Node1&#45;&gt;Node3 -->
<g id="edge2" class="edge">
<title>Node1&#45;&gt;Node3</title>
<path fill="none" stroke="midnightblue" d="M178.2,-336.3C178.2,-312.35 178.2,-270.71 178.2,-235 178.2,-235 178.2,-235 178.2,-121 178.2,-72.48 232.03,-40.01 268.47,-23.6"/>
<polygon fill="midnightblue" stroke="midnightblue" points="269.98,-26.76 277.77,-19.58 267.2,-20.33 269.98,-26.76"/>
</g>
<!-- Node4 -->
<g id="node4" class="node">
<title>Node4</title>
<g id="a_node4"><a xlink:href="$a00185.html" xlink:title=" ">
<polygon fill="white" stroke="black" points="206.2,-280.5 206.2,-299.5 322.2,-299.5 322.2,-280.5 206.2,-280.5"/>
<text text-anchor="middle" x="264.2" y="-287.5" font-family="Helvetica,sans-Serif" font-size="10.00">IMaterialCreator.hpp</text>
</a>
</g>
</g>
<!-- Node1&#45;&gt;Node4 -->
<g id="edge3" class="edge">
<title>Node1&#45;&gt;Node4</title>
<path fill="none" stroke="midnightblue" d="M204,-336.5C217.06,-326.63 232.65,-314.84 244.69,-305.74"/>
<polygon fill="midnightblue" stroke="midnightblue" points="246.88,-308.47 252.75,-299.65 242.66,-302.89 246.88,-308.47"/>
</g>
<!-- Node16 -->
<g id="node16" class="node">
<title>Node16</title>
<g id="a_node16"><a xlink:href="$a00131.html" xlink:title=" ">
<polygon fill="white" stroke="black" points="76.7,-224.5 76.7,-243.5 149.7,-243.5 149.7,-224.5 76.7,-224.5"/>
<text text-anchor="middle" x="113.2" y="-231.5" font-family="Helvetica,sans-Serif" font-size="10.00">ILogger.hpp</text>
</a>
</g>
</g>
<!-- Node1&#45;&gt;Node16 -->
<g id="edge27" class="edge">
<title>Node1&#45;&gt;Node16</title>
<path fill="none" stroke="midnightblue" d="M167.61,-336.29C155.13,-313.06 134.58,-274.82 122.63,-252.56"/>
<polygon fill="midnightblue" stroke="midnightblue" points="125.62,-250.73 117.8,-243.57 119.45,-254.04 125.62,-250.73"/>
</g>
<!-- Node19 -->
<g id="node19" class="node">
<title>Node19</title>
<g id="a_node19"><a xlink:href="$a00278.html" xlink:title=" ">
<polygon fill="white" stroke="black" points="512.2,-280.5 512.2,-299.5 648.2,-299.5 648.2,-280.5 512.2,-280.5"/>
<text text-anchor="middle" x="580.2" y="-287.5" font-family="Helvetica,sans-Serif" font-size="10.00">ChessBoardMaterial.hpp</text>
</a>
</g>
</g>
<!-- Node1&#45;&gt;Node19 -->
<g id="edge28" class="edge">
<title>Node1&#45;&gt;Node19</title>
<path fill="none" stroke="midnightblue" d="M269.42,-341.25C345.21,-328.99 451.06,-311.88 517.59,-301.12"/>
<polygon fill="midnightblue" stroke="midnightblue" points="518.2,-304.57 527.51,-299.52 517.08,-297.66 518.2,-304.57"/>
</g>
<!-- Node4&#45;&gt;Node3 -->
<g id="edge4" class="edge">
<title>Node4&#45;&gt;Node3</title>
<path fill="none" stroke="midnightblue" d="M263.97,-280.35C263.52,-262.9 262.53,-222.2 262.2,-188 262.11,-179.11 261.12,-176.82 262.2,-168 268.46,-116.83 285.79,-58.33 295.1,-29.31"/>
<polygon fill="midnightblue" stroke="midnightblue" points="298.45,-30.3 298.23,-19.71 291.8,-28.13 298.45,-30.3"/>
</g>
<!-- Node5 -->
<g id="node5" class="node">
<title>Node5</title>
<g id="a_node5"><a xlink:href="$a00089.html" xlink:title=" ">
<polygon fill="white" stroke="black" points="470.7,-224.5 470.7,-243.5 551.7,-243.5 551.7,-224.5 470.7,-224.5"/>
<text text-anchor="middle" x="511.2" y="-231.5" font-family="Helvetica,sans-Serif" font-size="10.00">IMaterial.hpp</text>
</a>
</g>
</g>
<!-- Node4&#45;&gt;Node5 -->
<g id="edge5" class="edge">
<title>Node4&#45;&gt;Node5</title>
<path fill="none" stroke="midnightblue" d="M303.33,-280.44C346.42,-271.02 415.75,-255.87 462.37,-245.68"/>
<polygon fill="midnightblue" stroke="midnightblue" points="463.22,-249.07 472.24,-243.52 461.72,-242.23 463.22,-249.07"/>
</g>
<!-- Node9 -->
<g id="node9" class="node">
<title>Node9</title>
<g id="a_node9"><a xlink:href="$a00218.html" xlink:title=" ">
<polygon fill="white" stroke="black" points="397.7,-56.5 397.7,-75.5 472.7,-75.5 472.7,-56.5 397.7,-56.5"/>
<text text-anchor="middle" x="435.2" y="-63.5" font-family="Helvetica,sans-Serif" font-size="10.00">ISetting.hpp</text>
</a>
</g>
</g>
<!-- Node4&#45;&gt;Node9 -->
<g id="edge26" class="edge">
<title>Node4&#45;&gt;Node9</title>
<path fill="none" stroke="midnightblue" d="M277.01,-280.34C299.87,-264.37 348.07,-228.21 378.2,-188 402.82,-155.14 420.62,-109.94 429.28,-85.13"/>
<polygon fill="midnightblue" stroke="midnightblue" points="432.63,-86.15 432.51,-75.56 425.99,-83.91 432.63,-86.15"/>
</g>
<!-- Node4&#45;&gt;Node16 -->
<g id="edge23" class="edge">
<title>Node4&#45;&gt;Node16</title>
<path fill="none" stroke="midnightblue" d="M240.27,-280.44C214.98,-271.4 174.89,-257.06 146.52,-246.92"/>
<polygon fill="midnightblue" stroke="midnightblue" points="147.6,-243.59 137.01,-243.52 145.25,-250.18 147.6,-243.59"/>
</g>
<!-- Node6 -->
<g id="node6" class="node">
<title>Node6</title>
<g id="a_node6"><a xlink:href="$a00149.html" xlink:title=" ">
<polygon fill="white" stroke="black" points="608.7,-168.5 608.7,-187.5 663.7,-187.5 663.7,-168.5 608.7,-168.5"/>
<text text-anchor="middle" x="636.2" y="-175.5" font-family="Helvetica,sans-Serif" font-size="10.00">Ray.hpp</text>
</a>
</g>
</g>
<!-- Node5&#45;&gt;Node6 -->
<g id="edge6" class="edge">
<title>Node5&#45;&gt;Node6</title>
<path fill="none" stroke="midnightblue" d="M531,-224.44C551.48,-215.6 583.68,-201.69 607.06,-191.59"/>
<polygon fill="midnightblue" stroke="midnightblue" points="608.69,-194.7 616.48,-187.52 605.91,-188.27 608.69,-194.7"/>
</g>
<!-- Node7 -->
<g id="node7" class="node">
<title>Node7</title>
<g id="a_node7"><a xlink:href="$a00104.html" xlink:title=" ">
<polygon fill="white" stroke="black" points="494.7,-112.5 494.7,-131.5 571.7,-131.5 571.7,-112.5 494.7,-112.5"/>
<text text-anchor="middle" x="533.2" y="-119.5" font-family="Helvetica,sans-Serif" font-size="10.00">Vector3f.hpp</text>
</a>
</g>
</g>
<!-- Node5&#45;&gt;Node7 -->
<g id="edge22" class="edge">
<title>Node5&#45;&gt;Node7</title>
<path fill="none" stroke="midnightblue" d="M505.4,-224.42C497.65,-211.83 485.71,-187.7 493.2,-168 497.53,-156.6 506.23,-146.24 514.41,-138.34"/>
<polygon fill="midnightblue" stroke="midnightblue" points="516.84,-140.86 521.93,-131.57 512.16,-135.66 516.84,-140.86"/>
</g>
<!-- Node11 -->
<g id="node11" class="node">
<title>Node11</title>
<g id="a_node11"><a xlink:href="$a00134.html" xlink:title=" ">
<polygon fill="white" stroke="black" points="720.2,-168.5 720.2,-187.5 782.2,-187.5 782.2,-168.5 720.2,-168.5"/>
<text text-anchor="middle" x="751.2" y="-175.5" font-family="Helvetica,sans-Serif" font-size="10.00">Color.hpp</text>
</a>
</g>
</g>
<!-- Node5&#45;&gt;Node11 -->
<g id="edge12" class="edge">
<title>Node5&#45;&gt;Node11</title>
<path fill="none" stroke="midnightblue" d="M549.22,-224.44C593.09,-214.57 664.96,-198.4 710.09,-188.25"/>
<polygon fill="midnightblue" stroke="midnightblue" points="710.86,-191.66 719.85,-186.05 709.32,-184.83 710.86,-191.66"/>
</g>
<!-- Node14 -->
<g id="node14" class="node">
<title>Node14</title>
<g id="a_node14"><a xlink:href="$a00212.html" xlink:title=" ">
<polygon fill="white" stroke="black" points="271.2,-168.5 271.2,-187.5 369.2,-187.5 369.2,-168.5 271.2,-168.5"/>
<text text-anchor="middle" x="320.2" y="-175.5" font-family="Helvetica,sans-Serif" font-size="10.00">IDisplayable.hpp</text>
</a>
</g>
</g>
<!-- Node5&#45;&gt;Node14 -->
<g id="edge17" class="edge">
<title>Node5&#45;&gt;Node14</title>
<path fill="none" stroke="midnightblue" d="M480.93,-224.44C448.24,-215.2 396.01,-200.44 360.01,-190.26"/>
<polygon fill="midnightblue" stroke="midnightblue" points="360.89,-186.87 350.32,-187.52 358.99,-193.61 360.89,-186.87"/>
</g>
<!-- Node15 -->
<g id="node15" class="node">
<title>Node15</title>
<g id="a_node15"><a xlink:href="$a00095.html" xlink:title=" ">
<polygon fill="white" stroke="black" points="501.7,-168.5 501.7,-187.5 590.7,-187.5 590.7,-168.5 501.7,-168.5"/>
<text text-anchor="middle" x="546.2" y="-175.5" font-family="Helvetica,sans-Serif" font-size="10.00">ITransform.hpp</text>
</a>
</g>
</g>
<!-- Node5&#45;&gt;Node15 -->
<g id="edge20" class="edge">
<title>Node5&#45;&gt;Node15</title>
<path fill="none" stroke="midnightblue" d="M516.98,-224.08C521.87,-216.53 529.02,-205.49 535.03,-196.23"/>
<polygon fill="midnightblue" stroke="midnightblue" points="538.02,-198.05 540.52,-187.75 532.15,-194.24 538.02,-198.05"/>
</g>
<!-- Node6&#45;&gt;Node7 -->
<g id="edge7" class="edge">
<title>Node6&#45;&gt;Node7</title>
<path fill="none" stroke="midnightblue" d="M619.65,-168.32C603.2,-159.7 577.76,-146.36 558.73,-136.39"/>
<polygon fill="midnightblue" stroke="midnightblue" points="560.19,-133.2 549.7,-131.65 556.94,-139.4 560.19,-133.2"/>
</g>
<!-- Node8 -->
<g id="node8" class="node">
<title>Node8</title>
<g id="a_node8"><a xlink:title=" ">
<polygon fill="white" stroke="#bfbfbf" points="667.7,-56.5 667.7,-75.5 724.7,-75.5 724.7,-56.5 667.7,-56.5"/>
<text text-anchor="middle" x="696.2" y="-63.5" font-family="Helvetica,sans-Serif" font-size="10.00">ostream</text>
</a>
</g>
</g>
<!-- Node7&#45;&gt;Node8 -->
<g id="edge8" class="edge">
<title>Node7&#45;&gt;Node8</title>
<path fill="none" stroke="midnightblue" d="M559.02,-112.44C586.45,-103.36 629.97,-88.94 660.63,-78.78"/>
<polygon fill="midnightblue" stroke="midnightblue" points="662.1,-81.98 670.49,-75.52 659.9,-75.34 662.1,-81.98"/>
</g>
<!-- Node7&#45;&gt;Node9 -->
<g id="edge9" class="edge">
<title>Node7&#45;&gt;Node9</title>
<path fill="none" stroke="midnightblue" d="M517.45,-112.32C501.88,-103.74 477.82,-90.49 459.74,-80.52"/>
<polygon fill="midnightblue" stroke="midnightblue" points="461.35,-77.42 450.9,-75.65 457.97,-83.55 461.35,-77.42"/>
</g>
<!-- Node9&#45;&gt;Node3 -->
<g id="edge10" class="edge">
<title>Node9&#45;&gt;Node3</title>
<path fill="none" stroke="midnightblue" d="M413.96,-56.44C391.81,-47.52 356.88,-33.44 331.76,-23.32"/>
<polygon fill="midnightblue" stroke="midnightblue" points="332.91,-20.01 322.33,-19.52 330.3,-26.5 332.91,-20.01"/>
</g>
<!-- Node10 -->
<g id="node10" class="node">
<title>Node10</title>
<g id="a_node10"><a xlink:title=" ">
<polygon fill="white" stroke="#bfbfbf" points="393.7,-0.5 393.7,-19.5 476.7,-19.5 476.7,-0.5 393.7,-0.5"/>
<text text-anchor="middle" x="435.2" y="-7.5" font-family="Helvetica,sans-Serif" font-size="10.00">libconfig.h++</text>
</a>
</g>
</g>
<!-- Node9&#45;&gt;Node10 -->
<g id="edge11" class="edge">
<title>Node9&#45;&gt;Node10</title>
<path fill="none" stroke="midnightblue" d="M435.2,-56.08C435.2,-49.01 435.2,-38.86 435.2,-29.99"/>
<polygon fill="midnightblue" stroke="midnightblue" points="438.7,-29.75 435.2,-19.75 431.7,-29.75 438.7,-29.75"/>
</g>
<!-- Node11&#45;&gt;Node8 -->
<g id="edge14" class="edge">
<title>Node11&#45;&gt;Node8</title>
<path fill="none" stroke="midnightblue" d="M782.3,-168.57C815.37,-158.03 860.46,-138.15 841.2,-112 817.04,-79.21 769.22,-69.61 735.1,-67.15"/>
<polygon fill="midnightblue" stroke="midnightblue" points="735.17,-63.65 724.99,-66.6 734.79,-70.64 735.17,-63.65"/>
</g>
<!-- Node11&#45;&gt;Node9 -->
<g id="edge16" class="edge">
<title>Node11&#45;&gt;Node9</title>
<path fill="none" stroke="midnightblue" d="M721.87,-168.44C694.78,-160.21 653.67,-146.84 619.2,-132 601.67,-124.45 598.84,-119.29 581.2,-112 547.75,-98.19 508.5,-86.32 479.11,-78.24"/>
<polygon fill="midnightblue" stroke="midnightblue" points="479.73,-74.78 469.16,-75.55 477.9,-81.54 479.73,-74.78"/>
</g>
<!-- Node12 -->
<g id="node12" class="node">
<title>Node12</title>
<g id="a_node12"><a xlink:title=" ">
<polygon fill="white" stroke="#bfbfbf" points="628.2,-112.5 628.2,-131.5 676.2,-131.5 676.2,-112.5 628.2,-112.5"/>
<text text-anchor="middle" x="652.2" y="-119.5" font-family="Helvetica,sans-Serif" font-size="10.00">mutex</text>
</a>
</g>
</g>
<!-- Node11&#45;&gt;Node12 -->
<g id="edge13" class="edge">
<title>Node11&#45;&gt;Node12</title>
<path fill="none" stroke="midnightblue" d="M735.29,-168.32C719.56,-159.74 695.25,-146.49 676.99,-136.52"/>
<polygon fill="midnightblue" stroke="midnightblue" points="678.52,-133.37 668.06,-131.65 675.17,-139.52 678.52,-133.37"/>
</g>
<!-- Node13 -->
<g id="node13" class="node">
<title>Node13</title>
<g id="a_node13"><a xlink:title=" ">
<polygon fill="white" stroke="#bfbfbf" points="694.7,-112.5 694.7,-131.5 831.7,-131.5 831.7,-112.5 694.7,-112.5"/>
<text text-anchor="middle" x="763.2" y="-119.5" font-family="Helvetica,sans-Serif" font-size="10.00">SFML/Graphics/Color.hpp</text>
</a>
</g>
</g>
<!-- Node11&#45;&gt;Node13 -->
<g id="edge15" class="edge">
<title>Node11&#45;&gt;Node13</title>
<path fill="none" stroke="midnightblue" d="M753.18,-168.08C754.77,-160.93 757.05,-150.64 759.04,-141.69"/>
<polygon fill="midnightblue" stroke="midnightblue" points="762.5,-142.27 761.25,-131.75 755.67,-140.75 762.5,-142.27"/>
</g>
<!-- Node14&#45;&gt;Node2 -->
<g id="edge19" class="edge">
<title>Node14&#45;&gt;Node2</title>
<path fill="none" stroke="midnightblue" d="M305.74,-168.32C291.7,-159.9 270.15,-146.97 253.65,-137.07"/>
<polygon fill="midnightblue" stroke="midnightblue" points="255,-133.8 244.62,-131.65 251.39,-139.8 255,-133.8"/>
</g>
<!-- Node14&#45;&gt;Node3 -->
<g id="edge18" class="edge">
<title>Node14&#45;&gt;Node3</title>
<path fill="none" stroke="midnightblue" d="M319.17,-168.08C316.18,-141.95 307.4,-65.21 303.32,-29.58"/>
<polygon fill="midnightblue" stroke="midnightblue" points="306.79,-29.11 302.18,-19.57 299.84,-29.9 306.79,-29.11"/>
</g>
<!-- Node15&#45;&gt;Node7 -->
<g id="edge21" class="edge">
<title>Node15&#45;&gt;Node7</title>
<path fill="none" stroke="midnightblue" d="M544.05,-168.08C542.33,-160.93 539.85,-150.64 537.7,-141.69"/>
<polygon fill="midnightblue" stroke="midnightblue" points="541.05,-140.65 535.3,-131.75 534.24,-142.29 541.05,-140.65"/>
</g>
<!-- Node17 -->
<g id="node17" class="node">
<title>Node17</title>
<g id="a_node17"><a xlink:title=" ">
<polygon fill="white" stroke="#bfbfbf" points="84.7,-168.5 84.7,-187.5 149.7,-187.5 149.7,-168.5 84.7,-168.5"/>
<text text-anchor="middle" x="117.2" y="-175.5" font-family="Helvetica,sans-Serif" font-size="10.00">functional</text>
</a>
</g>
</g>
<!-- Node16&#45;&gt;Node17 -->
<g id="edge24" class="edge">
<title>Node16&#45;&gt;Node17</title>
<path fill="none" stroke="midnightblue" d="M113.86,-224.08C114.38,-217.01 115.13,-206.86 115.79,-197.99"/>
<polygon fill="midnightblue" stroke="midnightblue" points="119.3,-197.98 116.55,-187.75 112.32,-197.47 119.3,-197.98"/>
</g>
<!-- Node18 -->
<g id="node18" class="node">
<title>Node18</title>
<g id="a_node18"><a xlink:title=" ">
<polygon fill="white" stroke="#bfbfbf" points="22.2,-168.5 22.2,-187.5 66.2,-187.5 66.2,-168.5 22.2,-168.5"/>
<text text-anchor="middle" x="44.2" y="-175.5" font-family="Helvetica,sans-Serif" font-size="10.00">string</text>
</a>
</g>
</g>
<!-- Node16&#45;&gt;Node18 -->
<g id="edge25" class="edge">
<title>Node16&#45;&gt;Node18</title>
<path fill="none" stroke="midnightblue" d="M102.11,-224.32C91.71,-216.18 75.94,-203.84 63.47,-194.09"/>
<polygon fill="midnightblue" stroke="midnightblue" points="65.52,-191.24 55.48,-187.83 61.2,-196.75 65.52,-191.24"/>
</g>
<!-- Node19&#45;&gt;Node5 -->
<g id="edge34" class="edge">
<title>Node19&#45;&gt;Node5</title>
<path fill="none" stroke="midnightblue" d="M569.11,-280.32C558.71,-272.18 542.94,-259.84 530.47,-250.09"/>
<polygon fill="midnightblue" stroke="midnightblue" points="532.52,-247.24 522.48,-243.83 528.2,-252.75 532.52,-247.24"/>
</g>
<!-- Node19&#45;&gt;Node6 -->
<g id="edge30" class="edge">
<title>Node19&#45;&gt;Node6</title>
<path fill="none" stroke="midnightblue" d="M584.59,-280.37C593.75,-262.38 615.04,-220.55 627.22,-196.63"/>
<polygon fill="midnightblue" stroke="midnightblue" points="630.4,-198.09 631.82,-187.59 624.17,-194.92 630.4,-198.09"/>
</g>
<!-- Node19&#45;&gt;Node7 -->
<g id="edge33" class="edge">
<title>Node19&#45;&gt;Node7</title>
<path fill="none" stroke="midnightblue" d="M595.83,-280.46C629.72,-260.84 704.49,-210.93 673.2,-168 667.28,-159.88 615.69,-144.73 576.85,-134.27"/>
<polygon fill="midnightblue" stroke="midnightblue" points="577.34,-130.78 566.78,-131.58 575.54,-137.54 577.34,-130.78"/>
</g>
<!-- Node19&#45;&gt;Node9 -->
<g id="edge29" class="edge">
<title>Node19&#45;&gt;Node9</title>
<path fill="none" stroke="midnightblue" d="M524.83,-280.44C502.13,-274.11 477.62,-263.11 462.2,-244 424.67,-197.49 428.28,-121 432.4,-85.8"/>
<polygon fill="midnightblue" stroke="midnightblue" points="435.92,-85.92 433.76,-75.55 428.98,-85 435.92,-85.92"/>
</g>
<!-- Node19&#45;&gt;Node11 -->
<g id="edge31" class="edge">
<title>Node19&#45;&gt;Node11</title>
<path fill="none" stroke="midnightblue" d="M624.01,-280.46C649.87,-273.78 682.14,-262.44 706.2,-244 722.48,-231.51 735.09,-211.44 742.77,-196.91"/>
<polygon fill="midnightblue" stroke="midnightblue" points="745.93,-198.4 747.28,-187.89 739.67,-195.27 745.93,-198.4"/>
</g>
<!-- Node19&#45;&gt;Node15 -->
<g id="edge32" class="edge">
<title>Node19&#45;&gt;Node15</title>
<path fill="none" stroke="midnightblue" d="M577.72,-280.14C574.19,-267.6 567.44,-243.97 561.2,-224 558.43,-215.15 555.19,-205.37 552.43,-197.2"/>
<polygon fill="midnightblue" stroke="midnightblue" points="555.7,-195.94 549.17,-187.6 549.07,-198.19 555.7,-195.94"/>
</g>
</g>
</svg>
