<?xml version="1.0" encoding="UTF-8" standalone="no"?>
<!DOCTYPE svg PUBLIC "-//W3C//DTD SVG 1.1//EN"
 "http://www.w3.org/Graphics/SVG/1.1/DTD/svg11.dtd">
<!-- Generated by graphviz version 2.43.0 (0)
 -->
<!-- Title: /home/runner/work/Raytracer/Raytracer/PluginsExt/Disk/DiskEntity.hpp Pages: 1 -->
<svg width="568pt" height="386pt"
 viewBox="0.00 0.00 568.00 386.00" xmlns="http://www.w3.org/2000/svg" xmlns:xlink="http://www.w3.org/1999/xlink">
<g id="graph0" class="graph" transform="scale(1 1) rotate(0) translate(4 382)">
<title>/home/runner/work/Raytracer/Raytracer/PluginsExt/Disk/DiskEntity.hpp</title>
<polygon fill="white" stroke="transparent" points="-4,4 -4,-382 564,-382 564,4 -4,4"/>
<!-- Node1 -->
<g id="node1" class="node">
<title>Node1</title>
<g id="a_node1"><a xlink:title=" ">
<polygon fill="#bfbfbf" stroke="black" points="182.5,-336.5 182.5,-377.5 341.5,-377.5 341.5,-336.5 182.5,-336.5"/>
<text text-anchor="start" x="190.5" y="-365.5" font-family="Helvetica,sans-Serif" font-size="10.00">/home/runner/work/Raytracer</text>
<text text-anchor="start" x="190.5" y="-354.5" font-family="Helvetica,sans-Serif" font-size="10.00">/Raytracer/PluginsExt/Disk</text>
<text text-anchor="middle" x="262" y="-343.5" font-family="Helvetica,sans-Serif" font-size="10.00">/DiskEntity.hpp</text>
</a>
</g>
</g>
<!-- Node2 -->
<g id="node2" class="node">
<title>Node2</title>
<g id="a_node2"><a xlink:href="$a00119.html" xlink:title=" ">
<polygon fill="white" stroke="black" points="35.5,-280.5 35.5,-299.5 108.5,-299.5 108.5,-280.5 35.5,-280.5"/>
<text text-anchor="middle" x="72" y="-287.5" font-family="Helvetica,sans-Serif" font-size="10.00">ILogger.hpp</text>
</a>
</g>
</g>
<!-- Node1&#45;&gt;Node2 -->
<g id="edge1" class="edge">
<title>Node1&#45;&gt;Node2</title>
<path fill="none" stroke="midnightblue" d="M204.99,-336.5C173.06,-325.57 134.27,-312.3 106.85,-302.92"/>
<polygon fill="midnightblue" stroke="midnightblue" points="107.89,-299.58 97.29,-299.65 105.62,-306.2 107.89,-299.58"/>
</g>
<!-- Node4 -->
<g id="node4" class="node">
<title>Node4</title>
<g id="a_node4"><a xlink:href="$a00077.html" xlink:title=" ">
<polygon fill="white" stroke="black" points="138.5,-224.5 138.5,-243.5 219.5,-243.5 219.5,-224.5 138.5,-224.5"/>
<text text-anchor="middle" x="179" y="-231.5" font-family="Helvetica,sans-Serif" font-size="10.00">IMaterial.hpp</text>
</a>
</g>
</g>
<!-- Node1&#45;&gt;Node4 -->
<g id="edge3" class="edge">
<title>Node1&#45;&gt;Node4</title>
<path fill="none" stroke="midnightblue" d="M240.88,-336.27C230.73,-326.08 218.87,-313.06 210,-300 200.02,-285.31 191.57,-266.91 186.03,-253.44"/>
<polygon fill="midnightblue" stroke="midnightblue" points="189.17,-251.87 182.23,-243.86 182.66,-254.45 189.17,-251.87"/>
</g>
<!-- Node16 -->
<g id="node16" class="node">
<title>Node16</title>
<g id="a_node16"><a xlink:href="$a00080.html" xlink:title=" ">
<polygon fill="white" stroke="black" points="219.5,-280.5 219.5,-299.5 304.5,-299.5 304.5,-280.5 219.5,-280.5"/>
<text text-anchor="middle" x="262" y="-287.5" font-family="Helvetica,sans-Serif" font-size="10.00">IPrimitive.hpp</text>
</a>
</g>
</g>
<!-- Node1&#45;&gt;Node16 -->
<g id="edge20" class="edge">
<title>Node1&#45;&gt;Node16</title>
<path fill="none" stroke="midnightblue" d="M262,-336.5C262,-328.07 262,-318.24 262,-309.87"/>
<polygon fill="midnightblue" stroke="midnightblue" points="265.5,-309.65 262,-299.65 258.5,-309.65 265.5,-309.65"/>
</g>
<!-- Node19 -->
<g id="node19" class="node">
<title>Node19</title>
<g id="a_node19"><a xlink:href="$a00086.html" xlink:title=" ">
<polygon fill="white" stroke="black" points="474,-224.5 474,-243.5 560,-243.5 560,-224.5 474,-224.5"/>
<text text-anchor="middle" x="517" y="-231.5" font-family="Helvetica,sans-Serif" font-size="10.00">Transform.hpp</text>
</a>
</g>
</g>
<!-- Node1&#45;&gt;Node19 -->
<g id="edge29" class="edge">
<title>Node1&#45;&gt;Node19</title>
<path fill="none" stroke="midnightblue" d="M280.45,-336.41C297.68,-319.21 324.91,-294.69 353,-280 387.74,-261.84 430.55,-250.41 463.73,-243.62"/>
<polygon fill="midnightblue" stroke="midnightblue" points="464.56,-247.02 473.69,-241.66 463.2,-240.15 464.56,-247.02"/>
</g>
<!-- Node20 -->
<g id="node20" class="node">
<title>Node20</title>
<g id="a_node20"><a xlink:title=" ">
<polygon fill="white" stroke="#bfbfbf" points="361.5,-280.5 361.5,-299.5 426.5,-299.5 426.5,-280.5 361.5,-280.5"/>
<text text-anchor="middle" x="394" y="-287.5" font-family="Helvetica,sans-Serif" font-size="10.00">functional</text>
</a>
</g>
</g>
<!-- Node1&#45;&gt;Node20 -->
<g id="edge33" class="edge">
<title>Node1&#45;&gt;Node20</title>
<path fill="none" stroke="midnightblue" d="M301.6,-336.5C322.82,-326.05 348.38,-313.46 367.24,-304.18"/>
<polygon fill="midnightblue" stroke="midnightblue" points="369,-307.21 376.43,-299.65 365.91,-300.93 369,-307.21"/>
</g>
<!-- Node3 -->
<g id="node3" class="node">
<title>Node3</title>
<g id="a_node3"><a xlink:title=" ">
<polygon fill="white" stroke="#bfbfbf" points="0,-224.5 0,-243.5 44,-243.5 44,-224.5 0,-224.5"/>
<text text-anchor="middle" x="22" y="-231.5" font-family="Helvetica,sans-Serif" font-size="10.00">string</text>
</a>
</g>
</g>
<!-- Node2&#45;&gt;Node3 -->
<g id="edge2" class="edge">
<title>Node2&#45;&gt;Node3</title>
<path fill="none" stroke="midnightblue" d="M63.74,-280.08C56.54,-272.3 45.89,-260.8 37.15,-251.37"/>
<polygon fill="midnightblue" stroke="midnightblue" points="39.47,-248.71 30.1,-243.75 34.33,-253.47 39.47,-248.71"/>
</g>
<!-- Node5 -->
<g id="node5" class="node">
<title>Node5</title>
<g id="a_node5"><a xlink:href="$a00137.html" xlink:title=" ">
<polygon fill="white" stroke="black" points="255.5,-168.5 255.5,-187.5 310.5,-187.5 310.5,-168.5 255.5,-168.5"/>
<text text-anchor="middle" x="283" y="-175.5" font-family="Helvetica,sans-Serif" font-size="10.00">Ray.hpp</text>
</a>
</g>
</g>
<!-- Node4&#45;&gt;Node5 -->
<g id="edge4" class="edge">
<title>Node4&#45;&gt;Node5</title>
<path fill="none" stroke="midnightblue" d="M195.71,-224.32C212.31,-215.7 238,-202.36 257.22,-192.39"/>
<polygon fill="midnightblue" stroke="midnightblue" points="259.07,-195.37 266.33,-187.65 255.84,-189.16 259.07,-195.37"/>
</g>
<!-- Node6 -->
<g id="node6" class="node">
<title>Node6</title>
<g id="a_node6"><a xlink:href="$a00092.html" xlink:title=" ">
<polygon fill="white" stroke="black" points="286.5,-112.5 286.5,-131.5 363.5,-131.5 363.5,-112.5 286.5,-112.5"/>
<text text-anchor="middle" x="325" y="-119.5" font-family="Helvetica,sans-Serif" font-size="10.00">Vector3f.hpp</text>
</a>
</g>
</g>
<!-- Node4&#45;&gt;Node6 -->
<g id="edge19" class="edge">
<title>Node4&#45;&gt;Node6</title>
<path fill="none" stroke="midnightblue" d="M186.8,-224.31C198.88,-211.16 223.21,-185.82 247,-168 263.16,-155.89 282.88,-144.54 298.44,-136.27"/>
<polygon fill="midnightblue" stroke="midnightblue" points="300.27,-139.26 307.53,-131.54 297.04,-133.05 300.27,-139.26"/>
</g>
<!-- Node11 -->
<g id="node11" class="node">
<title>Node11</title>
<g id="a_node11"><a xlink:href="$a00122.html" xlink:title=" ">
<polygon fill="white" stroke="black" points="137,-168.5 137,-187.5 199,-187.5 199,-168.5 137,-168.5"/>
<text text-anchor="middle" x="168" y="-175.5" font-family="Helvetica,sans-Serif" font-size="10.00">Color.hpp</text>
</a>
</g>
</g>
<!-- Node4&#45;&gt;Node11 -->
<g id="edge10" class="edge">
<title>Node4&#45;&gt;Node11</title>
<path fill="none" stroke="midnightblue" d="M177.18,-224.08C175.73,-216.93 173.63,-206.64 171.81,-197.69"/>
<polygon fill="midnightblue" stroke="midnightblue" points="175.21,-196.85 169.78,-187.75 168.35,-198.25 175.21,-196.85"/>
</g>
<!-- Node13 -->
<g id="node13" class="node">
<title>Node13</title>
<g id="a_node13"><a xlink:href="$a00200.html" xlink:title=" ">
<polygon fill="white" stroke="black" points="21,-168.5 21,-187.5 119,-187.5 119,-168.5 21,-168.5"/>
<text text-anchor="middle" x="70" y="-175.5" font-family="Helvetica,sans-Serif" font-size="10.00">IDisplayable.hpp</text>
</a>
</g>
</g>
<!-- Node4&#45;&gt;Node13 -->
<g id="edge14" class="edge">
<title>Node4&#45;&gt;Node13</title>
<path fill="none" stroke="midnightblue" d="M161.49,-224.32C143.93,-215.62 116.67,-202.12 96.47,-192.11"/>
<polygon fill="midnightblue" stroke="midnightblue" points="97.98,-188.96 87.47,-187.65 94.88,-195.23 97.98,-188.96"/>
</g>
<!-- Node15 -->
<g id="node15" class="node">
<title>Node15</title>
<g id="a_node15"><a xlink:href="$a00083.html" xlink:title=" ">
<polygon fill="white" stroke="black" points="328.5,-168.5 328.5,-187.5 417.5,-187.5 417.5,-168.5 328.5,-168.5"/>
<text text-anchor="middle" x="373" y="-175.5" font-family="Helvetica,sans-Serif" font-size="10.00">ITransform.hpp</text>
</a>
</g>
</g>
<!-- Node4&#45;&gt;Node15 -->
<g id="edge17" class="edge">
<title>Node4&#45;&gt;Node15</title>
<path fill="none" stroke="midnightblue" d="M209.74,-224.44C242.94,-215.2 295.99,-200.44 332.56,-190.26"/>
<polygon fill="midnightblue" stroke="midnightblue" points="333.71,-193.57 342.4,-187.52 331.83,-186.83 333.71,-193.57"/>
</g>
<!-- Node5&#45;&gt;Node6 -->
<g id="edge5" class="edge">
<title>Node5&#45;&gt;Node6</title>
<path fill="none" stroke="midnightblue" d="M289.94,-168.08C295.93,-160.38 304.75,-149.03 312.05,-139.65"/>
<polygon fill="midnightblue" stroke="midnightblue" points="314.82,-141.79 318.19,-131.75 309.29,-137.5 314.82,-141.79"/>
</g>
<!-- Node7 -->
<g id="node7" class="node">
<title>Node7</title>
<g id="a_node7"><a xlink:title=" ">
<polygon fill="white" stroke="#bfbfbf" points="196.5,-56.5 196.5,-75.5 253.5,-75.5 253.5,-56.5 196.5,-56.5"/>
<text text-anchor="middle" x="225" y="-63.5" font-family="Helvetica,sans-Serif" font-size="10.00">ostream</text>
</a>
</g>
</g>
<!-- Node6&#45;&gt;Node7 -->
<g id="edge6" class="edge">
<title>Node6&#45;&gt;Node7</title>
<path fill="none" stroke="midnightblue" d="M308.93,-112.32C293.04,-103.74 268.49,-90.49 250.04,-80.52"/>
<polygon fill="midnightblue" stroke="midnightblue" points="251.49,-77.33 241.03,-75.65 248.16,-83.49 251.49,-77.33"/>
</g>
<!-- Node8 -->
<g id="node8" class="node">
<title>Node8</title>
<g id="a_node8"><a xlink:href="$a00206.html" xlink:title=" ">
<polygon fill="white" stroke="black" points="281.5,-56.5 281.5,-75.5 356.5,-75.5 356.5,-56.5 281.5,-56.5"/>
<text text-anchor="middle" x="319" y="-63.5" font-family="Helvetica,sans-Serif" font-size="10.00">ISetting.hpp</text>
</a>
</g>
</g>
<!-- Node6&#45;&gt;Node8 -->
<g id="edge7" class="edge">
<title>Node6&#45;&gt;Node8</title>
<path fill="none" stroke="midnightblue" d="M324.01,-112.08C323.21,-104.93 322.07,-94.64 321.08,-85.69"/>
<polygon fill="midnightblue" stroke="midnightblue" points="324.56,-85.3 319.97,-75.75 317.6,-86.08 324.56,-85.3"/>
</g>
<!-- Node9 -->
<g id="node9" class="node">
<title>Node9</title>
<g id="a_node9"><a xlink:title=" ">
<polygon fill="white" stroke="#bfbfbf" points="119,-0.5 119,-19.5 177,-19.5 177,-0.5 119,-0.5"/>
<text text-anchor="middle" x="148" y="-7.5" font-family="Helvetica,sans-Serif" font-size="10.00">memory</text>
</a>
</g>
</g>
<!-- Node8&#45;&gt;Node9 -->
<g id="edge8" class="edge">
<title>Node8&#45;&gt;Node9</title>
<path fill="none" stroke="midnightblue" d="M291.9,-56.44C263.01,-47.32 217.08,-32.81 184.89,-22.65"/>
<polygon fill="midnightblue" stroke="midnightblue" points="185.56,-19.19 174.97,-19.52 183.45,-25.87 185.56,-19.19"/>
</g>
<!-- Node10 -->
<g id="node10" class="node">
<title>Node10</title>
<g id="a_node10"><a xlink:title=" ">
<polygon fill="white" stroke="#bfbfbf" points="277.5,-0.5 277.5,-19.5 360.5,-19.5 360.5,-0.5 277.5,-0.5"/>
<text text-anchor="middle" x="319" y="-7.5" font-family="Helvetica,sans-Serif" font-size="10.00">libconfig.h++</text>
</a>
</g>
</g>
<!-- Node8&#45;&gt;Node10 -->
<g id="edge9" class="edge">
<title>Node8&#45;&gt;Node10</title>
<path fill="none" stroke="midnightblue" d="M319,-56.08C319,-49.01 319,-38.86 319,-29.99"/>
<polygon fill="midnightblue" stroke="midnightblue" points="322.5,-29.75 319,-19.75 315.5,-29.75 322.5,-29.75"/>
</g>
<!-- Node11&#45;&gt;Node7 -->
<g id="edge12" class="edge">
<title>Node11&#45;&gt;Node7</title>
<path fill="none" stroke="midnightblue" d="M175.62,-168.19C182.88,-159.46 193.75,-145.48 201,-132 209.01,-117.1 215.46,-98.96 219.65,-85.63"/>
<polygon fill="midnightblue" stroke="midnightblue" points="223.09,-86.33 222.62,-75.74 216.39,-84.31 223.09,-86.33"/>
</g>
<!-- Node11&#45;&gt;Node8 -->
<g id="edge13" class="edge">
<title>Node11&#45;&gt;Node8</title>
<path fill="none" stroke="midnightblue" d="M179.85,-168.37C205.65,-149.57 267.15,-104.77 299.05,-81.53"/>
<polygon fill="midnightblue" stroke="midnightblue" points="301.18,-84.31 307.21,-75.59 297.06,-78.65 301.18,-84.31"/>
</g>
<!-- Node12 -->
<g id="node12" class="node">
<title>Node12</title>
<g id="a_node12"><a xlink:title=" ">
<polygon fill="white" stroke="#bfbfbf" points="144,-112.5 144,-131.5 192,-131.5 192,-112.5 144,-112.5"/>
<text text-anchor="middle" x="168" y="-119.5" font-family="Helvetica,sans-Serif" font-size="10.00">mutex</text>
</a>
</g>
</g>
<!-- Node11&#45;&gt;Node12 -->
<g id="edge11" class="edge">
<title>Node11&#45;&gt;Node12</title>
<path fill="none" stroke="midnightblue" d="M168,-168.08C168,-161.01 168,-150.86 168,-141.99"/>
<polygon fill="midnightblue" stroke="midnightblue" points="171.5,-141.75 168,-131.75 164.5,-141.75 171.5,-141.75"/>
</g>
<!-- Node13&#45;&gt;Node9 -->
<g id="edge15" class="edge">
<title>Node13&#45;&gt;Node9</title>
<path fill="none" stroke="midnightblue" d="M68.04,-168.29C65.56,-155.54 62.38,-131.21 69,-112 81.06,-77.01 110.77,-44.87 130.13,-26.64"/>
<polygon fill="midnightblue" stroke="midnightblue" points="132.69,-29.04 137.7,-19.7 127.96,-23.87 132.69,-29.04"/>
</g>
<!-- Node14 -->
<g id="node14" class="node">
<title>Node14</title>
<g id="a_node14"><a xlink:title=" ">
<polygon fill="white" stroke="#bfbfbf" points="78.5,-112.5 78.5,-131.5 125.5,-131.5 125.5,-112.5 78.5,-112.5"/>
<text text-anchor="middle" x="102" y="-119.5" font-family="Helvetica,sans-Serif" font-size="10.00">vector</text>
</a>
</g>
</g>
<!-- Node13&#45;&gt;Node14 -->
<g id="edge16" class="edge">
<title>Node13&#45;&gt;Node14</title>
<path fill="none" stroke="midnightblue" d="M75.28,-168.08C79.71,-160.61 86.16,-149.72 91.62,-140.52"/>
<polygon fill="midnightblue" stroke="midnightblue" points="94.73,-142.14 96.81,-131.75 88.71,-138.57 94.73,-142.14"/>
</g>
<!-- Node15&#45;&gt;Node6 -->
<g id="edge18" class="edge">
<title>Node15&#45;&gt;Node6</title>
<path fill="none" stroke="midnightblue" d="M365.07,-168.08C358.15,-160.3 347.93,-148.8 339.55,-139.37"/>
<polygon fill="midnightblue" stroke="midnightblue" points="342.04,-136.9 332.78,-131.75 336.81,-141.55 342.04,-136.9"/>
</g>
<!-- Node16&#45;&gt;Node4 -->
<g id="edge26" class="edge">
<title>Node16&#45;&gt;Node4</title>
<path fill="none" stroke="midnightblue" d="M248.66,-280.32C235.84,-271.98 216.22,-259.21 201.06,-249.35"/>
<polygon fill="midnightblue" stroke="midnightblue" points="202.59,-246.17 192.3,-243.65 198.78,-252.04 202.59,-246.17"/>
</g>
<!-- Node16&#45;&gt;Node5 -->
<g id="edge27" class="edge">
<title>Node16&#45;&gt;Node5</title>
<path fill="none" stroke="midnightblue" d="M273.54,-280.49C283.48,-272.38 297.12,-259.18 303,-244 309.18,-228.05 301.96,-209.34 294.53,-196.1"/>
<polygon fill="midnightblue" stroke="midnightblue" points="297.49,-194.23 289.27,-187.54 291.53,-197.9 297.49,-194.23"/>
</g>
<!-- Node16&#45;&gt;Node6 -->
<g id="edge28" class="edge">
<title>Node16&#45;&gt;Node6</title>
<path fill="none" stroke="midnightblue" d="M303.17,-280.48C349.5,-270.48 419.36,-254 427,-244 447.5,-217.16 445.44,-196.3 427,-168 414.97,-149.54 393.46,-138.6 373.28,-132.14"/>
<polygon fill="midnightblue" stroke="midnightblue" points="374.11,-128.73 363.53,-129.31 372.17,-135.46 374.11,-128.73"/>
</g>
<!-- Node16&#45;&gt;Node11 -->
<g id="edge22" class="edge">
<title>Node16&#45;&gt;Node11</title>
<path fill="none" stroke="midnightblue" d="M219.33,-287.03C188.71,-283.12 149.39,-272.42 129,-244 117.35,-227.76 133.25,-207.91 148.11,-194.45"/>
<polygon fill="midnightblue" stroke="midnightblue" points="150.71,-196.83 156.08,-187.7 146.19,-191.49 150.71,-196.83"/>
</g>
<!-- Node16&#45;&gt;Node13 -->
<g id="edge23" class="edge">
<title>Node16&#45;&gt;Node13</title>
<path fill="none" stroke="midnightblue" d="M219.26,-282.23C189.66,-275.98 150.44,-264.45 121,-244 103.2,-231.63 88.64,-211.21 79.7,-196.56"/>
<polygon fill="midnightblue" stroke="midnightblue" points="82.49,-194.39 74.44,-187.51 76.44,-197.91 82.49,-194.39"/>
</g>
<!-- Node17 -->
<g id="node17" class="node">
<title>Node17</title>
<g id="a_node17"><a xlink:title=" ">
<polygon fill="white" stroke="#bfbfbf" points="238,-224.5 238,-243.5 294,-243.5 294,-224.5 238,-224.5"/>
<text text-anchor="middle" x="266" y="-231.5" font-family="Helvetica,sans-Serif" font-size="10.00">optional</text>
</a>
</g>
</g>
<!-- Node16&#45;&gt;Node17 -->
<g id="edge21" class="edge">
<title>Node16&#45;&gt;Node17</title>
<path fill="none" stroke="midnightblue" d="M262.66,-280.08C263.18,-273.01 263.94,-262.86 264.59,-253.99"/>
<polygon fill="midnightblue" stroke="midnightblue" points="268.1,-253.98 265.35,-243.75 261.12,-253.47 268.1,-253.98"/>
</g>
<!-- Node18 -->
<g id="node18" class="node">
<title>Node18</title>
<g id="a_node18"><a xlink:href="$a00071.html" xlink:title=" ">
<polygon fill="white" stroke="black" points="350,-224.5 350,-243.5 418,-243.5 418,-224.5 350,-224.5"/>
<text text-anchor="middle" x="384" y="-231.5" font-family="Helvetica,sans-Serif" font-size="10.00">IEntity.hpp</text>
</a>
</g>
</g>
<!-- Node16&#45;&gt;Node18 -->
<g id="edge24" class="edge">
<title>Node16&#45;&gt;Node18</title>
<path fill="none" stroke="midnightblue" d="M281.33,-280.44C301.32,-271.6 332.74,-257.69 355.56,-247.59"/>
<polygon fill="midnightblue" stroke="midnightblue" points="357.03,-250.76 364.76,-243.52 354.2,-244.36 357.03,-250.76"/>
</g>
<!-- Node18&#45;&gt;Node15 -->
<g id="edge25" class="edge">
<title>Node18&#45;&gt;Node15</title>
<path fill="none" stroke="midnightblue" d="M382.18,-224.08C380.73,-216.93 378.63,-206.64 376.81,-197.69"/>
<polygon fill="midnightblue" stroke="midnightblue" points="380.21,-196.85 374.78,-187.75 373.35,-198.25 380.21,-196.85"/>
</g>
<!-- Node19&#45;&gt;Node6 -->
<g id="edge32" class="edge">
<title>Node19&#45;&gt;Node6</title>
<path fill="none" stroke="midnightblue" d="M511.47,-224.09C502.39,-210.17 483,-183.28 460,-168 434,-150.73 400.77,-139.54 373.79,-132.64"/>
<polygon fill="midnightblue" stroke="midnightblue" points="374.33,-129.17 363.79,-130.21 372.67,-135.97 374.33,-129.17"/>
</g>
<!-- Node19&#45;&gt;Node8 -->
<g id="edge31" class="edge">
<title>Node19&#45;&gt;Node8</title>
<path fill="none" stroke="midnightblue" d="M514.4,-224.08C510.11,-210.62 500.45,-184.89 485,-168 446.71,-126.13 387.08,-95.68 350.68,-79.72"/>
<polygon fill="midnightblue" stroke="midnightblue" points="351.64,-76.32 341.07,-75.6 348.88,-82.76 351.64,-76.32"/>
</g>
<!-- Node19&#45;&gt;Node15 -->
<g id="edge30" class="edge">
<title>Node19&#45;&gt;Node15</title>
<path fill="none" stroke="midnightblue" d="M494.18,-224.44C470.17,-215.44 432.17,-201.19 405.13,-191.05"/>
<polygon fill="midnightblue" stroke="midnightblue" points="406.3,-187.75 395.71,-187.52 403.84,-194.3 406.3,-187.75"/>
</g>
</g>
</svg>
