<?xml version="1.0" encoding="UTF-8" standalone="no"?>
<!DOCTYPE svg PUBLIC "-//W3C//DTD SVG 1.1//EN"
 "http://www.w3.org/Graphics/SVG/1.1/DTD/svg11.dtd">
<!-- Generated by graphviz version 2.43.0 (0)
 -->
<!-- Title: /home/runner/work/Raytracer/Raytracer/src/Plugins/PluginLoader.hpp Pages: 1 -->
<svg width="444pt" height="207pt"
 viewBox="0.00 0.00 443.95 207.00" xmlns="http://www.w3.org/2000/svg" xmlns:xlink="http://www.w3.org/1999/xlink">
<g id="graph0" class="graph" transform="scale(1 1) rotate(0) translate(4 203)">
<title>/home/runner/work/Raytracer/Raytracer/src/Plugins/PluginLoader.hpp</title>
<polygon fill="white" stroke="transparent" points="-4,4 -4,-203 439.95,-203 439.95,4 -4,4"/>
<!-- Node1 -->
<g id="node1" class="node">
<title>Node1</title>
<g id="a_node1"><a xlink:title=" ">
<polygon fill="#bfbfbf" stroke="black" points="183.45,-168.5 183.45,-198.5 392.45,-198.5 392.45,-168.5 183.45,-168.5"/>
<text text-anchor="start" x="191.45" y="-186.5" font-family="Helvetica,sans-Serif" font-size="10.00">/home/runner/work/Raytracer</text>
<text text-anchor="middle" x="287.95" y="-175.5" font-family="Helvetica,sans-Serif" font-size="10.00">/Raytracer/src/Plugins/PluginLoader.hpp</text>
</a>
</g>
</g>
<!-- Node2 -->
<g id="node2" class="node">
<title>Node2</title>
<g id="a_node2"><a xlink:title=" ">
<polygon fill="white" stroke="#bfbfbf" points="48.95,-0.5 48.95,-19.5 92.95,-19.5 92.95,-0.5 48.95,-0.5"/>
<text text-anchor="middle" x="70.95" y="-7.5" font-family="Helvetica,sans-Serif" font-size="10.00">string</text>
</a>
</g>
</g>
<!-- Node1&#45;&gt;Node2 -->
<g id="edge1" class="edge">
<title>Node1&#45;&gt;Node2</title>
<path fill="none" stroke="midnightblue" d="M183.18,-172.9C119.68,-161.02 43.51,-134.59 3.95,-76 -9.98,-55.37 16.93,-36.09 40.68,-23.98"/>
<polygon fill="midnightblue" stroke="midnightblue" points="42.38,-27.04 49.87,-19.54 39.34,-20.73 42.38,-27.04"/>
</g>
<!-- Node3 -->
<g id="node3" class="node">
<title>Node3</title>
<g id="a_node3"><a xlink:href="$a00149.html" xlink:title=" ">
<polygon fill="white" stroke="black" points="151.45,-112.5 151.45,-131.5 228.45,-131.5 228.45,-112.5 151.45,-112.5"/>
<text text-anchor="middle" x="189.95" y="-119.5" font-family="Helvetica,sans-Serif" font-size="10.00">TFactory.hpp</text>
</a>
</g>
</g>
<!-- Node1&#45;&gt;Node3 -->
<g id="edge2" class="edge">
<title>Node1&#45;&gt;Node3</title>
<path fill="none" stroke="midnightblue" d="M264.72,-168.4C249.16,-158.95 228.75,-146.56 213.18,-137.11"/>
<polygon fill="midnightblue" stroke="midnightblue" points="214.57,-133.86 204.21,-131.66 210.94,-139.84 214.57,-133.86"/>
</g>
<!-- Node4 -->
<g id="node4" class="node">
<title>Node4</title>
<g id="a_node4"><a xlink:title=" ">
<polygon fill="white" stroke="#bfbfbf" points="295.95,-0.5 295.95,-19.5 353.95,-19.5 353.95,-0.5 295.95,-0.5"/>
<text text-anchor="middle" x="324.95" y="-7.5" font-family="Helvetica,sans-Serif" font-size="10.00">memory</text>
</a>
</g>
</g>
<!-- Node1&#45;&gt;Node4 -->
<g id="edge13" class="edge">
<title>Node1&#45;&gt;Node4</title>
<path fill="none" stroke="midnightblue" d="M290.97,-168.47C297.61,-137.7 313.44,-64.33 320.91,-29.7"/>
<polygon fill="midnightblue" stroke="midnightblue" points="324.41,-30.07 323.1,-19.56 317.57,-28.6 324.41,-30.07"/>
</g>
<!-- Node10 -->
<g id="node10" class="node">
<title>Node10</title>
<g id="a_node10"><a xlink:title=" ">
<polygon fill="white" stroke="#bfbfbf" points="367.95,-112.5 367.95,-131.5 435.95,-131.5 435.95,-112.5 367.95,-112.5"/>
<text text-anchor="middle" x="401.95" y="-119.5" font-family="Helvetica,sans-Serif" font-size="10.00">filesystem</text>
</a>
</g>
</g>
<!-- Node1&#45;&gt;Node10 -->
<g id="edge12" class="edge">
<title>Node1&#45;&gt;Node10</title>
<path fill="none" stroke="midnightblue" d="M314.96,-168.4C333.58,-158.68 358.16,-145.86 376.44,-136.31"/>
<polygon fill="midnightblue" stroke="midnightblue" points="378.11,-139.39 385.36,-131.66 374.87,-133.18 378.11,-139.39"/>
</g>
<!-- Node3&#45;&gt;Node2 -->
<g id="edge3" class="edge">
<title>Node3&#45;&gt;Node2</title>
<path fill="none" stroke="midnightblue" d="M160.44,-112.38C140.82,-105.34 115.69,-93.64 98.95,-76 86.67,-63.06 79.31,-43.89 75.24,-29.72"/>
<polygon fill="midnightblue" stroke="midnightblue" points="78.53,-28.46 72.65,-19.64 71.75,-30.2 78.53,-28.46"/>
</g>
<!-- Node3&#45;&gt;Node4 -->
<g id="edge4" class="edge">
<title>Node3&#45;&gt;Node4</title>
<path fill="none" stroke="midnightblue" d="M217.08,-112.37C236.96,-105.04 263.73,-92.99 282.95,-76 297.85,-62.82 309.56,-43.15 316.79,-28.89"/>
<polygon fill="midnightblue" stroke="midnightblue" points="320.06,-30.18 321.24,-19.65 313.75,-27.14 320.06,-30.18"/>
</g>
<!-- Node5 -->
<g id="node5" class="node">
<title>Node5</title>
<g id="a_node5"><a xlink:title=" ">
<polygon fill="white" stroke="#bfbfbf" points="12.95,-56.5 12.95,-75.5 50.95,-75.5 50.95,-56.5 12.95,-56.5"/>
<text text-anchor="middle" x="31.95" y="-63.5" font-family="Helvetica,sans-Serif" font-size="10.00">map</text>
</a>
</g>
</g>
<!-- Node3&#45;&gt;Node5 -->
<g id="edge5" class="edge">
<title>Node3&#45;&gt;Node5</title>
<path fill="none" stroke="midnightblue" d="M164.91,-112.44C136.73,-102.81 91.01,-87.19 61.21,-77"/>
<polygon fill="midnightblue" stroke="midnightblue" points="61.98,-73.57 51.39,-73.64 59.72,-80.19 61.98,-73.57"/>
</g>
<!-- Node6 -->
<g id="node6" class="node">
<title>Node6</title>
<g id="a_node6"><a xlink:href="$a00155.html" xlink:title=" ">
<polygon fill="white" stroke="black" points="107.45,-56.5 107.45,-75.5 180.45,-75.5 180.45,-56.5 107.45,-56.5"/>
<text text-anchor="middle" x="143.95" y="-63.5" font-family="Helvetica,sans-Serif" font-size="10.00">ILogger.hpp</text>
</a>
</g>
</g>
<!-- Node3&#45;&gt;Node6 -->
<g id="edge6" class="edge">
<title>Node3&#45;&gt;Node6</title>
<path fill="none" stroke="midnightblue" d="M182.35,-112.08C175.72,-104.3 165.93,-92.8 157.89,-83.37"/>
<polygon fill="midnightblue" stroke="midnightblue" points="160.55,-81.09 151.4,-75.75 155.22,-85.63 160.55,-81.09"/>
</g>
<!-- Node8 -->
<g id="node8" class="node">
<title>Node8</title>
<g id="a_node8"><a xlink:href="$a00242.html" xlink:title=" ">
<polygon fill="white" stroke="black" points="198.45,-56.5 198.45,-75.5 273.45,-75.5 273.45,-56.5 198.45,-56.5"/>
<text text-anchor="middle" x="235.95" y="-63.5" font-family="Helvetica,sans-Serif" font-size="10.00">ISetting.hpp</text>
</a>
</g>
</g>
<!-- Node3&#45;&gt;Node8 -->
<g id="edge9" class="edge">
<title>Node3&#45;&gt;Node8</title>
<path fill="none" stroke="midnightblue" d="M197.54,-112.08C204.17,-104.3 213.97,-92.8 222,-83.37"/>
<polygon fill="midnightblue" stroke="midnightblue" points="224.67,-85.63 228.49,-75.75 219.34,-81.09 224.67,-85.63"/>
</g>
<!-- Node6&#45;&gt;Node2 -->
<g id="edge8" class="edge">
<title>Node6&#45;&gt;Node2</title>
<path fill="none" stroke="midnightblue" d="M132.22,-56.32C121.11,-48.11 104.2,-35.6 90.96,-25.81"/>
<polygon fill="midnightblue" stroke="midnightblue" points="93.01,-22.97 82.89,-19.83 88.85,-28.59 93.01,-22.97"/>
</g>
<!-- Node7 -->
<g id="node7" class="node">
<title>Node7</title>
<g id="a_node7"><a xlink:title=" ">
<polygon fill="white" stroke="#bfbfbf" points="111.45,-0.5 111.45,-19.5 176.45,-19.5 176.45,-0.5 111.45,-0.5"/>
<text text-anchor="middle" x="143.95" y="-7.5" font-family="Helvetica,sans-Serif" font-size="10.00">functional</text>
</a>
</g>
</g>
<!-- Node6&#45;&gt;Node7 -->
<g id="edge7" class="edge">
<title>Node6&#45;&gt;Node7</title>
<path fill="none" stroke="midnightblue" d="M143.95,-56.08C143.95,-49.01 143.95,-38.86 143.95,-29.99"/>
<polygon fill="midnightblue" stroke="midnightblue" points="147.45,-29.75 143.95,-19.75 140.45,-29.75 147.45,-29.75"/>
</g>
<!-- Node8&#45;&gt;Node4 -->
<g id="edge10" class="edge">
<title>Node8&#45;&gt;Node4</title>
<path fill="none" stroke="midnightblue" d="M250.25,-56.32C264.13,-47.9 285.44,-34.97 301.75,-25.07"/>
<polygon fill="midnightblue" stroke="midnightblue" points="303.95,-27.83 310.68,-19.65 300.32,-21.85 303.95,-27.83"/>
</g>
<!-- Node9 -->
<g id="node9" class="node">
<title>Node9</title>
<g id="a_node9"><a xlink:title=" ">
<polygon fill="white" stroke="#bfbfbf" points="194.45,-0.5 194.45,-19.5 277.45,-19.5 277.45,-0.5 194.45,-0.5"/>
<text text-anchor="middle" x="235.95" y="-7.5" font-family="Helvetica,sans-Serif" font-size="10.00">libconfig.h++</text>
</a>
</g>
</g>
<!-- Node8&#45;&gt;Node9 -->
<g id="edge11" class="edge">
<title>Node8&#45;&gt;Node9</title>
<path fill="none" stroke="midnightblue" d="M235.95,-56.08C235.95,-49.01 235.95,-38.86 235.95,-29.99"/>
<polygon fill="midnightblue" stroke="midnightblue" points="239.45,-29.75 235.95,-19.75 232.45,-29.75 239.45,-29.75"/>
</g>
</g>
</svg>
