<?xml version="1.0" encoding="UTF-8" standalone="no"?>
<!DOCTYPE svg PUBLIC "-//W3C//DTD SVG 1.1//EN"
 "http://www.w3.org/Graphics/SVG/1.1/DTD/svg11.dtd">
<!-- Generated by graphviz version 2.43.0 (0)
 -->
<!-- Title: /home/runner/work/Raytracer/Raytracer/PluginsExt/Camera/FullCustom/CameraCustomEntity.hpp Pages: 1 -->
<svg width="864pt" height="442pt"
 viewBox="0.00 0.00 863.50 442.00" xmlns="http://www.w3.org/2000/svg" xmlns:xlink="http://www.w3.org/1999/xlink">
<g id="graph0" class="graph" transform="scale(1 1) rotate(0) translate(4 438)">
<title>/home/runner/work/Raytracer/Raytracer/PluginsExt/Camera/FullCustom/CameraCustomEntity.hpp</title>
<polygon fill="white" stroke="transparent" points="-4,4 -4,-438 859.5,-438 859.5,4 -4,4"/>
<!-- Node1 -->
<g id="node1" class="node">
<title>Node1</title>
<g id="a_node1"><a xlink:title=" ">
<polygon fill="#bfbfbf" stroke="black" points="326,-392.5 326,-433.5 527,-433.5 527,-392.5 326,-392.5"/>
<text text-anchor="start" x="334" y="-421.5" font-family="Helvetica,sans-Serif" font-size="10.00">/home/runner/work/Raytracer</text>
<text text-anchor="start" x="334" y="-410.5" font-family="Helvetica,sans-Serif" font-size="10.00">/Raytracer/PluginsExt/Camera</text>
<text text-anchor="middle" x="426.5" y="-399.5" font-family="Helvetica,sans-Serif" font-size="10.00">/FullCustom/CameraCustomEntity.hpp</text>
</a>
</g>
</g>
<!-- Node2 -->
<g id="node2" class="node">
<title>Node2</title>
<g id="a_node2"><a xlink:title=" ">
<polygon fill="white" stroke="#bfbfbf" points="0,-280.5 0,-299.5 65,-299.5 65,-280.5 0,-280.5"/>
<text text-anchor="middle" x="32.5" y="-287.5" font-family="Helvetica,sans-Serif" font-size="10.00">functional</text>
</a>
</g>
</g>
<!-- Node1&#45;&gt;Node2 -->
<g id="edge1" class="edge">
<title>Node1&#45;&gt;Node2</title>
<path fill="none" stroke="midnightblue" d="M325.95,-408.96C229.03,-403.96 91.37,-390.78 51.5,-356 38.37,-344.54 34.07,-324.57 32.78,-309.77"/>
<polygon fill="midnightblue" stroke="midnightblue" points="36.28,-309.51 32.29,-299.7 29.28,-309.86 36.28,-309.51"/>
</g>
<!-- Node3 -->
<g id="node3" class="node">
<title>Node3</title>
<g id="a_node3"><a xlink:title=" ">
<polygon fill="white" stroke="#bfbfbf" points="799.5,-336.5 799.5,-355.5 855.5,-355.5 855.5,-336.5 799.5,-336.5"/>
<text text-anchor="middle" x="827.5" y="-343.5" font-family="Helvetica,sans-Serif" font-size="10.00">optional</text>
</a>
</g>
</g>
<!-- Node1&#45;&gt;Node3 -->
<g id="edge2" class="edge">
<title>Node1&#45;&gt;Node3</title>
<path fill="none" stroke="midnightblue" d="M527.34,-397.82C599.44,-387.31 698.66,-372.06 785.5,-356 786.74,-355.77 787.99,-355.53 789.26,-355.29"/>
<polygon fill="midnightblue" stroke="midnightblue" points="789.96,-358.72 799.08,-353.32 788.58,-351.86 789.96,-358.72"/>
</g>
<!-- Node4 -->
<g id="node4" class="node">
<title>Node4</title>
<g id="a_node4"><a xlink:href="$a00101.html" xlink:title=" ">
<polygon fill="white" stroke="black" points="387,-336.5 387,-355.5 466,-355.5 466,-336.5 387,-336.5"/>
<text text-anchor="middle" x="426.5" y="-343.5" font-family="Helvetica,sans-Serif" font-size="10.00">ICamera.hpp</text>
</a>
</g>
</g>
<!-- Node1&#45;&gt;Node4 -->
<g id="edge3" class="edge">
<title>Node1&#45;&gt;Node4</title>
<path fill="none" stroke="midnightblue" d="M426.5,-392.5C426.5,-384.07 426.5,-374.24 426.5,-365.87"/>
<polygon fill="midnightblue" stroke="midnightblue" points="430,-365.65 426.5,-355.65 423,-365.65 430,-365.65"/>
</g>
<!-- Node7 -->
<g id="node7" class="node">
<title>Node7</title>
<g id="a_node7"><a xlink:href="$a00122.html" xlink:title=" ">
<polygon fill="white" stroke="black" points="242,-168.5 242,-187.5 371,-187.5 371,-168.5 242,-168.5"/>
<text text-anchor="middle" x="306.5" y="-175.5" font-family="Helvetica,sans-Serif" font-size="10.00">Transform/Vector2i.hpp</text>
</a>
</g>
</g>
<!-- Node1&#45;&gt;Node7 -->
<g id="edge43" class="edge">
<title>Node1&#45;&gt;Node7</title>
<path fill="none" stroke="midnightblue" d="M389.45,-392.44C357.65,-373.45 313.7,-341.43 292.5,-300 277.09,-269.89 282.1,-257.21 288.5,-224 290.29,-214.7 293.98,-204.89 297.56,-196.8"/>
<polygon fill="midnightblue" stroke="midnightblue" points="300.77,-198.2 301.88,-187.66 294.44,-195.21 300.77,-198.2"/>
</g>
<!-- Node13 -->
<g id="node13" class="node">
<title>Node13</title>
<g id="a_node13"><a xlink:href="$a00233.html" xlink:title=" ">
<polygon fill="white" stroke="black" points="121.5,-224.5 121.5,-243.5 219.5,-243.5 219.5,-224.5 121.5,-224.5"/>
<text text-anchor="middle" x="170.5" y="-231.5" font-family="Helvetica,sans-Serif" font-size="10.00">IDisplayable.hpp</text>
</a>
</g>
</g>
<!-- Node1&#45;&gt;Node13 -->
<g id="edge38" class="edge">
<title>Node1&#45;&gt;Node13</title>
<path fill="none" stroke="midnightblue" d="M325.7,-398.4C272.28,-389.15 213.96,-375.1 195.5,-356 168.88,-328.46 167.23,-280.46 168.67,-253.95"/>
<polygon fill="midnightblue" stroke="midnightblue" points="172.18,-253.96 169.44,-243.73 165.2,-253.44 172.18,-253.96"/>
</g>
<!-- Node21 -->
<g id="node21" class="node">
<title>Node21</title>
<g id="a_node21"><a xlink:href="$a00236.html" xlink:title=" ">
<polygon fill="white" stroke="black" points="610,-280.5 610,-299.5 705,-299.5 705,-280.5 610,-280.5"/>
<text text-anchor="middle" x="657.5" y="-287.5" font-family="Helvetica,sans-Serif" font-size="10.00">ISceneState.hpp</text>
</a>
</g>
</g>
<!-- Node1&#45;&gt;Node21 -->
<g id="edge37" class="edge">
<title>Node1&#45;&gt;Node21</title>
<path fill="none" stroke="midnightblue" d="M463.87,-392.42C511.16,-367.66 591.33,-325.66 632.09,-304.31"/>
<polygon fill="midnightblue" stroke="midnightblue" points="633.86,-307.34 641.09,-299.6 630.61,-301.14 633.86,-307.34"/>
</g>
<!-- Node24 -->
<g id="node24" class="node">
<title>Node24</title>
<g id="a_node24"><a xlink:href="$a00125.html" xlink:title=" ">
<polygon fill="white" stroke="black" points="596,-168.5 596,-187.5 673,-187.5 673,-168.5 596,-168.5"/>
<text text-anchor="middle" x="634.5" y="-175.5" font-family="Helvetica,sans-Serif" font-size="10.00">Vector3f.hpp</text>
</a>
</g>
</g>
<!-- Node1&#45;&gt;Node24 -->
<g id="edge44" class="edge">
<title>Node1&#45;&gt;Node24</title>
<path fill="none" stroke="midnightblue" d="M527.02,-401.5C592.28,-388.88 672.7,-361.1 714.5,-300 733.57,-272.12 731.55,-253.16 714.5,-224 705.64,-208.85 689.59,-198.41 674.19,-191.42"/>
<polygon fill="midnightblue" stroke="midnightblue" points="675.33,-188.11 664.75,-187.51 672.65,-194.57 675.33,-188.11"/>
</g>
<!-- Node25 -->
<g id="node25" class="node">
<title>Node25</title>
<g id="a_node25"><a xlink:href="$a00152.html" xlink:title=" ">
<polygon fill="white" stroke="black" points="61,-336.5 61,-355.5 134,-355.5 134,-336.5 61,-336.5"/>
<text text-anchor="middle" x="97.5" y="-343.5" font-family="Helvetica,sans-Serif" font-size="10.00">ILogger.hpp</text>
</a>
</g>
</g>
<!-- Node1&#45;&gt;Node25 -->
<g id="edge34" class="edge">
<title>Node1&#45;&gt;Node25</title>
<path fill="none" stroke="midnightblue" d="M327.79,-392.5C266.95,-380.48 191.74,-365.62 144.18,-356.22"/>
<polygon fill="midnightblue" stroke="midnightblue" points="144.66,-352.75 134.18,-354.25 143.31,-359.62 144.66,-352.75"/>
</g>
<!-- Node26 -->
<g id="node26" class="node">
<title>Node26</title>
<g id="a_node26"><a xlink:href="$a00119.html" xlink:title=" ">
<polygon fill="white" stroke="black" points="761.5,-280.5 761.5,-299.5 847.5,-299.5 847.5,-280.5 761.5,-280.5"/>
<text text-anchor="middle" x="804.5" y="-287.5" font-family="Helvetica,sans-Serif" font-size="10.00">Transform.hpp</text>
</a>
</g>
</g>
<!-- Node1&#45;&gt;Node26 -->
<g id="edge39" class="edge">
<title>Node1&#45;&gt;Node26</title>
<path fill="none" stroke="midnightblue" d="M527,-401.84C606.66,-392.43 710.51,-376.78 747.5,-356 767.66,-344.68 784.19,-323.45 794.17,-308.33"/>
<polygon fill="midnightblue" stroke="midnightblue" points="797.14,-310.18 799.5,-299.86 791.22,-306.45 797.14,-310.18"/>
</g>
<!-- Node5 -->
<g id="node5" class="node">
<title>Node5</title>
<g id="a_node5"><a xlink:title=" ">
<polygon fill="white" stroke="#bfbfbf" points="470,-168.5 470,-187.5 523,-187.5 523,-168.5 470,-168.5"/>
<text text-anchor="middle" x="496.5" y="-175.5" font-family="Helvetica,sans-Serif" font-size="10.00">cstddef</text>
</a>
</g>
</g>
<!-- Node4&#45;&gt;Node5 -->
<g id="edge4" class="edge">
<title>Node4&#45;&gt;Node5</title>
<path fill="none" stroke="midnightblue" d="M432.42,-336.32C438.29,-327.47 447.28,-313.18 453.5,-300 470.08,-264.86 484.02,-221.48 491.22,-197.37"/>
<polygon fill="midnightblue" stroke="midnightblue" points="494.59,-198.32 494.05,-187.74 487.87,-196.35 494.59,-198.32"/>
</g>
<!-- Node6 -->
<g id="node6" class="node">
<title>Node6</title>
<g id="a_node6"><a xlink:title=" ">
<polygon fill="white" stroke="#bfbfbf" points="313.5,-280.5 313.5,-299.5 345.5,-299.5 345.5,-280.5 313.5,-280.5"/>
<text text-anchor="middle" x="329.5" y="-287.5" font-family="Helvetica,sans-Serif" font-size="10.00">list</text>
</a>
</g>
</g>
<!-- Node4&#45;&gt;Node6 -->
<g id="edge5" class="edge">
<title>Node4&#45;&gt;Node6</title>
<path fill="none" stroke="midnightblue" d="M410.92,-336.32C395.5,-327.74 371.69,-314.49 353.79,-304.52"/>
<polygon fill="midnightblue" stroke="midnightblue" points="355.49,-301.46 345.05,-299.65 352.08,-307.58 355.49,-301.46"/>
</g>
<!-- Node4&#45;&gt;Node7 -->
<g id="edge6" class="edge">
<title>Node4&#45;&gt;Node7</title>
<path fill="none" stroke="midnightblue" d="M386.96,-341.92C358.86,-337.42 322.96,-326.48 304.5,-300 283.15,-269.37 292.4,-222.96 300.06,-197.44"/>
<polygon fill="midnightblue" stroke="midnightblue" points="303.5,-198.19 303.25,-187.6 296.84,-196.03 303.5,-198.19"/>
</g>
<!-- Node4&#45;&gt;Node13 -->
<g id="edge13" class="edge">
<title>Node4&#45;&gt;Node13</title>
<path fill="none" stroke="midnightblue" d="M386.84,-336.83C354.84,-329.45 309.12,-317.12 271.5,-300 241.05,-286.14 209.1,-264.12 189.49,-249.62"/>
<polygon fill="midnightblue" stroke="midnightblue" points="191.49,-246.75 181.4,-243.54 187.29,-252.34 191.49,-246.75"/>
</g>
<!-- Node15 -->
<g id="node15" class="node">
<title>Node15</title>
<g id="a_node15"><a xlink:href="$a00158.html" xlink:title=" ">
<polygon fill="white" stroke="black" points="362.5,-224.5 362.5,-243.5 430.5,-243.5 430.5,-224.5 362.5,-224.5"/>
<text text-anchor="middle" x="396.5" y="-231.5" font-family="Helvetica,sans-Serif" font-size="10.00">Image.hpp</text>
</a>
</g>
</g>
<!-- Node4&#45;&gt;Node15 -->
<g id="edge16" class="edge">
<title>Node4&#45;&gt;Node15</title>
<path fill="none" stroke="midnightblue" d="M430.8,-336.29C436.48,-323.54 444.94,-299.21 437.5,-280 433.05,-268.5 424.13,-258.13 415.75,-250.25"/>
<polygon fill="midnightblue" stroke="midnightblue" points="417.87,-247.46 408.04,-243.51 413.26,-252.73 417.87,-247.46"/>
</g>
<!-- Node20 -->
<g id="node20" class="node">
<title>Node20</title>
<g id="a_node20"><a xlink:href="$a00149.html" xlink:title=" ">
<polygon fill="white" stroke="black" points="364,-280.5 364,-299.5 429,-299.5 429,-280.5 364,-280.5"/>
<text text-anchor="middle" x="396.5" y="-287.5" font-family="Helvetica,sans-Serif" font-size="10.00">IFilter.hpp</text>
</a>
</g>
</g>
<!-- Node4&#45;&gt;Node20 -->
<g id="edge26" class="edge">
<title>Node4&#45;&gt;Node20</title>
<path fill="none" stroke="midnightblue" d="M421.55,-336.08C417.4,-328.61 411.35,-317.72 406.23,-308.52"/>
<polygon fill="midnightblue" stroke="midnightblue" points="409.28,-306.79 401.36,-299.75 403.16,-310.19 409.28,-306.79"/>
</g>
<!-- Node4&#45;&gt;Node21 -->
<g id="edge28" class="edge">
<title>Node4&#45;&gt;Node21</title>
<path fill="none" stroke="midnightblue" d="M463.1,-336.44C503.23,-327.06 567.7,-311.99 611.28,-301.8"/>
<polygon fill="midnightblue" stroke="midnightblue" points="612.13,-305.2 621.07,-299.52 610.53,-298.38 612.13,-305.2"/>
</g>
<!-- Node22 -->
<g id="node22" class="node">
<title>Node22</title>
<g id="a_node22"><a xlink:href="$a00104.html" xlink:title=" ">
<polygon fill="white" stroke="black" points="523.5,-280.5 523.5,-299.5 591.5,-299.5 591.5,-280.5 523.5,-280.5"/>
<text text-anchor="middle" x="557.5" y="-287.5" font-family="Helvetica,sans-Serif" font-size="10.00">IEntity.hpp</text>
</a>
</g>
</g>
<!-- Node4&#45;&gt;Node22 -->
<g id="edge29" class="edge">
<title>Node4&#45;&gt;Node22</title>
<path fill="none" stroke="midnightblue" d="M447.26,-336.44C468.82,-327.56 502.76,-313.56 527.29,-303.45"/>
<polygon fill="midnightblue" stroke="midnightblue" points="528.93,-306.56 536.84,-299.52 526.26,-300.09 528.93,-306.56"/>
</g>
<!-- Node8 -->
<g id="node8" class="node">
<title>Node8</title>
<g id="a_node8"><a xlink:title=" ">
<polygon fill="white" stroke="#bfbfbf" points="546,-112.5 546,-131.5 603,-131.5 603,-112.5 546,-112.5"/>
<text text-anchor="middle" x="574.5" y="-119.5" font-family="Helvetica,sans-Serif" font-size="10.00">ostream</text>
</a>
</g>
</g>
<!-- Node7&#45;&gt;Node8 -->
<g id="edge7" class="edge">
<title>Node7&#45;&gt;Node8</title>
<path fill="none" stroke="midnightblue" d="M348.97,-168.44C400.36,-158.09 486.17,-140.8 535.81,-130.8"/>
<polygon fill="midnightblue" stroke="midnightblue" points="536.72,-134.18 545.83,-128.78 535.34,-127.32 536.72,-134.18"/>
</g>
<!-- Node9 -->
<g id="node9" class="node">
<title>Node9</title>
<g id="a_node9"><a xlink:href="$a00230.html" xlink:title=" ">
<polygon fill="white" stroke="black" points="196,-112.5 196,-131.5 267,-131.5 267,-112.5 196,-112.5"/>
<text text-anchor="middle" x="231.5" y="-119.5" font-family="Helvetica,sans-Serif" font-size="10.00">IConfig.hpp</text>
</a>
</g>
</g>
<!-- Node7&#45;&gt;Node9 -->
<g id="edge8" class="edge">
<title>Node7&#45;&gt;Node9</title>
<path fill="none" stroke="midnightblue" d="M294.45,-168.32C283.04,-160.11 265.67,-147.6 252.07,-137.81"/>
<polygon fill="midnightblue" stroke="midnightblue" points="253.93,-134.84 243.77,-131.83 249.84,-140.52 253.93,-134.84"/>
</g>
<!-- Node10 -->
<g id="node10" class="node">
<title>Node10</title>
<g id="a_node10"><a xlink:title=" ">
<polygon fill="white" stroke="#bfbfbf" points="202.5,-0.5 202.5,-19.5 260.5,-19.5 260.5,-0.5 202.5,-0.5"/>
<text text-anchor="middle" x="231.5" y="-7.5" font-family="Helvetica,sans-Serif" font-size="10.00">memory</text>
</a>
</g>
</g>
<!-- Node9&#45;&gt;Node10 -->
<g id="edge9" class="edge">
<title>Node9&#45;&gt;Node10</title>
<path fill="none" stroke="midnightblue" d="M231.5,-112.37C231.5,-94.62 231.5,-53.67 231.5,-29.6"/>
<polygon fill="midnightblue" stroke="midnightblue" points="235,-29.59 231.5,-19.59 228,-29.59 235,-29.59"/>
</g>
<!-- Node11 -->
<g id="node11" class="node">
<title>Node11</title>
<g id="a_node11"><a xlink:href="$a00239.html" xlink:title=" ">
<polygon fill="white" stroke="black" points="480,-56.5 480,-75.5 555,-75.5 555,-56.5 480,-56.5"/>
<text text-anchor="middle" x="517.5" y="-63.5" font-family="Helvetica,sans-Serif" font-size="10.00">ISetting.hpp</text>
</a>
</g>
</g>
<!-- Node9&#45;&gt;Node11 -->
<g id="edge10" class="edge">
<title>Node9&#45;&gt;Node11</title>
<path fill="none" stroke="midnightblue" d="M267.35,-113.79C270.45,-113.18 273.53,-112.57 276.5,-112 343.6,-99.03 421.35,-84.62 469.98,-75.69"/>
<polygon fill="midnightblue" stroke="midnightblue" points="470.7,-79.11 479.9,-73.87 469.43,-72.23 470.7,-79.11"/>
</g>
<!-- Node11&#45;&gt;Node10 -->
<g id="edge11" class="edge">
<title>Node11&#45;&gt;Node10</title>
<path fill="none" stroke="midnightblue" d="M479.82,-57.88C425.52,-47.63 325.78,-28.8 270.67,-18.4"/>
<polygon fill="midnightblue" stroke="midnightblue" points="271.08,-14.91 260.6,-16.49 269.78,-21.79 271.08,-14.91"/>
</g>
<!-- Node12 -->
<g id="node12" class="node">
<title>Node12</title>
<g id="a_node12"><a xlink:title=" ">
<polygon fill="white" stroke="#bfbfbf" points="476,-0.5 476,-19.5 559,-19.5 559,-0.5 476,-0.5"/>
<text text-anchor="middle" x="517.5" y="-7.5" font-family="Helvetica,sans-Serif" font-size="10.00">libconfig.h++</text>
</a>
</g>
</g>
<!-- Node11&#45;&gt;Node12 -->
<g id="edge12" class="edge">
<title>Node11&#45;&gt;Node12</title>
<path fill="none" stroke="midnightblue" d="M517.5,-56.08C517.5,-49.01 517.5,-38.86 517.5,-29.99"/>
<polygon fill="midnightblue" stroke="midnightblue" points="521,-29.75 517.5,-19.75 514,-29.75 521,-29.75"/>
</g>
<!-- Node13&#45;&gt;Node10 -->
<g id="edge14" class="edge">
<title>Node13&#45;&gt;Node10</title>
<path fill="none" stroke="midnightblue" d="M148.69,-224.45C133.56,-217.22 114.55,-205.26 105.5,-188 101.37,-180.13 102.55,-176.39 105.5,-168 126.92,-107.08 183.05,-52.32 212.64,-26.55"/>
<polygon fill="midnightblue" stroke="midnightblue" points="215.22,-28.95 220.56,-19.8 210.68,-23.62 215.22,-28.95"/>
</g>
<!-- Node14 -->
<g id="node14" class="node">
<title>Node14</title>
<g id="a_node14"><a xlink:title=" ">
<polygon fill="white" stroke="#bfbfbf" points="177,-168.5 177,-187.5 224,-187.5 224,-168.5 177,-168.5"/>
<text text-anchor="middle" x="200.5" y="-175.5" font-family="Helvetica,sans-Serif" font-size="10.00">vector</text>
</a>
</g>
</g>
<!-- Node13&#45;&gt;Node14 -->
<g id="edge15" class="edge">
<title>Node13&#45;&gt;Node14</title>
<path fill="none" stroke="midnightblue" d="M175.45,-224.08C179.6,-216.61 185.65,-205.72 190.77,-196.52"/>
<polygon fill="midnightblue" stroke="midnightblue" points="193.84,-198.19 195.64,-187.75 187.72,-194.79 193.84,-198.19"/>
</g>
<!-- Node15&#45;&gt;Node5 -->
<g id="edge17" class="edge">
<title>Node15&#45;&gt;Node5</title>
<path fill="none" stroke="midnightblue" d="M412.57,-224.32C428.46,-215.74 453.01,-202.49 471.46,-192.52"/>
<polygon fill="midnightblue" stroke="midnightblue" points="473.34,-195.49 480.47,-187.65 470.01,-189.33 473.34,-195.49"/>
</g>
<!-- Node15&#45;&gt;Node7 -->
<g id="edge25" class="edge">
<title>Node15&#45;&gt;Node7</title>
<path fill="none" stroke="midnightblue" d="M382.04,-224.32C368,-215.9 346.45,-202.97 329.96,-193.07"/>
<polygon fill="midnightblue" stroke="midnightblue" points="331.3,-189.8 320.92,-187.65 327.7,-195.8 331.3,-189.8"/>
</g>
<!-- Node15&#45;&gt;Node14 -->
<g id="edge19" class="edge">
<title>Node15&#45;&gt;Node14</title>
<path fill="none" stroke="midnightblue" d="M365.04,-224.43C334.02,-215.97 284.98,-202.55 234.11,-188.44"/>
<polygon fill="midnightblue" stroke="midnightblue" points="234.83,-185 224.26,-185.7 232.96,-191.75 234.83,-185"/>
</g>
<!-- Node16 -->
<g id="node16" class="node">
<title>Node16</title>
<g id="a_node16"><a xlink:title=" ">
<polygon fill="white" stroke="#bfbfbf" points="114.5,-168.5 114.5,-187.5 158.5,-187.5 158.5,-168.5 114.5,-168.5"/>
<text text-anchor="middle" x="136.5" y="-175.5" font-family="Helvetica,sans-Serif" font-size="10.00">string</text>
</a>
</g>
</g>
<!-- Node15&#45;&gt;Node16 -->
<g id="edge18" class="edge">
<title>Node15&#45;&gt;Node16</title>
<path fill="none" stroke="midnightblue" d="M362.15,-227.23C319.11,-219.78 242.92,-205.9 168.76,-188.14"/>
<polygon fill="midnightblue" stroke="midnightblue" points="169.33,-184.68 158.79,-185.73 167.68,-191.48 169.33,-184.68"/>
</g>
<!-- Node17 -->
<g id="node17" class="node">
<title>Node17</title>
<g id="a_node17"><a xlink:href="$a00155.html" xlink:title=" ">
<polygon fill="white" stroke="black" points="389.5,-168.5 389.5,-187.5 451.5,-187.5 451.5,-168.5 389.5,-168.5"/>
<text text-anchor="middle" x="420.5" y="-175.5" font-family="Helvetica,sans-Serif" font-size="10.00">Color.hpp</text>
</a>
</g>
</g>
<!-- Node15&#45;&gt;Node17 -->
<g id="edge20" class="edge">
<title>Node15&#45;&gt;Node17</title>
<path fill="none" stroke="midnightblue" d="M400.46,-224.08C403.71,-216.77 408.42,-206.18 412.45,-197.1"/>
<polygon fill="midnightblue" stroke="midnightblue" points="415.75,-198.31 416.61,-187.75 409.35,-195.47 415.75,-198.31"/>
</g>
<!-- Node17&#45;&gt;Node8 -->
<g id="edge22" class="edge">
<title>Node17&#45;&gt;Node8</title>
<path fill="none" stroke="midnightblue" d="M444.9,-168.44C470.7,-159.4 511.58,-145.06 540.52,-134.92"/>
<polygon fill="midnightblue" stroke="midnightblue" points="541.93,-138.13 550.21,-131.52 539.62,-131.52 541.93,-138.13"/>
</g>
<!-- Node17&#45;&gt;Node11 -->
<g id="edge24" class="edge">
<title>Node17&#45;&gt;Node11</title>
<path fill="none" stroke="midnightblue" d="M444.58,-168.43C461.65,-161.19 483.84,-149.23 497.5,-132 508.03,-118.71 513.04,-99.88 515.41,-85.9"/>
<polygon fill="midnightblue" stroke="midnightblue" points="518.89,-86.32 516.8,-75.93 511.95,-85.35 518.89,-86.32"/>
</g>
<!-- Node18 -->
<g id="node18" class="node">
<title>Node18</title>
<g id="a_node18"><a xlink:title=" ">
<polygon fill="white" stroke="#bfbfbf" points="285.5,-112.5 285.5,-131.5 333.5,-131.5 333.5,-112.5 285.5,-112.5"/>
<text text-anchor="middle" x="309.5" y="-119.5" font-family="Helvetica,sans-Serif" font-size="10.00">mutex</text>
</a>
</g>
</g>
<!-- Node17&#45;&gt;Node18 -->
<g id="edge21" class="edge">
<title>Node17&#45;&gt;Node18</title>
<path fill="none" stroke="midnightblue" d="M402.67,-168.32C384.78,-159.62 357.02,-146.12 336.45,-136.11"/>
<polygon fill="midnightblue" stroke="midnightblue" points="337.81,-132.88 327.29,-131.65 334.75,-139.18 337.81,-132.88"/>
</g>
<!-- Node19 -->
<g id="node19" class="node">
<title>Node19</title>
<g id="a_node19"><a xlink:title=" ">
<polygon fill="white" stroke="#bfbfbf" points="352,-112.5 352,-131.5 489,-131.5 489,-112.5 352,-112.5"/>
<text text-anchor="middle" x="420.5" y="-119.5" font-family="Helvetica,sans-Serif" font-size="10.00">SFML/Graphics/Color.hpp</text>
</a>
</g>
</g>
<!-- Node17&#45;&gt;Node19 -->
<g id="edge23" class="edge">
<title>Node17&#45;&gt;Node19</title>
<path fill="none" stroke="midnightblue" d="M420.5,-168.08C420.5,-161.01 420.5,-150.86 420.5,-141.99"/>
<polygon fill="midnightblue" stroke="midnightblue" points="424,-141.75 420.5,-131.75 417,-141.75 424,-141.75"/>
</g>
<!-- Node20&#45;&gt;Node15 -->
<g id="edge27" class="edge">
<title>Node20&#45;&gt;Node15</title>
<path fill="none" stroke="midnightblue" d="M396.5,-280.08C396.5,-273.01 396.5,-262.86 396.5,-253.99"/>
<polygon fill="midnightblue" stroke="midnightblue" points="400,-253.75 396.5,-243.75 393,-253.75 400,-253.75"/>
</g>
<!-- Node23 -->
<g id="node23" class="node">
<title>Node23</title>
<g id="a_node23"><a xlink:href="$a00116.html" xlink:title=" ">
<polygon fill="white" stroke="black" points="564,-224.5 564,-243.5 705,-243.5 705,-224.5 564,-224.5"/>
<text text-anchor="middle" x="634.5" y="-231.5" font-family="Helvetica,sans-Serif" font-size="10.00">Transform/ITransform.hpp</text>
</a>
</g>
</g>
<!-- Node22&#45;&gt;Node23 -->
<g id="edge30" class="edge">
<title>Node22&#45;&gt;Node23</title>
<path fill="none" stroke="midnightblue" d="M569.87,-280.32C581.66,-272.06 599.63,-259.45 613.64,-249.63"/>
<polygon fill="midnightblue" stroke="midnightblue" points="615.98,-252.26 622.16,-243.65 611.96,-246.53 615.98,-252.26"/>
</g>
<!-- Node23&#45;&gt;Node24 -->
<g id="edge31" class="edge">
<title>Node23&#45;&gt;Node24</title>
<path fill="none" stroke="midnightblue" d="M634.5,-224.08C634.5,-217.01 634.5,-206.86 634.5,-197.99"/>
<polygon fill="midnightblue" stroke="midnightblue" points="638,-197.75 634.5,-187.75 631,-197.75 638,-197.75"/>
</g>
<!-- Node24&#45;&gt;Node8 -->
<g id="edge32" class="edge">
<title>Node24&#45;&gt;Node8</title>
<path fill="none" stroke="midnightblue" d="M624.86,-168.32C615.99,-160.34 602.63,-148.31 591.89,-138.65"/>
<polygon fill="midnightblue" stroke="midnightblue" points="594.09,-135.92 584.32,-131.83 589.41,-141.13 594.09,-135.92"/>
</g>
<!-- Node24&#45;&gt;Node11 -->
<g id="edge33" class="edge">
<title>Node24&#45;&gt;Node11</title>
<path fill="none" stroke="midnightblue" d="M633.72,-168.35C632.06,-154.79 627.08,-128.37 612.5,-112 598.82,-96.63 578.76,-86.07 560.6,-79.07"/>
<polygon fill="midnightblue" stroke="midnightblue" points="561.64,-75.72 551.04,-75.63 559.27,-82.31 561.64,-75.72"/>
</g>
<!-- Node25&#45;&gt;Node2 -->
<g id="edge35" class="edge">
<title>Node25&#45;&gt;Node2</title>
<path fill="none" stroke="midnightblue" d="M87.06,-336.32C77.35,-328.26 62.68,-316.08 51,-306.37"/>
<polygon fill="midnightblue" stroke="midnightblue" points="53.06,-303.53 43.13,-299.83 48.59,-308.92 53.06,-303.53"/>
</g>
<!-- Node25&#45;&gt;Node16 -->
<g id="edge36" class="edge">
<title>Node25&#45;&gt;Node16</title>
<path fill="none" stroke="midnightblue" d="M97.5,-336.26C97.73,-316.02 99.66,-264.56 112.5,-224 115.57,-214.29 120.73,-204.23 125.48,-196.08"/>
<polygon fill="midnightblue" stroke="midnightblue" points="128.47,-197.9 130.71,-187.54 122.5,-194.24 128.47,-197.9"/>
</g>
<!-- Node26&#45;&gt;Node11 -->
<g id="edge41" class="edge">
<title>Node26&#45;&gt;Node11</title>
<path fill="none" stroke="midnightblue" d="M801.47,-280.33C796.58,-267.18 786.04,-241.87 771.5,-224 721.22,-162.19 700.44,-151.96 631.5,-112 607.45,-98.06 578.25,-86.62 555.42,-78.77"/>
<polygon fill="midnightblue" stroke="midnightblue" points="556.34,-75.39 545.75,-75.52 554.11,-82.02 556.34,-75.39"/>
</g>
<!-- Node26&#45;&gt;Node23 -->
<g id="edge40" class="edge">
<title>Node26&#45;&gt;Node23</title>
<path fill="none" stroke="midnightblue" d="M777.56,-280.44C748.84,-271.32 703.17,-256.81 671.18,-246.65"/>
<polygon fill="midnightblue" stroke="midnightblue" points="671.9,-243.21 661.31,-243.52 669.78,-249.88 671.9,-243.21"/>
</g>
<!-- Node26&#45;&gt;Node24 -->
<g id="edge42" class="edge">
<title>Node26&#45;&gt;Node24</title>
<path fill="none" stroke="midnightblue" d="M798.86,-280.25C789.64,-266.54 770.06,-239.93 747.5,-224 726.16,-208.93 699.07,-197.92 676.75,-190.56"/>
<polygon fill="midnightblue" stroke="midnightblue" points="677.79,-187.22 667.2,-187.53 675.67,-193.89 677.79,-187.22"/>
</g>
</g>
</svg>
