<?xml version="1.0" encoding="UTF-8" standalone="no"?>
<!DOCTYPE svg PUBLIC "-//W3C//DTD SVG 1.1//EN"
 "http://www.w3.org/Graphics/SVG/1.1/DTD/svg11.dtd">
<!-- Generated by graphviz version 2.43.0 (0)
 -->
<!-- Title: /home/runner/work/Raytracer/Raytracer/PluginsExt/Camera/Basic/CameraEntity.hpp Pages: 1 -->
<svg width="786pt" height="442pt"
 viewBox="0.00 0.00 785.50 442.00" xmlns="http://www.w3.org/2000/svg" xmlns:xlink="http://www.w3.org/1999/xlink">
<g id="graph0" class="graph" transform="scale(1 1) rotate(0) translate(4 438)">
<title>/home/runner/work/Raytracer/Raytracer/PluginsExt/Camera/Basic/CameraEntity.hpp</title>
<polygon fill="white" stroke="transparent" points="-4,4 -4,-438 781.5,-438 781.5,4 -4,4"/>
<!-- Node1 -->
<g id="node1" class="node">
<title>Node1</title>
<g id="a_node1"><a xlink:title=" ">
<polygon fill="#bfbfbf" stroke="black" points="96.5,-392.5 96.5,-433.5 258.5,-433.5 258.5,-392.5 96.5,-392.5"/>
<text text-anchor="start" x="104.5" y="-421.5" font-family="Helvetica,sans-Serif" font-size="10.00">/home/runner/work/Raytracer</text>
<text text-anchor="start" x="104.5" y="-410.5" font-family="Helvetica,sans-Serif" font-size="10.00">/Raytracer/PluginsExt/Camera</text>
<text text-anchor="middle" x="177.5" y="-399.5" font-family="Helvetica,sans-Serif" font-size="10.00">/Basic/CameraEntity.hpp</text>
</a>
</g>
</g>
<!-- Node2 -->
<g id="node2" class="node">
<title>Node2</title>
<g id="a_node2"><a xlink:title=" ">
<polygon fill="white" stroke="#bfbfbf" points="186,-168.5 186,-187.5 239,-187.5 239,-168.5 186,-168.5"/>
<text text-anchor="middle" x="212.5" y="-175.5" font-family="Helvetica,sans-Serif" font-size="10.00">cstddef</text>
</a>
</g>
</g>
<!-- Node1&#45;&gt;Node2 -->
<g id="edge1" class="edge">
<title>Node1&#45;&gt;Node2</title>
<path fill="none" stroke="midnightblue" d="M180.48,-392.13C187.16,-347.68 203.23,-240.73 209.71,-197.54"/>
<polygon fill="midnightblue" stroke="midnightblue" points="213.19,-198 211.21,-187.59 206.26,-196.96 213.19,-198"/>
</g>
<!-- Node3 -->
<g id="node3" class="node">
<title>Node3</title>
<g id="a_node3"><a xlink:title=" ">
<polygon fill="white" stroke="#bfbfbf" points="46,-280.5 46,-299.5 111,-299.5 111,-280.5 46,-280.5"/>
<text text-anchor="middle" x="78.5" y="-287.5" font-family="Helvetica,sans-Serif" font-size="10.00">functional</text>
</a>
</g>
</g>
<!-- Node1&#45;&gt;Node3 -->
<g id="edge2" class="edge">
<title>Node1&#45;&gt;Node3</title>
<path fill="none" stroke="midnightblue" d="M158.11,-392.32C148.06,-381.82 135.77,-368.51 125.5,-356 112.7,-340.41 99.34,-321.65 90.15,-308.3"/>
<polygon fill="midnightblue" stroke="midnightblue" points="92.79,-305.95 84.26,-299.66 87,-309.9 92.79,-305.95"/>
</g>
<!-- Node4 -->
<g id="node4" class="node">
<title>Node4</title>
<g id="a_node4"><a xlink:href="$a00107.html" xlink:title=" ">
<polygon fill="white" stroke="black" points="313,-336.5 313,-355.5 392,-355.5 392,-336.5 313,-336.5"/>
<text text-anchor="middle" x="352.5" y="-343.5" font-family="Helvetica,sans-Serif" font-size="10.00">ICamera.hpp</text>
</a>
</g>
</g>
<!-- Node1&#45;&gt;Node4 -->
<g id="edge3" class="edge">
<title>Node1&#45;&gt;Node4</title>
<path fill="none" stroke="midnightblue" d="M230.01,-392.5C259.16,-381.67 294.52,-368.54 319.74,-359.17"/>
<polygon fill="midnightblue" stroke="midnightblue" points="321.05,-362.42 329.2,-355.65 318.61,-355.85 321.05,-362.42"/>
</g>
<!-- Node12 -->
<g id="node12" class="node">
<title>Node12</title>
<g id="a_node12"><a xlink:href="$a00239.html" xlink:title=" ">
<polygon fill="white" stroke="black" points="51.5,-224.5 51.5,-243.5 149.5,-243.5 149.5,-224.5 51.5,-224.5"/>
<text text-anchor="middle" x="100.5" y="-231.5" font-family="Helvetica,sans-Serif" font-size="10.00">IDisplayable.hpp</text>
</a>
</g>
</g>
<!-- Node1&#45;&gt;Node12 -->
<g id="edge39" class="edge">
<title>Node1&#45;&gt;Node12</title>
<path fill="none" stroke="midnightblue" d="M168.97,-392.38C153.91,-357.78 122.87,-286.43 108.33,-253.01"/>
<polygon fill="midnightblue" stroke="midnightblue" points="111.43,-251.36 104.23,-243.58 105.01,-254.15 111.43,-251.36"/>
</g>
<!-- Node20 -->
<g id="node20" class="node">
<title>Node20</title>
<g id="a_node20"><a xlink:href="$a00242.html" xlink:title=" ">
<polygon fill="white" stroke="black" points="578,-280.5 578,-299.5 673,-299.5 673,-280.5 578,-280.5"/>
<text text-anchor="middle" x="625.5" y="-287.5" font-family="Helvetica,sans-Serif" font-size="10.00">ISceneState.hpp</text>
</a>
</g>
</g>
<!-- Node1&#45;&gt;Node20 -->
<g id="edge38" class="edge">
<title>Node1&#45;&gt;Node20</title>
<path fill="none" stroke="midnightblue" d="M258.19,-392.46C300.63,-382 353.48,-368.69 400.5,-356 466.42,-338.21 542.67,-315.79 587.33,-302.47"/>
<polygon fill="midnightblue" stroke="midnightblue" points="588.6,-305.75 597.18,-299.53 586.59,-299.04 588.6,-305.75"/>
</g>
<!-- Node24 -->
<g id="node24" class="node">
<title>Node24</title>
<g id="a_node24"><a xlink:href="$a00158.html" xlink:title=" ">
<polygon fill="white" stroke="black" points="0,-336.5 0,-355.5 73,-355.5 73,-336.5 0,-336.5"/>
<text text-anchor="middle" x="36.5" y="-343.5" font-family="Helvetica,sans-Serif" font-size="10.00">ILogger.hpp</text>
</a>
</g>
</g>
<!-- Node1&#45;&gt;Node24 -->
<g id="edge35" class="edge">
<title>Node1&#45;&gt;Node24</title>
<path fill="none" stroke="midnightblue" d="M135.2,-392.5C112.33,-381.96 84.73,-369.23 64.53,-359.92"/>
<polygon fill="midnightblue" stroke="midnightblue" points="65.82,-356.66 55.27,-355.65 62.89,-363.02 65.82,-356.66"/>
</g>
<!-- Node25 -->
<g id="node25" class="node">
<title>Node25</title>
<g id="a_node25"><a xlink:href="$a00125.html" xlink:title=" ">
<polygon fill="white" stroke="black" points="691.5,-280.5 691.5,-299.5 777.5,-299.5 777.5,-280.5 691.5,-280.5"/>
<text text-anchor="middle" x="734.5" y="-287.5" font-family="Helvetica,sans-Serif" font-size="10.00">Transform.hpp</text>
</a>
</g>
</g>
<!-- Node1&#45;&gt;Node25 -->
<g id="edge40" class="edge">
<title>Node1&#45;&gt;Node25</title>
<path fill="none" stroke="midnightblue" d="M258.53,-395.79C312.66,-384.84 385.42,-369.9 449.5,-356 533.78,-337.72 631.74,-315.07 688.09,-301.9"/>
<polygon fill="midnightblue" stroke="midnightblue" points="689.17,-305.24 698.11,-299.56 687.58,-298.43 689.17,-305.24"/>
</g>
<!-- Node4&#45;&gt;Node2 -->
<g id="edge4" class="edge">
<title>Node4&#45;&gt;Node2</title>
<path fill="none" stroke="midnightblue" d="M341.84,-336.21C331.55,-327.49 315.76,-313.52 303.5,-300 272.02,-265.27 240.24,-220.21 223.85,-196.07"/>
<polygon fill="midnightblue" stroke="midnightblue" points="226.66,-193.97 218.18,-187.63 220.86,-197.88 226.66,-193.97"/>
</g>
<!-- Node5 -->
<g id="node5" class="node">
<title>Node5</title>
<g id="a_node5"><a xlink:title=" ">
<polygon fill="white" stroke="#bfbfbf" points="441.5,-280.5 441.5,-299.5 473.5,-299.5 473.5,-280.5 441.5,-280.5"/>
<text text-anchor="middle" x="457.5" y="-287.5" font-family="Helvetica,sans-Serif" font-size="10.00">list</text>
</a>
</g>
</g>
<!-- Node4&#45;&gt;Node5 -->
<g id="edge5" class="edge">
<title>Node4&#45;&gt;Node5</title>
<path fill="none" stroke="midnightblue" d="M369.37,-336.32C386.41,-327.56 412.93,-313.92 432.43,-303.9"/>
<polygon fill="midnightblue" stroke="midnightblue" points="434.07,-306.99 441.36,-299.3 430.87,-300.76 434.07,-306.99"/>
</g>
<!-- Node6 -->
<g id="node6" class="node">
<title>Node6</title>
<g id="a_node6"><a xlink:href="$a00128.html" xlink:title=" ">
<polygon fill="white" stroke="black" points="392,-168.5 392,-187.5 521,-187.5 521,-168.5 392,-168.5"/>
<text text-anchor="middle" x="456.5" y="-175.5" font-family="Helvetica,sans-Serif" font-size="10.00">Transform/Vector2i.hpp</text>
</a>
</g>
</g>
<!-- Node4&#45;&gt;Node6 -->
<g id="edge6" class="edge">
<title>Node4&#45;&gt;Node6</title>
<path fill="none" stroke="midnightblue" d="M361.72,-336.28C370.56,-327.62 383.94,-313.69 393.5,-300 417.36,-265.83 438.18,-221.47 448.87,-197.07"/>
<polygon fill="midnightblue" stroke="midnightblue" points="452.19,-198.21 452.93,-187.64 445.76,-195.44 452.19,-198.21"/>
</g>
<!-- Node4&#45;&gt;Node12 -->
<g id="edge13" class="edge">
<title>Node4&#45;&gt;Node12</title>
<path fill="none" stroke="midnightblue" d="M329.83,-336.42C306.9,-327.64 270.51,-313.41 239.5,-300 199.91,-282.88 154.8,-261.41 126.98,-247.95"/>
<polygon fill="midnightblue" stroke="midnightblue" points="128.43,-244.76 117.91,-243.54 125.37,-251.06 128.43,-244.76"/>
</g>
<!-- Node14 -->
<g id="node14" class="node">
<title>Node14</title>
<g id="a_node14"><a xlink:href="$a00164.html" xlink:title=" ">
<polygon fill="white" stroke="black" points="281.5,-224.5 281.5,-243.5 349.5,-243.5 349.5,-224.5 281.5,-224.5"/>
<text text-anchor="middle" x="315.5" y="-231.5" font-family="Helvetica,sans-Serif" font-size="10.00">Image.hpp</text>
</a>
</g>
</g>
<!-- Node4&#45;&gt;Node14 -->
<g id="edge16" class="edge">
<title>Node4&#45;&gt;Node14</title>
<path fill="none" stroke="midnightblue" d="M340.29,-336.24C330.15,-328.14 316.46,-315.11 310.5,-300 304.66,-285.19 306.75,-267.04 309.81,-253.68"/>
<polygon fill="midnightblue" stroke="midnightblue" points="313.26,-254.34 312.46,-243.77 306.5,-252.53 313.26,-254.34"/>
</g>
<!-- Node19 -->
<g id="node19" class="node">
<title>Node19</title>
<g id="a_node19"><a xlink:href="$a00155.html" xlink:title=" ">
<polygon fill="white" stroke="black" points="320,-280.5 320,-299.5 385,-299.5 385,-280.5 320,-280.5"/>
<text text-anchor="middle" x="352.5" y="-287.5" font-family="Helvetica,sans-Serif" font-size="10.00">IFilter.hpp</text>
</a>
</g>
</g>
<!-- Node4&#45;&gt;Node19 -->
<g id="edge27" class="edge">
<title>Node4&#45;&gt;Node19</title>
<path fill="none" stroke="midnightblue" d="M352.5,-336.08C352.5,-329.01 352.5,-318.86 352.5,-309.99"/>
<polygon fill="midnightblue" stroke="midnightblue" points="356,-309.75 352.5,-299.75 349,-309.75 356,-309.75"/>
</g>
<!-- Node4&#45;&gt;Node20 -->
<g id="edge29" class="edge">
<title>Node4&#45;&gt;Node20</title>
<path fill="none" stroke="midnightblue" d="M392.2,-337.15C439.71,-327.75 519.46,-311.97 572.28,-301.53"/>
<polygon fill="midnightblue" stroke="midnightblue" points="573.01,-304.95 582.15,-299.58 571.66,-298.08 573.01,-304.95"/>
</g>
<!-- Node21 -->
<g id="node21" class="node">
<title>Node21</title>
<g id="a_node21"><a xlink:href="$a00110.html" xlink:title=" ">
<polygon fill="white" stroke="black" points="491.5,-280.5 491.5,-299.5 559.5,-299.5 559.5,-280.5 491.5,-280.5"/>
<text text-anchor="middle" x="525.5" y="-287.5" font-family="Helvetica,sans-Serif" font-size="10.00">IEntity.hpp</text>
</a>
</g>
</g>
<!-- Node4&#45;&gt;Node21 -->
<g id="edge30" class="edge">
<title>Node4&#45;&gt;Node21</title>
<path fill="none" stroke="midnightblue" d="M379.91,-336.44C409.27,-327.28 456.02,-312.69 488.6,-302.52"/>
<polygon fill="midnightblue" stroke="midnightblue" points="489.71,-305.84 498.22,-299.52 487.63,-299.16 489.71,-305.84"/>
</g>
<!-- Node7 -->
<g id="node7" class="node">
<title>Node7</title>
<g id="a_node7"><a xlink:title=" ">
<polygon fill="white" stroke="#bfbfbf" points="443,-112.5 443,-131.5 500,-131.5 500,-112.5 443,-112.5"/>
<text text-anchor="middle" x="471.5" y="-119.5" font-family="Helvetica,sans-Serif" font-size="10.00">ostream</text>
</a>
</g>
</g>
<!-- Node6&#45;&gt;Node7 -->
<g id="edge7" class="edge">
<title>Node6&#45;&gt;Node7</title>
<path fill="none" stroke="midnightblue" d="M458.98,-168.08C460.99,-160.85 463.89,-150.41 466.39,-141.4"/>
<polygon fill="midnightblue" stroke="midnightblue" points="469.76,-142.32 469.07,-131.75 463.02,-140.45 469.76,-142.32"/>
</g>
<!-- Node8 -->
<g id="node8" class="node">
<title>Node8</title>
<g id="a_node8"><a xlink:href="$a00236.html" xlink:title=" ">
<polygon fill="white" stroke="black" points="518,-112.5 518,-131.5 589,-131.5 589,-112.5 518,-112.5"/>
<text text-anchor="middle" x="553.5" y="-119.5" font-family="Helvetica,sans-Serif" font-size="10.00">IConfig.hpp</text>
</a>
</g>
</g>
<!-- Node6&#45;&gt;Node8 -->
<g id="edge8" class="edge">
<title>Node6&#45;&gt;Node8</title>
<path fill="none" stroke="midnightblue" d="M472.08,-168.32C487.5,-159.74 511.31,-146.49 529.21,-136.52"/>
<polygon fill="midnightblue" stroke="midnightblue" points="530.92,-139.58 537.95,-131.65 527.51,-133.46 530.92,-139.58"/>
</g>
<!-- Node9 -->
<g id="node9" class="node">
<title>Node9</title>
<g id="a_node9"><a xlink:title=" ">
<polygon fill="white" stroke="#bfbfbf" points="473.5,-0.5 473.5,-19.5 531.5,-19.5 531.5,-0.5 473.5,-0.5"/>
<text text-anchor="middle" x="502.5" y="-7.5" font-family="Helvetica,sans-Serif" font-size="10.00">memory</text>
</a>
</g>
</g>
<!-- Node8&#45;&gt;Node9 -->
<g id="edge9" class="edge">
<title>Node8&#45;&gt;Node9</title>
<path fill="none" stroke="midnightblue" d="M549.5,-112.37C541.19,-94.46 521.94,-52.92 510.82,-28.95"/>
<polygon fill="midnightblue" stroke="midnightblue" points="513.86,-27.19 506.48,-19.59 507.51,-30.14 513.86,-27.19"/>
</g>
<!-- Node10 -->
<g id="node10" class="node">
<title>Node10</title>
<g id="a_node10"><a xlink:href="$a00245.html" xlink:title=" ">
<polygon fill="white" stroke="black" points="548,-56.5 548,-75.5 623,-75.5 623,-56.5 548,-56.5"/>
<text text-anchor="middle" x="585.5" y="-63.5" font-family="Helvetica,sans-Serif" font-size="10.00">ISetting.hpp</text>
</a>
</g>
</g>
<!-- Node8&#45;&gt;Node10 -->
<g id="edge10" class="edge">
<title>Node8&#45;&gt;Node10</title>
<path fill="none" stroke="midnightblue" d="M558.78,-112.08C563.21,-104.61 569.66,-93.72 575.12,-84.52"/>
<polygon fill="midnightblue" stroke="midnightblue" points="578.23,-86.14 580.31,-75.75 572.21,-82.57 578.23,-86.14"/>
</g>
<!-- Node10&#45;&gt;Node9 -->
<g id="edge11" class="edge">
<title>Node10&#45;&gt;Node9</title>
<path fill="none" stroke="midnightblue" d="M572.16,-56.32C559.34,-47.98 539.72,-35.21 524.56,-25.35"/>
<polygon fill="midnightblue" stroke="midnightblue" points="526.09,-22.17 515.8,-19.65 522.28,-28.04 526.09,-22.17"/>
</g>
<!-- Node11 -->
<g id="node11" class="node">
<title>Node11</title>
<g id="a_node11"><a xlink:title=" ">
<polygon fill="white" stroke="#bfbfbf" points="550,-0.5 550,-19.5 633,-19.5 633,-0.5 550,-0.5"/>
<text text-anchor="middle" x="591.5" y="-7.5" font-family="Helvetica,sans-Serif" font-size="10.00">libconfig.h++</text>
</a>
</g>
</g>
<!-- Node10&#45;&gt;Node11 -->
<g id="edge12" class="edge">
<title>Node10&#45;&gt;Node11</title>
<path fill="none" stroke="midnightblue" d="M586.49,-56.08C587.29,-48.93 588.43,-38.64 589.42,-29.69"/>
<polygon fill="midnightblue" stroke="midnightblue" points="592.9,-30.08 590.53,-19.75 585.94,-29.3 592.9,-30.08"/>
</g>
<!-- Node12&#45;&gt;Node9 -->
<g id="edge14" class="edge">
<title>Node12&#45;&gt;Node9</title>
<path fill="none" stroke="midnightblue" d="M98.3,-224.43C93.29,-202.72 83.5,-144.95 111.5,-112 157.3,-58.1 373.78,-26.43 463.45,-15.42"/>
<polygon fill="midnightblue" stroke="midnightblue" points="463.98,-18.88 473.49,-14.21 463.14,-11.93 463.98,-18.88"/>
</g>
<!-- Node13 -->
<g id="node13" class="node">
<title>Node13</title>
<g id="a_node13"><a xlink:title=" ">
<polygon fill="white" stroke="#bfbfbf" points="121,-168.5 121,-187.5 168,-187.5 168,-168.5 121,-168.5"/>
<text text-anchor="middle" x="144.5" y="-175.5" font-family="Helvetica,sans-Serif" font-size="10.00">vector</text>
</a>
</g>
</g>
<!-- Node12&#45;&gt;Node13 -->
<g id="edge15" class="edge">
<title>Node12&#45;&gt;Node13</title>
<path fill="none" stroke="midnightblue" d="M107.77,-224.08C114.04,-216.38 123.29,-205.03 130.93,-195.65"/>
<polygon fill="midnightblue" stroke="midnightblue" points="133.77,-197.71 137.37,-187.75 128.34,-193.29 133.77,-197.71"/>
</g>
<!-- Node14&#45;&gt;Node2 -->
<g id="edge17" class="edge">
<title>Node14&#45;&gt;Node2</title>
<path fill="none" stroke="midnightblue" d="M298.95,-224.32C282.51,-215.7 257.07,-202.36 238.03,-192.39"/>
<polygon fill="midnightblue" stroke="midnightblue" points="239.49,-189.2 229.01,-187.65 236.24,-195.4 239.49,-189.2"/>
</g>
<!-- Node14&#45;&gt;Node6 -->
<g id="edge26" class="edge">
<title>Node14&#45;&gt;Node6</title>
<path fill="none" stroke="midnightblue" d="M337.84,-224.44C361.25,-215.48 398.24,-201.31 424.69,-191.18"/>
<polygon fill="midnightblue" stroke="midnightblue" points="426.18,-194.36 434.26,-187.52 423.67,-187.82 426.18,-194.36"/>
</g>
<!-- Node14&#45;&gt;Node13 -->
<g id="edge19" class="edge">
<title>Node14&#45;&gt;Node13</title>
<path fill="none" stroke="midnightblue" d="M288.4,-224.44C258.49,-215 210.31,-199.78 178.04,-189.59"/>
<polygon fill="midnightblue" stroke="midnightblue" points="178.75,-186.15 168.16,-186.47 176.65,-192.82 178.75,-186.15"/>
</g>
<!-- Node15 -->
<g id="node15" class="node">
<title>Node15</title>
<g id="a_node15"><a xlink:title=" ">
<polygon fill="white" stroke="#bfbfbf" points="120.5,-112.5 120.5,-131.5 164.5,-131.5 164.5,-112.5 120.5,-112.5"/>
<text text-anchor="middle" x="142.5" y="-119.5" font-family="Helvetica,sans-Serif" font-size="10.00">string</text>
</a>
</g>
</g>
<!-- Node14&#45;&gt;Node15 -->
<g id="edge18" class="edge">
<title>Node14&#45;&gt;Node15</title>
<path fill="none" stroke="midnightblue" d="M308.34,-224.4C296.73,-210.9 272.57,-184.57 247.5,-168 224.64,-152.9 195.89,-140.99 174.25,-133.23"/>
<polygon fill="midnightblue" stroke="midnightblue" points="175.15,-129.84 164.55,-129.86 172.85,-136.45 175.15,-129.84"/>
</g>
<!-- Node16 -->
<g id="node16" class="node">
<title>Node16</title>
<g id="a_node16"><a xlink:href="$a00161.html" xlink:title=" ">
<polygon fill="white" stroke="black" points="295.5,-168.5 295.5,-187.5 357.5,-187.5 357.5,-168.5 295.5,-168.5"/>
<text text-anchor="middle" x="326.5" y="-175.5" font-family="Helvetica,sans-Serif" font-size="10.00">Color.hpp</text>
</a>
</g>
</g>
<!-- Node14&#45;&gt;Node16 -->
<g id="edge20" class="edge">
<title>Node14&#45;&gt;Node16</title>
<path fill="none" stroke="midnightblue" d="M317.32,-224.08C318.77,-216.93 320.87,-206.64 322.69,-197.69"/>
<polygon fill="midnightblue" stroke="midnightblue" points="326.15,-198.25 324.72,-187.75 319.29,-196.85 326.15,-198.25"/>
</g>
<!-- Node16&#45;&gt;Node7 -->
<g id="edge22" class="edge">
<title>Node16&#45;&gt;Node7</title>
<path fill="none" stroke="midnightblue" d="M349.48,-168.44C373.66,-159.44 411.92,-145.19 439.15,-135.05"/>
<polygon fill="midnightblue" stroke="midnightblue" points="440.48,-138.29 448.63,-131.52 438.04,-131.73 440.48,-138.29"/>
</g>
<!-- Node16&#45;&gt;Node10 -->
<g id="edge25" class="edge">
<title>Node16&#45;&gt;Node10</title>
<path fill="none" stroke="midnightblue" d="M338.45,-168.31C357.65,-154.69 396.93,-128.19 433.5,-112 467.19,-97.08 507.21,-85.46 537.72,-77.77"/>
<polygon fill="midnightblue" stroke="midnightblue" points="538.82,-81.1 547.69,-75.31 537.14,-74.31 538.82,-81.1"/>
</g>
<!-- Node16&#45;&gt;Node15 -->
<g id="edge24" class="edge">
<title>Node16&#45;&gt;Node15</title>
<path fill="none" stroke="midnightblue" d="M297.34,-168.44C263.77,-158.59 208.82,-142.46 174.2,-132.3"/>
<polygon fill="midnightblue" stroke="midnightblue" points="175.17,-128.94 164.59,-129.48 173.2,-135.66 175.17,-128.94"/>
</g>
<!-- Node17 -->
<g id="node17" class="node">
<title>Node17</title>
<g id="a_node17"><a xlink:title=" ">
<polygon fill="white" stroke="#bfbfbf" points="182.5,-112.5 182.5,-131.5 230.5,-131.5 230.5,-112.5 182.5,-112.5"/>
<text text-anchor="middle" x="206.5" y="-119.5" font-family="Helvetica,sans-Serif" font-size="10.00">mutex</text>
</a>
</g>
</g>
<!-- Node16&#45;&gt;Node17 -->
<g id="edge21" class="edge">
<title>Node16&#45;&gt;Node17</title>
<path fill="none" stroke="midnightblue" d="M307.49,-168.44C287.91,-159.64 257.19,-145.81 234.77,-135.72"/>
<polygon fill="midnightblue" stroke="midnightblue" points="235.98,-132.43 225.43,-131.52 233.11,-138.81 235.98,-132.43"/>
</g>
<!-- Node18 -->
<g id="node18" class="node">
<title>Node18</title>
<g id="a_node18"><a xlink:title=" ">
<polygon fill="white" stroke="#bfbfbf" points="249,-112.5 249,-131.5 386,-131.5 386,-112.5 249,-112.5"/>
<text text-anchor="middle" x="317.5" y="-119.5" font-family="Helvetica,sans-Serif" font-size="10.00">SFML/Graphics/Color.hpp</text>
</a>
</g>
</g>
<!-- Node16&#45;&gt;Node18 -->
<g id="edge23" class="edge">
<title>Node16&#45;&gt;Node18</title>
<path fill="none" stroke="midnightblue" d="M325.01,-168.08C323.82,-160.93 322.11,-150.64 320.62,-141.69"/>
<polygon fill="midnightblue" stroke="midnightblue" points="324.05,-141.04 318.96,-131.75 317.15,-142.19 324.05,-141.04"/>
</g>
<!-- Node19&#45;&gt;Node14 -->
<g id="edge28" class="edge">
<title>Node19&#45;&gt;Node14</title>
<path fill="none" stroke="midnightblue" d="M346.39,-280.08C341.22,-272.53 333.65,-261.49 327.31,-252.23"/>
<polygon fill="midnightblue" stroke="midnightblue" points="330.04,-250.02 321.5,-243.75 324.26,-253.98 330.04,-250.02"/>
</g>
<!-- Node22 -->
<g id="node22" class="node">
<title>Node22</title>
<g id="a_node22"><a xlink:href="$a00122.html" xlink:title=" ">
<polygon fill="white" stroke="black" points="527,-224.5 527,-243.5 668,-243.5 668,-224.5 527,-224.5"/>
<text text-anchor="middle" x="597.5" y="-231.5" font-family="Helvetica,sans-Serif" font-size="10.00">Transform/ITransform.hpp</text>
</a>
</g>
</g>
<!-- Node21&#45;&gt;Node22 -->
<g id="edge31" class="edge">
<title>Node21&#45;&gt;Node22</title>
<path fill="none" stroke="midnightblue" d="M537.07,-280.32C547.92,-272.18 564.38,-259.84 577.38,-250.09"/>
<polygon fill="midnightblue" stroke="midnightblue" points="579.82,-252.63 585.72,-243.83 575.62,-247.03 579.82,-252.63"/>
</g>
<!-- Node23 -->
<g id="node23" class="node">
<title>Node23</title>
<g id="a_node23"><a xlink:href="$a00131.html" xlink:title=" ">
<polygon fill="white" stroke="black" points="567,-168.5 567,-187.5 644,-187.5 644,-168.5 567,-168.5"/>
<text text-anchor="middle" x="605.5" y="-175.5" font-family="Helvetica,sans-Serif" font-size="10.00">Vector3f.hpp</text>
</a>
</g>
</g>
<!-- Node22&#45;&gt;Node23 -->
<g id="edge32" class="edge">
<title>Node22&#45;&gt;Node23</title>
<path fill="none" stroke="midnightblue" d="M598.82,-224.08C599.88,-216.93 601.41,-206.64 602.73,-197.69"/>
<polygon fill="midnightblue" stroke="midnightblue" points="606.2,-198.16 604.2,-187.75 599.28,-197.13 606.2,-198.16"/>
</g>
<!-- Node23&#45;&gt;Node7 -->
<g id="edge33" class="edge">
<title>Node23&#45;&gt;Node7</title>
<path fill="none" stroke="midnightblue" d="M584.27,-168.44C562.12,-159.52 527.18,-145.44 502.06,-135.32"/>
<polygon fill="midnightblue" stroke="midnightblue" points="503.22,-132.01 492.63,-131.52 500.6,-138.5 503.22,-132.01"/>
</g>
<!-- Node23&#45;&gt;Node10 -->
<g id="edge34" class="edge">
<title>Node23&#45;&gt;Node10</title>
<path fill="none" stroke="midnightblue" d="M605.03,-168.1C604.26,-155.5 602.4,-131.82 598.5,-112 596.73,-103.01 594,-93.22 591.5,-85.07"/>
<polygon fill="midnightblue" stroke="midnightblue" points="594.82,-83.98 588.44,-75.52 588.16,-86.11 594.82,-83.98"/>
</g>
<!-- Node24&#45;&gt;Node3 -->
<g id="edge36" class="edge">
<title>Node24&#45;&gt;Node3</title>
<path fill="none" stroke="midnightblue" d="M43.44,-336.08C49.43,-328.38 58.25,-317.03 65.55,-307.65"/>
<polygon fill="midnightblue" stroke="midnightblue" points="68.32,-309.79 71.69,-299.75 62.79,-305.5 68.32,-309.79"/>
</g>
<!-- Node24&#45;&gt;Node15 -->
<g id="edge37" class="edge">
<title>Node24&#45;&gt;Node15</title>
<path fill="none" stroke="midnightblue" d="M34.75,-336.24C31.07,-315.53 24.27,-262.37 42.5,-224 60.15,-186.85 97.22,-155.25 120.93,-137.73"/>
<polygon fill="midnightblue" stroke="midnightblue" points="123.22,-140.4 129.3,-131.72 119.13,-134.71 123.22,-140.4"/>
</g>
<!-- Node25&#45;&gt;Node10 -->
<g id="edge42" class="edge">
<title>Node25&#45;&gt;Node10</title>
<path fill="none" stroke="midnightblue" d="M730.67,-280.34C724.92,-267.64 713.47,-243.38 701.5,-224 668.41,-170.4 622.21,-111.86 599.39,-83.82"/>
<polygon fill="midnightblue" stroke="midnightblue" points="601.89,-81.35 592.85,-75.83 596.48,-85.78 601.89,-81.35"/>
</g>
<!-- Node25&#45;&gt;Node22 -->
<g id="edge41" class="edge">
<title>Node25&#45;&gt;Node22</title>
<path fill="none" stroke="midnightblue" d="M712.79,-280.44C690.15,-271.52 654.43,-257.44 628.75,-247.32"/>
<polygon fill="midnightblue" stroke="midnightblue" points="629.69,-243.93 619.11,-243.52 627.13,-250.44 629.69,-243.93"/>
</g>
<!-- Node25&#45;&gt;Node23 -->
<g id="edge43" class="edge">
<title>Node25&#45;&gt;Node23</title>
<path fill="none" stroke="midnightblue" d="M728.18,-280.28C718.34,-267.08 698.31,-241.7 677.5,-224 663.22,-211.86 645.37,-200.68 631.01,-192.5"/>
<polygon fill="midnightblue" stroke="midnightblue" points="632.59,-189.37 622.15,-187.57 629.19,-195.49 632.59,-189.37"/>
</g>
</g>
</svg>
