<?xml version="1.0" encoding="UTF-8" standalone="no"?>
<!DOCTYPE svg PUBLIC "-//W3C//DTD SVG 1.1//EN"
 "http://www.w3.org/Graphics/SVG/1.1/DTD/svg11.dtd">
<!-- Generated by graphviz version 2.43.0 (0)
 -->
<!-- Title: /home/runner/work/Raytracer/Raytracer/PluginsExt/Sphere/SphereCreator.hpp Pages: 1 -->
<svg width="964pt" height="442pt"
 viewBox="0.00 0.00 963.69 442.00" xmlns="http://www.w3.org/2000/svg" xmlns:xlink="http://www.w3.org/1999/xlink">
<g id="graph0" class="graph" transform="scale(1 1) rotate(0) translate(4 438)">
<title>/home/runner/work/Raytracer/Raytracer/PluginsExt/Sphere/SphereCreator.hpp</title>
<polygon fill="white" stroke="transparent" points="-4,4 -4,-438 959.69,-438 959.69,4 -4,4"/>
<!-- Node1 -->
<g id="node1" class="node">
<title>Node1</title>
<g id="a_node1"><a xlink:title=" ">
<polygon fill="#bfbfbf" stroke="black" points="40.5,-392.5 40.5,-433.5 199.5,-433.5 199.5,-392.5 40.5,-392.5"/>
<text text-anchor="start" x="48.5" y="-421.5" font-family="Helvetica,sans-Serif" font-size="10.00">/home/runner/work/Raytracer</text>
<text text-anchor="start" x="48.5" y="-410.5" font-family="Helvetica,sans-Serif" font-size="10.00">/Raytracer/PluginsExt/Sphere</text>
<text text-anchor="middle" x="120" y="-399.5" font-family="Helvetica,sans-Serif" font-size="10.00">/SphereCreator.hpp</text>
</a>
</g>
</g>
<!-- Node2 -->
<g id="node2" class="node">
<title>Node2</title>
<g id="a_node2"><a xlink:title=" ">
<polygon fill="white" stroke="#bfbfbf" points="66.5,-112.5 66.5,-131.5 113.5,-131.5 113.5,-112.5 66.5,-112.5"/>
<text text-anchor="middle" x="90" y="-119.5" font-family="Helvetica,sans-Serif" font-size="10.00">vector</text>
</a>
</g>
</g>
<!-- Node1&#45;&gt;Node2 -->
<g id="edge1" class="edge">
<title>Node1&#45;&gt;Node2</title>
<path fill="none" stroke="midnightblue" d="M109.07,-392.11C97.23,-368.66 80,-328.17 80,-291 80,-291 80,-291 80,-233 80,-200.82 84.3,-163.55 87.26,-141.7"/>
<polygon fill="midnightblue" stroke="midnightblue" points="90.76,-141.92 88.69,-131.53 83.83,-140.95 90.76,-141.92"/>
</g>
<!-- Node3 -->
<g id="node3" class="node">
<title>Node3</title>
<g id="a_node3"><a xlink:title=" ">
<polygon fill="white" stroke="#bfbfbf" points="132,-0.5 132,-19.5 190,-19.5 190,-0.5 132,-0.5"/>
<text text-anchor="middle" x="161" y="-7.5" font-family="Helvetica,sans-Serif" font-size="10.00">memory</text>
</a>
</g>
</g>
<!-- Node1&#45;&gt;Node3 -->
<g id="edge2" class="edge">
<title>Node1&#45;&gt;Node3</title>
<path fill="none" stroke="midnightblue" d="M79.71,-392.36C44.85,-372.21 0,-337.3 0,-291 0,-291 0,-291 0,-121 0,-62.06 74.48,-32.41 122.12,-19.47"/>
<polygon fill="midnightblue" stroke="midnightblue" points="123.04,-22.85 131.84,-16.96 121.29,-16.07 123.04,-22.85"/>
</g>
<!-- Node4 -->
<g id="node4" class="node">
<title>Node4</title>
<g id="a_node4"><a xlink:href="$a00200.html" xlink:title=" ">
<polygon fill="white" stroke="black" points="108,-280.5 108,-299.5 212,-299.5 212,-280.5 108,-280.5"/>
<text text-anchor="middle" x="160" y="-287.5" font-family="Helvetica,sans-Serif" font-size="10.00">IEntityCreator.hpp</text>
</a>
</g>
</g>
<!-- Node1&#45;&gt;Node4 -->
<g id="edge3" class="edge">
<title>Node1&#45;&gt;Node4</title>
<path fill="none" stroke="midnightblue" d="M126.52,-392.29C134.13,-369.27 146.61,-331.5 153.99,-309.17"/>
<polygon fill="midnightblue" stroke="midnightblue" points="157.35,-310.17 157.17,-299.57 150.7,-307.97 157.35,-310.17"/>
</g>
<!-- Node9 -->
<g id="node9" class="node">
<title>Node9</title>
<g id="a_node9"><a xlink:href="$a00245.html" xlink:title=" ">
<polygon fill="white" stroke="black" points="264.5,-56.5 264.5,-75.5 339.5,-75.5 339.5,-56.5 264.5,-56.5"/>
<text text-anchor="middle" x="302" y="-63.5" font-family="Helvetica,sans-Serif" font-size="10.00">ISetting.hpp</text>
</a>
</g>
</g>
<!-- Node1&#45;&gt;Node9 -->
<g id="edge17" class="edge">
<title>Node1&#45;&gt;Node9</title>
<path fill="none" stroke="midnightblue" d="M95.84,-392.48C71.65,-370.57 38,-332.62 38,-291 38,-291 38,-291 38,-177 38,-146.9 34.65,-132.16 57,-112 85.36,-86.41 191.26,-74.71 254.17,-69.91"/>
<polygon fill="midnightblue" stroke="midnightblue" points="254.53,-73.4 264.25,-69.18 254.02,-66.42 254.53,-73.4"/>
</g>
<!-- Node11 -->
<g id="node11" class="node">
<title>Node11</title>
<g id="a_node11"><a xlink:href="$a00158.html" xlink:title=" ">
<polygon fill="white" stroke="black" points="208.5,-224.5 208.5,-243.5 281.5,-243.5 281.5,-224.5 208.5,-224.5"/>
<text text-anchor="middle" x="245" y="-231.5" font-family="Helvetica,sans-Serif" font-size="10.00">ILogger.hpp</text>
</a>
</g>
</g>
<!-- Node1&#45;&gt;Node11 -->
<g id="edge16" class="edge">
<title>Node1&#45;&gt;Node11</title>
<path fill="none" stroke="midnightblue" d="M141.98,-392.47C164.44,-371.51 199.06,-336.3 221,-300 229.75,-285.52 236.13,-267.34 240.1,-253.89"/>
<polygon fill="midnightblue" stroke="midnightblue" points="243.58,-254.46 242.87,-243.89 236.83,-252.59 243.58,-254.46"/>
</g>
<!-- Node14 -->
<g id="node14" class="node">
<title>Node14</title>
<g id="a_node14"><a xlink:href="$a00383.html" xlink:title=" ">
<polygon fill="white" stroke="black" points="436,-336.5 436,-355.5 534,-355.5 534,-336.5 436,-336.5"/>
<text text-anchor="middle" x="485" y="-343.5" font-family="Helvetica,sans-Serif" font-size="10.00">SphereEntity.hpp</text>
</a>
</g>
</g>
<!-- Node1&#45;&gt;Node14 -->
<g id="edge18" class="edge">
<title>Node1&#45;&gt;Node14</title>
<path fill="none" stroke="midnightblue" d="M199.65,-397.82C268.3,-385.59 365.78,-368.23 427.18,-357.3"/>
<polygon fill="midnightblue" stroke="midnightblue" points="427.86,-360.73 437.09,-355.53 426.63,-353.84 427.86,-360.73"/>
</g>
<!-- Node4&#45;&gt;Node3 -->
<g id="edge4" class="edge">
<title>Node4&#45;&gt;Node3</title>
<path fill="none" stroke="midnightblue" d="M157.57,-280.24C152.66,-261.71 142,-217.12 142,-179 142,-179 142,-179 142,-121 142,-88.49 150.16,-51.35 155.78,-29.61"/>
<polygon fill="midnightblue" stroke="midnightblue" points="159.22,-30.32 158.44,-19.75 152.46,-28.5 159.22,-30.32"/>
</g>
<!-- Node5 -->
<g id="node5" class="node">
<title>Node5</title>
<g id="a_node5"><a xlink:href="$a00110.html" xlink:title=" ">
<polygon fill="white" stroke="black" points="515,-224.5 515,-243.5 583,-243.5 583,-224.5 515,-224.5"/>
<text text-anchor="middle" x="549" y="-231.5" font-family="Helvetica,sans-Serif" font-size="10.00">IEntity.hpp</text>
</a>
</g>
</g>
<!-- Node4&#45;&gt;Node5 -->
<g id="edge5" class="edge">
<title>Node4&#45;&gt;Node5</title>
<path fill="none" stroke="midnightblue" d="M212.06,-281.77C289.11,-271.08 432.2,-251.21 504.59,-241.17"/>
<polygon fill="midnightblue" stroke="midnightblue" points="505.32,-244.6 514.74,-239.76 504.35,-237.66 505.32,-244.6"/>
</g>
<!-- Node4&#45;&gt;Node9 -->
<g id="edge15" class="edge">
<title>Node4&#45;&gt;Node9</title>
<path fill="none" stroke="midnightblue" d="M161.39,-280.5C165.05,-259.89 176.34,-206.18 200,-168 222.12,-132.31 259.3,-99.85 282.14,-81.83"/>
<polygon fill="midnightblue" stroke="midnightblue" points="284.36,-84.54 290.13,-75.65 280.08,-79 284.36,-84.54"/>
</g>
<!-- Node4&#45;&gt;Node11 -->
<g id="edge12" class="edge">
<title>Node4&#45;&gt;Node11</title>
<path fill="none" stroke="midnightblue" d="M173.66,-280.32C186.92,-271.9 207.27,-258.97 222.85,-249.07"/>
<polygon fill="midnightblue" stroke="midnightblue" points="224.81,-251.97 231.38,-243.65 221.06,-246.06 224.81,-251.97"/>
</g>
<!-- Node6 -->
<g id="node6" class="node">
<title>Node6</title>
<g id="a_node6"><a xlink:href="$a00122.html" xlink:title=" ">
<polygon fill="white" stroke="black" points="602.5,-168.5 602.5,-187.5 743.5,-187.5 743.5,-168.5 602.5,-168.5"/>
<text text-anchor="middle" x="673" y="-175.5" font-family="Helvetica,sans-Serif" font-size="10.00">Transform/ITransform.hpp</text>
</a>
</g>
</g>
<!-- Node5&#45;&gt;Node6 -->
<g id="edge6" class="edge">
<title>Node5&#45;&gt;Node6</title>
<path fill="none" stroke="midnightblue" d="M568.65,-224.44C588.96,-215.6 620.9,-201.69 644.1,-191.59"/>
<polygon fill="midnightblue" stroke="midnightblue" points="645.67,-194.72 653.44,-187.52 642.88,-188.3 645.67,-194.72"/>
</g>
<!-- Node7 -->
<g id="node7" class="node">
<title>Node7</title>
<g id="a_node7"><a xlink:href="$a00131.html" xlink:title=" ">
<polygon fill="white" stroke="black" points="748.5,-112.5 748.5,-131.5 825.5,-131.5 825.5,-112.5 748.5,-112.5"/>
<text text-anchor="middle" x="787" y="-119.5" font-family="Helvetica,sans-Serif" font-size="10.00">Vector3f.hpp</text>
</a>
</g>
</g>
<!-- Node6&#45;&gt;Node7 -->
<g id="edge7" class="edge">
<title>Node6&#45;&gt;Node7</title>
<path fill="none" stroke="midnightblue" d="M691.06,-168.44C709.57,-159.68 738.58,-145.94 759.86,-135.86"/>
<polygon fill="midnightblue" stroke="midnightblue" points="761.48,-138.96 769.02,-131.52 758.49,-132.63 761.48,-138.96"/>
</g>
<!-- Node8 -->
<g id="node8" class="node">
<title>Node8</title>
<g id="a_node8"><a xlink:title=" ">
<polygon fill="white" stroke="#bfbfbf" points="723.5,-56.5 723.5,-75.5 780.5,-75.5 780.5,-56.5 723.5,-56.5"/>
<text text-anchor="middle" x="752" y="-63.5" font-family="Helvetica,sans-Serif" font-size="10.00">ostream</text>
</a>
</g>
</g>
<!-- Node7&#45;&gt;Node8 -->
<g id="edge8" class="edge">
<title>Node7&#45;&gt;Node8</title>
<path fill="none" stroke="midnightblue" d="M781.22,-112.08C776.33,-104.53 769.17,-93.49 763.17,-84.23"/>
<polygon fill="midnightblue" stroke="midnightblue" points="766.05,-82.24 757.67,-75.75 760.17,-86.05 766.05,-82.24"/>
</g>
<!-- Node7&#45;&gt;Node9 -->
<g id="edge9" class="edge">
<title>Node7&#45;&gt;Node9</title>
<path fill="none" stroke="midnightblue" d="M748.13,-116.67C660.08,-106.87 445.61,-82.99 349.71,-72.31"/>
<polygon fill="midnightblue" stroke="midnightblue" points="350.04,-68.83 339.71,-71.2 349.26,-75.78 350.04,-68.83"/>
</g>
<!-- Node9&#45;&gt;Node3 -->
<g id="edge10" class="edge">
<title>Node9&#45;&gt;Node3</title>
<path fill="none" stroke="midnightblue" d="M279.66,-56.44C256.25,-47.48 219.26,-33.31 192.81,-23.18"/>
<polygon fill="midnightblue" stroke="midnightblue" points="193.83,-19.82 183.24,-19.52 191.32,-26.36 193.83,-19.82"/>
</g>
<!-- Node10 -->
<g id="node10" class="node">
<title>Node10</title>
<g id="a_node10"><a xlink:title=" ">
<polygon fill="white" stroke="#bfbfbf" points="260.5,-0.5 260.5,-19.5 343.5,-19.5 343.5,-0.5 260.5,-0.5"/>
<text text-anchor="middle" x="302" y="-7.5" font-family="Helvetica,sans-Serif" font-size="10.00">libconfig.h++</text>
</a>
</g>
</g>
<!-- Node9&#45;&gt;Node10 -->
<g id="edge11" class="edge">
<title>Node9&#45;&gt;Node10</title>
<path fill="none" stroke="midnightblue" d="M302,-56.08C302,-49.01 302,-38.86 302,-29.99"/>
<polygon fill="midnightblue" stroke="midnightblue" points="305.5,-29.75 302,-19.75 298.5,-29.75 305.5,-29.75"/>
</g>
<!-- Node12 -->
<g id="node12" class="node">
<title>Node12</title>
<g id="a_node12"><a xlink:title=" ">
<polygon fill="white" stroke="#bfbfbf" points="208.5,-168.5 208.5,-187.5 273.5,-187.5 273.5,-168.5 208.5,-168.5"/>
<text text-anchor="middle" x="241" y="-175.5" font-family="Helvetica,sans-Serif" font-size="10.00">functional</text>
</a>
</g>
</g>
<!-- Node11&#45;&gt;Node12 -->
<g id="edge13" class="edge">
<title>Node11&#45;&gt;Node12</title>
<path fill="none" stroke="midnightblue" d="M244.34,-224.08C243.82,-217.01 243.06,-206.86 242.41,-197.99"/>
<polygon fill="midnightblue" stroke="midnightblue" points="245.88,-197.47 241.65,-187.75 238.9,-197.98 245.88,-197.47"/>
</g>
<!-- Node13 -->
<g id="node13" class="node">
<title>Node13</title>
<g id="a_node13"><a xlink:title=" ">
<polygon fill="white" stroke="#bfbfbf" points="360,-112.5 360,-131.5 404,-131.5 404,-112.5 360,-112.5"/>
<text text-anchor="middle" x="382" y="-119.5" font-family="Helvetica,sans-Serif" font-size="10.00">string</text>
</a>
</g>
</g>
<!-- Node11&#45;&gt;Node13 -->
<g id="edge14" class="edge">
<title>Node11&#45;&gt;Node13</title>
<path fill="none" stroke="midnightblue" d="M255.75,-224.37C278.96,-205.73 334.01,-161.53 363.15,-138.13"/>
<polygon fill="midnightblue" stroke="midnightblue" points="365.69,-140.58 371.3,-131.59 361.31,-135.12 365.69,-140.58"/>
</g>
<!-- Node14&#45;&gt;Node7 -->
<g id="edge48" class="edge">
<title>Node14&#45;&gt;Node7</title>
<path fill="none" stroke="midnightblue" d="M534.2,-341.82C642.31,-333.69 894.98,-308.11 946,-244 985.61,-194.22 886.87,-153.67 827.68,-134.67"/>
<polygon fill="midnightblue" stroke="midnightblue" points="828.42,-131.23 817.83,-131.59 826.33,-137.91 828.42,-131.23"/>
</g>
<!-- Node14&#45;&gt;Node9 -->
<g id="edge43" class="edge">
<title>Node14&#45;&gt;Node9</title>
<path fill="none" stroke="midnightblue" d="M476.82,-336.36C455.49,-313.51 397.14,-249.06 359,-188 337.36,-153.34 318.54,-109.16 308.88,-84.92"/>
<polygon fill="midnightblue" stroke="midnightblue" points="312.13,-83.61 305.22,-75.57 305.61,-86.16 312.13,-83.61"/>
</g>
<!-- Node14&#45;&gt;Node11 -->
<g id="edge22" class="edge">
<title>Node14&#45;&gt;Node11</title>
<path fill="none" stroke="midnightblue" d="M435.68,-341C396.97,-336.03 342.96,-324.89 302,-300 282.43,-288.11 265.94,-267.3 255.81,-252.43"/>
<polygon fill="midnightblue" stroke="midnightblue" points="258.49,-250.14 250.1,-243.67 252.63,-253.96 258.49,-250.14"/>
</g>
<!-- Node15 -->
<g id="node15" class="node">
<title>Node15</title>
<g id="a_node15"><a xlink:href="$a00239.html" xlink:title=" ">
<polygon fill="white" stroke="black" points="368,-168.5 368,-187.5 466,-187.5 466,-168.5 368,-168.5"/>
<text text-anchor="middle" x="417" y="-175.5" font-family="Helvetica,sans-Serif" font-size="10.00">IDisplayable.hpp</text>
</a>
</g>
</g>
<!-- Node14&#45;&gt;Node15 -->
<g id="edge19" class="edge">
<title>Node14&#45;&gt;Node15</title>
<path fill="none" stroke="midnightblue" d="M481.34,-336.08C470.59,-309.83 438.93,-232.55 424.42,-197.12"/>
<polygon fill="midnightblue" stroke="midnightblue" points="427.54,-195.5 420.51,-187.57 421.06,-198.15 427.54,-195.5"/>
</g>
<!-- Node16 -->
<g id="node16" class="node">
<title>Node16</title>
<g id="a_node16"><a xlink:href="$a00116.html" xlink:title=" ">
<polygon fill="white" stroke="black" points="601.5,-224.5 601.5,-243.5 682.5,-243.5 682.5,-224.5 601.5,-224.5"/>
<text text-anchor="middle" x="642" y="-231.5" font-family="Helvetica,sans-Serif" font-size="10.00">IMaterial.hpp</text>
</a>
</g>
</g>
<!-- Node14&#45;&gt;Node16 -->
<g id="edge23" class="edge">
<title>Node14&#45;&gt;Node16</title>
<path fill="none" stroke="midnightblue" d="M530.52,-336.48C555.4,-329.93 585.44,-318.73 607,-300 621.19,-287.68 630.61,-268.15 636.06,-253.71"/>
<polygon fill="midnightblue" stroke="midnightblue" points="639.51,-254.46 639.48,-243.86 632.89,-252.16 639.51,-254.46"/>
</g>
<!-- Node21 -->
<g id="node21" class="node">
<title>Node21</title>
<g id="a_node21"><a xlink:href="$a00119.html" xlink:title=" ">
<polygon fill="white" stroke="black" points="512.5,-280.5 512.5,-299.5 597.5,-299.5 597.5,-280.5 512.5,-280.5"/>
<text text-anchor="middle" x="555" y="-287.5" font-family="Helvetica,sans-Serif" font-size="10.00">IPrimitive.hpp</text>
</a>
</g>
</g>
<!-- Node14&#45;&gt;Node21 -->
<g id="edge35" class="edge">
<title>Node14&#45;&gt;Node21</title>
<path fill="none" stroke="midnightblue" d="M496.25,-336.32C506.8,-328.18 522.8,-315.84 535.44,-306.09"/>
<polygon fill="midnightblue" stroke="midnightblue" points="537.77,-308.71 543.55,-299.83 533.49,-303.17 537.77,-308.71"/>
</g>
<!-- Node23 -->
<g id="node23" class="node">
<title>Node23</title>
<g id="a_node23"><a xlink:href="$a00125.html" xlink:title=" ">
<polygon fill="white" stroke="black" points="851,-224.5 851,-243.5 937,-243.5 937,-224.5 851,-224.5"/>
<text text-anchor="middle" x="894" y="-231.5" font-family="Helvetica,sans-Serif" font-size="10.00">Transform.hpp</text>
</a>
</g>
</g>
<!-- Node14&#45;&gt;Node23 -->
<g id="edge44" class="edge">
<title>Node14&#45;&gt;Node23</title>
<path fill="none" stroke="midnightblue" d="M516.75,-336.46C589.99,-316.76 770.73,-268.15 852.56,-246.15"/>
<polygon fill="midnightblue" stroke="midnightblue" points="853.52,-249.51 862.27,-243.53 851.7,-242.75 853.52,-249.51"/>
</g>
<!-- Node15&#45;&gt;Node2 -->
<g id="edge21" class="edge">
<title>Node15&#45;&gt;Node2</title>
<path fill="none" stroke="midnightblue" d="M367.69,-168.86C300.5,-157.76 181.94,-138.18 123.91,-128.6"/>
<polygon fill="midnightblue" stroke="midnightblue" points="124.24,-125.11 113.81,-126.93 123.1,-132.01 124.24,-125.11"/>
</g>
<!-- Node15&#45;&gt;Node3 -->
<g id="edge20" class="edge">
<title>Node15&#45;&gt;Node3</title>
<path fill="none" stroke="midnightblue" d="M402.66,-168.27C374.39,-151 309.54,-111.09 256,-76 230.03,-58.98 200.58,-38.67 181.45,-25.34"/>
<polygon fill="midnightblue" stroke="midnightblue" points="183.39,-22.43 173.19,-19.57 179.39,-28.17 183.39,-22.43"/>
</g>
<!-- Node16&#45;&gt;Node6 -->
<g id="edge33" class="edge">
<title>Node16&#45;&gt;Node6</title>
<path fill="none" stroke="midnightblue" d="M647.12,-224.08C651.41,-216.61 657.66,-205.72 662.94,-196.52"/>
<polygon fill="midnightblue" stroke="midnightblue" points="666.03,-198.17 667.98,-187.75 659.96,-194.68 666.03,-198.17"/>
</g>
<!-- Node16&#45;&gt;Node7 -->
<g id="edge34" class="edge">
<title>Node16&#45;&gt;Node7</title>
<path fill="none" stroke="midnightblue" d="M627.67,-224.44C608.41,-211.88 578.3,-187.78 594,-168 603.02,-156.64 683.9,-140.72 738.06,-131.18"/>
<polygon fill="midnightblue" stroke="midnightblue" points="738.92,-134.58 748.17,-129.41 737.72,-127.68 738.92,-134.58"/>
</g>
<!-- Node16&#45;&gt;Node15 -->
<g id="edge32" class="edge">
<title>Node16&#45;&gt;Node15</title>
<path fill="none" stroke="midnightblue" d="M606.35,-224.44C567.34,-215.08 504.73,-200.06 462.28,-189.87"/>
<polygon fill="midnightblue" stroke="midnightblue" points="463.03,-186.45 452.49,-187.52 461.39,-193.25 463.03,-186.45"/>
</g>
<!-- Node17 -->
<g id="node17" class="node">
<title>Node17</title>
<g id="a_node17"><a xlink:href="$a00176.html" xlink:title=" ">
<polygon fill="white" stroke="black" points="761.5,-168.5 761.5,-187.5 816.5,-187.5 816.5,-168.5 761.5,-168.5"/>
<text text-anchor="middle" x="789" y="-175.5" font-family="Helvetica,sans-Serif" font-size="10.00">Ray.hpp</text>
</a>
</g>
</g>
<!-- Node16&#45;&gt;Node17 -->
<g id="edge24" class="edge">
<title>Node16&#45;&gt;Node17</title>
<path fill="none" stroke="midnightblue" d="M665.29,-224.44C689.81,-215.44 728.6,-201.19 756.2,-191.05"/>
<polygon fill="midnightblue" stroke="midnightblue" points="757.64,-194.25 765.82,-187.52 755.22,-187.68 757.64,-194.25"/>
</g>
<!-- Node18 -->
<g id="node18" class="node">
<title>Node18</title>
<g id="a_node18"><a xlink:href="$a00161.html" xlink:title=" ">
<polygon fill="white" stroke="black" points="484,-168.5 484,-187.5 546,-187.5 546,-168.5 484,-168.5"/>
<text text-anchor="middle" x="515" y="-175.5" font-family="Helvetica,sans-Serif" font-size="10.00">Color.hpp</text>
</a>
</g>
</g>
<!-- Node16&#45;&gt;Node18 -->
<g id="edge26" class="edge">
<title>Node16&#45;&gt;Node18</title>
<path fill="none" stroke="midnightblue" d="M621.88,-224.44C600.98,-215.56 568.07,-201.56 544.28,-191.45"/>
<polygon fill="midnightblue" stroke="midnightblue" points="545.6,-188.21 535.03,-187.52 542.86,-194.65 545.6,-188.21"/>
</g>
<!-- Node17&#45;&gt;Node7 -->
<g id="edge25" class="edge">
<title>Node17&#45;&gt;Node7</title>
<path fill="none" stroke="midnightblue" d="M788.67,-168.08C788.41,-161.01 788.03,-150.86 787.7,-141.99"/>
<polygon fill="midnightblue" stroke="midnightblue" points="791.19,-141.61 787.32,-131.75 784.2,-141.87 791.19,-141.61"/>
</g>
<!-- Node18&#45;&gt;Node8 -->
<g id="edge28" class="edge">
<title>Node18&#45;&gt;Node8</title>
<path fill="none" stroke="midnightblue" d="M546.26,-171.52C590.88,-163.3 670.18,-147.14 695,-132 714.55,-120.07 731.04,-99.27 741.18,-84.41"/>
<polygon fill="midnightblue" stroke="midnightblue" points="744.36,-85.95 746.89,-75.66 738.49,-82.12 744.36,-85.95"/>
</g>
<!-- Node18&#45;&gt;Node9 -->
<g id="edge31" class="edge">
<title>Node18&#45;&gt;Node9</title>
<path fill="none" stroke="midnightblue" d="M503.18,-168.46C484.6,-155.26 447.15,-129.62 413,-112 388.05,-99.13 358.54,-87.32 336.22,-79.03"/>
<polygon fill="midnightblue" stroke="midnightblue" points="337.42,-75.74 326.82,-75.59 335.01,-82.31 337.42,-75.74"/>
</g>
<!-- Node18&#45;&gt;Node13 -->
<g id="edge30" class="edge">
<title>Node18&#45;&gt;Node13</title>
<path fill="none" stroke="midnightblue" d="M493.93,-168.44C471.94,-159.52 437.27,-145.44 412.34,-135.32"/>
<polygon fill="midnightblue" stroke="midnightblue" points="413.56,-132.04 402.98,-131.52 410.92,-138.52 413.56,-132.04"/>
</g>
<!-- Node19 -->
<g id="node19" class="node">
<title>Node19</title>
<g id="a_node19"><a xlink:title=" ">
<polygon fill="white" stroke="#bfbfbf" points="482,-112.5 482,-131.5 530,-131.5 530,-112.5 482,-112.5"/>
<text text-anchor="middle" x="506" y="-119.5" font-family="Helvetica,sans-Serif" font-size="10.00">mutex</text>
</a>
</g>
</g>
<!-- Node18&#45;&gt;Node19 -->
<g id="edge27" class="edge">
<title>Node18&#45;&gt;Node19</title>
<path fill="none" stroke="midnightblue" d="M513.51,-168.08C512.32,-160.93 510.61,-150.64 509.12,-141.69"/>
<polygon fill="midnightblue" stroke="midnightblue" points="512.55,-141.04 507.46,-131.75 505.65,-142.19 512.55,-141.04"/>
</g>
<!-- Node20 -->
<g id="node20" class="node">
<title>Node20</title>
<g id="a_node20"><a xlink:title=" ">
<polygon fill="white" stroke="#bfbfbf" points="548.5,-112.5 548.5,-131.5 685.5,-131.5 685.5,-112.5 548.5,-112.5"/>
<text text-anchor="middle" x="617" y="-119.5" font-family="Helvetica,sans-Serif" font-size="10.00">SFML/Graphics/Color.hpp</text>
</a>
</g>
</g>
<!-- Node18&#45;&gt;Node20 -->
<g id="edge29" class="edge">
<title>Node18&#45;&gt;Node20</title>
<path fill="none" stroke="midnightblue" d="M531.39,-168.32C547.67,-159.7 572.87,-146.36 591.72,-136.39"/>
<polygon fill="midnightblue" stroke="midnightblue" points="593.45,-139.43 600.65,-131.65 590.18,-133.24 593.45,-139.43"/>
</g>
<!-- Node21&#45;&gt;Node5 -->
<g id="edge39" class="edge">
<title>Node21&#45;&gt;Node5</title>
<path fill="none" stroke="midnightblue" d="M554.01,-280.08C553.21,-272.93 552.07,-262.64 551.08,-253.69"/>
<polygon fill="midnightblue" stroke="midnightblue" points="554.56,-253.3 549.97,-243.75 547.6,-254.08 554.56,-253.3"/>
</g>
<!-- Node21&#45;&gt;Node7 -->
<g id="edge42" class="edge">
<title>Node21&#45;&gt;Node7</title>
<path fill="none" stroke="midnightblue" d="M597.67,-283.58C664.59,-274.75 788.26,-256.93 804,-244 831.17,-221.68 838.29,-200.95 826,-168 821.83,-156.81 813.48,-146.56 805.58,-138.68"/>
<polygon fill="midnightblue" stroke="midnightblue" points="807.7,-135.87 797.99,-131.63 802.94,-141 807.7,-135.87"/>
</g>
<!-- Node21&#45;&gt;Node15 -->
<g id="edge38" class="edge">
<title>Node21&#45;&gt;Node15</title>
<path fill="none" stroke="midnightblue" d="M544.05,-280.4C532.56,-271.36 513.98,-256.72 498,-244 476.69,-227.04 452.33,-207.47 435.94,-194.27"/>
<polygon fill="midnightblue" stroke="midnightblue" points="437.71,-191.2 427.72,-187.65 433.31,-196.65 437.71,-191.2"/>
</g>
<!-- Node21&#45;&gt;Node16 -->
<g id="edge40" class="edge">
<title>Node21&#45;&gt;Node16</title>
<path fill="none" stroke="midnightblue" d="M568.98,-280.32C582.55,-271.9 603.38,-258.97 619.32,-249.07"/>
<polygon fill="midnightblue" stroke="midnightblue" points="621.41,-251.9 628.06,-243.65 617.71,-245.95 621.41,-251.9"/>
</g>
<!-- Node21&#45;&gt;Node17 -->
<g id="edge41" class="edge">
<title>Node21&#45;&gt;Node17</title>
<path fill="none" stroke="midnightblue" d="M589.51,-280.48C617.84,-272.83 658.59,-260.3 692,-244 720.94,-229.88 751.31,-208.26 770.2,-193.88"/>
<polygon fill="midnightblue" stroke="midnightblue" points="772.48,-196.54 778.25,-187.65 768.2,-191 772.48,-196.54"/>
</g>
<!-- Node21&#45;&gt;Node18 -->
<g id="edge37" class="edge">
<title>Node21&#45;&gt;Node18</title>
<path fill="none" stroke="midnightblue" d="M540.34,-280.4C528.59,-272.58 512.97,-259.86 506,-244 499.49,-229.19 502.98,-210.8 507.37,-197.37"/>
<polygon fill="midnightblue" stroke="midnightblue" points="510.71,-198.41 510.91,-187.82 504.15,-195.98 510.71,-198.41"/>
</g>
<!-- Node22 -->
<g id="node22" class="node">
<title>Node22</title>
<g id="a_node22"><a xlink:title=" ">
<polygon fill="white" stroke="#bfbfbf" points="739,-224.5 739,-243.5 795,-243.5 795,-224.5 739,-224.5"/>
<text text-anchor="middle" x="767" y="-231.5" font-family="Helvetica,sans-Serif" font-size="10.00">optional</text>
</a>
</g>
</g>
<!-- Node21&#45;&gt;Node22 -->
<g id="edge36" class="edge">
<title>Node21&#45;&gt;Node22</title>
<path fill="none" stroke="midnightblue" d="M588.59,-280.44C626.83,-270.7 689.14,-254.83 729.09,-244.66"/>
<polygon fill="midnightblue" stroke="midnightblue" points="730.15,-248 738.98,-242.14 728.43,-241.21 730.15,-248"/>
</g>
<!-- Node23&#45;&gt;Node6 -->
<g id="edge45" class="edge">
<title>Node23&#45;&gt;Node6</title>
<path fill="none" stroke="midnightblue" d="M858.98,-224.44C820.75,-215.1 759.43,-200.12 717.74,-189.93"/>
<polygon fill="midnightblue" stroke="midnightblue" points="718.4,-186.49 707.85,-187.52 716.74,-193.29 718.4,-186.49"/>
</g>
<!-- Node23&#45;&gt;Node7 -->
<g id="edge47" class="edge">
<title>Node23&#45;&gt;Node7</title>
<path fill="none" stroke="midnightblue" d="M890.92,-224.11C885.91,-210.69 874.95,-185.02 859,-168 846.68,-154.85 829.71,-144 815.34,-136.25"/>
<polygon fill="midnightblue" stroke="midnightblue" points="816.84,-133.09 806.35,-131.61 813.63,-139.31 816.84,-133.09"/>
</g>
<!-- Node23&#45;&gt;Node9 -->
<g id="edge46" class="edge">
<title>Node23&#45;&gt;Node9</title>
<path fill="none" stroke="midnightblue" d="M893.39,-224.18C892.23,-211.27 888.94,-186.76 880,-168 866.27,-139.17 863.19,-127 835,-112 751.73,-67.68 464.95,-65.37 350.11,-66.3"/>
<polygon fill="midnightblue" stroke="midnightblue" points="349.84,-62.8 339.87,-66.39 349.9,-69.8 349.84,-62.8"/>
</g>
</g>
</svg>
