<?xml version="1.0" encoding="UTF-8" standalone="no"?>
<!DOCTYPE svg PUBLIC "-//W3C//DTD SVG 1.1//EN"
 "http://www.w3.org/Graphics/SVG/1.1/DTD/svg11.dtd">
<!-- Generated by graphviz version 2.43.0 (0)
 -->
<!-- Title: /home/runner/work/Raytracer/Raytracer/PluginsExt/LimitedPlane/LimitedPlaneCreator.hpp Pages: 1 -->
<svg width="867pt" height="442pt"
 viewBox="0.00 0.00 867.00 442.00" xmlns="http://www.w3.org/2000/svg" xmlns:xlink="http://www.w3.org/1999/xlink">
<g id="graph0" class="graph" transform="scale(1 1) rotate(0) translate(4 438)">
<title>/home/runner/work/Raytracer/Raytracer/PluginsExt/LimitedPlane/LimitedPlaneCreator.hpp</title>
<polygon fill="white" stroke="transparent" points="-4,4 -4,-438 863,-438 863,4 -4,4"/>
<!-- Node1 -->
<g id="node1" class="node">
<title>Node1</title>
<g id="a_node1"><a xlink:title=" ">
<polygon fill="#bfbfbf" stroke="black" points="147,-392.5 147,-433.5 335,-433.5 335,-392.5 147,-392.5"/>
<text text-anchor="start" x="155" y="-421.5" font-family="Helvetica,sans-Serif" font-size="10.00">/home/runner/work/Raytracer</text>
<text text-anchor="start" x="155" y="-410.5" font-family="Helvetica,sans-Serif" font-size="10.00">/Raytracer/PluginsExt/LimitedPlane</text>
<text text-anchor="middle" x="241" y="-399.5" font-family="Helvetica,sans-Serif" font-size="10.00">/LimitedPlaneCreator.hpp</text>
</a>
</g>
</g>
<!-- Node2 -->
<g id="node2" class="node">
<title>Node2</title>
<g id="a_node2"><a xlink:title=" ">
<polygon fill="white" stroke="#bfbfbf" points="155.5,-112.5 155.5,-131.5 202.5,-131.5 202.5,-112.5 155.5,-112.5"/>
<text text-anchor="middle" x="179" y="-119.5" font-family="Helvetica,sans-Serif" font-size="10.00">vector</text>
</a>
</g>
</g>
<!-- Node1&#45;&gt;Node2 -->
<g id="edge1" class="edge">
<title>Node1&#45;&gt;Node2</title>
<path fill="none" stroke="midnightblue" d="M211.41,-392.41C183.21,-371.13 145,-334.31 145,-291 145,-291 145,-291 145,-233 145,-199.16 159.87,-161.97 169.94,-140.66"/>
<polygon fill="midnightblue" stroke="midnightblue" points="173.14,-142.08 174.41,-131.56 166.86,-138.99 173.14,-142.08"/>
</g>
<!-- Node3 -->
<g id="node3" class="node">
<title>Node3</title>
<g id="a_node3"><a xlink:title=" ">
<polygon fill="white" stroke="#bfbfbf" points="202,-0.5 202,-19.5 260,-19.5 260,-0.5 202,-0.5"/>
<text text-anchor="middle" x="231" y="-7.5" font-family="Helvetica,sans-Serif" font-size="10.00">memory</text>
</a>
</g>
</g>
<!-- Node1&#45;&gt;Node3 -->
<g id="edge2" class="edge">
<title>Node1&#45;&gt;Node3</title>
<path fill="none" stroke="midnightblue" d="M146.79,-402.24C79.19,-389.4 0,-359.71 0,-291 0,-291 0,-291 0,-121 0,-37.09 125.77,-17.12 191.7,-12.42"/>
<polygon fill="midnightblue" stroke="midnightblue" points="191.98,-15.91 201.74,-11.78 191.54,-8.92 191.98,-15.91"/>
</g>
<!-- Node4 -->
<g id="node4" class="node">
<title>Node4</title>
<g id="a_node4"><a xlink:href="$a00200.html" xlink:title=" ">
<polygon fill="white" stroke="black" points="603,-336.5 603,-355.5 707,-355.5 707,-336.5 603,-336.5"/>
<text text-anchor="middle" x="655" y="-343.5" font-family="Helvetica,sans-Serif" font-size="10.00">IEntityCreator.hpp</text>
</a>
</g>
</g>
<!-- Node1&#45;&gt;Node4 -->
<g id="edge3" class="edge">
<title>Node1&#45;&gt;Node4</title>
<path fill="none" stroke="midnightblue" d="M335.2,-397.21C414.07,-384.83 524.39,-367.51 592.68,-356.78"/>
<polygon fill="midnightblue" stroke="midnightblue" points="593.52,-360.2 602.86,-355.19 592.43,-353.28 593.52,-360.2"/>
</g>
<!-- Node11 -->
<g id="node11" class="node">
<title>Node11</title>
<g id="a_node11"><a xlink:href="$a00158.html" xlink:title=" ">
<polygon fill="white" stroke="black" points="211.5,-280.5 211.5,-299.5 284.5,-299.5 284.5,-280.5 211.5,-280.5"/>
<text text-anchor="middle" x="248" y="-287.5" font-family="Helvetica,sans-Serif" font-size="10.00">ILogger.hpp</text>
</a>
</g>
</g>
<!-- Node1&#45;&gt;Node11 -->
<g id="edge16" class="edge">
<title>Node1&#45;&gt;Node11</title>
<path fill="none" stroke="midnightblue" d="M242.14,-392.29C243.46,-369.48 245.62,-332.19 246.91,-309.78"/>
<polygon fill="midnightblue" stroke="midnightblue" points="250.42,-309.76 247.5,-299.57 243.43,-309.36 250.42,-309.76"/>
</g>
<!-- Node14 -->
<g id="node14" class="node">
<title>Node14</title>
<g id="a_node14"><a xlink:href="$a00341.html" xlink:title=" ">
<polygon fill="white" stroke="black" points="269,-336.5 269,-355.5 397,-355.5 397,-336.5 269,-336.5"/>
<text text-anchor="middle" x="333" y="-343.5" font-family="Helvetica,sans-Serif" font-size="10.00">LimitedPlaneEntity.hpp</text>
</a>
</g>
</g>
<!-- Node1&#45;&gt;Node14 -->
<g id="edge17" class="edge">
<title>Node1&#45;&gt;Node14</title>
<path fill="none" stroke="midnightblue" d="M268.6,-392.5C282.71,-382.53 299.58,-370.61 312.51,-361.48"/>
<polygon fill="midnightblue" stroke="midnightblue" points="314.61,-364.28 320.75,-355.65 310.57,-358.56 314.61,-364.28"/>
</g>
<!-- Node4&#45;&gt;Node3 -->
<g id="edge4" class="edge">
<title>Node4&#45;&gt;Node3</title>
<path fill="none" stroke="midnightblue" d="M707.01,-339.51C767.45,-329.92 859,-304.01 859,-235 859,-235 859,-235 859,-121 859,-60.93 407.38,-23.63 270.11,-13.69"/>
<polygon fill="midnightblue" stroke="midnightblue" points="270.25,-10.19 260.03,-12.97 269.75,-17.17 270.25,-10.19"/>
</g>
<!-- Node5 -->
<g id="node5" class="node">
<title>Node5</title>
<g id="a_node5"><a xlink:href="$a00110.html" xlink:title=" ">
<polygon fill="white" stroke="black" points="621,-224.5 621,-243.5 689,-243.5 689,-224.5 621,-224.5"/>
<text text-anchor="middle" x="655" y="-231.5" font-family="Helvetica,sans-Serif" font-size="10.00">IEntity.hpp</text>
</a>
</g>
</g>
<!-- Node4&#45;&gt;Node5 -->
<g id="edge5" class="edge">
<title>Node4&#45;&gt;Node5</title>
<path fill="none" stroke="midnightblue" d="M655,-336.37C655,-318.62 655,-277.67 655,-253.6"/>
<polygon fill="midnightblue" stroke="midnightblue" points="658.5,-253.59 655,-243.59 651.5,-253.59 658.5,-253.59"/>
</g>
<!-- Node9 -->
<g id="node9" class="node">
<title>Node9</title>
<g id="a_node9"><a xlink:href="$a00245.html" xlink:title=" ">
<polygon fill="white" stroke="black" points="498.5,-56.5 498.5,-75.5 573.5,-75.5 573.5,-56.5 498.5,-56.5"/>
<text text-anchor="middle" x="536" y="-63.5" font-family="Helvetica,sans-Serif" font-size="10.00">ISetting.hpp</text>
</a>
</g>
</g>
<!-- Node4&#45;&gt;Node9 -->
<g id="edge15" class="edge">
<title>Node4&#45;&gt;Node9</title>
<path fill="none" stroke="midnightblue" d="M696.89,-336.45C746.06,-323.68 821,-294.46 821,-235 821,-235 821,-235 821,-177 821,-126.71 664.61,-90.57 583.52,-75.2"/>
<polygon fill="midnightblue" stroke="midnightblue" points="584.02,-71.74 573.55,-73.35 582.74,-78.62 584.02,-71.74"/>
</g>
<!-- Node4&#45;&gt;Node11 -->
<g id="edge12" class="edge">
<title>Node4&#45;&gt;Node11</title>
<path fill="none" stroke="midnightblue" d="M602.63,-338.05C522.66,-327.44 371.35,-307.37 294.83,-297.21"/>
<polygon fill="midnightblue" stroke="midnightblue" points="294.92,-293.69 284.55,-295.85 294,-300.63 294.92,-293.69"/>
</g>
<!-- Node6 -->
<g id="node6" class="node">
<title>Node6</title>
<g id="a_node6"><a xlink:href="$a00122.html" xlink:title=" ">
<polygon fill="white" stroke="black" points="566.5,-168.5 566.5,-187.5 707.5,-187.5 707.5,-168.5 566.5,-168.5"/>
<text text-anchor="middle" x="637" y="-175.5" font-family="Helvetica,sans-Serif" font-size="10.00">Transform/ITransform.hpp</text>
</a>
</g>
</g>
<!-- Node5&#45;&gt;Node6 -->
<g id="edge6" class="edge">
<title>Node5&#45;&gt;Node6</title>
<path fill="none" stroke="midnightblue" d="M652.03,-224.08C649.62,-216.85 646.14,-206.41 643.13,-197.4"/>
<polygon fill="midnightblue" stroke="midnightblue" points="646.4,-196.13 639.92,-187.75 639.76,-198.34 646.4,-196.13"/>
</g>
<!-- Node7 -->
<g id="node7" class="node">
<title>Node7</title>
<g id="a_node7"><a xlink:href="$a00131.html" xlink:title=" ">
<polygon fill="white" stroke="black" points="618.5,-112.5 618.5,-131.5 695.5,-131.5 695.5,-112.5 618.5,-112.5"/>
<text text-anchor="middle" x="657" y="-119.5" font-family="Helvetica,sans-Serif" font-size="10.00">Vector3f.hpp</text>
</a>
</g>
</g>
<!-- Node6&#45;&gt;Node7 -->
<g id="edge7" class="edge">
<title>Node6&#45;&gt;Node7</title>
<path fill="none" stroke="midnightblue" d="M640.3,-168.08C642.98,-160.85 646.85,-150.41 650.19,-141.4"/>
<polygon fill="midnightblue" stroke="midnightblue" points="653.57,-142.34 653.76,-131.75 647,-139.91 653.57,-142.34"/>
</g>
<!-- Node8 -->
<g id="node8" class="node">
<title>Node8</title>
<g id="a_node8"><a xlink:title=" ">
<polygon fill="white" stroke="#bfbfbf" points="302.5,-56.5 302.5,-75.5 359.5,-75.5 359.5,-56.5 302.5,-56.5"/>
<text text-anchor="middle" x="331" y="-63.5" font-family="Helvetica,sans-Serif" font-size="10.00">ostream</text>
</a>
</g>
</g>
<!-- Node7&#45;&gt;Node8 -->
<g id="edge8" class="edge">
<title>Node7&#45;&gt;Node8</title>
<path fill="none" stroke="midnightblue" d="M618.29,-113.49C615.48,-112.98 612.7,-112.48 610,-112 524.39,-96.9 423.63,-81.15 369.71,-72.88"/>
<polygon fill="midnightblue" stroke="midnightblue" points="369.98,-69.38 359.56,-71.32 368.92,-76.3 369.98,-69.38"/>
</g>
<!-- Node7&#45;&gt;Node9 -->
<g id="edge9" class="edge">
<title>Node7&#45;&gt;Node9</title>
<path fill="none" stroke="midnightblue" d="M637.83,-112.44C618.09,-103.64 587.11,-89.81 564.51,-79.72"/>
<polygon fill="midnightblue" stroke="midnightblue" points="565.64,-76.4 555.08,-75.52 562.79,-82.79 565.64,-76.4"/>
</g>
<!-- Node9&#45;&gt;Node3 -->
<g id="edge10" class="edge">
<title>Node9&#45;&gt;Node3</title>
<path fill="none" stroke="midnightblue" d="M498.3,-58.32C440.26,-48.05 329.57,-28.45 270.48,-17.99"/>
<polygon fill="midnightblue" stroke="midnightblue" points="270.88,-14.51 260.42,-16.21 269.66,-21.4 270.88,-14.51"/>
</g>
<!-- Node10 -->
<g id="node10" class="node">
<title>Node10</title>
<g id="a_node10"><a xlink:title=" ">
<polygon fill="white" stroke="#bfbfbf" points="494.5,-0.5 494.5,-19.5 577.5,-19.5 577.5,-0.5 494.5,-0.5"/>
<text text-anchor="middle" x="536" y="-7.5" font-family="Helvetica,sans-Serif" font-size="10.00">libconfig.h++</text>
</a>
</g>
</g>
<!-- Node9&#45;&gt;Node10 -->
<g id="edge11" class="edge">
<title>Node9&#45;&gt;Node10</title>
<path fill="none" stroke="midnightblue" d="M536,-56.08C536,-49.01 536,-38.86 536,-29.99"/>
<polygon fill="midnightblue" stroke="midnightblue" points="539.5,-29.75 536,-19.75 532.5,-29.75 539.5,-29.75"/>
</g>
<!-- Node12 -->
<g id="node12" class="node">
<title>Node12</title>
<g id="a_node12"><a xlink:title=" ">
<polygon fill="white" stroke="#bfbfbf" points="211.5,-224.5 211.5,-243.5 276.5,-243.5 276.5,-224.5 211.5,-224.5"/>
<text text-anchor="middle" x="244" y="-231.5" font-family="Helvetica,sans-Serif" font-size="10.00">functional</text>
</a>
</g>
</g>
<!-- Node11&#45;&gt;Node12 -->
<g id="edge13" class="edge">
<title>Node11&#45;&gt;Node12</title>
<path fill="none" stroke="midnightblue" d="M247.34,-280.08C246.82,-273.01 246.06,-262.86 245.41,-253.99"/>
<polygon fill="midnightblue" stroke="midnightblue" points="248.88,-253.47 244.65,-243.75 241.9,-253.98 248.88,-253.47"/>
</g>
<!-- Node13 -->
<g id="node13" class="node">
<title>Node13</title>
<g id="a_node13"><a xlink:title=" ">
<polygon fill="white" stroke="#bfbfbf" points="259,-112.5 259,-131.5 303,-131.5 303,-112.5 259,-112.5"/>
<text text-anchor="middle" x="281" y="-119.5" font-family="Helvetica,sans-Serif" font-size="10.00">string</text>
</a>
</g>
</g>
<!-- Node11&#45;&gt;Node13 -->
<g id="edge14" class="edge">
<title>Node11&#45;&gt;Node13</title>
<path fill="none" stroke="midnightblue" d="M234.21,-280.19C223.17,-272.24 208.5,-259.45 202,-244 188.9,-212.86 185.03,-197.2 202,-168 212.14,-150.55 231.87,-139.3 249.07,-132.42"/>
<polygon fill="midnightblue" stroke="midnightblue" points="250.63,-135.57 258.82,-128.85 248.22,-129 250.63,-135.57"/>
</g>
<!-- Node14&#45;&gt;Node11 -->
<g id="edge19" class="edge">
<title>Node14&#45;&gt;Node11</title>
<path fill="none" stroke="midnightblue" d="M319.34,-336.32C306.08,-327.9 285.73,-314.97 270.15,-305.07"/>
<polygon fill="midnightblue" stroke="midnightblue" points="271.94,-302.06 261.62,-299.65 268.19,-307.97 271.94,-302.06"/>
</g>
<!-- Node14&#45;&gt;Node12 -->
<g id="edge18" class="edge">
<title>Node14&#45;&gt;Node12</title>
<path fill="none" stroke="midnightblue" d="M328.93,-336.48C322.52,-323.54 309.23,-298.48 294,-280 285.04,-269.13 273.42,-258.51 263.64,-250.32"/>
<polygon fill="midnightblue" stroke="midnightblue" points="265.59,-247.39 255.62,-243.8 261.17,-252.82 265.59,-247.39"/>
</g>
<!-- Node15 -->
<g id="node15" class="node">
<title>Node15</title>
<g id="a_node15"><a xlink:href="$a00119.html" xlink:title=" ">
<polygon fill="white" stroke="black" points="415.5,-280.5 415.5,-299.5 500.5,-299.5 500.5,-280.5 415.5,-280.5"/>
<text text-anchor="middle" x="458" y="-287.5" font-family="Helvetica,sans-Serif" font-size="10.00">IPrimitive.hpp</text>
</a>
</g>
</g>
<!-- Node14&#45;&gt;Node15 -->
<g id="edge20" class="edge">
<title>Node14&#45;&gt;Node15</title>
<path fill="none" stroke="midnightblue" d="M352.81,-336.44C373.29,-327.6 405.48,-313.69 428.86,-303.59"/>
<polygon fill="midnightblue" stroke="midnightblue" points="430.49,-306.7 438.29,-299.52 427.72,-300.27 430.49,-306.7"/>
</g>
<!-- Node21 -->
<g id="node21" class="node">
<title>Node21</title>
<g id="a_node21"><a xlink:href="$a00116.html" xlink:title=" ">
<polygon fill="white" stroke="black" points="371.5,-224.5 371.5,-243.5 452.5,-243.5 452.5,-224.5 371.5,-224.5"/>
<text text-anchor="middle" x="412" y="-231.5" font-family="Helvetica,sans-Serif" font-size="10.00">IMaterial.hpp</text>
</a>
</g>
</g>
<!-- Node14&#45;&gt;Node21 -->
<g id="edge45" class="edge">
<title>Node14&#45;&gt;Node21</title>
<path fill="none" stroke="midnightblue" d="M339.2,-336.37C352.24,-318.22 382.7,-275.8 399.8,-251.99"/>
<polygon fill="midnightblue" stroke="midnightblue" points="402.84,-253.76 405.83,-243.59 397.15,-249.67 402.84,-253.76"/>
</g>
<!-- Node23 -->
<g id="node23" class="node">
<title>Node23</title>
<g id="a_node23"><a xlink:href="$a00125.html" xlink:title=" ">
<polygon fill="white" stroke="black" points="707,-224.5 707,-243.5 793,-243.5 793,-224.5 707,-224.5"/>
<text text-anchor="middle" x="750" y="-231.5" font-family="Helvetica,sans-Serif" font-size="10.00">Transform.hpp</text>
</a>
</g>
</g>
<!-- Node14&#45;&gt;Node23 -->
<g id="edge41" class="edge">
<title>Node14&#45;&gt;Node23</title>
<path fill="none" stroke="midnightblue" d="M367.3,-336.45C402.99,-327.51 460.47,-313 510,-300 580.16,-281.58 661.63,-259.33 709.32,-246.22"/>
<polygon fill="midnightblue" stroke="midnightblue" points="710.26,-249.6 718.97,-243.57 708.4,-242.85 710.26,-249.6"/>
</g>
<!-- Node24 -->
<g id="node24" class="node">
<title>Node24</title>
<g id="a_node24"><a xlink:href="$a00128.html" xlink:title=" ">
<polygon fill="white" stroke="black" points="39.5,-168.5 39.5,-187.5 116.5,-187.5 116.5,-168.5 39.5,-168.5"/>
<text text-anchor="middle" x="78" y="-175.5" font-family="Helvetica,sans-Serif" font-size="10.00">Vector2i.hpp</text>
</a>
</g>
</g>
<!-- Node14&#45;&gt;Node24 -->
<g id="edge46" class="edge">
<title>Node14&#45;&gt;Node24</title>
<path fill="none" stroke="midnightblue" d="M294.05,-336.45C266.9,-329.37 230.56,-317.59 202,-300 155.03,-271.07 111.73,-221.5 90.94,-195.7"/>
<polygon fill="midnightblue" stroke="midnightblue" points="93.5,-193.31 84.55,-187.64 88.02,-197.66 93.5,-193.31"/>
</g>
<!-- Node15&#45;&gt;Node5 -->
<g id="edge31" class="edge">
<title>Node15&#45;&gt;Node5</title>
<path fill="none" stroke="midnightblue" d="M489.22,-280.44C522.93,-271.2 576.8,-256.44 613.93,-246.26"/>
<polygon fill="midnightblue" stroke="midnightblue" points="615.21,-249.54 623.93,-243.52 613.36,-242.78 615.21,-249.54"/>
</g>
<!-- Node15&#45;&gt;Node7 -->
<g id="edge40" class="edge">
<title>Node15&#45;&gt;Node7</title>
<path fill="none" stroke="midnightblue" d="M463.24,-280.23C476.57,-258.57 513.86,-201.79 558,-168 576.72,-153.67 600.74,-142.61 620.43,-135.04"/>
<polygon fill="midnightblue" stroke="midnightblue" points="621.83,-138.25 630,-131.5 619.4,-131.69 621.83,-138.25"/>
</g>
<!-- Node16 -->
<g id="node16" class="node">
<title>Node16</title>
<g id="a_node16"><a xlink:title=" ">
<polygon fill="white" stroke="#bfbfbf" points="547,-224.5 547,-243.5 603,-243.5 603,-224.5 547,-224.5"/>
<text text-anchor="middle" x="575" y="-231.5" font-family="Helvetica,sans-Serif" font-size="10.00">optional</text>
</a>
</g>
</g>
<!-- Node15&#45;&gt;Node16 -->
<g id="edge21" class="edge">
<title>Node15&#45;&gt;Node16</title>
<path fill="none" stroke="midnightblue" d="M476.54,-280.44C495.62,-271.64 525.57,-257.81 547.44,-247.72"/>
<polygon fill="midnightblue" stroke="midnightblue" points="548.93,-250.88 556.55,-243.52 546,-244.53 548.93,-250.88"/>
</g>
<!-- Node17 -->
<g id="node17" class="node">
<title>Node17</title>
<g id="a_node17"><a xlink:href="$a00161.html" xlink:title=" ">
<polygon fill="white" stroke="black" points="327,-168.5 327,-187.5 389,-187.5 389,-168.5 327,-168.5"/>
<text text-anchor="middle" x="358" y="-175.5" font-family="Helvetica,sans-Serif" font-size="10.00">Color.hpp</text>
</a>
</g>
</g>
<!-- Node15&#45;&gt;Node17 -->
<g id="edge22" class="edge">
<title>Node15&#45;&gt;Node17</title>
<path fill="none" stroke="midnightblue" d="M418.99,-280.47C398.88,-273.96 375.93,-262.79 363,-244 353.79,-230.61 353.34,-211.79 354.72,-197.84"/>
<polygon fill="midnightblue" stroke="midnightblue" points="358.19,-198.28 356.09,-187.9 351.26,-197.33 358.19,-198.28"/>
</g>
<!-- Node20 -->
<g id="node20" class="node">
<title>Node20</title>
<g id="a_node20"><a xlink:href="$a00239.html" xlink:title=" ">
<polygon fill="white" stroke="black" points="211,-168.5 211,-187.5 309,-187.5 309,-168.5 211,-168.5"/>
<text text-anchor="middle" x="260" y="-175.5" font-family="Helvetica,sans-Serif" font-size="10.00">IDisplayable.hpp</text>
</a>
</g>
</g>
<!-- Node15&#45;&gt;Node20 -->
<g id="edge28" class="edge">
<title>Node15&#45;&gt;Node20</title>
<path fill="none" stroke="midnightblue" d="M433.48,-280.47C411.31,-272.34 378.1,-259.13 351,-244 324.34,-229.12 296.09,-207.99 278.27,-193.91"/>
<polygon fill="midnightblue" stroke="midnightblue" points="280.41,-191.13 270.41,-187.62 276.03,-196.6 280.41,-191.13"/>
</g>
<!-- Node15&#45;&gt;Node21 -->
<g id="edge32" class="edge">
<title>Node15&#45;&gt;Node21</title>
<path fill="none" stroke="midnightblue" d="M450.4,-280.08C443.77,-272.3 433.98,-260.8 425.94,-251.37"/>
<polygon fill="midnightblue" stroke="midnightblue" points="428.6,-249.09 419.45,-243.75 423.27,-253.63 428.6,-249.09"/>
</g>
<!-- Node22 -->
<g id="node22" class="node">
<title>Node22</title>
<g id="a_node22"><a xlink:href="$a00176.html" xlink:title=" ">
<polygon fill="white" stroke="black" points="445.5,-168.5 445.5,-187.5 500.5,-187.5 500.5,-168.5 445.5,-168.5"/>
<text text-anchor="middle" x="473" y="-175.5" font-family="Helvetica,sans-Serif" font-size="10.00">Ray.hpp</text>
</a>
</g>
</g>
<!-- Node15&#45;&gt;Node22 -->
<g id="edge39" class="edge">
<title>Node15&#45;&gt;Node22</title>
<path fill="none" stroke="midnightblue" d="M459.18,-280.37C461.6,-262.62 467.18,-221.67 470.46,-197.6"/>
<polygon fill="midnightblue" stroke="midnightblue" points="473.95,-197.97 471.83,-187.59 467.01,-197.03 473.95,-197.97"/>
</g>
<!-- Node17&#45;&gt;Node8 -->
<g id="edge24" class="edge">
<title>Node17&#45;&gt;Node8</title>
<path fill="none" stroke="midnightblue" d="M355.88,-168.37C351.52,-150.62 341.47,-109.67 335.56,-85.6"/>
<polygon fill="midnightblue" stroke="midnightblue" points="338.89,-84.47 333.11,-75.59 332.09,-86.14 338.89,-84.47"/>
</g>
<!-- Node17&#45;&gt;Node9 -->
<g id="edge27" class="edge">
<title>Node17&#45;&gt;Node9</title>
<path fill="none" stroke="midnightblue" d="M359.59,-168.48C362.63,-154.62 370.57,-127.19 388,-112 415.95,-87.64 456.8,-76.47 488.5,-71.34"/>
<polygon fill="midnightblue" stroke="midnightblue" points="489.06,-74.8 498.45,-69.88 488.05,-67.87 489.06,-74.8"/>
</g>
<!-- Node17&#45;&gt;Node13 -->
<g id="edge26" class="edge">
<title>Node17&#45;&gt;Node13</title>
<path fill="none" stroke="midnightblue" d="M345.63,-168.32C333.84,-160.06 315.87,-147.45 301.86,-137.63"/>
<polygon fill="midnightblue" stroke="midnightblue" points="303.54,-134.53 293.34,-131.65 299.52,-140.26 303.54,-134.53"/>
</g>
<!-- Node18 -->
<g id="node18" class="node">
<title>Node18</title>
<g id="a_node18"><a xlink:title=" ">
<polygon fill="white" stroke="#bfbfbf" points="397,-112.5 397,-131.5 445,-131.5 445,-112.5 397,-112.5"/>
<text text-anchor="middle" x="421" y="-119.5" font-family="Helvetica,sans-Serif" font-size="10.00">mutex</text>
</a>
</g>
</g>
<!-- Node17&#45;&gt;Node18 -->
<g id="edge23" class="edge">
<title>Node17&#45;&gt;Node18</title>
<path fill="none" stroke="midnightblue" d="M368.12,-168.32C377.53,-160.26 391.74,-148.08 403.07,-138.37"/>
<polygon fill="midnightblue" stroke="midnightblue" points="405.38,-141 410.69,-131.83 400.82,-135.68 405.38,-141"/>
</g>
<!-- Node19 -->
<g id="node19" class="node">
<title>Node19</title>
<g id="a_node19"><a xlink:title=" ">
<polygon fill="white" stroke="#bfbfbf" points="463.5,-112.5 463.5,-131.5 600.5,-131.5 600.5,-112.5 463.5,-112.5"/>
<text text-anchor="middle" x="532" y="-119.5" font-family="Helvetica,sans-Serif" font-size="10.00">SFML/Graphics/Color.hpp</text>
</a>
</g>
</g>
<!-- Node17&#45;&gt;Node19 -->
<g id="edge25" class="edge">
<title>Node17&#45;&gt;Node19</title>
<path fill="none" stroke="midnightblue" d="M385.57,-168.44C415.1,-159.28 462.12,-144.69 494.88,-134.52"/>
<polygon fill="midnightblue" stroke="midnightblue" points="496.04,-137.82 504.56,-131.52 493.97,-131.14 496.04,-137.82"/>
</g>
<!-- Node20&#45;&gt;Node2 -->
<g id="edge30" class="edge">
<title>Node20&#45;&gt;Node2</title>
<path fill="none" stroke="midnightblue" d="M246.99,-168.32C234.47,-159.98 215.32,-147.21 200.53,-137.35"/>
<polygon fill="midnightblue" stroke="midnightblue" points="202.24,-134.29 191.98,-131.65 198.36,-140.11 202.24,-134.29"/>
</g>
<!-- Node20&#45;&gt;Node3 -->
<g id="edge29" class="edge">
<title>Node20&#45;&gt;Node3</title>
<path fill="none" stroke="midnightblue" d="M257.92,-168.41C255.78,-159.38 252.41,-144.74 250,-132 243.16,-95.91 236.9,-53.43 233.55,-29.62"/>
<polygon fill="midnightblue" stroke="midnightblue" points="237,-28.96 232.15,-19.54 230.06,-29.93 237,-28.96"/>
</g>
<!-- Node21&#45;&gt;Node6 -->
<g id="edge37" class="edge">
<title>Node21&#45;&gt;Node6</title>
<path fill="none" stroke="midnightblue" d="M447.65,-224.44C486.66,-215.08 549.27,-200.06 591.72,-189.87"/>
<polygon fill="midnightblue" stroke="midnightblue" points="592.61,-193.25 601.51,-187.52 590.97,-186.45 592.61,-193.25"/>
</g>
<!-- Node21&#45;&gt;Node7 -->
<g id="edge38" class="edge">
<title>Node21&#45;&gt;Node7</title>
<path fill="none" stroke="midnightblue" d="M412.74,-224.34C414.42,-210.26 419.84,-182.53 437,-168 440.3,-165.2 544.79,-144.65 608.56,-132.31"/>
<polygon fill="midnightblue" stroke="midnightblue" points="609.27,-135.74 618.43,-130.4 607.94,-128.86 609.27,-135.74"/>
</g>
<!-- Node21&#45;&gt;Node17 -->
<g id="edge35" class="edge">
<title>Node21&#45;&gt;Node17</title>
<path fill="none" stroke="midnightblue" d="M403.08,-224.08C395.22,-216.22 383.57,-204.57 374.08,-195.08"/>
<polygon fill="midnightblue" stroke="midnightblue" points="376.3,-192.35 366.75,-187.75 371.35,-197.3 376.3,-192.35"/>
</g>
<!-- Node21&#45;&gt;Node20 -->
<g id="edge36" class="edge">
<title>Node21&#45;&gt;Node20</title>
<path fill="none" stroke="midnightblue" d="M387.92,-224.44C362.46,-215.4 322.11,-201.06 293.54,-190.92"/>
<polygon fill="midnightblue" stroke="midnightblue" points="294.57,-187.57 283.97,-187.52 292.22,-194.16 294.57,-187.57"/>
</g>
<!-- Node21&#45;&gt;Node22 -->
<g id="edge33" class="edge">
<title>Node21&#45;&gt;Node22</title>
<path fill="none" stroke="midnightblue" d="M421.8,-224.32C430.82,-216.34 444.41,-204.31 455.32,-194.65"/>
<polygon fill="midnightblue" stroke="midnightblue" points="457.85,-197.08 463.02,-187.83 453.21,-191.84 457.85,-197.08"/>
</g>
<!-- Node22&#45;&gt;Node7 -->
<g id="edge34" class="edge">
<title>Node22&#45;&gt;Node7</title>
<path fill="none" stroke="midnightblue" d="M500.55,-168.92C531.66,-159.78 582.54,-144.85 617.79,-134.51"/>
<polygon fill="midnightblue" stroke="midnightblue" points="619.13,-137.76 627.74,-131.59 617.16,-131.04 619.13,-137.76"/>
</g>
<!-- Node23&#45;&gt;Node6 -->
<g id="edge42" class="edge">
<title>Node23&#45;&gt;Node6</title>
<path fill="none" stroke="midnightblue" d="M732.09,-224.44C713.75,-215.68 684.99,-201.94 663.91,-191.86"/>
<polygon fill="midnightblue" stroke="midnightblue" points="665.35,-188.67 654.82,-187.52 662.33,-194.99 665.35,-188.67"/>
</g>
<!-- Node23&#45;&gt;Node7 -->
<g id="edge44" class="edge">
<title>Node23&#45;&gt;Node7</title>
<path fill="none" stroke="midnightblue" d="M747.04,-224.27C742.24,-211.05 731.81,-185.64 717,-168 706.79,-155.84 692.7,-145.06 680.73,-137.1"/>
<polygon fill="midnightblue" stroke="midnightblue" points="682.41,-134.02 672.1,-131.58 678.64,-139.92 682.41,-134.02"/>
</g>
<!-- Node23&#45;&gt;Node9 -->
<g id="edge43" class="edge">
<title>Node23&#45;&gt;Node9</title>
<path fill="none" stroke="midnightblue" d="M749.71,-224.18C748.43,-201.35 741.59,-140.16 705,-112 670.07,-85.12 620.41,-74.25 583.96,-69.88"/>
<polygon fill="midnightblue" stroke="midnightblue" points="583.89,-66.36 573.58,-68.77 583.15,-73.32 583.89,-66.36"/>
</g>
<!-- Node24&#45;&gt;Node8 -->
<g id="edge47" class="edge">
<title>Node24&#45;&gt;Node8</title>
<path fill="none" stroke="midnightblue" d="M70.6,-168.41C59.9,-154.94 42.88,-128.63 57,-112 86.69,-77.03 223.67,-69.19 292.01,-67.46"/>
<polygon fill="midnightblue" stroke="midnightblue" points="292.44,-70.95 302.36,-67.23 292.29,-63.95 292.44,-70.95"/>
</g>
<!-- Node25 -->
<g id="node25" class="node">
<title>Node25</title>
<g id="a_node25"><a xlink:href="$a00236.html" xlink:title=" ">
<polygon fill="white" stroke="black" points="66.5,-112.5 66.5,-131.5 137.5,-131.5 137.5,-112.5 66.5,-112.5"/>
<text text-anchor="middle" x="102" y="-119.5" font-family="Helvetica,sans-Serif" font-size="10.00">IConfig.hpp</text>
</a>
</g>
</g>
<!-- Node24&#45;&gt;Node25 -->
<g id="edge48" class="edge">
<title>Node24&#45;&gt;Node25</title>
<path fill="none" stroke="midnightblue" d="M81.96,-168.08C85.21,-160.77 89.92,-150.18 93.95,-141.1"/>
<polygon fill="midnightblue" stroke="midnightblue" points="97.25,-142.31 98.11,-131.75 90.85,-139.47 97.25,-142.31"/>
</g>
<!-- Node25&#45;&gt;Node3 -->
<g id="edge49" class="edge">
<title>Node25&#45;&gt;Node3</title>
<path fill="none" stroke="midnightblue" d="M112.12,-112.37C133.98,-93.73 185.81,-49.53 213.25,-26.13"/>
<polygon fill="midnightblue" stroke="midnightblue" points="215.59,-28.74 220.92,-19.59 211.04,-23.42 215.59,-28.74"/>
</g>
<!-- Node25&#45;&gt;Node9 -->
<g id="edge50" class="edge">
<title>Node25&#45;&gt;Node9</title>
<path fill="none" stroke="midnightblue" d="M137.97,-113.38C140.68,-112.88 143.38,-112.42 146,-112 268.69,-92.41 414.39,-77.9 488.13,-71.17"/>
<polygon fill="midnightblue" stroke="midnightblue" points="488.83,-74.62 498.48,-70.24 488.2,-67.65 488.83,-74.62"/>
</g>
</g>
</svg>
