<?xml version="1.0" encoding="UTF-8" standalone="no"?>
<!DOCTYPE svg PUBLIC "-//W3C//DTD SVG 1.1//EN"
 "http://www.w3.org/Graphics/SVG/1.1/DTD/svg11.dtd">
<!-- Generated by graphviz version 2.43.0 (0)
 -->
<!-- Title: /home/runner/work/Raytracer/Raytracer/PluginsExt/Sphere/SphereEntity.hpp Pages: 1 -->
<svg width="702pt" height="386pt"
 viewBox="0.00 0.00 701.50 386.00" xmlns="http://www.w3.org/2000/svg" xmlns:xlink="http://www.w3.org/1999/xlink">
<g id="graph0" class="graph" transform="scale(1 1) rotate(0) translate(4 382)">
<title>/home/runner/work/Raytracer/Raytracer/PluginsExt/Sphere/SphereEntity.hpp</title>
<polygon fill="white" stroke="transparent" points="-4,4 -4,-382 697.5,-382 697.5,4 -4,4"/>
<!-- Node1 -->
<g id="node1" class="node">
<title>Node1</title>
<g id="a_node1"><a xlink:title=" ">
<polygon fill="#bfbfbf" stroke="black" points="296.5,-336.5 296.5,-377.5 455.5,-377.5 455.5,-336.5 296.5,-336.5"/>
<text text-anchor="start" x="304.5" y="-365.5" font-family="Helvetica,sans-Serif" font-size="10.00">/home/runner/work/Raytracer</text>
<text text-anchor="start" x="304.5" y="-354.5" font-family="Helvetica,sans-Serif" font-size="10.00">/Raytracer/PluginsExt/Sphere</text>
<text text-anchor="middle" x="376" y="-343.5" font-family="Helvetica,sans-Serif" font-size="10.00">/SphereEntity.hpp</text>
</a>
</g>
</g>
<!-- Node2 -->
<g id="node2" class="node">
<title>Node2</title>
<g id="a_node2"><a xlink:href="$a00200.html" xlink:title=" ">
<polygon fill="white" stroke="black" points="507,-168.5 507,-187.5 605,-187.5 605,-168.5 507,-168.5"/>
<text text-anchor="middle" x="556" y="-175.5" font-family="Helvetica,sans-Serif" font-size="10.00">IDisplayable.hpp</text>
</a>
</g>
</g>
<!-- Node1&#45;&gt;Node2 -->
<g id="edge1" class="edge">
<title>Node1&#45;&gt;Node2</title>
<path fill="none" stroke="midnightblue" d="M417.63,-336.4C453.55,-317.48 504.36,-285.6 535,-244 545.1,-230.29 550.48,-211.5 553.25,-197.66"/>
<polygon fill="midnightblue" stroke="midnightblue" points="556.7,-198.25 554.96,-187.8 549.8,-197.05 556.7,-198.25"/>
</g>
<!-- Node5 -->
<g id="node5" class="node">
<title>Node5</title>
<g id="a_node5"><a xlink:href="$a00119.html" xlink:title=" ">
<polygon fill="white" stroke="black" points="620.5,-280.5 620.5,-299.5 693.5,-299.5 693.5,-280.5 620.5,-280.5"/>
<text text-anchor="middle" x="657" y="-287.5" font-family="Helvetica,sans-Serif" font-size="10.00">ILogger.hpp</text>
</a>
</g>
</g>
<!-- Node1&#45;&gt;Node5 -->
<g id="edge4" class="edge">
<title>Node1&#45;&gt;Node5</title>
<path fill="none" stroke="midnightblue" d="M455.77,-337.55C505.69,-326 568.27,-311.53 610.27,-301.81"/>
<polygon fill="midnightblue" stroke="midnightblue" points="611.27,-305.17 620.22,-299.51 609.69,-298.35 611.27,-305.17"/>
</g>
<!-- Node7 -->
<g id="node7" class="node">
<title>Node7</title>
<g id="a_node7"><a xlink:href="$a00077.html" xlink:title=" ">
<polygon fill="white" stroke="black" points="406.5,-224.5 406.5,-243.5 487.5,-243.5 487.5,-224.5 406.5,-224.5"/>
<text text-anchor="middle" x="447" y="-231.5" font-family="Helvetica,sans-Serif" font-size="10.00">IMaterial.hpp</text>
</a>
</g>
</g>
<!-- Node1&#45;&gt;Node7 -->
<g id="edge6" class="edge">
<title>Node1&#45;&gt;Node7</title>
<path fill="none" stroke="midnightblue" d="M398.56,-336.34C408.82,-326.36 420.34,-313.5 428,-300 436.16,-285.62 441.09,-267.43 443.88,-253.95"/>
<polygon fill="midnightblue" stroke="midnightblue" points="447.35,-254.39 445.73,-243.92 440.47,-253.11 447.35,-254.39"/>
</g>
<!-- Node9 -->
<g id="node9" class="node">
<title>Node9</title>
<g id="a_node9"><a xlink:href="$a00092.html" xlink:title=" ">
<polygon fill="white" stroke="black" points="214.5,-112.5 214.5,-131.5 291.5,-131.5 291.5,-112.5 214.5,-112.5"/>
<text text-anchor="middle" x="253" y="-119.5" font-family="Helvetica,sans-Serif" font-size="10.00">Vector3f.hpp</text>
</a>
</g>
</g>
<!-- Node1&#45;&gt;Node9 -->
<g id="edge35" class="edge">
<title>Node1&#45;&gt;Node9</title>
<path fill="none" stroke="midnightblue" d="M296.23,-352.97C220.38,-345.31 110.21,-320.67 57,-244 15.22,-183.8 133.67,-147.79 204.37,-132.18"/>
<polygon fill="midnightblue" stroke="midnightblue" points="205.39,-135.54 214.43,-130.02 203.92,-128.7 205.39,-135.54"/>
</g>
<!-- Node11 -->
<g id="node11" class="node">
<title>Node11</title>
<g id="a_node11"><a xlink:href="$a00206.html" xlink:title=" ">
<polygon fill="white" stroke="black" points="215.5,-56.5 215.5,-75.5 290.5,-75.5 290.5,-56.5 215.5,-56.5"/>
<text text-anchor="middle" x="253" y="-63.5" font-family="Helvetica,sans-Serif" font-size="10.00">ISetting.hpp</text>
</a>
</g>
</g>
<!-- Node1&#45;&gt;Node11 -->
<g id="edge30" class="edge">
<title>Node1&#45;&gt;Node11</title>
<path fill="none" stroke="midnightblue" d="M296.26,-346.66C185.89,-331.47 0,-296.72 0,-235 0,-235 0,-235 0,-177 0,-88.55 131.65,-70.47 205.02,-67.26"/>
<polygon fill="midnightblue" stroke="midnightblue" points="205.53,-70.74 215.4,-66.89 205.28,-63.75 205.53,-70.74"/>
</g>
<!-- Node16 -->
<g id="node16" class="node">
<title>Node16</title>
<g id="a_node16"><a xlink:href="$a00080.html" xlink:title=" ">
<polygon fill="white" stroke="black" points="333.5,-280.5 333.5,-299.5 418.5,-299.5 418.5,-280.5 333.5,-280.5"/>
<text text-anchor="middle" x="376" y="-287.5" font-family="Helvetica,sans-Serif" font-size="10.00">IPrimitive.hpp</text>
</a>
</g>
</g>
<!-- Node1&#45;&gt;Node16 -->
<g id="edge21" class="edge">
<title>Node1&#45;&gt;Node16</title>
<path fill="none" stroke="midnightblue" d="M376,-336.5C376,-328.07 376,-318.24 376,-309.87"/>
<polygon fill="midnightblue" stroke="midnightblue" points="379.5,-309.65 376,-299.65 372.5,-309.65 379.5,-309.65"/>
</g>
<!-- Node19 -->
<g id="node19" class="node">
<title>Node19</title>
<g id="a_node19"><a xlink:href="$a00086.html" xlink:title=" ">
<polygon fill="white" stroke="black" points="66,-224.5 66,-243.5 152,-243.5 152,-224.5 66,-224.5"/>
<text text-anchor="middle" x="109" y="-231.5" font-family="Helvetica,sans-Serif" font-size="10.00">Transform.hpp</text>
</a>
</g>
</g>
<!-- Node1&#45;&gt;Node19 -->
<g id="edge31" class="edge">
<title>Node1&#45;&gt;Node19</title>
<path fill="none" stroke="midnightblue" d="M332.81,-336.42C277.69,-311.45 183.91,-268.95 137.19,-247.78"/>
<polygon fill="midnightblue" stroke="midnightblue" points="138.52,-244.54 127.97,-243.6 135.63,-250.91 138.52,-244.54"/>
</g>
<!-- Node3 -->
<g id="node3" class="node">
<title>Node3</title>
<g id="a_node3"><a xlink:title=" ">
<polygon fill="white" stroke="#bfbfbf" points="420,-0.5 420,-19.5 478,-19.5 478,-0.5 420,-0.5"/>
<text text-anchor="middle" x="449" y="-7.5" font-family="Helvetica,sans-Serif" font-size="10.00">memory</text>
</a>
</g>
</g>
<!-- Node2&#45;&gt;Node3 -->
<g id="edge2" class="edge">
<title>Node2&#45;&gt;Node3</title>
<path fill="none" stroke="midnightblue" d="M555.2,-168.1C553.73,-155.11 549.8,-130.48 540,-112 521.45,-76.99 488.09,-44.47 467.33,-26.22"/>
<polygon fill="midnightblue" stroke="midnightblue" points="469.4,-23.39 459.54,-19.52 464.84,-28.7 469.4,-23.39"/>
</g>
<!-- Node4 -->
<g id="node4" class="node">
<title>Node4</title>
<g id="a_node4"><a xlink:title=" ">
<polygon fill="white" stroke="#bfbfbf" points="483.5,-112.5 483.5,-131.5 530.5,-131.5 530.5,-112.5 483.5,-112.5"/>
<text text-anchor="middle" x="507" y="-119.5" font-family="Helvetica,sans-Serif" font-size="10.00">vector</text>
</a>
</g>
</g>
<!-- Node2&#45;&gt;Node4 -->
<g id="edge3" class="edge">
<title>Node2&#45;&gt;Node4</title>
<path fill="none" stroke="midnightblue" d="M547.91,-168.08C540.84,-160.3 530.41,-148.8 521.85,-139.37"/>
<polygon fill="midnightblue" stroke="midnightblue" points="524.25,-136.8 514.94,-131.75 519.07,-141.51 524.25,-136.8"/>
</g>
<!-- Node6 -->
<g id="node6" class="node">
<title>Node6</title>
<g id="a_node6"><a xlink:title=" ">
<polygon fill="white" stroke="#bfbfbf" points="635,-224.5 635,-243.5 679,-243.5 679,-224.5 635,-224.5"/>
<text text-anchor="middle" x="657" y="-231.5" font-family="Helvetica,sans-Serif" font-size="10.00">string</text>
</a>
</g>
</g>
<!-- Node5&#45;&gt;Node6 -->
<g id="edge5" class="edge">
<title>Node5&#45;&gt;Node6</title>
<path fill="none" stroke="midnightblue" d="M657,-280.08C657,-273.01 657,-262.86 657,-253.99"/>
<polygon fill="midnightblue" stroke="midnightblue" points="660.5,-253.75 657,-243.75 653.5,-253.75 660.5,-253.75"/>
</g>
<!-- Node7&#45;&gt;Node2 -->
<g id="edge17" class="edge">
<title>Node7&#45;&gt;Node2</title>
<path fill="none" stroke="midnightblue" d="M464.51,-224.32C482.07,-215.62 509.33,-202.12 529.53,-192.11"/>
<polygon fill="midnightblue" stroke="midnightblue" points="531.12,-195.23 538.53,-187.65 528.02,-188.96 531.12,-195.23"/>
</g>
<!-- Node8 -->
<g id="node8" class="node">
<title>Node8</title>
<g id="a_node8"><a xlink:href="$a00137.html" xlink:title=" ">
<polygon fill="white" stroke="black" points="315.5,-168.5 315.5,-187.5 370.5,-187.5 370.5,-168.5 315.5,-168.5"/>
<text text-anchor="middle" x="343" y="-175.5" font-family="Helvetica,sans-Serif" font-size="10.00">Ray.hpp</text>
</a>
</g>
</g>
<!-- Node7&#45;&gt;Node8 -->
<g id="edge7" class="edge">
<title>Node7&#45;&gt;Node8</title>
<path fill="none" stroke="midnightblue" d="M430.29,-224.32C413.69,-215.7 388,-202.36 368.78,-192.39"/>
<polygon fill="midnightblue" stroke="midnightblue" points="370.16,-189.16 359.67,-187.65 366.93,-195.37 370.16,-189.16"/>
</g>
<!-- Node7&#45;&gt;Node9 -->
<g id="edge20" class="edge">
<title>Node7&#45;&gt;Node9</title>
<path fill="none" stroke="midnightblue" d="M440.09,-224.2C428.86,-210.42 405.34,-183.72 380,-168 355.26,-152.65 324.55,-141.59 299.53,-134.27"/>
<polygon fill="midnightblue" stroke="midnightblue" points="300.47,-130.9 289.89,-131.56 298.57,-137.64 300.47,-130.9"/>
</g>
<!-- Node13 -->
<g id="node13" class="node">
<title>Node13</title>
<g id="a_node13"><a xlink:href="$a00122.html" xlink:title=" ">
<polygon fill="white" stroke="black" points="427,-168.5 427,-187.5 489,-187.5 489,-168.5 427,-168.5"/>
<text text-anchor="middle" x="458" y="-175.5" font-family="Helvetica,sans-Serif" font-size="10.00">Color.hpp</text>
</a>
</g>
</g>
<!-- Node7&#45;&gt;Node13 -->
<g id="edge13" class="edge">
<title>Node7&#45;&gt;Node13</title>
<path fill="none" stroke="midnightblue" d="M448.82,-224.08C450.27,-216.93 452.37,-206.64 454.19,-197.69"/>
<polygon fill="midnightblue" stroke="midnightblue" points="457.65,-198.25 456.22,-187.75 450.79,-196.85 457.65,-198.25"/>
</g>
<!-- Node15 -->
<g id="node15" class="node">
<title>Node15</title>
<g id="a_node15"><a xlink:href="$a00083.html" xlink:title=" ">
<polygon fill="white" stroke="black" points="208.5,-168.5 208.5,-187.5 297.5,-187.5 297.5,-168.5 208.5,-168.5"/>
<text text-anchor="middle" x="253" y="-175.5" font-family="Helvetica,sans-Serif" font-size="10.00">ITransform.hpp</text>
</a>
</g>
</g>
<!-- Node7&#45;&gt;Node15 -->
<g id="edge18" class="edge">
<title>Node7&#45;&gt;Node15</title>
<path fill="none" stroke="midnightblue" d="M416.26,-224.44C383.06,-215.2 330.01,-200.44 293.44,-190.26"/>
<polygon fill="midnightblue" stroke="midnightblue" points="294.17,-186.83 283.6,-187.52 292.29,-193.57 294.17,-186.83"/>
</g>
<!-- Node8&#45;&gt;Node9 -->
<g id="edge8" class="edge">
<title>Node8&#45;&gt;Node9</title>
<path fill="none" stroke="midnightblue" d="M328.54,-168.32C314.5,-159.9 292.95,-146.97 276.46,-137.07"/>
<polygon fill="midnightblue" stroke="midnightblue" points="277.8,-133.8 267.42,-131.65 274.2,-139.8 277.8,-133.8"/>
</g>
<!-- Node10 -->
<g id="node10" class="node">
<title>Node10</title>
<g id="a_node10"><a xlink:title=" ">
<polygon fill="white" stroke="#bfbfbf" points="369.5,-56.5 369.5,-75.5 426.5,-75.5 426.5,-56.5 369.5,-56.5"/>
<text text-anchor="middle" x="398" y="-63.5" font-family="Helvetica,sans-Serif" font-size="10.00">ostream</text>
</a>
</g>
</g>
<!-- Node9&#45;&gt;Node10 -->
<g id="edge9" class="edge">
<title>Node9&#45;&gt;Node10</title>
<path fill="none" stroke="midnightblue" d="M275.98,-112.44C300.16,-103.44 338.42,-89.19 365.65,-79.05"/>
<polygon fill="midnightblue" stroke="midnightblue" points="366.98,-82.29 375.13,-75.52 364.54,-75.73 366.98,-82.29"/>
</g>
<!-- Node9&#45;&gt;Node11 -->
<g id="edge10" class="edge">
<title>Node9&#45;&gt;Node11</title>
<path fill="none" stroke="midnightblue" d="M253,-112.08C253,-105.01 253,-94.86 253,-85.99"/>
<polygon fill="midnightblue" stroke="midnightblue" points="256.5,-85.75 253,-75.75 249.5,-85.75 256.5,-85.75"/>
</g>
<!-- Node11&#45;&gt;Node3 -->
<g id="edge11" class="edge">
<title>Node11&#45;&gt;Node3</title>
<path fill="none" stroke="midnightblue" d="M284.06,-56.44C318.1,-47.07 372.78,-32 409.76,-21.81"/>
<polygon fill="midnightblue" stroke="midnightblue" points="410.98,-25.11 419.69,-19.08 409.12,-18.36 410.98,-25.11"/>
</g>
<!-- Node12 -->
<g id="node12" class="node">
<title>Node12</title>
<g id="a_node12"><a xlink:title=" ">
<polygon fill="white" stroke="#bfbfbf" points="211.5,-0.5 211.5,-19.5 294.5,-19.5 294.5,-0.5 211.5,-0.5"/>
<text text-anchor="middle" x="253" y="-7.5" font-family="Helvetica,sans-Serif" font-size="10.00">libconfig.h++</text>
</a>
</g>
</g>
<!-- Node11&#45;&gt;Node12 -->
<g id="edge12" class="edge">
<title>Node11&#45;&gt;Node12</title>
<path fill="none" stroke="midnightblue" d="M253,-56.08C253,-49.01 253,-38.86 253,-29.99"/>
<polygon fill="midnightblue" stroke="midnightblue" points="256.5,-29.75 253,-19.75 249.5,-29.75 256.5,-29.75"/>
</g>
<!-- Node13&#45;&gt;Node10 -->
<g id="edge15" class="edge">
<title>Node13&#45;&gt;Node10</title>
<path fill="none" stroke="midnightblue" d="M456.12,-168.15C453.13,-155.22 446.54,-130.68 436,-112 430.04,-101.45 421.46,-91.02 413.96,-82.87"/>
<polygon fill="midnightblue" stroke="midnightblue" points="416.39,-80.35 406.95,-75.55 411.34,-85.19 416.39,-80.35"/>
</g>
<!-- Node13&#45;&gt;Node11 -->
<g id="edge16" class="edge">
<title>Node13&#45;&gt;Node11</title>
<path fill="none" stroke="midnightblue" d="M440.71,-168.38C422.9,-159.45 394.38,-145 370,-132 337.56,-114.7 300.53,-93.96 276.98,-80.64"/>
<polygon fill="midnightblue" stroke="midnightblue" points="278.48,-77.47 268.05,-75.58 275.03,-83.56 278.48,-77.47"/>
</g>
<!-- Node14 -->
<g id="node14" class="node">
<title>Node14</title>
<g id="a_node14"><a xlink:title=" ">
<polygon fill="white" stroke="#bfbfbf" points="379,-112.5 379,-131.5 427,-131.5 427,-112.5 379,-112.5"/>
<text text-anchor="middle" x="403" y="-119.5" font-family="Helvetica,sans-Serif" font-size="10.00">mutex</text>
</a>
</g>
</g>
<!-- Node13&#45;&gt;Node14 -->
<g id="edge14" class="edge">
<title>Node13&#45;&gt;Node14</title>
<path fill="none" stroke="midnightblue" d="M448.92,-168.08C440.83,-160.14 428.8,-148.34 419.09,-138.8"/>
<polygon fill="midnightblue" stroke="midnightblue" points="421.5,-136.26 411.91,-131.75 416.6,-141.25 421.5,-136.26"/>
</g>
<!-- Node15&#45;&gt;Node9 -->
<g id="edge19" class="edge">
<title>Node15&#45;&gt;Node9</title>
<path fill="none" stroke="midnightblue" d="M253,-168.08C253,-161.01 253,-150.86 253,-141.99"/>
<polygon fill="midnightblue" stroke="midnightblue" points="256.5,-141.75 253,-131.75 249.5,-141.75 256.5,-141.75"/>
</g>
<!-- Node16&#45;&gt;Node2 -->
<g id="edge24" class="edge">
<title>Node16&#45;&gt;Node2</title>
<path fill="none" stroke="midnightblue" d="M418.6,-282.33C447.25,-276.16 484.63,-264.71 512,-244 528.25,-231.71 540.52,-211.61 547.93,-197.01"/>
<polygon fill="midnightblue" stroke="midnightblue" points="551.1,-198.47 552.26,-187.94 544.79,-195.45 551.1,-198.47"/>
</g>
<!-- Node16&#45;&gt;Node7 -->
<g id="edge27" class="edge">
<title>Node16&#45;&gt;Node7</title>
<path fill="none" stroke="midnightblue" d="M387.41,-280.32C398.11,-272.18 414.34,-259.84 427.16,-250.09"/>
<polygon fill="midnightblue" stroke="midnightblue" points="429.54,-252.67 435.39,-243.83 425.31,-247.1 429.54,-252.67"/>
</g>
<!-- Node16&#45;&gt;Node8 -->
<g id="edge28" class="edge">
<title>Node16&#45;&gt;Node8</title>
<path fill="none" stroke="midnightblue" d="M373.93,-280.1C370.94,-267.52 365.11,-243.84 359,-224 356.25,-215.07 352.82,-205.29 349.85,-197.13"/>
<polygon fill="midnightblue" stroke="midnightblue" points="353.05,-195.71 346.29,-187.55 346.49,-198.15 353.05,-195.71"/>
</g>
<!-- Node16&#45;&gt;Node9 -->
<g id="edge29" class="edge">
<title>Node16&#45;&gt;Node9</title>
<path fill="none" stroke="midnightblue" d="M333.43,-284.16C286.47,-277.83 215.35,-265.03 199,-244 178.27,-217.33 184.67,-198.59 199,-168 205.04,-155.09 216.81,-144.6 227.82,-137"/>
<polygon fill="midnightblue" stroke="midnightblue" points="229.83,-139.87 236.37,-131.54 226.06,-133.97 229.83,-139.87"/>
</g>
<!-- Node16&#45;&gt;Node13 -->
<g id="edge23" class="edge">
<title>Node16&#45;&gt;Node13</title>
<path fill="none" stroke="midnightblue" d="M418.77,-285.21C446.05,-280.33 479.48,-269.21 497,-244 508.41,-227.59 492.55,-207.77 477.77,-194.37"/>
<polygon fill="midnightblue" stroke="midnightblue" points="479.73,-191.44 469.85,-187.64 475.2,-196.78 479.73,-191.44"/>
</g>
<!-- Node17 -->
<g id="node17" class="node">
<title>Node17</title>
<g id="a_node17"><a xlink:title=" ">
<polygon fill="white" stroke="#bfbfbf" points="294,-224.5 294,-243.5 350,-243.5 350,-224.5 294,-224.5"/>
<text text-anchor="middle" x="322" y="-231.5" font-family="Helvetica,sans-Serif" font-size="10.00">optional</text>
</a>
</g>
</g>
<!-- Node16&#45;&gt;Node17 -->
<g id="edge22" class="edge">
<title>Node16&#45;&gt;Node17</title>
<path fill="none" stroke="midnightblue" d="M367.08,-280.08C359.22,-272.22 347.57,-260.57 338.08,-251.08"/>
<polygon fill="midnightblue" stroke="midnightblue" points="340.3,-248.35 330.75,-243.75 335.35,-253.3 340.3,-248.35"/>
</g>
<!-- Node18 -->
<g id="node18" class="node">
<title>Node18</title>
<g id="a_node18"><a xlink:href="$a00071.html" xlink:title=" ">
<polygon fill="white" stroke="black" points="208,-224.5 208,-243.5 276,-243.5 276,-224.5 208,-224.5"/>
<text text-anchor="middle" x="242" y="-231.5" font-family="Helvetica,sans-Serif" font-size="10.00">IEntity.hpp</text>
</a>
</g>
</g>
<!-- Node16&#45;&gt;Node18 -->
<g id="edge25" class="edge">
<title>Node16&#45;&gt;Node18</title>
<path fill="none" stroke="midnightblue" d="M354.77,-280.44C332.62,-271.52 297.68,-257.44 272.56,-247.32"/>
<polygon fill="midnightblue" stroke="midnightblue" points="273.72,-244.01 263.13,-243.52 271.1,-250.5 273.72,-244.01"/>
</g>
<!-- Node18&#45;&gt;Node15 -->
<g id="edge26" class="edge">
<title>Node18&#45;&gt;Node15</title>
<path fill="none" stroke="midnightblue" d="M243.82,-224.08C245.27,-216.93 247.37,-206.64 249.19,-197.69"/>
<polygon fill="midnightblue" stroke="midnightblue" points="252.65,-198.25 251.22,-187.75 245.79,-196.85 252.65,-198.25"/>
</g>
<!-- Node19&#45;&gt;Node9 -->
<g id="edge34" class="edge">
<title>Node19&#45;&gt;Node9</title>
<path fill="none" stroke="midnightblue" d="M115.14,-224.07C124.75,-210.59 144.49,-184.84 166,-168 183.06,-154.65 204.69,-143.44 222.11,-135.55"/>
<polygon fill="midnightblue" stroke="midnightblue" points="223.55,-138.74 231.3,-131.51 220.74,-132.33 223.55,-138.74"/>
</g>
<!-- Node19&#45;&gt;Node11 -->
<g id="edge33" class="edge">
<title>Node19&#45;&gt;Node11</title>
<path fill="none" stroke="midnightblue" d="M112.18,-224.44C117.25,-211.44 128.04,-186.32 142,-168 168.86,-132.75 209.04,-99.75 232.97,-81.57"/>
<polygon fill="midnightblue" stroke="midnightblue" points="235.09,-84.36 241,-75.57 230.89,-78.76 235.09,-84.36"/>
</g>
<!-- Node19&#45;&gt;Node15 -->
<g id="edge32" class="edge">
<title>Node19&#45;&gt;Node15</title>
<path fill="none" stroke="midnightblue" d="M131.82,-224.44C155.83,-215.44 193.83,-201.19 220.87,-191.05"/>
<polygon fill="midnightblue" stroke="midnightblue" points="222.16,-194.3 230.29,-187.52 219.7,-187.75 222.16,-194.3"/>
</g>
</g>
</svg>
