<?xml version="1.0" encoding="UTF-8" standalone="no"?>
<!DOCTYPE svg PUBLIC "-//W3C//DTD SVG 1.1//EN"
 "http://www.w3.org/Graphics/SVG/1.1/DTD/svg11.dtd">
<!-- Generated by graphviz version 2.43.0 (0)
 -->
<!-- Title: /home/runner/work/Raytracer/Raytracer/PluginsExt/Cylinder/CylinderCreator.hpp Pages: 1 -->
<svg width="951pt" height="442pt"
 viewBox="0.00 0.00 951.00 442.00" xmlns="http://www.w3.org/2000/svg" xmlns:xlink="http://www.w3.org/1999/xlink">
<g id="graph0" class="graph" transform="scale(1 1) rotate(0) translate(4 438)">
<title>/home/runner/work/Raytracer/Raytracer/PluginsExt/Cylinder/CylinderCreator.hpp</title>
<polygon fill="white" stroke="transparent" points="-4,4 -4,-438 947,-438 947,4 -4,4"/>
<!-- Node1 -->
<g id="node1" class="node">
<title>Node1</title>
<g id="a_node1"><a xlink:title=" ">
<polygon fill="#bfbfbf" stroke="black" points="173,-392.5 173,-433.5 337,-433.5 337,-392.5 173,-392.5"/>
<text text-anchor="start" x="181" y="-421.5" font-family="Helvetica,sans-Serif" font-size="10.00">/home/runner/work/Raytracer</text>
<text text-anchor="start" x="181" y="-410.5" font-family="Helvetica,sans-Serif" font-size="10.00">/Raytracer/PluginsExt/Cylinder</text>
<text text-anchor="middle" x="255" y="-399.5" font-family="Helvetica,sans-Serif" font-size="10.00">/CylinderCreator.hpp</text>
</a>
</g>
</g>
<!-- Node2 -->
<g id="node2" class="node">
<title>Node2</title>
<g id="a_node2"><a xlink:title=" ">
<polygon fill="white" stroke="#bfbfbf" points="99.5,-112.5 99.5,-131.5 146.5,-131.5 146.5,-112.5 99.5,-112.5"/>
<text text-anchor="middle" x="123" y="-119.5" font-family="Helvetica,sans-Serif" font-size="10.00">vector</text>
</a>
</g>
</g>
<!-- Node1&#45;&gt;Node2 -->
<g id="edge1" class="edge">
<title>Node1&#45;&gt;Node2</title>
<path fill="none" stroke="midnightblue" d="M178.31,-392.42C129.73,-374.89 76,-343.61 76,-291 76,-291 76,-291 76,-233 76,-197.7 96.72,-160.79 110.64,-139.96"/>
<polygon fill="midnightblue" stroke="midnightblue" points="113.63,-141.8 116.46,-131.59 107.88,-137.8 113.63,-141.8"/>
</g>
<!-- Node3 -->
<g id="node3" class="node">
<title>Node3</title>
<g id="a_node3"><a xlink:title=" ">
<polygon fill="white" stroke="#bfbfbf" points="110,-0.5 110,-19.5 168,-19.5 168,-0.5 110,-0.5"/>
<text text-anchor="middle" x="139" y="-7.5" font-family="Helvetica,sans-Serif" font-size="10.00">memory</text>
</a>
</g>
</g>
<!-- Node1&#45;&gt;Node3 -->
<g id="edge2" class="edge">
<title>Node1&#45;&gt;Node3</title>
<path fill="none" stroke="midnightblue" d="M172.91,-406.61C98.37,-396.72 0,-368.91 0,-291 0,-291 0,-291 0,-121 0,-69.58 59.23,-38.42 100.36,-22.98"/>
<polygon fill="midnightblue" stroke="midnightblue" points="101.63,-26.24 109.86,-19.57 99.27,-19.65 101.63,-26.24"/>
</g>
<!-- Node4 -->
<g id="node4" class="node">
<title>Node4</title>
<g id="a_node4"><a xlink:href="$a00200.html" xlink:title=" ">
<polygon fill="white" stroke="black" points="262,-280.5 262,-299.5 366,-299.5 366,-280.5 262,-280.5"/>
<text text-anchor="middle" x="314" y="-287.5" font-family="Helvetica,sans-Serif" font-size="10.00">IEntityCreator.hpp</text>
</a>
</g>
</g>
<!-- Node1&#45;&gt;Node4 -->
<g id="edge3" class="edge">
<title>Node1&#45;&gt;Node4</title>
<path fill="none" stroke="midnightblue" d="M264.61,-392.29C275.89,-369.17 294.42,-331.16 305.29,-308.86"/>
<polygon fill="midnightblue" stroke="midnightblue" points="308.58,-310.1 309.82,-299.57 302.29,-307.03 308.58,-310.1"/>
</g>
<!-- Node9 -->
<g id="node9" class="node">
<title>Node9</title>
<g id="a_node9"><a xlink:href="$a00245.html" xlink:title=" ">
<polygon fill="white" stroke="black" points="700.5,-56.5 700.5,-75.5 775.5,-75.5 775.5,-56.5 700.5,-56.5"/>
<text text-anchor="middle" x="738" y="-63.5" font-family="Helvetica,sans-Serif" font-size="10.00">ISetting.hpp</text>
</a>
</g>
</g>
<!-- Node1&#45;&gt;Node9 -->
<g id="edge17" class="edge">
<title>Node1&#45;&gt;Node9</title>
<path fill="none" stroke="midnightblue" d="M337.31,-406.03C519.92,-391.68 943,-351.87 943,-291 943,-291 943,-291 943,-177 943,-105.98 846.29,-80.63 785.72,-71.71"/>
<polygon fill="midnightblue" stroke="midnightblue" points="785.98,-68.22 775.6,-70.32 785.03,-75.15 785.98,-68.22"/>
</g>
<!-- Node11 -->
<g id="node11" class="node">
<title>Node11</title>
<g id="a_node11"><a xlink:href="$a00158.html" xlink:title=" ">
<polygon fill="white" stroke="black" points="159.5,-224.5 159.5,-243.5 232.5,-243.5 232.5,-224.5 159.5,-224.5"/>
<text text-anchor="middle" x="196" y="-231.5" font-family="Helvetica,sans-Serif" font-size="10.00">ILogger.hpp</text>
</a>
</g>
</g>
<!-- Node1&#45;&gt;Node11 -->
<g id="edge16" class="edge">
<title>Node1&#45;&gt;Node11</title>
<path fill="none" stroke="midnightblue" d="M248.46,-392.38C236.98,-357.93 213.35,-287.04 202.15,-253.44"/>
<polygon fill="midnightblue" stroke="midnightblue" points="205.34,-251.96 198.86,-243.58 198.7,-254.18 205.34,-251.96"/>
</g>
<!-- Node14 -->
<g id="node14" class="node">
<title>Node14</title>
<g id="a_node14"><a xlink:href="$a00317.html" xlink:title=" ">
<polygon fill="white" stroke="black" points="519.5,-336.5 519.5,-355.5 624.5,-355.5 624.5,-336.5 519.5,-336.5"/>
<text text-anchor="middle" x="572" y="-343.5" font-family="Helvetica,sans-Serif" font-size="10.00">CylinderEntity.hpp</text>
</a>
</g>
</g>
<!-- Node1&#45;&gt;Node14 -->
<g id="edge18" class="edge">
<title>Node1&#45;&gt;Node14</title>
<path fill="none" stroke="midnightblue" d="M337.05,-395.18C395.06,-383.28 471.03,-367.7 520.65,-357.53"/>
<polygon fill="midnightblue" stroke="midnightblue" points="521.43,-360.94 530.52,-355.51 520.02,-354.09 521.43,-360.94"/>
</g>
<!-- Node4&#45;&gt;Node3 -->
<g id="edge4" class="edge">
<title>Node4&#45;&gt;Node3</title>
<path fill="none" stroke="midnightblue" d="M267.8,-280.48C189.23,-264.67 38,-227.87 38,-179 38,-179 38,-179 38,-121 38,-76.59 83.21,-42.37 113.14,-24.58"/>
<polygon fill="midnightblue" stroke="midnightblue" points="114.92,-27.59 121.87,-19.59 111.45,-21.51 114.92,-27.59"/>
</g>
<!-- Node5 -->
<g id="node5" class="node">
<title>Node5</title>
<g id="a_node5"><a xlink:href="$a00110.html" xlink:title=" ">
<polygon fill="white" stroke="black" points="631,-224.5 631,-243.5 699,-243.5 699,-224.5 631,-224.5"/>
<text text-anchor="middle" x="665" y="-231.5" font-family="Helvetica,sans-Serif" font-size="10.00">IEntity.hpp</text>
</a>
</g>
</g>
<!-- Node4&#45;&gt;Node5 -->
<g id="edge5" class="edge">
<title>Node4&#45;&gt;Node5</title>
<path fill="none" stroke="midnightblue" d="M366.2,-282.36C425.49,-274.61 525.36,-260.87 620.67,-244.15"/>
<polygon fill="midnightblue" stroke="midnightblue" points="621.53,-247.55 630.77,-242.36 620.31,-240.66 621.53,-247.55"/>
</g>
<!-- Node4&#45;&gt;Node9 -->
<g id="edge15" class="edge">
<title>Node4&#45;&gt;Node9</title>
<path fill="none" stroke="midnightblue" d="M316.17,-280.43C320.44,-263.11 329.77,-222.64 333,-188 333.83,-179.15 333.37,-176.88 333,-168 331.96,-143.1 313.37,-130.57 330,-112 341.91,-98.71 585.02,-78.66 690.2,-70.57"/>
<polygon fill="midnightblue" stroke="midnightblue" points="690.53,-74.06 700.23,-69.81 689.99,-67.08 690.53,-74.06"/>
</g>
<!-- Node4&#45;&gt;Node11 -->
<g id="edge12" class="edge">
<title>Node4&#45;&gt;Node11</title>
<path fill="none" stroke="midnightblue" d="M295.3,-280.44C276.06,-271.64 245.85,-257.81 223.8,-247.72"/>
<polygon fill="midnightblue" stroke="midnightblue" points="225.16,-244.5 214.61,-243.52 222.25,-250.86 225.16,-244.5"/>
</g>
<!-- Node6 -->
<g id="node6" class="node">
<title>Node6</title>
<g id="a_node6"><a xlink:href="$a00122.html" xlink:title=" ">
<polygon fill="white" stroke="black" points="624.5,-168.5 624.5,-187.5 765.5,-187.5 765.5,-168.5 624.5,-168.5"/>
<text text-anchor="middle" x="695" y="-175.5" font-family="Helvetica,sans-Serif" font-size="10.00">Transform/ITransform.hpp</text>
</a>
</g>
</g>
<!-- Node5&#45;&gt;Node6 -->
<g id="edge6" class="edge">
<title>Node5&#45;&gt;Node6</title>
<path fill="none" stroke="midnightblue" d="M669.95,-224.08C674.1,-216.61 680.15,-205.72 685.27,-196.52"/>
<polygon fill="midnightblue" stroke="midnightblue" points="688.34,-198.19 690.14,-187.75 682.22,-194.79 688.34,-198.19"/>
</g>
<!-- Node7 -->
<g id="node7" class="node">
<title>Node7</title>
<g id="a_node7"><a xlink:href="$a00131.html" xlink:title=" ">
<polygon fill="white" stroke="black" points="699.5,-112.5 699.5,-131.5 776.5,-131.5 776.5,-112.5 699.5,-112.5"/>
<text text-anchor="middle" x="738" y="-119.5" font-family="Helvetica,sans-Serif" font-size="10.00">Vector3f.hpp</text>
</a>
</g>
</g>
<!-- Node6&#45;&gt;Node7 -->
<g id="edge7" class="edge">
<title>Node6&#45;&gt;Node7</title>
<path fill="none" stroke="midnightblue" d="M702.1,-168.08C708.24,-160.38 717.27,-149.03 724.74,-139.65"/>
<polygon fill="midnightblue" stroke="midnightblue" points="727.54,-141.75 731.03,-131.75 722.06,-137.39 727.54,-141.75"/>
</g>
<!-- Node8 -->
<g id="node8" class="node">
<title>Node8</title>
<g id="a_node8"><a xlink:title=" ">
<polygon fill="white" stroke="#bfbfbf" points="503.5,-56.5 503.5,-75.5 560.5,-75.5 560.5,-56.5 503.5,-56.5"/>
<text text-anchor="middle" x="532" y="-63.5" font-family="Helvetica,sans-Serif" font-size="10.00">ostream</text>
</a>
</g>
</g>
<!-- Node7&#45;&gt;Node8 -->
<g id="edge8" class="edge">
<title>Node7&#45;&gt;Node8</title>
<path fill="none" stroke="midnightblue" d="M705.36,-112.44C668.7,-102.83 609.26,-87.25 570.4,-77.07"/>
<polygon fill="midnightblue" stroke="midnightblue" points="571.07,-73.62 560.51,-74.47 569.29,-80.39 571.07,-73.62"/>
</g>
<!-- Node7&#45;&gt;Node9 -->
<g id="edge9" class="edge">
<title>Node7&#45;&gt;Node9</title>
<path fill="none" stroke="midnightblue" d="M738,-112.08C738,-105.01 738,-94.86 738,-85.99"/>
<polygon fill="midnightblue" stroke="midnightblue" points="741.5,-85.75 738,-75.75 734.5,-85.75 741.5,-85.75"/>
</g>
<!-- Node9&#45;&gt;Node3 -->
<g id="edge10" class="edge">
<title>Node9&#45;&gt;Node3</title>
<path fill="none" stroke="midnightblue" d="M700.08,-61.58C592.68,-51.9 287.23,-24.36 178.24,-14.54"/>
<polygon fill="midnightblue" stroke="midnightblue" points="178.29,-11.03 168.02,-13.62 177.66,-18 178.29,-11.03"/>
</g>
<!-- Node10 -->
<g id="node10" class="node">
<title>Node10</title>
<g id="a_node10"><a xlink:title=" ">
<polygon fill="white" stroke="#bfbfbf" points="696.5,-0.5 696.5,-19.5 779.5,-19.5 779.5,-0.5 696.5,-0.5"/>
<text text-anchor="middle" x="738" y="-7.5" font-family="Helvetica,sans-Serif" font-size="10.00">libconfig.h++</text>
</a>
</g>
</g>
<!-- Node9&#45;&gt;Node10 -->
<g id="edge11" class="edge">
<title>Node9&#45;&gt;Node10</title>
<path fill="none" stroke="midnightblue" d="M738,-56.08C738,-49.01 738,-38.86 738,-29.99"/>
<polygon fill="midnightblue" stroke="midnightblue" points="741.5,-29.75 738,-19.75 734.5,-29.75 741.5,-29.75"/>
</g>
<!-- Node12 -->
<g id="node12" class="node">
<title>Node12</title>
<g id="a_node12"><a xlink:title=" ">
<polygon fill="white" stroke="#bfbfbf" points="142.5,-168.5 142.5,-187.5 207.5,-187.5 207.5,-168.5 142.5,-168.5"/>
<text text-anchor="middle" x="175" y="-175.5" font-family="Helvetica,sans-Serif" font-size="10.00">functional</text>
</a>
</g>
</g>
<!-- Node11&#45;&gt;Node12 -->
<g id="edge13" class="edge">
<title>Node11&#45;&gt;Node12</title>
<path fill="none" stroke="midnightblue" d="M192.53,-224.08C189.69,-216.77 185.57,-206.18 182.04,-197.1"/>
<polygon fill="midnightblue" stroke="midnightblue" points="185.29,-195.8 178.4,-187.75 178.77,-198.34 185.29,-195.8"/>
</g>
<!-- Node13 -->
<g id="node13" class="node">
<title>Node13</title>
<g id="a_node13"><a xlink:title=" ">
<polygon fill="white" stroke="#bfbfbf" points="339,-112.5 339,-131.5 383,-131.5 383,-112.5 339,-112.5"/>
<text text-anchor="middle" x="361" y="-119.5" font-family="Helvetica,sans-Serif" font-size="10.00">string</text>
</a>
</g>
</g>
<!-- Node11&#45;&gt;Node13 -->
<g id="edge14" class="edge">
<title>Node11&#45;&gt;Node13</title>
<path fill="none" stroke="midnightblue" d="M176.66,-224.39C152.22,-212.34 115.34,-189.49 133,-168 157.37,-138.35 271.43,-127.92 328.42,-124.51"/>
<polygon fill="midnightblue" stroke="midnightblue" points="328.9,-127.99 338.69,-123.94 328.51,-121 328.9,-127.99"/>
</g>
<!-- Node14&#45;&gt;Node9 -->
<g id="edge41" class="edge">
<title>Node14&#45;&gt;Node9</title>
<path fill="none" stroke="midnightblue" d="M624.76,-338.67C718.66,-325.93 905,-293.3 905,-235 905,-235 905,-235 905,-177 905,-119.51 835.13,-90.37 785.77,-76.96"/>
<polygon fill="midnightblue" stroke="midnightblue" points="786.45,-73.52 775.89,-74.41 784.7,-80.3 786.45,-73.52"/>
</g>
<!-- Node14&#45;&gt;Node11 -->
<g id="edge42" class="edge">
<title>Node14&#45;&gt;Node11</title>
<path fill="none" stroke="midnightblue" d="M519.32,-342C440.9,-336.8 297.9,-324.27 253,-300 232.66,-289.01 216.16,-267.71 206.25,-252.49"/>
<polygon fill="midnightblue" stroke="midnightblue" points="209.19,-250.6 200.95,-243.94 203.24,-254.29 209.19,-250.6"/>
</g>
<!-- Node15 -->
<g id="node15" class="node">
<title>Node15</title>
<g id="a_node15"><a xlink:title=" ">
<polygon fill="white" stroke="#bfbfbf" points="717,-224.5 717,-243.5 773,-243.5 773,-224.5 717,-224.5"/>
<text text-anchor="middle" x="745" y="-231.5" font-family="Helvetica,sans-Serif" font-size="10.00">optional</text>
</a>
</g>
</g>
<!-- Node14&#45;&gt;Node15 -->
<g id="edge19" class="edge">
<title>Node14&#45;&gt;Node15</title>
<path fill="none" stroke="midnightblue" d="M585.58,-336.37C615.26,-317.49 686.2,-272.38 722.61,-249.24"/>
<polygon fill="midnightblue" stroke="midnightblue" points="724.93,-251.91 731.49,-243.59 721.17,-246 724.93,-251.91"/>
</g>
<!-- Node16 -->
<g id="node16" class="node">
<title>Node16</title>
<g id="a_node16"><a xlink:href="$a00119.html" xlink:title=" ">
<polygon fill="white" stroke="black" points="493.5,-280.5 493.5,-299.5 578.5,-299.5 578.5,-280.5 493.5,-280.5"/>
<text text-anchor="middle" x="536" y="-287.5" font-family="Helvetica,sans-Serif" font-size="10.00">IPrimitive.hpp</text>
</a>
</g>
</g>
<!-- Node14&#45;&gt;Node16 -->
<g id="edge20" class="edge">
<title>Node14&#45;&gt;Node16</title>
<path fill="none" stroke="midnightblue" d="M566.06,-336.08C561.02,-328.53 553.66,-317.49 547.49,-308.23"/>
<polygon fill="midnightblue" stroke="midnightblue" points="550.29,-306.13 541.83,-299.75 544.47,-310.01 550.29,-306.13"/>
</g>
<!-- Node21 -->
<g id="node21" class="node">
<title>Node21</title>
<g id="a_node21"><a xlink:href="$a00116.html" xlink:title=" ">
<polygon fill="white" stroke="black" points="531.5,-224.5 531.5,-243.5 612.5,-243.5 612.5,-224.5 531.5,-224.5"/>
<text text-anchor="middle" x="572" y="-231.5" font-family="Helvetica,sans-Serif" font-size="10.00">IMaterial.hpp</text>
</a>
</g>
</g>
<!-- Node14&#45;&gt;Node21 -->
<g id="edge47" class="edge">
<title>Node14&#45;&gt;Node21</title>
<path fill="none" stroke="midnightblue" d="M576.11,-336.28C580.06,-327.38 585.74,-313.07 588,-300 590.77,-283.91 585.69,-265.91 580.53,-252.94"/>
<polygon fill="midnightblue" stroke="midnightblue" points="583.73,-251.52 576.53,-243.75 577.31,-254.31 583.73,-251.52"/>
</g>
<!-- Node22 -->
<g id="node22" class="node">
<title>Node22</title>
<g id="a_node22"><a xlink:href="$a00176.html" xlink:title=" ">
<polygon fill="white" stroke="black" points="506.5,-168.5 506.5,-187.5 561.5,-187.5 561.5,-168.5 506.5,-168.5"/>
<text text-anchor="middle" x="534" y="-175.5" font-family="Helvetica,sans-Serif" font-size="10.00">Ray.hpp</text>
</a>
</g>
</g>
<!-- Node14&#45;&gt;Node22 -->
<g id="edge48" class="edge">
<title>Node14&#45;&gt;Node22</title>
<path fill="none" stroke="midnightblue" d="M536.99,-336.45C518.07,-329.84 496.32,-318.59 485,-300 463.71,-265.02 496.89,-219.14 518.25,-195.17"/>
<polygon fill="midnightblue" stroke="midnightblue" points="520.98,-197.38 525.2,-187.66 515.84,-192.62 520.98,-197.38"/>
</g>
<!-- Node23 -->
<g id="node23" class="node">
<title>Node23</title>
<g id="a_node23"><a xlink:href="$a00125.html" xlink:title=" ">
<polygon fill="white" stroke="black" points="791,-224.5 791,-243.5 877,-243.5 877,-224.5 791,-224.5"/>
<text text-anchor="middle" x="834" y="-231.5" font-family="Helvetica,sans-Serif" font-size="10.00">Transform.hpp</text>
</a>
</g>
</g>
<!-- Node14&#45;&gt;Node23 -->
<g id="edge43" class="edge">
<title>Node14&#45;&gt;Node23</title>
<path fill="none" stroke="midnightblue" d="M592.56,-336.37C638.67,-317.01 750.48,-270.06 804.21,-247.51"/>
<polygon fill="midnightblue" stroke="midnightblue" points="805.67,-250.69 813.54,-243.59 802.96,-244.24 805.67,-250.69"/>
</g>
<!-- Node16&#45;&gt;Node5 -->
<g id="edge31" class="edge">
<title>Node16&#45;&gt;Node5</title>
<path fill="none" stroke="midnightblue" d="M556.44,-280.44C577.67,-271.56 611.1,-257.56 635.25,-247.45"/>
<polygon fill="midnightblue" stroke="midnightblue" points="636.78,-250.61 644.66,-243.52 634.08,-244.15 636.78,-250.61"/>
</g>
<!-- Node16&#45;&gt;Node7 -->
<g id="edge40" class="edge">
<title>Node16&#45;&gt;Node7</title>
<path fill="none" stroke="midnightblue" d="M528.38,-280.33C510.48,-258.88 469.31,-202.56 498,-168 501.06,-164.31 619.72,-143.35 689.02,-131.38"/>
<polygon fill="midnightblue" stroke="midnightblue" points="690.01,-134.76 699.27,-129.61 688.83,-127.86 690.01,-134.76"/>
</g>
<!-- Node16&#45;&gt;Node15 -->
<g id="edge21" class="edge">
<title>Node16&#45;&gt;Node15</title>
<path fill="none" stroke="midnightblue" d="M569.12,-280.44C606.6,-270.76 667.55,-255.01 706.96,-244.83"/>
<polygon fill="midnightblue" stroke="midnightblue" points="707.92,-248.19 716.73,-242.3 706.17,-241.42 707.92,-248.19"/>
</g>
<!-- Node17 -->
<g id="node17" class="node">
<title>Node17</title>
<g id="a_node17"><a xlink:href="$a00161.html" xlink:title=" ">
<polygon fill="white" stroke="black" points="380,-168.5 380,-187.5 442,-187.5 442,-168.5 380,-168.5"/>
<text text-anchor="middle" x="411" y="-175.5" font-family="Helvetica,sans-Serif" font-size="10.00">Color.hpp</text>
</a>
</g>
</g>
<!-- Node16&#45;&gt;Node17 -->
<g id="edge22" class="edge">
<title>Node16&#45;&gt;Node17</title>
<path fill="none" stroke="midnightblue" d="M493.4,-285.35C465.68,-280.53 431.37,-269.44 413,-244 403.4,-230.71 404.05,-211.59 406.41,-197.52"/>
<polygon fill="midnightblue" stroke="midnightblue" points="409.87,-198.04 408.5,-187.54 403.02,-196.61 409.87,-198.04"/>
</g>
<!-- Node20 -->
<g id="node20" class="node">
<title>Node20</title>
<g id="a_node20"><a xlink:href="$a00239.html" xlink:title=" ">
<polygon fill="white" stroke="black" points="226,-168.5 226,-187.5 324,-187.5 324,-168.5 226,-168.5"/>
<text text-anchor="middle" x="275" y="-175.5" font-family="Helvetica,sans-Serif" font-size="10.00">IDisplayable.hpp</text>
</a>
</g>
</g>
<!-- Node16&#45;&gt;Node20 -->
<g id="edge28" class="edge">
<title>Node16&#45;&gt;Node20</title>
<path fill="none" stroke="midnightblue" d="M506.02,-280.46C478.33,-272.24 436.29,-258.88 401,-244 364.2,-228.48 323.42,-206.52 298.5,-192.52"/>
<polygon fill="midnightblue" stroke="midnightblue" points="300.19,-189.46 289.77,-187.57 296.75,-195.55 300.19,-189.46"/>
</g>
<!-- Node16&#45;&gt;Node21 -->
<g id="edge32" class="edge">
<title>Node16&#45;&gt;Node21</title>
<path fill="none" stroke="midnightblue" d="M541.94,-280.08C546.98,-272.53 554.34,-261.49 560.51,-252.23"/>
<polygon fill="midnightblue" stroke="midnightblue" points="563.53,-254.01 566.17,-243.75 557.71,-250.13 563.53,-254.01"/>
</g>
<!-- Node16&#45;&gt;Node22 -->
<g id="edge39" class="edge">
<title>Node16&#45;&gt;Node22</title>
<path fill="none" stroke="midnightblue" d="M532.66,-280.2C529.45,-271.24 524.82,-256.88 523,-244 520.77,-228.24 524.21,-210.42 527.81,-197.43"/>
<polygon fill="midnightblue" stroke="midnightblue" points="531.18,-198.39 530.76,-187.81 524.49,-196.34 531.18,-198.39"/>
</g>
<!-- Node17&#45;&gt;Node8 -->
<g id="edge24" class="edge">
<title>Node17&#45;&gt;Node8</title>
<path fill="none" stroke="midnightblue" d="M411.28,-168.33C412.16,-154.73 415.74,-128.27 430,-112 446.41,-93.28 472.08,-82.01 493.57,-75.43"/>
<polygon fill="midnightblue" stroke="midnightblue" points="494.73,-78.74 503.4,-72.65 492.83,-72 494.73,-78.74"/>
</g>
<!-- Node17&#45;&gt;Node9 -->
<g id="edge27" class="edge">
<title>Node17&#45;&gt;Node9</title>
<path fill="none" stroke="midnightblue" d="M442.46,-170.64C447,-169.74 451.62,-168.84 456,-168 542.98,-151.31 570.93,-167.66 652,-132 679.13,-120.06 705.61,-98.02 721.86,-82.94"/>
<polygon fill="midnightblue" stroke="midnightblue" points="724.55,-85.21 729.37,-75.78 719.72,-80.14 724.55,-85.21"/>
</g>
<!-- Node17&#45;&gt;Node13 -->
<g id="edge26" class="edge">
<title>Node17&#45;&gt;Node13</title>
<path fill="none" stroke="midnightblue" d="M402.74,-168.08C395.54,-160.3 384.89,-148.8 376.15,-139.37"/>
<polygon fill="midnightblue" stroke="midnightblue" points="378.47,-136.71 369.1,-131.75 373.33,-141.47 378.47,-136.71"/>
</g>
<!-- Node18 -->
<g id="node18" class="node">
<title>Node18</title>
<g id="a_node18"><a xlink:title=" ">
<polygon fill="white" stroke="#bfbfbf" points="439,-112.5 439,-131.5 487,-131.5 487,-112.5 439,-112.5"/>
<text text-anchor="middle" x="463" y="-119.5" font-family="Helvetica,sans-Serif" font-size="10.00">mutex</text>
</a>
</g>
</g>
<!-- Node17&#45;&gt;Node18 -->
<g id="edge23" class="edge">
<title>Node17&#45;&gt;Node18</title>
<path fill="none" stroke="midnightblue" d="M419.59,-168.08C427.16,-160.22 438.38,-148.57 447.51,-139.08"/>
<polygon fill="midnightblue" stroke="midnightblue" points="450.16,-141.38 454.57,-131.75 445.12,-136.53 450.16,-141.38"/>
</g>
<!-- Node19 -->
<g id="node19" class="node">
<title>Node19</title>
<g id="a_node19"><a xlink:title=" ">
<polygon fill="white" stroke="#bfbfbf" points="505.5,-112.5 505.5,-131.5 642.5,-131.5 642.5,-112.5 505.5,-112.5"/>
<text text-anchor="middle" x="574" y="-119.5" font-family="Helvetica,sans-Serif" font-size="10.00">SFML/Graphics/Color.hpp</text>
</a>
</g>
</g>
<!-- Node17&#45;&gt;Node19 -->
<g id="edge25" class="edge">
<title>Node17&#45;&gt;Node19</title>
<path fill="none" stroke="midnightblue" d="M436.83,-168.44C464.25,-159.36 507.78,-144.94 538.43,-134.78"/>
<polygon fill="midnightblue" stroke="midnightblue" points="539.9,-137.98 548.29,-131.52 537.7,-131.34 539.9,-137.98"/>
</g>
<!-- Node20&#45;&gt;Node2 -->
<g id="edge30" class="edge">
<title>Node20&#45;&gt;Node2</title>
<path fill="none" stroke="midnightblue" d="M250.92,-168.44C225.46,-159.4 185.11,-145.06 156.54,-134.92"/>
<polygon fill="midnightblue" stroke="midnightblue" points="157.57,-131.57 146.97,-131.52 155.22,-138.16 157.57,-131.57"/>
</g>
<!-- Node20&#45;&gt;Node3 -->
<g id="edge29" class="edge">
<title>Node20&#45;&gt;Node3</title>
<path fill="none" stroke="midnightblue" d="M267.69,-168.08C245.82,-141.38 180.67,-61.87 152.37,-27.32"/>
<polygon fill="midnightblue" stroke="midnightblue" points="155.06,-25.09 146.02,-19.57 149.65,-29.52 155.06,-25.09"/>
</g>
<!-- Node21&#45;&gt;Node6 -->
<g id="edge37" class="edge">
<title>Node21&#45;&gt;Node6</title>
<path fill="none" stroke="midnightblue" d="M591.49,-224.44C611.64,-215.6 643.32,-201.69 666.33,-191.59"/>
<polygon fill="midnightblue" stroke="midnightblue" points="667.85,-194.74 675.6,-187.52 665.04,-188.33 667.85,-194.74"/>
</g>
<!-- Node21&#45;&gt;Node7 -->
<g id="edge38" class="edge">
<title>Node21&#45;&gt;Node7</title>
<path fill="none" stroke="midnightblue" d="M575.8,-224.14C582.17,-210.28 596.26,-183.46 616,-168 637.38,-151.25 665.61,-140.3 689.53,-133.41"/>
<polygon fill="midnightblue" stroke="midnightblue" points="690.76,-136.7 699.49,-130.69 688.92,-129.95 690.76,-136.7"/>
</g>
<!-- Node21&#45;&gt;Node17 -->
<g id="edge35" class="edge">
<title>Node21&#45;&gt;Node17</title>
<path fill="none" stroke="midnightblue" d="M546.49,-224.44C519.4,-215.36 476.41,-200.94 446.13,-190.78"/>
<polygon fill="midnightblue" stroke="midnightblue" points="446.99,-187.38 436.39,-187.52 444.76,-194.01 446.99,-187.38"/>
</g>
<!-- Node21&#45;&gt;Node20 -->
<g id="edge36" class="edge">
<title>Node21&#45;&gt;Node20</title>
<path fill="none" stroke="midnightblue" d="M531.33,-225.6C479.7,-216.22 390.34,-199.97 331.95,-189.35"/>
<polygon fill="midnightblue" stroke="midnightblue" points="332.24,-185.85 321.78,-187.51 330.99,-192.74 332.24,-185.85"/>
</g>
<!-- Node21&#45;&gt;Node22 -->
<g id="edge33" class="edge">
<title>Node21&#45;&gt;Node22</title>
<path fill="none" stroke="midnightblue" d="M565.73,-224.08C560.36,-216.46 552.48,-205.26 545.92,-195.94"/>
<polygon fill="midnightblue" stroke="midnightblue" points="548.78,-193.91 540.16,-187.75 543.05,-197.94 548.78,-193.91"/>
</g>
<!-- Node22&#45;&gt;Node7 -->
<g id="edge34" class="edge">
<title>Node22&#45;&gt;Node7</title>
<path fill="none" stroke="midnightblue" d="M561.51,-169.72C596,-160.59 655.47,-144.85 695.75,-134.18"/>
<polygon fill="midnightblue" stroke="midnightblue" points="696.78,-137.53 705.55,-131.59 694.99,-130.77 696.78,-137.53"/>
</g>
<!-- Node23&#45;&gt;Node6 -->
<g id="edge44" class="edge">
<title>Node23&#45;&gt;Node6</title>
<path fill="none" stroke="midnightblue" d="M811.98,-224.44C788.9,-215.48 752.44,-201.31 726.36,-191.18"/>
<polygon fill="midnightblue" stroke="midnightblue" points="727.51,-187.88 716.92,-187.52 724.98,-194.4 727.51,-187.88"/>
</g>
<!-- Node23&#45;&gt;Node7 -->
<g id="edge46" class="edge">
<title>Node23&#45;&gt;Node7</title>
<path fill="none" stroke="midnightblue" d="M826.47,-224.37C810.48,-206.05 772.95,-163.05 752.28,-139.36"/>
<polygon fill="midnightblue" stroke="midnightblue" points="754.71,-136.82 745.5,-131.59 749.44,-141.43 754.71,-136.82"/>
</g>
<!-- Node23&#45;&gt;Node9 -->
<g id="edge45" class="edge">
<title>Node23&#45;&gt;Node9</title>
<path fill="none" stroke="midnightblue" d="M832,-224.47C826.87,-203.79 811.81,-149.92 786,-112 778.34,-100.75 767.42,-90.23 757.93,-82.19"/>
<polygon fill="midnightblue" stroke="midnightblue" points="760.04,-79.4 750.07,-75.81 755.63,-84.83 760.04,-79.4"/>
</g>
</g>
</svg>
