<?xml version="1.0" encoding="UTF-8" standalone="no"?>
<!DOCTYPE svg PUBLIC "-//W3C//DTD SVG 1.1//EN"
 "http://www.w3.org/Graphics/SVG/1.1/DTD/svg11.dtd">
<!-- Generated by graphviz version 2.43.0 (0)
 -->
<!-- Title: /home/runner/work/Raytracer/Raytracer/PluginsExt/PointLight/PointLightCreator.hpp Pages: 1 -->
<svg width="779pt" height="442pt"
 viewBox="0.00 0.00 778.50 442.00" xmlns="http://www.w3.org/2000/svg" xmlns:xlink="http://www.w3.org/1999/xlink">
<g id="graph0" class="graph" transform="scale(1 1) rotate(0) translate(4 438)">
<title>/home/runner/work/Raytracer/Raytracer/PluginsExt/PointLight/PointLightCreator.hpp</title>
<polygon fill="white" stroke="transparent" points="-4,4 -4,-438 774.5,-438 774.5,4 -4,4"/>
<!-- Node1 -->
<g id="node1" class="node">
<title>Node1</title>
<g id="a_node1"><a xlink:title=" ">
<polygon fill="#bfbfbf" stroke="black" points="80.5,-392.5 80.5,-433.5 253.5,-433.5 253.5,-392.5 80.5,-392.5"/>
<text text-anchor="start" x="88.5" y="-421.5" font-family="Helvetica,sans-Serif" font-size="10.00">/home/runner/work/Raytracer</text>
<text text-anchor="start" x="88.5" y="-410.5" font-family="Helvetica,sans-Serif" font-size="10.00">/Raytracer/PluginsExt/PointLight</text>
<text text-anchor="middle" x="167" y="-399.5" font-family="Helvetica,sans-Serif" font-size="10.00">/PointLightCreator.hpp</text>
</a>
</g>
</g>
<!-- Node2 -->
<g id="node2" class="node">
<title>Node2</title>
<g id="a_node2"><a xlink:title=" ">
<polygon fill="white" stroke="#bfbfbf" points="330.5,-168.5 330.5,-187.5 377.5,-187.5 377.5,-168.5 330.5,-168.5"/>
<text text-anchor="middle" x="354" y="-175.5" font-family="Helvetica,sans-Serif" font-size="10.00">vector</text>
</a>
</g>
</g>
<!-- Node1&#45;&gt;Node2 -->
<g id="edge1" class="edge">
<title>Node1&#45;&gt;Node2</title>
<path fill="none" stroke="midnightblue" d="M253.56,-392.86C278.41,-384.45 304.35,-372.58 325,-356 370.78,-319.25 378.82,-300.43 395,-244 397.45,-235.46 398.21,-232.29 395,-224 390.55,-212.5 381.63,-202.13 373.25,-194.25"/>
<polygon fill="midnightblue" stroke="midnightblue" points="375.37,-191.46 365.54,-187.51 370.76,-196.73 375.37,-191.46"/>
</g>
<!-- Node3 -->
<g id="node3" class="node">
<title>Node3</title>
<g id="a_node3"><a xlink:title=" ">
<polygon fill="white" stroke="#bfbfbf" points="209,-0.5 209,-19.5 267,-19.5 267,-0.5 209,-0.5"/>
<text text-anchor="middle" x="238" y="-7.5" font-family="Helvetica,sans-Serif" font-size="10.00">memory</text>
</a>
</g>
</g>
<!-- Node1&#45;&gt;Node3 -->
<g id="edge2" class="edge">
<title>Node1&#45;&gt;Node3</title>
<path fill="none" stroke="midnightblue" d="M85.73,-392.45C64.2,-384.1 42.41,-372.37 26,-356 3.97,-334.03 0,-322.11 0,-291 0,-291 0,-291 0,-121 0,-34.58 130.88,-15.84 198.53,-11.93"/>
<polygon fill="midnightblue" stroke="midnightblue" points="199,-15.41 208.82,-11.42 198.66,-8.42 199,-15.41"/>
</g>
<!-- Node4 -->
<g id="node4" class="node">
<title>Node4</title>
<g id="a_node4"><a xlink:href="$a00158.html" xlink:title=" ">
<polygon fill="white" stroke="black" points="120.5,-280.5 120.5,-299.5 193.5,-299.5 193.5,-280.5 120.5,-280.5"/>
<text text-anchor="middle" x="157" y="-287.5" font-family="Helvetica,sans-Serif" font-size="10.00">ILogger.hpp</text>
</a>
</g>
</g>
<!-- Node1&#45;&gt;Node4 -->
<g id="edge3" class="edge">
<title>Node1&#45;&gt;Node4</title>
<path fill="none" stroke="midnightblue" d="M165.37,-392.29C163.49,-369.48 160.4,-332.19 158.55,-309.78"/>
<polygon fill="midnightblue" stroke="midnightblue" points="162.02,-309.25 157.71,-299.57 155.04,-309.83 162.02,-309.25"/>
</g>
<!-- Node7 -->
<g id="node7" class="node">
<title>Node7</title>
<g id="a_node7"><a xlink:href="$a00200.html" xlink:title=" ">
<polygon fill="white" stroke="black" points="35,-336.5 35,-355.5 139,-355.5 139,-336.5 35,-336.5"/>
<text text-anchor="middle" x="87" y="-343.5" font-family="Helvetica,sans-Serif" font-size="10.00">IEntityCreator.hpp</text>
</a>
</g>
</g>
<!-- Node1&#45;&gt;Node7 -->
<g id="edge6" class="edge">
<title>Node1&#45;&gt;Node7</title>
<path fill="none" stroke="midnightblue" d="M143,-392.5C130.97,-382.72 116.63,-371.07 105.47,-362.01"/>
<polygon fill="midnightblue" stroke="midnightblue" points="107.62,-359.24 97.65,-355.65 103.2,-364.67 107.62,-359.24"/>
</g>
<!-- Node14 -->
<g id="node14" class="node">
<title>Node14</title>
<g id="a_node14"><a xlink:href="$a00371.html" xlink:title=" ">
<polygon fill="white" stroke="black" points="203.5,-336.5 203.5,-355.5 316.5,-355.5 316.5,-336.5 203.5,-336.5"/>
<text text-anchor="middle" x="260" y="-343.5" font-family="Helvetica,sans-Serif" font-size="10.00">PointLightEntity.hpp</text>
</a>
</g>
</g>
<!-- Node1&#45;&gt;Node14 -->
<g id="edge17" class="edge">
<title>Node1&#45;&gt;Node14</title>
<path fill="none" stroke="midnightblue" d="M194.9,-392.5C209.16,-382.53 226.21,-370.61 239.29,-361.48"/>
<polygon fill="midnightblue" stroke="midnightblue" points="241.43,-364.25 247.62,-355.65 237.42,-358.51 241.43,-364.25"/>
</g>
<!-- Node5 -->
<g id="node5" class="node">
<title>Node5</title>
<g id="a_node5"><a xlink:title=" ">
<polygon fill="white" stroke="#bfbfbf" points="166.5,-224.5 166.5,-243.5 231.5,-243.5 231.5,-224.5 166.5,-224.5"/>
<text text-anchor="middle" x="199" y="-231.5" font-family="Helvetica,sans-Serif" font-size="10.00">functional</text>
</a>
</g>
</g>
<!-- Node4&#45;&gt;Node5 -->
<g id="edge4" class="edge">
<title>Node4&#45;&gt;Node5</title>
<path fill="none" stroke="midnightblue" d="M163.94,-280.08C169.93,-272.38 178.75,-261.03 186.05,-251.65"/>
<polygon fill="midnightblue" stroke="midnightblue" points="188.82,-253.79 192.19,-243.75 183.29,-249.5 188.82,-253.79"/>
</g>
<!-- Node6 -->
<g id="node6" class="node">
<title>Node6</title>
<g id="a_node6"><a xlink:title=" ">
<polygon fill="white" stroke="#bfbfbf" points="104,-224.5 104,-243.5 148,-243.5 148,-224.5 104,-224.5"/>
<text text-anchor="middle" x="126" y="-231.5" font-family="Helvetica,sans-Serif" font-size="10.00">string</text>
</a>
</g>
</g>
<!-- Node4&#45;&gt;Node6 -->
<g id="edge5" class="edge">
<title>Node4&#45;&gt;Node6</title>
<path fill="none" stroke="midnightblue" d="M151.88,-280.08C147.59,-272.61 141.34,-261.72 136.06,-252.52"/>
<polygon fill="midnightblue" stroke="midnightblue" points="139.04,-250.68 131.02,-243.75 132.97,-254.17 139.04,-250.68"/>
</g>
<!-- Node7&#45;&gt;Node3 -->
<g id="edge7" class="edge">
<title>Node7&#45;&gt;Node3</title>
<path fill="none" stroke="midnightblue" d="M80.19,-336.46C66.72,-318.69 38,-275.98 38,-235 38,-235 38,-235 38,-121 38,-48.29 140.74,-23.3 198.95,-14.98"/>
<polygon fill="midnightblue" stroke="midnightblue" points="199.47,-18.44 208.92,-13.65 198.54,-11.5 199.47,-18.44"/>
</g>
<!-- Node7&#45;&gt;Node4 -->
<g id="edge15" class="edge">
<title>Node7&#45;&gt;Node4</title>
<path fill="none" stroke="midnightblue" d="M98.25,-336.32C108.8,-328.18 124.8,-315.84 137.44,-306.09"/>
<polygon fill="midnightblue" stroke="midnightblue" points="139.77,-308.71 145.55,-299.83 135.49,-303.17 139.77,-308.71"/>
</g>
<!-- Node8 -->
<g id="node8" class="node">
<title>Node8</title>
<g id="a_node8"><a xlink:href="$a00110.html" xlink:title=" ">
<polygon fill="white" stroke="black" points="546,-224.5 546,-243.5 614,-243.5 614,-224.5 546,-224.5"/>
<text text-anchor="middle" x="580" y="-231.5" font-family="Helvetica,sans-Serif" font-size="10.00">IEntity.hpp</text>
</a>
</g>
</g>
<!-- Node7&#45;&gt;Node8 -->
<g id="edge8" class="edge">
<title>Node7&#45;&gt;Node8</title>
<path fill="none" stroke="midnightblue" d="M125.27,-336.46C215.32,-316.37 440.14,-266.21 535.8,-244.86"/>
<polygon fill="midnightblue" stroke="midnightblue" points="536.73,-248.24 545.73,-242.65 535.21,-241.41 536.73,-248.24"/>
</g>
<!-- Node12 -->
<g id="node12" class="node">
<title>Node12</title>
<g id="a_node12"><a xlink:href="$a00245.html" xlink:title=" ">
<polygon fill="white" stroke="black" points="349.5,-56.5 349.5,-75.5 424.5,-75.5 424.5,-56.5 349.5,-56.5"/>
<text text-anchor="middle" x="387" y="-63.5" font-family="Helvetica,sans-Serif" font-size="10.00">ISetting.hpp</text>
</a>
</g>
</g>
<!-- Node7&#45;&gt;Node12 -->
<g id="edge16" class="edge">
<title>Node7&#45;&gt;Node12</title>
<path fill="none" stroke="midnightblue" d="M85.56,-336.47C82.58,-318.02 76,-273 76,-235 76,-235 76,-235 76,-177 76,-121.77 252.52,-87.33 339.58,-73.69"/>
<polygon fill="midnightblue" stroke="midnightblue" points="340.13,-77.15 349.49,-72.17 339.07,-70.23 340.13,-77.15"/>
</g>
<!-- Node9 -->
<g id="node9" class="node">
<title>Node9</title>
<g id="a_node9"><a xlink:href="$a00122.html" xlink:title=" ">
<polygon fill="white" stroke="black" points="472.5,-168.5 472.5,-187.5 613.5,-187.5 613.5,-168.5 472.5,-168.5"/>
<text text-anchor="middle" x="543" y="-175.5" font-family="Helvetica,sans-Serif" font-size="10.00">Transform/ITransform.hpp</text>
</a>
</g>
</g>
<!-- Node8&#45;&gt;Node9 -->
<g id="edge9" class="edge">
<title>Node8&#45;&gt;Node9</title>
<path fill="none" stroke="midnightblue" d="M573.89,-224.08C568.72,-216.53 561.15,-205.49 554.81,-196.23"/>
<polygon fill="midnightblue" stroke="midnightblue" points="557.54,-194.02 549,-187.75 551.76,-197.98 557.54,-194.02"/>
</g>
<!-- Node10 -->
<g id="node10" class="node">
<title>Node10</title>
<g id="a_node10"><a xlink:href="$a00131.html" xlink:title=" ">
<polygon fill="white" stroke="black" points="469.5,-112.5 469.5,-131.5 546.5,-131.5 546.5,-112.5 469.5,-112.5"/>
<text text-anchor="middle" x="508" y="-119.5" font-family="Helvetica,sans-Serif" font-size="10.00">Vector3f.hpp</text>
</a>
</g>
</g>
<!-- Node9&#45;&gt;Node10 -->
<g id="edge10" class="edge">
<title>Node9&#45;&gt;Node10</title>
<path fill="none" stroke="midnightblue" d="M537.22,-168.08C532.33,-160.53 525.17,-149.49 519.17,-140.23"/>
<polygon fill="midnightblue" stroke="midnightblue" points="522.05,-138.24 513.67,-131.75 516.17,-142.05 522.05,-138.24"/>
</g>
<!-- Node11 -->
<g id="node11" class="node">
<title>Node11</title>
<g id="a_node11"><a xlink:title=" ">
<polygon fill="white" stroke="#bfbfbf" points="483.5,-56.5 483.5,-75.5 540.5,-75.5 540.5,-56.5 483.5,-56.5"/>
<text text-anchor="middle" x="512" y="-63.5" font-family="Helvetica,sans-Serif" font-size="10.00">ostream</text>
</a>
</g>
</g>
<!-- Node10&#45;&gt;Node11 -->
<g id="edge11" class="edge">
<title>Node10&#45;&gt;Node11</title>
<path fill="none" stroke="midnightblue" d="M508.66,-112.08C509.18,-105.01 509.94,-94.86 510.59,-85.99"/>
<polygon fill="midnightblue" stroke="midnightblue" points="514.1,-85.98 511.35,-75.75 507.12,-85.47 514.1,-85.98"/>
</g>
<!-- Node10&#45;&gt;Node12 -->
<g id="edge12" class="edge">
<title>Node10&#45;&gt;Node12</title>
<path fill="none" stroke="midnightblue" d="M488.83,-112.44C469.09,-103.64 438.11,-89.81 415.51,-79.72"/>
<polygon fill="midnightblue" stroke="midnightblue" points="416.64,-76.4 406.08,-75.52 413.79,-82.79 416.64,-76.4"/>
</g>
<!-- Node12&#45;&gt;Node3 -->
<g id="edge13" class="edge">
<title>Node12&#45;&gt;Node3</title>
<path fill="none" stroke="midnightblue" d="M363.39,-56.44C338.54,-47.44 299.23,-33.19 271.25,-23.05"/>
<polygon fill="midnightblue" stroke="midnightblue" points="272.09,-19.63 261.5,-19.52 269.71,-26.21 272.09,-19.63"/>
</g>
<!-- Node13 -->
<g id="node13" class="node">
<title>Node13</title>
<g id="a_node13"><a xlink:title=" ">
<polygon fill="white" stroke="#bfbfbf" points="345.5,-0.5 345.5,-19.5 428.5,-19.5 428.5,-0.5 345.5,-0.5"/>
<text text-anchor="middle" x="387" y="-7.5" font-family="Helvetica,sans-Serif" font-size="10.00">libconfig.h++</text>
</a>
</g>
</g>
<!-- Node12&#45;&gt;Node13 -->
<g id="edge14" class="edge">
<title>Node12&#45;&gt;Node13</title>
<path fill="none" stroke="midnightblue" d="M387,-56.08C387,-49.01 387,-38.86 387,-29.99"/>
<polygon fill="midnightblue" stroke="midnightblue" points="390.5,-29.75 387,-19.75 383.5,-29.75 390.5,-29.75"/>
</g>
<!-- Node14&#45;&gt;Node4 -->
<g id="edge32" class="edge">
<title>Node14&#45;&gt;Node4</title>
<path fill="none" stroke="midnightblue" d="M243.45,-336.32C227.01,-327.7 201.57,-314.36 182.53,-304.39"/>
<polygon fill="midnightblue" stroke="midnightblue" points="183.99,-301.2 173.51,-299.65 180.74,-307.4 183.99,-301.2"/>
</g>
<!-- Node15 -->
<g id="node15" class="node">
<title>Node15</title>
<g id="a_node15"><a xlink:href="$a00113.html" xlink:title=" ">
<polygon fill="white" stroke="black" points="547.5,-280.5 547.5,-299.5 612.5,-299.5 612.5,-280.5 547.5,-280.5"/>
<text text-anchor="middle" x="580" y="-287.5" font-family="Helvetica,sans-Serif" font-size="10.00">ILight.hpp</text>
</a>
</g>
</g>
<!-- Node14&#45;&gt;Node15 -->
<g id="edge18" class="edge">
<title>Node14&#45;&gt;Node15</title>
<path fill="none" stroke="midnightblue" d="M310.7,-336.44C373.22,-325.89 478.36,-308.15 537.07,-298.25"/>
<polygon fill="midnightblue" stroke="midnightblue" points="537.84,-301.66 547.12,-296.55 536.68,-294.76 537.84,-301.66"/>
</g>
<!-- Node20 -->
<g id="node20" class="node">
<title>Node20</title>
<g id="a_node20"><a xlink:href="$a00236.html" xlink:title=" ">
<polygon fill="white" stroke="black" points="202.5,-112.5 202.5,-131.5 273.5,-131.5 273.5,-112.5 202.5,-112.5"/>
<text text-anchor="middle" x="238" y="-119.5" font-family="Helvetica,sans-Serif" font-size="10.00">IConfig.hpp</text>
</a>
</g>
</g>
<!-- Node14&#45;&gt;Node20 -->
<g id="edge29" class="edge">
<title>Node14&#45;&gt;Node20</title>
<path fill="none" stroke="midnightblue" d="M259.14,-336.3C255.9,-303.63 244.43,-187.87 239.88,-141.96"/>
<polygon fill="midnightblue" stroke="midnightblue" points="243.35,-141.49 238.88,-131.88 236.38,-142.18 243.35,-141.49"/>
</g>
<!-- Node21 -->
<g id="node21" class="node">
<title>Node21</title>
<g id="a_node21"><a xlink:href="$a00125.html" xlink:title=" ">
<polygon fill="white" stroke="black" points="442,-224.5 442,-243.5 528,-243.5 528,-224.5 442,-224.5"/>
<text text-anchor="middle" x="485" y="-231.5" font-family="Helvetica,sans-Serif" font-size="10.00">Transform.hpp</text>
</a>
</g>
</g>
<!-- Node14&#45;&gt;Node21 -->
<g id="edge33" class="edge">
<title>Node14&#45;&gt;Node21</title>
<path fill="none" stroke="midnightblue" d="M277.66,-336.37C316.92,-317.17 411.69,-270.84 458.26,-248.07"/>
<polygon fill="midnightblue" stroke="midnightblue" points="459.98,-251.13 467.43,-243.59 456.91,-244.84 459.98,-251.13"/>
</g>
<!-- Node15&#45;&gt;Node8 -->
<g id="edge28" class="edge">
<title>Node15&#45;&gt;Node8</title>
<path fill="none" stroke="midnightblue" d="M580,-280.08C580,-273.01 580,-262.86 580,-253.99"/>
<polygon fill="midnightblue" stroke="midnightblue" points="583.5,-253.75 580,-243.75 576.5,-253.75 583.5,-253.75"/>
</g>
<!-- Node15&#45;&gt;Node10 -->
<g id="edge27" class="edge">
<title>Node15&#45;&gt;Node10</title>
<path fill="none" stroke="midnightblue" d="M592.5,-280.3C602.87,-272.25 616.89,-259.24 623,-244 635.57,-212.65 642.04,-195.9 623,-168 614.43,-155.45 580.08,-143 551.13,-134.38"/>
<polygon fill="midnightblue" stroke="midnightblue" points="551.75,-130.92 541.17,-131.5 549.8,-137.64 551.75,-130.92"/>
</g>
<!-- Node16 -->
<g id="node16" class="node">
<title>Node16</title>
<g id="a_node16"><a xlink:href="$a00161.html" xlink:title=" ">
<polygon fill="white" stroke="black" points="565,-112.5 565,-131.5 627,-131.5 627,-112.5 565,-112.5"/>
<text text-anchor="middle" x="596" y="-119.5" font-family="Helvetica,sans-Serif" font-size="10.00">Color.hpp</text>
</a>
</g>
</g>
<!-- Node15&#45;&gt;Node16 -->
<g id="edge19" class="edge">
<title>Node15&#45;&gt;Node16</title>
<path fill="none" stroke="midnightblue" d="M608.02,-280.4C625.17,-273.51 645.75,-261.98 656,-244 672.73,-214.66 671.11,-198.21 656,-168 649.27,-154.54 636.39,-144.07 624.29,-136.62"/>
<polygon fill="midnightblue" stroke="midnightblue" points="625.72,-133.41 615.3,-131.52 622.27,-139.5 625.72,-133.41"/>
</g>
<!-- Node19 -->
<g id="node19" class="node">
<title>Node19</title>
<g id="a_node19"><a xlink:href="$a00239.html" xlink:title=" ">
<polygon fill="white" stroke="black" points="288,-224.5 288,-243.5 386,-243.5 386,-224.5 288,-224.5"/>
<text text-anchor="middle" x="337" y="-231.5" font-family="Helvetica,sans-Serif" font-size="10.00">IDisplayable.hpp</text>
</a>
</g>
</g>
<!-- Node15&#45;&gt;Node19 -->
<g id="edge24" class="edge">
<title>Node15&#45;&gt;Node19</title>
<path fill="none" stroke="midnightblue" d="M547.48,-281.77C505.83,-272.52 433.28,-256.4 385.2,-245.71"/>
<polygon fill="midnightblue" stroke="midnightblue" points="385.85,-242.27 375.33,-243.52 384.33,-249.1 385.85,-242.27"/>
</g>
<!-- Node16&#45;&gt;Node11 -->
<g id="edge21" class="edge">
<title>Node16&#45;&gt;Node11</title>
<path fill="none" stroke="midnightblue" d="M582.5,-112.32C569.4,-103.9 549.29,-90.97 533.89,-81.07"/>
<polygon fill="midnightblue" stroke="midnightblue" points="535.77,-78.12 525.46,-75.65 531.98,-84.01 535.77,-78.12"/>
</g>
<!-- Node16&#45;&gt;Node12 -->
<g id="edge23" class="edge">
<title>Node16&#45;&gt;Node12</title>
<path fill="none" stroke="midnightblue" d="M564.71,-112.92C528.91,-103.67 470.08,-88.47 430,-78.11"/>
<polygon fill="midnightblue" stroke="midnightblue" points="430.79,-74.7 420.23,-75.59 429.04,-81.48 430.79,-74.7"/>
</g>
<!-- Node17 -->
<g id="node17" class="node">
<title>Node17</title>
<g id="a_node17"><a xlink:title=" ">
<polygon fill="white" stroke="#bfbfbf" points="567,-56.5 567,-75.5 615,-75.5 615,-56.5 567,-56.5"/>
<text text-anchor="middle" x="591" y="-63.5" font-family="Helvetica,sans-Serif" font-size="10.00">mutex</text>
</a>
</g>
</g>
<!-- Node16&#45;&gt;Node17 -->
<g id="edge20" class="edge">
<title>Node16&#45;&gt;Node17</title>
<path fill="none" stroke="midnightblue" d="M595.17,-112.08C594.52,-105.01 593.58,-94.86 592.76,-85.99"/>
<polygon fill="midnightblue" stroke="midnightblue" points="596.22,-85.39 591.81,-75.75 589.25,-86.03 596.22,-85.39"/>
</g>
<!-- Node18 -->
<g id="node18" class="node">
<title>Node18</title>
<g id="a_node18"><a xlink:title=" ">
<polygon fill="white" stroke="#bfbfbf" points="633.5,-56.5 633.5,-75.5 770.5,-75.5 770.5,-56.5 633.5,-56.5"/>
<text text-anchor="middle" x="702" y="-63.5" font-family="Helvetica,sans-Serif" font-size="10.00">SFML/Graphics/Color.hpp</text>
</a>
</g>
</g>
<!-- Node16&#45;&gt;Node18 -->
<g id="edge22" class="edge">
<title>Node16&#45;&gt;Node18</title>
<path fill="none" stroke="midnightblue" d="M613.03,-112.32C630.03,-103.66 656.38,-90.24 675.99,-80.25"/>
<polygon fill="midnightblue" stroke="midnightblue" points="677.69,-83.31 685.01,-75.65 674.51,-77.08 677.69,-83.31"/>
</g>
<!-- Node19&#45;&gt;Node2 -->
<g id="edge26" class="edge">
<title>Node19&#45;&gt;Node2</title>
<path fill="none" stroke="midnightblue" d="M339.81,-224.08C342.08,-216.85 345.37,-206.41 348.21,-197.4"/>
<polygon fill="midnightblue" stroke="midnightblue" points="351.58,-198.34 351.25,-187.75 344.9,-196.24 351.58,-198.34"/>
</g>
<!-- Node19&#45;&gt;Node3 -->
<g id="edge25" class="edge">
<title>Node19&#45;&gt;Node3</title>
<path fill="none" stroke="midnightblue" d="M333.12,-224.3C318.46,-191.42 266.27,-74.39 246.07,-29.09"/>
<polygon fill="midnightblue" stroke="midnightblue" points="249.23,-27.59 241.96,-19.88 242.84,-30.44 249.23,-27.59"/>
</g>
<!-- Node20&#45;&gt;Node3 -->
<g id="edge30" class="edge">
<title>Node20&#45;&gt;Node3</title>
<path fill="none" stroke="midnightblue" d="M238,-112.37C238,-94.62 238,-53.67 238,-29.6"/>
<polygon fill="midnightblue" stroke="midnightblue" points="241.5,-29.59 238,-19.59 234.5,-29.59 241.5,-29.59"/>
</g>
<!-- Node20&#45;&gt;Node12 -->
<g id="edge31" class="edge">
<title>Node20&#45;&gt;Node12</title>
<path fill="none" stroke="midnightblue" d="M261.61,-112.44C286.46,-103.44 325.77,-89.19 353.75,-79.05"/>
<polygon fill="midnightblue" stroke="midnightblue" points="355.29,-82.21 363.5,-75.52 352.91,-75.63 355.29,-82.21"/>
</g>
<!-- Node21&#45;&gt;Node9 -->
<g id="edge34" class="edge">
<title>Node21&#45;&gt;Node9</title>
<path fill="none" stroke="midnightblue" d="M494.32,-224.32C502.89,-216.34 515.81,-204.31 526.19,-194.65"/>
<polygon fill="midnightblue" stroke="midnightblue" points="528.58,-197.21 533.51,-187.83 523.81,-192.09 528.58,-197.21"/>
</g>
<!-- Node21&#45;&gt;Node10 -->
<g id="edge36" class="edge">
<title>Node21&#45;&gt;Node10</title>
<path fill="none" stroke="midnightblue" d="M478.16,-224.45C469,-211.9 454.79,-187.81 463,-168 467.92,-156.12 477.67,-145.74 486.83,-137.96"/>
<polygon fill="midnightblue" stroke="midnightblue" points="489.25,-140.51 494.94,-131.56 484.92,-135.01 489.25,-140.51"/>
</g>
<!-- Node21&#45;&gt;Node12 -->
<g id="edge35" class="edge">
<title>Node21&#45;&gt;Node12</title>
<path fill="none" stroke="midnightblue" d="M479.55,-224.42C473.85,-215.41 464.67,-200.78 457,-188 435.04,-151.4 410.21,-107.98 396.82,-84.38"/>
<polygon fill="midnightblue" stroke="midnightblue" points="399.8,-82.54 391.83,-75.56 393.71,-85.99 399.8,-82.54"/>
</g>
</g>
</svg>
