<?xml version="1.0" encoding="UTF-8" standalone="no"?>
<!DOCTYPE svg PUBLIC "-//W3C//DTD SVG 1.1//EN"
 "http://www.w3.org/Graphics/SVG/1.1/DTD/svg11.dtd">
<!-- Generated by graphviz version 2.43.0 (0)
 -->
<!-- Title: /home/runner/work/Raytracer/Raytracer/PluginsExt/Obj/ObjCreator.hpp Pages: 1 -->
<svg width="772pt" height="442pt"
 viewBox="0.00 0.00 772.25 442.00" xmlns="http://www.w3.org/2000/svg" xmlns:xlink="http://www.w3.org/1999/xlink">
<g id="graph0" class="graph" transform="scale(1 1) rotate(0) translate(4 438)">
<title>/home/runner/work/Raytracer/Raytracer/PluginsExt/Obj/ObjCreator.hpp</title>
<polygon fill="white" stroke="transparent" points="-4,4 -4,-438 768.25,-438 768.25,4 -4,4"/>
<!-- Node1 -->
<g id="node1" class="node">
<title>Node1</title>
<g id="a_node1"><a xlink:title=" ">
<polygon fill="#bfbfbf" stroke="black" points="61.5,-392.5 61.5,-433.5 220.5,-433.5 220.5,-392.5 61.5,-392.5"/>
<text text-anchor="start" x="69.5" y="-421.5" font-family="Helvetica,sans-Serif" font-size="10.00">/home/runner/work/Raytracer</text>
<text text-anchor="start" x="69.5" y="-410.5" font-family="Helvetica,sans-Serif" font-size="10.00">/Raytracer/PluginsExt/Obj</text>
<text text-anchor="middle" x="141" y="-399.5" font-family="Helvetica,sans-Serif" font-size="10.00">/ObjCreator.hpp</text>
</a>
</g>
</g>
<!-- Node2 -->
<g id="node2" class="node">
<title>Node2</title>
<g id="a_node2"><a xlink:title=" ">
<polygon fill="white" stroke="#bfbfbf" points="52.5,-112.5 52.5,-131.5 99.5,-131.5 99.5,-112.5 52.5,-112.5"/>
<text text-anchor="middle" x="76" y="-119.5" font-family="Helvetica,sans-Serif" font-size="10.00">vector</text>
</a>
</g>
</g>
<!-- Node1&#45;&gt;Node2 -->
<g id="edge1" class="edge">
<title>Node1&#45;&gt;Node2</title>
<path fill="none" stroke="midnightblue" d="M108.41,-392.34C78.23,-371.37 38,-335.14 38,-291 38,-291 38,-291 38,-233 38,-198.81 54.6,-161.76 65.86,-140.57"/>
<polygon fill="midnightblue" stroke="midnightblue" points="68.95,-142.22 70.72,-131.77 62.82,-138.83 68.95,-142.22"/>
</g>
<!-- Node3 -->
<g id="node3" class="node">
<title>Node3</title>
<g id="a_node3"><a xlink:title=" ">
<polygon fill="white" stroke="#bfbfbf" points="321,-0.5 321,-19.5 379,-19.5 379,-0.5 321,-0.5"/>
<text text-anchor="middle" x="350" y="-7.5" font-family="Helvetica,sans-Serif" font-size="10.00">memory</text>
</a>
</g>
</g>
<!-- Node1&#45;&gt;Node3 -->
<g id="edge2" class="edge">
<title>Node1&#45;&gt;Node3</title>
<path fill="none" stroke="midnightblue" d="M89.7,-392.4C49.38,-373.27 0,-339.87 0,-291 0,-291 0,-291 0,-121 0,-56.45 219.4,-25.16 310.79,-14.93"/>
<polygon fill="midnightblue" stroke="midnightblue" points="311.2,-18.4 320.76,-13.84 310.44,-11.44 311.2,-18.4"/>
</g>
<!-- Node4 -->
<g id="node4" class="node">
<title>Node4</title>
<g id="a_node4"><a xlink:href="$a00197.html" xlink:title=" ">
<polygon fill="white" stroke="black" points="597,-336.5 597,-355.5 701,-355.5 701,-336.5 597,-336.5"/>
<text text-anchor="middle" x="649" y="-343.5" font-family="Helvetica,sans-Serif" font-size="10.00">IEntityCreator.hpp</text>
</a>
</g>
</g>
<!-- Node1&#45;&gt;Node4 -->
<g id="edge3" class="edge">
<title>Node1&#45;&gt;Node4</title>
<path fill="none" stroke="midnightblue" d="M220.65,-401.81C321.99,-388.84 494.86,-366.72 586.96,-354.94"/>
<polygon fill="midnightblue" stroke="midnightblue" points="587.49,-358.4 596.97,-353.66 586.6,-351.46 587.49,-358.4"/>
</g>
<!-- Node11 -->
<g id="node11" class="node">
<title>Node11</title>
<g id="a_node11"><a xlink:href="$a00155.html" xlink:title=" ">
<polygon fill="white" stroke="black" points="104.5,-280.5 104.5,-299.5 177.5,-299.5 177.5,-280.5 104.5,-280.5"/>
<text text-anchor="middle" x="141" y="-287.5" font-family="Helvetica,sans-Serif" font-size="10.00">ILogger.hpp</text>
</a>
</g>
</g>
<!-- Node1&#45;&gt;Node11 -->
<g id="edge16" class="edge">
<title>Node1&#45;&gt;Node11</title>
<path fill="none" stroke="midnightblue" d="M141,-392.29C141,-369.48 141,-332.19 141,-309.78"/>
<polygon fill="midnightblue" stroke="midnightblue" points="144.5,-309.57 141,-299.57 137.5,-309.57 144.5,-309.57"/>
</g>
<!-- Node14 -->
<g id="node14" class="node">
<title>Node14</title>
<g id="a_node14"><a xlink:href="$a00350.html" xlink:title=" ">
<polygon fill="white" stroke="black" points="232.5,-336.5 232.5,-355.5 313.5,-355.5 313.5,-336.5 232.5,-336.5"/>
<text text-anchor="middle" x="273" y="-343.5" font-family="Helvetica,sans-Serif" font-size="10.00">ObjEntity.hpp</text>
</a>
</g>
</g>
<!-- Node1&#45;&gt;Node14 -->
<g id="edge17" class="edge">
<title>Node1&#45;&gt;Node14</title>
<path fill="none" stroke="midnightblue" d="M180.6,-392.5C201.82,-382.05 227.38,-369.46 246.24,-360.18"/>
<polygon fill="midnightblue" stroke="midnightblue" points="248,-363.21 255.43,-355.65 244.91,-356.93 248,-363.21"/>
</g>
<!-- Node4&#45;&gt;Node3 -->
<g id="edge4" class="edge">
<title>Node4&#45;&gt;Node3</title>
<path fill="none" stroke="midnightblue" d="M664.55,-336.3C689.59,-321.27 737.99,-287.8 757,-244 783.77,-182.3 727.14,-162.75 683,-112 659.27,-84.72 656.38,-72.08 624,-56 547.14,-17.82 444.67,-10.98 389.38,-10.35"/>
<polygon fill="midnightblue" stroke="midnightblue" points="389.32,-6.85 379.3,-10.3 389.28,-13.85 389.32,-6.85"/>
</g>
<!-- Node5 -->
<g id="node5" class="node">
<title>Node5</title>
<g id="a_node5"><a xlink:href="$a00107.html" xlink:title=" ">
<polygon fill="white" stroke="black" points="576,-224.5 576,-243.5 644,-243.5 644,-224.5 576,-224.5"/>
<text text-anchor="middle" x="610" y="-231.5" font-family="Helvetica,sans-Serif" font-size="10.00">IEntity.hpp</text>
</a>
</g>
</g>
<!-- Node4&#45;&gt;Node5 -->
<g id="edge5" class="edge">
<title>Node4&#45;&gt;Node5</title>
<path fill="none" stroke="midnightblue" d="M645.94,-336.37C639.62,-318.54 625,-277.3 616.48,-253.27"/>
<polygon fill="midnightblue" stroke="midnightblue" points="619.69,-251.85 613.05,-243.59 613.09,-254.19 619.69,-251.85"/>
</g>
<!-- Node9 -->
<g id="node9" class="node">
<title>Node9</title>
<g id="a_node9"><a xlink:href="$a00242.html" xlink:title=" ">
<polygon fill="white" stroke="black" points="539.5,-56.5 539.5,-75.5 614.5,-75.5 614.5,-56.5 539.5,-56.5"/>
<text text-anchor="middle" x="577" y="-63.5" font-family="Helvetica,sans-Serif" font-size="10.00">ISetting.hpp</text>
</a>
</g>
</g>
<!-- Node4&#45;&gt;Node9 -->
<g id="edge15" class="edge">
<title>Node4&#45;&gt;Node9</title>
<path fill="none" stroke="midnightblue" d="M667.53,-336.4C702.11,-318.97 771.72,-276.61 757,-224 740.92,-166.55 729.54,-149.33 683,-112 664.15,-96.88 639.47,-86.01 618.67,-78.74"/>
<polygon fill="midnightblue" stroke="midnightblue" points="619.71,-75.4 609.12,-75.56 617.5,-82.04 619.71,-75.4"/>
</g>
<!-- Node4&#45;&gt;Node11 -->
<g id="edge12" class="edge">
<title>Node4&#45;&gt;Node11</title>
<path fill="none" stroke="midnightblue" d="M596.55,-339.42C497.1,-328.85 282.61,-306.05 187.75,-295.97"/>
<polygon fill="midnightblue" stroke="midnightblue" points="187.92,-292.47 177.6,-294.89 187.18,-299.43 187.92,-292.47"/>
</g>
<!-- Node6 -->
<g id="node6" class="node">
<title>Node6</title>
<g id="a_node6"><a xlink:href="$a00119.html" xlink:title=" ">
<polygon fill="white" stroke="black" points="537.5,-168.5 537.5,-187.5 678.5,-187.5 678.5,-168.5 537.5,-168.5"/>
<text text-anchor="middle" x="608" y="-175.5" font-family="Helvetica,sans-Serif" font-size="10.00">Transform/ITransform.hpp</text>
</a>
</g>
</g>
<!-- Node5&#45;&gt;Node6 -->
<g id="edge6" class="edge">
<title>Node5&#45;&gt;Node6</title>
<path fill="none" stroke="midnightblue" d="M609.67,-224.08C609.41,-217.01 609.03,-206.86 608.7,-197.99"/>
<polygon fill="midnightblue" stroke="midnightblue" points="612.19,-197.61 608.32,-187.75 605.2,-197.87 612.19,-197.61"/>
</g>
<!-- Node7 -->
<g id="node7" class="node">
<title>Node7</title>
<g id="a_node7"><a xlink:href="$a00128.html" xlink:title=" ">
<polygon fill="white" stroke="black" points="538.5,-112.5 538.5,-131.5 615.5,-131.5 615.5,-112.5 538.5,-112.5"/>
<text text-anchor="middle" x="577" y="-119.5" font-family="Helvetica,sans-Serif" font-size="10.00">Vector3f.hpp</text>
</a>
</g>
</g>
<!-- Node6&#45;&gt;Node7 -->
<g id="edge7" class="edge">
<title>Node6&#45;&gt;Node7</title>
<path fill="none" stroke="midnightblue" d="M602.88,-168.08C598.59,-160.61 592.34,-149.72 587.06,-140.52"/>
<polygon fill="midnightblue" stroke="midnightblue" points="590.04,-138.68 582.02,-131.75 583.97,-142.17 590.04,-138.68"/>
</g>
<!-- Node8 -->
<g id="node8" class="node">
<title>Node8</title>
<g id="a_node8"><a xlink:title=" ">
<polygon fill="white" stroke="#bfbfbf" points="352.5,-56.5 352.5,-75.5 409.5,-75.5 409.5,-56.5 352.5,-56.5"/>
<text text-anchor="middle" x="381" y="-63.5" font-family="Helvetica,sans-Serif" font-size="10.00">ostream</text>
</a>
</g>
</g>
<!-- Node7&#45;&gt;Node8 -->
<g id="edge8" class="edge">
<title>Node7&#45;&gt;Node8</title>
<path fill="none" stroke="midnightblue" d="M545.94,-112.44C511.71,-103.01 456.59,-87.83 419.6,-77.63"/>
<polygon fill="midnightblue" stroke="midnightblue" points="420.25,-74.18 409.68,-74.9 418.39,-80.93 420.25,-74.18"/>
</g>
<!-- Node7&#45;&gt;Node9 -->
<g id="edge9" class="edge">
<title>Node7&#45;&gt;Node9</title>
<path fill="none" stroke="midnightblue" d="M577,-112.08C577,-105.01 577,-94.86 577,-85.99"/>
<polygon fill="midnightblue" stroke="midnightblue" points="580.5,-85.75 577,-75.75 573.5,-85.75 580.5,-85.75"/>
</g>
<!-- Node9&#45;&gt;Node3 -->
<g id="edge10" class="edge">
<title>Node9&#45;&gt;Node3</title>
<path fill="none" stroke="midnightblue" d="M541.03,-56.44C499.6,-46.59 431.76,-30.45 389.06,-20.29"/>
<polygon fill="midnightblue" stroke="midnightblue" points="389.84,-16.88 379.3,-17.97 388.22,-23.69 389.84,-16.88"/>
</g>
<!-- Node10 -->
<g id="node10" class="node">
<title>Node10</title>
<g id="a_node10"><a xlink:title=" ">
<polygon fill="white" stroke="#bfbfbf" points="535.5,-0.5 535.5,-19.5 618.5,-19.5 618.5,-0.5 535.5,-0.5"/>
<text text-anchor="middle" x="577" y="-7.5" font-family="Helvetica,sans-Serif" font-size="10.00">libconfig.h++</text>
</a>
</g>
</g>
<!-- Node9&#45;&gt;Node10 -->
<g id="edge11" class="edge">
<title>Node9&#45;&gt;Node10</title>
<path fill="none" stroke="midnightblue" d="M577,-56.08C577,-49.01 577,-38.86 577,-29.99"/>
<polygon fill="midnightblue" stroke="midnightblue" points="580.5,-29.75 577,-19.75 573.5,-29.75 580.5,-29.75"/>
</g>
<!-- Node12 -->
<g id="node12" class="node">
<title>Node12</title>
<g id="a_node12"><a xlink:title=" ">
<polygon fill="white" stroke="#bfbfbf" points="166.5,-224.5 166.5,-243.5 231.5,-243.5 231.5,-224.5 166.5,-224.5"/>
<text text-anchor="middle" x="199" y="-231.5" font-family="Helvetica,sans-Serif" font-size="10.00">functional</text>
</a>
</g>
</g>
<!-- Node11&#45;&gt;Node12 -->
<g id="edge13" class="edge">
<title>Node11&#45;&gt;Node12</title>
<path fill="none" stroke="midnightblue" d="M150.32,-280.32C158.89,-272.34 171.81,-260.31 182.19,-250.65"/>
<polygon fill="midnightblue" stroke="midnightblue" points="184.58,-253.21 189.51,-243.83 179.81,-248.09 184.58,-253.21"/>
</g>
<!-- Node13 -->
<g id="node13" class="node">
<title>Node13</title>
<g id="a_node13"><a xlink:title=" ">
<polygon fill="white" stroke="#bfbfbf" points="104,-224.5 104,-243.5 148,-243.5 148,-224.5 104,-224.5"/>
<text text-anchor="middle" x="126" y="-231.5" font-family="Helvetica,sans-Serif" font-size="10.00">string</text>
</a>
</g>
</g>
<!-- Node11&#45;&gt;Node13 -->
<g id="edge14" class="edge">
<title>Node11&#45;&gt;Node13</title>
<path fill="none" stroke="midnightblue" d="M138.52,-280.08C136.51,-272.85 133.61,-262.41 131.11,-253.4"/>
<polygon fill="midnightblue" stroke="midnightblue" points="134.48,-252.45 128.43,-243.75 127.74,-254.32 134.48,-252.45"/>
</g>
<!-- Node14&#45;&gt;Node2 -->
<g id="edge19" class="edge">
<title>Node14&#45;&gt;Node2</title>
<path fill="none" stroke="midnightblue" d="M232.25,-340.1C185.43,-333.59 112.76,-320.46 95,-300 55.87,-254.94 64.96,-177.15 71.79,-141.64"/>
<polygon fill="midnightblue" stroke="midnightblue" points="75.25,-142.2 73.86,-131.7 68.4,-140.77 75.25,-142.2"/>
</g>
<!-- Node14&#45;&gt;Node11 -->
<g id="edge23" class="edge">
<title>Node14&#45;&gt;Node11</title>
<path fill="none" stroke="midnightblue" d="M252.08,-336.44C230.26,-327.52 195.85,-313.44 171.11,-303.32"/>
<polygon fill="midnightblue" stroke="midnightblue" points="172.4,-300.06 161.82,-299.52 169.75,-306.54 172.4,-300.06"/>
</g>
<!-- Node14&#45;&gt;Node12 -->
<g id="edge18" class="edge">
<title>Node14&#45;&gt;Node12</title>
<path fill="none" stroke="midnightblue" d="M263.18,-336.44C253.8,-327.9 239.69,-314.05 230,-300 219.92,-285.38 211.48,-266.98 205.97,-253.49"/>
<polygon fill="midnightblue" stroke="midnightblue" points="209.11,-251.91 202.2,-243.89 202.59,-254.47 209.11,-251.91"/>
</g>
<!-- Node15 -->
<g id="node15" class="node">
<title>Node15</title>
<g id="a_node15"><a xlink:title=" ">
<polygon fill="white" stroke="#bfbfbf" points="527.5,-280.5 527.5,-299.5 582.5,-299.5 582.5,-280.5 527.5,-280.5"/>
<text text-anchor="middle" x="555" y="-287.5" font-family="Helvetica,sans-Serif" font-size="10.00">fstream</text>
</a>
</g>
</g>
<!-- Node14&#45;&gt;Node15 -->
<g id="edge20" class="edge">
<title>Node14&#45;&gt;Node15</title>
<path fill="none" stroke="midnightblue" d="M313.64,-338.39C360.54,-330.57 440.2,-316.75 517.26,-300.28"/>
<polygon fill="midnightblue" stroke="midnightblue" points="518.09,-303.68 527.13,-298.15 516.62,-296.84 518.09,-303.68"/>
</g>
<!-- Node16 -->
<g id="node16" class="node">
<title>Node16</title>
<g id="a_node16"><a xlink:title=" ">
<polygon fill="white" stroke="#bfbfbf" points="272,-280.5 272,-299.5 332,-299.5 332,-280.5 272,-280.5"/>
<text text-anchor="middle" x="302" y="-287.5" font-family="Helvetica,sans-Serif" font-size="10.00">iostream</text>
</a>
</g>
</g>
<!-- Node14&#45;&gt;Node16 -->
<g id="edge21" class="edge">
<title>Node14&#45;&gt;Node16</title>
<path fill="none" stroke="midnightblue" d="M277.79,-336.08C281.76,-328.69 287.53,-317.95 292.43,-308.81"/>
<polygon fill="midnightblue" stroke="midnightblue" points="295.65,-310.22 297.3,-299.75 289.49,-306.91 295.65,-310.22"/>
</g>
<!-- Node17 -->
<g id="node17" class="node">
<title>Node17</title>
<g id="a_node17"><a xlink:title=" ">
<polygon fill="white" stroke="#bfbfbf" points="350,-280.5 350,-299.5 406,-299.5 406,-280.5 350,-280.5"/>
<text text-anchor="middle" x="378" y="-287.5" font-family="Helvetica,sans-Serif" font-size="10.00">sstream</text>
</a>
</g>
</g>
<!-- Node14&#45;&gt;Node17 -->
<g id="edge22" class="edge">
<title>Node14&#45;&gt;Node17</title>
<path fill="none" stroke="midnightblue" d="M289.87,-336.32C306.71,-327.66 332.81,-314.24 352.24,-304.25"/>
<polygon fill="midnightblue" stroke="midnightblue" points="353.88,-307.34 361.17,-299.65 350.68,-301.12 353.88,-307.34"/>
</g>
<!-- Node18 -->
<g id="node18" class="node">
<title>Node18</title>
<g id="a_node18"><a xlink:href="$a00116.html" xlink:title=" ">
<polygon fill="white" stroke="black" points="424.5,-280.5 424.5,-299.5 509.5,-299.5 509.5,-280.5 424.5,-280.5"/>
<text text-anchor="middle" x="467" y="-287.5" font-family="Helvetica,sans-Serif" font-size="10.00">IPrimitive.hpp</text>
</a>
</g>
</g>
<!-- Node14&#45;&gt;Node18 -->
<g id="edge24" class="edge">
<title>Node14&#45;&gt;Node18</title>
<path fill="none" stroke="midnightblue" d="M303.74,-336.44C336.94,-327.2 389.99,-312.44 426.56,-302.26"/>
<polygon fill="midnightblue" stroke="midnightblue" points="427.71,-305.57 436.4,-299.52 425.83,-298.83 427.71,-305.57"/>
</g>
<!-- Node24 -->
<g id="node24" class="node">
<title>Node24</title>
<g id="a_node24"><a xlink:href="$a00113.html" xlink:title=" ">
<polygon fill="white" stroke="black" points="326.5,-224.5 326.5,-243.5 407.5,-243.5 407.5,-224.5 326.5,-224.5"/>
<text text-anchor="middle" x="367" y="-231.5" font-family="Helvetica,sans-Serif" font-size="10.00">IMaterial.hpp</text>
</a>
</g>
</g>
<!-- Node14&#45;&gt;Node24 -->
<g id="edge48" class="edge">
<title>Node14&#45;&gt;Node24</title>
<path fill="none" stroke="midnightblue" d="M268.12,-336.2C261.46,-322.89 251.59,-297.37 263,-280 275.07,-261.63 296.41,-250.72 316.63,-244.26"/>
<polygon fill="midnightblue" stroke="midnightblue" points="317.79,-247.57 326.42,-241.44 315.85,-240.85 317.79,-247.57"/>
</g>
<!-- Node26 -->
<g id="node26" class="node">
<title>Node26</title>
<g id="a_node26"><a xlink:href="$a00122.html" xlink:title=" ">
<polygon fill="white" stroke="black" points="662,-224.5 662,-243.5 748,-243.5 748,-224.5 662,-224.5"/>
<text text-anchor="middle" x="705" y="-231.5" font-family="Helvetica,sans-Serif" font-size="10.00">Transform.hpp</text>
</a>
</g>
</g>
<!-- Node14&#45;&gt;Node26 -->
<g id="edge44" class="edge">
<title>Node14&#45;&gt;Node26</title>
<path fill="none" stroke="midnightblue" d="M313.68,-344.18C375.45,-341.85 495.87,-333.04 592,-300 627.02,-287.96 663.44,-264.76 685.16,-249.58"/>
<polygon fill="midnightblue" stroke="midnightblue" points="687.41,-252.28 693.52,-243.62 683.35,-246.57 687.41,-252.28"/>
</g>
<!-- Node18&#45;&gt;Node5 -->
<g id="edge34" class="edge">
<title>Node18&#45;&gt;Node5</title>
<path fill="none" stroke="midnightblue" d="M489.66,-280.44C513.4,-271.48 550.91,-257.31 577.74,-247.18"/>
<polygon fill="midnightblue" stroke="midnightblue" points="579.33,-250.32 587.45,-243.52 576.86,-243.77 579.33,-250.32"/>
</g>
<!-- Node18&#45;&gt;Node7 -->
<g id="edge43" class="edge">
<title>Node18&#45;&gt;Node7</title>
<path fill="none" stroke="midnightblue" d="M487.22,-280.49C501.77,-273.17 520.3,-261.06 529,-244 544.34,-213.91 515.57,-198.99 529,-168 534.27,-155.84 544.62,-145.46 554.36,-137.74"/>
<polygon fill="midnightblue" stroke="midnightblue" points="556.64,-140.41 562.63,-131.67 552.5,-134.77 556.64,-140.41"/>
</g>
<!-- Node19 -->
<g id="node19" class="node">
<title>Node19</title>
<g id="a_node19"><a xlink:title=" ">
<polygon fill="white" stroke="#bfbfbf" points="464,-224.5 464,-243.5 520,-243.5 520,-224.5 464,-224.5"/>
<text text-anchor="middle" x="492" y="-231.5" font-family="Helvetica,sans-Serif" font-size="10.00">optional</text>
</a>
</g>
</g>
<!-- Node18&#45;&gt;Node19 -->
<g id="edge25" class="edge">
<title>Node18&#45;&gt;Node19</title>
<path fill="none" stroke="midnightblue" d="M471.13,-280.08C474.51,-272.77 479.42,-262.18 483.62,-253.1"/>
<polygon fill="midnightblue" stroke="midnightblue" points="486.92,-254.3 487.95,-243.75 480.57,-251.36 486.92,-254.3"/>
</g>
<!-- Node20 -->
<g id="node20" class="node">
<title>Node20</title>
<g id="a_node20"><a xlink:href="$a00158.html" xlink:title=" ">
<polygon fill="white" stroke="black" points="307,-168.5 307,-187.5 369,-187.5 369,-168.5 307,-168.5"/>
<text text-anchor="middle" x="338" y="-175.5" font-family="Helvetica,sans-Serif" font-size="10.00">Color.hpp</text>
</a>
</g>
</g>
<!-- Node18&#45;&gt;Node20 -->
<g id="edge26" class="edge">
<title>Node18&#45;&gt;Node20</title>
<path fill="none" stroke="midnightblue" d="M430.67,-280.5C388.53,-270.27 323.94,-253.33 317,-244 306.43,-229.8 315.33,-210.05 324.59,-196.06"/>
<polygon fill="midnightblue" stroke="midnightblue" points="327.52,-197.97 330.52,-187.81 321.84,-193.89 327.52,-197.97"/>
</g>
<!-- Node23 -->
<g id="node23" class="node">
<title>Node23</title>
<g id="a_node23"><a xlink:href="$a00236.html" xlink:title=" ">
<polygon fill="white" stroke="black" points="173,-168.5 173,-187.5 271,-187.5 271,-168.5 173,-168.5"/>
<text text-anchor="middle" x="222" y="-175.5" font-family="Helvetica,sans-Serif" font-size="10.00">IDisplayable.hpp</text>
</a>
</g>
</g>
<!-- Node18&#45;&gt;Node23 -->
<g id="edge31" class="edge">
<title>Node18&#45;&gt;Node23</title>
<path fill="none" stroke="midnightblue" d="M424.21,-281.23C391.52,-274.26 345.94,-262.28 309,-244 282.52,-230.9 255.87,-209.48 239.17,-194.84"/>
<polygon fill="midnightblue" stroke="midnightblue" points="241.18,-191.95 231.4,-187.88 236.51,-197.16 241.18,-191.95"/>
</g>
<!-- Node18&#45;&gt;Node24 -->
<g id="edge35" class="edge">
<title>Node18&#45;&gt;Node24</title>
<path fill="none" stroke="midnightblue" d="M450.93,-280.32C435.04,-271.74 410.49,-258.49 392.04,-248.52"/>
<polygon fill="midnightblue" stroke="midnightblue" points="393.49,-245.33 383.03,-243.65 390.16,-251.49 393.49,-245.33"/>
</g>
<!-- Node25 -->
<g id="node25" class="node">
<title>Node25</title>
<g id="a_node25"><a xlink:href="$a00173.html" xlink:title=" ">
<polygon fill="white" stroke="black" points="425.5,-168.5 425.5,-187.5 480.5,-187.5 480.5,-168.5 425.5,-168.5"/>
<text text-anchor="middle" x="453" y="-175.5" font-family="Helvetica,sans-Serif" font-size="10.00">Ray.hpp</text>
</a>
</g>
</g>
<!-- Node18&#45;&gt;Node25 -->
<g id="edge42" class="edge">
<title>Node18&#45;&gt;Node25</title>
<path fill="none" stroke="midnightblue" d="M464.1,-280.5C461.2,-271.54 456.9,-256.96 455,-244 452.74,-228.62 452.34,-210.98 452.44,-197.97"/>
<polygon fill="midnightblue" stroke="midnightblue" points="455.94,-197.95 452.63,-187.89 448.94,-197.82 455.94,-197.95"/>
</g>
<!-- Node20&#45;&gt;Node8 -->
<g id="edge28" class="edge">
<title>Node20&#45;&gt;Node8</title>
<path fill="none" stroke="midnightblue" d="M315.92,-168.37C290.17,-156.98 253.06,-135.59 269,-112 285.3,-87.89 316.87,-76.7 342.35,-71.5"/>
<polygon fill="midnightblue" stroke="midnightblue" points="343.26,-74.89 352.48,-69.68 342.02,-68 343.26,-74.89"/>
</g>
<!-- Node20&#45;&gt;Node9 -->
<g id="edge30" class="edge">
<title>Node20&#45;&gt;Node9</title>
<path fill="none" stroke="midnightblue" d="M369.12,-171.29C400.94,-164.68 451.19,-152.05 491,-132 517.19,-118.81 543.54,-97.41 560.04,-82.8"/>
<polygon fill="midnightblue" stroke="midnightblue" points="562.65,-85.16 567.72,-75.86 557.95,-79.97 562.65,-85.16"/>
</g>
<!-- Node21 -->
<g id="node21" class="node">
<title>Node21</title>
<g id="a_node21"><a xlink:title=" ">
<polygon fill="white" stroke="#bfbfbf" points="434,-112.5 434,-131.5 482,-131.5 482,-112.5 434,-112.5"/>
<text text-anchor="middle" x="458" y="-119.5" font-family="Helvetica,sans-Serif" font-size="10.00">mutex</text>
</a>
</g>
</g>
<!-- Node20&#45;&gt;Node21 -->
<g id="edge27" class="edge">
<title>Node20&#45;&gt;Node21</title>
<path fill="none" stroke="midnightblue" d="M357.01,-168.44C376.59,-159.64 407.31,-145.81 429.73,-135.72"/>
<polygon fill="midnightblue" stroke="midnightblue" points="431.39,-138.81 439.07,-131.52 428.52,-132.43 431.39,-138.81"/>
</g>
<!-- Node22 -->
<g id="node22" class="node">
<title>Node22</title>
<g id="a_node22"><a xlink:title=" ">
<polygon fill="white" stroke="#bfbfbf" points="278.5,-112.5 278.5,-131.5 415.5,-131.5 415.5,-112.5 278.5,-112.5"/>
<text text-anchor="middle" x="347" y="-119.5" font-family="Helvetica,sans-Serif" font-size="10.00">SFML/Graphics/Color.hpp</text>
</a>
</g>
</g>
<!-- Node20&#45;&gt;Node22 -->
<g id="edge29" class="edge">
<title>Node20&#45;&gt;Node22</title>
<path fill="none" stroke="midnightblue" d="M339.49,-168.08C340.68,-160.93 342.39,-150.64 343.88,-141.69"/>
<polygon fill="midnightblue" stroke="midnightblue" points="347.35,-142.19 345.54,-131.75 340.45,-141.04 347.35,-142.19"/>
</g>
<!-- Node23&#45;&gt;Node2 -->
<g id="edge33" class="edge">
<title>Node23&#45;&gt;Node2</title>
<path fill="none" stroke="midnightblue" d="M198.87,-168.44C174.52,-159.44 135.99,-145.19 108.58,-135.05"/>
<polygon fill="midnightblue" stroke="midnightblue" points="109.62,-131.7 99.03,-131.52 107.19,-138.27 109.62,-131.7"/>
</g>
<!-- Node23&#45;&gt;Node3 -->
<g id="edge32" class="edge">
<title>Node23&#45;&gt;Node3</title>
<path fill="none" stroke="midnightblue" d="M226.75,-168.3C233.83,-155.54 247.87,-131.21 262,-112 285.39,-80.2 316.45,-46.16 334.73,-26.84"/>
<polygon fill="midnightblue" stroke="midnightblue" points="337.35,-29.16 341.72,-19.51 332.29,-24.33 337.35,-29.16"/>
</g>
<!-- Node24&#45;&gt;Node6 -->
<g id="edge40" class="edge">
<title>Node24&#45;&gt;Node6</title>
<path fill="none" stroke="midnightblue" d="M405.19,-224.44C447.14,-215.04 514.59,-199.93 560.07,-189.74"/>
<polygon fill="midnightblue" stroke="midnightblue" points="561,-193.12 569.99,-187.52 559.47,-186.29 561,-193.12"/>
</g>
<!-- Node24&#45;&gt;Node7 -->
<g id="edge41" class="edge">
<title>Node24&#45;&gt;Node7</title>
<path fill="none" stroke="midnightblue" d="M371.12,-224.4C378.26,-210.41 394.29,-182.81 416,-168 434.29,-155.52 487.96,-141.93 528.35,-132.99"/>
<polygon fill="midnightblue" stroke="midnightblue" points="529.28,-136.37 538.3,-130.82 527.79,-129.53 529.28,-136.37"/>
</g>
<!-- Node24&#45;&gt;Node20 -->
<g id="edge38" class="edge">
<title>Node24&#45;&gt;Node20</title>
<path fill="none" stroke="midnightblue" d="M362.21,-224.08C358.24,-216.69 352.47,-205.95 347.57,-196.81"/>
<polygon fill="midnightblue" stroke="midnightblue" points="350.51,-194.91 342.7,-187.75 344.35,-198.22 350.51,-194.91"/>
</g>
<!-- Node24&#45;&gt;Node23 -->
<g id="edge39" class="edge">
<title>Node24&#45;&gt;Node23</title>
<path fill="none" stroke="midnightblue" d="M344.02,-224.44C319.84,-215.44 281.58,-201.19 254.35,-191.05"/>
<polygon fill="midnightblue" stroke="midnightblue" points="255.46,-187.73 244.87,-187.52 253.02,-194.29 255.46,-187.73"/>
</g>
<!-- Node24&#45;&gt;Node25 -->
<g id="edge36" class="edge">
<title>Node24&#45;&gt;Node25</title>
<path fill="none" stroke="midnightblue" d="M380.82,-224.32C394.23,-215.9 414.82,-202.97 430.59,-193.07"/>
<polygon fill="midnightblue" stroke="midnightblue" points="432.61,-195.94 439.22,-187.65 428.89,-190.01 432.61,-195.94"/>
</g>
<!-- Node25&#45;&gt;Node7 -->
<g id="edge37" class="edge">
<title>Node25&#45;&gt;Node7</title>
<path fill="none" stroke="midnightblue" d="M472.65,-168.44C492.96,-159.6 524.9,-145.69 548.1,-135.59"/>
<polygon fill="midnightblue" stroke="midnightblue" points="549.67,-138.72 557.44,-131.52 546.88,-132.3 549.67,-138.72"/>
</g>
<!-- Node26&#45;&gt;Node6 -->
<g id="edge45" class="edge">
<title>Node26&#45;&gt;Node6</title>
<path fill="none" stroke="midnightblue" d="M689.42,-224.32C674,-215.74 650.19,-202.49 632.29,-192.52"/>
<polygon fill="midnightblue" stroke="midnightblue" points="633.99,-189.46 623.55,-187.65 630.58,-195.58 633.99,-189.46"/>
</g>
<!-- Node26&#45;&gt;Node7 -->
<g id="edge47" class="edge">
<title>Node26&#45;&gt;Node7</title>
<path fill="none" stroke="midnightblue" d="M705.08,-224.29C704.75,-210.65 702.16,-184.13 688,-168 671.93,-149.71 647.35,-138.74 625.4,-132.21"/>
<polygon fill="midnightblue" stroke="midnightblue" points="626.1,-128.78 615.54,-129.52 624.26,-135.53 626.1,-128.78"/>
</g>
<!-- Node26&#45;&gt;Node9 -->
<g id="edge46" class="edge">
<title>Node26&#45;&gt;Node9</title>
<path fill="none" stroke="midnightblue" d="M707.67,-224.47C711.21,-211.52 716.03,-186.46 707,-168 686.22,-125.54 638.03,-95.79 606.52,-80.05"/>
<polygon fill="midnightblue" stroke="midnightblue" points="607.85,-76.8 597.32,-75.61 604.81,-83.11 607.85,-76.8"/>
</g>
</g>
</svg>
