<?xml version="1.0" encoding="UTF-8" standalone="no"?>
<!DOCTYPE svg PUBLIC "-//W3C//DTD SVG 1.1//EN"
 "http://www.w3.org/Graphics/SVG/1.1/DTD/svg11.dtd">
<!-- Generated by graphviz version 2.43.0 (0)
 -->
<!-- Title: /home/runner/work/Raytracer/Raytracer/PluginsExt/Plane/PlaneEntity.hpp Pages: 1 -->
<svg width="599pt" height="386pt"
 viewBox="0.00 0.00 599.00 386.00" xmlns="http://www.w3.org/2000/svg" xmlns:xlink="http://www.w3.org/1999/xlink">
<g id="graph0" class="graph" transform="scale(1 1) rotate(0) translate(4 382)">
<title>/home/runner/work/Raytracer/Raytracer/PluginsExt/Plane/PlaneEntity.hpp</title>
<polygon fill="white" stroke="transparent" points="-4,4 -4,-382 595,-382 595,4 -4,4"/>
<!-- Node1 -->
<g id="node1" class="node">
<title>Node1</title>
<g id="a_node1"><a xlink:title=" ">
<polygon fill="#bfbfbf" stroke="black" points="160.5,-336.5 160.5,-377.5 319.5,-377.5 319.5,-336.5 160.5,-336.5"/>
<text text-anchor="start" x="168.5" y="-365.5" font-family="Helvetica,sans-Serif" font-size="10.00">/home/runner/work/Raytracer</text>
<text text-anchor="start" x="168.5" y="-354.5" font-family="Helvetica,sans-Serif" font-size="10.00">/Raytracer/PluginsExt/Plane</text>
<text text-anchor="middle" x="240" y="-343.5" font-family="Helvetica,sans-Serif" font-size="10.00">/PlaneEntity.hpp</text>
</a>
</g>
</g>
<!-- Node2 -->
<g id="node2" class="node">
<title>Node2</title>
<g id="a_node2"><a xlink:href="$a00119.html" xlink:title=" ">
<polygon fill="white" stroke="black" points="58.5,-280.5 58.5,-299.5 131.5,-299.5 131.5,-280.5 58.5,-280.5"/>
<text text-anchor="middle" x="95" y="-287.5" font-family="Helvetica,sans-Serif" font-size="10.00">ILogger.hpp</text>
</a>
</g>
</g>
<!-- Node1&#45;&gt;Node2 -->
<g id="edge1" class="edge">
<title>Node1&#45;&gt;Node2</title>
<path fill="none" stroke="midnightblue" d="M196.5,-336.5C172.87,-325.91 144.34,-313.12 123.55,-303.8"/>
<polygon fill="midnightblue" stroke="midnightblue" points="124.86,-300.55 114.3,-299.65 122,-306.94 124.86,-300.55"/>
</g>
<!-- Node4 -->
<g id="node4" class="node">
<title>Node4</title>
<g id="a_node4"><a xlink:href="$a00080.html" xlink:title=" ">
<polygon fill="white" stroke="black" points="233.5,-280.5 233.5,-299.5 318.5,-299.5 318.5,-280.5 233.5,-280.5"/>
<text text-anchor="middle" x="276" y="-287.5" font-family="Helvetica,sans-Serif" font-size="10.00">IPrimitive.hpp</text>
</a>
</g>
</g>
<!-- Node1&#45;&gt;Node4 -->
<g id="edge3" class="edge">
<title>Node1&#45;&gt;Node4</title>
<path fill="none" stroke="midnightblue" d="M250.8,-336.5C255.74,-327.59 261.54,-317.11 266.33,-308.46"/>
<polygon fill="midnightblue" stroke="midnightblue" points="269.42,-310.1 271.21,-299.65 263.3,-306.7 269.42,-310.1"/>
</g>
<!-- Node17 -->
<g id="node17" class="node">
<title>Node17</title>
<g id="a_node17"><a xlink:href="$a00077.html" xlink:title=" ">
<polygon fill="white" stroke="black" points="165.5,-224.5 165.5,-243.5 246.5,-243.5 246.5,-224.5 165.5,-224.5"/>
<text text-anchor="middle" x="206" y="-231.5" font-family="Helvetica,sans-Serif" font-size="10.00">IMaterial.hpp</text>
</a>
</g>
</g>
<!-- Node1&#45;&gt;Node17 -->
<g id="edge32" class="edge">
<title>Node1&#45;&gt;Node17</title>
<path fill="none" stroke="midnightblue" d="M234.33,-336.31C231.26,-325.59 227.4,-312.07 224,-300 219.59,-284.33 214.66,-266.5 211.08,-253.49"/>
<polygon fill="midnightblue" stroke="midnightblue" points="214.45,-252.55 208.42,-243.84 207.7,-254.41 214.45,-252.55"/>
</g>
<!-- Node19 -->
<g id="node19" class="node">
<title>Node19</title>
<g id="a_node19"><a xlink:href="$a00086.html" xlink:title=" ">
<polygon fill="white" stroke="black" points="505,-224.5 505,-243.5 591,-243.5 591,-224.5 505,-224.5"/>
<text text-anchor="middle" x="548" y="-231.5" font-family="Helvetica,sans-Serif" font-size="10.00">Transform.hpp</text>
</a>
</g>
</g>
<!-- Node1&#45;&gt;Node19 -->
<g id="edge28" class="edge">
<title>Node1&#45;&gt;Node19</title>
<path fill="none" stroke="midnightblue" d="M289.83,-336.42C353.81,-311.29 462.94,-268.42 516.49,-247.38"/>
<polygon fill="midnightblue" stroke="midnightblue" points="518.09,-250.51 526.12,-243.6 515.53,-243.99 518.09,-250.51"/>
</g>
<!-- Node3 -->
<g id="node3" class="node">
<title>Node3</title>
<g id="a_node3"><a xlink:title=" ">
<polygon fill="white" stroke="#bfbfbf" points="27,-224.5 27,-243.5 71,-243.5 71,-224.5 27,-224.5"/>
<text text-anchor="middle" x="49" y="-231.5" font-family="Helvetica,sans-Serif" font-size="10.00">string</text>
</a>
</g>
</g>
<!-- Node2&#45;&gt;Node3 -->
<g id="edge2" class="edge">
<title>Node2&#45;&gt;Node3</title>
<path fill="none" stroke="midnightblue" d="M87.4,-280.08C80.77,-272.3 70.98,-260.8 62.94,-251.37"/>
<polygon fill="midnightblue" stroke="midnightblue" points="65.6,-249.09 56.45,-243.75 60.27,-253.63 65.6,-249.09"/>
</g>
<!-- Node5 -->
<g id="node5" class="node">
<title>Node5</title>
<g id="a_node5"><a xlink:title=" ">
<polygon fill="white" stroke="#bfbfbf" points="303,-224.5 303,-243.5 359,-243.5 359,-224.5 303,-224.5"/>
<text text-anchor="middle" x="331" y="-231.5" font-family="Helvetica,sans-Serif" font-size="10.00">optional</text>
</a>
</g>
</g>
<!-- Node4&#45;&gt;Node5 -->
<g id="edge4" class="edge">
<title>Node4&#45;&gt;Node5</title>
<path fill="none" stroke="midnightblue" d="M285.08,-280.08C293.17,-272.14 305.2,-260.34 314.91,-250.8"/>
<polygon fill="midnightblue" stroke="midnightblue" points="317.4,-253.25 322.09,-243.75 312.5,-248.26 317.4,-253.25"/>
</g>
<!-- Node6 -->
<g id="node6" class="node">
<title>Node6</title>
<g id="a_node6"><a xlink:href="$a00122.html" xlink:title=" ">
<polygon fill="white" stroke="black" points="116,-168.5 116,-187.5 178,-187.5 178,-168.5 116,-168.5"/>
<text text-anchor="middle" x="147" y="-175.5" font-family="Helvetica,sans-Serif" font-size="10.00">Color.hpp</text>
</a>
</g>
</g>
<!-- Node4&#45;&gt;Node6 -->
<g id="edge5" class="edge">
<title>Node4&#45;&gt;Node6</title>
<path fill="none" stroke="midnightblue" d="M233.49,-284.06C207.11,-278.69 174.77,-267.45 156,-244 145.67,-231.08 144.16,-211.91 144.79,-197.73"/>
<polygon fill="midnightblue" stroke="midnightblue" points="148.29,-197.9 145.63,-187.65 141.31,-197.32 148.29,-197.9"/>
</g>
<!-- Node12 -->
<g id="node12" class="node">
<title>Node12</title>
<g id="a_node12"><a xlink:href="$a00200.html" xlink:title=" ">
<polygon fill="white" stroke="black" points="0,-168.5 0,-187.5 98,-187.5 98,-168.5 0,-168.5"/>
<text text-anchor="middle" x="49" y="-175.5" font-family="Helvetica,sans-Serif" font-size="10.00">IDisplayable.hpp</text>
</a>
</g>
</g>
<!-- Node4&#45;&gt;Node12 -->
<g id="edge11" class="edge">
<title>Node4&#45;&gt;Node12</title>
<path fill="none" stroke="midnightblue" d="M243,-280.45C215.68,-272.75 176.26,-260.15 144,-244 115.62,-229.79 85.88,-208.19 67.4,-193.84"/>
<polygon fill="midnightblue" stroke="midnightblue" points="69.54,-191.07 59.51,-187.63 65.2,-196.56 69.54,-191.07"/>
</g>
<!-- Node14 -->
<g id="node14" class="node">
<title>Node14</title>
<g id="a_node14"><a xlink:href="$a00071.html" xlink:title=" ">
<polygon fill="white" stroke="black" points="377,-224.5 377,-243.5 445,-243.5 445,-224.5 377,-224.5"/>
<text text-anchor="middle" x="411" y="-231.5" font-family="Helvetica,sans-Serif" font-size="10.00">IEntity.hpp</text>
</a>
</g>
</g>
<!-- Node4&#45;&gt;Node14 -->
<g id="edge14" class="edge">
<title>Node4&#45;&gt;Node14</title>
<path fill="none" stroke="midnightblue" d="M297.39,-280.44C319.71,-271.52 354.9,-257.44 380.21,-247.32"/>
<polygon fill="midnightblue" stroke="midnightblue" points="381.72,-250.48 389.71,-243.52 379.12,-243.98 381.72,-250.48"/>
</g>
<!-- Node16 -->
<g id="node16" class="node">
<title>Node16</title>
<g id="a_node16"><a xlink:href="$a00092.html" xlink:title=" ">
<polygon fill="white" stroke="black" points="265.5,-112.5 265.5,-131.5 342.5,-131.5 342.5,-112.5 265.5,-112.5"/>
<text text-anchor="middle" x="304" y="-119.5" font-family="Helvetica,sans-Serif" font-size="10.00">Vector3f.hpp</text>
</a>
</g>
</g>
<!-- Node4&#45;&gt;Node16 -->
<g id="edge27" class="edge">
<title>Node4&#45;&gt;Node16</title>
<path fill="none" stroke="midnightblue" d="M318.54,-283.98C365.52,-277.49 436.81,-264.53 454,-244 475.72,-218.07 478.29,-195.06 458,-168 445.22,-150.95 392.69,-138.2 352.5,-130.71"/>
<polygon fill="midnightblue" stroke="midnightblue" points="353.04,-127.25 342.58,-128.92 351.8,-134.14 353.04,-127.25"/>
</g>
<!-- Node4&#45;&gt;Node17 -->
<g id="edge19" class="edge">
<title>Node4&#45;&gt;Node17</title>
<path fill="none" stroke="midnightblue" d="M264.75,-280.32C254.2,-272.18 238.2,-259.84 225.56,-250.09"/>
<polygon fill="midnightblue" stroke="midnightblue" points="227.51,-247.17 217.45,-243.83 223.23,-252.71 227.51,-247.17"/>
</g>
<!-- Node18 -->
<g id="node18" class="node">
<title>Node18</title>
<g id="a_node18"><a xlink:href="$a00137.html" xlink:title=" ">
<polygon fill="white" stroke="black" points="234.5,-168.5 234.5,-187.5 289.5,-187.5 289.5,-168.5 234.5,-168.5"/>
<text text-anchor="middle" x="262" y="-175.5" font-family="Helvetica,sans-Serif" font-size="10.00">Ray.hpp</text>
</a>
</g>
</g>
<!-- Node4&#45;&gt;Node18 -->
<g id="edge26" class="edge">
<title>Node4&#45;&gt;Node18</title>
<path fill="none" stroke="midnightblue" d="M274.9,-280.37C272.64,-262.62 267.43,-221.67 264.37,-197.6"/>
<polygon fill="midnightblue" stroke="midnightblue" points="267.83,-197.07 263.09,-187.59 260.88,-197.95 267.83,-197.07"/>
</g>
<!-- Node7 -->
<g id="node7" class="node">
<title>Node7</title>
<g id="a_node7"><a xlink:title=" ">
<polygon fill="white" stroke="#bfbfbf" points="123,-112.5 123,-131.5 171,-131.5 171,-112.5 123,-112.5"/>
<text text-anchor="middle" x="147" y="-119.5" font-family="Helvetica,sans-Serif" font-size="10.00">mutex</text>
</a>
</g>
</g>
<!-- Node6&#45;&gt;Node7 -->
<g id="edge6" class="edge">
<title>Node6&#45;&gt;Node7</title>
<path fill="none" stroke="midnightblue" d="M147,-168.08C147,-161.01 147,-150.86 147,-141.99"/>
<polygon fill="midnightblue" stroke="midnightblue" points="150.5,-141.75 147,-131.75 143.5,-141.75 150.5,-141.75"/>
</g>
<!-- Node8 -->
<g id="node8" class="node">
<title>Node8</title>
<g id="a_node8"><a xlink:title=" ">
<polygon fill="white" stroke="#bfbfbf" points="175.5,-56.5 175.5,-75.5 232.5,-75.5 232.5,-56.5 175.5,-56.5"/>
<text text-anchor="middle" x="204" y="-63.5" font-family="Helvetica,sans-Serif" font-size="10.00">ostream</text>
</a>
</g>
</g>
<!-- Node6&#45;&gt;Node8 -->
<g id="edge7" class="edge">
<title>Node6&#45;&gt;Node8</title>
<path fill="none" stroke="midnightblue" d="M154.62,-168.19C161.88,-159.46 172.75,-145.48 180,-132 188.01,-117.1 194.46,-98.96 198.65,-85.63"/>
<polygon fill="midnightblue" stroke="midnightblue" points="202.09,-86.33 201.62,-75.74 195.39,-84.31 202.09,-86.33"/>
</g>
<!-- Node9 -->
<g id="node9" class="node">
<title>Node9</title>
<g id="a_node9"><a xlink:href="$a00206.html" xlink:title=" ">
<polygon fill="white" stroke="black" points="260.5,-56.5 260.5,-75.5 335.5,-75.5 335.5,-56.5 260.5,-56.5"/>
<text text-anchor="middle" x="298" y="-63.5" font-family="Helvetica,sans-Serif" font-size="10.00">ISetting.hpp</text>
</a>
</g>
</g>
<!-- Node6&#45;&gt;Node9 -->
<g id="edge8" class="edge">
<title>Node6&#45;&gt;Node9</title>
<path fill="none" stroke="midnightblue" d="M158.85,-168.37C184.65,-149.57 246.15,-104.77 278.05,-81.53"/>
<polygon fill="midnightblue" stroke="midnightblue" points="280.18,-84.31 286.21,-75.59 276.06,-78.65 280.18,-84.31"/>
</g>
<!-- Node10 -->
<g id="node10" class="node">
<title>Node10</title>
<g id="a_node10"><a xlink:title=" ">
<polygon fill="white" stroke="#bfbfbf" points="131,-0.5 131,-19.5 189,-19.5 189,-0.5 131,-0.5"/>
<text text-anchor="middle" x="160" y="-7.5" font-family="Helvetica,sans-Serif" font-size="10.00">memory</text>
</a>
</g>
</g>
<!-- Node9&#45;&gt;Node10 -->
<g id="edge9" class="edge">
<title>Node9&#45;&gt;Node10</title>
<path fill="none" stroke="midnightblue" d="M276.13,-56.44C253.22,-47.48 217.02,-33.31 191.13,-23.18"/>
<polygon fill="midnightblue" stroke="midnightblue" points="192.35,-19.9 181.76,-19.52 189.8,-26.42 192.35,-19.9"/>
</g>
<!-- Node11 -->
<g id="node11" class="node">
<title>Node11</title>
<g id="a_node11"><a xlink:title=" ">
<polygon fill="white" stroke="#bfbfbf" points="256.5,-0.5 256.5,-19.5 339.5,-19.5 339.5,-0.5 256.5,-0.5"/>
<text text-anchor="middle" x="298" y="-7.5" font-family="Helvetica,sans-Serif" font-size="10.00">libconfig.h++</text>
</a>
</g>
</g>
<!-- Node9&#45;&gt;Node11 -->
<g id="edge10" class="edge">
<title>Node9&#45;&gt;Node11</title>
<path fill="none" stroke="midnightblue" d="M298,-56.08C298,-49.01 298,-38.86 298,-29.99"/>
<polygon fill="midnightblue" stroke="midnightblue" points="301.5,-29.75 298,-19.75 294.5,-29.75 301.5,-29.75"/>
</g>
<!-- Node12&#45;&gt;Node10 -->
<g id="edge12" class="edge">
<title>Node12&#45;&gt;Node10</title>
<path fill="none" stroke="midnightblue" d="M54.97,-168.08C72.67,-141.61 125.09,-63.21 148.49,-28.21"/>
<polygon fill="midnightblue" stroke="midnightblue" points="151.62,-29.83 154.27,-19.57 145.8,-25.94 151.62,-29.83"/>
</g>
<!-- Node13 -->
<g id="node13" class="node">
<title>Node13</title>
<g id="a_node13"><a xlink:title=" ">
<polygon fill="white" stroke="#bfbfbf" points="19.5,-112.5 19.5,-131.5 66.5,-131.5 66.5,-112.5 19.5,-112.5"/>
<text text-anchor="middle" x="43" y="-119.5" font-family="Helvetica,sans-Serif" font-size="10.00">vector</text>
</a>
</g>
</g>
<!-- Node12&#45;&gt;Node13 -->
<g id="edge13" class="edge">
<title>Node12&#45;&gt;Node13</title>
<path fill="none" stroke="midnightblue" d="M48.01,-168.08C47.21,-160.93 46.07,-150.64 45.08,-141.69"/>
<polygon fill="midnightblue" stroke="midnightblue" points="48.56,-141.3 43.97,-131.75 41.6,-142.08 48.56,-141.3"/>
</g>
<!-- Node15 -->
<g id="node15" class="node">
<title>Node15</title>
<g id="a_node15"><a xlink:href="$a00083.html" xlink:title=" ">
<polygon fill="white" stroke="black" points="307.5,-168.5 307.5,-187.5 448.5,-187.5 448.5,-168.5 307.5,-168.5"/>
<text text-anchor="middle" x="378" y="-175.5" font-family="Helvetica,sans-Serif" font-size="10.00">Transform/ITransform.hpp</text>
</a>
</g>
</g>
<!-- Node14&#45;&gt;Node15 -->
<g id="edge15" class="edge">
<title>Node14&#45;&gt;Node15</title>
<path fill="none" stroke="midnightblue" d="M405.55,-224.08C400.99,-216.61 394.33,-205.72 388.71,-196.52"/>
<polygon fill="midnightblue" stroke="midnightblue" points="391.55,-194.46 383.35,-187.75 385.58,-198.11 391.55,-194.46"/>
</g>
<!-- Node15&#45;&gt;Node16 -->
<g id="edge16" class="edge">
<title>Node15&#45;&gt;Node16</title>
<path fill="none" stroke="midnightblue" d="M366.11,-168.32C354.85,-160.11 337.71,-147.6 324.29,-137.81"/>
<polygon fill="midnightblue" stroke="midnightblue" points="326.25,-134.9 316.11,-131.83 322.12,-140.56 326.25,-134.9"/>
</g>
<!-- Node16&#45;&gt;Node8 -->
<g id="edge17" class="edge">
<title>Node16&#45;&gt;Node8</title>
<path fill="none" stroke="midnightblue" d="M287.93,-112.32C272.04,-103.74 247.49,-90.49 229.04,-80.52"/>
<polygon fill="midnightblue" stroke="midnightblue" points="230.49,-77.33 220.03,-75.65 227.16,-83.49 230.49,-77.33"/>
</g>
<!-- Node16&#45;&gt;Node9 -->
<g id="edge18" class="edge">
<title>Node16&#45;&gt;Node9</title>
<path fill="none" stroke="midnightblue" d="M303.01,-112.08C302.21,-104.93 301.07,-94.64 300.08,-85.69"/>
<polygon fill="midnightblue" stroke="midnightblue" points="303.56,-85.3 298.97,-75.75 296.6,-86.08 303.56,-85.3"/>
</g>
<!-- Node17&#45;&gt;Node6 -->
<g id="edge22" class="edge">
<title>Node17&#45;&gt;Node6</title>
<path fill="none" stroke="midnightblue" d="M196.52,-224.32C187.8,-216.34 174.66,-204.31 164.1,-194.65"/>
<polygon fill="midnightblue" stroke="midnightblue" points="166.39,-192 156.65,-187.83 161.67,-197.17 166.39,-192"/>
</g>
<!-- Node17&#45;&gt;Node12 -->
<g id="edge23" class="edge">
<title>Node17&#45;&gt;Node12</title>
<path fill="none" stroke="midnightblue" d="M181.12,-224.44C154.71,-215.36 112.78,-200.94 83.26,-190.78"/>
<polygon fill="midnightblue" stroke="midnightblue" points="84.36,-187.46 73.76,-187.52 82.08,-194.08 84.36,-187.46"/>
</g>
<!-- Node17&#45;&gt;Node15 -->
<g id="edge24" class="edge">
<title>Node17&#45;&gt;Node15</title>
<path fill="none" stroke="midnightblue" d="M233.25,-224.44C262.44,-215.28 308.92,-200.69 341.31,-190.52"/>
<polygon fill="midnightblue" stroke="midnightblue" points="342.38,-193.85 350.87,-187.52 340.28,-187.17 342.38,-193.85"/>
</g>
<!-- Node17&#45;&gt;Node16 -->
<g id="edge25" class="edge">
<title>Node17&#45;&gt;Node16</title>
<path fill="none" stroke="midnightblue" d="M206.48,-224.5C207.64,-211.13 211.59,-184.97 225,-168 236.43,-153.54 253.86,-142.91 269.45,-135.62"/>
<polygon fill="midnightblue" stroke="midnightblue" points="271.09,-138.73 278.85,-131.51 268.29,-132.31 271.09,-138.73"/>
</g>
<!-- Node17&#45;&gt;Node18 -->
<g id="edge20" class="edge">
<title>Node17&#45;&gt;Node18</title>
<path fill="none" stroke="midnightblue" d="M215,-224.32C223.19,-216.42 235.51,-204.55 245.47,-194.94"/>
<polygon fill="midnightblue" stroke="midnightblue" points="248.07,-197.29 252.84,-187.83 243.21,-192.26 248.07,-197.29"/>
</g>
<!-- Node18&#45;&gt;Node16 -->
<g id="edge21" class="edge">
<title>Node18&#45;&gt;Node16</title>
<path fill="none" stroke="midnightblue" d="M268.94,-168.08C274.93,-160.38 283.75,-149.03 291.05,-139.65"/>
<polygon fill="midnightblue" stroke="midnightblue" points="293.82,-141.79 297.19,-131.75 288.29,-137.5 293.82,-141.79"/>
</g>
<!-- Node19&#45;&gt;Node9 -->
<g id="edge30" class="edge">
<title>Node19&#45;&gt;Node9</title>
<path fill="none" stroke="midnightblue" d="M545.76,-224.3C541.84,-210.68 532.56,-184.17 516,-168 467.11,-120.25 391.5,-92.25 343.4,-78.28"/>
<polygon fill="midnightblue" stroke="midnightblue" points="344.15,-74.85 333.58,-75.51 342.25,-81.59 344.15,-74.85"/>
</g>
<!-- Node19&#45;&gt;Node15 -->
<g id="edge29" class="edge">
<title>Node19&#45;&gt;Node15</title>
<path fill="none" stroke="midnightblue" d="M521.06,-224.44C492.34,-215.32 446.67,-200.81 414.68,-190.65"/>
<polygon fill="midnightblue" stroke="midnightblue" points="415.4,-187.21 404.81,-187.52 413.28,-193.88 415.4,-187.21"/>
</g>
<!-- Node19&#45;&gt;Node16 -->
<g id="edge31" class="edge">
<title>Node19&#45;&gt;Node16</title>
<path fill="none" stroke="midnightblue" d="M542.9,-224.32C534.16,-210.21 514.89,-182.44 491,-168 448.54,-142.34 392.38,-131.31 352.72,-126.57"/>
<polygon fill="midnightblue" stroke="midnightblue" points="353.09,-123.09 342.76,-125.47 352.32,-130.05 353.09,-123.09"/>
</g>
</g>
</svg>
