<?xml version="1.0" encoding="UTF-8" standalone="no"?>
<!DOCTYPE svg PUBLIC "-//W3C//DTD SVG 1.1//EN"
 "http://www.w3.org/Graphics/SVG/1.1/DTD/svg11.dtd">
<!-- Generated by graphviz version 2.43.0 (0)
 -->
<!-- Title: /home/runner/work/Raytracer/Raytracer/PluginsExt/Sphere/SphereEntity.hpp Pages: 1 -->
<svg width="706pt" height="386pt"
 viewBox="0.00 0.00 706.25 386.00" xmlns="http://www.w3.org/2000/svg" xmlns:xlink="http://www.w3.org/1999/xlink">
<g id="graph0" class="graph" transform="scale(1 1) rotate(0) translate(4 382)">
<title>/home/runner/work/Raytracer/Raytracer/PluginsExt/Sphere/SphereEntity.hpp</title>
<polygon fill="white" stroke="transparent" points="-4,4 -4,-382 702.25,-382 702.25,4 -4,4"/>
<!-- Node1 -->
<g id="node1" class="node">
<title>Node1</title>
<g id="a_node1"><a xlink:title=" ">
<polygon fill="#bfbfbf" stroke="black" points="283.75,-336.5 283.75,-377.5 442.75,-377.5 442.75,-336.5 283.75,-336.5"/>
<text text-anchor="start" x="291.75" y="-365.5" font-family="Helvetica,sans-Serif" font-size="10.00">/home/runner/work/Raytracer</text>
<text text-anchor="start" x="291.75" y="-354.5" font-family="Helvetica,sans-Serif" font-size="10.00">/Raytracer/PluginsExt/Sphere</text>
<text text-anchor="middle" x="363.25" y="-343.5" font-family="Helvetica,sans-Serif" font-size="10.00">/SphereEntity.hpp</text>
</a>
</g>
</g>
<!-- Node2 -->
<g id="node2" class="node">
<title>Node2</title>
<g id="a_node2"><a xlink:href="$a00239.html" xlink:title=" ">
<polygon fill="white" stroke="black" points="18.25,-168.5 18.25,-187.5 116.25,-187.5 116.25,-168.5 18.25,-168.5"/>
<text text-anchor="middle" x="67.25" y="-175.5" font-family="Helvetica,sans-Serif" font-size="10.00">IDisplayable.hpp</text>
</a>
</g>
</g>
<!-- Node1&#45;&gt;Node2 -->
<g id="edge1" class="edge">
<title>Node1&#45;&gt;Node2</title>
<path fill="none" stroke="midnightblue" d="M283.63,-346.07C229.97,-337.72 158.3,-323.32 98.25,-300 52.56,-282.26 27.57,-286.56 3.25,-244 -8.64,-223.18 15.91,-204.26 37.96,-192.27"/>
<polygon fill="midnightblue" stroke="midnightblue" points="39.84,-195.24 47.15,-187.57 36.65,-189.01 39.84,-195.24"/>
</g>
<!-- Node5 -->
<g id="node5" class="node">
<title>Node5</title>
<g id="a_node5"><a xlink:href="$a00158.html" xlink:title=" ">
<polygon fill="white" stroke="black" points="107.75,-280.5 107.75,-299.5 180.75,-299.5 180.75,-280.5 107.75,-280.5"/>
<text text-anchor="middle" x="144.25" y="-287.5" font-family="Helvetica,sans-Serif" font-size="10.00">ILogger.hpp</text>
</a>
</g>
</g>
<!-- Node1&#45;&gt;Node5 -->
<g id="edge4" class="edge">
<title>Node1&#45;&gt;Node5</title>
<path fill="none" stroke="midnightblue" d="M297.54,-336.5C260.14,-325.4 214.58,-311.87 182.89,-302.47"/>
<polygon fill="midnightblue" stroke="midnightblue" points="183.7,-299.06 173.12,-299.57 181.71,-305.77 183.7,-299.06"/>
</g>
<!-- Node8 -->
<g id="node8" class="node">
<title>Node8</title>
<g id="a_node8"><a xlink:href="$a00116.html" xlink:title=" ">
<polygon fill="white" stroke="black" points="322.75,-224.5 322.75,-243.5 403.75,-243.5 403.75,-224.5 322.75,-224.5"/>
<text text-anchor="middle" x="363.25" y="-231.5" font-family="Helvetica,sans-Serif" font-size="10.00">IMaterial.hpp</text>
</a>
</g>
</g>
<!-- Node1&#45;&gt;Node8 -->
<g id="edge7" class="edge">
<title>Node1&#45;&gt;Node8</title>
<path fill="none" stroke="midnightblue" d="M363.25,-336.29C363.25,-313.48 363.25,-276.19 363.25,-253.78"/>
<polygon fill="midnightblue" stroke="midnightblue" points="366.75,-253.57 363.25,-243.57 359.75,-253.57 366.75,-253.57"/>
</g>
<!-- Node10 -->
<g id="node10" class="node">
<title>Node10</title>
<g id="a_node10"><a xlink:href="$a00131.html" xlink:title=" ">
<polygon fill="white" stroke="black" points="482.75,-112.5 482.75,-131.5 559.75,-131.5 559.75,-112.5 482.75,-112.5"/>
<text text-anchor="middle" x="521.25" y="-119.5" font-family="Helvetica,sans-Serif" font-size="10.00">Vector3f.hpp</text>
</a>
</g>
</g>
<!-- Node1&#45;&gt;Node10 -->
<g id="edge38" class="edge">
<title>Node1&#45;&gt;Node10</title>
<path fill="none" stroke="midnightblue" d="M443,-347.79C508.46,-336.38 597.28,-309.12 641.25,-244 671.64,-199 596.78,-156.33 551.96,-135.78"/>
<polygon fill="midnightblue" stroke="midnightblue" points="553.19,-132.5 542.63,-131.62 550.34,-138.89 553.19,-132.5"/>
</g>
<!-- Node12 -->
<g id="node12" class="node">
<title>Node12</title>
<g id="a_node12"><a xlink:href="$a00245.html" xlink:title=" ">
<polygon fill="white" stroke="black" points="483.75,-56.5 483.75,-75.5 558.75,-75.5 558.75,-56.5 483.75,-56.5"/>
<text text-anchor="middle" x="521.25" y="-63.5" font-family="Helvetica,sans-Serif" font-size="10.00">ISetting.hpp</text>
</a>
</g>
</g>
<!-- Node1&#45;&gt;Node12 -->
<g id="edge33" class="edge">
<title>Node1&#45;&gt;Node12</title>
<path fill="none" stroke="midnightblue" d="M443.07,-343.5C542.15,-325.68 698.25,-289.03 698.25,-235 698.25,-235 698.25,-235 698.25,-177 698.25,-115.82 621.02,-87.47 568.59,-75.27"/>
<polygon fill="midnightblue" stroke="midnightblue" points="569.31,-71.85 558.79,-73.11 567.8,-78.68 569.31,-71.85"/>
</g>
<!-- Node18 -->
<g id="node18" class="node">
<title>Node18</title>
<g id="a_node18"><a xlink:href="$a00119.html" xlink:title=" ">
<polygon fill="white" stroke="black" points="241.75,-280.5 241.75,-299.5 326.75,-299.5 326.75,-280.5 241.75,-280.5"/>
<text text-anchor="middle" x="284.25" y="-287.5" font-family="Helvetica,sans-Serif" font-size="10.00">IPrimitive.hpp</text>
</a>
</g>
</g>
<!-- Node1&#45;&gt;Node18 -->
<g id="edge24" class="edge">
<title>Node1&#45;&gt;Node18</title>
<path fill="none" stroke="midnightblue" d="M339.55,-336.5C327.67,-326.72 313.51,-315.07 302.49,-306.01"/>
<polygon fill="midnightblue" stroke="midnightblue" points="304.71,-303.3 294.77,-299.65 300.27,-308.71 304.71,-303.3"/>
</g>
<!-- Node21 -->
<g id="node21" class="node">
<title>Node21</title>
<g id="a_node21"><a xlink:href="$a00125.html" xlink:title=" ">
<polygon fill="white" stroke="black" points="546.25,-224.5 546.25,-243.5 632.25,-243.5 632.25,-224.5 546.25,-224.5"/>
<text text-anchor="middle" x="589.25" y="-231.5" font-family="Helvetica,sans-Serif" font-size="10.00">Transform.hpp</text>
</a>
</g>
</g>
<!-- Node1&#45;&gt;Node21 -->
<g id="edge34" class="edge">
<title>Node1&#45;&gt;Node21</title>
<path fill="none" stroke="midnightblue" d="M399.81,-336.42C445.98,-311.71 524.18,-269.84 564.13,-248.45"/>
<polygon fill="midnightblue" stroke="midnightblue" points="566.03,-251.4 573.2,-243.6 562.73,-245.23 566.03,-251.4"/>
</g>
<!-- Node3 -->
<g id="node3" class="node">
<title>Node3</title>
<g id="a_node3"><a xlink:title=" ">
<polygon fill="white" stroke="#bfbfbf" points="201.25,-0.5 201.25,-19.5 259.25,-19.5 259.25,-0.5 201.25,-0.5"/>
<text text-anchor="middle" x="230.25" y="-7.5" font-family="Helvetica,sans-Serif" font-size="10.00">memory</text>
</a>
</g>
</g>
<!-- Node2&#45;&gt;Node3 -->
<g id="edge2" class="edge">
<title>Node2&#45;&gt;Node3</title>
<path fill="none" stroke="midnightblue" d="M60.47,-168.48C51.04,-155.55 36.33,-130.51 47.25,-112 78.23,-59.52 147.3,-32.43 191.17,-20.01"/>
<polygon fill="midnightblue" stroke="midnightblue" points="192.19,-23.35 200.93,-17.36 190.36,-16.6 192.19,-23.35"/>
</g>
<!-- Node4 -->
<g id="node4" class="node">
<title>Node4</title>
<g id="a_node4"><a xlink:title=" ">
<polygon fill="white" stroke="#bfbfbf" points="56.75,-112.5 56.75,-131.5 103.75,-131.5 103.75,-112.5 56.75,-112.5"/>
<text text-anchor="middle" x="80.25" y="-119.5" font-family="Helvetica,sans-Serif" font-size="10.00">vector</text>
</a>
</g>
</g>
<!-- Node2&#45;&gt;Node4 -->
<g id="edge3" class="edge">
<title>Node2&#45;&gt;Node4</title>
<path fill="none" stroke="midnightblue" d="M69.4,-168.08C71.12,-160.93 73.6,-150.64 75.75,-141.69"/>
<polygon fill="midnightblue" stroke="midnightblue" points="79.21,-142.29 78.14,-131.75 72.4,-140.65 79.21,-142.29"/>
</g>
<!-- Node6 -->
<g id="node6" class="node">
<title>Node6</title>
<g id="a_node6"><a xlink:title=" ">
<polygon fill="white" stroke="#bfbfbf" points="12.75,-224.5 12.75,-243.5 77.75,-243.5 77.75,-224.5 12.75,-224.5"/>
<text text-anchor="middle" x="45.25" y="-231.5" font-family="Helvetica,sans-Serif" font-size="10.00">functional</text>
</a>
</g>
</g>
<!-- Node5&#45;&gt;Node6 -->
<g id="edge5" class="edge">
<title>Node5&#45;&gt;Node6</title>
<path fill="none" stroke="midnightblue" d="M128.35,-280.32C112.61,-271.74 88.31,-258.49 70.04,-248.52"/>
<polygon fill="midnightblue" stroke="midnightblue" points="71.57,-245.37 61.12,-243.65 68.22,-251.52 71.57,-245.37"/>
</g>
<!-- Node7 -->
<g id="node7" class="node">
<title>Node7</title>
<g id="a_node7"><a xlink:title=" ">
<polygon fill="white" stroke="#bfbfbf" points="122.25,-112.5 122.25,-131.5 166.25,-131.5 166.25,-112.5 122.25,-112.5"/>
<text text-anchor="middle" x="144.25" y="-119.5" font-family="Helvetica,sans-Serif" font-size="10.00">string</text>
</a>
</g>
</g>
<!-- Node5&#45;&gt;Node7 -->
<g id="edge6" class="edge">
<title>Node5&#45;&gt;Node7</title>
<path fill="none" stroke="midnightblue" d="M144.25,-280.08C144.25,-253.95 144.25,-177.21 144.25,-141.58"/>
<polygon fill="midnightblue" stroke="midnightblue" points="147.75,-141.57 144.25,-131.57 140.75,-141.57 147.75,-141.57"/>
</g>
<!-- Node8&#45;&gt;Node2 -->
<g id="edge20" class="edge">
<title>Node8&#45;&gt;Node2</title>
<path fill="none" stroke="midnightblue" d="M322.71,-225.6C271.33,-216.23 182.46,-200.02 124.26,-189.4"/>
<polygon fill="midnightblue" stroke="midnightblue" points="124.59,-185.9 114.12,-187.55 123.33,-192.79 124.59,-185.9"/>
</g>
<!-- Node9 -->
<g id="node9" class="node">
<title>Node9</title>
<g id="a_node9"><a xlink:href="$a00176.html" xlink:title=" ">
<polygon fill="white" stroke="black" points="291.75,-168.5 291.75,-187.5 346.75,-187.5 346.75,-168.5 291.75,-168.5"/>
<text text-anchor="middle" x="319.25" y="-175.5" font-family="Helvetica,sans-Serif" font-size="10.00">Ray.hpp</text>
</a>
</g>
</g>
<!-- Node8&#45;&gt;Node9 -->
<g id="edge8" class="edge">
<title>Node8&#45;&gt;Node9</title>
<path fill="none" stroke="midnightblue" d="M355.99,-224.08C349.71,-216.38 340.46,-205.03 332.82,-195.65"/>
<polygon fill="midnightblue" stroke="midnightblue" points="335.41,-193.29 326.38,-187.75 329.99,-197.71 335.41,-193.29"/>
</g>
<!-- Node8&#45;&gt;Node10 -->
<g id="edge23" class="edge">
<title>Node8&#45;&gt;Node10</title>
<path fill="none" stroke="midnightblue" d="M365.17,-224.12C368.62,-210.24 377.16,-183.39 394.25,-168 415.96,-148.45 446.73,-137.26 472.54,-130.93"/>
<polygon fill="midnightblue" stroke="midnightblue" points="473.55,-134.29 482.52,-128.66 471.99,-127.47 473.55,-134.29"/>
</g>
<!-- Node14 -->
<g id="node14" class="node">
<title>Node14</title>
<g id="a_node14"><a xlink:href="$a00161.html" xlink:title=" ">
<polygon fill="white" stroke="black" points="211.25,-168.5 211.25,-187.5 273.25,-187.5 273.25,-168.5 211.25,-168.5"/>
<text text-anchor="middle" x="242.25" y="-175.5" font-family="Helvetica,sans-Serif" font-size="10.00">Color.hpp</text>
</a>
</g>
</g>
<!-- Node8&#45;&gt;Node14 -->
<g id="edge14" class="edge">
<title>Node8&#45;&gt;Node14</title>
<path fill="none" stroke="midnightblue" d="M344.08,-224.44C324.34,-215.64 293.37,-201.81 270.76,-191.72"/>
<polygon fill="midnightblue" stroke="midnightblue" points="271.89,-188.4 261.33,-187.52 269.04,-194.79 271.89,-188.4"/>
</g>
<!-- Node17 -->
<g id="node17" class="node">
<title>Node17</title>
<g id="a_node17"><a xlink:href="$a00122.html" xlink:title=" ">
<polygon fill="white" stroke="black" points="403.75,-168.5 403.75,-187.5 492.75,-187.5 492.75,-168.5 403.75,-168.5"/>
<text text-anchor="middle" x="448.25" y="-175.5" font-family="Helvetica,sans-Serif" font-size="10.00">ITransform.hpp</text>
</a>
</g>
</g>
<!-- Node8&#45;&gt;Node17 -->
<g id="edge21" class="edge">
<title>Node8&#45;&gt;Node17</title>
<path fill="none" stroke="midnightblue" d="M376.91,-224.32C390.17,-215.9 410.52,-202.97 426.1,-193.07"/>
<polygon fill="midnightblue" stroke="midnightblue" points="428.06,-195.97 434.63,-187.65 424.31,-190.06 428.06,-195.97"/>
</g>
<!-- Node9&#45;&gt;Node10 -->
<g id="edge9" class="edge">
<title>Node9&#45;&gt;Node10</title>
<path fill="none" stroke="midnightblue" d="M346.92,-169.6C381.18,-160.44 439.88,-144.75 479.6,-134.13"/>
<polygon fill="midnightblue" stroke="midnightblue" points="480.51,-137.51 489.26,-131.55 478.7,-130.75 480.51,-137.51"/>
</g>
<!-- Node11 -->
<g id="node11" class="node">
<title>Node11</title>
<g id="a_node11"><a xlink:title=" ">
<polygon fill="white" stroke="#bfbfbf" points="286.75,-56.5 286.75,-75.5 343.75,-75.5 343.75,-56.5 286.75,-56.5"/>
<text text-anchor="middle" x="315.25" y="-63.5" font-family="Helvetica,sans-Serif" font-size="10.00">ostream</text>
</a>
</g>
</g>
<!-- Node10&#45;&gt;Node11 -->
<g id="edge10" class="edge">
<title>Node10&#45;&gt;Node11</title>
<path fill="none" stroke="midnightblue" d="M488.61,-112.44C451.95,-102.83 392.52,-87.25 353.65,-77.07"/>
<polygon fill="midnightblue" stroke="midnightblue" points="354.32,-73.62 343.76,-74.47 352.55,-80.39 354.32,-73.62"/>
</g>
<!-- Node10&#45;&gt;Node12 -->
<g id="edge11" class="edge">
<title>Node10&#45;&gt;Node12</title>
<path fill="none" stroke="midnightblue" d="M521.25,-112.08C521.25,-105.01 521.25,-94.86 521.25,-85.99"/>
<polygon fill="midnightblue" stroke="midnightblue" points="524.75,-85.75 521.25,-75.75 517.75,-85.75 524.75,-85.75"/>
</g>
<!-- Node12&#45;&gt;Node3 -->
<g id="edge12" class="edge">
<title>Node12&#45;&gt;Node3</title>
<path fill="none" stroke="midnightblue" d="M483.51,-58C428.2,-47.73 325.65,-28.7 269.5,-18.28"/>
<polygon fill="midnightblue" stroke="midnightblue" points="270.05,-14.83 259.58,-16.44 268.77,-21.71 270.05,-14.83"/>
</g>
<!-- Node13 -->
<g id="node13" class="node">
<title>Node13</title>
<g id="a_node13"><a xlink:title=" ">
<polygon fill="white" stroke="#bfbfbf" points="479.75,-0.5 479.75,-19.5 562.75,-19.5 562.75,-0.5 479.75,-0.5"/>
<text text-anchor="middle" x="521.25" y="-7.5" font-family="Helvetica,sans-Serif" font-size="10.00">libconfig.h++</text>
</a>
</g>
</g>
<!-- Node12&#45;&gt;Node13 -->
<g id="edge13" class="edge">
<title>Node12&#45;&gt;Node13</title>
<path fill="none" stroke="midnightblue" d="M521.25,-56.08C521.25,-49.01 521.25,-38.86 521.25,-29.99"/>
<polygon fill="midnightblue" stroke="midnightblue" points="524.75,-29.75 521.25,-19.75 517.75,-29.75 524.75,-29.75"/>
</g>
<!-- Node14&#45;&gt;Node7 -->
<g id="edge18" class="edge">
<title>Node14&#45;&gt;Node7</title>
<path fill="none" stroke="midnightblue" d="M226.51,-168.32C210.93,-159.74 186.87,-146.49 168.79,-136.52"/>
<polygon fill="midnightblue" stroke="midnightblue" points="170.41,-133.42 159.96,-131.65 167.03,-139.55 170.41,-133.42"/>
</g>
<!-- Node14&#45;&gt;Node11 -->
<g id="edge16" class="edge">
<title>Node14&#45;&gt;Node11</title>
<path fill="none" stroke="midnightblue" d="M232.89,-168.14C220.38,-155.2 201.11,-130.63 213.25,-112 227.18,-90.63 253.81,-79.33 276.36,-73.41"/>
<polygon fill="midnightblue" stroke="midnightblue" points="277.45,-76.75 286.38,-71.04 275.84,-69.93 277.45,-76.75"/>
</g>
<!-- Node14&#45;&gt;Node12 -->
<g id="edge19" class="edge">
<title>Node14&#45;&gt;Node12</title>
<path fill="none" stroke="midnightblue" d="M273.64,-169.81C327.14,-157.55 430.58,-133.71 434.25,-132 461.32,-119.39 488.2,-97.5 504.76,-82.64"/>
<polygon fill="midnightblue" stroke="midnightblue" points="507.43,-84.94 512.42,-75.6 502.69,-79.79 507.43,-84.94"/>
</g>
<!-- Node15 -->
<g id="node15" class="node">
<title>Node15</title>
<g id="a_node15"><a xlink:title=" ">
<polygon fill="white" stroke="#bfbfbf" points="222.25,-112.5 222.25,-131.5 270.25,-131.5 270.25,-112.5 222.25,-112.5"/>
<text text-anchor="middle" x="246.25" y="-119.5" font-family="Helvetica,sans-Serif" font-size="10.00">mutex</text>
</a>
</g>
</g>
<!-- Node14&#45;&gt;Node15 -->
<g id="edge15" class="edge">
<title>Node14&#45;&gt;Node15</title>
<path fill="none" stroke="midnightblue" d="M242.91,-168.08C243.44,-161.01 244.19,-150.86 244.84,-141.99"/>
<polygon fill="midnightblue" stroke="midnightblue" points="248.35,-141.98 245.6,-131.75 241.37,-141.47 248.35,-141.98"/>
</g>
<!-- Node16 -->
<g id="node16" class="node">
<title>Node16</title>
<g id="a_node16"><a xlink:title=" ">
<polygon fill="white" stroke="#bfbfbf" points="288.75,-112.5 288.75,-131.5 425.75,-131.5 425.75,-112.5 288.75,-112.5"/>
<text text-anchor="middle" x="357.25" y="-119.5" font-family="Helvetica,sans-Serif" font-size="10.00">SFML/Graphics/Color.hpp</text>
</a>
</g>
</g>
<!-- Node14&#45;&gt;Node16 -->
<g id="edge17" class="edge">
<title>Node14&#45;&gt;Node16</title>
<path fill="none" stroke="midnightblue" d="M260.47,-168.44C279.15,-159.68 308.41,-145.94 329.87,-135.86"/>
<polygon fill="midnightblue" stroke="midnightblue" points="331.55,-138.93 339.11,-131.52 328.58,-132.6 331.55,-138.93"/>
</g>
<!-- Node17&#45;&gt;Node10 -->
<g id="edge22" class="edge">
<title>Node17&#45;&gt;Node10</title>
<path fill="none" stroke="midnightblue" d="M459.98,-168.32C471.09,-160.11 487.99,-147.6 501.23,-137.81"/>
<polygon fill="midnightblue" stroke="midnightblue" points="503.35,-140.59 509.31,-131.83 499.19,-134.97 503.35,-140.59"/>
</g>
<!-- Node18&#45;&gt;Node2 -->
<g id="edge27" class="edge">
<title>Node18&#45;&gt;Node2</title>
<path fill="none" stroke="midnightblue" d="M267.22,-280.37C229.43,-261.21 138.34,-215.04 93.33,-192.22"/>
<polygon fill="midnightblue" stroke="midnightblue" points="94.7,-188.99 84.2,-187.59 91.54,-195.23 94.7,-188.99"/>
</g>
<!-- Node18&#45;&gt;Node8 -->
<g id="edge30" class="edge">
<title>Node18&#45;&gt;Node8</title>
<path fill="none" stroke="midnightblue" d="M296.94,-280.32C309.15,-271.98 327.83,-259.21 342.25,-249.35"/>
<polygon fill="midnightblue" stroke="midnightblue" points="344.31,-252.19 350.59,-243.65 340.36,-246.41 344.31,-252.19"/>
</g>
<!-- Node18&#45;&gt;Node9 -->
<g id="edge31" class="edge">
<title>Node18&#45;&gt;Node9</title>
<path fill="none" stroke="midnightblue" d="M270.83,-280.45C253.49,-268.28 226.92,-245.09 239.25,-224 248.6,-208.02 265.94,-197.27 282.1,-190.3"/>
<polygon fill="midnightblue" stroke="midnightblue" points="283.39,-193.56 291.4,-186.63 280.82,-187.05 283.39,-193.56"/>
</g>
<!-- Node18&#45;&gt;Node10 -->
<g id="edge32" class="edge">
<title>Node18&#45;&gt;Node10</title>
<path fill="none" stroke="midnightblue" d="M326.78,-285.65C382.47,-280.37 475.77,-268.11 499.25,-244 525.85,-216.68 526.05,-168.6 523.73,-142.01"/>
<polygon fill="midnightblue" stroke="midnightblue" points="527.18,-141.32 522.62,-131.76 520.22,-142.08 527.18,-141.32"/>
</g>
<!-- Node18&#45;&gt;Node14 -->
<g id="edge26" class="edge">
<title>Node18&#45;&gt;Node14</title>
<path fill="none" stroke="midnightblue" d="M268.47,-280.47C256.05,-272.77 239.65,-260.18 232.25,-244 225.51,-229.25 229.33,-210.86 234.06,-197.41"/>
<polygon fill="midnightblue" stroke="midnightblue" points="237.42,-198.43 237.87,-187.84 230.92,-195.84 237.42,-198.43"/>
</g>
<!-- Node19 -->
<g id="node19" class="node">
<title>Node19</title>
<g id="a_node19"><a xlink:title=" ">
<polygon fill="white" stroke="#bfbfbf" points="248.25,-224.5 248.25,-243.5 304.25,-243.5 304.25,-224.5 248.25,-224.5"/>
<text text-anchor="middle" x="276.25" y="-231.5" font-family="Helvetica,sans-Serif" font-size="10.00">optional</text>
</a>
</g>
</g>
<!-- Node18&#45;&gt;Node19 -->
<g id="edge25" class="edge">
<title>Node18&#45;&gt;Node19</title>
<path fill="none" stroke="midnightblue" d="M282.93,-280.08C281.87,-272.93 280.35,-262.64 279.02,-253.69"/>
<polygon fill="midnightblue" stroke="midnightblue" points="282.48,-253.13 277.55,-243.75 275.55,-254.16 282.48,-253.13"/>
</g>
<!-- Node20 -->
<g id="node20" class="node">
<title>Node20</title>
<g id="a_node20"><a xlink:href="$a00110.html" xlink:title=" ">
<polygon fill="white" stroke="black" points="422.25,-224.5 422.25,-243.5 490.25,-243.5 490.25,-224.5 422.25,-224.5"/>
<text text-anchor="middle" x="456.25" y="-231.5" font-family="Helvetica,sans-Serif" font-size="10.00">IEntity.hpp</text>
</a>
</g>
</g>
<!-- Node18&#45;&gt;Node20 -->
<g id="edge28" class="edge">
<title>Node18&#45;&gt;Node20</title>
<path fill="none" stroke="midnightblue" d="M311.51,-280.44C340.69,-271.28 387.17,-256.69 419.56,-246.52"/>
<polygon fill="midnightblue" stroke="midnightblue" points="420.63,-249.85 429.12,-243.52 418.54,-243.17 420.63,-249.85"/>
</g>
<!-- Node20&#45;&gt;Node17 -->
<g id="edge29" class="edge">
<title>Node20&#45;&gt;Node17</title>
<path fill="none" stroke="midnightblue" d="M454.93,-224.08C453.87,-216.93 452.35,-206.64 451.02,-197.69"/>
<polygon fill="midnightblue" stroke="midnightblue" points="454.48,-197.13 449.55,-187.75 447.55,-198.16 454.48,-197.13"/>
</g>
<!-- Node21&#45;&gt;Node10 -->
<g id="edge37" class="edge">
<title>Node21&#45;&gt;Node10</title>
<path fill="none" stroke="midnightblue" d="M583.92,-224.37C572.74,-206.3 546.71,-164.18 531.95,-140.31"/>
<polygon fill="midnightblue" stroke="midnightblue" points="534.8,-138.26 526.56,-131.59 528.84,-141.94 534.8,-138.26"/>
</g>
<!-- Node21&#45;&gt;Node12 -->
<g id="edge36" class="edge">
<title>Node21&#45;&gt;Node12</title>
<path fill="none" stroke="midnightblue" d="M589.55,-224.19C589.87,-203.37 588.5,-150.01 568.25,-112 562.01,-100.28 551.59,-89.83 542.14,-81.96"/>
<polygon fill="midnightblue" stroke="midnightblue" points="544.25,-79.17 534.22,-75.74 539.92,-84.67 544.25,-79.17"/>
</g>
<!-- Node21&#45;&gt;Node17 -->
<g id="edge35" class="edge">
<title>Node21&#45;&gt;Node17</title>
<path fill="none" stroke="midnightblue" d="M566.91,-224.44C543.5,-215.48 506.52,-201.31 480.06,-191.18"/>
<polygon fill="midnightblue" stroke="midnightblue" points="481.08,-187.82 470.49,-187.52 478.58,-194.36 481.08,-187.82"/>
</g>
</g>
</svg>
