<?xml version="1.0" encoding="UTF-8" standalone="no"?>
<!DOCTYPE svg PUBLIC "-//W3C//DTD SVG 1.1//EN"
 "http://www.w3.org/Graphics/SVG/1.1/DTD/svg11.dtd">
<!-- Generated by graphviz version 2.43.0 (0)
 -->
<!-- Title: /home/runner/work/Raytracer/Raytracer/PluginsExt/Disk/DiskCreator.hpp Pages: 1 -->
<svg width="859pt" height="442pt"
 viewBox="0.00 0.00 859.00 442.00" xmlns="http://www.w3.org/2000/svg" xmlns:xlink="http://www.w3.org/1999/xlink">
<g id="graph0" class="graph" transform="scale(1 1) rotate(0) translate(4 438)">
<title>/home/runner/work/Raytracer/Raytracer/PluginsExt/Disk/DiskCreator.hpp</title>
<polygon fill="white" stroke="transparent" points="-4,4 -4,-438 855,-438 855,4 -4,4"/>
<!-- Node1 -->
<g id="node1" class="node">
<title>Node1</title>
<g id="a_node1"><a xlink:title=" ">
<polygon fill="#bfbfbf" stroke="black" points="186.5,-392.5 186.5,-433.5 345.5,-433.5 345.5,-392.5 186.5,-392.5"/>
<text text-anchor="start" x="194.5" y="-421.5" font-family="Helvetica,sans-Serif" font-size="10.00">/home/runner/work/Raytracer</text>
<text text-anchor="start" x="194.5" y="-410.5" font-family="Helvetica,sans-Serif" font-size="10.00">/Raytracer/PluginsExt/Disk</text>
<text text-anchor="middle" x="266" y="-399.5" font-family="Helvetica,sans-Serif" font-size="10.00">/DiskCreator.hpp</text>
</a>
</g>
</g>
<!-- Node2 -->
<g id="node2" class="node">
<title>Node2</title>
<g id="a_node2"><a xlink:title=" ">
<polygon fill="white" stroke="#bfbfbf" points="142.5,-112.5 142.5,-131.5 189.5,-131.5 189.5,-112.5 142.5,-112.5"/>
<text text-anchor="middle" x="166" y="-119.5" font-family="Helvetica,sans-Serif" font-size="10.00">vector</text>
</a>
</g>
</g>
<!-- Node1&#45;&gt;Node2 -->
<g id="edge1" class="edge">
<title>Node1&#45;&gt;Node2</title>
<path fill="none" stroke="midnightblue" d="M186.25,-394.33C134.25,-377.58 76,-346.43 76,-291 76,-291 76,-291 76,-233 76,-190.66 116.44,-155.66 143.1,-137.18"/>
<polygon fill="midnightblue" stroke="midnightblue" points="145.16,-140.02 151.54,-131.56 141.28,-134.19 145.16,-140.02"/>
</g>
<!-- Node3 -->
<g id="node3" class="node">
<title>Node3</title>
<g id="a_node3"><a xlink:title=" ">
<polygon fill="white" stroke="#bfbfbf" points="87,-0.5 87,-19.5 145,-19.5 145,-0.5 87,-0.5"/>
<text text-anchor="middle" x="116" y="-7.5" font-family="Helvetica,sans-Serif" font-size="10.00">memory</text>
</a>
</g>
</g>
<!-- Node1&#45;&gt;Node3 -->
<g id="edge2" class="edge">
<title>Node1&#45;&gt;Node3</title>
<path fill="none" stroke="midnightblue" d="M186.19,-408.44C107.84,-400.14 0,-373.7 0,-291 0,-291 0,-291 0,-121 0,-73.81 51.16,-40.79 85.53,-23.92"/>
<polygon fill="midnightblue" stroke="midnightblue" points="87.17,-27.02 94.72,-19.6 84.19,-20.69 87.17,-27.02"/>
</g>
<!-- Node4 -->
<g id="node4" class="node">
<title>Node4</title>
<g id="a_node4"><a xlink:href="$a00200.html" xlink:title=" ">
<polygon fill="white" stroke="black" points="214,-336.5 214,-355.5 318,-355.5 318,-336.5 214,-336.5"/>
<text text-anchor="middle" x="266" y="-343.5" font-family="Helvetica,sans-Serif" font-size="10.00">IEntityCreator.hpp</text>
</a>
</g>
</g>
<!-- Node1&#45;&gt;Node4 -->
<g id="edge3" class="edge">
<title>Node1&#45;&gt;Node4</title>
<path fill="none" stroke="midnightblue" d="M266,-392.5C266,-384.07 266,-374.24 266,-365.87"/>
<polygon fill="midnightblue" stroke="midnightblue" points="269.5,-365.65 266,-355.65 262.5,-365.65 269.5,-365.65"/>
</g>
<!-- Node11 -->
<g id="node11" class="node">
<title>Node11</title>
<g id="a_node11"><a xlink:href="$a00158.html" xlink:title=" ">
<polygon fill="white" stroke="black" points="659.5,-280.5 659.5,-299.5 732.5,-299.5 732.5,-280.5 659.5,-280.5"/>
<text text-anchor="middle" x="696" y="-287.5" font-family="Helvetica,sans-Serif" font-size="10.00">ILogger.hpp</text>
</a>
</g>
</g>
<!-- Node1&#45;&gt;Node11 -->
<g id="edge16" class="edge">
<title>Node1&#45;&gt;Node11</title>
<path fill="none" stroke="midnightblue" d="M345.53,-404.53C408.99,-396.93 499.47,-382.39 575,-356 611.96,-343.09 651.29,-320 674.74,-305.1"/>
<polygon fill="midnightblue" stroke="midnightblue" points="676.69,-308 683.2,-299.64 672.9,-302.12 676.69,-308"/>
</g>
<!-- Node14 -->
<g id="node14" class="node">
<title>Node14</title>
<g id="a_node14"><a xlink:href="$a00323.html" xlink:title=" ">
<polygon fill="white" stroke="black" points="480,-336.5 480,-355.5 566,-355.5 566,-336.5 480,-336.5"/>
<text text-anchor="middle" x="523" y="-343.5" font-family="Helvetica,sans-Serif" font-size="10.00">DiskEntity.hpp</text>
</a>
</g>
</g>
<!-- Node1&#45;&gt;Node14 -->
<g id="edge17" class="edge">
<title>Node1&#45;&gt;Node14</title>
<path fill="none" stroke="midnightblue" d="M343.11,-392.5C387.57,-381.25 441.86,-367.52 479.1,-358.1"/>
<polygon fill="midnightblue" stroke="midnightblue" points="480.29,-361.41 489.13,-355.57 478.57,-354.63 480.29,-361.41"/>
</g>
<!-- Node4&#45;&gt;Node3 -->
<g id="edge4" class="edge">
<title>Node4&#45;&gt;Node3</title>
<path fill="none" stroke="midnightblue" d="M213.98,-342.23C146.69,-335.53 38,-312.68 38,-235 38,-235 38,-235 38,-121 38,-80.97 72.8,-45.34 95.91,-26.09"/>
<polygon fill="midnightblue" stroke="midnightblue" points="98.2,-28.74 103.81,-19.76 93.82,-23.28 98.2,-28.74"/>
</g>
<!-- Node5 -->
<g id="node5" class="node">
<title>Node5</title>
<g id="a_node5"><a xlink:href="$a00110.html" xlink:title=" ">
<polygon fill="white" stroke="black" points="364,-224.5 364,-243.5 432,-243.5 432,-224.5 364,-224.5"/>
<text text-anchor="middle" x="398" y="-231.5" font-family="Helvetica,sans-Serif" font-size="10.00">IEntity.hpp</text>
</a>
</g>
</g>
<!-- Node4&#45;&gt;Node5 -->
<g id="edge5" class="edge">
<title>Node4&#45;&gt;Node5</title>
<path fill="none" stroke="midnightblue" d="M276.36,-336.37C298.72,-317.73 351.76,-273.53 379.84,-250.13"/>
<polygon fill="midnightblue" stroke="midnightblue" points="382.25,-252.68 387.69,-243.59 377.77,-247.3 382.25,-252.68"/>
</g>
<!-- Node9 -->
<g id="node9" class="node">
<title>Node9</title>
<g id="a_node9"><a xlink:href="$a00245.html" xlink:title=" ">
<polygon fill="white" stroke="black" points="246.5,-56.5 246.5,-75.5 321.5,-75.5 321.5,-56.5 246.5,-56.5"/>
<text text-anchor="middle" x="284" y="-63.5" font-family="Helvetica,sans-Serif" font-size="10.00">ISetting.hpp</text>
</a>
</g>
</g>
<!-- Node4&#45;&gt;Node9 -->
<g id="edge15" class="edge">
<title>Node4&#45;&gt;Node9</title>
<path fill="none" stroke="midnightblue" d="M231.13,-336.4C186.25,-323 114,-292.49 114,-235 114,-235 114,-235 114,-177 114,-146.9 111.77,-133.34 133,-112 160.19,-84.67 203.2,-73.79 236.37,-69.54"/>
<polygon fill="midnightblue" stroke="midnightblue" points="236.78,-73.01 246.33,-68.42 236,-66.06 236.78,-73.01"/>
</g>
<!-- Node4&#45;&gt;Node11 -->
<g id="edge12" class="edge">
<title>Node4&#45;&gt;Node11</title>
<path fill="none" stroke="midnightblue" d="M318.3,-338.43C402.8,-327.82 568.06,-307.07 649.02,-296.9"/>
<polygon fill="midnightblue" stroke="midnightblue" points="649.92,-300.31 659.4,-295.6 649.05,-293.37 649.92,-300.31"/>
</g>
<!-- Node6 -->
<g id="node6" class="node">
<title>Node6</title>
<g id="a_node6"><a xlink:href="$a00122.html" xlink:title=" ">
<polygon fill="white" stroke="black" points="334.5,-168.5 334.5,-187.5 475.5,-187.5 475.5,-168.5 334.5,-168.5"/>
<text text-anchor="middle" x="405" y="-175.5" font-family="Helvetica,sans-Serif" font-size="10.00">Transform/ITransform.hpp</text>
</a>
</g>
</g>
<!-- Node5&#45;&gt;Node6 -->
<g id="edge6" class="edge">
<title>Node5&#45;&gt;Node6</title>
<path fill="none" stroke="midnightblue" d="M399.16,-224.08C400.08,-216.93 401.42,-206.64 402.58,-197.69"/>
<polygon fill="midnightblue" stroke="midnightblue" points="406.05,-198.12 403.87,-187.75 399.11,-197.22 406.05,-198.12"/>
</g>
<!-- Node7 -->
<g id="node7" class="node">
<title>Node7</title>
<g id="a_node7"><a xlink:href="$a00131.html" xlink:title=" ">
<polygon fill="white" stroke="black" points="411.5,-112.5 411.5,-131.5 488.5,-131.5 488.5,-112.5 411.5,-112.5"/>
<text text-anchor="middle" x="450" y="-119.5" font-family="Helvetica,sans-Serif" font-size="10.00">Vector3f.hpp</text>
</a>
</g>
</g>
<!-- Node6&#45;&gt;Node7 -->
<g id="edge7" class="edge">
<title>Node6&#45;&gt;Node7</title>
<path fill="none" stroke="midnightblue" d="M412.43,-168.08C418.85,-160.38 428.31,-149.03 436.12,-139.65"/>
<polygon fill="midnightblue" stroke="midnightblue" points="438.99,-141.67 442.71,-131.75 433.62,-137.19 438.99,-141.67"/>
</g>
<!-- Node8 -->
<g id="node8" class="node">
<title>Node8</title>
<g id="a_node8"><a xlink:title=" ">
<polygon fill="white" stroke="#bfbfbf" points="584.5,-56.5 584.5,-75.5 641.5,-75.5 641.5,-56.5 584.5,-56.5"/>
<text text-anchor="middle" x="613" y="-63.5" font-family="Helvetica,sans-Serif" font-size="10.00">ostream</text>
</a>
</g>
</g>
<!-- Node7&#45;&gt;Node8 -->
<g id="edge8" class="edge">
<title>Node7&#45;&gt;Node8</title>
<path fill="none" stroke="midnightblue" d="M475.83,-112.44C503.25,-103.36 546.78,-88.94 577.43,-78.78"/>
<polygon fill="midnightblue" stroke="midnightblue" points="578.9,-81.98 587.29,-75.52 576.7,-75.34 578.9,-81.98"/>
</g>
<!-- Node7&#45;&gt;Node9 -->
<g id="edge9" class="edge">
<title>Node7&#45;&gt;Node9</title>
<path fill="none" stroke="midnightblue" d="M423.7,-112.44C395.65,-103.32 351.06,-88.81 319.82,-78.65"/>
<polygon fill="midnightblue" stroke="midnightblue" points="320.77,-75.28 310.18,-75.52 318.61,-81.94 320.77,-75.28"/>
</g>
<!-- Node9&#45;&gt;Node3 -->
<g id="edge10" class="edge">
<title>Node9&#45;&gt;Node3</title>
<path fill="none" stroke="midnightblue" d="M257.38,-56.44C228.99,-47.32 183.86,-32.81 152.25,-22.65"/>
<polygon fill="midnightblue" stroke="midnightblue" points="153.09,-19.24 142.5,-19.52 150.94,-25.91 153.09,-19.24"/>
</g>
<!-- Node10 -->
<g id="node10" class="node">
<title>Node10</title>
<g id="a_node10"><a xlink:title=" ">
<polygon fill="white" stroke="#bfbfbf" points="242.5,-0.5 242.5,-19.5 325.5,-19.5 325.5,-0.5 242.5,-0.5"/>
<text text-anchor="middle" x="284" y="-7.5" font-family="Helvetica,sans-Serif" font-size="10.00">libconfig.h++</text>
</a>
</g>
</g>
<!-- Node9&#45;&gt;Node10 -->
<g id="edge11" class="edge">
<title>Node9&#45;&gt;Node10</title>
<path fill="none" stroke="midnightblue" d="M284,-56.08C284,-49.01 284,-38.86 284,-29.99"/>
<polygon fill="midnightblue" stroke="midnightblue" points="287.5,-29.75 284,-19.75 280.5,-29.75 287.5,-29.75"/>
</g>
<!-- Node12 -->
<g id="node12" class="node">
<title>Node12</title>
<g id="a_node12"><a xlink:title=" ">
<polygon fill="white" stroke="#bfbfbf" points="738.5,-224.5 738.5,-243.5 803.5,-243.5 803.5,-224.5 738.5,-224.5"/>
<text text-anchor="middle" x="771" y="-231.5" font-family="Helvetica,sans-Serif" font-size="10.00">functional</text>
</a>
</g>
</g>
<!-- Node11&#45;&gt;Node12 -->
<g id="edge13" class="edge">
<title>Node11&#45;&gt;Node12</title>
<path fill="none" stroke="midnightblue" d="M708.05,-280.32C719.46,-272.11 736.83,-259.6 750.43,-249.81"/>
<polygon fill="midnightblue" stroke="midnightblue" points="752.66,-252.52 758.73,-243.83 748.57,-246.84 752.66,-252.52"/>
</g>
<!-- Node13 -->
<g id="node13" class="node">
<title>Node13</title>
<g id="a_node13"><a xlink:title=" ">
<polygon fill="white" stroke="#bfbfbf" points="807,-112.5 807,-131.5 851,-131.5 851,-112.5 807,-112.5"/>
<text text-anchor="middle" x="829" y="-119.5" font-family="Helvetica,sans-Serif" font-size="10.00">string</text>
</a>
</g>
</g>
<!-- Node11&#45;&gt;Node13 -->
<g id="edge14" class="edge">
<title>Node11&#45;&gt;Node13</title>
<path fill="none" stroke="midnightblue" d="M732.73,-284.78C759.24,-279.7 793.67,-268.53 813,-244 836.31,-214.43 834.97,-167.61 831.97,-141.73"/>
<polygon fill="midnightblue" stroke="midnightblue" points="835.42,-141.18 830.6,-131.75 828.49,-142.13 835.42,-141.18"/>
</g>
<!-- Node14&#45;&gt;Node11 -->
<g id="edge18" class="edge">
<title>Node14&#45;&gt;Node11</title>
<path fill="none" stroke="midnightblue" d="M550.41,-336.44C579.77,-327.28 626.52,-312.69 659.1,-302.52"/>
<polygon fill="midnightblue" stroke="midnightblue" points="660.21,-305.84 668.72,-299.52 658.13,-299.16 660.21,-305.84"/>
</g>
<!-- Node14&#45;&gt;Node12 -->
<g id="edge45" class="edge">
<title>Node14&#45;&gt;Node12</title>
<path fill="none" stroke="midnightblue" d="M539.87,-336.38C557.59,-327.33 586.26,-312.67 611,-300 628.34,-291.12 632.17,-287.85 650,-280 678.3,-267.53 711.25,-255.43 735.61,-246.92"/>
<polygon fill="midnightblue" stroke="midnightblue" points="736.85,-250.2 745.16,-243.62 734.56,-243.58 736.85,-250.2"/>
</g>
<!-- Node15 -->
<g id="node15" class="node">
<title>Node15</title>
<g id="a_node15"><a xlink:href="$a00116.html" xlink:title=" ">
<polygon fill="white" stroke="black" points="450.5,-224.5 450.5,-243.5 531.5,-243.5 531.5,-224.5 450.5,-224.5"/>
<text text-anchor="middle" x="491" y="-231.5" font-family="Helvetica,sans-Serif" font-size="10.00">IMaterial.hpp</text>
</a>
</g>
</g>
<!-- Node14&#45;&gt;Node15 -->
<g id="edge19" class="edge">
<title>Node14&#45;&gt;Node15</title>
<path fill="none" stroke="midnightblue" d="M519.95,-336.43C516.8,-327.41 511.8,-312.79 508,-300 503.43,-284.61 498.86,-266.97 495.61,-253.96"/>
<polygon fill="midnightblue" stroke="midnightblue" points="498.92,-252.76 493.13,-243.88 492.12,-254.43 498.92,-252.76"/>
</g>
<!-- Node21 -->
<g id="node21" class="node">
<title>Node21</title>
<g id="a_node21"><a xlink:href="$a00119.html" xlink:title=" ">
<polygon fill="white" stroke="black" points="517.5,-280.5 517.5,-299.5 602.5,-299.5 602.5,-280.5 517.5,-280.5"/>
<text text-anchor="middle" x="560" y="-287.5" font-family="Helvetica,sans-Serif" font-size="10.00">IPrimitive.hpp</text>
</a>
</g>
</g>
<!-- Node14&#45;&gt;Node21 -->
<g id="edge33" class="edge">
<title>Node14&#45;&gt;Node21</title>
<path fill="none" stroke="midnightblue" d="M529.11,-336.08C534.28,-328.53 541.85,-317.49 548.19,-308.23"/>
<polygon fill="midnightblue" stroke="midnightblue" points="551.24,-309.98 554,-299.75 545.46,-306.02 551.24,-309.98"/>
</g>
<!-- Node23 -->
<g id="node23" class="node">
<title>Node23</title>
<g id="a_node23"><a xlink:href="$a00125.html" xlink:title=" ">
<polygon fill="white" stroke="black" points="260,-224.5 260,-243.5 346,-243.5 346,-224.5 260,-224.5"/>
<text text-anchor="middle" x="303" y="-231.5" font-family="Helvetica,sans-Serif" font-size="10.00">Transform.hpp</text>
</a>
</g>
</g>
<!-- Node14&#45;&gt;Node23 -->
<g id="edge41" class="edge">
<title>Node14&#45;&gt;Node23</title>
<path fill="none" stroke="midnightblue" d="M505.74,-336.37C467.34,-317.17 374.68,-270.84 329.15,-248.07"/>
<polygon fill="midnightblue" stroke="midnightblue" points="330.69,-244.93 320.18,-243.59 327.56,-251.19 330.69,-244.93"/>
</g>
<!-- Node15&#45;&gt;Node6 -->
<g id="edge31" class="edge">
<title>Node15&#45;&gt;Node6</title>
<path fill="none" stroke="midnightblue" d="M477.18,-224.32C463.77,-215.9 443.18,-202.97 427.41,-193.07"/>
<polygon fill="midnightblue" stroke="midnightblue" points="429.11,-190.01 418.78,-187.65 425.39,-195.94 429.11,-190.01"/>
</g>
<!-- Node15&#45;&gt;Node7 -->
<g id="edge32" class="edge">
<title>Node15&#45;&gt;Node7</title>
<path fill="none" stroke="midnightblue" d="M491.5,-224.24C491.93,-211.41 491.52,-186.99 484,-168 479.82,-157.46 472.47,-147.25 465.67,-139.23"/>
<polygon fill="midnightblue" stroke="midnightblue" points="468.22,-136.83 458.94,-131.73 463.02,-141.51 468.22,-136.83"/>
</g>
<!-- Node16 -->
<g id="node16" class="node">
<title>Node16</title>
<g id="a_node16"><a xlink:href="$a00176.html" xlink:title=" ">
<polygon fill="white" stroke="black" points="532.5,-168.5 532.5,-187.5 587.5,-187.5 587.5,-168.5 532.5,-168.5"/>
<text text-anchor="middle" x="560" y="-175.5" font-family="Helvetica,sans-Serif" font-size="10.00">Ray.hpp</text>
</a>
</g>
</g>
<!-- Node15&#45;&gt;Node16 -->
<g id="edge20" class="edge">
<title>Node15&#45;&gt;Node16</title>
<path fill="none" stroke="midnightblue" d="M502.09,-224.32C512.49,-216.18 528.26,-203.84 540.72,-194.09"/>
<polygon fill="midnightblue" stroke="midnightblue" points="542.99,-196.75 548.71,-187.83 538.68,-191.24 542.99,-196.75"/>
</g>
<!-- Node17 -->
<g id="node17" class="node">
<title>Node17</title>
<g id="a_node17"><a xlink:href="$a00161.html" xlink:title=" ">
<polygon fill="white" stroke="black" points="649,-168.5 649,-187.5 711,-187.5 711,-168.5 649,-168.5"/>
<text text-anchor="middle" x="680" y="-175.5" font-family="Helvetica,sans-Serif" font-size="10.00">Color.hpp</text>
</a>
</g>
</g>
<!-- Node15&#45;&gt;Node17 -->
<g id="edge22" class="edge">
<title>Node15&#45;&gt;Node17</title>
<path fill="none" stroke="midnightblue" d="M520.95,-224.44C553.16,-215.24 604.53,-200.56 640.14,-190.39"/>
<polygon fill="midnightblue" stroke="midnightblue" points="641.54,-193.63 650.19,-187.52 639.62,-186.9 641.54,-193.63"/>
</g>
<!-- Node20 -->
<g id="node20" class="node">
<title>Node20</title>
<g id="a_node20"><a xlink:href="$a00239.html" xlink:title=" ">
<polygon fill="white" stroke="black" points="142,-168.5 142,-187.5 240,-187.5 240,-168.5 142,-168.5"/>
<text text-anchor="middle" x="191" y="-175.5" font-family="Helvetica,sans-Serif" font-size="10.00">IDisplayable.hpp</text>
</a>
</g>
</g>
<!-- Node15&#45;&gt;Node20 -->
<g id="edge28" class="edge">
<title>Node15&#45;&gt;Node20</title>
<path fill="none" stroke="midnightblue" d="M450.23,-225.66C398.06,-216.27 307.38,-199.95 248.28,-189.31"/>
<polygon fill="midnightblue" stroke="midnightblue" points="248.82,-185.85 238.36,-187.52 247.58,-192.74 248.82,-185.85"/>
</g>
<!-- Node16&#45;&gt;Node7 -->
<g id="edge21" class="edge">
<title>Node16&#45;&gt;Node7</title>
<path fill="none" stroke="midnightblue" d="M542.33,-168.32C524.61,-159.62 497.1,-146.12 476.71,-136.11"/>
<polygon fill="midnightblue" stroke="midnightblue" points="478.15,-132.92 467.63,-131.65 475.06,-139.2 478.15,-132.92"/>
</g>
<!-- Node17&#45;&gt;Node8 -->
<g id="edge24" class="edge">
<title>Node17&#45;&gt;Node8</title>
<path fill="none" stroke="midnightblue" d="M705.49,-168.48C734.59,-157.36 775.98,-136.41 758,-112 733.84,-79.21 686.02,-69.61 651.91,-67.15"/>
<polygon fill="midnightblue" stroke="midnightblue" points="651.97,-63.65 641.8,-66.6 651.59,-70.64 651.97,-63.65"/>
</g>
<!-- Node17&#45;&gt;Node9 -->
<g id="edge27" class="edge">
<title>Node17&#45;&gt;Node9</title>
<path fill="none" stroke="midnightblue" d="M648.84,-168.93C619.31,-160.88 573.94,-147.52 536,-132 517.97,-124.62 515.36,-118.52 497,-112 441.93,-92.46 375.69,-80.11 331.86,-73.39"/>
<polygon fill="midnightblue" stroke="midnightblue" points="332.17,-69.9 321.76,-71.88 331.14,-76.82 332.17,-69.9"/>
</g>
<!-- Node17&#45;&gt;Node13 -->
<g id="edge26" class="edge">
<title>Node17&#45;&gt;Node13</title>
<path fill="none" stroke="midnightblue" d="M703.61,-168.44C728.9,-159.28 769.17,-144.68 797.22,-134.52"/>
<polygon fill="midnightblue" stroke="midnightblue" points="798.75,-137.69 806.96,-130.99 796.36,-131.11 798.75,-137.69"/>
</g>
<!-- Node18 -->
<g id="node18" class="node">
<title>Node18</title>
<g id="a_node18"><a xlink:title=" ">
<polygon fill="white" stroke="#bfbfbf" points="545,-112.5 545,-131.5 593,-131.5 593,-112.5 545,-112.5"/>
<text text-anchor="middle" x="569" y="-119.5" font-family="Helvetica,sans-Serif" font-size="10.00">mutex</text>
</a>
</g>
</g>
<!-- Node17&#45;&gt;Node18 -->
<g id="edge23" class="edge">
<title>Node17&#45;&gt;Node18</title>
<path fill="none" stroke="midnightblue" d="M662.17,-168.32C644.28,-159.62 616.52,-146.12 595.95,-136.11"/>
<polygon fill="midnightblue" stroke="midnightblue" points="597.31,-132.88 586.79,-131.65 594.25,-139.18 597.31,-132.88"/>
</g>
<!-- Node19 -->
<g id="node19" class="node">
<title>Node19</title>
<g id="a_node19"><a xlink:title=" ">
<polygon fill="white" stroke="#bfbfbf" points="611.5,-112.5 611.5,-131.5 748.5,-131.5 748.5,-112.5 611.5,-112.5"/>
<text text-anchor="middle" x="680" y="-119.5" font-family="Helvetica,sans-Serif" font-size="10.00">SFML/Graphics/Color.hpp</text>
</a>
</g>
</g>
<!-- Node17&#45;&gt;Node19 -->
<g id="edge25" class="edge">
<title>Node17&#45;&gt;Node19</title>
<path fill="none" stroke="midnightblue" d="M680,-168.08C680,-161.01 680,-150.86 680,-141.99"/>
<polygon fill="midnightblue" stroke="midnightblue" points="683.5,-141.75 680,-131.75 676.5,-141.75 683.5,-141.75"/>
</g>
<!-- Node20&#45;&gt;Node2 -->
<g id="edge30" class="edge">
<title>Node20&#45;&gt;Node2</title>
<path fill="none" stroke="midnightblue" d="M186.87,-168.08C183.49,-160.77 178.58,-150.18 174.38,-141.1"/>
<polygon fill="midnightblue" stroke="midnightblue" points="177.43,-139.36 170.05,-131.75 171.08,-142.3 177.43,-139.36"/>
</g>
<!-- Node20&#45;&gt;Node3 -->
<g id="edge29" class="edge">
<title>Node20&#45;&gt;Node3</title>
<path fill="none" stroke="midnightblue" d="M194.29,-168.31C198.6,-155.57 204.83,-131.25 198,-112 185.39,-76.45 154.34,-44.31 134.27,-26.25"/>
<polygon fill="midnightblue" stroke="midnightblue" points="136.51,-23.56 126.68,-19.61 131.91,-28.83 136.51,-23.56"/>
</g>
<!-- Node21&#45;&gt;Node5 -->
<g id="edge37" class="edge">
<title>Node21&#45;&gt;Node5</title>
<path fill="none" stroke="midnightblue" d="M534.33,-280.44C507.08,-271.36 463.82,-256.94 433.35,-246.78"/>
<polygon fill="midnightblue" stroke="midnightblue" points="434.14,-243.36 423.55,-243.52 431.93,-250 434.14,-243.36"/>
</g>
<!-- Node21&#45;&gt;Node7 -->
<g id="edge40" class="edge">
<title>Node21&#45;&gt;Node7</title>
<path fill="none" stroke="midnightblue" d="M567.39,-280.19C584.3,-258.91 622.42,-203.79 596,-168 589.78,-159.57 535.64,-144.41 495.09,-134.03"/>
<polygon fill="midnightblue" stroke="midnightblue" points="495.92,-130.63 485.37,-131.57 494.21,-137.42 495.92,-130.63"/>
</g>
<!-- Node21&#45;&gt;Node15 -->
<g id="edge38" class="edge">
<title>Node21&#45;&gt;Node15</title>
<path fill="none" stroke="midnightblue" d="M548.91,-280.32C538.51,-272.18 522.74,-259.84 510.28,-250.09"/>
<polygon fill="midnightblue" stroke="midnightblue" points="512.32,-247.24 502.29,-243.83 508.01,-252.75 512.32,-247.24"/>
</g>
<!-- Node21&#45;&gt;Node16 -->
<g id="edge39" class="edge">
<title>Node21&#45;&gt;Node16</title>
<path fill="none" stroke="midnightblue" d="M560,-280.37C560,-262.62 560,-221.67 560,-197.6"/>
<polygon fill="midnightblue" stroke="midnightblue" points="563.5,-197.59 560,-187.59 556.5,-197.59 563.5,-197.59"/>
</g>
<!-- Node21&#45;&gt;Node17 -->
<g id="edge35" class="edge">
<title>Node21&#45;&gt;Node17</title>
<path fill="none" stroke="midnightblue" d="M600.69,-280.44C635.02,-272.29 680.24,-259.07 691,-244 700.74,-230.36 695.73,-211.05 689.67,-197.03"/>
<polygon fill="midnightblue" stroke="midnightblue" points="692.76,-195.38 685.26,-187.9 686.46,-198.43 692.76,-195.38"/>
</g>
<!-- Node21&#45;&gt;Node20 -->
<g id="edge36" class="edge">
<title>Node21&#45;&gt;Node20</title>
<path fill="none" stroke="midnightblue" d="M517.48,-286.32C443.92,-281.1 296.44,-267.95 251,-244 230.07,-232.97 212.61,-211.68 202.01,-196.47"/>
<polygon fill="midnightblue" stroke="midnightblue" points="204.79,-194.32 196.34,-187.93 198.96,-198.2 204.79,-194.32"/>
</g>
<!-- Node22 -->
<g id="node22" class="node">
<title>Node22</title>
<g id="a_node22"><a xlink:title=" ">
<polygon fill="white" stroke="#bfbfbf" points="626,-224.5 626,-243.5 682,-243.5 682,-224.5 626,-224.5"/>
<text text-anchor="middle" x="654" y="-231.5" font-family="Helvetica,sans-Serif" font-size="10.00">optional</text>
</a>
</g>
</g>
<!-- Node21&#45;&gt;Node22 -->
<g id="edge34" class="edge">
<title>Node21&#45;&gt;Node22</title>
<path fill="none" stroke="midnightblue" d="M575.1,-280.32C589.9,-271.82 612.69,-258.73 629.98,-248.8"/>
<polygon fill="midnightblue" stroke="midnightblue" points="632.01,-251.67 638.93,-243.65 628.52,-245.6 632.01,-251.67"/>
</g>
<!-- Node23&#45;&gt;Node6 -->
<g id="edge42" class="edge">
<title>Node23&#45;&gt;Node6</title>
<path fill="none" stroke="midnightblue" d="M319.39,-224.32C335.67,-215.7 360.87,-202.36 379.72,-192.39"/>
<polygon fill="midnightblue" stroke="midnightblue" points="381.45,-195.43 388.65,-187.65 378.18,-189.24 381.45,-195.43"/>
</g>
<!-- Node23&#45;&gt;Node7 -->
<g id="edge44" class="edge">
<title>Node23&#45;&gt;Node7</title>
<path fill="none" stroke="midnightblue" d="M303.6,-224.18C305,-210.38 309.65,-183.65 325,-168 345.25,-147.36 375.64,-136.14 401.39,-130.07"/>
<polygon fill="midnightblue" stroke="midnightblue" points="402.32,-133.45 411.36,-127.91 400.84,-126.61 402.32,-133.45"/>
</g>
<!-- Node23&#45;&gt;Node9 -->
<g id="edge43" class="edge">
<title>Node23&#45;&gt;Node9</title>
<path fill="none" stroke="midnightblue" d="M301.98,-224.08C298.99,-197.95 290.2,-121.21 286.13,-85.58"/>
<polygon fill="midnightblue" stroke="midnightblue" points="289.6,-85.11 284.98,-75.57 282.64,-85.9 289.6,-85.11"/>
</g>
</g>
</svg>
