<?xml version="1.0" encoding="UTF-8" standalone="no"?>
<!DOCTYPE svg PUBLIC "-//W3C//DTD SVG 1.1//EN"
 "http://www.w3.org/Graphics/SVG/1.1/DTD/svg11.dtd">
<!-- Generated by graphviz version 2.43.0 (0)
 -->
<!-- Title: /home/runner/work/Raytracer/Raytracer/PluginsExt/Triangle/TriangleCreator.hpp Pages: 1 -->
<svg width="736pt" height="442pt"
 viewBox="0.00 0.00 736.00 442.00" xmlns="http://www.w3.org/2000/svg" xmlns:xlink="http://www.w3.org/1999/xlink">
<g id="graph0" class="graph" transform="scale(1 1) rotate(0) translate(4 438)">
<title>/home/runner/work/Raytracer/Raytracer/PluginsExt/Triangle/TriangleCreator.hpp</title>
<polygon fill="white" stroke="transparent" points="-4,4 -4,-438 732,-438 732,4 -4,4"/>
<!-- Node1 -->
<g id="node1" class="node">
<title>Node1</title>
<g id="a_node1"><a xlink:title=" ">
<polygon fill="#bfbfbf" stroke="black" points="20,-392.5 20,-433.5 182,-433.5 182,-392.5 20,-392.5"/>
<text text-anchor="start" x="28" y="-421.5" font-family="Helvetica,sans-Serif" font-size="10.00">/home/runner/work/Raytracer</text>
<text text-anchor="start" x="28" y="-410.5" font-family="Helvetica,sans-Serif" font-size="10.00">/Raytracer/PluginsExt/Triangle</text>
<text text-anchor="middle" x="101" y="-399.5" font-family="Helvetica,sans-Serif" font-size="10.00">/TriangleCreator.hpp</text>
</a>
</g>
</g>
<!-- Node2 -->
<g id="node2" class="node">
<title>Node2</title>
<g id="a_node2"><a xlink:title=" ">
<polygon fill="white" stroke="#bfbfbf" points="142.5,-112.5 142.5,-131.5 189.5,-131.5 189.5,-112.5 142.5,-112.5"/>
<text text-anchor="middle" x="166" y="-119.5" font-family="Helvetica,sans-Serif" font-size="10.00">vector</text>
</a>
</g>
</g>
<!-- Node1&#45;&gt;Node2 -->
<g id="edge1" class="edge">
<title>Node1&#45;&gt;Node2</title>
<path fill="none" stroke="midnightblue" d="M97.37,-392.23C91.79,-357.04 83.91,-281.8 106,-224 118.07,-192.4 139.69,-159.35 153.41,-140"/>
<polygon fill="midnightblue" stroke="midnightblue" points="156.42,-141.81 159.44,-131.66 150.74,-137.71 156.42,-141.81"/>
</g>
<!-- Node3 -->
<g id="node3" class="node">
<title>Node3</title>
<g id="a_node3"><a xlink:title=" ">
<polygon fill="white" stroke="#bfbfbf" points="107,-0.5 107,-19.5 165,-19.5 165,-0.5 107,-0.5"/>
<text text-anchor="middle" x="136" y="-7.5" font-family="Helvetica,sans-Serif" font-size="10.00">memory</text>
</a>
</g>
</g>
<!-- Node1&#45;&gt;Node3 -->
<g id="edge2" class="edge">
<title>Node1&#45;&gt;Node3</title>
<path fill="none" stroke="midnightblue" d="M69.32,-392.38C39.7,-371.33 0,-334.92 0,-291 0,-291 0,-291 0,-121 0,-70.08 58.34,-38.67 98.6,-23.06"/>
<polygon fill="midnightblue" stroke="midnightblue" points="99.99,-26.28 108.15,-19.52 97.56,-19.72 99.99,-26.28"/>
</g>
<!-- Node4 -->
<g id="node4" class="node">
<title>Node4</title>
<g id="a_node4"><a xlink:href="$a00161.html" xlink:title=" ">
<polygon fill="white" stroke="black" points="129,-336.5 129,-355.5 233,-355.5 233,-336.5 129,-336.5"/>
<text text-anchor="middle" x="181" y="-343.5" font-family="Helvetica,sans-Serif" font-size="10.00">IEntityCreator.hpp</text>
</a>
</g>
</g>
<!-- Node1&#45;&gt;Node4 -->
<g id="edge3" class="edge">
<title>Node1&#45;&gt;Node4</title>
<path fill="none" stroke="midnightblue" d="M125,-392.5C137.03,-382.72 151.37,-371.07 162.53,-362.01"/>
<polygon fill="midnightblue" stroke="midnightblue" points="164.8,-364.67 170.35,-355.65 160.38,-359.24 164.8,-364.67"/>
</g>
<!-- Node11 -->
<g id="node11" class="node">
<title>Node11</title>
<g id="a_node11"><a xlink:href="$a00119.html" xlink:title=" ">
<polygon fill="white" stroke="black" points="104.5,-280.5 104.5,-299.5 177.5,-299.5 177.5,-280.5 104.5,-280.5"/>
<text text-anchor="middle" x="141" y="-287.5" font-family="Helvetica,sans-Serif" font-size="10.00">ILogger.hpp</text>
</a>
</g>
</g>
<!-- Node1&#45;&gt;Node11 -->
<g id="edge15" class="edge">
<title>Node1&#45;&gt;Node11</title>
<path fill="none" stroke="midnightblue" d="M104.83,-392.33C108.12,-376.8 113.36,-354.71 120,-336 123.28,-326.76 127.79,-316.84 131.79,-308.68"/>
<polygon fill="midnightblue" stroke="midnightblue" points="134.91,-310.26 136.3,-299.75 128.67,-307.1 134.91,-310.26"/>
</g>
<!-- Node13 -->
<g id="node13" class="node">
<title>Node13</title>
<g id="a_node13"><a xlink:href="$a00332.html" xlink:title=" ">
<polygon fill="white" stroke="black" points="313.5,-336.5 313.5,-355.5 416.5,-355.5 416.5,-336.5 313.5,-336.5"/>
<text text-anchor="middle" x="365" y="-343.5" font-family="Helvetica,sans-Serif" font-size="10.00">TriangleEntity.hpp</text>
</a>
</g>
</g>
<!-- Node1&#45;&gt;Node13 -->
<g id="edge16" class="edge">
<title>Node1&#45;&gt;Node13</title>
<path fill="none" stroke="midnightblue" d="M180.21,-392.5C226.08,-381.2 282.13,-367.4 320.39,-357.98"/>
<polygon fill="midnightblue" stroke="midnightblue" points="321.33,-361.36 330.2,-355.57 319.66,-354.56 321.33,-361.36"/>
</g>
<!-- Node4&#45;&gt;Node3 -->
<g id="edge4" class="edge">
<title>Node4&#45;&gt;Node3</title>
<path fill="none" stroke="midnightblue" d="M152.01,-336.44C133.23,-329.49 109.63,-317.86 95,-300 75.92,-276.72 76,-265.1 76,-235 76,-235 76,-235 76,-121 76,-83.88 102.65,-47.38 120.43,-27.16"/>
<polygon fill="midnightblue" stroke="midnightblue" points="123.24,-29.28 127.4,-19.53 118.07,-24.55 123.24,-29.28"/>
</g>
<!-- Node5 -->
<g id="node5" class="node">
<title>Node5</title>
<g id="a_node5"><a xlink:href="$a00071.html" xlink:title=" ">
<polygon fill="white" stroke="black" points="541,-224.5 541,-243.5 609,-243.5 609,-224.5 541,-224.5"/>
<text text-anchor="middle" x="575" y="-231.5" font-family="Helvetica,sans-Serif" font-size="10.00">IEntity.hpp</text>
</a>
</g>
</g>
<!-- Node4&#45;&gt;Node5 -->
<g id="edge5" class="edge">
<title>Node4&#45;&gt;Node5</title>
<path fill="none" stroke="midnightblue" d="M233.15,-341.34C288.61,-336.3 378.34,-324.85 452,-300 457.13,-298.27 515.32,-267.13 549.79,-248.59"/>
<polygon fill="midnightblue" stroke="midnightblue" points="551.67,-251.55 558.82,-243.73 548.36,-245.38 551.67,-251.55"/>
</g>
<!-- Node9 -->
<g id="node9" class="node">
<title>Node9</title>
<g id="a_node9"><a xlink:href="$a00206.html" xlink:title=" ">
<polygon fill="white" stroke="black" points="246.5,-56.5 246.5,-75.5 321.5,-75.5 321.5,-56.5 246.5,-56.5"/>
<text text-anchor="middle" x="284" y="-63.5" font-family="Helvetica,sans-Serif" font-size="10.00">ISetting.hpp</text>
</a>
</g>
</g>
<!-- Node4&#45;&gt;Node9 -->
<g id="edge14" class="edge">
<title>Node4&#45;&gt;Node9</title>
<path fill="none" stroke="midnightblue" d="M182.98,-336.12C185.48,-323.55 189.12,-299.9 186,-280 175.18,-210.97 145.63,-200.72 133,-132 131.39,-123.26 127.69,-119.13 133,-112 156.48,-80.5 201.15,-70.18 235.84,-67.19"/>
<polygon fill="midnightblue" stroke="midnightblue" points="236.51,-70.65 246.25,-66.48 236.04,-63.67 236.51,-70.65"/>
</g>
<!-- Node4&#45;&gt;Node11 -->
<g id="edge12" class="edge">
<title>Node4&#45;&gt;Node11</title>
<path fill="none" stroke="midnightblue" d="M174.39,-336.08C168.74,-328.46 160.46,-317.26 153.55,-307.94"/>
<polygon fill="midnightblue" stroke="midnightblue" points="156.25,-305.7 147.48,-299.75 150.62,-309.87 156.25,-305.7"/>
</g>
<!-- Node6 -->
<g id="node6" class="node">
<title>Node6</title>
<g id="a_node6"><a xlink:href="$a00083.html" xlink:title=" ">
<polygon fill="white" stroke="black" points="526.5,-168.5 526.5,-187.5 667.5,-187.5 667.5,-168.5 526.5,-168.5"/>
<text text-anchor="middle" x="597" y="-175.5" font-family="Helvetica,sans-Serif" font-size="10.00">Transform/ITransform.hpp</text>
</a>
</g>
</g>
<!-- Node5&#45;&gt;Node6 -->
<g id="edge6" class="edge">
<title>Node5&#45;&gt;Node6</title>
<path fill="none" stroke="midnightblue" d="M578.63,-224.08C581.61,-216.77 585.93,-206.18 589.62,-197.1"/>
<polygon fill="midnightblue" stroke="midnightblue" points="592.9,-198.33 593.43,-187.75 586.42,-195.69 592.9,-198.33"/>
</g>
<!-- Node7 -->
<g id="node7" class="node">
<title>Node7</title>
<g id="a_node7"><a xlink:href="$a00092.html" xlink:title=" ">
<polygon fill="white" stroke="black" points="412.5,-112.5 412.5,-131.5 489.5,-131.5 489.5,-112.5 412.5,-112.5"/>
<text text-anchor="middle" x="451" y="-119.5" font-family="Helvetica,sans-Serif" font-size="10.00">Vector3f.hpp</text>
</a>
</g>
</g>
<!-- Node6&#45;&gt;Node7 -->
<g id="edge7" class="edge">
<title>Node6&#45;&gt;Node7</title>
<path fill="none" stroke="midnightblue" d="M573.87,-168.44C549.52,-159.44 510.99,-145.19 483.58,-135.05"/>
<polygon fill="midnightblue" stroke="midnightblue" points="484.62,-131.7 474.03,-131.52 482.19,-138.27 484.62,-131.7"/>
</g>
<!-- Node8 -->
<g id="node8" class="node">
<title>Node8</title>
<g id="a_node8"><a xlink:title=" ">
<polygon fill="white" stroke="#bfbfbf" points="388.5,-56.5 388.5,-75.5 445.5,-75.5 445.5,-56.5 388.5,-56.5"/>
<text text-anchor="middle" x="417" y="-63.5" font-family="Helvetica,sans-Serif" font-size="10.00">ostream</text>
</a>
</g>
</g>
<!-- Node7&#45;&gt;Node8 -->
<g id="edge8" class="edge">
<title>Node7&#45;&gt;Node8</title>
<path fill="none" stroke="midnightblue" d="M445.39,-112.08C440.63,-104.53 433.68,-93.49 427.85,-84.23"/>
<polygon fill="midnightblue" stroke="midnightblue" points="430.8,-82.35 422.51,-75.75 424.88,-86.08 430.8,-82.35"/>
</g>
<!-- Node7&#45;&gt;Node9 -->
<g id="edge9" class="edge">
<title>Node7&#45;&gt;Node9</title>
<path fill="none" stroke="midnightblue" d="M424.54,-112.44C396.32,-103.32 351.46,-88.81 320.03,-78.65"/>
<polygon fill="midnightblue" stroke="midnightblue" points="320.93,-75.26 310.34,-75.52 318.78,-81.92 320.93,-75.26"/>
</g>
<!-- Node9&#45;&gt;Node3 -->
<g id="edge10" class="edge">
<title>Node9&#45;&gt;Node3</title>
<path fill="none" stroke="midnightblue" d="M260.55,-56.44C235.87,-47.44 196.81,-33.19 169.02,-23.05"/>
<polygon fill="midnightblue" stroke="midnightblue" points="169.94,-19.66 159.34,-19.52 167.54,-26.23 169.94,-19.66"/>
</g>
<!-- Node10 -->
<g id="node10" class="node">
<title>Node10</title>
<g id="a_node10"><a xlink:title=" ">
<polygon fill="white" stroke="#bfbfbf" points="242.5,-0.5 242.5,-19.5 325.5,-19.5 325.5,-0.5 242.5,-0.5"/>
<text text-anchor="middle" x="284" y="-7.5" font-family="Helvetica,sans-Serif" font-size="10.00">libconfig.h++</text>
</a>
</g>
</g>
<!-- Node9&#45;&gt;Node10 -->
<g id="edge11" class="edge">
<title>Node9&#45;&gt;Node10</title>
<path fill="none" stroke="midnightblue" d="M284,-56.08C284,-49.01 284,-38.86 284,-29.99"/>
<polygon fill="midnightblue" stroke="midnightblue" points="287.5,-29.75 284,-19.75 280.5,-29.75 287.5,-29.75"/>
</g>
<!-- Node12 -->
<g id="node12" class="node">
<title>Node12</title>
<g id="a_node12"><a xlink:title=" ">
<polygon fill="white" stroke="#bfbfbf" points="115,-224.5 115,-243.5 159,-243.5 159,-224.5 115,-224.5"/>
<text text-anchor="middle" x="137" y="-231.5" font-family="Helvetica,sans-Serif" font-size="10.00">string</text>
</a>
</g>
</g>
<!-- Node11&#45;&gt;Node12 -->
<g id="edge13" class="edge">
<title>Node11&#45;&gt;Node12</title>
<path fill="none" stroke="midnightblue" d="M140.34,-280.08C139.82,-273.01 139.06,-262.86 138.41,-253.99"/>
<polygon fill="midnightblue" stroke="midnightblue" points="141.88,-253.47 137.65,-243.75 134.9,-253.98 141.88,-253.47"/>
</g>
<!-- Node13&#45;&gt;Node11 -->
<g id="edge18" class="edge">
<title>Node13&#45;&gt;Node11</title>
<path fill="none" stroke="midnightblue" d="M329.51,-336.44C290.68,-327.08 228.34,-312.06 186.08,-301.87"/>
<polygon fill="midnightblue" stroke="midnightblue" points="186.87,-298.46 176.33,-299.52 185.23,-305.26 186.87,-298.46"/>
</g>
<!-- Node14 -->
<g id="node14" class="node">
<title>Node14</title>
<g id="a_node14"><a xlink:title=" ">
<polygon fill="white" stroke="#bfbfbf" points="500.5,-280.5 500.5,-299.5 565.5,-299.5 565.5,-280.5 500.5,-280.5"/>
<text text-anchor="middle" x="533" y="-287.5" font-family="Helvetica,sans-Serif" font-size="10.00">functional</text>
</a>
</g>
</g>
<!-- Node13&#45;&gt;Node14 -->
<g id="edge17" class="edge">
<title>Node13&#45;&gt;Node14</title>
<path fill="none" stroke="midnightblue" d="M391.62,-336.44C420.01,-327.32 465.14,-312.81 496.75,-302.65"/>
<polygon fill="midnightblue" stroke="midnightblue" points="498.06,-305.91 506.5,-299.52 495.91,-299.24 498.06,-305.91"/>
</g>
<!-- Node15 -->
<g id="node15" class="node">
<title>Node15</title>
<g id="a_node15"><a xlink:href="$a00080.html" xlink:title=" ">
<polygon fill="white" stroke="black" points="358.5,-280.5 358.5,-299.5 443.5,-299.5 443.5,-280.5 358.5,-280.5"/>
<text text-anchor="middle" x="401" y="-287.5" font-family="Helvetica,sans-Serif" font-size="10.00">IPrimitive.hpp</text>
</a>
</g>
</g>
<!-- Node13&#45;&gt;Node15 -->
<g id="edge19" class="edge">
<title>Node13&#45;&gt;Node15</title>
<path fill="none" stroke="midnightblue" d="M370.94,-336.08C375.98,-328.53 383.34,-317.49 389.51,-308.23"/>
<polygon fill="midnightblue" stroke="midnightblue" points="392.53,-310.01 395.17,-299.75 386.71,-306.13 392.53,-310.01"/>
</g>
<!-- Node20 -->
<g id="node20" class="node">
<title>Node20</title>
<g id="a_node20"><a xlink:href="$a00077.html" xlink:title=" ">
<polygon fill="white" stroke="black" points="291.5,-224.5 291.5,-243.5 372.5,-243.5 372.5,-224.5 291.5,-224.5"/>
<text text-anchor="middle" x="332" y="-231.5" font-family="Helvetica,sans-Serif" font-size="10.00">IMaterial.hpp</text>
</a>
</g>
</g>
<!-- Node13&#45;&gt;Node20 -->
<g id="edge42" class="edge">
<title>Node13&#45;&gt;Node20</title>
<path fill="none" stroke="midnightblue" d="M361.71,-336.45C358.31,-327.45 352.95,-312.84 349,-300 344.27,-284.65 339.71,-267.01 336.51,-253.99"/>
<polygon fill="midnightblue" stroke="midnightblue" points="339.82,-252.8 334.07,-243.9 333.02,-254.44 339.82,-252.8"/>
</g>
<!-- Node22 -->
<g id="node22" class="node">
<title>Node22</title>
<g id="a_node22"><a xlink:href="$a00086.html" xlink:title=" ">
<polygon fill="white" stroke="black" points="642,-224.5 642,-243.5 728,-243.5 728,-224.5 642,-224.5"/>
<text text-anchor="middle" x="685" y="-231.5" font-family="Helvetica,sans-Serif" font-size="10.00">Transform.hpp</text>
</a>
</g>
</g>
<!-- Node13&#45;&gt;Node22 -->
<g id="edge38" class="edge">
<title>Node13&#45;&gt;Node22</title>
<path fill="none" stroke="midnightblue" d="M416.84,-338.65C460.18,-332.22 523.08,-320.28 575,-300 608.63,-286.86 643.96,-264.16 665.23,-249.36"/>
<polygon fill="midnightblue" stroke="midnightblue" points="667.3,-252.19 673.44,-243.55 663.26,-246.47 667.3,-252.19"/>
</g>
<!-- Node15&#45;&gt;Node5 -->
<g id="edge28" class="edge">
<title>Node15&#45;&gt;Node5</title>
<path fill="none" stroke="midnightblue" d="M428.57,-280.44C458.1,-271.28 505.12,-256.69 537.88,-246.52"/>
<polygon fill="midnightblue" stroke="midnightblue" points="539.04,-249.82 547.56,-243.52 536.97,-243.14 539.04,-249.82"/>
</g>
<!-- Node15&#45;&gt;Node7 -->
<g id="edge37" class="edge">
<title>Node15&#45;&gt;Node7</title>
<path fill="none" stroke="midnightblue" d="M440.25,-280.48C460,-273.99 482.18,-262.84 494,-244 515.31,-210.02 485.43,-164.04 465.79,-139.71"/>
<polygon fill="midnightblue" stroke="midnightblue" points="468.24,-137.19 459.13,-131.79 462.88,-141.69 468.24,-137.19"/>
</g>
<!-- Node16 -->
<g id="node16" class="node">
<title>Node16</title>
<g id="a_node16"><a xlink:title=" ">
<polygon fill="white" stroke="#bfbfbf" points="429,-224.5 429,-243.5 485,-243.5 485,-224.5 429,-224.5"/>
<text text-anchor="middle" x="457" y="-231.5" font-family="Helvetica,sans-Serif" font-size="10.00">optional</text>
</a>
</g>
</g>
<!-- Node15&#45;&gt;Node16 -->
<g id="edge20" class="edge">
<title>Node15&#45;&gt;Node16</title>
<path fill="none" stroke="midnightblue" d="M410,-280.32C418.19,-272.42 430.51,-260.55 440.47,-250.94"/>
<polygon fill="midnightblue" stroke="midnightblue" points="443.07,-253.29 447.84,-243.83 438.21,-248.26 443.07,-253.29"/>
</g>
<!-- Node17 -->
<g id="node17" class="node">
<title>Node17</title>
<g id="a_node17"><a xlink:href="$a00122.html" xlink:title=" ">
<polygon fill="white" stroke="black" points="296,-168.5 296,-187.5 358,-187.5 358,-168.5 296,-168.5"/>
<text text-anchor="middle" x="327" y="-175.5" font-family="Helvetica,sans-Serif" font-size="10.00">Color.hpp</text>
</a>
</g>
</g>
<!-- Node15&#45;&gt;Node17 -->
<g id="edge21" class="edge">
<title>Node15&#45;&gt;Node17</title>
<path fill="none" stroke="midnightblue" d="M358.33,-284.9C331.59,-279.87 299.08,-268.71 282,-244 270.11,-226.79 288.33,-207.03 305.02,-193.86"/>
<polygon fill="midnightblue" stroke="midnightblue" points="307.49,-196.38 313.45,-187.62 303.33,-190.76 307.49,-196.38"/>
</g>
<!-- Node19 -->
<g id="node19" class="node">
<title>Node19</title>
<g id="a_node19"><a xlink:href="$a00200.html" xlink:title=" ">
<polygon fill="white" stroke="black" points="180,-168.5 180,-187.5 278,-187.5 278,-168.5 180,-168.5"/>
<text text-anchor="middle" x="229" y="-175.5" font-family="Helvetica,sans-Serif" font-size="10.00">IDisplayable.hpp</text>
</a>
</g>
</g>
<!-- Node15&#45;&gt;Node19 -->
<g id="edge25" class="edge">
<title>Node15&#45;&gt;Node19</title>
<path fill="none" stroke="midnightblue" d="M358.44,-280.67C332.41,-274 299.52,-262.6 275,-244 258.53,-231.51 245.61,-211.44 237.71,-196.9"/>
<polygon fill="midnightblue" stroke="midnightblue" points="240.75,-195.17 233.06,-187.88 234.53,-198.38 240.75,-195.17"/>
</g>
<!-- Node15&#45;&gt;Node20 -->
<g id="edge29" class="edge">
<title>Node15&#45;&gt;Node20</title>
<path fill="none" stroke="midnightblue" d="M389.91,-280.32C379.51,-272.18 363.74,-259.84 351.28,-250.09"/>
<polygon fill="midnightblue" stroke="midnightblue" points="353.32,-247.24 343.29,-243.83 349.01,-252.75 353.32,-247.24"/>
</g>
<!-- Node21 -->
<g id="node21" class="node">
<title>Node21</title>
<g id="a_node21"><a xlink:href="$a00137.html" xlink:title=" ">
<polygon fill="white" stroke="black" points="414.5,-168.5 414.5,-187.5 469.5,-187.5 469.5,-168.5 414.5,-168.5"/>
<text text-anchor="middle" x="442" y="-175.5" font-family="Helvetica,sans-Serif" font-size="10.00">Ray.hpp</text>
</a>
</g>
</g>
<!-- Node15&#45;&gt;Node21 -->
<g id="edge36" class="edge">
<title>Node15&#45;&gt;Node21</title>
<path fill="none" stroke="midnightblue" d="M403.01,-280.43C406.07,-267.85 412.36,-243.73 420,-224 423.57,-214.78 428.31,-204.86 432.48,-196.7"/>
<polygon fill="midnightblue" stroke="midnightblue" points="435.62,-198.25 437.16,-187.76 429.42,-195 435.62,-198.25"/>
</g>
<!-- Node17&#45;&gt;Node8 -->
<g id="edge23" class="edge">
<title>Node17&#45;&gt;Node8</title>
<path fill="none" stroke="midnightblue" d="M334.35,-168.43C342.06,-159.42 354.48,-144.8 365,-132 378.27,-115.85 393.14,-97.21 403.57,-84.04"/>
<polygon fill="midnightblue" stroke="midnightblue" points="406.55,-85.91 410.01,-75.89 401.06,-81.57 406.55,-85.91"/>
</g>
<!-- Node17&#45;&gt;Node9 -->
<g id="edge24" class="edge">
<title>Node17&#45;&gt;Node9</title>
<path fill="none" stroke="midnightblue" d="M320.27,-168.17C313.92,-159.43 304.55,-145.44 299,-132 292.84,-117.1 288.95,-99.18 286.67,-85.93"/>
<polygon fill="midnightblue" stroke="midnightblue" points="290.08,-85.03 285.08,-75.69 283.16,-86.11 290.08,-85.03"/>
</g>
<!-- Node18 -->
<g id="node18" class="node">
<title>Node18</title>
<g id="a_node18"><a xlink:title=" ">
<polygon fill="white" stroke="#bfbfbf" points="308,-112.5 308,-131.5 356,-131.5 356,-112.5 308,-112.5"/>
<text text-anchor="middle" x="332" y="-119.5" font-family="Helvetica,sans-Serif" font-size="10.00">mutex</text>
</a>
</g>
</g>
<!-- Node17&#45;&gt;Node18 -->
<g id="edge22" class="edge">
<title>Node17&#45;&gt;Node18</title>
<path fill="none" stroke="midnightblue" d="M327.83,-168.08C328.48,-161.01 329.42,-150.86 330.24,-141.99"/>
<polygon fill="midnightblue" stroke="midnightblue" points="333.75,-142.03 331.19,-131.75 326.78,-141.39 333.75,-142.03"/>
</g>
<!-- Node19&#45;&gt;Node2 -->
<g id="edge27" class="edge">
<title>Node19&#45;&gt;Node2</title>
<path fill="none" stroke="midnightblue" d="M218.88,-168.32C209.47,-160.26 195.26,-148.08 183.93,-138.37"/>
<polygon fill="midnightblue" stroke="midnightblue" points="186.18,-135.68 176.31,-131.83 181.62,-141 186.18,-135.68"/>
</g>
<!-- Node19&#45;&gt;Node3 -->
<g id="edge26" class="edge">
<title>Node19&#45;&gt;Node3</title>
<path fill="none" stroke="midnightblue" d="M225.27,-168.44C219.71,-155.88 208.75,-131.77 198,-112 181.62,-81.86 160.28,-48.14 147.39,-28.29"/>
<polygon fill="midnightblue" stroke="midnightblue" points="150.2,-26.19 141.79,-19.73 144.34,-30.02 150.2,-26.19"/>
</g>
<!-- Node20&#45;&gt;Node6 -->
<g id="edge34" class="edge">
<title>Node20&#45;&gt;Node6</title>
<path fill="none" stroke="midnightblue" d="M372.54,-224.74C418.79,-215.31 494.55,-199.88 545.09,-189.58"/>
<polygon fill="midnightblue" stroke="midnightblue" points="546.06,-192.95 555.16,-187.53 544.66,-186.09 546.06,-192.95"/>
</g>
<!-- Node20&#45;&gt;Node7 -->
<g id="edge35" class="edge">
<title>Node20&#45;&gt;Node7</title>
<path fill="none" stroke="midnightblue" d="M341.34,-224.37C361.41,-205.81 408.9,-161.91 434.3,-138.44"/>
<polygon fill="midnightblue" stroke="midnightblue" points="436.74,-140.95 441.71,-131.59 431.99,-135.81 436.74,-140.95"/>
</g>
<!-- Node20&#45;&gt;Node17 -->
<g id="edge32" class="edge">
<title>Node20&#45;&gt;Node17</title>
<path fill="none" stroke="midnightblue" d="M331.17,-224.08C330.52,-217.01 329.58,-206.86 328.76,-197.99"/>
<polygon fill="midnightblue" stroke="midnightblue" points="332.22,-197.39 327.81,-187.75 325.25,-198.03 332.22,-197.39"/>
</g>
<!-- Node20&#45;&gt;Node19 -->
<g id="edge33" class="edge">
<title>Node20&#45;&gt;Node19</title>
<path fill="none" stroke="midnightblue" d="M315.45,-224.32C299.01,-215.7 273.57,-202.36 254.53,-192.39"/>
<polygon fill="midnightblue" stroke="midnightblue" points="255.99,-189.2 245.51,-187.65 252.74,-195.4 255.99,-189.2"/>
</g>
<!-- Node20&#45;&gt;Node21 -->
<g id="edge30" class="edge">
<title>Node20&#45;&gt;Node21</title>
<path fill="none" stroke="midnightblue" d="M349.67,-224.32C367.39,-215.62 394.9,-202.12 415.29,-192.11"/>
<polygon fill="midnightblue" stroke="midnightblue" points="416.94,-195.2 424.37,-187.65 413.85,-188.92 416.94,-195.2"/>
</g>
<!-- Node21&#45;&gt;Node7 -->
<g id="edge31" class="edge">
<title>Node21&#45;&gt;Node7</title>
<path fill="none" stroke="midnightblue" d="M443.49,-168.08C444.68,-160.93 446.39,-150.64 447.88,-141.69"/>
<polygon fill="midnightblue" stroke="midnightblue" points="451.35,-142.19 449.54,-131.75 444.45,-141.04 451.35,-142.19"/>
</g>
<!-- Node22&#45;&gt;Node6 -->
<g id="edge39" class="edge">
<title>Node22&#45;&gt;Node6</title>
<path fill="none" stroke="midnightblue" d="M670.86,-224.32C657.13,-215.9 636.06,-202.97 619.94,-193.07"/>
<polygon fill="midnightblue" stroke="midnightblue" points="621.46,-189.9 611.1,-187.65 617.8,-195.87 621.46,-189.9"/>
</g>
<!-- Node22&#45;&gt;Node7 -->
<g id="edge41" class="edge">
<title>Node22&#45;&gt;Node7</title>
<path fill="none" stroke="midnightblue" d="M686.84,-224.11C689.14,-210.2 691.24,-183.33 677,-168 653.5,-142.69 558.92,-131.05 499.81,-126.16"/>
<polygon fill="midnightblue" stroke="midnightblue" points="499.82,-122.65 489.57,-125.35 499.27,-129.63 499.82,-122.65"/>
</g>
<!-- Node22&#45;&gt;Node9 -->
<g id="edge40" class="edge">
<title>Node22&#45;&gt;Node9</title>
<path fill="none" stroke="midnightblue" d="M689.93,-224.45C696.95,-211.01 707.65,-184.77 695,-168 651.3,-110.07 430.38,-81.41 331.72,-71.34"/>
<polygon fill="midnightblue" stroke="midnightblue" points="332.01,-67.85 321.71,-70.34 331.32,-74.81 332.01,-67.85"/>
</g>
</g>
</svg>
