<?xml version="1.0" encoding="UTF-8" standalone="no"?>
<!DOCTYPE svg PUBLIC "-//W3C//DTD SVG 1.1//EN"
 "http://www.w3.org/Graphics/SVG/1.1/DTD/svg11.dtd">
<!-- Generated by graphviz version 2.43.0 (0)
 -->
<!-- Title: /home/runner/work/Raytracer/Raytracer/PluginsExt/Camera/FullCustom/CustomRayIterator.hpp Pages: 1 -->
<svg width="935pt" height="442pt"
 viewBox="0.00 0.00 935.49 442.00" xmlns="http://www.w3.org/2000/svg" xmlns:xlink="http://www.w3.org/1999/xlink">
<g id="graph0" class="graph" transform="scale(1 1) rotate(0) translate(4 438)">
<title>/home/runner/work/Raytracer/Raytracer/PluginsExt/Camera/FullCustom/CustomRayIterator.hpp</title>
<polygon fill="white" stroke="transparent" points="-4,4 -4,-438 931.49,-438 931.49,4 -4,4"/>
<!-- Node1 -->
<g id="node1" class="node">
<title>Node1</title>
<g id="a_node1"><a xlink:title=" ">
<polygon fill="#bfbfbf" stroke="black" points="535,-392.5 535,-433.5 725,-433.5 725,-392.5 535,-392.5"/>
<text text-anchor="start" x="543" y="-421.5" font-family="Helvetica,sans-Serif" font-size="10.00">/home/runner/work/Raytracer</text>
<text text-anchor="start" x="543" y="-410.5" font-family="Helvetica,sans-Serif" font-size="10.00">/Raytracer/PluginsExt/Camera</text>
<text text-anchor="middle" x="630" y="-399.5" font-family="Helvetica,sans-Serif" font-size="10.00">/FullCustom/CustomRayIterator.hpp</text>
</a>
</g>
</g>
<!-- Node2 -->
<g id="node2" class="node">
<title>Node2</title>
<g id="a_node2"><a xlink:title=" ">
<polygon fill="white" stroke="#bfbfbf" points="628,-280.5 628,-299.5 692,-299.5 692,-280.5 628,-280.5"/>
<text text-anchor="middle" x="660" y="-287.5" font-family="Helvetica,sans-Serif" font-size="10.00">algorithm</text>
</a>
</g>
</g>
<!-- Node1&#45;&gt;Node2 -->
<g id="edge1" class="edge">
<title>Node1&#45;&gt;Node2</title>
<path fill="none" stroke="midnightblue" d="M634.89,-392.29C640.57,-369.37 649.87,-331.85 655.42,-309.47"/>
<polygon fill="midnightblue" stroke="midnightblue" points="658.86,-310.12 657.87,-299.57 652.07,-308.44 658.86,-310.12"/>
</g>
<!-- Node3 -->
<g id="node3" class="node">
<title>Node3</title>
<g id="a_node3"><a xlink:title=" ">
<polygon fill="white" stroke="#bfbfbf" points="49.5,-168.5 49.5,-187.5 102.5,-187.5 102.5,-168.5 49.5,-168.5"/>
<text text-anchor="middle" x="76" y="-175.5" font-family="Helvetica,sans-Serif" font-size="10.00">cstddef</text>
</a>
</g>
</g>
<!-- Node1&#45;&gt;Node3 -->
<g id="edge2" class="edge">
<title>Node1&#45;&gt;Node3</title>
<path fill="none" stroke="midnightblue" d="M534.85,-406C393.6,-394.97 138.65,-366.24 79,-300 53.78,-271.99 62.43,-223.83 69.87,-197.5"/>
<polygon fill="midnightblue" stroke="midnightblue" points="73.29,-198.27 72.88,-187.68 66.6,-196.22 73.29,-198.27"/>
</g>
<!-- Node4 -->
<g id="node4" class="node">
<title>Node4</title>
<g id="a_node4"><a xlink:title=" ">
<polygon fill="white" stroke="#bfbfbf" points="860.5,-280.5 860.5,-299.5 913.5,-299.5 913.5,-280.5 860.5,-280.5"/>
<text text-anchor="middle" x="887" y="-287.5" font-family="Helvetica,sans-Serif" font-size="10.00">iterator</text>
</a>
</g>
</g>
<!-- Node1&#45;&gt;Node4 -->
<g id="edge3" class="edge">
<title>Node1&#45;&gt;Node4</title>
<path fill="none" stroke="midnightblue" d="M725,-398.97C761.55,-390.77 802.32,-377.48 835,-356 853.43,-343.89 868.36,-323.13 877.42,-308.33"/>
<polygon fill="midnightblue" stroke="midnightblue" points="880.49,-310.01 882.5,-299.61 874.44,-306.49 880.49,-310.01"/>
</g>
<!-- Node5 -->
<g id="node5" class="node">
<title>Node5</title>
<g id="a_node5"><a xlink:title=" ">
<polygon fill="white" stroke="#bfbfbf" points="453,-0.5 453,-19.5 511,-19.5 511,-0.5 453,-0.5"/>
<text text-anchor="middle" x="482" y="-7.5" font-family="Helvetica,sans-Serif" font-size="10.00">memory</text>
</a>
</g>
</g>
<!-- Node1&#45;&gt;Node5 -->
<g id="edge4" class="edge">
<title>Node1&#45;&gt;Node5</title>
<path fill="none" stroke="midnightblue" d="M534.58,-410.2C434.34,-406.23 272.95,-393.87 139,-356 73.37,-337.45 0,-359.2 0,-291 0,-291 0,-291 0,-121 0,-30.38 327.93,-14.41 442.81,-11.6"/>
<polygon fill="midnightblue" stroke="midnightblue" points="443.02,-15.1 452.93,-11.37 442.86,-8.1 443.02,-15.1"/>
</g>
<!-- Node6 -->
<g id="node6" class="node">
<title>Node6</title>
<g id="a_node6"><a xlink:title=" ">
<polygon fill="white" stroke="#bfbfbf" points="584,-168.5 584,-187.5 628,-187.5 628,-168.5 584,-168.5"/>
<text text-anchor="middle" x="606" y="-175.5" font-family="Helvetica,sans-Serif" font-size="10.00">string</text>
</a>
</g>
</g>
<!-- Node1&#45;&gt;Node6 -->
<g id="edge5" class="edge">
<title>Node1&#45;&gt;Node6</title>
<path fill="none" stroke="midnightblue" d="M627.95,-392.13C623.38,-347.68 612.36,-240.73 607.91,-197.54"/>
<polygon fill="midnightblue" stroke="midnightblue" points="611.39,-197.18 606.88,-187.59 604.43,-197.89 611.39,-197.18"/>
</g>
<!-- Node7 -->
<g id="node7" class="node">
<title>Node7</title>
<g id="a_node7"><a xlink:href="$a00107.html" xlink:title=" ">
<polygon fill="white" stroke="black" points="270.5,-336.5 270.5,-355.5 349.5,-355.5 349.5,-336.5 270.5,-336.5"/>
<text text-anchor="middle" x="310" y="-343.5" font-family="Helvetica,sans-Serif" font-size="10.00">ICamera.hpp</text>
</a>
</g>
</g>
<!-- Node1&#45;&gt;Node7 -->
<g id="edge6" class="edge">
<title>Node1&#45;&gt;Node7</title>
<path fill="none" stroke="midnightblue" d="M534.86,-392.67C477.36,-380.99 406.41,-366.58 359.77,-357.11"/>
<polygon fill="midnightblue" stroke="midnightblue" points="360.41,-353.67 349.91,-355.11 359.01,-360.53 360.41,-353.67"/>
</g>
<!-- Node9 -->
<g id="node9" class="node">
<title>Node9</title>
<g id="a_node9"><a xlink:href="$a00128.html" xlink:title=" ">
<polygon fill="white" stroke="black" points="436.5,-168.5 436.5,-187.5 565.5,-187.5 565.5,-168.5 436.5,-168.5"/>
<text text-anchor="middle" x="501" y="-175.5" font-family="Helvetica,sans-Serif" font-size="10.00">Transform/Vector2i.hpp</text>
</a>
</g>
</g>
<!-- Node1&#45;&gt;Node9 -->
<g id="edge45" class="edge">
<title>Node1&#45;&gt;Node9</title>
<path fill="none" stroke="midnightblue" d="M619,-392.13C594.18,-347.31 534.16,-238.9 510.66,-196.46"/>
<polygon fill="midnightblue" stroke="midnightblue" points="513.66,-194.64 505.75,-187.59 507.54,-198.03 513.66,-194.64"/>
</g>
<!-- Node24 -->
<g id="node24" class="node">
<title>Node24</title>
<g id="a_node24"><a xlink:href="$a00131.html" xlink:title=" ">
<polygon fill="white" stroke="black" points="656.5,-168.5 656.5,-187.5 733.5,-187.5 733.5,-168.5 656.5,-168.5"/>
<text text-anchor="middle" x="695" y="-175.5" font-family="Helvetica,sans-Serif" font-size="10.00">Vector3f.hpp</text>
</a>
</g>
</g>
<!-- Node1&#45;&gt;Node24 -->
<g id="edge46" class="edge">
<title>Node1&#45;&gt;Node24</title>
<path fill="none" stroke="midnightblue" d="M725.01,-408.18C797.19,-399.31 889.43,-373.31 922,-300 955.77,-223.99 820.26,-194.54 743.9,-184.13"/>
<polygon fill="midnightblue" stroke="midnightblue" points="743.91,-180.6 733.55,-182.78 743.01,-187.54 743.91,-180.6"/>
</g>
<!-- Node25 -->
<g id="node25" class="node">
<title>Node25</title>
<g id="a_node25"><a xlink:href="$a00170.html" xlink:title=" ">
<polygon fill="white" stroke="black" points="731.5,-336.5 731.5,-355.5 826.5,-355.5 826.5,-336.5 731.5,-336.5"/>
<text text-anchor="middle" x="779" y="-343.5" font-family="Helvetica,sans-Serif" font-size="10.00">IRayIterator.hpp</text>
</a>
</g>
</g>
<!-- Node1&#45;&gt;Node25 -->
<g id="edge37" class="edge">
<title>Node1&#45;&gt;Node25</title>
<path fill="none" stroke="midnightblue" d="M674.7,-392.5C699.09,-381.86 728.57,-369 749.96,-359.67"/>
<polygon fill="midnightblue" stroke="midnightblue" points="751.4,-362.86 759.17,-355.65 748.6,-356.44 751.4,-362.86"/>
</g>
<!-- Node26 -->
<g id="node26" class="node">
<title>Node26</title>
<g id="a_node26"><a xlink:href="$a00176.html" xlink:title=" ">
<polygon fill="white" stroke="black" points="710.5,-280.5 710.5,-299.5 765.5,-299.5 765.5,-280.5 710.5,-280.5"/>
<text text-anchor="middle" x="738" y="-287.5" font-family="Helvetica,sans-Serif" font-size="10.00">Ray.hpp</text>
</a>
</g>
</g>
<!-- Node1&#45;&gt;Node26 -->
<g id="edge44" class="edge">
<title>Node1&#45;&gt;Node26</title>
<path fill="none" stroke="midnightblue" d="M647.59,-392.29C668.79,-368.54 704.01,-329.09 723.64,-307.08"/>
<polygon fill="midnightblue" stroke="midnightblue" points="726.3,-309.37 730.35,-299.57 721.08,-304.7 726.3,-309.37"/>
</g>
<!-- Node7&#45;&gt;Node3 -->
<g id="edge7" class="edge">
<title>Node7&#45;&gt;Node3</title>
<path fill="none" stroke="midnightblue" d="M270.19,-341.99C214.8,-336.95 118.58,-324.81 95,-300 68.84,-272.48 69.93,-224.48 72.98,-197.96"/>
<polygon fill="midnightblue" stroke="midnightblue" points="76.49,-198.11 74.39,-187.73 69.56,-197.16 76.49,-198.11"/>
</g>
<!-- Node8 -->
<g id="node8" class="node">
<title>Node8</title>
<g id="a_node8"><a xlink:title=" ">
<polygon fill="white" stroke="#bfbfbf" points="294,-280.5 294,-299.5 326,-299.5 326,-280.5 294,-280.5"/>
<text text-anchor="middle" x="310" y="-287.5" font-family="Helvetica,sans-Serif" font-size="10.00">list</text>
</a>
</g>
</g>
<!-- Node7&#45;&gt;Node8 -->
<g id="edge8" class="edge">
<title>Node7&#45;&gt;Node8</title>
<path fill="none" stroke="midnightblue" d="M310,-336.08C310,-329.01 310,-318.86 310,-309.99"/>
<polygon fill="midnightblue" stroke="midnightblue" points="313.5,-309.75 310,-299.75 306.5,-309.75 313.5,-309.75"/>
</g>
<!-- Node7&#45;&gt;Node9 -->
<g id="edge9" class="edge">
<title>Node7&#45;&gt;Node9</title>
<path fill="none" stroke="midnightblue" d="M343.82,-336.4C366.56,-329.37 396.24,-317.67 418,-300 453.63,-271.06 480.22,-222.92 492.85,-196.94"/>
<polygon fill="midnightblue" stroke="midnightblue" points="496.16,-198.11 497.26,-187.57 489.83,-195.13 496.16,-198.11"/>
</g>
<!-- Node14 -->
<g id="node14" class="node">
<title>Node14</title>
<g id="a_node14"><a xlink:href="$a00239.html" xlink:title=" ">
<polygon fill="white" stroke="black" points="179,-224.5 179,-243.5 277,-243.5 277,-224.5 179,-224.5"/>
<text text-anchor="middle" x="228" y="-231.5" font-family="Helvetica,sans-Serif" font-size="10.00">IDisplayable.hpp</text>
</a>
</g>
</g>
<!-- Node7&#45;&gt;Node14 -->
<g id="edge16" class="edge">
<title>Node7&#45;&gt;Node14</title>
<path fill="none" stroke="midnightblue" d="M303.57,-336.37C289.97,-318.14 258.14,-275.43 240.43,-251.68"/>
<polygon fill="midnightblue" stroke="midnightblue" points="243.19,-249.52 234.4,-243.59 237.58,-253.7 243.19,-249.52"/>
</g>
<!-- Node16 -->
<g id="node16" class="node">
<title>Node16</title>
<g id="a_node16"><a xlink:href="$a00164.html" xlink:title=" ">
<polygon fill="white" stroke="black" points="342,-224.5 342,-243.5 410,-243.5 410,-224.5 342,-224.5"/>
<text text-anchor="middle" x="376" y="-231.5" font-family="Helvetica,sans-Serif" font-size="10.00">Image.hpp</text>
</a>
</g>
</g>
<!-- Node7&#45;&gt;Node16 -->
<g id="edge19" class="edge">
<title>Node7&#45;&gt;Node16</title>
<path fill="none" stroke="midnightblue" d="M301.66,-336.1C290.54,-323.11 273.52,-298.49 285,-280 295.44,-263.2 314.21,-252.48 332,-245.74"/>
<polygon fill="midnightblue" stroke="midnightblue" points="333.41,-248.96 341.73,-242.39 331.14,-242.34 333.41,-248.96"/>
</g>
<!-- Node20 -->
<g id="node20" class="node">
<title>Node20</title>
<g id="a_node20"><a xlink:href="$a00155.html" xlink:title=" ">
<polygon fill="white" stroke="black" points="344.5,-280.5 344.5,-299.5 409.5,-299.5 409.5,-280.5 344.5,-280.5"/>
<text text-anchor="middle" x="377" y="-287.5" font-family="Helvetica,sans-Serif" font-size="10.00">IFilter.hpp</text>
</a>
</g>
</g>
<!-- Node7&#45;&gt;Node20 -->
<g id="edge29" class="edge">
<title>Node7&#45;&gt;Node20</title>
<path fill="none" stroke="midnightblue" d="M320.76,-336.32C330.77,-328.26 345.89,-316.08 357.93,-306.37"/>
<polygon fill="midnightblue" stroke="midnightblue" points="360.45,-308.83 366.04,-299.83 356.06,-303.38 360.45,-308.83"/>
</g>
<!-- Node21 -->
<g id="node21" class="node">
<title>Node21</title>
<g id="a_node21"><a xlink:href="$a00242.html" xlink:title=" ">
<polygon fill="white" stroke="black" points="104.5,-280.5 104.5,-299.5 199.5,-299.5 199.5,-280.5 104.5,-280.5"/>
<text text-anchor="middle" x="152" y="-287.5" font-family="Helvetica,sans-Serif" font-size="10.00">ISceneState.hpp</text>
</a>
</g>
</g>
<!-- Node7&#45;&gt;Node21 -->
<g id="edge31" class="edge">
<title>Node7&#45;&gt;Node21</title>
<path fill="none" stroke="midnightblue" d="M284.96,-336.44C258.38,-327.36 216.19,-312.94 186.48,-302.78"/>
<polygon fill="midnightblue" stroke="midnightblue" points="187.51,-299.44 176.92,-299.52 185.25,-306.06 187.51,-299.44"/>
</g>
<!-- Node22 -->
<g id="node22" class="node">
<title>Node22</title>
<g id="a_node22"><a xlink:href="$a00110.html" xlink:title=" ">
<polygon fill="white" stroke="black" points="466,-280.5 466,-299.5 534,-299.5 534,-280.5 466,-280.5"/>
<text text-anchor="middle" x="500" y="-287.5" font-family="Helvetica,sans-Serif" font-size="10.00">IEntity.hpp</text>
</a>
</g>
</g>
<!-- Node7&#45;&gt;Node22 -->
<g id="edge32" class="edge">
<title>Node7&#45;&gt;Node22</title>
<path fill="none" stroke="midnightblue" d="M340.11,-336.44C372.63,-327.2 424.58,-312.44 460.39,-302.26"/>
<polygon fill="midnightblue" stroke="midnightblue" points="461.37,-305.62 470.03,-299.52 459.46,-298.88 461.37,-305.62"/>
</g>
<!-- Node10 -->
<g id="node10" class="node">
<title>Node10</title>
<g id="a_node10"><a xlink:title=" ">
<polygon fill="white" stroke="#bfbfbf" points="593.5,-112.5 593.5,-131.5 650.5,-131.5 650.5,-112.5 593.5,-112.5"/>
<text text-anchor="middle" x="622" y="-119.5" font-family="Helvetica,sans-Serif" font-size="10.00">ostream</text>
</a>
</g>
</g>
<!-- Node9&#45;&gt;Node10 -->
<g id="edge10" class="edge">
<title>Node9&#45;&gt;Node10</title>
<path fill="none" stroke="midnightblue" d="M520.17,-168.44C539.91,-159.64 570.89,-145.81 593.49,-135.72"/>
<polygon fill="midnightblue" stroke="midnightblue" points="595.21,-138.79 602.92,-131.52 592.36,-132.4 595.21,-138.79"/>
</g>
<!-- Node11 -->
<g id="node11" class="node">
<title>Node11</title>
<g id="a_node11"><a xlink:href="$a00236.html" xlink:title=" ">
<polygon fill="white" stroke="black" points="465.5,-112.5 465.5,-131.5 536.5,-131.5 536.5,-112.5 465.5,-112.5"/>
<text text-anchor="middle" x="501" y="-119.5" font-family="Helvetica,sans-Serif" font-size="10.00">IConfig.hpp</text>
</a>
</g>
</g>
<!-- Node9&#45;&gt;Node11 -->
<g id="edge11" class="edge">
<title>Node9&#45;&gt;Node11</title>
<path fill="none" stroke="midnightblue" d="M501,-168.08C501,-161.01 501,-150.86 501,-141.99"/>
<polygon fill="midnightblue" stroke="midnightblue" points="504.5,-141.75 501,-131.75 497.5,-141.75 504.5,-141.75"/>
</g>
<!-- Node11&#45;&gt;Node5 -->
<g id="edge12" class="edge">
<title>Node11&#45;&gt;Node5</title>
<path fill="none" stroke="midnightblue" d="M499.51,-112.37C496.44,-94.62 489.37,-53.67 485.21,-29.6"/>
<polygon fill="midnightblue" stroke="midnightblue" points="488.64,-28.85 483.48,-19.59 481.74,-30.04 488.64,-28.85"/>
</g>
<!-- Node12 -->
<g id="node12" class="node">
<title>Node12</title>
<g id="a_node12"><a xlink:href="$a00245.html" xlink:title=" ">
<polygon fill="white" stroke="black" points="527.5,-56.5 527.5,-75.5 602.5,-75.5 602.5,-56.5 527.5,-56.5"/>
<text text-anchor="middle" x="565" y="-63.5" font-family="Helvetica,sans-Serif" font-size="10.00">ISetting.hpp</text>
</a>
</g>
</g>
<!-- Node11&#45;&gt;Node12 -->
<g id="edge13" class="edge">
<title>Node11&#45;&gt;Node12</title>
<path fill="none" stroke="midnightblue" d="M511.28,-112.32C520.84,-104.26 535.28,-92.08 546.78,-82.37"/>
<polygon fill="midnightblue" stroke="midnightblue" points="549.14,-84.96 554.53,-75.83 544.63,-79.61 549.14,-84.96"/>
</g>
<!-- Node12&#45;&gt;Node5 -->
<g id="edge14" class="edge">
<title>Node12&#45;&gt;Node5</title>
<path fill="none" stroke="midnightblue" d="M551.66,-56.32C538.84,-47.98 519.22,-35.21 504.06,-25.35"/>
<polygon fill="midnightblue" stroke="midnightblue" points="505.59,-22.17 495.3,-19.65 501.78,-28.04 505.59,-22.17"/>
</g>
<!-- Node13 -->
<g id="node13" class="node">
<title>Node13</title>
<g id="a_node13"><a xlink:title=" ">
<polygon fill="white" stroke="#bfbfbf" points="529.5,-0.5 529.5,-19.5 612.5,-19.5 612.5,-0.5 529.5,-0.5"/>
<text text-anchor="middle" x="571" y="-7.5" font-family="Helvetica,sans-Serif" font-size="10.00">libconfig.h++</text>
</a>
</g>
</g>
<!-- Node12&#45;&gt;Node13 -->
<g id="edge15" class="edge">
<title>Node12&#45;&gt;Node13</title>
<path fill="none" stroke="midnightblue" d="M565.99,-56.08C566.79,-48.93 567.93,-38.64 568.92,-29.69"/>
<polygon fill="midnightblue" stroke="midnightblue" points="572.4,-30.08 570.03,-19.75 565.44,-29.3 572.4,-30.08"/>
</g>
<!-- Node14&#45;&gt;Node5 -->
<g id="edge17" class="edge">
<title>Node14&#45;&gt;Node5</title>
<path fill="none" stroke="midnightblue" d="M225.57,-224.38C220.11,-203.06 209.18,-147 234,-112 282.6,-43.45 386.21,-21.35 442.91,-14.28"/>
<polygon fill="midnightblue" stroke="midnightblue" points="443.4,-17.75 452.93,-13.13 442.6,-10.8 443.4,-17.75"/>
</g>
<!-- Node15 -->
<g id="node15" class="node">
<title>Node15</title>
<g id="a_node15"><a xlink:title=" ">
<polygon fill="white" stroke="#bfbfbf" points="266.5,-168.5 266.5,-187.5 313.5,-187.5 313.5,-168.5 266.5,-168.5"/>
<text text-anchor="middle" x="290" y="-175.5" font-family="Helvetica,sans-Serif" font-size="10.00">vector</text>
</a>
</g>
</g>
<!-- Node14&#45;&gt;Node15 -->
<g id="edge18" class="edge">
<title>Node14&#45;&gt;Node15</title>
<path fill="none" stroke="midnightblue" d="M237.96,-224.32C247.13,-216.34 260.94,-204.31 272.03,-194.65"/>
<polygon fill="midnightblue" stroke="midnightblue" points="274.62,-197.04 279.86,-187.83 270.02,-191.76 274.62,-197.04"/>
</g>
<!-- Node16&#45;&gt;Node3 -->
<g id="edge20" class="edge">
<title>Node16&#45;&gt;Node3</title>
<path fill="none" stroke="midnightblue" d="M341.88,-226.86C284.94,-216.61 171.05,-196.11 112.55,-185.58"/>
<polygon fill="midnightblue" stroke="midnightblue" points="113.09,-182.12 102.63,-183.79 111.85,-189.01 113.09,-182.12"/>
</g>
<!-- Node16&#45;&gt;Node6 -->
<g id="edge21" class="edge">
<title>Node16&#45;&gt;Node6</title>
<path fill="none" stroke="midnightblue" d="M410.11,-225.8C447.74,-217.73 510.28,-203.97 573.86,-187.93"/>
<polygon fill="midnightblue" stroke="midnightblue" points="574.83,-191.29 583.66,-185.44 573.11,-184.51 574.83,-191.29"/>
</g>
<!-- Node16&#45;&gt;Node9 -->
<g id="edge28" class="edge">
<title>Node16&#45;&gt;Node9</title>
<path fill="none" stroke="midnightblue" d="M395.81,-224.44C416.29,-215.6 448.48,-201.69 471.86,-191.59"/>
<polygon fill="midnightblue" stroke="midnightblue" points="473.49,-194.7 481.29,-187.52 470.72,-188.27 473.49,-194.7"/>
</g>
<!-- Node16&#45;&gt;Node15 -->
<g id="edge22" class="edge">
<title>Node16&#45;&gt;Node15</title>
<path fill="none" stroke="midnightblue" d="M362.18,-224.32C348.77,-215.9 328.18,-202.97 312.41,-193.07"/>
<polygon fill="midnightblue" stroke="midnightblue" points="314.11,-190.01 303.78,-187.65 310.39,-195.94 314.11,-190.01"/>
</g>
<!-- Node17 -->
<g id="node17" class="node">
<title>Node17</title>
<g id="a_node17"><a xlink:href="$a00161.html" xlink:title=" ">
<polygon fill="white" stroke="black" points="356,-168.5 356,-187.5 418,-187.5 418,-168.5 356,-168.5"/>
<text text-anchor="middle" x="387" y="-175.5" font-family="Helvetica,sans-Serif" font-size="10.00">Color.hpp</text>
</a>
</g>
</g>
<!-- Node16&#45;&gt;Node17 -->
<g id="edge23" class="edge">
<title>Node16&#45;&gt;Node17</title>
<path fill="none" stroke="midnightblue" d="M377.82,-224.08C379.27,-216.93 381.37,-206.64 383.19,-197.69"/>
<polygon fill="midnightblue" stroke="midnightblue" points="386.65,-198.25 385.22,-187.75 379.79,-196.85 386.65,-198.25"/>
</g>
<!-- Node17&#45;&gt;Node10 -->
<g id="edge25" class="edge">
<title>Node17&#45;&gt;Node10</title>
<path fill="none" stroke="midnightblue" d="M418.21,-169.83C460.81,-160.04 537.13,-142.5 583.31,-131.89"/>
<polygon fill="midnightblue" stroke="midnightblue" points="584.29,-135.26 593.25,-129.61 582.72,-128.44 584.29,-135.26"/>
</g>
<!-- Node17&#45;&gt;Node12 -->
<g id="edge27" class="edge">
<title>Node17&#45;&gt;Node12</title>
<path fill="none" stroke="midnightblue" d="M418.08,-169.83C461.44,-159.58 535.83,-140.98 545,-132 557.25,-120.01 562.04,-100.71 563.89,-86.25"/>
<polygon fill="midnightblue" stroke="midnightblue" points="567.41,-86.2 564.83,-75.93 560.43,-85.57 567.41,-86.2"/>
</g>
<!-- Node18 -->
<g id="node18" class="node">
<title>Node18</title>
<g id="a_node18"><a xlink:title=" ">
<polygon fill="white" stroke="#bfbfbf" points="399,-112.5 399,-131.5 447,-131.5 447,-112.5 399,-112.5"/>
<text text-anchor="middle" x="423" y="-119.5" font-family="Helvetica,sans-Serif" font-size="10.00">mutex</text>
</a>
</g>
</g>
<!-- Node17&#45;&gt;Node18 -->
<g id="edge24" class="edge">
<title>Node17&#45;&gt;Node18</title>
<path fill="none" stroke="midnightblue" d="M392.94,-168.08C397.98,-160.53 405.34,-149.49 411.51,-140.23"/>
<polygon fill="midnightblue" stroke="midnightblue" points="414.53,-142.01 417.17,-131.75 408.71,-138.13 414.53,-142.01"/>
</g>
<!-- Node19 -->
<g id="node19" class="node">
<title>Node19</title>
<g id="a_node19"><a xlink:title=" ">
<polygon fill="white" stroke="#bfbfbf" points="243.5,-112.5 243.5,-131.5 380.5,-131.5 380.5,-112.5 243.5,-112.5"/>
<text text-anchor="middle" x="312" y="-119.5" font-family="Helvetica,sans-Serif" font-size="10.00">SFML/Graphics/Color.hpp</text>
</a>
</g>
</g>
<!-- Node17&#45;&gt;Node19 -->
<g id="edge26" class="edge">
<title>Node17&#45;&gt;Node19</title>
<path fill="none" stroke="midnightblue" d="M374.95,-168.32C363.54,-160.11 346.17,-147.6 332.57,-137.81"/>
<polygon fill="midnightblue" stroke="midnightblue" points="334.43,-134.84 324.27,-131.83 330.34,-140.52 334.43,-134.84"/>
</g>
<!-- Node20&#45;&gt;Node16 -->
<g id="edge30" class="edge">
<title>Node20&#45;&gt;Node16</title>
<path fill="none" stroke="midnightblue" d="M376.83,-280.08C376.7,-273.01 376.52,-262.86 376.35,-253.99"/>
<polygon fill="midnightblue" stroke="midnightblue" points="379.85,-253.68 376.16,-243.75 372.85,-253.81 379.85,-253.68"/>
</g>
<!-- Node23 -->
<g id="node23" class="node">
<title>Node23</title>
<g id="a_node23"><a xlink:href="$a00122.html" xlink:title=" ">
<polygon fill="white" stroke="black" points="624.5,-224.5 624.5,-243.5 765.5,-243.5 765.5,-224.5 624.5,-224.5"/>
<text text-anchor="middle" x="695" y="-231.5" font-family="Helvetica,sans-Serif" font-size="10.00">Transform/ITransform.hpp</text>
</a>
</g>
</g>
<!-- Node22&#45;&gt;Node23 -->
<g id="edge33" class="edge">
<title>Node22&#45;&gt;Node23</title>
<path fill="none" stroke="midnightblue" d="M530.9,-280.44C564.27,-271.2 617.59,-256.44 654.35,-246.26"/>
<polygon fill="midnightblue" stroke="midnightblue" points="655.54,-249.56 664.25,-243.52 653.67,-242.81 655.54,-249.56"/>
</g>
<!-- Node23&#45;&gt;Node24 -->
<g id="edge34" class="edge">
<title>Node23&#45;&gt;Node24</title>
<path fill="none" stroke="midnightblue" d="M695,-224.08C695,-217.01 695,-206.86 695,-197.99"/>
<polygon fill="midnightblue" stroke="midnightblue" points="698.5,-197.75 695,-187.75 691.5,-197.75 698.5,-197.75"/>
</g>
<!-- Node24&#45;&gt;Node10 -->
<g id="edge35" class="edge">
<title>Node24&#45;&gt;Node10</title>
<path fill="none" stroke="midnightblue" d="M683.27,-168.32C672.16,-160.11 655.26,-147.6 642.02,-137.81"/>
<polygon fill="midnightblue" stroke="midnightblue" points="644.06,-134.97 633.94,-131.83 639.9,-140.59 644.06,-134.97"/>
</g>
<!-- Node24&#45;&gt;Node12 -->
<g id="edge36" class="edge">
<title>Node24&#45;&gt;Node12</title>
<path fill="none" stroke="midnightblue" d="M692.16,-168.33C687.31,-154.74 676.27,-128.28 659,-112 643.37,-97.27 622.04,-86.53 603.64,-79.24"/>
<polygon fill="midnightblue" stroke="midnightblue" points="604.65,-75.88 594.05,-75.64 602.19,-82.44 604.65,-75.88"/>
</g>
<!-- Node25&#45;&gt;Node2 -->
<g id="edge38" class="edge">
<title>Node25&#45;&gt;Node2</title>
<path fill="none" stroke="midnightblue" d="M760.14,-336.44C740.73,-327.64 710.27,-313.81 688.04,-303.72"/>
<polygon fill="midnightblue" stroke="midnightblue" points="689.32,-300.46 678.77,-299.52 686.43,-306.84 689.32,-300.46"/>
</g>
<!-- Node25&#45;&gt;Node4 -->
<g id="edge39" class="edge">
<title>Node25&#45;&gt;Node4</title>
<path fill="none" stroke="midnightblue" d="M796.35,-336.32C813.67,-327.66 840.52,-314.24 860.5,-304.25"/>
<polygon fill="midnightblue" stroke="midnightblue" points="862.31,-307.26 869.69,-299.65 859.18,-301 862.31,-307.26"/>
</g>
<!-- Node25&#45;&gt;Node5 -->
<g id="edge40" class="edge">
<title>Node25&#45;&gt;Node5</title>
<path fill="none" stroke="midnightblue" d="M788.28,-336.22C817.86,-307.81 908,-218.05 908,-179 908,-179 908,-179 908,-121 908,-116.03 626.58,-46.47 521.21,-20.6"/>
<polygon fill="midnightblue" stroke="midnightblue" points="521.83,-17.15 511.28,-18.17 520.16,-23.95 521.83,-17.15"/>
</g>
<!-- Node25&#45;&gt;Node6 -->
<g id="edge41" class="edge">
<title>Node25&#45;&gt;Node6</title>
<path fill="none" stroke="midnightblue" d="M781.78,-336.2C788.07,-314.44 800.81,-257.48 774,-224 769.68,-218.61 685.63,-197.91 638.09,-186.56"/>
<polygon fill="midnightblue" stroke="midnightblue" points="638.79,-183.13 628.26,-184.22 637.17,-189.94 638.79,-183.13"/>
</g>
<!-- Node25&#45;&gt;Node26 -->
<g id="edge42" class="edge">
<title>Node25&#45;&gt;Node26</title>
<path fill="none" stroke="midnightblue" d="M772.23,-336.08C766.44,-328.46 757.94,-317.26 750.86,-307.94"/>
<polygon fill="midnightblue" stroke="midnightblue" points="753.48,-305.6 744.64,-299.75 747.9,-309.83 753.48,-305.6"/>
</g>
<!-- Node26&#45;&gt;Node24 -->
<g id="edge43" class="edge">
<title>Node26&#45;&gt;Node24</title>
<path fill="none" stroke="midnightblue" d="M749.2,-280.1C763.63,-267.52 785.54,-243.85 774,-224 765.26,-208.97 749.42,-198.54 734.21,-191.54"/>
<polygon fill="midnightblue" stroke="midnightblue" points="735.46,-188.27 724.88,-187.61 732.74,-194.72 735.46,-188.27"/>
</g>
</g>
</svg>
