<?xml version="1.0" encoding="UTF-8" standalone="no"?>
<!DOCTYPE svg PUBLIC "-//W3C//DTD SVG 1.1//EN"
 "http://www.w3.org/Graphics/SVG/1.1/DTD/svg11.dtd">
<!-- Generated by graphviz version 2.43.0 (0)
 -->
<!-- Title: /home/runner/work/Raytracer/Raytracer/PluginsExt/Torus/TorusCreator.hpp Pages: 1 -->
<svg width="797pt" height="442pt"
 viewBox="0.00 0.00 797.34 442.00" xmlns="http://www.w3.org/2000/svg" xmlns:xlink="http://www.w3.org/1999/xlink">
<g id="graph0" class="graph" transform="scale(1 1) rotate(0) translate(4 438)">
<title>/home/runner/work/Raytracer/Raytracer/PluginsExt/Torus/TorusCreator.hpp</title>
<polygon fill="white" stroke="transparent" points="-4,4 -4,-438 793.34,-438 793.34,4 -4,4"/>
<!-- Node1 -->
<g id="node1" class="node">
<title>Node1</title>
<g id="a_node1"><a xlink:title=" ">
<polygon fill="#bfbfbf" stroke="black" points="293.5,-392.5 293.5,-433.5 452.5,-433.5 452.5,-392.5 293.5,-392.5"/>
<text text-anchor="start" x="301.5" y="-421.5" font-family="Helvetica,sans-Serif" font-size="10.00">/home/runner/work/Raytracer</text>
<text text-anchor="start" x="301.5" y="-410.5" font-family="Helvetica,sans-Serif" font-size="10.00">/Raytracer/PluginsExt/Torus</text>
<text text-anchor="middle" x="373" y="-399.5" font-family="Helvetica,sans-Serif" font-size="10.00">/TorusCreator.hpp</text>
</a>
</g>
</g>
<!-- Node2 -->
<g id="node2" class="node">
<title>Node2</title>
<g id="a_node2"><a xlink:title=" ">
<polygon fill="white" stroke="#bfbfbf" points="35.5,-112.5 35.5,-131.5 82.5,-131.5 82.5,-112.5 35.5,-112.5"/>
<text text-anchor="middle" x="59" y="-119.5" font-family="Helvetica,sans-Serif" font-size="10.00">vector</text>
</a>
</g>
</g>
<!-- Node1&#45;&gt;Node2 -->
<g id="edge1" class="edge">
<title>Node1&#45;&gt;Node2</title>
<path fill="none" stroke="midnightblue" d="M293.18,-399.5C194.1,-381.68 38,-345.03 38,-291 38,-291 38,-291 38,-233 38,-200.38 47.02,-163.28 53.23,-141.57"/>
<polygon fill="midnightblue" stroke="midnightblue" points="56.67,-142.32 56.17,-131.73 49.96,-140.32 56.67,-142.32"/>
</g>
<!-- Node3 -->
<g id="node3" class="node">
<title>Node3</title>
<g id="a_node3"><a xlink:title=" ">
<polygon fill="white" stroke="#bfbfbf" points="225,-0.5 225,-19.5 283,-19.5 283,-0.5 225,-0.5"/>
<text text-anchor="middle" x="254" y="-7.5" font-family="Helvetica,sans-Serif" font-size="10.00">memory</text>
</a>
</g>
</g>
<!-- Node1&#45;&gt;Node3 -->
<g id="edge2" class="edge">
<title>Node1&#45;&gt;Node3</title>
<path fill="none" stroke="midnightblue" d="M293.25,-408.15C231.37,-402.58 144.85,-389 76,-356 35.92,-336.79 0,-335.45 0,-291 0,-291 0,-291 0,-121 0,-28.67 143.08,-12.97 214.46,-10.88"/>
<polygon fill="midnightblue" stroke="midnightblue" points="214.94,-14.37 224.86,-10.66 214.79,-7.38 214.94,-14.37"/>
</g>
<!-- Node4 -->
<g id="node4" class="node">
<title>Node4</title>
<g id="a_node4"><a xlink:href="$a00191.html" xlink:title=" ">
<polygon fill="white" stroke="black" points="550,-336.5 550,-355.5 654,-355.5 654,-336.5 550,-336.5"/>
<text text-anchor="middle" x="602" y="-343.5" font-family="Helvetica,sans-Serif" font-size="10.00">IEntityCreator.hpp</text>
</a>
</g>
</g>
<!-- Node1&#45;&gt;Node4 -->
<g id="edge3" class="edge">
<title>Node1&#45;&gt;Node4</title>
<path fill="none" stroke="midnightblue" d="M441.71,-392.5C480.99,-381.35 528.88,-367.76 562.03,-358.35"/>
<polygon fill="midnightblue" stroke="midnightblue" points="563.15,-361.66 571.82,-355.57 561.24,-354.93 563.15,-361.66"/>
</g>
<!-- Node11 -->
<g id="node11" class="node">
<title>Node11</title>
<g id="a_node11"><a xlink:href="$a00149.html" xlink:title=" ">
<polygon fill="white" stroke="black" points="645.5,-280.5 645.5,-299.5 718.5,-299.5 718.5,-280.5 645.5,-280.5"/>
<text text-anchor="middle" x="682" y="-287.5" font-family="Helvetica,sans-Serif" font-size="10.00">ILogger.hpp</text>
</a>
</g>
</g>
<!-- Node1&#45;&gt;Node11 -->
<g id="edge16" class="edge">
<title>Node1&#45;&gt;Node11</title>
<path fill="none" stroke="midnightblue" d="M452.67,-405.86C527.63,-398.49 632.76,-383.53 663,-356 675.89,-344.27 680.22,-324.33 681.58,-309.62"/>
<polygon fill="midnightblue" stroke="midnightblue" points="685.08,-309.8 682.14,-299.62 678.09,-309.41 685.08,-309.8"/>
</g>
<!-- Node14 -->
<g id="node14" class="node">
<title>Node14</title>
<g id="a_node14"><a xlink:href="$a00380.html" xlink:title=" ">
<polygon fill="white" stroke="black" points="328,-336.5 328,-355.5 418,-355.5 418,-336.5 328,-336.5"/>
<text text-anchor="middle" x="373" y="-343.5" font-family="Helvetica,sans-Serif" font-size="10.00">TorusEntity.hpp</text>
</a>
</g>
</g>
<!-- Node1&#45;&gt;Node14 -->
<g id="edge17" class="edge">
<title>Node1&#45;&gt;Node14</title>
<path fill="none" stroke="midnightblue" d="M373,-392.5C373,-384.07 373,-374.24 373,-365.87"/>
<polygon fill="midnightblue" stroke="midnightblue" points="376.5,-365.65 373,-355.65 369.5,-365.65 376.5,-365.65"/>
</g>
<!-- Node4&#45;&gt;Node3 -->
<g id="edge4" class="edge">
<title>Node4&#45;&gt;Node3</title>
<path fill="none" stroke="midnightblue" d="M603.26,-336.45C608.69,-295.79 625.73,-121.28 529,-56 491.22,-30.5 360.08,-18.16 293.48,-13.42"/>
<polygon fill="midnightblue" stroke="midnightblue" points="293.58,-9.92 283.36,-12.73 293.1,-16.9 293.58,-9.92"/>
</g>
<!-- Node5 -->
<g id="node5" class="node">
<title>Node5</title>
<g id="a_node5"><a xlink:href="$a00101.html" xlink:title=" ">
<polygon fill="white" stroke="black" points="417,-224.5 417,-243.5 485,-243.5 485,-224.5 417,-224.5"/>
<text text-anchor="middle" x="451" y="-231.5" font-family="Helvetica,sans-Serif" font-size="10.00">IEntity.hpp</text>
</a>
</g>
</g>
<!-- Node4&#45;&gt;Node5 -->
<g id="edge5" class="edge">
<title>Node4&#45;&gt;Node5</title>
<path fill="none" stroke="midnightblue" d="M590.15,-336.37C564.35,-317.57 502.85,-272.77 470.95,-249.53"/>
<polygon fill="midnightblue" stroke="midnightblue" points="472.94,-246.65 462.79,-243.59 468.82,-252.31 472.94,-246.65"/>
</g>
<!-- Node9 -->
<g id="node9" class="node">
<title>Node9</title>
<g id="a_node9"><a xlink:href="$a00236.html" xlink:title=" ">
<polygon fill="white" stroke="black" points="444.5,-56.5 444.5,-75.5 519.5,-75.5 519.5,-56.5 444.5,-56.5"/>
<text text-anchor="middle" x="482" y="-63.5" font-family="Helvetica,sans-Serif" font-size="10.00">ISetting.hpp</text>
</a>
</g>
</g>
<!-- Node4&#45;&gt;Node9 -->
<g id="edge15" class="edge">
<title>Node4&#45;&gt;Node9</title>
<path fill="none" stroke="midnightblue" d="M642.13,-336.5C705.61,-321.04 818.46,-284.24 782,-224 726.8,-132.81 599.28,-92.03 529.59,-76"/>
<polygon fill="midnightblue" stroke="midnightblue" points="530.26,-72.57 519.74,-73.82 528.74,-79.4 530.26,-72.57"/>
</g>
<!-- Node4&#45;&gt;Node11 -->
<g id="edge12" class="edge">
<title>Node4&#45;&gt;Node11</title>
<path fill="none" stroke="midnightblue" d="M614.85,-336.32C627.22,-327.98 646.13,-315.21 660.74,-305.35"/>
<polygon fill="midnightblue" stroke="midnightblue" points="662.85,-308.15 669.18,-299.65 658.93,-302.35 662.85,-308.15"/>
</g>
<!-- Node6 -->
<g id="node6" class="node">
<title>Node6</title>
<g id="a_node6"><a xlink:href="$a00113.html" xlink:title=" ">
<polygon fill="white" stroke="black" points="412.5,-168.5 412.5,-187.5 553.5,-187.5 553.5,-168.5 412.5,-168.5"/>
<text text-anchor="middle" x="483" y="-175.5" font-family="Helvetica,sans-Serif" font-size="10.00">Transform/ITransform.hpp</text>
</a>
</g>
</g>
<!-- Node5&#45;&gt;Node6 -->
<g id="edge6" class="edge">
<title>Node5&#45;&gt;Node6</title>
<path fill="none" stroke="midnightblue" d="M456.28,-224.08C460.71,-216.61 467.16,-205.72 472.62,-196.52"/>
<polygon fill="midnightblue" stroke="midnightblue" points="475.73,-198.14 477.81,-187.75 469.71,-194.57 475.73,-198.14"/>
</g>
<!-- Node7 -->
<g id="node7" class="node">
<title>Node7</title>
<g id="a_node7"><a xlink:href="$a00122.html" xlink:title=" ">
<polygon fill="white" stroke="black" points="443.5,-112.5 443.5,-131.5 520.5,-131.5 520.5,-112.5 443.5,-112.5"/>
<text text-anchor="middle" x="482" y="-119.5" font-family="Helvetica,sans-Serif" font-size="10.00">Vector3f.hpp</text>
</a>
</g>
</g>
<!-- Node6&#45;&gt;Node7 -->
<g id="edge7" class="edge">
<title>Node6&#45;&gt;Node7</title>
<path fill="none" stroke="midnightblue" d="M482.83,-168.08C482.7,-161.01 482.52,-150.86 482.35,-141.99"/>
<polygon fill="midnightblue" stroke="midnightblue" points="485.85,-141.68 482.16,-131.75 478.85,-141.81 485.85,-141.68"/>
</g>
<!-- Node8 -->
<g id="node8" class="node">
<title>Node8</title>
<g id="a_node8"><a xlink:title=" ">
<polygon fill="white" stroke="#bfbfbf" points="257.5,-56.5 257.5,-75.5 314.5,-75.5 314.5,-56.5 257.5,-56.5"/>
<text text-anchor="middle" x="286" y="-63.5" font-family="Helvetica,sans-Serif" font-size="10.00">ostream</text>
</a>
</g>
</g>
<!-- Node7&#45;&gt;Node8 -->
<g id="edge8" class="edge">
<title>Node7&#45;&gt;Node8</title>
<path fill="none" stroke="midnightblue" d="M450.94,-112.44C416.71,-103.01 361.59,-87.83 324.6,-77.63"/>
<polygon fill="midnightblue" stroke="midnightblue" points="325.25,-74.18 314.68,-74.9 323.39,-80.93 325.25,-74.18"/>
</g>
<!-- Node7&#45;&gt;Node9 -->
<g id="edge9" class="edge">
<title>Node7&#45;&gt;Node9</title>
<path fill="none" stroke="midnightblue" d="M482,-112.08C482,-105.01 482,-94.86 482,-85.99"/>
<polygon fill="midnightblue" stroke="midnightblue" points="485.5,-85.75 482,-75.75 478.5,-85.75 485.5,-85.75"/>
</g>
<!-- Node9&#45;&gt;Node3 -->
<g id="edge10" class="edge">
<title>Node9&#45;&gt;Node3</title>
<path fill="none" stroke="midnightblue" d="M445.87,-56.44C404.14,-46.56 335.74,-30.36 292.87,-20.21"/>
<polygon fill="midnightblue" stroke="midnightblue" points="293.62,-16.79 283.09,-17.89 292.01,-23.6 293.62,-16.79"/>
</g>
<!-- Node10 -->
<g id="node10" class="node">
<title>Node10</title>
<g id="a_node10"><a xlink:title=" ">
<polygon fill="white" stroke="#bfbfbf" points="440.5,-0.5 440.5,-19.5 523.5,-19.5 523.5,-0.5 440.5,-0.5"/>
<text text-anchor="middle" x="482" y="-7.5" font-family="Helvetica,sans-Serif" font-size="10.00">libconfig.h++</text>
</a>
</g>
</g>
<!-- Node9&#45;&gt;Node10 -->
<g id="edge11" class="edge">
<title>Node9&#45;&gt;Node10</title>
<path fill="none" stroke="midnightblue" d="M482,-56.08C482,-49.01 482,-38.86 482,-29.99"/>
<polygon fill="midnightblue" stroke="midnightblue" points="485.5,-29.75 482,-19.75 478.5,-29.75 485.5,-29.75"/>
</g>
<!-- Node12 -->
<g id="node12" class="node">
<title>Node12</title>
<g id="a_node12"><a xlink:title=" ">
<polygon fill="white" stroke="#bfbfbf" points="707.5,-224.5 707.5,-243.5 772.5,-243.5 772.5,-224.5 707.5,-224.5"/>
<text text-anchor="middle" x="740" y="-231.5" font-family="Helvetica,sans-Serif" font-size="10.00">functional</text>
</a>
</g>
</g>
<!-- Node11&#45;&gt;Node12 -->
<g id="edge13" class="edge">
<title>Node11&#45;&gt;Node12</title>
<path fill="none" stroke="midnightblue" d="M691.32,-280.32C699.89,-272.34 712.81,-260.31 723.19,-250.65"/>
<polygon fill="midnightblue" stroke="midnightblue" points="725.58,-253.21 730.51,-243.83 720.81,-248.09 725.58,-253.21"/>
</g>
<!-- Node13 -->
<g id="node13" class="node">
<title>Node13</title>
<g id="a_node13"><a xlink:title=" ">
<polygon fill="white" stroke="#bfbfbf" points="645,-224.5 645,-243.5 689,-243.5 689,-224.5 645,-224.5"/>
<text text-anchor="middle" x="667" y="-231.5" font-family="Helvetica,sans-Serif" font-size="10.00">string</text>
</a>
</g>
</g>
<!-- Node11&#45;&gt;Node13 -->
<g id="edge14" class="edge">
<title>Node11&#45;&gt;Node13</title>
<path fill="none" stroke="midnightblue" d="M679.52,-280.08C677.51,-272.85 674.61,-262.41 672.11,-253.4"/>
<polygon fill="midnightblue" stroke="midnightblue" points="675.48,-252.45 669.43,-243.75 668.74,-254.32 675.48,-252.45"/>
</g>
<!-- Node14&#45;&gt;Node11 -->
<g id="edge18" class="edge">
<title>Node14&#45;&gt;Node11</title>
<path fill="none" stroke="midnightblue" d="M418.26,-337.09C476.3,-326.95 576.44,-309.45 635.21,-299.18"/>
<polygon fill="midnightblue" stroke="midnightblue" points="636.08,-302.58 645.33,-297.41 634.87,-295.68 636.08,-302.58"/>
</g>
<!-- Node15 -->
<g id="node15" class="node">
<title>Node15</title>
<g id="a_node15"><a xlink:href="$a00110.html" xlink:title=" ">
<polygon fill="white" stroke="black" points="291.5,-280.5 291.5,-299.5 376.5,-299.5 376.5,-280.5 291.5,-280.5"/>
<text text-anchor="middle" x="334" y="-287.5" font-family="Helvetica,sans-Serif" font-size="10.00">IPrimitive.hpp</text>
</a>
</g>
</g>
<!-- Node14&#45;&gt;Node15 -->
<g id="edge19" class="edge">
<title>Node14&#45;&gt;Node15</title>
<path fill="none" stroke="midnightblue" d="M366.56,-336.08C361.05,-328.46 352.97,-317.26 346.24,-307.94"/>
<polygon fill="midnightblue" stroke="midnightblue" points="349.01,-305.81 340.32,-299.75 343.34,-309.91 349.01,-305.81"/>
</g>
<!-- Node21 -->
<g id="node21" class="node">
<title>Node21</title>
<g id="a_node21"><a xlink:href="$a00107.html" xlink:title=" ">
<polygon fill="white" stroke="black" points="167.5,-224.5 167.5,-243.5 248.5,-243.5 248.5,-224.5 167.5,-224.5"/>
<text text-anchor="middle" x="208" y="-231.5" font-family="Helvetica,sans-Serif" font-size="10.00">IMaterial.hpp</text>
</a>
</g>
</g>
<!-- Node14&#45;&gt;Node21 -->
<g id="edge43" class="edge">
<title>Node14&#45;&gt;Node21</title>
<path fill="none" stroke="midnightblue" d="M351.91,-336.45C332.9,-328.32 304.55,-315.1 282,-300 260.18,-285.39 237.91,-264.92 223.58,-250.88"/>
<polygon fill="midnightblue" stroke="midnightblue" points="226.05,-248.39 216.49,-243.81 221.11,-253.35 226.05,-248.39"/>
</g>
<!-- Node23 -->
<g id="node23" class="node">
<title>Node23</title>
<g id="a_node23"><a xlink:href="$a00116.html" xlink:title=" ">
<polygon fill="white" stroke="black" points="503,-224.5 503,-243.5 589,-243.5 589,-224.5 503,-224.5"/>
<text text-anchor="middle" x="546" y="-231.5" font-family="Helvetica,sans-Serif" font-size="10.00">Transform.hpp</text>
</a>
</g>
</g>
<!-- Node14&#45;&gt;Node23 -->
<g id="edge39" class="edge">
<title>Node14&#45;&gt;Node23</title>
<path fill="none" stroke="midnightblue" d="M386.58,-336.37C416.26,-317.49 487.2,-272.38 523.61,-249.24"/>
<polygon fill="midnightblue" stroke="midnightblue" points="525.93,-251.91 532.49,-243.59 522.17,-246 525.93,-251.91"/>
</g>
<!-- Node15&#45;&gt;Node5 -->
<g id="edge29" class="edge">
<title>Node15&#45;&gt;Node5</title>
<path fill="none" stroke="midnightblue" d="M352.54,-280.44C371.62,-271.64 401.57,-257.81 423.44,-247.72"/>
<polygon fill="midnightblue" stroke="midnightblue" points="424.93,-250.88 432.55,-243.52 422,-244.53 424.93,-250.88"/>
</g>
<!-- Node15&#45;&gt;Node7 -->
<g id="edge38" class="edge">
<title>Node15&#45;&gt;Node7</title>
<path fill="none" stroke="midnightblue" d="M337.07,-280.37C345.01,-259 368.11,-202.87 403,-168 416.59,-154.42 435.12,-143.58 450.82,-135.94"/>
<polygon fill="midnightblue" stroke="midnightblue" points="452.56,-138.99 460.16,-131.61 449.61,-132.64 452.56,-138.99"/>
</g>
<!-- Node16 -->
<g id="node16" class="node">
<title>Node16</title>
<g id="a_node16"><a xlink:title=" ">
<polygon fill="white" stroke="#bfbfbf" points="267,-224.5 267,-243.5 323,-243.5 323,-224.5 267,-224.5"/>
<text text-anchor="middle" x="295" y="-231.5" font-family="Helvetica,sans-Serif" font-size="10.00">optional</text>
</a>
</g>
</g>
<!-- Node15&#45;&gt;Node16 -->
<g id="edge20" class="edge">
<title>Node15&#45;&gt;Node16</title>
<path fill="none" stroke="midnightblue" d="M327.56,-280.08C322.05,-272.46 313.97,-261.26 307.24,-251.94"/>
<polygon fill="midnightblue" stroke="midnightblue" points="310.01,-249.81 301.32,-243.75 304.34,-253.91 310.01,-249.81"/>
</g>
<!-- Node17 -->
<g id="node17" class="node">
<title>Node17</title>
<g id="a_node17"><a xlink:href="$a00152.html" xlink:title=" ">
<polygon fill="white" stroke="black" points="182,-168.5 182,-187.5 244,-187.5 244,-168.5 182,-168.5"/>
<text text-anchor="middle" x="213" y="-175.5" font-family="Helvetica,sans-Serif" font-size="10.00">Color.hpp</text>
</a>
</g>
</g>
<!-- Node15&#45;&gt;Node17 -->
<g id="edge21" class="edge">
<title>Node15&#45;&gt;Node17</title>
<path fill="none" stroke="midnightblue" d="M291.25,-284.06C244.55,-277.69 174.2,-264.86 158,-244 143.94,-225.9 167.09,-205.88 187.53,-192.9"/>
<polygon fill="midnightblue" stroke="midnightblue" points="189.53,-195.79 196.3,-187.64 185.92,-189.79 189.53,-195.79"/>
</g>
<!-- Node20 -->
<g id="node20" class="node">
<title>Node20</title>
<g id="a_node20"><a xlink:href="$a00230.html" xlink:title=" ">
<polygon fill="white" stroke="black" points="66,-168.5 66,-187.5 164,-187.5 164,-168.5 66,-168.5"/>
<text text-anchor="middle" x="115" y="-175.5" font-family="Helvetica,sans-Serif" font-size="10.00">IDisplayable.hpp</text>
</a>
</g>
</g>
<!-- Node15&#45;&gt;Node20 -->
<g id="edge26" class="edge">
<title>Node15&#45;&gt;Node20</title>
<path fill="none" stroke="midnightblue" d="M291.44,-288.21C251.17,-285.42 190.97,-275.69 150,-244 134.83,-232.26 125.43,-212.03 120.25,-197.25"/>
<polygon fill="midnightblue" stroke="midnightblue" points="123.56,-196.12 117.19,-187.65 116.89,-198.24 123.56,-196.12"/>
</g>
<!-- Node15&#45;&gt;Node21 -->
<g id="edge30" class="edge">
<title>Node15&#45;&gt;Node21</title>
<path fill="none" stroke="midnightblue" d="M314.03,-280.44C293.39,-271.6 260.94,-257.69 237.37,-247.59"/>
<polygon fill="midnightblue" stroke="midnightblue" points="238.44,-244.24 227.87,-243.52 235.68,-250.67 238.44,-244.24"/>
</g>
<!-- Node22 -->
<g id="node22" class="node">
<title>Node22</title>
<g id="a_node22"><a xlink:href="$a00167.html" xlink:title=" ">
<polygon fill="white" stroke="black" points="300.5,-168.5 300.5,-187.5 355.5,-187.5 355.5,-168.5 300.5,-168.5"/>
<text text-anchor="middle" x="328" y="-175.5" font-family="Helvetica,sans-Serif" font-size="10.00">Ray.hpp</text>
</a>
</g>
</g>
<!-- Node15&#45;&gt;Node22 -->
<g id="edge37" class="edge">
<title>Node15&#45;&gt;Node22</title>
<path fill="none" stroke="midnightblue" d="M333.89,-280.16C333.7,-267.65 333.2,-244.06 332,-224 331.48,-215.38 330.67,-205.85 329.91,-197.79"/>
<polygon fill="midnightblue" stroke="midnightblue" points="333.38,-197.23 328.92,-187.62 326.41,-197.91 333.38,-197.23"/>
</g>
<!-- Node17&#45;&gt;Node8 -->
<g id="edge23" class="edge">
<title>Node17&#45;&gt;Node8</title>
<path fill="none" stroke="midnightblue" d="M201.22,-168.4C185.4,-155.79 160.73,-131.63 174,-112 190.3,-87.89 221.87,-76.7 247.35,-71.5"/>
<polygon fill="midnightblue" stroke="midnightblue" points="248.26,-74.89 257.48,-69.68 247.02,-68 248.26,-74.89"/>
</g>
<!-- Node17&#45;&gt;Node9 -->
<g id="edge25" class="edge">
<title>Node17&#45;&gt;Node9</title>
<path fill="none" stroke="midnightblue" d="M244.09,-170.02C292.41,-159.07 381.39,-138.44 395,-132 421.99,-119.23 448.89,-97.38 465.47,-82.57"/>
<polygon fill="midnightblue" stroke="midnightblue" points="468.13,-84.89 473.15,-75.56 463.41,-79.72 468.13,-84.89"/>
</g>
<!-- Node18 -->
<g id="node18" class="node">
<title>Node18</title>
<g id="a_node18"><a xlink:title=" ">
<polygon fill="white" stroke="#bfbfbf" points="183,-112.5 183,-131.5 231,-131.5 231,-112.5 183,-112.5"/>
<text text-anchor="middle" x="207" y="-119.5" font-family="Helvetica,sans-Serif" font-size="10.00">mutex</text>
</a>
</g>
</g>
<!-- Node17&#45;&gt;Node18 -->
<g id="edge22" class="edge">
<title>Node17&#45;&gt;Node18</title>
<path fill="none" stroke="midnightblue" d="M212.01,-168.08C211.21,-160.93 210.07,-150.64 209.08,-141.69"/>
<polygon fill="midnightblue" stroke="midnightblue" points="212.56,-141.3 207.97,-131.75 205.6,-142.08 212.56,-141.3"/>
</g>
<!-- Node19 -->
<g id="node19" class="node">
<title>Node19</title>
<g id="a_node19"><a xlink:title=" ">
<polygon fill="white" stroke="#bfbfbf" points="249.5,-112.5 249.5,-131.5 386.5,-131.5 386.5,-112.5 249.5,-112.5"/>
<text text-anchor="middle" x="318" y="-119.5" font-family="Helvetica,sans-Serif" font-size="10.00">SFML/Graphics/Color.hpp</text>
</a>
</g>
</g>
<!-- Node17&#45;&gt;Node19 -->
<g id="edge24" class="edge">
<title>Node17&#45;&gt;Node19</title>
<path fill="none" stroke="midnightblue" d="M229.87,-168.32C246.71,-159.66 272.81,-146.24 292.24,-136.25"/>
<polygon fill="midnightblue" stroke="midnightblue" points="293.88,-139.34 301.17,-131.65 290.68,-133.12 293.88,-139.34"/>
</g>
<!-- Node20&#45;&gt;Node2 -->
<g id="edge28" class="edge">
<title>Node20&#45;&gt;Node2</title>
<path fill="none" stroke="midnightblue" d="M106,-168.32C97.81,-160.42 85.49,-148.55 75.53,-138.94"/>
<polygon fill="midnightblue" stroke="midnightblue" points="77.79,-136.26 68.16,-131.83 72.93,-141.29 77.79,-136.26"/>
</g>
<!-- Node20&#45;&gt;Node3 -->
<g id="edge27" class="edge">
<title>Node20&#45;&gt;Node3</title>
<path fill="none" stroke="midnightblue" d="M121.96,-168.09C131.85,-155.49 150.57,-131.79 167,-112 192.22,-81.62 222.47,-46.87 239.84,-27.07"/>
<polygon fill="midnightblue" stroke="midnightblue" points="242.47,-29.38 246.45,-19.56 237.21,-24.76 242.47,-29.38"/>
</g>
<!-- Node21&#45;&gt;Node6 -->
<g id="edge35" class="edge">
<title>Node21&#45;&gt;Node6</title>
<path fill="none" stroke="midnightblue" d="M248.58,-225.03C296.58,-215.61 376.65,-199.88 429.64,-189.48"/>
<polygon fill="midnightblue" stroke="midnightblue" points="430.39,-192.9 439.53,-187.54 429.04,-186.03 430.39,-192.9"/>
</g>
<!-- Node21&#45;&gt;Node7 -->
<g id="edge36" class="edge">
<title>Node21&#45;&gt;Node7</title>
<path fill="none" stroke="midnightblue" d="M216.34,-224.38C230.4,-210.38 260.31,-182.74 291,-168 315.8,-156.09 385.33,-141.29 433.28,-132"/>
<polygon fill="midnightblue" stroke="midnightblue" points="434,-135.42 443.16,-130.1 432.68,-128.55 434,-135.42"/>
</g>
<!-- Node21&#45;&gt;Node17 -->
<g id="edge33" class="edge">
<title>Node21&#45;&gt;Node17</title>
<path fill="none" stroke="midnightblue" d="M208.83,-224.08C209.48,-217.01 210.42,-206.86 211.24,-197.99"/>
<polygon fill="midnightblue" stroke="midnightblue" points="214.75,-198.03 212.19,-187.75 207.78,-197.39 214.75,-198.03"/>
</g>
<!-- Node21&#45;&gt;Node20 -->
<g id="edge34" class="edge">
<title>Node21&#45;&gt;Node20</title>
<path fill="none" stroke="midnightblue" d="M193.06,-224.32C178.41,-215.82 155.87,-202.73 138.76,-192.8"/>
<polygon fill="midnightblue" stroke="midnightblue" points="140.31,-189.65 129.9,-187.65 136.8,-195.7 140.31,-189.65"/>
</g>
<!-- Node21&#45;&gt;Node22 -->
<g id="edge31" class="edge">
<title>Node21&#45;&gt;Node22</title>
<path fill="none" stroke="midnightblue" d="M227.01,-224.44C246.59,-215.64 277.31,-201.81 299.73,-191.72"/>
<polygon fill="midnightblue" stroke="midnightblue" points="301.39,-194.81 309.07,-187.52 298.52,-188.43 301.39,-194.81"/>
</g>
<!-- Node22&#45;&gt;Node7 -->
<g id="edge32" class="edge">
<title>Node22&#45;&gt;Node7</title>
<path fill="none" stroke="midnightblue" d="M352.4,-168.44C378.2,-159.4 419.08,-145.06 448.02,-134.92"/>
<polygon fill="midnightblue" stroke="midnightblue" points="449.43,-138.13 457.71,-131.52 447.12,-131.52 449.43,-138.13"/>
</g>
<!-- Node23&#45;&gt;Node6 -->
<g id="edge40" class="edge">
<title>Node23&#45;&gt;Node6</title>
<path fill="none" stroke="midnightblue" d="M535.88,-224.32C526.47,-216.26 512.26,-204.08 500.93,-194.37"/>
<polygon fill="midnightblue" stroke="midnightblue" points="503.18,-191.68 493.31,-187.83 498.62,-197 503.18,-191.68"/>
</g>
<!-- Node23&#45;&gt;Node7 -->
<g id="edge42" class="edge">
<title>Node23&#45;&gt;Node7</title>
<path fill="none" stroke="midnightblue" d="M552.14,-224.43C560.63,-211.43 573.77,-186.3 563,-168 554.08,-152.84 538.01,-142.43 522.52,-135.46"/>
<polygon fill="midnightblue" stroke="midnightblue" points="523.6,-132.12 513.02,-131.56 520.94,-138.6 523.6,-132.12"/>
</g>
<!-- Node23&#45;&gt;Node9 -->
<g id="edge41" class="edge">
<title>Node23&#45;&gt;Node9</title>
<path fill="none" stroke="midnightblue" d="M555.53,-224.45C567.87,-212.28 586.92,-189.09 579,-168 564.75,-130.06 527.92,-98.7 503.97,-81.45"/>
<polygon fill="midnightblue" stroke="midnightblue" points="505.7,-78.38 495.49,-75.54 501.7,-84.13 505.7,-78.38"/>
</g>
</g>
</svg>
