<?xml version="1.0" encoding="UTF-8" standalone="no"?>
<!DOCTYPE svg PUBLIC "-//W3C//DTD SVG 1.1//EN"
 "http://www.w3.org/Graphics/SVG/1.1/DTD/svg11.dtd">
<!-- Generated by graphviz version 2.43.0 (0)
 -->
<!-- Title: RayTracer::Display::ProgressModule Pages: 1 -->
<svg width="593pt" height="442pt"
 viewBox="0.00 0.00 592.50 442.00" xmlns="http://www.w3.org/2000/svg" xmlns:xlink="http://www.w3.org/1999/xlink">
<g id="graph0" class="graph" transform="scale(1 1) rotate(0) translate(4 438)">
<title>RayTracer::Display::ProgressModule</title>
<polygon fill="white" stroke="transparent" points="-4,4 -4,-438 588.5,-438 588.5,4 -4,4"/>
<!-- Node1 -->
<g id="node1" class="node">
<title>Node1</title>
<g id="a_node1"><a xlink:title=" ">
<polygon fill="#bfbfbf" stroke="black" points="240,-0.5 240,-134.5 353,-134.5 353,-0.5 240,-0.5"/>
<text text-anchor="start" x="248" y="-122.5" font-family="Helvetica,sans-Serif" font-size="10.00">RayTracer::Display</text>
<text text-anchor="middle" x="296.5" y="-111.5" font-family="Helvetica,sans-Serif" font-size="10.00">::ProgressModule</text>
<polyline fill="none" stroke="black" points="240,-104.5 353,-104.5 "/>
<text text-anchor="middle" x="296.5" y="-92.5" font-family="Helvetica,sans-Serif" font-size="10.00"> </text>
<polyline fill="none" stroke="black" points="240,-85.5 353,-85.5 "/>
<text text-anchor="start" x="248" y="-73.5" font-family="Helvetica,sans-Serif" font-size="10.00">+ ProgressModule()</text>
<text text-anchor="start" x="248" y="-62.5" font-family="Helvetica,sans-Serif" font-size="10.00">+ tick()</text>
<text text-anchor="start" x="248" y="-51.5" font-family="Helvetica,sans-Serif" font-size="10.00">+ event()</text>
<text text-anchor="start" x="248" y="-40.5" font-family="Helvetica,sans-Serif" font-size="10.00">+ start()</text>
<text text-anchor="start" x="248" y="-29.5" font-family="Helvetica,sans-Serif" font-size="10.00">+ end()</text>
<text text-anchor="start" x="248" y="-18.5" font-family="Helvetica,sans-Serif" font-size="10.00">+ getName()</text>
<text text-anchor="start" x="248" y="-7.5" font-family="Helvetica,sans-Serif" font-size="10.00">&#45; info()</text>
</a>
</g>
</g>
<!-- Node2 -->
<g id="node2" class="node">
<title>Node2</title>
<g id="a_node2"><a xlink:href="$a01213.html" xlink:title=" ">
<polygon fill="white" stroke="black" points="0,-193.5 0,-316.5 119,-316.5 119,-193.5 0,-193.5"/>
<text text-anchor="start" x="8" y="-304.5" font-family="Helvetica,sans-Serif" font-size="10.00">RayTracer::Display</text>
<text text-anchor="middle" x="59.5" y="-293.5" font-family="Helvetica,sans-Serif" font-size="10.00">::IDisplayModule</text>
<polyline fill="none" stroke="black" points="0,-286.5 119,-286.5 "/>
<text text-anchor="middle" x="59.5" y="-274.5" font-family="Helvetica,sans-Serif" font-size="10.00"> </text>
<polyline fill="none" stroke="black" points="0,-267.5 119,-267.5 "/>
<text text-anchor="start" x="8" y="-255.5" font-family="Helvetica,sans-Serif" font-size="10.00">+ ~IDisplayModule()</text>
<text text-anchor="start" x="8" y="-244.5" font-family="Helvetica,sans-Serif" font-size="10.00">+ tick()</text>
<text text-anchor="start" x="8" y="-233.5" font-family="Helvetica,sans-Serif" font-size="10.00">+ event()</text>
<text text-anchor="start" x="8" y="-222.5" font-family="Helvetica,sans-Serif" font-size="10.00">+ start()</text>
<text text-anchor="start" x="8" y="-211.5" font-family="Helvetica,sans-Serif" font-size="10.00">+ end()</text>
<text text-anchor="start" x="8" y="-200.5" font-family="Helvetica,sans-Serif" font-size="10.00">+ getName()</text>
</a>
</g>
</g>
<!-- Node2&#45;&gt;Node1 -->
<g id="edge1" class="edge">
<title>Node2&#45;&gt;Node1</title>
<path fill="none" stroke="midnightblue" d="M123.33,-186.46C125.06,-184.94 126.78,-183.45 128.5,-182 163.49,-152.51 206.26,-123.7 239.89,-102.49"/>
<polygon fill="none" stroke="midnightblue" points="120.86,-183.98 115.81,-193.3 125.56,-189.16 120.86,-183.98"/>
</g>
<!-- Node3 -->
<g id="node3" class="node">
<title>Node3</title>
<g id="a_node3"><a xlink:title=" ">
<polygon fill="white" stroke="#bfbfbf" points="137.5,-226.5 137.5,-283.5 227.5,-283.5 227.5,-226.5 137.5,-226.5"/>
<text text-anchor="middle" x="182.5" y="-271.5" font-family="Helvetica,sans-Serif" font-size="10.00">RenderWindow</text>
<polyline fill="none" stroke="#bfbfbf" points="137.5,-264.5 227.5,-264.5 "/>
<text text-anchor="middle" x="182.5" y="-252.5" font-family="Helvetica,sans-Serif" font-size="10.00"> </text>
<polyline fill="none" stroke="#bfbfbf" points="137.5,-245.5 227.5,-245.5 "/>
<text text-anchor="middle" x="182.5" y="-233.5" font-family="Helvetica,sans-Serif" font-size="10.00"> </text>
</a>
</g>
</g>
<!-- Node3&#45;&gt;Node1 -->
<g id="edge2" class="edge">
<title>Node3&#45;&gt;Node1</title>
<path fill="none" stroke="#404040" d="M186.53,-226.34C190.52,-205.15 198.04,-175.77 211.5,-153 217.1,-143.53 224.01,-134.37 231.46,-125.79"/>
<polygon fill="none" stroke="#404040" points="231.63,-125.6 232.71,-118.47 239.71,-116.72 238.63,-123.85 231.63,-125.6"/>
<text text-anchor="middle" x="236.5" y="-156" font-family="Helvetica,sans-Serif" font-size="10.00"> &#45;_window</text>
</g>
<!-- Node4 -->
<g id="node4" class="node">
<title>Node4</title>
<g id="a_node4"><a xlink:title=" ">
<polygon fill="white" stroke="#bfbfbf" points="245.5,-226.5 245.5,-283.5 289.5,-283.5 289.5,-226.5 245.5,-226.5"/>
<text text-anchor="middle" x="267.5" y="-271.5" font-family="Helvetica,sans-Serif" font-size="10.00">Clock</text>
<polyline fill="none" stroke="#bfbfbf" points="245.5,-264.5 289.5,-264.5 "/>
<text text-anchor="middle" x="267.5" y="-252.5" font-family="Helvetica,sans-Serif" font-size="10.00"> </text>
<polyline fill="none" stroke="#bfbfbf" points="245.5,-245.5 289.5,-245.5 "/>
<text text-anchor="middle" x="267.5" y="-233.5" font-family="Helvetica,sans-Serif" font-size="10.00"> </text>
</a>
</g>
</g>
<!-- Node4&#45;&gt;Node1 -->
<g id="edge3" class="edge">
<title>Node4&#45;&gt;Node1</title>
<path fill="none" stroke="#404040" d="M265.06,-226.36C263.85,-205.95 263.4,-177.56 267.5,-153 267.84,-150.95 268.23,-148.88 268.65,-146.8"/>
<polygon fill="none" stroke="#404040" points="268.72,-146.54 266.19,-139.78 271.46,-134.85 273.98,-141.61 268.72,-146.54"/>
<text text-anchor="middle" x="286.5" y="-156" font-family="Helvetica,sans-Serif" font-size="10.00"> &#45;_clock</text>
</g>
<!-- Node5 -->
<g id="node5" class="node">
<title>Node5</title>
<g id="a_node5"><a xlink:title=" ">
<polygon fill="white" stroke="#bfbfbf" points="308.5,-226.5 308.5,-283.5 346.5,-283.5 346.5,-226.5 308.5,-226.5"/>
<text text-anchor="middle" x="327.5" y="-271.5" font-family="Helvetica,sans-Serif" font-size="10.00">Font</text>
<polyline fill="none" stroke="#bfbfbf" points="308.5,-264.5 346.5,-264.5 "/>
<text text-anchor="middle" x="327.5" y="-252.5" font-family="Helvetica,sans-Serif" font-size="10.00"> </text>
<polyline fill="none" stroke="#bfbfbf" points="308.5,-245.5 346.5,-245.5 "/>
<text text-anchor="middle" x="327.5" y="-233.5" font-family="Helvetica,sans-Serif" font-size="10.00"> </text>
</a>
</g>
</g>
<!-- Node5&#45;&gt;Node1 -->
<g id="edge4" class="edge">
<title>Node5&#45;&gt;Node1</title>
<path fill="none" stroke="#404040" d="M322.86,-226.23C319.33,-205.09 314.28,-174.91 309.55,-146.59"/>
<polygon fill="none" stroke="#404040" points="309.53,-146.44 304.59,-141.18 307.55,-134.61 312.48,-139.86 309.53,-146.44"/>
<text text-anchor="middle" x="327.5" y="-156" font-family="Helvetica,sans-Serif" font-size="10.00"> &#45;_font</text>
</g>
<!-- Node6 -->
<g id="node6" class="node">
<title>Node6</title>
<g id="a_node6"><a xlink:title=" ">
<polygon fill="white" stroke="#bfbfbf" points="365,-226.5 365,-283.5 430,-283.5 430,-226.5 365,-226.5"/>
<text text-anchor="middle" x="397.5" y="-271.5" font-family="Helvetica,sans-Serif" font-size="10.00">std::string</text>
<polyline fill="none" stroke="#bfbfbf" points="365,-264.5 430,-264.5 "/>
<text text-anchor="middle" x="397.5" y="-252.5" font-family="Helvetica,sans-Serif" font-size="10.00"> </text>
<polyline fill="none" stroke="#bfbfbf" points="365,-245.5 430,-245.5 "/>
<text text-anchor="middle" x="397.5" y="-233.5" font-family="Helvetica,sans-Serif" font-size="10.00"> </text>
</a>
</g>
</g>
<!-- Node6&#45;&gt;Node1 -->
<g id="edge5" class="edge">
<title>Node6&#45;&gt;Node1</title>
<path fill="none" stroke="#404040" d="M384.53,-226.25C374.78,-205.77 360.85,-177.36 347.5,-153 346.11,-150.46 344.68,-147.9 343.23,-145.31"/>
<polygon fill="none" stroke="#404040" points="343.07,-145.04 336.62,-141.81 337.12,-134.62 343.57,-137.84 343.07,-145.04"/>
<text text-anchor="middle" x="381" y="-156" font-family="Helvetica,sans-Serif" font-size="10.00"> &#45;_message</text>
</g>
<!-- Node7 -->
<g id="node7" class="node">
<title>Node7</title>
<g id="a_node7"><a xlink:title=" ">
<polygon fill="white" stroke="#bfbfbf" points="345.5,-365.5 345.5,-433.5 449.5,-433.5 449.5,-365.5 345.5,-365.5"/>
<text text-anchor="start" x="353.5" y="-421.5" font-family="Helvetica,sans-Serif" font-size="10.00">std::basic_string&lt;</text>
<text text-anchor="middle" x="397.5" y="-410.5" font-family="Helvetica,sans-Serif" font-size="10.00"> Char &gt;</text>
<polyline fill="none" stroke="#bfbfbf" points="345.5,-403.5 449.5,-403.5 "/>
<text text-anchor="middle" x="397.5" y="-391.5" font-family="Helvetica,sans-Serif" font-size="10.00"> </text>
<polyline fill="none" stroke="#bfbfbf" points="345.5,-384.5 449.5,-384.5 "/>
<text text-anchor="middle" x="397.5" y="-372.5" font-family="Helvetica,sans-Serif" font-size="10.00"> </text>
</a>
</g>
</g>
<!-- Node7&#45;&gt;Node6 -->
<g id="edge6" class="edge">
<title>Node7&#45;&gt;Node6</title>
<path fill="none" stroke="midnightblue" d="M397.5,-355.14C397.5,-331.87 397.5,-303.89 397.5,-283.6"/>
<polygon fill="none" stroke="midnightblue" points="394,-355.45 397.5,-365.45 401,-355.45 394,-355.45"/>
</g>
<!-- Node8 -->
<g id="node8" class="node">
<title>Node8</title>
<g id="a_node8"><a xlink:href="$a01309.html" xlink:title="Logger singleton.">
<polygon fill="white" stroke="black" points="448.5,-182.5 448.5,-327.5 584.5,-327.5 584.5,-182.5 448.5,-182.5"/>
<text text-anchor="middle" x="516.5" y="-315.5" font-family="Helvetica,sans-Serif" font-size="10.00">RayTracer::ILogger</text>
<polyline fill="none" stroke="black" points="448.5,-308.5 584.5,-308.5 "/>
<text text-anchor="middle" x="516.5" y="-296.5" font-family="Helvetica,sans-Serif" font-size="10.00"> </text>
<polyline fill="none" stroke="black" points="448.5,-289.5 584.5,-289.5 "/>
<text text-anchor="start" x="456.5" y="-277.5" font-family="Helvetica,sans-Serif" font-size="10.00">+ ~ILogger()</text>
<text text-anchor="start" x="456.5" y="-266.5" font-family="Helvetica,sans-Serif" font-size="10.00">+ fatal()</text>
<text text-anchor="start" x="456.5" y="-255.5" font-family="Helvetica,sans-Serif" font-size="10.00">+ error()</text>
<text text-anchor="start" x="456.5" y="-244.5" font-family="Helvetica,sans-Serif" font-size="10.00">+ warn()</text>
<text text-anchor="start" x="456.5" y="-233.5" font-family="Helvetica,sans-Serif" font-size="10.00">+ info()</text>
<text text-anchor="start" x="456.5" y="-222.5" font-family="Helvetica,sans-Serif" font-size="10.00">+ debug()</text>
<text text-anchor="start" x="456.5" y="-211.5" font-family="Helvetica,sans-Serif" font-size="10.00">+ trace()</text>
<text text-anchor="start" x="456.5" y="-200.5" font-family="Helvetica,sans-Serif" font-size="10.00">+ subscribeCallback()</text>
<text text-anchor="start" x="456.5" y="-189.5" font-family="Helvetica,sans-Serif" font-size="10.00">+ unsubscribeCallback()</text>
</a>
</g>
</g>
<!-- Node8&#45;&gt;Node1 -->
<g id="edge7" class="edge">
<title>Node8&#45;&gt;Node1</title>
<path fill="none" stroke="#404040" d="M448.31,-184.35C436.94,-173.56 425.08,-162.77 413.5,-153 397.65,-139.63 379.82,-126.08 362.94,-113.85"/>
<polygon fill="none" stroke="#404040" points="362.89,-113.82 355.69,-113.57 353.14,-106.82 360.35,-107.07 362.89,-113.82"/>
<text text-anchor="middle" x="446" y="-156" font-family="Helvetica,sans-Serif" font-size="10.00"> &#45;_logger</text>
</g>
</g>
</svg>
