<?xml version="1.0" encoding="UTF-8" standalone="no"?>
<!DOCTYPE svg PUBLIC "-//W3C//DTD SVG 1.1//EN"
 "http://www.w3.org/Graphics/SVG/1.1/DTD/svg11.dtd">
<!-- Generated by graphviz version 2.43.0 (0)
 -->
<!-- Title: RayTracer::Factories::MaterialFactory Pages: 1 -->
<svg width="340pt" height="502pt"
 viewBox="0.00 0.00 340.00 502.00" xmlns="http://www.w3.org/2000/svg" xmlns:xlink="http://www.w3.org/1999/xlink">
<g id="graph0" class="graph" transform="scale(1 1) rotate(0) translate(4 498)">
<title>RayTracer::Factories::MaterialFactory</title>
<polygon fill="white" stroke="transparent" points="-4,4 -4,-498 336,-498 336,4 -4,4"/>
<!-- Node1 -->
<g id="node1" class="node">
<title>Node1</title>
<g id="a_node1"><a xlink:title="The MaterialFactory (singleton factory)">
<polygon fill="#bfbfbf" stroke="black" points="17.5,-0.5 17.5,-145.5 136.5,-145.5 136.5,-0.5 17.5,-0.5"/>
<text text-anchor="start" x="25.5" y="-133.5" font-family="Helvetica,sans-Serif" font-size="10.00">RayTracer::Factories</text>
<text text-anchor="middle" x="77" y="-122.5" font-family="Helvetica,sans-Serif" font-size="10.00">::MaterialFactory</text>
<polyline fill="none" stroke="black" points="17.5,-115.5 136.5,-115.5 "/>
<text text-anchor="middle" x="77" y="-103.5" font-family="Helvetica,sans-Serif" font-size="10.00"> </text>
<polyline fill="none" stroke="black" points="17.5,-96.5 136.5,-96.5 "/>
<text text-anchor="start" x="25.5" y="-84.5" font-family="Helvetica,sans-Serif" font-size="10.00">+ MaterialFactory()</text>
<text text-anchor="start" x="25.5" y="-73.5" font-family="Helvetica,sans-Serif" font-size="10.00">+ ~MaterialFactory()</text>
<text text-anchor="start" x="25.5" y="-62.5" font-family="Helvetica,sans-Serif" font-size="10.00">+ add()</text>
<text text-anchor="start" x="25.5" y="-51.5" font-family="Helvetica,sans-Serif" font-size="10.00">+ get()</text>
<text text-anchor="start" x="25.5" y="-40.5" font-family="Helvetica,sans-Serif" font-size="10.00">+ clearAll()</text>
<text text-anchor="start" x="25.5" y="-29.5" font-family="Helvetica,sans-Serif" font-size="10.00">+ getInstance()</text>
<text text-anchor="start" x="25.5" y="-18.5" font-family="Helvetica,sans-Serif" font-size="10.00"># MaterialFactory()</text>
<text text-anchor="start" x="25.5" y="-7.5" font-family="Helvetica,sans-Serif" font-size="10.00"># getFactory()</text>
</a>
</g>
</g>
<!-- Node2 -->
<g id="node2" class="node">
<title>Node2</title>
<g id="a_node2"><a xlink:href="$a01223.html" xlink:title=" ">
<polygon fill="white" stroke="black" points="0,-193.5 0,-272.5 122,-272.5 122,-193.5 0,-193.5"/>
<text text-anchor="start" x="8" y="-260.5" font-family="Helvetica,sans-Serif" font-size="10.00">RayTracer::Factories</text>
<text text-anchor="middle" x="61" y="-249.5" font-family="Helvetica,sans-Serif" font-size="10.00">::IMaterialFactory</text>
<polyline fill="none" stroke="black" points="0,-242.5 122,-242.5 "/>
<text text-anchor="middle" x="61" y="-230.5" font-family="Helvetica,sans-Serif" font-size="10.00"> </text>
<polyline fill="none" stroke="black" points="0,-223.5 122,-223.5 "/>
<text text-anchor="start" x="8" y="-211.5" font-family="Helvetica,sans-Serif" font-size="10.00">+ ~IMaterialFactory()</text>
<text text-anchor="start" x="8" y="-200.5" font-family="Helvetica,sans-Serif" font-size="10.00">+ get()</text>
</a>
</g>
</g>
<!-- Node2&#45;&gt;Node1 -->
<g id="edge1" class="edge">
<title>Node2&#45;&gt;Node1</title>
<path fill="none" stroke="midnightblue" d="M65.94,-183.19C67.15,-171.28 68.46,-158.29 69.75,-145.57"/>
<polygon fill="none" stroke="midnightblue" points="62.44,-183.05 64.91,-193.35 69.4,-183.75 62.44,-183.05"/>
</g>
<!-- Node3 -->
<g id="node3" class="node">
<title>Node3</title>
<g id="a_node3"><a xlink:title=" ">
<polygon fill="white" stroke="#bfbfbf" points="140.5,-199 140.5,-267 299.5,-267 299.5,-199 140.5,-199"/>
<text text-anchor="start" x="148.5" y="-255" font-family="Helvetica,sans-Serif" font-size="10.00">std::unique_ptr&lt; RayTracer</text>
<text text-anchor="middle" x="220" y="-244" font-family="Helvetica,sans-Serif" font-size="10.00">::Factories::MaterialFactory &gt;</text>
<polyline fill="none" stroke="#bfbfbf" points="140.5,-237 299.5,-237 "/>
<text text-anchor="start" x="148.5" y="-225" font-family="Helvetica,sans-Serif" font-size="10.00">+ ptr</text>
<polyline fill="none" stroke="#bfbfbf" points="140.5,-218 299.5,-218 "/>
<text text-anchor="start" x="148.5" y="-206" font-family="Helvetica,sans-Serif" font-size="10.00">+ operator&#45;&gt;()</text>
</a>
</g>
</g>
<!-- Node3&#45;&gt;Node1 -->
<g id="edge2" class="edge">
<title>Node3&#45;&gt;Node1</title>
<path fill="none" stroke="#404040" d="M190.02,-198.88C176.84,-184.31 160.78,-166.57 144.95,-149.08"/>
<polygon fill="none" stroke="#404040" points="144.76,-148.87 137.77,-147.1 136.71,-139.97 143.7,-141.74 144.76,-148.87"/>
<text text-anchor="middle" x="191" y="-167" font-family="Helvetica,sans-Serif" font-size="10.00"> #_factory</text>
</g>
<!-- Node4 -->
<g id="node4" class="node">
<title>Node4</title>
<g id="a_node4"><a xlink:title=" ">
<polygon fill="white" stroke="#bfbfbf" points="161,-331.5 161,-388.5 279,-388.5 279,-331.5 161,-331.5"/>
<text text-anchor="middle" x="220" y="-376.5" font-family="Helvetica,sans-Serif" font-size="10.00">std::unique_ptr&lt; T &gt;</text>
<polyline fill="none" stroke="#bfbfbf" points="161,-369.5 279,-369.5 "/>
<text text-anchor="middle" x="220" y="-357.5" font-family="Helvetica,sans-Serif" font-size="10.00"> </text>
<polyline fill="none" stroke="#bfbfbf" points="161,-350.5 279,-350.5 "/>
<text text-anchor="start" x="169" y="-338.5" font-family="Helvetica,sans-Serif" font-size="10.00">+ operator&#45;&gt;()</text>
</a>
</g>
</g>
<!-- Node4&#45;&gt;Node3 -->
<g id="edge3" class="edge">
<title>Node4&#45;&gt;Node3</title>
<path fill="none" stroke="orange" d="M220,-321.05C220,-303.96 220,-283.96 220,-267.44"/>
<polygon fill="orange" stroke="orange" points="216.5,-321.26 220,-331.26 223.5,-321.26 216.5,-321.26"/>
<text text-anchor="start" x="220" y="-305" font-family="Helvetica,sans-Serif" font-size="10.00"> &lt; RayTracer::Factories</text>
<text text-anchor="middle" x="276" y="-294" font-family="Helvetica,sans-Serif" font-size="10.00">::MaterialFactory &gt;</text>
</g>
<!-- Node5 -->
<g id="node5" class="node">
<title>Node5</title>
<g id="a_node5"><a xlink:title=" ">
<polygon fill="white" stroke="#bfbfbf" points="205.5,-436.5 205.5,-493.5 234.5,-493.5 234.5,-436.5 205.5,-436.5"/>
<text text-anchor="middle" x="220" y="-481.5" font-family="Helvetica,sans-Serif" font-size="10.00">T</text>
<polyline fill="none" stroke="#bfbfbf" points="205.5,-474.5 234.5,-474.5 "/>
<text text-anchor="middle" x="220" y="-462.5" font-family="Helvetica,sans-Serif" font-size="10.00"> </text>
<polyline fill="none" stroke="#bfbfbf" points="205.5,-455.5 234.5,-455.5 "/>
<text text-anchor="middle" x="220" y="-443.5" font-family="Helvetica,sans-Serif" font-size="10.00"> </text>
</a>
</g>
</g>
<!-- Node5&#45;&gt;Node4 -->
<g id="edge4" class="edge">
<title>Node5&#45;&gt;Node4</title>
<path fill="none" stroke="#404040" d="M220,-436.4C220,-425.55 220,-412.87 220,-401.05"/>
<polygon fill="none" stroke="#404040" points="220,-400.68 216,-394.68 220,-388.68 224,-394.68 220,-400.68"/>
<text text-anchor="middle" x="232.5" y="-410" font-family="Helvetica,sans-Serif" font-size="10.00"> +ptr</text>
</g>
</g>
</svg>
