<?xml version="1.0" encoding="UTF-8" standalone="no"?>
<!DOCTYPE svg PUBLIC "-//W3C//DTD SVG 1.1//EN"
 "http://www.w3.org/Graphics/SVG/1.1/DTD/svg11.dtd">
<!-- Generated by graphviz version 2.43.0 (0)
 -->
<!-- Title: RayTracer::Images::Image::PixelLine Pages: 1 -->
<svg width="435pt" height="788pt"
 viewBox="0.00 0.00 434.50 788.00" xmlns="http://www.w3.org/2000/svg" xmlns:xlink="http://www.w3.org/1999/xlink">
<g id="graph0" class="graph" transform="scale(1 1) rotate(0) translate(4 784)">
<title>RayTracer::Images::Image::PixelLine</title>
<polygon fill="white" stroke="transparent" points="-4,4 -4,-784 430.5,-784 430.5,4 -4,4"/>
<!-- Node1 -->
<g id="node1" class="node">
<title>Node1</title>
<g id="a_node1"><a xlink:title="PixelLine class.">
<polygon fill="#bfbfbf" stroke="black" points="65,-0.5 65,-101.5 178,-101.5 178,-0.5 65,-0.5"/>
<text text-anchor="start" x="73" y="-89.5" font-family="Helvetica,sans-Serif" font-size="10.00">RayTracer::Images::</text>
<text text-anchor="middle" x="121.5" y="-78.5" font-family="Helvetica,sans-Serif" font-size="10.00">Image::PixelLine</text>
<polyline fill="none" stroke="black" points="65,-71.5 178,-71.5 "/>
<text text-anchor="middle" x="121.5" y="-59.5" font-family="Helvetica,sans-Serif" font-size="10.00"> </text>
<polyline fill="none" stroke="black" points="65,-52.5 178,-52.5 "/>
<text text-anchor="start" x="73" y="-40.5" font-family="Helvetica,sans-Serif" font-size="10.00">+ PixelLine()</text>
<text text-anchor="start" x="73" y="-29.5" font-family="Helvetica,sans-Serif" font-size="10.00">+ PixelLine()</text>
<text text-anchor="start" x="73" y="-18.5" font-family="Helvetica,sans-Serif" font-size="10.00">+ operator[]()</text>
<text text-anchor="start" x="73" y="-7.5" font-family="Helvetica,sans-Serif" font-size="10.00">+ operator[]()</text>
</a>
</g>
</g>
<!-- Node2 -->
<g id="node2" class="node">
<title>Node2</title>
<g id="a_node2"><a xlink:title=" ">
<polygon fill="white" stroke="#bfbfbf" points="0,-237.5 0,-294.5 45,-294.5 45,-237.5 0,-237.5"/>
<text text-anchor="middle" x="22.5" y="-282.5" font-family="Helvetica,sans-Serif" font-size="10.00">size_t</text>
<polyline fill="none" stroke="#bfbfbf" points="0,-275.5 45,-275.5 "/>
<text text-anchor="middle" x="22.5" y="-263.5" font-family="Helvetica,sans-Serif" font-size="10.00"> </text>
<polyline fill="none" stroke="#bfbfbf" points="0,-256.5 45,-256.5 "/>
<text text-anchor="middle" x="22.5" y="-244.5" font-family="Helvetica,sans-Serif" font-size="10.00"> </text>
</a>
</g>
</g>
<!-- Node2&#45;&gt;Node1 -->
<g id="edge1" class="edge">
<title>Node2&#45;&gt;Node1</title>
<path fill="none" stroke="#404040" d="M30.04,-237.31C35.6,-218.29 43.86,-192.66 53.5,-171 62.28,-151.28 73.37,-130.6 84.04,-112.11"/>
<polygon fill="none" stroke="#404040" points="84.19,-111.86 83.76,-104.66 90.25,-101.5 90.67,-108.7 84.19,-111.86"/>
<text text-anchor="middle" x="89" y="-134" font-family="Helvetica,sans-Serif" font-size="10.00"> &#45;_y</text>
</g>
<!-- Node3 -->
<g id="node3" class="node">
<title>Node3</title>
<g id="a_node3"><a xlink:href="$a01199.html" xlink:title="The Vector2i class.">
<polygon fill="white" stroke="black" points="63,-171.5 63,-360.5 180,-360.5 180,-171.5 63,-171.5"/>
<text text-anchor="start" x="71" y="-348.5" font-family="Helvetica,sans-Serif" font-size="10.00">RayTracer::Entities</text>
<text text-anchor="middle" x="121.5" y="-337.5" font-family="Helvetica,sans-Serif" font-size="10.00">::Transform::Vector2i</text>
<polyline fill="none" stroke="black" points="63,-330.5 180,-330.5 "/>
<text text-anchor="middle" x="121.5" y="-318.5" font-family="Helvetica,sans-Serif" font-size="10.00"> </text>
<polyline fill="none" stroke="black" points="63,-311.5 180,-311.5 "/>
<text text-anchor="start" x="71" y="-299.5" font-family="Helvetica,sans-Serif" font-size="10.00">+ ~Vector2i()</text>
<text text-anchor="start" x="71" y="-288.5" font-family="Helvetica,sans-Serif" font-size="10.00">+ Vector2i()</text>
<text text-anchor="start" x="71" y="-277.5" font-family="Helvetica,sans-Serif" font-size="10.00">+ Vector2i()</text>
<text text-anchor="start" x="71" y="-266.5" font-family="Helvetica,sans-Serif" font-size="10.00">+ Vector2i()</text>
<text text-anchor="start" x="71" y="-255.5" font-family="Helvetica,sans-Serif" font-size="10.00">+ Vector2i()</text>
<text text-anchor="start" x="71" y="-244.5" font-family="Helvetica,sans-Serif" font-size="10.00">+ operator+()</text>
<text text-anchor="start" x="71" y="-233.5" font-family="Helvetica,sans-Serif" font-size="10.00">+ operator&#45;()</text>
<text text-anchor="start" x="71" y="-222.5" font-family="Helvetica,sans-Serif" font-size="10.00">+ operator*()</text>
<text text-anchor="start" x="71" y="-211.5" font-family="Helvetica,sans-Serif" font-size="10.00">+ operator/()</text>
<text text-anchor="start" x="71" y="-200.5" font-family="Helvetica,sans-Serif" font-size="10.00">+ operator=()</text>
<text text-anchor="start" x="71" y="-189.5" font-family="Helvetica,sans-Serif" font-size="10.00">+ getX()</text>
<text text-anchor="start" x="71" y="-178.5" font-family="Helvetica,sans-Serif" font-size="10.00">+ getY()</text>
</a>
</g>
</g>
<!-- Node3&#45;&gt;Node1 -->
<g id="edge2" class="edge">
<title>Node3&#45;&gt;Node1</title>
<path fill="none" stroke="#404040" d="M121.5,-171.27C121.5,-151.77 121.5,-131.69 121.5,-113.7"/>
<polygon fill="none" stroke="#404040" points="121.5,-113.61 117.5,-107.61 121.5,-101.61 125.5,-107.61 121.5,-113.61"/>
<text text-anchor="middle" x="137.5" y="-134" font-family="Helvetica,sans-Serif" font-size="10.00"> &#45;_size</text>
</g>
<!-- Node4 -->
<g id="node4" class="node">
<title>Node4</title>
<g id="a_node4"><a xlink:title=" ">
<polygon fill="white" stroke="#bfbfbf" points="107,-502 107,-559 136,-559 136,-502 107,-502"/>
<text text-anchor="middle" x="121.5" y="-547" font-family="Helvetica,sans-Serif" font-size="10.00">int</text>
<polyline fill="none" stroke="#bfbfbf" points="107,-540 136,-540 "/>
<text text-anchor="middle" x="121.5" y="-528" font-family="Helvetica,sans-Serif" font-size="10.00"> </text>
<polyline fill="none" stroke="#bfbfbf" points="107,-521 136,-521 "/>
<text text-anchor="middle" x="121.5" y="-509" font-family="Helvetica,sans-Serif" font-size="10.00"> </text>
</a>
</g>
</g>
<!-- Node4&#45;&gt;Node3 -->
<g id="edge3" class="edge">
<title>Node4&#45;&gt;Node3</title>
<path fill="none" stroke="#404040" d="M121.5,-501.9C121.5,-471.21 121.5,-419.74 121.5,-372.8"/>
<polygon fill="none" stroke="#404040" points="121.5,-372.65 117.5,-366.65 121.5,-360.65 125.5,-366.65 121.5,-372.65"/>
<text text-anchor="middle" x="131" y="-393" font-family="Helvetica,sans-Serif" font-size="10.00"> &#45;_x</text>
<text text-anchor="middle" x="131" y="-382" font-family="Helvetica,sans-Serif" font-size="10.00">&#45;_y</text>
</g>
<!-- Node5 -->
<g id="node5" class="node">
<title>Node5</title>
<g id="a_node5"><a xlink:title=" ">
<polygon fill="white" stroke="#bfbfbf" points="198.5,-232 198.5,-300 326.5,-300 326.5,-232 198.5,-232"/>
<text text-anchor="start" x="206.5" y="-288" font-family="Helvetica,sans-Serif" font-size="10.00">std::vector&lt; RayTracer</text>
<text text-anchor="middle" x="262.5" y="-277" font-family="Helvetica,sans-Serif" font-size="10.00">::Images::Color &gt;</text>
<polyline fill="none" stroke="#bfbfbf" points="198.5,-270 326.5,-270 "/>
<text text-anchor="middle" x="262.5" y="-258" font-family="Helvetica,sans-Serif" font-size="10.00"> </text>
<polyline fill="none" stroke="#bfbfbf" points="198.5,-251 326.5,-251 "/>
<text text-anchor="middle" x="262.5" y="-239" font-family="Helvetica,sans-Serif" font-size="10.00"> </text>
</a>
</g>
</g>
<!-- Node5&#45;&gt;Node1 -->
<g id="edge4" class="edge">
<title>Node5&#45;&gt;Node1</title>
<path fill="none" stroke="#404040" d="M240.47,-231.72C219.28,-199.71 186.77,-150.6 161.09,-111.81"/>
<polygon fill="none" stroke="#404040" points="161,-111.68 154.36,-108.88 154.38,-101.67 161.03,-104.47 161,-111.68"/>
<text text-anchor="middle" x="221.5" y="-145" font-family="Helvetica,sans-Serif" font-size="10.00"> &#45;_colors</text>
<text text-anchor="middle" x="221.5" y="-134" font-family="Helvetica,sans-Serif" font-size="10.00">&#45;_pixels</text>
<text text-anchor="middle" x="221.5" y="-123" font-family="Helvetica,sans-Serif" font-size="10.00">&#45;_pixelsConst</text>
</g>
<!-- Node6 -->
<g id="node6" class="node">
<title>Node6</title>
<g id="a_node6"><a xlink:href="$a01243.html" xlink:title="The Color class.">
<polygon fill="white" stroke="black" points="180,-419.5 180,-641.5 293,-641.5 293,-419.5 180,-419.5"/>
<text text-anchor="start" x="188" y="-629.5" font-family="Helvetica,sans-Serif" font-size="10.00">RayTracer::Images::</text>
<text text-anchor="middle" x="236.5" y="-618.5" font-family="Helvetica,sans-Serif" font-size="10.00">Color</text>
<polyline fill="none" stroke="black" points="180,-611.5 293,-611.5 "/>
<text text-anchor="middle" x="236.5" y="-599.5" font-family="Helvetica,sans-Serif" font-size="10.00"> </text>
<polyline fill="none" stroke="black" points="180,-592.5 293,-592.5 "/>
<text text-anchor="start" x="188" y="-580.5" font-family="Helvetica,sans-Serif" font-size="10.00">+ ~Color()</text>
<text text-anchor="start" x="188" y="-569.5" font-family="Helvetica,sans-Serif" font-size="10.00">+ Color()</text>
<text text-anchor="start" x="188" y="-558.5" font-family="Helvetica,sans-Serif" font-size="10.00">+ Color()</text>
<text text-anchor="start" x="188" y="-547.5" font-family="Helvetica,sans-Serif" font-size="10.00">+ Color()</text>
<text text-anchor="start" x="188" y="-536.5" font-family="Helvetica,sans-Serif" font-size="10.00">+ operator+()</text>
<text text-anchor="start" x="188" y="-525.5" font-family="Helvetica,sans-Serif" font-size="10.00">+ operator&#45;()</text>
<text text-anchor="start" x="188" y="-514.5" font-family="Helvetica,sans-Serif" font-size="10.00">+ operator*()</text>
<text text-anchor="start" x="188" y="-503.5" font-family="Helvetica,sans-Serif" font-size="10.00">+ operator/()</text>
<text text-anchor="start" x="188" y="-492.5" font-family="Helvetica,sans-Serif" font-size="10.00">+ operator=()</text>
<text text-anchor="start" x="188" y="-481.5" font-family="Helvetica,sans-Serif" font-size="10.00">+ operator[]()</text>
<text text-anchor="start" x="188" y="-470.5" font-family="Helvetica,sans-Serif" font-size="10.00">+ operator[]()</text>
<text text-anchor="start" x="188" y="-459.5" font-family="Helvetica,sans-Serif" font-size="10.00">+ set()</text>
<text text-anchor="start" x="188" y="-448.5" font-family="Helvetica,sans-Serif" font-size="10.00">+ applyAlpha()</text>
<text text-anchor="start" x="188" y="-437.5" font-family="Helvetica,sans-Serif" font-size="10.00">+ mergeColor()</text>
<text text-anchor="start" x="188" y="-426.5" font-family="Helvetica,sans-Serif" font-size="10.00">+ applyDistance()</text>
</a>
</g>
</g>
<!-- Node6&#45;&gt;Node5 -->
<g id="edge5" class="edge">
<title>Node6&#45;&gt;Node5</title>
<path fill="none" stroke="#404040" d="M247.41,-419.32C251.13,-381.75 255.09,-341.82 258.02,-312.27"/>
<polygon fill="none" stroke="#404040" points="258.02,-312.22 254.63,-305.86 259.2,-300.28 262.59,-306.65 258.02,-312.22"/>
<text text-anchor="middle" x="280.5" y="-387.5" font-family="Helvetica,sans-Serif" font-size="10.00"> +elements</text>
</g>
<!-- Node7 -->
<g id="node7" class="node">
<title>Node7</title>
<g id="a_node7"><a xlink:title=" ">
<polygon fill="white" stroke="#bfbfbf" points="161.5,-722.5 161.5,-779.5 211.5,-779.5 211.5,-722.5 161.5,-722.5"/>
<text text-anchor="middle" x="186.5" y="-767.5" font-family="Helvetica,sans-Serif" font-size="10.00">double</text>
<polyline fill="none" stroke="#bfbfbf" points="161.5,-760.5 211.5,-760.5 "/>
<text text-anchor="middle" x="186.5" y="-748.5" font-family="Helvetica,sans-Serif" font-size="10.00"> </text>
<polyline fill="none" stroke="#bfbfbf" points="161.5,-741.5 211.5,-741.5 "/>
<text text-anchor="middle" x="186.5" y="-729.5" font-family="Helvetica,sans-Serif" font-size="10.00"> </text>
</a>
</g>
</g>
<!-- Node7&#45;&gt;Node6 -->
<g id="edge6" class="edge">
<title>Node7&#45;&gt;Node6</title>
<path fill="none" stroke="#404040" d="M192.83,-722.33C196.96,-704.3 202.66,-679.39 208.58,-653.52"/>
<polygon fill="none" stroke="#404040" points="208.63,-653.28 206.07,-646.54 211.31,-641.58 213.87,-648.32 208.63,-653.28"/>
<text text-anchor="middle" x="217" y="-696" font-family="Helvetica,sans-Serif" font-size="10.00"> &#45;_a</text>
<text text-anchor="middle" x="217" y="-685" font-family="Helvetica,sans-Serif" font-size="10.00">&#45;_b</text>
<text text-anchor="middle" x="217" y="-674" font-family="Helvetica,sans-Serif" font-size="10.00">&#45;_g</text>
<text text-anchor="middle" x="217" y="-663" font-family="Helvetica,sans-Serif" font-size="10.00">&#45;_r</text>
</g>
<!-- Node8 -->
<g id="node8" class="node">
<title>Node8</title>
<g id="a_node8"><a xlink:title=" ">
<polygon fill="white" stroke="#bfbfbf" points="230,-722.5 230,-779.5 299,-779.5 299,-722.5 230,-722.5"/>
<text text-anchor="middle" x="264.5" y="-767.5" font-family="Helvetica,sans-Serif" font-size="10.00">std::mutex</text>
<polyline fill="none" stroke="#bfbfbf" points="230,-760.5 299,-760.5 "/>
<text text-anchor="middle" x="264.5" y="-748.5" font-family="Helvetica,sans-Serif" font-size="10.00"> </text>
<polyline fill="none" stroke="#bfbfbf" points="230,-741.5 299,-741.5 "/>
<text text-anchor="middle" x="264.5" y="-729.5" font-family="Helvetica,sans-Serif" font-size="10.00"> </text>
</a>
</g>
</g>
<!-- Node8&#45;&gt;Node6 -->
<g id="edge7" class="edge">
<title>Node8&#45;&gt;Node6</title>
<path fill="none" stroke="#404040" d="M260.95,-722.33C258.64,-704.3 255.45,-679.39 252.14,-653.52"/>
<polygon fill="none" stroke="#404040" points="252.13,-653.49 247.4,-648.04 250.61,-641.58 255.34,-647.03 252.13,-653.49"/>
<text text-anchor="middle" x="280.5" y="-679.5" font-family="Helvetica,sans-Serif" font-size="10.00"> &#45;_mutex</text>
</g>
<!-- Node9 -->
<g id="node9" class="node">
<title>Node9</title>
<g id="a_node9"><a xlink:title=" ">
<polygon fill="white" stroke="#bfbfbf" points="311,-502 311,-559 408,-559 408,-502 311,-502"/>
<text text-anchor="middle" x="359.5" y="-547" font-family="Helvetica,sans-Serif" font-size="10.00">std::vector&lt; T &gt;</text>
<polyline fill="none" stroke="#bfbfbf" points="311,-540 408,-540 "/>
<text text-anchor="middle" x="359.5" y="-528" font-family="Helvetica,sans-Serif" font-size="10.00"> </text>
<polyline fill="none" stroke="#bfbfbf" points="311,-521 408,-521 "/>
<text text-anchor="middle" x="359.5" y="-509" font-family="Helvetica,sans-Serif" font-size="10.00"> </text>
</a>
</g>
</g>
<!-- Node9&#45;&gt;Node5 -->
<g id="edge8" class="edge">
<title>Node9&#45;&gt;Node5</title>
<path fill="none" stroke="orange" d="M349.53,-492.09C341,-461.35 327.84,-416.88 313.5,-379 303.29,-352.03 289.66,-322.35 279.06,-300.33"/>
<polygon fill="orange" stroke="orange" points="346.22,-493.24 352.25,-501.95 352.97,-491.38 346.22,-493.24"/>
<text text-anchor="start" x="321.5" y="-393" font-family="Helvetica,sans-Serif" font-size="10.00"> &lt; RayTracer::Images</text>
<text text-anchor="middle" x="374" y="-382" font-family="Helvetica,sans-Serif" font-size="10.00">::Color &gt;</text>
</g>
<!-- Node10 -->
<g id="node10" class="node">
<title>Node10</title>
<g id="a_node10"><a xlink:title=" ">
<polygon fill="white" stroke="#bfbfbf" points="345,-722.5 345,-779.5 374,-779.5 374,-722.5 345,-722.5"/>
<text text-anchor="middle" x="359.5" y="-767.5" font-family="Helvetica,sans-Serif" font-size="10.00">T</text>
<polyline fill="none" stroke="#bfbfbf" points="345,-760.5 374,-760.5 "/>
<text text-anchor="middle" x="359.5" y="-748.5" font-family="Helvetica,sans-Serif" font-size="10.00"> </text>
<polyline fill="none" stroke="#bfbfbf" points="345,-741.5 374,-741.5 "/>
<text text-anchor="middle" x="359.5" y="-729.5" font-family="Helvetica,sans-Serif" font-size="10.00"> </text>
</a>
</g>
</g>
<!-- Node10&#45;&gt;Node9 -->
<g id="edge9" class="edge">
<title>Node10&#45;&gt;Node9</title>
<path fill="none" stroke="#404040" d="M359.5,-722.33C359.5,-684.18 359.5,-615.2 359.5,-571.45"/>
<polygon fill="none" stroke="#404040" points="359.5,-571.29 355.5,-565.29 359.5,-559.29 363.5,-565.29 359.5,-571.29"/>
<text text-anchor="middle" x="388.5" y="-679.5" font-family="Helvetica,sans-Serif" font-size="10.00"> +elements</text>
</g>
</g>
</svg>
