<?xml version="1.0" encoding="UTF-8" standalone="no"?>
<!DOCTYPE svg PUBLIC "-//W3C//DTD SVG 1.1//EN"
 "http://www.w3.org/Graphics/SVG/1.1/DTD/svg11.dtd">
<!-- Generated by graphviz version 2.43.0 (0)
 -->
<!-- Title: RayTracer::Entities::Transform::Transform Pages: 1 -->
<svg width="274pt" height="683pt"
 viewBox="0.00 0.00 273.50 683.00" xmlns="http://www.w3.org/2000/svg" xmlns:xlink="http://www.w3.org/1999/xlink">
<g id="graph0" class="graph" transform="scale(1 1) rotate(0) translate(4 679)">
<title>RayTracer::Entities::Transform::Transform</title>
<polygon fill="white" stroke="transparent" points="-4,4 -4,-679 269.5,-679 269.5,4 -4,4"/>
<!-- Node1 -->
<g id="node1" class="node">
<title>Node1</title>
<g id="a_node1"><a xlink:title="The Transform class.">
<polygon fill="#bfbfbf" stroke="black" points="17.5,-0.5 17.5,-145.5 143.5,-145.5 143.5,-0.5 17.5,-0.5"/>
<text text-anchor="start" x="25.5" y="-133.5" font-family="Helvetica,sans-Serif" font-size="10.00">RayTracer::Entities</text>
<text text-anchor="middle" x="80.5" y="-122.5" font-family="Helvetica,sans-Serif" font-size="10.00">::Transform::Transform</text>
<polyline fill="none" stroke="black" points="17.5,-115.5 143.5,-115.5 "/>
<text text-anchor="middle" x="80.5" y="-103.5" font-family="Helvetica,sans-Serif" font-size="10.00"> </text>
<polyline fill="none" stroke="black" points="17.5,-96.5 143.5,-96.5 "/>
<text text-anchor="start" x="25.5" y="-84.5" font-family="Helvetica,sans-Serif" font-size="10.00">+ Transform()</text>
<text text-anchor="start" x="25.5" y="-73.5" font-family="Helvetica,sans-Serif" font-size="10.00">+ setPosition()</text>
<text text-anchor="start" x="25.5" y="-62.5" font-family="Helvetica,sans-Serif" font-size="10.00">+ getPosition()</text>
<text text-anchor="start" x="25.5" y="-51.5" font-family="Helvetica,sans-Serif" font-size="10.00">+ setRotation()</text>
<text text-anchor="start" x="25.5" y="-40.5" font-family="Helvetica,sans-Serif" font-size="10.00">+ getRotation()</text>
<text text-anchor="start" x="25.5" y="-29.5" font-family="Helvetica,sans-Serif" font-size="10.00">+ setScale()</text>
<text text-anchor="start" x="25.5" y="-18.5" font-family="Helvetica,sans-Serif" font-size="10.00">+ getScale()</text>
<text text-anchor="start" x="25.5" y="-7.5" font-family="Helvetica,sans-Serif" font-size="10.00">+ operator=()</text>
</a>
</g>
</g>
<!-- Node2 -->
<g id="node2" class="node">
<title>Node2</title>
<g id="a_node2"><a xlink:href="$a01289.html" xlink:title="The ITransform class.">
<polygon fill="white" stroke="black" points="0,-309 0,-454 129,-454 129,-309 0,-309"/>
<text text-anchor="start" x="8" y="-442" font-family="Helvetica,sans-Serif" font-size="10.00">RayTracer::Entities</text>
<text text-anchor="middle" x="64.5" y="-431" font-family="Helvetica,sans-Serif" font-size="10.00">::Transform::ITransform</text>
<polyline fill="none" stroke="black" points="0,-424 129,-424 "/>
<text text-anchor="middle" x="64.5" y="-412" font-family="Helvetica,sans-Serif" font-size="10.00"> </text>
<polyline fill="none" stroke="black" points="0,-405 129,-405 "/>
<text text-anchor="start" x="8" y="-393" font-family="Helvetica,sans-Serif" font-size="10.00">+ ~ITransform()</text>
<text text-anchor="start" x="8" y="-382" font-family="Helvetica,sans-Serif" font-size="10.00">+ setPosition()</text>
<text text-anchor="start" x="8" y="-371" font-family="Helvetica,sans-Serif" font-size="10.00">+ getPosition()</text>
<text text-anchor="start" x="8" y="-360" font-family="Helvetica,sans-Serif" font-size="10.00">+ setRotation()</text>
<text text-anchor="start" x="8" y="-349" font-family="Helvetica,sans-Serif" font-size="10.00">+ getRotation()</text>
<text text-anchor="start" x="8" y="-338" font-family="Helvetica,sans-Serif" font-size="10.00">+ setScale()</text>
<text text-anchor="start" x="8" y="-327" font-family="Helvetica,sans-Serif" font-size="10.00">+ getScale()</text>
<text text-anchor="start" x="8" y="-316" font-family="Helvetica,sans-Serif" font-size="10.00">+ operator=()</text>
</a>
</g>
</g>
<!-- Node2&#45;&gt;Node1 -->
<g id="edge1" class="edge">
<title>Node2&#45;&gt;Node1</title>
<path fill="none" stroke="midnightblue" d="M68.79,-298.36C71.27,-250.75 74.37,-191.38 76.76,-145.68"/>
<polygon fill="none" stroke="midnightblue" points="65.28,-298.47 68.25,-308.64 72.27,-298.84 65.28,-298.47"/>
</g>
<!-- Node3 -->
<g id="node3" class="node">
<title>Node3</title>
<g id="a_node3"><a xlink:href="$a01301.html" xlink:title="The Vector3f class.">
<polygon fill="white" stroke="black" points="147.5,-215.5 147.5,-547.5 265.5,-547.5 265.5,-215.5 147.5,-215.5"/>
<text text-anchor="start" x="155.5" y="-535.5" font-family="Helvetica,sans-Serif" font-size="10.00">RayTracer::Entities</text>
<text text-anchor="middle" x="206.5" y="-524.5" font-family="Helvetica,sans-Serif" font-size="10.00">::Transform::Vector3f</text>
<polyline fill="none" stroke="black" points="147.5,-517.5 265.5,-517.5 "/>
<text text-anchor="middle" x="206.5" y="-505.5" font-family="Helvetica,sans-Serif" font-size="10.00"> </text>
<polyline fill="none" stroke="black" points="147.5,-498.5 265.5,-498.5 "/>
<text text-anchor="start" x="155.5" y="-486.5" font-family="Helvetica,sans-Serif" font-size="10.00">+ ~Vector3f()</text>
<text text-anchor="start" x="155.5" y="-475.5" font-family="Helvetica,sans-Serif" font-size="10.00">+ Vector3f()</text>
<text text-anchor="start" x="155.5" y="-464.5" font-family="Helvetica,sans-Serif" font-size="10.00">+ Vector3f()</text>
<text text-anchor="start" x="155.5" y="-453.5" font-family="Helvetica,sans-Serif" font-size="10.00">+ Vector3f()</text>
<text text-anchor="start" x="155.5" y="-442.5" font-family="Helvetica,sans-Serif" font-size="10.00">+ Vector3f()</text>
<text text-anchor="start" x="155.5" y="-431.5" font-family="Helvetica,sans-Serif" font-size="10.00">+ operator+()</text>
<text text-anchor="start" x="155.5" y="-420.5" font-family="Helvetica,sans-Serif" font-size="10.00">+ operator&#45;()</text>
<text text-anchor="start" x="155.5" y="-409.5" font-family="Helvetica,sans-Serif" font-size="10.00">+ operator*()</text>
<text text-anchor="start" x="155.5" y="-398.5" font-family="Helvetica,sans-Serif" font-size="10.00">+ operator/()</text>
<text text-anchor="start" x="155.5" y="-387.5" font-family="Helvetica,sans-Serif" font-size="10.00">+ operator=()</text>
<text text-anchor="start" x="155.5" y="-376.5" font-family="Helvetica,sans-Serif" font-size="10.00">+ getX()</text>
<text text-anchor="start" x="155.5" y="-365.5" font-family="Helvetica,sans-Serif" font-size="10.00">+ getY()</text>
<text text-anchor="start" x="155.5" y="-354.5" font-family="Helvetica,sans-Serif" font-size="10.00">+ getZ()</text>
<text text-anchor="start" x="155.5" y="-343.5" font-family="Helvetica,sans-Serif" font-size="10.00">+ getNorm()</text>
<text text-anchor="start" x="155.5" y="-332.5" font-family="Helvetica,sans-Serif" font-size="10.00">+ getNormalized()</text>
<text text-anchor="start" x="155.5" y="-321.5" font-family="Helvetica,sans-Serif" font-size="10.00">+ getCrossed()</text>
<text text-anchor="start" x="155.5" y="-310.5" font-family="Helvetica,sans-Serif" font-size="10.00">+ dot()</text>
<text text-anchor="start" x="155.5" y="-299.5" font-family="Helvetica,sans-Serif" font-size="10.00">+ getDistance()</text>
<text text-anchor="start" x="155.5" y="-288.5" font-family="Helvetica,sans-Serif" font-size="10.00">+ toDegrees()</text>
<text text-anchor="start" x="155.5" y="-277.5" font-family="Helvetica,sans-Serif" font-size="10.00">+ toRadians()</text>
<text text-anchor="start" x="155.5" y="-266.5" font-family="Helvetica,sans-Serif" font-size="10.00">+ rotateVector()</text>
<text text-anchor="start" x="155.5" y="-255.5" font-family="Helvetica,sans-Serif" font-size="10.00">+ getAngle()</text>
<text text-anchor="start" x="155.5" y="-244.5" font-family="Helvetica,sans-Serif" font-size="10.00">+ rotateX()</text>
<text text-anchor="start" x="155.5" y="-233.5" font-family="Helvetica,sans-Serif" font-size="10.00">+ rotateY()</text>
<text text-anchor="start" x="155.5" y="-222.5" font-family="Helvetica,sans-Serif" font-size="10.00">+ rotateZ()</text>
</a>
</g>
</g>
<!-- Node3&#45;&gt;Node1 -->
<g id="edge2" class="edge">
<title>Node3&#45;&gt;Node1</title>
<path fill="none" stroke="#404040" d="M147.35,-236.53C144.36,-229.25 141.39,-222.04 138.5,-215 130.76,-196.17 122.44,-175.93 114.58,-156.83"/>
<polygon fill="none" stroke="#404040" points="114.58,-156.83 108.59,-152.8 110.01,-145.73 115.99,-149.76 114.58,-156.83"/>
<text text-anchor="middle" x="156.5" y="-189" font-family="Helvetica,sans-Serif" font-size="10.00"> &#45;_position</text>
<text text-anchor="middle" x="156.5" y="-178" font-family="Helvetica,sans-Serif" font-size="10.00">&#45;_rotation</text>
<text text-anchor="middle" x="156.5" y="-167" font-family="Helvetica,sans-Serif" font-size="10.00">&#45;_scale</text>
</g>
<!-- Node4 -->
<g id="node4" class="node">
<title>Node4</title>
<g id="a_node4"><a xlink:title=" ">
<polygon fill="white" stroke="#bfbfbf" points="181.5,-617.5 181.5,-674.5 231.5,-674.5 231.5,-617.5 181.5,-617.5"/>
<text text-anchor="middle" x="206.5" y="-662.5" font-family="Helvetica,sans-Serif" font-size="10.00">double</text>
<polyline fill="none" stroke="#bfbfbf" points="181.5,-655.5 231.5,-655.5 "/>
<text text-anchor="middle" x="206.5" y="-643.5" font-family="Helvetica,sans-Serif" font-size="10.00"> </text>
<polyline fill="none" stroke="#bfbfbf" points="181.5,-636.5 231.5,-636.5 "/>
<text text-anchor="middle" x="206.5" y="-624.5" font-family="Helvetica,sans-Serif" font-size="10.00"> </text>
</a>
</g>
</g>
<!-- Node4&#45;&gt;Node3 -->
<g id="edge3" class="edge">
<title>Node4&#45;&gt;Node3</title>
<path fill="none" stroke="#404040" d="M206.5,-617.4C206.5,-602.23 206.5,-581.98 206.5,-559.71"/>
<polygon fill="none" stroke="#404040" points="206.5,-559.52 202.5,-553.52 206.5,-547.52 210.5,-553.52 206.5,-559.52"/>
<text text-anchor="middle" x="216" y="-591" font-family="Helvetica,sans-Serif" font-size="10.00"> &#45;_x</text>
<text text-anchor="middle" x="216" y="-580" font-family="Helvetica,sans-Serif" font-size="10.00">&#45;_y</text>
<text text-anchor="middle" x="216" y="-569" font-family="Helvetica,sans-Serif" font-size="10.00">&#45;_z</text>
</g>
</g>
</svg>
