<?xml version="1.0" encoding="UTF-8" standalone="no"?>
<!DOCTYPE svg PUBLIC "-//W3C//DTD SVG 1.1//EN"
 "http://www.w3.org/Graphics/SVG/1.1/DTD/svg11.dtd">
<!-- Generated by graphviz version 2.43.0 (0)
 -->
<!-- Title: RayTracer::Main Pages: 1 -->
<svg width="1030pt" height="954pt"
 viewBox="0.00 0.00 1029.50 954.00" xmlns="http://www.w3.org/2000/svg" xmlns:xlink="http://www.w3.org/1999/xlink">
<g id="graph0" class="graph" transform="scale(1 1) rotate(0) translate(4 950)">
<title>RayTracer::Main</title>
<polygon fill="white" stroke="transparent" points="-4,4 -4,-950 1025.5,-950 1025.5,4 -4,4"/>
<!-- Node1 -->
<g id="node1" class="node">
<title>Node1</title>
<g id="a_node1"><a xlink:title=" ">
<polygon fill="#bfbfbf" stroke="black" points="243.5,-0.5 243.5,-123.5 345.5,-123.5 345.5,-0.5 243.5,-0.5"/>
<text text-anchor="middle" x="294.5" y="-111.5" font-family="Helvetica,sans-Serif" font-size="10.00">RayTracer::Main</text>
<polyline fill="none" stroke="black" points="243.5,-104.5 345.5,-104.5 "/>
<text text-anchor="middle" x="294.5" y="-92.5" font-family="Helvetica,sans-Serif" font-size="10.00"> </text>
<polyline fill="none" stroke="black" points="243.5,-85.5 345.5,-85.5 "/>
<text text-anchor="start" x="251.5" y="-73.5" font-family="Helvetica,sans-Serif" font-size="10.00">+ Main()</text>
<text text-anchor="start" x="251.5" y="-62.5" font-family="Helvetica,sans-Serif" font-size="10.00">+ ~Main()</text>
<text text-anchor="start" x="251.5" y="-51.5" font-family="Helvetica,sans-Serif" font-size="10.00">+ operator()()</text>
<text text-anchor="start" x="251.5" y="-40.5" font-family="Helvetica,sans-Serif" font-size="10.00">&#45; exportScene()</text>
<text text-anchor="start" x="251.5" y="-29.5" font-family="Helvetica,sans-Serif" font-size="10.00">&#45; run()</text>
<text text-anchor="start" x="251.5" y="-18.5" font-family="Helvetica,sans-Serif" font-size="10.00">&#45; help()</text>
<text text-anchor="start" x="251.5" y="-7.5" font-family="Helvetica,sans-Serif" font-size="10.00">&#45; parseCmdArgs()</text>
</a>
</g>
</g>
<!-- Node2 -->
<g id="node2" class="node">
<title>Node2</title>
<g id="a_node2"><a xlink:href="$a01417.html" xlink:title="The Scene class.">
<polygon fill="white" stroke="black" points="239,-182.5 239,-349.5 350,-349.5 350,-182.5 239,-182.5"/>
<text text-anchor="start" x="247" y="-337.5" font-family="Helvetica,sans-Serif" font-size="10.00">RayTracer::Scenes::</text>
<text text-anchor="middle" x="294.5" y="-326.5" font-family="Helvetica,sans-Serif" font-size="10.00">Scene</text>
<polyline fill="none" stroke="black" points="239,-319.5 350,-319.5 "/>
<text text-anchor="middle" x="294.5" y="-307.5" font-family="Helvetica,sans-Serif" font-size="10.00"> </text>
<polyline fill="none" stroke="black" points="239,-300.5 350,-300.5 "/>
<text text-anchor="start" x="247" y="-288.5" font-family="Helvetica,sans-Serif" font-size="10.00">+ Scene()</text>
<text text-anchor="start" x="247" y="-277.5" font-family="Helvetica,sans-Serif" font-size="10.00">+ ~Scene()</text>
<text text-anchor="start" x="247" y="-266.5" font-family="Helvetica,sans-Serif" font-size="10.00">+ operator()()</text>
<text text-anchor="start" x="247" y="-255.5" font-family="Helvetica,sans-Serif" font-size="10.00">+ renders()</text>
<text text-anchor="start" x="247" y="-244.5" font-family="Helvetica,sans-Serif" font-size="10.00">+ getCameras()</text>
<text text-anchor="start" x="247" y="-233.5" font-family="Helvetica,sans-Serif" font-size="10.00">+ isReady()</text>
<text text-anchor="start" x="247" y="-222.5" font-family="Helvetica,sans-Serif" font-size="10.00">+ cancel()</text>
<text text-anchor="start" x="247" y="-211.5" font-family="Helvetica,sans-Serif" font-size="10.00">+ wait_end()</text>
<text text-anchor="start" x="247" y="-200.5" font-family="Helvetica,sans-Serif" font-size="10.00">&#45; loadConfig()</text>
<text text-anchor="start" x="247" y="-189.5" font-family="Helvetica,sans-Serif" font-size="10.00">&#45; waitTillCancel()</text>
</a>
</g>
</g>
<!-- Node2&#45;&gt;Node1 -->
<g id="edge1" class="edge">
<title>Node2&#45;&gt;Node1</title>
<path fill="none" stroke="#404040" d="M294.5,-182.26C294.5,-166.93 294.5,-151.03 294.5,-136.03"/>
<polygon fill="none" stroke="#404040" points="294.5,-135.66 290.5,-129.66 294.5,-123.66 298.5,-129.66 294.5,-135.66"/>
<text text-anchor="middle" x="315" y="-150.5" font-family="Helvetica,sans-Serif" font-size="10.00"> &#45;_scene</text>
</g>
<!-- Node3 -->
<g id="node3" class="node">
<title>Node3</title>
<g id="a_node3"><a xlink:href="$a01381.html" xlink:title="The Displayable class.">
<polygon fill="white" stroke="black" points="406.5,-397.5 406.5,-520.5 522.5,-520.5 522.5,-397.5 406.5,-397.5"/>
<text text-anchor="start" x="414.5" y="-508.5" font-family="Helvetica,sans-Serif" font-size="10.00">RayTracer::Scenes::</text>
<text text-anchor="middle" x="464.5" y="-497.5" font-family="Helvetica,sans-Serif" font-size="10.00">Displayable</text>
<polyline fill="none" stroke="black" points="406.5,-490.5 522.5,-490.5 "/>
<text text-anchor="middle" x="464.5" y="-478.5" font-family="Helvetica,sans-Serif" font-size="10.00"> </text>
<polyline fill="none" stroke="black" points="406.5,-471.5 522.5,-471.5 "/>
<text text-anchor="start" x="414.5" y="-459.5" font-family="Helvetica,sans-Serif" font-size="10.00">+ getLightList()</text>
<text text-anchor="start" x="414.5" y="-448.5" font-family="Helvetica,sans-Serif" font-size="10.00">+ getLightList()</text>
<text text-anchor="start" x="414.5" y="-437.5" font-family="Helvetica,sans-Serif" font-size="10.00">+ getPrimitiveList()</text>
<text text-anchor="start" x="414.5" y="-426.5" font-family="Helvetica,sans-Serif" font-size="10.00">+ getPrimitiveList()</text>
<text text-anchor="start" x="414.5" y="-415.5" font-family="Helvetica,sans-Serif" font-size="10.00">+ getAmbientLight()</text>
<text text-anchor="start" x="414.5" y="-404.5" font-family="Helvetica,sans-Serif" font-size="10.00">+ getAmbientLight()</text>
</a>
</g>
</g>
<!-- Node3&#45;&gt;Node2 -->
<g id="edge2" class="edge">
<title>Node3&#45;&gt;Node2</title>
<path fill="none" stroke="#404040" d="M410.48,-397.3C393.86,-378.63 375.41,-357.91 358.21,-338.58"/>
<polygon fill="none" stroke="#404040" points="358.12,-338.47 351.14,-336.65 350.14,-329.51 357.11,-331.33 358.12,-338.47"/>
<text text-anchor="middle" x="425" y="-371" font-family="Helvetica,sans-Serif" font-size="10.00"> &#45;_displayable</text>
</g>
<!-- Node4 -->
<g id="node4" class="node">
<title>Node4</title>
<g id="a_node4"><a xlink:href="$a01393.html" xlink:title="The IDisplayable interface.">
<polygon fill="white" stroke="black" points="645.5,-568.5 645.5,-691.5 761.5,-691.5 761.5,-568.5 645.5,-568.5"/>
<text text-anchor="start" x="653.5" y="-679.5" font-family="Helvetica,sans-Serif" font-size="10.00">RayTracer::Scenes::</text>
<text text-anchor="middle" x="703.5" y="-668.5" font-family="Helvetica,sans-Serif" font-size="10.00">IDisplayable</text>
<polyline fill="none" stroke="black" points="645.5,-661.5 761.5,-661.5 "/>
<text text-anchor="middle" x="703.5" y="-649.5" font-family="Helvetica,sans-Serif" font-size="10.00"> </text>
<polyline fill="none" stroke="black" points="645.5,-642.5 761.5,-642.5 "/>
<text text-anchor="start" x="653.5" y="-630.5" font-family="Helvetica,sans-Serif" font-size="10.00">+ getLightList()</text>
<text text-anchor="start" x="653.5" y="-619.5" font-family="Helvetica,sans-Serif" font-size="10.00">+ getLightList()</text>
<text text-anchor="start" x="653.5" y="-608.5" font-family="Helvetica,sans-Serif" font-size="10.00">+ getPrimitiveList()</text>
<text text-anchor="start" x="653.5" y="-597.5" font-family="Helvetica,sans-Serif" font-size="10.00">+ getPrimitiveList()</text>
<text text-anchor="start" x="653.5" y="-586.5" font-family="Helvetica,sans-Serif" font-size="10.00">+ getAmbientLight()</text>
<text text-anchor="start" x="653.5" y="-575.5" font-family="Helvetica,sans-Serif" font-size="10.00">+ getAmbientLight()</text>
</a>
</g>
</g>
<!-- Node4&#45;&gt;Node3 -->
<g id="edge3" class="edge">
<title>Node4&#45;&gt;Node3</title>
<path fill="none" stroke="midnightblue" d="M637.31,-568.62C637.04,-568.41 636.77,-568.21 636.5,-568 600.28,-540.49 556.89,-513.28 522.75,-493.05"/>
<polygon fill="none" stroke="midnightblue" points="635.17,-571.38 645.19,-574.83 639.5,-565.89 635.17,-571.38"/>
</g>
<!-- Node5 -->
<g id="node5" class="node">
<title>Node5</title>
<g id="a_node5"><a xlink:title=" ">
<polygon fill="white" stroke="#bfbfbf" points="281.5,-590.5 281.5,-669.5 445.5,-669.5 445.5,-590.5 281.5,-590.5"/>
<text text-anchor="start" x="289.5" y="-657.5" font-family="Helvetica,sans-Serif" font-size="10.00">std::vector&lt; std::reference</text>
<text text-anchor="start" x="289.5" y="-646.5" font-family="Helvetica,sans-Serif" font-size="10.00">_wrapper&lt; RayTracer::Entities</text>
<text text-anchor="middle" x="363.5" y="-635.5" font-family="Helvetica,sans-Serif" font-size="10.00">::IPrimitive &gt; &gt;</text>
<polyline fill="none" stroke="#bfbfbf" points="281.5,-628.5 445.5,-628.5 "/>
<text text-anchor="middle" x="363.5" y="-616.5" font-family="Helvetica,sans-Serif" font-size="10.00"> </text>
<polyline fill="none" stroke="#bfbfbf" points="281.5,-609.5 445.5,-609.5 "/>
<text text-anchor="middle" x="363.5" y="-597.5" font-family="Helvetica,sans-Serif" font-size="10.00"> </text>
</a>
</g>
</g>
<!-- Node5&#45;&gt;Node3 -->
<g id="edge4" class="edge">
<title>Node5&#45;&gt;Node3</title>
<path fill="none" stroke="#404040" d="M386.67,-590.23C397.14,-572.72 409.84,-551.46 421.92,-531.24"/>
<polygon fill="none" stroke="#404040" points="422.02,-531.09 421.66,-523.88 428.17,-520.79 428.53,-527.99 422.02,-531.09"/>
<text text-anchor="middle" x="448.5" y="-542" font-family="Helvetica,sans-Serif" font-size="10.00"> &#45;_primitives</text>
</g>
<!-- Node6 -->
<g id="node6" class="node">
<title>Node6</title>
<g id="a_node6"><a xlink:title=" ">
<polygon fill="white" stroke="#bfbfbf" points="240.5,-761.5 240.5,-840.5 356.5,-840.5 356.5,-761.5 240.5,-761.5"/>
<text text-anchor="start" x="248.5" y="-828.5" font-family="Helvetica,sans-Serif" font-size="10.00">reference_wrapper&lt;</text>
<text text-anchor="start" x="248.5" y="-817.5" font-family="Helvetica,sans-Serif" font-size="10.00"> RayTracer::Entities</text>
<text text-anchor="middle" x="298.5" y="-806.5" font-family="Helvetica,sans-Serif" font-size="10.00">::IPrimitive &gt;</text>
<polyline fill="none" stroke="#bfbfbf" points="240.5,-799.5 356.5,-799.5 "/>
<text text-anchor="middle" x="298.5" y="-787.5" font-family="Helvetica,sans-Serif" font-size="10.00"> </text>
<polyline fill="none" stroke="#bfbfbf" points="240.5,-780.5 356.5,-780.5 "/>
<text text-anchor="middle" x="298.5" y="-768.5" font-family="Helvetica,sans-Serif" font-size="10.00"> </text>
</a>
</g>
</g>
<!-- Node6&#45;&gt;Node5 -->
<g id="edge5" class="edge">
<title>Node6&#45;&gt;Node5</title>
<path fill="none" stroke="#404040" d="M293.42,-761.35C292.67,-745.06 293.67,-726.17 299.5,-710 303.41,-699.15 309.49,-688.7 316.38,-679.15"/>
<polygon fill="none" stroke="#404040" points="316.46,-679.04 316.96,-671.84 323.79,-669.53 323.3,-676.73 316.46,-679.04"/>
<text text-anchor="middle" x="328.5" y="-724" font-family="Helvetica,sans-Serif" font-size="10.00"> +elements</text>
</g>
<!-- Node7 -->
<g id="node7" class="node">
<title>Node7</title>
<g id="a_node7"><a xlink:title=" ">
<polygon fill="white" stroke="#bfbfbf" points="481,-772.5 481,-829.5 578,-829.5 578,-772.5 481,-772.5"/>
<text text-anchor="middle" x="529.5" y="-817.5" font-family="Helvetica,sans-Serif" font-size="10.00">std::vector&lt; T &gt;</text>
<polyline fill="none" stroke="#bfbfbf" points="481,-810.5 578,-810.5 "/>
<text text-anchor="middle" x="529.5" y="-798.5" font-family="Helvetica,sans-Serif" font-size="10.00"> </text>
<polyline fill="none" stroke="#bfbfbf" points="481,-791.5 578,-791.5 "/>
<text text-anchor="middle" x="529.5" y="-779.5" font-family="Helvetica,sans-Serif" font-size="10.00"> </text>
</a>
</g>
</g>
<!-- Node7&#45;&gt;Node5 -->
<g id="edge6" class="edge">
<title>Node7&#45;&gt;Node5</title>
<path fill="none" stroke="orange" d="M471.29,-786.45C445.84,-777.84 417.53,-764.19 398.5,-743 380.4,-722.84 371.66,-693.4 367.44,-669.76"/>
<polygon fill="orange" stroke="orange" points="470.28,-789.8 480.87,-789.51 472.41,-783.13 470.28,-789.8"/>
<text text-anchor="start" x="398.5" y="-735" font-family="Helvetica,sans-Serif" font-size="10.00"> &lt; std::reference_wrapper</text>
<text text-anchor="start" x="398.5" y="-724" font-family="Helvetica,sans-Serif" font-size="10.00">&lt; RayTracer::Entities::</text>
<text text-anchor="middle" x="462" y="-713" font-family="Helvetica,sans-Serif" font-size="10.00">IPrimitive &gt; &gt;</text>
</g>
<!-- Node9 -->
<g id="node9" class="node">
<title>Node9</title>
<g id="a_node9"><a xlink:title=" ">
<polygon fill="white" stroke="#bfbfbf" points="463.5,-590.5 463.5,-669.5 627.5,-669.5 627.5,-590.5 463.5,-590.5"/>
<text text-anchor="start" x="471.5" y="-657.5" font-family="Helvetica,sans-Serif" font-size="10.00">std::vector&lt; std::reference</text>
<text text-anchor="start" x="471.5" y="-646.5" font-family="Helvetica,sans-Serif" font-size="10.00">_wrapper&lt; RayTracer::Entities</text>
<text text-anchor="middle" x="545.5" y="-635.5" font-family="Helvetica,sans-Serif" font-size="10.00">::ILight &gt; &gt;</text>
<polyline fill="none" stroke="#bfbfbf" points="463.5,-628.5 627.5,-628.5 "/>
<text text-anchor="middle" x="545.5" y="-616.5" font-family="Helvetica,sans-Serif" font-size="10.00"> </text>
<polyline fill="none" stroke="#bfbfbf" points="463.5,-609.5 627.5,-609.5 "/>
<text text-anchor="middle" x="545.5" y="-597.5" font-family="Helvetica,sans-Serif" font-size="10.00"> </text>
</a>
</g>
</g>
<!-- Node7&#45;&gt;Node9 -->
<g id="edge10" class="edge">
<title>Node7&#45;&gt;Node9</title>
<path fill="none" stroke="orange" d="M528.44,-762.23C528.37,-746.1 528.8,-727.09 530.5,-710 531.82,-696.8 534.22,-682.52 536.73,-669.78"/>
<polygon fill="orange" stroke="orange" points="524.94,-762.4 528.55,-772.36 531.94,-762.32 524.94,-762.4"/>
<text text-anchor="start" x="530.5" y="-735" font-family="Helvetica,sans-Serif" font-size="10.00"> &lt; std::reference_wrapper</text>
<text text-anchor="start" x="530.5" y="-724" font-family="Helvetica,sans-Serif" font-size="10.00">&lt; RayTracer::Entities::</text>
<text text-anchor="middle" x="594" y="-713" font-family="Helvetica,sans-Serif" font-size="10.00">ILight &gt; &gt;</text>
</g>
<!-- Node17 -->
<g id="node17" class="node">
<title>Node17</title>
<g id="a_node17"><a xlink:title=" ">
<polygon fill="white" stroke="#bfbfbf" points="779.5,-590.5 779.5,-669.5 943.5,-669.5 943.5,-590.5 779.5,-590.5"/>
<text text-anchor="start" x="787.5" y="-657.5" font-family="Helvetica,sans-Serif" font-size="10.00">std::vector&lt; std::reference</text>
<text text-anchor="start" x="787.5" y="-646.5" font-family="Helvetica,sans-Serif" font-size="10.00">_wrapper&lt; RayTracer::Entities</text>
<text text-anchor="middle" x="861.5" y="-635.5" font-family="Helvetica,sans-Serif" font-size="10.00">::ICamera &gt; &gt;</text>
<polyline fill="none" stroke="#bfbfbf" points="779.5,-628.5 943.5,-628.5 "/>
<text text-anchor="middle" x="861.5" y="-616.5" font-family="Helvetica,sans-Serif" font-size="10.00"> </text>
<polyline fill="none" stroke="#bfbfbf" points="779.5,-609.5 943.5,-609.5 "/>
<text text-anchor="middle" x="861.5" y="-597.5" font-family="Helvetica,sans-Serif" font-size="10.00"> </text>
</a>
</g>
</g>
<!-- Node7&#45;&gt;Node17 -->
<g id="edge19" class="edge">
<title>Node7&#45;&gt;Node17</title>
<path fill="none" stroke="orange" d="M587.61,-782.98C611.26,-773.93 637.65,-760.9 657.5,-743 670.07,-731.67 662.71,-719.82 676.5,-710 711.15,-685.33 731.16,-708.17 770.5,-692 784.57,-686.22 798.74,-678.09 811.56,-669.65"/>
<polygon fill="orange" stroke="orange" points="586.19,-779.77 578.01,-786.49 588.6,-786.34 586.19,-779.77"/>
<text text-anchor="start" x="676.5" y="-735" font-family="Helvetica,sans-Serif" font-size="10.00"> &lt; std::reference_wrapper</text>
<text text-anchor="start" x="676.5" y="-724" font-family="Helvetica,sans-Serif" font-size="10.00">&lt; RayTracer::Entities::</text>
<text text-anchor="middle" x="740" y="-713" font-family="Helvetica,sans-Serif" font-size="10.00">ICamera &gt; &gt;</text>
</g>
<!-- Node8 -->
<g id="node8" class="node">
<title>Node8</title>
<g id="a_node8"><a xlink:title=" ">
<polygon fill="white" stroke="#bfbfbf" points="515,-888.5 515,-945.5 544,-945.5 544,-888.5 515,-888.5"/>
<text text-anchor="middle" x="529.5" y="-933.5" font-family="Helvetica,sans-Serif" font-size="10.00">T</text>
<polyline fill="none" stroke="#bfbfbf" points="515,-926.5 544,-926.5 "/>
<text text-anchor="middle" x="529.5" y="-914.5" font-family="Helvetica,sans-Serif" font-size="10.00"> </text>
<polyline fill="none" stroke="#bfbfbf" points="515,-907.5 544,-907.5 "/>
<text text-anchor="middle" x="529.5" y="-895.5" font-family="Helvetica,sans-Serif" font-size="10.00"> </text>
</a>
</g>
</g>
<!-- Node8&#45;&gt;Node7 -->
<g id="edge7" class="edge">
<title>Node8&#45;&gt;Node7</title>
<path fill="none" stroke="#404040" d="M529.5,-888.4C529.5,-874.5 529.5,-857.39 529.5,-842.07"/>
<polygon fill="none" stroke="#404040" points="529.5,-841.74 525.5,-835.74 529.5,-829.74 533.5,-835.74 529.5,-841.74"/>
<text text-anchor="middle" x="558.5" y="-862" font-family="Helvetica,sans-Serif" font-size="10.00"> +elements</text>
</g>
<!-- Node9&#45;&gt;Node3 -->
<g id="edge8" class="edge">
<title>Node9&#45;&gt;Node3</title>
<path fill="none" stroke="#404040" d="M526.92,-590.23C518.6,-572.88 508.52,-551.85 498.91,-531.8"/>
<polygon fill="none" stroke="#404040" points="498.82,-531.61 492.62,-527.93 493.63,-520.79 499.83,-524.47 498.82,-531.61"/>
<text text-anchor="middle" x="527.5" y="-542" font-family="Helvetica,sans-Serif" font-size="10.00"> &#45;_lights</text>
</g>
<!-- Node10 -->
<g id="node10" class="node">
<title>Node10</title>
<g id="a_node10"><a xlink:title=" ">
<polygon fill="white" stroke="#bfbfbf" points="771.5,-761.5 771.5,-840.5 887.5,-840.5 887.5,-761.5 771.5,-761.5"/>
<text text-anchor="start" x="779.5" y="-828.5" font-family="Helvetica,sans-Serif" font-size="10.00">reference_wrapper&lt;</text>
<text text-anchor="start" x="779.5" y="-817.5" font-family="Helvetica,sans-Serif" font-size="10.00"> RayTracer::Entities</text>
<text text-anchor="middle" x="829.5" y="-806.5" font-family="Helvetica,sans-Serif" font-size="10.00">::ILight &gt;</text>
<polyline fill="none" stroke="#bfbfbf" points="771.5,-799.5 887.5,-799.5 "/>
<text text-anchor="middle" x="829.5" y="-787.5" font-family="Helvetica,sans-Serif" font-size="10.00"> </text>
<polyline fill="none" stroke="#bfbfbf" points="771.5,-780.5 887.5,-780.5 "/>
<text text-anchor="middle" x="829.5" y="-768.5" font-family="Helvetica,sans-Serif" font-size="10.00"> </text>
</a>
</g>
</g>
<!-- Node10&#45;&gt;Node9 -->
<g id="edge9" class="edge">
<title>Node10&#45;&gt;Node9</title>
<path fill="none" stroke="#404040" d="M829.73,-761.08C827.68,-742.92 821.92,-722.59 807.5,-710 778.72,-684.86 672.42,-705.02 636.5,-692 625.37,-687.97 614.27,-682.29 603.85,-676"/>
<polygon fill="none" stroke="#404040" points="603.81,-675.98 596.6,-676.14 593.67,-669.55 600.88,-669.39 603.81,-675.98"/>
<text text-anchor="middle" x="854.5" y="-724" font-family="Helvetica,sans-Serif" font-size="10.00"> +elements</text>
</g>
<!-- Node11 -->
<g id="node11" class="node">
<title>Node11</title>
<g id="a_node11"><a xlink:href="$a01253.html" xlink:title="Logger singleton.">
<polygon fill="white" stroke="black" points="7,-397.5 7,-520.5 114,-520.5 114,-397.5 7,-397.5"/>
<text text-anchor="middle" x="60.5" y="-508.5" font-family="Helvetica,sans-Serif" font-size="10.00">RayTracer::ILogger</text>
<polyline fill="none" stroke="black" points="7,-501.5 114,-501.5 "/>
<text text-anchor="middle" x="60.5" y="-489.5" font-family="Helvetica,sans-Serif" font-size="10.00"> </text>
<polyline fill="none" stroke="black" points="7,-482.5 114,-482.5 "/>
<text text-anchor="start" x="15" y="-470.5" font-family="Helvetica,sans-Serif" font-size="10.00">+ ~ILogger()</text>
<text text-anchor="start" x="15" y="-459.5" font-family="Helvetica,sans-Serif" font-size="10.00">+ fatal()</text>
<text text-anchor="start" x="15" y="-448.5" font-family="Helvetica,sans-Serif" font-size="10.00">+ error()</text>
<text text-anchor="start" x="15" y="-437.5" font-family="Helvetica,sans-Serif" font-size="10.00">+ warn()</text>
<text text-anchor="start" x="15" y="-426.5" font-family="Helvetica,sans-Serif" font-size="10.00">+ info()</text>
<text text-anchor="start" x="15" y="-415.5" font-family="Helvetica,sans-Serif" font-size="10.00">+ debug()</text>
<text text-anchor="start" x="15" y="-404.5" font-family="Helvetica,sans-Serif" font-size="10.00">+ trace()</text>
</a>
</g>
</g>
<!-- Node11&#45;&gt;Node1 -->
<g id="edge20" class="edge">
<title>Node11&#45;&gt;Node1</title>
<path fill="none" stroke="#404040" d="M81.94,-397.35C103.8,-339.5 140.93,-251.16 186.5,-182 200.48,-160.78 218.19,-139.59 235.2,-121.1"/>
<polygon fill="none" stroke="#404040" points="235.28,-121.02 236.45,-113.9 243.47,-112.25 242.3,-119.37 235.28,-121.02"/>
<text text-anchor="middle" x="208" y="-263.5" font-family="Helvetica,sans-Serif" font-size="10.00"> &#45;_logger</text>
</g>
<!-- Node11&#45;&gt;Node2 -->
<g id="edge11" class="edge">
<title>Node11&#45;&gt;Node2</title>
<path fill="none" stroke="#404040" d="M114.21,-404.34C116.98,-401.83 119.76,-399.37 122.5,-397 156.39,-367.74 196.17,-337.44 228.93,-313.46"/>
<polygon fill="none" stroke="#404040" points="229.15,-313.29 231.65,-306.53 238.85,-306.23 236.36,-312.99 229.15,-313.29"/>
<text text-anchor="middle" x="176" y="-371" font-family="Helvetica,sans-Serif" font-size="10.00"> &#45;_logger</text>
</g>
<!-- Node12 -->
<g id="node12" class="node">
<title>Node12</title>
<g id="a_node12"><a xlink:title=" ">
<polygon fill="white" stroke="#bfbfbf" points="132,-430.5 132,-487.5 221,-487.5 221,-430.5 132,-430.5"/>
<text text-anchor="middle" x="176.5" y="-475.5" font-family="Helvetica,sans-Serif" font-size="10.00">future&lt; void &gt;</text>
<polyline fill="none" stroke="#bfbfbf" points="132,-468.5 221,-468.5 "/>
<text text-anchor="middle" x="176.5" y="-456.5" font-family="Helvetica,sans-Serif" font-size="10.00"> </text>
<polyline fill="none" stroke="#bfbfbf" points="132,-449.5 221,-449.5 "/>
<text text-anchor="middle" x="176.5" y="-437.5" font-family="Helvetica,sans-Serif" font-size="10.00"> </text>
</a>
</g>
</g>
<!-- Node12&#45;&gt;Node2 -->
<g id="edge12" class="edge">
<title>Node12&#45;&gt;Node2</title>
<path fill="none" stroke="#404040" d="M193.66,-430.23C205.18,-411.59 221.07,-385.85 236.85,-360.32"/>
<polygon fill="none" stroke="#404040" points="237.04,-360.01 236.79,-352.8 243.34,-349.8 243.59,-357.01 237.04,-360.01"/>
<text text-anchor="middle" x="253.5" y="-371" font-family="Helvetica,sans-Serif" font-size="10.00"> &#45;_future</text>
</g>
<!-- Node13 -->
<g id="node13" class="node">
<title>Node13</title>
<g id="a_node13"><a xlink:href="$a01429.html" xlink:title="The SceneState class.">
<polygon fill="white" stroke="black" points="239,-414 239,-504 350,-504 350,-414 239,-414"/>
<text text-anchor="start" x="247" y="-492" font-family="Helvetica,sans-Serif" font-size="10.00">RayTracer::Scenes::</text>
<text text-anchor="middle" x="294.5" y="-481" font-family="Helvetica,sans-Serif" font-size="10.00">SceneState</text>
<polyline fill="none" stroke="black" points="239,-474 350,-474 "/>
<text text-anchor="middle" x="294.5" y="-462" font-family="Helvetica,sans-Serif" font-size="10.00"> </text>
<polyline fill="none" stroke="black" points="239,-455 350,-455 "/>
<text text-anchor="start" x="247" y="-443" font-family="Helvetica,sans-Serif" font-size="10.00">+ SceneState()</text>
<text text-anchor="start" x="247" y="-432" font-family="Helvetica,sans-Serif" font-size="10.00">+ getState()</text>
<text text-anchor="start" x="247" y="-421" font-family="Helvetica,sans-Serif" font-size="10.00">+ changeState()</text>
</a>
</g>
</g>
<!-- Node13&#45;&gt;Node2 -->
<g id="edge13" class="edge">
<title>Node13&#45;&gt;Node2</title>
<path fill="none" stroke="#404040" d="M294.5,-413.7C294.5,-398.14 294.5,-380 294.5,-361.88"/>
<polygon fill="none" stroke="#404040" points="294.5,-361.7 290.5,-355.7 294.5,-349.7 298.5,-355.7 294.5,-361.7"/>
<text text-anchor="middle" x="313" y="-371" font-family="Helvetica,sans-Serif" font-size="10.00"> &#45;_state</text>
</g>
<!-- Node14 -->
<g id="node14" class="node">
<title>Node14</title>
<g id="a_node14"><a xlink:href="$a01401.html" xlink:title="The SceneState interface.">
<polygon fill="white" stroke="black" points="0,-590.5 0,-669.5 111,-669.5 111,-590.5 0,-590.5"/>
<text text-anchor="start" x="8" y="-657.5" font-family="Helvetica,sans-Serif" font-size="10.00">RayTracer::Scenes::</text>
<text text-anchor="middle" x="55.5" y="-646.5" font-family="Helvetica,sans-Serif" font-size="10.00">ISceneState</text>
<polyline fill="none" stroke="black" points="0,-639.5 111,-639.5 "/>
<text text-anchor="middle" x="55.5" y="-627.5" font-family="Helvetica,sans-Serif" font-size="10.00"> </text>
<polyline fill="none" stroke="black" points="0,-620.5 111,-620.5 "/>
<text text-anchor="start" x="8" y="-608.5" font-family="Helvetica,sans-Serif" font-size="10.00">+ getState()</text>
<text text-anchor="start" x="8" y="-597.5" font-family="Helvetica,sans-Serif" font-size="10.00">+ changeState()</text>
</a>
</g>
</g>
<!-- Node14&#45;&gt;Node13 -->
<g id="edge14" class="edge">
<title>Node14&#45;&gt;Node13</title>
<path fill="none" stroke="midnightblue" d="M99,-583.71C105.57,-578.04 112.5,-572.61 119.5,-568 163.89,-538.75 184.99,-550.08 229.5,-521 237.01,-516.09 244.46,-510.27 251.48,-504.21"/>
<polygon fill="none" stroke="midnightblue" points="96.59,-581.17 91.48,-590.46 101.26,-586.39 96.59,-581.17"/>
</g>
<!-- Node15 -->
<g id="node15" class="node">
<title>Node15</title>
<g id="a_node15"><a xlink:title=" ">
<polygon fill="white" stroke="#bfbfbf" points="129,-601.5 129,-658.5 198,-658.5 198,-601.5 129,-601.5"/>
<text text-anchor="middle" x="163.5" y="-646.5" font-family="Helvetica,sans-Serif" font-size="10.00">std::mutex</text>
<polyline fill="none" stroke="#bfbfbf" points="129,-639.5 198,-639.5 "/>
<text text-anchor="middle" x="163.5" y="-627.5" font-family="Helvetica,sans-Serif" font-size="10.00"> </text>
<polyline fill="none" stroke="#bfbfbf" points="129,-620.5 198,-620.5 "/>
<text text-anchor="middle" x="163.5" y="-608.5" font-family="Helvetica,sans-Serif" font-size="10.00"> </text>
</a>
</g>
</g>
<!-- Node15&#45;&gt;Node13 -->
<g id="edge15" class="edge">
<title>Node15&#45;&gt;Node13</title>
<path fill="none" stroke="#404040" d="M179.97,-601.45C191.25,-583.22 206.93,-559.08 222.5,-539 229.18,-530.39 236.59,-521.56 244.04,-513.08"/>
<polygon fill="none" stroke="#404040" points="244.11,-513 245.12,-505.86 252.1,-504.04 251.09,-511.18 244.11,-513"/>
<text text-anchor="middle" x="242" y="-542" font-family="Helvetica,sans-Serif" font-size="10.00"> &#45;mutex</text>
</g>
<!-- Node16 -->
<g id="node16" class="node">
<title>Node16</title>
<g id="a_node16"><a xlink:title=" ">
<polygon fill="white" stroke="#bfbfbf" points="216,-601.5 216,-658.5 263,-658.5 263,-601.5 216,-601.5"/>
<text text-anchor="middle" x="239.5" y="-646.5" font-family="Helvetica,sans-Serif" font-size="10.00">States</text>
<polyline fill="none" stroke="#bfbfbf" points="216,-639.5 263,-639.5 "/>
<text text-anchor="middle" x="239.5" y="-627.5" font-family="Helvetica,sans-Serif" font-size="10.00"> </text>
<polyline fill="none" stroke="#bfbfbf" points="216,-620.5 263,-620.5 "/>
<text text-anchor="middle" x="239.5" y="-608.5" font-family="Helvetica,sans-Serif" font-size="10.00"> </text>
</a>
</g>
</g>
<!-- Node16&#45;&gt;Node13 -->
<g id="edge16" class="edge">
<title>Node16&#45;&gt;Node13</title>
<path fill="none" stroke="#404040" d="M248.46,-601.47C256,-578.29 267.03,-544.4 276.41,-515.6"/>
<polygon fill="none" stroke="#404040" points="276.46,-515.44 274.51,-508.5 280.17,-504.03 282.12,-510.97 276.46,-515.44"/>
<text text-anchor="middle" x="288" y="-542" font-family="Helvetica,sans-Serif" font-size="10.00"> &#45;_state</text>
</g>
<!-- Node17&#45;&gt;Node2 -->
<g id="edge17" class="edge">
<title>Node17&#45;&gt;Node2</title>
<path fill="none" stroke="#404040" d="M807.19,-590.2C795.35,-582.43 782.7,-574.62 770.5,-568 723.77,-542.64 704.83,-550.34 660.5,-521 594.19,-477.1 595.59,-444.09 531.5,-397 477.53,-357.35 410.08,-321.5 360.96,-297.55"/>
<polygon fill="none" stroke="#404040" points="360.94,-297.54 353.8,-298.53 350.14,-292.32 357.28,-291.33 360.94,-297.54"/>
<text text-anchor="middle" x="688" y="-456.5" font-family="Helvetica,sans-Serif" font-size="10.00"> &#45;_cameras</text>
</g>
<!-- Node18 -->
<g id="node18" class="node">
<title>Node18</title>
<g id="a_node18"><a xlink:title=" ">
<polygon fill="white" stroke="#bfbfbf" points="905.5,-761.5 905.5,-840.5 1021.5,-840.5 1021.5,-761.5 905.5,-761.5"/>
<text text-anchor="start" x="913.5" y="-828.5" font-family="Helvetica,sans-Serif" font-size="10.00">reference_wrapper&lt;</text>
<text text-anchor="start" x="913.5" y="-817.5" font-family="Helvetica,sans-Serif" font-size="10.00"> RayTracer::Entities</text>
<text text-anchor="middle" x="963.5" y="-806.5" font-family="Helvetica,sans-Serif" font-size="10.00">::ICamera &gt;</text>
<polyline fill="none" stroke="#bfbfbf" points="905.5,-799.5 1021.5,-799.5 "/>
<text text-anchor="middle" x="963.5" y="-787.5" font-family="Helvetica,sans-Serif" font-size="10.00"> </text>
<polyline fill="none" stroke="#bfbfbf" points="905.5,-780.5 1021.5,-780.5 "/>
<text text-anchor="middle" x="963.5" y="-768.5" font-family="Helvetica,sans-Serif" font-size="10.00"> </text>
</a>
</g>
</g>
<!-- Node18&#45;&gt;Node17 -->
<g id="edge18" class="edge">
<title>Node18&#45;&gt;Node17</title>
<path fill="none" stroke="#404040" d="M940.1,-761.23C925.52,-737.07 906.64,-705.79 891.03,-679.94"/>
<polygon fill="none" stroke="#404040" points="890.99,-679.87 884.47,-676.8 884.79,-669.59 891.32,-672.66 890.99,-679.87"/>
<text text-anchor="middle" x="956.5" y="-724" font-family="Helvetica,sans-Serif" font-size="10.00"> +elements</text>
</g>
<!-- Node19 -->
<g id="node19" class="node">
<title>Node19</title>
<g id="a_node19"><a xlink:title=" ">
<polygon fill="white" stroke="#bfbfbf" points="556,-237.5 556,-294.5 621,-294.5 621,-237.5 556,-237.5"/>
<text text-anchor="middle" x="588.5" y="-282.5" font-family="Helvetica,sans-Serif" font-size="10.00">std::string</text>
<polyline fill="none" stroke="#bfbfbf" points="556,-275.5 621,-275.5 "/>
<text text-anchor="middle" x="588.5" y="-263.5" font-family="Helvetica,sans-Serif" font-size="10.00"> </text>
<polyline fill="none" stroke="#bfbfbf" points="556,-256.5 621,-256.5 "/>
<text text-anchor="middle" x="588.5" y="-244.5" font-family="Helvetica,sans-Serif" font-size="10.00"> </text>
</a>
</g>
</g>
<!-- Node19&#45;&gt;Node1 -->
<g id="edge21" class="edge">
<title>Node19&#45;&gt;Node1</title>
<path fill="none" stroke="#404040" d="M555.91,-242.61C507.79,-209.55 416.86,-147.07 355.96,-105.23"/>
<polygon fill="none" stroke="#404040" points="355.6,-104.98 348.39,-104.88 345.71,-98.18 352.92,-98.28 355.6,-104.98"/>
<text text-anchor="middle" x="491" y="-156" font-family="Helvetica,sans-Serif" font-size="10.00"> &#45;_baseFilePath</text>
<text text-anchor="middle" x="491" y="-145" font-family="Helvetica,sans-Serif" font-size="10.00">&#45;_sceneConfFilePath</text>
</g>
<!-- Node20 -->
<g id="node20" class="node">
<title>Node20</title>
<g id="a_node20"><a xlink:title=" ">
<polygon fill="white" stroke="#bfbfbf" points="724.5,-425 724.5,-493 828.5,-493 828.5,-425 724.5,-425"/>
<text text-anchor="start" x="732.5" y="-481" font-family="Helvetica,sans-Serif" font-size="10.00">std::basic_string&lt;</text>
<text text-anchor="middle" x="776.5" y="-470" font-family="Helvetica,sans-Serif" font-size="10.00"> Char &gt;</text>
<polyline fill="none" stroke="#bfbfbf" points="724.5,-463 828.5,-463 "/>
<text text-anchor="middle" x="776.5" y="-451" font-family="Helvetica,sans-Serif" font-size="10.00"> </text>
<polyline fill="none" stroke="#bfbfbf" points="724.5,-444 828.5,-444 "/>
<text text-anchor="middle" x="776.5" y="-432" font-family="Helvetica,sans-Serif" font-size="10.00"> </text>
</a>
</g>
</g>
<!-- Node20&#45;&gt;Node19 -->
<g id="edge22" class="edge">
<title>Node20&#45;&gt;Node19</title>
<path fill="none" stroke="midnightblue" d="M736.71,-417.57C700.32,-380.6 647.47,-326.91 615.69,-294.63"/>
<polygon fill="none" stroke="midnightblue" points="734.24,-420.06 743.75,-424.73 739.23,-415.15 734.24,-420.06"/>
</g>
</g>
</svg>
