<?xml version="1.0" encoding="UTF-8" standalone="no"?>
<!DOCTYPE svg PUBLIC "-//W3C//DTD SVG 1.1//EN"
 "http://www.w3.org/Graphics/SVG/1.1/DTD/svg11.dtd">
<!-- Generated by graphviz version 2.43.0 (0)
 -->
<!-- Title: RayTracer::Entities::IEntity Pages: 1 -->
<svg width="2436pt" height="650pt"
 viewBox="0.00 0.00 2436.00 650.00" xmlns="http://www.w3.org/2000/svg" xmlns:xlink="http://www.w3.org/1999/xlink">
<g id="graph0" class="graph" transform="scale(1 1) rotate(0) translate(4 646)">
<title>RayTracer::Entities::IEntity</title>
<polygon fill="white" stroke="transparent" points="-4,4 -4,-646 2432,-646 2432,4 -4,4"/>
<!-- Node1 -->
<g id="node1" class="node">
<title>Node1</title>
<g id="a_node1"><a xlink:title="The IEntity class.">
<polygon fill="#bfbfbf" stroke="black" points="683.5,-540.5 683.5,-641.5 790.5,-641.5 790.5,-540.5 683.5,-540.5"/>
<text text-anchor="start" x="691.5" y="-629.5" font-family="Helvetica,sans-Serif" font-size="10.00">RayTracer::Entities</text>
<text text-anchor="middle" x="737" y="-618.5" font-family="Helvetica,sans-Serif" font-size="10.00">::IEntity</text>
<polyline fill="none" stroke="black" points="683.5,-611.5 790.5,-611.5 "/>
<text text-anchor="middle" x="737" y="-599.5" font-family="Helvetica,sans-Serif" font-size="10.00"> </text>
<polyline fill="none" stroke="black" points="683.5,-592.5 790.5,-592.5 "/>
<text text-anchor="start" x="691.5" y="-580.5" font-family="Helvetica,sans-Serif" font-size="10.00">+ ~IEntity()</text>
<text text-anchor="start" x="691.5" y="-569.5" font-family="Helvetica,sans-Serif" font-size="10.00">+ getTransform()</text>
<text text-anchor="start" x="691.5" y="-558.5" font-family="Helvetica,sans-Serif" font-size="10.00">+ getTransform()</text>
<text text-anchor="start" x="691.5" y="-547.5" font-family="Helvetica,sans-Serif" font-size="10.00">+ getType()</text>
</a>
</g>
</g>
<!-- Node2 -->
<g id="node2" class="node">
<title>Node2</title>
<g id="a_node2"><a xlink:href="$a01241.html" xlink:title="The ICamera class.">
<polygon fill="white" stroke="black" points="254.5,-336.5 254.5,-503.5 361.5,-503.5 361.5,-336.5 254.5,-336.5"/>
<text text-anchor="start" x="262.5" y="-491.5" font-family="Helvetica,sans-Serif" font-size="10.00">RayTracer::Entities</text>
<text text-anchor="middle" x="308" y="-480.5" font-family="Helvetica,sans-Serif" font-size="10.00">::ICamera</text>
<polyline fill="none" stroke="black" points="254.5,-473.5 361.5,-473.5 "/>
<text text-anchor="middle" x="308" y="-461.5" font-family="Helvetica,sans-Serif" font-size="10.00"> </text>
<polyline fill="none" stroke="black" points="254.5,-454.5 361.5,-454.5 "/>
<text text-anchor="start" x="262.5" y="-442.5" font-family="Helvetica,sans-Serif" font-size="10.00">+ ~ICamera()</text>
<text text-anchor="start" x="262.5" y="-431.5" font-family="Helvetica,sans-Serif" font-size="10.00">+ getFocal()</text>
<text text-anchor="start" x="262.5" y="-420.5" font-family="Helvetica,sans-Serif" font-size="10.00">+ setFocal()</text>
<text text-anchor="start" x="262.5" y="-409.5" font-family="Helvetica,sans-Serif" font-size="10.00">+ setSize()</text>
<text text-anchor="start" x="262.5" y="-398.5" font-family="Helvetica,sans-Serif" font-size="10.00">+ getSize()</text>
<text text-anchor="start" x="262.5" y="-387.5" font-family="Helvetica,sans-Serif" font-size="10.00">+ render()</text>
<text text-anchor="start" x="262.5" y="-376.5" font-family="Helvetica,sans-Serif" font-size="10.00">+ getImage()</text>
<text text-anchor="start" x="262.5" y="-365.5" font-family="Helvetica,sans-Serif" font-size="10.00">+ getFilters()</text>
<text text-anchor="start" x="262.5" y="-354.5" font-family="Helvetica,sans-Serif" font-size="10.00">+ setCluster()</text>
<text text-anchor="start" x="262.5" y="-343.5" font-family="Helvetica,sans-Serif" font-size="10.00">+ getCluster()</text>
</a>
</g>
</g>
<!-- Node1&#45;&gt;Node2 -->
<g id="edge1" class="edge">
<title>Node1&#45;&gt;Node2</title>
<path fill="none" stroke="midnightblue" d="M673.62,-565.03C589.1,-531.74 440.97,-473.38 361.68,-442.15"/>
<polygon fill="none" stroke="midnightblue" points="672.51,-568.36 683.1,-568.77 675.08,-561.85 672.51,-568.36"/>
</g>
<!-- Node6 -->
<g id="node6" class="node">
<title>Node6</title>
<g id="a_node6"><a xlink:href="$a01249.html" xlink:title="The ILight class.">
<polygon fill="white" stroke="black" points="683.5,-358.5 683.5,-481.5 790.5,-481.5 790.5,-358.5 683.5,-358.5"/>
<text text-anchor="start" x="691.5" y="-469.5" font-family="Helvetica,sans-Serif" font-size="10.00">RayTracer::Entities</text>
<text text-anchor="middle" x="737" y="-458.5" font-family="Helvetica,sans-Serif" font-size="10.00">::ILight</text>
<polyline fill="none" stroke="black" points="683.5,-451.5 790.5,-451.5 "/>
<text text-anchor="middle" x="737" y="-439.5" font-family="Helvetica,sans-Serif" font-size="10.00"> </text>
<polyline fill="none" stroke="black" points="683.5,-432.5 790.5,-432.5 "/>
<text text-anchor="start" x="691.5" y="-420.5" font-family="Helvetica,sans-Serif" font-size="10.00">+ ~ILight()</text>
<text text-anchor="start" x="691.5" y="-409.5" font-family="Helvetica,sans-Serif" font-size="10.00">+ getColor()</text>
<text text-anchor="start" x="691.5" y="-398.5" font-family="Helvetica,sans-Serif" font-size="10.00">+ getColor()</text>
<text text-anchor="start" x="691.5" y="-387.5" font-family="Helvetica,sans-Serif" font-size="10.00">+ setColor()</text>
<text text-anchor="start" x="691.5" y="-376.5" font-family="Helvetica,sans-Serif" font-size="10.00">+ isAmbient()</text>
<text text-anchor="start" x="691.5" y="-365.5" font-family="Helvetica,sans-Serif" font-size="10.00">+ getPower()</text>
</a>
</g>
</g>
<!-- Node1&#45;&gt;Node6 -->
<g id="edge5" class="edge">
<title>Node1&#45;&gt;Node6</title>
<path fill="none" stroke="midnightblue" d="M737,-530.11C737,-514.44 737,-497.53 737,-481.8"/>
<polygon fill="none" stroke="midnightblue" points="733.5,-530.21 737,-540.21 740.5,-530.21 733.5,-530.21"/>
</g>
<!-- Node10 -->
<g id="node10" class="node">
<title>Node10</title>
<g id="a_node10"><a xlink:href="$a01257.html" xlink:title="The IPrimitive class.">
<polygon fill="white" stroke="black" points="1570,-364 1570,-476 1682,-476 1682,-364 1570,-364"/>
<text text-anchor="start" x="1578" y="-464" font-family="Helvetica,sans-Serif" font-size="10.00">RayTracer::Entities</text>
<text text-anchor="middle" x="1626" y="-453" font-family="Helvetica,sans-Serif" font-size="10.00">::IPrimitive</text>
<polyline fill="none" stroke="black" points="1570,-446 1682,-446 "/>
<text text-anchor="middle" x="1626" y="-434" font-family="Helvetica,sans-Serif" font-size="10.00"> </text>
<polyline fill="none" stroke="black" points="1570,-427 1682,-427 "/>
<text text-anchor="start" x="1578" y="-415" font-family="Helvetica,sans-Serif" font-size="10.00">+ ~IPrimitive()</text>
<text text-anchor="start" x="1578" y="-404" font-family="Helvetica,sans-Serif" font-size="10.00">+ getColor()</text>
<text text-anchor="start" x="1578" y="-393" font-family="Helvetica,sans-Serif" font-size="10.00">+ isCollided()</text>
<text text-anchor="start" x="1578" y="-382" font-family="Helvetica,sans-Serif" font-size="10.00">+ isCollided()</text>
<text text-anchor="start" x="1578" y="-371" font-family="Helvetica,sans-Serif" font-size="10.00">+ redirectionLight()</text>
</a>
</g>
</g>
<!-- Node1&#45;&gt;Node10 -->
<g id="edge9" class="edge">
<title>Node1&#45;&gt;Node10</title>
<path fill="none" stroke="midnightblue" d="M800.68,-577.89C966.95,-546.29 1412.17,-461.65 1569.76,-431.69"/>
<polygon fill="none" stroke="midnightblue" points="799.78,-574.5 790.61,-579.81 801.09,-581.38 799.78,-574.5"/>
</g>
<!-- Node3 -->
<g id="node3" class="node">
<title>Node3</title>
<g id="a_node3"><a xlink:href="$a01521.html" xlink:title=" ">
<polygon fill="white" stroke="black" points="0,-11.5 0,-288.5 134,-288.5 134,-11.5 0,-11.5"/>
<text text-anchor="start" x="8" y="-276.5" font-family="Helvetica,sans-Serif" font-size="10.00">RayTracer::PluginsExt</text>
<text text-anchor="middle" x="67" y="-265.5" font-family="Helvetica,sans-Serif" font-size="10.00">::Camera::CameraEntity</text>
<polyline fill="none" stroke="black" points="0,-258.5 134,-258.5 "/>
<text text-anchor="start" x="8" y="-246.5" font-family="Helvetica,sans-Serif" font-size="10.00">&#45; _image</text>
<text text-anchor="start" x="8" y="-235.5" font-family="Helvetica,sans-Serif" font-size="10.00">&#45; _size</text>
<text text-anchor="start" x="8" y="-224.5" font-family="Helvetica,sans-Serif" font-size="10.00">&#45; _focal</text>
<text text-anchor="start" x="8" y="-213.5" font-family="Helvetica,sans-Serif" font-size="10.00">&#45; _filters</text>
<text text-anchor="start" x="8" y="-202.5" font-family="Helvetica,sans-Serif" font-size="10.00">&#45; _transform</text>
<text text-anchor="start" x="8" y="-191.5" font-family="Helvetica,sans-Serif" font-size="10.00">&#45; _maxThread</text>
<text text-anchor="start" x="8" y="-180.5" font-family="Helvetica,sans-Serif" font-size="10.00">&#45; _logger</text>
<polyline fill="none" stroke="black" points="0,-173.5 134,-173.5 "/>
<text text-anchor="start" x="8" y="-161.5" font-family="Helvetica,sans-Serif" font-size="10.00">+ CameraEntity()</text>
<text text-anchor="start" x="8" y="-150.5" font-family="Helvetica,sans-Serif" font-size="10.00">+ ~CameraEntity()</text>
<text text-anchor="start" x="8" y="-139.5" font-family="Helvetica,sans-Serif" font-size="10.00">+ getType()</text>
<text text-anchor="start" x="8" y="-128.5" font-family="Helvetica,sans-Serif" font-size="10.00">+ getTransform()</text>
<text text-anchor="start" x="8" y="-117.5" font-family="Helvetica,sans-Serif" font-size="10.00">+ getTransform()</text>
<text text-anchor="start" x="8" y="-106.5" font-family="Helvetica,sans-Serif" font-size="10.00">+ getFocal()</text>
<text text-anchor="start" x="8" y="-95.5" font-family="Helvetica,sans-Serif" font-size="10.00">+ setFocal()</text>
<text text-anchor="start" x="8" y="-84.5" font-family="Helvetica,sans-Serif" font-size="10.00">+ setSize()</text>
<text text-anchor="start" x="8" y="-73.5" font-family="Helvetica,sans-Serif" font-size="10.00">+ getSize()</text>
<text text-anchor="start" x="8" y="-62.5" font-family="Helvetica,sans-Serif" font-size="10.00">+ render()</text>
<text text-anchor="start" x="8" y="-51.5" font-family="Helvetica,sans-Serif" font-size="10.00">+ getImage()</text>
<text text-anchor="start" x="8" y="-40.5" font-family="Helvetica,sans-Serif" font-size="10.00">+ getFilters()</text>
<text text-anchor="start" x="8" y="-29.5" font-family="Helvetica,sans-Serif" font-size="10.00">+ getCluster()</text>
<text text-anchor="start" x="8" y="-18.5" font-family="Helvetica,sans-Serif" font-size="10.00">+ setCluster()</text>
</a>
</g>
</g>
<!-- Node2&#45;&gt;Node3 -->
<g id="edge2" class="edge">
<title>Node2&#45;&gt;Node3</title>
<path fill="none" stroke="midnightblue" d="M245.42,-383.89C211.94,-362.81 171.81,-333.6 143,-300 139.88,-296.36 136.85,-292.58 133.9,-288.67"/>
<polygon fill="none" stroke="midnightblue" points="243.88,-387.05 254.22,-389.34 247.56,-381.1 243.88,-387.05"/>
</g>
<!-- Node4 -->
<g id="node4" class="node">
<title>Node4</title>
<g id="a_node4"><a xlink:href="$a01529.html" xlink:title=" ">
<polygon fill="white" stroke="black" points="152.5,-0.5 152.5,-299.5 297.5,-299.5 297.5,-0.5 152.5,-0.5"/>
<text text-anchor="start" x="160.5" y="-287.5" font-family="Helvetica,sans-Serif" font-size="10.00">RayTracer::PluginsExt</text>
<text text-anchor="start" x="160.5" y="-276.5" font-family="Helvetica,sans-Serif" font-size="10.00">::Camera::Clustered::</text>
<text text-anchor="middle" x="225" y="-265.5" font-family="Helvetica,sans-Serif" font-size="10.00">CameraClusterEntity</text>
<polyline fill="none" stroke="black" points="152.5,-258.5 297.5,-258.5 "/>
<text text-anchor="start" x="160.5" y="-246.5" font-family="Helvetica,sans-Serif" font-size="10.00">&#45; _screen</text>
<text text-anchor="start" x="160.5" y="-235.5" font-family="Helvetica,sans-Serif" font-size="10.00">&#45; _screenSize</text>
<text text-anchor="start" x="160.5" y="-224.5" font-family="Helvetica,sans-Serif" font-size="10.00">&#45; _fov</text>
<text text-anchor="start" x="160.5" y="-213.5" font-family="Helvetica,sans-Serif" font-size="10.00">&#45; _maxThread</text>
<text text-anchor="start" x="160.5" y="-202.5" font-family="Helvetica,sans-Serif" font-size="10.00">&#45; _cluster</text>
<text text-anchor="start" x="160.5" y="-191.5" font-family="Helvetica,sans-Serif" font-size="10.00">&#45; _image</text>
<text text-anchor="start" x="160.5" y="-180.5" font-family="Helvetica,sans-Serif" font-size="10.00">&#45; _filters</text>
<text text-anchor="start" x="160.5" y="-169.5" font-family="Helvetica,sans-Serif" font-size="10.00">&#45; _logger</text>
<polyline fill="none" stroke="black" points="152.5,-162.5 297.5,-162.5 "/>
<text text-anchor="start" x="160.5" y="-150.5" font-family="Helvetica,sans-Serif" font-size="10.00">+ CameraClusterEntity()</text>
<text text-anchor="start" x="160.5" y="-139.5" font-family="Helvetica,sans-Serif" font-size="10.00">+ ~CameraClusterEntity()</text>
<text text-anchor="start" x="160.5" y="-128.5" font-family="Helvetica,sans-Serif" font-size="10.00">+ getType()</text>
<text text-anchor="start" x="160.5" y="-117.5" font-family="Helvetica,sans-Serif" font-size="10.00">+ getTransform()</text>
<text text-anchor="start" x="160.5" y="-106.5" font-family="Helvetica,sans-Serif" font-size="10.00">+ getTransform()</text>
<text text-anchor="start" x="160.5" y="-95.5" font-family="Helvetica,sans-Serif" font-size="10.00">+ getFocal()</text>
<text text-anchor="start" x="160.5" y="-84.5" font-family="Helvetica,sans-Serif" font-size="10.00">+ setFocal()</text>
<text text-anchor="start" x="160.5" y="-73.5" font-family="Helvetica,sans-Serif" font-size="10.00">+ setSize()</text>
<text text-anchor="start" x="160.5" y="-62.5" font-family="Helvetica,sans-Serif" font-size="10.00">+ getSize()</text>
<text text-anchor="start" x="160.5" y="-51.5" font-family="Helvetica,sans-Serif" font-size="10.00">+ render()</text>
<text text-anchor="start" x="160.5" y="-40.5" font-family="Helvetica,sans-Serif" font-size="10.00">+ getImage()</text>
<text text-anchor="start" x="160.5" y="-29.5" font-family="Helvetica,sans-Serif" font-size="10.00">+ getFilters()</text>
<text text-anchor="start" x="160.5" y="-18.5" font-family="Helvetica,sans-Serif" font-size="10.00">+ getCluster()</text>
<text text-anchor="start" x="160.5" y="-7.5" font-family="Helvetica,sans-Serif" font-size="10.00">+ setCluster()</text>
</a>
</g>
</g>
<!-- Node2&#45;&gt;Node4 -->
<g id="edge3" class="edge">
<title>Node2&#45;&gt;Node4</title>
<path fill="none" stroke="midnightblue" d="M279.41,-326.69C276.71,-317.97 273.93,-309 271.12,-299.93"/>
<polygon fill="none" stroke="midnightblue" points="276.12,-327.89 282.42,-336.4 282.8,-325.82 276.12,-327.89"/>
</g>
<!-- Node5 -->
<g id="node5" class="node">
<title>Node5</title>
<g id="a_node5"><a xlink:href="$a01545.html" xlink:title=" ">
<polygon fill="white" stroke="black" points="316,-6 316,-294 464,-294 464,-6 316,-6"/>
<text text-anchor="start" x="324" y="-282" font-family="Helvetica,sans-Serif" font-size="10.00">RayTracer::PluginsExt</text>
<text text-anchor="start" x="324" y="-271" font-family="Helvetica,sans-Serif" font-size="10.00">::Camera::FullCustom</text>
<text text-anchor="middle" x="390" y="-260" font-family="Helvetica,sans-Serif" font-size="10.00">::CameraCustomEntity</text>
<polyline fill="none" stroke="black" points="316,-253 464,-253 "/>
<text text-anchor="start" x="324" y="-241" font-family="Helvetica,sans-Serif" font-size="10.00">&#45; _positionCamera</text>
<text text-anchor="start" x="324" y="-230" font-family="Helvetica,sans-Serif" font-size="10.00">&#45; _screenSize</text>
<text text-anchor="start" x="324" y="-219" font-family="Helvetica,sans-Serif" font-size="10.00">&#45; _fov</text>
<text text-anchor="start" x="324" y="-208" font-family="Helvetica,sans-Serif" font-size="10.00">&#45; _image</text>
<text text-anchor="start" x="324" y="-197" font-family="Helvetica,sans-Serif" font-size="10.00">&#45; _filters</text>
<text text-anchor="start" x="324" y="-186" font-family="Helvetica,sans-Serif" font-size="10.00">&#45; _maxThread</text>
<text text-anchor="start" x="324" y="-175" font-family="Helvetica,sans-Serif" font-size="10.00">&#45; _logger</text>
<polyline fill="none" stroke="black" points="316,-168 464,-168 "/>
<text text-anchor="start" x="324" y="-156" font-family="Helvetica,sans-Serif" font-size="10.00">+ CameraCustomEntity()</text>
<text text-anchor="start" x="324" y="-145" font-family="Helvetica,sans-Serif" font-size="10.00">+ ~CameraCustomEntity()</text>
<text text-anchor="start" x="324" y="-134" font-family="Helvetica,sans-Serif" font-size="10.00">+ getType()</text>
<text text-anchor="start" x="324" y="-123" font-family="Helvetica,sans-Serif" font-size="10.00">+ getTransform()</text>
<text text-anchor="start" x="324" y="-112" font-family="Helvetica,sans-Serif" font-size="10.00">+ getTransform()</text>
<text text-anchor="start" x="324" y="-101" font-family="Helvetica,sans-Serif" font-size="10.00">+ getFocal()</text>
<text text-anchor="start" x="324" y="-90" font-family="Helvetica,sans-Serif" font-size="10.00">+ setFocal()</text>
<text text-anchor="start" x="324" y="-79" font-family="Helvetica,sans-Serif" font-size="10.00">+ setSize()</text>
<text text-anchor="start" x="324" y="-68" font-family="Helvetica,sans-Serif" font-size="10.00">+ getSize()</text>
<text text-anchor="start" x="324" y="-57" font-family="Helvetica,sans-Serif" font-size="10.00">+ render()</text>
<text text-anchor="start" x="324" y="-46" font-family="Helvetica,sans-Serif" font-size="10.00">+ getImage()</text>
<text text-anchor="start" x="324" y="-35" font-family="Helvetica,sans-Serif" font-size="10.00">+ getFilters()</text>
<text text-anchor="start" x="324" y="-24" font-family="Helvetica,sans-Serif" font-size="10.00">+ getCluster()</text>
<text text-anchor="start" x="324" y="-13" font-family="Helvetica,sans-Serif" font-size="10.00">+ setCluster()</text>
</a>
</g>
</g>
<!-- Node2&#45;&gt;Node5 -->
<g id="edge4" class="edge">
<title>Node2&#45;&gt;Node5</title>
<path fill="none" stroke="midnightblue" d="M336.22,-326.76C339.47,-316.13 342.85,-305.11 346.24,-294.01"/>
<polygon fill="none" stroke="midnightblue" points="332.85,-325.82 333.27,-336.4 339.54,-327.87 332.85,-325.82"/>
</g>
<!-- Node7 -->
<g id="node7" class="node">
<title>Node7</title>
<g id="a_node7"><a xlink:href="$a01505.html" xlink:title=" ">
<polygon fill="white" stroke="black" points="482.5,-44.5 482.5,-255.5 641.5,-255.5 641.5,-44.5 482.5,-44.5"/>
<text text-anchor="start" x="490.5" y="-243.5" font-family="Helvetica,sans-Serif" font-size="10.00">RayTracer::PluginsExt</text>
<text text-anchor="start" x="490.5" y="-232.5" font-family="Helvetica,sans-Serif" font-size="10.00">::AmbientLight::AmbientLight</text>
<text text-anchor="middle" x="562" y="-221.5" font-family="Helvetica,sans-Serif" font-size="10.00">Entity</text>
<polyline fill="none" stroke="black" points="482.5,-214.5 641.5,-214.5 "/>
<text text-anchor="start" x="490.5" y="-202.5" font-family="Helvetica,sans-Serif" font-size="10.00">&#45; _transform</text>
<text text-anchor="start" x="490.5" y="-191.5" font-family="Helvetica,sans-Serif" font-size="10.00">&#45; _color</text>
<text text-anchor="start" x="490.5" y="-180.5" font-family="Helvetica,sans-Serif" font-size="10.00">&#45; _logger</text>
<text text-anchor="start" x="490.5" y="-169.5" font-family="Helvetica,sans-Serif" font-size="10.00">&#45; _power</text>
<polyline fill="none" stroke="black" points="482.5,-162.5 641.5,-162.5 "/>
<text text-anchor="start" x="490.5" y="-150.5" font-family="Helvetica,sans-Serif" font-size="10.00">+ AmbientLightEntity()</text>
<text text-anchor="start" x="490.5" y="-139.5" font-family="Helvetica,sans-Serif" font-size="10.00">+ ~AmbientLightEntity()</text>
<text text-anchor="start" x="490.5" y="-128.5" font-family="Helvetica,sans-Serif" font-size="10.00">+ getType()</text>
<text text-anchor="start" x="490.5" y="-117.5" font-family="Helvetica,sans-Serif" font-size="10.00">+ getTransform()</text>
<text text-anchor="start" x="490.5" y="-106.5" font-family="Helvetica,sans-Serif" font-size="10.00">+ getTransform()</text>
<text text-anchor="start" x="490.5" y="-95.5" font-family="Helvetica,sans-Serif" font-size="10.00">+ getColor()</text>
<text text-anchor="start" x="490.5" y="-84.5" font-family="Helvetica,sans-Serif" font-size="10.00">+ getColor()</text>
<text text-anchor="start" x="490.5" y="-73.5" font-family="Helvetica,sans-Serif" font-size="10.00">+ setColor()</text>
<text text-anchor="start" x="490.5" y="-62.5" font-family="Helvetica,sans-Serif" font-size="10.00">+ isAmbient()</text>
<text text-anchor="start" x="490.5" y="-51.5" font-family="Helvetica,sans-Serif" font-size="10.00">+ getPower()</text>
</a>
</g>
</g>
<!-- Node6&#45;&gt;Node7 -->
<g id="edge6" class="edge">
<title>Node6&#45;&gt;Node7</title>
<path fill="none" stroke="midnightblue" d="M684.81,-350C673.05,-333.81 660.85,-316.47 650,-300 640.66,-285.82 631.16,-270.65 622.02,-255.6"/>
<polygon fill="none" stroke="midnightblue" points="682.18,-352.34 690.9,-358.35 687.83,-348.21 682.18,-352.34"/>
</g>
<!-- Node8 -->
<g id="node8" class="node">
<title>Node8</title>
<g id="a_node8"><a xlink:href="$a01633.html" xlink:title=" ">
<polygon fill="white" stroke="black" points="659.5,-44.5 659.5,-255.5 814.5,-255.5 814.5,-44.5 659.5,-44.5"/>
<text text-anchor="start" x="667.5" y="-243.5" font-family="Helvetica,sans-Serif" font-size="10.00">RayTracer::PluginsExt</text>
<text text-anchor="middle" x="737" y="-232.5" font-family="Helvetica,sans-Serif" font-size="10.00">::PointLight::PointLightEntity</text>
<polyline fill="none" stroke="black" points="659.5,-225.5 814.5,-225.5 "/>
<text text-anchor="start" x="667.5" y="-213.5" font-family="Helvetica,sans-Serif" font-size="10.00">&#45; _transform</text>
<text text-anchor="start" x="667.5" y="-202.5" font-family="Helvetica,sans-Serif" font-size="10.00">&#45; _color</text>
<text text-anchor="start" x="667.5" y="-191.5" font-family="Helvetica,sans-Serif" font-size="10.00">&#45; _logger</text>
<text text-anchor="start" x="667.5" y="-180.5" font-family="Helvetica,sans-Serif" font-size="10.00">&#45; _power</text>
<text text-anchor="start" x="667.5" y="-169.5" font-family="Helvetica,sans-Serif" font-size="10.00">&#45; _radius</text>
<polyline fill="none" stroke="black" points="659.5,-162.5 814.5,-162.5 "/>
<text text-anchor="start" x="667.5" y="-150.5" font-family="Helvetica,sans-Serif" font-size="10.00">+ PointLightEntity()</text>
<text text-anchor="start" x="667.5" y="-139.5" font-family="Helvetica,sans-Serif" font-size="10.00">+ ~PointLightEntity()</text>
<text text-anchor="start" x="667.5" y="-128.5" font-family="Helvetica,sans-Serif" font-size="10.00">+ getType()</text>
<text text-anchor="start" x="667.5" y="-117.5" font-family="Helvetica,sans-Serif" font-size="10.00">+ getTransform()</text>
<text text-anchor="start" x="667.5" y="-106.5" font-family="Helvetica,sans-Serif" font-size="10.00">+ getTransform()</text>
<text text-anchor="start" x="667.5" y="-95.5" font-family="Helvetica,sans-Serif" font-size="10.00">+ getColor()</text>
<text text-anchor="start" x="667.5" y="-84.5" font-family="Helvetica,sans-Serif" font-size="10.00">+ getColor()</text>
<text text-anchor="start" x="667.5" y="-73.5" font-family="Helvetica,sans-Serif" font-size="10.00">+ setColor()</text>
<text text-anchor="start" x="667.5" y="-62.5" font-family="Helvetica,sans-Serif" font-size="10.00">+ isAmbient()</text>
<text text-anchor="start" x="667.5" y="-51.5" font-family="Helvetica,sans-Serif" font-size="10.00">+ getPower()</text>
</a>
</g>
</g>
<!-- Node6&#45;&gt;Node8 -->
<g id="edge7" class="edge">
<title>Node6&#45;&gt;Node8</title>
<path fill="none" stroke="midnightblue" d="M737,-348.01C737,-319.76 737,-286.66 737,-255.76"/>
<polygon fill="none" stroke="midnightblue" points="733.5,-348.19 737,-358.19 740.5,-348.19 733.5,-348.19"/>
</g>
<!-- Node9 -->
<g id="node9" class="node">
<title>Node9</title>
<g id="a_node9"><a xlink:href="$a01649.html" xlink:title=" ">
<polygon fill="white" stroke="black" points="832.5,-39 832.5,-261 981.5,-261 981.5,-39 832.5,-39"/>
<text text-anchor="start" x="840.5" y="-249" font-family="Helvetica,sans-Serif" font-size="10.00">RayTracer::PluginsExt</text>
<text text-anchor="middle" x="907" y="-238" font-family="Helvetica,sans-Serif" font-size="10.00">::SpotLight::SpotLightEntity</text>
<polyline fill="none" stroke="black" points="832.5,-231 981.5,-231 "/>
<text text-anchor="start" x="840.5" y="-219" font-family="Helvetica,sans-Serif" font-size="10.00">&#45; _transform</text>
<text text-anchor="start" x="840.5" y="-208" font-family="Helvetica,sans-Serif" font-size="10.00">&#45; _color</text>
<text text-anchor="start" x="840.5" y="-197" font-family="Helvetica,sans-Serif" font-size="10.00">&#45; _logger</text>
<text text-anchor="start" x="840.5" y="-186" font-family="Helvetica,sans-Serif" font-size="10.00">&#45; _power</text>
<text text-anchor="start" x="840.5" y="-175" font-family="Helvetica,sans-Serif" font-size="10.00">&#45; _radius</text>
<text text-anchor="start" x="840.5" y="-164" font-family="Helvetica,sans-Serif" font-size="10.00">&#45; _angle</text>
<polyline fill="none" stroke="black" points="832.5,-157 981.5,-157 "/>
<text text-anchor="start" x="840.5" y="-145" font-family="Helvetica,sans-Serif" font-size="10.00">+ SpotLightEntity()</text>
<text text-anchor="start" x="840.5" y="-134" font-family="Helvetica,sans-Serif" font-size="10.00">+ ~SpotLightEntity()</text>
<text text-anchor="start" x="840.5" y="-123" font-family="Helvetica,sans-Serif" font-size="10.00">+ getType()</text>
<text text-anchor="start" x="840.5" y="-112" font-family="Helvetica,sans-Serif" font-size="10.00">+ getTransform()</text>
<text text-anchor="start" x="840.5" y="-101" font-family="Helvetica,sans-Serif" font-size="10.00">+ getTransform()</text>
<text text-anchor="start" x="840.5" y="-90" font-family="Helvetica,sans-Serif" font-size="10.00">+ getColor()</text>
<text text-anchor="start" x="840.5" y="-79" font-family="Helvetica,sans-Serif" font-size="10.00">+ getColor()</text>
<text text-anchor="start" x="840.5" y="-68" font-family="Helvetica,sans-Serif" font-size="10.00">+ setColor()</text>
<text text-anchor="start" x="840.5" y="-57" font-family="Helvetica,sans-Serif" font-size="10.00">+ isAmbient()</text>
<text text-anchor="start" x="840.5" y="-46" font-family="Helvetica,sans-Serif" font-size="10.00">+ getPower()</text>
</a>
</g>
</g>
<!-- Node6&#45;&gt;Node9 -->
<g id="edge8" class="edge">
<title>Node6&#45;&gt;Node9</title>
<path fill="none" stroke="midnightblue" d="M788.78,-350.11C800.4,-333.91 812.41,-316.54 823,-300 830.93,-287.62 838.93,-274.46 846.68,-261.28"/>
<polygon fill="none" stroke="midnightblue" points="785.77,-348.3 782.76,-358.46 791.45,-352.4 785.77,-348.3"/>
</g>
<!-- Node11 -->
<g id="node11" class="node">
<title>Node11</title>
<g id="a_node11"><a xlink:href="$a01569.html" xlink:title=" ">
<polygon fill="white" stroke="black" points="1000,-61 1000,-239 1122,-239 1122,-61 1000,-61"/>
<text text-anchor="start" x="1008" y="-227" font-family="Helvetica,sans-Serif" font-size="10.00">RayTracer::PluginsExt</text>
<text text-anchor="middle" x="1061" y="-216" font-family="Helvetica,sans-Serif" font-size="10.00">::Cone::ConeEntity</text>
<polyline fill="none" stroke="black" points="1000,-209 1122,-209 "/>
<text text-anchor="start" x="1008" y="-197" font-family="Helvetica,sans-Serif" font-size="10.00">&#45; _transform</text>
<text text-anchor="start" x="1008" y="-186" font-family="Helvetica,sans-Serif" font-size="10.00">&#45; _angle</text>
<text text-anchor="start" x="1008" y="-175" font-family="Helvetica,sans-Serif" font-size="10.00">&#45; _logger</text>
<text text-anchor="start" x="1008" y="-164" font-family="Helvetica,sans-Serif" font-size="10.00">&#45; _material</text>
<polyline fill="none" stroke="black" points="1000,-157 1122,-157 "/>
<text text-anchor="start" x="1008" y="-145" font-family="Helvetica,sans-Serif" font-size="10.00">+ ConeEntity()</text>
<text text-anchor="start" x="1008" y="-134" font-family="Helvetica,sans-Serif" font-size="10.00">+ getType()</text>
<text text-anchor="start" x="1008" y="-123" font-family="Helvetica,sans-Serif" font-size="10.00">+ getTransform()</text>
<text text-anchor="start" x="1008" y="-112" font-family="Helvetica,sans-Serif" font-size="10.00">+ getTransform()</text>
<text text-anchor="start" x="1008" y="-101" font-family="Helvetica,sans-Serif" font-size="10.00">+ isCollided()</text>
<text text-anchor="start" x="1008" y="-90" font-family="Helvetica,sans-Serif" font-size="10.00">+ isCollided()</text>
<text text-anchor="start" x="1008" y="-79" font-family="Helvetica,sans-Serif" font-size="10.00">+ getColor()</text>
<text text-anchor="start" x="1008" y="-68" font-family="Helvetica,sans-Serif" font-size="10.00">+ redirectionLight()</text>
</a>
</g>
</g>
<!-- Node10&#45;&gt;Node11 -->
<g id="edge10" class="edge">
<title>Node10&#45;&gt;Node11</title>
<path fill="none" stroke="midnightblue" d="M1559.91,-410.3C1440.85,-393.5 1196.58,-353.44 1131,-300 1111.61,-284.2 1097.3,-261.8 1086.86,-239.15"/>
<polygon fill="none" stroke="midnightblue" points="1559.61,-413.8 1570,-411.71 1560.58,-406.86 1559.61,-413.8"/>
</g>
<!-- Node12 -->
<g id="node12" class="node">
<title>Node12</title>
<g id="a_node12"><a xlink:href="$a01577.html" xlink:title=" ">
<polygon fill="white" stroke="black" points="1140,-55.5 1140,-244.5 1278,-244.5 1278,-55.5 1140,-55.5"/>
<text text-anchor="start" x="1148" y="-232.5" font-family="Helvetica,sans-Serif" font-size="10.00">RayTracer::PluginsExt</text>
<text text-anchor="middle" x="1209" y="-221.5" font-family="Helvetica,sans-Serif" font-size="10.00">::Cylinder::CylinderEntity</text>
<polyline fill="none" stroke="black" points="1140,-214.5 1278,-214.5 "/>
<text text-anchor="start" x="1148" y="-202.5" font-family="Helvetica,sans-Serif" font-size="10.00">&#45; _transform</text>
<text text-anchor="start" x="1148" y="-191.5" font-family="Helvetica,sans-Serif" font-size="10.00">&#45; _direction</text>
<text text-anchor="start" x="1148" y="-180.5" font-family="Helvetica,sans-Serif" font-size="10.00">&#45; _radius</text>
<text text-anchor="start" x="1148" y="-169.5" font-family="Helvetica,sans-Serif" font-size="10.00">&#45; _logger</text>
<text text-anchor="start" x="1148" y="-158.5" font-family="Helvetica,sans-Serif" font-size="10.00">&#45; _material</text>
<polyline fill="none" stroke="black" points="1140,-151.5 1278,-151.5 "/>
<text text-anchor="start" x="1148" y="-139.5" font-family="Helvetica,sans-Serif" font-size="10.00">+ CylinderEntity()</text>
<text text-anchor="start" x="1148" y="-128.5" font-family="Helvetica,sans-Serif" font-size="10.00">+ getType()</text>
<text text-anchor="start" x="1148" y="-117.5" font-family="Helvetica,sans-Serif" font-size="10.00">+ getTransform()</text>
<text text-anchor="start" x="1148" y="-106.5" font-family="Helvetica,sans-Serif" font-size="10.00">+ getTransform()</text>
<text text-anchor="start" x="1148" y="-95.5" font-family="Helvetica,sans-Serif" font-size="10.00">+ isCollided()</text>
<text text-anchor="start" x="1148" y="-84.5" font-family="Helvetica,sans-Serif" font-size="10.00">+ isCollided()</text>
<text text-anchor="start" x="1148" y="-73.5" font-family="Helvetica,sans-Serif" font-size="10.00">+ getColor()</text>
<text text-anchor="start" x="1148" y="-62.5" font-family="Helvetica,sans-Serif" font-size="10.00">+ redirectionLight()</text>
</a>
</g>
</g>
<!-- Node10&#45;&gt;Node12 -->
<g id="edge11" class="edge">
<title>Node10&#45;&gt;Node12</title>
<path fill="none" stroke="midnightblue" d="M1559.69,-410.48C1485.56,-397.9 1365.63,-368 1287,-300 1269.55,-284.91 1255.45,-264.95 1244.28,-244.55"/>
<polygon fill="none" stroke="midnightblue" points="1559.4,-413.98 1569.83,-412.15 1560.53,-407.07 1559.4,-413.98"/>
</g>
<!-- Node13 -->
<g id="node13" class="node">
<title>Node13</title>
<g id="a_node13"><a xlink:href="$a01585.html" xlink:title=" ">
<polygon fill="white" stroke="black" points="1296,-61 1296,-239 1418,-239 1418,-61 1296,-61"/>
<text text-anchor="start" x="1304" y="-227" font-family="Helvetica,sans-Serif" font-size="10.00">RayTracer::PluginsExt</text>
<text text-anchor="middle" x="1357" y="-216" font-family="Helvetica,sans-Serif" font-size="10.00">::Disk::DiskEntity</text>
<polyline fill="none" stroke="black" points="1296,-209 1418,-209 "/>
<text text-anchor="start" x="1304" y="-197" font-family="Helvetica,sans-Serif" font-size="10.00">&#45; _transform</text>
<text text-anchor="start" x="1304" y="-186" font-family="Helvetica,sans-Serif" font-size="10.00">&#45; _radius</text>
<text text-anchor="start" x="1304" y="-175" font-family="Helvetica,sans-Serif" font-size="10.00">&#45; _material</text>
<text text-anchor="start" x="1304" y="-164" font-family="Helvetica,sans-Serif" font-size="10.00">&#45; _logger</text>
<polyline fill="none" stroke="black" points="1296,-157 1418,-157 "/>
<text text-anchor="start" x="1304" y="-145" font-family="Helvetica,sans-Serif" font-size="10.00">+ DiskEntity()</text>
<text text-anchor="start" x="1304" y="-134" font-family="Helvetica,sans-Serif" font-size="10.00">+ getType()</text>
<text text-anchor="start" x="1304" y="-123" font-family="Helvetica,sans-Serif" font-size="10.00">+ getTransform()</text>
<text text-anchor="start" x="1304" y="-112" font-family="Helvetica,sans-Serif" font-size="10.00">+ getTransform()</text>
<text text-anchor="start" x="1304" y="-101" font-family="Helvetica,sans-Serif" font-size="10.00">+ isCollided()</text>
<text text-anchor="start" x="1304" y="-90" font-family="Helvetica,sans-Serif" font-size="10.00">+ isCollided()</text>
<text text-anchor="start" x="1304" y="-79" font-family="Helvetica,sans-Serif" font-size="10.00">+ getColor()</text>
<text text-anchor="start" x="1304" y="-68" font-family="Helvetica,sans-Serif" font-size="10.00">+ redirectionLight()</text>
</a>
</g>
</g>
<!-- Node10&#45;&gt;Node13 -->
<g id="edge12" class="edge">
<title>Node10&#45;&gt;Node13</title>
<path fill="none" stroke="midnightblue" d="M1560.48,-392.04C1517.99,-371.86 1463.86,-340.74 1427,-300 1411.08,-282.41 1398.13,-260.56 1387.89,-239.07"/>
<polygon fill="none" stroke="midnightblue" points="1559.1,-395.26 1569.64,-396.31 1562.05,-388.91 1559.1,-395.26"/>
</g>
<!-- Node14 -->
<g id="node14" class="node">
<title>Node14</title>
<g id="a_node14"><a xlink:href="$a01593.html" xlink:title=" ">
<polygon fill="white" stroke="black" points="1436,-55.5 1436,-244.5 1616,-244.5 1616,-55.5 1436,-55.5"/>
<text text-anchor="start" x="1444" y="-232.5" font-family="Helvetica,sans-Serif" font-size="10.00">RayTracer::PluginsExt</text>
<text text-anchor="middle" x="1526" y="-221.5" font-family="Helvetica,sans-Serif" font-size="10.00">::LimitedCone::LimitedConeEntity</text>
<polyline fill="none" stroke="black" points="1436,-214.5 1616,-214.5 "/>
<text text-anchor="start" x="1444" y="-202.5" font-family="Helvetica,sans-Serif" font-size="10.00">&#45; _transform</text>
<text text-anchor="start" x="1444" y="-191.5" font-family="Helvetica,sans-Serif" font-size="10.00">&#45; _angle</text>
<text text-anchor="start" x="1444" y="-180.5" font-family="Helvetica,sans-Serif" font-size="10.00">&#45; _logger</text>
<text text-anchor="start" x="1444" y="-169.5" font-family="Helvetica,sans-Serif" font-size="10.00">&#45; _material</text>
<text text-anchor="start" x="1444" y="-158.5" font-family="Helvetica,sans-Serif" font-size="10.00">&#45; _height</text>
<polyline fill="none" stroke="black" points="1436,-151.5 1616,-151.5 "/>
<text text-anchor="start" x="1444" y="-139.5" font-family="Helvetica,sans-Serif" font-size="10.00">+ LimitedConeEntity()</text>
<text text-anchor="start" x="1444" y="-128.5" font-family="Helvetica,sans-Serif" font-size="10.00">+ getType()</text>
<text text-anchor="start" x="1444" y="-117.5" font-family="Helvetica,sans-Serif" font-size="10.00">+ getTransform()</text>
<text text-anchor="start" x="1444" y="-106.5" font-family="Helvetica,sans-Serif" font-size="10.00">+ getTransform()</text>
<text text-anchor="start" x="1444" y="-95.5" font-family="Helvetica,sans-Serif" font-size="10.00">+ isCollided()</text>
<text text-anchor="start" x="1444" y="-84.5" font-family="Helvetica,sans-Serif" font-size="10.00">+ isCollided()</text>
<text text-anchor="start" x="1444" y="-73.5" font-family="Helvetica,sans-Serif" font-size="10.00">+ getColor()</text>
<text text-anchor="start" x="1444" y="-62.5" font-family="Helvetica,sans-Serif" font-size="10.00">+ redirectionLight()</text>
</a>
</g>
</g>
<!-- Node10&#45;&gt;Node14 -->
<g id="edge13" class="edge">
<title>Node10&#45;&gt;Node14</title>
<path fill="none" stroke="midnightblue" d="M1601.86,-354.3C1589.59,-321.42 1574.46,-280.88 1560.95,-244.66"/>
<polygon fill="none" stroke="midnightblue" points="1598.63,-355.65 1605.4,-363.8 1605.18,-353.2 1598.63,-355.65"/>
</g>
<!-- Node15 -->
<g id="node15" class="node">
<title>Node15</title>
<g id="a_node15"><a xlink:href="$a01601.html" xlink:title=" ">
<polygon fill="white" stroke="black" points="1634.5,-44.5 1634.5,-255.5 1817.5,-255.5 1817.5,-44.5 1634.5,-44.5"/>
<text text-anchor="start" x="1642.5" y="-243.5" font-family="Helvetica,sans-Serif" font-size="10.00">RayTracer::PluginsExt</text>
<text text-anchor="start" x="1642.5" y="-232.5" font-family="Helvetica,sans-Serif" font-size="10.00">::LimitedCylinder::LimitedCylinder</text>
<text text-anchor="middle" x="1726" y="-221.5" font-family="Helvetica,sans-Serif" font-size="10.00">Entity</text>
<polyline fill="none" stroke="black" points="1634.5,-214.5 1817.5,-214.5 "/>
<text text-anchor="start" x="1642.5" y="-202.5" font-family="Helvetica,sans-Serif" font-size="10.00">&#45; _transform</text>
<text text-anchor="start" x="1642.5" y="-191.5" font-family="Helvetica,sans-Serif" font-size="10.00">&#45; _direction</text>
<text text-anchor="start" x="1642.5" y="-180.5" font-family="Helvetica,sans-Serif" font-size="10.00">&#45; _radius</text>
<text text-anchor="start" x="1642.5" y="-169.5" font-family="Helvetica,sans-Serif" font-size="10.00">&#45; _logger</text>
<text text-anchor="start" x="1642.5" y="-158.5" font-family="Helvetica,sans-Serif" font-size="10.00">&#45; _material</text>
<text text-anchor="start" x="1642.5" y="-147.5" font-family="Helvetica,sans-Serif" font-size="10.00">&#45; _height</text>
<polyline fill="none" stroke="black" points="1634.5,-140.5 1817.5,-140.5 "/>
<text text-anchor="start" x="1642.5" y="-128.5" font-family="Helvetica,sans-Serif" font-size="10.00">+ LimitedCylinderEntity()</text>
<text text-anchor="start" x="1642.5" y="-117.5" font-family="Helvetica,sans-Serif" font-size="10.00">+ getType()</text>
<text text-anchor="start" x="1642.5" y="-106.5" font-family="Helvetica,sans-Serif" font-size="10.00">+ getTransform()</text>
<text text-anchor="start" x="1642.5" y="-95.5" font-family="Helvetica,sans-Serif" font-size="10.00">+ getTransform()</text>
<text text-anchor="start" x="1642.5" y="-84.5" font-family="Helvetica,sans-Serif" font-size="10.00">+ isCollided()</text>
<text text-anchor="start" x="1642.5" y="-73.5" font-family="Helvetica,sans-Serif" font-size="10.00">+ isCollided()</text>
<text text-anchor="start" x="1642.5" y="-62.5" font-family="Helvetica,sans-Serif" font-size="10.00">+ getColor()</text>
<text text-anchor="start" x="1642.5" y="-51.5" font-family="Helvetica,sans-Serif" font-size="10.00">+ redirectionLight()</text>
</a>
</g>
</g>
<!-- Node10&#45;&gt;Node15 -->
<g id="edge14" class="edge">
<title>Node10&#45;&gt;Node15</title>
<path fill="none" stroke="midnightblue" d="M1650.1,-354.42C1661.14,-324.83 1674.51,-289 1686.93,-255.71"/>
<polygon fill="none" stroke="midnightblue" points="1646.82,-353.2 1646.6,-363.8 1653.37,-355.65 1646.82,-353.2"/>
</g>
<!-- Node16 -->
<g id="node16" class="node">
<title>Node16</title>
<g id="a_node16"><a xlink:href="$a01609.html" xlink:title=" ">
<polygon fill="white" stroke="black" points="1836,-55.5 1836,-244.5 1992,-244.5 1992,-55.5 1836,-55.5"/>
<text text-anchor="start" x="1844" y="-232.5" font-family="Helvetica,sans-Serif" font-size="10.00">RayTracer::PluginsExt</text>
<text text-anchor="start" x="1844" y="-221.5" font-family="Helvetica,sans-Serif" font-size="10.00">::LimitedPlane::LimitedPlane</text>
<text text-anchor="middle" x="1914" y="-210.5" font-family="Helvetica,sans-Serif" font-size="10.00">Entity</text>
<polyline fill="none" stroke="black" points="1836,-203.5 1992,-203.5 "/>
<text text-anchor="start" x="1844" y="-191.5" font-family="Helvetica,sans-Serif" font-size="10.00">&#45; _transform</text>
<text text-anchor="start" x="1844" y="-180.5" font-family="Helvetica,sans-Serif" font-size="10.00">&#45; _size</text>
<text text-anchor="start" x="1844" y="-169.5" font-family="Helvetica,sans-Serif" font-size="10.00">&#45; _material</text>
<text text-anchor="start" x="1844" y="-158.5" font-family="Helvetica,sans-Serif" font-size="10.00">&#45; _logger</text>
<polyline fill="none" stroke="black" points="1836,-151.5 1992,-151.5 "/>
<text text-anchor="start" x="1844" y="-139.5" font-family="Helvetica,sans-Serif" font-size="10.00">+ LimitedPlaneEntity()</text>
<text text-anchor="start" x="1844" y="-128.5" font-family="Helvetica,sans-Serif" font-size="10.00">+ getType()</text>
<text text-anchor="start" x="1844" y="-117.5" font-family="Helvetica,sans-Serif" font-size="10.00">+ getTransform()</text>
<text text-anchor="start" x="1844" y="-106.5" font-family="Helvetica,sans-Serif" font-size="10.00">+ getTransform()</text>
<text text-anchor="start" x="1844" y="-95.5" font-family="Helvetica,sans-Serif" font-size="10.00">+ isCollided()</text>
<text text-anchor="start" x="1844" y="-84.5" font-family="Helvetica,sans-Serif" font-size="10.00">+ isCollided()</text>
<text text-anchor="start" x="1844" y="-73.5" font-family="Helvetica,sans-Serif" font-size="10.00">+ getColor()</text>
<text text-anchor="start" x="1844" y="-62.5" font-family="Helvetica,sans-Serif" font-size="10.00">+ redirectionLight()</text>
</a>
</g>
</g>
<!-- Node10&#45;&gt;Node16 -->
<g id="edge15" class="edge">
<title>Node10&#45;&gt;Node16</title>
<path fill="none" stroke="midnightblue" d="M1691.44,-390.86C1733.81,-370.27 1788.11,-339.12 1827,-300 1842.94,-283.96 1857.05,-264.42 1869.02,-244.84"/>
<polygon fill="none" stroke="midnightblue" points="1689.83,-387.75 1682.32,-395.23 1692.85,-394.07 1689.83,-387.75"/>
</g>
<!-- Node17 -->
<g id="node17" class="node">
<title>Node17</title>
<g id="a_node17"><a xlink:href="$a01625.html" xlink:title=" ">
<polygon fill="white" stroke="black" points="2010,-66.5 2010,-233.5 2132,-233.5 2132,-66.5 2010,-66.5"/>
<text text-anchor="start" x="2018" y="-221.5" font-family="Helvetica,sans-Serif" font-size="10.00">RayTracer::PluginsExt</text>
<text text-anchor="middle" x="2071" y="-210.5" font-family="Helvetica,sans-Serif" font-size="10.00">::Plane::PlaneEntity</text>
<polyline fill="none" stroke="black" points="2010,-203.5 2132,-203.5 "/>
<text text-anchor="start" x="2018" y="-191.5" font-family="Helvetica,sans-Serif" font-size="10.00">&#45; _transform</text>
<text text-anchor="start" x="2018" y="-180.5" font-family="Helvetica,sans-Serif" font-size="10.00">&#45; _material</text>
<text text-anchor="start" x="2018" y="-169.5" font-family="Helvetica,sans-Serif" font-size="10.00">&#45; _logger</text>
<polyline fill="none" stroke="black" points="2010,-162.5 2132,-162.5 "/>
<text text-anchor="start" x="2018" y="-150.5" font-family="Helvetica,sans-Serif" font-size="10.00">+ PlaneEntity()</text>
<text text-anchor="start" x="2018" y="-139.5" font-family="Helvetica,sans-Serif" font-size="10.00">+ getType()</text>
<text text-anchor="start" x="2018" y="-128.5" font-family="Helvetica,sans-Serif" font-size="10.00">+ getTransform()</text>
<text text-anchor="start" x="2018" y="-117.5" font-family="Helvetica,sans-Serif" font-size="10.00">+ getTransform()</text>
<text text-anchor="start" x="2018" y="-106.5" font-family="Helvetica,sans-Serif" font-size="10.00">+ isCollided()</text>
<text text-anchor="start" x="2018" y="-95.5" font-family="Helvetica,sans-Serif" font-size="10.00">+ isCollided()</text>
<text text-anchor="start" x="2018" y="-84.5" font-family="Helvetica,sans-Serif" font-size="10.00">+ getColor()</text>
<text text-anchor="start" x="2018" y="-73.5" font-family="Helvetica,sans-Serif" font-size="10.00">+ redirectionLight()</text>
</a>
</g>
</g>
<!-- Node10&#45;&gt;Node17 -->
<g id="edge16" class="edge">
<title>Node10&#45;&gt;Node17</title>
<path fill="none" stroke="midnightblue" d="M1692.23,-413.96C1773.89,-404.49 1912.69,-377.37 2001,-300 2021.1,-282.39 2035.86,-257.77 2046.49,-233.6"/>
<polygon fill="none" stroke="midnightblue" points="1691.63,-410.5 1682.08,-415.08 1692.4,-417.46 1691.63,-410.5"/>
</g>
<!-- Node18 -->
<g id="node18" class="node">
<title>Node18</title>
<g id="a_node18"><a xlink:href="$a01641.html" xlink:title=" ">
<polygon fill="white" stroke="black" points="2150.5,-61 2150.5,-239 2275.5,-239 2275.5,-61 2150.5,-61"/>
<text text-anchor="start" x="2158.5" y="-227" font-family="Helvetica,sans-Serif" font-size="10.00">RayTracer::PluginsExt</text>
<text text-anchor="middle" x="2213" y="-216" font-family="Helvetica,sans-Serif" font-size="10.00">::Sphere::SphereEntity</text>
<polyline fill="none" stroke="black" points="2150.5,-209 2275.5,-209 "/>
<text text-anchor="start" x="2158.5" y="-197" font-family="Helvetica,sans-Serif" font-size="10.00">&#45; _transform</text>
<text text-anchor="start" x="2158.5" y="-186" font-family="Helvetica,sans-Serif" font-size="10.00">&#45; _radius</text>
<text text-anchor="start" x="2158.5" y="-175" font-family="Helvetica,sans-Serif" font-size="10.00">&#45; _material</text>
<text text-anchor="start" x="2158.5" y="-164" font-family="Helvetica,sans-Serif" font-size="10.00">&#45; _logger</text>
<polyline fill="none" stroke="black" points="2150.5,-157 2275.5,-157 "/>
<text text-anchor="start" x="2158.5" y="-145" font-family="Helvetica,sans-Serif" font-size="10.00">+ SphereEntity()</text>
<text text-anchor="start" x="2158.5" y="-134" font-family="Helvetica,sans-Serif" font-size="10.00">+ getType()</text>
<text text-anchor="start" x="2158.5" y="-123" font-family="Helvetica,sans-Serif" font-size="10.00">+ getTransform()</text>
<text text-anchor="start" x="2158.5" y="-112" font-family="Helvetica,sans-Serif" font-size="10.00">+ getTransform()</text>
<text text-anchor="start" x="2158.5" y="-101" font-family="Helvetica,sans-Serif" font-size="10.00">+ isCollided()</text>
<text text-anchor="start" x="2158.5" y="-90" font-family="Helvetica,sans-Serif" font-size="10.00">+ isCollided()</text>
<text text-anchor="start" x="2158.5" y="-79" font-family="Helvetica,sans-Serif" font-size="10.00">+ getColor()</text>
<text text-anchor="start" x="2158.5" y="-68" font-family="Helvetica,sans-Serif" font-size="10.00">+ redirectionLight()</text>
</a>
</g>
</g>
<!-- Node10&#45;&gt;Node18 -->
<g id="edge17" class="edge">
<title>Node10&#45;&gt;Node18</title>
<path fill="none" stroke="midnightblue" d="M1692.44,-410.86C1815.33,-394.66 2071.95,-355.14 2141,-300 2160.64,-284.31 2175.27,-261.94 2186.01,-239.29"/>
<polygon fill="none" stroke="midnightblue" points="1691.86,-407.41 1682.4,-412.17 1692.76,-414.35 1691.86,-407.41"/>
</g>
<!-- Node19 -->
<g id="node19" class="node">
<title>Node19</title>
<g id="a_node19"><a xlink:href="$a01657.html" xlink:title=" ">
<polygon fill="white" stroke="black" points="2294,-50 2294,-250 2428,-250 2428,-50 2294,-50"/>
<text text-anchor="start" x="2302" y="-238" font-family="Helvetica,sans-Serif" font-size="10.00">RayTracer::PluginsExt</text>
<text text-anchor="middle" x="2361" y="-227" font-family="Helvetica,sans-Serif" font-size="10.00">::Triangle::TriangleEntity</text>
<polyline fill="none" stroke="black" points="2294,-220 2428,-220 "/>
<text text-anchor="start" x="2302" y="-208" font-family="Helvetica,sans-Serif" font-size="10.00">&#45; _transform</text>
<text text-anchor="start" x="2302" y="-197" font-family="Helvetica,sans-Serif" font-size="10.00">&#45; _material</text>
<text text-anchor="start" x="2302" y="-186" font-family="Helvetica,sans-Serif" font-size="10.00">&#45; _pointOne</text>
<text text-anchor="start" x="2302" y="-175" font-family="Helvetica,sans-Serif" font-size="10.00">&#45; _pointTwo</text>
<text text-anchor="start" x="2302" y="-164" font-family="Helvetica,sans-Serif" font-size="10.00">&#45; _pointThree</text>
<text text-anchor="start" x="2302" y="-153" font-family="Helvetica,sans-Serif" font-size="10.00">&#45; _logger</text>
<polyline fill="none" stroke="black" points="2294,-146 2428,-146 "/>
<text text-anchor="start" x="2302" y="-134" font-family="Helvetica,sans-Serif" font-size="10.00">+ TriangleEntity()</text>
<text text-anchor="start" x="2302" y="-123" font-family="Helvetica,sans-Serif" font-size="10.00">+ getType()</text>
<text text-anchor="start" x="2302" y="-112" font-family="Helvetica,sans-Serif" font-size="10.00">+ getTransform()</text>
<text text-anchor="start" x="2302" y="-101" font-family="Helvetica,sans-Serif" font-size="10.00">+ getTransform()</text>
<text text-anchor="start" x="2302" y="-90" font-family="Helvetica,sans-Serif" font-size="10.00">+ isCollided()</text>
<text text-anchor="start" x="2302" y="-79" font-family="Helvetica,sans-Serif" font-size="10.00">+ isCollided()</text>
<text text-anchor="start" x="2302" y="-68" font-family="Helvetica,sans-Serif" font-size="10.00">+ getColor()</text>
<text text-anchor="start" x="2302" y="-57" font-family="Helvetica,sans-Serif" font-size="10.00">+ redirectionLight()</text>
</a>
</g>
</g>
<!-- Node10&#45;&gt;Node19 -->
<g id="edge18" class="edge">
<title>Node10&#45;&gt;Node19</title>
<path fill="none" stroke="midnightblue" d="M1692.43,-414.44C1840.41,-403.11 2191.47,-369.48 2285,-300 2302.37,-287.1 2316.06,-269.09 2326.75,-250.03"/>
<polygon fill="none" stroke="midnightblue" points="1691.84,-410.97 1682.14,-415.21 1692.37,-417.95 1691.84,-410.97"/>
</g>
</g>
</svg>
