<?xml version="1.0" encoding="UTF-8" standalone="no"?>
<!DOCTYPE svg PUBLIC "-//W3C//DTD SVG 1.1//EN"
 "http://www.w3.org/Graphics/SVG/1.1/DTD/svg11.dtd">
<!-- Generated by graphviz version 2.43.0 (0)
 -->
<!-- Title: RayTracer::Main Pages: 1 -->
<svg width="1052pt" height="987pt"
 viewBox="0.00 0.00 1052.00 987.00" xmlns="http://www.w3.org/2000/svg" xmlns:xlink="http://www.w3.org/1999/xlink">
<g id="graph0" class="graph" transform="scale(1 1) rotate(0) translate(4 983)">
<title>RayTracer::Main</title>
<polygon fill="white" stroke="transparent" points="-4,4 -4,-983 1048,-983 1048,4 -4,4"/>
<!-- Node1 -->
<g id="node1" class="node">
<title>Node1</title>
<g id="a_node1"><a xlink:title=" ">
<polygon fill="#bfbfbf" stroke="black" points="266,-0.5 266,-123.5 368,-123.5 368,-0.5 266,-0.5"/>
<text text-anchor="middle" x="317" y="-111.5" font-family="Helvetica,sans-Serif" font-size="10.00">RayTracer::Main</text>
<polyline fill="none" stroke="black" points="266,-104.5 368,-104.5 "/>
<text text-anchor="middle" x="317" y="-92.5" font-family="Helvetica,sans-Serif" font-size="10.00"> </text>
<polyline fill="none" stroke="black" points="266,-85.5 368,-85.5 "/>
<text text-anchor="start" x="274" y="-73.5" font-family="Helvetica,sans-Serif" font-size="10.00">+ Main()</text>
<text text-anchor="start" x="274" y="-62.5" font-family="Helvetica,sans-Serif" font-size="10.00">+ ~Main()</text>
<text text-anchor="start" x="274" y="-51.5" font-family="Helvetica,sans-Serif" font-size="10.00">+ operator()()</text>
<text text-anchor="start" x="274" y="-40.5" font-family="Helvetica,sans-Serif" font-size="10.00">&#45; exportScene()</text>
<text text-anchor="start" x="274" y="-29.5" font-family="Helvetica,sans-Serif" font-size="10.00">&#45; run()</text>
<text text-anchor="start" x="274" y="-18.5" font-family="Helvetica,sans-Serif" font-size="10.00">&#45; help()</text>
<text text-anchor="start" x="274" y="-7.5" font-family="Helvetica,sans-Serif" font-size="10.00">&#45; parseCmdArgs()</text>
</a>
</g>
</g>
<!-- Node2 -->
<g id="node2" class="node">
<title>Node2</title>
<g id="a_node2"><a xlink:href="$a01487.html" xlink:title="The Scene class.">
<polygon fill="white" stroke="black" points="261.5,-182.5 261.5,-360.5 372.5,-360.5 372.5,-182.5 261.5,-182.5"/>
<text text-anchor="start" x="269.5" y="-348.5" font-family="Helvetica,sans-Serif" font-size="10.00">RayTracer::Scenes::</text>
<text text-anchor="middle" x="317" y="-337.5" font-family="Helvetica,sans-Serif" font-size="10.00">Scene</text>
<polyline fill="none" stroke="black" points="261.5,-330.5 372.5,-330.5 "/>
<text text-anchor="middle" x="317" y="-318.5" font-family="Helvetica,sans-Serif" font-size="10.00"> </text>
<polyline fill="none" stroke="black" points="261.5,-311.5 372.5,-311.5 "/>
<text text-anchor="start" x="269.5" y="-299.5" font-family="Helvetica,sans-Serif" font-size="10.00">+ Scene()</text>
<text text-anchor="start" x="269.5" y="-288.5" font-family="Helvetica,sans-Serif" font-size="10.00">+ ~Scene()</text>
<text text-anchor="start" x="269.5" y="-277.5" font-family="Helvetica,sans-Serif" font-size="10.00">+ operator()()</text>
<text text-anchor="start" x="269.5" y="-266.5" font-family="Helvetica,sans-Serif" font-size="10.00">+ renders()</text>
<text text-anchor="start" x="269.5" y="-255.5" font-family="Helvetica,sans-Serif" font-size="10.00">+ getCameras()</text>
<text text-anchor="start" x="269.5" y="-244.5" font-family="Helvetica,sans-Serif" font-size="10.00">+ getCameras()</text>
<text text-anchor="start" x="269.5" y="-233.5" font-family="Helvetica,sans-Serif" font-size="10.00">+ isReady()</text>
<text text-anchor="start" x="269.5" y="-222.5" font-family="Helvetica,sans-Serif" font-size="10.00">+ cancel()</text>
<text text-anchor="start" x="269.5" y="-211.5" font-family="Helvetica,sans-Serif" font-size="10.00">+ wait_end()</text>
<text text-anchor="start" x="269.5" y="-200.5" font-family="Helvetica,sans-Serif" font-size="10.00">&#45; loadConfig()</text>
<text text-anchor="start" x="269.5" y="-189.5" font-family="Helvetica,sans-Serif" font-size="10.00">&#45; waitTillCancel()</text>
</a>
</g>
</g>
<!-- Node2&#45;&gt;Node1 -->
<g id="edge1" class="edge">
<title>Node2&#45;&gt;Node1</title>
<path fill="none" stroke="#404040" d="M317,-182.2C317,-166.77 317,-150.88 317,-135.93"/>
<polygon fill="none" stroke="#404040" points="317,-135.62 313,-129.62 317,-123.62 321,-129.62 317,-135.62"/>
<text text-anchor="middle" x="337.5" y="-150.5" font-family="Helvetica,sans-Serif" font-size="10.00"> &#45;_scene</text>
</g>
<!-- Node3 -->
<g id="node3" class="node">
<title>Node3</title>
<g id="a_node3"><a xlink:href="$a01451.html" xlink:title="The Displayable class.">
<polygon fill="white" stroke="black" points="429,-419.5 429,-542.5 545,-542.5 545,-419.5 429,-419.5"/>
<text text-anchor="start" x="437" y="-530.5" font-family="Helvetica,sans-Serif" font-size="10.00">RayTracer::Scenes::</text>
<text text-anchor="middle" x="487" y="-519.5" font-family="Helvetica,sans-Serif" font-size="10.00">Displayable</text>
<polyline fill="none" stroke="black" points="429,-512.5 545,-512.5 "/>
<text text-anchor="middle" x="487" y="-500.5" font-family="Helvetica,sans-Serif" font-size="10.00"> </text>
<polyline fill="none" stroke="black" points="429,-493.5 545,-493.5 "/>
<text text-anchor="start" x="437" y="-481.5" font-family="Helvetica,sans-Serif" font-size="10.00">+ getLightList()</text>
<text text-anchor="start" x="437" y="-470.5" font-family="Helvetica,sans-Serif" font-size="10.00">+ getLightList()</text>
<text text-anchor="start" x="437" y="-459.5" font-family="Helvetica,sans-Serif" font-size="10.00">+ getPrimitiveList()</text>
<text text-anchor="start" x="437" y="-448.5" font-family="Helvetica,sans-Serif" font-size="10.00">+ getPrimitiveList()</text>
<text text-anchor="start" x="437" y="-437.5" font-family="Helvetica,sans-Serif" font-size="10.00">+ getAmbientLight()</text>
<text text-anchor="start" x="437" y="-426.5" font-family="Helvetica,sans-Serif" font-size="10.00">+ getAmbientLight()</text>
</a>
</g>
</g>
<!-- Node3&#45;&gt;Node2 -->
<g id="edge2" class="edge">
<title>Node3&#45;&gt;Node2</title>
<path fill="none" stroke="#404040" d="M437.37,-419.42C419.54,-397.66 399.18,-372.81 380.35,-349.82"/>
<polygon fill="none" stroke="#404040" points="380.26,-349.72 373.37,-347.61 372.66,-340.44 379.55,-342.54 380.26,-349.72"/>
<text text-anchor="middle" x="447.5" y="-382" font-family="Helvetica,sans-Serif" font-size="10.00"> &#45;_displayable</text>
</g>
<!-- Node4 -->
<g id="node4" class="node">
<title>Node4</title>
<g id="a_node4"><a xlink:href="$a01463.html" xlink:title="The IDisplayable interface.">
<polygon fill="white" stroke="black" points="668,-601.5 668,-724.5 784,-724.5 784,-601.5 668,-601.5"/>
<text text-anchor="start" x="676" y="-712.5" font-family="Helvetica,sans-Serif" font-size="10.00">RayTracer::Scenes::</text>
<text text-anchor="middle" x="726" y="-701.5" font-family="Helvetica,sans-Serif" font-size="10.00">IDisplayable</text>
<polyline fill="none" stroke="black" points="668,-694.5 784,-694.5 "/>
<text text-anchor="middle" x="726" y="-682.5" font-family="Helvetica,sans-Serif" font-size="10.00"> </text>
<polyline fill="none" stroke="black" points="668,-675.5 784,-675.5 "/>
<text text-anchor="start" x="676" y="-663.5" font-family="Helvetica,sans-Serif" font-size="10.00">+ getLightList()</text>
<text text-anchor="start" x="676" y="-652.5" font-family="Helvetica,sans-Serif" font-size="10.00">+ getLightList()</text>
<text text-anchor="start" x="676" y="-641.5" font-family="Helvetica,sans-Serif" font-size="10.00">+ getPrimitiveList()</text>
<text text-anchor="start" x="676" y="-630.5" font-family="Helvetica,sans-Serif" font-size="10.00">+ getPrimitiveList()</text>
<text text-anchor="start" x="676" y="-619.5" font-family="Helvetica,sans-Serif" font-size="10.00">+ getAmbientLight()</text>
<text text-anchor="start" x="676" y="-608.5" font-family="Helvetica,sans-Serif" font-size="10.00">+ getAmbientLight()</text>
</a>
</g>
</g>
<!-- Node4&#45;&gt;Node3 -->
<g id="edge3" class="edge">
<title>Node4&#45;&gt;Node3</title>
<path fill="none" stroke="midnightblue" d="M660.11,-601.89C659.74,-601.59 659.37,-601.29 659,-601 622.48,-571.96 579.29,-542.09 545.32,-519.54"/>
<polygon fill="none" stroke="midnightblue" points="657.98,-604.67 667.94,-608.3 662.42,-599.25 657.98,-604.67"/>
</g>
<!-- Node5 -->
<g id="node5" class="node">
<title>Node5</title>
<g id="a_node5"><a xlink:title=" ">
<polygon fill="white" stroke="#bfbfbf" points="304,-623.5 304,-702.5 468,-702.5 468,-623.5 304,-623.5"/>
<text text-anchor="start" x="312" y="-690.5" font-family="Helvetica,sans-Serif" font-size="10.00">std::vector&lt; std::reference</text>
<text text-anchor="start" x="312" y="-679.5" font-family="Helvetica,sans-Serif" font-size="10.00">_wrapper&lt; RayTracer::Entities</text>
<text text-anchor="middle" x="386" y="-668.5" font-family="Helvetica,sans-Serif" font-size="10.00">::IPrimitive &gt; &gt;</text>
<polyline fill="none" stroke="#bfbfbf" points="304,-661.5 468,-661.5 "/>
<text text-anchor="middle" x="386" y="-649.5" font-family="Helvetica,sans-Serif" font-size="10.00"> </text>
<polyline fill="none" stroke="#bfbfbf" points="304,-642.5 468,-642.5 "/>
<text text-anchor="middle" x="386" y="-630.5" font-family="Helvetica,sans-Serif" font-size="10.00"> </text>
</a>
</g>
</g>
<!-- Node5&#45;&gt;Node3 -->
<g id="edge4" class="edge">
<title>Node5&#45;&gt;Node3</title>
<path fill="none" stroke="#404040" d="M407.67,-623.39C419.18,-602.87 433.7,-576.99 447.16,-553.01"/>
<polygon fill="none" stroke="#404040" points="447.18,-552.97 446.63,-545.78 453.05,-542.5 453.6,-549.69 447.18,-552.97"/>
<text text-anchor="middle" x="468" y="-575" font-family="Helvetica,sans-Serif" font-size="10.00"> &#45;_primitives</text>
</g>
<!-- Node6 -->
<g id="node6" class="node">
<title>Node6</title>
<g id="a_node6"><a xlink:title=" ">
<polygon fill="white" stroke="#bfbfbf" points="263,-794.5 263,-873.5 379,-873.5 379,-794.5 263,-794.5"/>
<text text-anchor="start" x="271" y="-861.5" font-family="Helvetica,sans-Serif" font-size="10.00">reference_wrapper&lt;</text>
<text text-anchor="start" x="271" y="-850.5" font-family="Helvetica,sans-Serif" font-size="10.00"> RayTracer::Entities</text>
<text text-anchor="middle" x="321" y="-839.5" font-family="Helvetica,sans-Serif" font-size="10.00">::IPrimitive &gt;</text>
<polyline fill="none" stroke="#bfbfbf" points="263,-832.5 379,-832.5 "/>
<text text-anchor="middle" x="321" y="-820.5" font-family="Helvetica,sans-Serif" font-size="10.00"> </text>
<polyline fill="none" stroke="#bfbfbf" points="263,-813.5 379,-813.5 "/>
<text text-anchor="middle" x="321" y="-801.5" font-family="Helvetica,sans-Serif" font-size="10.00"> </text>
</a>
</g>
</g>
<!-- Node6&#45;&gt;Node5 -->
<g id="edge5" class="edge">
<title>Node6&#45;&gt;Node5</title>
<path fill="none" stroke="#404040" d="M315.92,-794.35C315.17,-778.06 316.17,-759.17 322,-743 325.91,-732.15 331.99,-721.7 338.88,-712.15"/>
<polygon fill="none" stroke="#404040" points="338.96,-712.04 339.46,-704.84 346.29,-702.53 345.8,-709.73 338.96,-712.04"/>
<text text-anchor="middle" x="351" y="-757" font-family="Helvetica,sans-Serif" font-size="10.00"> +elements</text>
</g>
<!-- Node7 -->
<g id="node7" class="node">
<title>Node7</title>
<g id="a_node7"><a xlink:title=" ">
<polygon fill="white" stroke="#bfbfbf" points="503.5,-805.5 503.5,-862.5 600.5,-862.5 600.5,-805.5 503.5,-805.5"/>
<text text-anchor="middle" x="552" y="-850.5" font-family="Helvetica,sans-Serif" font-size="10.00">std::vector&lt; T &gt;</text>
<polyline fill="none" stroke="#bfbfbf" points="503.5,-843.5 600.5,-843.5 "/>
<text text-anchor="middle" x="552" y="-831.5" font-family="Helvetica,sans-Serif" font-size="10.00"> </text>
<polyline fill="none" stroke="#bfbfbf" points="503.5,-824.5 600.5,-824.5 "/>
<text text-anchor="middle" x="552" y="-812.5" font-family="Helvetica,sans-Serif" font-size="10.00"> </text>
</a>
</g>
</g>
<!-- Node7&#45;&gt;Node5 -->
<g id="edge6" class="edge">
<title>Node7&#45;&gt;Node5</title>
<path fill="none" stroke="orange" d="M493.79,-819.45C468.34,-810.84 440.03,-797.19 421,-776 402.9,-755.84 394.16,-726.4 389.94,-702.76"/>
<polygon fill="orange" stroke="orange" points="492.78,-822.8 503.37,-822.51 494.91,-816.13 492.78,-822.8"/>
<text text-anchor="start" x="421" y="-768" font-family="Helvetica,sans-Serif" font-size="10.00"> &lt; std::reference_wrapper</text>
<text text-anchor="start" x="421" y="-757" font-family="Helvetica,sans-Serif" font-size="10.00">&lt; RayTracer::Entities::</text>
<text text-anchor="middle" x="484.5" y="-746" font-family="Helvetica,sans-Serif" font-size="10.00">IPrimitive &gt; &gt;</text>
</g>
<!-- Node9 -->
<g id="node9" class="node">
<title>Node9</title>
<g id="a_node9"><a xlink:title=" ">
<polygon fill="white" stroke="#bfbfbf" points="486,-623.5 486,-702.5 650,-702.5 650,-623.5 486,-623.5"/>
<text text-anchor="start" x="494" y="-690.5" font-family="Helvetica,sans-Serif" font-size="10.00">std::vector&lt; std::reference</text>
<text text-anchor="start" x="494" y="-679.5" font-family="Helvetica,sans-Serif" font-size="10.00">_wrapper&lt; RayTracer::Entities</text>
<text text-anchor="middle" x="568" y="-668.5" font-family="Helvetica,sans-Serif" font-size="10.00">::ILight &gt; &gt;</text>
<polyline fill="none" stroke="#bfbfbf" points="486,-661.5 650,-661.5 "/>
<text text-anchor="middle" x="568" y="-649.5" font-family="Helvetica,sans-Serif" font-size="10.00"> </text>
<polyline fill="none" stroke="#bfbfbf" points="486,-642.5 650,-642.5 "/>
<text text-anchor="middle" x="568" y="-630.5" font-family="Helvetica,sans-Serif" font-size="10.00"> </text>
</a>
</g>
</g>
<!-- Node7&#45;&gt;Node9 -->
<g id="edge10" class="edge">
<title>Node7&#45;&gt;Node9</title>
<path fill="none" stroke="orange" d="M550.94,-795.23C550.87,-779.1 551.3,-760.09 553,-743 554.32,-729.8 556.72,-715.52 559.23,-702.78"/>
<polygon fill="orange" stroke="orange" points="547.44,-795.4 551.05,-805.36 554.44,-795.32 547.44,-795.4"/>
<text text-anchor="start" x="553" y="-768" font-family="Helvetica,sans-Serif" font-size="10.00"> &lt; std::reference_wrapper</text>
<text text-anchor="start" x="553" y="-757" font-family="Helvetica,sans-Serif" font-size="10.00">&lt; RayTracer::Entities::</text>
<text text-anchor="middle" x="616.5" y="-746" font-family="Helvetica,sans-Serif" font-size="10.00">ILight &gt; &gt;</text>
</g>
<!-- Node17 -->
<g id="node17" class="node">
<title>Node17</title>
<g id="a_node17"><a xlink:title=" ">
<polygon fill="white" stroke="#bfbfbf" points="802,-623.5 802,-702.5 966,-702.5 966,-623.5 802,-623.5"/>
<text text-anchor="start" x="810" y="-690.5" font-family="Helvetica,sans-Serif" font-size="10.00">std::vector&lt; std::reference</text>
<text text-anchor="start" x="810" y="-679.5" font-family="Helvetica,sans-Serif" font-size="10.00">_wrapper&lt; RayTracer::Entities</text>
<text text-anchor="middle" x="884" y="-668.5" font-family="Helvetica,sans-Serif" font-size="10.00">::ICamera &gt; &gt;</text>
<polyline fill="none" stroke="#bfbfbf" points="802,-661.5 966,-661.5 "/>
<text text-anchor="middle" x="884" y="-649.5" font-family="Helvetica,sans-Serif" font-size="10.00"> </text>
<polyline fill="none" stroke="#bfbfbf" points="802,-642.5 966,-642.5 "/>
<text text-anchor="middle" x="884" y="-630.5" font-family="Helvetica,sans-Serif" font-size="10.00"> </text>
</a>
</g>
</g>
<!-- Node7&#45;&gt;Node17 -->
<g id="edge19" class="edge">
<title>Node7&#45;&gt;Node17</title>
<path fill="none" stroke="orange" d="M610.11,-815.98C633.76,-806.93 660.15,-793.9 680,-776 692.57,-764.67 685.21,-752.82 699,-743 733.65,-718.33 753.66,-741.17 793,-725 807.07,-719.22 821.24,-711.09 834.06,-702.65"/>
<polygon fill="orange" stroke="orange" points="608.69,-812.77 600.51,-819.49 611.1,-819.34 608.69,-812.77"/>
<text text-anchor="start" x="699" y="-768" font-family="Helvetica,sans-Serif" font-size="10.00"> &lt; std::reference_wrapper</text>
<text text-anchor="start" x="699" y="-757" font-family="Helvetica,sans-Serif" font-size="10.00">&lt; RayTracer::Entities::</text>
<text text-anchor="middle" x="762.5" y="-746" font-family="Helvetica,sans-Serif" font-size="10.00">ICamera &gt; &gt;</text>
</g>
<!-- Node8 -->
<g id="node8" class="node">
<title>Node8</title>
<g id="a_node8"><a xlink:title=" ">
<polygon fill="white" stroke="#bfbfbf" points="537.5,-921.5 537.5,-978.5 566.5,-978.5 566.5,-921.5 537.5,-921.5"/>
<text text-anchor="middle" x="552" y="-966.5" font-family="Helvetica,sans-Serif" font-size="10.00">T</text>
<polyline fill="none" stroke="#bfbfbf" points="537.5,-959.5 566.5,-959.5 "/>
<text text-anchor="middle" x="552" y="-947.5" font-family="Helvetica,sans-Serif" font-size="10.00"> </text>
<polyline fill="none" stroke="#bfbfbf" points="537.5,-940.5 566.5,-940.5 "/>
<text text-anchor="middle" x="552" y="-928.5" font-family="Helvetica,sans-Serif" font-size="10.00"> </text>
</a>
</g>
</g>
<!-- Node8&#45;&gt;Node7 -->
<g id="edge7" class="edge">
<title>Node8&#45;&gt;Node7</title>
<path fill="none" stroke="#404040" d="M552,-921.4C552,-907.5 552,-890.39 552,-875.07"/>
<polygon fill="none" stroke="#404040" points="552,-874.74 548,-868.74 552,-862.74 556,-868.74 552,-874.74"/>
<text text-anchor="middle" x="581" y="-895" font-family="Helvetica,sans-Serif" font-size="10.00"> +elements</text>
</g>
<!-- Node9&#45;&gt;Node3 -->
<g id="edge8" class="edge">
<title>Node9&#45;&gt;Node3</title>
<path fill="none" stroke="#404040" d="M550.62,-623.39C541.47,-603.05 529.96,-577.46 519.24,-553.65"/>
<polygon fill="none" stroke="#404040" points="519.15,-553.45 513.04,-549.62 514.23,-542.5 520.34,-546.33 519.15,-553.45"/>
<text text-anchor="middle" x="553" y="-575" font-family="Helvetica,sans-Serif" font-size="10.00"> &#45;_lights</text>
</g>
<!-- Node10 -->
<g id="node10" class="node">
<title>Node10</title>
<g id="a_node10"><a xlink:title=" ">
<polygon fill="white" stroke="#bfbfbf" points="794,-794.5 794,-873.5 910,-873.5 910,-794.5 794,-794.5"/>
<text text-anchor="start" x="802" y="-861.5" font-family="Helvetica,sans-Serif" font-size="10.00">reference_wrapper&lt;</text>
<text text-anchor="start" x="802" y="-850.5" font-family="Helvetica,sans-Serif" font-size="10.00"> RayTracer::Entities</text>
<text text-anchor="middle" x="852" y="-839.5" font-family="Helvetica,sans-Serif" font-size="10.00">::ILight &gt;</text>
<polyline fill="none" stroke="#bfbfbf" points="794,-832.5 910,-832.5 "/>
<text text-anchor="middle" x="852" y="-820.5" font-family="Helvetica,sans-Serif" font-size="10.00"> </text>
<polyline fill="none" stroke="#bfbfbf" points="794,-813.5 910,-813.5 "/>
<text text-anchor="middle" x="852" y="-801.5" font-family="Helvetica,sans-Serif" font-size="10.00"> </text>
</a>
</g>
</g>
<!-- Node10&#45;&gt;Node9 -->
<g id="edge9" class="edge">
<title>Node10&#45;&gt;Node9</title>
<path fill="none" stroke="#404040" d="M852.23,-794.08C850.18,-775.92 844.42,-755.59 830,-743 801.22,-717.86 694.92,-738.02 659,-725 647.87,-720.97 636.77,-715.29 626.35,-709"/>
<polygon fill="none" stroke="#404040" points="626.31,-708.98 619.1,-709.14 616.17,-702.55 623.38,-702.39 626.31,-708.98"/>
<text text-anchor="middle" x="877" y="-757" font-family="Helvetica,sans-Serif" font-size="10.00"> +elements</text>
</g>
<!-- Node11 -->
<g id="node11" class="node">
<title>Node11</title>
<g id="a_node11"><a xlink:href="$a01323.html" xlink:title="Logger singleton.">
<polygon fill="white" stroke="black" points="0,-408.5 0,-553.5 136,-553.5 136,-408.5 0,-408.5"/>
<text text-anchor="middle" x="68" y="-541.5" font-family="Helvetica,sans-Serif" font-size="10.00">RayTracer::ILogger</text>
<polyline fill="none" stroke="black" points="0,-534.5 136,-534.5 "/>
<text text-anchor="middle" x="68" y="-522.5" font-family="Helvetica,sans-Serif" font-size="10.00"> </text>
<polyline fill="none" stroke="black" points="0,-515.5 136,-515.5 "/>
<text text-anchor="start" x="8" y="-503.5" font-family="Helvetica,sans-Serif" font-size="10.00">+ ~ILogger()</text>
<text text-anchor="start" x="8" y="-492.5" font-family="Helvetica,sans-Serif" font-size="10.00">+ fatal()</text>
<text text-anchor="start" x="8" y="-481.5" font-family="Helvetica,sans-Serif" font-size="10.00">+ error()</text>
<text text-anchor="start" x="8" y="-470.5" font-family="Helvetica,sans-Serif" font-size="10.00">+ warn()</text>
<text text-anchor="start" x="8" y="-459.5" font-family="Helvetica,sans-Serif" font-size="10.00">+ info()</text>
<text text-anchor="start" x="8" y="-448.5" font-family="Helvetica,sans-Serif" font-size="10.00">+ debug()</text>
<text text-anchor="start" x="8" y="-437.5" font-family="Helvetica,sans-Serif" font-size="10.00">+ trace()</text>
<text text-anchor="start" x="8" y="-426.5" font-family="Helvetica,sans-Serif" font-size="10.00">+ subscribeCallback()</text>
<text text-anchor="start" x="8" y="-415.5" font-family="Helvetica,sans-Serif" font-size="10.00">+ unsubscribeCallback()</text>
</a>
</g>
</g>
<!-- Node11&#45;&gt;Node1 -->
<g id="edge20" class="edge">
<title>Node11&#45;&gt;Node1</title>
<path fill="none" stroke="#404040" d="M94.96,-408.22C120,-345.81 160.64,-254.32 209,-182 223.06,-160.97 240.71,-139.91 257.64,-121.48"/>
<polygon fill="none" stroke="#404040" points="257.69,-121.43 258.86,-114.32 265.87,-112.66 264.71,-119.77 257.69,-121.43"/>
<text text-anchor="middle" x="230.5" y="-269" font-family="Helvetica,sans-Serif" font-size="10.00"> &#45;_logger</text>
</g>
<!-- Node11&#45;&gt;Node2 -->
<g id="edge11" class="edge">
<title>Node11&#45;&gt;Node2</title>
<path fill="none" stroke="#404040" d="M136.16,-415.7C139.13,-413.08 142.08,-410.5 145,-408 179.37,-378.49 219.01,-347.09 251.57,-321.95"/>
<polygon fill="none" stroke="#404040" points="251.92,-321.68 254.24,-314.85 261.44,-314.36 259.12,-321.19 251.92,-321.68"/>
<text text-anchor="middle" x="199.5" y="-382" font-family="Helvetica,sans-Serif" font-size="10.00"> &#45;_logger</text>
</g>
<!-- Node12 -->
<g id="node12" class="node">
<title>Node12</title>
<g id="a_node12"><a xlink:title=" ">
<polygon fill="white" stroke="#bfbfbf" points="154.5,-452.5 154.5,-509.5 243.5,-509.5 243.5,-452.5 154.5,-452.5"/>
<text text-anchor="middle" x="199" y="-497.5" font-family="Helvetica,sans-Serif" font-size="10.00">future&lt; void &gt;</text>
<polyline fill="none" stroke="#bfbfbf" points="154.5,-490.5 243.5,-490.5 "/>
<text text-anchor="middle" x="199" y="-478.5" font-family="Helvetica,sans-Serif" font-size="10.00"> </text>
<polyline fill="none" stroke="#bfbfbf" points="154.5,-471.5 243.5,-471.5 "/>
<text text-anchor="middle" x="199" y="-459.5" font-family="Helvetica,sans-Serif" font-size="10.00"> </text>
</a>
</g>
</g>
<!-- Node12&#45;&gt;Node2 -->
<g id="edge12" class="edge">
<title>Node12&#45;&gt;Node2</title>
<path fill="none" stroke="#404040" d="M214.67,-452.45C226.61,-431.44 243.84,-401.15 260.76,-371.39"/>
<polygon fill="none" stroke="#404040" points="260.79,-371.34 260.28,-364.14 266.73,-360.9 267.24,-368.1 260.79,-371.34"/>
<text text-anchor="middle" x="276" y="-382" font-family="Helvetica,sans-Serif" font-size="10.00"> &#45;_future</text>
</g>
<!-- Node13 -->
<g id="node13" class="node">
<title>Node13</title>
<g id="a_node13"><a xlink:href="$a01499.html" xlink:title="The SceneState class.">
<polygon fill="white" stroke="black" points="261.5,-436 261.5,-526 372.5,-526 372.5,-436 261.5,-436"/>
<text text-anchor="start" x="269.5" y="-514" font-family="Helvetica,sans-Serif" font-size="10.00">RayTracer::Scenes::</text>
<text text-anchor="middle" x="317" y="-503" font-family="Helvetica,sans-Serif" font-size="10.00">SceneState</text>
<polyline fill="none" stroke="black" points="261.5,-496 372.5,-496 "/>
<text text-anchor="middle" x="317" y="-484" font-family="Helvetica,sans-Serif" font-size="10.00"> </text>
<polyline fill="none" stroke="black" points="261.5,-477 372.5,-477 "/>
<text text-anchor="start" x="269.5" y="-465" font-family="Helvetica,sans-Serif" font-size="10.00">+ SceneState()</text>
<text text-anchor="start" x="269.5" y="-454" font-family="Helvetica,sans-Serif" font-size="10.00">+ getState()</text>
<text text-anchor="start" x="269.5" y="-443" font-family="Helvetica,sans-Serif" font-size="10.00">+ changeState()</text>
</a>
</g>
</g>
<!-- Node13&#45;&gt;Node2 -->
<g id="edge13" class="edge">
<title>Node13&#45;&gt;Node2</title>
<path fill="none" stroke="#404040" d="M317,-435.99C317,-417.53 317,-395.22 317,-373.11"/>
<polygon fill="none" stroke="#404040" points="317,-372.87 313,-366.87 317,-360.87 321,-366.87 317,-372.87"/>
<text text-anchor="middle" x="335.5" y="-382" font-family="Helvetica,sans-Serif" font-size="10.00"> &#45;_state</text>
</g>
<!-- Node14 -->
<g id="node14" class="node">
<title>Node14</title>
<g id="a_node14"><a xlink:href="$a01471.html" xlink:title="The SceneState interface.">
<polygon fill="white" stroke="black" points="22.5,-623.5 22.5,-702.5 133.5,-702.5 133.5,-623.5 22.5,-623.5"/>
<text text-anchor="start" x="30.5" y="-690.5" font-family="Helvetica,sans-Serif" font-size="10.00">RayTracer::Scenes::</text>
<text text-anchor="middle" x="78" y="-679.5" font-family="Helvetica,sans-Serif" font-size="10.00">ISceneState</text>
<polyline fill="none" stroke="black" points="22.5,-672.5 133.5,-672.5 "/>
<text text-anchor="middle" x="78" y="-660.5" font-family="Helvetica,sans-Serif" font-size="10.00"> </text>
<polyline fill="none" stroke="black" points="22.5,-653.5 133.5,-653.5 "/>
<text text-anchor="start" x="30.5" y="-641.5" font-family="Helvetica,sans-Serif" font-size="10.00">+ getState()</text>
<text text-anchor="start" x="30.5" y="-630.5" font-family="Helvetica,sans-Serif" font-size="10.00">+ changeState()</text>
</a>
</g>
</g>
<!-- Node14&#45;&gt;Node13 -->
<g id="edge14" class="edge">
<title>Node14&#45;&gt;Node13</title>
<path fill="none" stroke="midnightblue" d="M121.5,-616.71C128.07,-611.04 135,-605.61 142,-601 186.39,-571.75 208.73,-584.9 252,-554 262.96,-546.17 273.42,-536.2 282.62,-526.2"/>
<polygon fill="none" stroke="midnightblue" points="119.09,-614.17 113.98,-623.46 123.76,-619.39 119.09,-614.17"/>
</g>
<!-- Node15 -->
<g id="node15" class="node">
<title>Node15</title>
<g id="a_node15"><a xlink:title=" ">
<polygon fill="white" stroke="#bfbfbf" points="151.5,-634.5 151.5,-691.5 220.5,-691.5 220.5,-634.5 151.5,-634.5"/>
<text text-anchor="middle" x="186" y="-679.5" font-family="Helvetica,sans-Serif" font-size="10.00">std::mutex</text>
<polyline fill="none" stroke="#bfbfbf" points="151.5,-672.5 220.5,-672.5 "/>
<text text-anchor="middle" x="186" y="-660.5" font-family="Helvetica,sans-Serif" font-size="10.00"> </text>
<polyline fill="none" stroke="#bfbfbf" points="151.5,-653.5 220.5,-653.5 "/>
<text text-anchor="middle" x="186" y="-641.5" font-family="Helvetica,sans-Serif" font-size="10.00"> </text>
</a>
</g>
</g>
<!-- Node15&#45;&gt;Node13 -->
<g id="edge15" class="edge">
<title>Node15&#45;&gt;Node13</title>
<path fill="none" stroke="#404040" d="M202.76,-634.31C213.95,-616.24 229.28,-592.32 244,-572 252.67,-560.04 262.37,-547.53 271.8,-535.78"/>
<polygon fill="none" stroke="#404040" points="272.08,-535.44 272.74,-528.25 279.63,-526.11 278.96,-533.29 272.08,-535.44"/>
<text text-anchor="middle" x="263.5" y="-575" font-family="Helvetica,sans-Serif" font-size="10.00"> &#45;mutex</text>
</g>
<!-- Node16 -->
<g id="node16" class="node">
<title>Node16</title>
<g id="a_node16"><a xlink:title=" ">
<polygon fill="white" stroke="#bfbfbf" points="238.5,-634.5 238.5,-691.5 285.5,-691.5 285.5,-634.5 238.5,-634.5"/>
<text text-anchor="middle" x="262" y="-679.5" font-family="Helvetica,sans-Serif" font-size="10.00">States</text>
<polyline fill="none" stroke="#bfbfbf" points="238.5,-672.5 285.5,-672.5 "/>
<text text-anchor="middle" x="262" y="-660.5" font-family="Helvetica,sans-Serif" font-size="10.00"> </text>
<polyline fill="none" stroke="#bfbfbf" points="238.5,-653.5 285.5,-653.5 "/>
<text text-anchor="middle" x="262" y="-641.5" font-family="Helvetica,sans-Serif" font-size="10.00"> </text>
</a>
</g>
</g>
<!-- Node16&#45;&gt;Node13 -->
<g id="edge16" class="edge">
<title>Node16&#45;&gt;Node13</title>
<path fill="none" stroke="#404040" d="M270.47,-634.27C278.28,-608.74 290.08,-570.09 299.85,-538.12"/>
<polygon fill="none" stroke="#404040" points="299.98,-537.71 297.91,-530.8 303.48,-526.23 305.56,-533.14 299.98,-537.71"/>
<text text-anchor="middle" x="308.5" y="-575" font-family="Helvetica,sans-Serif" font-size="10.00"> &#45;_state</text>
</g>
<!-- Node17&#45;&gt;Node2 -->
<g id="edge17" class="edge">
<title>Node17&#45;&gt;Node2</title>
<path fill="none" stroke="#404040" d="M829.69,-623.2C817.85,-615.43 805.2,-607.62 793,-601 746.27,-575.64 726.1,-585.13 683,-554 612.8,-503.3 621.15,-462.67 554,-408 501.37,-365.16 433.48,-327.86 383.86,-303.3"/>
<polygon fill="none" stroke="#404040" points="383.71,-303.22 376.56,-304.18 372.93,-297.95 380.08,-296.99 383.71,-303.22"/>
<text text-anchor="middle" x="710.5" y="-478.5" font-family="Helvetica,sans-Serif" font-size="10.00"> &#45;_cameras</text>
</g>
<!-- Node18 -->
<g id="node18" class="node">
<title>Node18</title>
<g id="a_node18"><a xlink:title=" ">
<polygon fill="white" stroke="#bfbfbf" points="928,-794.5 928,-873.5 1044,-873.5 1044,-794.5 928,-794.5"/>
<text text-anchor="start" x="936" y="-861.5" font-family="Helvetica,sans-Serif" font-size="10.00">reference_wrapper&lt;</text>
<text text-anchor="start" x="936" y="-850.5" font-family="Helvetica,sans-Serif" font-size="10.00"> RayTracer::Entities</text>
<text text-anchor="middle" x="986" y="-839.5" font-family="Helvetica,sans-Serif" font-size="10.00">::ICamera &gt;</text>
<polyline fill="none" stroke="#bfbfbf" points="928,-832.5 1044,-832.5 "/>
<text text-anchor="middle" x="986" y="-820.5" font-family="Helvetica,sans-Serif" font-size="10.00"> </text>
<polyline fill="none" stroke="#bfbfbf" points="928,-813.5 1044,-813.5 "/>
<text text-anchor="middle" x="986" y="-801.5" font-family="Helvetica,sans-Serif" font-size="10.00"> </text>
</a>
</g>
</g>
<!-- Node18&#45;&gt;Node17 -->
<g id="edge18" class="edge">
<title>Node18&#45;&gt;Node17</title>
<path fill="none" stroke="#404040" d="M962.6,-794.23C948.02,-770.07 929.14,-738.79 913.53,-712.94"/>
<polygon fill="none" stroke="#404040" points="913.49,-712.87 906.97,-709.8 907.29,-702.59 913.82,-705.66 913.49,-712.87"/>
<text text-anchor="middle" x="979" y="-757" font-family="Helvetica,sans-Serif" font-size="10.00"> +elements</text>
</g>
<!-- Node19 -->
<g id="node19" class="node">
<title>Node19</title>
<g id="a_node19"><a xlink:title=" ">
<polygon fill="white" stroke="#bfbfbf" points="578.5,-243 578.5,-300 643.5,-300 643.5,-243 578.5,-243"/>
<text text-anchor="middle" x="611" y="-288" font-family="Helvetica,sans-Serif" font-size="10.00">std::string</text>
<polyline fill="none" stroke="#bfbfbf" points="578.5,-281 643.5,-281 "/>
<text text-anchor="middle" x="611" y="-269" font-family="Helvetica,sans-Serif" font-size="10.00"> </text>
<polyline fill="none" stroke="#bfbfbf" points="578.5,-262 643.5,-262 "/>
<text text-anchor="middle" x="611" y="-250" font-family="Helvetica,sans-Serif" font-size="10.00"> </text>
</a>
</g>
</g>
<!-- Node19&#45;&gt;Node1 -->
<g id="edge21" class="edge">
<title>Node19&#45;&gt;Node1</title>
<path fill="none" stroke="#404040" d="M578.41,-247.5C530.19,-213.47 438.98,-149.09 378.08,-106.11"/>
<polygon fill="none" stroke="#404040" points="378.01,-106.06 370.8,-105.87 368.21,-99.14 375.42,-99.33 378.01,-106.06"/>
<text text-anchor="middle" x="505.5" y="-156" font-family="Helvetica,sans-Serif" font-size="10.00"> &#45;_baseFilePath</text>
<text text-anchor="middle" x="505.5" y="-145" font-family="Helvetica,sans-Serif" font-size="10.00">&#45;_sceneConfFilePath</text>
</g>
<!-- Node20 -->
<g id="node20" class="node">
<title>Node20</title>
<g id="a_node20"><a xlink:title=" ">
<polygon fill="white" stroke="#bfbfbf" points="747,-447 747,-515 851,-515 851,-447 747,-447"/>
<text text-anchor="start" x="755" y="-503" font-family="Helvetica,sans-Serif" font-size="10.00">std::basic_string&lt;</text>
<text text-anchor="middle" x="799" y="-492" font-family="Helvetica,sans-Serif" font-size="10.00"> Char &gt;</text>
<polyline fill="none" stroke="#bfbfbf" points="747,-485 851,-485 "/>
<text text-anchor="middle" x="799" y="-473" font-family="Helvetica,sans-Serif" font-size="10.00"> </text>
<polyline fill="none" stroke="#bfbfbf" points="747,-466 851,-466 "/>
<text text-anchor="middle" x="799" y="-454" font-family="Helvetica,sans-Serif" font-size="10.00"> </text>
</a>
</g>
</g>
<!-- Node20&#45;&gt;Node19 -->
<g id="edge22" class="edge">
<title>Node20&#45;&gt;Node19</title>
<path fill="none" stroke="midnightblue" d="M762.07,-439.24C724.82,-398.13 668.33,-335.77 636.02,-300.11"/>
<polygon fill="none" stroke="midnightblue" points="759.49,-441.6 768.79,-446.66 764.67,-436.9 759.49,-441.6"/>
</g>
</g>
</svg>
