<?xml version="1.0" encoding="UTF-8" standalone="no"?>
<!DOCTYPE svg PUBLIC "-//W3C//DTD SVG 1.1//EN"
 "http://www.w3.org/Graphics/SVG/1.1/DTD/svg11.dtd">
<!-- Generated by graphviz version 2.43.0 (0)
 -->
<!-- Title: RayTracer::Plugins::PluginHandler&lt; Interface, Creator &gt; Pages: 1 -->
<svg width="611pt" height="391pt"
 viewBox="0.00 0.00 611.00 391.00" xmlns="http://www.w3.org/2000/svg" xmlns:xlink="http://www.w3.org/1999/xlink">
<g id="graph0" class="graph" transform="scale(1 1) rotate(0) translate(4 387)">
<title>RayTracer::Plugins::PluginHandler&lt; Interface, Creator &gt;</title>
<polygon fill="white" stroke="transparent" points="-4,4 -4,-387 607,-387 607,4 -4,4"/>
<!-- Node1 -->
<g id="node1" class="node">
<title>Node1</title>
<g id="a_node1"><a xlink:title="The PluginHandler class.">
<polygon fill="#bfbfbf" stroke="black" points="222,-237.5 222,-382.5 371,-382.5 371,-237.5 222,-237.5"/>
<text text-anchor="start" x="230" y="-370.5" font-family="Helvetica,sans-Serif" font-size="10.00">RayTracer::Plugins</text>
<text text-anchor="start" x="230" y="-359.5" font-family="Helvetica,sans-Serif" font-size="10.00">::PluginHandler&lt; Interface,</text>
<text text-anchor="middle" x="296.5" y="-348.5" font-family="Helvetica,sans-Serif" font-size="10.00"> Creator &gt;</text>
<polyline fill="none" stroke="black" points="222,-341.5 371,-341.5 "/>
<text text-anchor="start" x="230" y="-329.5" font-family="Helvetica,sans-Serif" font-size="10.00"># _creator</text>
<text text-anchor="start" x="230" y="-318.5" font-family="Helvetica,sans-Serif" font-size="10.00"># _elements</text>
<text text-anchor="start" x="230" y="-307.5" font-family="Helvetica,sans-Serif" font-size="10.00"># _filePath</text>
<text text-anchor="start" x="230" y="-296.5" font-family="Helvetica,sans-Serif" font-size="10.00"># _handler</text>
<polyline fill="none" stroke="black" points="222,-289.5 371,-289.5 "/>
<text text-anchor="start" x="230" y="-277.5" font-family="Helvetica,sans-Serif" font-size="10.00">+ PluginHandler()</text>
<text text-anchor="start" x="230" y="-266.5" font-family="Helvetica,sans-Serif" font-size="10.00">+ ~PluginHandler()</text>
<text text-anchor="start" x="230" y="-255.5" font-family="Helvetica,sans-Serif" font-size="10.00">+ get()</text>
<text text-anchor="start" x="230" y="-244.5" font-family="Helvetica,sans-Serif" font-size="10.00"># getResult()</text>
</a>
</g>
</g>
<!-- Node2 -->
<g id="node2" class="node">
<title>Node2</title>
<g id="a_node2"><a xlink:href="$a01357.html" xlink:title=" ">
<polygon fill="white" stroke="black" points="0,-0.5 0,-156.5 175,-156.5 175,-0.5 0,-0.5"/>
<text text-anchor="start" x="8" y="-144.5" font-family="Helvetica,sans-Serif" font-size="10.00">RayTracer::Plugins</text>
<text text-anchor="start" x="8" y="-133.5" font-family="Helvetica,sans-Serif" font-size="10.00">::PluginHandler&lt; RayTracer</text>
<text text-anchor="start" x="8" y="-122.5" font-family="Helvetica,sans-Serif" font-size="10.00">::Filters::IFilter, RayTracer</text>
<text text-anchor="middle" x="87.5" y="-111.5" font-family="Helvetica,sans-Serif" font-size="10.00">::Plugins::Filters::IFilterCreator &gt;</text>
<polyline fill="none" stroke="black" points="0,-104.5 175,-104.5 "/>
<text text-anchor="start" x="8" y="-92.5" font-family="Helvetica,sans-Serif" font-size="10.00"># _creator</text>
<text text-anchor="start" x="8" y="-81.5" font-family="Helvetica,sans-Serif" font-size="10.00"># _elements</text>
<text text-anchor="start" x="8" y="-70.5" font-family="Helvetica,sans-Serif" font-size="10.00"># _filePath</text>
<text text-anchor="start" x="8" y="-59.5" font-family="Helvetica,sans-Serif" font-size="10.00"># _handler</text>
<polyline fill="none" stroke="black" points="0,-52.5 175,-52.5 "/>
<text text-anchor="start" x="8" y="-40.5" font-family="Helvetica,sans-Serif" font-size="10.00">+ PluginHandler()</text>
<text text-anchor="start" x="8" y="-29.5" font-family="Helvetica,sans-Serif" font-size="10.00">+ ~PluginHandler()</text>
<text text-anchor="start" x="8" y="-18.5" font-family="Helvetica,sans-Serif" font-size="10.00">+ get()</text>
<text text-anchor="start" x="8" y="-7.5" font-family="Helvetica,sans-Serif" font-size="10.00"># getResult()</text>
</a>
</g>
</g>
<!-- Node1&#45;&gt;Node2 -->
<g id="edge1" class="edge">
<title>Node1&#45;&gt;Node2</title>
<path fill="none" stroke="orange" d="M212.57,-277.64C184.15,-263.46 154.36,-244.15 133.5,-219 118.77,-201.24 108.7,-178.6 101.85,-156.75"/>
<polygon fill="orange" stroke="orange" points="211.21,-280.87 221.74,-282.06 214.25,-274.56 211.21,-280.87"/>
<text text-anchor="start" x="133.5" y="-205.5" font-family="Helvetica,sans-Serif" font-size="10.00"> &lt; RayTracer::Filters</text>
<text text-anchor="start" x="133.5" y="-194.5" font-family="Helvetica,sans-Serif" font-size="10.00">::IFilter, RayTracer</text>
<text text-anchor="middle" x="213" y="-183.5" font-family="Helvetica,sans-Serif" font-size="10.00">::Plugins::Filters::IFilterCreator &gt;</text>
</g>
<!-- Node3 -->
<g id="node3" class="node">
<title>Node3</title>
<g id="a_node3"><a xlink:href="$a01357.html" xlink:title=" ">
<polygon fill="white" stroke="black" points="193.5,-0.5 193.5,-156.5 399.5,-156.5 399.5,-0.5 193.5,-0.5"/>
<text text-anchor="start" x="201.5" y="-144.5" font-family="Helvetica,sans-Serif" font-size="10.00">RayTracer::Plugins</text>
<text text-anchor="start" x="201.5" y="-133.5" font-family="Helvetica,sans-Serif" font-size="10.00">::PluginHandler&lt; RayTracer</text>
<text text-anchor="start" x="201.5" y="-122.5" font-family="Helvetica,sans-Serif" font-size="10.00">::Entities::IMaterial, RayTracer</text>
<text text-anchor="middle" x="296.5" y="-111.5" font-family="Helvetica,sans-Serif" font-size="10.00">::Plugins::Materials::IMaterialCreator &gt;</text>
<polyline fill="none" stroke="black" points="193.5,-104.5 399.5,-104.5 "/>
<text text-anchor="start" x="201.5" y="-92.5" font-family="Helvetica,sans-Serif" font-size="10.00"># _creator</text>
<text text-anchor="start" x="201.5" y="-81.5" font-family="Helvetica,sans-Serif" font-size="10.00"># _elements</text>
<text text-anchor="start" x="201.5" y="-70.5" font-family="Helvetica,sans-Serif" font-size="10.00"># _filePath</text>
<text text-anchor="start" x="201.5" y="-59.5" font-family="Helvetica,sans-Serif" font-size="10.00"># _handler</text>
<polyline fill="none" stroke="black" points="193.5,-52.5 399.5,-52.5 "/>
<text text-anchor="start" x="201.5" y="-40.5" font-family="Helvetica,sans-Serif" font-size="10.00">+ PluginHandler()</text>
<text text-anchor="start" x="201.5" y="-29.5" font-family="Helvetica,sans-Serif" font-size="10.00">+ ~PluginHandler()</text>
<text text-anchor="start" x="201.5" y="-18.5" font-family="Helvetica,sans-Serif" font-size="10.00">+ get()</text>
<text text-anchor="start" x="201.5" y="-7.5" font-family="Helvetica,sans-Serif" font-size="10.00"># getResult()</text>
</a>
</g>
</g>
<!-- Node1&#45;&gt;Node3 -->
<g id="edge2" class="edge">
<title>Node1&#45;&gt;Node3</title>
<path fill="none" stroke="orange" d="M296.5,-227.26C296.5,-204.25 296.5,-179.32 296.5,-156.59"/>
<polygon fill="orange" stroke="orange" points="293,-227.33 296.5,-237.33 300,-227.33 293,-227.33"/>
<text text-anchor="start" x="296.5" y="-211" font-family="Helvetica,sans-Serif" font-size="10.00"> &lt; RayTracer::Entities</text>
<text text-anchor="start" x="296.5" y="-200" font-family="Helvetica,sans-Serif" font-size="10.00">::IMaterial, RayTracer</text>
<text text-anchor="start" x="296.5" y="-189" font-family="Helvetica,sans-Serif" font-size="10.00">::Plugins::Materials::IMaterial</text>
<text text-anchor="middle" x="368" y="-178" font-family="Helvetica,sans-Serif" font-size="10.00">Creator &gt;</text>
</g>
<!-- Node4 -->
<g id="node4" class="node">
<title>Node4</title>
<g id="a_node4"><a xlink:href="$a01357.html" xlink:title=" ">
<polygon fill="white" stroke="black" points="418,-0.5 418,-156.5 603,-156.5 603,-0.5 418,-0.5"/>
<text text-anchor="start" x="426" y="-144.5" font-family="Helvetica,sans-Serif" font-size="10.00">RayTracer::Plugins</text>
<text text-anchor="start" x="426" y="-133.5" font-family="Helvetica,sans-Serif" font-size="10.00">::PluginHandler&lt; RayTracer</text>
<text text-anchor="start" x="426" y="-122.5" font-family="Helvetica,sans-Serif" font-size="10.00">::Entities::IEntity, RayTracer</text>
<text text-anchor="middle" x="510.5" y="-111.5" font-family="Helvetica,sans-Serif" font-size="10.00">::Plugins::Entities::IEntityCreator &gt;</text>
<polyline fill="none" stroke="black" points="418,-104.5 603,-104.5 "/>
<text text-anchor="start" x="426" y="-92.5" font-family="Helvetica,sans-Serif" font-size="10.00"># _creator</text>
<text text-anchor="start" x="426" y="-81.5" font-family="Helvetica,sans-Serif" font-size="10.00"># _elements</text>
<text text-anchor="start" x="426" y="-70.5" font-family="Helvetica,sans-Serif" font-size="10.00"># _filePath</text>
<text text-anchor="start" x="426" y="-59.5" font-family="Helvetica,sans-Serif" font-size="10.00"># _handler</text>
<polyline fill="none" stroke="black" points="418,-52.5 603,-52.5 "/>
<text text-anchor="start" x="426" y="-40.5" font-family="Helvetica,sans-Serif" font-size="10.00">+ PluginHandler()</text>
<text text-anchor="start" x="426" y="-29.5" font-family="Helvetica,sans-Serif" font-size="10.00">+ ~PluginHandler()</text>
<text text-anchor="start" x="426" y="-18.5" font-family="Helvetica,sans-Serif" font-size="10.00">+ get()</text>
<text text-anchor="start" x="426" y="-7.5" font-family="Helvetica,sans-Serif" font-size="10.00"># getResult()</text>
</a>
</g>
</g>
<!-- Node1&#45;&gt;Node4 -->
<g id="edge3" class="edge">
<title>Node1&#45;&gt;Node4</title>
<path fill="none" stroke="orange" d="M379.67,-269.36C402.38,-255.71 425.63,-238.79 443.5,-219 459.71,-201.06 472.8,-178.49 482.96,-156.76"/>
<polygon fill="orange" stroke="orange" points="377.87,-266.35 371.01,-274.42 381.41,-272.4 377.87,-266.35"/>
<text text-anchor="start" x="471.5" y="-211" font-family="Helvetica,sans-Serif" font-size="10.00"> &lt; RayTracer::Entities</text>
<text text-anchor="start" x="471.5" y="-200" font-family="Helvetica,sans-Serif" font-size="10.00">::IEntity, RayTracer</text>
<text text-anchor="start" x="471.5" y="-189" font-family="Helvetica,sans-Serif" font-size="10.00">::Plugins::Entities::IEntity</text>
<text text-anchor="middle" x="532.5" y="-178" font-family="Helvetica,sans-Serif" font-size="10.00">Creator &gt;</text>
</g>
</g>
</svg>
