<?xml version="1.0" encoding="UTF-8" standalone="no"?>
<!DOCTYPE svg PUBLIC "-//W3C//DTD SVG 1.1//EN"
 "http://www.w3.org/Graphics/SVG/1.1/DTD/svg11.dtd">
<!-- Generated by graphviz version 2.43.0 (0)
 -->
<!-- Title: RayTracer::Filters::IFilter Pages: 1 -->
<svg width="328pt" height="281pt"
 viewBox="0.00 0.00 328.00 281.00" xmlns="http://www.w3.org/2000/svg" xmlns:xlink="http://www.w3.org/1999/xlink">
<g id="graph0" class="graph" transform="scale(1 1) rotate(0) translate(4 277)">
<title>RayTracer::Filters::IFilter</title>
<polygon fill="white" stroke="transparent" points="-4,4 -4,-277 324,-277 324,4 -4,4"/>
<!-- Node1 -->
<g id="node1" class="node">
<title>Node1</title>
<g id="a_node1"><a xlink:title="The IFilter class.">
<polygon fill="#bfbfbf" stroke="black" points="96,-193.5 96,-272.5 197,-272.5 197,-193.5 96,-193.5"/>
<text text-anchor="start" x="104" y="-260.5" font-family="Helvetica,sans-Serif" font-size="10.00">RayTracer::Filters</text>
<text text-anchor="middle" x="146.5" y="-249.5" font-family="Helvetica,sans-Serif" font-size="10.00">::IFilter</text>
<polyline fill="none" stroke="black" points="96,-242.5 197,-242.5 "/>
<text text-anchor="middle" x="146.5" y="-230.5" font-family="Helvetica,sans-Serif" font-size="10.00"> </text>
<polyline fill="none" stroke="black" points="96,-223.5 197,-223.5 "/>
<text text-anchor="start" x="104" y="-211.5" font-family="Helvetica,sans-Serif" font-size="10.00">+ ~IFilter()</text>
<text text-anchor="start" x="104" y="-200.5" font-family="Helvetica,sans-Serif" font-size="10.00">+ apply()</text>
</a>
</g>
</g>
<!-- Node2 -->
<g id="node2" class="node">
<title>Node2</title>
<g id="a_node2"><a xlink:href="$a01559.html" xlink:title=" ">
<polygon fill="white" stroke="black" points="0,-6 0,-151 125,-151 125,-6 0,-6"/>
<text text-anchor="start" x="8" y="-139" font-family="Helvetica,sans-Serif" font-size="10.00">RayTracer::PluginsExt</text>
<text text-anchor="start" x="8" y="-128" font-family="Helvetica,sans-Serif" font-size="10.00">::AntiAliasing::SSAAx4</text>
<text text-anchor="middle" x="62.5" y="-117" font-family="Helvetica,sans-Serif" font-size="10.00">::SSAAx4Filter</text>
<polyline fill="none" stroke="black" points="0,-110 125,-110 "/>
<text text-anchor="start" x="8" y="-98" font-family="Helvetica,sans-Serif" font-size="10.00">&#45; _logger</text>
<text text-anchor="start" x="8" y="-87" font-family="Helvetica,sans-Serif" font-size="10.00">&#45; _maxThread</text>
<text text-anchor="start" x="8" y="-76" font-family="Helvetica,sans-Serif" font-size="10.00">&#45; _futures</text>
<polyline fill="none" stroke="black" points="0,-69 125,-69 "/>
<text text-anchor="start" x="8" y="-57" font-family="Helvetica,sans-Serif" font-size="10.00">+ SSAAx4Filter()</text>
<text text-anchor="start" x="8" y="-46" font-family="Helvetica,sans-Serif" font-size="10.00">+ apply()</text>
<text text-anchor="start" x="8" y="-35" font-family="Helvetica,sans-Serif" font-size="10.00">&#45; waitOnePlace()</text>
<text text-anchor="start" x="8" y="-24" font-family="Helvetica,sans-Serif" font-size="10.00">&#45; waitAllFinisehd()</text>
<text text-anchor="start" x="8" y="-13" font-family="Helvetica,sans-Serif" font-size="10.00">&#45; getColorsMean()</text>
</a>
</g>
</g>
<!-- Node1&#45;&gt;Node2 -->
<g id="edge1" class="edge">
<title>Node1&#45;&gt;Node2</title>
<path fill="none" stroke="midnightblue" d="M120.15,-184.16C114.38,-173.7 108.16,-162.39 102.01,-151.22"/>
<polygon fill="none" stroke="midnightblue" points="117.2,-186.05 125.09,-193.12 123.33,-182.68 117.2,-186.05"/>
</g>
<!-- Node3 -->
<g id="node3" class="node">
<title>Node3</title>
<g id="a_node3"><a xlink:href="$a01567.html" xlink:title=" ">
<polygon fill="white" stroke="black" points="143,-0.5 143,-156.5 320,-156.5 320,-0.5 143,-0.5"/>
<text text-anchor="start" x="151" y="-144.5" font-family="Helvetica,sans-Serif" font-size="10.00">RayTracer::PluginsExt</text>
<text text-anchor="start" x="151" y="-133.5" font-family="Helvetica,sans-Serif" font-size="10.00">::BlackAndWhite::BlackAndWhite</text>
<text text-anchor="middle" x="231.5" y="-122.5" font-family="Helvetica,sans-Serif" font-size="10.00">Filter</text>
<polyline fill="none" stroke="black" points="143,-115.5 320,-115.5 "/>
<text text-anchor="start" x="151" y="-103.5" font-family="Helvetica,sans-Serif" font-size="10.00">&#45; _logger</text>
<text text-anchor="start" x="151" y="-92.5" font-family="Helvetica,sans-Serif" font-size="10.00">&#45; _maxThread</text>
<text text-anchor="start" x="151" y="-81.5" font-family="Helvetica,sans-Serif" font-size="10.00">&#45; _futures</text>
<text text-anchor="start" x="151" y="-70.5" font-family="Helvetica,sans-Serif" font-size="10.00">&#45; _method</text>
<polyline fill="none" stroke="black" points="143,-63.5 320,-63.5 "/>
<text text-anchor="start" x="151" y="-51.5" font-family="Helvetica,sans-Serif" font-size="10.00">+ BlackAndWhiteFilter()</text>
<text text-anchor="start" x="151" y="-40.5" font-family="Helvetica,sans-Serif" font-size="10.00">+ apply()</text>
<text text-anchor="start" x="151" y="-29.5" font-family="Helvetica,sans-Serif" font-size="10.00">&#45; waitOnePlace()</text>
<text text-anchor="start" x="151" y="-18.5" font-family="Helvetica,sans-Serif" font-size="10.00">&#45; waitAllFinisehd()</text>
<text text-anchor="start" x="151" y="-7.5" font-family="Helvetica,sans-Serif" font-size="10.00">&#45; getColorsMean()</text>
</a>
</g>
</g>
<!-- Node1&#45;&gt;Node3 -->
<g id="edge2" class="edge">
<title>Node1&#45;&gt;Node3</title>
<path fill="none" stroke="midnightblue" d="M173.15,-184.19C178.05,-175.4 183.28,-166.01 188.52,-156.61"/>
<polygon fill="none" stroke="midnightblue" points="169.98,-182.68 168.17,-193.12 176.09,-186.09 169.98,-182.68"/>
</g>
</g>
</svg>
