<?xml version="1.0" encoding="UTF-8" standalone="no"?>
<!DOCTYPE svg PUBLIC "-//W3C//DTD SVG 1.1//EN"
 "http://www.w3.org/Graphics/SVG/1.1/DTD/svg11.dtd">
<!-- Generated by graphviz version 2.43.0 (0)
 -->
<!-- Title: RayTracer::Plugins::Filters::FilterLoader Pages: 1 -->
<svg width="222pt" height="598pt"
 viewBox="0.00 0.00 221.50 598.00" xmlns="http://www.w3.org/2000/svg" xmlns:xlink="http://www.w3.org/1999/xlink">
<g id="graph0" class="graph" transform="scale(1 1) rotate(0) translate(4 594)">
<title>RayTracer::Plugins::Filters::FilterLoader</title>
<polygon fill="white" stroke="transparent" points="-4,4 -4,-594 217.5,-594 217.5,4 -4,4"/>
<!-- Node1 -->
<g id="node1" class="node">
<title>Node1</title>
<g id="a_node1"><a xlink:title="The FilterLoader.">
<polygon fill="#bfbfbf" stroke="black" points="23.5,-0.5 23.5,-79.5 139.5,-79.5 139.5,-0.5 23.5,-0.5"/>
<text text-anchor="start" x="31.5" y="-67.5" font-family="Helvetica,sans-Serif" font-size="10.00">RayTracer::Plugins</text>
<text text-anchor="middle" x="81.5" y="-56.5" font-family="Helvetica,sans-Serif" font-size="10.00">::Filters::FilterLoader</text>
<polyline fill="none" stroke="black" points="23.5,-49.5 139.5,-49.5 "/>
<text text-anchor="middle" x="81.5" y="-37.5" font-family="Helvetica,sans-Serif" font-size="10.00"> </text>
<polyline fill="none" stroke="black" points="23.5,-30.5 139.5,-30.5 "/>
<text text-anchor="start" x="31.5" y="-18.5" font-family="Helvetica,sans-Serif" font-size="10.00">+ FilterLoader()</text>
<text text-anchor="start" x="31.5" y="-7.5" font-family="Helvetica,sans-Serif" font-size="10.00">+ loadFilters()</text>
</a>
</g>
</g>
<!-- Node2 -->
<g id="node2" class="node">
<title>Node2</title>
<g id="a_node2"><a xlink:href="$a01424.html" xlink:title=" ">
<polygon fill="white" stroke="black" points="0,-117.5 0,-218.5 163,-218.5 163,-117.5 0,-117.5"/>
<text text-anchor="start" x="8" y="-206.5" font-family="Helvetica,sans-Serif" font-size="10.00">RayTracer::Plugins</text>
<text text-anchor="start" x="8" y="-195.5" font-family="Helvetica,sans-Serif" font-size="10.00">::PluginLoader&lt; FilterHandler,</text>
<text text-anchor="start" x="8" y="-184.5" font-family="Helvetica,sans-Serif" font-size="10.00"> RayTracer::Filters::IFilter,</text>
<text text-anchor="middle" x="81.5" y="-173.5" font-family="Helvetica,sans-Serif" font-size="10.00"> Factories::FilterFactory &gt;</text>
<polyline fill="none" stroke="black" points="0,-166.5 163,-166.5 "/>
<text text-anchor="start" x="8" y="-154.5" font-family="Helvetica,sans-Serif" font-size="10.00"># _directory</text>
<polyline fill="none" stroke="black" points="0,-147.5 163,-147.5 "/>
<text text-anchor="start" x="8" y="-135.5" font-family="Helvetica,sans-Serif" font-size="10.00">+ PluginLoader()</text>
<text text-anchor="start" x="8" y="-124.5" font-family="Helvetica,sans-Serif" font-size="10.00">+ load()</text>
</a>
</g>
</g>
<!-- Node2&#45;&gt;Node1 -->
<g id="edge1" class="edge">
<title>Node2&#45;&gt;Node1</title>
<path fill="none" stroke="darkgreen" d="M81.5,-107.11C81.5,-97.74 81.5,-88.28 81.5,-79.56"/>
<polygon fill="none" stroke="darkgreen" points="78,-107.2 81.5,-117.2 85,-107.2 78,-107.2"/>
</g>
<!-- Node3 -->
<g id="node3" class="node">
<title>Node3</title>
<g id="a_node3"><a xlink:href="$a01424.html" xlink:title=" ">
<polygon fill="white" stroke="black" points="12.5,-288.5 12.5,-378.5 150.5,-378.5 150.5,-288.5 12.5,-288.5"/>
<text text-anchor="start" x="20.5" y="-366.5" font-family="Helvetica,sans-Serif" font-size="10.00">RayTracer::Plugins</text>
<text text-anchor="start" x="20.5" y="-355.5" font-family="Helvetica,sans-Serif" font-size="10.00">::PluginLoader&lt; Handler,</text>
<text text-anchor="middle" x="81.5" y="-344.5" font-family="Helvetica,sans-Serif" font-size="10.00"> Interface, Factory &gt;</text>
<polyline fill="none" stroke="black" points="12.5,-337.5 150.5,-337.5 "/>
<text text-anchor="middle" x="81.5" y="-325.5" font-family="Helvetica,sans-Serif" font-size="10.00"> </text>
<polyline fill="none" stroke="black" points="12.5,-318.5 150.5,-318.5 "/>
<text text-anchor="start" x="20.5" y="-306.5" font-family="Helvetica,sans-Serif" font-size="10.00">+ PluginLoader()</text>
<text text-anchor="start" x="20.5" y="-295.5" font-family="Helvetica,sans-Serif" font-size="10.00">+ load()</text>
</a>
</g>
</g>
<!-- Node3&#45;&gt;Node2 -->
<g id="edge2" class="edge">
<title>Node3&#45;&gt;Node2</title>
<path fill="none" stroke="orange" d="M81.5,-278.16C81.5,-258.99 81.5,-237.54 81.5,-218.76"/>
<polygon fill="orange" stroke="orange" points="78,-278.25 81.5,-288.25 85,-278.25 78,-278.25"/>
<text text-anchor="start" x="81.5" y="-262" font-family="Helvetica,sans-Serif" font-size="10.00"> &lt; FilterHandler, RayTracer</text>
<text text-anchor="start" x="81.5" y="-251" font-family="Helvetica,sans-Serif" font-size="10.00">::Filters::IFilter, Factories</text>
<text text-anchor="middle" x="147.5" y="-240" font-family="Helvetica,sans-Serif" font-size="10.00">::FilterFactory &gt;</text>
</g>
<!-- Node4 -->
<g id="node4" class="node">
<title>Node4</title>
<g id="a_node4"><a xlink:title=" ">
<polygon fill="white" stroke="#bfbfbf" points="49,-426.5 49,-483.5 114,-483.5 114,-426.5 49,-426.5"/>
<text text-anchor="middle" x="81.5" y="-471.5" font-family="Helvetica,sans-Serif" font-size="10.00">std::string</text>
<polyline fill="none" stroke="#bfbfbf" points="49,-464.5 114,-464.5 "/>
<text text-anchor="middle" x="81.5" y="-452.5" font-family="Helvetica,sans-Serif" font-size="10.00"> </text>
<polyline fill="none" stroke="#bfbfbf" points="49,-445.5 114,-445.5 "/>
<text text-anchor="middle" x="81.5" y="-433.5" font-family="Helvetica,sans-Serif" font-size="10.00"> </text>
</a>
</g>
</g>
<!-- Node4&#45;&gt;Node3 -->
<g id="edge3" class="edge">
<title>Node4&#45;&gt;Node3</title>
<path fill="none" stroke="#404040" d="M81.5,-426.28C81.5,-415.73 81.5,-403.29 81.5,-391.03"/>
<polygon fill="none" stroke="#404040" points="81.5,-390.91 77.5,-384.91 81.5,-378.91 85.5,-384.91 81.5,-390.91"/>
<text text-anchor="middle" x="112" y="-400" font-family="Helvetica,sans-Serif" font-size="10.00"> #_directory</text>
</g>
<!-- Node5 -->
<g id="node5" class="node">
<title>Node5</title>
<g id="a_node5"><a xlink:title=" ">
<polygon fill="white" stroke="#bfbfbf" points="29.5,-521.5 29.5,-589.5 133.5,-589.5 133.5,-521.5 29.5,-521.5"/>
<text text-anchor="start" x="37.5" y="-577.5" font-family="Helvetica,sans-Serif" font-size="10.00">std::basic_string&lt;</text>
<text text-anchor="middle" x="81.5" y="-566.5" font-family="Helvetica,sans-Serif" font-size="10.00"> Char &gt;</text>
<polyline fill="none" stroke="#bfbfbf" points="29.5,-559.5 133.5,-559.5 "/>
<text text-anchor="middle" x="81.5" y="-547.5" font-family="Helvetica,sans-Serif" font-size="10.00"> </text>
<polyline fill="none" stroke="#bfbfbf" points="29.5,-540.5 133.5,-540.5 "/>
<text text-anchor="middle" x="81.5" y="-528.5" font-family="Helvetica,sans-Serif" font-size="10.00"> </text>
</a>
</g>
</g>
<!-- Node5&#45;&gt;Node4 -->
<g id="edge4" class="edge">
<title>Node5&#45;&gt;Node4</title>
<path fill="none" stroke="midnightblue" d="M81.5,-511.38C81.5,-501.94 81.5,-492.2 81.5,-483.57"/>
<polygon fill="none" stroke="midnightblue" points="78,-511.43 81.5,-521.43 85,-511.43 78,-511.43"/>
</g>
</g>
</svg>
