<?xml version="1.0" encoding="UTF-8" standalone="no"?>
<!DOCTYPE svg PUBLIC "-//W3C//DTD SVG 1.1//EN"
 "http://www.w3.org/Graphics/SVG/1.1/DTD/svg11.dtd">
<!-- Generated by graphviz version 2.43.0 (0)
 -->
<!-- Title: RayTracer::Entities::IMaterial Pages: 1 -->
<svg width="1024pt" height="325pt"
 viewBox="0.00 0.00 1023.50 325.00" xmlns="http://www.w3.org/2000/svg" xmlns:xlink="http://www.w3.org/1999/xlink">
<g id="graph0" class="graph" transform="scale(1 1) rotate(0) translate(4 321)">
<title>RayTracer::Entities::IMaterial</title>
<polygon fill="white" stroke="transparent" points="-4,4 -4,-321 1019.5,-321 1019.5,4 -4,4"/>
<!-- Node1 -->
<g id="node1" class="node">
<title>Node1</title>
<g id="a_node1"><a xlink:title="The IMaterial class.">
<polygon fill="#bfbfbf" stroke="black" points="463.5,-215.5 463.5,-316.5 575.5,-316.5 575.5,-215.5 463.5,-215.5"/>
<text text-anchor="start" x="471.5" y="-304.5" font-family="Helvetica,sans-Serif" font-size="10.00">RayTracer::Entities</text>
<text text-anchor="middle" x="519.5" y="-293.5" font-family="Helvetica,sans-Serif" font-size="10.00">::IMaterial</text>
<polyline fill="none" stroke="black" points="463.5,-286.5 575.5,-286.5 "/>
<text text-anchor="middle" x="519.5" y="-274.5" font-family="Helvetica,sans-Serif" font-size="10.00"> </text>
<polyline fill="none" stroke="black" points="463.5,-267.5 575.5,-267.5 "/>
<text text-anchor="start" x="471.5" y="-255.5" font-family="Helvetica,sans-Serif" font-size="10.00">+ ~IMaterial()</text>
<text text-anchor="start" x="471.5" y="-244.5" font-family="Helvetica,sans-Serif" font-size="10.00">+ getColor()</text>
<text text-anchor="start" x="471.5" y="-233.5" font-family="Helvetica,sans-Serif" font-size="10.00">+ setColor()</text>
<text text-anchor="start" x="471.5" y="-222.5" font-family="Helvetica,sans-Serif" font-size="10.00">+ redirectionLight()</text>
</a>
</g>
</g>
<!-- Node2 -->
<g id="node2" class="node">
<title>Node2</title>
<g id="a_node2"><a xlink:href="$a01638.html" xlink:title=" ">
<polygon fill="white" stroke="black" points="0,-6 0,-173 185,-173 185,-6 0,-6"/>
<text text-anchor="start" x="8" y="-161" font-family="Helvetica,sans-Serif" font-size="10.00">RayTracer::PluginsExt</text>
<text text-anchor="middle" x="92.5" y="-150" font-family="Helvetica,sans-Serif" font-size="10.00">::ChessBoard::ChessBoardMaterial</text>
<polyline fill="none" stroke="black" points="0,-143 185,-143 "/>
<text text-anchor="start" x="8" y="-131" font-family="Helvetica,sans-Serif" font-size="10.00">&#45; _ambient</text>
<text text-anchor="start" x="8" y="-120" font-family="Helvetica,sans-Serif" font-size="10.00">&#45; _diffuse</text>
<text text-anchor="start" x="8" y="-109" font-family="Helvetica,sans-Serif" font-size="10.00">&#45; _specular</text>
<text text-anchor="start" x="8" y="-98" font-family="Helvetica,sans-Serif" font-size="10.00">&#45; _shininess</text>
<text text-anchor="start" x="8" y="-87" font-family="Helvetica,sans-Serif" font-size="10.00">&#45; _pair</text>
<text text-anchor="start" x="8" y="-76" font-family="Helvetica,sans-Serif" font-size="10.00">&#45; _impair</text>
<text text-anchor="start" x="8" y="-65" font-family="Helvetica,sans-Serif" font-size="10.00">&#45; _size</text>
<polyline fill="none" stroke="black" points="0,-58 185,-58 "/>
<text text-anchor="start" x="8" y="-46" font-family="Helvetica,sans-Serif" font-size="10.00">+ ChessBoardMaterial()</text>
<text text-anchor="start" x="8" y="-35" font-family="Helvetica,sans-Serif" font-size="10.00">+ getColor()</text>
<text text-anchor="start" x="8" y="-24" font-family="Helvetica,sans-Serif" font-size="10.00">+ setColor()</text>
<text text-anchor="start" x="8" y="-13" font-family="Helvetica,sans-Serif" font-size="10.00">+ redirectionLight()</text>
</a>
</g>
</g>
<!-- Node1&#45;&gt;Node2 -->
<g id="edge1" class="edge">
<title>Node1&#45;&gt;Node2</title>
<path fill="none" stroke="midnightblue" d="M453.05,-256.46C384.99,-245.7 277.67,-223.01 194.5,-179 190.98,-177.14 187.47,-175.13 184,-173.01"/>
<polygon fill="none" stroke="midnightblue" points="452.79,-259.96 463.21,-258.03 453.86,-253.05 452.79,-259.96"/>
</g>
<!-- Node3 -->
<g id="node3" class="node">
<title>Node3</title>
<g id="a_node3"><a xlink:href="$a01694.html" xlink:title=" ">
<polygon fill="white" stroke="black" points="203.5,-0.5 203.5,-178.5 331.5,-178.5 331.5,-0.5 203.5,-0.5"/>
<text text-anchor="start" x="211.5" y="-166.5" font-family="Helvetica,sans-Serif" font-size="10.00">RayTracer::PluginsExt</text>
<text text-anchor="middle" x="267.5" y="-155.5" font-family="Helvetica,sans-Serif" font-size="10.00">::Mirror::MirrorMaterial</text>
<polyline fill="none" stroke="black" points="203.5,-148.5 331.5,-148.5 "/>
<text text-anchor="start" x="211.5" y="-136.5" font-family="Helvetica,sans-Serif" font-size="10.00">&#45; _color</text>
<text text-anchor="start" x="211.5" y="-125.5" font-family="Helvetica,sans-Serif" font-size="10.00">&#45; _ambient</text>
<text text-anchor="start" x="211.5" y="-114.5" font-family="Helvetica,sans-Serif" font-size="10.00">&#45; _diffuse</text>
<text text-anchor="start" x="211.5" y="-103.5" font-family="Helvetica,sans-Serif" font-size="10.00">&#45; _specular</text>
<text text-anchor="start" x="211.5" y="-92.5" font-family="Helvetica,sans-Serif" font-size="10.00">&#45; _shininess</text>
<text text-anchor="start" x="211.5" y="-81.5" font-family="Helvetica,sans-Serif" font-size="10.00">&#45; _transparency</text>
<polyline fill="none" stroke="black" points="203.5,-74.5 331.5,-74.5 "/>
<text text-anchor="start" x="211.5" y="-62.5" font-family="Helvetica,sans-Serif" font-size="10.00">+ MirrorMaterial()</text>
<text text-anchor="start" x="211.5" y="-51.5" font-family="Helvetica,sans-Serif" font-size="10.00">+ getColor()</text>
<text text-anchor="start" x="211.5" y="-40.5" font-family="Helvetica,sans-Serif" font-size="10.00">+ setColor()</text>
<text text-anchor="start" x="211.5" y="-29.5" font-family="Helvetica,sans-Serif" font-size="10.00">+ redirectionLight()</text>
<text text-anchor="start" x="211.5" y="-18.5" font-family="Helvetica,sans-Serif" font-size="10.00">&#45; randomDouble()</text>
<text text-anchor="start" x="211.5" y="-7.5" font-family="Helvetica,sans-Serif" font-size="10.00">&#45; getNextColor()</text>
</a>
</g>
</g>
<!-- Node1&#45;&gt;Node3 -->
<g id="edge2" class="edge">
<title>Node1&#45;&gt;Node3</title>
<path fill="none" stroke="midnightblue" d="M453.76,-241.47C418.11,-226.8 374.51,-205.64 340.5,-179 337.52,-176.67 334.58,-174.19 331.69,-171.61"/>
<polygon fill="none" stroke="midnightblue" points="452.54,-244.75 463.12,-245.25 455.16,-238.26 452.54,-244.75"/>
</g>
<!-- Node4 -->
<g id="node4" class="node">
<title>Node4</title>
<g id="a_node4"><a xlink:href="$a01710.html" xlink:title=" ">
<polygon fill="white" stroke="black" points="349.5,-11.5 349.5,-167.5 507.5,-167.5 507.5,-11.5 349.5,-11.5"/>
<text text-anchor="start" x="357.5" y="-155.5" font-family="Helvetica,sans-Serif" font-size="10.00">RayTracer::PluginsExt</text>
<text text-anchor="middle" x="428.5" y="-144.5" font-family="Helvetica,sans-Serif" font-size="10.00">::PlainMaterial::PlainMaterial</text>
<polyline fill="none" stroke="black" points="349.5,-137.5 507.5,-137.5 "/>
<text text-anchor="start" x="357.5" y="-125.5" font-family="Helvetica,sans-Serif" font-size="10.00">&#45; _color</text>
<text text-anchor="start" x="357.5" y="-114.5" font-family="Helvetica,sans-Serif" font-size="10.00">&#45; _ambient</text>
<text text-anchor="start" x="357.5" y="-103.5" font-family="Helvetica,sans-Serif" font-size="10.00">&#45; _diffuse</text>
<text text-anchor="start" x="357.5" y="-92.5" font-family="Helvetica,sans-Serif" font-size="10.00">&#45; _specular</text>
<text text-anchor="start" x="357.5" y="-81.5" font-family="Helvetica,sans-Serif" font-size="10.00">&#45; _shininess</text>
<polyline fill="none" stroke="black" points="349.5,-74.5 507.5,-74.5 "/>
<text text-anchor="start" x="357.5" y="-62.5" font-family="Helvetica,sans-Serif" font-size="10.00">+ PlainMaterial()</text>
<text text-anchor="start" x="357.5" y="-51.5" font-family="Helvetica,sans-Serif" font-size="10.00">+ getColor()</text>
<text text-anchor="start" x="357.5" y="-40.5" font-family="Helvetica,sans-Serif" font-size="10.00">+ setColor()</text>
<text text-anchor="start" x="357.5" y="-29.5" font-family="Helvetica,sans-Serif" font-size="10.00">+ redirectionLight()</text>
<text text-anchor="start" x="357.5" y="-18.5" font-family="Helvetica,sans-Serif" font-size="10.00">+ round()</text>
</a>
</g>
</g>
<!-- Node1&#45;&gt;Node4 -->
<g id="edge3" class="edge">
<title>Node1&#45;&gt;Node4</title>
<path fill="none" stroke="midnightblue" d="M489.01,-206.53C482.49,-194.03 475.51,-180.64 468.69,-167.56"/>
<polygon fill="none" stroke="midnightblue" points="485.94,-208.21 493.67,-215.46 492.15,-204.98 485.94,-208.21"/>
</g>
<!-- Node5 -->
<g id="node5" class="node">
<title>Node5</title>
<g id="a_node5"><a xlink:href="$a01738.html" xlink:title=" ">
<polygon fill="white" stroke="black" points="525.5,-0.5 525.5,-178.5 695.5,-178.5 695.5,-0.5 525.5,-0.5"/>
<text text-anchor="start" x="533.5" y="-166.5" font-family="Helvetica,sans-Serif" font-size="10.00">RayTracer::PluginsExt</text>
<text text-anchor="middle" x="610.5" y="-155.5" font-family="Helvetica,sans-Serif" font-size="10.00">::Refraction::RefractionMaterial</text>
<polyline fill="none" stroke="black" points="525.5,-148.5 695.5,-148.5 "/>
<text text-anchor="start" x="533.5" y="-136.5" font-family="Helvetica,sans-Serif" font-size="10.00">&#45; _color</text>
<text text-anchor="start" x="533.5" y="-125.5" font-family="Helvetica,sans-Serif" font-size="10.00">&#45; _ambient</text>
<text text-anchor="start" x="533.5" y="-114.5" font-family="Helvetica,sans-Serif" font-size="10.00">&#45; _diffuse</text>
<text text-anchor="start" x="533.5" y="-103.5" font-family="Helvetica,sans-Serif" font-size="10.00">&#45; _specular</text>
<text text-anchor="start" x="533.5" y="-92.5" font-family="Helvetica,sans-Serif" font-size="10.00">&#45; _refraction</text>
<text text-anchor="start" x="533.5" y="-81.5" font-family="Helvetica,sans-Serif" font-size="10.00">&#45; _shininess</text>
<text text-anchor="start" x="533.5" y="-70.5" font-family="Helvetica,sans-Serif" font-size="10.00">&#45; _transparency</text>
<polyline fill="none" stroke="black" points="525.5,-63.5 695.5,-63.5 "/>
<text text-anchor="start" x="533.5" y="-51.5" font-family="Helvetica,sans-Serif" font-size="10.00">+ RefractionMaterial()</text>
<text text-anchor="start" x="533.5" y="-40.5" font-family="Helvetica,sans-Serif" font-size="10.00">+ getColor()</text>
<text text-anchor="start" x="533.5" y="-29.5" font-family="Helvetica,sans-Serif" font-size="10.00">+ setColor()</text>
<text text-anchor="start" x="533.5" y="-18.5" font-family="Helvetica,sans-Serif" font-size="10.00">+ redirectionLight()</text>
<text text-anchor="start" x="533.5" y="-7.5" font-family="Helvetica,sans-Serif" font-size="10.00">&#45; getNextColor()</text>
</a>
</g>
</g>
<!-- Node1&#45;&gt;Node5 -->
<g id="edge4" class="edge">
<title>Node1&#45;&gt;Node5</title>
<path fill="none" stroke="midnightblue" d="M550.07,-206.38C554.7,-197.49 559.57,-188.16 564.45,-178.81"/>
<polygon fill="none" stroke="midnightblue" points="546.85,-204.98 545.33,-215.46 553.06,-208.21 546.85,-204.98"/>
</g>
<!-- Node6 -->
<g id="node6" class="node">
<title>Node6</title>
<g id="a_node6"><a xlink:href="$a01770.html" xlink:title=" ">
<polygon fill="white" stroke="black" points="714,-0.5 714,-178.5 871,-178.5 871,-0.5 714,-0.5"/>
<text text-anchor="start" x="722" y="-166.5" font-family="Helvetica,sans-Serif" font-size="10.00">RayTracer::PluginsExt</text>
<text text-anchor="start" x="722" y="-155.5" font-family="Helvetica,sans-Serif" font-size="10.00">::Transparency::Transparency</text>
<text text-anchor="middle" x="792.5" y="-144.5" font-family="Helvetica,sans-Serif" font-size="10.00">Material</text>
<polyline fill="none" stroke="black" points="714,-137.5 871,-137.5 "/>
<text text-anchor="start" x="722" y="-125.5" font-family="Helvetica,sans-Serif" font-size="10.00">&#45; _color</text>
<text text-anchor="start" x="722" y="-114.5" font-family="Helvetica,sans-Serif" font-size="10.00">&#45; _ambient</text>
<text text-anchor="start" x="722" y="-103.5" font-family="Helvetica,sans-Serif" font-size="10.00">&#45; _diffuse</text>
<text text-anchor="start" x="722" y="-92.5" font-family="Helvetica,sans-Serif" font-size="10.00">&#45; _specular</text>
<text text-anchor="start" x="722" y="-81.5" font-family="Helvetica,sans-Serif" font-size="10.00">&#45; _shininess</text>
<text text-anchor="start" x="722" y="-70.5" font-family="Helvetica,sans-Serif" font-size="10.00">&#45; _transparency</text>
<polyline fill="none" stroke="black" points="714,-63.5 871,-63.5 "/>
<text text-anchor="start" x="722" y="-51.5" font-family="Helvetica,sans-Serif" font-size="10.00">+ TransparencyMaterial()</text>
<text text-anchor="start" x="722" y="-40.5" font-family="Helvetica,sans-Serif" font-size="10.00">+ getColor()</text>
<text text-anchor="start" x="722" y="-29.5" font-family="Helvetica,sans-Serif" font-size="10.00">+ setColor()</text>
<text text-anchor="start" x="722" y="-18.5" font-family="Helvetica,sans-Serif" font-size="10.00">+ redirectionLight()</text>
<text text-anchor="start" x="722" y="-7.5" font-family="Helvetica,sans-Serif" font-size="10.00">&#45; getNextColor()</text>
</a>
</g>
</g>
<!-- Node1&#45;&gt;Node6 -->
<g id="edge5" class="edge">
<title>Node1&#45;&gt;Node6</title>
<path fill="none" stroke="midnightblue" d="M585.31,-241.06C622.09,-226.09 667.77,-204.77 704.5,-179 707.6,-176.82 710.7,-174.53 713.76,-172.15"/>
<polygon fill="none" stroke="midnightblue" points="583.66,-237.95 575.68,-244.92 586.26,-244.45 583.66,-237.95"/>
</g>
<!-- Node7 -->
<g id="node7" class="node">
<title>Node7</title>
<g id="a_node7"><a xlink:href="$a01786.html" xlink:title=" ">
<polygon fill="white" stroke="black" points="889.5,-6 889.5,-173 1015.5,-173 1015.5,-6 889.5,-6"/>
<text text-anchor="start" x="897.5" y="-161" font-family="Helvetica,sans-Serif" font-size="10.00">RayTracer::PluginsExt</text>
<text text-anchor="middle" x="952.5" y="-150" font-family="Helvetica,sans-Serif" font-size="10.00">::Zebra::ZebraMaterial</text>
<polyline fill="none" stroke="black" points="889.5,-143 1015.5,-143 "/>
<text text-anchor="start" x="897.5" y="-131" font-family="Helvetica,sans-Serif" font-size="10.00">&#45; _ambient</text>
<text text-anchor="start" x="897.5" y="-120" font-family="Helvetica,sans-Serif" font-size="10.00">&#45; _diffuse</text>
<text text-anchor="start" x="897.5" y="-109" font-family="Helvetica,sans-Serif" font-size="10.00">&#45; _specular</text>
<text text-anchor="start" x="897.5" y="-98" font-family="Helvetica,sans-Serif" font-size="10.00">&#45; _shininess</text>
<text text-anchor="start" x="897.5" y="-87" font-family="Helvetica,sans-Serif" font-size="10.00">&#45; _pair</text>
<text text-anchor="start" x="897.5" y="-76" font-family="Helvetica,sans-Serif" font-size="10.00">&#45; _impair</text>
<text text-anchor="start" x="897.5" y="-65" font-family="Helvetica,sans-Serif" font-size="10.00">&#45; _size</text>
<polyline fill="none" stroke="black" points="889.5,-58 1015.5,-58 "/>
<text text-anchor="start" x="897.5" y="-46" font-family="Helvetica,sans-Serif" font-size="10.00">+ ZebraMaterial()</text>
<text text-anchor="start" x="897.5" y="-35" font-family="Helvetica,sans-Serif" font-size="10.00">+ getColor()</text>
<text text-anchor="start" x="897.5" y="-24" font-family="Helvetica,sans-Serif" font-size="10.00">+ setColor()</text>
<text text-anchor="start" x="897.5" y="-13" font-family="Helvetica,sans-Serif" font-size="10.00">+ redirectionLight()</text>
</a>
</g>
</g>
<!-- Node1&#45;&gt;Node7 -->
<g id="edge6" class="edge">
<title>Node1&#45;&gt;Node7</title>
<path fill="none" stroke="midnightblue" d="M585.71,-261.9C662.08,-255.61 788.87,-236.56 880.5,-179 883.52,-177.1 886.47,-175.04 889.35,-172.83"/>
<polygon fill="none" stroke="midnightblue" points="585.44,-258.42 575.74,-262.68 585.98,-265.39 585.44,-258.42"/>
</g>
</g>
</svg>
