<?xml version="1.0" encoding="UTF-8" standalone="no"?>
<!DOCTYPE svg PUBLIC "-//W3C//DTD SVG 1.1//EN"
 "http://www.w3.org/Graphics/SVG/1.1/DTD/svg11.dtd">
<!-- Generated by graphviz version 2.43.0 (0)
 -->
<!-- Title: RayTracer::Logger Pages: 1 -->
<svg width="115pt" height="292pt"
 viewBox="0.00 0.00 115.00 292.00" xmlns="http://www.w3.org/2000/svg" xmlns:xlink="http://www.w3.org/1999/xlink">
<g id="graph0" class="graph" transform="scale(1 1) rotate(0) translate(4 288)">
<title>RayTracer::Logger</title>
<polygon fill="white" stroke="transparent" points="-4,4 -4,-288 111,-288 111,4 -4,4"/>
<!-- Node1 -->
<g id="node1" class="node">
<title>Node1</title>
<g id="a_node1"><a xlink:title="Logger singleton.">
<polygon fill="#bfbfbf" stroke="black" points="1.5,-0.5 1.5,-123.5 105.5,-123.5 105.5,-0.5 1.5,-0.5"/>
<text text-anchor="middle" x="53.5" y="-111.5" font-family="Helvetica,sans-Serif" font-size="10.00">RayTracer::Logger</text>
<polyline fill="none" stroke="black" points="1.5,-104.5 105.5,-104.5 "/>
<text text-anchor="middle" x="53.5" y="-92.5" font-family="Helvetica,sans-Serif" font-size="10.00"> </text>
<polyline fill="none" stroke="black" points="1.5,-85.5 105.5,-85.5 "/>
<text text-anchor="start" x="9.5" y="-73.5" font-family="Helvetica,sans-Serif" font-size="10.00">+ fatal()</text>
<text text-anchor="start" x="9.5" y="-62.5" font-family="Helvetica,sans-Serif" font-size="10.00">+ error()</text>
<text text-anchor="start" x="9.5" y="-51.5" font-family="Helvetica,sans-Serif" font-size="10.00">+ warn()</text>
<text text-anchor="start" x="9.5" y="-40.5" font-family="Helvetica,sans-Serif" font-size="10.00">+ info()</text>
<text text-anchor="start" x="9.5" y="-29.5" font-family="Helvetica,sans-Serif" font-size="10.00">+ debug()</text>
<text text-anchor="start" x="9.5" y="-18.5" font-family="Helvetica,sans-Serif" font-size="10.00">+ trace()</text>
<text text-anchor="start" x="9.5" y="-7.5" font-family="Helvetica,sans-Serif" font-size="10.00">&#45; print()</text>
</a>
</g>
</g>
<!-- Node2 -->
<g id="node2" class="node">
<title>Node2</title>
<g id="a_node2"><a xlink:href="$a01260.html" xlink:title="Logger singleton.">
<polygon fill="white" stroke="black" points="0,-160.5 0,-283.5 107,-283.5 107,-160.5 0,-160.5"/>
<text text-anchor="middle" x="53.5" y="-271.5" font-family="Helvetica,sans-Serif" font-size="10.00">RayTracer::ILogger</text>
<polyline fill="none" stroke="black" points="0,-264.5 107,-264.5 "/>
<text text-anchor="middle" x="53.5" y="-252.5" font-family="Helvetica,sans-Serif" font-size="10.00"> </text>
<polyline fill="none" stroke="black" points="0,-245.5 107,-245.5 "/>
<text text-anchor="start" x="8" y="-233.5" font-family="Helvetica,sans-Serif" font-size="10.00">+ ~ILogger()</text>
<text text-anchor="start" x="8" y="-222.5" font-family="Helvetica,sans-Serif" font-size="10.00">+ fatal()</text>
<text text-anchor="start" x="8" y="-211.5" font-family="Helvetica,sans-Serif" font-size="10.00">+ error()</text>
<text text-anchor="start" x="8" y="-200.5" font-family="Helvetica,sans-Serif" font-size="10.00">+ warn()</text>
<text text-anchor="start" x="8" y="-189.5" font-family="Helvetica,sans-Serif" font-size="10.00">+ info()</text>
<text text-anchor="start" x="8" y="-178.5" font-family="Helvetica,sans-Serif" font-size="10.00">+ debug()</text>
<text text-anchor="start" x="8" y="-167.5" font-family="Helvetica,sans-Serif" font-size="10.00">+ trace()</text>
</a>
</g>
</g>
<!-- Node2&#45;&gt;Node1 -->
<g id="edge1" class="edge">
<title>Node2&#45;&gt;Node1</title>
<path fill="none" stroke="midnightblue" d="M53.5,-150.12C53.5,-141.31 53.5,-132.37 53.5,-123.73"/>
<polygon fill="none" stroke="midnightblue" points="50,-150.36 53.5,-160.36 57,-150.36 50,-150.36"/>
</g>
</g>
</svg>
