<?xml version="1.0" encoding="UTF-8" standalone="no"?>
<!DOCTYPE svg PUBLIC "-//W3C//DTD SVG 1.1//EN"
 "http://www.w3.org/Graphics/SVG/1.1/DTD/svg11.dtd">
<!-- Generated by graphviz version 2.43.0 (0)
 -->
<!-- Title: RayTracer::Plugins::Entities::IEntityCreator Pages: 1 -->
<svg width="2341pt" height="215pt"
 viewBox="0.00 0.00 2340.50 215.00" xmlns="http://www.w3.org/2000/svg" xmlns:xlink="http://www.w3.org/1999/xlink">
<g id="graph0" class="graph" transform="scale(1 1) rotate(0) translate(4 211)">
<title>RayTracer::Plugins::Entities::IEntityCreator</title>
<polygon fill="white" stroke="transparent" points="-4,4 -4,-211 2336.5,-211 2336.5,4 -4,4"/>
<!-- Node1 -->
<g id="node1" class="node">
<title>Node1</title>
<g id="a_node1"><a xlink:title="The IEntityCreator.">
<polygon fill="#bfbfbf" stroke="black" points="1065,-127.5 1065,-206.5 1198,-206.5 1198,-127.5 1065,-127.5"/>
<text text-anchor="start" x="1073" y="-194.5" font-family="Helvetica,sans-Serif" font-size="10.00">RayTracer::Plugins</text>
<text text-anchor="middle" x="1131.5" y="-183.5" font-family="Helvetica,sans-Serif" font-size="10.00">::Entities::IEntityCreator</text>
<polyline fill="none" stroke="black" points="1065,-176.5 1198,-176.5 "/>
<text text-anchor="middle" x="1131.5" y="-164.5" font-family="Helvetica,sans-Serif" font-size="10.00"> </text>
<polyline fill="none" stroke="black" points="1065,-157.5 1198,-157.5 "/>
<text text-anchor="start" x="1073" y="-145.5" font-family="Helvetica,sans-Serif" font-size="10.00">+ ~IEntityCreator()</text>
<text text-anchor="start" x="1073" y="-134.5" font-family="Helvetica,sans-Serif" font-size="10.00">+ create()</text>
</a>
</g>
</g>
<!-- Node2 -->
<g id="node2" class="node">
<title>Node2</title>
<g id="a_node2"><a xlink:href="$a01431.html" xlink:title=" ">
<polygon fill="white" stroke="black" points="0,-0.5 0,-90.5 159,-90.5 159,-0.5 0,-0.5"/>
<text text-anchor="start" x="8" y="-78.5" font-family="Helvetica,sans-Serif" font-size="10.00">RayTracer::PluginsExt</text>
<text text-anchor="start" x="8" y="-67.5" font-family="Helvetica,sans-Serif" font-size="10.00">::AmbientLight::AmbientLight</text>
<text text-anchor="middle" x="79.5" y="-56.5" font-family="Helvetica,sans-Serif" font-size="10.00">Creator</text>
<polyline fill="none" stroke="black" points="0,-49.5 159,-49.5 "/>
<text text-anchor="start" x="8" y="-37.5" font-family="Helvetica,sans-Serif" font-size="10.00">&#45; _elements</text>
<polyline fill="none" stroke="black" points="0,-30.5 159,-30.5 "/>
<text text-anchor="start" x="8" y="-18.5" font-family="Helvetica,sans-Serif" font-size="10.00">+ create()</text>
<text text-anchor="start" x="8" y="-7.5" font-family="Helvetica,sans-Serif" font-size="10.00">+ ~AmbientLightCreator()</text>
</a>
</g>
</g>
<!-- Node1&#45;&gt;Node2 -->
<g id="edge1" class="edge">
<title>Node1&#45;&gt;Node2</title>
<path fill="none" stroke="midnightblue" d="M1054.72,-163.87C856.97,-157.78 334.04,-137.61 167.5,-91 164.7,-90.22 161.88,-89.34 159.06,-88.39"/>
<polygon fill="none" stroke="midnightblue" points="1054.64,-167.37 1064.74,-164.18 1054.85,-160.37 1054.64,-167.37"/>
</g>
<!-- Node3 -->
<g id="node3" class="node">
<title>Node3</title>
<g id="a_node3"><a xlink:href="$a01447.html" xlink:title=" ">
<polygon fill="white" stroke="black" points="177,-6 177,-85 318,-85 318,-6 177,-6"/>
<text text-anchor="start" x="185" y="-73" font-family="Helvetica,sans-Serif" font-size="10.00">RayTracer::PluginsExt</text>
<text text-anchor="middle" x="247.5" y="-62" font-family="Helvetica,sans-Serif" font-size="10.00">::Camera::CameraCreator</text>
<polyline fill="none" stroke="black" points="177,-55 318,-55 "/>
<text text-anchor="start" x="185" y="-43" font-family="Helvetica,sans-Serif" font-size="10.00">&#45; _elements</text>
<polyline fill="none" stroke="black" points="177,-36 318,-36 "/>
<text text-anchor="start" x="185" y="-24" font-family="Helvetica,sans-Serif" font-size="10.00">+ ~CameraCreator()</text>
<text text-anchor="start" x="185" y="-13" font-family="Helvetica,sans-Serif" font-size="10.00">+ create()</text>
</a>
</g>
</g>
<!-- Node1&#45;&gt;Node3 -->
<g id="edge2" class="edge">
<title>Node1&#45;&gt;Node3</title>
<path fill="none" stroke="midnightblue" d="M1054.74,-162.87C880.96,-155.14 462.08,-132.68 327.5,-91 322.19,-89.35 316.83,-87.33 311.54,-85.05"/>
<polygon fill="none" stroke="midnightblue" points="1054.68,-166.37 1064.83,-163.32 1054.99,-159.38 1054.68,-166.37"/>
</g>
<!-- Node4 -->
<g id="node4" class="node">
<title>Node4</title>
<g id="a_node4"><a xlink:href="$a01455.html" xlink:title=" ">
<polygon fill="white" stroke="black" points="336.5,-0.5 336.5,-90.5 488.5,-90.5 488.5,-0.5 336.5,-0.5"/>
<text text-anchor="start" x="344.5" y="-78.5" font-family="Helvetica,sans-Serif" font-size="10.00">RayTracer::PluginsExt</text>
<text text-anchor="start" x="344.5" y="-67.5" font-family="Helvetica,sans-Serif" font-size="10.00">::Camera::Clustered::</text>
<text text-anchor="middle" x="412.5" y="-56.5" font-family="Helvetica,sans-Serif" font-size="10.00">CameraClusterCreator</text>
<polyline fill="none" stroke="black" points="336.5,-49.5 488.5,-49.5 "/>
<text text-anchor="start" x="344.5" y="-37.5" font-family="Helvetica,sans-Serif" font-size="10.00">&#45; _elements</text>
<polyline fill="none" stroke="black" points="336.5,-30.5 488.5,-30.5 "/>
<text text-anchor="start" x="344.5" y="-18.5" font-family="Helvetica,sans-Serif" font-size="10.00">+ ~CameraClusterCreator()</text>
<text text-anchor="start" x="344.5" y="-7.5" font-family="Helvetica,sans-Serif" font-size="10.00">+ create()</text>
</a>
</g>
</g>
<!-- Node1&#45;&gt;Node4 -->
<g id="edge3" class="edge">
<title>Node1&#45;&gt;Node4</title>
<path fill="none" stroke="midnightblue" d="M1054.32,-165.82C933.05,-163.57 691.7,-151.08 497.5,-91 494.64,-90.11 491.75,-89.13 488.87,-88.07"/>
<polygon fill="none" stroke="midnightblue" points="1054.55,-169.32 1064.61,-165.99 1054.67,-162.33 1054.55,-169.32"/>
</g>
<!-- Node5 -->
<g id="node5" class="node">
<title>Node5</title>
<g id="a_node5"><a xlink:href="$a01471.html" xlink:title=" ">
<polygon fill="white" stroke="black" points="507,-0.5 507,-90.5 662,-90.5 662,-0.5 507,-0.5"/>
<text text-anchor="start" x="515" y="-78.5" font-family="Helvetica,sans-Serif" font-size="10.00">RayTracer::PluginsExt</text>
<text text-anchor="start" x="515" y="-67.5" font-family="Helvetica,sans-Serif" font-size="10.00">::Camera::FullCustom</text>
<text text-anchor="middle" x="584.5" y="-56.5" font-family="Helvetica,sans-Serif" font-size="10.00">::CameraCustomCreator</text>
<polyline fill="none" stroke="black" points="507,-49.5 662,-49.5 "/>
<text text-anchor="start" x="515" y="-37.5" font-family="Helvetica,sans-Serif" font-size="10.00">&#45; _elements</text>
<polyline fill="none" stroke="black" points="507,-30.5 662,-30.5 "/>
<text text-anchor="start" x="515" y="-18.5" font-family="Helvetica,sans-Serif" font-size="10.00">+ ~CameraCustomCreator()</text>
<text text-anchor="start" x="515" y="-7.5" font-family="Helvetica,sans-Serif" font-size="10.00">+ create()</text>
</a>
</g>
</g>
<!-- Node1&#45;&gt;Node5 -->
<g id="edge4" class="edge">
<title>Node1&#45;&gt;Node5</title>
<path fill="none" stroke="midnightblue" d="M1054.69,-160.8C961.94,-152.87 802.1,-133.88 671.5,-91 668.44,-89.99 665.35,-88.89 662.26,-87.72"/>
<polygon fill="none" stroke="midnightblue" points="1054.58,-164.31 1064.84,-161.65 1055.16,-157.33 1054.58,-164.31"/>
</g>
<!-- Node6 -->
<g id="node6" class="node">
<title>Node6</title>
<g id="a_node6"><a xlink:href="$a01487.html" xlink:title=" ">
<polygon fill="white" stroke="black" points="680.5,-6 680.5,-85 802.5,-85 802.5,-6 680.5,-6"/>
<text text-anchor="start" x="688.5" y="-73" font-family="Helvetica,sans-Serif" font-size="10.00">RayTracer::PluginsExt</text>
<text text-anchor="middle" x="741.5" y="-62" font-family="Helvetica,sans-Serif" font-size="10.00">::Cone::ConeCreator</text>
<polyline fill="none" stroke="black" points="680.5,-55 802.5,-55 "/>
<text text-anchor="start" x="688.5" y="-43" font-family="Helvetica,sans-Serif" font-size="10.00">&#45; _elements</text>
<polyline fill="none" stroke="black" points="680.5,-36 802.5,-36 "/>
<text text-anchor="start" x="688.5" y="-24" font-family="Helvetica,sans-Serif" font-size="10.00">+ ~ConeCreator()</text>
<text text-anchor="start" x="688.5" y="-13" font-family="Helvetica,sans-Serif" font-size="10.00">+ create()</text>
</a>
</g>
</g>
<!-- Node1&#45;&gt;Node6 -->
<g id="edge5" class="edge">
<title>Node1&#45;&gt;Node6</title>
<path fill="none" stroke="midnightblue" d="M1054.87,-155.46C988.59,-144.63 891.17,-124.52 811.5,-91 807.39,-89.27 803.24,-87.3 799.13,-85.19"/>
<polygon fill="none" stroke="midnightblue" points="1054.39,-158.93 1064.82,-157.06 1055.5,-152.02 1054.39,-158.93"/>
</g>
<!-- Node7 -->
<g id="node7" class="node">
<title>Node7</title>
<g id="a_node7"><a xlink:href="$a01495.html" xlink:title=" ">
<polygon fill="white" stroke="black" points="820.5,-6 820.5,-85 966.5,-85 966.5,-6 820.5,-6"/>
<text text-anchor="start" x="828.5" y="-73" font-family="Helvetica,sans-Serif" font-size="10.00">RayTracer::PluginsExt</text>
<text text-anchor="middle" x="893.5" y="-62" font-family="Helvetica,sans-Serif" font-size="10.00">::Cylinder::CylinderCreator</text>
<polyline fill="none" stroke="black" points="820.5,-55 966.5,-55 "/>
<text text-anchor="start" x="828.5" y="-43" font-family="Helvetica,sans-Serif" font-size="10.00">&#45; _elements</text>
<polyline fill="none" stroke="black" points="820.5,-36 966.5,-36 "/>
<text text-anchor="start" x="828.5" y="-24" font-family="Helvetica,sans-Serif" font-size="10.00">+ ~CylinderCreator()</text>
<text text-anchor="start" x="828.5" y="-13" font-family="Helvetica,sans-Serif" font-size="10.00">+ create()</text>
</a>
</g>
</g>
<!-- Node1&#45;&gt;Node7 -->
<g id="edge6" class="edge">
<title>Node1&#45;&gt;Node7</title>
<path fill="none" stroke="midnightblue" d="M1055.46,-130.36C1029.92,-118.15 1001.35,-104.22 975.5,-91 971.75,-89.08 967.92,-87.1 964.05,-85.07"/>
<polygon fill="none" stroke="midnightblue" points="1054.19,-133.63 1064.73,-134.78 1057.21,-127.32 1054.19,-133.63"/>
</g>
<!-- Node8 -->
<g id="node8" class="node">
<title>Node8</title>
<g id="a_node8"><a xlink:href="$a01503.html" xlink:title=" ">
<polygon fill="white" stroke="black" points="984.5,-6 984.5,-85 1106.5,-85 1106.5,-6 984.5,-6"/>
<text text-anchor="start" x="992.5" y="-73" font-family="Helvetica,sans-Serif" font-size="10.00">RayTracer::PluginsExt</text>
<text text-anchor="middle" x="1045.5" y="-62" font-family="Helvetica,sans-Serif" font-size="10.00">::Disk::DiskCreator</text>
<polyline fill="none" stroke="black" points="984.5,-55 1106.5,-55 "/>
<text text-anchor="start" x="992.5" y="-43" font-family="Helvetica,sans-Serif" font-size="10.00">&#45; _elements</text>
<polyline fill="none" stroke="black" points="984.5,-36 1106.5,-36 "/>
<text text-anchor="start" x="992.5" y="-24" font-family="Helvetica,sans-Serif" font-size="10.00">+ ~DiskCreator()</text>
<text text-anchor="start" x="992.5" y="-13" font-family="Helvetica,sans-Serif" font-size="10.00">+ create()</text>
</a>
</g>
</g>
<!-- Node1&#45;&gt;Node8 -->
<g id="edge7" class="edge">
<title>Node1&#45;&gt;Node8</title>
<path fill="none" stroke="midnightblue" d="M1097.53,-118.8C1089.49,-107.63 1081.01,-95.84 1073.28,-85.1"/>
<polygon fill="none" stroke="midnightblue" points="1094.9,-121.13 1103.58,-127.2 1100.58,-117.04 1094.9,-121.13"/>
</g>
<!-- Node9 -->
<g id="node9" class="node">
<title>Node9</title>
<g id="a_node9"><a xlink:href="$a01511.html" xlink:title=" ">
<polygon fill="white" stroke="black" points="1124.5,-6 1124.5,-85 1312.5,-85 1312.5,-6 1124.5,-6"/>
<text text-anchor="start" x="1132.5" y="-73" font-family="Helvetica,sans-Serif" font-size="10.00">RayTracer::PluginsExt</text>
<text text-anchor="middle" x="1218.5" y="-62" font-family="Helvetica,sans-Serif" font-size="10.00">::LimitedCone::LimitedConeCreator</text>
<polyline fill="none" stroke="black" points="1124.5,-55 1312.5,-55 "/>
<text text-anchor="start" x="1132.5" y="-43" font-family="Helvetica,sans-Serif" font-size="10.00">&#45; _elements</text>
<polyline fill="none" stroke="black" points="1124.5,-36 1312.5,-36 "/>
<text text-anchor="start" x="1132.5" y="-24" font-family="Helvetica,sans-Serif" font-size="10.00">+ ~LimitedConeCreator()</text>
<text text-anchor="start" x="1132.5" y="-13" font-family="Helvetica,sans-Serif" font-size="10.00">+ create()</text>
</a>
</g>
</g>
<!-- Node1&#45;&gt;Node9 -->
<g id="edge8" class="edge">
<title>Node1&#45;&gt;Node9</title>
<path fill="none" stroke="midnightblue" d="M1165.86,-118.8C1173.99,-107.63 1182.58,-95.84 1190.4,-85.1"/>
<polygon fill="none" stroke="midnightblue" points="1162.8,-117.06 1159.75,-127.2 1168.46,-121.18 1162.8,-117.06"/>
</g>
<!-- Node10 -->
<g id="node10" class="node">
<title>Node10</title>
<g id="a_node10"><a xlink:href="$a01519.html" xlink:title=" ">
<polygon fill="white" stroke="black" points="1331,-0.5 1331,-90.5 1514,-90.5 1514,-0.5 1331,-0.5"/>
<text text-anchor="start" x="1339" y="-78.5" font-family="Helvetica,sans-Serif" font-size="10.00">RayTracer::PluginsExt</text>
<text text-anchor="start" x="1339" y="-67.5" font-family="Helvetica,sans-Serif" font-size="10.00">::LimitedCylinder::LimitedCylinder</text>
<text text-anchor="middle" x="1422.5" y="-56.5" font-family="Helvetica,sans-Serif" font-size="10.00">Creator</text>
<polyline fill="none" stroke="black" points="1331,-49.5 1514,-49.5 "/>
<text text-anchor="start" x="1339" y="-37.5" font-family="Helvetica,sans-Serif" font-size="10.00">&#45; _elements</text>
<polyline fill="none" stroke="black" points="1331,-30.5 1514,-30.5 "/>
<text text-anchor="start" x="1339" y="-18.5" font-family="Helvetica,sans-Serif" font-size="10.00">+ ~LimitedCylinderCreator()</text>
<text text-anchor="start" x="1339" y="-7.5" font-family="Helvetica,sans-Serif" font-size="10.00">+ create()</text>
</a>
</g>
</g>
<!-- Node1&#45;&gt;Node10 -->
<g id="edge9" class="edge">
<title>Node1&#45;&gt;Node10</title>
<path fill="none" stroke="midnightblue" d="M1207.77,-136.68C1242.58,-123.09 1284.26,-106.55 1321.5,-91 1324.59,-89.71 1327.74,-88.38 1330.91,-87.04"/>
<polygon fill="none" stroke="midnightblue" points="1206.19,-133.54 1198.14,-140.43 1208.73,-140.06 1206.19,-133.54"/>
</g>
<!-- Node11 -->
<g id="node11" class="node">
<title>Node11</title>
<g id="a_node11"><a xlink:href="$a01527.html" xlink:title=" ">
<polygon fill="white" stroke="black" points="1532.5,-0.5 1532.5,-90.5 1688.5,-90.5 1688.5,-0.5 1532.5,-0.5"/>
<text text-anchor="start" x="1540.5" y="-78.5" font-family="Helvetica,sans-Serif" font-size="10.00">RayTracer::PluginsExt</text>
<text text-anchor="start" x="1540.5" y="-67.5" font-family="Helvetica,sans-Serif" font-size="10.00">::LimitedPlane::LimitedPlane</text>
<text text-anchor="middle" x="1610.5" y="-56.5" font-family="Helvetica,sans-Serif" font-size="10.00">Creator</text>
<polyline fill="none" stroke="black" points="1532.5,-49.5 1688.5,-49.5 "/>
<text text-anchor="start" x="1540.5" y="-37.5" font-family="Helvetica,sans-Serif" font-size="10.00">&#45; _elements</text>
<polyline fill="none" stroke="black" points="1532.5,-30.5 1688.5,-30.5 "/>
<text text-anchor="start" x="1540.5" y="-18.5" font-family="Helvetica,sans-Serif" font-size="10.00">+ ~LimitedPlaneCreator()</text>
<text text-anchor="start" x="1540.5" y="-7.5" font-family="Helvetica,sans-Serif" font-size="10.00">+ create()</text>
</a>
</g>
</g>
<!-- Node1&#45;&gt;Node11 -->
<g id="edge10" class="edge">
<title>Node1&#45;&gt;Node11</title>
<path fill="none" stroke="midnightblue" d="M1208.2,-157.85C1288.45,-147.83 1417.3,-127.49 1523.5,-91 1526.39,-90.01 1529.3,-88.94 1532.22,-87.8"/>
<polygon fill="none" stroke="midnightblue" points="1207.68,-154.39 1198.18,-159.08 1208.53,-161.34 1207.68,-154.39"/>
</g>
<!-- Node12 -->
<g id="node12" class="node">
<title>Node12</title>
<g id="a_node12"><a xlink:href="$a01543.html" xlink:title=" ">
<polygon fill="white" stroke="black" points="1706.5,-6 1706.5,-85 1828.5,-85 1828.5,-6 1706.5,-6"/>
<text text-anchor="start" x="1714.5" y="-73" font-family="Helvetica,sans-Serif" font-size="10.00">RayTracer::PluginsExt</text>
<text text-anchor="middle" x="1767.5" y="-62" font-family="Helvetica,sans-Serif" font-size="10.00">::Plane::PlaneCreator</text>
<polyline fill="none" stroke="black" points="1706.5,-55 1828.5,-55 "/>
<text text-anchor="start" x="1714.5" y="-43" font-family="Helvetica,sans-Serif" font-size="10.00">&#45; _elements</text>
<polyline fill="none" stroke="black" points="1706.5,-36 1828.5,-36 "/>
<text text-anchor="start" x="1714.5" y="-24" font-family="Helvetica,sans-Serif" font-size="10.00">+ ~PlaneCreator()</text>
<text text-anchor="start" x="1714.5" y="-13" font-family="Helvetica,sans-Serif" font-size="10.00">+ create()</text>
</a>
</g>
</g>
<!-- Node1&#45;&gt;Node12 -->
<g id="edge11" class="edge">
<title>Node1&#45;&gt;Node12</title>
<path fill="none" stroke="midnightblue" d="M1208.32,-166.21C1319.54,-164.22 1530.39,-151.81 1697.5,-91 1702.1,-89.33 1706.71,-87.31 1711.26,-85.08"/>
<polygon fill="none" stroke="midnightblue" points="1208.14,-162.71 1198.2,-166.36 1208.25,-169.71 1208.14,-162.71"/>
</g>
<!-- Node13 -->
<g id="node13" class="node">
<title>Node13</title>
<g id="a_node13"><a xlink:href="$a01551.html" xlink:title=" ">
<polygon fill="white" stroke="black" points="1846.5,-6 1846.5,-85 2008.5,-85 2008.5,-6 1846.5,-6"/>
<text text-anchor="start" x="1854.5" y="-73" font-family="Helvetica,sans-Serif" font-size="10.00">RayTracer::PluginsExt</text>
<text text-anchor="middle" x="1927.5" y="-62" font-family="Helvetica,sans-Serif" font-size="10.00">::PointLight::PointLightCreator</text>
<polyline fill="none" stroke="black" points="1846.5,-55 2008.5,-55 "/>
<text text-anchor="start" x="1854.5" y="-43" font-family="Helvetica,sans-Serif" font-size="10.00">&#45; _elements</text>
<polyline fill="none" stroke="black" points="1846.5,-36 2008.5,-36 "/>
<text text-anchor="start" x="1854.5" y="-24" font-family="Helvetica,sans-Serif" font-size="10.00">+ create()</text>
<text text-anchor="start" x="1854.5" y="-13" font-family="Helvetica,sans-Serif" font-size="10.00">+ ~PointLightCreator()</text>
</a>
</g>
</g>
<!-- Node1&#45;&gt;Node13 -->
<g id="edge12" class="edge">
<title>Node1&#45;&gt;Node13</title>
<path fill="none" stroke="midnightblue" d="M1208.58,-166.6C1340.22,-165.7 1615.64,-155.4 1837.5,-91 1843.28,-89.32 1849.13,-87.29 1854.93,-85.03"/>
<polygon fill="none" stroke="midnightblue" points="1208.19,-163.1 1198.21,-166.65 1208.22,-170.1 1208.19,-163.1"/>
</g>
<!-- Node14 -->
<g id="node14" class="node">
<title>Node14</title>
<g id="a_node14"><a xlink:href="$a01559.html" xlink:title=" ">
<polygon fill="white" stroke="black" points="2026.5,-6 2026.5,-85 2158.5,-85 2158.5,-6 2026.5,-6"/>
<text text-anchor="start" x="2034.5" y="-73" font-family="Helvetica,sans-Serif" font-size="10.00">RayTracer::PluginsExt</text>
<text text-anchor="middle" x="2092.5" y="-62" font-family="Helvetica,sans-Serif" font-size="10.00">::Sphere::SphereCreator</text>
<polyline fill="none" stroke="black" points="2026.5,-55 2158.5,-55 "/>
<text text-anchor="start" x="2034.5" y="-43" font-family="Helvetica,sans-Serif" font-size="10.00">&#45; _elements</text>
<polyline fill="none" stroke="black" points="2026.5,-36 2158.5,-36 "/>
<text text-anchor="start" x="2034.5" y="-24" font-family="Helvetica,sans-Serif" font-size="10.00">+ ~SphereCreator()</text>
<text text-anchor="start" x="2034.5" y="-13" font-family="Helvetica,sans-Serif" font-size="10.00">+ create()</text>
</a>
</g>
</g>
<!-- Node1&#45;&gt;Node14 -->
<g id="edge13" class="edge">
<title>Node1&#45;&gt;Node14</title>
<path fill="none" stroke="midnightblue" d="M1208.1,-163.91C1394.55,-158.11 1867.64,-139 2017.5,-91 2022.55,-89.38 2027.62,-87.38 2032.61,-85.12"/>
<polygon fill="none" stroke="midnightblue" points="1207.99,-160.41 1198.11,-164.21 1208.21,-167.41 1207.99,-160.41"/>
</g>
<!-- Node15 -->
<g id="node15" class="node">
<title>Node15</title>
<g id="a_node15"><a xlink:href="$a01567.html" xlink:title=" ">
<polygon fill="white" stroke="black" points="2176.5,-6 2176.5,-85 2332.5,-85 2332.5,-6 2176.5,-6"/>
<text text-anchor="start" x="2184.5" y="-73" font-family="Helvetica,sans-Serif" font-size="10.00">RayTracer::PluginsExt</text>
<text text-anchor="middle" x="2254.5" y="-62" font-family="Helvetica,sans-Serif" font-size="10.00">::SpotLight::SpotLightCreator</text>
<polyline fill="none" stroke="black" points="2176.5,-55 2332.5,-55 "/>
<text text-anchor="start" x="2184.5" y="-43" font-family="Helvetica,sans-Serif" font-size="10.00">&#45; _elements</text>
<polyline fill="none" stroke="black" points="2176.5,-36 2332.5,-36 "/>
<text text-anchor="start" x="2184.5" y="-24" font-family="Helvetica,sans-Serif" font-size="10.00">+ create()</text>
<text text-anchor="start" x="2184.5" y="-13" font-family="Helvetica,sans-Serif" font-size="10.00">+ ~SpotLightCreator()</text>
</a>
</g>
</g>
<!-- Node1&#45;&gt;Node15 -->
<g id="edge14" class="edge">
<title>Node1&#45;&gt;Node15</title>
<path fill="none" stroke="midnightblue" d="M1208.46,-164.39C1416.58,-159.42 1986.99,-141.45 2167.5,-91 2173.22,-89.4 2179,-87.41 2184.72,-85.16"/>
<polygon fill="none" stroke="midnightblue" points="1208.15,-160.9 1198.23,-164.63 1208.31,-167.9 1208.15,-160.9"/>
</g>
</g>
</svg>
