<?xml version="1.0" encoding="UTF-8" standalone="no"?>
<!DOCTYPE svg PUBLIC "-//W3C//DTD SVG 1.1//EN"
 "http://www.w3.org/Graphics/SVG/1.1/DTD/svg11.dtd">
<!-- Generated by graphviz version 2.43.0 (0)
 -->
<!-- Title: RayTracer::PluginsExt::AmbientLight::AmbientLightCreator Pages: 1 -->
<svg width="167pt" height="215pt"
 viewBox="0.00 0.00 167.00 215.00" xmlns="http://www.w3.org/2000/svg" xmlns:xlink="http://www.w3.org/1999/xlink">
<g id="graph0" class="graph" transform="scale(1 1) rotate(0) translate(4 211)">
<title>RayTracer::PluginsExt::AmbientLight::AmbientLightCreator</title>
<polygon fill="white" stroke="transparent" points="-4,4 -4,-211 163,-211 163,4 -4,4"/>
<!-- Node1 -->
<g id="node1" class="node">
<title>Node1</title>
<g id="a_node1"><a xlink:title=" ">
<polygon fill="#bfbfbf" stroke="black" points="0,-0.5 0,-90.5 159,-90.5 159,-0.5 0,-0.5"/>
<text text-anchor="start" x="8" y="-78.5" font-family="Helvetica,sans-Serif" font-size="10.00">RayTracer::PluginsExt</text>
<text text-anchor="start" x="8" y="-67.5" font-family="Helvetica,sans-Serif" font-size="10.00">::AmbientLight::AmbientLight</text>
<text text-anchor="middle" x="79.5" y="-56.5" font-family="Helvetica,sans-Serif" font-size="10.00">Creator</text>
<polyline fill="none" stroke="black" points="0,-49.5 159,-49.5 "/>
<text text-anchor="start" x="8" y="-37.5" font-family="Helvetica,sans-Serif" font-size="10.00">&#45; _elements</text>
<polyline fill="none" stroke="black" points="0,-30.5 159,-30.5 "/>
<text text-anchor="start" x="8" y="-18.5" font-family="Helvetica,sans-Serif" font-size="10.00">+ create()</text>
<text text-anchor="start" x="8" y="-7.5" font-family="Helvetica,sans-Serif" font-size="10.00">+ ~AmbientLightCreator()</text>
</a>
</g>
</g>
<!-- Node2 -->
<g id="node2" class="node">
<title>Node2</title>
<g id="a_node2"><a xlink:href="$a01336.html" xlink:title="The IEntityCreator.">
<polygon fill="white" stroke="black" points="13,-127.5 13,-206.5 146,-206.5 146,-127.5 13,-127.5"/>
<text text-anchor="start" x="21" y="-194.5" font-family="Helvetica,sans-Serif" font-size="10.00">RayTracer::Plugins</text>
<text text-anchor="middle" x="79.5" y="-183.5" font-family="Helvetica,sans-Serif" font-size="10.00">::Entities::IEntityCreator</text>
<polyline fill="none" stroke="black" points="13,-176.5 146,-176.5 "/>
<text text-anchor="middle" x="79.5" y="-164.5" font-family="Helvetica,sans-Serif" font-size="10.00"> </text>
<polyline fill="none" stroke="black" points="13,-157.5 146,-157.5 "/>
<text text-anchor="start" x="21" y="-145.5" font-family="Helvetica,sans-Serif" font-size="10.00">+ ~IEntityCreator()</text>
<text text-anchor="start" x="21" y="-134.5" font-family="Helvetica,sans-Serif" font-size="10.00">+ create()</text>
</a>
</g>
</g>
<!-- Node2&#45;&gt;Node1 -->
<g id="edge1" class="edge">
<title>Node2&#45;&gt;Node1</title>
<path fill="none" stroke="midnightblue" d="M79.5,-117.19C79.5,-108.49 79.5,-99.48 79.5,-90.91"/>
<polygon fill="none" stroke="midnightblue" points="76,-117.2 79.5,-127.2 83,-117.2 76,-117.2"/>
</g>
</g>
</svg>
