<?xml version="1.0" encoding="UTF-8" standalone="no"?>
<!DOCTYPE svg PUBLIC "-//W3C//DTD SVG 1.1//EN"
 "http://www.w3.org/Graphics/SVG/1.1/DTD/svg11.dtd">
<!-- Generated by graphviz version 2.43.0 (0)
 -->
<!-- Title: RayTracer::PluginsExt::Camera::FullCustom::CustomRayIterator::Iterator Pages: 1 -->
<svg width="578pt" height="920pt"
 viewBox="0.00 0.00 578.00 920.00" xmlns="http://www.w3.org/2000/svg" xmlns:xlink="http://www.w3.org/1999/xlink">
<g id="graph0" class="graph" transform="scale(1 1) rotate(0) translate(4 916)">
<title>RayTracer::PluginsExt::Camera::FullCustom::CustomRayIterator::Iterator</title>
<polygon fill="white" stroke="transparent" points="-4,4 -4,-916 574,-916 574,4 -4,4"/>
<!-- Node1 -->
<g id="node1" class="node">
<title>Node1</title>
<g id="a_node1"><a xlink:title=" ">
<polygon fill="#bfbfbf" stroke="black" points="228,-0.5 228,-145.5 385,-145.5 385,-0.5 228,-0.5"/>
<text text-anchor="start" x="236" y="-133.5" font-family="Helvetica,sans-Serif" font-size="10.00">RayTracer::PluginsExt</text>
<text text-anchor="start" x="236" y="-122.5" font-family="Helvetica,sans-Serif" font-size="10.00">::Camera::FullCustom</text>
<text text-anchor="middle" x="306.5" y="-111.5" font-family="Helvetica,sans-Serif" font-size="10.00">::CustomRayIterator::Iterator</text>
<polyline fill="none" stroke="black" points="228,-104.5 385,-104.5 "/>
<text text-anchor="middle" x="306.5" y="-92.5" font-family="Helvetica,sans-Serif" font-size="10.00"> </text>
<polyline fill="none" stroke="black" points="228,-85.5 385,-85.5 "/>
<text text-anchor="start" x="236" y="-73.5" font-family="Helvetica,sans-Serif" font-size="10.00">+ Iterator()</text>
<text text-anchor="start" x="236" y="-62.5" font-family="Helvetica,sans-Serif" font-size="10.00">+ operator++()</text>
<text text-anchor="start" x="236" y="-51.5" font-family="Helvetica,sans-Serif" font-size="10.00">+ operator*()</text>
<text text-anchor="start" x="236" y="-40.5" font-family="Helvetica,sans-Serif" font-size="10.00">+ operator==()</text>
<text text-anchor="start" x="236" y="-29.5" font-family="Helvetica,sans-Serif" font-size="10.00">+ operator!=()</text>
<text text-anchor="start" x="236" y="-18.5" font-family="Helvetica,sans-Serif" font-size="10.00">+ toString()</text>
<text text-anchor="start" x="236" y="-7.5" font-family="Helvetica,sans-Serif" font-size="10.00">+ operator=()</text>
</a>
</g>
</g>
<!-- Node2 -->
<g id="node2" class="node">
<title>Node2</title>
<g id="a_node2"><a xlink:title=" ">
<polygon fill="white" stroke="#bfbfbf" points="0,-270.5 0,-327.5 119,-327.5 119,-270.5 0,-270.5"/>
<text text-anchor="middle" x="59.5" y="-315.5" font-family="Helvetica,sans-Serif" font-size="10.00">IRayIterator::IIterator</text>
<polyline fill="none" stroke="#bfbfbf" points="0,-308.5 119,-308.5 "/>
<text text-anchor="middle" x="59.5" y="-296.5" font-family="Helvetica,sans-Serif" font-size="10.00"> </text>
<polyline fill="none" stroke="#bfbfbf" points="0,-289.5 119,-289.5 "/>
<text text-anchor="middle" x="59.5" y="-277.5" font-family="Helvetica,sans-Serif" font-size="10.00"> </text>
</a>
</g>
</g>
<!-- Node2&#45;&gt;Node1 -->
<g id="edge1" class="edge">
<title>Node2&#45;&gt;Node1</title>
<path fill="none" stroke="midnightblue" d="M75.54,-261.04C89.62,-231.9 112.38,-191.7 141.5,-164 166.32,-140.38 198.54,-121 227.91,-106.35"/>
<polygon fill="none" stroke="midnightblue" points="72.2,-259.93 71.1,-270.47 78.53,-262.91 72.2,-259.93"/>
</g>
<!-- Node3 -->
<g id="node3" class="node">
<title>Node3</title>
<g id="a_node3"><a xlink:href="$a01203.html" xlink:title="The Vector3f class.">
<polygon fill="white" stroke="black" points="142.5,-463.5 142.5,-784.5 260.5,-784.5 260.5,-463.5 142.5,-463.5"/>
<text text-anchor="start" x="150.5" y="-772.5" font-family="Helvetica,sans-Serif" font-size="10.00">RayTracer::Entities</text>
<text text-anchor="middle" x="201.5" y="-761.5" font-family="Helvetica,sans-Serif" font-size="10.00">::Transform::Vector3f</text>
<polyline fill="none" stroke="black" points="142.5,-754.5 260.5,-754.5 "/>
<text text-anchor="middle" x="201.5" y="-742.5" font-family="Helvetica,sans-Serif" font-size="10.00"> </text>
<polyline fill="none" stroke="black" points="142.5,-735.5 260.5,-735.5 "/>
<text text-anchor="start" x="150.5" y="-723.5" font-family="Helvetica,sans-Serif" font-size="10.00">+ ~Vector3f()</text>
<text text-anchor="start" x="150.5" y="-712.5" font-family="Helvetica,sans-Serif" font-size="10.00">+ Vector3f()</text>
<text text-anchor="start" x="150.5" y="-701.5" font-family="Helvetica,sans-Serif" font-size="10.00">+ Vector3f()</text>
<text text-anchor="start" x="150.5" y="-690.5" font-family="Helvetica,sans-Serif" font-size="10.00">+ Vector3f()</text>
<text text-anchor="start" x="150.5" y="-679.5" font-family="Helvetica,sans-Serif" font-size="10.00">+ Vector3f()</text>
<text text-anchor="start" x="150.5" y="-668.5" font-family="Helvetica,sans-Serif" font-size="10.00">+ operator+()</text>
<text text-anchor="start" x="150.5" y="-657.5" font-family="Helvetica,sans-Serif" font-size="10.00">+ operator&#45;()</text>
<text text-anchor="start" x="150.5" y="-646.5" font-family="Helvetica,sans-Serif" font-size="10.00">+ operator*()</text>
<text text-anchor="start" x="150.5" y="-635.5" font-family="Helvetica,sans-Serif" font-size="10.00">+ operator/()</text>
<text text-anchor="start" x="150.5" y="-624.5" font-family="Helvetica,sans-Serif" font-size="10.00">+ operator=()</text>
<text text-anchor="start" x="150.5" y="-613.5" font-family="Helvetica,sans-Serif" font-size="10.00">+ getX()</text>
<text text-anchor="start" x="150.5" y="-602.5" font-family="Helvetica,sans-Serif" font-size="10.00">+ getY()</text>
<text text-anchor="start" x="150.5" y="-591.5" font-family="Helvetica,sans-Serif" font-size="10.00">+ getZ()</text>
<text text-anchor="start" x="150.5" y="-580.5" font-family="Helvetica,sans-Serif" font-size="10.00">+ getNorm()</text>
<text text-anchor="start" x="150.5" y="-569.5" font-family="Helvetica,sans-Serif" font-size="10.00">+ getNormalized()</text>
<text text-anchor="start" x="150.5" y="-558.5" font-family="Helvetica,sans-Serif" font-size="10.00">+ dot()</text>
<text text-anchor="start" x="150.5" y="-547.5" font-family="Helvetica,sans-Serif" font-size="10.00">+ getDistance()</text>
<text text-anchor="start" x="150.5" y="-536.5" font-family="Helvetica,sans-Serif" font-size="10.00">+ toDegrees()</text>
<text text-anchor="start" x="150.5" y="-525.5" font-family="Helvetica,sans-Serif" font-size="10.00">+ toRadians()</text>
<text text-anchor="start" x="150.5" y="-514.5" font-family="Helvetica,sans-Serif" font-size="10.00">+ rotateVector()</text>
<text text-anchor="start" x="150.5" y="-503.5" font-family="Helvetica,sans-Serif" font-size="10.00">+ getAngle()</text>
<text text-anchor="start" x="150.5" y="-492.5" font-family="Helvetica,sans-Serif" font-size="10.00">+ rotateX()</text>
<text text-anchor="start" x="150.5" y="-481.5" font-family="Helvetica,sans-Serif" font-size="10.00">+ rotateY()</text>
<text text-anchor="start" x="150.5" y="-470.5" font-family="Helvetica,sans-Serif" font-size="10.00">+ rotateZ()</text>
</a>
</g>
</g>
<!-- Node3&#45;&gt;Node1 -->
<g id="edge2" class="edge">
<title>Node3&#45;&gt;Node1</title>
<path fill="none" stroke="#404040" d="M151.68,-463.3C135.19,-382.49 128.97,-284.7 164.5,-204 176.4,-176.98 196.99,-153.13 218.86,-133.48"/>
<polygon fill="none" stroke="#404040" points="218.89,-133.46 220.8,-126.5 227.95,-125.6 226.04,-132.55 218.89,-133.46"/>
<text text-anchor="middle" x="198" y="-313" font-family="Helvetica,sans-Serif" font-size="10.00"> &#45;_cameraPos</text>
<text text-anchor="middle" x="198" y="-302" font-family="Helvetica,sans-Serif" font-size="10.00">&#45;_fov</text>
<text text-anchor="middle" x="198" y="-291" font-family="Helvetica,sans-Serif" font-size="10.00">&#45;_fovXYZ</text>
<text text-anchor="middle" x="198" y="-280" font-family="Helvetica,sans-Serif" font-size="10.00">&#45;_normal</text>
</g>
<!-- Node7 -->
<g id="node7" class="node">
<title>Node7</title>
<g id="a_node7"><a xlink:href="$a01271.html" xlink:title="The Ray class.">
<polygon fill="white" stroke="black" points="241,-232 241,-366 372,-366 372,-232 241,-232"/>
<text text-anchor="middle" x="306.5" y="-354" font-family="Helvetica,sans-Serif" font-size="10.00">RayTracer::Images::Ray</text>
<polyline fill="none" stroke="black" points="241,-347 372,-347 "/>
<text text-anchor="middle" x="306.5" y="-335" font-family="Helvetica,sans-Serif" font-size="10.00"> </text>
<polyline fill="none" stroke="black" points="241,-328 372,-328 "/>
<text text-anchor="start" x="249" y="-316" font-family="Helvetica,sans-Serif" font-size="10.00">+ Ray()</text>
<text text-anchor="start" x="249" y="-305" font-family="Helvetica,sans-Serif" font-size="10.00">+ getOrigin()</text>
<text text-anchor="start" x="249" y="-294" font-family="Helvetica,sans-Serif" font-size="10.00">+ getDirection()</text>
<text text-anchor="start" x="249" y="-283" font-family="Helvetica,sans-Serif" font-size="10.00">+ getStep()</text>
<text text-anchor="start" x="249" y="-272" font-family="Helvetica,sans-Serif" font-size="10.00">+ operator+=()</text>
<text text-anchor="start" x="249" y="-261" font-family="Helvetica,sans-Serif" font-size="10.00">+ operator&#45;=()</text>
<text text-anchor="start" x="249" y="-250" font-family="Helvetica,sans-Serif" font-size="10.00">+ operator++()</text>
<text text-anchor="start" x="249" y="-239" font-family="Helvetica,sans-Serif" font-size="10.00">+ operator&#45;&#45;()</text>
</a>
</g>
</g>
<!-- Node3&#45;&gt;Node7 -->
<g id="edge7" class="edge">
<title>Node3&#45;&gt;Node7</title>
<path fill="none" stroke="#404040" d="M253.38,-463.39C263.06,-433.62 272.77,-403.76 281.19,-377.87"/>
<polygon fill="none" stroke="#404040" points="281.25,-377.68 279.3,-370.73 284.96,-366.27 286.91,-373.21 281.25,-377.68"/>
<text text-anchor="middle" x="294" y="-437" font-family="Helvetica,sans-Serif" font-size="10.00"> &#45;_normal</text>
<text text-anchor="middle" x="294" y="-426" font-family="Helvetica,sans-Serif" font-size="10.00">&#45;_origin</text>
<text text-anchor="middle" x="294" y="-415" font-family="Helvetica,sans-Serif" font-size="10.00">&#45;_step</text>
</g>
<!-- Node4 -->
<g id="node4" class="node">
<title>Node4</title>
<g id="a_node4"><a xlink:title=" ">
<polygon fill="white" stroke="#bfbfbf" points="176.5,-854.5 176.5,-911.5 226.5,-911.5 226.5,-854.5 176.5,-854.5"/>
<text text-anchor="middle" x="201.5" y="-899.5" font-family="Helvetica,sans-Serif" font-size="10.00">double</text>
<polyline fill="none" stroke="#bfbfbf" points="176.5,-892.5 226.5,-892.5 "/>
<text text-anchor="middle" x="201.5" y="-880.5" font-family="Helvetica,sans-Serif" font-size="10.00"> </text>
<polyline fill="none" stroke="#bfbfbf" points="176.5,-873.5 226.5,-873.5 "/>
<text text-anchor="middle" x="201.5" y="-861.5" font-family="Helvetica,sans-Serif" font-size="10.00"> </text>
</a>
</g>
</g>
<!-- Node4&#45;&gt;Node3 -->
<g id="edge3" class="edge">
<title>Node4&#45;&gt;Node3</title>
<path fill="none" stroke="#404040" d="M201.5,-854.5C201.5,-839.29 201.5,-819 201.5,-796.74"/>
<polygon fill="none" stroke="#404040" points="201.5,-796.57 197.5,-790.57 201.5,-784.57 205.5,-790.57 201.5,-796.57"/>
<text text-anchor="middle" x="211" y="-828" font-family="Helvetica,sans-Serif" font-size="10.00"> &#45;_x</text>
<text text-anchor="middle" x="211" y="-817" font-family="Helvetica,sans-Serif" font-size="10.00">&#45;_y</text>
<text text-anchor="middle" x="211" y="-806" font-family="Helvetica,sans-Serif" font-size="10.00">&#45;_z</text>
</g>
<!-- Node5 -->
<g id="node5" class="node">
<title>Node5</title>
<g id="a_node5"><a xlink:href="$a01199.html" xlink:title="The Vector2i class.">
<polygon fill="white" stroke="black" points="390,-204.5 390,-393.5 507,-393.5 507,-204.5 390,-204.5"/>
<text text-anchor="start" x="398" y="-381.5" font-family="Helvetica,sans-Serif" font-size="10.00">RayTracer::Entities</text>
<text text-anchor="middle" x="448.5" y="-370.5" font-family="Helvetica,sans-Serif" font-size="10.00">::Transform::Vector2i</text>
<polyline fill="none" stroke="black" points="390,-363.5 507,-363.5 "/>
<text text-anchor="middle" x="448.5" y="-351.5" font-family="Helvetica,sans-Serif" font-size="10.00"> </text>
<polyline fill="none" stroke="black" points="390,-344.5 507,-344.5 "/>
<text text-anchor="start" x="398" y="-332.5" font-family="Helvetica,sans-Serif" font-size="10.00">+ ~Vector2i()</text>
<text text-anchor="start" x="398" y="-321.5" font-family="Helvetica,sans-Serif" font-size="10.00">+ Vector2i()</text>
<text text-anchor="start" x="398" y="-310.5" font-family="Helvetica,sans-Serif" font-size="10.00">+ Vector2i()</text>
<text text-anchor="start" x="398" y="-299.5" font-family="Helvetica,sans-Serif" font-size="10.00">+ Vector2i()</text>
<text text-anchor="start" x="398" y="-288.5" font-family="Helvetica,sans-Serif" font-size="10.00">+ Vector2i()</text>
<text text-anchor="start" x="398" y="-277.5" font-family="Helvetica,sans-Serif" font-size="10.00">+ operator+()</text>
<text text-anchor="start" x="398" y="-266.5" font-family="Helvetica,sans-Serif" font-size="10.00">+ operator&#45;()</text>
<text text-anchor="start" x="398" y="-255.5" font-family="Helvetica,sans-Serif" font-size="10.00">+ operator*()</text>
<text text-anchor="start" x="398" y="-244.5" font-family="Helvetica,sans-Serif" font-size="10.00">+ operator/()</text>
<text text-anchor="start" x="398" y="-233.5" font-family="Helvetica,sans-Serif" font-size="10.00">+ operator=()</text>
<text text-anchor="start" x="398" y="-222.5" font-family="Helvetica,sans-Serif" font-size="10.00">+ getX()</text>
<text text-anchor="start" x="398" y="-211.5" font-family="Helvetica,sans-Serif" font-size="10.00">+ getY()</text>
</a>
</g>
</g>
<!-- Node5&#45;&gt;Node1 -->
<g id="edge4" class="edge">
<title>Node5&#45;&gt;Node1</title>
<path fill="none" stroke="#404040" d="M389.92,-205.6C379.52,-189.19 368.75,-172.2 358.54,-156.1"/>
<polygon fill="none" stroke="#404040" points="358.35,-155.79 351.76,-152.87 351.93,-145.66 358.52,-148.59 358.35,-155.79"/>
<text text-anchor="middle" x="410" y="-172.5" font-family="Helvetica,sans-Serif" font-size="10.00"> &#45;_screenSize</text>
</g>
<!-- Node6 -->
<g id="node6" class="node">
<title>Node6</title>
<g id="a_node6"><a xlink:title=" ">
<polygon fill="white" stroke="#bfbfbf" points="434,-595.5 434,-652.5 463,-652.5 463,-595.5 434,-595.5"/>
<text text-anchor="middle" x="448.5" y="-640.5" font-family="Helvetica,sans-Serif" font-size="10.00">int</text>
<polyline fill="none" stroke="#bfbfbf" points="434,-633.5 463,-633.5 "/>
<text text-anchor="middle" x="448.5" y="-621.5" font-family="Helvetica,sans-Serif" font-size="10.00"> </text>
<polyline fill="none" stroke="#bfbfbf" points="434,-614.5 463,-614.5 "/>
<text text-anchor="middle" x="448.5" y="-602.5" font-family="Helvetica,sans-Serif" font-size="10.00"> </text>
</a>
</g>
</g>
<!-- Node6&#45;&gt;Node5 -->
<g id="edge5" class="edge">
<title>Node6&#45;&gt;Node5</title>
<path fill="none" stroke="#404040" d="M448.5,-595.46C448.5,-553.81 448.5,-472.57 448.5,-405.81"/>
<polygon fill="none" stroke="#404040" points="448.5,-405.52 444.5,-399.52 448.5,-393.52 452.5,-399.52 448.5,-405.52"/>
<text text-anchor="middle" x="458" y="-431.5" font-family="Helvetica,sans-Serif" font-size="10.00"> &#45;_x</text>
<text text-anchor="middle" x="458" y="-420.5" font-family="Helvetica,sans-Serif" font-size="10.00">&#45;_y</text>
</g>
<!-- Node7&#45;&gt;Node1 -->
<g id="edge6" class="edge">
<title>Node7&#45;&gt;Node1</title>
<path fill="none" stroke="#404040" d="M306.5,-231.7C306.5,-208.53 306.5,-182.2 306.5,-157.78"/>
<polygon fill="none" stroke="#404040" points="306.5,-157.6 302.5,-151.6 306.5,-145.6 310.5,-151.6 306.5,-157.6"/>
<text text-anchor="middle" x="320.5" y="-172.5" font-family="Helvetica,sans-Serif" font-size="10.00"> &#45;_ray</text>
</g>
<!-- Node8 -->
<g id="node8" class="node">
<title>Node8</title>
<g id="a_node8"><a xlink:title=" ">
<polygon fill="white" stroke="#bfbfbf" points="525,-270.5 525,-327.5 570,-327.5 570,-270.5 525,-270.5"/>
<text text-anchor="middle" x="547.5" y="-315.5" font-family="Helvetica,sans-Serif" font-size="10.00">size_t</text>
<polyline fill="none" stroke="#bfbfbf" points="525,-308.5 570,-308.5 "/>
<text text-anchor="middle" x="547.5" y="-296.5" font-family="Helvetica,sans-Serif" font-size="10.00"> </text>
<polyline fill="none" stroke="#bfbfbf" points="525,-289.5 570,-289.5 "/>
<text text-anchor="middle" x="547.5" y="-277.5" font-family="Helvetica,sans-Serif" font-size="10.00"> </text>
</a>
</g>
</g>
<!-- Node8&#45;&gt;Node1 -->
<g id="edge8" class="edge">
<title>Node8&#45;&gt;Node1</title>
<path fill="none" stroke="#404040" d="M543.52,-270.08C539.49,-249.99 531.61,-223.16 516.5,-204 485.06,-164.12 437.76,-133.31 396.01,-111.72"/>
<polygon fill="none" stroke="#404040" points="395.96,-111.69 388.8,-112.56 385.25,-106.29 392.4,-105.42 395.96,-111.69"/>
<text text-anchor="middle" x="508" y="-178" font-family="Helvetica,sans-Serif" font-size="10.00"> &#45;_x</text>
<text text-anchor="middle" x="508" y="-167" font-family="Helvetica,sans-Serif" font-size="10.00">&#45;_y</text>
</g>
</g>
</svg>
