<?xml version="1.0" encoding="UTF-8" standalone="no"?>
<!DOCTYPE svg PUBLIC "-//W3C//DTD SVG 1.1//EN"
 "http://www.w3.org/Graphics/SVG/1.1/DTD/svg11.dtd">
<!-- Generated by graphviz version 2.43.0 (0)
 -->
<!-- Title: RayTracer::Plugins::PluginLoader&lt; Handler, Interface, Factory &gt; Pages: 1 -->
<svg width="146pt" height="310pt"
 viewBox="0.00 0.00 146.00 310.00" xmlns="http://www.w3.org/2000/svg" xmlns:xlink="http://www.w3.org/1999/xlink">
<g id="graph0" class="graph" transform="scale(1 1) rotate(0) translate(4 306)">
<title>RayTracer::Plugins::PluginLoader&lt; Handler, Interface, Factory &gt;</title>
<polygon fill="white" stroke="transparent" points="-4,4 -4,-306 142,-306 142,4 -4,4"/>
<!-- Node1 -->
<g id="node1" class="node">
<title>Node1</title>
<g id="a_node1"><a xlink:title=" ">
<polygon fill="#bfbfbf" stroke="black" points="0,-0.5 0,-90.5 138,-90.5 138,-0.5 0,-0.5"/>
<text text-anchor="start" x="8" y="-78.5" font-family="Helvetica,sans-Serif" font-size="10.00">RayTracer::Plugins</text>
<text text-anchor="start" x="8" y="-67.5" font-family="Helvetica,sans-Serif" font-size="10.00">::PluginLoader&lt; Handler,</text>
<text text-anchor="middle" x="69" y="-56.5" font-family="Helvetica,sans-Serif" font-size="10.00"> Interface, Factory &gt;</text>
<polyline fill="none" stroke="black" points="0,-49.5 138,-49.5 "/>
<text text-anchor="middle" x="69" y="-37.5" font-family="Helvetica,sans-Serif" font-size="10.00"> </text>
<polyline fill="none" stroke="black" points="0,-30.5 138,-30.5 "/>
<text text-anchor="start" x="8" y="-18.5" font-family="Helvetica,sans-Serif" font-size="10.00">+ PluginLoader()</text>
<text text-anchor="start" x="8" y="-7.5" font-family="Helvetica,sans-Serif" font-size="10.00">+ load()</text>
</a>
</g>
</g>
<!-- Node2 -->
<g id="node2" class="node">
<title>Node2</title>
<g id="a_node2"><a xlink:title=" ">
<polygon fill="white" stroke="#bfbfbf" points="36.5,-138.5 36.5,-195.5 101.5,-195.5 101.5,-138.5 36.5,-138.5"/>
<text text-anchor="middle" x="69" y="-183.5" font-family="Helvetica,sans-Serif" font-size="10.00">std::string</text>
<polyline fill="none" stroke="#bfbfbf" points="36.5,-176.5 101.5,-176.5 "/>
<text text-anchor="middle" x="69" y="-164.5" font-family="Helvetica,sans-Serif" font-size="10.00"> </text>
<polyline fill="none" stroke="#bfbfbf" points="36.5,-157.5 101.5,-157.5 "/>
<text text-anchor="middle" x="69" y="-145.5" font-family="Helvetica,sans-Serif" font-size="10.00"> </text>
</a>
</g>
</g>
<!-- Node2&#45;&gt;Node1 -->
<g id="edge1" class="edge">
<title>Node2&#45;&gt;Node1</title>
<path fill="none" stroke="#404040" d="M69,-138.28C69,-127.73 69,-115.29 69,-103.03"/>
<polygon fill="none" stroke="#404040" points="69,-102.91 65,-96.91 69,-90.91 73,-96.91 69,-102.91"/>
<text text-anchor="middle" x="99.5" y="-112" font-family="Helvetica,sans-Serif" font-size="10.00"> #_directory</text>
</g>
<!-- Node3 -->
<g id="node3" class="node">
<title>Node3</title>
<g id="a_node3"><a xlink:title=" ">
<polygon fill="white" stroke="#bfbfbf" points="17,-233.5 17,-301.5 121,-301.5 121,-233.5 17,-233.5"/>
<text text-anchor="start" x="25" y="-289.5" font-family="Helvetica,sans-Serif" font-size="10.00">std::basic_string&lt;</text>
<text text-anchor="middle" x="69" y="-278.5" font-family="Helvetica,sans-Serif" font-size="10.00"> Char &gt;</text>
<polyline fill="none" stroke="#bfbfbf" points="17,-271.5 121,-271.5 "/>
<text text-anchor="middle" x="69" y="-259.5" font-family="Helvetica,sans-Serif" font-size="10.00"> </text>
<polyline fill="none" stroke="#bfbfbf" points="17,-252.5 121,-252.5 "/>
<text text-anchor="middle" x="69" y="-240.5" font-family="Helvetica,sans-Serif" font-size="10.00"> </text>
</a>
</g>
</g>
<!-- Node3&#45;&gt;Node2 -->
<g id="edge2" class="edge">
<title>Node3&#45;&gt;Node2</title>
<path fill="none" stroke="midnightblue" d="M69,-223.38C69,-213.94 69,-204.2 69,-195.57"/>
<polygon fill="none" stroke="midnightblue" points="65.5,-223.43 69,-233.43 72.5,-223.43 65.5,-223.43"/>
</g>
</g>
</svg>
