<?xml version="1.0" encoding="UTF-8" standalone="no"?>
<!DOCTYPE svg PUBLIC "-//W3C//DTD SVG 1.1//EN"
 "http://www.w3.org/Graphics/SVG/1.1/DTD/svg11.dtd">
<!-- Generated by graphviz version 2.43.0 (0)
 -->
<!-- Title: RayTracer::Scenes::Scene Pages: 1 -->
<svg width="965pt" height="827pt"
 viewBox="0.00 0.00 964.50 827.00" xmlns="http://www.w3.org/2000/svg" xmlns:xlink="http://www.w3.org/1999/xlink">
<g id="graph0" class="graph" transform="scale(1 1) rotate(0) translate(4 823)">
<title>RayTracer::Scenes::Scene</title>
<polygon fill="white" stroke="transparent" points="-4,4 -4,-823 960.5,-823 960.5,4 -4,4"/>
<!-- Node1 -->
<g id="node1" class="node">
<title>Node1</title>
<g id="a_node1"><a xlink:title="The Scene class.">
<polygon fill="#bfbfbf" stroke="black" points="464.5,-0.5 464.5,-200.5 575.5,-200.5 575.5,-0.5 464.5,-0.5"/>
<text text-anchor="start" x="472.5" y="-188.5" font-family="Helvetica,sans-Serif" font-size="10.00">RayTracer::Scenes::</text>
<text text-anchor="middle" x="520" y="-177.5" font-family="Helvetica,sans-Serif" font-size="10.00">Scene</text>
<polyline fill="none" stroke="black" points="464.5,-170.5 575.5,-170.5 "/>
<text text-anchor="middle" x="520" y="-158.5" font-family="Helvetica,sans-Serif" font-size="10.00"> </text>
<polyline fill="none" stroke="black" points="464.5,-151.5 575.5,-151.5 "/>
<text text-anchor="start" x="472.5" y="-139.5" font-family="Helvetica,sans-Serif" font-size="10.00">+ Scene()</text>
<text text-anchor="start" x="472.5" y="-128.5" font-family="Helvetica,sans-Serif" font-size="10.00">+ ~Scene()</text>
<text text-anchor="start" x="472.5" y="-117.5" font-family="Helvetica,sans-Serif" font-size="10.00">+ operator()()</text>
<text text-anchor="start" x="472.5" y="-106.5" font-family="Helvetica,sans-Serif" font-size="10.00">+ renders()</text>
<text text-anchor="start" x="472.5" y="-95.5" font-family="Helvetica,sans-Serif" font-size="10.00">+ getCameras()</text>
<text text-anchor="start" x="472.5" y="-84.5" font-family="Helvetica,sans-Serif" font-size="10.00">+ getCameras()</text>
<text text-anchor="start" x="472.5" y="-73.5" font-family="Helvetica,sans-Serif" font-size="10.00">+ isReady()</text>
<text text-anchor="start" x="472.5" y="-62.5" font-family="Helvetica,sans-Serif" font-size="10.00">+ cancel()</text>
<text text-anchor="start" x="472.5" y="-51.5" font-family="Helvetica,sans-Serif" font-size="10.00">+ wait_end()</text>
<text text-anchor="start" x="472.5" y="-40.5" font-family="Helvetica,sans-Serif" font-size="10.00">+ getState()</text>
<text text-anchor="start" x="472.5" y="-29.5" font-family="Helvetica,sans-Serif" font-size="10.00">+ getState()</text>
<text text-anchor="start" x="472.5" y="-18.5" font-family="Helvetica,sans-Serif" font-size="10.00">&#45; loadConfig()</text>
<text text-anchor="start" x="472.5" y="-7.5" font-family="Helvetica,sans-Serif" font-size="10.00">&#45; waitTillCancel()</text>
</a>
</g>
</g>
<!-- Node2 -->
<g id="node2" class="node">
<title>Node2</title>
<g id="a_node2"><a xlink:href="$a01465.html" xlink:title="The Displayable class.">
<polygon fill="white" stroke="black" points="187,-259.5 187,-382.5 303,-382.5 303,-259.5 187,-259.5"/>
<text text-anchor="start" x="195" y="-370.5" font-family="Helvetica,sans-Serif" font-size="10.00">RayTracer::Scenes::</text>
<text text-anchor="middle" x="245" y="-359.5" font-family="Helvetica,sans-Serif" font-size="10.00">Displayable</text>
<polyline fill="none" stroke="black" points="187,-352.5 303,-352.5 "/>
<text text-anchor="middle" x="245" y="-340.5" font-family="Helvetica,sans-Serif" font-size="10.00"> </text>
<polyline fill="none" stroke="black" points="187,-333.5 303,-333.5 "/>
<text text-anchor="start" x="195" y="-321.5" font-family="Helvetica,sans-Serif" font-size="10.00">+ getLightList()</text>
<text text-anchor="start" x="195" y="-310.5" font-family="Helvetica,sans-Serif" font-size="10.00">+ getLightList()</text>
<text text-anchor="start" x="195" y="-299.5" font-family="Helvetica,sans-Serif" font-size="10.00">+ getPrimitiveList()</text>
<text text-anchor="start" x="195" y="-288.5" font-family="Helvetica,sans-Serif" font-size="10.00">+ getPrimitiveList()</text>
<text text-anchor="start" x="195" y="-277.5" font-family="Helvetica,sans-Serif" font-size="10.00">+ getAmbientLight()</text>
<text text-anchor="start" x="195" y="-266.5" font-family="Helvetica,sans-Serif" font-size="10.00">+ getAmbientLight()</text>
</a>
</g>
</g>
<!-- Node2&#45;&gt;Node1 -->
<g id="edge1" class="edge">
<title>Node2&#45;&gt;Node1</title>
<path fill="none" stroke="#404040" d="M299.67,-259.35C303.75,-255.41 307.88,-251.59 312,-248 356.73,-208.96 411.84,-170.53 454.08,-142.83"/>
<polygon fill="none" stroke="#404040" points="454.2,-142.75 457.05,-136.13 464.26,-136.2 461.42,-142.83 454.2,-142.75"/>
<text text-anchor="middle" x="379.5" y="-222" font-family="Helvetica,sans-Serif" font-size="10.00"> &#45;_displayable</text>
</g>
<!-- Node3 -->
<g id="node3" class="node">
<title>Node3</title>
<g id="a_node3"><a xlink:href="$a01477.html" xlink:title="The IDisplayable interface.">
<polygon fill="white" stroke="black" points="187,-441.5 187,-564.5 303,-564.5 303,-441.5 187,-441.5"/>
<text text-anchor="start" x="195" y="-552.5" font-family="Helvetica,sans-Serif" font-size="10.00">RayTracer::Scenes::</text>
<text text-anchor="middle" x="245" y="-541.5" font-family="Helvetica,sans-Serif" font-size="10.00">IDisplayable</text>
<polyline fill="none" stroke="black" points="187,-534.5 303,-534.5 "/>
<text text-anchor="middle" x="245" y="-522.5" font-family="Helvetica,sans-Serif" font-size="10.00"> </text>
<polyline fill="none" stroke="black" points="187,-515.5 303,-515.5 "/>
<text text-anchor="start" x="195" y="-503.5" font-family="Helvetica,sans-Serif" font-size="10.00">+ getLightList()</text>
<text text-anchor="start" x="195" y="-492.5" font-family="Helvetica,sans-Serif" font-size="10.00">+ getLightList()</text>
<text text-anchor="start" x="195" y="-481.5" font-family="Helvetica,sans-Serif" font-size="10.00">+ getPrimitiveList()</text>
<text text-anchor="start" x="195" y="-470.5" font-family="Helvetica,sans-Serif" font-size="10.00">+ getPrimitiveList()</text>
<text text-anchor="start" x="195" y="-459.5" font-family="Helvetica,sans-Serif" font-size="10.00">+ getAmbientLight()</text>
<text text-anchor="start" x="195" y="-448.5" font-family="Helvetica,sans-Serif" font-size="10.00">+ getAmbientLight()</text>
</a>
</g>
</g>
<!-- Node3&#45;&gt;Node2 -->
<g id="edge2" class="edge">
<title>Node3&#45;&gt;Node2</title>
<path fill="none" stroke="midnightblue" d="M245,-430.97C245,-415.01 245,-398.22 245,-382.73"/>
<polygon fill="none" stroke="midnightblue" points="241.5,-431.31 245,-441.31 248.5,-431.31 241.5,-431.31"/>
</g>
<!-- Node4 -->
<g id="node4" class="node">
<title>Node4</title>
<g id="a_node4"><a xlink:title=" ">
<polygon fill="white" stroke="#bfbfbf" points="321,-463.5 321,-542.5 485,-542.5 485,-463.5 321,-463.5"/>
<text text-anchor="start" x="329" y="-530.5" font-family="Helvetica,sans-Serif" font-size="10.00">std::vector&lt; std::reference</text>
<text text-anchor="start" x="329" y="-519.5" font-family="Helvetica,sans-Serif" font-size="10.00">_wrapper&lt; RayTracer::Entities</text>
<text text-anchor="middle" x="403" y="-508.5" font-family="Helvetica,sans-Serif" font-size="10.00">::IPrimitive &gt; &gt;</text>
<polyline fill="none" stroke="#bfbfbf" points="321,-501.5 485,-501.5 "/>
<text text-anchor="middle" x="403" y="-489.5" font-family="Helvetica,sans-Serif" font-size="10.00"> </text>
<polyline fill="none" stroke="#bfbfbf" points="321,-482.5 485,-482.5 "/>
<text text-anchor="middle" x="403" y="-470.5" font-family="Helvetica,sans-Serif" font-size="10.00"> </text>
</a>
</g>
</g>
<!-- Node4&#45;&gt;Node2 -->
<g id="edge3" class="edge">
<title>Node4&#45;&gt;Node2</title>
<path fill="none" stroke="#404040" d="M369.11,-463.39C350.77,-442.5 327.57,-416.06 306.2,-391.72"/>
<polygon fill="none" stroke="#404040" points="306.03,-391.52 299.06,-389.65 298.11,-382.5 305.07,-384.38 306.03,-391.52"/>
<text text-anchor="middle" x="365" y="-415" font-family="Helvetica,sans-Serif" font-size="10.00"> &#45;_primitives</text>
</g>
<!-- Node5 -->
<g id="node5" class="node">
<title>Node5</title>
<g id="a_node5"><a xlink:title=" ">
<polygon fill="white" stroke="#bfbfbf" points="134,-634.5 134,-713.5 250,-713.5 250,-634.5 134,-634.5"/>
<text text-anchor="start" x="142" y="-701.5" font-family="Helvetica,sans-Serif" font-size="10.00">reference_wrapper&lt;</text>
<text text-anchor="start" x="142" y="-690.5" font-family="Helvetica,sans-Serif" font-size="10.00"> RayTracer::Entities</text>
<text text-anchor="middle" x="192" y="-679.5" font-family="Helvetica,sans-Serif" font-size="10.00">::IPrimitive &gt;</text>
<polyline fill="none" stroke="#bfbfbf" points="134,-672.5 250,-672.5 "/>
<text text-anchor="middle" x="192" y="-660.5" font-family="Helvetica,sans-Serif" font-size="10.00"> </text>
<polyline fill="none" stroke="#bfbfbf" points="134,-653.5 250,-653.5 "/>
<text text-anchor="middle" x="192" y="-641.5" font-family="Helvetica,sans-Serif" font-size="10.00"> </text>
</a>
</g>
</g>
<!-- Node5&#45;&gt;Node4 -->
<g id="edge4" class="edge">
<title>Node5&#45;&gt;Node4</title>
<path fill="none" stroke="#404040" d="M181.95,-634.41C179.76,-616.78 181,-596.79 193,-583 210.55,-562.82 287.07,-574.68 312,-565 322.66,-560.86 333.33,-555.3 343.42,-549.22"/>
<polygon fill="none" stroke="#404040" points="343.55,-549.14 346.49,-542.55 353.7,-542.73 350.76,-549.31 343.55,-549.14"/>
<text text-anchor="middle" x="222" y="-597" font-family="Helvetica,sans-Serif" font-size="10.00"> +elements</text>
</g>
<!-- Node6 -->
<g id="node6" class="node">
<title>Node6</title>
<g id="a_node6"><a xlink:title=" ">
<polygon fill="white" stroke="#bfbfbf" points="374.5,-645.5 374.5,-702.5 471.5,-702.5 471.5,-645.5 374.5,-645.5"/>
<text text-anchor="middle" x="423" y="-690.5" font-family="Helvetica,sans-Serif" font-size="10.00">std::vector&lt; T &gt;</text>
<polyline fill="none" stroke="#bfbfbf" points="374.5,-683.5 471.5,-683.5 "/>
<text text-anchor="middle" x="423" y="-671.5" font-family="Helvetica,sans-Serif" font-size="10.00"> </text>
<polyline fill="none" stroke="#bfbfbf" points="374.5,-664.5 471.5,-664.5 "/>
<text text-anchor="middle" x="423" y="-652.5" font-family="Helvetica,sans-Serif" font-size="10.00"> </text>
</a>
</g>
</g>
<!-- Node6&#45;&gt;Node4 -->
<g id="edge5" class="edge">
<title>Node6&#45;&gt;Node4</title>
<path fill="none" stroke="orange" d="M418.55,-635.41C415.28,-607.79 410.86,-570.4 407.56,-542.56"/>
<polygon fill="orange" stroke="orange" points="415.09,-635.95 419.74,-645.47 422.04,-635.13 415.09,-635.95"/>
<text text-anchor="start" x="416" y="-608" font-family="Helvetica,sans-Serif" font-size="10.00"> &lt; std::reference_wrapper</text>
<text text-anchor="start" x="416" y="-597" font-family="Helvetica,sans-Serif" font-size="10.00">&lt; RayTracer::Entities::</text>
<text text-anchor="middle" x="479.5" y="-586" font-family="Helvetica,sans-Serif" font-size="10.00">IPrimitive &gt; &gt;</text>
</g>
<!-- Node8 -->
<g id="node8" class="node">
<title>Node8</title>
<g id="a_node8"><a xlink:title=" ">
<polygon fill="white" stroke="#bfbfbf" points="5,-463.5 5,-542.5 169,-542.5 169,-463.5 5,-463.5"/>
<text text-anchor="start" x="13" y="-530.5" font-family="Helvetica,sans-Serif" font-size="10.00">std::vector&lt; std::reference</text>
<text text-anchor="start" x="13" y="-519.5" font-family="Helvetica,sans-Serif" font-size="10.00">_wrapper&lt; RayTracer::Entities</text>
<text text-anchor="middle" x="87" y="-508.5" font-family="Helvetica,sans-Serif" font-size="10.00">::ILight &gt; &gt;</text>
<polyline fill="none" stroke="#bfbfbf" points="5,-501.5 169,-501.5 "/>
<text text-anchor="middle" x="87" y="-489.5" font-family="Helvetica,sans-Serif" font-size="10.00"> </text>
<polyline fill="none" stroke="#bfbfbf" points="5,-482.5 169,-482.5 "/>
<text text-anchor="middle" x="87" y="-470.5" font-family="Helvetica,sans-Serif" font-size="10.00"> </text>
</a>
</g>
</g>
<!-- Node6&#45;&gt;Node8 -->
<g id="edge9" class="edge">
<title>Node6&#45;&gt;Node8</title>
<path fill="none" stroke="orange" d="M364.83,-655.87C338.23,-646.48 307.13,-633.21 282,-616 265.4,-604.63 268.37,-593.16 251,-583 222.15,-566.13 208.56,-578.51 178,-565 164.43,-559 150.68,-551 138.12,-542.76"/>
<polygon fill="orange" stroke="orange" points="363.81,-659.22 374.41,-659.15 366.08,-652.6 363.81,-659.22"/>
<text text-anchor="start" x="282" y="-608" font-family="Helvetica,sans-Serif" font-size="10.00"> &lt; std::reference_wrapper</text>
<text text-anchor="start" x="282" y="-597" font-family="Helvetica,sans-Serif" font-size="10.00">&lt; RayTracer::Entities::</text>
<text text-anchor="middle" x="345.5" y="-586" font-family="Helvetica,sans-Serif" font-size="10.00">ILight &gt; &gt;</text>
</g>
<!-- Node16 -->
<g id="node16" class="node">
<title>Node16</title>
<g id="a_node16"><a xlink:title=" ">
<polygon fill="white" stroke="#bfbfbf" points="511,-463.5 511,-542.5 675,-542.5 675,-463.5 511,-463.5"/>
<text text-anchor="start" x="519" y="-530.5" font-family="Helvetica,sans-Serif" font-size="10.00">std::vector&lt; std::reference</text>
<text text-anchor="start" x="519" y="-519.5" font-family="Helvetica,sans-Serif" font-size="10.00">_wrapper&lt; RayTracer::Entities</text>
<text text-anchor="middle" x="593" y="-508.5" font-family="Helvetica,sans-Serif" font-size="10.00">::ICamera &gt; &gt;</text>
<polyline fill="none" stroke="#bfbfbf" points="511,-501.5 675,-501.5 "/>
<text text-anchor="middle" x="593" y="-489.5" font-family="Helvetica,sans-Serif" font-size="10.00"> </text>
<polyline fill="none" stroke="#bfbfbf" points="511,-482.5 675,-482.5 "/>
<text text-anchor="middle" x="593" y="-470.5" font-family="Helvetica,sans-Serif" font-size="10.00"> </text>
</a>
</g>
</g>
<!-- Node6&#45;&gt;Node16 -->
<g id="edge18" class="edge">
<title>Node6&#45;&gt;Node16</title>
<path fill="none" stroke="orange" d="M481.33,-656.51C504.21,-647.61 529.2,-634.55 547,-616 566.36,-595.83 578.02,-566.39 584.75,-542.75"/>
<polygon fill="orange" stroke="orange" points="479.85,-653.33 471.68,-660.07 482.27,-659.89 479.85,-653.33"/>
<text text-anchor="start" x="570" y="-608" font-family="Helvetica,sans-Serif" font-size="10.00"> &lt; std::reference_wrapper</text>
<text text-anchor="start" x="570" y="-597" font-family="Helvetica,sans-Serif" font-size="10.00">&lt; RayTracer::Entities::</text>
<text text-anchor="middle" x="633.5" y="-586" font-family="Helvetica,sans-Serif" font-size="10.00">ICamera &gt; &gt;</text>
</g>
<!-- Node7 -->
<g id="node7" class="node">
<title>Node7</title>
<g id="a_node7"><a xlink:title=" ">
<polygon fill="white" stroke="#bfbfbf" points="408.5,-761.5 408.5,-818.5 437.5,-818.5 437.5,-761.5 408.5,-761.5"/>
<text text-anchor="middle" x="423" y="-806.5" font-family="Helvetica,sans-Serif" font-size="10.00">T</text>
<polyline fill="none" stroke="#bfbfbf" points="408.5,-799.5 437.5,-799.5 "/>
<text text-anchor="middle" x="423" y="-787.5" font-family="Helvetica,sans-Serif" font-size="10.00"> </text>
<polyline fill="none" stroke="#bfbfbf" points="408.5,-780.5 437.5,-780.5 "/>
<text text-anchor="middle" x="423" y="-768.5" font-family="Helvetica,sans-Serif" font-size="10.00"> </text>
</a>
</g>
</g>
<!-- Node7&#45;&gt;Node6 -->
<g id="edge6" class="edge">
<title>Node7&#45;&gt;Node6</title>
<path fill="none" stroke="#404040" d="M423,-761.4C423,-747.5 423,-730.39 423,-715.07"/>
<polygon fill="none" stroke="#404040" points="423,-714.74 419,-708.74 423,-702.74 427,-708.74 423,-714.74"/>
<text text-anchor="middle" x="452" y="-735" font-family="Helvetica,sans-Serif" font-size="10.00"> +elements</text>
</g>
<!-- Node8&#45;&gt;Node2 -->
<g id="edge7" class="edge">
<title>Node8&#45;&gt;Node2</title>
<path fill="none" stroke="#404040" d="M120.89,-463.39C139.23,-442.5 162.43,-416.06 183.8,-391.72"/>
<polygon fill="none" stroke="#404040" points="183.97,-391.52 184.93,-384.38 191.89,-382.5 190.94,-389.65 183.97,-391.52"/>
<text text-anchor="middle" x="186" y="-415" font-family="Helvetica,sans-Serif" font-size="10.00"> &#45;_lights</text>
</g>
<!-- Node9 -->
<g id="node9" class="node">
<title>Node9</title>
<g id="a_node9"><a xlink:title=" ">
<polygon fill="white" stroke="#bfbfbf" points="0,-634.5 0,-713.5 116,-713.5 116,-634.5 0,-634.5"/>
<text text-anchor="start" x="8" y="-701.5" font-family="Helvetica,sans-Serif" font-size="10.00">reference_wrapper&lt;</text>
<text text-anchor="start" x="8" y="-690.5" font-family="Helvetica,sans-Serif" font-size="10.00"> RayTracer::Entities</text>
<text text-anchor="middle" x="58" y="-679.5" font-family="Helvetica,sans-Serif" font-size="10.00">::ILight &gt;</text>
<polyline fill="none" stroke="#bfbfbf" points="0,-672.5 116,-672.5 "/>
<text text-anchor="middle" x="58" y="-660.5" font-family="Helvetica,sans-Serif" font-size="10.00"> </text>
<polyline fill="none" stroke="#bfbfbf" points="0,-653.5 116,-653.5 "/>
<text text-anchor="middle" x="58" y="-641.5" font-family="Helvetica,sans-Serif" font-size="10.00"> </text>
</a>
</g>
</g>
<!-- Node9&#45;&gt;Node8 -->
<g id="edge8" class="edge">
<title>Node9&#45;&gt;Node8</title>
<path fill="none" stroke="#404040" d="M64.65,-634.23C68.71,-610.61 73.93,-580.18 78.31,-554.67"/>
<polygon fill="none" stroke="#404040" points="78.35,-554.42 75.42,-547.83 80.38,-542.59 83.31,-549.18 78.35,-554.42"/>
<text text-anchor="middle" x="103" y="-597" font-family="Helvetica,sans-Serif" font-size="10.00"> +elements</text>
</g>
<!-- Node10 -->
<g id="node10" class="node">
<title>Node10</title>
<g id="a_node10"><a xlink:href="$a01337.html" xlink:title="Logger singleton.">
<polygon fill="white" stroke="black" points="321,-248.5 321,-393.5 457,-393.5 457,-248.5 321,-248.5"/>
<text text-anchor="middle" x="389" y="-381.5" font-family="Helvetica,sans-Serif" font-size="10.00">RayTracer::ILogger</text>
<polyline fill="none" stroke="black" points="321,-374.5 457,-374.5 "/>
<text text-anchor="middle" x="389" y="-362.5" font-family="Helvetica,sans-Serif" font-size="10.00"> </text>
<polyline fill="none" stroke="black" points="321,-355.5 457,-355.5 "/>
<text text-anchor="start" x="329" y="-343.5" font-family="Helvetica,sans-Serif" font-size="10.00">+ ~ILogger()</text>
<text text-anchor="start" x="329" y="-332.5" font-family="Helvetica,sans-Serif" font-size="10.00">+ fatal()</text>
<text text-anchor="start" x="329" y="-321.5" font-family="Helvetica,sans-Serif" font-size="10.00">+ error()</text>
<text text-anchor="start" x="329" y="-310.5" font-family="Helvetica,sans-Serif" font-size="10.00">+ warn()</text>
<text text-anchor="start" x="329" y="-299.5" font-family="Helvetica,sans-Serif" font-size="10.00">+ info()</text>
<text text-anchor="start" x="329" y="-288.5" font-family="Helvetica,sans-Serif" font-size="10.00">+ debug()</text>
<text text-anchor="start" x="329" y="-277.5" font-family="Helvetica,sans-Serif" font-size="10.00">+ trace()</text>
<text text-anchor="start" x="329" y="-266.5" font-family="Helvetica,sans-Serif" font-size="10.00">+ subscribeCallback()</text>
<text text-anchor="start" x="329" y="-255.5" font-family="Helvetica,sans-Serif" font-size="10.00">+ unsubscribeCallback()</text>
</a>
</g>
</g>
<!-- Node10&#45;&gt;Node1 -->
<g id="edge10" class="edge">
<title>Node10&#45;&gt;Node1</title>
<path fill="none" stroke="#404040" d="M431.89,-248.45C440.24,-234.53 449.15,-219.68 457.97,-204.97"/>
<polygon fill="none" stroke="#404040" points="458.19,-204.59 457.85,-197.39 464.36,-194.3 464.71,-201.5 458.19,-204.59"/>
<text text-anchor="middle" x="468.5" y="-222" font-family="Helvetica,sans-Serif" font-size="10.00"> &#45;_logger</text>
</g>
<!-- Node11 -->
<g id="node11" class="node">
<title>Node11</title>
<g id="a_node11"><a xlink:title=" ">
<polygon fill="white" stroke="#bfbfbf" points="475.5,-292.5 475.5,-349.5 564.5,-349.5 564.5,-292.5 475.5,-292.5"/>
<text text-anchor="middle" x="520" y="-337.5" font-family="Helvetica,sans-Serif" font-size="10.00">future&lt; void &gt;</text>
<polyline fill="none" stroke="#bfbfbf" points="475.5,-330.5 564.5,-330.5 "/>
<text text-anchor="middle" x="520" y="-318.5" font-family="Helvetica,sans-Serif" font-size="10.00"> </text>
<polyline fill="none" stroke="#bfbfbf" points="475.5,-311.5 564.5,-311.5 "/>
<text text-anchor="middle" x="520" y="-299.5" font-family="Helvetica,sans-Serif" font-size="10.00"> </text>
</a>
</g>
</g>
<!-- Node11&#45;&gt;Node1 -->
<g id="edge11" class="edge">
<title>Node11&#45;&gt;Node1</title>
<path fill="none" stroke="#404040" d="M520,-292.33C520,-271.84 520,-242.46 520,-212.87"/>
<polygon fill="none" stroke="#404040" points="520,-212.65 516,-206.65 520,-200.65 524,-206.65 520,-212.65"/>
<text text-anchor="middle" x="541" y="-222" font-family="Helvetica,sans-Serif" font-size="10.00"> &#45;_future</text>
</g>
<!-- Node12 -->
<g id="node12" class="node">
<title>Node12</title>
<g id="a_node12"><a xlink:href="$a01513.html" xlink:title="The SceneState class.">
<polygon fill="white" stroke="black" points="747.5,-276 747.5,-366 858.5,-366 858.5,-276 747.5,-276"/>
<text text-anchor="start" x="755.5" y="-354" font-family="Helvetica,sans-Serif" font-size="10.00">RayTracer::Scenes::</text>
<text text-anchor="middle" x="803" y="-343" font-family="Helvetica,sans-Serif" font-size="10.00">SceneState</text>
<polyline fill="none" stroke="black" points="747.5,-336 858.5,-336 "/>
<text text-anchor="middle" x="803" y="-324" font-family="Helvetica,sans-Serif" font-size="10.00"> </text>
<polyline fill="none" stroke="black" points="747.5,-317 858.5,-317 "/>
<text text-anchor="start" x="755.5" y="-305" font-family="Helvetica,sans-Serif" font-size="10.00">+ SceneState()</text>
<text text-anchor="start" x="755.5" y="-294" font-family="Helvetica,sans-Serif" font-size="10.00">+ getState()</text>
<text text-anchor="start" x="755.5" y="-283" font-family="Helvetica,sans-Serif" font-size="10.00">+ changeState()</text>
</a>
</g>
</g>
<!-- Node12&#45;&gt;Node1 -->
<g id="edge12" class="edge">
<title>Node12&#45;&gt;Node1</title>
<path fill="none" stroke="#404040" d="M747.43,-277.09C700.95,-241.21 634.56,-189.95 585.5,-152.07"/>
<polygon fill="none" stroke="#404040" points="585.43,-152.02 578.23,-151.52 575.93,-144.68 583.12,-145.18 585.43,-152.02"/>
<text text-anchor="middle" x="697.5" y="-222" font-family="Helvetica,sans-Serif" font-size="10.00"> &#45;_state</text>
</g>
<!-- Node13 -->
<g id="node13" class="node">
<title>Node13</title>
<g id="a_node13"><a xlink:href="$a01485.html" xlink:title="The SceneState interface.">
<polygon fill="white" stroke="black" points="693.5,-463.5 693.5,-542.5 804.5,-542.5 804.5,-463.5 693.5,-463.5"/>
<text text-anchor="start" x="701.5" y="-530.5" font-family="Helvetica,sans-Serif" font-size="10.00">RayTracer::Scenes::</text>
<text text-anchor="middle" x="749" y="-519.5" font-family="Helvetica,sans-Serif" font-size="10.00">ISceneState</text>
<polyline fill="none" stroke="black" points="693.5,-512.5 804.5,-512.5 "/>
<text text-anchor="middle" x="749" y="-500.5" font-family="Helvetica,sans-Serif" font-size="10.00"> </text>
<polyline fill="none" stroke="black" points="693.5,-493.5 804.5,-493.5 "/>
<text text-anchor="start" x="701.5" y="-481.5" font-family="Helvetica,sans-Serif" font-size="10.00">+ getState()</text>
<text text-anchor="start" x="701.5" y="-470.5" font-family="Helvetica,sans-Serif" font-size="10.00">+ changeState()</text>
</a>
</g>
</g>
<!-- Node13&#45;&gt;Node12 -->
<g id="edge13" class="edge">
<title>Node13&#45;&gt;Node12</title>
<path fill="none" stroke="midnightblue" d="M763.49,-453.68C771.66,-426.48 781.77,-392.76 789.72,-366.25"/>
<polygon fill="none" stroke="midnightblue" points="760.11,-452.8 760.58,-463.39 766.81,-454.81 760.11,-452.8"/>
</g>
<!-- Node14 -->
<g id="node14" class="node">
<title>Node14</title>
<g id="a_node14"><a xlink:title=" ">
<polygon fill="white" stroke="#bfbfbf" points="822.5,-474.5 822.5,-531.5 891.5,-531.5 891.5,-474.5 822.5,-474.5"/>
<text text-anchor="middle" x="857" y="-519.5" font-family="Helvetica,sans-Serif" font-size="10.00">std::mutex</text>
<polyline fill="none" stroke="#bfbfbf" points="822.5,-512.5 891.5,-512.5 "/>
<text text-anchor="middle" x="857" y="-500.5" font-family="Helvetica,sans-Serif" font-size="10.00"> </text>
<polyline fill="none" stroke="#bfbfbf" points="822.5,-493.5 891.5,-493.5 "/>
<text text-anchor="middle" x="857" y="-481.5" font-family="Helvetica,sans-Serif" font-size="10.00"> </text>
</a>
</g>
</g>
<!-- Node14&#45;&gt;Node12 -->
<g id="edge14" class="edge">
<title>Node14&#45;&gt;Node12</title>
<path fill="none" stroke="#404040" d="M848.68,-474.27C841.02,-448.74 829.43,-410.09 819.83,-378.12"/>
<polygon fill="none" stroke="#404040" points="819.72,-377.72 814.16,-373.13 816.27,-366.23 821.82,-370.83 819.72,-377.72"/>
<text text-anchor="middle" x="853.5" y="-415" font-family="Helvetica,sans-Serif" font-size="10.00"> &#45;mutex</text>
</g>
<!-- Node15 -->
<g id="node15" class="node">
<title>Node15</title>
<g id="a_node15"><a xlink:title=" ">
<polygon fill="white" stroke="#bfbfbf" points="909.5,-474.5 909.5,-531.5 956.5,-531.5 956.5,-474.5 909.5,-474.5"/>
<text text-anchor="middle" x="933" y="-519.5" font-family="Helvetica,sans-Serif" font-size="10.00">States</text>
<polyline fill="none" stroke="#bfbfbf" points="909.5,-512.5 956.5,-512.5 "/>
<text text-anchor="middle" x="933" y="-500.5" font-family="Helvetica,sans-Serif" font-size="10.00"> </text>
<polyline fill="none" stroke="#bfbfbf" points="909.5,-493.5 956.5,-493.5 "/>
<text text-anchor="middle" x="933" y="-481.5" font-family="Helvetica,sans-Serif" font-size="10.00"> </text>
</a>
</g>
</g>
<!-- Node15&#45;&gt;Node12 -->
<g id="edge15" class="edge">
<title>Node15&#45;&gt;Node12</title>
<path fill="none" stroke="#404040" d="M919.37,-474.38C913.76,-463.71 906.96,-451.55 900,-441 885.17,-418.53 866.95,-395.27 850.31,-375.33"/>
<polygon fill="none" stroke="#404040" points="850.29,-375.3 843.36,-373.29 842.55,-366.13 849.47,-368.14 850.29,-375.3"/>
<text text-anchor="middle" x="904.5" y="-415" font-family="Helvetica,sans-Serif" font-size="10.00"> &#45;_state</text>
</g>
<!-- Node16&#45;&gt;Node1 -->
<g id="edge16" class="edge">
<title>Node16&#45;&gt;Node1</title>
<path fill="none" stroke="#404040" d="M594.34,-463.46C595.16,-408.05 592.53,-303.27 566,-219 565.28,-216.73 564.55,-214.44 563.79,-212.13"/>
<polygon fill="none" stroke="#404040" points="563.71,-211.89 558,-207.49 559.86,-200.52 565.57,-204.93 563.71,-211.89"/>
<text text-anchor="middle" x="621.5" y="-318.5" font-family="Helvetica,sans-Serif" font-size="10.00"> &#45;_cameras</text>
</g>
<!-- Node17 -->
<g id="node17" class="node">
<title>Node17</title>
<g id="a_node17"><a xlink:title=" ">
<polygon fill="white" stroke="#bfbfbf" points="665,-634.5 665,-713.5 781,-713.5 781,-634.5 665,-634.5"/>
<text text-anchor="start" x="673" y="-701.5" font-family="Helvetica,sans-Serif" font-size="10.00">reference_wrapper&lt;</text>
<text text-anchor="start" x="673" y="-690.5" font-family="Helvetica,sans-Serif" font-size="10.00"> RayTracer::Entities</text>
<text text-anchor="middle" x="723" y="-679.5" font-family="Helvetica,sans-Serif" font-size="10.00">::ICamera &gt;</text>
<polyline fill="none" stroke="#bfbfbf" points="665,-672.5 781,-672.5 "/>
<text text-anchor="middle" x="723" y="-660.5" font-family="Helvetica,sans-Serif" font-size="10.00"> </text>
<polyline fill="none" stroke="#bfbfbf" points="665,-653.5 781,-653.5 "/>
<text text-anchor="middle" x="723" y="-641.5" font-family="Helvetica,sans-Serif" font-size="10.00"> </text>
</a>
</g>
</g>
<!-- Node17&#45;&gt;Node16 -->
<g id="edge17" class="edge">
<title>Node17&#45;&gt;Node16</title>
<path fill="none" stroke="#404040" d="M719.53,-634.27C716.58,-617.41 711.1,-598.11 701,-583 695.22,-574.36 680.3,-562.12 663.33,-549.84"/>
<polygon fill="none" stroke="#404040" points="662.94,-549.57 655.73,-549.37 653.15,-542.63 660.36,-542.84 662.94,-549.57"/>
<text text-anchor="middle" x="745" y="-597" font-family="Helvetica,sans-Serif" font-size="10.00"> +elements</text>
</g>
</g>
</svg>
