<?xml version="1.0" encoding="UTF-8" standalone="no"?>
<!DOCTYPE svg PUBLIC "-//W3C//DTD SVG 1.1//EN"
 "http://www.w3.org/Graphics/SVG/1.1/DTD/svg11.dtd">
<!-- Generated by graphviz version 2.43.0 (0)
 -->
<!-- Title: RayTracer::Plugins::Materials::MaterialLoader Pages: 1 -->
<svg width="283pt" height="609pt"
 viewBox="0.00 0.00 283.00 609.00" xmlns="http://www.w3.org/2000/svg" xmlns:xlink="http://www.w3.org/1999/xlink">
<g id="graph0" class="graph" transform="scale(1 1) rotate(0) translate(4 605)">
<title>RayTracer::Plugins::Materials::MaterialLoader</title>
<polygon fill="white" stroke="transparent" points="-4,4 -4,-605 279,-605 279,4 -4,4"/>
<!-- Node1 -->
<g id="node1" class="node">
<title>Node1</title>
<g id="a_node1"><a xlink:title="The MaterialLoader.">
<polygon fill="#bfbfbf" stroke="black" points="0,-0.5 0,-79.5 148,-79.5 148,-0.5 0,-0.5"/>
<text text-anchor="start" x="8" y="-67.5" font-family="Helvetica,sans-Serif" font-size="10.00">RayTracer::Plugins</text>
<text text-anchor="middle" x="74" y="-56.5" font-family="Helvetica,sans-Serif" font-size="10.00">::Materials::MaterialLoader</text>
<polyline fill="none" stroke="black" points="0,-49.5 148,-49.5 "/>
<text text-anchor="middle" x="74" y="-37.5" font-family="Helvetica,sans-Serif" font-size="10.00"> </text>
<polyline fill="none" stroke="black" points="0,-30.5 148,-30.5 "/>
<text text-anchor="start" x="8" y="-18.5" font-family="Helvetica,sans-Serif" font-size="10.00">+ MaterialLoader()</text>
<text text-anchor="start" x="8" y="-7.5" font-family="Helvetica,sans-Serif" font-size="10.00">+ loadMaterials()</text>
</a>
</g>
</g>
<!-- Node2 -->
<g id="node2" class="node">
<title>Node2</title>
<g id="a_node2"><a xlink:href="$a01417.html" xlink:title=" ">
<polygon fill="white" stroke="black" points="90.5,-117.5 90.5,-218.5 269.5,-218.5 269.5,-117.5 90.5,-117.5"/>
<text text-anchor="start" x="98.5" y="-206.5" font-family="Helvetica,sans-Serif" font-size="10.00">RayTracer::Plugins</text>
<text text-anchor="start" x="98.5" y="-195.5" font-family="Helvetica,sans-Serif" font-size="10.00">::PluginLoader&lt; MaterialHandler,</text>
<text text-anchor="start" x="98.5" y="-184.5" font-family="Helvetica,sans-Serif" font-size="10.00"> RayTracer::Entities::IMaterial,</text>
<text text-anchor="middle" x="180" y="-173.5" font-family="Helvetica,sans-Serif" font-size="10.00"> Factories::MaterialFactory &gt;</text>
<polyline fill="none" stroke="black" points="90.5,-166.5 269.5,-166.5 "/>
<text text-anchor="start" x="98.5" y="-154.5" font-family="Helvetica,sans-Serif" font-size="10.00"># _directory</text>
<polyline fill="none" stroke="black" points="90.5,-147.5 269.5,-147.5 "/>
<text text-anchor="start" x="98.5" y="-135.5" font-family="Helvetica,sans-Serif" font-size="10.00">+ PluginLoader()</text>
<text text-anchor="start" x="98.5" y="-124.5" font-family="Helvetica,sans-Serif" font-size="10.00">+ load()</text>
</a>
</g>
</g>
<!-- Node2&#45;&gt;Node1 -->
<g id="edge1" class="edge">
<title>Node2&#45;&gt;Node1</title>
<path fill="none" stroke="darkgreen" d="M131.63,-109.5C123.09,-99.36 114.4,-89.02 106.44,-79.56"/>
<polygon fill="none" stroke="darkgreen" points="128.99,-111.8 138.11,-117.2 134.35,-107.3 128.99,-111.8"/>
</g>
<!-- Node3 -->
<g id="node3" class="node">
<title>Node3</title>
<g id="a_node3"><a xlink:href="$a01417.html" xlink:title=" ">
<polygon fill="white" stroke="black" points="100,-299.5 100,-389.5 238,-389.5 238,-299.5 100,-299.5"/>
<text text-anchor="start" x="108" y="-377.5" font-family="Helvetica,sans-Serif" font-size="10.00">RayTracer::Plugins</text>
<text text-anchor="start" x="108" y="-366.5" font-family="Helvetica,sans-Serif" font-size="10.00">::PluginLoader&lt; Handler,</text>
<text text-anchor="middle" x="169" y="-355.5" font-family="Helvetica,sans-Serif" font-size="10.00"> Interface, Factory &gt;</text>
<polyline fill="none" stroke="black" points="100,-348.5 238,-348.5 "/>
<text text-anchor="middle" x="169" y="-336.5" font-family="Helvetica,sans-Serif" font-size="10.00"> </text>
<polyline fill="none" stroke="black" points="100,-329.5 238,-329.5 "/>
<text text-anchor="start" x="108" y="-317.5" font-family="Helvetica,sans-Serif" font-size="10.00">+ PluginLoader()</text>
<text text-anchor="start" x="108" y="-306.5" font-family="Helvetica,sans-Serif" font-size="10.00">+ load()</text>
</a>
</g>
</g>
<!-- Node3&#45;&gt;Node2 -->
<g id="edge2" class="edge">
<title>Node3&#45;&gt;Node2</title>
<path fill="none" stroke="orange" d="M172.41,-289.35C173.84,-266.75 175.48,-240.66 176.88,-218.57"/>
<polygon fill="orange" stroke="orange" points="168.91,-289.27 171.78,-299.47 175.9,-289.71 168.91,-289.27"/>
<text text-anchor="start" x="175" y="-273" font-family="Helvetica,sans-Serif" font-size="10.00"> &lt; MaterialHandler,</text>
<text text-anchor="start" x="175" y="-262" font-family="Helvetica,sans-Serif" font-size="10.00"> RayTracer::Entities</text>
<text text-anchor="start" x="175" y="-251" font-family="Helvetica,sans-Serif" font-size="10.00">::IMaterial, Factories</text>
<text text-anchor="middle" x="225" y="-240" font-family="Helvetica,sans-Serif" font-size="10.00">::MaterialFactory &gt;</text>
</g>
<!-- Node4 -->
<g id="node4" class="node">
<title>Node4</title>
<g id="a_node4"><a xlink:title=" ">
<polygon fill="white" stroke="#bfbfbf" points="45.5,-437.5 45.5,-494.5 110.5,-494.5 110.5,-437.5 45.5,-437.5"/>
<text text-anchor="middle" x="78" y="-482.5" font-family="Helvetica,sans-Serif" font-size="10.00">std::string</text>
<polyline fill="none" stroke="#bfbfbf" points="45.5,-475.5 110.5,-475.5 "/>
<text text-anchor="middle" x="78" y="-463.5" font-family="Helvetica,sans-Serif" font-size="10.00"> </text>
<polyline fill="none" stroke="#bfbfbf" points="45.5,-456.5 110.5,-456.5 "/>
<text text-anchor="middle" x="78" y="-444.5" font-family="Helvetica,sans-Serif" font-size="10.00"> </text>
</a>
</g>
</g>
<!-- Node4&#45;&gt;Node1 -->
<g id="edge5" class="edge">
<title>Node4&#45;&gt;Node1</title>
<path fill="none" stroke="#404040" d="M77.74,-437.18C77.08,-366.97 75.33,-181.8 74.48,-91.7"/>
<polygon fill="none" stroke="#404040" points="74.48,-91.63 70.42,-85.67 74.36,-79.63 78.42,-85.6 74.48,-91.63"/>
<text text-anchor="middle" x="105" y="-256.5" font-family="Helvetica,sans-Serif" font-size="10.00"> &#45;_directory</text>
</g>
<!-- Node4&#45;&gt;Node3 -->
<g id="edge3" class="edge">
<title>Node4&#45;&gt;Node3</title>
<path fill="none" stroke="#404040" d="M99.11,-437.28C107.64,-426.08 117.8,-412.73 127.7,-399.74"/>
<polygon fill="none" stroke="#404040" points="127.91,-399.46 128.36,-392.26 135.18,-389.91 134.73,-397.11 127.91,-399.46"/>
<text text-anchor="middle" x="150.5" y="-411" font-family="Helvetica,sans-Serif" font-size="10.00"> #_directory</text>
</g>
<!-- Node5 -->
<g id="node5" class="node">
<title>Node5</title>
<g id="a_node5"><a xlink:title=" ">
<polygon fill="white" stroke="#bfbfbf" points="26,-532.5 26,-600.5 130,-600.5 130,-532.5 26,-532.5"/>
<text text-anchor="start" x="34" y="-588.5" font-family="Helvetica,sans-Serif" font-size="10.00">std::basic_string&lt;</text>
<text text-anchor="middle" x="78" y="-577.5" font-family="Helvetica,sans-Serif" font-size="10.00"> Char &gt;</text>
<polyline fill="none" stroke="#bfbfbf" points="26,-570.5 130,-570.5 "/>
<text text-anchor="middle" x="78" y="-558.5" font-family="Helvetica,sans-Serif" font-size="10.00"> </text>
<polyline fill="none" stroke="#bfbfbf" points="26,-551.5 130,-551.5 "/>
<text text-anchor="middle" x="78" y="-539.5" font-family="Helvetica,sans-Serif" font-size="10.00"> </text>
</a>
</g>
</g>
<!-- Node5&#45;&gt;Node4 -->
<g id="edge4" class="edge">
<title>Node5&#45;&gt;Node4</title>
<path fill="none" stroke="midnightblue" d="M78,-522.38C78,-512.94 78,-503.2 78,-494.57"/>
<polygon fill="none" stroke="midnightblue" points="74.5,-522.43 78,-532.43 81.5,-522.43 74.5,-522.43"/>
</g>
</g>
</svg>
