<?xml version="1.0" encoding="UTF-8" standalone="no"?>
<!DOCTYPE svg PUBLIC "-//W3C//DTD SVG 1.1//EN"
 "http://www.w3.org/Graphics/SVG/1.1/DTD/svg11.dtd">
<!-- Generated by graphviz version 2.43.0 (0)
 -->
<!-- Title: RayTracer::Scenes::ISetting::IParsingException Pages: 1 -->
<svg width="190pt" height="298pt"
 viewBox="0.00 0.00 190.00 298.00" xmlns="http://www.w3.org/2000/svg" xmlns:xlink="http://www.w3.org/1999/xlink">
<g id="graph0" class="graph" transform="scale(1 1) rotate(0) translate(4 294)">
<title>RayTracer::Scenes::ISetting::IParsingException</title>
<polygon fill="white" stroke="transparent" points="-4,4 -4,-294 186,-294 186,4 -4,4"/>
<!-- Node1 -->
<g id="node1" class="node">
<title>Node1</title>
<g id="a_node1"><a xlink:title="an exception for when the key is not found">
<polygon fill="#bfbfbf" stroke="black" points="18,-116.5 18,-195.5 164,-195.5 164,-116.5 18,-116.5"/>
<text text-anchor="start" x="26" y="-183.5" font-family="Helvetica,sans-Serif" font-size="10.00">RayTracer::Scenes::</text>
<text text-anchor="middle" x="91" y="-172.5" font-family="Helvetica,sans-Serif" font-size="10.00">ISetting::IParsingException</text>
<polyline fill="none" stroke="black" points="18,-165.5 164,-165.5 "/>
<text text-anchor="middle" x="91" y="-153.5" font-family="Helvetica,sans-Serif" font-size="10.00"> </text>
<polyline fill="none" stroke="black" points="18,-146.5 164,-146.5 "/>
<text text-anchor="start" x="26" y="-134.5" font-family="Helvetica,sans-Serif" font-size="10.00">+ ~IParsingException()</text>
<text text-anchor="start" x="26" y="-123.5" font-family="Helvetica,sans-Serif" font-size="10.00">+ what()</text>
</a>
</g>
</g>
<!-- Node3 -->
<g id="node3" class="node">
<title>Node3</title>
<g id="a_node3"><a xlink:href="$a01521.html" xlink:title="an exception for when the key is not found">
<polygon fill="white" stroke="black" points="0,-0.5 0,-79.5 182,-79.5 182,-0.5 0,-0.5"/>
<text text-anchor="start" x="8" y="-67.5" font-family="Helvetica,sans-Serif" font-size="10.00">RayTracer::Scenes::</text>
<text text-anchor="middle" x="91" y="-56.5" font-family="Helvetica,sans-Serif" font-size="10.00">SettingWrapper::ParsingException</text>
<polyline fill="none" stroke="black" points="0,-49.5 182,-49.5 "/>
<text text-anchor="start" x="8" y="-37.5" font-family="Helvetica,sans-Serif" font-size="10.00">&#45; _msg</text>
<polyline fill="none" stroke="black" points="0,-30.5 182,-30.5 "/>
<text text-anchor="start" x="8" y="-18.5" font-family="Helvetica,sans-Serif" font-size="10.00">+ ParsingException()</text>
<text text-anchor="start" x="8" y="-7.5" font-family="Helvetica,sans-Serif" font-size="10.00">+ what()</text>
</a>
</g>
</g>
<!-- Node1&#45;&gt;Node3 -->
<g id="edge2" class="edge">
<title>Node1&#45;&gt;Node3</title>
<path fill="none" stroke="midnightblue" d="M91,-106.15C91,-97.26 91,-88.1 91,-79.56"/>
<polygon fill="none" stroke="midnightblue" points="87.5,-106.4 91,-116.4 94.5,-106.4 87.5,-106.4"/>
</g>
<!-- Node2 -->
<g id="node2" class="node">
<title>Node2</title>
<g id="a_node2"><a xlink:title=" ">
<polygon fill="white" stroke="#bfbfbf" points="48,-232.5 48,-289.5 134,-289.5 134,-232.5 48,-232.5"/>
<text text-anchor="middle" x="91" y="-277.5" font-family="Helvetica,sans-Serif" font-size="10.00">std::exception</text>
<polyline fill="none" stroke="#bfbfbf" points="48,-270.5 134,-270.5 "/>
<text text-anchor="middle" x="91" y="-258.5" font-family="Helvetica,sans-Serif" font-size="10.00"> </text>
<polyline fill="none" stroke="#bfbfbf" points="48,-251.5 134,-251.5 "/>
<text text-anchor="middle" x="91" y="-239.5" font-family="Helvetica,sans-Serif" font-size="10.00"> </text>
</a>
</g>
</g>
<!-- Node2&#45;&gt;Node1 -->
<g id="edge1" class="edge">
<title>Node2&#45;&gt;Node1</title>
<path fill="none" stroke="midnightblue" d="M91,-222.16C91,-213.47 91,-204.23 91,-195.52"/>
<polygon fill="none" stroke="midnightblue" points="87.5,-222.4 91,-232.4 94.5,-222.4 87.5,-222.4"/>
</g>
</g>
</svg>
