<?xml version="1.0" encoding="UTF-8" standalone="no"?>
<!DOCTYPE svg PUBLIC "-//W3C//DTD SVG 1.1//EN"
 "http://www.w3.org/Graphics/SVG/1.1/DTD/svg11.dtd">
<!-- Generated by graphviz version 2.43.0 (0)
 -->
<!-- Title: RayTracer::PluginsExt::Camera::FullCustom::CameraCustomEntity Pages: 1 -->
<svg width="1133pt" height="964pt"
 viewBox="0.00 0.00 1132.50 964.00" xmlns="http://www.w3.org/2000/svg" xmlns:xlink="http://www.w3.org/1999/xlink">
<g id="graph0" class="graph" transform="scale(1 1) rotate(0) translate(4 960)">
<title>RayTracer::PluginsExt::Camera::FullCustom::CameraCustomEntity</title>
<polygon fill="white" stroke="transparent" points="-4,4 -4,-960 1128.5,-960 1128.5,4 -4,4"/>
<!-- Node1 -->
<g id="node1" class="node">
<title>Node1</title>
<g id="a_node1"><a xlink:title=" ">
<polygon fill="#bfbfbf" stroke="black" points="558.5,-0.5 558.5,-200.5 706.5,-200.5 706.5,-0.5 558.5,-0.5"/>
<text text-anchor="start" x="566.5" y="-188.5" font-family="Helvetica,sans-Serif" font-size="10.00">RayTracer::PluginsExt</text>
<text text-anchor="start" x="566.5" y="-177.5" font-family="Helvetica,sans-Serif" font-size="10.00">::Camera::FullCustom</text>
<text text-anchor="middle" x="632.5" y="-166.5" font-family="Helvetica,sans-Serif" font-size="10.00">::CameraCustomEntity</text>
<polyline fill="none" stroke="black" points="558.5,-159.5 706.5,-159.5 "/>
<text text-anchor="middle" x="632.5" y="-147.5" font-family="Helvetica,sans-Serif" font-size="10.00"> </text>
<polyline fill="none" stroke="black" points="558.5,-140.5 706.5,-140.5 "/>
<text text-anchor="start" x="566.5" y="-128.5" font-family="Helvetica,sans-Serif" font-size="10.00">+ CameraCustomEntity()</text>
<text text-anchor="start" x="566.5" y="-117.5" font-family="Helvetica,sans-Serif" font-size="10.00">+ ~CameraCustomEntity()</text>
<text text-anchor="start" x="566.5" y="-106.5" font-family="Helvetica,sans-Serif" font-size="10.00">+ getType()</text>
<text text-anchor="start" x="566.5" y="-95.5" font-family="Helvetica,sans-Serif" font-size="10.00">+ getTransform()</text>
<text text-anchor="start" x="566.5" y="-84.5" font-family="Helvetica,sans-Serif" font-size="10.00">+ getTransform()</text>
<text text-anchor="start" x="566.5" y="-73.5" font-family="Helvetica,sans-Serif" font-size="10.00">+ getFocal()</text>
<text text-anchor="start" x="566.5" y="-62.5" font-family="Helvetica,sans-Serif" font-size="10.00">+ setFocal()</text>
<text text-anchor="start" x="566.5" y="-51.5" font-family="Helvetica,sans-Serif" font-size="10.00">+ setSize()</text>
<text text-anchor="start" x="566.5" y="-40.5" font-family="Helvetica,sans-Serif" font-size="10.00">+ getSize()</text>
<text text-anchor="start" x="566.5" y="-29.5" font-family="Helvetica,sans-Serif" font-size="10.00">+ render()</text>
<text text-anchor="start" x="566.5" y="-18.5" font-family="Helvetica,sans-Serif" font-size="10.00">+ getImage()</text>
<text text-anchor="start" x="566.5" y="-7.5" font-family="Helvetica,sans-Serif" font-size="10.00">+ getFilters()</text>
</a>
</g>
</g>
<!-- Node2 -->
<g id="node2" class="node">
<title>Node2</title>
<g id="a_node2"><a xlink:href="$a01185.html" xlink:title="The ICamera class.">
<polygon fill="white" stroke="black" points="63,-270.5 63,-415.5 170,-415.5 170,-270.5 63,-270.5"/>
<text text-anchor="start" x="71" y="-403.5" font-family="Helvetica,sans-Serif" font-size="10.00">RayTracer::Entities</text>
<text text-anchor="middle" x="116.5" y="-392.5" font-family="Helvetica,sans-Serif" font-size="10.00">::ICamera</text>
<polyline fill="none" stroke="black" points="63,-385.5 170,-385.5 "/>
<text text-anchor="middle" x="116.5" y="-373.5" font-family="Helvetica,sans-Serif" font-size="10.00"> </text>
<polyline fill="none" stroke="black" points="63,-366.5 170,-366.5 "/>
<text text-anchor="start" x="71" y="-354.5" font-family="Helvetica,sans-Serif" font-size="10.00">+ ~ICamera()</text>
<text text-anchor="start" x="71" y="-343.5" font-family="Helvetica,sans-Serif" font-size="10.00">+ getFocal()</text>
<text text-anchor="start" x="71" y="-332.5" font-family="Helvetica,sans-Serif" font-size="10.00">+ setFocal()</text>
<text text-anchor="start" x="71" y="-321.5" font-family="Helvetica,sans-Serif" font-size="10.00">+ setSize()</text>
<text text-anchor="start" x="71" y="-310.5" font-family="Helvetica,sans-Serif" font-size="10.00">+ getSize()</text>
<text text-anchor="start" x="71" y="-299.5" font-family="Helvetica,sans-Serif" font-size="10.00">+ render()</text>
<text text-anchor="start" x="71" y="-288.5" font-family="Helvetica,sans-Serif" font-size="10.00">+ getImage()</text>
<text text-anchor="start" x="71" y="-277.5" font-family="Helvetica,sans-Serif" font-size="10.00">+ getFilters()</text>
</a>
</g>
</g>
<!-- Node2&#45;&gt;Node1 -->
<g id="edge1" class="edge">
<title>Node2&#45;&gt;Node1</title>
<path fill="none" stroke="midnightblue" d="M178.03,-291.52C197.69,-276.56 219.94,-260.78 241.5,-248 344.39,-187.01 477.08,-143.78 558.41,-120.75"/>
<polygon fill="none" stroke="midnightblue" points="175.86,-288.77 170.07,-297.64 180.13,-294.32 175.86,-288.77"/>
</g>
<!-- Node3 -->
<g id="node3" class="node">
<title>Node3</title>
<g id="a_node3"><a xlink:href="$a01189.html" xlink:title="The IEntity class.">
<polygon fill="white" stroke="black" points="0,-617.5 0,-718.5 107,-718.5 107,-617.5 0,-617.5"/>
<text text-anchor="start" x="8" y="-706.5" font-family="Helvetica,sans-Serif" font-size="10.00">RayTracer::Entities</text>
<text text-anchor="middle" x="53.5" y="-695.5" font-family="Helvetica,sans-Serif" font-size="10.00">::IEntity</text>
<polyline fill="none" stroke="black" points="0,-688.5 107,-688.5 "/>
<text text-anchor="middle" x="53.5" y="-676.5" font-family="Helvetica,sans-Serif" font-size="10.00"> </text>
<polyline fill="none" stroke="black" points="0,-669.5 107,-669.5 "/>
<text text-anchor="start" x="8" y="-657.5" font-family="Helvetica,sans-Serif" font-size="10.00">+ ~IEntity()</text>
<text text-anchor="start" x="8" y="-646.5" font-family="Helvetica,sans-Serif" font-size="10.00">+ getTransform()</text>
<text text-anchor="start" x="8" y="-635.5" font-family="Helvetica,sans-Serif" font-size="10.00">+ getTransform()</text>
<text text-anchor="start" x="8" y="-624.5" font-family="Helvetica,sans-Serif" font-size="10.00">+ getType()</text>
</a>
</g>
</g>
<!-- Node3&#45;&gt;Node2 -->
<g id="edge2" class="edge">
<title>Node3&#45;&gt;Node2</title>
<path fill="none" stroke="midnightblue" d="M65.18,-607.11C75.74,-552.98 91.3,-473.21 102.51,-415.71"/>
<polygon fill="none" stroke="midnightblue" points="61.68,-606.75 63.21,-617.24 68.56,-608.09 61.68,-606.75"/>
</g>
<!-- Node4 -->
<g id="node4" class="node">
<title>Node4</title>
<g id="a_node4"><a xlink:href="$a01209.html" xlink:title="The Transform class.">
<polygon fill="white" stroke="black" points="250.5,-270.5 250.5,-415.5 376.5,-415.5 376.5,-270.5 250.5,-270.5"/>
<text text-anchor="start" x="258.5" y="-403.5" font-family="Helvetica,sans-Serif" font-size="10.00">RayTracer::Entities</text>
<text text-anchor="middle" x="313.5" y="-392.5" font-family="Helvetica,sans-Serif" font-size="10.00">::Transform::Transform</text>
<polyline fill="none" stroke="black" points="250.5,-385.5 376.5,-385.5 "/>
<text text-anchor="middle" x="313.5" y="-373.5" font-family="Helvetica,sans-Serif" font-size="10.00"> </text>
<polyline fill="none" stroke="black" points="250.5,-366.5 376.5,-366.5 "/>
<text text-anchor="start" x="258.5" y="-354.5" font-family="Helvetica,sans-Serif" font-size="10.00">+ Transform()</text>
<text text-anchor="start" x="258.5" y="-343.5" font-family="Helvetica,sans-Serif" font-size="10.00">+ setPosition()</text>
<text text-anchor="start" x="258.5" y="-332.5" font-family="Helvetica,sans-Serif" font-size="10.00">+ getPosition()</text>
<text text-anchor="start" x="258.5" y="-321.5" font-family="Helvetica,sans-Serif" font-size="10.00">+ setRotation()</text>
<text text-anchor="start" x="258.5" y="-310.5" font-family="Helvetica,sans-Serif" font-size="10.00">+ getRotation()</text>
<text text-anchor="start" x="258.5" y="-299.5" font-family="Helvetica,sans-Serif" font-size="10.00">+ setScale()</text>
<text text-anchor="start" x="258.5" y="-288.5" font-family="Helvetica,sans-Serif" font-size="10.00">+ getScale()</text>
<text text-anchor="start" x="258.5" y="-277.5" font-family="Helvetica,sans-Serif" font-size="10.00">+ operator=()</text>
</a>
</g>
</g>
<!-- Node4&#45;&gt;Node1 -->
<g id="edge3" class="edge">
<title>Node4&#45;&gt;Node1</title>
<path fill="none" stroke="#404040" d="M300.28,-270.24C300.49,-252.18 304.13,-233.76 314.5,-219 366.59,-144.87 471.01,-117.41 546,-107.29"/>
<polygon fill="none" stroke="#404040" points="546.32,-107.25 551.78,-102.53 558.23,-105.76 552.78,-110.47 546.32,-107.25"/>
<text text-anchor="middle" x="359.5" y="-222" font-family="Helvetica,sans-Serif" font-size="10.00"> &#45;_positionCamera</text>
</g>
<!-- Node5 -->
<g id="node5" class="node">
<title>Node5</title>
<g id="a_node5"><a xlink:href="$a01205.html" xlink:title="The ITransform class.">
<polygon fill="white" stroke="black" points="125,-595.5 125,-740.5 254,-740.5 254,-595.5 125,-595.5"/>
<text text-anchor="start" x="133" y="-728.5" font-family="Helvetica,sans-Serif" font-size="10.00">RayTracer::Entities</text>
<text text-anchor="middle" x="189.5" y="-717.5" font-family="Helvetica,sans-Serif" font-size="10.00">::Transform::ITransform</text>
<polyline fill="none" stroke="black" points="125,-710.5 254,-710.5 "/>
<text text-anchor="middle" x="189.5" y="-698.5" font-family="Helvetica,sans-Serif" font-size="10.00"> </text>
<polyline fill="none" stroke="black" points="125,-691.5 254,-691.5 "/>
<text text-anchor="start" x="133" y="-679.5" font-family="Helvetica,sans-Serif" font-size="10.00">+ ~ITransform()</text>
<text text-anchor="start" x="133" y="-668.5" font-family="Helvetica,sans-Serif" font-size="10.00">+ setPosition()</text>
<text text-anchor="start" x="133" y="-657.5" font-family="Helvetica,sans-Serif" font-size="10.00">+ getPosition()</text>
<text text-anchor="start" x="133" y="-646.5" font-family="Helvetica,sans-Serif" font-size="10.00">+ setRotation()</text>
<text text-anchor="start" x="133" y="-635.5" font-family="Helvetica,sans-Serif" font-size="10.00">+ getRotation()</text>
<text text-anchor="start" x="133" y="-624.5" font-family="Helvetica,sans-Serif" font-size="10.00">+ setScale()</text>
<text text-anchor="start" x="133" y="-613.5" font-family="Helvetica,sans-Serif" font-size="10.00">+ getScale()</text>
<text text-anchor="start" x="133" y="-602.5" font-family="Helvetica,sans-Serif" font-size="10.00">+ operator=()</text>
</a>
</g>
</g>
<!-- Node5&#45;&gt;Node4 -->
<g id="edge4" class="edge">
<title>Node5&#45;&gt;Node4</title>
<path fill="none" stroke="midnightblue" d="M220.7,-585.73C240.78,-533.43 266.63,-466.08 285.95,-415.76"/>
<polygon fill="none" stroke="midnightblue" points="217.34,-584.73 217.02,-595.32 223.87,-587.23 217.34,-584.73"/>
</g>
<!-- Node6 -->
<g id="node6" class="node">
<title>Node6</title>
<g id="a_node6"><a xlink:href="$a01217.html" xlink:title="The Vector3f class.">
<polygon fill="white" stroke="black" points="272.5,-507.5 272.5,-828.5 390.5,-828.5 390.5,-507.5 272.5,-507.5"/>
<text text-anchor="start" x="280.5" y="-816.5" font-family="Helvetica,sans-Serif" font-size="10.00">RayTracer::Entities</text>
<text text-anchor="middle" x="331.5" y="-805.5" font-family="Helvetica,sans-Serif" font-size="10.00">::Transform::Vector3f</text>
<polyline fill="none" stroke="black" points="272.5,-798.5 390.5,-798.5 "/>
<text text-anchor="middle" x="331.5" y="-786.5" font-family="Helvetica,sans-Serif" font-size="10.00"> </text>
<polyline fill="none" stroke="black" points="272.5,-779.5 390.5,-779.5 "/>
<text text-anchor="start" x="280.5" y="-767.5" font-family="Helvetica,sans-Serif" font-size="10.00">+ ~Vector3f()</text>
<text text-anchor="start" x="280.5" y="-756.5" font-family="Helvetica,sans-Serif" font-size="10.00">+ Vector3f()</text>
<text text-anchor="start" x="280.5" y="-745.5" font-family="Helvetica,sans-Serif" font-size="10.00">+ Vector3f()</text>
<text text-anchor="start" x="280.5" y="-734.5" font-family="Helvetica,sans-Serif" font-size="10.00">+ Vector3f()</text>
<text text-anchor="start" x="280.5" y="-723.5" font-family="Helvetica,sans-Serif" font-size="10.00">+ Vector3f()</text>
<text text-anchor="start" x="280.5" y="-712.5" font-family="Helvetica,sans-Serif" font-size="10.00">+ operator+()</text>
<text text-anchor="start" x="280.5" y="-701.5" font-family="Helvetica,sans-Serif" font-size="10.00">+ operator&#45;()</text>
<text text-anchor="start" x="280.5" y="-690.5" font-family="Helvetica,sans-Serif" font-size="10.00">+ operator*()</text>
<text text-anchor="start" x="280.5" y="-679.5" font-family="Helvetica,sans-Serif" font-size="10.00">+ operator/()</text>
<text text-anchor="start" x="280.5" y="-668.5" font-family="Helvetica,sans-Serif" font-size="10.00">+ operator=()</text>
<text text-anchor="start" x="280.5" y="-657.5" font-family="Helvetica,sans-Serif" font-size="10.00">+ getX()</text>
<text text-anchor="start" x="280.5" y="-646.5" font-family="Helvetica,sans-Serif" font-size="10.00">+ getY()</text>
<text text-anchor="start" x="280.5" y="-635.5" font-family="Helvetica,sans-Serif" font-size="10.00">+ getZ()</text>
<text text-anchor="start" x="280.5" y="-624.5" font-family="Helvetica,sans-Serif" font-size="10.00">+ getNorm()</text>
<text text-anchor="start" x="280.5" y="-613.5" font-family="Helvetica,sans-Serif" font-size="10.00">+ getNormalized()</text>
<text text-anchor="start" x="280.5" y="-602.5" font-family="Helvetica,sans-Serif" font-size="10.00">+ dot()</text>
<text text-anchor="start" x="280.5" y="-591.5" font-family="Helvetica,sans-Serif" font-size="10.00">+ getDistance()</text>
<text text-anchor="start" x="280.5" y="-580.5" font-family="Helvetica,sans-Serif" font-size="10.00">+ toDegrees()</text>
<text text-anchor="start" x="280.5" y="-569.5" font-family="Helvetica,sans-Serif" font-size="10.00">+ toRadians()</text>
<text text-anchor="start" x="280.5" y="-558.5" font-family="Helvetica,sans-Serif" font-size="10.00">+ rotateVector()</text>
<text text-anchor="start" x="280.5" y="-547.5" font-family="Helvetica,sans-Serif" font-size="10.00">+ getAngle()</text>
<text text-anchor="start" x="280.5" y="-536.5" font-family="Helvetica,sans-Serif" font-size="10.00">+ rotateX()</text>
<text text-anchor="start" x="280.5" y="-525.5" font-family="Helvetica,sans-Serif" font-size="10.00">+ rotateY()</text>
<text text-anchor="start" x="280.5" y="-514.5" font-family="Helvetica,sans-Serif" font-size="10.00">+ rotateZ()</text>
</a>
</g>
</g>
<!-- Node6&#45;&gt;Node4 -->
<g id="edge5" class="edge">
<title>Node6&#45;&gt;Node4</title>
<path fill="none" stroke="#404040" d="M322.61,-507.39C321.07,-479.93 319.54,-452.39 318.18,-427.96"/>
<polygon fill="none" stroke="#404040" points="318.17,-427.83 313.84,-422.07 317.5,-415.85 321.83,-421.62 318.17,-427.83"/>
<text text-anchor="middle" x="347.5" y="-481" font-family="Helvetica,sans-Serif" font-size="10.00"> &#45;_position</text>
<text text-anchor="middle" x="347.5" y="-470" font-family="Helvetica,sans-Serif" font-size="10.00">&#45;_rotation</text>
<text text-anchor="middle" x="347.5" y="-459" font-family="Helvetica,sans-Serif" font-size="10.00">&#45;_scale</text>
</g>
<!-- Node7 -->
<g id="node7" class="node">
<title>Node7</title>
<g id="a_node7"><a xlink:title=" ">
<polygon fill="white" stroke="#bfbfbf" points="363.5,-898.5 363.5,-955.5 413.5,-955.5 413.5,-898.5 363.5,-898.5"/>
<text text-anchor="middle" x="388.5" y="-943.5" font-family="Helvetica,sans-Serif" font-size="10.00">double</text>
<polyline fill="none" stroke="#bfbfbf" points="363.5,-936.5 413.5,-936.5 "/>
<text text-anchor="middle" x="388.5" y="-924.5" font-family="Helvetica,sans-Serif" font-size="10.00"> </text>
<polyline fill="none" stroke="#bfbfbf" points="363.5,-917.5 413.5,-917.5 "/>
<text text-anchor="middle" x="388.5" y="-905.5" font-family="Helvetica,sans-Serif" font-size="10.00"> </text>
</a>
</g>
</g>
<!-- Node7&#45;&gt;Node1 -->
<g id="edge11" class="edge">
<title>Node7&#45;&gt;Node1</title>
<path fill="none" stroke="#404040" d="M397.18,-898.47C398.83,-892.43 400.38,-886.04 401.5,-880 427.12,-741.33 393.32,-373.05 458.5,-248 478.85,-208.96 514.48,-176.13 548.22,-151.52"/>
<polygon fill="none" stroke="#404040" points="548.35,-151.42 550.93,-144.68 558.14,-144.47 555.56,-151.21 548.35,-151.42"/>
<text text-anchor="middle" x="433.5" y="-470" font-family="Helvetica,sans-Serif" font-size="10.00"> &#45;_fov</text>
</g>
<!-- Node7&#45;&gt;Node6 -->
<g id="edge6" class="edge">
<title>Node7&#45;&gt;Node6</title>
<path fill="none" stroke="#404040" d="M382.4,-898.5C379.01,-883.22 374.49,-862.81 369.52,-840.43"/>
<polygon fill="none" stroke="#404040" points="369.49,-840.29 364.29,-835.29 366.89,-828.57 372.1,-833.56 369.49,-840.29"/>
<text text-anchor="middle" x="388" y="-872" font-family="Helvetica,sans-Serif" font-size="10.00"> &#45;_x</text>
<text text-anchor="middle" x="388" y="-861" font-family="Helvetica,sans-Serif" font-size="10.00">&#45;_y</text>
<text text-anchor="middle" x="388" y="-850" font-family="Helvetica,sans-Serif" font-size="10.00">&#45;_z</text>
</g>
<!-- Node8 -->
<g id="node8" class="node">
<title>Node8</title>
<g id="a_node8"><a xlink:title=" ">
<polygon fill="white" stroke="#bfbfbf" points="468,-303.5 468,-382.5 625,-382.5 625,-303.5 468,-303.5"/>
<text text-anchor="start" x="476" y="-370.5" font-family="Helvetica,sans-Serif" font-size="10.00">std::list&lt; std::reference</text>
<text text-anchor="start" x="476" y="-359.5" font-family="Helvetica,sans-Serif" font-size="10.00">_wrapper&lt; RayTracer::Filters</text>
<text text-anchor="middle" x="546.5" y="-348.5" font-family="Helvetica,sans-Serif" font-size="10.00">::IFilter &gt; &gt;</text>
<polyline fill="none" stroke="#bfbfbf" points="468,-341.5 625,-341.5 "/>
<text text-anchor="middle" x="546.5" y="-329.5" font-family="Helvetica,sans-Serif" font-size="10.00"> </text>
<polyline fill="none" stroke="#bfbfbf" points="468,-322.5 625,-322.5 "/>
<text text-anchor="middle" x="546.5" y="-310.5" font-family="Helvetica,sans-Serif" font-size="10.00"> </text>
</a>
</g>
</g>
<!-- Node8&#45;&gt;Node1 -->
<g id="edge7" class="edge">
<title>Node8&#45;&gt;Node1</title>
<path fill="none" stroke="#404040" d="M560.32,-303.36C569.19,-278.54 581.21,-244.93 592.9,-212.26"/>
<polygon fill="none" stroke="#404040" points="592.97,-212.05 591.22,-205.06 597.01,-200.76 598.75,-207.75 592.97,-212.05"/>
<text text-anchor="middle" x="609.5" y="-222" font-family="Helvetica,sans-Serif" font-size="10.00"> &#45;_filters</text>
</g>
<!-- Node9 -->
<g id="node9" class="node">
<title>Node9</title>
<g id="a_node9"><a xlink:title=" ">
<polygon fill="white" stroke="#bfbfbf" points="446.5,-628.5 446.5,-707.5 562.5,-707.5 562.5,-628.5 446.5,-628.5"/>
<text text-anchor="start" x="454.5" y="-695.5" font-family="Helvetica,sans-Serif" font-size="10.00">reference_wrapper&lt;</text>
<text text-anchor="start" x="454.5" y="-684.5" font-family="Helvetica,sans-Serif" font-size="10.00"> RayTracer::Filters</text>
<text text-anchor="middle" x="504.5" y="-673.5" font-family="Helvetica,sans-Serif" font-size="10.00">::IFilter &gt;</text>
<polyline fill="none" stroke="#bfbfbf" points="446.5,-666.5 562.5,-666.5 "/>
<text text-anchor="middle" x="504.5" y="-654.5" font-family="Helvetica,sans-Serif" font-size="10.00"> </text>
<polyline fill="none" stroke="#bfbfbf" points="446.5,-647.5 562.5,-647.5 "/>
<text text-anchor="middle" x="504.5" y="-635.5" font-family="Helvetica,sans-Serif" font-size="10.00"> </text>
</a>
</g>
</g>
<!-- Node9&#45;&gt;Node8 -->
<g id="edge8" class="edge">
<title>Node9&#45;&gt;Node8</title>
<path fill="none" stroke="#404040" d="M494.06,-628.28C484.21,-585.5 472.94,-514.87 487.5,-456 492.91,-434.14 503.44,-411.84 514.12,-392.95"/>
<polygon fill="none" stroke="#404040" points="514.15,-392.89 513.73,-385.7 520.22,-382.54 520.64,-389.74 514.15,-392.89"/>
<text text-anchor="middle" x="516.5" y="-470" font-family="Helvetica,sans-Serif" font-size="10.00"> +elements</text>
</g>
<!-- Node10 -->
<g id="node10" class="node">
<title>Node10</title>
<g id="a_node10"><a xlink:title=" ">
<polygon fill="white" stroke="#bfbfbf" points="581,-639.5 581,-696.5 662,-696.5 662,-639.5 581,-639.5"/>
<text text-anchor="middle" x="621.5" y="-684.5" font-family="Helvetica,sans-Serif" font-size="10.00">std::list&lt; T &gt;</text>
<polyline fill="none" stroke="#bfbfbf" points="581,-677.5 662,-677.5 "/>
<text text-anchor="middle" x="621.5" y="-665.5" font-family="Helvetica,sans-Serif" font-size="10.00"> </text>
<polyline fill="none" stroke="#bfbfbf" points="581,-658.5 662,-658.5 "/>
<text text-anchor="middle" x="621.5" y="-646.5" font-family="Helvetica,sans-Serif" font-size="10.00"> </text>
</a>
</g>
</g>
<!-- Node10&#45;&gt;Node8 -->
<g id="edge9" class="edge">
<title>Node10&#45;&gt;Node8</title>
<path fill="none" stroke="orange" d="M608.75,-629.73C596.92,-593.99 579.53,-538.33 568.5,-489 560.53,-453.34 554.58,-412.1 550.89,-382.74"/>
<polygon fill="orange" stroke="orange" points="605.45,-630.88 611.93,-639.26 612.09,-628.67 605.45,-630.88"/>
<text text-anchor="start" x="568.5" y="-475.5" font-family="Helvetica,sans-Serif" font-size="10.00"> &lt; std::reference_wrapper</text>
<text text-anchor="middle" x="644.5" y="-464.5" font-family="Helvetica,sans-Serif" font-size="10.00">&lt; RayTracer::Filters::IFilter &gt; &gt;</text>
</g>
<!-- Node11 -->
<g id="node11" class="node">
<title>Node11</title>
<g id="a_node11"><a xlink:title=" ">
<polygon fill="white" stroke="#bfbfbf" points="607,-898.5 607,-955.5 636,-955.5 636,-898.5 607,-898.5"/>
<text text-anchor="middle" x="621.5" y="-943.5" font-family="Helvetica,sans-Serif" font-size="10.00">T</text>
<polyline fill="none" stroke="#bfbfbf" points="607,-936.5 636,-936.5 "/>
<text text-anchor="middle" x="621.5" y="-924.5" font-family="Helvetica,sans-Serif" font-size="10.00"> </text>
<polyline fill="none" stroke="#bfbfbf" points="607,-917.5 636,-917.5 "/>
<text text-anchor="middle" x="621.5" y="-905.5" font-family="Helvetica,sans-Serif" font-size="10.00"> </text>
</a>
</g>
</g>
<!-- Node11&#45;&gt;Node10 -->
<g id="edge10" class="edge">
<title>Node11&#45;&gt;Node10</title>
<path fill="none" stroke="#404040" d="M621.5,-898.5C621.5,-852.92 621.5,-761.55 621.5,-708.88"/>
<polygon fill="none" stroke="#404040" points="621.5,-708.69 617.5,-702.69 621.5,-696.69 625.5,-702.69 621.5,-708.69"/>
<text text-anchor="middle" x="650.5" y="-861" font-family="Helvetica,sans-Serif" font-size="10.00"> +elements</text>
</g>
<!-- Node12 -->
<g id="node12" class="node">
<title>Node12</title>
<g id="a_node12"><a xlink:href="$a01213.html" xlink:title="The Vector2i class.">
<polygon fill="white" stroke="black" points="748,-248.5 748,-437.5 865,-437.5 865,-248.5 748,-248.5"/>
<text text-anchor="start" x="756" y="-425.5" font-family="Helvetica,sans-Serif" font-size="10.00">RayTracer::Entities</text>
<text text-anchor="middle" x="806.5" y="-414.5" font-family="Helvetica,sans-Serif" font-size="10.00">::Transform::Vector2i</text>
<polyline fill="none" stroke="black" points="748,-407.5 865,-407.5 "/>
<text text-anchor="middle" x="806.5" y="-395.5" font-family="Helvetica,sans-Serif" font-size="10.00"> </text>
<polyline fill="none" stroke="black" points="748,-388.5 865,-388.5 "/>
<text text-anchor="start" x="756" y="-376.5" font-family="Helvetica,sans-Serif" font-size="10.00">+ ~Vector2i()</text>
<text text-anchor="start" x="756" y="-365.5" font-family="Helvetica,sans-Serif" font-size="10.00">+ Vector2i()</text>
<text text-anchor="start" x="756" y="-354.5" font-family="Helvetica,sans-Serif" font-size="10.00">+ Vector2i()</text>
<text text-anchor="start" x="756" y="-343.5" font-family="Helvetica,sans-Serif" font-size="10.00">+ Vector2i()</text>
<text text-anchor="start" x="756" y="-332.5" font-family="Helvetica,sans-Serif" font-size="10.00">+ Vector2i()</text>
<text text-anchor="start" x="756" y="-321.5" font-family="Helvetica,sans-Serif" font-size="10.00">+ operator+()</text>
<text text-anchor="start" x="756" y="-310.5" font-family="Helvetica,sans-Serif" font-size="10.00">+ operator&#45;()</text>
<text text-anchor="start" x="756" y="-299.5" font-family="Helvetica,sans-Serif" font-size="10.00">+ operator*()</text>
<text text-anchor="start" x="756" y="-288.5" font-family="Helvetica,sans-Serif" font-size="10.00">+ operator/()</text>
<text text-anchor="start" x="756" y="-277.5" font-family="Helvetica,sans-Serif" font-size="10.00">+ operator=()</text>
<text text-anchor="start" x="756" y="-266.5" font-family="Helvetica,sans-Serif" font-size="10.00">+ getX()</text>
<text text-anchor="start" x="756" y="-255.5" font-family="Helvetica,sans-Serif" font-size="10.00">+ getY()</text>
</a>
</g>
</g>
<!-- Node12&#45;&gt;Node1 -->
<g id="edge12" class="edge">
<title>Node12&#45;&gt;Node1</title>
<path fill="none" stroke="#404040" d="M747.83,-260.91C736.12,-244.73 723.64,-227.48 711.38,-210.53"/>
<polygon fill="none" stroke="#404040" points="711.23,-210.31 704.47,-207.8 704.19,-200.59 710.95,-203.11 711.23,-210.31"/>
<text text-anchor="middle" x="757" y="-222" font-family="Helvetica,sans-Serif" font-size="10.00"> &#45;_screenSize</text>
</g>
<!-- Node13 -->
<g id="node13" class="node">
<title>Node13</title>
<g id="a_node13"><a xlink:title=" ">
<polygon fill="white" stroke="#bfbfbf" points="741,-639.5 741,-696.5 770,-696.5 770,-639.5 741,-639.5"/>
<text text-anchor="middle" x="755.5" y="-684.5" font-family="Helvetica,sans-Serif" font-size="10.00">int</text>
<polyline fill="none" stroke="#bfbfbf" points="741,-677.5 770,-677.5 "/>
<text text-anchor="middle" x="755.5" y="-665.5" font-family="Helvetica,sans-Serif" font-size="10.00"> </text>
<polyline fill="none" stroke="#bfbfbf" points="741,-658.5 770,-658.5 "/>
<text text-anchor="middle" x="755.5" y="-646.5" font-family="Helvetica,sans-Serif" font-size="10.00"> </text>
</a>
</g>
</g>
<!-- Node13&#45;&gt;Node1 -->
<g id="edge14" class="edge">
<title>Node13&#45;&gt;Node1</title>
<path fill="none" stroke="#404040" d="M759.06,-639.16C763.09,-595.07 764.19,-508.77 720.5,-456 705.7,-438.13 685.85,-456.23 671.5,-438 657.59,-420.34 646.39,-303.76 639.62,-212.71"/>
<polygon fill="none" stroke="#404040" points="639.61,-212.58 635.18,-206.88 638.73,-200.61 643.16,-206.3 639.61,-212.58"/>
<text text-anchor="middle" x="705.5" y="-340.5" font-family="Helvetica,sans-Serif" font-size="10.00"> &#45;_maxThread</text>
</g>
<!-- Node13&#45;&gt;Node12 -->
<g id="edge13" class="edge">
<title>Node13&#45;&gt;Node12</title>
<path fill="none" stroke="#404040" d="M759.85,-639.46C766.44,-597.72 779.3,-516.24 789.86,-449.39"/>
<polygon fill="none" stroke="#404040" points="789.86,-449.37 786.85,-442.82 791.73,-437.52 794.75,-444.07 789.86,-449.37"/>
<text text-anchor="middle" x="798" y="-475.5" font-family="Helvetica,sans-Serif" font-size="10.00"> &#45;_x</text>
<text text-anchor="middle" x="798" y="-464.5" font-family="Helvetica,sans-Serif" font-size="10.00">&#45;_y</text>
</g>
<!-- Node14 -->
<g id="node14" class="node">
<title>Node14</title>
<g id="a_node14"><a xlink:href="$a01253.html" xlink:title="Logger singleton.">
<polygon fill="white" stroke="black" points="883,-281.5 883,-404.5 990,-404.5 990,-281.5 883,-281.5"/>
<text text-anchor="middle" x="936.5" y="-392.5" font-family="Helvetica,sans-Serif" font-size="10.00">RayTracer::ILogger</text>
<polyline fill="none" stroke="black" points="883,-385.5 990,-385.5 "/>
<text text-anchor="middle" x="936.5" y="-373.5" font-family="Helvetica,sans-Serif" font-size="10.00"> </text>
<polyline fill="none" stroke="black" points="883,-366.5 990,-366.5 "/>
<text text-anchor="start" x="891" y="-354.5" font-family="Helvetica,sans-Serif" font-size="10.00">+ ~ILogger()</text>
<text text-anchor="start" x="891" y="-343.5" font-family="Helvetica,sans-Serif" font-size="10.00">+ fatal()</text>
<text text-anchor="start" x="891" y="-332.5" font-family="Helvetica,sans-Serif" font-size="10.00">+ error()</text>
<text text-anchor="start" x="891" y="-321.5" font-family="Helvetica,sans-Serif" font-size="10.00">+ warn()</text>
<text text-anchor="start" x="891" y="-310.5" font-family="Helvetica,sans-Serif" font-size="10.00">+ info()</text>
<text text-anchor="start" x="891" y="-299.5" font-family="Helvetica,sans-Serif" font-size="10.00">+ debug()</text>
<text text-anchor="start" x="891" y="-288.5" font-family="Helvetica,sans-Serif" font-size="10.00">+ trace()</text>
</a>
</g>
</g>
<!-- Node14&#45;&gt;Node1 -->
<g id="edge15" class="edge">
<title>Node14&#45;&gt;Node1</title>
<path fill="none" stroke="#404040" d="M902.18,-281.25C893.99,-269.46 884.64,-257.76 874.5,-248 828.5,-203.75 766.84,-166.67 717.27,-140.89"/>
<polygon fill="none" stroke="#404040" points="717.24,-140.87 710.07,-141.69 706.56,-135.39 713.73,-134.57 717.24,-140.87"/>
<text text-anchor="middle" x="873" y="-222" font-family="Helvetica,sans-Serif" font-size="10.00"> &#45;_logger</text>
</g>
<!-- Node15 -->
<g id="node15" class="node">
<title>Node15</title>
<g id="a_node15"><a xlink:title=" ">
<polygon fill="white" stroke="#bfbfbf" points="1008.5,-309 1008.5,-377 1124.5,-377 1124.5,-309 1008.5,-309"/>
<text text-anchor="start" x="1016.5" y="-365" font-family="Helvetica,sans-Serif" font-size="10.00">optional&lt; RayTracer</text>
<text text-anchor="middle" x="1066.5" y="-354" font-family="Helvetica,sans-Serif" font-size="10.00">::Images::Image &gt;</text>
<polyline fill="none" stroke="#bfbfbf" points="1008.5,-347 1124.5,-347 "/>
<text text-anchor="middle" x="1066.5" y="-335" font-family="Helvetica,sans-Serif" font-size="10.00"> </text>
<polyline fill="none" stroke="#bfbfbf" points="1008.5,-328 1124.5,-328 "/>
<text text-anchor="middle" x="1066.5" y="-316" font-family="Helvetica,sans-Serif" font-size="10.00"> </text>
</a>
</g>
</g>
<!-- Node15&#45;&gt;Node1 -->
<g id="edge16" class="edge">
<title>Node15&#45;&gt;Node1</title>
<path fill="none" stroke="#404040" d="M1049.21,-308.7C1037.47,-288.82 1020.31,-264.34 999.5,-248 915.46,-182.01 797.83,-142.09 718.59,-120.94"/>
<polygon fill="none" stroke="#404040" points="718.31,-120.87 711.5,-123.22 706.7,-117.83 713.52,-115.48 718.31,-120.87"/>
<text text-anchor="middle" x="995" y="-222" font-family="Helvetica,sans-Serif" font-size="10.00"> &#45;_image</text>
</g>
</g>
</svg>
