<?xml version="1.0" encoding="UTF-8" standalone="no"?>
<!DOCTYPE svg PUBLIC "-//W3C//DTD SVG 1.1//EN"
 "http://www.w3.org/Graphics/SVG/1.1/DTD/svg11.dtd">
<!-- Generated by graphviz version 2.43.0 (0)
 -->
<!-- Title: RayTracer::PluginsExt::Camera::FullCustom::CameraCustomCreator Pages: 1 -->
<svg width="1272pt" height="1276pt"
 viewBox="0.00 0.00 1271.71 1276.00" xmlns="http://www.w3.org/2000/svg" xmlns:xlink="http://www.w3.org/1999/xlink">
<g id="graph0" class="graph" transform="scale(1 1) rotate(0) translate(4 1272)">
<title>RayTracer::PluginsExt::Camera::FullCustom::CameraCustomCreator</title>
<polygon fill="white" stroke="transparent" points="-4,4 -4,-1272 1267.71,-1272 1267.71,4 -4,4"/>
<!-- Node1 -->
<g id="node1" class="node">
<title>Node1</title>
<g id="a_node1"><a xlink:title=" ">
<polygon fill="#bfbfbf" stroke="black" points="744.21,-0.5 744.21,-90.5 899.21,-90.5 899.21,-0.5 744.21,-0.5"/>
<text text-anchor="start" x="752.21" y="-78.5" font-family="Helvetica,sans-Serif" font-size="10.00">RayTracer::PluginsExt</text>
<text text-anchor="start" x="752.21" y="-67.5" font-family="Helvetica,sans-Serif" font-size="10.00">::Camera::FullCustom</text>
<text text-anchor="middle" x="821.71" y="-56.5" font-family="Helvetica,sans-Serif" font-size="10.00">::CameraCustomCreator</text>
<polyline fill="none" stroke="black" points="744.21,-49.5 899.21,-49.5 "/>
<text text-anchor="middle" x="821.71" y="-37.5" font-family="Helvetica,sans-Serif" font-size="10.00"> </text>
<polyline fill="none" stroke="black" points="744.21,-30.5 899.21,-30.5 "/>
<text text-anchor="start" x="752.21" y="-18.5" font-family="Helvetica,sans-Serif" font-size="10.00">+ ~CameraCustomCreator()</text>
<text text-anchor="start" x="752.21" y="-7.5" font-family="Helvetica,sans-Serif" font-size="10.00">+ create()</text>
</a>
</g>
</g>
<!-- Node2 -->
<g id="node2" class="node">
<title>Node2</title>
<g id="a_node2"><a xlink:href="$a01315.html" xlink:title="The IEntityCreator.">
<polygon fill="white" stroke="black" points="739.21,-138.5 739.21,-217.5 872.21,-217.5 872.21,-138.5 739.21,-138.5"/>
<text text-anchor="start" x="747.21" y="-205.5" font-family="Helvetica,sans-Serif" font-size="10.00">RayTracer::Plugins</text>
<text text-anchor="middle" x="805.71" y="-194.5" font-family="Helvetica,sans-Serif" font-size="10.00">::Entities::IEntityCreator</text>
<polyline fill="none" stroke="black" points="739.21,-187.5 872.21,-187.5 "/>
<text text-anchor="middle" x="805.71" y="-175.5" font-family="Helvetica,sans-Serif" font-size="10.00"> </text>
<polyline fill="none" stroke="black" points="739.21,-168.5 872.21,-168.5 "/>
<text text-anchor="start" x="747.21" y="-156.5" font-family="Helvetica,sans-Serif" font-size="10.00">+ ~IEntityCreator()</text>
<text text-anchor="start" x="747.21" y="-145.5" font-family="Helvetica,sans-Serif" font-size="10.00">+ create()</text>
</a>
</g>
</g>
<!-- Node2&#45;&gt;Node1 -->
<g id="edge1" class="edge">
<title>Node2&#45;&gt;Node1</title>
<path fill="none" stroke="midnightblue" d="M811.7,-128.16C813.2,-115.93 814.8,-102.88 816.27,-90.88"/>
<polygon fill="none" stroke="midnightblue" points="808.21,-127.85 810.47,-138.2 815.16,-128.7 808.21,-127.85"/>
</g>
<!-- Node3 -->
<g id="node3" class="node">
<title>Node3</title>
<g id="a_node3"><a xlink:title=" ">
<polygon fill="white" stroke="#bfbfbf" points="890.21,-138.5 890.21,-217.5 1091.21,-217.5 1091.21,-138.5 890.21,-138.5"/>
<text text-anchor="start" x="898.21" y="-205.5" font-family="Helvetica,sans-Serif" font-size="10.00">std::vector&lt; RayTracer</text>
<text text-anchor="start" x="898.21" y="-194.5" font-family="Helvetica,sans-Serif" font-size="10.00">::PluginsExt::Camera::</text>
<text text-anchor="middle" x="990.71" y="-183.5" font-family="Helvetica,sans-Serif" font-size="10.00">FullCustom::CameraCustomEntity * &gt;</text>
<polyline fill="none" stroke="#bfbfbf" points="890.21,-176.5 1091.21,-176.5 "/>
<text text-anchor="middle" x="990.71" y="-164.5" font-family="Helvetica,sans-Serif" font-size="10.00"> </text>
<polyline fill="none" stroke="#bfbfbf" points="890.21,-157.5 1091.21,-157.5 "/>
<text text-anchor="middle" x="990.71" y="-145.5" font-family="Helvetica,sans-Serif" font-size="10.00"> </text>
</a>
</g>
</g>
<!-- Node3&#45;&gt;Node1 -->
<g id="edge2" class="edge">
<title>Node3&#45;&gt;Node1</title>
<path fill="none" stroke="#404040" d="M940.46,-138.2C924.13,-125.58 905.73,-111.38 888.39,-97.99"/>
<polygon fill="none" stroke="#404040" points="888.38,-97.98 881.19,-97.48 878.88,-90.65 886.08,-91.15 888.38,-97.98"/>
<text text-anchor="middle" x="944.71" y="-112" font-family="Helvetica,sans-Serif" font-size="10.00"> &#45;_elements</text>
</g>
<!-- Node4 -->
<g id="node4" class="node">
<title>Node4</title>
<g id="a_node4"><a xlink:href="$a01475.html" xlink:title=" ">
<polygon fill="white" stroke="black" points="596.71,-265.5 596.71,-465.5 744.71,-465.5 744.71,-265.5 596.71,-265.5"/>
<text text-anchor="start" x="604.71" y="-453.5" font-family="Helvetica,sans-Serif" font-size="10.00">RayTracer::PluginsExt</text>
<text text-anchor="start" x="604.71" y="-442.5" font-family="Helvetica,sans-Serif" font-size="10.00">::Camera::FullCustom</text>
<text text-anchor="middle" x="670.71" y="-431.5" font-family="Helvetica,sans-Serif" font-size="10.00">::CameraCustomEntity</text>
<polyline fill="none" stroke="black" points="596.71,-424.5 744.71,-424.5 "/>
<text text-anchor="middle" x="670.71" y="-412.5" font-family="Helvetica,sans-Serif" font-size="10.00"> </text>
<polyline fill="none" stroke="black" points="596.71,-405.5 744.71,-405.5 "/>
<text text-anchor="start" x="604.71" y="-393.5" font-family="Helvetica,sans-Serif" font-size="10.00">+ CameraCustomEntity()</text>
<text text-anchor="start" x="604.71" y="-382.5" font-family="Helvetica,sans-Serif" font-size="10.00">+ ~CameraCustomEntity()</text>
<text text-anchor="start" x="604.71" y="-371.5" font-family="Helvetica,sans-Serif" font-size="10.00">+ getType()</text>
<text text-anchor="start" x="604.71" y="-360.5" font-family="Helvetica,sans-Serif" font-size="10.00">+ getTransform()</text>
<text text-anchor="start" x="604.71" y="-349.5" font-family="Helvetica,sans-Serif" font-size="10.00">+ getTransform()</text>
<text text-anchor="start" x="604.71" y="-338.5" font-family="Helvetica,sans-Serif" font-size="10.00">+ getFocal()</text>
<text text-anchor="start" x="604.71" y="-327.5" font-family="Helvetica,sans-Serif" font-size="10.00">+ setFocal()</text>
<text text-anchor="start" x="604.71" y="-316.5" font-family="Helvetica,sans-Serif" font-size="10.00">+ setSize()</text>
<text text-anchor="start" x="604.71" y="-305.5" font-family="Helvetica,sans-Serif" font-size="10.00">+ getSize()</text>
<text text-anchor="start" x="604.71" y="-294.5" font-family="Helvetica,sans-Serif" font-size="10.00">+ render()</text>
<text text-anchor="start" x="604.71" y="-283.5" font-family="Helvetica,sans-Serif" font-size="10.00">+ getImage()</text>
<text text-anchor="start" x="604.71" y="-272.5" font-family="Helvetica,sans-Serif" font-size="10.00">+ getFilters()</text>
</a>
</g>
</g>
<!-- Node4&#45;&gt;Node3 -->
<g id="edge3" class="edge">
<title>Node4&#45;&gt;Node3</title>
<path fill="none" stroke="#404040" d="M744.93,-321.48C795.52,-292.15 862.36,-253.41 913.56,-223.72"/>
<polygon fill="none" stroke="#404040" points="913.86,-223.55 917.04,-217.08 924.24,-217.53 921.05,-224 913.86,-223.55"/>
<text text-anchor="middle" x="915.71" y="-239" font-family="Helvetica,sans-Serif" font-size="10.00"> +elements</text>
</g>
<!-- Node5 -->
<g id="node5" class="node">
<title>Node5</title>
<g id="a_node5"><a xlink:href="$a01171.html" xlink:title="The ICamera class.">
<polygon fill="white" stroke="black" points="487.21,-557.5 487.21,-702.5 594.21,-702.5 594.21,-557.5 487.21,-557.5"/>
<text text-anchor="start" x="495.21" y="-690.5" font-family="Helvetica,sans-Serif" font-size="10.00">RayTracer::Entities</text>
<text text-anchor="middle" x="540.71" y="-679.5" font-family="Helvetica,sans-Serif" font-size="10.00">::ICamera</text>
<polyline fill="none" stroke="black" points="487.21,-672.5 594.21,-672.5 "/>
<text text-anchor="middle" x="540.71" y="-660.5" font-family="Helvetica,sans-Serif" font-size="10.00"> </text>
<polyline fill="none" stroke="black" points="487.21,-653.5 594.21,-653.5 "/>
<text text-anchor="start" x="495.21" y="-641.5" font-family="Helvetica,sans-Serif" font-size="10.00">+ ~ICamera()</text>
<text text-anchor="start" x="495.21" y="-630.5" font-family="Helvetica,sans-Serif" font-size="10.00">+ getFocal()</text>
<text text-anchor="start" x="495.21" y="-619.5" font-family="Helvetica,sans-Serif" font-size="10.00">+ setFocal()</text>
<text text-anchor="start" x="495.21" y="-608.5" font-family="Helvetica,sans-Serif" font-size="10.00">+ setSize()</text>
<text text-anchor="start" x="495.21" y="-597.5" font-family="Helvetica,sans-Serif" font-size="10.00">+ getSize()</text>
<text text-anchor="start" x="495.21" y="-586.5" font-family="Helvetica,sans-Serif" font-size="10.00">+ render()</text>
<text text-anchor="start" x="495.21" y="-575.5" font-family="Helvetica,sans-Serif" font-size="10.00">+ getImage()</text>
<text text-anchor="start" x="495.21" y="-564.5" font-family="Helvetica,sans-Serif" font-size="10.00">+ getFilters()</text>
</a>
</g>
</g>
<!-- Node5&#45;&gt;Node4 -->
<g id="edge4" class="edge">
<title>Node5&#45;&gt;Node4</title>
<path fill="none" stroke="midnightblue" d="M580.73,-548.19C593.64,-522.12 608.1,-492.93 621.59,-465.69"/>
<polygon fill="none" stroke="midnightblue" points="577.54,-546.76 576.24,-557.27 583.81,-549.86 577.54,-546.76"/>
</g>
<!-- Node6 -->
<g id="node6" class="node">
<title>Node6</title>
<g id="a_node6"><a xlink:href="$a01175.html" xlink:title="The IEntity class.">
<polygon fill="white" stroke="black" points="585.21,-929.5 585.21,-1030.5 692.21,-1030.5 692.21,-929.5 585.21,-929.5"/>
<text text-anchor="start" x="593.21" y="-1018.5" font-family="Helvetica,sans-Serif" font-size="10.00">RayTracer::Entities</text>
<text text-anchor="middle" x="638.71" y="-1007.5" font-family="Helvetica,sans-Serif" font-size="10.00">::IEntity</text>
<polyline fill="none" stroke="black" points="585.21,-1000.5 692.21,-1000.5 "/>
<text text-anchor="middle" x="638.71" y="-988.5" font-family="Helvetica,sans-Serif" font-size="10.00"> </text>
<polyline fill="none" stroke="black" points="585.21,-981.5 692.21,-981.5 "/>
<text text-anchor="start" x="593.21" y="-969.5" font-family="Helvetica,sans-Serif" font-size="10.00">+ ~IEntity()</text>
<text text-anchor="start" x="593.21" y="-958.5" font-family="Helvetica,sans-Serif" font-size="10.00">+ getTransform()</text>
<text text-anchor="start" x="593.21" y="-947.5" font-family="Helvetica,sans-Serif" font-size="10.00">+ getTransform()</text>
<text text-anchor="start" x="593.21" y="-936.5" font-family="Helvetica,sans-Serif" font-size="10.00">+ getType()</text>
</a>
</g>
</g>
<!-- Node6&#45;&gt;Node5 -->
<g id="edge5" class="edge">
<title>Node6&#45;&gt;Node5</title>
<path fill="none" stroke="midnightblue" d="M647.89,-919.48C652.71,-869.58 652.74,-797.89 624.71,-743 618.97,-731.75 611.18,-734.38 602.71,-725 596.43,-718.03 590.32,-710.37 584.54,-702.53"/>
<polygon fill="none" stroke="midnightblue" points="644.4,-919.16 646.83,-929.47 651.36,-919.89 644.4,-919.16"/>
</g>
<!-- Node7 -->
<g id="node7" class="node">
<title>Node7</title>
<g id="a_node7"><a xlink:href="$a01195.html" xlink:title="The Transform class.">
<polygon fill="white" stroke="black" points="167.71,-557.5 167.71,-702.5 293.71,-702.5 293.71,-557.5 167.71,-557.5"/>
<text text-anchor="start" x="175.71" y="-690.5" font-family="Helvetica,sans-Serif" font-size="10.00">RayTracer::Entities</text>
<text text-anchor="middle" x="230.71" y="-679.5" font-family="Helvetica,sans-Serif" font-size="10.00">::Transform::Transform</text>
<polyline fill="none" stroke="black" points="167.71,-672.5 293.71,-672.5 "/>
<text text-anchor="middle" x="230.71" y="-660.5" font-family="Helvetica,sans-Serif" font-size="10.00"> </text>
<polyline fill="none" stroke="black" points="167.71,-653.5 293.71,-653.5 "/>
<text text-anchor="start" x="175.71" y="-641.5" font-family="Helvetica,sans-Serif" font-size="10.00">+ Transform()</text>
<text text-anchor="start" x="175.71" y="-630.5" font-family="Helvetica,sans-Serif" font-size="10.00">+ setPosition()</text>
<text text-anchor="start" x="175.71" y="-619.5" font-family="Helvetica,sans-Serif" font-size="10.00">+ getPosition()</text>
<text text-anchor="start" x="175.71" y="-608.5" font-family="Helvetica,sans-Serif" font-size="10.00">+ setRotation()</text>
<text text-anchor="start" x="175.71" y="-597.5" font-family="Helvetica,sans-Serif" font-size="10.00">+ getRotation()</text>
<text text-anchor="start" x="175.71" y="-586.5" font-family="Helvetica,sans-Serif" font-size="10.00">+ setScale()</text>
<text text-anchor="start" x="175.71" y="-575.5" font-family="Helvetica,sans-Serif" font-size="10.00">+ getScale()</text>
<text text-anchor="start" x="175.71" y="-564.5" font-family="Helvetica,sans-Serif" font-size="10.00">+ operator=()</text>
</a>
</g>
</g>
<!-- Node7&#45;&gt;Node4 -->
<g id="edge6" class="edge">
<title>Node7&#45;&gt;Node4</title>
<path fill="none" stroke="#404040" d="M280.15,-557.07C287.21,-549.12 294.79,-541.55 302.71,-535 387.27,-465.16 505.5,-417.85 584.93,-391.55"/>
<polygon fill="none" stroke="#404040" points="584.94,-391.55 589.41,-385.88 596.35,-387.83 591.89,-393.49 584.94,-391.55"/>
<text text-anchor="middle" x="420.71" y="-498" font-family="Helvetica,sans-Serif" font-size="10.00"> &#45;_positionCamera</text>
</g>
<!-- Node8 -->
<g id="node8" class="node">
<title>Node8</title>
<g id="a_node8"><a xlink:href="$a01191.html" xlink:title="The ITransform class.">
<polygon fill="white" stroke="black" points="49.21,-907.5 49.21,-1052.5 178.21,-1052.5 178.21,-907.5 49.21,-907.5"/>
<text text-anchor="start" x="57.21" y="-1040.5" font-family="Helvetica,sans-Serif" font-size="10.00">RayTracer::Entities</text>
<text text-anchor="middle" x="113.71" y="-1029.5" font-family="Helvetica,sans-Serif" font-size="10.00">::Transform::ITransform</text>
<polyline fill="none" stroke="black" points="49.21,-1022.5 178.21,-1022.5 "/>
<text text-anchor="middle" x="113.71" y="-1010.5" font-family="Helvetica,sans-Serif" font-size="10.00"> </text>
<polyline fill="none" stroke="black" points="49.21,-1003.5 178.21,-1003.5 "/>
<text text-anchor="start" x="57.21" y="-991.5" font-family="Helvetica,sans-Serif" font-size="10.00">+ ~ITransform()</text>
<text text-anchor="start" x="57.21" y="-980.5" font-family="Helvetica,sans-Serif" font-size="10.00">+ setPosition()</text>
<text text-anchor="start" x="57.21" y="-969.5" font-family="Helvetica,sans-Serif" font-size="10.00">+ getPosition()</text>
<text text-anchor="start" x="57.21" y="-958.5" font-family="Helvetica,sans-Serif" font-size="10.00">+ setRotation()</text>
<text text-anchor="start" x="57.21" y="-947.5" font-family="Helvetica,sans-Serif" font-size="10.00">+ getRotation()</text>
<text text-anchor="start" x="57.21" y="-936.5" font-family="Helvetica,sans-Serif" font-size="10.00">+ setScale()</text>
<text text-anchor="start" x="57.21" y="-925.5" font-family="Helvetica,sans-Serif" font-size="10.00">+ getScale()</text>
<text text-anchor="start" x="57.21" y="-914.5" font-family="Helvetica,sans-Serif" font-size="10.00">+ operator=()</text>
</a>
</g>
</g>
<!-- Node8&#45;&gt;Node7 -->
<g id="edge7" class="edge">
<title>Node8&#45;&gt;Node7</title>
<path fill="none" stroke="midnightblue" d="M141.07,-897.64C160.94,-838.53 187.58,-759.3 206.64,-702.59"/>
<polygon fill="none" stroke="midnightblue" points="137.68,-896.72 137.81,-907.32 144.32,-898.95 137.68,-896.72"/>
</g>
<!-- Node9 -->
<g id="node9" class="node">
<title>Node9</title>
<g id="a_node9"><a xlink:href="$a01203.html" xlink:title="The Vector3f class.">
<polygon fill="white" stroke="black" points="196.71,-819.5 196.71,-1140.5 314.71,-1140.5 314.71,-819.5 196.71,-819.5"/>
<text text-anchor="start" x="204.71" y="-1128.5" font-family="Helvetica,sans-Serif" font-size="10.00">RayTracer::Entities</text>
<text text-anchor="middle" x="255.71" y="-1117.5" font-family="Helvetica,sans-Serif" font-size="10.00">::Transform::Vector3f</text>
<polyline fill="none" stroke="black" points="196.71,-1110.5 314.71,-1110.5 "/>
<text text-anchor="middle" x="255.71" y="-1098.5" font-family="Helvetica,sans-Serif" font-size="10.00"> </text>
<polyline fill="none" stroke="black" points="196.71,-1091.5 314.71,-1091.5 "/>
<text text-anchor="start" x="204.71" y="-1079.5" font-family="Helvetica,sans-Serif" font-size="10.00">+ ~Vector3f()</text>
<text text-anchor="start" x="204.71" y="-1068.5" font-family="Helvetica,sans-Serif" font-size="10.00">+ Vector3f()</text>
<text text-anchor="start" x="204.71" y="-1057.5" font-family="Helvetica,sans-Serif" font-size="10.00">+ Vector3f()</text>
<text text-anchor="start" x="204.71" y="-1046.5" font-family="Helvetica,sans-Serif" font-size="10.00">+ Vector3f()</text>
<text text-anchor="start" x="204.71" y="-1035.5" font-family="Helvetica,sans-Serif" font-size="10.00">+ Vector3f()</text>
<text text-anchor="start" x="204.71" y="-1024.5" font-family="Helvetica,sans-Serif" font-size="10.00">+ operator+()</text>
<text text-anchor="start" x="204.71" y="-1013.5" font-family="Helvetica,sans-Serif" font-size="10.00">+ operator&#45;()</text>
<text text-anchor="start" x="204.71" y="-1002.5" font-family="Helvetica,sans-Serif" font-size="10.00">+ operator*()</text>
<text text-anchor="start" x="204.71" y="-991.5" font-family="Helvetica,sans-Serif" font-size="10.00">+ operator/()</text>
<text text-anchor="start" x="204.71" y="-980.5" font-family="Helvetica,sans-Serif" font-size="10.00">+ operator=()</text>
<text text-anchor="start" x="204.71" y="-969.5" font-family="Helvetica,sans-Serif" font-size="10.00">+ getX()</text>
<text text-anchor="start" x="204.71" y="-958.5" font-family="Helvetica,sans-Serif" font-size="10.00">+ getY()</text>
<text text-anchor="start" x="204.71" y="-947.5" font-family="Helvetica,sans-Serif" font-size="10.00">+ getZ()</text>
<text text-anchor="start" x="204.71" y="-936.5" font-family="Helvetica,sans-Serif" font-size="10.00">+ getNorm()</text>
<text text-anchor="start" x="204.71" y="-925.5" font-family="Helvetica,sans-Serif" font-size="10.00">+ getNormalized()</text>
<text text-anchor="start" x="204.71" y="-914.5" font-family="Helvetica,sans-Serif" font-size="10.00">+ dot()</text>
<text text-anchor="start" x="204.71" y="-903.5" font-family="Helvetica,sans-Serif" font-size="10.00">+ getDistance()</text>
<text text-anchor="start" x="204.71" y="-892.5" font-family="Helvetica,sans-Serif" font-size="10.00">+ toDegrees()</text>
<text text-anchor="start" x="204.71" y="-881.5" font-family="Helvetica,sans-Serif" font-size="10.00">+ toRadians()</text>
<text text-anchor="start" x="204.71" y="-870.5" font-family="Helvetica,sans-Serif" font-size="10.00">+ rotateVector()</text>
<text text-anchor="start" x="204.71" y="-859.5" font-family="Helvetica,sans-Serif" font-size="10.00">+ getAngle()</text>
<text text-anchor="start" x="204.71" y="-848.5" font-family="Helvetica,sans-Serif" font-size="10.00">+ rotateX()</text>
<text text-anchor="start" x="204.71" y="-837.5" font-family="Helvetica,sans-Serif" font-size="10.00">+ rotateY()</text>
<text text-anchor="start" x="204.71" y="-826.5" font-family="Helvetica,sans-Serif" font-size="10.00">+ rotateZ()</text>
</a>
</g>
</g>
<!-- Node9&#45;&gt;Node7 -->
<g id="edge8" class="edge">
<title>Node9&#45;&gt;Node7</title>
<path fill="none" stroke="#404040" d="M244.24,-819.26C241.65,-783.29 239.01,-746.51 236.76,-715.11"/>
<polygon fill="none" stroke="#404040" points="236.74,-714.88 232.32,-709.18 235.88,-702.91 240.3,-708.61 236.74,-714.88"/>
<text text-anchor="middle" x="268.71" y="-780.5" font-family="Helvetica,sans-Serif" font-size="10.00"> &#45;_position</text>
<text text-anchor="middle" x="268.71" y="-769.5" font-family="Helvetica,sans-Serif" font-size="10.00">&#45;_rotation</text>
<text text-anchor="middle" x="268.71" y="-758.5" font-family="Helvetica,sans-Serif" font-size="10.00">&#45;_scale</text>
</g>
<!-- Node10 -->
<g id="node10" class="node">
<title>Node10</title>
<g id="a_node10"><a xlink:title=" ">
<polygon fill="white" stroke="#bfbfbf" points="54.71,-1210.5 54.71,-1267.5 104.71,-1267.5 104.71,-1210.5 54.71,-1210.5"/>
<text text-anchor="middle" x="79.71" y="-1255.5" font-family="Helvetica,sans-Serif" font-size="10.00">double</text>
<polyline fill="none" stroke="#bfbfbf" points="54.71,-1248.5 104.71,-1248.5 "/>
<text text-anchor="middle" x="79.71" y="-1236.5" font-family="Helvetica,sans-Serif" font-size="10.00"> </text>
<polyline fill="none" stroke="#bfbfbf" points="54.71,-1229.5 104.71,-1229.5 "/>
<text text-anchor="middle" x="79.71" y="-1217.5" font-family="Helvetica,sans-Serif" font-size="10.00"> </text>
</a>
</g>
</g>
<!-- Node10&#45;&gt;Node4 -->
<g id="edge14" class="edge">
<title>Node10&#45;&gt;Node4</title>
<path fill="none" stroke="#404040" d="M64.96,-1210.48C55.68,-1191.54 44.56,-1165.48 39.71,-1141 -13.62,-871.75 -42.87,-721.28 158.71,-535 278.61,-424.2 472.88,-386.16 584.46,-373.17"/>
<polygon fill="none" stroke="#404040" points="584.73,-373.14 590.25,-368.5 596.66,-371.81 591.14,-376.45 584.73,-373.14"/>
<text text-anchor="middle" x="29.71" y="-769.5" font-family="Helvetica,sans-Serif" font-size="10.00"> &#45;_fov</text>
</g>
<!-- Node10&#45;&gt;Node9 -->
<g id="edge9" class="edge">
<title>Node10&#45;&gt;Node9</title>
<path fill="none" stroke="#404040" d="M105.07,-1220.07C128.76,-1202.25 163.82,-1173.02 186.71,-1141 187.79,-1139.5 188.85,-1137.98 189.89,-1136.45"/>
<polygon fill="none" stroke="#404040" points="190.1,-1136.13 190.01,-1128.92 196.64,-1126.07 196.72,-1133.28 190.1,-1136.13"/>
<text text-anchor="middle" x="182.21" y="-1184" font-family="Helvetica,sans-Serif" font-size="10.00"> &#45;_x</text>
<text text-anchor="middle" x="182.21" y="-1173" font-family="Helvetica,sans-Serif" font-size="10.00">&#45;_y</text>
<text text-anchor="middle" x="182.21" y="-1162" font-family="Helvetica,sans-Serif" font-size="10.00">&#45;_z</text>
</g>
<!-- Node11 -->
<g id="node11" class="node">
<title>Node11</title>
<g id="a_node11"><a xlink:title=" ">
<polygon fill="white" stroke="#bfbfbf" points="312.21,-590.5 312.21,-669.5 469.21,-669.5 469.21,-590.5 312.21,-590.5"/>
<text text-anchor="start" x="320.21" y="-657.5" font-family="Helvetica,sans-Serif" font-size="10.00">std::list&lt; std::reference</text>
<text text-anchor="start" x="320.21" y="-646.5" font-family="Helvetica,sans-Serif" font-size="10.00">_wrapper&lt; RayTracer::Filters</text>
<text text-anchor="middle" x="390.71" y="-635.5" font-family="Helvetica,sans-Serif" font-size="10.00">::IFilter &gt; &gt;</text>
<polyline fill="none" stroke="#bfbfbf" points="312.21,-628.5 469.21,-628.5 "/>
<text text-anchor="middle" x="390.71" y="-616.5" font-family="Helvetica,sans-Serif" font-size="10.00"> </text>
<polyline fill="none" stroke="#bfbfbf" points="312.21,-609.5 469.21,-609.5 "/>
<text text-anchor="middle" x="390.71" y="-597.5" font-family="Helvetica,sans-Serif" font-size="10.00"> </text>
</a>
</g>
</g>
<!-- Node11&#45;&gt;Node4 -->
<g id="edge10" class="edge">
<title>Node11&#45;&gt;Node4</title>
<path fill="none" stroke="#404040" d="M424.95,-590.16C440.63,-572.87 459.69,-552.51 477.71,-535 512.57,-501.14 552.82,-465.5 587.51,-435.76"/>
<polygon fill="none" stroke="#404040" points="587.55,-435.73 589.51,-428.79 596.67,-427.93 594.71,-434.87 587.55,-435.73"/>
<text text-anchor="middle" x="549.71" y="-498" font-family="Helvetica,sans-Serif" font-size="10.00"> &#45;_filters</text>
</g>
<!-- Node12 -->
<g id="node12" class="node">
<title>Node12</title>
<g id="a_node12"><a xlink:title=" ">
<polygon fill="white" stroke="#bfbfbf" points="332.71,-940.5 332.71,-1019.5 448.71,-1019.5 448.71,-940.5 332.71,-940.5"/>
<text text-anchor="start" x="340.71" y="-1007.5" font-family="Helvetica,sans-Serif" font-size="10.00">reference_wrapper&lt;</text>
<text text-anchor="start" x="340.71" y="-996.5" font-family="Helvetica,sans-Serif" font-size="10.00"> RayTracer::Filters</text>
<text text-anchor="middle" x="390.71" y="-985.5" font-family="Helvetica,sans-Serif" font-size="10.00">::IFilter &gt;</text>
<polyline fill="none" stroke="#bfbfbf" points="332.71,-978.5 448.71,-978.5 "/>
<text text-anchor="middle" x="390.71" y="-966.5" font-family="Helvetica,sans-Serif" font-size="10.00"> </text>
<polyline fill="none" stroke="#bfbfbf" points="332.71,-959.5 448.71,-959.5 "/>
<text text-anchor="middle" x="390.71" y="-947.5" font-family="Helvetica,sans-Serif" font-size="10.00"> </text>
</a>
</g>
</g>
<!-- Node12&#45;&gt;Node11 -->
<g id="edge11" class="edge">
<title>Node12&#45;&gt;Node11</title>
<path fill="none" stroke="#404040" d="M390.71,-940.43C390.71,-877.32 390.71,-752.03 390.71,-681.78"/>
<polygon fill="none" stroke="#404040" points="390.71,-681.74 386.71,-675.74 390.71,-669.74 394.71,-675.74 390.71,-681.74"/>
<text text-anchor="middle" x="419.71" y="-769.5" font-family="Helvetica,sans-Serif" font-size="10.00"> +elements</text>
</g>
<!-- Node13 -->
<g id="node13" class="node">
<title>Node13</title>
<g id="a_node13"><a xlink:title=" ">
<polygon fill="white" stroke="#bfbfbf" points="477.21,-951.5 477.21,-1008.5 558.21,-1008.5 558.21,-951.5 477.21,-951.5"/>
<text text-anchor="middle" x="517.71" y="-996.5" font-family="Helvetica,sans-Serif" font-size="10.00">std::list&lt; T &gt;</text>
<polyline fill="none" stroke="#bfbfbf" points="477.21,-989.5 558.21,-989.5 "/>
<text text-anchor="middle" x="517.71" y="-977.5" font-family="Helvetica,sans-Serif" font-size="10.00"> </text>
<polyline fill="none" stroke="#bfbfbf" points="477.21,-970.5 558.21,-970.5 "/>
<text text-anchor="middle" x="517.71" y="-958.5" font-family="Helvetica,sans-Serif" font-size="10.00"> </text>
</a>
</g>
</g>
<!-- Node13&#45;&gt;Node11 -->
<g id="edge12" class="edge">
<title>Node13&#45;&gt;Node11</title>
<path fill="none" stroke="orange" d="M507.33,-941.39C490.21,-879.6 457.18,-761.55 449.71,-743 439.58,-717.82 425.49,-690.87 413.62,-669.72"/>
<polygon fill="orange" stroke="orange" points="504,-942.46 510.04,-951.16 510.74,-940.59 504,-942.46"/>
<text text-anchor="start" x="467.71" y="-775" font-family="Helvetica,sans-Serif" font-size="10.00"> &lt; std::reference_wrapper</text>
<text text-anchor="middle" x="543.71" y="-764" font-family="Helvetica,sans-Serif" font-size="10.00">&lt; RayTracer::Filters::IFilter &gt; &gt;</text>
</g>
<!-- Node14 -->
<g id="node14" class="node">
<title>Node14</title>
<g id="a_node14"><a xlink:title=" ">
<polygon fill="white" stroke="#bfbfbf" points="825.21,-1210.5 825.21,-1267.5 854.21,-1267.5 854.21,-1210.5 825.21,-1210.5"/>
<text text-anchor="middle" x="839.71" y="-1255.5" font-family="Helvetica,sans-Serif" font-size="10.00">T</text>
<polyline fill="none" stroke="#bfbfbf" points="825.21,-1248.5 854.21,-1248.5 "/>
<text text-anchor="middle" x="839.71" y="-1236.5" font-family="Helvetica,sans-Serif" font-size="10.00"> </text>
<polyline fill="none" stroke="#bfbfbf" points="825.21,-1229.5 854.21,-1229.5 "/>
<text text-anchor="middle" x="839.71" y="-1217.5" font-family="Helvetica,sans-Serif" font-size="10.00"> </text>
</a>
</g>
</g>
<!-- Node14&#45;&gt;Node13 -->
<g id="edge13" class="edge">
<title>Node14&#45;&gt;Node13</title>
<path fill="none" stroke="#404040" d="M824.92,-1236.79C780.9,-1232.42 649.32,-1213.61 576.71,-1141 544.13,-1108.41 529.36,-1056.31 522.78,-1020.46"/>
<polygon fill="none" stroke="#404040" points="522.76,-1020.35 517.83,-1015.1 520.78,-1008.52 525.72,-1013.78 522.76,-1020.35"/>
<text text-anchor="middle" x="679.71" y="-1173" font-family="Helvetica,sans-Serif" font-size="10.00"> +elements</text>
</g>
<!-- Node19 -->
<g id="node19" class="node">
<title>Node19</title>
<g id="a_node19"><a xlink:title=" ">
<polygon fill="white" stroke="#bfbfbf" points="926.21,-743.5 926.21,-800.5 1023.21,-800.5 1023.21,-743.5 926.21,-743.5"/>
<text text-anchor="middle" x="974.71" y="-788.5" font-family="Helvetica,sans-Serif" font-size="10.00">std::vector&lt; T &gt;</text>
<polyline fill="none" stroke="#bfbfbf" points="926.21,-781.5 1023.21,-781.5 "/>
<text text-anchor="middle" x="974.71" y="-769.5" font-family="Helvetica,sans-Serif" font-size="10.00"> </text>
<polyline fill="none" stroke="#bfbfbf" points="926.21,-762.5 1023.21,-762.5 "/>
<text text-anchor="middle" x="974.71" y="-750.5" font-family="Helvetica,sans-Serif" font-size="10.00"> </text>
</a>
</g>
</g>
<!-- Node14&#45;&gt;Node19 -->
<g id="edge21" class="edge">
<title>Node14&#45;&gt;Node19</title>
<path fill="none" stroke="#404040" d="M847.75,-1210.3C870.71,-1131.23 936.61,-904.25 963.29,-812.34"/>
<polygon fill="none" stroke="#404040" points="963.37,-812.07 961.2,-805.2 966.71,-800.55 968.88,-807.43 963.37,-812.07"/>
<text text-anchor="middle" x="890.71" y="-1173" font-family="Helvetica,sans-Serif" font-size="10.00"> +elements</text>
</g>
<!-- Node15 -->
<g id="node15" class="node">
<title>Node15</title>
<g id="a_node15"><a xlink:href="$a01199.html" xlink:title="The Vector2i class.">
<polygon fill="white" stroke="black" points="612.21,-535.5 612.21,-724.5 729.21,-724.5 729.21,-535.5 612.21,-535.5"/>
<text text-anchor="start" x="620.21" y="-712.5" font-family="Helvetica,sans-Serif" font-size="10.00">RayTracer::Entities</text>
<text text-anchor="middle" x="670.71" y="-701.5" font-family="Helvetica,sans-Serif" font-size="10.00">::Transform::Vector2i</text>
<polyline fill="none" stroke="black" points="612.21,-694.5 729.21,-694.5 "/>
<text text-anchor="middle" x="670.71" y="-682.5" font-family="Helvetica,sans-Serif" font-size="10.00"> </text>
<polyline fill="none" stroke="black" points="612.21,-675.5 729.21,-675.5 "/>
<text text-anchor="start" x="620.21" y="-663.5" font-family="Helvetica,sans-Serif" font-size="10.00">+ ~Vector2i()</text>
<text text-anchor="start" x="620.21" y="-652.5" font-family="Helvetica,sans-Serif" font-size="10.00">+ Vector2i()</text>
<text text-anchor="start" x="620.21" y="-641.5" font-family="Helvetica,sans-Serif" font-size="10.00">+ Vector2i()</text>
<text text-anchor="start" x="620.21" y="-630.5" font-family="Helvetica,sans-Serif" font-size="10.00">+ Vector2i()</text>
<text text-anchor="start" x="620.21" y="-619.5" font-family="Helvetica,sans-Serif" font-size="10.00">+ Vector2i()</text>
<text text-anchor="start" x="620.21" y="-608.5" font-family="Helvetica,sans-Serif" font-size="10.00">+ operator+()</text>
<text text-anchor="start" x="620.21" y="-597.5" font-family="Helvetica,sans-Serif" font-size="10.00">+ operator&#45;()</text>
<text text-anchor="start" x="620.21" y="-586.5" font-family="Helvetica,sans-Serif" font-size="10.00">+ operator*()</text>
<text text-anchor="start" x="620.21" y="-575.5" font-family="Helvetica,sans-Serif" font-size="10.00">+ operator/()</text>
<text text-anchor="start" x="620.21" y="-564.5" font-family="Helvetica,sans-Serif" font-size="10.00">+ operator=()</text>
<text text-anchor="start" x="620.21" y="-553.5" font-family="Helvetica,sans-Serif" font-size="10.00">+ getX()</text>
<text text-anchor="start" x="620.21" y="-542.5" font-family="Helvetica,sans-Serif" font-size="10.00">+ getY()</text>
</a>
</g>
</g>
<!-- Node15&#45;&gt;Node4 -->
<g id="edge15" class="edge">
<title>Node15&#45;&gt;Node4</title>
<path fill="none" stroke="#404040" d="M670.71,-535.34C670.71,-516.78 670.71,-497.11 670.71,-478.02"/>
<polygon fill="none" stroke="#404040" points="670.71,-477.9 666.71,-471.9 670.71,-465.9 674.71,-471.9 670.71,-477.9"/>
<text text-anchor="middle" x="703.21" y="-498" font-family="Helvetica,sans-Serif" font-size="10.00"> &#45;_screenSize</text>
</g>
<!-- Node16 -->
<g id="node16" class="node">
<title>Node16</title>
<g id="a_node16"><a xlink:title=" ">
<polygon fill="white" stroke="#bfbfbf" points="731.21,-951.5 731.21,-1008.5 760.21,-1008.5 760.21,-951.5 731.21,-951.5"/>
<text text-anchor="middle" x="745.71" y="-996.5" font-family="Helvetica,sans-Serif" font-size="10.00">int</text>
<polyline fill="none" stroke="#bfbfbf" points="731.21,-989.5 760.21,-989.5 "/>
<text text-anchor="middle" x="745.71" y="-977.5" font-family="Helvetica,sans-Serif" font-size="10.00"> </text>
<polyline fill="none" stroke="#bfbfbf" points="731.21,-970.5 760.21,-970.5 "/>
<text text-anchor="middle" x="745.71" y="-958.5" font-family="Helvetica,sans-Serif" font-size="10.00"> </text>
</a>
</g>
</g>
<!-- Node16&#45;&gt;Node4 -->
<g id="edge17" class="edge">
<title>Node16&#45;&gt;Node4</title>
<path fill="none" stroke="#404040" d="M750.22,-951.48C761.65,-875.36 787.66,-656.21 739.71,-484 739.07,-481.69 738.37,-479.38 737.62,-477.08"/>
<polygon fill="none" stroke="#404040" points="737.54,-476.87 731.74,-472.59 733.46,-465.58 739.26,-469.86 737.54,-476.87"/>
<text text-anchor="middle" x="800.71" y="-627.5" font-family="Helvetica,sans-Serif" font-size="10.00"> &#45;_maxThread</text>
</g>
<!-- Node16&#45;&gt;Node15 -->
<g id="edge16" class="edge">
<title>Node16&#45;&gt;Node15</title>
<path fill="none" stroke="#404040" d="M739.77,-951.4C729.87,-905.47 709.51,-811.03 693.45,-736.52"/>
<polygon fill="none" stroke="#404040" points="693.44,-736.47 688.27,-731.45 690.92,-724.74 696.09,-729.76 693.44,-736.47"/>
<text text-anchor="middle" x="715.21" y="-775" font-family="Helvetica,sans-Serif" font-size="10.00"> &#45;_x</text>
<text text-anchor="middle" x="715.21" y="-764" font-family="Helvetica,sans-Serif" font-size="10.00">&#45;_y</text>
</g>
<!-- Node17 -->
<g id="node17" class="node">
<title>Node17</title>
<g id="a_node17"><a xlink:href="$a01239.html" xlink:title="Logger singleton.">
<polygon fill="white" stroke="black" points="852.21,-568.5 852.21,-691.5 959.21,-691.5 959.21,-568.5 852.21,-568.5"/>
<text text-anchor="middle" x="905.71" y="-679.5" font-family="Helvetica,sans-Serif" font-size="10.00">RayTracer::ILogger</text>
<polyline fill="none" stroke="black" points="852.21,-672.5 959.21,-672.5 "/>
<text text-anchor="middle" x="905.71" y="-660.5" font-family="Helvetica,sans-Serif" font-size="10.00"> </text>
<polyline fill="none" stroke="black" points="852.21,-653.5 959.21,-653.5 "/>
<text text-anchor="start" x="860.21" y="-641.5" font-family="Helvetica,sans-Serif" font-size="10.00">+ ~ILogger()</text>
<text text-anchor="start" x="860.21" y="-630.5" font-family="Helvetica,sans-Serif" font-size="10.00">+ fatal()</text>
<text text-anchor="start" x="860.21" y="-619.5" font-family="Helvetica,sans-Serif" font-size="10.00">+ error()</text>
<text text-anchor="start" x="860.21" y="-608.5" font-family="Helvetica,sans-Serif" font-size="10.00">+ warn()</text>
<text text-anchor="start" x="860.21" y="-597.5" font-family="Helvetica,sans-Serif" font-size="10.00">+ info()</text>
<text text-anchor="start" x="860.21" y="-586.5" font-family="Helvetica,sans-Serif" font-size="10.00">+ debug()</text>
<text text-anchor="start" x="860.21" y="-575.5" font-family="Helvetica,sans-Serif" font-size="10.00">+ trace()</text>
</a>
</g>
</g>
<!-- Node17&#45;&gt;Node4 -->
<g id="edge18" class="edge">
<title>Node17&#45;&gt;Node4</title>
<path fill="none" stroke="#404040" d="M863.89,-568.27C855.53,-556.97 846.57,-545.44 837.71,-535 811.75,-504.39 781.35,-472.67 753.66,-445.12"/>
<polygon fill="none" stroke="#404040" points="753.3,-444.77 746.22,-443.39 744.77,-436.33 751.85,-437.7 753.3,-444.77"/>
<text text-anchor="middle" x="842.21" y="-498" font-family="Helvetica,sans-Serif" font-size="10.00"> &#45;_logger</text>
</g>
<!-- Node18 -->
<g id="node18" class="node">
<title>Node18</title>
<g id="a_node18"><a xlink:title=" ">
<polygon fill="white" stroke="#bfbfbf" points="977.71,-596 977.71,-664 1093.71,-664 1093.71,-596 977.71,-596"/>
<text text-anchor="start" x="985.71" y="-652" font-family="Helvetica,sans-Serif" font-size="10.00">optional&lt; RayTracer</text>
<text text-anchor="middle" x="1035.71" y="-641" font-family="Helvetica,sans-Serif" font-size="10.00">::Images::Image &gt;</text>
<polyline fill="none" stroke="#bfbfbf" points="977.71,-634 1093.71,-634 "/>
<text text-anchor="middle" x="1035.71" y="-622" font-family="Helvetica,sans-Serif" font-size="10.00"> </text>
<polyline fill="none" stroke="#bfbfbf" points="977.71,-615 1093.71,-615 "/>
<text text-anchor="middle" x="1035.71" y="-603" font-family="Helvetica,sans-Serif" font-size="10.00"> </text>
</a>
</g>
</g>
<!-- Node18&#45;&gt;Node4 -->
<g id="edge19" class="edge">
<title>Node18&#45;&gt;Node4</title>
<path fill="none" stroke="#404040" d="M1017.07,-595.77C1005.05,-576.4 988.07,-552.43 968.71,-535 905.28,-477.88 819.22,-431.81 755.89,-402.38"/>
<polygon fill="none" stroke="#404040" points="755.65,-402.27 748.53,-403.4 744.74,-397.26 751.87,-396.13 755.65,-402.27"/>
<text text-anchor="middle" x="961.21" y="-498" font-family="Helvetica,sans-Serif" font-size="10.00"> &#45;_image</text>
</g>
<!-- Node19&#45;&gt;Node3 -->
<g id="edge20" class="edge">
<title>Node19&#45;&gt;Node3</title>
<path fill="none" stroke="orange" d="M1033.49,-764.89C1059.15,-758.97 1086.94,-747.42 1102.71,-725 1216.13,-563.73 1078.06,-313.3 1016.98,-217.8"/>
<polygon fill="orange" stroke="orange" points="1032.5,-761.52 1023.41,-766.97 1033.91,-768.38 1032.5,-761.52"/>
<text text-anchor="start" x="1139.71" y="-509" font-family="Helvetica,sans-Serif" font-size="10.00"> &lt; RayTracer::PluginsExt</text>
<text text-anchor="start" x="1139.71" y="-498" font-family="Helvetica,sans-Serif" font-size="10.00">::Camera::FullCustom::</text>
<text text-anchor="middle" x="1201.71" y="-487" font-family="Helvetica,sans-Serif" font-size="10.00">CameraCustomEntity * &gt;</text>
</g>
</g>
</svg>
