<?xml version="1.0" encoding="UTF-8" standalone="no"?>
<!DOCTYPE svg PUBLIC "-//W3C//DTD SVG 1.1//EN"
 "http://www.w3.org/Graphics/SVG/1.1/DTD/svg11.dtd">
<!-- Generated by graphviz version 2.43.0 (0)
 -->
<!-- Title: RayTracer::PluginsExt::Camera::FullCustom::CameraCustomCreator Pages: 1 -->
<svg width="1273pt" height="1287pt"
 viewBox="0.00 0.00 1273.19 1287.00" xmlns="http://www.w3.org/2000/svg" xmlns:xlink="http://www.w3.org/1999/xlink">
<g id="graph0" class="graph" transform="scale(1 1) rotate(0) translate(4 1283)">
<title>RayTracer::PluginsExt::Camera::FullCustom::CameraCustomCreator</title>
<polygon fill="white" stroke="transparent" points="-4,4 -4,-1283 1269.19,-1283 1269.19,4 -4,4"/>
<!-- Node1 -->
<g id="node1" class="node">
<title>Node1</title>
<g id="a_node1"><a xlink:title=" ">
<polygon fill="#bfbfbf" stroke="black" points="745.69,-0.5 745.69,-90.5 900.69,-90.5 900.69,-0.5 745.69,-0.5"/>
<text text-anchor="start" x="753.69" y="-78.5" font-family="Helvetica,sans-Serif" font-size="10.00">RayTracer::PluginsExt</text>
<text text-anchor="start" x="753.69" y="-67.5" font-family="Helvetica,sans-Serif" font-size="10.00">::Camera::FullCustom</text>
<text text-anchor="middle" x="823.19" y="-56.5" font-family="Helvetica,sans-Serif" font-size="10.00">::CameraCustomCreator</text>
<polyline fill="none" stroke="black" points="745.69,-49.5 900.69,-49.5 "/>
<text text-anchor="middle" x="823.19" y="-37.5" font-family="Helvetica,sans-Serif" font-size="10.00"> </text>
<polyline fill="none" stroke="black" points="745.69,-30.5 900.69,-30.5 "/>
<text text-anchor="start" x="753.69" y="-18.5" font-family="Helvetica,sans-Serif" font-size="10.00">+ ~CameraCustomCreator()</text>
<text text-anchor="start" x="753.69" y="-7.5" font-family="Helvetica,sans-Serif" font-size="10.00">+ create()</text>
</a>
</g>
</g>
<!-- Node2 -->
<g id="node2" class="node">
<title>Node2</title>
<g id="a_node2"><a xlink:href="$a01336.html" xlink:title="The IEntityCreator.">
<polygon fill="white" stroke="black" points="740.69,-138.5 740.69,-217.5 873.69,-217.5 873.69,-138.5 740.69,-138.5"/>
<text text-anchor="start" x="748.69" y="-205.5" font-family="Helvetica,sans-Serif" font-size="10.00">RayTracer::Plugins</text>
<text text-anchor="middle" x="807.19" y="-194.5" font-family="Helvetica,sans-Serif" font-size="10.00">::Entities::IEntityCreator</text>
<polyline fill="none" stroke="black" points="740.69,-187.5 873.69,-187.5 "/>
<text text-anchor="middle" x="807.19" y="-175.5" font-family="Helvetica,sans-Serif" font-size="10.00"> </text>
<polyline fill="none" stroke="black" points="740.69,-168.5 873.69,-168.5 "/>
<text text-anchor="start" x="748.69" y="-156.5" font-family="Helvetica,sans-Serif" font-size="10.00">+ ~IEntityCreator()</text>
<text text-anchor="start" x="748.69" y="-145.5" font-family="Helvetica,sans-Serif" font-size="10.00">+ create()</text>
</a>
</g>
</g>
<!-- Node2&#45;&gt;Node1 -->
<g id="edge1" class="edge">
<title>Node2&#45;&gt;Node1</title>
<path fill="none" stroke="midnightblue" d="M813.18,-128.16C814.67,-115.93 816.28,-102.88 817.75,-90.88"/>
<polygon fill="none" stroke="midnightblue" points="809.69,-127.85 811.94,-138.2 816.64,-128.7 809.69,-127.85"/>
</g>
<!-- Node3 -->
<g id="node3" class="node">
<title>Node3</title>
<g id="a_node3"><a xlink:title=" ">
<polygon fill="white" stroke="#bfbfbf" points="891.69,-138.5 891.69,-217.5 1092.69,-217.5 1092.69,-138.5 891.69,-138.5"/>
<text text-anchor="start" x="899.69" y="-205.5" font-family="Helvetica,sans-Serif" font-size="10.00">std::vector&lt; RayTracer</text>
<text text-anchor="start" x="899.69" y="-194.5" font-family="Helvetica,sans-Serif" font-size="10.00">::PluginsExt::Camera::</text>
<text text-anchor="middle" x="992.19" y="-183.5" font-family="Helvetica,sans-Serif" font-size="10.00">FullCustom::CameraCustomEntity * &gt;</text>
<polyline fill="none" stroke="#bfbfbf" points="891.69,-176.5 1092.69,-176.5 "/>
<text text-anchor="middle" x="992.19" y="-164.5" font-family="Helvetica,sans-Serif" font-size="10.00"> </text>
<polyline fill="none" stroke="#bfbfbf" points="891.69,-157.5 1092.69,-157.5 "/>
<text text-anchor="middle" x="992.19" y="-145.5" font-family="Helvetica,sans-Serif" font-size="10.00"> </text>
</a>
</g>
</g>
<!-- Node3&#45;&gt;Node1 -->
<g id="edge2" class="edge">
<title>Node3&#45;&gt;Node1</title>
<path fill="none" stroke="#404040" d="M941.94,-138.2C925.6,-125.58 907.21,-111.38 889.87,-97.99"/>
<polygon fill="none" stroke="#404040" points="889.86,-97.98 882.66,-97.48 880.36,-90.65 887.55,-91.15 889.86,-97.98"/>
<text text-anchor="middle" x="946.19" y="-112" font-family="Helvetica,sans-Serif" font-size="10.00"> &#45;_elements</text>
</g>
<!-- Node4 -->
<g id="node4" class="node">
<title>Node4</title>
<g id="a_node4"><a xlink:href="$a01496.html" xlink:title=" ">
<polygon fill="white" stroke="black" points="598.19,-265.5 598.19,-465.5 746.19,-465.5 746.19,-265.5 598.19,-265.5"/>
<text text-anchor="start" x="606.19" y="-453.5" font-family="Helvetica,sans-Serif" font-size="10.00">RayTracer::PluginsExt</text>
<text text-anchor="start" x="606.19" y="-442.5" font-family="Helvetica,sans-Serif" font-size="10.00">::Camera::FullCustom</text>
<text text-anchor="middle" x="672.19" y="-431.5" font-family="Helvetica,sans-Serif" font-size="10.00">::CameraCustomEntity</text>
<polyline fill="none" stroke="black" points="598.19,-424.5 746.19,-424.5 "/>
<text text-anchor="middle" x="672.19" y="-412.5" font-family="Helvetica,sans-Serif" font-size="10.00"> </text>
<polyline fill="none" stroke="black" points="598.19,-405.5 746.19,-405.5 "/>
<text text-anchor="start" x="606.19" y="-393.5" font-family="Helvetica,sans-Serif" font-size="10.00">+ CameraCustomEntity()</text>
<text text-anchor="start" x="606.19" y="-382.5" font-family="Helvetica,sans-Serif" font-size="10.00">+ ~CameraCustomEntity()</text>
<text text-anchor="start" x="606.19" y="-371.5" font-family="Helvetica,sans-Serif" font-size="10.00">+ getType()</text>
<text text-anchor="start" x="606.19" y="-360.5" font-family="Helvetica,sans-Serif" font-size="10.00">+ getTransform()</text>
<text text-anchor="start" x="606.19" y="-349.5" font-family="Helvetica,sans-Serif" font-size="10.00">+ getTransform()</text>
<text text-anchor="start" x="606.19" y="-338.5" font-family="Helvetica,sans-Serif" font-size="10.00">+ getFocal()</text>
<text text-anchor="start" x="606.19" y="-327.5" font-family="Helvetica,sans-Serif" font-size="10.00">+ setFocal()</text>
<text text-anchor="start" x="606.19" y="-316.5" font-family="Helvetica,sans-Serif" font-size="10.00">+ setSize()</text>
<text text-anchor="start" x="606.19" y="-305.5" font-family="Helvetica,sans-Serif" font-size="10.00">+ getSize()</text>
<text text-anchor="start" x="606.19" y="-294.5" font-family="Helvetica,sans-Serif" font-size="10.00">+ render()</text>
<text text-anchor="start" x="606.19" y="-283.5" font-family="Helvetica,sans-Serif" font-size="10.00">+ getImage()</text>
<text text-anchor="start" x="606.19" y="-272.5" font-family="Helvetica,sans-Serif" font-size="10.00">+ getFilters()</text>
</a>
</g>
</g>
<!-- Node4&#45;&gt;Node3 -->
<g id="edge3" class="edge">
<title>Node4&#45;&gt;Node3</title>
<path fill="none" stroke="#404040" d="M746.41,-321.48C797,-292.15 863.83,-253.41 915.04,-223.72"/>
<polygon fill="none" stroke="#404040" points="915.33,-223.55 918.52,-217.08 925.71,-217.53 922.53,-224 915.33,-223.55"/>
<text text-anchor="middle" x="917.19" y="-239" font-family="Helvetica,sans-Serif" font-size="10.00"> +elements</text>
</g>
<!-- Node5 -->
<g id="node5" class="node">
<title>Node5</title>
<g id="a_node5"><a xlink:href="$a01192.html" xlink:title="The ICamera class.">
<polygon fill="white" stroke="black" points="488.69,-557.5 488.69,-702.5 595.69,-702.5 595.69,-557.5 488.69,-557.5"/>
<text text-anchor="start" x="496.69" y="-690.5" font-family="Helvetica,sans-Serif" font-size="10.00">RayTracer::Entities</text>
<text text-anchor="middle" x="542.19" y="-679.5" font-family="Helvetica,sans-Serif" font-size="10.00">::ICamera</text>
<polyline fill="none" stroke="black" points="488.69,-672.5 595.69,-672.5 "/>
<text text-anchor="middle" x="542.19" y="-660.5" font-family="Helvetica,sans-Serif" font-size="10.00"> </text>
<polyline fill="none" stroke="black" points="488.69,-653.5 595.69,-653.5 "/>
<text text-anchor="start" x="496.69" y="-641.5" font-family="Helvetica,sans-Serif" font-size="10.00">+ ~ICamera()</text>
<text text-anchor="start" x="496.69" y="-630.5" font-family="Helvetica,sans-Serif" font-size="10.00">+ getFocal()</text>
<text text-anchor="start" x="496.69" y="-619.5" font-family="Helvetica,sans-Serif" font-size="10.00">+ setFocal()</text>
<text text-anchor="start" x="496.69" y="-608.5" font-family="Helvetica,sans-Serif" font-size="10.00">+ setSize()</text>
<text text-anchor="start" x="496.69" y="-597.5" font-family="Helvetica,sans-Serif" font-size="10.00">+ getSize()</text>
<text text-anchor="start" x="496.69" y="-586.5" font-family="Helvetica,sans-Serif" font-size="10.00">+ render()</text>
<text text-anchor="start" x="496.69" y="-575.5" font-family="Helvetica,sans-Serif" font-size="10.00">+ getImage()</text>
<text text-anchor="start" x="496.69" y="-564.5" font-family="Helvetica,sans-Serif" font-size="10.00">+ getFilters()</text>
</a>
</g>
</g>
<!-- Node5&#45;&gt;Node4 -->
<g id="edge4" class="edge">
<title>Node5&#45;&gt;Node4</title>
<path fill="none" stroke="midnightblue" d="M582.21,-548.19C595.12,-522.12 609.58,-492.93 623.06,-465.69"/>
<polygon fill="none" stroke="midnightblue" points="579.01,-546.76 577.71,-557.27 585.28,-549.86 579.01,-546.76"/>
</g>
<!-- Node6 -->
<g id="node6" class="node">
<title>Node6</title>
<g id="a_node6"><a xlink:href="$a01196.html" xlink:title="The IEntity class.">
<polygon fill="white" stroke="black" points="586.69,-935 586.69,-1036 693.69,-1036 693.69,-935 586.69,-935"/>
<text text-anchor="start" x="594.69" y="-1024" font-family="Helvetica,sans-Serif" font-size="10.00">RayTracer::Entities</text>
<text text-anchor="middle" x="640.19" y="-1013" font-family="Helvetica,sans-Serif" font-size="10.00">::IEntity</text>
<polyline fill="none" stroke="black" points="586.69,-1006 693.69,-1006 "/>
<text text-anchor="middle" x="640.19" y="-994" font-family="Helvetica,sans-Serif" font-size="10.00"> </text>
<polyline fill="none" stroke="black" points="586.69,-987 693.69,-987 "/>
<text text-anchor="start" x="594.69" y="-975" font-family="Helvetica,sans-Serif" font-size="10.00">+ ~IEntity()</text>
<text text-anchor="start" x="594.69" y="-964" font-family="Helvetica,sans-Serif" font-size="10.00">+ getTransform()</text>
<text text-anchor="start" x="594.69" y="-953" font-family="Helvetica,sans-Serif" font-size="10.00">+ getTransform()</text>
<text text-anchor="start" x="594.69" y="-942" font-family="Helvetica,sans-Serif" font-size="10.00">+ getType()</text>
</a>
</g>
</g>
<!-- Node6&#45;&gt;Node5 -->
<g id="edge5" class="edge">
<title>Node6&#45;&gt;Node5</title>
<path fill="none" stroke="midnightblue" d="M649.58,-924.55C654.69,-873.46 655.01,-799.53 626.19,-743 620.45,-731.74 612.65,-734.38 604.19,-725 597.9,-718.03 591.79,-710.37 586.02,-702.53"/>
<polygon fill="none" stroke="midnightblue" points="646.07,-924.45 648.47,-934.77 653.03,-925.21 646.07,-924.45"/>
</g>
<!-- Node7 -->
<g id="node7" class="node">
<title>Node7</title>
<g id="a_node7"><a xlink:href="$a01216.html" xlink:title="The Transform class.">
<polygon fill="white" stroke="black" points="169.19,-557.5 169.19,-702.5 295.19,-702.5 295.19,-557.5 169.19,-557.5"/>
<text text-anchor="start" x="177.19" y="-690.5" font-family="Helvetica,sans-Serif" font-size="10.00">RayTracer::Entities</text>
<text text-anchor="middle" x="232.19" y="-679.5" font-family="Helvetica,sans-Serif" font-size="10.00">::Transform::Transform</text>
<polyline fill="none" stroke="black" points="169.19,-672.5 295.19,-672.5 "/>
<text text-anchor="middle" x="232.19" y="-660.5" font-family="Helvetica,sans-Serif" font-size="10.00"> </text>
<polyline fill="none" stroke="black" points="169.19,-653.5 295.19,-653.5 "/>
<text text-anchor="start" x="177.19" y="-641.5" font-family="Helvetica,sans-Serif" font-size="10.00">+ Transform()</text>
<text text-anchor="start" x="177.19" y="-630.5" font-family="Helvetica,sans-Serif" font-size="10.00">+ setPosition()</text>
<text text-anchor="start" x="177.19" y="-619.5" font-family="Helvetica,sans-Serif" font-size="10.00">+ getPosition()</text>
<text text-anchor="start" x="177.19" y="-608.5" font-family="Helvetica,sans-Serif" font-size="10.00">+ setRotation()</text>
<text text-anchor="start" x="177.19" y="-597.5" font-family="Helvetica,sans-Serif" font-size="10.00">+ getRotation()</text>
<text text-anchor="start" x="177.19" y="-586.5" font-family="Helvetica,sans-Serif" font-size="10.00">+ setScale()</text>
<text text-anchor="start" x="177.19" y="-575.5" font-family="Helvetica,sans-Serif" font-size="10.00">+ getScale()</text>
<text text-anchor="start" x="177.19" y="-564.5" font-family="Helvetica,sans-Serif" font-size="10.00">+ operator=()</text>
</a>
</g>
</g>
<!-- Node7&#45;&gt;Node4 -->
<g id="edge6" class="edge">
<title>Node7&#45;&gt;Node4</title>
<path fill="none" stroke="#404040" d="M281.63,-557.07C288.69,-549.12 296.26,-541.55 304.19,-535 388.74,-465.16 506.98,-417.85 586.4,-391.55"/>
<polygon fill="none" stroke="#404040" points="586.42,-391.55 590.88,-385.88 597.83,-387.83 593.36,-393.49 586.42,-391.55"/>
<text text-anchor="middle" x="422.19" y="-498" font-family="Helvetica,sans-Serif" font-size="10.00"> &#45;_positionCamera</text>
</g>
<!-- Node8 -->
<g id="node8" class="node">
<title>Node8</title>
<g id="a_node8"><a xlink:href="$a01212.html" xlink:title="The ITransform class.">
<polygon fill="white" stroke="black" points="50.69,-913 50.69,-1058 179.69,-1058 179.69,-913 50.69,-913"/>
<text text-anchor="start" x="58.69" y="-1046" font-family="Helvetica,sans-Serif" font-size="10.00">RayTracer::Entities</text>
<text text-anchor="middle" x="115.19" y="-1035" font-family="Helvetica,sans-Serif" font-size="10.00">::Transform::ITransform</text>
<polyline fill="none" stroke="black" points="50.69,-1028 179.69,-1028 "/>
<text text-anchor="middle" x="115.19" y="-1016" font-family="Helvetica,sans-Serif" font-size="10.00"> </text>
<polyline fill="none" stroke="black" points="50.69,-1009 179.69,-1009 "/>
<text text-anchor="start" x="58.69" y="-997" font-family="Helvetica,sans-Serif" font-size="10.00">+ ~ITransform()</text>
<text text-anchor="start" x="58.69" y="-986" font-family="Helvetica,sans-Serif" font-size="10.00">+ setPosition()</text>
<text text-anchor="start" x="58.69" y="-975" font-family="Helvetica,sans-Serif" font-size="10.00">+ getPosition()</text>
<text text-anchor="start" x="58.69" y="-964" font-family="Helvetica,sans-Serif" font-size="10.00">+ setRotation()</text>
<text text-anchor="start" x="58.69" y="-953" font-family="Helvetica,sans-Serif" font-size="10.00">+ getRotation()</text>
<text text-anchor="start" x="58.69" y="-942" font-family="Helvetica,sans-Serif" font-size="10.00">+ setScale()</text>
<text text-anchor="start" x="58.69" y="-931" font-family="Helvetica,sans-Serif" font-size="10.00">+ getScale()</text>
<text text-anchor="start" x="58.69" y="-920" font-family="Helvetica,sans-Serif" font-size="10.00">+ operator=()</text>
</a>
</g>
</g>
<!-- Node8&#45;&gt;Node7 -->
<g id="edge7" class="edge">
<title>Node8&#45;&gt;Node7</title>
<path fill="none" stroke="midnightblue" d="M142.02,-903.44C162.06,-842.89 189.19,-760.91 208.45,-702.73"/>
<polygon fill="none" stroke="midnightblue" points="138.68,-902.37 138.86,-912.96 145.33,-904.57 138.68,-902.37"/>
</g>
<!-- Node9 -->
<g id="node9" class="node">
<title>Node9</title>
<g id="a_node9"><a xlink:href="$a01224.html" xlink:title="The Vector3f class.">
<polygon fill="white" stroke="black" points="198.19,-819.5 198.19,-1151.5 316.19,-1151.5 316.19,-819.5 198.19,-819.5"/>
<text text-anchor="start" x="206.19" y="-1139.5" font-family="Helvetica,sans-Serif" font-size="10.00">RayTracer::Entities</text>
<text text-anchor="middle" x="257.19" y="-1128.5" font-family="Helvetica,sans-Serif" font-size="10.00">::Transform::Vector3f</text>
<polyline fill="none" stroke="black" points="198.19,-1121.5 316.19,-1121.5 "/>
<text text-anchor="middle" x="257.19" y="-1109.5" font-family="Helvetica,sans-Serif" font-size="10.00"> </text>
<polyline fill="none" stroke="black" points="198.19,-1102.5 316.19,-1102.5 "/>
<text text-anchor="start" x="206.19" y="-1090.5" font-family="Helvetica,sans-Serif" font-size="10.00">+ ~Vector3f()</text>
<text text-anchor="start" x="206.19" y="-1079.5" font-family="Helvetica,sans-Serif" font-size="10.00">+ Vector3f()</text>
<text text-anchor="start" x="206.19" y="-1068.5" font-family="Helvetica,sans-Serif" font-size="10.00">+ Vector3f()</text>
<text text-anchor="start" x="206.19" y="-1057.5" font-family="Helvetica,sans-Serif" font-size="10.00">+ Vector3f()</text>
<text text-anchor="start" x="206.19" y="-1046.5" font-family="Helvetica,sans-Serif" font-size="10.00">+ Vector3f()</text>
<text text-anchor="start" x="206.19" y="-1035.5" font-family="Helvetica,sans-Serif" font-size="10.00">+ operator+()</text>
<text text-anchor="start" x="206.19" y="-1024.5" font-family="Helvetica,sans-Serif" font-size="10.00">+ operator&#45;()</text>
<text text-anchor="start" x="206.19" y="-1013.5" font-family="Helvetica,sans-Serif" font-size="10.00">+ operator*()</text>
<text text-anchor="start" x="206.19" y="-1002.5" font-family="Helvetica,sans-Serif" font-size="10.00">+ operator/()</text>
<text text-anchor="start" x="206.19" y="-991.5" font-family="Helvetica,sans-Serif" font-size="10.00">+ operator=()</text>
<text text-anchor="start" x="206.19" y="-980.5" font-family="Helvetica,sans-Serif" font-size="10.00">+ getX()</text>
<text text-anchor="start" x="206.19" y="-969.5" font-family="Helvetica,sans-Serif" font-size="10.00">+ getY()</text>
<text text-anchor="start" x="206.19" y="-958.5" font-family="Helvetica,sans-Serif" font-size="10.00">+ getZ()</text>
<text text-anchor="start" x="206.19" y="-947.5" font-family="Helvetica,sans-Serif" font-size="10.00">+ getNorm()</text>
<text text-anchor="start" x="206.19" y="-936.5" font-family="Helvetica,sans-Serif" font-size="10.00">+ getNormalized()</text>
<text text-anchor="start" x="206.19" y="-925.5" font-family="Helvetica,sans-Serif" font-size="10.00">+ getCrossed()</text>
<text text-anchor="start" x="206.19" y="-914.5" font-family="Helvetica,sans-Serif" font-size="10.00">+ dot()</text>
<text text-anchor="start" x="206.19" y="-903.5" font-family="Helvetica,sans-Serif" font-size="10.00">+ getDistance()</text>
<text text-anchor="start" x="206.19" y="-892.5" font-family="Helvetica,sans-Serif" font-size="10.00">+ toDegrees()</text>
<text text-anchor="start" x="206.19" y="-881.5" font-family="Helvetica,sans-Serif" font-size="10.00">+ toRadians()</text>
<text text-anchor="start" x="206.19" y="-870.5" font-family="Helvetica,sans-Serif" font-size="10.00">+ rotateVector()</text>
<text text-anchor="start" x="206.19" y="-859.5" font-family="Helvetica,sans-Serif" font-size="10.00">+ getAngle()</text>
<text text-anchor="start" x="206.19" y="-848.5" font-family="Helvetica,sans-Serif" font-size="10.00">+ rotateX()</text>
<text text-anchor="start" x="206.19" y="-837.5" font-family="Helvetica,sans-Serif" font-size="10.00">+ rotateY()</text>
<text text-anchor="start" x="206.19" y="-826.5" font-family="Helvetica,sans-Serif" font-size="10.00">+ rotateZ()</text>
</a>
</g>
</g>
<!-- Node9&#45;&gt;Node7 -->
<g id="edge8" class="edge">
<title>Node9&#45;&gt;Node7</title>
<path fill="none" stroke="#404040" d="M245.51,-819.39C242.95,-783.19 240.34,-746.34 238.12,-714.94"/>
<polygon fill="none" stroke="#404040" points="238.11,-714.71 233.69,-709.01 237.26,-702.74 241.67,-708.44 238.11,-714.71"/>
<text text-anchor="middle" x="270.19" y="-780.5" font-family="Helvetica,sans-Serif" font-size="10.00"> &#45;_position</text>
<text text-anchor="middle" x="270.19" y="-769.5" font-family="Helvetica,sans-Serif" font-size="10.00">&#45;_rotation</text>
<text text-anchor="middle" x="270.19" y="-758.5" font-family="Helvetica,sans-Serif" font-size="10.00">&#45;_scale</text>
</g>
<!-- Node10 -->
<g id="node10" class="node">
<title>Node10</title>
<g id="a_node10"><a xlink:title=" ">
<polygon fill="white" stroke="#bfbfbf" points="56.19,-1221.5 56.19,-1278.5 106.19,-1278.5 106.19,-1221.5 56.19,-1221.5"/>
<text text-anchor="middle" x="81.19" y="-1266.5" font-family="Helvetica,sans-Serif" font-size="10.00">double</text>
<polyline fill="none" stroke="#bfbfbf" points="56.19,-1259.5 106.19,-1259.5 "/>
<text text-anchor="middle" x="81.19" y="-1247.5" font-family="Helvetica,sans-Serif" font-size="10.00"> </text>
<polyline fill="none" stroke="#bfbfbf" points="56.19,-1240.5 106.19,-1240.5 "/>
<text text-anchor="middle" x="81.19" y="-1228.5" font-family="Helvetica,sans-Serif" font-size="10.00"> </text>
</a>
</g>
</g>
<!-- Node10&#45;&gt;Node4 -->
<g id="edge14" class="edge">
<title>Node10&#45;&gt;Node4</title>
<path fill="none" stroke="#404040" d="M66.44,-1221.48C57.15,-1202.54 46.04,-1176.48 41.19,-1152 -13.08,-878.05 -44.92,-724.54 160.19,-535 280.09,-424.2 474.35,-386.16 585.94,-373.17"/>
<polygon fill="none" stroke="#404040" points="586.21,-373.14 591.73,-368.5 598.13,-371.81 592.61,-376.45 586.21,-373.14"/>
<text text-anchor="middle" x="31.19" y="-769.5" font-family="Helvetica,sans-Serif" font-size="10.00"> &#45;_fov</text>
</g>
<!-- Node10&#45;&gt;Node9 -->
<g id="edge9" class="edge">
<title>Node10&#45;&gt;Node9</title>
<path fill="none" stroke="#404040" d="M106.63,-1231.13C130.38,-1213.36 165.49,-1184.16 188.19,-1152 189.25,-1150.49 190.31,-1148.96 191.35,-1147.41"/>
<polygon fill="none" stroke="#404040" points="191.56,-1147.08 191.44,-1139.87 198.04,-1136.98 198.17,-1144.19 191.56,-1147.08"/>
<text text-anchor="middle" x="183.69" y="-1195" font-family="Helvetica,sans-Serif" font-size="10.00"> &#45;_x</text>
<text text-anchor="middle" x="183.69" y="-1184" font-family="Helvetica,sans-Serif" font-size="10.00">&#45;_y</text>
<text text-anchor="middle" x="183.69" y="-1173" font-family="Helvetica,sans-Serif" font-size="10.00">&#45;_z</text>
</g>
<!-- Node11 -->
<g id="node11" class="node">
<title>Node11</title>
<g id="a_node11"><a xlink:title=" ">
<polygon fill="white" stroke="#bfbfbf" points="313.69,-590.5 313.69,-669.5 470.69,-669.5 470.69,-590.5 313.69,-590.5"/>
<text text-anchor="start" x="321.69" y="-657.5" font-family="Helvetica,sans-Serif" font-size="10.00">std::list&lt; std::reference</text>
<text text-anchor="start" x="321.69" y="-646.5" font-family="Helvetica,sans-Serif" font-size="10.00">_wrapper&lt; RayTracer::Filters</text>
<text text-anchor="middle" x="392.19" y="-635.5" font-family="Helvetica,sans-Serif" font-size="10.00">::IFilter &gt; &gt;</text>
<polyline fill="none" stroke="#bfbfbf" points="313.69,-628.5 470.69,-628.5 "/>
<text text-anchor="middle" x="392.19" y="-616.5" font-family="Helvetica,sans-Serif" font-size="10.00"> </text>
<polyline fill="none" stroke="#bfbfbf" points="313.69,-609.5 470.69,-609.5 "/>
<text text-anchor="middle" x="392.19" y="-597.5" font-family="Helvetica,sans-Serif" font-size="10.00"> </text>
</a>
</g>
</g>
<!-- Node11&#45;&gt;Node4 -->
<g id="edge10" class="edge">
<title>Node11&#45;&gt;Node4</title>
<path fill="none" stroke="#404040" d="M426.43,-590.16C442.1,-572.87 461.16,-552.51 479.19,-535 514.04,-501.14 554.29,-465.5 588.99,-435.76"/>
<polygon fill="none" stroke="#404040" points="589.02,-435.73 590.99,-428.79 598.15,-427.93 596.18,-434.87 589.02,-435.73"/>
<text text-anchor="middle" x="551.19" y="-498" font-family="Helvetica,sans-Serif" font-size="10.00"> &#45;_filters</text>
</g>
<!-- Node12 -->
<g id="node12" class="node">
<title>Node12</title>
<g id="a_node12"><a xlink:title=" ">
<polygon fill="white" stroke="#bfbfbf" points="334.19,-946 334.19,-1025 450.19,-1025 450.19,-946 334.19,-946"/>
<text text-anchor="start" x="342.19" y="-1013" font-family="Helvetica,sans-Serif" font-size="10.00">reference_wrapper&lt;</text>
<text text-anchor="start" x="342.19" y="-1002" font-family="Helvetica,sans-Serif" font-size="10.00"> RayTracer::Filters</text>
<text text-anchor="middle" x="392.19" y="-991" font-family="Helvetica,sans-Serif" font-size="10.00">::IFilter &gt;</text>
<polyline fill="none" stroke="#bfbfbf" points="334.19,-984 450.19,-984 "/>
<text text-anchor="middle" x="392.19" y="-972" font-family="Helvetica,sans-Serif" font-size="10.00"> </text>
<polyline fill="none" stroke="#bfbfbf" points="334.19,-965 450.19,-965 "/>
<text text-anchor="middle" x="392.19" y="-953" font-family="Helvetica,sans-Serif" font-size="10.00"> </text>
</a>
</g>
</g>
<!-- Node12&#45;&gt;Node11 -->
<g id="edge11" class="edge">
<title>Node12&#45;&gt;Node11</title>
<path fill="none" stroke="#404040" d="M392.19,-946C392.19,-881.93 392.19,-753.45 392.19,-681.96"/>
<polygon fill="none" stroke="#404040" points="392.19,-681.72 388.19,-675.72 392.19,-669.72 396.19,-675.72 392.19,-681.72"/>
<text text-anchor="middle" x="421.19" y="-769.5" font-family="Helvetica,sans-Serif" font-size="10.00"> +elements</text>
</g>
<!-- Node13 -->
<g id="node13" class="node">
<title>Node13</title>
<g id="a_node13"><a xlink:title=" ">
<polygon fill="white" stroke="#bfbfbf" points="478.69,-957 478.69,-1014 559.69,-1014 559.69,-957 478.69,-957"/>
<text text-anchor="middle" x="519.19" y="-1002" font-family="Helvetica,sans-Serif" font-size="10.00">std::list&lt; T &gt;</text>
<polyline fill="none" stroke="#bfbfbf" points="478.69,-995 559.69,-995 "/>
<text text-anchor="middle" x="519.19" y="-983" font-family="Helvetica,sans-Serif" font-size="10.00"> </text>
<polyline fill="none" stroke="#bfbfbf" points="478.69,-976 559.69,-976 "/>
<text text-anchor="middle" x="519.19" y="-964" font-family="Helvetica,sans-Serif" font-size="10.00"> </text>
</a>
</g>
</g>
<!-- Node13&#45;&gt;Node11 -->
<g id="edge12" class="edge">
<title>Node13&#45;&gt;Node11</title>
<path fill="none" stroke="orange" d="M509.59,-946.73C494.66,-888.64 466.03,-780.21 451.19,-743 441.13,-717.79 427.04,-690.84 415.16,-669.69"/>
<polygon fill="orange" stroke="orange" points="506.25,-947.8 512.13,-956.62 513.03,-946.06 506.25,-947.8"/>
<text text-anchor="start" x="470.19" y="-775" font-family="Helvetica,sans-Serif" font-size="10.00"> &lt; std::reference_wrapper</text>
<text text-anchor="middle" x="546.19" y="-764" font-family="Helvetica,sans-Serif" font-size="10.00">&lt; RayTracer::Filters::IFilter &gt; &gt;</text>
</g>
<!-- Node14 -->
<g id="node14" class="node">
<title>Node14</title>
<g id="a_node14"><a xlink:title=" ">
<polygon fill="white" stroke="#bfbfbf" points="826.69,-1221.5 826.69,-1278.5 855.69,-1278.5 855.69,-1221.5 826.69,-1221.5"/>
<text text-anchor="middle" x="841.19" y="-1266.5" font-family="Helvetica,sans-Serif" font-size="10.00">T</text>
<polyline fill="none" stroke="#bfbfbf" points="826.69,-1259.5 855.69,-1259.5 "/>
<text text-anchor="middle" x="841.19" y="-1247.5" font-family="Helvetica,sans-Serif" font-size="10.00"> </text>
<polyline fill="none" stroke="#bfbfbf" points="826.69,-1240.5 855.69,-1240.5 "/>
<text text-anchor="middle" x="841.19" y="-1228.5" font-family="Helvetica,sans-Serif" font-size="10.00"> </text>
</a>
</g>
</g>
<!-- Node14&#45;&gt;Node13 -->
<g id="edge13" class="edge">
<title>Node14&#45;&gt;Node13</title>
<path fill="none" stroke="#404040" d="M826.67,-1247.86C782.87,-1243.65 650.57,-1225.18 578.19,-1152 544.51,-1117.95 529.95,-1063.43 523.72,-1026.34"/>
<polygon fill="none" stroke="#404040" points="523.65,-1025.88 518.8,-1020.54 521.85,-1014.01 526.71,-1019.34 523.65,-1025.88"/>
<text text-anchor="middle" x="681.19" y="-1184" font-family="Helvetica,sans-Serif" font-size="10.00"> +elements</text>
</g>
<!-- Node19 -->
<g id="node19" class="node">
<title>Node19</title>
<g id="a_node19"><a xlink:title=" ">
<polygon fill="white" stroke="#bfbfbf" points="927.69,-743.5 927.69,-800.5 1024.69,-800.5 1024.69,-743.5 927.69,-743.5"/>
<text text-anchor="middle" x="976.19" y="-788.5" font-family="Helvetica,sans-Serif" font-size="10.00">std::vector&lt; T &gt;</text>
<polyline fill="none" stroke="#bfbfbf" points="927.69,-781.5 1024.69,-781.5 "/>
<text text-anchor="middle" x="976.19" y="-769.5" font-family="Helvetica,sans-Serif" font-size="10.00"> </text>
<polyline fill="none" stroke="#bfbfbf" points="927.69,-762.5 1024.69,-762.5 "/>
<text text-anchor="middle" x="976.19" y="-750.5" font-family="Helvetica,sans-Serif" font-size="10.00"> </text>
</a>
</g>
</g>
<!-- Node14&#45;&gt;Node19 -->
<g id="edge21" class="edge">
<title>Node14&#45;&gt;Node19</title>
<path fill="none" stroke="#404040" d="M849.03,-1221.35C871.86,-1140.84 938.37,-906.33 964.99,-812.49"/>
<polygon fill="none" stroke="#404040" points="965.05,-812.27 962.84,-805.41 968.32,-800.73 970.54,-807.59 965.05,-812.27"/>
<text text-anchor="middle" x="892.19" y="-1184" font-family="Helvetica,sans-Serif" font-size="10.00"> +elements</text>
</g>
<!-- Node15 -->
<g id="node15" class="node">
<title>Node15</title>
<g id="a_node15"><a xlink:href="$a01220.html" xlink:title="The Vector2i class.">
<polygon fill="white" stroke="black" points="613.69,-535.5 613.69,-724.5 730.69,-724.5 730.69,-535.5 613.69,-535.5"/>
<text text-anchor="start" x="621.69" y="-712.5" font-family="Helvetica,sans-Serif" font-size="10.00">RayTracer::Entities</text>
<text text-anchor="middle" x="672.19" y="-701.5" font-family="Helvetica,sans-Serif" font-size="10.00">::Transform::Vector2i</text>
<polyline fill="none" stroke="black" points="613.69,-694.5 730.69,-694.5 "/>
<text text-anchor="middle" x="672.19" y="-682.5" font-family="Helvetica,sans-Serif" font-size="10.00"> </text>
<polyline fill="none" stroke="black" points="613.69,-675.5 730.69,-675.5 "/>
<text text-anchor="start" x="621.69" y="-663.5" font-family="Helvetica,sans-Serif" font-size="10.00">+ ~Vector2i()</text>
<text text-anchor="start" x="621.69" y="-652.5" font-family="Helvetica,sans-Serif" font-size="10.00">+ Vector2i()</text>
<text text-anchor="start" x="621.69" y="-641.5" font-family="Helvetica,sans-Serif" font-size="10.00">+ Vector2i()</text>
<text text-anchor="start" x="621.69" y="-630.5" font-family="Helvetica,sans-Serif" font-size="10.00">+ Vector2i()</text>
<text text-anchor="start" x="621.69" y="-619.5" font-family="Helvetica,sans-Serif" font-size="10.00">+ Vector2i()</text>
<text text-anchor="start" x="621.69" y="-608.5" font-family="Helvetica,sans-Serif" font-size="10.00">+ operator+()</text>
<text text-anchor="start" x="621.69" y="-597.5" font-family="Helvetica,sans-Serif" font-size="10.00">+ operator&#45;()</text>
<text text-anchor="start" x="621.69" y="-586.5" font-family="Helvetica,sans-Serif" font-size="10.00">+ operator*()</text>
<text text-anchor="start" x="621.69" y="-575.5" font-family="Helvetica,sans-Serif" font-size="10.00">+ operator/()</text>
<text text-anchor="start" x="621.69" y="-564.5" font-family="Helvetica,sans-Serif" font-size="10.00">+ operator=()</text>
<text text-anchor="start" x="621.69" y="-553.5" font-family="Helvetica,sans-Serif" font-size="10.00">+ getX()</text>
<text text-anchor="start" x="621.69" y="-542.5" font-family="Helvetica,sans-Serif" font-size="10.00">+ getY()</text>
</a>
</g>
</g>
<!-- Node15&#45;&gt;Node4 -->
<g id="edge15" class="edge">
<title>Node15&#45;&gt;Node4</title>
<path fill="none" stroke="#404040" d="M672.19,-535.34C672.19,-516.78 672.19,-497.11 672.19,-478.02"/>
<polygon fill="none" stroke="#404040" points="672.19,-477.9 668.19,-471.9 672.19,-465.9 676.19,-471.9 672.19,-477.9"/>
<text text-anchor="middle" x="704.69" y="-498" font-family="Helvetica,sans-Serif" font-size="10.00"> &#45;_screenSize</text>
</g>
<!-- Node16 -->
<g id="node16" class="node">
<title>Node16</title>
<g id="a_node16"><a xlink:title=" ">
<polygon fill="white" stroke="#bfbfbf" points="732.69,-957 732.69,-1014 761.69,-1014 761.69,-957 732.69,-957"/>
<text text-anchor="middle" x="747.19" y="-1002" font-family="Helvetica,sans-Serif" font-size="10.00">int</text>
<polyline fill="none" stroke="#bfbfbf" points="732.69,-995 761.69,-995 "/>
<text text-anchor="middle" x="747.19" y="-983" font-family="Helvetica,sans-Serif" font-size="10.00"> </text>
<polyline fill="none" stroke="#bfbfbf" points="732.69,-976 761.69,-976 "/>
<text text-anchor="middle" x="747.19" y="-964" font-family="Helvetica,sans-Serif" font-size="10.00"> </text>
</a>
</g>
</g>
<!-- Node16&#45;&gt;Node4 -->
<g id="edge17" class="edge">
<title>Node16&#45;&gt;Node4</title>
<path fill="none" stroke="#404040" d="M751.7,-956.95C763.26,-880.24 789.72,-658.34 741.19,-484 740.55,-481.69 739.85,-479.38 739.09,-477.08"/>
<polygon fill="none" stroke="#404040" points="739.02,-476.87 733.22,-472.59 734.94,-465.58 740.74,-469.86 739.02,-476.87"/>
<text text-anchor="middle" x="803.19" y="-627.5" font-family="Helvetica,sans-Serif" font-size="10.00"> &#45;_maxThread</text>
</g>
<!-- Node16&#45;&gt;Node15 -->
<g id="edge16" class="edge">
<title>Node16&#45;&gt;Node15</title>
<path fill="none" stroke="#404040" d="M741.3,-956.76C731.37,-909.95 710.79,-812.93 694.65,-736.89"/>
<polygon fill="none" stroke="#404040" points="694.6,-736.61 689.44,-731.58 692.1,-724.88 697.26,-729.91 694.6,-736.61"/>
<text text-anchor="middle" x="716.69" y="-775" font-family="Helvetica,sans-Serif" font-size="10.00"> &#45;_x</text>
<text text-anchor="middle" x="716.69" y="-764" font-family="Helvetica,sans-Serif" font-size="10.00">&#45;_y</text>
</g>
<!-- Node17 -->
<g id="node17" class="node">
<title>Node17</title>
<g id="a_node17"><a xlink:href="$a01260.html" xlink:title="Logger singleton.">
<polygon fill="white" stroke="black" points="853.69,-568.5 853.69,-691.5 960.69,-691.5 960.69,-568.5 853.69,-568.5"/>
<text text-anchor="middle" x="907.19" y="-679.5" font-family="Helvetica,sans-Serif" font-size="10.00">RayTracer::ILogger</text>
<polyline fill="none" stroke="black" points="853.69,-672.5 960.69,-672.5 "/>
<text text-anchor="middle" x="907.19" y="-660.5" font-family="Helvetica,sans-Serif" font-size="10.00"> </text>
<polyline fill="none" stroke="black" points="853.69,-653.5 960.69,-653.5 "/>
<text text-anchor="start" x="861.69" y="-641.5" font-family="Helvetica,sans-Serif" font-size="10.00">+ ~ILogger()</text>
<text text-anchor="start" x="861.69" y="-630.5" font-family="Helvetica,sans-Serif" font-size="10.00">+ fatal()</text>
<text text-anchor="start" x="861.69" y="-619.5" font-family="Helvetica,sans-Serif" font-size="10.00">+ error()</text>
<text text-anchor="start" x="861.69" y="-608.5" font-family="Helvetica,sans-Serif" font-size="10.00">+ warn()</text>
<text text-anchor="start" x="861.69" y="-597.5" font-family="Helvetica,sans-Serif" font-size="10.00">+ info()</text>
<text text-anchor="start" x="861.69" y="-586.5" font-family="Helvetica,sans-Serif" font-size="10.00">+ debug()</text>
<text text-anchor="start" x="861.69" y="-575.5" font-family="Helvetica,sans-Serif" font-size="10.00">+ trace()</text>
</a>
</g>
</g>
<!-- Node17&#45;&gt;Node4 -->
<g id="edge18" class="edge">
<title>Node17&#45;&gt;Node4</title>
<path fill="none" stroke="#404040" d="M865.37,-568.27C857,-556.97 848.05,-545.44 839.19,-535 813.22,-504.39 782.82,-472.67 755.13,-445.12"/>
<polygon fill="none" stroke="#404040" points="754.77,-444.77 747.69,-443.39 746.24,-436.33 753.32,-437.7 754.77,-444.77"/>
<text text-anchor="middle" x="843.69" y="-498" font-family="Helvetica,sans-Serif" font-size="10.00"> &#45;_logger</text>
</g>
<!-- Node18 -->
<g id="node18" class="node">
<title>Node18</title>
<g id="a_node18"><a xlink:title=" ">
<polygon fill="white" stroke="#bfbfbf" points="979.19,-596 979.19,-664 1095.19,-664 1095.19,-596 979.19,-596"/>
<text text-anchor="start" x="987.19" y="-652" font-family="Helvetica,sans-Serif" font-size="10.00">optional&lt; RayTracer</text>
<text text-anchor="middle" x="1037.19" y="-641" font-family="Helvetica,sans-Serif" font-size="10.00">::Images::Image &gt;</text>
<polyline fill="none" stroke="#bfbfbf" points="979.19,-634 1095.19,-634 "/>
<text text-anchor="middle" x="1037.19" y="-622" font-family="Helvetica,sans-Serif" font-size="10.00"> </text>
<polyline fill="none" stroke="#bfbfbf" points="979.19,-615 1095.19,-615 "/>
<text text-anchor="middle" x="1037.19" y="-603" font-family="Helvetica,sans-Serif" font-size="10.00"> </text>
</a>
</g>
</g>
<!-- Node18&#45;&gt;Node4 -->
<g id="edge19" class="edge">
<title>Node18&#45;&gt;Node4</title>
<path fill="none" stroke="#404040" d="M1018.54,-595.77C1006.52,-576.4 989.55,-552.43 970.19,-535 906.75,-477.88 820.7,-431.81 757.37,-402.38"/>
<polygon fill="none" stroke="#404040" points="757.12,-402.27 750,-403.4 746.22,-397.26 753.34,-396.13 757.12,-402.27"/>
<text text-anchor="middle" x="962.69" y="-498" font-family="Helvetica,sans-Serif" font-size="10.00"> &#45;_image</text>
</g>
<!-- Node19&#45;&gt;Node3 -->
<g id="edge20" class="edge">
<title>Node19&#45;&gt;Node3</title>
<path fill="none" stroke="orange" d="M1034.96,-764.89C1060.63,-758.97 1088.42,-747.42 1104.19,-725 1217.6,-563.73 1079.54,-313.3 1018.45,-217.8"/>
<polygon fill="orange" stroke="orange" points="1033.98,-761.52 1024.89,-766.97 1035.39,-768.38 1033.98,-761.52"/>
<text text-anchor="start" x="1141.19" y="-509" font-family="Helvetica,sans-Serif" font-size="10.00"> &lt; RayTracer::PluginsExt</text>
<text text-anchor="start" x="1141.19" y="-498" font-family="Helvetica,sans-Serif" font-size="10.00">::Camera::FullCustom::</text>
<text text-anchor="middle" x="1203.19" y="-487" font-family="Helvetica,sans-Serif" font-size="10.00">CameraCustomEntity * &gt;</text>
</g>
</g>
</svg>
