<?xml version="1.0" encoding="UTF-8" standalone="no"?>
<!DOCTYPE svg PUBLIC "-//W3C//DTD SVG 1.1//EN"
 "http://www.w3.org/Graphics/SVG/1.1/DTD/svg11.dtd">
<!-- Generated by graphviz version 2.43.0 (0)
 -->
<!-- Title: RayTracer::Main::MainError Pages: 1 -->
<svg width="212pt" height="288pt"
 viewBox="0.00 0.00 212.00 288.00" xmlns="http://www.w3.org/2000/svg" xmlns:xlink="http://www.w3.org/1999/xlink">
<g id="graph0" class="graph" transform="scale(1 1) rotate(0) translate(4 284)">
<title>RayTracer::Main::MainError</title>
<polygon fill="white" stroke="transparent" points="-4,4 -4,-284 208,-284 208,4 -4,4"/>
<!-- Node1 -->
<g id="node1" class="node">
<title>Node1</title>
<g id="a_node1"><a xlink:title=" ">
<polygon fill="#bfbfbf" stroke="black" points="0,-0.5 0,-68.5 148,-68.5 148,-0.5 0,-0.5"/>
<text text-anchor="middle" x="74" y="-56.5" font-family="Helvetica,sans-Serif" font-size="10.00">RayTracer::Main::MainError</text>
<polyline fill="none" stroke="black" points="0,-49.5 148,-49.5 "/>
<text text-anchor="middle" x="74" y="-37.5" font-family="Helvetica,sans-Serif" font-size="10.00"> </text>
<polyline fill="none" stroke="black" points="0,-30.5 148,-30.5 "/>
<text text-anchor="start" x="8" y="-18.5" font-family="Helvetica,sans-Serif" font-size="10.00">+ MainError()</text>
<text text-anchor="start" x="8" y="-7.5" font-family="Helvetica,sans-Serif" font-size="10.00">+ what()</text>
</a>
</g>
</g>
<!-- Node2 -->
<g id="node2" class="node">
<title>Node2</title>
<g id="a_node2"><a xlink:title=" ">
<polygon fill="white" stroke="#bfbfbf" points="15,-116.5 15,-173.5 101,-173.5 101,-116.5 15,-116.5"/>
<text text-anchor="middle" x="58" y="-161.5" font-family="Helvetica,sans-Serif" font-size="10.00">std::exception</text>
<polyline fill="none" stroke="#bfbfbf" points="15,-154.5 101,-154.5 "/>
<text text-anchor="middle" x="58" y="-142.5" font-family="Helvetica,sans-Serif" font-size="10.00"> </text>
<polyline fill="none" stroke="#bfbfbf" points="15,-135.5 101,-135.5 "/>
<text text-anchor="middle" x="58" y="-123.5" font-family="Helvetica,sans-Serif" font-size="10.00"> </text>
</a>
</g>
</g>
<!-- Node2&#45;&gt;Node1 -->
<g id="edge1" class="edge">
<title>Node2&#45;&gt;Node1</title>
<path fill="none" stroke="midnightblue" d="M63.55,-106.36C65.37,-94.04 67.37,-80.47 69.13,-68.52"/>
<polygon fill="none" stroke="midnightblue" points="60.08,-105.94 62.08,-116.34 67,-106.96 60.08,-105.94"/>
</g>
<!-- Node3 -->
<g id="node3" class="node">
<title>Node3</title>
<g id="a_node3"><a xlink:title=" ">
<polygon fill="white" stroke="#bfbfbf" points="119.5,-116.5 119.5,-173.5 184.5,-173.5 184.5,-116.5 119.5,-116.5"/>
<text text-anchor="middle" x="152" y="-161.5" font-family="Helvetica,sans-Serif" font-size="10.00">std::string</text>
<polyline fill="none" stroke="#bfbfbf" points="119.5,-154.5 184.5,-154.5 "/>
<text text-anchor="middle" x="152" y="-142.5" font-family="Helvetica,sans-Serif" font-size="10.00"> </text>
<polyline fill="none" stroke="#bfbfbf" points="119.5,-135.5 184.5,-135.5 "/>
<text text-anchor="middle" x="152" y="-123.5" font-family="Helvetica,sans-Serif" font-size="10.00"> </text>
</a>
</g>
</g>
<!-- Node3&#45;&gt;Node1 -->
<g id="edge2" class="edge">
<title>Node3&#45;&gt;Node1</title>
<path fill="none" stroke="#404040" d="M132.12,-116.34C123.85,-104.85 114.07,-91.24 104.91,-78.5"/>
<polygon fill="none" stroke="#404040" points="104.74,-78.26 97.99,-75.73 97.74,-68.52 104.49,-71.06 104.74,-78.26"/>
<text text-anchor="middle" x="145.5" y="-90" font-family="Helvetica,sans-Serif" font-size="10.00"> &#45;_message</text>
</g>
<!-- Node4 -->
<g id="node4" class="node">
<title>Node4</title>
<g id="a_node4"><a xlink:title=" ">
<polygon fill="white" stroke="#bfbfbf" points="100,-211.5 100,-279.5 204,-279.5 204,-211.5 100,-211.5"/>
<text text-anchor="start" x="108" y="-267.5" font-family="Helvetica,sans-Serif" font-size="10.00">std::basic_string&lt;</text>
<text text-anchor="middle" x="152" y="-256.5" font-family="Helvetica,sans-Serif" font-size="10.00"> Char &gt;</text>
<polyline fill="none" stroke="#bfbfbf" points="100,-249.5 204,-249.5 "/>
<text text-anchor="middle" x="152" y="-237.5" font-family="Helvetica,sans-Serif" font-size="10.00"> </text>
<polyline fill="none" stroke="#bfbfbf" points="100,-230.5 204,-230.5 "/>
<text text-anchor="middle" x="152" y="-218.5" font-family="Helvetica,sans-Serif" font-size="10.00"> </text>
</a>
</g>
</g>
<!-- Node4&#45;&gt;Node3 -->
<g id="edge3" class="edge">
<title>Node4&#45;&gt;Node3</title>
<path fill="none" stroke="midnightblue" d="M152,-201.38C152,-191.94 152,-182.2 152,-173.57"/>
<polygon fill="none" stroke="midnightblue" points="148.5,-201.43 152,-211.43 155.5,-201.43 148.5,-201.43"/>
</g>
</g>
</svg>
