<?xml version="1.0" encoding="UTF-8" standalone="no"?>
<!DOCTYPE svg PUBLIC "-//W3C//DTD SVG 1.1//EN"
 "http://www.w3.org/Graphics/SVG/1.1/DTD/svg11.dtd">
<!-- Generated by graphviz version 2.43.0 (0)
 -->
<!-- Title: RayTracer::PluginsExt::Camera::FullCustom::CameraCustomEntity Pages: 1 -->
<svg width="156pt" height="595pt"
 viewBox="0.00 0.00 156.00 595.00" xmlns="http://www.w3.org/2000/svg" xmlns:xlink="http://www.w3.org/1999/xlink">
<g id="graph0" class="graph" transform="scale(1 1) rotate(0) translate(4 591)">
<title>RayTracer::PluginsExt::Camera::FullCustom::CameraCustomEntity</title>
<polygon fill="white" stroke="transparent" points="-4,4 -4,-591 152,-591 152,4 -4,4"/>
<!-- Node1 -->
<g id="node1" class="node">
<title>Node1</title>
<g id="a_node1"><a xlink:title=" ">
<polygon fill="#bfbfbf" stroke="black" points="0,-0.5 0,-266.5 148,-266.5 148,-0.5 0,-0.5"/>
<text text-anchor="start" x="8" y="-254.5" font-family="Helvetica,sans-Serif" font-size="10.00">RayTracer::PluginsExt</text>
<text text-anchor="start" x="8" y="-243.5" font-family="Helvetica,sans-Serif" font-size="10.00">::Camera::FullCustom</text>
<text text-anchor="middle" x="74" y="-232.5" font-family="Helvetica,sans-Serif" font-size="10.00">::CameraCustomEntity</text>
<polyline fill="none" stroke="black" points="0,-225.5 148,-225.5 "/>
<text text-anchor="start" x="8" y="-213.5" font-family="Helvetica,sans-Serif" font-size="10.00">&#45; _positionCamera</text>
<text text-anchor="start" x="8" y="-202.5" font-family="Helvetica,sans-Serif" font-size="10.00">&#45; _screenSize</text>
<text text-anchor="start" x="8" y="-191.5" font-family="Helvetica,sans-Serif" font-size="10.00">&#45; _fov</text>
<text text-anchor="start" x="8" y="-180.5" font-family="Helvetica,sans-Serif" font-size="10.00">&#45; _image</text>
<text text-anchor="start" x="8" y="-169.5" font-family="Helvetica,sans-Serif" font-size="10.00">&#45; _filters</text>
<text text-anchor="start" x="8" y="-158.5" font-family="Helvetica,sans-Serif" font-size="10.00">&#45; _maxThread</text>
<text text-anchor="start" x="8" y="-147.5" font-family="Helvetica,sans-Serif" font-size="10.00">&#45; _logger</text>
<polyline fill="none" stroke="black" points="0,-140.5 148,-140.5 "/>
<text text-anchor="start" x="8" y="-128.5" font-family="Helvetica,sans-Serif" font-size="10.00">+ CameraCustomEntity()</text>
<text text-anchor="start" x="8" y="-117.5" font-family="Helvetica,sans-Serif" font-size="10.00">+ ~CameraCustomEntity()</text>
<text text-anchor="start" x="8" y="-106.5" font-family="Helvetica,sans-Serif" font-size="10.00">+ getType()</text>
<text text-anchor="start" x="8" y="-95.5" font-family="Helvetica,sans-Serif" font-size="10.00">+ getTransform()</text>
<text text-anchor="start" x="8" y="-84.5" font-family="Helvetica,sans-Serif" font-size="10.00">+ getTransform()</text>
<text text-anchor="start" x="8" y="-73.5" font-family="Helvetica,sans-Serif" font-size="10.00">+ getFocal()</text>
<text text-anchor="start" x="8" y="-62.5" font-family="Helvetica,sans-Serif" font-size="10.00">+ setFocal()</text>
<text text-anchor="start" x="8" y="-51.5" font-family="Helvetica,sans-Serif" font-size="10.00">+ setSize()</text>
<text text-anchor="start" x="8" y="-40.5" font-family="Helvetica,sans-Serif" font-size="10.00">+ getSize()</text>
<text text-anchor="start" x="8" y="-29.5" font-family="Helvetica,sans-Serif" font-size="10.00">+ render()</text>
<text text-anchor="start" x="8" y="-18.5" font-family="Helvetica,sans-Serif" font-size="10.00">+ getImage()</text>
<text text-anchor="start" x="8" y="-7.5" font-family="Helvetica,sans-Serif" font-size="10.00">+ getFilters()</text>
</a>
</g>
</g>
<!-- Node2 -->
<g id="node2" class="node">
<title>Node2</title>
<g id="a_node2"><a xlink:href="$a01185.html" xlink:title="The ICamera class.">
<polygon fill="white" stroke="black" points="20.5,-303.5 20.5,-448.5 127.5,-448.5 127.5,-303.5 20.5,-303.5"/>
<text text-anchor="start" x="28.5" y="-436.5" font-family="Helvetica,sans-Serif" font-size="10.00">RayTracer::Entities</text>
<text text-anchor="middle" x="74" y="-425.5" font-family="Helvetica,sans-Serif" font-size="10.00">::ICamera</text>
<polyline fill="none" stroke="black" points="20.5,-418.5 127.5,-418.5 "/>
<text text-anchor="middle" x="74" y="-406.5" font-family="Helvetica,sans-Serif" font-size="10.00"> </text>
<polyline fill="none" stroke="black" points="20.5,-399.5 127.5,-399.5 "/>
<text text-anchor="start" x="28.5" y="-387.5" font-family="Helvetica,sans-Serif" font-size="10.00">+ ~ICamera()</text>
<text text-anchor="start" x="28.5" y="-376.5" font-family="Helvetica,sans-Serif" font-size="10.00">+ getFocal()</text>
<text text-anchor="start" x="28.5" y="-365.5" font-family="Helvetica,sans-Serif" font-size="10.00">+ setFocal()</text>
<text text-anchor="start" x="28.5" y="-354.5" font-family="Helvetica,sans-Serif" font-size="10.00">+ setSize()</text>
<text text-anchor="start" x="28.5" y="-343.5" font-family="Helvetica,sans-Serif" font-size="10.00">+ getSize()</text>
<text text-anchor="start" x="28.5" y="-332.5" font-family="Helvetica,sans-Serif" font-size="10.00">+ render()</text>
<text text-anchor="start" x="28.5" y="-321.5" font-family="Helvetica,sans-Serif" font-size="10.00">+ getImage()</text>
<text text-anchor="start" x="28.5" y="-310.5" font-family="Helvetica,sans-Serif" font-size="10.00">+ getFilters()</text>
</a>
</g>
</g>
<!-- Node2&#45;&gt;Node1 -->
<g id="edge1" class="edge">
<title>Node2&#45;&gt;Node1</title>
<path fill="none" stroke="midnightblue" d="M74,-293.4C74,-284.67 74,-275.63 74,-266.51"/>
<polygon fill="none" stroke="midnightblue" points="70.5,-293.49 74,-303.49 77.5,-293.49 70.5,-293.49"/>
</g>
<!-- Node3 -->
<g id="node3" class="node">
<title>Node3</title>
<g id="a_node3"><a xlink:href="$a01189.html" xlink:title="The IEntity class.">
<polygon fill="white" stroke="black" points="20.5,-485.5 20.5,-586.5 127.5,-586.5 127.5,-485.5 20.5,-485.5"/>
<text text-anchor="start" x="28.5" y="-574.5" font-family="Helvetica,sans-Serif" font-size="10.00">RayTracer::Entities</text>
<text text-anchor="middle" x="74" y="-563.5" font-family="Helvetica,sans-Serif" font-size="10.00">::IEntity</text>
<polyline fill="none" stroke="black" points="20.5,-556.5 127.5,-556.5 "/>
<text text-anchor="middle" x="74" y="-544.5" font-family="Helvetica,sans-Serif" font-size="10.00"> </text>
<polyline fill="none" stroke="black" points="20.5,-537.5 127.5,-537.5 "/>
<text text-anchor="start" x="28.5" y="-525.5" font-family="Helvetica,sans-Serif" font-size="10.00">+ ~IEntity()</text>
<text text-anchor="start" x="28.5" y="-514.5" font-family="Helvetica,sans-Serif" font-size="10.00">+ getTransform()</text>
<text text-anchor="start" x="28.5" y="-503.5" font-family="Helvetica,sans-Serif" font-size="10.00">+ getTransform()</text>
<text text-anchor="start" x="28.5" y="-492.5" font-family="Helvetica,sans-Serif" font-size="10.00">+ getType()</text>
</a>
</g>
</g>
<!-- Node3&#45;&gt;Node2 -->
<g id="edge2" class="edge">
<title>Node3&#45;&gt;Node2</title>
<path fill="none" stroke="midnightblue" d="M74,-475.38C74,-466.66 74,-457.59 74,-448.66"/>
<polygon fill="none" stroke="midnightblue" points="70.5,-475.44 74,-485.44 77.5,-475.44 70.5,-475.44"/>
</g>
</g>
</svg>
