<?xml version="1.0" encoding="UTF-8" standalone="no"?>
<!DOCTYPE svg PUBLIC "-//W3C//DTD SVG 1.1//EN"
 "http://www.w3.org/Graphics/SVG/1.1/DTD/svg11.dtd">
<!-- Generated by graphviz version 2.43.0 (0)
 -->
<!-- Title: RayTracer::Scenes::SettingWrapper::TypeException Pages: 1 -->
<svg width="245pt" height="321pt"
 viewBox="0.00 0.00 245.00 321.00" xmlns="http://www.w3.org/2000/svg" xmlns:xlink="http://www.w3.org/1999/xlink">
<g id="graph0" class="graph" transform="scale(1 1) rotate(0) translate(4 317)">
<title>RayTracer::Scenes::SettingWrapper::TypeException</title>
<polygon fill="white" stroke="transparent" points="-4,4 -4,-317 241,-317 241,4 -4,4"/>
<!-- Node1 -->
<g id="node1" class="node">
<title>Node1</title>
<g id="a_node1"><a xlink:title="an exception for when the key is not found">
<polygon fill="#bfbfbf" stroke="black" points="40.5,-0.5 40.5,-79.5 209.5,-79.5 209.5,-0.5 40.5,-0.5"/>
<text text-anchor="start" x="48.5" y="-67.5" font-family="Helvetica,sans-Serif" font-size="10.00">RayTracer::Scenes::</text>
<text text-anchor="middle" x="125" y="-56.5" font-family="Helvetica,sans-Serif" font-size="10.00">SettingWrapper::TypeException</text>
<polyline fill="none" stroke="black" points="40.5,-49.5 209.5,-49.5 "/>
<text text-anchor="middle" x="125" y="-37.5" font-family="Helvetica,sans-Serif" font-size="10.00"> </text>
<polyline fill="none" stroke="black" points="40.5,-30.5 209.5,-30.5 "/>
<text text-anchor="start" x="48.5" y="-18.5" font-family="Helvetica,sans-Serif" font-size="10.00">+ TypeException()</text>
<text text-anchor="start" x="48.5" y="-7.5" font-family="Helvetica,sans-Serif" font-size="10.00">+ what()</text>
</a>
</g>
</g>
<!-- Node2 -->
<g id="node2" class="node">
<title>Node2</title>
<g id="a_node2"><a xlink:href="$a01483.html" xlink:title="an exception for when the key is not found">
<polygon fill="white" stroke="black" points="0,-127.5 0,-206.5 134,-206.5 134,-127.5 0,-127.5"/>
<text text-anchor="start" x="8" y="-194.5" font-family="Helvetica,sans-Serif" font-size="10.00">RayTracer::Scenes::</text>
<text text-anchor="middle" x="67" y="-183.5" font-family="Helvetica,sans-Serif" font-size="10.00">ISetting::ITypeException</text>
<polyline fill="none" stroke="black" points="0,-176.5 134,-176.5 "/>
<text text-anchor="middle" x="67" y="-164.5" font-family="Helvetica,sans-Serif" font-size="10.00"> </text>
<polyline fill="none" stroke="black" points="0,-157.5 134,-157.5 "/>
<text text-anchor="start" x="8" y="-145.5" font-family="Helvetica,sans-Serif" font-size="10.00">+ ~ITypeException()</text>
<text text-anchor="start" x="8" y="-134.5" font-family="Helvetica,sans-Serif" font-size="10.00">+ what()</text>
</a>
</g>
</g>
<!-- Node2&#45;&gt;Node1 -->
<g id="edge1" class="edge">
<title>Node2&#45;&gt;Node1</title>
<path fill="none" stroke="midnightblue" d="M89.11,-118.34C95.05,-105.54 101.4,-91.86 107.08,-79.61"/>
<polygon fill="none" stroke="midnightblue" points="85.91,-116.93 84.88,-127.48 92.26,-119.88 85.91,-116.93"/>
</g>
<!-- Node3 -->
<g id="node3" class="node">
<title>Node3</title>
<g id="a_node3"><a xlink:title=" ">
<polygon fill="white" stroke="#bfbfbf" points="24,-250 24,-307 110,-307 110,-250 24,-250"/>
<text text-anchor="middle" x="67" y="-295" font-family="Helvetica,sans-Serif" font-size="10.00">std::exception</text>
<polyline fill="none" stroke="#bfbfbf" points="24,-288 110,-288 "/>
<text text-anchor="middle" x="67" y="-276" font-family="Helvetica,sans-Serif" font-size="10.00"> </text>
<polyline fill="none" stroke="#bfbfbf" points="24,-269 110,-269 "/>
<text text-anchor="middle" x="67" y="-257" font-family="Helvetica,sans-Serif" font-size="10.00"> </text>
</a>
</g>
</g>
<!-- Node3&#45;&gt;Node2 -->
<g id="edge2" class="edge">
<title>Node3&#45;&gt;Node2</title>
<path fill="none" stroke="midnightblue" d="M67,-239.63C67,-229.01 67,-217.46 67,-206.79"/>
<polygon fill="none" stroke="midnightblue" points="63.5,-239.87 67,-249.87 70.5,-239.87 63.5,-239.87"/>
</g>
<!-- Node4 -->
<g id="node4" class="node">
<title>Node4</title>
<g id="a_node4"><a xlink:title=" ">
<polygon fill="white" stroke="#bfbfbf" points="152.5,-138.5 152.5,-195.5 217.5,-195.5 217.5,-138.5 152.5,-138.5"/>
<text text-anchor="middle" x="185" y="-183.5" font-family="Helvetica,sans-Serif" font-size="10.00">std::string</text>
<polyline fill="none" stroke="#bfbfbf" points="152.5,-176.5 217.5,-176.5 "/>
<text text-anchor="middle" x="185" y="-164.5" font-family="Helvetica,sans-Serif" font-size="10.00"> </text>
<polyline fill="none" stroke="#bfbfbf" points="152.5,-157.5 217.5,-157.5 "/>
<text text-anchor="middle" x="185" y="-145.5" font-family="Helvetica,sans-Serif" font-size="10.00"> </text>
</a>
</g>
</g>
<!-- Node4&#45;&gt;Node1 -->
<g id="edge3" class="edge">
<title>Node4&#45;&gt;Node1</title>
<path fill="none" stroke="#404040" d="M171.68,-138.26C164.95,-124.23 156.58,-106.78 148.78,-90.55"/>
<polygon fill="none" stroke="#404040" points="148.7,-90.39 142.5,-86.71 143.51,-79.57 149.71,-83.24 148.7,-90.39"/>
<text text-anchor="middle" x="174" y="-101" font-family="Helvetica,sans-Serif" font-size="10.00"> &#45;_msg</text>
</g>
<!-- Node5 -->
<g id="node5" class="node">
<title>Node5</title>
<g id="a_node5"><a xlink:title=" ">
<polygon fill="white" stroke="#bfbfbf" points="133,-244.5 133,-312.5 237,-312.5 237,-244.5 133,-244.5"/>
<text text-anchor="start" x="141" y="-300.5" font-family="Helvetica,sans-Serif" font-size="10.00">std::basic_string&lt;</text>
<text text-anchor="middle" x="185" y="-289.5" font-family="Helvetica,sans-Serif" font-size="10.00"> Char &gt;</text>
<polyline fill="none" stroke="#bfbfbf" points="133,-282.5 237,-282.5 "/>
<text text-anchor="middle" x="185" y="-270.5" font-family="Helvetica,sans-Serif" font-size="10.00"> </text>
<polyline fill="none" stroke="#bfbfbf" points="133,-263.5 237,-263.5 "/>
<text text-anchor="middle" x="185" y="-251.5" font-family="Helvetica,sans-Serif" font-size="10.00"> </text>
</a>
</g>
</g>
<!-- Node5&#45;&gt;Node4 -->
<g id="edge4" class="edge">
<title>Node5&#45;&gt;Node4</title>
<path fill="none" stroke="midnightblue" d="M185,-234.16C185,-221.13 185,-207.21 185,-195.51"/>
<polygon fill="none" stroke="midnightblue" points="181.5,-234.35 185,-244.35 188.5,-234.35 181.5,-234.35"/>
</g>
</g>
</svg>
