<?xml version="1.0" encoding="UTF-8" standalone="no"?>
<!DOCTYPE svg PUBLIC "-//W3C//DTD SVG 1.1//EN"
 "http://www.w3.org/Graphics/SVG/1.1/DTD/svg11.dtd">
<!-- Generated by graphviz version 2.43.0 (0)
 -->
<!-- Title: RayTracer::PluginsExt::Camera::FullCustom::CameraCustomEntity Pages: 1 -->
<svg width="1162pt" height="997pt"
 viewBox="0.00 0.00 1161.50 997.00" xmlns="http://www.w3.org/2000/svg" xmlns:xlink="http://www.w3.org/1999/xlink">
<g id="graph0" class="graph" transform="scale(1 1) rotate(0) translate(4 993)">
<title>RayTracer::PluginsExt::Camera::FullCustom::CameraCustomEntity</title>
<polygon fill="white" stroke="transparent" points="-4,4 -4,-993 1157.5,-993 1157.5,4 -4,4"/>
<!-- Node1 -->
<g id="node1" class="node">
<title>Node1</title>
<g id="a_node1"><a xlink:title=" ">
<polygon fill="#bfbfbf" stroke="black" points="558.5,-0.5 558.5,-222.5 706.5,-222.5 706.5,-0.5 558.5,-0.5"/>
<text text-anchor="start" x="566.5" y="-210.5" font-family="Helvetica,sans-Serif" font-size="10.00">RayTracer::PluginsExt</text>
<text text-anchor="start" x="566.5" y="-199.5" font-family="Helvetica,sans-Serif" font-size="10.00">::Camera::FullCustom</text>
<text text-anchor="middle" x="632.5" y="-188.5" font-family="Helvetica,sans-Serif" font-size="10.00">::CameraCustomEntity</text>
<polyline fill="none" stroke="black" points="558.5,-181.5 706.5,-181.5 "/>
<text text-anchor="middle" x="632.5" y="-169.5" font-family="Helvetica,sans-Serif" font-size="10.00"> </text>
<polyline fill="none" stroke="black" points="558.5,-162.5 706.5,-162.5 "/>
<text text-anchor="start" x="566.5" y="-150.5" font-family="Helvetica,sans-Serif" font-size="10.00">+ CameraCustomEntity()</text>
<text text-anchor="start" x="566.5" y="-139.5" font-family="Helvetica,sans-Serif" font-size="10.00">+ ~CameraCustomEntity()</text>
<text text-anchor="start" x="566.5" y="-128.5" font-family="Helvetica,sans-Serif" font-size="10.00">+ getType()</text>
<text text-anchor="start" x="566.5" y="-117.5" font-family="Helvetica,sans-Serif" font-size="10.00">+ getTransform()</text>
<text text-anchor="start" x="566.5" y="-106.5" font-family="Helvetica,sans-Serif" font-size="10.00">+ getTransform()</text>
<text text-anchor="start" x="566.5" y="-95.5" font-family="Helvetica,sans-Serif" font-size="10.00">+ getFocal()</text>
<text text-anchor="start" x="566.5" y="-84.5" font-family="Helvetica,sans-Serif" font-size="10.00">+ setFocal()</text>
<text text-anchor="start" x="566.5" y="-73.5" font-family="Helvetica,sans-Serif" font-size="10.00">+ setSize()</text>
<text text-anchor="start" x="566.5" y="-62.5" font-family="Helvetica,sans-Serif" font-size="10.00">+ getSize()</text>
<text text-anchor="start" x="566.5" y="-51.5" font-family="Helvetica,sans-Serif" font-size="10.00">+ render()</text>
<text text-anchor="start" x="566.5" y="-40.5" font-family="Helvetica,sans-Serif" font-size="10.00">+ getImage()</text>
<text text-anchor="start" x="566.5" y="-29.5" font-family="Helvetica,sans-Serif" font-size="10.00">+ getFilters()</text>
<text text-anchor="start" x="566.5" y="-18.5" font-family="Helvetica,sans-Serif" font-size="10.00">+ getCluster()</text>
<text text-anchor="start" x="566.5" y="-7.5" font-family="Helvetica,sans-Serif" font-size="10.00">+ setCluster()</text>
</a>
</g>
</g>
<!-- Node2 -->
<g id="node2" class="node">
<title>Node2</title>
<g id="a_node2"><a xlink:href="$a01287.html" xlink:title="The ICamera class.">
<polygon fill="white" stroke="black" points="63,-281.5 63,-448.5 170,-448.5 170,-281.5 63,-281.5"/>
<text text-anchor="start" x="71" y="-436.5" font-family="Helvetica,sans-Serif" font-size="10.00">RayTracer::Entities</text>
<text text-anchor="middle" x="116.5" y="-425.5" font-family="Helvetica,sans-Serif" font-size="10.00">::ICamera</text>
<polyline fill="none" stroke="black" points="63,-418.5 170,-418.5 "/>
<text text-anchor="middle" x="116.5" y="-406.5" font-family="Helvetica,sans-Serif" font-size="10.00"> </text>
<polyline fill="none" stroke="black" points="63,-399.5 170,-399.5 "/>
<text text-anchor="start" x="71" y="-387.5" font-family="Helvetica,sans-Serif" font-size="10.00">+ ~ICamera()</text>
<text text-anchor="start" x="71" y="-376.5" font-family="Helvetica,sans-Serif" font-size="10.00">+ getFocal()</text>
<text text-anchor="start" x="71" y="-365.5" font-family="Helvetica,sans-Serif" font-size="10.00">+ setFocal()</text>
<text text-anchor="start" x="71" y="-354.5" font-family="Helvetica,sans-Serif" font-size="10.00">+ setSize()</text>
<text text-anchor="start" x="71" y="-343.5" font-family="Helvetica,sans-Serif" font-size="10.00">+ getSize()</text>
<text text-anchor="start" x="71" y="-332.5" font-family="Helvetica,sans-Serif" font-size="10.00">+ render()</text>
<text text-anchor="start" x="71" y="-321.5" font-family="Helvetica,sans-Serif" font-size="10.00">+ getImage()</text>
<text text-anchor="start" x="71" y="-310.5" font-family="Helvetica,sans-Serif" font-size="10.00">+ getFilters()</text>
<text text-anchor="start" x="71" y="-299.5" font-family="Helvetica,sans-Serif" font-size="10.00">+ setCluster()</text>
<text text-anchor="start" x="71" y="-288.5" font-family="Helvetica,sans-Serif" font-size="10.00">+ getCluster()</text>
</a>
</g>
</g>
<!-- Node2&#45;&gt;Node1 -->
<g id="edge1" class="edge">
<title>Node2&#45;&gt;Node1</title>
<path fill="none" stroke="midnightblue" d="M177.99,-313.44C197.64,-298.48 219.91,-282.72 241.5,-270 345.39,-208.82 477.5,-161.15 558.48,-134.95"/>
<polygon fill="none" stroke="midnightblue" points="175.81,-310.7 170.02,-319.57 180.08,-316.24 175.81,-310.7"/>
</g>
<!-- Node3 -->
<g id="node3" class="node">
<title>Node3</title>
<g id="a_node3"><a xlink:href="$a01291.html" xlink:title="The IEntity class.">
<polygon fill="white" stroke="black" points="0,-645 0,-746 107,-746 107,-645 0,-645"/>
<text text-anchor="start" x="8" y="-734" font-family="Helvetica,sans-Serif" font-size="10.00">RayTracer::Entities</text>
<text text-anchor="middle" x="53.5" y="-723" font-family="Helvetica,sans-Serif" font-size="10.00">::IEntity</text>
<polyline fill="none" stroke="black" points="0,-716 107,-716 "/>
<text text-anchor="middle" x="53.5" y="-704" font-family="Helvetica,sans-Serif" font-size="10.00"> </text>
<polyline fill="none" stroke="black" points="0,-697 107,-697 "/>
<text text-anchor="start" x="8" y="-685" font-family="Helvetica,sans-Serif" font-size="10.00">+ ~IEntity()</text>
<text text-anchor="start" x="8" y="-674" font-family="Helvetica,sans-Serif" font-size="10.00">+ getTransform()</text>
<text text-anchor="start" x="8" y="-663" font-family="Helvetica,sans-Serif" font-size="10.00">+ getTransform()</text>
<text text-anchor="start" x="8" y="-652" font-family="Helvetica,sans-Serif" font-size="10.00">+ getType()</text>
</a>
</g>
</g>
<!-- Node3&#45;&gt;Node2 -->
<g id="edge2" class="edge">
<title>Node3&#45;&gt;Node2</title>
<path fill="none" stroke="midnightblue" d="M64.94,-634.87C74.93,-582.74 89.55,-506.53 100.67,-448.54"/>
<polygon fill="none" stroke="midnightblue" points="61.45,-634.48 63,-644.96 68.32,-635.8 61.45,-634.48"/>
</g>
<!-- Node4 -->
<g id="node4" class="node">
<title>Node4</title>
<g id="a_node4"><a xlink:href="$a01311.html" xlink:title="The Transform class.">
<polygon fill="white" stroke="black" points="250.5,-292.5 250.5,-437.5 376.5,-437.5 376.5,-292.5 250.5,-292.5"/>
<text text-anchor="start" x="258.5" y="-425.5" font-family="Helvetica,sans-Serif" font-size="10.00">RayTracer::Entities</text>
<text text-anchor="middle" x="313.5" y="-414.5" font-family="Helvetica,sans-Serif" font-size="10.00">::Transform::Transform</text>
<polyline fill="none" stroke="black" points="250.5,-407.5 376.5,-407.5 "/>
<text text-anchor="middle" x="313.5" y="-395.5" font-family="Helvetica,sans-Serif" font-size="10.00"> </text>
<polyline fill="none" stroke="black" points="250.5,-388.5 376.5,-388.5 "/>
<text text-anchor="start" x="258.5" y="-376.5" font-family="Helvetica,sans-Serif" font-size="10.00">+ Transform()</text>
<text text-anchor="start" x="258.5" y="-365.5" font-family="Helvetica,sans-Serif" font-size="10.00">+ setPosition()</text>
<text text-anchor="start" x="258.5" y="-354.5" font-family="Helvetica,sans-Serif" font-size="10.00">+ getPosition()</text>
<text text-anchor="start" x="258.5" y="-343.5" font-family="Helvetica,sans-Serif" font-size="10.00">+ setRotation()</text>
<text text-anchor="start" x="258.5" y="-332.5" font-family="Helvetica,sans-Serif" font-size="10.00">+ getRotation()</text>
<text text-anchor="start" x="258.5" y="-321.5" font-family="Helvetica,sans-Serif" font-size="10.00">+ setScale()</text>
<text text-anchor="start" x="258.5" y="-310.5" font-family="Helvetica,sans-Serif" font-size="10.00">+ getScale()</text>
<text text-anchor="start" x="258.5" y="-299.5" font-family="Helvetica,sans-Serif" font-size="10.00">+ operator=()</text>
</a>
</g>
</g>
<!-- Node4&#45;&gt;Node1 -->
<g id="edge3" class="edge">
<title>Node4&#45;&gt;Node1</title>
<path fill="none" stroke="#404040" d="M300.58,-292.44C300.79,-274.39 304.35,-255.92 314.5,-241 366.14,-165.1 470.91,-134.02 546.09,-121.29"/>
<polygon fill="none" stroke="#404040" points="546.51,-121.23 551.8,-116.33 558.36,-119.34 553.06,-124.23 546.51,-121.23"/>
<text text-anchor="middle" x="359.5" y="-244" font-family="Helvetica,sans-Serif" font-size="10.00"> &#45;_positionCamera</text>
</g>
<!-- Node5 -->
<g id="node5" class="node">
<title>Node5</title>
<g id="a_node5"><a xlink:href="$a01307.html" xlink:title="The ITransform class.">
<polygon fill="white" stroke="black" points="125,-623 125,-768 254,-768 254,-623 125,-623"/>
<text text-anchor="start" x="133" y="-756" font-family="Helvetica,sans-Serif" font-size="10.00">RayTracer::Entities</text>
<text text-anchor="middle" x="189.5" y="-745" font-family="Helvetica,sans-Serif" font-size="10.00">::Transform::ITransform</text>
<polyline fill="none" stroke="black" points="125,-738 254,-738 "/>
<text text-anchor="middle" x="189.5" y="-726" font-family="Helvetica,sans-Serif" font-size="10.00"> </text>
<polyline fill="none" stroke="black" points="125,-719 254,-719 "/>
<text text-anchor="start" x="133" y="-707" font-family="Helvetica,sans-Serif" font-size="10.00">+ ~ITransform()</text>
<text text-anchor="start" x="133" y="-696" font-family="Helvetica,sans-Serif" font-size="10.00">+ setPosition()</text>
<text text-anchor="start" x="133" y="-685" font-family="Helvetica,sans-Serif" font-size="10.00">+ getPosition()</text>
<text text-anchor="start" x="133" y="-674" font-family="Helvetica,sans-Serif" font-size="10.00">+ setRotation()</text>
<text text-anchor="start" x="133" y="-663" font-family="Helvetica,sans-Serif" font-size="10.00">+ getRotation()</text>
<text text-anchor="start" x="133" y="-652" font-family="Helvetica,sans-Serif" font-size="10.00">+ setScale()</text>
<text text-anchor="start" x="133" y="-641" font-family="Helvetica,sans-Serif" font-size="10.00">+ getScale()</text>
<text text-anchor="start" x="133" y="-630" font-family="Helvetica,sans-Serif" font-size="10.00">+ operator=()</text>
</a>
</g>
</g>
<!-- Node5&#45;&gt;Node4 -->
<g id="edge4" class="edge">
<title>Node5&#45;&gt;Node4</title>
<path fill="none" stroke="midnightblue" d="M220.15,-613.29C240.5,-559.4 266.95,-489.32 286.5,-437.53"/>
<polygon fill="none" stroke="midnightblue" points="216.82,-612.22 216.56,-622.82 223.37,-614.7 216.82,-612.22"/>
</g>
<!-- Node6 -->
<g id="node6" class="node">
<title>Node6</title>
<g id="a_node6"><a xlink:href="$a01319.html" xlink:title="The Vector3f class.">
<polygon fill="white" stroke="black" points="272.5,-529.5 272.5,-861.5 390.5,-861.5 390.5,-529.5 272.5,-529.5"/>
<text text-anchor="start" x="280.5" y="-849.5" font-family="Helvetica,sans-Serif" font-size="10.00">RayTracer::Entities</text>
<text text-anchor="middle" x="331.5" y="-838.5" font-family="Helvetica,sans-Serif" font-size="10.00">::Transform::Vector3f</text>
<polyline fill="none" stroke="black" points="272.5,-831.5 390.5,-831.5 "/>
<text text-anchor="middle" x="331.5" y="-819.5" font-family="Helvetica,sans-Serif" font-size="10.00"> </text>
<polyline fill="none" stroke="black" points="272.5,-812.5 390.5,-812.5 "/>
<text text-anchor="start" x="280.5" y="-800.5" font-family="Helvetica,sans-Serif" font-size="10.00">+ ~Vector3f()</text>
<text text-anchor="start" x="280.5" y="-789.5" font-family="Helvetica,sans-Serif" font-size="10.00">+ Vector3f()</text>
<text text-anchor="start" x="280.5" y="-778.5" font-family="Helvetica,sans-Serif" font-size="10.00">+ Vector3f()</text>
<text text-anchor="start" x="280.5" y="-767.5" font-family="Helvetica,sans-Serif" font-size="10.00">+ Vector3f()</text>
<text text-anchor="start" x="280.5" y="-756.5" font-family="Helvetica,sans-Serif" font-size="10.00">+ Vector3f()</text>
<text text-anchor="start" x="280.5" y="-745.5" font-family="Helvetica,sans-Serif" font-size="10.00">+ operator+()</text>
<text text-anchor="start" x="280.5" y="-734.5" font-family="Helvetica,sans-Serif" font-size="10.00">+ operator&#45;()</text>
<text text-anchor="start" x="280.5" y="-723.5" font-family="Helvetica,sans-Serif" font-size="10.00">+ operator*()</text>
<text text-anchor="start" x="280.5" y="-712.5" font-family="Helvetica,sans-Serif" font-size="10.00">+ operator/()</text>
<text text-anchor="start" x="280.5" y="-701.5" font-family="Helvetica,sans-Serif" font-size="10.00">+ operator=()</text>
<text text-anchor="start" x="280.5" y="-690.5" font-family="Helvetica,sans-Serif" font-size="10.00">+ getX()</text>
<text text-anchor="start" x="280.5" y="-679.5" font-family="Helvetica,sans-Serif" font-size="10.00">+ getY()</text>
<text text-anchor="start" x="280.5" y="-668.5" font-family="Helvetica,sans-Serif" font-size="10.00">+ getZ()</text>
<text text-anchor="start" x="280.5" y="-657.5" font-family="Helvetica,sans-Serif" font-size="10.00">+ getNorm()</text>
<text text-anchor="start" x="280.5" y="-646.5" font-family="Helvetica,sans-Serif" font-size="10.00">+ getNormalized()</text>
<text text-anchor="start" x="280.5" y="-635.5" font-family="Helvetica,sans-Serif" font-size="10.00">+ getCrossed()</text>
<text text-anchor="start" x="280.5" y="-624.5" font-family="Helvetica,sans-Serif" font-size="10.00">+ dot()</text>
<text text-anchor="start" x="280.5" y="-613.5" font-family="Helvetica,sans-Serif" font-size="10.00">+ getDistance()</text>
<text text-anchor="start" x="280.5" y="-602.5" font-family="Helvetica,sans-Serif" font-size="10.00">+ toDegrees()</text>
<text text-anchor="start" x="280.5" y="-591.5" font-family="Helvetica,sans-Serif" font-size="10.00">+ toRadians()</text>
<text text-anchor="start" x="280.5" y="-580.5" font-family="Helvetica,sans-Serif" font-size="10.00">+ rotateVector()</text>
<text text-anchor="start" x="280.5" y="-569.5" font-family="Helvetica,sans-Serif" font-size="10.00">+ getAngle()</text>
<text text-anchor="start" x="280.5" y="-558.5" font-family="Helvetica,sans-Serif" font-size="10.00">+ rotateX()</text>
<text text-anchor="start" x="280.5" y="-547.5" font-family="Helvetica,sans-Serif" font-size="10.00">+ rotateY()</text>
<text text-anchor="start" x="280.5" y="-536.5" font-family="Helvetica,sans-Serif" font-size="10.00">+ rotateZ()</text>
</a>
</g>
</g>
<!-- Node6&#45;&gt;Node4 -->
<g id="edge5" class="edge">
<title>Node6&#45;&gt;Node4</title>
<path fill="none" stroke="#404040" d="M322.45,-529.29C320.93,-501.68 319.42,-474.11 318.09,-449.69"/>
<polygon fill="none" stroke="#404040" points="318.08,-449.58 313.76,-443.81 317.42,-437.6 321.75,-443.37 318.08,-449.58"/>
<text text-anchor="middle" x="347.5" y="-503" font-family="Helvetica,sans-Serif" font-size="10.00"> &#45;_position</text>
<text text-anchor="middle" x="347.5" y="-492" font-family="Helvetica,sans-Serif" font-size="10.00">&#45;_rotation</text>
<text text-anchor="middle" x="347.5" y="-481" font-family="Helvetica,sans-Serif" font-size="10.00">&#45;_scale</text>
</g>
<!-- Node7 -->
<g id="node7" class="node">
<title>Node7</title>
<g id="a_node7"><a xlink:title=" ">
<polygon fill="white" stroke="#bfbfbf" points="363.5,-931.5 363.5,-988.5 413.5,-988.5 413.5,-931.5 363.5,-931.5"/>
<text text-anchor="middle" x="388.5" y="-976.5" font-family="Helvetica,sans-Serif" font-size="10.00">double</text>
<polyline fill="none" stroke="#bfbfbf" points="363.5,-969.5 413.5,-969.5 "/>
<text text-anchor="middle" x="388.5" y="-957.5" font-family="Helvetica,sans-Serif" font-size="10.00"> </text>
<polyline fill="none" stroke="#bfbfbf" points="363.5,-950.5 413.5,-950.5 "/>
<text text-anchor="middle" x="388.5" y="-938.5" font-family="Helvetica,sans-Serif" font-size="10.00"> </text>
</a>
</g>
</g>
<!-- Node7&#45;&gt;Node1 -->
<g id="edge11" class="edge">
<title>Node7&#45;&gt;Node1</title>
<path fill="none" stroke="#404040" d="M397.18,-931.47C398.83,-925.43 400.39,-919.04 401.5,-913 427.45,-771.92 394.59,-398.42 458.5,-270 478.91,-228.99 514.95,-193.62 548.96,-166.85"/>
<polygon fill="none" stroke="#404040" points="548.97,-166.84 551.29,-160.02 558.49,-159.53 556.17,-166.36 548.97,-166.84"/>
<text text-anchor="middle" x="434.5" y="-492" font-family="Helvetica,sans-Serif" font-size="10.00"> &#45;_fov</text>
</g>
<!-- Node7&#45;&gt;Node6 -->
<g id="edge6" class="edge">
<title>Node7&#45;&gt;Node6</title>
<path fill="none" stroke="#404040" d="M382.51,-931.4C379.2,-916.16 374.77,-895.79 369.91,-873.4"/>
<polygon fill="none" stroke="#404040" points="369.88,-873.25 364.7,-868.24 367.33,-861.52 372.52,-866.54 369.88,-873.25"/>
<text text-anchor="middle" x="388" y="-905" font-family="Helvetica,sans-Serif" font-size="10.00"> &#45;_x</text>
<text text-anchor="middle" x="388" y="-894" font-family="Helvetica,sans-Serif" font-size="10.00">&#45;_y</text>
<text text-anchor="middle" x="388" y="-883" font-family="Helvetica,sans-Serif" font-size="10.00">&#45;_z</text>
</g>
<!-- Node8 -->
<g id="node8" class="node">
<title>Node8</title>
<g id="a_node8"><a xlink:title=" ">
<polygon fill="white" stroke="#bfbfbf" points="468,-325.5 468,-404.5 625,-404.5 625,-325.5 468,-325.5"/>
<text text-anchor="start" x="476" y="-392.5" font-family="Helvetica,sans-Serif" font-size="10.00">std::list&lt; std::reference</text>
<text text-anchor="start" x="476" y="-381.5" font-family="Helvetica,sans-Serif" font-size="10.00">_wrapper&lt; RayTracer::Filters</text>
<text text-anchor="middle" x="546.5" y="-370.5" font-family="Helvetica,sans-Serif" font-size="10.00">::IFilter &gt; &gt;</text>
<polyline fill="none" stroke="#bfbfbf" points="468,-363.5 625,-363.5 "/>
<text text-anchor="middle" x="546.5" y="-351.5" font-family="Helvetica,sans-Serif" font-size="10.00"> </text>
<polyline fill="none" stroke="#bfbfbf" points="468,-344.5 625,-344.5 "/>
<text text-anchor="middle" x="546.5" y="-332.5" font-family="Helvetica,sans-Serif" font-size="10.00"> </text>
</a>
</g>
</g>
<!-- Node8&#45;&gt;Node1 -->
<g id="edge7" class="edge">
<title>Node8&#45;&gt;Node1</title>
<path fill="none" stroke="#404040" d="M559.75,-325.25C568.18,-300.6 579.6,-267.2 590.89,-234.18"/>
<polygon fill="none" stroke="#404040" points="590.99,-233.88 589.15,-226.91 594.88,-222.53 596.72,-229.5 590.99,-233.88"/>
<text text-anchor="middle" x="607.5" y="-244" font-family="Helvetica,sans-Serif" font-size="10.00"> &#45;_filters</text>
</g>
<!-- Node9 -->
<g id="node9" class="node">
<title>Node9</title>
<g id="a_node9"><a xlink:title=" ">
<polygon fill="white" stroke="#bfbfbf" points="446.5,-656 446.5,-735 562.5,-735 562.5,-656 446.5,-656"/>
<text text-anchor="start" x="454.5" y="-723" font-family="Helvetica,sans-Serif" font-size="10.00">reference_wrapper&lt;</text>
<text text-anchor="start" x="454.5" y="-712" font-family="Helvetica,sans-Serif" font-size="10.00"> RayTracer::Filters</text>
<text text-anchor="middle" x="504.5" y="-701" font-family="Helvetica,sans-Serif" font-size="10.00">::IFilter &gt;</text>
<polyline fill="none" stroke="#bfbfbf" points="446.5,-694 562.5,-694 "/>
<text text-anchor="middle" x="504.5" y="-682" font-family="Helvetica,sans-Serif" font-size="10.00"> </text>
<polyline fill="none" stroke="#bfbfbf" points="446.5,-675 562.5,-675 "/>
<text text-anchor="middle" x="504.5" y="-663" font-family="Helvetica,sans-Serif" font-size="10.00"> </text>
</a>
</g>
</g>
<!-- Node9&#45;&gt;Node8 -->
<g id="edge8" class="edge">
<title>Node9&#45;&gt;Node8</title>
<path fill="none" stroke="#404040" d="M494.19,-655.96C484.15,-612.19 472.43,-538.94 487.5,-478 492.91,-456.14 503.44,-433.84 514.12,-414.95"/>
<polygon fill="none" stroke="#404040" points="514.15,-414.89 513.73,-407.7 520.22,-404.54 520.64,-411.74 514.15,-414.89"/>
<text text-anchor="middle" x="516.5" y="-492" font-family="Helvetica,sans-Serif" font-size="10.00"> +elements</text>
</g>
<!-- Node10 -->
<g id="node10" class="node">
<title>Node10</title>
<g id="a_node10"><a xlink:title=" ">
<polygon fill="white" stroke="#bfbfbf" points="581,-667 581,-724 662,-724 662,-667 581,-667"/>
<text text-anchor="middle" x="621.5" y="-712" font-family="Helvetica,sans-Serif" font-size="10.00">std::list&lt; T &gt;</text>
<polyline fill="none" stroke="#bfbfbf" points="581,-705 662,-705 "/>
<text text-anchor="middle" x="621.5" y="-693" font-family="Helvetica,sans-Serif" font-size="10.00"> </text>
<polyline fill="none" stroke="#bfbfbf" points="581,-686 662,-686 "/>
<text text-anchor="middle" x="621.5" y="-674" font-family="Helvetica,sans-Serif" font-size="10.00"> </text>
</a>
</g>
</g>
<!-- Node10&#45;&gt;Node8 -->
<g id="edge9" class="edge">
<title>Node10&#45;&gt;Node8</title>
<path fill="none" stroke="orange" d="M609.11,-657.01C597.31,-620.18 579.73,-562.22 568.5,-511 560.67,-475.31 554.71,-434.07 550.98,-404.72"/>
<polygon fill="orange" stroke="orange" points="605.87,-658.37 612.27,-666.81 612.53,-656.22 605.87,-658.37"/>
<text text-anchor="start" x="568.5" y="-497.5" font-family="Helvetica,sans-Serif" font-size="10.00"> &lt; std::reference_wrapper</text>
<text text-anchor="middle" x="644.5" y="-486.5" font-family="Helvetica,sans-Serif" font-size="10.00">&lt; RayTracer::Filters::IFilter &gt; &gt;</text>
</g>
<!-- Node11 -->
<g id="node11" class="node">
<title>Node11</title>
<g id="a_node11"><a xlink:title=" ">
<polygon fill="white" stroke="#bfbfbf" points="607,-931.5 607,-988.5 636,-988.5 636,-931.5 607,-931.5"/>
<text text-anchor="middle" x="621.5" y="-976.5" font-family="Helvetica,sans-Serif" font-size="10.00">T</text>
<polyline fill="none" stroke="#bfbfbf" points="607,-969.5 636,-969.5 "/>
<text text-anchor="middle" x="621.5" y="-957.5" font-family="Helvetica,sans-Serif" font-size="10.00"> </text>
<polyline fill="none" stroke="#bfbfbf" points="607,-950.5 636,-950.5 "/>
<text text-anchor="middle" x="621.5" y="-938.5" font-family="Helvetica,sans-Serif" font-size="10.00"> </text>
</a>
</g>
</g>
<!-- Node11&#45;&gt;Node10 -->
<g id="edge10" class="edge">
<title>Node11&#45;&gt;Node10</title>
<path fill="none" stroke="#404040" d="M621.5,-931.4C621.5,-884.73 621.5,-790.04 621.5,-736.23"/>
<polygon fill="none" stroke="#404040" points="621.5,-736.12 617.5,-730.12 621.5,-724.12 625.5,-730.12 621.5,-736.12"/>
<text text-anchor="middle" x="650.5" y="-894" font-family="Helvetica,sans-Serif" font-size="10.00"> +elements</text>
</g>
<!-- Node12 -->
<g id="node12" class="node">
<title>Node12</title>
<g id="a_node12"><a xlink:href="$a01315.html" xlink:title="The Vector2i class.">
<polygon fill="white" stroke="black" points="748,-270.5 748,-459.5 865,-459.5 865,-270.5 748,-270.5"/>
<text text-anchor="start" x="756" y="-447.5" font-family="Helvetica,sans-Serif" font-size="10.00">RayTracer::Entities</text>
<text text-anchor="middle" x="806.5" y="-436.5" font-family="Helvetica,sans-Serif" font-size="10.00">::Transform::Vector2i</text>
<polyline fill="none" stroke="black" points="748,-429.5 865,-429.5 "/>
<text text-anchor="middle" x="806.5" y="-417.5" font-family="Helvetica,sans-Serif" font-size="10.00"> </text>
<polyline fill="none" stroke="black" points="748,-410.5 865,-410.5 "/>
<text text-anchor="start" x="756" y="-398.5" font-family="Helvetica,sans-Serif" font-size="10.00">+ ~Vector2i()</text>
<text text-anchor="start" x="756" y="-387.5" font-family="Helvetica,sans-Serif" font-size="10.00">+ Vector2i()</text>
<text text-anchor="start" x="756" y="-376.5" font-family="Helvetica,sans-Serif" font-size="10.00">+ Vector2i()</text>
<text text-anchor="start" x="756" y="-365.5" font-family="Helvetica,sans-Serif" font-size="10.00">+ Vector2i()</text>
<text text-anchor="start" x="756" y="-354.5" font-family="Helvetica,sans-Serif" font-size="10.00">+ Vector2i()</text>
<text text-anchor="start" x="756" y="-343.5" font-family="Helvetica,sans-Serif" font-size="10.00">+ operator+()</text>
<text text-anchor="start" x="756" y="-332.5" font-family="Helvetica,sans-Serif" font-size="10.00">+ operator&#45;()</text>
<text text-anchor="start" x="756" y="-321.5" font-family="Helvetica,sans-Serif" font-size="10.00">+ operator*()</text>
<text text-anchor="start" x="756" y="-310.5" font-family="Helvetica,sans-Serif" font-size="10.00">+ operator/()</text>
<text text-anchor="start" x="756" y="-299.5" font-family="Helvetica,sans-Serif" font-size="10.00">+ operator=()</text>
<text text-anchor="start" x="756" y="-288.5" font-family="Helvetica,sans-Serif" font-size="10.00">+ getX()</text>
<text text-anchor="start" x="756" y="-277.5" font-family="Helvetica,sans-Serif" font-size="10.00">+ getY()</text>
</a>
</g>
</g>
<!-- Node12&#45;&gt;Node1 -->
<g id="edge12" class="edge">
<title>Node12&#45;&gt;Node1</title>
<path fill="none" stroke="#404040" d="M747.83,-279.2C736.89,-263.38 725.27,-246.58 713.78,-229.98"/>
<polygon fill="none" stroke="#404040" points="713.48,-229.55 706.78,-226.89 706.65,-219.68 713.35,-222.34 713.48,-229.55"/>
<text text-anchor="middle" x="757" y="-244" font-family="Helvetica,sans-Serif" font-size="10.00"> &#45;_screenSize</text>
</g>
<!-- Node13 -->
<g id="node13" class="node">
<title>Node13</title>
<g id="a_node13"><a xlink:title=" ">
<polygon fill="white" stroke="#bfbfbf" points="741,-667 741,-724 770,-724 770,-667 741,-667"/>
<text text-anchor="middle" x="755.5" y="-712" font-family="Helvetica,sans-Serif" font-size="10.00">int</text>
<polyline fill="none" stroke="#bfbfbf" points="741,-705 770,-705 "/>
<text text-anchor="middle" x="755.5" y="-693" font-family="Helvetica,sans-Serif" font-size="10.00"> </text>
<polyline fill="none" stroke="#bfbfbf" points="741,-686 770,-686 "/>
<text text-anchor="middle" x="755.5" y="-674" font-family="Helvetica,sans-Serif" font-size="10.00"> </text>
</a>
</g>
</g>
<!-- Node13&#45;&gt;Node1 -->
<g id="edge14" class="edge">
<title>Node13&#45;&gt;Node1</title>
<path fill="none" stroke="#404040" d="M759.22,-666.68C763.62,-621.69 765.43,-532.49 720.5,-478 705.74,-460.1 685.82,-478.25 671.5,-460 644.6,-425.71 635.6,-320.56 632.89,-234.82"/>
<polygon fill="none" stroke="#404040" points="632.89,-234.59 628.72,-228.71 632.54,-222.6 636.71,-228.48 632.89,-234.59"/>
<text text-anchor="middle" x="705.5" y="-362.5" font-family="Helvetica,sans-Serif" font-size="10.00"> &#45;_maxThread</text>
</g>
<!-- Node13&#45;&gt;Node12 -->
<g id="edge13" class="edge">
<title>Node13&#45;&gt;Node12</title>
<path fill="none" stroke="#404040" d="M759.8,-666.78C766.42,-624.17 779.43,-540.34 790.04,-471.99"/>
<polygon fill="none" stroke="#404040" points="790.09,-471.71 787.06,-465.17 791.93,-459.86 794.96,-466.4 790.09,-471.71"/>
<text text-anchor="middle" x="798" y="-497.5" font-family="Helvetica,sans-Serif" font-size="10.00"> &#45;_x</text>
<text text-anchor="middle" x="798" y="-486.5" font-family="Helvetica,sans-Serif" font-size="10.00">&#45;_y</text>
</g>
<!-- Node14 -->
<g id="node14" class="node">
<title>Node14</title>
<g id="a_node14"><a xlink:href="$a01355.html" xlink:title="Logger singleton.">
<polygon fill="white" stroke="black" points="883.5,-292.5 883.5,-437.5 1019.5,-437.5 1019.5,-292.5 883.5,-292.5"/>
<text text-anchor="middle" x="951.5" y="-425.5" font-family="Helvetica,sans-Serif" font-size="10.00">RayTracer::ILogger</text>
<polyline fill="none" stroke="black" points="883.5,-418.5 1019.5,-418.5 "/>
<text text-anchor="middle" x="951.5" y="-406.5" font-family="Helvetica,sans-Serif" font-size="10.00"> </text>
<polyline fill="none" stroke="black" points="883.5,-399.5 1019.5,-399.5 "/>
<text text-anchor="start" x="891.5" y="-387.5" font-family="Helvetica,sans-Serif" font-size="10.00">+ ~ILogger()</text>
<text text-anchor="start" x="891.5" y="-376.5" font-family="Helvetica,sans-Serif" font-size="10.00">+ fatal()</text>
<text text-anchor="start" x="891.5" y="-365.5" font-family="Helvetica,sans-Serif" font-size="10.00">+ error()</text>
<text text-anchor="start" x="891.5" y="-354.5" font-family="Helvetica,sans-Serif" font-size="10.00">+ warn()</text>
<text text-anchor="start" x="891.5" y="-343.5" font-family="Helvetica,sans-Serif" font-size="10.00">+ info()</text>
<text text-anchor="start" x="891.5" y="-332.5" font-family="Helvetica,sans-Serif" font-size="10.00">+ debug()</text>
<text text-anchor="start" x="891.5" y="-321.5" font-family="Helvetica,sans-Serif" font-size="10.00">+ trace()</text>
<text text-anchor="start" x="891.5" y="-310.5" font-family="Helvetica,sans-Serif" font-size="10.00">+ subscribeCallback()</text>
<text text-anchor="start" x="891.5" y="-299.5" font-family="Helvetica,sans-Serif" font-size="10.00">+ unsubscribeCallback()</text>
</a>
</g>
</g>
<!-- Node14&#45;&gt;Node1 -->
<g id="edge15" class="edge">
<title>Node14&#45;&gt;Node1</title>
<path fill="none" stroke="#404040" d="M896.54,-292.06C889.46,-284.29 882.04,-276.76 874.5,-270 826.51,-226.99 765.68,-187.45 717.02,-158.75"/>
<polygon fill="none" stroke="#404040" points="716.87,-158.67 709.68,-159.09 706.51,-152.61 713.71,-152.19 716.87,-158.67"/>
<text text-anchor="middle" x="872" y="-244" font-family="Helvetica,sans-Serif" font-size="10.00"> &#45;_logger</text>
</g>
<!-- Node15 -->
<g id="node15" class="node">
<title>Node15</title>
<g id="a_node15"><a xlink:title=" ">
<polygon fill="white" stroke="#bfbfbf" points="1037.5,-331 1037.5,-399 1153.5,-399 1153.5,-331 1037.5,-331"/>
<text text-anchor="start" x="1045.5" y="-387" font-family="Helvetica,sans-Serif" font-size="10.00">optional&lt; RayTracer</text>
<text text-anchor="middle" x="1095.5" y="-376" font-family="Helvetica,sans-Serif" font-size="10.00">::Images::Image &gt;</text>
<polyline fill="none" stroke="#bfbfbf" points="1037.5,-369 1153.5,-369 "/>
<text text-anchor="middle" x="1095.5" y="-357" font-family="Helvetica,sans-Serif" font-size="10.00"> </text>
<polyline fill="none" stroke="#bfbfbf" points="1037.5,-350 1153.5,-350 "/>
<text text-anchor="middle" x="1095.5" y="-338" font-family="Helvetica,sans-Serif" font-size="10.00"> </text>
</a>
</g>
</g>
<!-- Node15&#45;&gt;Node1 -->
<g id="edge16" class="edge">
<title>Node15&#45;&gt;Node1</title>
<path fill="none" stroke="#404040" d="M1078.22,-330.69C1066.48,-310.81 1049.32,-286.32 1028.5,-270 935.36,-196.96 803.99,-153.7 718.54,-131.53"/>
<polygon fill="none" stroke="#404040" points="718.42,-131.5 711.62,-133.89 706.79,-128.54 713.59,-126.14 718.42,-131.5"/>
<text text-anchor="middle" x="1022" y="-244" font-family="Helvetica,sans-Serif" font-size="10.00"> &#45;_image</text>
</g>
</g>
</svg>
