<?xml version="1.0" encoding="UTF-8" standalone="no"?>
<!DOCTYPE svg PUBLIC "-//W3C//DTD SVG 1.1//EN"
 "http://www.w3.org/Graphics/SVG/1.1/DTD/svg11.dtd">
<!-- Generated by graphviz version 2.43.0 (0)
 -->
<!-- Title: RayTracer::PluginsExt::Plane::PlaneEntity Pages: 1 -->
<svg width="572pt" height="865pt"
 viewBox="0.00 0.00 571.50 865.00" xmlns="http://www.w3.org/2000/svg" xmlns:xlink="http://www.w3.org/1999/xlink">
<g id="graph0" class="graph" transform="scale(1 1) rotate(0) translate(4 861)">
<title>RayTracer::PluginsExt::Plane::PlaneEntity</title>
<polygon fill="white" stroke="transparent" points="-4,4 -4,-861 567.5,-861 567.5,4 -4,4"/>
<!-- Node1 -->
<g id="node1" class="node">
<title>Node1</title>
<g id="a_node1"><a xlink:title=" ">
<polygon fill="#bfbfbf" stroke="black" points="252,-0.5 252,-145.5 374,-145.5 374,-0.5 252,-0.5"/>
<text text-anchor="start" x="260" y="-133.5" font-family="Helvetica,sans-Serif" font-size="10.00">RayTracer::PluginsExt</text>
<text text-anchor="middle" x="313" y="-122.5" font-family="Helvetica,sans-Serif" font-size="10.00">::Plane::PlaneEntity</text>
<polyline fill="none" stroke="black" points="252,-115.5 374,-115.5 "/>
<text text-anchor="middle" x="313" y="-103.5" font-family="Helvetica,sans-Serif" font-size="10.00"> </text>
<polyline fill="none" stroke="black" points="252,-96.5 374,-96.5 "/>
<text text-anchor="start" x="260" y="-84.5" font-family="Helvetica,sans-Serif" font-size="10.00">+ PlaneEntity()</text>
<text text-anchor="start" x="260" y="-73.5" font-family="Helvetica,sans-Serif" font-size="10.00">+ getType()</text>
<text text-anchor="start" x="260" y="-62.5" font-family="Helvetica,sans-Serif" font-size="10.00">+ getTransform()</text>
<text text-anchor="start" x="260" y="-51.5" font-family="Helvetica,sans-Serif" font-size="10.00">+ getTransform()</text>
<text text-anchor="start" x="260" y="-40.5" font-family="Helvetica,sans-Serif" font-size="10.00">+ isCollided()</text>
<text text-anchor="start" x="260" y="-29.5" font-family="Helvetica,sans-Serif" font-size="10.00">+ isCollided()</text>
<text text-anchor="start" x="260" y="-18.5" font-family="Helvetica,sans-Serif" font-size="10.00">+ getColor()</text>
<text text-anchor="start" x="260" y="-7.5" font-family="Helvetica,sans-Serif" font-size="10.00">+ redirectionLight()</text>
</a>
</g>
</g>
<!-- Node2 -->
<g id="node2" class="node">
<title>Node2</title>
<g id="a_node2"><a xlink:href="$a01201.html" xlink:title="The IPrimitive class.">
<polygon fill="white" stroke="black" points="0,-210 0,-322 112,-322 112,-210 0,-210"/>
<text text-anchor="start" x="8" y="-310" font-family="Helvetica,sans-Serif" font-size="10.00">RayTracer::Entities</text>
<text text-anchor="middle" x="56" y="-299" font-family="Helvetica,sans-Serif" font-size="10.00">::IPrimitive</text>
<polyline fill="none" stroke="black" points="0,-292 112,-292 "/>
<text text-anchor="middle" x="56" y="-280" font-family="Helvetica,sans-Serif" font-size="10.00"> </text>
<polyline fill="none" stroke="black" points="0,-273 112,-273 "/>
<text text-anchor="start" x="8" y="-261" font-family="Helvetica,sans-Serif" font-size="10.00">+ ~IPrimitive()</text>
<text text-anchor="start" x="8" y="-250" font-family="Helvetica,sans-Serif" font-size="10.00">+ getColor()</text>
<text text-anchor="start" x="8" y="-239" font-family="Helvetica,sans-Serif" font-size="10.00">+ isCollided()</text>
<text text-anchor="start" x="8" y="-228" font-family="Helvetica,sans-Serif" font-size="10.00">+ isCollided()</text>
<text text-anchor="start" x="8" y="-217" font-family="Helvetica,sans-Serif" font-size="10.00">+ redirectionLight()</text>
</a>
</g>
</g>
<!-- Node2&#45;&gt;Node1 -->
<g id="edge1" class="edge">
<title>Node2&#45;&gt;Node1</title>
<path fill="none" stroke="midnightblue" d="M110.03,-202.77C113.65,-199.36 117.32,-196.08 121,-193 161.49,-159.2 212.43,-128.06 251.67,-106.13"/>
<polygon fill="none" stroke="midnightblue" points="107.43,-200.42 102.71,-209.9 112.32,-205.43 107.43,-200.42"/>
</g>
<!-- Node3 -->
<g id="node3" class="node">
<title>Node3</title>
<g id="a_node3"><a xlink:href="$a01189.html" xlink:title="The IEntity class.">
<polygon fill="white" stroke="black" points="2.5,-518.5 2.5,-619.5 109.5,-619.5 109.5,-518.5 2.5,-518.5"/>
<text text-anchor="start" x="10.5" y="-607.5" font-family="Helvetica,sans-Serif" font-size="10.00">RayTracer::Entities</text>
<text text-anchor="middle" x="56" y="-596.5" font-family="Helvetica,sans-Serif" font-size="10.00">::IEntity</text>
<polyline fill="none" stroke="black" points="2.5,-589.5 109.5,-589.5 "/>
<text text-anchor="middle" x="56" y="-577.5" font-family="Helvetica,sans-Serif" font-size="10.00"> </text>
<polyline fill="none" stroke="black" points="2.5,-570.5 109.5,-570.5 "/>
<text text-anchor="start" x="10.5" y="-558.5" font-family="Helvetica,sans-Serif" font-size="10.00">+ ~IEntity()</text>
<text text-anchor="start" x="10.5" y="-547.5" font-family="Helvetica,sans-Serif" font-size="10.00">+ getTransform()</text>
<text text-anchor="start" x="10.5" y="-536.5" font-family="Helvetica,sans-Serif" font-size="10.00">+ getTransform()</text>
<text text-anchor="start" x="10.5" y="-525.5" font-family="Helvetica,sans-Serif" font-size="10.00">+ getType()</text>
</a>
</g>
</g>
<!-- Node3&#45;&gt;Node2 -->
<g id="edge2" class="edge">
<title>Node3&#45;&gt;Node2</title>
<path fill="none" stroke="midnightblue" d="M56,-508.15C56,-453.97 56,-374.81 56,-322.14"/>
<polygon fill="none" stroke="midnightblue" points="52.5,-508.3 56,-518.3 59.5,-508.3 52.5,-508.3"/>
</g>
<!-- Node4 -->
<g id="node4" class="node">
<title>Node4</title>
<g id="a_node4"><a xlink:href="$a01209.html" xlink:title="The Transform class.">
<polygon fill="white" stroke="black" points="130,-193.5 130,-338.5 256,-338.5 256,-193.5 130,-193.5"/>
<text text-anchor="start" x="138" y="-326.5" font-family="Helvetica,sans-Serif" font-size="10.00">RayTracer::Entities</text>
<text text-anchor="middle" x="193" y="-315.5" font-family="Helvetica,sans-Serif" font-size="10.00">::Transform::Transform</text>
<polyline fill="none" stroke="black" points="130,-308.5 256,-308.5 "/>
<text text-anchor="middle" x="193" y="-296.5" font-family="Helvetica,sans-Serif" font-size="10.00"> </text>
<polyline fill="none" stroke="black" points="130,-289.5 256,-289.5 "/>
<text text-anchor="start" x="138" y="-277.5" font-family="Helvetica,sans-Serif" font-size="10.00">+ Transform()</text>
<text text-anchor="start" x="138" y="-266.5" font-family="Helvetica,sans-Serif" font-size="10.00">+ setPosition()</text>
<text text-anchor="start" x="138" y="-255.5" font-family="Helvetica,sans-Serif" font-size="10.00">+ getPosition()</text>
<text text-anchor="start" x="138" y="-244.5" font-family="Helvetica,sans-Serif" font-size="10.00">+ setRotation()</text>
<text text-anchor="start" x="138" y="-233.5" font-family="Helvetica,sans-Serif" font-size="10.00">+ getRotation()</text>
<text text-anchor="start" x="138" y="-222.5" font-family="Helvetica,sans-Serif" font-size="10.00">+ setScale()</text>
<text text-anchor="start" x="138" y="-211.5" font-family="Helvetica,sans-Serif" font-size="10.00">+ getScale()</text>
<text text-anchor="start" x="138" y="-200.5" font-family="Helvetica,sans-Serif" font-size="10.00">+ operator=()</text>
</a>
</g>
</g>
<!-- Node4&#45;&gt;Node1 -->
<g id="edge3" class="edge">
<title>Node4&#45;&gt;Node1</title>
<path fill="none" stroke="#404040" d="M238.02,-193.34C245.66,-181.18 253.65,-168.47 261.44,-156.07"/>
<polygon fill="none" stroke="#404040" points="261.54,-155.91 261.34,-148.7 267.92,-145.75 268.12,-152.96 261.54,-155.91"/>
<text text-anchor="middle" x="283.5" y="-167" font-family="Helvetica,sans-Serif" font-size="10.00"> &#45;_transform</text>
</g>
<!-- Node5 -->
<g id="node5" class="node">
<title>Node5</title>
<g id="a_node5"><a xlink:href="$a01205.html" xlink:title="The ITransform class.">
<polygon fill="white" stroke="black" points="127.5,-496.5 127.5,-641.5 256.5,-641.5 256.5,-496.5 127.5,-496.5"/>
<text text-anchor="start" x="135.5" y="-629.5" font-family="Helvetica,sans-Serif" font-size="10.00">RayTracer::Entities</text>
<text text-anchor="middle" x="192" y="-618.5" font-family="Helvetica,sans-Serif" font-size="10.00">::Transform::ITransform</text>
<polyline fill="none" stroke="black" points="127.5,-611.5 256.5,-611.5 "/>
<text text-anchor="middle" x="192" y="-599.5" font-family="Helvetica,sans-Serif" font-size="10.00"> </text>
<polyline fill="none" stroke="black" points="127.5,-592.5 256.5,-592.5 "/>
<text text-anchor="start" x="135.5" y="-580.5" font-family="Helvetica,sans-Serif" font-size="10.00">+ ~ITransform()</text>
<text text-anchor="start" x="135.5" y="-569.5" font-family="Helvetica,sans-Serif" font-size="10.00">+ setPosition()</text>
<text text-anchor="start" x="135.5" y="-558.5" font-family="Helvetica,sans-Serif" font-size="10.00">+ getPosition()</text>
<text text-anchor="start" x="135.5" y="-547.5" font-family="Helvetica,sans-Serif" font-size="10.00">+ setRotation()</text>
<text text-anchor="start" x="135.5" y="-536.5" font-family="Helvetica,sans-Serif" font-size="10.00">+ getRotation()</text>
<text text-anchor="start" x="135.5" y="-525.5" font-family="Helvetica,sans-Serif" font-size="10.00">+ setScale()</text>
<text text-anchor="start" x="135.5" y="-514.5" font-family="Helvetica,sans-Serif" font-size="10.00">+ getScale()</text>
<text text-anchor="start" x="135.5" y="-503.5" font-family="Helvetica,sans-Serif" font-size="10.00">+ operator=()</text>
</a>
</g>
</g>
<!-- Node5&#45;&gt;Node4 -->
<g id="edge4" class="edge">
<title>Node5&#45;&gt;Node4</title>
<path fill="none" stroke="midnightblue" d="M192.27,-486.03C192.43,-439.95 192.61,-382.98 192.76,-338.69"/>
<polygon fill="none" stroke="midnightblue" points="188.77,-486.27 192.24,-496.29 195.77,-486.3 188.77,-486.27"/>
</g>
<!-- Node6 -->
<g id="node6" class="node">
<title>Node6</title>
<g id="a_node6"><a xlink:href="$a01217.html" xlink:title="The Vector3f class.">
<polygon fill="white" stroke="black" points="275,-408.5 275,-729.5 393,-729.5 393,-408.5 275,-408.5"/>
<text text-anchor="start" x="283" y="-717.5" font-family="Helvetica,sans-Serif" font-size="10.00">RayTracer::Entities</text>
<text text-anchor="middle" x="334" y="-706.5" font-family="Helvetica,sans-Serif" font-size="10.00">::Transform::Vector3f</text>
<polyline fill="none" stroke="black" points="275,-699.5 393,-699.5 "/>
<text text-anchor="middle" x="334" y="-687.5" font-family="Helvetica,sans-Serif" font-size="10.00"> </text>
<polyline fill="none" stroke="black" points="275,-680.5 393,-680.5 "/>
<text text-anchor="start" x="283" y="-668.5" font-family="Helvetica,sans-Serif" font-size="10.00">+ ~Vector3f()</text>
<text text-anchor="start" x="283" y="-657.5" font-family="Helvetica,sans-Serif" font-size="10.00">+ Vector3f()</text>
<text text-anchor="start" x="283" y="-646.5" font-family="Helvetica,sans-Serif" font-size="10.00">+ Vector3f()</text>
<text text-anchor="start" x="283" y="-635.5" font-family="Helvetica,sans-Serif" font-size="10.00">+ Vector3f()</text>
<text text-anchor="start" x="283" y="-624.5" font-family="Helvetica,sans-Serif" font-size="10.00">+ Vector3f()</text>
<text text-anchor="start" x="283" y="-613.5" font-family="Helvetica,sans-Serif" font-size="10.00">+ operator+()</text>
<text text-anchor="start" x="283" y="-602.5" font-family="Helvetica,sans-Serif" font-size="10.00">+ operator&#45;()</text>
<text text-anchor="start" x="283" y="-591.5" font-family="Helvetica,sans-Serif" font-size="10.00">+ operator*()</text>
<text text-anchor="start" x="283" y="-580.5" font-family="Helvetica,sans-Serif" font-size="10.00">+ operator/()</text>
<text text-anchor="start" x="283" y="-569.5" font-family="Helvetica,sans-Serif" font-size="10.00">+ operator=()</text>
<text text-anchor="start" x="283" y="-558.5" font-family="Helvetica,sans-Serif" font-size="10.00">+ getX()</text>
<text text-anchor="start" x="283" y="-547.5" font-family="Helvetica,sans-Serif" font-size="10.00">+ getY()</text>
<text text-anchor="start" x="283" y="-536.5" font-family="Helvetica,sans-Serif" font-size="10.00">+ getZ()</text>
<text text-anchor="start" x="283" y="-525.5" font-family="Helvetica,sans-Serif" font-size="10.00">+ getNorm()</text>
<text text-anchor="start" x="283" y="-514.5" font-family="Helvetica,sans-Serif" font-size="10.00">+ getNormalized()</text>
<text text-anchor="start" x="283" y="-503.5" font-family="Helvetica,sans-Serif" font-size="10.00">+ dot()</text>
<text text-anchor="start" x="283" y="-492.5" font-family="Helvetica,sans-Serif" font-size="10.00">+ getDistance()</text>
<text text-anchor="start" x="283" y="-481.5" font-family="Helvetica,sans-Serif" font-size="10.00">+ toDegrees()</text>
<text text-anchor="start" x="283" y="-470.5" font-family="Helvetica,sans-Serif" font-size="10.00">+ toRadians()</text>
<text text-anchor="start" x="283" y="-459.5" font-family="Helvetica,sans-Serif" font-size="10.00">+ rotateVector()</text>
<text text-anchor="start" x="283" y="-448.5" font-family="Helvetica,sans-Serif" font-size="10.00">+ getAngle()</text>
<text text-anchor="start" x="283" y="-437.5" font-family="Helvetica,sans-Serif" font-size="10.00">+ rotateX()</text>
<text text-anchor="start" x="283" y="-426.5" font-family="Helvetica,sans-Serif" font-size="10.00">+ rotateY()</text>
<text text-anchor="start" x="283" y="-415.5" font-family="Helvetica,sans-Serif" font-size="10.00">+ rotateZ()</text>
</a>
</g>
</g>
<!-- Node6&#45;&gt;Node4 -->
<g id="edge5" class="edge">
<title>Node6&#45;&gt;Node4</title>
<path fill="none" stroke="#404040" d="M274.9,-429.42C271.6,-422.16 268.28,-414.98 265,-408 256.01,-388.89 245.93,-368.54 236.22,-349.43"/>
<polygon fill="none" stroke="#404040" points="236.18,-349.34 229.89,-345.81 230.72,-338.65 237.01,-342.17 236.18,-349.34"/>
<text text-anchor="middle" x="282" y="-382" font-family="Helvetica,sans-Serif" font-size="10.00"> &#45;_position</text>
<text text-anchor="middle" x="282" y="-371" font-family="Helvetica,sans-Serif" font-size="10.00">&#45;_rotation</text>
<text text-anchor="middle" x="282" y="-360" font-family="Helvetica,sans-Serif" font-size="10.00">&#45;_scale</text>
</g>
<!-- Node7 -->
<g id="node7" class="node">
<title>Node7</title>
<g id="a_node7"><a xlink:title=" ">
<polygon fill="white" stroke="#bfbfbf" points="309,-799.5 309,-856.5 359,-856.5 359,-799.5 309,-799.5"/>
<text text-anchor="middle" x="334" y="-844.5" font-family="Helvetica,sans-Serif" font-size="10.00">double</text>
<polyline fill="none" stroke="#bfbfbf" points="309,-837.5 359,-837.5 "/>
<text text-anchor="middle" x="334" y="-825.5" font-family="Helvetica,sans-Serif" font-size="10.00"> </text>
<polyline fill="none" stroke="#bfbfbf" points="309,-818.5 359,-818.5 "/>
<text text-anchor="middle" x="334" y="-806.5" font-family="Helvetica,sans-Serif" font-size="10.00"> </text>
</a>
</g>
</g>
<!-- Node7&#45;&gt;Node6 -->
<g id="edge6" class="edge">
<title>Node7&#45;&gt;Node6</title>
<path fill="none" stroke="#404040" d="M334,-799.5C334,-784.29 334,-764 334,-741.74"/>
<polygon fill="none" stroke="#404040" points="334,-741.57 330,-735.57 334,-729.57 338,-735.57 334,-741.57"/>
<text text-anchor="middle" x="343.5" y="-773" font-family="Helvetica,sans-Serif" font-size="10.00"> &#45;_x</text>
<text text-anchor="middle" x="343.5" y="-762" font-family="Helvetica,sans-Serif" font-size="10.00">&#45;_y</text>
<text text-anchor="middle" x="343.5" y="-751" font-family="Helvetica,sans-Serif" font-size="10.00">&#45;_z</text>
</g>
<!-- Node8 -->
<g id="node8" class="node">
<title>Node8</title>
<g id="a_node8"><a xlink:title=" ">
<polygon fill="white" stroke="#bfbfbf" points="274,-226.5 274,-305.5 438,-305.5 438,-226.5 274,-226.5"/>
<text text-anchor="start" x="282" y="-293.5" font-family="Helvetica,sans-Serif" font-size="10.00">optional&lt; std::reference</text>
<text text-anchor="start" x="282" y="-282.5" font-family="Helvetica,sans-Serif" font-size="10.00">_wrapper&lt; RayTracer::Entities</text>
<text text-anchor="middle" x="356" y="-271.5" font-family="Helvetica,sans-Serif" font-size="10.00">::IMaterial &gt; &gt;</text>
<polyline fill="none" stroke="#bfbfbf" points="274,-264.5 438,-264.5 "/>
<text text-anchor="middle" x="356" y="-252.5" font-family="Helvetica,sans-Serif" font-size="10.00"> </text>
<polyline fill="none" stroke="#bfbfbf" points="274,-245.5 438,-245.5 "/>
<text text-anchor="middle" x="356" y="-233.5" font-family="Helvetica,sans-Serif" font-size="10.00"> </text>
</a>
</g>
</g>
<!-- Node8&#45;&gt;Node1 -->
<g id="edge7" class="edge">
<title>Node8&#45;&gt;Node1</title>
<path fill="none" stroke="#404040" d="M347.3,-226.35C342.85,-206.58 337.25,-181.7 331.87,-157.81"/>
<polygon fill="none" stroke="#404040" points="331.8,-157.52 326.58,-152.55 329.17,-145.82 334.39,-150.79 331.8,-157.52"/>
<text text-anchor="middle" x="362" y="-167" font-family="Helvetica,sans-Serif" font-size="10.00"> &#45;_material</text>
</g>
<!-- Node9 -->
<g id="node9" class="node">
<title>Node9</title>
<g id="a_node9"><a xlink:href="$a01253.html" xlink:title="Logger singleton.">
<polygon fill="white" stroke="black" points="456.5,-204.5 456.5,-327.5 563.5,-327.5 563.5,-204.5 456.5,-204.5"/>
<text text-anchor="middle" x="510" y="-315.5" font-family="Helvetica,sans-Serif" font-size="10.00">RayTracer::ILogger</text>
<polyline fill="none" stroke="black" points="456.5,-308.5 563.5,-308.5 "/>
<text text-anchor="middle" x="510" y="-296.5" font-family="Helvetica,sans-Serif" font-size="10.00"> </text>
<polyline fill="none" stroke="black" points="456.5,-289.5 563.5,-289.5 "/>
<text text-anchor="start" x="464.5" y="-277.5" font-family="Helvetica,sans-Serif" font-size="10.00">+ ~ILogger()</text>
<text text-anchor="start" x="464.5" y="-266.5" font-family="Helvetica,sans-Serif" font-size="10.00">+ fatal()</text>
<text text-anchor="start" x="464.5" y="-255.5" font-family="Helvetica,sans-Serif" font-size="10.00">+ error()</text>
<text text-anchor="start" x="464.5" y="-244.5" font-family="Helvetica,sans-Serif" font-size="10.00">+ warn()</text>
<text text-anchor="start" x="464.5" y="-233.5" font-family="Helvetica,sans-Serif" font-size="10.00">+ info()</text>
<text text-anchor="start" x="464.5" y="-222.5" font-family="Helvetica,sans-Serif" font-size="10.00">+ debug()</text>
<text text-anchor="start" x="464.5" y="-211.5" font-family="Helvetica,sans-Serif" font-size="10.00">+ trace()</text>
</a>
</g>
</g>
<!-- Node9&#45;&gt;Node1 -->
<g id="edge8" class="edge">
<title>Node9&#45;&gt;Node1</title>
<path fill="none" stroke="#404040" d="M457.95,-204.38C454.3,-200.48 450.63,-196.65 447,-193 427.05,-172.9 404.34,-152.05 383.36,-133.52"/>
<polygon fill="none" stroke="#404040" points="383.2,-133.37 376.05,-132.42 374.18,-125.46 381.33,-126.41 383.2,-133.37"/>
<text text-anchor="middle" x="447.5" y="-167" font-family="Helvetica,sans-Serif" font-size="10.00"> &#45;_logger</text>
</g>
</g>
</svg>
