<?xml version="1.0" encoding="UTF-8" standalone="no"?>
<!DOCTYPE svg PUBLIC "-//W3C//DTD SVG 1.1//EN"
 "http://www.w3.org/Graphics/SVG/1.1/DTD/svg11.dtd">
<!-- Generated by graphviz version 2.43.0 (0)
 -->
<!-- Title: RayTracer::PluginsExt::BlackAndWhite::BlackAndWhiteCreator Pages: 1 -->
<svg width="791pt" height="833pt"
 viewBox="0.00 0.00 791.00 833.00" xmlns="http://www.w3.org/2000/svg" xmlns:xlink="http://www.w3.org/1999/xlink">
<g id="graph0" class="graph" transform="scale(1 1) rotate(0) translate(4 829)">
<title>RayTracer::PluginsExt::BlackAndWhite::BlackAndWhiteCreator</title>
<polygon fill="white" stroke="transparent" points="-4,4 -4,-829 787,-829 787,4 -4,4"/>
<!-- Node1 -->
<g id="node1" class="node">
<title>Node1</title>
<g id="a_node1"><a xlink:title=" ">
<polygon fill="#bfbfbf" stroke="black" points="0,-0.5 0,-90.5 177,-90.5 177,-0.5 0,-0.5"/>
<text text-anchor="start" x="8" y="-78.5" font-family="Helvetica,sans-Serif" font-size="10.00">RayTracer::PluginsExt</text>
<text text-anchor="start" x="8" y="-67.5" font-family="Helvetica,sans-Serif" font-size="10.00">::BlackAndWhite::BlackAndWhite</text>
<text text-anchor="middle" x="88.5" y="-56.5" font-family="Helvetica,sans-Serif" font-size="10.00">Creator</text>
<polyline fill="none" stroke="black" points="0,-49.5 177,-49.5 "/>
<text text-anchor="middle" x="88.5" y="-37.5" font-family="Helvetica,sans-Serif" font-size="10.00"> </text>
<polyline fill="none" stroke="black" points="0,-30.5 177,-30.5 "/>
<text text-anchor="start" x="8" y="-18.5" font-family="Helvetica,sans-Serif" font-size="10.00">+ ~BlackAndWhiteCreator()</text>
<text text-anchor="start" x="8" y="-7.5" font-family="Helvetica,sans-Serif" font-size="10.00">+ create()</text>
</a>
</g>
</g>
<!-- Node2 -->
<g id="node2" class="node">
<title>Node2</title>
<g id="a_node2"><a xlink:href="$a01463.html" xlink:title="The IFilterCreator class.">
<polygon fill="white" stroke="black" points="11.5,-138.5 11.5,-217.5 133.5,-217.5 133.5,-138.5 11.5,-138.5"/>
<text text-anchor="start" x="19.5" y="-205.5" font-family="Helvetica,sans-Serif" font-size="10.00">RayTracer::Plugins</text>
<text text-anchor="middle" x="72.5" y="-194.5" font-family="Helvetica,sans-Serif" font-size="10.00">::Filters::IFilterCreator</text>
<polyline fill="none" stroke="black" points="11.5,-187.5 133.5,-187.5 "/>
<text text-anchor="middle" x="72.5" y="-175.5" font-family="Helvetica,sans-Serif" font-size="10.00"> </text>
<polyline fill="none" stroke="black" points="11.5,-168.5 133.5,-168.5 "/>
<text text-anchor="start" x="19.5" y="-156.5" font-family="Helvetica,sans-Serif" font-size="10.00">+ ~IFilterCreator()</text>
<text text-anchor="start" x="19.5" y="-145.5" font-family="Helvetica,sans-Serif" font-size="10.00">+ create()</text>
</a>
</g>
</g>
<!-- Node2&#45;&gt;Node1 -->
<g id="edge1" class="edge">
<title>Node2&#45;&gt;Node1</title>
<path fill="none" stroke="midnightblue" d="M78.49,-128.16C79.99,-115.93 81.59,-102.88 83.06,-90.88"/>
<polygon fill="none" stroke="midnightblue" points="75,-127.85 77.26,-138.2 81.95,-128.7 75,-127.85"/>
</g>
<!-- Node3 -->
<g id="node3" class="node">
<title>Node3</title>
<g id="a_node3"><a xlink:title=" ">
<polygon fill="white" stroke="#bfbfbf" points="151.5,-138.5 151.5,-217.5 305.5,-217.5 305.5,-138.5 151.5,-138.5"/>
<text text-anchor="start" x="159.5" y="-205.5" font-family="Helvetica,sans-Serif" font-size="10.00">std::vector&lt; RayTracer</text>
<text text-anchor="start" x="159.5" y="-194.5" font-family="Helvetica,sans-Serif" font-size="10.00">::PluginsExt::BlackAndWhite</text>
<text text-anchor="middle" x="228.5" y="-183.5" font-family="Helvetica,sans-Serif" font-size="10.00">::BlackAndWhiteFilter * &gt;</text>
<polyline fill="none" stroke="#bfbfbf" points="151.5,-176.5 305.5,-176.5 "/>
<text text-anchor="middle" x="228.5" y="-164.5" font-family="Helvetica,sans-Serif" font-size="10.00"> </text>
<polyline fill="none" stroke="#bfbfbf" points="151.5,-157.5 305.5,-157.5 "/>
<text text-anchor="middle" x="228.5" y="-145.5" font-family="Helvetica,sans-Serif" font-size="10.00"> </text>
</a>
</g>
</g>
<!-- Node3&#45;&gt;Node1 -->
<g id="edge2" class="edge">
<title>Node3&#45;&gt;Node1</title>
<path fill="none" stroke="#404040" d="M186.87,-138.2C173.78,-126 159.1,-112.31 145.15,-99.3"/>
<polygon fill="none" stroke="#404040" points="144.89,-99.06 137.77,-97.9 136.11,-90.88 143.23,-92.04 144.89,-99.06"/>
<text text-anchor="middle" x="196.5" y="-112" font-family="Helvetica,sans-Serif" font-size="10.00"> &#45;_elements</text>
</g>
<!-- Node4 -->
<g id="node4" class="node">
<title>Node4</title>
<g id="a_node4"><a xlink:href="$a01587.html" xlink:title=" ">
<polygon fill="white" stroke="black" points="368,-265.5 368,-388.5 545,-388.5 545,-265.5 368,-265.5"/>
<text text-anchor="start" x="376" y="-376.5" font-family="Helvetica,sans-Serif" font-size="10.00">RayTracer::PluginsExt</text>
<text text-anchor="start" x="376" y="-365.5" font-family="Helvetica,sans-Serif" font-size="10.00">::BlackAndWhite::BlackAndWhite</text>
<text text-anchor="middle" x="456.5" y="-354.5" font-family="Helvetica,sans-Serif" font-size="10.00">Filter</text>
<polyline fill="none" stroke="black" points="368,-347.5 545,-347.5 "/>
<text text-anchor="middle" x="456.5" y="-335.5" font-family="Helvetica,sans-Serif" font-size="10.00"> </text>
<polyline fill="none" stroke="black" points="368,-328.5 545,-328.5 "/>
<text text-anchor="start" x="376" y="-316.5" font-family="Helvetica,sans-Serif" font-size="10.00">+ BlackAndWhiteFilter()</text>
<text text-anchor="start" x="376" y="-305.5" font-family="Helvetica,sans-Serif" font-size="10.00">+ apply()</text>
<text text-anchor="start" x="376" y="-294.5" font-family="Helvetica,sans-Serif" font-size="10.00">&#45; waitOnePlace()</text>
<text text-anchor="start" x="376" y="-283.5" font-family="Helvetica,sans-Serif" font-size="10.00">&#45; waitAllFinisehd()</text>
<text text-anchor="start" x="376" y="-272.5" font-family="Helvetica,sans-Serif" font-size="10.00">&#45; getColorsMean()</text>
</a>
</g>
</g>
<!-- Node4&#45;&gt;Node3 -->
<g id="edge3" class="edge">
<title>Node4&#45;&gt;Node3</title>
<path fill="none" stroke="#404040" d="M367.7,-268.75C344.7,-253.92 320.27,-238.17 298.4,-224.07"/>
<polygon fill="none" stroke="#404040" points="298.31,-224.01 291.1,-224.12 288.22,-217.5 295.43,-217.39 298.31,-224.01"/>
<text text-anchor="middle" x="358.5" y="-239" font-family="Helvetica,sans-Serif" font-size="10.00"> +elements</text>
</g>
<!-- Node5 -->
<g id="node5" class="node">
<title>Node5</title>
<g id="a_node5"><a xlink:href="$a01371.html" xlink:title="The IFilter class.">
<polygon fill="white" stroke="black" points="682,-491.5 682,-570.5 783,-570.5 783,-491.5 682,-491.5"/>
<text text-anchor="start" x="690" y="-558.5" font-family="Helvetica,sans-Serif" font-size="10.00">RayTracer::Filters</text>
<text text-anchor="middle" x="732.5" y="-547.5" font-family="Helvetica,sans-Serif" font-size="10.00">::IFilter</text>
<polyline fill="none" stroke="black" points="682,-540.5 783,-540.5 "/>
<text text-anchor="middle" x="732.5" y="-528.5" font-family="Helvetica,sans-Serif" font-size="10.00"> </text>
<polyline fill="none" stroke="black" points="682,-521.5 783,-521.5 "/>
<text text-anchor="start" x="690" y="-509.5" font-family="Helvetica,sans-Serif" font-size="10.00">+ ~IFilter()</text>
<text text-anchor="start" x="690" y="-498.5" font-family="Helvetica,sans-Serif" font-size="10.00">+ apply()</text>
</a>
</g>
</g>
<!-- Node5&#45;&gt;Node4 -->
<g id="edge4" class="edge">
<title>Node5&#45;&gt;Node4</title>
<path fill="none" stroke="midnightblue" d="M696.79,-483.68C689.15,-474.8 680.86,-465.83 672.5,-458 635.05,-422.91 586.6,-392.7 545.07,-370.25"/>
<polygon fill="none" stroke="midnightblue" points="694.2,-486.04 703.32,-491.44 699.56,-481.54 694.2,-486.04"/>
</g>
<!-- Node6 -->
<g id="node6" class="node">
<title>Node6</title>
<g id="a_node6"><a xlink:title=" ">
<polygon fill="white" stroke="#bfbfbf" points="248.5,-497 248.5,-565 378.5,-565 378.5,-497 248.5,-497"/>
<text text-anchor="start" x="256.5" y="-553" font-family="Helvetica,sans-Serif" font-size="10.00">std::vector&lt; std::future</text>
<text text-anchor="middle" x="313.5" y="-542" font-family="Helvetica,sans-Serif" font-size="10.00">&lt; void &gt; &gt;</text>
<polyline fill="none" stroke="#bfbfbf" points="248.5,-535 378.5,-535 "/>
<text text-anchor="middle" x="313.5" y="-523" font-family="Helvetica,sans-Serif" font-size="10.00"> </text>
<polyline fill="none" stroke="#bfbfbf" points="248.5,-516 378.5,-516 "/>
<text text-anchor="middle" x="313.5" y="-504" font-family="Helvetica,sans-Serif" font-size="10.00"> </text>
</a>
</g>
</g>
<!-- Node6&#45;&gt;Node4 -->
<g id="edge5" class="edge">
<title>Node6&#45;&gt;Node4</title>
<path fill="none" stroke="#404040" d="M317.98,-496.98C322.81,-470.69 332.54,-433.97 351.5,-407 353.94,-403.54 356.57,-400.16 359.36,-396.87"/>
<polygon fill="none" stroke="#404040" points="359.5,-396.72 360.61,-389.59 367.61,-387.87 366.51,-394.99 359.5,-396.72"/>
<text text-anchor="middle" x="375" y="-421" font-family="Helvetica,sans-Serif" font-size="10.00"> &#45;_futures</text>
</g>
<!-- Node7 -->
<g id="node7" class="node">
<title>Node7</title>
<g id="a_node7"><a xlink:title=" ">
<polygon fill="white" stroke="#bfbfbf" points="289,-657 289,-714 378,-714 378,-657 289,-657"/>
<text text-anchor="middle" x="333.5" y="-702" font-family="Helvetica,sans-Serif" font-size="10.00">future&lt; void &gt;</text>
<polyline fill="none" stroke="#bfbfbf" points="289,-695 378,-695 "/>
<text text-anchor="middle" x="333.5" y="-683" font-family="Helvetica,sans-Serif" font-size="10.00"> </text>
<polyline fill="none" stroke="#bfbfbf" points="289,-676 378,-676 "/>
<text text-anchor="middle" x="333.5" y="-664" font-family="Helvetica,sans-Serif" font-size="10.00"> </text>
</a>
</g>
</g>
<!-- Node7&#45;&gt;Node6 -->
<g id="edge6" class="edge">
<title>Node7&#45;&gt;Node6</title>
<path fill="none" stroke="#404040" d="M329.88,-656.88C326.98,-634.75 322.84,-603.25 319.46,-577.42"/>
<polygon fill="none" stroke="#404040" points="319.42,-577.16 314.68,-571.73 317.86,-565.26 322.61,-570.69 319.42,-577.16"/>
<text text-anchor="middle" x="355.5" y="-625" font-family="Helvetica,sans-Serif" font-size="10.00"> +elements</text>
</g>
<!-- Node8 -->
<g id="node8" class="node">
<title>Node8</title>
<g id="a_node8"><a xlink:title=" ">
<polygon fill="white" stroke="#bfbfbf" points="126,-657 126,-714 223,-714 223,-657 126,-657"/>
<text text-anchor="middle" x="174.5" y="-702" font-family="Helvetica,sans-Serif" font-size="10.00">std::vector&lt; T &gt;</text>
<polyline fill="none" stroke="#bfbfbf" points="126,-695 223,-695 "/>
<text text-anchor="middle" x="174.5" y="-683" font-family="Helvetica,sans-Serif" font-size="10.00"> </text>
<polyline fill="none" stroke="#bfbfbf" points="126,-676 223,-676 "/>
<text text-anchor="middle" x="174.5" y="-664" font-family="Helvetica,sans-Serif" font-size="10.00"> </text>
</a>
</g>
</g>
<!-- Node8&#45;&gt;Node3 -->
<g id="edge13" class="edge">
<title>Node8&#45;&gt;Node3</title>
<path fill="none" stroke="orange" d="M170.65,-646.73C165.95,-593.16 159.84,-492.16 170.5,-407 179,-339.12 201.21,-262.46 215.54,-217.57"/>
<polygon fill="orange" stroke="orange" points="167.18,-647.15 171.57,-656.79 174.15,-646.51 167.18,-647.15"/>
<text text-anchor="start" x="170.5" y="-432" font-family="Helvetica,sans-Serif" font-size="10.00"> &lt; RayTracer::PluginsExt</text>
<text text-anchor="start" x="170.5" y="-421" font-family="Helvetica,sans-Serif" font-size="10.00">::BlackAndWhite::BlackAndWhite</text>
<text text-anchor="middle" x="251" y="-410" font-family="Helvetica,sans-Serif" font-size="10.00">Filter * &gt;</text>
</g>
<!-- Node8&#45;&gt;Node6 -->
<g id="edge7" class="edge">
<title>Node8&#45;&gt;Node6</title>
<path fill="none" stroke="orange" d="M187.67,-647.44C191.7,-638.65 196.65,-629.62 202.5,-622 219.21,-600.26 242.17,-580.53 262.88,-565.11"/>
<polygon fill="orange" stroke="orange" points="184.37,-646.25 183.66,-656.82 190.81,-649 184.37,-646.25"/>
<text text-anchor="middle" x="262.5" y="-625" font-family="Helvetica,sans-Serif" font-size="10.00"> &lt; std::future&lt; void &gt; &gt;</text>
</g>
<!-- Node9 -->
<g id="node9" class="node">
<title>Node9</title>
<g id="a_node9"><a xlink:title=" ">
<polygon fill="white" stroke="#bfbfbf" points="160,-767.5 160,-824.5 189,-824.5 189,-767.5 160,-767.5"/>
<text text-anchor="middle" x="174.5" y="-812.5" font-family="Helvetica,sans-Serif" font-size="10.00">T</text>
<polyline fill="none" stroke="#bfbfbf" points="160,-805.5 189,-805.5 "/>
<text text-anchor="middle" x="174.5" y="-793.5" font-family="Helvetica,sans-Serif" font-size="10.00"> </text>
<polyline fill="none" stroke="#bfbfbf" points="160,-786.5 189,-786.5 "/>
<text text-anchor="middle" x="174.5" y="-774.5" font-family="Helvetica,sans-Serif" font-size="10.00"> </text>
</a>
</g>
</g>
<!-- Node9&#45;&gt;Node8 -->
<g id="edge8" class="edge">
<title>Node9&#45;&gt;Node8</title>
<path fill="none" stroke="#404040" d="M174.5,-767.34C174.5,-754.84 174.5,-739.84 174.5,-726.18"/>
<polygon fill="none" stroke="#404040" points="174.5,-726.11 170.5,-720.11 174.5,-714.11 178.5,-720.11 174.5,-726.11"/>
<text text-anchor="middle" x="203.5" y="-741" font-family="Helvetica,sans-Serif" font-size="10.00"> +elements</text>
</g>
<!-- Node10 -->
<g id="node10" class="node">
<title>Node10</title>
<g id="a_node10"><a xlink:title=" ">
<polygon fill="white" stroke="#bfbfbf" points="397,-502.5 397,-559.5 426,-559.5 426,-502.5 397,-502.5"/>
<text text-anchor="middle" x="411.5" y="-547.5" font-family="Helvetica,sans-Serif" font-size="10.00">int</text>
<polyline fill="none" stroke="#bfbfbf" points="397,-540.5 426,-540.5 "/>
<text text-anchor="middle" x="411.5" y="-528.5" font-family="Helvetica,sans-Serif" font-size="10.00"> </text>
<polyline fill="none" stroke="#bfbfbf" points="397,-521.5 426,-521.5 "/>
<text text-anchor="middle" x="411.5" y="-509.5" font-family="Helvetica,sans-Serif" font-size="10.00"> </text>
</a>
</g>
</g>
<!-- Node10&#45;&gt;Node4 -->
<g id="edge9" class="edge">
<title>Node10&#45;&gt;Node4</title>
<path fill="none" stroke="#404040" d="M406.23,-502.07C402.52,-476.75 399.63,-438.68 408.5,-407 409.18,-404.59 409.95,-402.17 410.8,-399.77"/>
<polygon fill="none" stroke="#404040" points="410.82,-399.73 409.38,-392.66 415.35,-388.61 416.79,-395.68 410.82,-399.73"/>
<text text-anchor="middle" x="442.5" y="-421" font-family="Helvetica,sans-Serif" font-size="10.00"> &#45;_maxThread</text>
</g>
<!-- Node11 -->
<g id="node11" class="node">
<title>Node11</title>
<g id="a_node11"><a xlink:title=" ">
<polygon fill="white" stroke="#bfbfbf" points="444,-502.5 444,-559.5 509,-559.5 509,-502.5 444,-502.5"/>
<text text-anchor="middle" x="476.5" y="-547.5" font-family="Helvetica,sans-Serif" font-size="10.00">std::string</text>
<polyline fill="none" stroke="#bfbfbf" points="444,-540.5 509,-540.5 "/>
<text text-anchor="middle" x="476.5" y="-528.5" font-family="Helvetica,sans-Serif" font-size="10.00"> </text>
<polyline fill="none" stroke="#bfbfbf" points="444,-521.5 509,-521.5 "/>
<text text-anchor="middle" x="476.5" y="-509.5" font-family="Helvetica,sans-Serif" font-size="10.00"> </text>
</a>
</g>
</g>
<!-- Node11&#45;&gt;Node4 -->
<g id="edge10" class="edge">
<title>Node11&#45;&gt;Node4</title>
<path fill="none" stroke="#404040" d="M480.2,-502.48C482.91,-477.45 485.33,-439.55 480.5,-407 480.2,-404.95 479.85,-402.89 479.47,-400.81"/>
<polygon fill="none" stroke="#404040" points="479.42,-400.57 474.26,-395.54 476.92,-388.83 482.08,-393.87 479.42,-400.57"/>
<text text-anchor="middle" x="507.5" y="-421" font-family="Helvetica,sans-Serif" font-size="10.00"> &#45;_method</text>
</g>
<!-- Node12 -->
<g id="node12" class="node">
<title>Node12</title>
<g id="a_node12"><a xlink:title=" ">
<polygon fill="white" stroke="#bfbfbf" points="424.5,-651.5 424.5,-719.5 528.5,-719.5 528.5,-651.5 424.5,-651.5"/>
<text text-anchor="start" x="432.5" y="-707.5" font-family="Helvetica,sans-Serif" font-size="10.00">std::basic_string&lt;</text>
<text text-anchor="middle" x="476.5" y="-696.5" font-family="Helvetica,sans-Serif" font-size="10.00"> Char &gt;</text>
<polyline fill="none" stroke="#bfbfbf" points="424.5,-689.5 528.5,-689.5 "/>
<text text-anchor="middle" x="476.5" y="-677.5" font-family="Helvetica,sans-Serif" font-size="10.00"> </text>
<polyline fill="none" stroke="#bfbfbf" points="424.5,-670.5 528.5,-670.5 "/>
<text text-anchor="middle" x="476.5" y="-658.5" font-family="Helvetica,sans-Serif" font-size="10.00"> </text>
</a>
</g>
</g>
<!-- Node12&#45;&gt;Node11 -->
<g id="edge11" class="edge">
<title>Node12&#45;&gt;Node11</title>
<path fill="none" stroke="midnightblue" d="M476.5,-641.38C476.5,-615.26 476.5,-582.69 476.5,-559.92"/>
<polygon fill="none" stroke="midnightblue" points="473,-641.41 476.5,-651.41 480,-641.41 473,-641.41"/>
</g>
<!-- Node13 -->
<g id="node13" class="node">
<title>Node13</title>
<g id="a_node13"><a xlink:href="$a01375.html" xlink:title="Logger singleton.">
<polygon fill="white" stroke="black" points="527.5,-458.5 527.5,-603.5 663.5,-603.5 663.5,-458.5 527.5,-458.5"/>
<text text-anchor="middle" x="595.5" y="-591.5" font-family="Helvetica,sans-Serif" font-size="10.00">RayTracer::ILogger</text>
<polyline fill="none" stroke="black" points="527.5,-584.5 663.5,-584.5 "/>
<text text-anchor="middle" x="595.5" y="-572.5" font-family="Helvetica,sans-Serif" font-size="10.00"> </text>
<polyline fill="none" stroke="black" points="527.5,-565.5 663.5,-565.5 "/>
<text text-anchor="start" x="535.5" y="-553.5" font-family="Helvetica,sans-Serif" font-size="10.00">+ ~ILogger()</text>
<text text-anchor="start" x="535.5" y="-542.5" font-family="Helvetica,sans-Serif" font-size="10.00">+ fatal()</text>
<text text-anchor="start" x="535.5" y="-531.5" font-family="Helvetica,sans-Serif" font-size="10.00">+ error()</text>
<text text-anchor="start" x="535.5" y="-520.5" font-family="Helvetica,sans-Serif" font-size="10.00">+ warn()</text>
<text text-anchor="start" x="535.5" y="-509.5" font-family="Helvetica,sans-Serif" font-size="10.00">+ info()</text>
<text text-anchor="start" x="535.5" y="-498.5" font-family="Helvetica,sans-Serif" font-size="10.00">+ debug()</text>
<text text-anchor="start" x="535.5" y="-487.5" font-family="Helvetica,sans-Serif" font-size="10.00">+ trace()</text>
<text text-anchor="start" x="535.5" y="-476.5" font-family="Helvetica,sans-Serif" font-size="10.00">+ subscribeCallback()</text>
<text text-anchor="start" x="535.5" y="-465.5" font-family="Helvetica,sans-Serif" font-size="10.00">+ unsubscribeCallback()</text>
</a>
</g>
</g>
<!-- Node13&#45;&gt;Node4 -->
<g id="edge12" class="edge">
<title>Node13&#45;&gt;Node4</title>
<path fill="none" stroke="#404040" d="M566.25,-458.37C557.76,-440.89 547.71,-422.72 536.5,-407 534.36,-404 532.1,-401.01 529.75,-398.05"/>
<polygon fill="none" stroke="#404040" points="529.64,-397.92 522.73,-395.87 521.97,-388.7 528.88,-390.75 529.64,-397.92"/>
<text text-anchor="middle" x="577" y="-421" font-family="Helvetica,sans-Serif" font-size="10.00"> &#45;_logger</text>
</g>
</g>
</svg>
