<?xml version="1.0" encoding="UTF-8" standalone="no"?>
<!DOCTYPE svg PUBLIC "-//W3C//DTD SVG 1.1//EN"
 "http://www.w3.org/Graphics/SVG/1.1/DTD/svg11.dtd">
<!-- Generated by graphviz version 2.43.0 (0)
 -->
<!-- Title: RayTracer::PluginsExt::AntiAliasing::SSAAx4::SSAAx4Filter Pages: 1 -->
<svg width="133pt" height="270pt"
 viewBox="0.00 0.00 133.00 270.00" xmlns="http://www.w3.org/2000/svg" xmlns:xlink="http://www.w3.org/1999/xlink">
<g id="graph0" class="graph" transform="scale(1 1) rotate(0) translate(4 266)">
<title>RayTracer::PluginsExt::AntiAliasing::SSAAx4::SSAAx4Filter</title>
<polygon fill="white" stroke="transparent" points="-4,4 -4,-266 129,-266 129,4 -4,4"/>
<!-- Node1 -->
<g id="node1" class="node">
<title>Node1</title>
<g id="a_node1"><a xlink:title=" ">
<polygon fill="#bfbfbf" stroke="black" points="0,-0.5 0,-145.5 125,-145.5 125,-0.5 0,-0.5"/>
<text text-anchor="start" x="8" y="-133.5" font-family="Helvetica,sans-Serif" font-size="10.00">RayTracer::PluginsExt</text>
<text text-anchor="start" x="8" y="-122.5" font-family="Helvetica,sans-Serif" font-size="10.00">::AntiAliasing::SSAAx4</text>
<text text-anchor="middle" x="62.5" y="-111.5" font-family="Helvetica,sans-Serif" font-size="10.00">::SSAAx4Filter</text>
<polyline fill="none" stroke="black" points="0,-104.5 125,-104.5 "/>
<text text-anchor="start" x="8" y="-92.5" font-family="Helvetica,sans-Serif" font-size="10.00">&#45; _logger</text>
<text text-anchor="start" x="8" y="-81.5" font-family="Helvetica,sans-Serif" font-size="10.00">&#45; _maxThread</text>
<text text-anchor="start" x="8" y="-70.5" font-family="Helvetica,sans-Serif" font-size="10.00">&#45; _futures</text>
<polyline fill="none" stroke="black" points="0,-63.5 125,-63.5 "/>
<text text-anchor="start" x="8" y="-51.5" font-family="Helvetica,sans-Serif" font-size="10.00">+ SSAAx4Filter()</text>
<text text-anchor="start" x="8" y="-40.5" font-family="Helvetica,sans-Serif" font-size="10.00">+ apply()</text>
<text text-anchor="start" x="8" y="-29.5" font-family="Helvetica,sans-Serif" font-size="10.00">&#45; waitOnePlace()</text>
<text text-anchor="start" x="8" y="-18.5" font-family="Helvetica,sans-Serif" font-size="10.00">&#45; waitAllFinisehd()</text>
<text text-anchor="start" x="8" y="-7.5" font-family="Helvetica,sans-Serif" font-size="10.00">&#45; getColorsMean()</text>
</a>
</g>
</g>
<!-- Node2 -->
<g id="node2" class="node">
<title>Node2</title>
<g id="a_node2"><a xlink:href="$a01358.html" xlink:title="The IFilter class.">
<polygon fill="white" stroke="black" points="12,-182.5 12,-261.5 113,-261.5 113,-182.5 12,-182.5"/>
<text text-anchor="start" x="20" y="-249.5" font-family="Helvetica,sans-Serif" font-size="10.00">RayTracer::Filters</text>
<text text-anchor="middle" x="62.5" y="-238.5" font-family="Helvetica,sans-Serif" font-size="10.00">::IFilter</text>
<polyline fill="none" stroke="black" points="12,-231.5 113,-231.5 "/>
<text text-anchor="middle" x="62.5" y="-219.5" font-family="Helvetica,sans-Serif" font-size="10.00"> </text>
<polyline fill="none" stroke="black" points="12,-212.5 113,-212.5 "/>
<text text-anchor="start" x="20" y="-200.5" font-family="Helvetica,sans-Serif" font-size="10.00">+ ~IFilter()</text>
<text text-anchor="start" x="20" y="-189.5" font-family="Helvetica,sans-Serif" font-size="10.00">+ apply()</text>
</a>
</g>
</g>
<!-- Node2&#45;&gt;Node1 -->
<g id="edge1" class="edge">
<title>Node2&#45;&gt;Node1</title>
<path fill="none" stroke="midnightblue" d="M62.5,-172.24C62.5,-163.7 62.5,-154.65 62.5,-145.64"/>
<polygon fill="none" stroke="midnightblue" points="59,-172.38 62.5,-182.38 66,-172.38 59,-172.38"/>
</g>
</g>
</svg>
