<?xml version="1.0" encoding="UTF-8" standalone="no"?>
<!DOCTYPE svg PUBLIC "-//W3C//DTD SVG 1.1//EN"
 "http://www.w3.org/Graphics/SVG/1.1/DTD/svg11.dtd">
<!-- Generated by graphviz version 2.43.0 (0)
 -->
<!-- Title: RayTracer::PluginsExt::Camera::Clustered::ClusterRayIterator Pages: 1 -->
<svg width="133pt" height="281pt"
 viewBox="0.00 0.00 133.00 281.00" xmlns="http://www.w3.org/2000/svg" xmlns:xlink="http://www.w3.org/1999/xlink">
<g id="graph0" class="graph" transform="scale(1 1) rotate(0) translate(4 277)">
<title>RayTracer::PluginsExt::Camera::Clustered::ClusterRayIterator</title>
<polygon fill="white" stroke="transparent" points="-4,4 -4,-277 129,-277 129,4 -4,4"/>
<!-- Node1 -->
<g id="node1" class="node">
<title>Node1</title>
<g id="a_node1"><a xlink:title="The ClusterRayIterator class.">
<polygon fill="#bfbfbf" stroke="black" points="0,-0.5 0,-145.5 125,-145.5 125,-0.5 0,-0.5"/>
<text text-anchor="start" x="8" y="-133.5" font-family="Helvetica,sans-Serif" font-size="10.00">RayTracer::PluginsExt</text>
<text text-anchor="start" x="8" y="-122.5" font-family="Helvetica,sans-Serif" font-size="10.00">::Camera::Clustered::</text>
<text text-anchor="middle" x="62.5" y="-111.5" font-family="Helvetica,sans-Serif" font-size="10.00">ClusterRayIterator</text>
<polyline fill="none" stroke="black" points="0,-104.5 125,-104.5 "/>
<text text-anchor="start" x="8" y="-92.5" font-family="Helvetica,sans-Serif" font-size="10.00">&#45; _cameraPos</text>
<text text-anchor="start" x="8" y="-81.5" font-family="Helvetica,sans-Serif" font-size="10.00">&#45; _screenPosCenter</text>
<text text-anchor="start" x="8" y="-70.5" font-family="Helvetica,sans-Serif" font-size="10.00">&#45; _screenPosTopLeft</text>
<text text-anchor="start" x="8" y="-59.5" font-family="Helvetica,sans-Serif" font-size="10.00">&#45; _screenSize</text>
<text text-anchor="start" x="8" y="-48.5" font-family="Helvetica,sans-Serif" font-size="10.00">&#45; _unit</text>
<polyline fill="none" stroke="black" points="0,-41.5 125,-41.5 "/>
<text text-anchor="start" x="8" y="-29.5" font-family="Helvetica,sans-Serif" font-size="10.00">+ ClusterRayIterator()</text>
<text text-anchor="start" x="8" y="-18.5" font-family="Helvetica,sans-Serif" font-size="10.00">+ begin()</text>
<text text-anchor="start" x="8" y="-7.5" font-family="Helvetica,sans-Serif" font-size="10.00">+ end()</text>
</a>
</g>
</g>
<!-- Node2 -->
<g id="node2" class="node">
<title>Node2</title>
<g id="a_node2"><a xlink:href="$a01329.html" xlink:title="The RayIterator class.">
<polygon fill="white" stroke="black" points="6,-182.5 6,-272.5 119,-272.5 119,-182.5 6,-182.5"/>
<text text-anchor="start" x="14" y="-260.5" font-family="Helvetica,sans-Serif" font-size="10.00">RayTracer::Images::</text>
<text text-anchor="middle" x="62.5" y="-249.5" font-family="Helvetica,sans-Serif" font-size="10.00">IRayIterator</text>
<polyline fill="none" stroke="black" points="6,-242.5 119,-242.5 "/>
<text text-anchor="middle" x="62.5" y="-230.5" font-family="Helvetica,sans-Serif" font-size="10.00"> </text>
<polyline fill="none" stroke="black" points="6,-223.5 119,-223.5 "/>
<text text-anchor="start" x="14" y="-211.5" font-family="Helvetica,sans-Serif" font-size="10.00">+ ~IRayIterator()</text>
<text text-anchor="start" x="14" y="-200.5" font-family="Helvetica,sans-Serif" font-size="10.00">+ begin()</text>
<text text-anchor="start" x="14" y="-189.5" font-family="Helvetica,sans-Serif" font-size="10.00">+ end()</text>
</a>
</g>
</g>
<!-- Node2&#45;&gt;Node1 -->
<g id="edge1" class="edge">
<title>Node2&#45;&gt;Node1</title>
<path fill="none" stroke="midnightblue" d="M62.5,-172.13C62.5,-163.53 62.5,-154.52 62.5,-145.59"/>
<polygon fill="none" stroke="midnightblue" points="59,-172.39 62.5,-182.39 66,-172.39 59,-172.39"/>
</g>
</g>
</svg>
