<?xml version="1.0" encoding="UTF-8" standalone="no"?>
<!DOCTYPE svg PUBLIC "-//W3C//DTD SVG 1.1//EN"
 "http://www.w3.org/Graphics/SVG/1.1/DTD/svg11.dtd">
<!-- Generated by graphviz version 2.43.0 (0)
 -->
<!-- Title: RayTracer::PluginsExt::SpotLight::SpotLightCreator Pages: 1 -->
<svg width="727pt" height="1163pt"
 viewBox="0.00 0.00 726.50 1163.00" xmlns="http://www.w3.org/2000/svg" xmlns:xlink="http://www.w3.org/1999/xlink">
<g id="graph0" class="graph" transform="scale(1 1) rotate(0) translate(4 1159)">
<title>RayTracer::PluginsExt::SpotLight::SpotLightCreator</title>
<polygon fill="white" stroke="transparent" points="-4,4 -4,-1159 722.5,-1159 722.5,4 -4,4"/>
<!-- Node1 -->
<g id="node1" class="node">
<title>Node1</title>
<g id="a_node1"><a xlink:title=" ">
<polygon fill="#bfbfbf" stroke="black" points="312.5,-0.5 312.5,-79.5 468.5,-79.5 468.5,-0.5 312.5,-0.5"/>
<text text-anchor="start" x="320.5" y="-67.5" font-family="Helvetica,sans-Serif" font-size="10.00">RayTracer::PluginsExt</text>
<text text-anchor="middle" x="390.5" y="-56.5" font-family="Helvetica,sans-Serif" font-size="10.00">::SpotLight::SpotLightCreator</text>
<polyline fill="none" stroke="black" points="312.5,-49.5 468.5,-49.5 "/>
<text text-anchor="middle" x="390.5" y="-37.5" font-family="Helvetica,sans-Serif" font-size="10.00"> </text>
<polyline fill="none" stroke="black" points="312.5,-30.5 468.5,-30.5 "/>
<text text-anchor="start" x="320.5" y="-18.5" font-family="Helvetica,sans-Serif" font-size="10.00">+ create()</text>
<text text-anchor="start" x="320.5" y="-7.5" font-family="Helvetica,sans-Serif" font-size="10.00">+ ~SpotLightCreator()</text>
</a>
</g>
</g>
<!-- Node2 -->
<g id="node2" class="node">
<title>Node2</title>
<g id="a_node2"><a xlink:href="$a01329.html" xlink:title="The IEntityCreator.">
<polygon fill="white" stroke="black" points="308,-127.5 308,-206.5 441,-206.5 441,-127.5 308,-127.5"/>
<text text-anchor="start" x="316" y="-194.5" font-family="Helvetica,sans-Serif" font-size="10.00">RayTracer::Plugins</text>
<text text-anchor="middle" x="374.5" y="-183.5" font-family="Helvetica,sans-Serif" font-size="10.00">::Entities::IEntityCreator</text>
<polyline fill="none" stroke="black" points="308,-176.5 441,-176.5 "/>
<text text-anchor="middle" x="374.5" y="-164.5" font-family="Helvetica,sans-Serif" font-size="10.00"> </text>
<polyline fill="none" stroke="black" points="308,-157.5 441,-157.5 "/>
<text text-anchor="start" x="316" y="-145.5" font-family="Helvetica,sans-Serif" font-size="10.00">+ ~IEntityCreator()</text>
<text text-anchor="start" x="316" y="-134.5" font-family="Helvetica,sans-Serif" font-size="10.00">+ create()</text>
</a>
</g>
</g>
<!-- Node2&#45;&gt;Node1 -->
<g id="edge1" class="edge">
<title>Node2&#45;&gt;Node1</title>
<path fill="none" stroke="midnightblue" d="M380.74,-117.22C382.34,-104.74 384.04,-91.5 385.56,-79.61"/>
<polygon fill="none" stroke="midnightblue" points="377.23,-117.11 379.43,-127.48 384.17,-118 377.23,-117.11"/>
</g>
<!-- Node3 -->
<g id="node3" class="node">
<title>Node3</title>
<g id="a_node3"><a xlink:title=" ">
<polygon fill="white" stroke="#bfbfbf" points="459.5,-127.5 459.5,-206.5 587.5,-206.5 587.5,-127.5 459.5,-127.5"/>
<text text-anchor="start" x="467.5" y="-194.5" font-family="Helvetica,sans-Serif" font-size="10.00">std::vector&lt; RayTracer</text>
<text text-anchor="start" x="467.5" y="-183.5" font-family="Helvetica,sans-Serif" font-size="10.00">::PluginsExt::SpotLight</text>
<text text-anchor="middle" x="523.5" y="-172.5" font-family="Helvetica,sans-Serif" font-size="10.00">::SpotLightEntity * &gt;</text>
<polyline fill="none" stroke="#bfbfbf" points="459.5,-165.5 587.5,-165.5 "/>
<text text-anchor="middle" x="523.5" y="-153.5" font-family="Helvetica,sans-Serif" font-size="10.00"> </text>
<polyline fill="none" stroke="#bfbfbf" points="459.5,-146.5 587.5,-146.5 "/>
<text text-anchor="middle" x="523.5" y="-134.5" font-family="Helvetica,sans-Serif" font-size="10.00"> </text>
</a>
</g>
</g>
<!-- Node3&#45;&gt;Node1 -->
<g id="edge2" class="edge">
<title>Node3&#45;&gt;Node1</title>
<path fill="none" stroke="#404040" d="M482.51,-127.48C469.24,-115 454.37,-101.02 440.51,-88"/>
<polygon fill="none" stroke="#404040" points="440.33,-87.83 433.22,-86.64 431.58,-79.61 438.69,-80.81 440.33,-87.83"/>
<text text-anchor="middle" x="490.5" y="-101" font-family="Helvetica,sans-Serif" font-size="10.00"> &#45;_elements</text>
</g>
<!-- Node4 -->
<g id="node4" class="node">
<title>Node4</title>
<g id="a_node4"><a xlink:href="$a01593.html" xlink:title=" ">
<polygon fill="white" stroke="black" points="371,-265.5 371,-432.5 520,-432.5 520,-265.5 371,-265.5"/>
<text text-anchor="start" x="379" y="-420.5" font-family="Helvetica,sans-Serif" font-size="10.00">RayTracer::PluginsExt</text>
<text text-anchor="middle" x="445.5" y="-409.5" font-family="Helvetica,sans-Serif" font-size="10.00">::SpotLight::SpotLightEntity</text>
<polyline fill="none" stroke="black" points="371,-402.5 520,-402.5 "/>
<text text-anchor="middle" x="445.5" y="-390.5" font-family="Helvetica,sans-Serif" font-size="10.00"> </text>
<polyline fill="none" stroke="black" points="371,-383.5 520,-383.5 "/>
<text text-anchor="start" x="379" y="-371.5" font-family="Helvetica,sans-Serif" font-size="10.00">+ SpotLightEntity()</text>
<text text-anchor="start" x="379" y="-360.5" font-family="Helvetica,sans-Serif" font-size="10.00">+ ~SpotLightEntity()</text>
<text text-anchor="start" x="379" y="-349.5" font-family="Helvetica,sans-Serif" font-size="10.00">+ getType()</text>
<text text-anchor="start" x="379" y="-338.5" font-family="Helvetica,sans-Serif" font-size="10.00">+ getTransform()</text>
<text text-anchor="start" x="379" y="-327.5" font-family="Helvetica,sans-Serif" font-size="10.00">+ getTransform()</text>
<text text-anchor="start" x="379" y="-316.5" font-family="Helvetica,sans-Serif" font-size="10.00">+ getColor()</text>
<text text-anchor="start" x="379" y="-305.5" font-family="Helvetica,sans-Serif" font-size="10.00">+ getColor()</text>
<text text-anchor="start" x="379" y="-294.5" font-family="Helvetica,sans-Serif" font-size="10.00">+ setColor()</text>
<text text-anchor="start" x="379" y="-283.5" font-family="Helvetica,sans-Serif" font-size="10.00">+ isAmbient()</text>
<text text-anchor="start" x="379" y="-272.5" font-family="Helvetica,sans-Serif" font-size="10.00">+ getPower()</text>
</a>
</g>
</g>
<!-- Node4&#45;&gt;Node3 -->
<g id="edge3" class="edge">
<title>Node4&#45;&gt;Node3</title>
<path fill="none" stroke="#404040" d="M474.46,-265.24C479.78,-251.65 485.55,-237.82 491.5,-225 492.69,-222.44 493.95,-219.84 495.26,-217.22"/>
<polygon fill="none" stroke="#404040" points="495.29,-217.17 494.51,-210 500.83,-206.52 501.6,-213.69 495.29,-217.17"/>
<text text-anchor="middle" x="520.5" y="-233.5" font-family="Helvetica,sans-Serif" font-size="10.00"> +elements</text>
</g>
<!-- Node5 -->
<g id="node5" class="node">
<title>Node5</title>
<g id="a_node5"><a xlink:href="$a01193.html" xlink:title="The ILight class.">
<polygon fill="white" stroke="black" points="70,-491.5 70,-614.5 177,-614.5 177,-491.5 70,-491.5"/>
<text text-anchor="start" x="78" y="-602.5" font-family="Helvetica,sans-Serif" font-size="10.00">RayTracer::Entities</text>
<text text-anchor="middle" x="123.5" y="-591.5" font-family="Helvetica,sans-Serif" font-size="10.00">::ILight</text>
<polyline fill="none" stroke="black" points="70,-584.5 177,-584.5 "/>
<text text-anchor="middle" x="123.5" y="-572.5" font-family="Helvetica,sans-Serif" font-size="10.00"> </text>
<polyline fill="none" stroke="black" points="70,-565.5 177,-565.5 "/>
<text text-anchor="start" x="78" y="-553.5" font-family="Helvetica,sans-Serif" font-size="10.00">+ ~ILight()</text>
<text text-anchor="start" x="78" y="-542.5" font-family="Helvetica,sans-Serif" font-size="10.00">+ getColor()</text>
<text text-anchor="start" x="78" y="-531.5" font-family="Helvetica,sans-Serif" font-size="10.00">+ getColor()</text>
<text text-anchor="start" x="78" y="-520.5" font-family="Helvetica,sans-Serif" font-size="10.00">+ setColor()</text>
<text text-anchor="start" x="78" y="-509.5" font-family="Helvetica,sans-Serif" font-size="10.00">+ isAmbient()</text>
<text text-anchor="start" x="78" y="-498.5" font-family="Helvetica,sans-Serif" font-size="10.00">+ getPower()</text>
</a>
</g>
</g>
<!-- Node5&#45;&gt;Node4 -->
<g id="edge4" class="edge">
<title>Node5&#45;&gt;Node4</title>
<path fill="none" stroke="midnightblue" d="M185.64,-513.02C238.5,-479.86 314.55,-432.15 370.74,-396.9"/>
<polygon fill="none" stroke="midnightblue" points="183.64,-510.14 177.03,-518.42 187.36,-516.07 183.64,-510.14"/>
</g>
<!-- Node6 -->
<g id="node6" class="node">
<title>Node6</title>
<g id="a_node6"><a xlink:href="$a01189.html" xlink:title="The IEntity class.">
<polygon fill="white" stroke="black" points="0,-805.5 0,-906.5 107,-906.5 107,-805.5 0,-805.5"/>
<text text-anchor="start" x="8" y="-894.5" font-family="Helvetica,sans-Serif" font-size="10.00">RayTracer::Entities</text>
<text text-anchor="middle" x="53.5" y="-883.5" font-family="Helvetica,sans-Serif" font-size="10.00">::IEntity</text>
<polyline fill="none" stroke="black" points="0,-876.5 107,-876.5 "/>
<text text-anchor="middle" x="53.5" y="-864.5" font-family="Helvetica,sans-Serif" font-size="10.00"> </text>
<polyline fill="none" stroke="black" points="0,-857.5 107,-857.5 "/>
<text text-anchor="start" x="8" y="-845.5" font-family="Helvetica,sans-Serif" font-size="10.00">+ ~IEntity()</text>
<text text-anchor="start" x="8" y="-834.5" font-family="Helvetica,sans-Serif" font-size="10.00">+ getTransform()</text>
<text text-anchor="start" x="8" y="-823.5" font-family="Helvetica,sans-Serif" font-size="10.00">+ getTransform()</text>
<text text-anchor="start" x="8" y="-812.5" font-family="Helvetica,sans-Serif" font-size="10.00">+ getType()</text>
</a>
</g>
</g>
<!-- Node6&#45;&gt;Node5 -->
<g id="edge5" class="edge">
<title>Node6&#45;&gt;Node5</title>
<path fill="none" stroke="midnightblue" d="M67.34,-795.49C79.51,-743.16 97.14,-667.36 109.39,-614.69"/>
<polygon fill="none" stroke="midnightblue" points="63.92,-794.76 65.06,-805.3 70.73,-796.35 63.92,-794.76"/>
</g>
<!-- Node7 -->
<g id="node7" class="node">
<title>Node7</title>
<g id="a_node7"><a xlink:href="$a01209.html" xlink:title="The Transform class.">
<polygon fill="white" stroke="black" points="264.5,-480.5 264.5,-625.5 390.5,-625.5 390.5,-480.5 264.5,-480.5"/>
<text text-anchor="start" x="272.5" y="-613.5" font-family="Helvetica,sans-Serif" font-size="10.00">RayTracer::Entities</text>
<text text-anchor="middle" x="327.5" y="-602.5" font-family="Helvetica,sans-Serif" font-size="10.00">::Transform::Transform</text>
<polyline fill="none" stroke="black" points="264.5,-595.5 390.5,-595.5 "/>
<text text-anchor="middle" x="327.5" y="-583.5" font-family="Helvetica,sans-Serif" font-size="10.00"> </text>
<polyline fill="none" stroke="black" points="264.5,-576.5 390.5,-576.5 "/>
<text text-anchor="start" x="272.5" y="-564.5" font-family="Helvetica,sans-Serif" font-size="10.00">+ Transform()</text>
<text text-anchor="start" x="272.5" y="-553.5" font-family="Helvetica,sans-Serif" font-size="10.00">+ setPosition()</text>
<text text-anchor="start" x="272.5" y="-542.5" font-family="Helvetica,sans-Serif" font-size="10.00">+ getPosition()</text>
<text text-anchor="start" x="272.5" y="-531.5" font-family="Helvetica,sans-Serif" font-size="10.00">+ setRotation()</text>
<text text-anchor="start" x="272.5" y="-520.5" font-family="Helvetica,sans-Serif" font-size="10.00">+ getRotation()</text>
<text text-anchor="start" x="272.5" y="-509.5" font-family="Helvetica,sans-Serif" font-size="10.00">+ setScale()</text>
<text text-anchor="start" x="272.5" y="-498.5" font-family="Helvetica,sans-Serif" font-size="10.00">+ getScale()</text>
<text text-anchor="start" x="272.5" y="-487.5" font-family="Helvetica,sans-Serif" font-size="10.00">+ operator=()</text>
</a>
</g>
</g>
<!-- Node7&#45;&gt;Node4 -->
<g id="edge6" class="edge">
<title>Node7&#45;&gt;Node4</title>
<path fill="none" stroke="#404040" d="M333.04,-480.38C335.47,-470.18 338.84,-460.08 343.5,-451 348.83,-440.6 355.63,-430.63 363.18,-421.27"/>
<polygon fill="none" stroke="#404040" points="363.18,-421.27 364.02,-414.1 370.95,-412.12 370.11,-419.29 363.18,-421.27"/>
<text text-anchor="middle" x="374" y="-454" font-family="Helvetica,sans-Serif" font-size="10.00"> &#45;_transform</text>
</g>
<!-- Node8 -->
<g id="node8" class="node">
<title>Node8</title>
<g id="a_node8"><a xlink:href="$a01205.html" xlink:title="The ITransform class.">
<polygon fill="white" stroke="black" points="125,-783.5 125,-928.5 254,-928.5 254,-783.5 125,-783.5"/>
<text text-anchor="start" x="133" y="-916.5" font-family="Helvetica,sans-Serif" font-size="10.00">RayTracer::Entities</text>
<text text-anchor="middle" x="189.5" y="-905.5" font-family="Helvetica,sans-Serif" font-size="10.00">::Transform::ITransform</text>
<polyline fill="none" stroke="black" points="125,-898.5 254,-898.5 "/>
<text text-anchor="middle" x="189.5" y="-886.5" font-family="Helvetica,sans-Serif" font-size="10.00"> </text>
<polyline fill="none" stroke="black" points="125,-879.5 254,-879.5 "/>
<text text-anchor="start" x="133" y="-867.5" font-family="Helvetica,sans-Serif" font-size="10.00">+ ~ITransform()</text>
<text text-anchor="start" x="133" y="-856.5" font-family="Helvetica,sans-Serif" font-size="10.00">+ setPosition()</text>
<text text-anchor="start" x="133" y="-845.5" font-family="Helvetica,sans-Serif" font-size="10.00">+ getPosition()</text>
<text text-anchor="start" x="133" y="-834.5" font-family="Helvetica,sans-Serif" font-size="10.00">+ setRotation()</text>
<text text-anchor="start" x="133" y="-823.5" font-family="Helvetica,sans-Serif" font-size="10.00">+ getRotation()</text>
<text text-anchor="start" x="133" y="-812.5" font-family="Helvetica,sans-Serif" font-size="10.00">+ setScale()</text>
<text text-anchor="start" x="133" y="-801.5" font-family="Helvetica,sans-Serif" font-size="10.00">+ getScale()</text>
<text text-anchor="start" x="133" y="-790.5" font-family="Helvetica,sans-Serif" font-size="10.00">+ operator=()</text>
</a>
</g>
</g>
<!-- Node8&#45;&gt;Node7 -->
<g id="edge7" class="edge">
<title>Node8&#45;&gt;Node7</title>
<path fill="none" stroke="midnightblue" d="M226.55,-774.19C247.77,-727.91 274.16,-670.35 294.63,-625.69"/>
<polygon fill="none" stroke="midnightblue" points="223.37,-772.74 222.38,-783.29 229.73,-775.65 223.37,-772.74"/>
</g>
<!-- Node9 -->
<g id="node9" class="node">
<title>Node9</title>
<g id="a_node9"><a xlink:href="$a01217.html" xlink:title="The Vector3f class.">
<polygon fill="white" stroke="black" points="272.5,-695.5 272.5,-1016.5 390.5,-1016.5 390.5,-695.5 272.5,-695.5"/>
<text text-anchor="start" x="280.5" y="-1004.5" font-family="Helvetica,sans-Serif" font-size="10.00">RayTracer::Entities</text>
<text text-anchor="middle" x="331.5" y="-993.5" font-family="Helvetica,sans-Serif" font-size="10.00">::Transform::Vector3f</text>
<polyline fill="none" stroke="black" points="272.5,-986.5 390.5,-986.5 "/>
<text text-anchor="middle" x="331.5" y="-974.5" font-family="Helvetica,sans-Serif" font-size="10.00"> </text>
<polyline fill="none" stroke="black" points="272.5,-967.5 390.5,-967.5 "/>
<text text-anchor="start" x="280.5" y="-955.5" font-family="Helvetica,sans-Serif" font-size="10.00">+ ~Vector3f()</text>
<text text-anchor="start" x="280.5" y="-944.5" font-family="Helvetica,sans-Serif" font-size="10.00">+ Vector3f()</text>
<text text-anchor="start" x="280.5" y="-933.5" font-family="Helvetica,sans-Serif" font-size="10.00">+ Vector3f()</text>
<text text-anchor="start" x="280.5" y="-922.5" font-family="Helvetica,sans-Serif" font-size="10.00">+ Vector3f()</text>
<text text-anchor="start" x="280.5" y="-911.5" font-family="Helvetica,sans-Serif" font-size="10.00">+ Vector3f()</text>
<text text-anchor="start" x="280.5" y="-900.5" font-family="Helvetica,sans-Serif" font-size="10.00">+ operator+()</text>
<text text-anchor="start" x="280.5" y="-889.5" font-family="Helvetica,sans-Serif" font-size="10.00">+ operator&#45;()</text>
<text text-anchor="start" x="280.5" y="-878.5" font-family="Helvetica,sans-Serif" font-size="10.00">+ operator*()</text>
<text text-anchor="start" x="280.5" y="-867.5" font-family="Helvetica,sans-Serif" font-size="10.00">+ operator/()</text>
<text text-anchor="start" x="280.5" y="-856.5" font-family="Helvetica,sans-Serif" font-size="10.00">+ operator=()</text>
<text text-anchor="start" x="280.5" y="-845.5" font-family="Helvetica,sans-Serif" font-size="10.00">+ getX()</text>
<text text-anchor="start" x="280.5" y="-834.5" font-family="Helvetica,sans-Serif" font-size="10.00">+ getY()</text>
<text text-anchor="start" x="280.5" y="-823.5" font-family="Helvetica,sans-Serif" font-size="10.00">+ getZ()</text>
<text text-anchor="start" x="280.5" y="-812.5" font-family="Helvetica,sans-Serif" font-size="10.00">+ getNorm()</text>
<text text-anchor="start" x="280.5" y="-801.5" font-family="Helvetica,sans-Serif" font-size="10.00">+ getNormalized()</text>
<text text-anchor="start" x="280.5" y="-790.5" font-family="Helvetica,sans-Serif" font-size="10.00">+ dot()</text>
<text text-anchor="start" x="280.5" y="-779.5" font-family="Helvetica,sans-Serif" font-size="10.00">+ getDistance()</text>
<text text-anchor="start" x="280.5" y="-768.5" font-family="Helvetica,sans-Serif" font-size="10.00">+ toDegrees()</text>
<text text-anchor="start" x="280.5" y="-757.5" font-family="Helvetica,sans-Serif" font-size="10.00">+ toRadians()</text>
<text text-anchor="start" x="280.5" y="-746.5" font-family="Helvetica,sans-Serif" font-size="10.00">+ rotateVector()</text>
<text text-anchor="start" x="280.5" y="-735.5" font-family="Helvetica,sans-Serif" font-size="10.00">+ getAngle()</text>
<text text-anchor="start" x="280.5" y="-724.5" font-family="Helvetica,sans-Serif" font-size="10.00">+ rotateX()</text>
<text text-anchor="start" x="280.5" y="-713.5" font-family="Helvetica,sans-Serif" font-size="10.00">+ rotateY()</text>
<text text-anchor="start" x="280.5" y="-702.5" font-family="Helvetica,sans-Serif" font-size="10.00">+ rotateZ()</text>
</a>
</g>
</g>
<!-- Node9&#45;&gt;Node7 -->
<g id="edge8" class="edge">
<title>Node9&#45;&gt;Node7</title>
<path fill="none" stroke="#404040" d="M329.38,-695.25C329.11,-675.47 328.85,-655.9 328.62,-637.93"/>
<polygon fill="none" stroke="#404040" points="328.61,-637.75 324.53,-631.8 328.45,-625.75 332.53,-631.7 328.61,-637.75"/>
<text text-anchor="middle" x="355.5" y="-669" font-family="Helvetica,sans-Serif" font-size="10.00"> &#45;_position</text>
<text text-anchor="middle" x="355.5" y="-658" font-family="Helvetica,sans-Serif" font-size="10.00">&#45;_rotation</text>
<text text-anchor="middle" x="355.5" y="-647" font-family="Helvetica,sans-Serif" font-size="10.00">&#45;_scale</text>
</g>
<!-- Node10 -->
<g id="node10" class="node">
<title>Node10</title>
<g id="a_node10"><a xlink:title=" ">
<polygon fill="white" stroke="#bfbfbf" points="393.5,-1097.5 393.5,-1154.5 443.5,-1154.5 443.5,-1097.5 393.5,-1097.5"/>
<text text-anchor="middle" x="418.5" y="-1142.5" font-family="Helvetica,sans-Serif" font-size="10.00">double</text>
<polyline fill="none" stroke="#bfbfbf" points="393.5,-1135.5 443.5,-1135.5 "/>
<text text-anchor="middle" x="418.5" y="-1123.5" font-family="Helvetica,sans-Serif" font-size="10.00"> </text>
<polyline fill="none" stroke="#bfbfbf" points="393.5,-1116.5 443.5,-1116.5 "/>
<text text-anchor="middle" x="418.5" y="-1104.5" font-family="Helvetica,sans-Serif" font-size="10.00"> </text>
</a>
</g>
</g>
<!-- Node10&#45;&gt;Node4 -->
<g id="edge10" class="edge">
<title>Node10&#45;&gt;Node4</title>
<path fill="none" stroke="#404040" d="M419.46,-1097.42C423.09,-993.35 436.04,-621.5 442.2,-444.7"/>
<polygon fill="none" stroke="#404040" points="442.21,-444.56 438.42,-438.42 442.62,-432.57 446.41,-438.7 442.21,-444.56"/>
<text text-anchor="middle" x="455.5" y="-669" font-family="Helvetica,sans-Serif" font-size="10.00"> &#45;_angle</text>
<text text-anchor="middle" x="455.5" y="-658" font-family="Helvetica,sans-Serif" font-size="10.00">&#45;_power</text>
<text text-anchor="middle" x="455.5" y="-647" font-family="Helvetica,sans-Serif" font-size="10.00">&#45;_radius</text>
</g>
<!-- Node10&#45;&gt;Node9 -->
<g id="edge9" class="edge">
<title>Node10&#45;&gt;Node9</title>
<path fill="none" stroke="#404040" d="M396.1,-1097.34C392.14,-1091.52 388.37,-1085.25 385.5,-1079 378.1,-1062.88 371.64,-1045.63 366.01,-1028.12"/>
<polygon fill="none" stroke="#404040" points="365.99,-1028.05 360.39,-1023.5 362.43,-1016.59 368.03,-1021.13 365.99,-1028.05"/>
<text text-anchor="middle" x="395" y="-1065.5" font-family="Helvetica,sans-Serif" font-size="10.00"> &#45;_x</text>
<text text-anchor="middle" x="395" y="-1054.5" font-family="Helvetica,sans-Serif" font-size="10.00">&#45;_y</text>
<text text-anchor="middle" x="395" y="-1043.5" font-family="Helvetica,sans-Serif" font-size="10.00">&#45;_z</text>
</g>
<!-- Node11 -->
<g id="node11" class="node">
<title>Node11</title>
<g id="a_node11"><a xlink:href="$a01257.html" xlink:title="The Color class.">
<polygon fill="white" stroke="black" points="447,-745 447,-967 560,-967 560,-745 447,-745"/>
<text text-anchor="start" x="455" y="-955" font-family="Helvetica,sans-Serif" font-size="10.00">RayTracer::Images::</text>
<text text-anchor="middle" x="503.5" y="-944" font-family="Helvetica,sans-Serif" font-size="10.00">Color</text>
<polyline fill="none" stroke="black" points="447,-937 560,-937 "/>
<text text-anchor="middle" x="503.5" y="-925" font-family="Helvetica,sans-Serif" font-size="10.00"> </text>
<polyline fill="none" stroke="black" points="447,-918 560,-918 "/>
<text text-anchor="start" x="455" y="-906" font-family="Helvetica,sans-Serif" font-size="10.00">+ ~Color()</text>
<text text-anchor="start" x="455" y="-895" font-family="Helvetica,sans-Serif" font-size="10.00">+ Color()</text>
<text text-anchor="start" x="455" y="-884" font-family="Helvetica,sans-Serif" font-size="10.00">+ Color()</text>
<text text-anchor="start" x="455" y="-873" font-family="Helvetica,sans-Serif" font-size="10.00">+ Color()</text>
<text text-anchor="start" x="455" y="-862" font-family="Helvetica,sans-Serif" font-size="10.00">+ operator+()</text>
<text text-anchor="start" x="455" y="-851" font-family="Helvetica,sans-Serif" font-size="10.00">+ operator&#45;()</text>
<text text-anchor="start" x="455" y="-840" font-family="Helvetica,sans-Serif" font-size="10.00">+ operator*()</text>
<text text-anchor="start" x="455" y="-829" font-family="Helvetica,sans-Serif" font-size="10.00">+ operator/()</text>
<text text-anchor="start" x="455" y="-818" font-family="Helvetica,sans-Serif" font-size="10.00">+ operator=()</text>
<text text-anchor="start" x="455" y="-807" font-family="Helvetica,sans-Serif" font-size="10.00">+ operator[]()</text>
<text text-anchor="start" x="455" y="-796" font-family="Helvetica,sans-Serif" font-size="10.00">+ operator[]()</text>
<text text-anchor="start" x="455" y="-785" font-family="Helvetica,sans-Serif" font-size="10.00">+ set()</text>
<text text-anchor="start" x="455" y="-774" font-family="Helvetica,sans-Serif" font-size="10.00">+ applyAlpha()</text>
<text text-anchor="start" x="455" y="-763" font-family="Helvetica,sans-Serif" font-size="10.00">+ mergeColor()</text>
<text text-anchor="start" x="455" y="-752" font-family="Helvetica,sans-Serif" font-size="10.00">+ applyDistance()</text>
</a>
</g>
</g>
<!-- Node10&#45;&gt;Node11 -->
<g id="edge12" class="edge">
<title>Node10&#45;&gt;Node11</title>
<path fill="none" stroke="#404040" d="M427.28,-1097.33C436.27,-1068.97 450.89,-1022.88 464.93,-978.61"/>
<polygon fill="none" stroke="#404040" points="464.95,-978.54 462.95,-971.61 468.58,-967.1 470.58,-974.03 464.95,-978.54"/>
<text text-anchor="middle" x="456" y="-1071" font-family="Helvetica,sans-Serif" font-size="10.00"> &#45;_a</text>
<text text-anchor="middle" x="456" y="-1060" font-family="Helvetica,sans-Serif" font-size="10.00">&#45;_b</text>
<text text-anchor="middle" x="456" y="-1049" font-family="Helvetica,sans-Serif" font-size="10.00">&#45;_g</text>
<text text-anchor="middle" x="456" y="-1038" font-family="Helvetica,sans-Serif" font-size="10.00">&#45;_r</text>
</g>
<!-- Node11&#45;&gt;Node4 -->
<g id="edge11" class="edge">
<title>Node11&#45;&gt;Node4</title>
<path fill="none" stroke="#404040" d="M490.84,-744.8C480.54,-655.09 466.15,-529.79 456.36,-444.58"/>
<polygon fill="none" stroke="#404040" points="456.35,-444.49 451.69,-438.98 454.98,-432.56 459.64,-438.07 456.35,-444.49"/>
<text text-anchor="middle" x="495" y="-550.5" font-family="Helvetica,sans-Serif" font-size="10.00"> &#45;_color</text>
</g>
<!-- Node12 -->
<g id="node12" class="node">
<title>Node12</title>
<g id="a_node12"><a xlink:title=" ">
<polygon fill="white" stroke="#bfbfbf" points="469,-1097.5 469,-1154.5 538,-1154.5 538,-1097.5 469,-1097.5"/>
<text text-anchor="middle" x="503.5" y="-1142.5" font-family="Helvetica,sans-Serif" font-size="10.00">std::mutex</text>
<polyline fill="none" stroke="#bfbfbf" points="469,-1135.5 538,-1135.5 "/>
<text text-anchor="middle" x="503.5" y="-1123.5" font-family="Helvetica,sans-Serif" font-size="10.00"> </text>
<polyline fill="none" stroke="#bfbfbf" points="469,-1116.5 538,-1116.5 "/>
<text text-anchor="middle" x="503.5" y="-1104.5" font-family="Helvetica,sans-Serif" font-size="10.00"> </text>
</a>
</g>
</g>
<!-- Node12&#45;&gt;Node11 -->
<g id="edge13" class="edge">
<title>Node12&#45;&gt;Node11</title>
<path fill="none" stroke="#404040" d="M503.5,-1097.33C503.5,-1069.09 503.5,-1023.27 503.5,-979.17"/>
<polygon fill="none" stroke="#404040" points="503.5,-979.1 499.5,-973.1 503.5,-967.1 507.5,-973.1 503.5,-979.1"/>
<text text-anchor="middle" x="525.5" y="-1054.5" font-family="Helvetica,sans-Serif" font-size="10.00"> &#45;_mutex</text>
</g>
<!-- Node13 -->
<g id="node13" class="node">
<title>Node13</title>
<g id="a_node13"><a xlink:href="$a01253.html" xlink:title="Logger singleton.">
<polygon fill="white" stroke="black" points="529,-491.5 529,-614.5 636,-614.5 636,-491.5 529,-491.5"/>
<text text-anchor="middle" x="582.5" y="-602.5" font-family="Helvetica,sans-Serif" font-size="10.00">RayTracer::ILogger</text>
<polyline fill="none" stroke="black" points="529,-595.5 636,-595.5 "/>
<text text-anchor="middle" x="582.5" y="-583.5" font-family="Helvetica,sans-Serif" font-size="10.00"> </text>
<polyline fill="none" stroke="black" points="529,-576.5 636,-576.5 "/>
<text text-anchor="start" x="537" y="-564.5" font-family="Helvetica,sans-Serif" font-size="10.00">+ ~ILogger()</text>
<text text-anchor="start" x="537" y="-553.5" font-family="Helvetica,sans-Serif" font-size="10.00">+ fatal()</text>
<text text-anchor="start" x="537" y="-542.5" font-family="Helvetica,sans-Serif" font-size="10.00">+ error()</text>
<text text-anchor="start" x="537" y="-531.5" font-family="Helvetica,sans-Serif" font-size="10.00">+ warn()</text>
<text text-anchor="start" x="537" y="-520.5" font-family="Helvetica,sans-Serif" font-size="10.00">+ info()</text>
<text text-anchor="start" x="537" y="-509.5" font-family="Helvetica,sans-Serif" font-size="10.00">+ debug()</text>
<text text-anchor="start" x="537" y="-498.5" font-family="Helvetica,sans-Serif" font-size="10.00">+ trace()</text>
</a>
</g>
</g>
<!-- Node13&#45;&gt;Node4 -->
<g id="edge14" class="edge">
<title>Node13&#45;&gt;Node4</title>
<path fill="none" stroke="#404040" d="M541.4,-491.39C531.02,-476.09 519.64,-459.31 508.45,-442.82"/>
<polygon fill="none" stroke="#404040" points="508.26,-442.54 501.58,-439.82 501.52,-432.61 508.2,-435.33 508.26,-442.54"/>
<text text-anchor="middle" x="540" y="-454" font-family="Helvetica,sans-Serif" font-size="10.00"> &#45;_logger</text>
</g>
<!-- Node14 -->
<g id="node14" class="node">
<title>Node14</title>
<g id="a_node14"><a xlink:title=" ">
<polygon fill="white" stroke="#bfbfbf" points="579,-320.5 579,-377.5 676,-377.5 676,-320.5 579,-320.5"/>
<text text-anchor="middle" x="627.5" y="-365.5" font-family="Helvetica,sans-Serif" font-size="10.00">std::vector&lt; T &gt;</text>
<polyline fill="none" stroke="#bfbfbf" points="579,-358.5 676,-358.5 "/>
<text text-anchor="middle" x="627.5" y="-346.5" font-family="Helvetica,sans-Serif" font-size="10.00"> </text>
<polyline fill="none" stroke="#bfbfbf" points="579,-339.5 676,-339.5 "/>
<text text-anchor="middle" x="627.5" y="-327.5" font-family="Helvetica,sans-Serif" font-size="10.00"> </text>
</a>
</g>
</g>
<!-- Node14&#45;&gt;Node3 -->
<g id="edge15" class="edge">
<title>Node14&#45;&gt;Node3</title>
<path fill="none" stroke="orange" d="M606.28,-311.26C588.7,-280.85 563.81,-237.76 545.91,-206.79"/>
<polygon fill="orange" stroke="orange" points="603.44,-313.36 611.48,-320.27 609.51,-309.86 603.44,-313.36"/>
<text text-anchor="start" x="566.5" y="-239" font-family="Helvetica,sans-Serif" font-size="10.00"> &lt; RayTracer::PluginsExt</text>
<text text-anchor="middle" x="642.5" y="-228" font-family="Helvetica,sans-Serif" font-size="10.00">::SpotLight::SpotLightEntity * &gt;</text>
</g>
<!-- Node15 -->
<g id="node15" class="node">
<title>Node15</title>
<g id="a_node15"><a xlink:title=" ">
<polygon fill="white" stroke="#bfbfbf" points="654,-524.5 654,-581.5 683,-581.5 683,-524.5 654,-524.5"/>
<text text-anchor="middle" x="668.5" y="-569.5" font-family="Helvetica,sans-Serif" font-size="10.00">T</text>
<polyline fill="none" stroke="#bfbfbf" points="654,-562.5 683,-562.5 "/>
<text text-anchor="middle" x="668.5" y="-550.5" font-family="Helvetica,sans-Serif" font-size="10.00"> </text>
<polyline fill="none" stroke="#bfbfbf" points="654,-543.5 683,-543.5 "/>
<text text-anchor="middle" x="668.5" y="-531.5" font-family="Helvetica,sans-Serif" font-size="10.00"> </text>
</a>
</g>
</g>
<!-- Node15&#45;&gt;Node14 -->
<g id="edge16" class="edge">
<title>Node15&#45;&gt;Node14</title>
<path fill="none" stroke="#404040" d="M662.89,-524.34C655.8,-489.45 643.59,-429.25 635.52,-389.52"/>
<polygon fill="none" stroke="#404040" points="635.5,-389.41 630.39,-384.33 633.11,-377.65 638.23,-382.74 635.5,-389.41"/>
<text text-anchor="middle" x="677.5" y="-454" font-family="Helvetica,sans-Serif" font-size="10.00"> +elements</text>
</g>
</g>
</svg>
