<?xml version="1.0" encoding="UTF-8" standalone="no"?>
<!DOCTYPE svg PUBLIC "-//W3C//DTD SVG 1.1//EN"
 "http://www.w3.org/Graphics/SVG/1.1/DTD/svg11.dtd">
<!-- Generated by graphviz version 2.43.0 (0)
 -->
<!-- Title: RayTracer::Scenes::SettingWrapper::ParsingException Pages: 1 -->
<svg width="257pt" height="321pt"
 viewBox="0.00 0.00 257.00 321.00" xmlns="http://www.w3.org/2000/svg" xmlns:xlink="http://www.w3.org/1999/xlink">
<g id="graph0" class="graph" transform="scale(1 1) rotate(0) translate(4 317)">
<title>RayTracer::Scenes::SettingWrapper::ParsingException</title>
<polygon fill="white" stroke="transparent" points="-4,4 -4,-317 253,-317 253,4 -4,4"/>
<!-- Node1 -->
<g id="node1" class="node">
<title>Node1</title>
<g id="a_node1"><a xlink:title="an exception for when the key is not found">
<polygon fill="#bfbfbf" stroke="black" points="43,-0.5 43,-79.5 225,-79.5 225,-0.5 43,-0.5"/>
<text text-anchor="start" x="51" y="-67.5" font-family="Helvetica,sans-Serif" font-size="10.00">RayTracer::Scenes::</text>
<text text-anchor="middle" x="134" y="-56.5" font-family="Helvetica,sans-Serif" font-size="10.00">SettingWrapper::ParsingException</text>
<polyline fill="none" stroke="black" points="43,-49.5 225,-49.5 "/>
<text text-anchor="middle" x="134" y="-37.5" font-family="Helvetica,sans-Serif" font-size="10.00"> </text>
<polyline fill="none" stroke="black" points="43,-30.5 225,-30.5 "/>
<text text-anchor="start" x="51" y="-18.5" font-family="Helvetica,sans-Serif" font-size="10.00">+ ParsingException()</text>
<text text-anchor="start" x="51" y="-7.5" font-family="Helvetica,sans-Serif" font-size="10.00">+ what()</text>
</a>
</g>
</g>
<!-- Node2 -->
<g id="node2" class="node">
<title>Node2</title>
<g id="a_node2"><a xlink:href="$a01511.html" xlink:title="an exception for when the key is not found">
<polygon fill="white" stroke="black" points="0,-127.5 0,-206.5 146,-206.5 146,-127.5 0,-127.5"/>
<text text-anchor="start" x="8" y="-194.5" font-family="Helvetica,sans-Serif" font-size="10.00">RayTracer::Scenes::</text>
<text text-anchor="middle" x="73" y="-183.5" font-family="Helvetica,sans-Serif" font-size="10.00">ISetting::IParsingException</text>
<polyline fill="none" stroke="black" points="0,-176.5 146,-176.5 "/>
<text text-anchor="middle" x="73" y="-164.5" font-family="Helvetica,sans-Serif" font-size="10.00"> </text>
<polyline fill="none" stroke="black" points="0,-157.5 146,-157.5 "/>
<text text-anchor="start" x="8" y="-145.5" font-family="Helvetica,sans-Serif" font-size="10.00">+ ~IParsingException()</text>
<text text-anchor="start" x="8" y="-134.5" font-family="Helvetica,sans-Serif" font-size="10.00">+ what()</text>
</a>
</g>
</g>
<!-- Node2&#45;&gt;Node1 -->
<g id="edge1" class="edge">
<title>Node2&#45;&gt;Node1</title>
<path fill="none" stroke="midnightblue" d="M96.26,-118.34C102.5,-105.54 109.18,-91.86 115.16,-79.61"/>
<polygon fill="none" stroke="midnightblue" points="93.04,-116.95 91.8,-127.48 99.33,-120.02 93.04,-116.95"/>
</g>
<!-- Node3 -->
<g id="node3" class="node">
<title>Node3</title>
<g id="a_node3"><a xlink:title=" ">
<polygon fill="white" stroke="#bfbfbf" points="30,-250 30,-307 116,-307 116,-250 30,-250"/>
<text text-anchor="middle" x="73" y="-295" font-family="Helvetica,sans-Serif" font-size="10.00">std::exception</text>
<polyline fill="none" stroke="#bfbfbf" points="30,-288 116,-288 "/>
<text text-anchor="middle" x="73" y="-276" font-family="Helvetica,sans-Serif" font-size="10.00"> </text>
<polyline fill="none" stroke="#bfbfbf" points="30,-269 116,-269 "/>
<text text-anchor="middle" x="73" y="-257" font-family="Helvetica,sans-Serif" font-size="10.00"> </text>
</a>
</g>
</g>
<!-- Node3&#45;&gt;Node2 -->
<g id="edge2" class="edge">
<title>Node3&#45;&gt;Node2</title>
<path fill="none" stroke="midnightblue" d="M73,-239.63C73,-229.01 73,-217.46 73,-206.79"/>
<polygon fill="none" stroke="midnightblue" points="69.5,-239.87 73,-249.87 76.5,-239.87 69.5,-239.87"/>
</g>
<!-- Node4 -->
<g id="node4" class="node">
<title>Node4</title>
<g id="a_node4"><a xlink:title=" ">
<polygon fill="white" stroke="#bfbfbf" points="164.5,-138.5 164.5,-195.5 229.5,-195.5 229.5,-138.5 164.5,-138.5"/>
<text text-anchor="middle" x="197" y="-183.5" font-family="Helvetica,sans-Serif" font-size="10.00">std::string</text>
<polyline fill="none" stroke="#bfbfbf" points="164.5,-176.5 229.5,-176.5 "/>
<text text-anchor="middle" x="197" y="-164.5" font-family="Helvetica,sans-Serif" font-size="10.00"> </text>
<polyline fill="none" stroke="#bfbfbf" points="164.5,-157.5 229.5,-157.5 "/>
<text text-anchor="middle" x="197" y="-145.5" font-family="Helvetica,sans-Serif" font-size="10.00"> </text>
</a>
</g>
</g>
<!-- Node4&#45;&gt;Node1 -->
<g id="edge3" class="edge">
<title>Node4&#45;&gt;Node1</title>
<path fill="none" stroke="#404040" d="M183.02,-138.26C175.95,-124.23 167.15,-106.78 158.97,-90.55"/>
<polygon fill="none" stroke="#404040" points="158.84,-90.28 152.57,-86.72 153.44,-79.57 159.71,-83.12 158.84,-90.28"/>
<text text-anchor="middle" x="185" y="-101" font-family="Helvetica,sans-Serif" font-size="10.00"> &#45;_msg</text>
</g>
<!-- Node5 -->
<g id="node5" class="node">
<title>Node5</title>
<g id="a_node5"><a xlink:title=" ">
<polygon fill="white" stroke="#bfbfbf" points="145,-244.5 145,-312.5 249,-312.5 249,-244.5 145,-244.5"/>
<text text-anchor="start" x="153" y="-300.5" font-family="Helvetica,sans-Serif" font-size="10.00">std::basic_string&lt;</text>
<text text-anchor="middle" x="197" y="-289.5" font-family="Helvetica,sans-Serif" font-size="10.00"> Char &gt;</text>
<polyline fill="none" stroke="#bfbfbf" points="145,-282.5 249,-282.5 "/>
<text text-anchor="middle" x="197" y="-270.5" font-family="Helvetica,sans-Serif" font-size="10.00"> </text>
<polyline fill="none" stroke="#bfbfbf" points="145,-263.5 249,-263.5 "/>
<text text-anchor="middle" x="197" y="-251.5" font-family="Helvetica,sans-Serif" font-size="10.00"> </text>
</a>
</g>
</g>
<!-- Node5&#45;&gt;Node4 -->
<g id="edge4" class="edge">
<title>Node5&#45;&gt;Node4</title>
<path fill="none" stroke="midnightblue" d="M197,-234.16C197,-221.13 197,-207.21 197,-195.51"/>
<polygon fill="none" stroke="midnightblue" points="193.5,-234.35 197,-244.35 200.5,-234.35 193.5,-234.35"/>
</g>
</g>
</svg>
