<?xml version="1.0" encoding="UTF-8" standalone="no"?>
<!DOCTYPE svg PUBLIC "-//W3C//DTD SVG 1.1//EN"
 "http://www.w3.org/Graphics/SVG/1.1/DTD/svg11.dtd">
<!-- Generated by graphviz version 2.43.0 (0)
 -->
<!-- Title: RayTracer::PluginsExt::Camera::FullCustom::CustomRayIterator::Iterator Pages: 1 -->
<svg width="165pt" height="325pt"
 viewBox="0.00 0.00 165.00 325.00" xmlns="http://www.w3.org/2000/svg" xmlns:xlink="http://www.w3.org/1999/xlink">
<g id="graph0" class="graph" transform="scale(1 1) rotate(0) translate(4 321)">
<title>RayTracer::PluginsExt::Camera::FullCustom::CustomRayIterator::Iterator</title>
<polygon fill="white" stroke="transparent" points="-4,4 -4,-321 161,-321 161,4 -4,4"/>
<!-- Node1 -->
<g id="node1" class="node">
<title>Node1</title>
<g id="a_node1"><a xlink:title=" ">
<polygon fill="#bfbfbf" stroke="black" points="0,-0.5 0,-222.5 157,-222.5 157,-0.5 0,-0.5"/>
<text text-anchor="start" x="8" y="-210.5" font-family="Helvetica,sans-Serif" font-size="10.00">RayTracer::PluginsExt</text>
<text text-anchor="start" x="8" y="-199.5" font-family="Helvetica,sans-Serif" font-size="10.00">::Camera::FullCustom</text>
<text text-anchor="middle" x="78.5" y="-188.5" font-family="Helvetica,sans-Serif" font-size="10.00">::CustomRayIterator::Iterator</text>
<polyline fill="none" stroke="black" points="0,-181.5 157,-181.5 "/>
<text text-anchor="start" x="8" y="-169.5" font-family="Helvetica,sans-Serif" font-size="10.00">&#45; _cameraPos</text>
<text text-anchor="start" x="8" y="-158.5" font-family="Helvetica,sans-Serif" font-size="10.00">&#45; _screenSize</text>
<text text-anchor="start" x="8" y="-147.5" font-family="Helvetica,sans-Serif" font-size="10.00">&#45; _fovXYZ</text>
<text text-anchor="start" x="8" y="-136.5" font-family="Helvetica,sans-Serif" font-size="10.00">&#45; _fov</text>
<text text-anchor="start" x="8" y="-125.5" font-family="Helvetica,sans-Serif" font-size="10.00">&#45; _x</text>
<text text-anchor="start" x="8" y="-114.5" font-family="Helvetica,sans-Serif" font-size="10.00">&#45; _y</text>
<text text-anchor="start" x="8" y="-103.5" font-family="Helvetica,sans-Serif" font-size="10.00">&#45; _normal</text>
<text text-anchor="start" x="8" y="-92.5" font-family="Helvetica,sans-Serif" font-size="10.00">&#45; _ray</text>
<polyline fill="none" stroke="black" points="0,-85.5 157,-85.5 "/>
<text text-anchor="start" x="8" y="-73.5" font-family="Helvetica,sans-Serif" font-size="10.00">+ Iterator()</text>
<text text-anchor="start" x="8" y="-62.5" font-family="Helvetica,sans-Serif" font-size="10.00">+ operator++()</text>
<text text-anchor="start" x="8" y="-51.5" font-family="Helvetica,sans-Serif" font-size="10.00">+ operator*()</text>
<text text-anchor="start" x="8" y="-40.5" font-family="Helvetica,sans-Serif" font-size="10.00">+ operator==()</text>
<text text-anchor="start" x="8" y="-29.5" font-family="Helvetica,sans-Serif" font-size="10.00">+ operator!=()</text>
<text text-anchor="start" x="8" y="-18.5" font-family="Helvetica,sans-Serif" font-size="10.00">+ toString()</text>
<text text-anchor="start" x="8" y="-7.5" font-family="Helvetica,sans-Serif" font-size="10.00">+ operator=()</text>
</a>
</g>
</g>
<!-- Node2 -->
<g id="node2" class="node">
<title>Node2</title>
<g id="a_node2"><a xlink:title=" ">
<polygon fill="white" stroke="#bfbfbf" points="19,-259.5 19,-316.5 138,-316.5 138,-259.5 19,-259.5"/>
<text text-anchor="middle" x="78.5" y="-304.5" font-family="Helvetica,sans-Serif" font-size="10.00">IRayIterator::IIterator</text>
<polyline fill="none" stroke="#bfbfbf" points="19,-297.5 138,-297.5 "/>
<text text-anchor="middle" x="78.5" y="-285.5" font-family="Helvetica,sans-Serif" font-size="10.00"> </text>
<polyline fill="none" stroke="#bfbfbf" points="19,-278.5 138,-278.5 "/>
<text text-anchor="middle" x="78.5" y="-266.5" font-family="Helvetica,sans-Serif" font-size="10.00"> </text>
</a>
</g>
</g>
<!-- Node2&#45;&gt;Node1 -->
<g id="edge1" class="edge">
<title>Node2&#45;&gt;Node1</title>
<path fill="none" stroke="midnightblue" d="M78.5,-249.2C78.5,-241.08 78.5,-232.1 78.5,-222.75"/>
<polygon fill="none" stroke="midnightblue" points="75,-249.35 78.5,-259.35 82,-249.35 75,-249.35"/>
</g>
</g>
</svg>
