<?xml version="1.0" encoding="UTF-8" standalone="no"?>
<!DOCTYPE svg PUBLIC "-//W3C//DTD SVG 1.1//EN"
 "http://www.w3.org/Graphics/SVG/1.1/DTD/svg11.dtd">
<!-- Generated by graphviz version 2.43.0 (0)
 -->
<!-- Title: RayTracer::PluginsExt::Refraction::RefractionCreator Pages: 1 -->
<svg width="173pt" height="204pt"
 viewBox="0.00 0.00 173.00 204.00" xmlns="http://www.w3.org/2000/svg" xmlns:xlink="http://www.w3.org/1999/xlink">
<g id="graph0" class="graph" transform="scale(1 1) rotate(0) translate(4 200)">
<title>RayTracer::PluginsExt::Refraction::RefractionCreator</title>
<polygon fill="white" stroke="transparent" points="-4,4 -4,-200 169,-200 169,4 -4,4"/>
<!-- Node1 -->
<g id="node1" class="node">
<title>Node1</title>
<g id="a_node1"><a xlink:title=" ">
<polygon fill="#bfbfbf" stroke="black" points="0,-0.5 0,-79.5 165,-79.5 165,-0.5 0,-0.5"/>
<text text-anchor="start" x="8" y="-67.5" font-family="Helvetica,sans-Serif" font-size="10.00">RayTracer::PluginsExt</text>
<text text-anchor="middle" x="82.5" y="-56.5" font-family="Helvetica,sans-Serif" font-size="10.00">::Refraction::RefractionCreator</text>
<polyline fill="none" stroke="black" points="0,-49.5 165,-49.5 "/>
<text text-anchor="start" x="8" y="-37.5" font-family="Helvetica,sans-Serif" font-size="10.00">&#45; _elements</text>
<polyline fill="none" stroke="black" points="0,-30.5 165,-30.5 "/>
<text text-anchor="start" x="8" y="-18.5" font-family="Helvetica,sans-Serif" font-size="10.00">+ ~RefractionCreator()</text>
<text text-anchor="start" x="8" y="-7.5" font-family="Helvetica,sans-Serif" font-size="10.00">+ create()</text>
</a>
</g>
</g>
<!-- Node2 -->
<g id="node2" class="node">
<title>Node2</title>
<g id="a_node2"><a xlink:href="$a01447.html" xlink:title="The IMaterialCreator class.">
<polygon fill="white" stroke="black" points="5.5,-116.5 5.5,-195.5 159.5,-195.5 159.5,-116.5 5.5,-116.5"/>
<text text-anchor="start" x="13.5" y="-183.5" font-family="Helvetica,sans-Serif" font-size="10.00">RayTracer::Plugins</text>
<text text-anchor="middle" x="82.5" y="-172.5" font-family="Helvetica,sans-Serif" font-size="10.00">::Materials::IMaterialCreator</text>
<polyline fill="none" stroke="black" points="5.5,-165.5 159.5,-165.5 "/>
<text text-anchor="middle" x="82.5" y="-153.5" font-family="Helvetica,sans-Serif" font-size="10.00"> </text>
<polyline fill="none" stroke="black" points="5.5,-146.5 159.5,-146.5 "/>
<text text-anchor="start" x="13.5" y="-134.5" font-family="Helvetica,sans-Serif" font-size="10.00">+ ~IMaterialCreator()</text>
<text text-anchor="start" x="13.5" y="-123.5" font-family="Helvetica,sans-Serif" font-size="10.00">+ create()</text>
</a>
</g>
</g>
<!-- Node2&#45;&gt;Node1 -->
<g id="edge1" class="edge">
<title>Node2&#45;&gt;Node1</title>
<path fill="none" stroke="midnightblue" d="M82.5,-106.15C82.5,-97.26 82.5,-88.1 82.5,-79.56"/>
<polygon fill="none" stroke="midnightblue" points="79,-106.4 82.5,-116.4 86,-106.4 79,-106.4"/>
</g>
</g>
</svg>
