<?xml version="1.0" encoding="UTF-8" standalone="no"?>
<!DOCTYPE svg PUBLIC "-//W3C//DTD SVG 1.1//EN"
 "http://www.w3.org/Graphics/SVG/1.1/DTD/svg11.dtd">
<!-- Generated by graphviz version 2.43.0 (0)
 -->
<!-- Title: RayTracer::PluginsExt::Disk::DiskCreator Pages: 1 -->
<svg width="835pt" height="1141pt"
 viewBox="0.00 0.00 834.50 1141.00" xmlns="http://www.w3.org/2000/svg" xmlns:xlink="http://www.w3.org/1999/xlink">
<g id="graph0" class="graph" transform="scale(1 1) rotate(0) translate(4 1137)">
<title>RayTracer::PluginsExt::Disk::DiskCreator</title>
<polygon fill="white" stroke="transparent" points="-4,4 -4,-1137 830.5,-1137 830.5,4 -4,4"/>
<!-- Node1 -->
<g id="node1" class="node">
<title>Node1</title>
<g id="a_node1"><a xlink:title=" ">
<polygon fill="#bfbfbf" stroke="black" points="338.5,-0.5 338.5,-79.5 460.5,-79.5 460.5,-0.5 338.5,-0.5"/>
<text text-anchor="start" x="346.5" y="-67.5" font-family="Helvetica,sans-Serif" font-size="10.00">RayTracer::PluginsExt</text>
<text text-anchor="middle" x="399.5" y="-56.5" font-family="Helvetica,sans-Serif" font-size="10.00">::Disk::DiskCreator</text>
<polyline fill="none" stroke="black" points="338.5,-49.5 460.5,-49.5 "/>
<text text-anchor="middle" x="399.5" y="-37.5" font-family="Helvetica,sans-Serif" font-size="10.00"> </text>
<polyline fill="none" stroke="black" points="338.5,-30.5 460.5,-30.5 "/>
<text text-anchor="start" x="346.5" y="-18.5" font-family="Helvetica,sans-Serif" font-size="10.00">+ ~DiskCreator()</text>
<text text-anchor="start" x="346.5" y="-7.5" font-family="Helvetica,sans-Serif" font-size="10.00">+ create()</text>
</a>
</g>
</g>
<!-- Node2 -->
<g id="node2" class="node">
<title>Node2</title>
<g id="a_node2"><a xlink:href="$a01454.html" xlink:title="The IEntityCreator.">
<polygon fill="white" stroke="black" points="317,-127.5 317,-206.5 450,-206.5 450,-127.5 317,-127.5"/>
<text text-anchor="start" x="325" y="-194.5" font-family="Helvetica,sans-Serif" font-size="10.00">RayTracer::Plugins</text>
<text text-anchor="middle" x="383.5" y="-183.5" font-family="Helvetica,sans-Serif" font-size="10.00">::Entities::IEntityCreator</text>
<polyline fill="none" stroke="black" points="317,-176.5 450,-176.5 "/>
<text text-anchor="middle" x="383.5" y="-164.5" font-family="Helvetica,sans-Serif" font-size="10.00"> </text>
<polyline fill="none" stroke="black" points="317,-157.5 450,-157.5 "/>
<text text-anchor="start" x="325" y="-145.5" font-family="Helvetica,sans-Serif" font-size="10.00">+ ~IEntityCreator()</text>
<text text-anchor="start" x="325" y="-134.5" font-family="Helvetica,sans-Serif" font-size="10.00">+ create()</text>
</a>
</g>
</g>
<!-- Node2&#45;&gt;Node1 -->
<g id="edge1" class="edge">
<title>Node2&#45;&gt;Node1</title>
<path fill="none" stroke="midnightblue" d="M389.74,-117.22C391.34,-104.74 393.04,-91.5 394.56,-79.61"/>
<polygon fill="none" stroke="midnightblue" points="386.23,-117.11 388.43,-127.48 393.17,-118 386.23,-117.11"/>
</g>
<!-- Node3 -->
<g id="node3" class="node">
<title>Node3</title>
<g id="a_node3"><a xlink:title=" ">
<polygon fill="white" stroke="#bfbfbf" points="468,-133 468,-201 645,-201 645,-133 468,-133"/>
<text text-anchor="start" x="476" y="-189" font-family="Helvetica,sans-Serif" font-size="10.00">std::vector&lt; RayTracer</text>
<text text-anchor="middle" x="556.5" y="-178" font-family="Helvetica,sans-Serif" font-size="10.00">::PluginsExt::Disk::DiskEntity * &gt;</text>
<polyline fill="none" stroke="#bfbfbf" points="468,-171 645,-171 "/>
<text text-anchor="middle" x="556.5" y="-159" font-family="Helvetica,sans-Serif" font-size="10.00"> </text>
<polyline fill="none" stroke="#bfbfbf" points="468,-152 645,-152 "/>
<text text-anchor="middle" x="556.5" y="-140" font-family="Helvetica,sans-Serif" font-size="10.00"> </text>
</a>
</g>
</g>
<!-- Node3&#45;&gt;Node1 -->
<g id="edge2" class="edge">
<title>Node3&#45;&gt;Node1</title>
<path fill="none" stroke="#404040" d="M514.84,-132.83C497.28,-118.85 476.53,-102.33 457.51,-87.19"/>
<polygon fill="none" stroke="#404040" points="457.43,-87.12 450.24,-86.51 448.04,-79.65 455.23,-80.26 457.43,-87.12"/>
<text text-anchor="middle" x="512.5" y="-101" font-family="Helvetica,sans-Serif" font-size="10.00"> &#45;_elements</text>
</g>
<!-- Node4 -->
<g id="node4" class="node">
<title>Node4</title>
<g id="a_node4"><a xlink:href="$a01662.html" xlink:title=" ">
<polygon fill="white" stroke="black" points="426.5,-265.5 426.5,-410.5 548.5,-410.5 548.5,-265.5 426.5,-265.5"/>
<text text-anchor="start" x="434.5" y="-398.5" font-family="Helvetica,sans-Serif" font-size="10.00">RayTracer::PluginsExt</text>
<text text-anchor="middle" x="487.5" y="-387.5" font-family="Helvetica,sans-Serif" font-size="10.00">::Disk::DiskEntity</text>
<polyline fill="none" stroke="black" points="426.5,-380.5 548.5,-380.5 "/>
<text text-anchor="middle" x="487.5" y="-368.5" font-family="Helvetica,sans-Serif" font-size="10.00"> </text>
<polyline fill="none" stroke="black" points="426.5,-361.5 548.5,-361.5 "/>
<text text-anchor="start" x="434.5" y="-349.5" font-family="Helvetica,sans-Serif" font-size="10.00">+ DiskEntity()</text>
<text text-anchor="start" x="434.5" y="-338.5" font-family="Helvetica,sans-Serif" font-size="10.00">+ getType()</text>
<text text-anchor="start" x="434.5" y="-327.5" font-family="Helvetica,sans-Serif" font-size="10.00">+ getTransform()</text>
<text text-anchor="start" x="434.5" y="-316.5" font-family="Helvetica,sans-Serif" font-size="10.00">+ getTransform()</text>
<text text-anchor="start" x="434.5" y="-305.5" font-family="Helvetica,sans-Serif" font-size="10.00">+ isCollided()</text>
<text text-anchor="start" x="434.5" y="-294.5" font-family="Helvetica,sans-Serif" font-size="10.00">+ isCollided()</text>
<text text-anchor="start" x="434.5" y="-283.5" font-family="Helvetica,sans-Serif" font-size="10.00">+ getColor()</text>
<text text-anchor="start" x="434.5" y="-272.5" font-family="Helvetica,sans-Serif" font-size="10.00">+ redirectionLight()</text>
</a>
</g>
</g>
<!-- Node4&#45;&gt;Node3 -->
<g id="edge3" class="edge">
<title>Node4&#45;&gt;Node3</title>
<path fill="none" stroke="#404040" d="M508.01,-265.34C512.61,-251.75 517.82,-237.79 523.5,-225 525.43,-220.66 527.6,-216.22 529.89,-211.84"/>
<polygon fill="none" stroke="#404040" points="529.98,-211.67 529.34,-204.48 535.73,-201.13 536.37,-208.31 529.98,-211.67"/>
<text text-anchor="middle" x="552.5" y="-233.5" font-family="Helvetica,sans-Serif" font-size="10.00"> +elements</text>
</g>
<!-- Node5 -->
<g id="node5" class="node">
<title>Node5</title>
<g id="a_node5"><a xlink:href="$a01326.html" xlink:title="The IPrimitive class.">
<polygon fill="white" stroke="black" points="657.5,-475 657.5,-587 769.5,-587 769.5,-475 657.5,-475"/>
<text text-anchor="start" x="665.5" y="-575" font-family="Helvetica,sans-Serif" font-size="10.00">RayTracer::Entities</text>
<text text-anchor="middle" x="713.5" y="-564" font-family="Helvetica,sans-Serif" font-size="10.00">::IPrimitive</text>
<polyline fill="none" stroke="black" points="657.5,-557 769.5,-557 "/>
<text text-anchor="middle" x="713.5" y="-545" font-family="Helvetica,sans-Serif" font-size="10.00"> </text>
<polyline fill="none" stroke="black" points="657.5,-538 769.5,-538 "/>
<text text-anchor="start" x="665.5" y="-526" font-family="Helvetica,sans-Serif" font-size="10.00">+ ~IPrimitive()</text>
<text text-anchor="start" x="665.5" y="-515" font-family="Helvetica,sans-Serif" font-size="10.00">+ getColor()</text>
<text text-anchor="start" x="665.5" y="-504" font-family="Helvetica,sans-Serif" font-size="10.00">+ isCollided()</text>
<text text-anchor="start" x="665.5" y="-493" font-family="Helvetica,sans-Serif" font-size="10.00">+ isCollided()</text>
<text text-anchor="start" x="665.5" y="-482" font-family="Helvetica,sans-Serif" font-size="10.00">+ redirectionLight()</text>
</a>
</g>
</g>
<!-- Node5&#45;&gt;Node4 -->
<g id="edge4" class="edge">
<title>Node5&#45;&gt;Node4</title>
<path fill="none" stroke="midnightblue" d="M658.45,-467.42C655.15,-464.17 651.82,-461.01 648.5,-458 617.34,-429.75 579.67,-401.62 548.6,-379.81"/>
<polygon fill="none" stroke="midnightblue" points="656.1,-470.01 665.63,-474.64 661.06,-465.08 656.1,-470.01"/>
</g>
<!-- Node6 -->
<g id="node6" class="node">
<title>Node6</title>
<g id="a_node6"><a xlink:href="$a01314.html" xlink:title="The IEntity class.">
<polygon fill="white" stroke="black" points="660,-789 660,-890 767,-890 767,-789 660,-789"/>
<text text-anchor="start" x="668" y="-878" font-family="Helvetica,sans-Serif" font-size="10.00">RayTracer::Entities</text>
<text text-anchor="middle" x="713.5" y="-867" font-family="Helvetica,sans-Serif" font-size="10.00">::IEntity</text>
<polyline fill="none" stroke="black" points="660,-860 767,-860 "/>
<text text-anchor="middle" x="713.5" y="-848" font-family="Helvetica,sans-Serif" font-size="10.00"> </text>
<polyline fill="none" stroke="black" points="660,-841 767,-841 "/>
<text text-anchor="start" x="668" y="-829" font-family="Helvetica,sans-Serif" font-size="10.00">+ ~IEntity()</text>
<text text-anchor="start" x="668" y="-818" font-family="Helvetica,sans-Serif" font-size="10.00">+ getTransform()</text>
<text text-anchor="start" x="668" y="-807" font-family="Helvetica,sans-Serif" font-size="10.00">+ getTransform()</text>
<text text-anchor="start" x="668" y="-796" font-family="Helvetica,sans-Serif" font-size="10.00">+ getType()</text>
</a>
</g>
</g>
<!-- Node6&#45;&gt;Node5 -->
<g id="edge5" class="edge">
<title>Node6&#45;&gt;Node5</title>
<path fill="none" stroke="midnightblue" d="M713.5,-778.87C713.5,-723.35 713.5,-641.26 713.5,-587.22"/>
<polygon fill="none" stroke="midnightblue" points="710,-778.91 713.5,-788.91 717,-778.91 710,-778.91"/>
</g>
<!-- Node7 -->
<g id="node7" class="node">
<title>Node7</title>
<g id="a_node7"><a xlink:href="$a01334.html" xlink:title="The Transform class.">
<polygon fill="white" stroke="black" points="139.5,-458.5 139.5,-603.5 265.5,-603.5 265.5,-458.5 139.5,-458.5"/>
<text text-anchor="start" x="147.5" y="-591.5" font-family="Helvetica,sans-Serif" font-size="10.00">RayTracer::Entities</text>
<text text-anchor="middle" x="202.5" y="-580.5" font-family="Helvetica,sans-Serif" font-size="10.00">::Transform::Transform</text>
<polyline fill="none" stroke="black" points="139.5,-573.5 265.5,-573.5 "/>
<text text-anchor="middle" x="202.5" y="-561.5" font-family="Helvetica,sans-Serif" font-size="10.00"> </text>
<polyline fill="none" stroke="black" points="139.5,-554.5 265.5,-554.5 "/>
<text text-anchor="start" x="147.5" y="-542.5" font-family="Helvetica,sans-Serif" font-size="10.00">+ Transform()</text>
<text text-anchor="start" x="147.5" y="-531.5" font-family="Helvetica,sans-Serif" font-size="10.00">+ setPosition()</text>
<text text-anchor="start" x="147.5" y="-520.5" font-family="Helvetica,sans-Serif" font-size="10.00">+ getPosition()</text>
<text text-anchor="start" x="147.5" y="-509.5" font-family="Helvetica,sans-Serif" font-size="10.00">+ setRotation()</text>
<text text-anchor="start" x="147.5" y="-498.5" font-family="Helvetica,sans-Serif" font-size="10.00">+ getRotation()</text>
<text text-anchor="start" x="147.5" y="-487.5" font-family="Helvetica,sans-Serif" font-size="10.00">+ setScale()</text>
<text text-anchor="start" x="147.5" y="-476.5" font-family="Helvetica,sans-Serif" font-size="10.00">+ getScale()</text>
<text text-anchor="start" x="147.5" y="-465.5" font-family="Helvetica,sans-Serif" font-size="10.00">+ operator=()</text>
</a>
</g>
</g>
<!-- Node7&#45;&gt;Node4 -->
<g id="edge6" class="edge">
<title>Node7&#45;&gt;Node4</title>
<path fill="none" stroke="#404040" d="M203.89,-458.38C206.78,-447.66 211.39,-437.4 218.5,-429 266.9,-371.83 352.75,-350.82 414.46,-343.19"/>
<polygon fill="none" stroke="#404040" points="414.54,-343.18 420.06,-338.53 426.47,-341.83 420.95,-346.48 414.54,-343.18"/>
<text text-anchor="middle" x="249" y="-432" font-family="Helvetica,sans-Serif" font-size="10.00"> &#45;_transform</text>
</g>
<!-- Node8 -->
<g id="node8" class="node">
<title>Node8</title>
<g id="a_node8"><a xlink:href="$a01330.html" xlink:title="The ITransform class.">
<polygon fill="white" stroke="black" points="0,-767 0,-912 129,-912 129,-767 0,-767"/>
<text text-anchor="start" x="8" y="-900" font-family="Helvetica,sans-Serif" font-size="10.00">RayTracer::Entities</text>
<text text-anchor="middle" x="64.5" y="-889" font-family="Helvetica,sans-Serif" font-size="10.00">::Transform::ITransform</text>
<polyline fill="none" stroke="black" points="0,-882 129,-882 "/>
<text text-anchor="middle" x="64.5" y="-870" font-family="Helvetica,sans-Serif" font-size="10.00"> </text>
<polyline fill="none" stroke="black" points="0,-863 129,-863 "/>
<text text-anchor="start" x="8" y="-851" font-family="Helvetica,sans-Serif" font-size="10.00">+ ~ITransform()</text>
<text text-anchor="start" x="8" y="-840" font-family="Helvetica,sans-Serif" font-size="10.00">+ setPosition()</text>
<text text-anchor="start" x="8" y="-829" font-family="Helvetica,sans-Serif" font-size="10.00">+ getPosition()</text>
<text text-anchor="start" x="8" y="-818" font-family="Helvetica,sans-Serif" font-size="10.00">+ setRotation()</text>
<text text-anchor="start" x="8" y="-807" font-family="Helvetica,sans-Serif" font-size="10.00">+ getRotation()</text>
<text text-anchor="start" x="8" y="-796" font-family="Helvetica,sans-Serif" font-size="10.00">+ setScale()</text>
<text text-anchor="start" x="8" y="-785" font-family="Helvetica,sans-Serif" font-size="10.00">+ getScale()</text>
<text text-anchor="start" x="8" y="-774" font-family="Helvetica,sans-Serif" font-size="10.00">+ operator=()</text>
</a>
</g>
</g>
<!-- Node8&#45;&gt;Node7 -->
<g id="edge7" class="edge">
<title>Node8&#45;&gt;Node7</title>
<path fill="none" stroke="midnightblue" d="M100.65,-757.41C112.66,-730.53 126.13,-700.47 138.5,-673 148.66,-650.45 159.78,-625.9 169.86,-603.69"/>
<polygon fill="none" stroke="midnightblue" points="97.35,-756.22 96.47,-766.77 103.74,-759.07 97.35,-756.22"/>
</g>
<!-- Node9 -->
<g id="node9" class="node">
<title>Node9</title>
<g id="a_node9"><a xlink:href="$a01342.html" xlink:title="The Vector3f class.">
<polygon fill="white" stroke="black" points="147.5,-673.5 147.5,-1005.5 265.5,-1005.5 265.5,-673.5 147.5,-673.5"/>
<text text-anchor="start" x="155.5" y="-993.5" font-family="Helvetica,sans-Serif" font-size="10.00">RayTracer::Entities</text>
<text text-anchor="middle" x="206.5" y="-982.5" font-family="Helvetica,sans-Serif" font-size="10.00">::Transform::Vector3f</text>
<polyline fill="none" stroke="black" points="147.5,-975.5 265.5,-975.5 "/>
<text text-anchor="middle" x="206.5" y="-963.5" font-family="Helvetica,sans-Serif" font-size="10.00"> </text>
<polyline fill="none" stroke="black" points="147.5,-956.5 265.5,-956.5 "/>
<text text-anchor="start" x="155.5" y="-944.5" font-family="Helvetica,sans-Serif" font-size="10.00">+ ~Vector3f()</text>
<text text-anchor="start" x="155.5" y="-933.5" font-family="Helvetica,sans-Serif" font-size="10.00">+ Vector3f()</text>
<text text-anchor="start" x="155.5" y="-922.5" font-family="Helvetica,sans-Serif" font-size="10.00">+ Vector3f()</text>
<text text-anchor="start" x="155.5" y="-911.5" font-family="Helvetica,sans-Serif" font-size="10.00">+ Vector3f()</text>
<text text-anchor="start" x="155.5" y="-900.5" font-family="Helvetica,sans-Serif" font-size="10.00">+ Vector3f()</text>
<text text-anchor="start" x="155.5" y="-889.5" font-family="Helvetica,sans-Serif" font-size="10.00">+ operator+()</text>
<text text-anchor="start" x="155.5" y="-878.5" font-family="Helvetica,sans-Serif" font-size="10.00">+ operator&#45;()</text>
<text text-anchor="start" x="155.5" y="-867.5" font-family="Helvetica,sans-Serif" font-size="10.00">+ operator*()</text>
<text text-anchor="start" x="155.5" y="-856.5" font-family="Helvetica,sans-Serif" font-size="10.00">+ operator/()</text>
<text text-anchor="start" x="155.5" y="-845.5" font-family="Helvetica,sans-Serif" font-size="10.00">+ operator=()</text>
<text text-anchor="start" x="155.5" y="-834.5" font-family="Helvetica,sans-Serif" font-size="10.00">+ getX()</text>
<text text-anchor="start" x="155.5" y="-823.5" font-family="Helvetica,sans-Serif" font-size="10.00">+ getY()</text>
<text text-anchor="start" x="155.5" y="-812.5" font-family="Helvetica,sans-Serif" font-size="10.00">+ getZ()</text>
<text text-anchor="start" x="155.5" y="-801.5" font-family="Helvetica,sans-Serif" font-size="10.00">+ getNorm()</text>
<text text-anchor="start" x="155.5" y="-790.5" font-family="Helvetica,sans-Serif" font-size="10.00">+ getNormalized()</text>
<text text-anchor="start" x="155.5" y="-779.5" font-family="Helvetica,sans-Serif" font-size="10.00">+ getCrossed()</text>
<text text-anchor="start" x="155.5" y="-768.5" font-family="Helvetica,sans-Serif" font-size="10.00">+ dot()</text>
<text text-anchor="start" x="155.5" y="-757.5" font-family="Helvetica,sans-Serif" font-size="10.00">+ getDistance()</text>
<text text-anchor="start" x="155.5" y="-746.5" font-family="Helvetica,sans-Serif" font-size="10.00">+ toDegrees()</text>
<text text-anchor="start" x="155.5" y="-735.5" font-family="Helvetica,sans-Serif" font-size="10.00">+ toRadians()</text>
<text text-anchor="start" x="155.5" y="-724.5" font-family="Helvetica,sans-Serif" font-size="10.00">+ rotateVector()</text>
<text text-anchor="start" x="155.5" y="-713.5" font-family="Helvetica,sans-Serif" font-size="10.00">+ getAngle()</text>
<text text-anchor="start" x="155.5" y="-702.5" font-family="Helvetica,sans-Serif" font-size="10.00">+ rotateX()</text>
<text text-anchor="start" x="155.5" y="-691.5" font-family="Helvetica,sans-Serif" font-size="10.00">+ rotateY()</text>
<text text-anchor="start" x="155.5" y="-680.5" font-family="Helvetica,sans-Serif" font-size="10.00">+ rotateZ()</text>
</a>
</g>
</g>
<!-- Node9&#45;&gt;Node7 -->
<g id="edge8" class="edge">
<title>Node9&#45;&gt;Node7</title>
<path fill="none" stroke="#404040" d="M204.34,-673.14C204.08,-653.27 203.83,-633.67 203.59,-615.69"/>
<polygon fill="none" stroke="#404040" points="203.59,-615.52 199.51,-609.57 203.43,-603.52 207.51,-609.47 203.59,-615.52"/>
<text text-anchor="middle" x="230.5" y="-647" font-family="Helvetica,sans-Serif" font-size="10.00"> &#45;_position</text>
<text text-anchor="middle" x="230.5" y="-636" font-family="Helvetica,sans-Serif" font-size="10.00">&#45;_rotation</text>
<text text-anchor="middle" x="230.5" y="-625" font-family="Helvetica,sans-Serif" font-size="10.00">&#45;_scale</text>
</g>
<!-- Node10 -->
<g id="node10" class="node">
<title>Node10</title>
<g id="a_node10"><a xlink:title=" ">
<polygon fill="white" stroke="#bfbfbf" points="225.5,-1075.5 225.5,-1132.5 275.5,-1132.5 275.5,-1075.5 225.5,-1075.5"/>
<text text-anchor="middle" x="250.5" y="-1120.5" font-family="Helvetica,sans-Serif" font-size="10.00">double</text>
<polyline fill="none" stroke="#bfbfbf" points="225.5,-1113.5 275.5,-1113.5 "/>
<text text-anchor="middle" x="250.5" y="-1101.5" font-family="Helvetica,sans-Serif" font-size="10.00"> </text>
<polyline fill="none" stroke="#bfbfbf" points="225.5,-1094.5 275.5,-1094.5 "/>
<text text-anchor="middle" x="250.5" y="-1082.5" font-family="Helvetica,sans-Serif" font-size="10.00"> </text>
</a>
</g>
</g>
<!-- Node10&#45;&gt;Node4 -->
<g id="edge10" class="edge">
<title>Node10&#45;&gt;Node4</title>
<path fill="none" stroke="#404040" d="M260.18,-1075.45C262.1,-1069.42 263.99,-1063.03 265.5,-1057 271.08,-1034.67 271.7,-1028.85 274.5,-1006 289.35,-884.84 251.69,-563.85 312.5,-458 335.49,-417.99 378.04,-388.59 415.43,-369.03"/>
<polygon fill="none" stroke="#404040" points="415.62,-368.93 419.17,-362.66 426.33,-363.52 422.78,-369.8 415.62,-368.93"/>
<text text-anchor="middle" x="301" y="-636" font-family="Helvetica,sans-Serif" font-size="10.00"> &#45;_radius</text>
</g>
<!-- Node10&#45;&gt;Node9 -->
<g id="edge9" class="edge">
<title>Node10&#45;&gt;Node9</title>
<path fill="none" stroke="#404040" d="M245.87,-1075.4C243.32,-1060.16 239.91,-1039.79 236.15,-1017.4"/>
<polygon fill="none" stroke="#404040" points="236.14,-1017.36 231.21,-1012.1 234.16,-1005.52 239.1,-1010.78 236.14,-1017.36"/>
<text text-anchor="middle" x="252" y="-1049" font-family="Helvetica,sans-Serif" font-size="10.00"> &#45;_x</text>
<text text-anchor="middle" x="252" y="-1038" font-family="Helvetica,sans-Serif" font-size="10.00">&#45;_y</text>
<text text-anchor="middle" x="252" y="-1027" font-family="Helvetica,sans-Serif" font-size="10.00">&#45;_z</text>
</g>
<!-- Node11 -->
<g id="node11" class="node">
<title>Node11</title>
<g id="a_node11"><a xlink:title=" ">
<polygon fill="white" stroke="#bfbfbf" points="321.5,-491.5 321.5,-570.5 485.5,-570.5 485.5,-491.5 321.5,-491.5"/>
<text text-anchor="start" x="329.5" y="-558.5" font-family="Helvetica,sans-Serif" font-size="10.00">optional&lt; std::reference</text>
<text text-anchor="start" x="329.5" y="-547.5" font-family="Helvetica,sans-Serif" font-size="10.00">_wrapper&lt; RayTracer::Entities</text>
<text text-anchor="middle" x="403.5" y="-536.5" font-family="Helvetica,sans-Serif" font-size="10.00">::IMaterial &gt; &gt;</text>
<polyline fill="none" stroke="#bfbfbf" points="321.5,-529.5 485.5,-529.5 "/>
<text text-anchor="middle" x="403.5" y="-517.5" font-family="Helvetica,sans-Serif" font-size="10.00"> </text>
<polyline fill="none" stroke="#bfbfbf" points="321.5,-510.5 485.5,-510.5 "/>
<text text-anchor="middle" x="403.5" y="-498.5" font-family="Helvetica,sans-Serif" font-size="10.00"> </text>
</a>
</g>
</g>
<!-- Node11&#45;&gt;Node4 -->
<g id="edge11" class="edge">
<title>Node11&#45;&gt;Node4</title>
<path fill="none" stroke="#404040" d="M420.5,-491.35C429.31,-471.31 440.43,-446.02 451.07,-421.83"/>
<polygon fill="none" stroke="#404040" points="451.08,-421.8 449.84,-414.7 455.92,-410.82 457.16,-417.92 451.08,-421.8"/>
<text text-anchor="middle" x="472.5" y="-432" font-family="Helvetica,sans-Serif" font-size="10.00"> &#45;_material</text>
</g>
<!-- Node12 -->
<g id="node12" class="node">
<title>Node12</title>
<g id="a_node12"><a xlink:href="$a01378.html" xlink:title="Logger singleton.">
<polygon fill="white" stroke="black" points="503.5,-458.5 503.5,-603.5 639.5,-603.5 639.5,-458.5 503.5,-458.5"/>
<text text-anchor="middle" x="571.5" y="-591.5" font-family="Helvetica,sans-Serif" font-size="10.00">RayTracer::ILogger</text>
<polyline fill="none" stroke="black" points="503.5,-584.5 639.5,-584.5 "/>
<text text-anchor="middle" x="571.5" y="-572.5" font-family="Helvetica,sans-Serif" font-size="10.00"> </text>
<polyline fill="none" stroke="black" points="503.5,-565.5 639.5,-565.5 "/>
<text text-anchor="start" x="511.5" y="-553.5" font-family="Helvetica,sans-Serif" font-size="10.00">+ ~ILogger()</text>
<text text-anchor="start" x="511.5" y="-542.5" font-family="Helvetica,sans-Serif" font-size="10.00">+ fatal()</text>
<text text-anchor="start" x="511.5" y="-531.5" font-family="Helvetica,sans-Serif" font-size="10.00">+ error()</text>
<text text-anchor="start" x="511.5" y="-520.5" font-family="Helvetica,sans-Serif" font-size="10.00">+ warn()</text>
<text text-anchor="start" x="511.5" y="-509.5" font-family="Helvetica,sans-Serif" font-size="10.00">+ info()</text>
<text text-anchor="start" x="511.5" y="-498.5" font-family="Helvetica,sans-Serif" font-size="10.00">+ debug()</text>
<text text-anchor="start" x="511.5" y="-487.5" font-family="Helvetica,sans-Serif" font-size="10.00">+ trace()</text>
<text text-anchor="start" x="511.5" y="-476.5" font-family="Helvetica,sans-Serif" font-size="10.00">+ subscribeCallback()</text>
<text text-anchor="start" x="511.5" y="-465.5" font-family="Helvetica,sans-Serif" font-size="10.00">+ unsubscribeCallback()</text>
</a>
</g>
</g>
<!-- Node12&#45;&gt;Node4 -->
<g id="edge12" class="edge">
<title>Node12&#45;&gt;Node4</title>
<path fill="none" stroke="#404040" d="M539.98,-458.34C534.74,-446.42 529.27,-433.98 523.92,-421.82"/>
<polygon fill="none" stroke="#404040" points="523.89,-421.73 517.81,-417.85 519.05,-410.75 525.13,-414.63 523.89,-421.73"/>
<text text-anchor="middle" x="551" y="-432" font-family="Helvetica,sans-Serif" font-size="10.00"> &#45;_logger</text>
</g>
<!-- Node13 -->
<g id="node13" class="node">
<title>Node13</title>
<g id="a_node13"><a xlink:title=" ">
<polygon fill="white" stroke="#bfbfbf" points="660,-309.5 660,-366.5 757,-366.5 757,-309.5 660,-309.5"/>
<text text-anchor="middle" x="708.5" y="-354.5" font-family="Helvetica,sans-Serif" font-size="10.00">std::vector&lt; T &gt;</text>
<polyline fill="none" stroke="#bfbfbf" points="660,-347.5 757,-347.5 "/>
<text text-anchor="middle" x="708.5" y="-335.5" font-family="Helvetica,sans-Serif" font-size="10.00"> </text>
<polyline fill="none" stroke="#bfbfbf" points="660,-328.5 757,-328.5 "/>
<text text-anchor="middle" x="708.5" y="-316.5" font-family="Helvetica,sans-Serif" font-size="10.00"> </text>
</a>
</g>
</g>
<!-- Node13&#45;&gt;Node3 -->
<g id="edge13" class="edge">
<title>Node13&#45;&gt;Node3</title>
<path fill="none" stroke="orange" d="M676.88,-301.84C650.21,-272.19 612.32,-230.06 586.21,-201.03"/>
<polygon fill="orange" stroke="orange" points="674.45,-304.38 683.74,-309.47 679.66,-299.7 674.45,-304.38"/>
<text text-anchor="start" x="623.5" y="-239" font-family="Helvetica,sans-Serif" font-size="10.00"> &lt; RayTracer::PluginsExt</text>
<text text-anchor="middle" x="683.5" y="-228" font-family="Helvetica,sans-Serif" font-size="10.00">::Disk::DiskEntity * &gt;</text>
</g>
<!-- Node14 -->
<g id="node14" class="node">
<title>Node14</title>
<g id="a_node14"><a xlink:title=" ">
<polygon fill="white" stroke="#bfbfbf" points="788,-502.5 788,-559.5 817,-559.5 817,-502.5 788,-502.5"/>
<text text-anchor="middle" x="802.5" y="-547.5" font-family="Helvetica,sans-Serif" font-size="10.00">T</text>
<polyline fill="none" stroke="#bfbfbf" points="788,-540.5 817,-540.5 "/>
<text text-anchor="middle" x="802.5" y="-528.5" font-family="Helvetica,sans-Serif" font-size="10.00"> </text>
<polyline fill="none" stroke="#bfbfbf" points="788,-521.5 817,-521.5 "/>
<text text-anchor="middle" x="802.5" y="-509.5" font-family="Helvetica,sans-Serif" font-size="10.00"> </text>
</a>
</g>
</g>
<!-- Node14&#45;&gt;Node13 -->
<g id="edge14" class="edge">
<title>Node14&#45;&gt;Node13</title>
<path fill="none" stroke="#404040" d="M794.81,-502.47C790.63,-488.83 784.99,-472.27 778.5,-458 765.74,-429.93 748.13,-400.03 733.77,-377.22"/>
<polygon fill="none" stroke="#404040" points="733.67,-377.07 727.07,-374.16 727.22,-366.95 733.82,-369.86 733.67,-377.07"/>
<text text-anchor="middle" x="797.5" y="-432" font-family="Helvetica,sans-Serif" font-size="10.00"> +elements</text>
</g>
</g>
</svg>
