<?xml version="1.0" encoding="UTF-8" standalone="no"?>
<!DOCTYPE svg PUBLIC "-//W3C//DTD SVG 1.1//EN"
 "http://www.w3.org/Graphics/SVG/1.1/DTD/svg11.dtd">
<!-- Generated by graphviz version 2.43.0 (0)
 -->
<!-- Title: RayTracer::PluginsExt::LimitedPlane::LimitedPlaneEntity Pages: 1 -->
<svg width="804pt" height="931pt"
 viewBox="0.00 0.00 803.50 931.00" xmlns="http://www.w3.org/2000/svg" xmlns:xlink="http://www.w3.org/1999/xlink">
<g id="graph0" class="graph" transform="scale(1 1) rotate(0) translate(4 927)">
<title>RayTracer::PluginsExt::LimitedPlane::LimitedPlaneEntity</title>
<polygon fill="white" stroke="transparent" points="-4,4 -4,-927 799.5,-927 799.5,4 -4,4"/>
<!-- Node1 -->
<g id="node1" class="node">
<title>Node1</title>
<g id="a_node1"><a xlink:title=" ">
<polygon fill="#bfbfbf" stroke="black" points="322.5,-0.5 322.5,-156.5 478.5,-156.5 478.5,-0.5 322.5,-0.5"/>
<text text-anchor="start" x="330.5" y="-144.5" font-family="Helvetica,sans-Serif" font-size="10.00">RayTracer::PluginsExt</text>
<text text-anchor="start" x="330.5" y="-133.5" font-family="Helvetica,sans-Serif" font-size="10.00">::LimitedPlane::LimitedPlane</text>
<text text-anchor="middle" x="400.5" y="-122.5" font-family="Helvetica,sans-Serif" font-size="10.00">Entity</text>
<polyline fill="none" stroke="black" points="322.5,-115.5 478.5,-115.5 "/>
<text text-anchor="middle" x="400.5" y="-103.5" font-family="Helvetica,sans-Serif" font-size="10.00"> </text>
<polyline fill="none" stroke="black" points="322.5,-96.5 478.5,-96.5 "/>
<text text-anchor="start" x="330.5" y="-84.5" font-family="Helvetica,sans-Serif" font-size="10.00">+ LimitedPlaneEntity()</text>
<text text-anchor="start" x="330.5" y="-73.5" font-family="Helvetica,sans-Serif" font-size="10.00">+ getType()</text>
<text text-anchor="start" x="330.5" y="-62.5" font-family="Helvetica,sans-Serif" font-size="10.00">+ getTransform()</text>
<text text-anchor="start" x="330.5" y="-51.5" font-family="Helvetica,sans-Serif" font-size="10.00">+ getTransform()</text>
<text text-anchor="start" x="330.5" y="-40.5" font-family="Helvetica,sans-Serif" font-size="10.00">+ isCollided()</text>
<text text-anchor="start" x="330.5" y="-29.5" font-family="Helvetica,sans-Serif" font-size="10.00">+ isCollided()</text>
<text text-anchor="start" x="330.5" y="-18.5" font-family="Helvetica,sans-Serif" font-size="10.00">+ getColor()</text>
<text text-anchor="start" x="330.5" y="-7.5" font-family="Helvetica,sans-Serif" font-size="10.00">+ redirectionLight()</text>
</a>
</g>
</g>
<!-- Node2 -->
<g id="node2" class="node">
<title>Node2</title>
<g id="a_node2"><a xlink:href="$a01303.html" xlink:title="The IPrimitive class.">
<polygon fill="white" stroke="black" points="21.5,-243 21.5,-355 133.5,-355 133.5,-243 21.5,-243"/>
<text text-anchor="start" x="29.5" y="-343" font-family="Helvetica,sans-Serif" font-size="10.00">RayTracer::Entities</text>
<text text-anchor="middle" x="77.5" y="-332" font-family="Helvetica,sans-Serif" font-size="10.00">::IPrimitive</text>
<polyline fill="none" stroke="black" points="21.5,-325 133.5,-325 "/>
<text text-anchor="middle" x="77.5" y="-313" font-family="Helvetica,sans-Serif" font-size="10.00"> </text>
<polyline fill="none" stroke="black" points="21.5,-306 133.5,-306 "/>
<text text-anchor="start" x="29.5" y="-294" font-family="Helvetica,sans-Serif" font-size="10.00">+ ~IPrimitive()</text>
<text text-anchor="start" x="29.5" y="-283" font-family="Helvetica,sans-Serif" font-size="10.00">+ getColor()</text>
<text text-anchor="start" x="29.5" y="-272" font-family="Helvetica,sans-Serif" font-size="10.00">+ isCollided()</text>
<text text-anchor="start" x="29.5" y="-261" font-family="Helvetica,sans-Serif" font-size="10.00">+ isCollided()</text>
<text text-anchor="start" x="29.5" y="-250" font-family="Helvetica,sans-Serif" font-size="10.00">+ redirectionLight()</text>
</a>
</g>
</g>
<!-- Node2&#45;&gt;Node1 -->
<g id="edge1" class="edge">
<title>Node2&#45;&gt;Node1</title>
<path fill="none" stroke="midnightblue" d="M141.36,-240.72C156.43,-228.11 172.71,-215.2 188.5,-204 231.15,-173.75 281.53,-143.95 322.47,-121.08"/>
<polygon fill="none" stroke="midnightblue" points="138.99,-238.14 133.6,-247.27 143.5,-243.49 138.99,-238.14"/>
</g>
<!-- Node3 -->
<g id="node3" class="node">
<title>Node3</title>
<g id="a_node3"><a xlink:href="$a01291.html" xlink:title="The IEntity class.">
<polygon fill="white" stroke="black" points="0,-579 0,-680 107,-680 107,-579 0,-579"/>
<text text-anchor="start" x="8" y="-668" font-family="Helvetica,sans-Serif" font-size="10.00">RayTracer::Entities</text>
<text text-anchor="middle" x="53.5" y="-657" font-family="Helvetica,sans-Serif" font-size="10.00">::IEntity</text>
<polyline fill="none" stroke="black" points="0,-650 107,-650 "/>
<text text-anchor="middle" x="53.5" y="-638" font-family="Helvetica,sans-Serif" font-size="10.00"> </text>
<polyline fill="none" stroke="black" points="0,-631 107,-631 "/>
<text text-anchor="start" x="8" y="-619" font-family="Helvetica,sans-Serif" font-size="10.00">+ ~IEntity()</text>
<text text-anchor="start" x="8" y="-608" font-family="Helvetica,sans-Serif" font-size="10.00">+ getTransform()</text>
<text text-anchor="start" x="8" y="-597" font-family="Helvetica,sans-Serif" font-size="10.00">+ getTransform()</text>
<text text-anchor="start" x="8" y="-586" font-family="Helvetica,sans-Serif" font-size="10.00">+ getType()</text>
</a>
</g>
</g>
<!-- Node3&#45;&gt;Node2 -->
<g id="edge2" class="edge">
<title>Node3&#45;&gt;Node2</title>
<path fill="none" stroke="midnightblue" d="M57.87,-568.74C62.31,-507.89 69.15,-414.3 73.47,-355.16"/>
<polygon fill="none" stroke="midnightblue" points="54.36,-568.74 57.12,-578.96 61.34,-569.25 54.36,-568.74"/>
</g>
<!-- Node4 -->
<g id="node4" class="node">
<title>Node4</title>
<g id="a_node4"><a xlink:href="$a01311.html" xlink:title="The Transform class.">
<polygon fill="white" stroke="black" points="197.5,-226.5 197.5,-371.5 323.5,-371.5 323.5,-226.5 197.5,-226.5"/>
<text text-anchor="start" x="205.5" y="-359.5" font-family="Helvetica,sans-Serif" font-size="10.00">RayTracer::Entities</text>
<text text-anchor="middle" x="260.5" y="-348.5" font-family="Helvetica,sans-Serif" font-size="10.00">::Transform::Transform</text>
<polyline fill="none" stroke="black" points="197.5,-341.5 323.5,-341.5 "/>
<text text-anchor="middle" x="260.5" y="-329.5" font-family="Helvetica,sans-Serif" font-size="10.00"> </text>
<polyline fill="none" stroke="black" points="197.5,-322.5 323.5,-322.5 "/>
<text text-anchor="start" x="205.5" y="-310.5" font-family="Helvetica,sans-Serif" font-size="10.00">+ Transform()</text>
<text text-anchor="start" x="205.5" y="-299.5" font-family="Helvetica,sans-Serif" font-size="10.00">+ setPosition()</text>
<text text-anchor="start" x="205.5" y="-288.5" font-family="Helvetica,sans-Serif" font-size="10.00">+ getPosition()</text>
<text text-anchor="start" x="205.5" y="-277.5" font-family="Helvetica,sans-Serif" font-size="10.00">+ setRotation()</text>
<text text-anchor="start" x="205.5" y="-266.5" font-family="Helvetica,sans-Serif" font-size="10.00">+ getRotation()</text>
<text text-anchor="start" x="205.5" y="-255.5" font-family="Helvetica,sans-Serif" font-size="10.00">+ setScale()</text>
<text text-anchor="start" x="205.5" y="-244.5" font-family="Helvetica,sans-Serif" font-size="10.00">+ getScale()</text>
<text text-anchor="start" x="205.5" y="-233.5" font-family="Helvetica,sans-Serif" font-size="10.00">+ operator=()</text>
</a>
</g>
</g>
<!-- Node4&#45;&gt;Node1 -->
<g id="edge3" class="edge">
<title>Node4&#45;&gt;Node1</title>
<path fill="none" stroke="#404040" d="M303.33,-226.4C313.7,-209.45 324.86,-191.5 335.5,-175 337.25,-172.29 339.03,-169.54 340.84,-166.77"/>
<polygon fill="none" stroke="#404040" points="340.89,-166.7 340.85,-159.49 347.49,-156.68 347.53,-163.89 340.89,-166.7"/>
<text text-anchor="middle" x="366" y="-178" font-family="Helvetica,sans-Serif" font-size="10.00"> &#45;_transform</text>
</g>
<!-- Node5 -->
<g id="node5" class="node">
<title>Node5</title>
<g id="a_node5"><a xlink:href="$a01307.html" xlink:title="The ITransform class.">
<polygon fill="white" stroke="black" points="125,-557 125,-702 254,-702 254,-557 125,-557"/>
<text text-anchor="start" x="133" y="-690" font-family="Helvetica,sans-Serif" font-size="10.00">RayTracer::Entities</text>
<text text-anchor="middle" x="189.5" y="-679" font-family="Helvetica,sans-Serif" font-size="10.00">::Transform::ITransform</text>
<polyline fill="none" stroke="black" points="125,-672 254,-672 "/>
<text text-anchor="middle" x="189.5" y="-660" font-family="Helvetica,sans-Serif" font-size="10.00"> </text>
<polyline fill="none" stroke="black" points="125,-653 254,-653 "/>
<text text-anchor="start" x="133" y="-641" font-family="Helvetica,sans-Serif" font-size="10.00">+ ~ITransform()</text>
<text text-anchor="start" x="133" y="-630" font-family="Helvetica,sans-Serif" font-size="10.00">+ setPosition()</text>
<text text-anchor="start" x="133" y="-619" font-family="Helvetica,sans-Serif" font-size="10.00">+ getPosition()</text>
<text text-anchor="start" x="133" y="-608" font-family="Helvetica,sans-Serif" font-size="10.00">+ setRotation()</text>
<text text-anchor="start" x="133" y="-597" font-family="Helvetica,sans-Serif" font-size="10.00">+ getRotation()</text>
<text text-anchor="start" x="133" y="-586" font-family="Helvetica,sans-Serif" font-size="10.00">+ setScale()</text>
<text text-anchor="start" x="133" y="-575" font-family="Helvetica,sans-Serif" font-size="10.00">+ getScale()</text>
<text text-anchor="start" x="133" y="-564" font-family="Helvetica,sans-Serif" font-size="10.00">+ operator=()</text>
</a>
</g>
</g>
<!-- Node5&#45;&gt;Node4 -->
<g id="edge4" class="edge">
<title>Node5&#45;&gt;Node4</title>
<path fill="none" stroke="midnightblue" d="M207.12,-546.96C218.76,-493.11 233.87,-423.21 245.04,-371.53"/>
<polygon fill="none" stroke="midnightblue" points="203.69,-546.3 204.99,-556.82 210.53,-547.78 203.69,-546.3"/>
</g>
<!-- Node6 -->
<g id="node6" class="node">
<title>Node6</title>
<g id="a_node6"><a xlink:href="$a01319.html" xlink:title="The Vector3f class.">
<polygon fill="white" stroke="black" points="272.5,-463.5 272.5,-795.5 390.5,-795.5 390.5,-463.5 272.5,-463.5"/>
<text text-anchor="start" x="280.5" y="-783.5" font-family="Helvetica,sans-Serif" font-size="10.00">RayTracer::Entities</text>
<text text-anchor="middle" x="331.5" y="-772.5" font-family="Helvetica,sans-Serif" font-size="10.00">::Transform::Vector3f</text>
<polyline fill="none" stroke="black" points="272.5,-765.5 390.5,-765.5 "/>
<text text-anchor="middle" x="331.5" y="-753.5" font-family="Helvetica,sans-Serif" font-size="10.00"> </text>
<polyline fill="none" stroke="black" points="272.5,-746.5 390.5,-746.5 "/>
<text text-anchor="start" x="280.5" y="-734.5" font-family="Helvetica,sans-Serif" font-size="10.00">+ ~Vector3f()</text>
<text text-anchor="start" x="280.5" y="-723.5" font-family="Helvetica,sans-Serif" font-size="10.00">+ Vector3f()</text>
<text text-anchor="start" x="280.5" y="-712.5" font-family="Helvetica,sans-Serif" font-size="10.00">+ Vector3f()</text>
<text text-anchor="start" x="280.5" y="-701.5" font-family="Helvetica,sans-Serif" font-size="10.00">+ Vector3f()</text>
<text text-anchor="start" x="280.5" y="-690.5" font-family="Helvetica,sans-Serif" font-size="10.00">+ Vector3f()</text>
<text text-anchor="start" x="280.5" y="-679.5" font-family="Helvetica,sans-Serif" font-size="10.00">+ operator+()</text>
<text text-anchor="start" x="280.5" y="-668.5" font-family="Helvetica,sans-Serif" font-size="10.00">+ operator&#45;()</text>
<text text-anchor="start" x="280.5" y="-657.5" font-family="Helvetica,sans-Serif" font-size="10.00">+ operator*()</text>
<text text-anchor="start" x="280.5" y="-646.5" font-family="Helvetica,sans-Serif" font-size="10.00">+ operator/()</text>
<text text-anchor="start" x="280.5" y="-635.5" font-family="Helvetica,sans-Serif" font-size="10.00">+ operator=()</text>
<text text-anchor="start" x="280.5" y="-624.5" font-family="Helvetica,sans-Serif" font-size="10.00">+ getX()</text>
<text text-anchor="start" x="280.5" y="-613.5" font-family="Helvetica,sans-Serif" font-size="10.00">+ getY()</text>
<text text-anchor="start" x="280.5" y="-602.5" font-family="Helvetica,sans-Serif" font-size="10.00">+ getZ()</text>
<text text-anchor="start" x="280.5" y="-591.5" font-family="Helvetica,sans-Serif" font-size="10.00">+ getNorm()</text>
<text text-anchor="start" x="280.5" y="-580.5" font-family="Helvetica,sans-Serif" font-size="10.00">+ getNormalized()</text>
<text text-anchor="start" x="280.5" y="-569.5" font-family="Helvetica,sans-Serif" font-size="10.00">+ getCrossed()</text>
<text text-anchor="start" x="280.5" y="-558.5" font-family="Helvetica,sans-Serif" font-size="10.00">+ dot()</text>
<text text-anchor="start" x="280.5" y="-547.5" font-family="Helvetica,sans-Serif" font-size="10.00">+ getDistance()</text>
<text text-anchor="start" x="280.5" y="-536.5" font-family="Helvetica,sans-Serif" font-size="10.00">+ toDegrees()</text>
<text text-anchor="start" x="280.5" y="-525.5" font-family="Helvetica,sans-Serif" font-size="10.00">+ toRadians()</text>
<text text-anchor="start" x="280.5" y="-514.5" font-family="Helvetica,sans-Serif" font-size="10.00">+ rotateVector()</text>
<text text-anchor="start" x="280.5" y="-503.5" font-family="Helvetica,sans-Serif" font-size="10.00">+ getAngle()</text>
<text text-anchor="start" x="280.5" y="-492.5" font-family="Helvetica,sans-Serif" font-size="10.00">+ rotateX()</text>
<text text-anchor="start" x="280.5" y="-481.5" font-family="Helvetica,sans-Serif" font-size="10.00">+ rotateY()</text>
<text text-anchor="start" x="280.5" y="-470.5" font-family="Helvetica,sans-Serif" font-size="10.00">+ rotateZ()</text>
</a>
</g>
</g>
<!-- Node6&#45;&gt;Node4 -->
<g id="edge5" class="edge">
<title>Node6&#45;&gt;Node4</title>
<path fill="none" stroke="#404040" d="M295.79,-463.29C289.8,-435.55 283.81,-407.85 278.52,-383.35"/>
<polygon fill="none" stroke="#404040" points="278.51,-383.33 273.33,-378.31 275.98,-371.6 281.15,-376.62 278.51,-383.33"/>
<text text-anchor="middle" x="318.5" y="-437" font-family="Helvetica,sans-Serif" font-size="10.00"> &#45;_position</text>
<text text-anchor="middle" x="318.5" y="-426" font-family="Helvetica,sans-Serif" font-size="10.00">&#45;_rotation</text>
<text text-anchor="middle" x="318.5" y="-415" font-family="Helvetica,sans-Serif" font-size="10.00">&#45;_scale</text>
</g>
<!-- Node7 -->
<g id="node7" class="node">
<title>Node7</title>
<g id="a_node7"><a xlink:title=" ">
<polygon fill="white" stroke="#bfbfbf" points="306.5,-865.5 306.5,-922.5 356.5,-922.5 356.5,-865.5 306.5,-865.5"/>
<text text-anchor="middle" x="331.5" y="-910.5" font-family="Helvetica,sans-Serif" font-size="10.00">double</text>
<polyline fill="none" stroke="#bfbfbf" points="306.5,-903.5 356.5,-903.5 "/>
<text text-anchor="middle" x="331.5" y="-891.5" font-family="Helvetica,sans-Serif" font-size="10.00"> </text>
<polyline fill="none" stroke="#bfbfbf" points="306.5,-884.5 356.5,-884.5 "/>
<text text-anchor="middle" x="331.5" y="-872.5" font-family="Helvetica,sans-Serif" font-size="10.00"> </text>
</a>
</g>
</g>
<!-- Node7&#45;&gt;Node6 -->
<g id="edge6" class="edge">
<title>Node7&#45;&gt;Node6</title>
<path fill="none" stroke="#404040" d="M331.5,-865.4C331.5,-850.23 331.5,-829.98 331.5,-807.71"/>
<polygon fill="none" stroke="#404040" points="331.5,-807.52 327.5,-801.52 331.5,-795.52 335.5,-801.52 331.5,-807.52"/>
<text text-anchor="middle" x="341" y="-839" font-family="Helvetica,sans-Serif" font-size="10.00"> &#45;_x</text>
<text text-anchor="middle" x="341" y="-828" font-family="Helvetica,sans-Serif" font-size="10.00">&#45;_y</text>
<text text-anchor="middle" x="341" y="-817" font-family="Helvetica,sans-Serif" font-size="10.00">&#45;_z</text>
</g>
<!-- Node8 -->
<g id="node8" class="node">
<title>Node8</title>
<g id="a_node8"><a xlink:href="$a01315.html" xlink:title="The Vector2i class.">
<polygon fill="white" stroke="black" points="342,-204.5 342,-393.5 459,-393.5 459,-204.5 342,-204.5"/>
<text text-anchor="start" x="350" y="-381.5" font-family="Helvetica,sans-Serif" font-size="10.00">RayTracer::Entities</text>
<text text-anchor="middle" x="400.5" y="-370.5" font-family="Helvetica,sans-Serif" font-size="10.00">::Transform::Vector2i</text>
<polyline fill="none" stroke="black" points="342,-363.5 459,-363.5 "/>
<text text-anchor="middle" x="400.5" y="-351.5" font-family="Helvetica,sans-Serif" font-size="10.00"> </text>
<polyline fill="none" stroke="black" points="342,-344.5 459,-344.5 "/>
<text text-anchor="start" x="350" y="-332.5" font-family="Helvetica,sans-Serif" font-size="10.00">+ ~Vector2i()</text>
<text text-anchor="start" x="350" y="-321.5" font-family="Helvetica,sans-Serif" font-size="10.00">+ Vector2i()</text>
<text text-anchor="start" x="350" y="-310.5" font-family="Helvetica,sans-Serif" font-size="10.00">+ Vector2i()</text>
<text text-anchor="start" x="350" y="-299.5" font-family="Helvetica,sans-Serif" font-size="10.00">+ Vector2i()</text>
<text text-anchor="start" x="350" y="-288.5" font-family="Helvetica,sans-Serif" font-size="10.00">+ Vector2i()</text>
<text text-anchor="start" x="350" y="-277.5" font-family="Helvetica,sans-Serif" font-size="10.00">+ operator+()</text>
<text text-anchor="start" x="350" y="-266.5" font-family="Helvetica,sans-Serif" font-size="10.00">+ operator&#45;()</text>
<text text-anchor="start" x="350" y="-255.5" font-family="Helvetica,sans-Serif" font-size="10.00">+ operator*()</text>
<text text-anchor="start" x="350" y="-244.5" font-family="Helvetica,sans-Serif" font-size="10.00">+ operator/()</text>
<text text-anchor="start" x="350" y="-233.5" font-family="Helvetica,sans-Serif" font-size="10.00">+ operator=()</text>
<text text-anchor="start" x="350" y="-222.5" font-family="Helvetica,sans-Serif" font-size="10.00">+ getX()</text>
<text text-anchor="start" x="350" y="-211.5" font-family="Helvetica,sans-Serif" font-size="10.00">+ getY()</text>
</a>
</g>
</g>
<!-- Node8&#45;&gt;Node1 -->
<g id="edge7" class="edge">
<title>Node8&#45;&gt;Node1</title>
<path fill="none" stroke="#404040" d="M400.5,-204.39C400.5,-192.61 400.5,-180.58 400.5,-168.87"/>
<polygon fill="none" stroke="#404040" points="400.5,-168.81 396.5,-162.81 400.5,-156.81 404.5,-162.81 400.5,-168.81"/>
<text text-anchor="middle" x="416.5" y="-178" font-family="Helvetica,sans-Serif" font-size="10.00"> &#45;_size</text>
</g>
<!-- Node9 -->
<g id="node9" class="node">
<title>Node9</title>
<g id="a_node9"><a xlink:title=" ">
<polygon fill="white" stroke="#bfbfbf" points="409,-601 409,-658 438,-658 438,-601 409,-601"/>
<text text-anchor="middle" x="423.5" y="-646" font-family="Helvetica,sans-Serif" font-size="10.00">int</text>
<polyline fill="none" stroke="#bfbfbf" points="409,-639 438,-639 "/>
<text text-anchor="middle" x="423.5" y="-627" font-family="Helvetica,sans-Serif" font-size="10.00"> </text>
<polyline fill="none" stroke="#bfbfbf" points="409,-620 438,-620 "/>
<text text-anchor="middle" x="423.5" y="-608" font-family="Helvetica,sans-Serif" font-size="10.00"> </text>
</a>
</g>
</g>
<!-- Node9&#45;&gt;Node8 -->
<g id="edge8" class="edge">
<title>Node9&#45;&gt;Node8</title>
<path fill="none" stroke="#404040" d="M421.56,-600.78C418.58,-558.17 412.71,-474.34 407.92,-405.99"/>
<polygon fill="none" stroke="#404040" points="407.91,-405.83 403.5,-400.12 407.07,-393.86 411.48,-399.56 407.91,-405.83"/>
<text text-anchor="middle" x="421" y="-431.5" font-family="Helvetica,sans-Serif" font-size="10.00"> &#45;_x</text>
<text text-anchor="middle" x="421" y="-420.5" font-family="Helvetica,sans-Serif" font-size="10.00">&#45;_y</text>
</g>
<!-- Node10 -->
<g id="node10" class="node">
<title>Node10</title>
<g id="a_node10"><a xlink:title=" ">
<polygon fill="white" stroke="#bfbfbf" points="477.5,-259.5 477.5,-338.5 641.5,-338.5 641.5,-259.5 477.5,-259.5"/>
<text text-anchor="start" x="485.5" y="-326.5" font-family="Helvetica,sans-Serif" font-size="10.00">optional&lt; std::reference</text>
<text text-anchor="start" x="485.5" y="-315.5" font-family="Helvetica,sans-Serif" font-size="10.00">_wrapper&lt; RayTracer::Entities</text>
<text text-anchor="middle" x="559.5" y="-304.5" font-family="Helvetica,sans-Serif" font-size="10.00">::IMaterial &gt; &gt;</text>
<polyline fill="none" stroke="#bfbfbf" points="477.5,-297.5 641.5,-297.5 "/>
<text text-anchor="middle" x="559.5" y="-285.5" font-family="Helvetica,sans-Serif" font-size="10.00"> </text>
<polyline fill="none" stroke="#bfbfbf" points="477.5,-278.5 641.5,-278.5 "/>
<text text-anchor="middle" x="559.5" y="-266.5" font-family="Helvetica,sans-Serif" font-size="10.00"> </text>
</a>
</g>
</g>
<!-- Node10&#45;&gt;Node1 -->
<g id="edge9" class="edge">
<title>Node10&#45;&gt;Node1</title>
<path fill="none" stroke="#404040" d="M531.44,-259.44C512.7,-233.68 487.27,-198.73 463.8,-166.49"/>
<polygon fill="none" stroke="#404040" points="463.65,-166.29 456.89,-163.79 456.59,-156.58 463.36,-159.08 463.65,-166.29"/>
<text text-anchor="middle" x="502.5" y="-178" font-family="Helvetica,sans-Serif" font-size="10.00"> &#45;_material</text>
</g>
<!-- Node11 -->
<g id="node11" class="node">
<title>Node11</title>
<g id="a_node11"><a xlink:href="$a01355.html" xlink:title="Logger singleton.">
<polygon fill="white" stroke="black" points="659.5,-226.5 659.5,-371.5 795.5,-371.5 795.5,-226.5 659.5,-226.5"/>
<text text-anchor="middle" x="727.5" y="-359.5" font-family="Helvetica,sans-Serif" font-size="10.00">RayTracer::ILogger</text>
<polyline fill="none" stroke="black" points="659.5,-352.5 795.5,-352.5 "/>
<text text-anchor="middle" x="727.5" y="-340.5" font-family="Helvetica,sans-Serif" font-size="10.00"> </text>
<polyline fill="none" stroke="black" points="659.5,-333.5 795.5,-333.5 "/>
<text text-anchor="start" x="667.5" y="-321.5" font-family="Helvetica,sans-Serif" font-size="10.00">+ ~ILogger()</text>
<text text-anchor="start" x="667.5" y="-310.5" font-family="Helvetica,sans-Serif" font-size="10.00">+ fatal()</text>
<text text-anchor="start" x="667.5" y="-299.5" font-family="Helvetica,sans-Serif" font-size="10.00">+ error()</text>
<text text-anchor="start" x="667.5" y="-288.5" font-family="Helvetica,sans-Serif" font-size="10.00">+ warn()</text>
<text text-anchor="start" x="667.5" y="-277.5" font-family="Helvetica,sans-Serif" font-size="10.00">+ info()</text>
<text text-anchor="start" x="667.5" y="-266.5" font-family="Helvetica,sans-Serif" font-size="10.00">+ debug()</text>
<text text-anchor="start" x="667.5" y="-255.5" font-family="Helvetica,sans-Serif" font-size="10.00">+ trace()</text>
<text text-anchor="start" x="667.5" y="-244.5" font-family="Helvetica,sans-Serif" font-size="10.00">+ subscribeCallback()</text>
<text text-anchor="start" x="667.5" y="-233.5" font-family="Helvetica,sans-Serif" font-size="10.00">+ unsubscribeCallback()</text>
</a>
</g>
</g>
<!-- Node11&#45;&gt;Node1 -->
<g id="edge10" class="edge">
<title>Node11&#45;&gt;Node1</title>
<path fill="none" stroke="#404040" d="M674.18,-226.13C666.71,-218.17 658.75,-210.58 650.5,-204 602.22,-165.49 540.1,-134.48 489.86,-113.04"/>
<polygon fill="none" stroke="#404040" points="489.74,-112.99 482.66,-114.36 478.67,-108.35 485.75,-106.98 489.74,-112.99"/>
<text text-anchor="middle" x="641" y="-178" font-family="Helvetica,sans-Serif" font-size="10.00"> &#45;_logger</text>
</g>
</g>
</svg>
