<?xml version="1.0" encoding="UTF-8" standalone="no"?>
<!DOCTYPE svg PUBLIC "-//W3C//DTD SVG 1.1//EN"
 "http://www.w3.org/Graphics/SVG/1.1/DTD/svg11.dtd">
<!-- Generated by graphviz version 2.43.0 (0)
 -->
<!-- Title: RayTracer::PluginsExt::Transparency::TransparencyMaterial Pages: 1 -->
<svg width="497pt" height="672pt"
 viewBox="0.00 0.00 496.50 672.00" xmlns="http://www.w3.org/2000/svg" xmlns:xlink="http://www.w3.org/1999/xlink">
<g id="graph0" class="graph" transform="scale(1 1) rotate(0) translate(4 668)">
<title>RayTracer::PluginsExt::Transparency::TransparencyMaterial</title>
<polygon fill="white" stroke="transparent" points="-4,4 -4,-668 492.5,-668 492.5,4 -4,4"/>
<!-- Node1 -->
<g id="node1" class="node">
<title>Node1</title>
<g id="a_node1"><a xlink:title=" ">
<polygon fill="#bfbfbf" stroke="black" points="114.5,-0.5 114.5,-123.5 271.5,-123.5 271.5,-0.5 114.5,-0.5"/>
<text text-anchor="start" x="122.5" y="-111.5" font-family="Helvetica,sans-Serif" font-size="10.00">RayTracer::PluginsExt</text>
<text text-anchor="start" x="122.5" y="-100.5" font-family="Helvetica,sans-Serif" font-size="10.00">::Transparency::Transparency</text>
<text text-anchor="middle" x="193" y="-89.5" font-family="Helvetica,sans-Serif" font-size="10.00">Material</text>
<polyline fill="none" stroke="black" points="114.5,-82.5 271.5,-82.5 "/>
<text text-anchor="middle" x="193" y="-70.5" font-family="Helvetica,sans-Serif" font-size="10.00"> </text>
<polyline fill="none" stroke="black" points="114.5,-63.5 271.5,-63.5 "/>
<text text-anchor="start" x="122.5" y="-51.5" font-family="Helvetica,sans-Serif" font-size="10.00">+ TransparencyMaterial()</text>
<text text-anchor="start" x="122.5" y="-40.5" font-family="Helvetica,sans-Serif" font-size="10.00">+ getColor()</text>
<text text-anchor="start" x="122.5" y="-29.5" font-family="Helvetica,sans-Serif" font-size="10.00">+ setColor()</text>
<text text-anchor="start" x="122.5" y="-18.5" font-family="Helvetica,sans-Serif" font-size="10.00">+ redirectionLight()</text>
<text text-anchor="start" x="122.5" y="-7.5" font-family="Helvetica,sans-Serif" font-size="10.00">&#45; getNextColor()</text>
</a>
</g>
</g>
<!-- Node2 -->
<g id="node2" class="node">
<title>Node2</title>
<g id="a_node2"><a xlink:href="$a01267.html" xlink:title="The IMaterial class.">
<polygon fill="white" stroke="black" points="0,-309 0,-410 112,-410 112,-309 0,-309"/>
<text text-anchor="start" x="8" y="-398" font-family="Helvetica,sans-Serif" font-size="10.00">RayTracer::Entities</text>
<text text-anchor="middle" x="56" y="-387" font-family="Helvetica,sans-Serif" font-size="10.00">::IMaterial</text>
<polyline fill="none" stroke="black" points="0,-380 112,-380 "/>
<text text-anchor="middle" x="56" y="-368" font-family="Helvetica,sans-Serif" font-size="10.00"> </text>
<polyline fill="none" stroke="black" points="0,-361 112,-361 "/>
<text text-anchor="start" x="8" y="-349" font-family="Helvetica,sans-Serif" font-size="10.00">+ ~IMaterial()</text>
<text text-anchor="start" x="8" y="-338" font-family="Helvetica,sans-Serif" font-size="10.00">+ getColor()</text>
<text text-anchor="start" x="8" y="-327" font-family="Helvetica,sans-Serif" font-size="10.00">+ setColor()</text>
<text text-anchor="start" x="8" y="-316" font-family="Helvetica,sans-Serif" font-size="10.00">+ redirectionLight()</text>
</a>
</g>
</g>
<!-- Node2&#45;&gt;Node1 -->
<g id="edge1" class="edge">
<title>Node2&#45;&gt;Node1</title>
<path fill="none" stroke="midnightblue" d="M72.3,-298.76C85.71,-254.12 106.9,-192.37 134,-142 137.24,-135.97 140.92,-129.9 144.8,-123.94"/>
<polygon fill="none" stroke="midnightblue" points="68.88,-298 69.4,-308.58 75.59,-299.99 68.88,-298"/>
</g>
<!-- Node3 -->
<g id="node3" class="node">
<title>Node3</title>
<g id="a_node3"><a xlink:title=" ">
<polygon fill="white" stroke="#bfbfbf" points="273,-606.5 273,-663.5 323,-663.5 323,-606.5 273,-606.5"/>
<text text-anchor="middle" x="298" y="-651.5" font-family="Helvetica,sans-Serif" font-size="10.00">double</text>
<polyline fill="none" stroke="#bfbfbf" points="273,-644.5 323,-644.5 "/>
<text text-anchor="middle" x="298" y="-632.5" font-family="Helvetica,sans-Serif" font-size="10.00"> </text>
<polyline fill="none" stroke="#bfbfbf" points="273,-625.5 323,-625.5 "/>
<text text-anchor="middle" x="298" y="-613.5" font-family="Helvetica,sans-Serif" font-size="10.00"> </text>
</a>
</g>
</g>
<!-- Node3&#45;&gt;Node1 -->
<g id="edge2" class="edge">
<title>Node3&#45;&gt;Node1</title>
<path fill="none" stroke="#404040" d="M272.91,-623.47C239.32,-607.83 181.16,-574.94 157,-526 94.64,-399.69 134.17,-230.14 165.56,-135.19"/>
<polygon fill="none" stroke="#404040" points="165.59,-135.08 163.72,-128.12 169.43,-123.71 171.3,-130.68 165.59,-135.08"/>
<text text-anchor="middle" x="193.5" y="-362.5" font-family="Helvetica,sans-Serif" font-size="10.00"> &#45;_shininess</text>
<text text-anchor="middle" x="193.5" y="-351.5" font-family="Helvetica,sans-Serif" font-size="10.00">&#45;_transparency</text>
</g>
<!-- Node4 -->
<g id="node4" class="node">
<title>Node4</title>
<g id="a_node4"><a xlink:href="$a01287.html" xlink:title="The Vector3f class.">
<polygon fill="white" stroke="black" points="239,-193.5 239,-525.5 357,-525.5 357,-193.5 239,-193.5"/>
<text text-anchor="start" x="247" y="-513.5" font-family="Helvetica,sans-Serif" font-size="10.00">RayTracer::Entities</text>
<text text-anchor="middle" x="298" y="-502.5" font-family="Helvetica,sans-Serif" font-size="10.00">::Transform::Vector3f</text>
<polyline fill="none" stroke="black" points="239,-495.5 357,-495.5 "/>
<text text-anchor="middle" x="298" y="-483.5" font-family="Helvetica,sans-Serif" font-size="10.00"> </text>
<polyline fill="none" stroke="black" points="239,-476.5 357,-476.5 "/>
<text text-anchor="start" x="247" y="-464.5" font-family="Helvetica,sans-Serif" font-size="10.00">+ ~Vector3f()</text>
<text text-anchor="start" x="247" y="-453.5" font-family="Helvetica,sans-Serif" font-size="10.00">+ Vector3f()</text>
<text text-anchor="start" x="247" y="-442.5" font-family="Helvetica,sans-Serif" font-size="10.00">+ Vector3f()</text>
<text text-anchor="start" x="247" y="-431.5" font-family="Helvetica,sans-Serif" font-size="10.00">+ Vector3f()</text>
<text text-anchor="start" x="247" y="-420.5" font-family="Helvetica,sans-Serif" font-size="10.00">+ Vector3f()</text>
<text text-anchor="start" x="247" y="-409.5" font-family="Helvetica,sans-Serif" font-size="10.00">+ operator+()</text>
<text text-anchor="start" x="247" y="-398.5" font-family="Helvetica,sans-Serif" font-size="10.00">+ operator&#45;()</text>
<text text-anchor="start" x="247" y="-387.5" font-family="Helvetica,sans-Serif" font-size="10.00">+ operator*()</text>
<text text-anchor="start" x="247" y="-376.5" font-family="Helvetica,sans-Serif" font-size="10.00">+ operator/()</text>
<text text-anchor="start" x="247" y="-365.5" font-family="Helvetica,sans-Serif" font-size="10.00">+ operator=()</text>
<text text-anchor="start" x="247" y="-354.5" font-family="Helvetica,sans-Serif" font-size="10.00">+ getX()</text>
<text text-anchor="start" x="247" y="-343.5" font-family="Helvetica,sans-Serif" font-size="10.00">+ getY()</text>
<text text-anchor="start" x="247" y="-332.5" font-family="Helvetica,sans-Serif" font-size="10.00">+ getZ()</text>
<text text-anchor="start" x="247" y="-321.5" font-family="Helvetica,sans-Serif" font-size="10.00">+ getNorm()</text>
<text text-anchor="start" x="247" y="-310.5" font-family="Helvetica,sans-Serif" font-size="10.00">+ getNormalized()</text>
<text text-anchor="start" x="247" y="-299.5" font-family="Helvetica,sans-Serif" font-size="10.00">+ getCrossed()</text>
<text text-anchor="start" x="247" y="-288.5" font-family="Helvetica,sans-Serif" font-size="10.00">+ dot()</text>
<text text-anchor="start" x="247" y="-277.5" font-family="Helvetica,sans-Serif" font-size="10.00">+ getDistance()</text>
<text text-anchor="start" x="247" y="-266.5" font-family="Helvetica,sans-Serif" font-size="10.00">+ toDegrees()</text>
<text text-anchor="start" x="247" y="-255.5" font-family="Helvetica,sans-Serif" font-size="10.00">+ toRadians()</text>
<text text-anchor="start" x="247" y="-244.5" font-family="Helvetica,sans-Serif" font-size="10.00">+ rotateVector()</text>
<text text-anchor="start" x="247" y="-233.5" font-family="Helvetica,sans-Serif" font-size="10.00">+ getAngle()</text>
<text text-anchor="start" x="247" y="-222.5" font-family="Helvetica,sans-Serif" font-size="10.00">+ rotateX()</text>
<text text-anchor="start" x="247" y="-211.5" font-family="Helvetica,sans-Serif" font-size="10.00">+ rotateY()</text>
<text text-anchor="start" x="247" y="-200.5" font-family="Helvetica,sans-Serif" font-size="10.00">+ rotateZ()</text>
</a>
</g>
</g>
<!-- Node3&#45;&gt;Node4 -->
<g id="edge4" class="edge">
<title>Node3&#45;&gt;Node4</title>
<path fill="none" stroke="#404040" d="M298,-606.27C298,-588.78 298,-564.54 298,-538.06"/>
<polygon fill="none" stroke="#404040" points="298,-537.74 294,-531.74 298,-525.74 302,-531.74 298,-537.74"/>
<text text-anchor="middle" x="307.5" y="-574.5" font-family="Helvetica,sans-Serif" font-size="10.00"> &#45;_x</text>
<text text-anchor="middle" x="307.5" y="-563.5" font-family="Helvetica,sans-Serif" font-size="10.00">&#45;_y</text>
<text text-anchor="middle" x="307.5" y="-552.5" font-family="Helvetica,sans-Serif" font-size="10.00">&#45;_z</text>
</g>
<!-- Node5 -->
<g id="node5" class="node">
<title>Node5</title>
<g id="a_node5"><a xlink:href="$a01327.html" xlink:title="The Color class.">
<polygon fill="white" stroke="black" points="375.5,-243 375.5,-476 488.5,-476 488.5,-243 375.5,-243"/>
<text text-anchor="start" x="383.5" y="-464" font-family="Helvetica,sans-Serif" font-size="10.00">RayTracer::Images::</text>
<text text-anchor="middle" x="432" y="-453" font-family="Helvetica,sans-Serif" font-size="10.00">Color</text>
<polyline fill="none" stroke="black" points="375.5,-446 488.5,-446 "/>
<text text-anchor="middle" x="432" y="-434" font-family="Helvetica,sans-Serif" font-size="10.00"> </text>
<polyline fill="none" stroke="black" points="375.5,-427 488.5,-427 "/>
<text text-anchor="start" x="383.5" y="-415" font-family="Helvetica,sans-Serif" font-size="10.00">+ ~Color()</text>
<text text-anchor="start" x="383.5" y="-404" font-family="Helvetica,sans-Serif" font-size="10.00">+ Color()</text>
<text text-anchor="start" x="383.5" y="-393" font-family="Helvetica,sans-Serif" font-size="10.00">+ Color()</text>
<text text-anchor="start" x="383.5" y="-382" font-family="Helvetica,sans-Serif" font-size="10.00">+ Color()</text>
<text text-anchor="start" x="383.5" y="-371" font-family="Helvetica,sans-Serif" font-size="10.00">+ operator+()</text>
<text text-anchor="start" x="383.5" y="-360" font-family="Helvetica,sans-Serif" font-size="10.00">+ operator&#45;()</text>
<text text-anchor="start" x="383.5" y="-349" font-family="Helvetica,sans-Serif" font-size="10.00">+ operator*()</text>
<text text-anchor="start" x="383.5" y="-338" font-family="Helvetica,sans-Serif" font-size="10.00">+ operator/()</text>
<text text-anchor="start" x="383.5" y="-327" font-family="Helvetica,sans-Serif" font-size="10.00">+ operator=()</text>
<text text-anchor="start" x="383.5" y="-316" font-family="Helvetica,sans-Serif" font-size="10.00">+ operator[]()</text>
<text text-anchor="start" x="383.5" y="-305" font-family="Helvetica,sans-Serif" font-size="10.00">+ operator[]()</text>
<text text-anchor="start" x="383.5" y="-294" font-family="Helvetica,sans-Serif" font-size="10.00">+ set()</text>
<text text-anchor="start" x="383.5" y="-283" font-family="Helvetica,sans-Serif" font-size="10.00">+ applyAlpha()</text>
<text text-anchor="start" x="383.5" y="-272" font-family="Helvetica,sans-Serif" font-size="10.00">+ mergeColor()</text>
<text text-anchor="start" x="383.5" y="-261" font-family="Helvetica,sans-Serif" font-size="10.00">+ applyDistance()</text>
<text text-anchor="start" x="383.5" y="-250" font-family="Helvetica,sans-Serif" font-size="10.00">+ toSfColor()</text>
</a>
</g>
</g>
<!-- Node3&#45;&gt;Node5 -->
<g id="edge6" class="edge">
<title>Node3&#45;&gt;Node5</title>
<path fill="none" stroke="#404040" d="M317.35,-606.4C331.82,-585.05 351.53,-554.44 366,-526 372.3,-513.62 378.42,-500.48 384.24,-487.24"/>
<polygon fill="none" stroke="#404040" points="384.29,-487.13 382.99,-480.03 389.04,-476.11 390.34,-483.2 384.29,-487.13"/>
<text text-anchor="middle" x="366.5" y="-580" font-family="Helvetica,sans-Serif" font-size="10.00"> &#45;_a</text>
<text text-anchor="middle" x="366.5" y="-569" font-family="Helvetica,sans-Serif" font-size="10.00">&#45;_b</text>
<text text-anchor="middle" x="366.5" y="-558" font-family="Helvetica,sans-Serif" font-size="10.00">&#45;_g</text>
<text text-anchor="middle" x="366.5" y="-547" font-family="Helvetica,sans-Serif" font-size="10.00">&#45;_r</text>
</g>
<!-- Node4&#45;&gt;Node1 -->
<g id="edge3" class="edge">
<title>Node4&#45;&gt;Node1</title>
<path fill="none" stroke="#404040" d="M239.36,-193.47C232.12,-173.08 225.03,-153.14 218.66,-135.22"/>
<polygon fill="none" stroke="#404040" points="218.61,-135.07 212.83,-130.75 214.59,-123.76 220.37,-128.07 218.61,-135.07"/>
<text text-anchor="middle" x="256.5" y="-167" font-family="Helvetica,sans-Serif" font-size="10.00"> &#45;_ambient</text>
<text text-anchor="middle" x="256.5" y="-156" font-family="Helvetica,sans-Serif" font-size="10.00">&#45;_diffuse</text>
<text text-anchor="middle" x="256.5" y="-145" font-family="Helvetica,sans-Serif" font-size="10.00">&#45;_specular</text>
</g>
<!-- Node5&#45;&gt;Node1 -->
<g id="edge5" class="edge">
<title>Node5&#45;&gt;Node1</title>
<path fill="none" stroke="#404040" d="M395.41,-242.8C387.21,-225.23 377.46,-207.99 366,-193 343.14,-163.11 311.68,-136.7 281.85,-115.63"/>
<polygon fill="none" stroke="#404040" points="281.68,-115.52 274.47,-115.4 271.81,-108.69 279.02,-108.82 281.68,-115.52"/>
<text text-anchor="middle" x="365.5" y="-156" font-family="Helvetica,sans-Serif" font-size="10.00"> &#45;_color</text>
</g>
<!-- Node6 -->
<g id="node6" class="node">
<title>Node6</title>
<g id="a_node6"><a xlink:title=" ">
<polygon fill="white" stroke="#bfbfbf" points="397.5,-606.5 397.5,-663.5 466.5,-663.5 466.5,-606.5 397.5,-606.5"/>
<text text-anchor="middle" x="432" y="-651.5" font-family="Helvetica,sans-Serif" font-size="10.00">std::mutex</text>
<polyline fill="none" stroke="#bfbfbf" points="397.5,-644.5 466.5,-644.5 "/>
<text text-anchor="middle" x="432" y="-632.5" font-family="Helvetica,sans-Serif" font-size="10.00"> </text>
<polyline fill="none" stroke="#bfbfbf" points="397.5,-625.5 466.5,-625.5 "/>
<text text-anchor="middle" x="432" y="-613.5" font-family="Helvetica,sans-Serif" font-size="10.00"> </text>
</a>
</g>
</g>
<!-- Node6&#45;&gt;Node5 -->
<g id="edge7" class="edge">
<title>Node6&#45;&gt;Node5</title>
<path fill="none" stroke="#404040" d="M432,-606.27C432,-578.16 432,-532.6 432,-488.3"/>
<polygon fill="none" stroke="#404040" points="432,-488.16 428,-482.16 432,-476.16 436,-482.16 432,-488.16"/>
<text text-anchor="middle" x="454" y="-563.5" font-family="Helvetica,sans-Serif" font-size="10.00"> &#45;_mutex</text>
</g>
</g>
</svg>
