<?xml version="1.0" encoding="UTF-8" standalone="no"?>
<!DOCTYPE svg PUBLIC "-//W3C//DTD SVG 1.1//EN"
 "http://www.w3.org/Graphics/SVG/1.1/DTD/svg11.dtd">
<!-- Generated by graphviz version 2.43.0 (0)
 -->
<!-- Title: RayTracer::PluginsExt::Zebra::ZebraCreator Pages: 1 -->
<svg width="162pt" height="204pt"
 viewBox="0.00 0.00 162.00 204.00" xmlns="http://www.w3.org/2000/svg" xmlns:xlink="http://www.w3.org/1999/xlink">
<g id="graph0" class="graph" transform="scale(1 1) rotate(0) translate(4 200)">
<title>RayTracer::PluginsExt::Zebra::ZebraCreator</title>
<polygon fill="white" stroke="transparent" points="-4,4 -4,-200 158,-200 158,4 -4,4"/>
<!-- Node1 -->
<g id="node1" class="node">
<title>Node1</title>
<g id="a_node1"><a xlink:title=" ">
<polygon fill="#bfbfbf" stroke="black" points="16,-0.5 16,-79.5 138,-79.5 138,-0.5 16,-0.5"/>
<text text-anchor="start" x="24" y="-67.5" font-family="Helvetica,sans-Serif" font-size="10.00">RayTracer::PluginsExt</text>
<text text-anchor="middle" x="77" y="-56.5" font-family="Helvetica,sans-Serif" font-size="10.00">::Zebra::ZebraCreator</text>
<polyline fill="none" stroke="black" points="16,-49.5 138,-49.5 "/>
<text text-anchor="start" x="24" y="-37.5" font-family="Helvetica,sans-Serif" font-size="10.00">&#45; _elements</text>
<polyline fill="none" stroke="black" points="16,-30.5 138,-30.5 "/>
<text text-anchor="start" x="24" y="-18.5" font-family="Helvetica,sans-Serif" font-size="10.00">+ ~ZebraCreator()</text>
<text text-anchor="start" x="24" y="-7.5" font-family="Helvetica,sans-Serif" font-size="10.00">+ create()</text>
</a>
</g>
</g>
<!-- Node2 -->
<g id="node2" class="node">
<title>Node2</title>
<g id="a_node2"><a xlink:href="$a01447.html" xlink:title="The IMaterialCreator class.">
<polygon fill="white" stroke="black" points="0,-116.5 0,-195.5 154,-195.5 154,-116.5 0,-116.5"/>
<text text-anchor="start" x="8" y="-183.5" font-family="Helvetica,sans-Serif" font-size="10.00">RayTracer::Plugins</text>
<text text-anchor="middle" x="77" y="-172.5" font-family="Helvetica,sans-Serif" font-size="10.00">::Materials::IMaterialCreator</text>
<polyline fill="none" stroke="black" points="0,-165.5 154,-165.5 "/>
<text text-anchor="middle" x="77" y="-153.5" font-family="Helvetica,sans-Serif" font-size="10.00"> </text>
<polyline fill="none" stroke="black" points="0,-146.5 154,-146.5 "/>
<text text-anchor="start" x="8" y="-134.5" font-family="Helvetica,sans-Serif" font-size="10.00">+ ~IMaterialCreator()</text>
<text text-anchor="start" x="8" y="-123.5" font-family="Helvetica,sans-Serif" font-size="10.00">+ create()</text>
</a>
</g>
</g>
<!-- Node2&#45;&gt;Node1 -->
<g id="edge1" class="edge">
<title>Node2&#45;&gt;Node1</title>
<path fill="none" stroke="midnightblue" d="M77,-106.15C77,-97.26 77,-88.1 77,-79.56"/>
<polygon fill="none" stroke="midnightblue" points="73.5,-106.4 77,-116.4 80.5,-106.4 73.5,-106.4"/>
</g>
</g>
</svg>
