<?xml version="1.0" encoding="UTF-8" standalone="no"?>
<!DOCTYPE svg PUBLIC "-//W3C//DTD SVG 1.1//EN"
 "http://www.w3.org/Graphics/SVG/1.1/DTD/svg11.dtd">
<!-- Generated by graphviz version 2.43.0 (0)
 -->
<!-- Title: RayTracer::PluginsExt::Transparency::TransparencyCreator Pages: 1 -->
<svg width="583pt" height="959pt"
 viewBox="0.00 0.00 583.00 959.00" xmlns="http://www.w3.org/2000/svg" xmlns:xlink="http://www.w3.org/1999/xlink">
<g id="graph0" class="graph" transform="scale(1 1) rotate(0) translate(4 955)">
<title>RayTracer::PluginsExt::Transparency::TransparencyCreator</title>
<polygon fill="white" stroke="transparent" points="-4,4 -4,-955 579,-955 579,4 -4,4"/>
<!-- Node1 -->
<g id="node1" class="node">
<title>Node1</title>
<g id="a_node1"><a xlink:title=" ">
<polygon fill="#bfbfbf" stroke="black" points="146.5,-0.5 146.5,-90.5 303.5,-90.5 303.5,-0.5 146.5,-0.5"/>
<text text-anchor="start" x="154.5" y="-78.5" font-family="Helvetica,sans-Serif" font-size="10.00">RayTracer::PluginsExt</text>
<text text-anchor="start" x="154.5" y="-67.5" font-family="Helvetica,sans-Serif" font-size="10.00">::Transparency::Transparency</text>
<text text-anchor="middle" x="225" y="-56.5" font-family="Helvetica,sans-Serif" font-size="10.00">Creator</text>
<polyline fill="none" stroke="black" points="146.5,-49.5 303.5,-49.5 "/>
<text text-anchor="middle" x="225" y="-37.5" font-family="Helvetica,sans-Serif" font-size="10.00"> </text>
<polyline fill="none" stroke="black" points="146.5,-30.5 303.5,-30.5 "/>
<text text-anchor="start" x="154.5" y="-18.5" font-family="Helvetica,sans-Serif" font-size="10.00">+ ~TransparencyCreator()</text>
<text text-anchor="start" x="154.5" y="-7.5" font-family="Helvetica,sans-Serif" font-size="10.00">+ create()</text>
</a>
</g>
</g>
<!-- Node2 -->
<g id="node2" class="node">
<title>Node2</title>
<g id="a_node2"><a xlink:href="$a01429.html" xlink:title="The IMaterialCreator class.">
<polygon fill="white" stroke="black" points="132,-138.5 132,-217.5 286,-217.5 286,-138.5 132,-138.5"/>
<text text-anchor="start" x="140" y="-205.5" font-family="Helvetica,sans-Serif" font-size="10.00">RayTracer::Plugins</text>
<text text-anchor="middle" x="209" y="-194.5" font-family="Helvetica,sans-Serif" font-size="10.00">::Materials::IMaterialCreator</text>
<polyline fill="none" stroke="black" points="132,-187.5 286,-187.5 "/>
<text text-anchor="middle" x="209" y="-175.5" font-family="Helvetica,sans-Serif" font-size="10.00"> </text>
<polyline fill="none" stroke="black" points="132,-168.5 286,-168.5 "/>
<text text-anchor="start" x="140" y="-156.5" font-family="Helvetica,sans-Serif" font-size="10.00">+ ~IMaterialCreator()</text>
<text text-anchor="start" x="140" y="-145.5" font-family="Helvetica,sans-Serif" font-size="10.00">+ create()</text>
</a>
</g>
</g>
<!-- Node2&#45;&gt;Node1 -->
<g id="edge1" class="edge">
<title>Node2&#45;&gt;Node1</title>
<path fill="none" stroke="midnightblue" d="M214.99,-128.16C216.49,-115.93 218.09,-102.88 219.56,-90.88"/>
<polygon fill="none" stroke="midnightblue" points="211.5,-127.85 213.76,-138.2 218.45,-128.7 211.5,-127.85"/>
</g>
<!-- Node3 -->
<g id="node3" class="node">
<title>Node3</title>
<g id="a_node3"><a xlink:title=" ">
<polygon fill="white" stroke="#bfbfbf" points="304.5,-138.5 304.5,-217.5 451.5,-217.5 451.5,-138.5 304.5,-138.5"/>
<text text-anchor="start" x="312.5" y="-205.5" font-family="Helvetica,sans-Serif" font-size="10.00">std::vector&lt; RayTracer</text>
<text text-anchor="start" x="312.5" y="-194.5" font-family="Helvetica,sans-Serif" font-size="10.00">::PluginsExt::Transparency</text>
<text text-anchor="middle" x="378" y="-183.5" font-family="Helvetica,sans-Serif" font-size="10.00">::TransparencyMaterial * &gt;</text>
<polyline fill="none" stroke="#bfbfbf" points="304.5,-176.5 451.5,-176.5 "/>
<text text-anchor="middle" x="378" y="-164.5" font-family="Helvetica,sans-Serif" font-size="10.00"> </text>
<polyline fill="none" stroke="#bfbfbf" points="304.5,-157.5 451.5,-157.5 "/>
<text text-anchor="middle" x="378" y="-145.5" font-family="Helvetica,sans-Serif" font-size="10.00"> </text>
</a>
</g>
</g>
<!-- Node3&#45;&gt;Node1 -->
<g id="edge2" class="edge">
<title>Node3&#45;&gt;Node1</title>
<path fill="none" stroke="#404040" d="M332.51,-138.2C317.99,-125.82 301.68,-111.91 286.24,-98.73"/>
<polygon fill="none" stroke="#404040" points="285.89,-98.43 278.73,-97.58 276.76,-90.65 283.92,-91.5 285.89,-98.43"/>
<text text-anchor="middle" x="340" y="-112" font-family="Helvetica,sans-Serif" font-size="10.00"> &#45;_elements</text>
</g>
<!-- Node4 -->
<g id="node4" class="node">
<title>Node4</title>
<g id="a_node4"><a xlink:href="$a01709.html" xlink:title=" ">
<polygon fill="white" stroke="black" points="219.5,-287.5 219.5,-410.5 376.5,-410.5 376.5,-287.5 219.5,-287.5"/>
<text text-anchor="start" x="227.5" y="-398.5" font-family="Helvetica,sans-Serif" font-size="10.00">RayTracer::PluginsExt</text>
<text text-anchor="start" x="227.5" y="-387.5" font-family="Helvetica,sans-Serif" font-size="10.00">::Transparency::Transparency</text>
<text text-anchor="middle" x="298" y="-376.5" font-family="Helvetica,sans-Serif" font-size="10.00">Material</text>
<polyline fill="none" stroke="black" points="219.5,-369.5 376.5,-369.5 "/>
<text text-anchor="middle" x="298" y="-357.5" font-family="Helvetica,sans-Serif" font-size="10.00"> </text>
<polyline fill="none" stroke="black" points="219.5,-350.5 376.5,-350.5 "/>
<text text-anchor="start" x="227.5" y="-338.5" font-family="Helvetica,sans-Serif" font-size="10.00">+ TransparencyMaterial()</text>
<text text-anchor="start" x="227.5" y="-327.5" font-family="Helvetica,sans-Serif" font-size="10.00">+ getColor()</text>
<text text-anchor="start" x="227.5" y="-316.5" font-family="Helvetica,sans-Serif" font-size="10.00">+ setColor()</text>
<text text-anchor="start" x="227.5" y="-305.5" font-family="Helvetica,sans-Serif" font-size="10.00">+ redirectionLight()</text>
<text text-anchor="start" x="227.5" y="-294.5" font-family="Helvetica,sans-Serif" font-size="10.00">&#45; getNextColor()</text>
</a>
</g>
</g>
<!-- Node4&#45;&gt;Node3 -->
<g id="edge3" class="edge">
<title>Node4&#45;&gt;Node3</title>
<path fill="none" stroke="#404040" d="M323.38,-287.41C330.72,-270.62 338.93,-252.49 347,-236 348.19,-233.58 349.42,-231.1 350.69,-228.62"/>
<polygon fill="none" stroke="#404040" points="350.83,-228.35 350.05,-221.18 356.37,-217.71 357.15,-224.88 350.83,-228.35"/>
<text text-anchor="middle" x="376" y="-250" font-family="Helvetica,sans-Serif" font-size="10.00"> +elements</text>
</g>
<!-- Node5 -->
<g id="node5" class="node">
<title>Node5</title>
<g id="a_node5"><a xlink:href="$a01281.html" xlink:title="The IMaterial class.">
<polygon fill="white" stroke="black" points="0,-596 0,-697 112,-697 112,-596 0,-596"/>
<text text-anchor="start" x="8" y="-685" font-family="Helvetica,sans-Serif" font-size="10.00">RayTracer::Entities</text>
<text text-anchor="middle" x="56" y="-674" font-family="Helvetica,sans-Serif" font-size="10.00">::IMaterial</text>
<polyline fill="none" stroke="black" points="0,-667 112,-667 "/>
<text text-anchor="middle" x="56" y="-655" font-family="Helvetica,sans-Serif" font-size="10.00"> </text>
<polyline fill="none" stroke="black" points="0,-648 112,-648 "/>
<text text-anchor="start" x="8" y="-636" font-family="Helvetica,sans-Serif" font-size="10.00">+ ~IMaterial()</text>
<text text-anchor="start" x="8" y="-625" font-family="Helvetica,sans-Serif" font-size="10.00">+ getColor()</text>
<text text-anchor="start" x="8" y="-614" font-family="Helvetica,sans-Serif" font-size="10.00">+ setColor()</text>
<text text-anchor="start" x="8" y="-603" font-family="Helvetica,sans-Serif" font-size="10.00">+ redirectionLight()</text>
</a>
</g>
</g>
<!-- Node5&#45;&gt;Node4 -->
<g id="edge4" class="edge">
<title>Node5&#45;&gt;Node4</title>
<path fill="none" stroke="midnightblue" d="M64.79,-585.83C74.52,-538.39 94.41,-472.9 134,-429 156.75,-403.77 189.32,-385.8 219.44,-373.44"/>
<polygon fill="none" stroke="midnightblue" points="61.36,-585.19 62.87,-595.67 68.23,-586.53 61.36,-585.19"/>
</g>
<!-- Node6 -->
<g id="node6" class="node">
<title>Node6</title>
<g id="a_node6"><a xlink:title=" ">
<polygon fill="white" stroke="#bfbfbf" points="273,-893.5 273,-950.5 323,-950.5 323,-893.5 273,-893.5"/>
<text text-anchor="middle" x="298" y="-938.5" font-family="Helvetica,sans-Serif" font-size="10.00">double</text>
<polyline fill="none" stroke="#bfbfbf" points="273,-931.5 323,-931.5 "/>
<text text-anchor="middle" x="298" y="-919.5" font-family="Helvetica,sans-Serif" font-size="10.00"> </text>
<polyline fill="none" stroke="#bfbfbf" points="273,-912.5 323,-912.5 "/>
<text text-anchor="middle" x="298" y="-900.5" font-family="Helvetica,sans-Serif" font-size="10.00"> </text>
</a>
</g>
</g>
<!-- Node6&#45;&gt;Node4 -->
<g id="edge5" class="edge">
<title>Node6&#45;&gt;Node4</title>
<path fill="none" stroke="#404040" d="M272.91,-910.47C239.32,-894.83 181.16,-861.94 157,-813 124.24,-746.65 127.3,-547.78 157,-480 168.63,-453.45 188.66,-429.92 210.03,-410.43"/>
<polygon fill="none" stroke="#404040" points="210.24,-410.25 212.1,-403.29 219.25,-402.33 217.38,-409.29 210.24,-410.25"/>
<text text-anchor="middle" x="193.5" y="-649.5" font-family="Helvetica,sans-Serif" font-size="10.00"> &#45;_shininess</text>
<text text-anchor="middle" x="193.5" y="-638.5" font-family="Helvetica,sans-Serif" font-size="10.00">&#45;_transparency</text>
</g>
<!-- Node7 -->
<g id="node7" class="node">
<title>Node7</title>
<g id="a_node7"><a xlink:href="$a01301.html" xlink:title="The Vector3f class.">
<polygon fill="white" stroke="black" points="239,-480.5 239,-812.5 357,-812.5 357,-480.5 239,-480.5"/>
<text text-anchor="start" x="247" y="-800.5" font-family="Helvetica,sans-Serif" font-size="10.00">RayTracer::Entities</text>
<text text-anchor="middle" x="298" y="-789.5" font-family="Helvetica,sans-Serif" font-size="10.00">::Transform::Vector3f</text>
<polyline fill="none" stroke="black" points="239,-782.5 357,-782.5 "/>
<text text-anchor="middle" x="298" y="-770.5" font-family="Helvetica,sans-Serif" font-size="10.00"> </text>
<polyline fill="none" stroke="black" points="239,-763.5 357,-763.5 "/>
<text text-anchor="start" x="247" y="-751.5" font-family="Helvetica,sans-Serif" font-size="10.00">+ ~Vector3f()</text>
<text text-anchor="start" x="247" y="-740.5" font-family="Helvetica,sans-Serif" font-size="10.00">+ Vector3f()</text>
<text text-anchor="start" x="247" y="-729.5" font-family="Helvetica,sans-Serif" font-size="10.00">+ Vector3f()</text>
<text text-anchor="start" x="247" y="-718.5" font-family="Helvetica,sans-Serif" font-size="10.00">+ Vector3f()</text>
<text text-anchor="start" x="247" y="-707.5" font-family="Helvetica,sans-Serif" font-size="10.00">+ Vector3f()</text>
<text text-anchor="start" x="247" y="-696.5" font-family="Helvetica,sans-Serif" font-size="10.00">+ operator+()</text>
<text text-anchor="start" x="247" y="-685.5" font-family="Helvetica,sans-Serif" font-size="10.00">+ operator&#45;()</text>
<text text-anchor="start" x="247" y="-674.5" font-family="Helvetica,sans-Serif" font-size="10.00">+ operator*()</text>
<text text-anchor="start" x="247" y="-663.5" font-family="Helvetica,sans-Serif" font-size="10.00">+ operator/()</text>
<text text-anchor="start" x="247" y="-652.5" font-family="Helvetica,sans-Serif" font-size="10.00">+ operator=()</text>
<text text-anchor="start" x="247" y="-641.5" font-family="Helvetica,sans-Serif" font-size="10.00">+ getX()</text>
<text text-anchor="start" x="247" y="-630.5" font-family="Helvetica,sans-Serif" font-size="10.00">+ getY()</text>
<text text-anchor="start" x="247" y="-619.5" font-family="Helvetica,sans-Serif" font-size="10.00">+ getZ()</text>
<text text-anchor="start" x="247" y="-608.5" font-family="Helvetica,sans-Serif" font-size="10.00">+ getNorm()</text>
<text text-anchor="start" x="247" y="-597.5" font-family="Helvetica,sans-Serif" font-size="10.00">+ getNormalized()</text>
<text text-anchor="start" x="247" y="-586.5" font-family="Helvetica,sans-Serif" font-size="10.00">+ getCrossed()</text>
<text text-anchor="start" x="247" y="-575.5" font-family="Helvetica,sans-Serif" font-size="10.00">+ dot()</text>
<text text-anchor="start" x="247" y="-564.5" font-family="Helvetica,sans-Serif" font-size="10.00">+ getDistance()</text>
<text text-anchor="start" x="247" y="-553.5" font-family="Helvetica,sans-Serif" font-size="10.00">+ toDegrees()</text>
<text text-anchor="start" x="247" y="-542.5" font-family="Helvetica,sans-Serif" font-size="10.00">+ toRadians()</text>
<text text-anchor="start" x="247" y="-531.5" font-family="Helvetica,sans-Serif" font-size="10.00">+ rotateVector()</text>
<text text-anchor="start" x="247" y="-520.5" font-family="Helvetica,sans-Serif" font-size="10.00">+ getAngle()</text>
<text text-anchor="start" x="247" y="-509.5" font-family="Helvetica,sans-Serif" font-size="10.00">+ rotateX()</text>
<text text-anchor="start" x="247" y="-498.5" font-family="Helvetica,sans-Serif" font-size="10.00">+ rotateY()</text>
<text text-anchor="start" x="247" y="-487.5" font-family="Helvetica,sans-Serif" font-size="10.00">+ rotateZ()</text>
</a>
</g>
</g>
<!-- Node6&#45;&gt;Node7 -->
<g id="edge7" class="edge">
<title>Node6&#45;&gt;Node7</title>
<path fill="none" stroke="#404040" d="M298,-893.27C298,-875.78 298,-851.54 298,-825.06"/>
<polygon fill="none" stroke="#404040" points="298,-824.74 294,-818.74 298,-812.74 302,-818.74 298,-824.74"/>
<text text-anchor="middle" x="307.5" y="-861.5" font-family="Helvetica,sans-Serif" font-size="10.00"> &#45;_x</text>
<text text-anchor="middle" x="307.5" y="-850.5" font-family="Helvetica,sans-Serif" font-size="10.00">&#45;_y</text>
<text text-anchor="middle" x="307.5" y="-839.5" font-family="Helvetica,sans-Serif" font-size="10.00">&#45;_z</text>
</g>
<!-- Node8 -->
<g id="node8" class="node">
<title>Node8</title>
<g id="a_node8"><a xlink:href="$a01341.html" xlink:title="The Color class.">
<polygon fill="white" stroke="black" points="375.5,-530 375.5,-763 488.5,-763 488.5,-530 375.5,-530"/>
<text text-anchor="start" x="383.5" y="-751" font-family="Helvetica,sans-Serif" font-size="10.00">RayTracer::Images::</text>
<text text-anchor="middle" x="432" y="-740" font-family="Helvetica,sans-Serif" font-size="10.00">Color</text>
<polyline fill="none" stroke="black" points="375.5,-733 488.5,-733 "/>
<text text-anchor="middle" x="432" y="-721" font-family="Helvetica,sans-Serif" font-size="10.00"> </text>
<polyline fill="none" stroke="black" points="375.5,-714 488.5,-714 "/>
<text text-anchor="start" x="383.5" y="-702" font-family="Helvetica,sans-Serif" font-size="10.00">+ ~Color()</text>
<text text-anchor="start" x="383.5" y="-691" font-family="Helvetica,sans-Serif" font-size="10.00">+ Color()</text>
<text text-anchor="start" x="383.5" y="-680" font-family="Helvetica,sans-Serif" font-size="10.00">+ Color()</text>
<text text-anchor="start" x="383.5" y="-669" font-family="Helvetica,sans-Serif" font-size="10.00">+ Color()</text>
<text text-anchor="start" x="383.5" y="-658" font-family="Helvetica,sans-Serif" font-size="10.00">+ operator+()</text>
<text text-anchor="start" x="383.5" y="-647" font-family="Helvetica,sans-Serif" font-size="10.00">+ operator&#45;()</text>
<text text-anchor="start" x="383.5" y="-636" font-family="Helvetica,sans-Serif" font-size="10.00">+ operator*()</text>
<text text-anchor="start" x="383.5" y="-625" font-family="Helvetica,sans-Serif" font-size="10.00">+ operator/()</text>
<text text-anchor="start" x="383.5" y="-614" font-family="Helvetica,sans-Serif" font-size="10.00">+ operator=()</text>
<text text-anchor="start" x="383.5" y="-603" font-family="Helvetica,sans-Serif" font-size="10.00">+ operator[]()</text>
<text text-anchor="start" x="383.5" y="-592" font-family="Helvetica,sans-Serif" font-size="10.00">+ operator[]()</text>
<text text-anchor="start" x="383.5" y="-581" font-family="Helvetica,sans-Serif" font-size="10.00">+ set()</text>
<text text-anchor="start" x="383.5" y="-570" font-family="Helvetica,sans-Serif" font-size="10.00">+ applyAlpha()</text>
<text text-anchor="start" x="383.5" y="-559" font-family="Helvetica,sans-Serif" font-size="10.00">+ mergeColor()</text>
<text text-anchor="start" x="383.5" y="-548" font-family="Helvetica,sans-Serif" font-size="10.00">+ applyDistance()</text>
<text text-anchor="start" x="383.5" y="-537" font-family="Helvetica,sans-Serif" font-size="10.00">+ toSfColor()</text>
</a>
</g>
</g>
<!-- Node6&#45;&gt;Node8 -->
<g id="edge9" class="edge">
<title>Node6&#45;&gt;Node8</title>
<path fill="none" stroke="#404040" d="M317.35,-893.4C331.82,-872.05 351.53,-841.44 366,-813 372.3,-800.62 378.42,-787.48 384.24,-774.24"/>
<polygon fill="none" stroke="#404040" points="384.29,-774.13 382.99,-767.03 389.04,-763.11 390.34,-770.2 384.29,-774.13"/>
<text text-anchor="middle" x="366.5" y="-867" font-family="Helvetica,sans-Serif" font-size="10.00"> &#45;_a</text>
<text text-anchor="middle" x="366.5" y="-856" font-family="Helvetica,sans-Serif" font-size="10.00">&#45;_b</text>
<text text-anchor="middle" x="366.5" y="-845" font-family="Helvetica,sans-Serif" font-size="10.00">&#45;_g</text>
<text text-anchor="middle" x="366.5" y="-834" font-family="Helvetica,sans-Serif" font-size="10.00">&#45;_r</text>
</g>
<!-- Node7&#45;&gt;Node4 -->
<g id="edge6" class="edge">
<title>Node7&#45;&gt;Node4</title>
<path fill="none" stroke="#404040" d="M298,-480.47C298,-460.37 298,-440.71 298,-422.99"/>
<polygon fill="none" stroke="#404040" points="298,-422.76 294,-416.76 298,-410.76 302,-416.76 298,-422.76"/>
<text text-anchor="middle" x="324.5" y="-454" font-family="Helvetica,sans-Serif" font-size="10.00"> &#45;_ambient</text>
<text text-anchor="middle" x="324.5" y="-443" font-family="Helvetica,sans-Serif" font-size="10.00">&#45;_diffuse</text>
<text text-anchor="middle" x="324.5" y="-432" font-family="Helvetica,sans-Serif" font-size="10.00">&#45;_specular</text>
</g>
<!-- Node8&#45;&gt;Node4 -->
<g id="edge8" class="edge">
<title>Node8&#45;&gt;Node4</title>
<path fill="none" stroke="#404040" d="M397.61,-529.72C385.92,-496.38 371.55,-460.53 355,-429 353.59,-426.31 352.1,-423.62 350.54,-420.92"/>
<polygon fill="none" stroke="#404040" points="350.49,-420.84 343.96,-417.78 344.26,-410.58 350.8,-413.63 350.49,-420.84"/>
<text text-anchor="middle" x="387.5" y="-443" font-family="Helvetica,sans-Serif" font-size="10.00"> &#45;_color</text>
</g>
<!-- Node9 -->
<g id="node9" class="node">
<title>Node9</title>
<g id="a_node9"><a xlink:title=" ">
<polygon fill="white" stroke="#bfbfbf" points="397.5,-893.5 397.5,-950.5 466.5,-950.5 466.5,-893.5 397.5,-893.5"/>
<text text-anchor="middle" x="432" y="-938.5" font-family="Helvetica,sans-Serif" font-size="10.00">std::mutex</text>
<polyline fill="none" stroke="#bfbfbf" points="397.5,-931.5 466.5,-931.5 "/>
<text text-anchor="middle" x="432" y="-919.5" font-family="Helvetica,sans-Serif" font-size="10.00"> </text>
<polyline fill="none" stroke="#bfbfbf" points="397.5,-912.5 466.5,-912.5 "/>
<text text-anchor="middle" x="432" y="-900.5" font-family="Helvetica,sans-Serif" font-size="10.00"> </text>
</a>
</g>
</g>
<!-- Node9&#45;&gt;Node8 -->
<g id="edge10" class="edge">
<title>Node9&#45;&gt;Node8</title>
<path fill="none" stroke="#404040" d="M432,-893.27C432,-865.16 432,-819.6 432,-775.3"/>
<polygon fill="none" stroke="#404040" points="432,-775.16 428,-769.16 432,-763.16 436,-769.16 432,-775.16"/>
<text text-anchor="middle" x="454" y="-850.5" font-family="Helvetica,sans-Serif" font-size="10.00"> &#45;_mutex</text>
</g>
<!-- Node10 -->
<g id="node10" class="node">
<title>Node10</title>
<g id="a_node10"><a xlink:title=" ">
<polygon fill="white" stroke="#bfbfbf" points="433.5,-320.5 433.5,-377.5 530.5,-377.5 530.5,-320.5 433.5,-320.5"/>
<text text-anchor="middle" x="482" y="-365.5" font-family="Helvetica,sans-Serif" font-size="10.00">std::vector&lt; T &gt;</text>
<polyline fill="none" stroke="#bfbfbf" points="433.5,-358.5 530.5,-358.5 "/>
<text text-anchor="middle" x="482" y="-346.5" font-family="Helvetica,sans-Serif" font-size="10.00"> </text>
<polyline fill="none" stroke="#bfbfbf" points="433.5,-339.5 530.5,-339.5 "/>
<text text-anchor="middle" x="482" y="-327.5" font-family="Helvetica,sans-Serif" font-size="10.00"> </text>
</a>
</g>
</g>
<!-- Node10&#45;&gt;Node3 -->
<g id="edge11" class="edge">
<title>Node10&#45;&gt;Node3</title>
<path fill="none" stroke="orange" d="M459.76,-311.86C442.69,-284.12 419.16,-245.89 401.73,-217.56"/>
<polygon fill="orange" stroke="orange" points="456.84,-313.79 465.06,-320.47 462.8,-310.12 456.84,-313.79"/>
<text text-anchor="start" x="434" y="-261" font-family="Helvetica,sans-Serif" font-size="10.00"> &lt; RayTracer::PluginsExt</text>
<text text-anchor="start" x="434" y="-250" font-family="Helvetica,sans-Serif" font-size="10.00">::Transparency::Transparency</text>
<text text-anchor="middle" x="504.5" y="-239" font-family="Helvetica,sans-Serif" font-size="10.00">Material * &gt;</text>
</g>
<!-- Node11 -->
<g id="node11" class="node">
<title>Node11</title>
<g id="a_node11"><a xlink:title=" ">
<polygon fill="white" stroke="#bfbfbf" points="506.5,-618 506.5,-675 535.5,-675 535.5,-618 506.5,-618"/>
<text text-anchor="middle" x="521" y="-663" font-family="Helvetica,sans-Serif" font-size="10.00">T</text>
<polyline fill="none" stroke="#bfbfbf" points="506.5,-656 535.5,-656 "/>
<text text-anchor="middle" x="521" y="-644" font-family="Helvetica,sans-Serif" font-size="10.00"> </text>
<polyline fill="none" stroke="#bfbfbf" points="506.5,-637 535.5,-637 "/>
<text text-anchor="middle" x="521" y="-625" font-family="Helvetica,sans-Serif" font-size="10.00"> </text>
</a>
</g>
</g>
<!-- Node11&#45;&gt;Node10 -->
<g id="edge12" class="edge">
<title>Node11&#45;&gt;Node10</title>
<path fill="none" stroke="#404040" d="M517.37,-617.97C510.43,-565.4 495.27,-450.56 487.24,-389.7"/>
<polygon fill="none" stroke="#404040" points="487.21,-389.47 482.46,-384.04 485.64,-377.57 490.39,-383 487.21,-389.47"/>
<text text-anchor="middle" x="524" y="-443" font-family="Helvetica,sans-Serif" font-size="10.00"> +elements</text>
</g>
</g>
</svg>
