<?xml version="1.0" encoding="UTF-8" standalone="no"?>
<!DOCTYPE svg PUBLIC "-//W3C//DTD SVG 1.1//EN"
 "http://www.w3.org/Graphics/SVG/1.1/DTD/svg11.dtd">
<!-- Generated by graphviz version 2.43.0 (0)
 -->
<!-- Title: /home/runner/work/Raytracer/Raytracer/src/Plugins/Filters Pages: 1 -->
<svg width="156pt" height="151pt"
 viewBox="0.00 0.00 156.00 151.00" xmlns="http://www.w3.org/2000/svg" xmlns:xlink="http://www.w3.org/1999/xlink">
<g id="graph0" class="graph" transform="scale(1 1) rotate(0) translate(4 147)">
<title>/home/runner/work/Raytracer/Raytracer/src/Plugins/Filters</title>
<polygon fill="white" stroke="transparent" points="-4,4 -4,-147 152,-147 152,4 -4,4"/>
<g id="clust1" class="cluster">
<title>clusterdir_022e325a8f259b9b8d324d8b04589350</title>
<g id="a_clust1"><a xlink:href="dir_022e325a8f259b9b8d324d8b04589350.html" xlink:title="Plugins">
<polygon fill="#ddddee" stroke="black" points="8,-64 8,-135 78,-135 78,-64 8,-64"/>
<text text-anchor="middle" x="43" y="-123" font-family="Helvetica,sans-Serif" font-size="10.00">Plugins</text>
</a>
</g>
</g>
<!-- dir_94f36a39fb90e1f2b0528819abd4baaf -->
<g id="node1" class="node">
<title>dir_94f36a39fb90e1f2b0528819abd4baaf</title>
<g id="a_node1"><a xlink:href="dir_94f36a39fb90e1f2b0528819abd4baaf.html" xlink:title="Filters">
<polygon fill="#eeeeff" stroke="black" points="70,-108 16,-108 16,-72 70,-72 70,-108"/>
<text text-anchor="middle" x="43" y="-87.5" font-family="Helvetica,sans-Serif" font-size="10.00">Filters</text>
</a>
</g>
</g>
<!-- dir_34df5910c3dede183eac518413f13c07 -->
<g id="node2" class="node">
<title>dir_34df5910c3dede183eac518413f13c07</title>
<g id="a_node2"><a xlink:href="dir_34df5910c3dede183eac518413f13c07.html" xlink:title="Filters">
<polygon fill="none" stroke="black" points="72,-36 18,-36 18,0 72,0 72,-36"/>
<text text-anchor="middle" x="45" y="-15.5" font-family="Helvetica,sans-Serif" font-size="10.00">Filters</text>
</a>
</g>
</g>
<!-- dir_94f36a39fb90e1f2b0528819abd4baaf&#45;&gt;dir_34df5910c3dede183eac518413f13c07 -->
<g id="edge1" class="edge">
<title>dir_94f36a39fb90e1f2b0528819abd4baaf&#45;&gt;dir_34df5910c3dede183eac518413f13c07</title>
<path fill="none" stroke="black" d="M43.49,-71.7C43.71,-63.98 43.98,-54.71 44.23,-46.11"/>
<polygon fill="black" stroke="black" points="47.72,-46.2 44.51,-36.1 40.73,-46 47.72,-46.2"/>
<g id="a_edge1&#45;headlabel"><a xlink:href="dir_000029_000025.html" xlink:title="3">
<text text-anchor="middle" x="50.46" y="-47.37" font-family="Helvetica,sans-Serif" font-size="10.00">3</text>
</a>
</g>
</g>
<!-- dir_3dbe57e65c50a7a17fba27939d267647 -->
<g id="node3" class="node">
<title>dir_3dbe57e65c50a7a17fba27939d267647</title>
<g id="a_node3"><a xlink:href="dir_3dbe57e65c50a7a17fba27939d267647.html" xlink:title="Factories">
<polygon fill="none" stroke="black" points="148,-108 88,-108 88,-72 148,-72 148,-108"/>
<text text-anchor="middle" x="118" y="-87.5" font-family="Helvetica,sans-Serif" font-size="10.00">Factories</text>
</a>
</g>
</g>
<!-- dir_94f36a39fb90e1f2b0528819abd4baaf&#45;&gt;dir_3dbe57e65c50a7a17fba27939d267647 -->
<g id="edge2" class="edge">
<title>dir_94f36a39fb90e1f2b0528819abd4baaf&#45;&gt;dir_3dbe57e65c50a7a17fba27939d267647</title>
<path fill="none" stroke="black" d="M70.25,-90C72.71,-90 75.18,-90 77.64,-90"/>
<polygon fill="black" stroke="black" points="77.78,-93.5 87.78,-90 77.78,-86.5 77.78,-93.5"/>
<g id="a_edge2&#45;headlabel"><a xlink:href="dir_000029_000024.html" xlink:title="2">
<text text-anchor="middle" x="74.19" y="-93.84" font-family="Helvetica,sans-Serif" font-size="10.00">2</text>
</a>
</g>
</g>
<!-- dir_d665af80335f773f8bfcf2f56b3f3e8a -->
<g id="node4" class="node">
<title>dir_d665af80335f773f8bfcf2f56b3f3e8a</title>
<g id="a_node4"><a xlink:href="dir_d665af80335f773f8bfcf2f56b3f3e8a.html" xlink:title="Scenes">
<polygon fill="none" stroke="black" points="145,-36 91,-36 91,0 145,0 145,-36"/>
<text text-anchor="middle" x="118" y="-15.5" font-family="Helvetica,sans-Serif" font-size="10.00">Scenes</text>
</a>
</g>
</g>
<!-- dir_94f36a39fb90e1f2b0528819abd4baaf&#45;&gt;dir_d665af80335f773f8bfcf2f56b3f3e8a -->
<g id="edge3" class="edge">
<title>dir_94f36a39fb90e1f2b0528819abd4baaf&#45;&gt;dir_d665af80335f773f8bfcf2f56b3f3e8a</title>
<path fill="none" stroke="black" d="M55.62,-71.7C64.08,-62.97 75.4,-52.24 86.12,-42.75"/>
<polygon fill="black" stroke="black" points="88.52,-45.3 93.78,-36.1 83.93,-40.02 88.52,-45.3"/>
<g id="a_edge3&#45;headlabel"><a xlink:href="dir_000029_000031.html" xlink:title="2">
<text text-anchor="middle" x="87.67" y="-47.3" font-family="Helvetica,sans-Serif" font-size="10.00">2</text>
</a>
</g>
</g>
<!-- dir_3dbe57e65c50a7a17fba27939d267647&#45;&gt;dir_94f36a39fb90e1f2b0528819abd4baaf -->
<g id="edge7" class="edge">
<title>dir_3dbe57e65c50a7a17fba27939d267647&#45;&gt;dir_94f36a39fb90e1f2b0528819abd4baaf</title>
<path fill="none" stroke="black" d="M87.78,-90C85.31,-90 82.85,-90 80.38,-90"/>
<polygon fill="black" stroke="black" points="80.25,-86.5 70.25,-90 80.25,-93.5 80.25,-86.5"/>
<g id="a_edge7&#45;headlabel"><a xlink:href="dir_000024_000029.html" xlink:title="1">
<text text-anchor="middle" x="83.84" y="-81.16" font-family="Helvetica,sans-Serif" font-size="10.00">1</text>
</a>
</g>
</g>
<!-- dir_3dbe57e65c50a7a17fba27939d267647&#45;&gt;dir_34df5910c3dede183eac518413f13c07 -->
<g id="edge6" class="edge">
<title>dir_3dbe57e65c50a7a17fba27939d267647&#45;&gt;dir_34df5910c3dede183eac518413f13c07</title>
<path fill="none" stroke="black" d="M99.96,-71.7C90.94,-63.05 79.88,-52.45 70.06,-43.03"/>
<polygon fill="black" stroke="black" points="72.48,-40.5 62.84,-36.1 67.63,-45.55 72.48,-40.5"/>
<g id="a_edge6&#45;headlabel"><a xlink:href="dir_000024_000025.html" xlink:title="2">
<text text-anchor="middle" x="77.04" y="-38.44" font-family="Helvetica,sans-Serif" font-size="10.00">2</text>
</a>
</g>
</g>
<!-- dir_3dbe57e65c50a7a17fba27939d267647&#45;&gt;dir_d665af80335f773f8bfcf2f56b3f3e8a -->
<g id="edge8" class="edge">
<title>dir_3dbe57e65c50a7a17fba27939d267647&#45;&gt;dir_d665af80335f773f8bfcf2f56b3f3e8a</title>
<path fill="none" stroke="black" d="M112.08,-71.7C111.29,-63.98 111.06,-54.71 111.4,-46.11"/>
<polygon fill="black" stroke="black" points="114.9,-46.32 112.1,-36.1 107.92,-45.84 114.9,-46.32"/>
<g id="a_edge8&#45;headlabel"><a xlink:href="dir_000024_000031.html" xlink:title="4">
<text text-anchor="middle" x="117.48" y="-47.61" font-family="Helvetica,sans-Serif" font-size="10.00">4</text>
</a>
</g>
</g>
<!-- dir_d665af80335f773f8bfcf2f56b3f3e8a&#45;&gt;dir_94f36a39fb90e1f2b0528819abd4baaf -->
<g id="edge5" class="edge">
<title>dir_d665af80335f773f8bfcf2f56b3f3e8a&#45;&gt;dir_94f36a39fb90e1f2b0528819abd4baaf</title>
<path fill="none" stroke="black" d="M105.57,-36.1C97.16,-44.8 85.86,-55.52 75.12,-65.03"/>
<polygon fill="black" stroke="black" points="72.71,-62.49 67.46,-71.7 77.3,-67.78 72.71,-62.49"/>
<g id="a_edge5&#45;headlabel"><a xlink:href="dir_000031_000029.html" xlink:title="1">
<text text-anchor="middle" x="73.56" y="-55.49" font-family="Helvetica,sans-Serif" font-size="10.00">1</text>
</a>
</g>
</g>
<!-- dir_d665af80335f773f8bfcf2f56b3f3e8a&#45;&gt;dir_3dbe57e65c50a7a17fba27939d267647 -->
<g id="edge4" class="edge">
<title>dir_d665af80335f773f8bfcf2f56b3f3e8a&#45;&gt;dir_3dbe57e65c50a7a17fba27939d267647</title>
<path fill="none" stroke="black" d="M123.9,-36.1C124.7,-43.79 124.94,-53.05 124.6,-61.67"/>
<polygon fill="black" stroke="black" points="121.11,-61.48 123.92,-71.7 128.09,-61.96 121.11,-61.48"/>
<g id="a_edge4&#45;headlabel"><a xlink:href="dir_000031_000024.html" xlink:title="1">
<text text-anchor="middle" x="118.52" y="-55.2" font-family="Helvetica,sans-Serif" font-size="10.00">1</text>
</a>
</g>
</g>
</g>
</svg>
