<?xml version="1.0" encoding="UTF-8" standalone="no"?>
<!DOCTYPE svg PUBLIC "-//W3C//DTD SVG 1.1//EN"
 "http://www.w3.org/Graphics/SVG/1.1/DTD/svg11.dtd">
<!-- Generated by graphviz version 2.43.0 (0)
 -->
<!-- Title: /home/runner/work/Raytracer/Raytracer/src/Plugins/Materials Pages: 1 -->
<svg width="177pt" height="188pt"
 viewBox="0.00 0.00 176.55 188.00" xmlns="http://www.w3.org/2000/svg" xmlns:xlink="http://www.w3.org/1999/xlink">
<g id="graph0" class="graph" transform="scale(1 1) rotate(0) translate(4 184)">
<title>/home/runner/work/Raytracer/Raytracer/src/Plugins/Materials</title>
<polygon fill="white" stroke="transparent" points="-4,4 -4,-184 172.55,-184 172.55,4 -4,4"/>
<g id="clust1" class="cluster">
<title>clusterdir_022e325a8f259b9b8d324d8b04589350</title>
<g id="a_clust1"><a xlink:href="dir_022e325a8f259b9b8d324d8b04589350.html" xlink:title="Plugins">
<polygon fill="#ddddee" stroke="black" points="8,-64 8,-135 86,-135 86,-64 8,-64"/>
<text text-anchor="middle" x="47" y="-123" font-family="Helvetica,sans-Serif" font-size="10.00">Plugins</text>
</a>
</g>
</g>
<!-- dir_090dd539cb56febacd605ed05f9fccf1 -->
<g id="node1" class="node">
<title>dir_090dd539cb56febacd605ed05f9fccf1</title>
<g id="a_node1"><a xlink:href="dir_090dd539cb56febacd605ed05f9fccf1.html" xlink:title="Materials">
<polygon fill="#eeeeff" stroke="black" points="78,-108 16,-108 16,-72 78,-72 78,-108"/>
<text text-anchor="middle" x="47" y="-87.5" font-family="Helvetica,sans-Serif" font-size="10.00">Materials</text>
</a>
</g>
</g>
<!-- dir_093f3b7f7c7a61ef21fffb3d339f67e1 -->
<g id="node2" class="node">
<title>dir_093f3b7f7c7a61ef21fffb3d339f67e1</title>
<g id="a_node2"><a xlink:href="dir_093f3b7f7c7a61ef21fffb3d339f67e1.html" xlink:title="Entities">
<polygon fill="white" stroke="red" points="150,-180 96,-180 96,-144 150,-144 150,-180"/>
<text text-anchor="middle" x="123" y="-159.5" font-family="Helvetica,sans-Serif" font-size="10.00">Entities</text>
</a>
</g>
</g>
<!-- dir_090dd539cb56febacd605ed05f9fccf1&#45;&gt;dir_093f3b7f7c7a61ef21fffb3d339f67e1 -->
<g id="edge5" class="edge">
<title>dir_090dd539cb56febacd605ed05f9fccf1&#45;&gt;dir_093f3b7f7c7a61ef21fffb3d339f67e1</title>
<path fill="none" stroke="black" d="M61.05,-108.07C68.4,-116.56 77.76,-126.75 87,-135 87.83,-135.74 88.69,-136.49 89.56,-137.23"/>
<polygon fill="black" stroke="black" points="87.7,-140.22 97.69,-143.75 92.08,-134.76 87.7,-140.22"/>
<g id="a_edge5&#45;headlabel"><a xlink:href="dir_000031_000023.html" xlink:title="3">
<text text-anchor="middle" x="83.12" y="-137.69" font-family="Helvetica,sans-Serif" font-size="10.00">3</text>
</a>
</g>
</g>
<!-- dir_3dbe57e65c50a7a17fba27939d267647 -->
<g id="node3" class="node">
<title>dir_3dbe57e65c50a7a17fba27939d267647</title>
<g id="a_node3"><a xlink:href="dir_3dbe57e65c50a7a17fba27939d267647.html" xlink:title="Factories">
<polygon fill="none" stroke="black" points="153,-36 93,-36 93,0 153,0 153,-36"/>
<text text-anchor="middle" x="123" y="-15.5" font-family="Helvetica,sans-Serif" font-size="10.00">Factories</text>
</a>
</g>
</g>
<!-- dir_090dd539cb56febacd605ed05f9fccf1&#45;&gt;dir_3dbe57e65c50a7a17fba27939d267647 -->
<g id="edge6" class="edge">
<title>dir_090dd539cb56febacd605ed05f9fccf1&#45;&gt;dir_3dbe57e65c50a7a17fba27939d267647</title>
<path fill="none" stroke="black" d="M59.87,-71.7C68.45,-62.97 79.92,-52.24 90.78,-42.75"/>
<polygon fill="black" stroke="black" points="93.22,-45.27 98.53,-36.1 88.66,-39.96 93.22,-45.27"/>
<g id="a_edge6&#45;headlabel"><a xlink:href="dir_000031_000025.html" xlink:title="2">
<text text-anchor="middle" x="92.34" y="-47.27" font-family="Helvetica,sans-Serif" font-size="10.00">2</text>
</a>
</g>
</g>
<!-- dir_d665af80335f773f8bfcf2f56b3f3e8a -->
<g id="node4" class="node">
<title>dir_d665af80335f773f8bfcf2f56b3f3e8a</title>
<g id="a_node4"><a xlink:href="dir_d665af80335f773f8bfcf2f56b3f3e8a.html" xlink:title="Scenes">
<polygon fill="none" stroke="black" points="150,-108 96,-108 96,-72 150,-72 150,-108"/>
<text text-anchor="middle" x="123" y="-87.5" font-family="Helvetica,sans-Serif" font-size="10.00">Scenes</text>
</a>
</g>
</g>
<!-- dir_090dd539cb56febacd605ed05f9fccf1&#45;&gt;dir_d665af80335f773f8bfcf2f56b3f3e8a -->
<g id="edge7" class="edge">
<title>dir_090dd539cb56febacd605ed05f9fccf1&#45;&gt;dir_d665af80335f773f8bfcf2f56b3f3e8a</title>
<path fill="none" stroke="black" d="M78.17,-90C80.63,-90 83.1,-90 85.56,-90"/>
<polygon fill="black" stroke="black" points="85.68,-93.5 95.68,-90 85.68,-86.5 85.68,-93.5"/>
<g id="a_edge7&#45;headlabel"><a xlink:href="dir_000031_000032.html" xlink:title="2">
<text text-anchor="middle" x="82.09" y="-93.84" font-family="Helvetica,sans-Serif" font-size="10.00">2</text>
</a>
</g>
</g>
<!-- dir_093f3b7f7c7a61ef21fffb3d339f67e1&#45;&gt;dir_d665af80335f773f8bfcf2f56b3f3e8a -->
<g id="edge1" class="edge">
<title>dir_093f3b7f7c7a61ef21fffb3d339f67e1&#45;&gt;dir_d665af80335f773f8bfcf2f56b3f3e8a</title>
<path fill="none" stroke="black" d="M117.08,-143.7C116.29,-135.98 116.06,-126.71 116.4,-118.11"/>
<polygon fill="black" stroke="black" points="119.9,-118.32 117.1,-108.1 112.92,-117.84 119.9,-118.32"/>
<g id="a_edge1&#45;headlabel"><a xlink:href="dir_000023_000032.html" xlink:title="8">
<text text-anchor="middle" x="122.48" y="-119.61" font-family="Helvetica,sans-Serif" font-size="10.00">8</text>
</a>
</g>
</g>
<!-- dir_3dbe57e65c50a7a17fba27939d267647&#45;&gt;dir_090dd539cb56febacd605ed05f9fccf1 -->
<g id="edge8" class="edge">
<title>dir_3dbe57e65c50a7a17fba27939d267647&#45;&gt;dir_090dd539cb56febacd605ed05f9fccf1</title>
<path fill="none" stroke="black" d="M110.32,-36.1C101.79,-44.8 90.33,-55.52 79.46,-65.03"/>
<polygon fill="black" stroke="black" points="77.01,-62.53 71.7,-71.7 81.57,-67.84 77.01,-62.53"/>
<g id="a_edge8&#45;headlabel"><a xlink:href="dir_000025_000031.html" xlink:title="1">
<text text-anchor="middle" x="77.89" y="-55.53" font-family="Helvetica,sans-Serif" font-size="10.00">1</text>
</a>
</g>
</g>
<!-- dir_3dbe57e65c50a7a17fba27939d267647&#45;&gt;dir_093f3b7f7c7a61ef21fffb3d339f67e1 -->
<g id="edge9" class="edge">
<title>dir_3dbe57e65c50a7a17fba27939d267647&#45;&gt;dir_093f3b7f7c7a61ef21fffb3d339f67e1</title>
<path fill="none" stroke="black" d="M141.22,-36.08C148.2,-43.85 155.36,-53.62 159,-64 169.45,-93.78 173.37,-106.9 159,-135 158.41,-136.16 157.74,-137.28 157,-138.36"/>
<polygon fill="black" stroke="black" points="154.35,-136.07 150.29,-145.86 159.57,-140.74 154.35,-136.07"/>
<g id="a_edge9&#45;headlabel"><a xlink:href="dir_000025_000023.html" xlink:title="4">
<text text-anchor="middle" x="154.63" y="-129" font-family="Helvetica,sans-Serif" font-size="10.00">4</text>
</a>
</g>
</g>
<!-- dir_3dbe57e65c50a7a17fba27939d267647&#45;&gt;dir_d665af80335f773f8bfcf2f56b3f3e8a -->
<g id="edge10" class="edge">
<title>dir_3dbe57e65c50a7a17fba27939d267647&#45;&gt;dir_d665af80335f773f8bfcf2f56b3f3e8a</title>
<path fill="none" stroke="black" d="M128.9,-36.1C129.7,-43.79 129.94,-53.05 129.6,-61.67"/>
<polygon fill="black" stroke="black" points="126.11,-61.48 128.92,-71.7 133.09,-61.96 126.11,-61.48"/>
<g id="a_edge10&#45;headlabel"><a xlink:href="dir_000025_000032.html" xlink:title="4">
<text text-anchor="middle" x="123.52" y="-55.2" font-family="Helvetica,sans-Serif" font-size="10.00">4</text>
</a>
</g>
</g>
<!-- dir_d665af80335f773f8bfcf2f56b3f3e8a&#45;&gt;dir_090dd539cb56febacd605ed05f9fccf1 -->
<g id="edge2" class="edge">
<title>dir_d665af80335f773f8bfcf2f56b3f3e8a&#45;&gt;dir_090dd539cb56febacd605ed05f9fccf1</title>
<path fill="none" stroke="black" d="M95.68,-90C93.22,-90 90.76,-90 88.3,-90"/>
<polygon fill="black" stroke="black" points="88.17,-86.5 78.17,-90 88.17,-93.5 88.17,-86.5"/>
<g id="a_edge2&#45;headlabel"><a xlink:href="dir_000032_000031.html" xlink:title="1">
<text text-anchor="middle" x="91.77" y="-81.16" font-family="Helvetica,sans-Serif" font-size="10.00">1</text>
</a>
</g>
</g>
<!-- dir_d665af80335f773f8bfcf2f56b3f3e8a&#45;&gt;dir_093f3b7f7c7a61ef21fffb3d339f67e1 -->
<g id="edge3" class="edge">
<title>dir_d665af80335f773f8bfcf2f56b3f3e8a&#45;&gt;dir_093f3b7f7c7a61ef21fffb3d339f67e1</title>
<path fill="none" stroke="black" d="M128.9,-108.1C129.7,-115.79 129.94,-125.05 129.6,-133.67"/>
<polygon fill="black" stroke="black" points="126.11,-133.48 128.92,-143.7 133.09,-133.96 126.11,-133.48"/>
<g id="a_edge3&#45;headlabel"><a xlink:href="dir_000032_000023.html" xlink:title="3">
<text text-anchor="middle" x="123.52" y="-127.2" font-family="Helvetica,sans-Serif" font-size="10.00">3</text>
</a>
</g>
</g>
<!-- dir_d665af80335f773f8bfcf2f56b3f3e8a&#45;&gt;dir_3dbe57e65c50a7a17fba27939d267647 -->
<g id="edge4" class="edge">
<title>dir_d665af80335f773f8bfcf2f56b3f3e8a&#45;&gt;dir_3dbe57e65c50a7a17fba27939d267647</title>
<path fill="none" stroke="black" d="M117.08,-71.7C116.29,-63.98 116.06,-54.71 116.4,-46.11"/>
<polygon fill="black" stroke="black" points="119.9,-46.32 117.1,-36.1 112.92,-45.84 119.9,-46.32"/>
<g id="a_edge4&#45;headlabel"><a xlink:href="dir_000032_000025.html" xlink:title="1">
<text text-anchor="middle" x="122.48" y="-47.61" font-family="Helvetica,sans-Serif" font-size="10.00">1</text>
</a>
</g>
</g>
</g>
</svg>
