<?xml version="1.0" encoding="UTF-8" standalone="no"?>
<!DOCTYPE svg PUBLIC "-//W3C//DTD SVG 1.1//EN"
 "http://www.w3.org/Graphics/SVG/1.1/DTD/svg11.dtd">
<!-- Generated by graphviz version 2.43.0 (0)
 -->
<!-- Title: /home/runner/work/Raytracer/Raytracer/PluginsExt/RefractionMaterial Pages: 1 -->
<svg width="146pt" height="151pt"
 viewBox="0.00 0.00 146.00 151.00" xmlns="http://www.w3.org/2000/svg" xmlns:xlink="http://www.w3.org/1999/xlink">
<g id="graph0" class="graph" transform="scale(1 1) rotate(0) translate(4 147)">
<title>/home/runner/work/Raytracer/Raytracer/PluginsExt/RefractionMaterial</title>
<polygon fill="white" stroke="transparent" points="-4,4 -4,-147 142,-147 142,4 -4,4"/>
<g id="clust1" class="cluster">
<title>clusterdir_4b314500dd3730d1ba9f053c438de308</title>
<g id="a_clust1"><a xlink:href="dir_4b314500dd3730d1ba9f053c438de308.html" xlink:title="PluginsExt">
<polygon fill="#ddddee" stroke="black" points="8,-64 8,-135 130,-135 130,-64 8,-64"/>
<text text-anchor="middle" x="69" y="-123" font-family="Helvetica,sans-Serif" font-size="10.00">PluginsExt</text>
</a>
</g>
</g>
<!-- dir_a1be71b4a87ea0a43842201df25556cd -->
<g id="node1" class="node">
<title>dir_a1be71b4a87ea0a43842201df25556cd</title>
<g id="a_node1"><a xlink:href="dir_a1be71b4a87ea0a43842201df25556cd.html" xlink:title="RefractionMaterial">
<polygon fill="#eeeeff" stroke="black" points="122.5,-108 15.5,-108 15.5,-72 122.5,-72 122.5,-108"/>
<text text-anchor="middle" x="69" y="-87.5" font-family="Helvetica,sans-Serif" font-size="10.00">RefractionMaterial</text>
</a>
</g>
</g>
<!-- dir_68267d1309a1af8e8297ef4c3efbcdba -->
<g id="node2" class="node">
<title>dir_68267d1309a1af8e8297ef4c3efbcdba</title>
<g id="a_node2"><a xlink:href="dir_68267d1309a1af8e8297ef4c3efbcdba.html" xlink:title="src">
<polygon fill="white" stroke="red" points="96,-36 42,-36 42,0 96,0 96,-36"/>
<text text-anchor="middle" x="69" y="-15.5" font-family="Helvetica,sans-Serif" font-size="10.00">src</text>
</a>
</g>
</g>
<!-- dir_a1be71b4a87ea0a43842201df25556cd&#45;&gt;dir_68267d1309a1af8e8297ef4c3efbcdba -->
<g id="edge1" class="edge">
<title>dir_a1be71b4a87ea0a43842201df25556cd&#45;&gt;dir_68267d1309a1af8e8297ef4c3efbcdba</title>
<path fill="none" stroke="black" d="M69,-71.7C69,-63.98 69,-54.71 69,-46.11"/>
<polygon fill="black" stroke="black" points="72.5,-46.1 69,-36.1 65.5,-46.1 72.5,-46.1"/>
<g id="a_edge1&#45;headlabel"><a xlink:href="dir_000020_000027.html" xlink:title="8">
<text text-anchor="middle" x="75.34" y="-47.2" font-family="Helvetica,sans-Serif" font-size="10.00">8</text>
</a>
</g>
</g>
</g>
</svg>
