<?xml version="1.0" encoding="UTF-8" standalone="no"?>
<!DOCTYPE svg PUBLIC "-//W3C//DTD SVG 1.1//EN"
 "http://www.w3.org/Graphics/SVG/1.1/DTD/svg11.dtd">
<!-- Generated by graphviz version 2.43.0 (0)
 -->
<!-- Title: /home/runner/work/Raytracer/Raytracer/PluginsExt Pages: 1 -->
<svg width="1546pt" height="132pt"
 viewBox="0.00 0.00 1546.00 132.00" xmlns="http://www.w3.org/2000/svg" xmlns:xlink="http://www.w3.org/1999/xlink">
<g id="graph0" class="graph" transform="scale(1 1) rotate(0) translate(4 128)">
<title>/home/runner/work/Raytracer/Raytracer/PluginsExt</title>
<polygon fill="white" stroke="transparent" points="-4,4 -4,-128 1542,-128 1542,4 -4,4"/>
<g id="clust1" class="cluster">
<title>clusterdir_4b314500dd3730d1ba9f053c438de308</title>
<g id="a_clust1"><a xlink:href="dir_4b314500dd3730d1ba9f053c438de308.html">
<polygon fill="#eeeeff" stroke="black" points="8,-64 8,-116 1530,-116 1530,-64 8,-64"/>
</a>
</g>
</g>
<!-- dir_4b314500dd3730d1ba9f053c438de308 -->
<g id="node1" class="node">
<title>dir_4b314500dd3730d1ba9f053c438de308</title>
<text text-anchor="middle" x="1488" y="-87.5" font-family="Helvetica,sans-Serif" font-size="10.00">PluginsExt</text>
</g>
<!-- dir_23797dfc4efa85139749bce11a446eac -->
<g id="node2" class="node">
<title>dir_23797dfc4efa85139749bce11a446eac</title>
<g id="a_node2"><a xlink:href="dir_23797dfc4efa85139749bce11a446eac.html" xlink:title="AmbientLight">
<polygon fill="white" stroke="black" points="1436,-108 1354,-108 1354,-72 1436,-72 1436,-108"/>
<text text-anchor="middle" x="1395" y="-87.5" font-family="Helvetica,sans-Serif" font-size="10.00">AmbientLight</text>
</a>
</g>
</g>
<!-- dir_68267d1309a1af8e8297ef4c3efbcdba -->
<g id="node18" class="node">
<title>dir_68267d1309a1af8e8297ef4c3efbcdba</title>
<g id="a_node18"><a xlink:href="dir_68267d1309a1af8e8297ef4c3efbcdba.html" xlink:title="src">
<polygon fill="white" stroke="red" points="752,-36 698,-36 698,0 752,0 752,-36"/>
<text text-anchor="middle" x="725" y="-15.5" font-family="Helvetica,sans-Serif" font-size="10.00">src</text>
</a>
</g>
</g>
<!-- dir_23797dfc4efa85139749bce11a446eac&#45;&gt;dir_68267d1309a1af8e8297ef4c3efbcdba -->
<g id="edge4" class="edge">
<title>dir_23797dfc4efa85139749bce11a446eac&#45;&gt;dir_68267d1309a1af8e8297ef4c3efbcdba</title>
<path fill="none" stroke="black" d="M1365.62,-71.94C1359.02,-68.79 1351.93,-65.9 1345,-64 1234.24,-33.58 879.04,-22.64 762.46,-19.81"/>
<polygon fill="black" stroke="black" points="762.33,-16.31 752.25,-19.57 762.17,-23.31 762.33,-16.31"/>
<g id="a_edge4&#45;headlabel"><a xlink:href="dir_000001_000021.html" xlink:title="6">
<text text-anchor="middle" x="765.99" y="-11.05" font-family="Helvetica,sans-Serif" font-size="10.00">6</text>
</a>
</g>
</g>
<!-- dir_d4bc861357cab59352e84826f962b9a0 -->
<g id="node3" class="node">
<title>dir_d4bc861357cab59352e84826f962b9a0</title>
<g id="a_node3"><a xlink:href="dir_d4bc861357cab59352e84826f962b9a0.html" xlink:title="AntiAliasing">
<polygon fill="white" stroke="red" points="1335.5,-108 1260.5,-108 1260.5,-72 1335.5,-72 1335.5,-108"/>
<text text-anchor="middle" x="1298" y="-87.5" font-family="Helvetica,sans-Serif" font-size="10.00">AntiAliasing</text>
</a>
</g>
</g>
<!-- dir_d4bc861357cab59352e84826f962b9a0&#45;&gt;dir_68267d1309a1af8e8297ef4c3efbcdba -->
<g id="edge11" class="edge">
<title>dir_d4bc861357cab59352e84826f962b9a0&#45;&gt;dir_68267d1309a1af8e8297ef4c3efbcdba</title>
<path fill="none" stroke="black" d="M1271.08,-71.99C1265,-68.84 1258.44,-65.93 1252,-64 1160.06,-36.41 866.8,-23.87 762.37,-20.2"/>
<polygon fill="black" stroke="black" points="762.41,-16.7 752.29,-19.85 762.17,-23.7 762.41,-16.7"/>
<g id="a_edge11&#45;headlabel"><a xlink:href="dir_000002_000021.html" xlink:title="9">
<text text-anchor="middle" x="766.1" y="-11.49" font-family="Helvetica,sans-Serif" font-size="10.00">9</text>
</a>
</g>
</g>
<!-- dir_62f615b43676db5ddd87f008b4cc30b3 -->
<g id="node4" class="node">
<title>dir_62f615b43676db5ddd87f008b4cc30b3</title>
<g id="a_node4"><a xlink:href="dir_62f615b43676db5ddd87f008b4cc30b3.html" xlink:title="Camera">
<polygon fill="white" stroke="red" points="1242.5,-108 1187.5,-108 1187.5,-72 1242.5,-72 1242.5,-108"/>
<text text-anchor="middle" x="1215" y="-87.5" font-family="Helvetica,sans-Serif" font-size="10.00">Camera</text>
</a>
</g>
</g>
<!-- dir_62f615b43676db5ddd87f008b4cc30b3&#45;&gt;dir_68267d1309a1af8e8297ef4c3efbcdba -->
<g id="edge2" class="edge">
<title>dir_62f615b43676db5ddd87f008b4cc30b3&#45;&gt;dir_68267d1309a1af8e8297ef4c3efbcdba</title>
<path fill="none" stroke="black" d="M1193.91,-71.75C1189.24,-68.7 1184.14,-65.89 1179,-64 1102.69,-35.9 856.71,-23.92 762.34,-20.29"/>
<polygon fill="black" stroke="black" points="762.25,-16.78 752.12,-19.9 761.98,-23.78 762.25,-16.78"/>
<g id="a_edge2&#45;headlabel"><a xlink:href="dir_000004_000021.html" xlink:title="35">
<text text-anchor="middle" x="765.95" y="-11.58" font-family="Helvetica,sans-Serif" font-size="10.00">35</text>
</a>
</g>
</g>
<!-- dir_616a73672332529d3731a9ebd7c994a8 -->
<g id="node5" class="node">
<title>dir_616a73672332529d3731a9ebd7c994a8</title>
<g id="a_node5"><a xlink:href="dir_616a73672332529d3731a9ebd7c994a8.html" xlink:title="ChessBoardMaterial">
<polygon fill="white" stroke="black" points="1169.5,-108 1054.5,-108 1054.5,-72 1169.5,-72 1169.5,-108"/>
<text text-anchor="middle" x="1112" y="-87.5" font-family="Helvetica,sans-Serif" font-size="10.00">ChessBoardMaterial</text>
</a>
</g>
</g>
<!-- dir_616a73672332529d3731a9ebd7c994a8&#45;&gt;dir_68267d1309a1af8e8297ef4c3efbcdba -->
<g id="edge7" class="edge">
<title>dir_616a73672332529d3731a9ebd7c994a8&#45;&gt;dir_68267d1309a1af8e8297ef4c3efbcdba</title>
<path fill="none" stroke="black" d="M1070.63,-71.97C1062.25,-68.97 1053.42,-66.14 1045,-64 944.71,-38.56 822.84,-26.42 762.54,-21.62"/>
<polygon fill="black" stroke="black" points="762.6,-18.11 752.36,-20.83 762.06,-25.09 762.6,-18.11"/>
<g id="a_edge7&#45;headlabel"><a xlink:href="dir_000008_000021.html" xlink:title="8">
<text text-anchor="middle" x="766.4" y="-13.06" font-family="Helvetica,sans-Serif" font-size="10.00">8</text>
</a>
</g>
</g>
<!-- dir_c8fd1adca193700d0c20cd153f75c1a6 -->
<g id="node6" class="node">
<title>dir_c8fd1adca193700d0c20cd153f75c1a6</title>
<g id="a_node6"><a xlink:href="dir_c8fd1adca193700d0c20cd153f75c1a6.html" xlink:title="Cone">
<polygon fill="white" stroke="black" points="1036,-108 982,-108 982,-72 1036,-72 1036,-108"/>
<text text-anchor="middle" x="1009" y="-87.5" font-family="Helvetica,sans-Serif" font-size="10.00">Cone</text>
</a>
</g>
</g>
<!-- dir_c8fd1adca193700d0c20cd153f75c1a6&#45;&gt;dir_68267d1309a1af8e8297ef4c3efbcdba -->
<g id="edge12" class="edge">
<title>dir_c8fd1adca193700d0c20cd153f75c1a6&#45;&gt;dir_68267d1309a1af8e8297ef4c3efbcdba</title>
<path fill="none" stroke="black" d="M987.39,-71.82C982.84,-68.84 977.92,-66.04 973,-64 902.21,-34.63 812.2,-24.39 762.4,-20.84"/>
<polygon fill="black" stroke="black" points="762.32,-17.33 752.11,-20.17 761.86,-24.31 762.32,-17.33"/>
<g id="a_edge12&#45;headlabel"><a xlink:href="dir_000009_000021.html" xlink:title="6">
<text text-anchor="middle" x="766.1" y="-12.23" font-family="Helvetica,sans-Serif" font-size="10.00">6</text>
</a>
</g>
</g>
<!-- dir_c584899c254c4b537d8e386d8cf94f87 -->
<g id="node7" class="node">
<title>dir_c584899c254c4b537d8e386d8cf94f87</title>
<g id="a_node7"><a xlink:href="dir_c584899c254c4b537d8e386d8cf94f87.html" xlink:title="Cylinder">
<polygon fill="white" stroke="black" points="963.5,-108 906.5,-108 906.5,-72 963.5,-72 963.5,-108"/>
<text text-anchor="middle" x="935" y="-87.5" font-family="Helvetica,sans-Serif" font-size="10.00">Cylinder</text>
</a>
</g>
</g>
<!-- dir_c584899c254c4b537d8e386d8cf94f87&#45;&gt;dir_68267d1309a1af8e8297ef4c3efbcdba -->
<g id="edge8" class="edge">
<title>dir_c584899c254c4b537d8e386d8cf94f87&#45;&gt;dir_68267d1309a1af8e8297ef4c3efbcdba</title>
<path fill="none" stroke="black" d="M911.56,-71.89C906.89,-68.97 901.91,-66.18 897,-64 852.6,-44.23 797.75,-31.76 762.1,-25.08"/>
<polygon fill="black" stroke="black" points="762.6,-21.62 752.13,-23.27 761.35,-28.5 762.6,-21.62"/>
<g id="a_edge8&#45;headlabel"><a xlink:href="dir_000010_000021.html" xlink:title="9">
<text text-anchor="middle" x="766.64" y="-16.96" font-family="Helvetica,sans-Serif" font-size="10.00">9</text>
</a>
</g>
</g>
<!-- dir_e384b0f4955c8ba1a5bac76831a2f8ef -->
<g id="node8" class="node">
<title>dir_e384b0f4955c8ba1a5bac76831a2f8ef</title>
<g id="a_node8"><a xlink:href="dir_e384b0f4955c8ba1a5bac76831a2f8ef.html" xlink:title="Disk">
<polygon fill="white" stroke="black" points="888,-108 834,-108 834,-72 888,-72 888,-108"/>
<text text-anchor="middle" x="861" y="-87.5" font-family="Helvetica,sans-Serif" font-size="10.00">Disk</text>
</a>
</g>
</g>
<!-- dir_e384b0f4955c8ba1a5bac76831a2f8ef&#45;&gt;dir_68267d1309a1af8e8297ef4c3efbcdba -->
<g id="edge1" class="edge">
<title>dir_e384b0f4955c8ba1a5bac76831a2f8ef&#45;&gt;dir_68267d1309a1af8e8297ef4c3efbcdba</title>
<path fill="none" stroke="black" d="M837.78,-71.95C833.61,-69.16 829.24,-66.4 825,-64 804.73,-52.53 781,-41.75 761.74,-33.61"/>
<polygon fill="black" stroke="black" points="762.98,-30.34 752.4,-29.73 760.29,-36.8 762.98,-30.34"/>
<g id="a_edge1&#45;headlabel"><a xlink:href="dir_000011_000021.html" xlink:title="6">
<text text-anchor="middle" x="767.39" y="-26.6" font-family="Helvetica,sans-Serif" font-size="10.00">6</text>
</a>
</g>
</g>
<!-- dir_d68547482c6b4917e6bf98401287b991 -->
<g id="node9" class="node">
<title>dir_d68547482c6b4917e6bf98401287b991</title>
<g id="a_node9"><a xlink:href="dir_d68547482c6b4917e6bf98401287b991.html" xlink:title="LimitedCone">
<polygon fill="white" stroke="black" points="816,-108 738,-108 738,-72 816,-72 816,-108"/>
<text text-anchor="middle" x="777" y="-87.5" font-family="Helvetica,sans-Serif" font-size="10.00">LimitedCone</text>
</a>
</g>
</g>
<!-- dir_d68547482c6b4917e6bf98401287b991&#45;&gt;dir_68267d1309a1af8e8297ef4c3efbcdba -->
<g id="edge9" class="edge">
<title>dir_d68547482c6b4917e6bf98401287b991&#45;&gt;dir_68267d1309a1af8e8297ef4c3efbcdba</title>
<path fill="none" stroke="black" d="M764.15,-71.7C757.97,-63.39 750.46,-53.28 743.68,-44.14"/>
<polygon fill="black" stroke="black" points="746.48,-42.04 737.71,-36.1 740.86,-46.22 746.48,-42.04"/>
<g id="a_edge9&#45;headlabel"><a xlink:href="dir_000012_000021.html" xlink:title="5">
<text text-anchor="middle" x="750.9" y="-40.74" font-family="Helvetica,sans-Serif" font-size="10.00">5</text>
</a>
</g>
</g>
<!-- dir_87bd571a5d22a4b13c2ae4dfbf537614 -->
<g id="node10" class="node">
<title>dir_87bd571a5d22a4b13c2ae4dfbf537614</title>
<g id="a_node10"><a xlink:href="dir_87bd571a5d22a4b13c2ae4dfbf537614.html" xlink:title="LimitedCylinder">
<polygon fill="white" stroke="black" points="720,-108 626,-108 626,-72 720,-72 720,-108"/>
<text text-anchor="middle" x="673" y="-87.5" font-family="Helvetica,sans-Serif" font-size="10.00">LimitedCylinder</text>
</a>
</g>
</g>
<!-- dir_87bd571a5d22a4b13c2ae4dfbf537614&#45;&gt;dir_68267d1309a1af8e8297ef4c3efbcdba -->
<g id="edge13" class="edge">
<title>dir_87bd571a5d22a4b13c2ae4dfbf537614&#45;&gt;dir_68267d1309a1af8e8297ef4c3efbcdba</title>
<path fill="none" stroke="black" d="M685.85,-71.7C692.03,-63.39 699.54,-53.28 706.32,-44.14"/>
<polygon fill="black" stroke="black" points="709.14,-46.22 712.29,-36.1 703.52,-42.04 709.14,-46.22"/>
<g id="a_edge13&#45;headlabel"><a xlink:href="dir_000013_000021.html" xlink:title="9">
<text text-anchor="middle" x="709.28" y="-48.3" font-family="Helvetica,sans-Serif" font-size="10.00">9</text>
</a>
</g>
</g>
<!-- dir_56d1ca5d3ff5391e378c4668801107ef -->
<g id="node11" class="node">
<title>dir_56d1ca5d3ff5391e378c4668801107ef</title>
<g id="a_node11"><a xlink:href="dir_56d1ca5d3ff5391e378c4668801107ef.html" xlink:title="LimitedPlane">
<polygon fill="white" stroke="black" points="608,-108 528,-108 528,-72 608,-72 608,-108"/>
<text text-anchor="middle" x="568" y="-87.5" font-family="Helvetica,sans-Serif" font-size="10.00">LimitedPlane</text>
</a>
</g>
</g>
<!-- dir_56d1ca5d3ff5391e378c4668801107ef&#45;&gt;dir_68267d1309a1af8e8297ef4c3efbcdba -->
<g id="edge10" class="edge">
<title>dir_56d1ca5d3ff5391e378c4668801107ef&#45;&gt;dir_68267d1309a1af8e8297ef4c3efbcdba</title>
<path fill="none" stroke="black" d="M600.51,-71.97C605.98,-69.23 611.63,-66.49 617,-64 640.4,-53.18 667.13,-42.03 688.15,-33.53"/>
<polygon fill="black" stroke="black" points="689.7,-36.68 697.67,-29.71 687.09,-30.19 689.7,-36.68"/>
<g id="a_edge10&#45;headlabel"><a xlink:href="dir_000014_000021.html" xlink:title="7">
<text text-anchor="middle" x="687.42" y="-38.16" font-family="Helvetica,sans-Serif" font-size="10.00">7</text>
</a>
</g>
</g>
<!-- dir_97bfd06170dbfdc7259e55f67270c986 -->
<g id="node12" class="node">
<title>dir_97bfd06170dbfdc7259e55f67270c986</title>
<g id="a_node12"><a xlink:href="dir_97bfd06170dbfdc7259e55f67270c986.html" xlink:title="PlainMaterial">
<polygon fill="white" stroke="black" points="509.5,-108 428.5,-108 428.5,-72 509.5,-72 509.5,-108"/>
<text text-anchor="middle" x="469" y="-87.5" font-family="Helvetica,sans-Serif" font-size="10.00">PlainMaterial</text>
</a>
</g>
</g>
<!-- dir_97bfd06170dbfdc7259e55f67270c986&#45;&gt;dir_68267d1309a1af8e8297ef4c3efbcdba -->
<g id="edge5" class="edge">
<title>dir_97bfd06170dbfdc7259e55f67270c986&#45;&gt;dir_68267d1309a1af8e8297ef4c3efbcdba</title>
<path fill="none" stroke="black" d="M500.22,-71.91C506.33,-68.99 512.78,-66.2 519,-64 576.28,-43.78 645.86,-30.87 687.72,-24.28"/>
<polygon fill="black" stroke="black" points="688.39,-27.72 697.74,-22.74 687.33,-20.8 688.39,-27.72"/>
<g id="a_edge5&#45;headlabel"><a xlink:href="dir_000015_000021.html" xlink:title="8">
<text text-anchor="middle" x="685.27" y="-28.57" font-family="Helvetica,sans-Serif" font-size="10.00">8</text>
</a>
</g>
</g>
<!-- dir_7d8807d5aadc5bcef0cec14b97ad3e5d -->
<g id="node13" class="node">
<title>dir_7d8807d5aadc5bcef0cec14b97ad3e5d</title>
<g id="a_node13"><a xlink:href="dir_7d8807d5aadc5bcef0cec14b97ad3e5d.html" xlink:title="Plane">
<polygon fill="white" stroke="black" points="410,-108 356,-108 356,-72 410,-72 410,-108"/>
<text text-anchor="middle" x="383" y="-87.5" font-family="Helvetica,sans-Serif" font-size="10.00">Plane</text>
</a>
</g>
</g>
<!-- dir_7d8807d5aadc5bcef0cec14b97ad3e5d&#45;&gt;dir_68267d1309a1af8e8297ef4c3efbcdba -->
<g id="edge3" class="edge">
<title>dir_7d8807d5aadc5bcef0cec14b97ad3e5d&#45;&gt;dir_68267d1309a1af8e8297ef4c3efbcdba</title>
<path fill="none" stroke="black" d="M404.8,-71.95C409.59,-68.88 414.8,-66.02 420,-64 511.6,-28.44 628.66,-20.74 687.57,-19.23"/>
<polygon fill="black" stroke="black" points="687.95,-22.72 697.87,-19.01 687.8,-15.72 687.95,-22.72"/>
<g id="a_edge3&#45;headlabel"><a xlink:href="dir_000016_000021.html" xlink:title="6">
<text text-anchor="middle" x="684.41" y="-23.13" font-family="Helvetica,sans-Serif" font-size="10.00">6</text>
</a>
</g>
</g>
<!-- dir_6ca2c1351489a3b7c4c79e847604cc6e -->
<g id="node14" class="node">
<title>dir_6ca2c1351489a3b7c4c79e847604cc6e</title>
<g id="a_node14"><a xlink:href="dir_6ca2c1351489a3b7c4c79e847604cc6e.html" xlink:title="PointLight">
<polygon fill="white" stroke="black" points="337.5,-108 272.5,-108 272.5,-72 337.5,-72 337.5,-108"/>
<text text-anchor="middle" x="305" y="-87.5" font-family="Helvetica,sans-Serif" font-size="10.00">PointLight</text>
</a>
</g>
</g>
<!-- dir_6ca2c1351489a3b7c4c79e847604cc6e&#45;&gt;dir_68267d1309a1af8e8297ef4c3efbcdba -->
<g id="edge15" class="edge">
<title>dir_6ca2c1351489a3b7c4c79e847604cc6e&#45;&gt;dir_68267d1309a1af8e8297ef4c3efbcdba</title>
<path fill="none" stroke="black" d="M329.94,-71.87C335.36,-68.8 341.22,-65.97 347,-64 466.38,-23.42 617.78,-18.33 687.16,-18.37"/>
<polygon fill="black" stroke="black" points="687.55,-21.87 697.57,-18.42 687.59,-14.87 687.55,-21.87"/>
<g id="a_edge15&#45;headlabel"><a xlink:href="dir_000017_000021.html" xlink:title="6">
<text text-anchor="middle" x="683.95" y="-22.2" font-family="Helvetica,sans-Serif" font-size="10.00">6</text>
</a>
</g>
</g>
<!-- dir_3f92ed83a6efedd91e4e130b78a07f9b -->
<g id="node15" class="node">
<title>dir_3f92ed83a6efedd91e4e130b78a07f9b</title>
<g id="a_node15"><a xlink:href="dir_3f92ed83a6efedd91e4e130b78a07f9b.html" xlink:title="Sphere">
<polygon fill="white" stroke="black" points="254,-108 200,-108 200,-72 254,-72 254,-108"/>
<text text-anchor="middle" x="227" y="-87.5" font-family="Helvetica,sans-Serif" font-size="10.00">Sphere</text>
</a>
</g>
</g>
<!-- dir_3f92ed83a6efedd91e4e130b78a07f9b&#45;&gt;dir_68267d1309a1af8e8297ef4c3efbcdba -->
<g id="edge6" class="edge">
<title>dir_3f92ed83a6efedd91e4e130b78a07f9b&#45;&gt;dir_68267d1309a1af8e8297ef4c3efbcdba</title>
<path fill="none" stroke="black" d="M248.73,-71.75C253.52,-68.7 258.75,-65.89 264,-64 341.84,-35.96 592.43,-23.92 687.73,-20.28"/>
<polygon fill="black" stroke="black" points="687.92,-23.77 697.78,-19.9 687.66,-16.78 687.92,-23.77"/>
<g id="a_edge6&#45;headlabel"><a xlink:href="dir_000018_000021.html" xlink:title="10">
<text text-anchor="middle" x="684.43" y="-24.25" font-family="Helvetica,sans-Serif" font-size="10.00">10</text>
</a>
</g>
</g>
<!-- dir_2a4e33f9be323f7713d427729ee72615 -->
<g id="node16" class="node">
<title>dir_2a4e33f9be323f7713d427729ee72615</title>
<g id="a_node16"><a xlink:href="dir_2a4e33f9be323f7713d427729ee72615.html" xlink:title="SpotLight">
<polygon fill="white" stroke="black" points="182,-108 120,-108 120,-72 182,-72 182,-108"/>
<text text-anchor="middle" x="151" y="-87.5" font-family="Helvetica,sans-Serif" font-size="10.00">SpotLight</text>
</a>
</g>
</g>
<!-- dir_2a4e33f9be323f7713d427729ee72615&#45;&gt;dir_68267d1309a1af8e8297ef4c3efbcdba -->
<g id="edge16" class="edge">
<title>dir_2a4e33f9be323f7713d427729ee72615&#45;&gt;dir_68267d1309a1af8e8297ef4c3efbcdba</title>
<path fill="none" stroke="black" d="M174.19,-71.96C179.48,-68.81 185.25,-65.91 191,-64 283.49,-33.21 582.37,-22.68 687.78,-19.87"/>
<polygon fill="black" stroke="black" points="688.03,-23.36 697.94,-19.6 687.85,-16.36 688.03,-23.36"/>
<g id="a_edge16&#45;headlabel"><a xlink:href="dir_000019_000021.html" xlink:title="6">
<text text-anchor="middle" x="684.51" y="-23.79" font-family="Helvetica,sans-Serif" font-size="10.00">6</text>
</a>
</g>
</g>
<!-- dir_3a54d858ddf47f1666bf932c87179399 -->
<g id="node17" class="node">
<title>dir_3a54d858ddf47f1666bf932c87179399</title>
<g id="a_node17"><a xlink:href="dir_3a54d858ddf47f1666bf932c87179399.html" xlink:title="ZebraMaterial">
<polygon fill="white" stroke="black" points="102,-108 16,-108 16,-72 102,-72 102,-108"/>
<text text-anchor="middle" x="59" y="-87.5" font-family="Helvetica,sans-Serif" font-size="10.00">ZebraMaterial</text>
</a>
</g>
</g>
<!-- dir_3a54d858ddf47f1666bf932c87179399&#45;&gt;dir_68267d1309a1af8e8297ef4c3efbcdba -->
<g id="edge14" class="edge">
<title>dir_3a54d858ddf47f1666bf932c87179399&#45;&gt;dir_68267d1309a1af8e8297ef4c3efbcdba</title>
<path fill="none" stroke="black" d="M89.62,-71.96C96.47,-68.81 103.84,-65.91 111,-64 220.79,-34.72 571.73,-23.04 687.53,-19.92"/>
<polygon fill="black" stroke="black" points="687.77,-23.41 697.67,-19.65 687.58,-16.41 687.77,-23.41"/>
<g id="a_edge14&#45;headlabel"><a xlink:href="dir_000020_000021.html" xlink:title="8">
<text text-anchor="middle" x="684.25" y="-23.84" font-family="Helvetica,sans-Serif" font-size="10.00">8</text>
</a>
</g>
</g>
</g>
</svg>
