<?xml version="1.0" encoding="UTF-8" standalone="no"?>
<!DOCTYPE svg PUBLIC "-//W3C//DTD SVG 1.1//EN"
 "http://www.w3.org/Graphics/SVG/1.1/DTD/svg11.dtd">
<!-- Generated by graphviz version 2.43.0 (0)
 -->
<!-- Title: /home/runner/work/Raytracer/Raytracer/PluginsExt Pages: 1 -->
<svg width="2170pt" height="132pt"
 viewBox="0.00 0.00 2170.00 132.00" xmlns="http://www.w3.org/2000/svg" xmlns:xlink="http://www.w3.org/1999/xlink">
<g id="graph0" class="graph" transform="scale(1 1) rotate(0) translate(4 128)">
<title>/home/runner/work/Raytracer/Raytracer/PluginsExt</title>
<polygon fill="white" stroke="transparent" points="-4,4 -4,-128 2166,-128 2166,4 -4,4"/>
<g id="clust1" class="cluster">
<title>clusterdir_4b314500dd3730d1ba9f053c438de308</title>
<g id="a_clust1"><a xlink:href="dir_4b314500dd3730d1ba9f053c438de308.html">
<polygon fill="#eeeeff" stroke="black" points="8,-64 8,-116 2154,-116 2154,-64 8,-64"/>
</a>
</g>
</g>
<!-- dir_4b314500dd3730d1ba9f053c438de308 -->
<g id="node1" class="node">
<title>dir_4b314500dd3730d1ba9f053c438de308</title>
<text text-anchor="middle" x="2112" y="-87.5" font-family="Helvetica,sans-Serif" font-size="10.00">PluginsExt</text>
</g>
<!-- dir_23797dfc4efa85139749bce11a446eac -->
<g id="node2" class="node">
<title>dir_23797dfc4efa85139749bce11a446eac</title>
<g id="a_node2"><a xlink:href="dir_23797dfc4efa85139749bce11a446eac.html" xlink:title="AmbientLight">
<polygon fill="white" stroke="black" points="2060,-108 1978,-108 1978,-72 2060,-72 2060,-108"/>
<text text-anchor="middle" x="2019" y="-87.5" font-family="Helvetica,sans-Serif" font-size="10.00">AmbientLight</text>
</a>
</g>
</g>
<!-- dir_68267d1309a1af8e8297ef4c3efbcdba -->
<g id="node24" class="node">
<title>dir_68267d1309a1af8e8297ef4c3efbcdba</title>
<g id="a_node24"><a xlink:href="dir_68267d1309a1af8e8297ef4c3efbcdba.html" xlink:title="src">
<polygon fill="white" stroke="red" points="1059,-36 1005,-36 1005,0 1059,0 1059,-36"/>
<text text-anchor="middle" x="1032" y="-15.5" font-family="Helvetica,sans-Serif" font-size="10.00">src</text>
</a>
</g>
</g>
<!-- dir_23797dfc4efa85139749bce11a446eac&#45;&gt;dir_68267d1309a1af8e8297ef4c3efbcdba -->
<g id="edge5" class="edge">
<title>dir_23797dfc4efa85139749bce11a446eac&#45;&gt;dir_68267d1309a1af8e8297ef4c3efbcdba</title>
<path fill="none" stroke="black" d="M1989.92,-71.94C1983.25,-68.75 1976.04,-65.84 1969,-64 1794.74,-18.42 1222.1,-18.01 1069.59,-18.74"/>
<polygon fill="black" stroke="black" points="1069.33,-15.24 1059.35,-18.8 1069.37,-22.24 1069.33,-15.24"/>
<g id="a_edge5&#45;headlabel"><a xlink:href="dir_000001_000027.html" xlink:title="6">
<text text-anchor="middle" x="1072.91" y="-9.88" font-family="Helvetica,sans-Serif" font-size="10.00">6</text>
</a>
</g>
</g>
<!-- dir_d4bc861357cab59352e84826f962b9a0 -->
<g id="node3" class="node">
<title>dir_d4bc861357cab59352e84826f962b9a0</title>
<g id="a_node3"><a xlink:href="dir_d4bc861357cab59352e84826f962b9a0.html" xlink:title="AntiAliasing">
<polygon fill="white" stroke="red" points="1959.5,-108 1884.5,-108 1884.5,-72 1959.5,-72 1959.5,-108"/>
<text text-anchor="middle" x="1922" y="-87.5" font-family="Helvetica,sans-Serif" font-size="10.00">AntiAliasing</text>
</a>
</g>
</g>
<!-- dir_d4bc861357cab59352e84826f962b9a0&#45;&gt;dir_68267d1309a1af8e8297ef4c3efbcdba -->
<g id="edge17" class="edge">
<title>dir_d4bc861357cab59352e84826f962b9a0&#45;&gt;dir_68267d1309a1af8e8297ef4c3efbcdba</title>
<path fill="none" stroke="black" d="M1895.12,-71.83C1889.05,-68.69 1882.47,-65.83 1876,-64 1721.18,-20.23 1212.31,-18.43 1069.54,-18.81"/>
<polygon fill="black" stroke="black" points="1069.13,-15.31 1059.14,-18.84 1069.15,-22.31 1069.13,-15.31"/>
<g id="a_edge17&#45;headlabel"><a xlink:href="dir_000002_000027.html" xlink:title="9">
<text text-anchor="middle" x="1072.72" y="-9.96" font-family="Helvetica,sans-Serif" font-size="10.00">9</text>
</a>
</g>
</g>
<!-- dir_a1e7b0f6c8c966f643def133f499c25f -->
<g id="node4" class="node">
<title>dir_a1e7b0f6c8c966f643def133f499c25f</title>
<g id="a_node4"><a xlink:href="dir_a1e7b0f6c8c966f643def133f499c25f.html" xlink:title="BlackAndWhite">
<polygon fill="white" stroke="black" points="1866.5,-108 1775.5,-108 1775.5,-72 1866.5,-72 1866.5,-108"/>
<text text-anchor="middle" x="1821" y="-87.5" font-family="Helvetica,sans-Serif" font-size="10.00">BlackAndWhite</text>
</a>
</g>
</g>
<!-- dir_a1e7b0f6c8c966f643def133f499c25f&#45;&gt;dir_68267d1309a1af8e8297ef4c3efbcdba -->
<g id="edge12" class="edge">
<title>dir_a1e7b0f6c8c966f643def133f499c25f&#45;&gt;dir_68267d1309a1af8e8297ef4c3efbcdba</title>
<path fill="none" stroke="black" d="M1789.17,-71.9C1782.05,-68.75 1774.41,-65.87 1767,-64 1632.87,-30.13 1200.25,-21.37 1069.66,-19.47"/>
<polygon fill="black" stroke="black" points="1069.43,-15.96 1059.38,-19.32 1069.33,-22.96 1069.43,-15.96"/>
<g id="a_edge12&#45;headlabel"><a xlink:href="dir_000004_000027.html" xlink:title="9">
<text text-anchor="middle" x="1073.06" y="-10.67" font-family="Helvetica,sans-Serif" font-size="10.00">9</text>
</a>
</g>
</g>
<!-- dir_62f615b43676db5ddd87f008b4cc30b3 -->
<g id="node5" class="node">
<title>dir_62f615b43676db5ddd87f008b4cc30b3</title>
<g id="a_node5"><a xlink:href="dir_62f615b43676db5ddd87f008b4cc30b3.html" xlink:title="Camera">
<polygon fill="white" stroke="red" points="1757.5,-108 1702.5,-108 1702.5,-72 1757.5,-72 1757.5,-108"/>
<text text-anchor="middle" x="1730" y="-87.5" font-family="Helvetica,sans-Serif" font-size="10.00">Camera</text>
</a>
</g>
</g>
<!-- dir_62f615b43676db5ddd87f008b4cc30b3&#45;&gt;dir_68267d1309a1af8e8297ef4c3efbcdba -->
<g id="edge2" class="edge">
<title>dir_62f615b43676db5ddd87f008b4cc30b3&#45;&gt;dir_68267d1309a1af8e8297ef4c3efbcdba</title>
<path fill="none" stroke="black" d="M1709.34,-71.89C1704.56,-68.74 1699.31,-65.86 1694,-64 1577.41,-23.09 1191.35,-19.15 1069.32,-18.94"/>
<polygon fill="black" stroke="black" points="1069.01,-15.44 1059,-18.93 1069,-22.44 1069.01,-15.44"/>
<g id="a_edge2&#45;headlabel"><a xlink:href="dir_000005_000027.html" xlink:title="35">
<text text-anchor="middle" x="1072.6" y="-10.1" font-family="Helvetica,sans-Serif" font-size="10.00">35</text>
</a>
</g>
</g>
<!-- dir_616a73672332529d3731a9ebd7c994a8 -->
<g id="node6" class="node">
<title>dir_616a73672332529d3731a9ebd7c994a8</title>
<g id="a_node6"><a xlink:href="dir_616a73672332529d3731a9ebd7c994a8.html" xlink:title="ChessBoardMaterial">
<polygon fill="white" stroke="black" points="1684.5,-108 1569.5,-108 1569.5,-72 1684.5,-72 1684.5,-108"/>
<text text-anchor="middle" x="1627" y="-87.5" font-family="Helvetica,sans-Serif" font-size="10.00">ChessBoardMaterial</text>
</a>
</g>
</g>
<!-- dir_616a73672332529d3731a9ebd7c994a8&#45;&gt;dir_68267d1309a1af8e8297ef4c3efbcdba -->
<g id="edge11" class="edge">
<title>dir_616a73672332529d3731a9ebd7c994a8&#45;&gt;dir_68267d1309a1af8e8297ef4c3efbcdba</title>
<path fill="none" stroke="black" d="M1586.79,-71.99C1578.09,-68.87 1568.84,-65.99 1560,-64 1379.27,-23.38 1156.2,-18.82 1069.2,-18.72"/>
<polygon fill="black" stroke="black" points="1069.04,-15.22 1059.04,-18.73 1069.04,-22.22 1069.04,-15.22"/>
<g id="a_edge11&#45;headlabel"><a xlink:href="dir_000009_000027.html" xlink:title="8">
<text text-anchor="middle" x="1072.63" y="-9.88" font-family="Helvetica,sans-Serif" font-size="10.00">8</text>
</a>
</g>
</g>
<!-- dir_c8fd1adca193700d0c20cd153f75c1a6 -->
<g id="node7" class="node">
<title>dir_c8fd1adca193700d0c20cd153f75c1a6</title>
<g id="a_node7"><a xlink:href="dir_c8fd1adca193700d0c20cd153f75c1a6.html" xlink:title="Cone">
<polygon fill="white" stroke="black" points="1551,-108 1497,-108 1497,-72 1551,-72 1551,-108"/>
<text text-anchor="middle" x="1524" y="-87.5" font-family="Helvetica,sans-Serif" font-size="10.00">Cone</text>
</a>
</g>
</g>
<!-- dir_c8fd1adca193700d0c20cd153f75c1a6&#45;&gt;dir_68267d1309a1af8e8297ef4c3efbcdba -->
<g id="edge18" class="edge">
<title>dir_c8fd1adca193700d0c20cd153f75c1a6&#45;&gt;dir_68267d1309a1af8e8297ef4c3efbcdba</title>
<path fill="none" stroke="black" d="M1502.91,-71.75C1498.24,-68.7 1493.14,-65.89 1488,-64 1411.35,-35.79 1164.29,-23.88 1069.5,-20.28"/>
<polygon fill="black" stroke="black" points="1069.37,-16.77 1059.24,-19.89 1069.11,-23.76 1069.37,-16.77"/>
<g id="a_edge18&#45;headlabel"><a xlink:href="dir_000010_000027.html" xlink:title="6">
<text text-anchor="middle" x="1073.06" y="-11.56" font-family="Helvetica,sans-Serif" font-size="10.00">6</text>
</a>
</g>
</g>
<!-- dir_c584899c254c4b537d8e386d8cf94f87 -->
<g id="node8" class="node">
<title>dir_c584899c254c4b537d8e386d8cf94f87</title>
<g id="a_node8"><a xlink:href="dir_c584899c254c4b537d8e386d8cf94f87.html" xlink:title="Cylinder">
<polygon fill="white" stroke="black" points="1478.5,-108 1421.5,-108 1421.5,-72 1478.5,-72 1478.5,-108"/>
<text text-anchor="middle" x="1450" y="-87.5" font-family="Helvetica,sans-Serif" font-size="10.00">Cylinder</text>
</a>
</g>
</g>
<!-- dir_c584899c254c4b537d8e386d8cf94f87&#45;&gt;dir_68267d1309a1af8e8297ef4c3efbcdba -->
<g id="edge13" class="edge">
<title>dir_c584899c254c4b537d8e386d8cf94f87&#45;&gt;dir_68267d1309a1af8e8297ef4c3efbcdba</title>
<path fill="none" stroke="black" d="M1427.6,-71.84C1422.68,-68.78 1417.34,-65.95 1412,-64 1349.52,-41.2 1152.32,-26.54 1069.36,-21.23"/>
<polygon fill="black" stroke="black" points="1069.33,-17.72 1059.13,-20.59 1068.89,-24.71 1069.33,-17.72"/>
<g id="a_edge13&#45;headlabel"><a xlink:href="dir_000011_000027.html" xlink:title="9">
<text text-anchor="middle" x="1073.09" y="-12.61" font-family="Helvetica,sans-Serif" font-size="10.00">9</text>
</a>
</g>
</g>
<!-- dir_e384b0f4955c8ba1a5bac76831a2f8ef -->
<g id="node9" class="node">
<title>dir_e384b0f4955c8ba1a5bac76831a2f8ef</title>
<g id="a_node9"><a xlink:href="dir_e384b0f4955c8ba1a5bac76831a2f8ef.html" xlink:title="Disk">
<polygon fill="white" stroke="black" points="1403,-108 1349,-108 1349,-72 1403,-72 1403,-108"/>
<text text-anchor="middle" x="1376" y="-87.5" font-family="Helvetica,sans-Serif" font-size="10.00">Disk</text>
</a>
</g>
</g>
<!-- dir_e384b0f4955c8ba1a5bac76831a2f8ef&#45;&gt;dir_68267d1309a1af8e8297ef4c3efbcdba -->
<g id="edge1" class="edge">
<title>dir_e384b0f4955c8ba1a5bac76831a2f8ef&#45;&gt;dir_68267d1309a1af8e8297ef4c3efbcdba</title>
<path fill="none" stroke="black" d="M1354.84,-71.94C1350.17,-68.87 1345.1,-66.01 1340,-64 1247.3,-27.4 1128.31,-20.18 1069.03,-19"/>
<polygon fill="black" stroke="black" points="1069.06,-15.5 1059.01,-18.85 1068.96,-22.5 1069.06,-15.5"/>
<g id="a_edge1&#45;headlabel"><a xlink:href="dir_000012_000027.html" xlink:title="6">
<text text-anchor="middle" x="1072.7" y="-10.22" font-family="Helvetica,sans-Serif" font-size="10.00">6</text>
</a>
</g>
</g>
<!-- dir_d68547482c6b4917e6bf98401287b991 -->
<g id="node10" class="node">
<title>dir_d68547482c6b4917e6bf98401287b991</title>
<g id="a_node10"><a xlink:href="dir_d68547482c6b4917e6bf98401287b991.html" xlink:title="LimitedCone">
<polygon fill="white" stroke="black" points="1331,-108 1253,-108 1253,-72 1331,-72 1331,-108"/>
<text text-anchor="middle" x="1292" y="-87.5" font-family="Helvetica,sans-Serif" font-size="10.00">LimitedCone</text>
</a>
</g>
</g>
<!-- dir_d68547482c6b4917e6bf98401287b991&#45;&gt;dir_68267d1309a1af8e8297ef4c3efbcdba -->
<g id="edge14" class="edge">
<title>dir_d68547482c6b4917e6bf98401287b991&#45;&gt;dir_68267d1309a1af8e8297ef4c3efbcdba</title>
<path fill="none" stroke="black" d="M1262.35,-71.98C1256.4,-69.02 1250.1,-66.19 1244,-64 1184.62,-42.68 1112.08,-29.99 1069.09,-23.76"/>
<polygon fill="black" stroke="black" points="1069.47,-20.28 1059.08,-22.35 1068.5,-27.21 1069.47,-20.28"/>
<g id="a_edge14&#45;headlabel"><a xlink:href="dir_000013_000027.html" xlink:title="5">
<text text-anchor="middle" x="1073.43" y="-15.47" font-family="Helvetica,sans-Serif" font-size="10.00">5</text>
</a>
</g>
</g>
<!-- dir_87bd571a5d22a4b13c2ae4dfbf537614 -->
<g id="node11" class="node">
<title>dir_87bd571a5d22a4b13c2ae4dfbf537614</title>
<g id="a_node11"><a xlink:href="dir_87bd571a5d22a4b13c2ae4dfbf537614.html" xlink:title="LimitedCylinder">
<polygon fill="white" stroke="black" points="1235,-108 1141,-108 1141,-72 1235,-72 1235,-108"/>
<text text-anchor="middle" x="1188" y="-87.5" font-family="Helvetica,sans-Serif" font-size="10.00">LimitedCylinder</text>
</a>
</g>
</g>
<!-- dir_87bd571a5d22a4b13c2ae4dfbf537614&#45;&gt;dir_68267d1309a1af8e8297ef4c3efbcdba -->
<g id="edge19" class="edge">
<title>dir_87bd571a5d22a4b13c2ae4dfbf537614&#45;&gt;dir_68267d1309a1af8e8297ef4c3efbcdba</title>
<path fill="none" stroke="black" d="M1149.84,-71.88C1124.99,-60.73 1092.78,-46.27 1068.31,-35.29"/>
<polygon fill="black" stroke="black" points="1069.57,-32.02 1059.01,-31.12 1066.7,-38.41 1069.57,-32.02"/>
<g id="a_edge19&#45;headlabel"><a xlink:href="dir_000014_000027.html" xlink:title="9">
<text text-anchor="middle" x="1074.01" y="-28.4" font-family="Helvetica,sans-Serif" font-size="10.00">9</text>
</a>
</g>
</g>
<!-- dir_56d1ca5d3ff5391e378c4668801107ef -->
<g id="node12" class="node">
<title>dir_56d1ca5d3ff5391e378c4668801107ef</title>
<g id="a_node12"><a xlink:href="dir_56d1ca5d3ff5391e378c4668801107ef.html" xlink:title="LimitedPlane">
<polygon fill="white" stroke="black" points="1123,-108 1043,-108 1043,-72 1123,-72 1123,-108"/>
<text text-anchor="middle" x="1083" y="-87.5" font-family="Helvetica,sans-Serif" font-size="10.00">LimitedPlane</text>
</a>
</g>
</g>
<!-- dir_56d1ca5d3ff5391e378c4668801107ef&#45;&gt;dir_68267d1309a1af8e8297ef4c3efbcdba -->
<g id="edge15" class="edge">
<title>dir_56d1ca5d3ff5391e378c4668801107ef&#45;&gt;dir_68267d1309a1af8e8297ef4c3efbcdba</title>
<path fill="none" stroke="black" d="M1070.39,-71.7C1064.4,-63.47 1057.12,-53.48 1050.52,-44.42"/>
<polygon fill="black" stroke="black" points="1053.18,-42.13 1044.46,-36.1 1047.52,-46.25 1053.18,-42.13"/>
<g id="a_edge15&#45;headlabel"><a xlink:href="dir_000015_000027.html" xlink:title="7">
<text text-anchor="middle" x="1057.59" y="-40.86" font-family="Helvetica,sans-Serif" font-size="10.00">7</text>
</a>
</g>
</g>
<!-- dir_b4530f26c690837e3ba99bb03343b067 -->
<g id="node13" class="node">
<title>dir_b4530f26c690837e3ba99bb03343b067</title>
<g id="a_node13"><a xlink:href="dir_b4530f26c690837e3ba99bb03343b067.html" xlink:title="MirrorMaterial">
<polygon fill="white" stroke="black" points="1025,-108 939,-108 939,-72 1025,-72 1025,-108"/>
<text text-anchor="middle" x="982" y="-87.5" font-family="Helvetica,sans-Serif" font-size="10.00">MirrorMaterial</text>
</a>
</g>
</g>
<!-- dir_b4530f26c690837e3ba99bb03343b067&#45;&gt;dir_68267d1309a1af8e8297ef4c3efbcdba -->
<g id="edge8" class="edge">
<title>dir_b4530f26c690837e3ba99bb03343b067&#45;&gt;dir_68267d1309a1af8e8297ef4c3efbcdba</title>
<path fill="none" stroke="black" d="M994.36,-71.7C1000.23,-63.47 1007.37,-53.48 1013.84,-44.42"/>
<polygon fill="black" stroke="black" points="1016.82,-46.28 1019.78,-36.1 1011.12,-42.21 1016.82,-46.28"/>
<g id="a_edge8&#45;headlabel"><a xlink:href="dir_000016_000027.html" xlink:title="8">
<text text-anchor="middle" x="1017.04" y="-48.35" font-family="Helvetica,sans-Serif" font-size="10.00">8</text>
</a>
</g>
</g>
<!-- dir_97bfd06170dbfdc7259e55f67270c986 -->
<g id="node14" class="node">
<title>dir_97bfd06170dbfdc7259e55f67270c986</title>
<g id="a_node14"><a xlink:href="dir_97bfd06170dbfdc7259e55f67270c986.html" xlink:title="PlainMaterial">
<polygon fill="white" stroke="black" points="920.5,-108 839.5,-108 839.5,-72 920.5,-72 920.5,-108"/>
<text text-anchor="middle" x="880" y="-87.5" font-family="Helvetica,sans-Serif" font-size="10.00">PlainMaterial</text>
</a>
</g>
</g>
<!-- dir_97bfd06170dbfdc7259e55f67270c986&#45;&gt;dir_68267d1309a1af8e8297ef4c3efbcdba -->
<g id="edge9" class="edge">
<title>dir_97bfd06170dbfdc7259e55f67270c986&#45;&gt;dir_68267d1309a1af8e8297ef4c3efbcdba</title>
<path fill="none" stroke="black" d="M913.51,-71.97C919,-69.26 924.64,-66.52 930,-64 951.67,-53.81 976.23,-42.95 995.81,-34.46"/>
<polygon fill="black" stroke="black" points="997.2,-37.67 1005,-30.49 994.43,-31.25 997.2,-37.67"/>
<g id="a_edge9&#45;headlabel"><a xlink:href="dir_000017_000027.html" xlink:title="8">
<text text-anchor="middle" x="995.03" y="-39.2" font-family="Helvetica,sans-Serif" font-size="10.00">8</text>
</a>
</g>
</g>
<!-- dir_7d8807d5aadc5bcef0cec14b97ad3e5d -->
<g id="node15" class="node">
<title>dir_7d8807d5aadc5bcef0cec14b97ad3e5d</title>
<g id="a_node15"><a xlink:href="dir_7d8807d5aadc5bcef0cec14b97ad3e5d.html" xlink:title="Plane">
<polygon fill="white" stroke="black" points="821,-108 767,-108 767,-72 821,-72 821,-108"/>
<text text-anchor="middle" x="794" y="-87.5" font-family="Helvetica,sans-Serif" font-size="10.00">Plane</text>
</a>
</g>
</g>
<!-- dir_7d8807d5aadc5bcef0cec14b97ad3e5d&#45;&gt;dir_68267d1309a1af8e8297ef4c3efbcdba -->
<g id="edge3" class="edge">
<title>dir_7d8807d5aadc5bcef0cec14b97ad3e5d&#45;&gt;dir_68267d1309a1af8e8297ef4c3efbcdba</title>
<path fill="none" stroke="black" d="M816.32,-71.99C820.99,-68.99 826.02,-66.15 831,-64 885.22,-40.61 953.12,-28.67 994.49,-23.14"/>
<polygon fill="black" stroke="black" points="995.19,-26.58 1004.67,-21.84 994.31,-19.64 995.19,-26.58"/>
<g id="a_edge3&#45;headlabel"><a xlink:href="dir_000018_000027.html" xlink:title="6">
<text text-anchor="middle" x="991.99" y="-27.36" font-family="Helvetica,sans-Serif" font-size="10.00">6</text>
</a>
</g>
</g>
<!-- dir_6ca2c1351489a3b7c4c79e847604cc6e -->
<g id="node16" class="node">
<title>dir_6ca2c1351489a3b7c4c79e847604cc6e</title>
<g id="a_node16"><a xlink:href="dir_6ca2c1351489a3b7c4c79e847604cc6e.html" xlink:title="PointLight">
<polygon fill="white" stroke="black" points="748.5,-108 683.5,-108 683.5,-72 748.5,-72 748.5,-108"/>
<text text-anchor="middle" x="716" y="-87.5" font-family="Helvetica,sans-Serif" font-size="10.00">PointLight</text>
</a>
</g>
</g>
<!-- dir_6ca2c1351489a3b7c4c79e847604cc6e&#45;&gt;dir_68267d1309a1af8e8297ef4c3efbcdba -->
<g id="edge21" class="edge">
<title>dir_6ca2c1351489a3b7c4c79e847604cc6e&#45;&gt;dir_68267d1309a1af8e8297ef4c3efbcdba</title>
<path fill="none" stroke="black" d="M741.46,-71.81C746.75,-68.83 752.42,-66.04 758,-64 839.09,-34.41 940.8,-24.2 994.6,-20.73"/>
<polygon fill="black" stroke="black" points="994.93,-24.22 1004.71,-20.13 994.51,-17.23 994.93,-24.22"/>
<g id="a_edge21&#45;headlabel"><a xlink:href="dir_000019_000027.html" xlink:title="6">
<text text-anchor="middle" x="991.52" y="-24.77" font-family="Helvetica,sans-Serif" font-size="10.00">6</text>
</a>
</g>
</g>
<!-- dir_a1be71b4a87ea0a43842201df25556cd -->
<g id="node17" class="node">
<title>dir_a1be71b4a87ea0a43842201df25556cd</title>
<g id="a_node17"><a xlink:href="dir_a1be71b4a87ea0a43842201df25556cd.html" xlink:title="RefractionMaterial">
<polygon fill="white" stroke="black" points="665.5,-108 558.5,-108 558.5,-72 665.5,-72 665.5,-108"/>
<text text-anchor="middle" x="612" y="-87.5" font-family="Helvetica,sans-Serif" font-size="10.00">RefractionMaterial</text>
</a>
</g>
</g>
<!-- dir_a1be71b4a87ea0a43842201df25556cd&#45;&gt;dir_68267d1309a1af8e8297ef4c3efbcdba -->
<g id="edge16" class="edge">
<title>dir_a1be71b4a87ea0a43842201df25556cd&#45;&gt;dir_68267d1309a1af8e8297ef4c3efbcdba</title>
<path fill="none" stroke="black" d="M650.47,-71.96C658.46,-68.93 666.91,-66.08 675,-64 789.05,-34.69 928.71,-24.14 994.42,-20.62"/>
<polygon fill="black" stroke="black" points="994.88,-24.1 1004.69,-20.1 994.53,-17.11 994.88,-24.1"/>
<g id="a_edge16&#45;headlabel"><a xlink:href="dir_000020_000027.html" xlink:title="8">
<text text-anchor="middle" x="991.44" y="-24.62" font-family="Helvetica,sans-Serif" font-size="10.00">8</text>
</a>
</g>
</g>
<!-- dir_3f92ed83a6efedd91e4e130b78a07f9b -->
<g id="node18" class="node">
<title>dir_3f92ed83a6efedd91e4e130b78a07f9b</title>
<g id="a_node18"><a xlink:href="dir_3f92ed83a6efedd91e4e130b78a07f9b.html" xlink:title="Sphere">
<polygon fill="white" stroke="black" points="540,-108 486,-108 486,-72 540,-72 540,-108"/>
<text text-anchor="middle" x="513" y="-87.5" font-family="Helvetica,sans-Serif" font-size="10.00">Sphere</text>
</a>
</g>
</g>
<!-- dir_3f92ed83a6efedd91e4e130b78a07f9b&#45;&gt;dir_68267d1309a1af8e8297ef4c3efbcdba -->
<g id="edge10" class="edge">
<title>dir_3f92ed83a6efedd91e4e130b78a07f9b&#45;&gt;dir_68267d1309a1af8e8297ef4c3efbcdba</title>
<path fill="none" stroke="black" d="M534.32,-71.99C539.23,-68.84 544.6,-65.93 550,-64 631.88,-34.7 896.39,-23.36 994.73,-20.1"/>
<polygon fill="black" stroke="black" points="994.92,-23.59 1004.8,-19.77 994.69,-16.59 994.92,-23.59"/>
<g id="a_edge10&#45;headlabel"><a xlink:href="dir_000021_000027.html" xlink:title="10">
<text text-anchor="middle" x="991.41" y="-24.05" font-family="Helvetica,sans-Serif" font-size="10.00">10</text>
</a>
</g>
</g>
<!-- dir_2a4e33f9be323f7713d427729ee72615 -->
<g id="node19" class="node">
<title>dir_2a4e33f9be323f7713d427729ee72615</title>
<g id="a_node19"><a xlink:href="dir_2a4e33f9be323f7713d427729ee72615.html" xlink:title="SpotLight">
<polygon fill="white" stroke="black" points="468,-108 406,-108 406,-72 468,-72 468,-108"/>
<text text-anchor="middle" x="437" y="-87.5" font-family="Helvetica,sans-Serif" font-size="10.00">SpotLight</text>
</a>
</g>
</g>
<!-- dir_2a4e33f9be323f7713d427729ee72615&#45;&gt;dir_68267d1309a1af8e8297ef4c3efbcdba -->
<g id="edge22" class="edge">
<title>dir_2a4e33f9be323f7713d427729ee72615&#45;&gt;dir_68267d1309a1af8e8297ef4c3efbcdba</title>
<path fill="none" stroke="black" d="M460.18,-71.95C465.48,-68.8 471.25,-65.9 477,-64 573.58,-32.02 886.55,-22.21 994.77,-19.73"/>
<polygon fill="black" stroke="black" points="994.97,-23.23 1004.89,-19.51 994.81,-16.23 994.97,-23.23"/>
<g id="a_edge22&#45;headlabel"><a xlink:href="dir_000022_000027.html" xlink:title="6">
<text text-anchor="middle" x="991.44" y="-23.64" font-family="Helvetica,sans-Serif" font-size="10.00">6</text>
</a>
</g>
</g>
<!-- dir_4a58c7c6211f80dbf76df32f4b4d6b54 -->
<g id="node20" class="node">
<title>dir_4a58c7c6211f80dbf76df32f4b4d6b54</title>
<g id="a_node20"><a xlink:href="dir_4a58c7c6211f80dbf76df32f4b4d6b54.html" xlink:title="Torus">
<polygon fill="white" stroke="black" points="388,-108 334,-108 334,-72 388,-72 388,-108"/>
<text text-anchor="middle" x="361" y="-87.5" font-family="Helvetica,sans-Serif" font-size="10.00">Torus</text>
</a>
</g>
</g>
<!-- dir_4a58c7c6211f80dbf76df32f4b4d6b54&#45;&gt;dir_68267d1309a1af8e8297ef4c3efbcdba -->
<g id="edge4" class="edge">
<title>dir_4a58c7c6211f80dbf76df32f4b4d6b54&#45;&gt;dir_68267d1309a1af8e8297ef4c3efbcdba</title>
<path fill="none" stroke="black" d="M381.66,-71.9C386.44,-68.75 391.69,-65.87 397,-64 508.3,-24.77 875.79,-19.68 994.6,-19.07"/>
<polygon fill="black" stroke="black" points="994.68,-22.57 1004.66,-19.02 994.65,-15.57 994.68,-22.57"/>
<g id="a_edge4&#45;headlabel"><a xlink:href="dir_000023_000027.html" xlink:title="6">
<text text-anchor="middle" x="991.1" y="-22.92" font-family="Helvetica,sans-Serif" font-size="10.00">6</text>
</a>
</g>
</g>
<!-- dir_dcc0eb66a747b99a198a3766040ba045 -->
<g id="node21" class="node">
<title>dir_dcc0eb66a747b99a198a3766040ba045</title>
<g id="a_node21"><a xlink:href="dir_dcc0eb66a747b99a198a3766040ba045.html" xlink:title="TransparencyMaterial">
<polygon fill="white" stroke="black" points="316,-108 194,-108 194,-72 316,-72 316,-108"/>
<text text-anchor="middle" x="255" y="-87.5" font-family="Helvetica,sans-Serif" font-size="10.00">TransparencyMaterial</text>
</a>
</g>
</g>
<!-- dir_dcc0eb66a747b99a198a3766040ba045&#45;&gt;dir_68267d1309a1af8e8297ef4c3efbcdba -->
<g id="edge6" class="edge">
<title>dir_dcc0eb66a747b99a198a3766040ba045&#45;&gt;dir_68267d1309a1af8e8297ef4c3efbcdba</title>
<path fill="none" stroke="black" d="M296.65,-71.98C305.85,-68.83 315.65,-65.93 325,-64 454.92,-37.22 867.88,-23.62 994.64,-20"/>
<polygon fill="black" stroke="black" points="995.08,-23.49 1004.98,-19.71 994.88,-16.49 995.08,-23.49"/>
<g id="a_edge6&#45;headlabel"><a xlink:href="dir_000024_000027.html" xlink:title="8">
<text text-anchor="middle" x="991.56" y="-23.93" font-family="Helvetica,sans-Serif" font-size="10.00">8</text>
</a>
</g>
</g>
<!-- dir_7ebe953558711c8784c6270e1aaf8a7f -->
<g id="node22" class="node">
<title>dir_7ebe953558711c8784c6270e1aaf8a7f</title>
<g id="a_node22"><a xlink:href="dir_7ebe953558711c8784c6270e1aaf8a7f.html" xlink:title="Triangle">
<polygon fill="white" stroke="black" points="175.5,-108 120.5,-108 120.5,-72 175.5,-72 175.5,-108"/>
<text text-anchor="middle" x="148" y="-87.5" font-family="Helvetica,sans-Serif" font-size="10.00">Triangle</text>
</a>
</g>
</g>
<!-- dir_7ebe953558711c8784c6270e1aaf8a7f&#45;&gt;dir_68267d1309a1af8e8297ef4c3efbcdba -->
<g id="edge7" class="edge">
<title>dir_7ebe953558711c8784c6270e1aaf8a7f&#45;&gt;dir_68267d1309a1af8e8297ef4c3efbcdba</title>
<path fill="none" stroke="black" d="M169.27,-71.83C174.17,-68.68 179.56,-65.82 185,-64 262.37,-38.05 840.86,-23.3 994.58,-19.81"/>
<polygon fill="black" stroke="black" points="994.99,-23.3 1004.9,-19.58 994.83,-16.3 994.99,-23.3"/>
<g id="a_edge7&#45;headlabel"><a xlink:href="dir_000025_000027.html" xlink:title="6">
<text text-anchor="middle" x="991.46" y="-23.72" font-family="Helvetica,sans-Serif" font-size="10.00">6</text>
</a>
</g>
</g>
<!-- dir_3a54d858ddf47f1666bf932c87179399 -->
<g id="node23" class="node">
<title>dir_3a54d858ddf47f1666bf932c87179399</title>
<g id="a_node23"><a xlink:href="dir_3a54d858ddf47f1666bf932c87179399.html" xlink:title="ZebraMaterial">
<polygon fill="white" stroke="black" points="102,-108 16,-108 16,-72 102,-72 102,-108"/>
<text text-anchor="middle" x="59" y="-87.5" font-family="Helvetica,sans-Serif" font-size="10.00">ZebraMaterial</text>
</a>
</g>
</g>
<!-- dir_3a54d858ddf47f1666bf932c87179399&#45;&gt;dir_68267d1309a1af8e8297ef4c3efbcdba -->
<g id="edge20" class="edge">
<title>dir_3a54d858ddf47f1666bf932c87179399&#45;&gt;dir_68267d1309a1af8e8297ef4c3efbcdba</title>
<path fill="none" stroke="black" d="M89.92,-71.95C96.98,-68.76 104.6,-65.85 112,-64 283.39,-21.18 844.24,-18.75 994.62,-18.89"/>
<polygon fill="black" stroke="black" points="994.72,-22.39 1004.72,-18.91 994.73,-15.39 994.72,-22.39"/>
<g id="a_edge20&#45;headlabel"><a xlink:href="dir_000026_000027.html" xlink:title="8">
<text text-anchor="middle" x="991.12" y="-22.73" font-family="Helvetica,sans-Serif" font-size="10.00">8</text>
</a>
</g>
</g>
</g>
</svg>
