<?xml version="1.0" encoding="UTF-8" standalone="no"?>
<!DOCTYPE svg PUBLIC "-//W3C//DTD SVG 1.1//EN"
 "http://www.w3.org/Graphics/SVG/1.1/DTD/svg11.dtd">
<!-- Generated by graphviz version 2.43.0 (0)
 -->
<!-- Title: /home/runner/work/Raytracer/Raytracer/src/Entities/Transform/Transform.hpp Pages: 1 -->
<svg width="250pt" height="274pt"
 viewBox="0.00 0.00 250.00 274.00" xmlns="http://www.w3.org/2000/svg" xmlns:xlink="http://www.w3.org/1999/xlink">
<g id="graph0" class="graph" transform="scale(1 1) rotate(0) translate(4 270)">
<title>/home/runner/work/Raytracer/Raytracer/src/Entities/Transform/Transform.hpp</title>
<polygon fill="white" stroke="transparent" points="-4,4 -4,-270 246,-270 246,4 -4,4"/>
<!-- Node1 -->
<g id="node1" class="node">
<title>Node1</title>
<g id="a_node1"><a xlink:title=" ">
<polygon fill="#bfbfbf" stroke="black" points="38,-224.5 38,-265.5 197,-265.5 197,-224.5 38,-224.5"/>
<text text-anchor="start" x="46" y="-253.5" font-family="Helvetica,sans-Serif" font-size="10.00">/home/runner/work/Raytracer</text>
<text text-anchor="start" x="46" y="-242.5" font-family="Helvetica,sans-Serif" font-size="10.00">/Raytracer/src/Entities</text>
<text text-anchor="middle" x="117.5" y="-231.5" font-family="Helvetica,sans-Serif" font-size="10.00">/Transform/Transform.hpp</text>
</a>
</g>
</g>
<!-- Node2 -->
<g id="node2" class="node">
<title>Node2</title>
<g id="a_node2"><a xlink:href="a00083.html" target="_top" xlink:title=" ">
<polygon fill="white" stroke="black" points="0,-168.5 0,-187.5 89,-187.5 89,-168.5 0,-168.5"/>
<text text-anchor="middle" x="44.5" y="-175.5" font-family="Helvetica,sans-Serif" font-size="10.00">ITransform.hpp</text>
</a>
</g>
</g>
<!-- Node1&#45;&gt;Node2 -->
<g id="edge1" class="edge">
<title>Node1&#45;&gt;Node2</title>
<path fill="none" stroke="midnightblue" d="M95.6,-224.5C84.84,-214.92 72.05,-203.53 61.96,-194.54"/>
<polygon fill="midnightblue" stroke="midnightblue" points="64.01,-191.69 54.22,-187.65 59.36,-196.92 64.01,-191.69"/>
</g>
<!-- Node3 -->
<g id="node3" class="node">
<title>Node3</title>
<g id="a_node3"><a xlink:href="a00092.html" target="_top" xlink:title=" ">
<polygon fill="white" stroke="black" points="41,-112.5 41,-131.5 118,-131.5 118,-112.5 41,-112.5"/>
<text text-anchor="middle" x="79.5" y="-119.5" font-family="Helvetica,sans-Serif" font-size="10.00">Vector3f.hpp</text>
</a>
</g>
</g>
<!-- Node1&#45;&gt;Node3 -->
<g id="edge8" class="edge">
<title>Node1&#45;&gt;Node3</title>
<path fill="none" stroke="midnightblue" d="M113.05,-224.44C109.37,-208.97 103.75,-186.92 97.5,-168 94.49,-158.9 90.6,-148.99 87.2,-140.79"/>
<polygon fill="midnightblue" stroke="midnightblue" points="90.4,-139.35 83.27,-131.51 83.95,-142.08 90.4,-139.35"/>
</g>
<!-- Node5 -->
<g id="node5" class="node">
<title>Node5</title>
<g id="a_node5"><a xlink:href="a00206.html" target="_top" xlink:title=" ">
<polygon fill="white" stroke="black" points="118,-56.5 118,-75.5 193,-75.5 193,-56.5 118,-56.5"/>
<text text-anchor="middle" x="155.5" y="-63.5" font-family="Helvetica,sans-Serif" font-size="10.00">ISetting.hpp</text>
</a>
</g>
</g>
<!-- Node1&#45;&gt;Node5 -->
<g id="edge7" class="edge">
<title>Node1&#45;&gt;Node5</title>
<path fill="none" stroke="midnightblue" d="M121.71,-224.38C129.11,-189.93 144.33,-119.04 151.54,-85.44"/>
<polygon fill="midnightblue" stroke="midnightblue" points="154.98,-86.1 153.66,-75.58 148.14,-84.63 154.98,-86.1"/>
</g>
<!-- Node2&#45;&gt;Node3 -->
<g id="edge2" class="edge">
<title>Node2&#45;&gt;Node3</title>
<path fill="none" stroke="midnightblue" d="M50.28,-168.08C55.17,-160.53 62.33,-149.49 68.33,-140.23"/>
<polygon fill="midnightblue" stroke="midnightblue" points="71.33,-142.05 73.83,-131.75 65.45,-138.24 71.33,-142.05"/>
</g>
<!-- Node4 -->
<g id="node4" class="node">
<title>Node4</title>
<g id="a_node4"><a xlink:title=" ">
<polygon fill="white" stroke="#bfbfbf" points="43,-56.5 43,-75.5 100,-75.5 100,-56.5 43,-56.5"/>
<text text-anchor="middle" x="71.5" y="-63.5" font-family="Helvetica,sans-Serif" font-size="10.00">ostream</text>
</a>
</g>
</g>
<!-- Node3&#45;&gt;Node4 -->
<g id="edge3" class="edge">
<title>Node3&#45;&gt;Node4</title>
<path fill="none" stroke="midnightblue" d="M78.18,-112.08C77.12,-104.93 75.59,-94.64 74.27,-85.69"/>
<polygon fill="midnightblue" stroke="midnightblue" points="77.72,-85.13 72.8,-75.75 70.8,-86.16 77.72,-85.13"/>
</g>
<!-- Node3&#45;&gt;Node5 -->
<g id="edge4" class="edge">
<title>Node3&#45;&gt;Node5</title>
<path fill="none" stroke="midnightblue" d="M91.71,-112.32C103.28,-104.11 120.88,-91.6 134.66,-81.81"/>
<polygon fill="midnightblue" stroke="midnightblue" points="136.94,-84.48 143.07,-75.83 132.89,-78.77 136.94,-84.48"/>
</g>
<!-- Node6 -->
<g id="node6" class="node">
<title>Node6</title>
<g id="a_node6"><a xlink:title=" ">
<polygon fill="white" stroke="#bfbfbf" points="82.5,-0.5 82.5,-19.5 140.5,-19.5 140.5,-0.5 82.5,-0.5"/>
<text text-anchor="middle" x="111.5" y="-7.5" font-family="Helvetica,sans-Serif" font-size="10.00">memory</text>
</a>
</g>
</g>
<!-- Node5&#45;&gt;Node6 -->
<g id="edge5" class="edge">
<title>Node5&#45;&gt;Node6</title>
<path fill="none" stroke="midnightblue" d="M148.23,-56.08C141.96,-48.38 132.71,-37.03 125.07,-27.65"/>
<polygon fill="midnightblue" stroke="midnightblue" points="127.66,-25.29 118.63,-19.75 122.23,-29.71 127.66,-25.29"/>
</g>
<!-- Node7 -->
<g id="node7" class="node">
<title>Node7</title>
<g id="a_node7"><a xlink:title=" ">
<polygon fill="white" stroke="#bfbfbf" points="159,-0.5 159,-19.5 242,-19.5 242,-0.5 159,-0.5"/>
<text text-anchor="middle" x="200.5" y="-7.5" font-family="Helvetica,sans-Serif" font-size="10.00">libconfig.h++</text>
</a>
</g>
</g>
<!-- Node5&#45;&gt;Node7 -->
<g id="edge6" class="edge">
<title>Node5&#45;&gt;Node7</title>
<path fill="none" stroke="midnightblue" d="M162.93,-56.08C169.35,-48.38 178.81,-37.03 186.62,-27.65"/>
<polygon fill="midnightblue" stroke="midnightblue" points="189.49,-29.67 193.21,-19.75 184.12,-25.19 189.49,-29.67"/>
</g>
</g>
</svg>
