<?xml version="1.0" encoding="UTF-8" standalone="no"?>
<!DOCTYPE svg PUBLIC "-//W3C//DTD SVG 1.1//EN"
 "http://www.w3.org/Graphics/SVG/1.1/DTD/svg11.dtd">
<!-- Generated by graphviz version 2.43.0 (0)
 -->
<!-- Title: /home/runner/work/Raytracer/Raytracer/src/Entities/IMaterial.hpp Pages: 1 -->
<svg width="2843pt" height="429pt"
 viewBox="0.00 0.00 2843.00 429.00" xmlns="http://www.w3.org/2000/svg" xmlns:xlink="http://www.w3.org/1999/xlink">
<g id="graph0" class="graph" transform="scale(1 1) rotate(0) translate(4 425)">
<title>/home/runner/work/Raytracer/Raytracer/src/Entities/IMaterial.hpp</title>
<polygon fill="white" stroke="transparent" points="-4,4 -4,-425 2839,-425 2839,4 -4,4"/>
<!-- Node1 -->
<g id="node1" class="node">
<title>Node1</title>
<g id="a_node1"><a xlink:title=" ">
<polygon fill="#bfbfbf" stroke="black" points="1648,-379.5 1648,-420.5 1807,-420.5 1807,-379.5 1648,-379.5"/>
<text text-anchor="start" x="1656" y="-408.5" font-family="Helvetica,sans-Serif" font-size="10.00">/home/runner/work/Raytracer</text>
<text text-anchor="start" x="1656" y="-397.5" font-family="Helvetica,sans-Serif" font-size="10.00">/Raytracer/src/Entities</text>
<text text-anchor="middle" x="1727.5" y="-386.5" font-family="Helvetica,sans-Serif" font-size="10.00">/IMaterial.hpp</text>
</a>
</g>
</g>
<!-- Node2 -->
<g id="node2" class="node">
<title>Node2</title>
<g id="a_node2"><a xlink:href="a00080.html" target="_top" xlink:title=" ">
<polygon fill="white" stroke="black" points="954,-301.5 954,-342.5 1113,-342.5 1113,-301.5 954,-301.5"/>
<text text-anchor="start" x="962" y="-330.5" font-family="Helvetica,sans-Serif" font-size="10.00">/home/runner/work/Raytracer</text>
<text text-anchor="start" x="962" y="-319.5" font-family="Helvetica,sans-Serif" font-size="10.00">/Raytracer/src/Entities</text>
<text text-anchor="middle" x="1033.5" y="-308.5" font-family="Helvetica,sans-Serif" font-size="10.00">/IPrimitive.hpp</text>
</a>
</g>
</g>
<!-- Node1&#45;&gt;Node2 -->
<g id="edge1" class="edge">
<title>Node1&#45;&gt;Node2</title>
<path fill="none" stroke="midnightblue" d="M1637.6,-392.07C1524.59,-382.94 1324.77,-365.37 1154.5,-343 1141.09,-341.24 1126.89,-339.12 1113.12,-336.93"/>
<polygon fill="midnightblue" stroke="midnightblue" points="1637.34,-395.56 1647.59,-392.88 1637.9,-388.58 1637.34,-395.56"/>
</g>
<!-- Node5 -->
<g id="node5" class="node">
<title>Node5</title>
<g id="a_node5"><a xlink:href="a00266.html" target="_top" xlink:title=" ">
<polygon fill="white" stroke="black" points="0,-223.5 0,-264.5 159,-264.5 159,-223.5 0,-223.5"/>
<text text-anchor="start" x="8" y="-252.5" font-family="Helvetica,sans-Serif" font-size="10.00">/home/runner/work/Raytracer</text>
<text text-anchor="start" x="8" y="-241.5" font-family="Helvetica,sans-Serif" font-size="10.00">/Raytracer/PluginsExt/Cone</text>
<text text-anchor="middle" x="79.5" y="-230.5" font-family="Helvetica,sans-Serif" font-size="10.00">/ConeEntity.hpp</text>
</a>
</g>
</g>
<!-- Node1&#45;&gt;Node5 -->
<g id="edge38" class="edge">
<title>Node1&#45;&gt;Node5</title>
<path fill="none" stroke="midnightblue" d="M1637.68,-397.3C1389.74,-392.25 699.28,-375.58 474.5,-343 354.93,-325.67 218.86,-287.77 141.68,-264.51"/>
<polygon fill="midnightblue" stroke="midnightblue" points="1637.67,-400.8 1647.74,-397.51 1637.81,-393.8 1637.67,-400.8"/>
</g>
<!-- Node7 -->
<g id="node7" class="node">
<title>Node7</title>
<g id="a_node7"><a xlink:href="a00272.html" target="_top" xlink:title=" ">
<polygon fill="white" stroke="black" points="177.5,-223.5 177.5,-264.5 341.5,-264.5 341.5,-223.5 177.5,-223.5"/>
<text text-anchor="start" x="185.5" y="-252.5" font-family="Helvetica,sans-Serif" font-size="10.00">/home/runner/work/Raytracer</text>
<text text-anchor="start" x="185.5" y="-241.5" font-family="Helvetica,sans-Serif" font-size="10.00">/Raytracer/PluginsExt/Cylinder</text>
<text text-anchor="middle" x="259.5" y="-230.5" font-family="Helvetica,sans-Serif" font-size="10.00">/CylinderEntity.hpp</text>
</a>
</g>
</g>
<!-- Node1&#45;&gt;Node7 -->
<g id="edge39" class="edge">
<title>Node1&#45;&gt;Node7</title>
<path fill="none" stroke="midnightblue" d="M1637.54,-399.24C1457.18,-398.59 1038.88,-391.44 691.5,-343 561.82,-324.92 413.56,-287.54 328.79,-264.53"/>
<polygon fill="midnightblue" stroke="midnightblue" points="1637.77,-402.74 1647.78,-399.27 1637.79,-395.74 1637.77,-402.74"/>
</g>
<!-- Node9 -->
<g id="node9" class="node">
<title>Node9</title>
<g id="a_node9"><a xlink:href="a00278.html" target="_top" xlink:title=" ">
<polygon fill="white" stroke="black" points="360,-223.5 360,-264.5 519,-264.5 519,-223.5 360,-223.5"/>
<text text-anchor="start" x="368" y="-252.5" font-family="Helvetica,sans-Serif" font-size="10.00">/home/runner/work/Raytracer</text>
<text text-anchor="start" x="368" y="-241.5" font-family="Helvetica,sans-Serif" font-size="10.00">/Raytracer/PluginsExt/Disk</text>
<text text-anchor="middle" x="439.5" y="-230.5" font-family="Helvetica,sans-Serif" font-size="10.00">/DiskEntity.hpp</text>
</a>
</g>
</g>
<!-- Node1&#45;&gt;Node9 -->
<g id="edge40" class="edge">
<title>Node1&#45;&gt;Node9</title>
<path fill="none" stroke="midnightblue" d="M1637.49,-395.89C1491.52,-390.09 1194.31,-375.19 944.5,-343 792.81,-323.45 618.08,-286.2 519.02,-263.68"/>
<polygon fill="midnightblue" stroke="midnightblue" points="1637.6,-399.39 1647.73,-396.29 1637.88,-392.4 1637.6,-399.39"/>
</g>
<!-- Node13 -->
<g id="node13" class="node">
<title>Node13</title>
<g id="a_node13"><a xlink:href="a00290.html" target="_top" xlink:title=" ">
<polygon fill="white" stroke="black" points="933,-223.5 933,-264.5 1134,-264.5 1134,-223.5 933,-223.5"/>
<text text-anchor="start" x="941" y="-252.5" font-family="Helvetica,sans-Serif" font-size="10.00">/home/runner/work/Raytracer</text>
<text text-anchor="start" x="941" y="-241.5" font-family="Helvetica,sans-Serif" font-size="10.00">/Raytracer/PluginsExt/LimitedCylinder</text>
<text text-anchor="middle" x="1033.5" y="-230.5" font-family="Helvetica,sans-Serif" font-size="10.00">/LimitedCylinderEntity.hpp</text>
</a>
</g>
</g>
<!-- Node1&#45;&gt;Node13 -->
<g id="edge41" class="edge">
<title>Node1&#45;&gt;Node13</title>
<path fill="none" stroke="midnightblue" d="M1637.69,-384.43C1575.85,-373.98 1491.92,-358.98 1418.5,-343 1307.97,-318.95 1181.05,-285.49 1104.11,-264.55"/>
<polygon fill="midnightblue" stroke="midnightblue" points="1637.37,-387.93 1647.81,-386.13 1638.53,-381.02 1637.37,-387.93"/>
</g>
<!-- Node15 -->
<g id="node15" class="node">
<title>Node15</title>
<g id="a_node15"><a xlink:href="a00296.html" target="_top" xlink:title=" ">
<polygon fill="white" stroke="black" points="1152.5,-223.5 1152.5,-264.5 1340.5,-264.5 1340.5,-223.5 1152.5,-223.5"/>
<text text-anchor="start" x="1160.5" y="-252.5" font-family="Helvetica,sans-Serif" font-size="10.00">/home/runner/work/Raytracer</text>
<text text-anchor="start" x="1160.5" y="-241.5" font-family="Helvetica,sans-Serif" font-size="10.00">/Raytracer/PluginsExt/LimitedPlane</text>
<text text-anchor="middle" x="1246.5" y="-230.5" font-family="Helvetica,sans-Serif" font-size="10.00">/LimitedPlaneEntity.hpp</text>
</a>
</g>
</g>
<!-- Node1&#45;&gt;Node15 -->
<g id="edge42" class="edge">
<title>Node1&#45;&gt;Node15</title>
<path fill="none" stroke="midnightblue" d="M1653.38,-376.53C1620.32,-366.42 1580.92,-354.25 1545.5,-343 1461.81,-316.41 1365.33,-284.57 1305.12,-264.56"/>
<polygon fill="midnightblue" stroke="midnightblue" points="1652.39,-379.89 1662.97,-379.46 1654.43,-373.19 1652.39,-379.89"/>
</g>
<!-- Node17 -->
<g id="node17" class="node">
<title>Node17</title>
<g id="a_node17"><a xlink:href="a00308.html" target="_top" xlink:title=" ">
<polygon fill="white" stroke="black" points="1359,-223.5 1359,-264.5 1518,-264.5 1518,-223.5 1359,-223.5"/>
<text text-anchor="start" x="1367" y="-252.5" font-family="Helvetica,sans-Serif" font-size="10.00">/home/runner/work/Raytracer</text>
<text text-anchor="start" x="1367" y="-241.5" font-family="Helvetica,sans-Serif" font-size="10.00">/Raytracer/PluginsExt/Plane</text>
<text text-anchor="middle" x="1438.5" y="-230.5" font-family="Helvetica,sans-Serif" font-size="10.00">/PlaneEntity.hpp</text>
</a>
</g>
</g>
<!-- Node1&#45;&gt;Node17 -->
<g id="edge45" class="edge">
<title>Node1&#45;&gt;Node17</title>
<path fill="none" stroke="midnightblue" d="M1681.73,-374.61C1624.56,-344.14 1527.86,-292.62 1475.26,-264.59"/>
<polygon fill="midnightblue" stroke="midnightblue" points="1680.43,-377.88 1690.9,-379.5 1683.72,-371.7 1680.43,-377.88"/>
</g>
<!-- Node19 -->
<g id="node19" class="node">
<title>Node19</title>
<g id="a_node19"><a xlink:href="a00320.html" target="_top" xlink:title=" ">
<polygon fill="white" stroke="black" points="1536,-223.5 1536,-264.5 1695,-264.5 1695,-223.5 1536,-223.5"/>
<text text-anchor="start" x="1544" y="-252.5" font-family="Helvetica,sans-Serif" font-size="10.00">/home/runner/work/Raytracer</text>
<text text-anchor="start" x="1544" y="-241.5" font-family="Helvetica,sans-Serif" font-size="10.00">/Raytracer/PluginsExt/Sphere</text>
<text text-anchor="middle" x="1615.5" y="-230.5" font-family="Helvetica,sans-Serif" font-size="10.00">/SphereEntity.hpp</text>
</a>
</g>
</g>
<!-- Node1&#45;&gt;Node19 -->
<g id="edge46" class="edge">
<title>Node1&#45;&gt;Node19</title>
<path fill="none" stroke="midnightblue" d="M1707.39,-371.36C1685.08,-340.68 1649.64,-291.94 1629.92,-264.83"/>
<polygon fill="midnightblue" stroke="midnightblue" points="1704.6,-373.47 1713.32,-379.5 1710.26,-369.35 1704.6,-373.47"/>
</g>
<!-- Node21 -->
<g id="node21" class="node">
<title>Node21</title>
<g id="a_node21"><a xlink:href="a00332.html" target="_top" xlink:title=" ">
<polygon fill="white" stroke="black" points="1713.5,-223.5 1713.5,-264.5 1875.5,-264.5 1875.5,-223.5 1713.5,-223.5"/>
<text text-anchor="start" x="1721.5" y="-252.5" font-family="Helvetica,sans-Serif" font-size="10.00">/home/runner/work/Raytracer</text>
<text text-anchor="start" x="1721.5" y="-241.5" font-family="Helvetica,sans-Serif" font-size="10.00">/Raytracer/PluginsExt/Triangle</text>
<text text-anchor="middle" x="1794.5" y="-230.5" font-family="Helvetica,sans-Serif" font-size="10.00">/TriangleEntity.hpp</text>
</a>
</g>
</g>
<!-- Node1&#45;&gt;Node21 -->
<g id="edge47" class="edge">
<title>Node1&#45;&gt;Node21</title>
<path fill="none" stroke="midnightblue" d="M1731.48,-369.32C1734.94,-349.3 1741.09,-322.69 1751.5,-301 1757.81,-287.85 1767.55,-274.82 1776.16,-264.65"/>
<polygon fill="midnightblue" stroke="midnightblue" points="1727.99,-368.98 1729.86,-379.41 1734.9,-370.09 1727.99,-368.98"/>
</g>
<!-- Node23 -->
<g id="node23" class="node">
<title>Node23</title>
<g id="a_node23"><a xlink:href="a00107.html" target="_top" xlink:title=" ">
<polygon fill="white" stroke="black" points="1793,-301.5 1793,-342.5 1952,-342.5 1952,-301.5 1793,-301.5"/>
<text text-anchor="start" x="1801" y="-330.5" font-family="Helvetica,sans-Serif" font-size="10.00">/home/runner/work/Raytracer</text>
<text text-anchor="start" x="1801" y="-319.5" font-family="Helvetica,sans-Serif" font-size="10.00">/Raytracer/src/Factories</text>
<text text-anchor="middle" x="1872.5" y="-308.5" font-family="Helvetica,sans-Serif" font-size="10.00">/IMaterialFactory.hpp</text>
</a>
</g>
</g>
<!-- Node1&#45;&gt;Node23 -->
<g id="edge22" class="edge">
<title>Node1&#45;&gt;Node23</title>
<path fill="none" stroke="midnightblue" d="M1773.73,-374.77C1793.61,-364.35 1816.53,-352.34 1835.29,-342.51"/>
<polygon fill="midnightblue" stroke="midnightblue" points="1772.07,-371.69 1764.84,-379.43 1775.32,-377.89 1772.07,-371.69"/>
</g>
<!-- Node24 -->
<g id="node24" class="node">
<title>Node24</title>
<g id="a_node24"><a xlink:href="a00110.html" target="_top" xlink:title=" ">
<polygon fill="white" stroke="black" points="1931,-145.5 1931,-186.5 2090,-186.5 2090,-145.5 1931,-145.5"/>
<text text-anchor="start" x="1939" y="-174.5" font-family="Helvetica,sans-Serif" font-size="10.00">/home/runner/work/Raytracer</text>
<text text-anchor="start" x="1939" y="-163.5" font-family="Helvetica,sans-Serif" font-size="10.00">/Raytracer/src/Factories</text>
<text text-anchor="middle" x="2010.5" y="-152.5" font-family="Helvetica,sans-Serif" font-size="10.00">/MaterialFactory.hpp</text>
</a>
</g>
</g>
<!-- Node1&#45;&gt;Node24 -->
<g id="edge26" class="edge">
<title>Node1&#45;&gt;Node24</title>
<path fill="none" stroke="midnightblue" d="M1817.22,-386.94C1873.73,-377.59 1939.8,-362.87 1960.5,-343 2004.5,-300.77 2010.62,-222.88 2010.94,-186.58"/>
<polygon fill="midnightblue" stroke="midnightblue" points="1816.47,-383.51 1807.15,-388.56 1817.58,-390.42 1816.47,-383.51"/>
</g>
<!-- Node25 -->
<g id="node25" class="node">
<title>Node25</title>
<g id="a_node25"><a xlink:href="a00179.html" target="_top" xlink:title=" ">
<polygon fill="white" stroke="black" points="1925,-67.5 1925,-108.5 2096,-108.5 2096,-67.5 1925,-67.5"/>
<text text-anchor="start" x="1933" y="-96.5" font-family="Helvetica,sans-Serif" font-size="10.00">/home/runner/work/Raytracer</text>
<text text-anchor="start" x="1933" y="-85.5" font-family="Helvetica,sans-Serif" font-size="10.00">/Raytracer/src/Plugins/Materials</text>
<text text-anchor="middle" x="2010.5" y="-74.5" font-family="Helvetica,sans-Serif" font-size="10.00">/MaterialLoader.hpp</text>
</a>
</g>
</g>
<!-- Node1&#45;&gt;Node25 -->
<g id="edge35" class="edge">
<title>Node1&#45;&gt;Node25</title>
<path fill="none" stroke="midnightblue" d="M1741.29,-369.91C1753.74,-344.7 1771.84,-310.76 1783.5,-301 1820.04,-270.41 1851.54,-299.42 1884.5,-265 1923.1,-224.69 1887.54,-189.29 1921.5,-145 1933.16,-129.79 1950.23,-117.63 1966.31,-108.59"/>
<polygon fill="midnightblue" stroke="midnightblue" points="1738.06,-368.56 1736.82,-379.08 1744.35,-371.63 1738.06,-368.56"/>
</g>
<!-- Node27 -->
<g id="node27" class="node">
<title>Node27</title>
<g id="a_node27"><a xlink:href="a00173.html" target="_top" xlink:title=" ">
<polygon fill="white" stroke="black" points="2246,-301.5 2246,-342.5 2417,-342.5 2417,-301.5 2246,-301.5"/>
<text text-anchor="start" x="2254" y="-330.5" font-family="Helvetica,sans-Serif" font-size="10.00">/home/runner/work/Raytracer</text>
<text text-anchor="start" x="2254" y="-319.5" font-family="Helvetica,sans-Serif" font-size="10.00">/Raytracer/src/Plugins/Materials</text>
<text text-anchor="middle" x="2331.5" y="-308.5" font-family="Helvetica,sans-Serif" font-size="10.00">/IMaterialCreator.hpp</text>
</a>
</g>
</g>
<!-- Node1&#45;&gt;Node27 -->
<g id="edge27" class="edge">
<title>Node1&#45;&gt;Node27</title>
<path fill="none" stroke="midnightblue" d="M1817.43,-391.79C1919.42,-382.99 2090.52,-366.34 2236.5,-343 2239.58,-342.51 2242.71,-341.98 2245.87,-341.43"/>
<polygon fill="midnightblue" stroke="midnightblue" points="1816.84,-388.33 1807.17,-392.67 1817.43,-395.3 1816.84,-388.33"/>
</g>
<!-- Node28 -->
<g id="node28" class="node">
<title>Node28</title>
<g id="a_node28"><a xlink:href="a00176.html" target="_top" xlink:title=" ">
<polygon fill="white" stroke="black" points="2020,-223.5 2020,-264.5 2191,-264.5 2191,-223.5 2020,-223.5"/>
<text text-anchor="start" x="2028" y="-252.5" font-family="Helvetica,sans-Serif" font-size="10.00">/home/runner/work/Raytracer</text>
<text text-anchor="start" x="2028" y="-241.5" font-family="Helvetica,sans-Serif" font-size="10.00">/Raytracer/src/Plugins/Materials</text>
<text text-anchor="middle" x="2105.5" y="-230.5" font-family="Helvetica,sans-Serif" font-size="10.00">/MaterialHandler.hpp</text>
</a>
</g>
</g>
<!-- Node1&#45;&gt;Node28 -->
<g id="edge34" class="edge">
<title>Node1&#45;&gt;Node28</title>
<path fill="none" stroke="midnightblue" d="M1817.33,-392.75C1871.03,-386.02 1939.14,-372.03 1993.5,-343 2017.06,-330.41 2016.55,-318.77 2036.5,-301 2050.55,-288.48 2066.88,-275.18 2080.13,-264.68"/>
<polygon fill="midnightblue" stroke="midnightblue" points="1816.66,-389.31 1807.14,-393.97 1817.48,-396.26 1816.66,-389.31"/>
</g>
<!-- Node32 -->
<g id="node32" class="node">
<title>Node32</title>
<g id="a_node32"><a xlink:href="a00260.html" target="_top" xlink:title=" ">
<polygon fill="white" stroke="black" points="2045.5,-301.5 2045.5,-342.5 2227.5,-342.5 2227.5,-301.5 2045.5,-301.5"/>
<text text-anchor="start" x="2053.5" y="-330.5" font-family="Helvetica,sans-Serif" font-size="10.00">/home/runner/work/Raytracer</text>
<text text-anchor="start" x="2053.5" y="-319.5" font-family="Helvetica,sans-Serif" font-size="10.00">/Raytracer/PluginsExt/ChessBoard</text>
<text text-anchor="middle" x="2136.5" y="-308.5" font-family="Helvetica,sans-Serif" font-size="10.00">Material/ChessBoardMaterial.hpp</text>
</a>
</g>
</g>
<!-- Node1&#45;&gt;Node32 -->
<g id="edge36" class="edge">
<title>Node1&#45;&gt;Node32</title>
<path fill="none" stroke="midnightblue" d="M1817.12,-382.64C1877.68,-371.55 1959.42,-356.5 2031.5,-343 2036.06,-342.15 2040.73,-341.27 2045.45,-340.38"/>
<polygon fill="midnightblue" stroke="midnightblue" points="1816.42,-379.21 1807.21,-384.45 1817.68,-386.09 1816.42,-379.21"/>
</g>
<!-- Node33 -->
<g id="node33" class="node">
<title>Node33</title>
<g id="a_node33"><a xlink:href="a00299.html" target="_top" xlink:title=" ">
<polygon fill="white" stroke="black" points="2435.5,-301.5 2435.5,-342.5 2623.5,-342.5 2623.5,-301.5 2435.5,-301.5"/>
<text text-anchor="start" x="2443.5" y="-330.5" font-family="Helvetica,sans-Serif" font-size="10.00">/home/runner/work/Raytracer</text>
<text text-anchor="start" x="2443.5" y="-319.5" font-family="Helvetica,sans-Serif" font-size="10.00">/Raytracer/PluginsExt/PlainMaterial</text>
<text text-anchor="middle" x="2529.5" y="-308.5" font-family="Helvetica,sans-Serif" font-size="10.00">/PlainMaterial.hpp</text>
</a>
</g>
</g>
<!-- Node1&#45;&gt;Node33 -->
<g id="edge43" class="edge">
<title>Node1&#45;&gt;Node33</title>
<path fill="none" stroke="midnightblue" d="M1817.25,-394.96C1950.46,-388.25 2208.15,-372.53 2425.5,-343 2428.78,-342.55 2432.11,-342.07 2435.47,-341.56"/>
<polygon fill="midnightblue" stroke="midnightblue" points="1816.91,-391.47 1807.1,-395.47 1817.26,-398.46 1816.91,-391.47"/>
</g>
<!-- Node34 -->
<g id="node34" class="node">
<title>Node34</title>
<g id="a_node34"><a xlink:href="a00338.html" target="_top" xlink:title=" ">
<polygon fill="white" stroke="black" points="2642,-301.5 2642,-342.5 2835,-342.5 2835,-301.5 2642,-301.5"/>
<text text-anchor="start" x="2650" y="-330.5" font-family="Helvetica,sans-Serif" font-size="10.00">/home/runner/work/Raytracer</text>
<text text-anchor="start" x="2650" y="-319.5" font-family="Helvetica,sans-Serif" font-size="10.00">/Raytracer/PluginsExt/ZebraMaterial</text>
<text text-anchor="middle" x="2738.5" y="-308.5" font-family="Helvetica,sans-Serif" font-size="10.00">/ZebraMaterial.hpp</text>
</a>
</g>
</g>
<!-- Node1&#45;&gt;Node34 -->
<g id="edge48" class="edge">
<title>Node1&#45;&gt;Node34</title>
<path fill="none" stroke="midnightblue" d="M1817.56,-397.14C1980.67,-392.95 2335.59,-380.05 2632.5,-343 2635.57,-342.62 2638.68,-342.2 2641.82,-341.76"/>
<polygon fill="midnightblue" stroke="midnightblue" points="1817.01,-393.66 1807.1,-397.41 1817.19,-400.65 1817.01,-393.66"/>
</g>
<!-- Node3 -->
<g id="node3" class="node">
<title>Node3</title>
<g id="a_node3"><a xlink:href="a00209.html" target="_top" xlink:title=" ">
<polygon fill="white" stroke="black" points="740,-229 740,-259 915,-259 915,-229 740,-229"/>
<text text-anchor="start" x="748" y="-247" font-family="Helvetica,sans-Serif" font-size="10.00">/home/runner/work/Raytracer</text>
<text text-anchor="middle" x="827.5" y="-236" font-family="Helvetica,sans-Serif" font-size="10.00">/Raytracer/src/Scenes/Scene.hpp</text>
</a>
</g>
</g>
<!-- Node2&#45;&gt;Node3 -->
<g id="edge2" class="edge">
<title>Node2&#45;&gt;Node3</title>
<path fill="none" stroke="midnightblue" d="M970.98,-297.93C936.67,-285.28 895.24,-269.99 865.74,-259.11"/>
<polygon fill="midnightblue" stroke="midnightblue" points="969.86,-301.25 980.45,-301.43 972.28,-294.68 969.86,-301.25"/>
</g>
<!-- Node2&#45;&gt;Node5 -->
<g id="edge4" class="edge">
<title>Node2&#45;&gt;Node5</title>
<path fill="none" stroke="midnightblue" d="M943.64,-319.8C785.94,-316.67 449.44,-305.41 168.5,-265 165.52,-264.57 162.5,-264.1 159.44,-263.58"/>
<polygon fill="midnightblue" stroke="midnightblue" points="943.7,-323.3 953.76,-320 943.83,-316.3 943.7,-323.3"/>
</g>
<!-- Node2&#45;&gt;Node7 -->
<g id="edge6" class="edge">
<title>Node2&#45;&gt;Node7</title>
<path fill="none" stroke="midnightblue" d="M943.59,-317.49C812.55,-311.49 561.71,-296.72 350.5,-265 347.62,-264.57 344.7,-264.1 341.75,-263.6"/>
<polygon fill="midnightblue" stroke="midnightblue" points="943.82,-321 953.96,-317.95 944.13,-314.01 943.82,-321"/>
</g>
<!-- Node2&#45;&gt;Node9 -->
<g id="edge8" class="edge">
<title>Node2&#45;&gt;Node9</title>
<path fill="none" stroke="midnightblue" d="M943.52,-311.31C803.59,-296.2 547.68,-268.4 527.5,-265 524.72,-264.53 521.89,-264.03 519.05,-263.5"/>
<polygon fill="midnightblue" stroke="midnightblue" points="943.48,-314.83 953.8,-312.42 944.23,-307.87 943.48,-314.83"/>
</g>
<!-- Node11 -->
<g id="node11" class="node">
<title>Node11</title>
<g id="a_node11"><a xlink:href="a00284.html" target="_top" xlink:title=" ">
<polygon fill="white" stroke="black" points="537,-223.5 537,-264.5 722,-264.5 722,-223.5 537,-223.5"/>
<text text-anchor="start" x="545" y="-252.5" font-family="Helvetica,sans-Serif" font-size="10.00">/home/runner/work/Raytracer</text>
<text text-anchor="start" x="545" y="-241.5" font-family="Helvetica,sans-Serif" font-size="10.00">/Raytracer/PluginsExt/LimitedCone</text>
<text text-anchor="middle" x="629.5" y="-230.5" font-family="Helvetica,sans-Serif" font-size="10.00">/LimitedConeEntity.hpp</text>
</a>
</g>
</g>
<!-- Node2&#45;&gt;Node11 -->
<g id="edge10" class="edge">
<title>Node2&#45;&gt;Node11</title>
<path fill="none" stroke="midnightblue" d="M943.83,-304.74C883.49,-293.72 802.17,-278.72 730.5,-265 727.78,-264.48 725.02,-263.95 722.23,-263.41"/>
<polygon fill="midnightblue" stroke="midnightblue" points="943.24,-308.19 953.7,-306.54 944.49,-301.3 943.24,-308.19"/>
</g>
<!-- Node2&#45;&gt;Node13 -->
<g id="edge12" class="edge">
<title>Node2&#45;&gt;Node13</title>
<path fill="none" stroke="midnightblue" d="M1033.5,-291.3C1033.5,-282.3 1033.5,-272.65 1033.5,-264.51"/>
<polygon fill="midnightblue" stroke="midnightblue" points="1030,-291.43 1033.5,-301.43 1037,-291.43 1030,-291.43"/>
</g>
<!-- Node2&#45;&gt;Node15 -->
<g id="edge14" class="edge">
<title>Node2&#45;&gt;Node15</title>
<path fill="none" stroke="midnightblue" d="M1097.89,-298.03C1127.87,-287.33 1163.17,-274.73 1191.83,-264.51"/>
<polygon fill="midnightblue" stroke="midnightblue" points="1096.59,-294.77 1088.35,-301.43 1098.95,-301.36 1096.59,-294.77"/>
</g>
<!-- Node2&#45;&gt;Node17 -->
<g id="edge16" class="edge">
<title>Node2&#45;&gt;Node17</title>
<path fill="none" stroke="midnightblue" d="M1123.2,-306.23C1186.56,-295.52 1273.41,-280.28 1349.5,-265 1352.61,-264.38 1355.77,-263.73 1358.96,-263.06"/>
<polygon fill="midnightblue" stroke="midnightblue" points="1122.51,-302.79 1113.23,-307.91 1123.68,-309.69 1122.51,-302.79"/>
</g>
<!-- Node2&#45;&gt;Node19 -->
<g id="edge18" class="edge">
<title>Node2&#45;&gt;Node19</title>
<path fill="none" stroke="midnightblue" d="M1123.26,-313.74C1222.38,-305.04 1386.48,-288.61 1526.5,-265 1529.47,-264.5 1532.48,-263.96 1535.53,-263.4"/>
<polygon fill="midnightblue" stroke="midnightblue" points="1122.94,-310.25 1113.28,-314.61 1123.55,-317.23 1122.94,-310.25"/>
</g>
<!-- Node2&#45;&gt;Node21 -->
<g id="edge20" class="edge">
<title>Node2&#45;&gt;Node21</title>
<path fill="none" stroke="midnightblue" d="M1123.28,-317.29C1252.25,-311.11 1497.15,-296.16 1703.5,-265 1706.7,-264.52 1709.95,-263.99 1713.24,-263.42"/>
<polygon fill="midnightblue" stroke="midnightblue" points="1122.88,-313.81 1113.06,-317.78 1123.21,-320.8 1122.88,-313.81"/>
</g>
<!-- Node4 -->
<g id="node4" class="node">
<title>Node4</title>
<g id="a_node4"><a xlink:href="a00146.html" target="_top" xlink:title=" ">
<polygon fill="white" stroke="black" points="748,-151 748,-181 907,-181 907,-151 748,-151"/>
<text text-anchor="start" x="756" y="-169" font-family="Helvetica,sans-Serif" font-size="10.00">/home/runner/work/Raytracer</text>
<text text-anchor="middle" x="827.5" y="-158" font-family="Helvetica,sans-Serif" font-size="10.00">/Raytracer/src/Main.hpp</text>
</a>
</g>
</g>
<!-- Node3&#45;&gt;Node4 -->
<g id="edge3" class="edge">
<title>Node3&#45;&gt;Node4</title>
<path fill="none" stroke="midnightblue" d="M827.5,-218.59C827.5,-206.26 827.5,-191.72 827.5,-181.23"/>
<polygon fill="midnightblue" stroke="midnightblue" points="824,-218.7 827.5,-228.7 831,-218.71 824,-218.7"/>
</g>
<!-- Node6 -->
<g id="node6" class="node">
<title>Node6</title>
<g id="a_node6"><a xlink:href="a00263.html" target="_top" xlink:title=" ">
<polygon fill="white" stroke="black" points="0,-145.5 0,-186.5 159,-186.5 159,-145.5 0,-145.5"/>
<text text-anchor="start" x="8" y="-174.5" font-family="Helvetica,sans-Serif" font-size="10.00">/home/runner/work/Raytracer</text>
<text text-anchor="start" x="8" y="-163.5" font-family="Helvetica,sans-Serif" font-size="10.00">/Raytracer/PluginsExt/Cone</text>
<text text-anchor="middle" x="79.5" y="-152.5" font-family="Helvetica,sans-Serif" font-size="10.00">/ConeCreator.hpp</text>
</a>
</g>
</g>
<!-- Node5&#45;&gt;Node6 -->
<g id="edge5" class="edge">
<title>Node5&#45;&gt;Node6</title>
<path fill="none" stroke="midnightblue" d="M79.5,-213.3C79.5,-204.3 79.5,-194.65 79.5,-186.51"/>
<polygon fill="midnightblue" stroke="midnightblue" points="76,-213.43 79.5,-223.43 83,-213.43 76,-213.43"/>
</g>
<!-- Node8 -->
<g id="node8" class="node">
<title>Node8</title>
<g id="a_node8"><a xlink:href="a00269.html" target="_top" xlink:title=" ">
<polygon fill="white" stroke="black" points="177.5,-145.5 177.5,-186.5 341.5,-186.5 341.5,-145.5 177.5,-145.5"/>
<text text-anchor="start" x="185.5" y="-174.5" font-family="Helvetica,sans-Serif" font-size="10.00">/home/runner/work/Raytracer</text>
<text text-anchor="start" x="185.5" y="-163.5" font-family="Helvetica,sans-Serif" font-size="10.00">/Raytracer/PluginsExt/Cylinder</text>
<text text-anchor="middle" x="259.5" y="-152.5" font-family="Helvetica,sans-Serif" font-size="10.00">/CylinderCreator.hpp</text>
</a>
</g>
</g>
<!-- Node7&#45;&gt;Node8 -->
<g id="edge7" class="edge">
<title>Node7&#45;&gt;Node8</title>
<path fill="none" stroke="midnightblue" d="M259.5,-213.3C259.5,-204.3 259.5,-194.65 259.5,-186.51"/>
<polygon fill="midnightblue" stroke="midnightblue" points="256,-213.43 259.5,-223.43 263,-213.43 256,-213.43"/>
</g>
<!-- Node10 -->
<g id="node10" class="node">
<title>Node10</title>
<g id="a_node10"><a xlink:href="a00275.html" target="_top" xlink:title=" ">
<polygon fill="white" stroke="black" points="360,-145.5 360,-186.5 519,-186.5 519,-145.5 360,-145.5"/>
<text text-anchor="start" x="368" y="-174.5" font-family="Helvetica,sans-Serif" font-size="10.00">/home/runner/work/Raytracer</text>
<text text-anchor="start" x="368" y="-163.5" font-family="Helvetica,sans-Serif" font-size="10.00">/Raytracer/PluginsExt/Disk</text>
<text text-anchor="middle" x="439.5" y="-152.5" font-family="Helvetica,sans-Serif" font-size="10.00">/DiskCreator.hpp</text>
</a>
</g>
</g>
<!-- Node9&#45;&gt;Node10 -->
<g id="edge9" class="edge">
<title>Node9&#45;&gt;Node10</title>
<path fill="none" stroke="midnightblue" d="M439.5,-213.3C439.5,-204.3 439.5,-194.65 439.5,-186.51"/>
<polygon fill="midnightblue" stroke="midnightblue" points="436,-213.43 439.5,-223.43 443,-213.43 436,-213.43"/>
</g>
<!-- Node12 -->
<g id="node12" class="node">
<title>Node12</title>
<g id="a_node12"><a xlink:href="a00281.html" target="_top" xlink:title=" ">
<polygon fill="white" stroke="black" points="537,-145.5 537,-186.5 722,-186.5 722,-145.5 537,-145.5"/>
<text text-anchor="start" x="545" y="-174.5" font-family="Helvetica,sans-Serif" font-size="10.00">/home/runner/work/Raytracer</text>
<text text-anchor="start" x="545" y="-163.5" font-family="Helvetica,sans-Serif" font-size="10.00">/Raytracer/PluginsExt/LimitedCone</text>
<text text-anchor="middle" x="629.5" y="-152.5" font-family="Helvetica,sans-Serif" font-size="10.00">/LimitedConeCreator.hpp</text>
</a>
</g>
</g>
<!-- Node11&#45;&gt;Node12 -->
<g id="edge11" class="edge">
<title>Node11&#45;&gt;Node12</title>
<path fill="none" stroke="midnightblue" d="M629.5,-213.3C629.5,-204.3 629.5,-194.65 629.5,-186.51"/>
<polygon fill="midnightblue" stroke="midnightblue" points="626,-213.43 629.5,-223.43 633,-213.43 626,-213.43"/>
</g>
<!-- Node14 -->
<g id="node14" class="node">
<title>Node14</title>
<g id="a_node14"><a xlink:href="a00287.html" target="_top" xlink:title=" ">
<polygon fill="white" stroke="black" points="933,-145.5 933,-186.5 1134,-186.5 1134,-145.5 933,-145.5"/>
<text text-anchor="start" x="941" y="-174.5" font-family="Helvetica,sans-Serif" font-size="10.00">/home/runner/work/Raytracer</text>
<text text-anchor="start" x="941" y="-163.5" font-family="Helvetica,sans-Serif" font-size="10.00">/Raytracer/PluginsExt/LimitedCylinder</text>
<text text-anchor="middle" x="1033.5" y="-152.5" font-family="Helvetica,sans-Serif" font-size="10.00">/LimitedCylinderCreator.hpp</text>
</a>
</g>
</g>
<!-- Node13&#45;&gt;Node14 -->
<g id="edge13" class="edge">
<title>Node13&#45;&gt;Node14</title>
<path fill="none" stroke="midnightblue" d="M1033.5,-213.3C1033.5,-204.3 1033.5,-194.65 1033.5,-186.51"/>
<polygon fill="midnightblue" stroke="midnightblue" points="1030,-213.43 1033.5,-223.43 1037,-213.43 1030,-213.43"/>
</g>
<!-- Node16 -->
<g id="node16" class="node">
<title>Node16</title>
<g id="a_node16"><a xlink:href="a00293.html" target="_top" xlink:title=" ">
<polygon fill="white" stroke="black" points="1152.5,-145.5 1152.5,-186.5 1340.5,-186.5 1340.5,-145.5 1152.5,-145.5"/>
<text text-anchor="start" x="1160.5" y="-174.5" font-family="Helvetica,sans-Serif" font-size="10.00">/home/runner/work/Raytracer</text>
<text text-anchor="start" x="1160.5" y="-163.5" font-family="Helvetica,sans-Serif" font-size="10.00">/Raytracer/PluginsExt/LimitedPlane</text>
<text text-anchor="middle" x="1246.5" y="-152.5" font-family="Helvetica,sans-Serif" font-size="10.00">/LimitedPlaneCreator.hpp</text>
</a>
</g>
</g>
<!-- Node15&#45;&gt;Node16 -->
<g id="edge15" class="edge">
<title>Node15&#45;&gt;Node16</title>
<path fill="none" stroke="midnightblue" d="M1246.5,-213.3C1246.5,-204.3 1246.5,-194.65 1246.5,-186.51"/>
<polygon fill="midnightblue" stroke="midnightblue" points="1243,-213.43 1246.5,-223.43 1250,-213.43 1243,-213.43"/>
</g>
<!-- Node18 -->
<g id="node18" class="node">
<title>Node18</title>
<g id="a_node18"><a xlink:href="a00305.html" target="_top" xlink:title=" ">
<polygon fill="white" stroke="black" points="1359,-145.5 1359,-186.5 1518,-186.5 1518,-145.5 1359,-145.5"/>
<text text-anchor="start" x="1367" y="-174.5" font-family="Helvetica,sans-Serif" font-size="10.00">/home/runner/work/Raytracer</text>
<text text-anchor="start" x="1367" y="-163.5" font-family="Helvetica,sans-Serif" font-size="10.00">/Raytracer/PluginsExt/Plane</text>
<text text-anchor="middle" x="1438.5" y="-152.5" font-family="Helvetica,sans-Serif" font-size="10.00">/PlaneCreator.hpp</text>
</a>
</g>
</g>
<!-- Node17&#45;&gt;Node18 -->
<g id="edge17" class="edge">
<title>Node17&#45;&gt;Node18</title>
<path fill="none" stroke="midnightblue" d="M1438.5,-213.3C1438.5,-204.3 1438.5,-194.65 1438.5,-186.51"/>
<polygon fill="midnightblue" stroke="midnightblue" points="1435,-213.43 1438.5,-223.43 1442,-213.43 1435,-213.43"/>
</g>
<!-- Node20 -->
<g id="node20" class="node">
<title>Node20</title>
<g id="a_node20"><a xlink:href="a00317.html" target="_top" xlink:title=" ">
<polygon fill="white" stroke="black" points="1536,-145.5 1536,-186.5 1695,-186.5 1695,-145.5 1536,-145.5"/>
<text text-anchor="start" x="1544" y="-174.5" font-family="Helvetica,sans-Serif" font-size="10.00">/home/runner/work/Raytracer</text>
<text text-anchor="start" x="1544" y="-163.5" font-family="Helvetica,sans-Serif" font-size="10.00">/Raytracer/PluginsExt/Sphere</text>
<text text-anchor="middle" x="1615.5" y="-152.5" font-family="Helvetica,sans-Serif" font-size="10.00">/SphereCreator.hpp</text>
</a>
</g>
</g>
<!-- Node19&#45;&gt;Node20 -->
<g id="edge19" class="edge">
<title>Node19&#45;&gt;Node20</title>
<path fill="none" stroke="midnightblue" d="M1615.5,-213.3C1615.5,-204.3 1615.5,-194.65 1615.5,-186.51"/>
<polygon fill="midnightblue" stroke="midnightblue" points="1612,-213.43 1615.5,-223.43 1619,-213.43 1612,-213.43"/>
</g>
<!-- Node22 -->
<g id="node22" class="node">
<title>Node22</title>
<g id="a_node22"><a xlink:href="a00329.html" target="_top" xlink:title=" ">
<polygon fill="white" stroke="black" points="1713.5,-145.5 1713.5,-186.5 1875.5,-186.5 1875.5,-145.5 1713.5,-145.5"/>
<text text-anchor="start" x="1721.5" y="-174.5" font-family="Helvetica,sans-Serif" font-size="10.00">/home/runner/work/Raytracer</text>
<text text-anchor="start" x="1721.5" y="-163.5" font-family="Helvetica,sans-Serif" font-size="10.00">/Raytracer/PluginsExt/Triangle</text>
<text text-anchor="middle" x="1794.5" y="-152.5" font-family="Helvetica,sans-Serif" font-size="10.00">/TriangleCreator.hpp</text>
</a>
</g>
</g>
<!-- Node21&#45;&gt;Node22 -->
<g id="edge21" class="edge">
<title>Node21&#45;&gt;Node22</title>
<path fill="none" stroke="midnightblue" d="M1794.5,-213.3C1794.5,-204.3 1794.5,-194.65 1794.5,-186.51"/>
<polygon fill="midnightblue" stroke="midnightblue" points="1791,-213.43 1794.5,-223.43 1798,-213.43 1791,-213.43"/>
</g>
<!-- Node23&#45;&gt;Node24 -->
<g id="edge23" class="edge">
<title>Node23&#45;&gt;Node24</title>
<path fill="none" stroke="midnightblue" d="M1896.92,-293.75C1924.39,-263.1 1968.34,-214.05 1992.73,-186.83"/>
<polygon fill="midnightblue" stroke="midnightblue" points="1894.04,-291.71 1889.98,-301.5 1899.26,-296.38 1894.04,-291.71"/>
</g>
<!-- Node24&#45;&gt;Node25 -->
<g id="edge24" class="edge">
<title>Node24&#45;&gt;Node25</title>
<path fill="none" stroke="midnightblue" d="M2010.5,-135.3C2010.5,-126.3 2010.5,-116.65 2010.5,-108.51"/>
<polygon fill="midnightblue" stroke="midnightblue" points="2007,-135.43 2010.5,-145.43 2014,-135.43 2007,-135.43"/>
</g>
<!-- Node26 -->
<g id="node26" class="node">
<title>Node26</title>
<g id="a_node26"><a xlink:href="a00212.html" target="_top" xlink:title=" ">
<polygon fill="white" stroke="black" points="1907,-0.5 1907,-30.5 2114,-30.5 2114,-0.5 1907,-0.5"/>
<text text-anchor="start" x="1915" y="-18.5" font-family="Helvetica,sans-Serif" font-size="10.00">/home/runner/work/Raytracer</text>
<text text-anchor="middle" x="2010.5" y="-7.5" font-family="Helvetica,sans-Serif" font-size="10.00">/Raytracer/src/Scenes/SceneLoader.hpp</text>
</a>
</g>
</g>
<!-- Node25&#45;&gt;Node26 -->
<g id="edge25" class="edge">
<title>Node25&#45;&gt;Node26</title>
<path fill="none" stroke="midnightblue" d="M2010.5,-57.08C2010.5,-48.01 2010.5,-38.45 2010.5,-30.89"/>
<polygon fill="midnightblue" stroke="midnightblue" points="2007,-57.36 2010.5,-67.36 2014,-57.36 2007,-57.36"/>
</g>
<!-- Node27&#45;&gt;Node28 -->
<g id="edge28" class="edge">
<title>Node27&#45;&gt;Node28</title>
<path fill="none" stroke="midnightblue" d="M2263.6,-298.17C2231.69,-287.44 2194.05,-274.78 2163.5,-264.51"/>
<polygon fill="midnightblue" stroke="midnightblue" points="2262.71,-301.56 2273.3,-301.43 2264.94,-294.92 2262.71,-301.56"/>
</g>
<!-- Node29 -->
<g id="node29" class="node">
<title>Node29</title>
<g id="a_node29"><a xlink:href="a00257.html" target="_top" xlink:title=" ">
<polygon fill="white" stroke="black" points="2213.5,-223.5 2213.5,-264.5 2395.5,-264.5 2395.5,-223.5 2213.5,-223.5"/>
<text text-anchor="start" x="2221.5" y="-252.5" font-family="Helvetica,sans-Serif" font-size="10.00">/home/runner/work/Raytracer</text>
<text text-anchor="start" x="2221.5" y="-241.5" font-family="Helvetica,sans-Serif" font-size="10.00">/Raytracer/PluginsExt/ChessBoard</text>
<text text-anchor="middle" x="2304.5" y="-230.5" font-family="Helvetica,sans-Serif" font-size="10.00">Material/ChessBoardCreator.hpp</text>
</a>
</g>
</g>
<!-- Node27&#45;&gt;Node29 -->
<g id="edge31" class="edge">
<title>Node27&#45;&gt;Node29</title>
<path fill="none" stroke="midnightblue" d="M2321.16,-291.88C2317.9,-282.72 2314.39,-272.83 2311.43,-264.51"/>
<polygon fill="midnightblue" stroke="midnightblue" points="2317.9,-293.18 2324.55,-301.43 2324.5,-290.83 2317.9,-293.18"/>
</g>
<!-- Node30 -->
<g id="node30" class="node">
<title>Node30</title>
<g id="a_node30"><a xlink:href="a00302.html" target="_top" xlink:title=" ">
<polygon fill="white" stroke="black" points="2426.5,-223.5 2426.5,-264.5 2614.5,-264.5 2614.5,-223.5 2426.5,-223.5"/>
<text text-anchor="start" x="2434.5" y="-252.5" font-family="Helvetica,sans-Serif" font-size="10.00">/home/runner/work/Raytracer</text>
<text text-anchor="start" x="2434.5" y="-241.5" font-family="Helvetica,sans-Serif" font-size="10.00">/Raytracer/PluginsExt/PlainMaterial</text>
<text text-anchor="middle" x="2520.5" y="-230.5" font-family="Helvetica,sans-Serif" font-size="10.00">/PlainMaterialCreator.hpp</text>
</a>
</g>
</g>
<!-- Node27&#45;&gt;Node30 -->
<g id="edge32" class="edge">
<title>Node27&#45;&gt;Node30</title>
<path fill="none" stroke="midnightblue" d="M2389.67,-297.61C2416.05,-287 2446.89,-274.6 2471.99,-264.51"/>
<polygon fill="midnightblue" stroke="midnightblue" points="2388.14,-294.45 2380.17,-301.43 2390.76,-300.94 2388.14,-294.45"/>
</g>
<!-- Node31 -->
<g id="node31" class="node">
<title>Node31</title>
<g id="a_node31"><a xlink:href="a00335.html" target="_top" xlink:title=" ">
<polygon fill="white" stroke="black" points="2639,-223.5 2639,-264.5 2832,-264.5 2832,-223.5 2639,-223.5"/>
<text text-anchor="start" x="2647" y="-252.5" font-family="Helvetica,sans-Serif" font-size="10.00">/home/runner/work/Raytracer</text>
<text text-anchor="start" x="2647" y="-241.5" font-family="Helvetica,sans-Serif" font-size="10.00">/Raytracer/PluginsExt/ZebraMaterial</text>
<text text-anchor="middle" x="2735.5" y="-230.5" font-family="Helvetica,sans-Serif" font-size="10.00">/ZebraCreator.hpp</text>
</a>
</g>
</g>
<!-- Node27&#45;&gt;Node31 -->
<g id="edge33" class="edge">
<title>Node27&#45;&gt;Node31</title>
<path fill="none" stroke="midnightblue" d="M2427.12,-300.93C2466.59,-293.44 2563.57,-275.93 2638.84,-262.38"/>
<polygon fill="midnightblue" stroke="midnightblue" points="2426.34,-297.52 2417.18,-302.85 2427.66,-304.39 2426.34,-297.52"/>
</g>
<!-- Node28&#45;&gt;Node24 -->
<g id="edge29" class="edge">
<title>Node28&#45;&gt;Node24</title>
<path fill="none" stroke="midnightblue" d="M2073.08,-217.06C2060.57,-207.06 2046.51,-195.8 2034.88,-186.51"/>
<polygon fill="midnightblue" stroke="midnightblue" points="2071.04,-219.91 2081.04,-223.43 2075.41,-214.45 2071.04,-219.91"/>
</g>
<!-- Node28&#45;&gt;Node25 -->
<g id="edge30" class="edge">
<title>Node28&#45;&gt;Node25</title>
<path fill="none" stroke="midnightblue" d="M2110.04,-213.35C2111.67,-192.76 2110.7,-165.46 2098.5,-145 2089.23,-129.45 2073.77,-117.5 2058.38,-108.71"/>
<polygon fill="midnightblue" stroke="midnightblue" points="2106.54,-213.13 2108.99,-223.44 2113.5,-213.85 2106.54,-213.13"/>
</g>
<!-- Node32&#45;&gt;Node29 -->
<g id="edge37" class="edge">
<title>Node32&#45;&gt;Node29</title>
<path fill="none" stroke="midnightblue" d="M2189.13,-297.19C2212.38,-286.67 2239.36,-274.47 2261.38,-264.51"/>
<polygon fill="midnightblue" stroke="midnightblue" points="2187.43,-294.12 2179.76,-301.43 2190.32,-300.5 2187.43,-294.12"/>
</g>
<!-- Node33&#45;&gt;Node30 -->
<g id="edge44" class="edge">
<title>Node33&#45;&gt;Node30</title>
<path fill="none" stroke="midnightblue" d="M2525.98,-291.3C2524.92,-282.3 2523.77,-272.65 2522.81,-264.51"/>
<polygon fill="midnightblue" stroke="midnightblue" points="2522.53,-291.91 2527.18,-301.43 2529.48,-291.09 2522.53,-291.91"/>
</g>
<!-- Node34&#45;&gt;Node31 -->
<g id="edge49" class="edge">
<title>Node34&#45;&gt;Node31</title>
<path fill="none" stroke="midnightblue" d="M2737.33,-291.3C2736.97,-282.3 2736.59,-272.65 2736.27,-264.51"/>
<polygon fill="midnightblue" stroke="midnightblue" points="2733.84,-291.57 2737.73,-301.43 2740.83,-291.3 2733.84,-291.57"/>
</g>
</g>
</svg>
