<?xml version="1.0" encoding="UTF-8" standalone="no"?>
<!DOCTYPE svg PUBLIC "-//W3C//DTD SVG 1.1//EN"
 "http://www.w3.org/Graphics/SVG/1.1/DTD/svg11.dtd">
<!-- Generated by graphviz version 2.43.0 (0)
 -->
<!-- Title: /home/runner/work/Raytracer/Raytracer/src/Display/IDisplayModule.hpp Pages: 1 -->
<svg width="564pt" height="128pt"
 viewBox="0.00 0.00 563.50 128.00" xmlns="http://www.w3.org/2000/svg" xmlns:xlink="http://www.w3.org/1999/xlink">
<g id="graph0" class="graph" transform="scale(1 1) rotate(0) translate(4 124)">
<title>/home/runner/work/Raytracer/Raytracer/src/Display/IDisplayModule.hpp</title>
<polygon fill="white" stroke="transparent" points="-4,4 -4,-124 559.5,-124 559.5,4 -4,4"/>
<!-- Node1 -->
<g id="node1" class="node">
<title>Node1</title>
<g id="a_node1"><a xlink:title=" ">
<polygon fill="#bfbfbf" stroke="black" points="202,-78.5 202,-119.5 369,-119.5 369,-78.5 202,-78.5"/>
<text text-anchor="start" x="210" y="-107.5" font-family="Helvetica,sans-Serif" font-size="10.00">/home/runner/work/Raytracer</text>
<text text-anchor="start" x="210" y="-96.5" font-family="Helvetica,sans-Serif" font-size="10.00">/Raytracer/src/Display/IDisplay</text>
<text text-anchor="middle" x="285.5" y="-85.5" font-family="Helvetica,sans-Serif" font-size="10.00">Module.hpp</text>
</a>
</g>
</g>
<!-- Node2 -->
<g id="node2" class="node">
<title>Node2</title>
<g id="a_node2"><a xlink:href="a00068.html" target="_top" xlink:title=" ">
<polygon fill="white" stroke="black" points="0,-6 0,-36 183,-36 183,-6 0,-6"/>
<text text-anchor="start" x="8" y="-24" font-family="Helvetica,sans-Serif" font-size="10.00">/home/runner/work/Raytracer</text>
<text text-anchor="middle" x="91.5" y="-13" font-family="Helvetica,sans-Serif" font-size="10.00">/Raytracer/src/Display/Display.hpp</text>
</a>
</g>
</g>
<!-- Node1&#45;&gt;Node2 -->
<g id="edge1" class="edge">
<title>Node1&#45;&gt;Node2</title>
<path fill="none" stroke="midnightblue" d="M226.21,-74.77C193.98,-62.15 155.17,-46.94 127.51,-36.11"/>
<polygon fill="midnightblue" stroke="midnightblue" points="224.95,-78.04 235.54,-78.43 227.51,-71.52 224.95,-78.04"/>
</g>
<!-- Node3 -->
<g id="node3" class="node">
<title>Node3</title>
<g id="a_node3"><a xlink:href="a00074.html" target="_top" xlink:title=" ">
<polygon fill="white" stroke="black" points="201.5,-0.5 201.5,-41.5 369.5,-41.5 369.5,-0.5 201.5,-0.5"/>
<text text-anchor="start" x="209.5" y="-29.5" font-family="Helvetica,sans-Serif" font-size="10.00">/home/runner/work/Raytracer</text>
<text text-anchor="start" x="209.5" y="-18.5" font-family="Helvetica,sans-Serif" font-size="10.00">/Raytracer/src/Display/Modules</text>
<text text-anchor="middle" x="285.5" y="-7.5" font-family="Helvetica,sans-Serif" font-size="10.00">/CanvasModule.hpp</text>
</a>
</g>
</g>
<!-- Node1&#45;&gt;Node3 -->
<g id="edge2" class="edge">
<title>Node1&#45;&gt;Node3</title>
<path fill="none" stroke="midnightblue" d="M285.5,-68.3C285.5,-59.3 285.5,-49.65 285.5,-41.51"/>
<polygon fill="midnightblue" stroke="midnightblue" points="282,-68.43 285.5,-78.43 289,-68.43 282,-68.43"/>
</g>
<!-- Node4 -->
<g id="node4" class="node">
<title>Node4</title>
<g id="a_node4"><a xlink:href="a00077.html" target="_top" xlink:title=" ">
<polygon fill="white" stroke="black" points="387.5,-0.5 387.5,-41.5 555.5,-41.5 555.5,-0.5 387.5,-0.5"/>
<text text-anchor="start" x="395.5" y="-29.5" font-family="Helvetica,sans-Serif" font-size="10.00">/home/runner/work/Raytracer</text>
<text text-anchor="start" x="395.5" y="-18.5" font-family="Helvetica,sans-Serif" font-size="10.00">/Raytracer/src/Display/Modules</text>
<text text-anchor="middle" x="471.5" y="-7.5" font-family="Helvetica,sans-Serif" font-size="10.00">/ProgressModule.hpp</text>
</a>
</g>
</g>
<!-- Node1&#45;&gt;Node4 -->
<g id="edge3" class="edge">
<title>Node1&#45;&gt;Node4</title>
<path fill="none" stroke="midnightblue" d="M342.75,-74.61C368.71,-64 399.05,-51.6 423.76,-41.51"/>
<polygon fill="midnightblue" stroke="midnightblue" points="341.33,-71.41 333.4,-78.43 343.98,-77.89 341.33,-71.41"/>
</g>
</g>
</svg>
