<?xml version="1.0" encoding="UTF-8" standalone="no"?>
<!DOCTYPE svg PUBLIC "-//W3C//DTD SVG 1.1//EN"
 "http://www.w3.org/Graphics/SVG/1.1/DTD/svg11.dtd">
<!-- Generated by graphviz version 2.43.0 (0)
 -->
<!-- Title: /home/runner/work/Raytracer/Raytracer/src/Filters/IFilter.hpp Pages: 1 -->
<svg width="2139pt" height="485pt"
 viewBox="0.00 0.00 2138.50 485.00" xmlns="http://www.w3.org/2000/svg" xmlns:xlink="http://www.w3.org/1999/xlink">
<g id="graph0" class="graph" transform="scale(1 1) rotate(0) translate(4 481)">
<title>/home/runner/work/Raytracer/Raytracer/src/Filters/IFilter.hpp</title>
<polygon fill="white" stroke="transparent" points="-4,4 -4,-481 2134.5,-481 2134.5,4 -4,4"/>
<!-- Node1 -->
<g id="node1" class="node">
<title>Node1</title>
<g id="a_node1"><a xlink:title=" ">
<polygon fill="#bfbfbf" stroke="black" points="354.5,-446.5 354.5,-476.5 522.5,-476.5 522.5,-446.5 354.5,-446.5"/>
<text text-anchor="start" x="362.5" y="-464.5" font-family="Helvetica,sans-Serif" font-size="10.00">/home/runner/work/Raytracer</text>
<text text-anchor="middle" x="438.5" y="-453.5" font-family="Helvetica,sans-Serif" font-size="10.00">/Raytracer/src/Filters/IFilter.hpp</text>
</a>
</g>
</g>
<!-- Node2 -->
<g id="node2" class="node">
<title>Node2</title>
<g id="a_node2"><a xlink:href="a00080.html" target="_top" xlink:title=" ">
<polygon fill="white" stroke="black" points="1277,-368.5 1277,-409.5 1436,-409.5 1436,-368.5 1277,-368.5"/>
<text text-anchor="start" x="1285" y="-397.5" font-family="Helvetica,sans-Serif" font-size="10.00">/home/runner/work/Raytracer</text>
<text text-anchor="start" x="1285" y="-386.5" font-family="Helvetica,sans-Serif" font-size="10.00">/Raytracer/src/Entities</text>
<text text-anchor="middle" x="1356.5" y="-375.5" font-family="Helvetica,sans-Serif" font-size="10.00">/ICamera.hpp</text>
</a>
</g>
</g>
<!-- Node1&#45;&gt;Node2 -->
<g id="edge1" class="edge">
<title>Node1&#45;&gt;Node2</title>
<path fill="none" stroke="midnightblue" d="M532.86,-453.25C714.08,-439.34 1107.82,-409.1 1276.82,-396.12"/>
<polygon fill="midnightblue" stroke="midnightblue" points="532.51,-449.77 522.81,-454.03 533.05,-456.75 532.51,-449.77"/>
</g>
<!-- Node17 -->
<g id="node17" class="node">
<title>Node17</title>
<g id="a_node17"><a xlink:href="a00110.html" target="_top" xlink:title=" ">
<polygon fill="white" stroke="black" points="134,-212.5 134,-253.5 293,-253.5 293,-212.5 134,-212.5"/>
<text text-anchor="start" x="142" y="-241.5" font-family="Helvetica,sans-Serif" font-size="10.00">/home/runner/work/Raytracer</text>
<text text-anchor="start" x="142" y="-230.5" font-family="Helvetica,sans-Serif" font-size="10.00">/Raytracer/src/Factories</text>
<text text-anchor="middle" x="213.5" y="-219.5" font-family="Helvetica,sans-Serif" font-size="10.00">/FilterFactory.hpp</text>
</a>
</g>
</g>
<!-- Node1&#45;&gt;Node17 -->
<g id="edge18" class="edge">
<title>Node1&#45;&gt;Node17</title>
<path fill="none" stroke="midnightblue" d="M344.46,-448.26C297.22,-440.08 246.82,-427.57 231.5,-410 192.96,-365.77 201.91,-289.57 208.94,-253.72"/>
<polygon fill="midnightblue" stroke="midnightblue" points="344.04,-451.73 354.48,-449.94 345.19,-444.83 344.04,-451.73"/>
</g>
<!-- Node18 -->
<g id="node18" class="node">
<title>Node18</title>
<g id="a_node18"><a xlink:href="a00179.html" target="_top" xlink:title=" ">
<polygon fill="white" stroke="black" points="340,-134.5 340,-175.5 499,-175.5 499,-134.5 340,-134.5"/>
<text text-anchor="start" x="348" y="-163.5" font-family="Helvetica,sans-Serif" font-size="10.00">/home/runner/work/Raytracer</text>
<text text-anchor="start" x="348" y="-152.5" font-family="Helvetica,sans-Serif" font-size="10.00">/Raytracer/src/Plugins/Filters</text>
<text text-anchor="middle" x="419.5" y="-141.5" font-family="Helvetica,sans-Serif" font-size="10.00">/FilterLoader.hpp</text>
</a>
</g>
</g>
<!-- Node1&#45;&gt;Node18 -->
<g id="edge28" class="edge">
<title>Node1&#45;&gt;Node18</title>
<path fill="none" stroke="midnightblue" d="M436.97,-436.02C433.3,-377.22 424.05,-228.96 420.72,-175.55"/>
<polygon fill="midnightblue" stroke="midnightblue" points="433.49,-436.46 437.61,-446.22 440.48,-436.02 433.49,-436.46"/>
</g>
<!-- Node20 -->
<g id="node20" class="node">
<title>Node20</title>
<g id="a_node20"><a xlink:href="a00116.html" target="_top" xlink:title=" ">
<polygon fill="white" stroke="black" points="0,-368.5 0,-409.5 159,-409.5 159,-368.5 0,-368.5"/>
<text text-anchor="start" x="8" y="-397.5" font-family="Helvetica,sans-Serif" font-size="10.00">/home/runner/work/Raytracer</text>
<text text-anchor="start" x="8" y="-386.5" font-family="Helvetica,sans-Serif" font-size="10.00">/Raytracer/src/Factories</text>
<text text-anchor="middle" x="79.5" y="-375.5" font-family="Helvetica,sans-Serif" font-size="10.00">/IFilterFactory.hpp</text>
</a>
</g>
</g>
<!-- Node1&#45;&gt;Node20 -->
<g id="edge22" class="edge">
<title>Node1&#45;&gt;Node20</title>
<path fill="none" stroke="midnightblue" d="M352,-444.63C299.93,-434.93 232.34,-422.11 172.5,-410 168.13,-409.12 163.65,-408.19 159.12,-407.26"/>
<polygon fill="midnightblue" stroke="midnightblue" points="351.4,-448.07 361.87,-446.46 352.67,-441.19 351.4,-448.07"/>
</g>
<!-- Node21 -->
<g id="node21" class="node">
<title>Node21</title>
<g id="a_node21"><a xlink:href="a00140.html" target="_top" xlink:title=" ">
<polygon fill="white" stroke="black" points="1453.5,-368.5 1453.5,-409.5 1631.5,-409.5 1631.5,-368.5 1453.5,-368.5"/>
<text text-anchor="start" x="1461.5" y="-397.5" font-family="Helvetica,sans-Serif" font-size="10.00">/home/runner/work/Raytracer</text>
<text text-anchor="start" x="1461.5" y="-386.5" font-family="Helvetica,sans-Serif" font-size="10.00">/Raytracer/src/Images/ImagePipe</text>
<text text-anchor="middle" x="1542.5" y="-375.5" font-family="Helvetica,sans-Serif" font-size="10.00">Line.hpp</text>
</a>
</g>
</g>
<!-- Node1&#45;&gt;Node21 -->
<g id="edge24" class="edge">
<title>Node1&#45;&gt;Node21</title>
<path fill="none" stroke="midnightblue" d="M532.93,-460.58C711.76,-459.65 1111.85,-452.51 1445.5,-410 1448.06,-409.67 1450.65,-409.32 1453.26,-408.94"/>
<polygon fill="midnightblue" stroke="midnightblue" points="532.75,-457.08 522.76,-460.62 532.78,-464.08 532.75,-457.08"/>
</g>
<!-- Node22 -->
<g id="node22" class="node">
<title>Node22</title>
<g id="a_node22"><a xlink:href="a00176.html" target="_top" xlink:title=" ">
<polygon fill="white" stroke="black" points="233,-290.5 233,-331.5 392,-331.5 392,-290.5 233,-290.5"/>
<text text-anchor="start" x="241" y="-319.5" font-family="Helvetica,sans-Serif" font-size="10.00">/home/runner/work/Raytracer</text>
<text text-anchor="start" x="241" y="-308.5" font-family="Helvetica,sans-Serif" font-size="10.00">/Raytracer/src/Plugins/Filters</text>
<text text-anchor="middle" x="312.5" y="-297.5" font-family="Helvetica,sans-Serif" font-size="10.00">/FilterHandler.hpp</text>
</a>
</g>
</g>
<!-- Node1&#45;&gt;Node22 -->
<g id="edge25" class="edge">
<title>Node1&#45;&gt;Node22</title>
<path fill="none" stroke="midnightblue" d="M344.43,-447.41C300.78,-439.21 255.63,-426.95 242.5,-410 231.07,-395.25 234.41,-384.82 242.5,-368 249.71,-352.99 263.13,-340.75 276.3,-331.58"/>
<polygon fill="midnightblue" stroke="midnightblue" points="343.83,-450.85 354.29,-449.2 345.08,-443.97 343.83,-450.85"/>
</g>
<!-- Node23 -->
<g id="node23" class="node">
<title>Node23</title>
<g id="a_node23"><a xlink:href="a00182.html" target="_top" xlink:title=" ">
<polygon fill="white" stroke="black" points="252,-368.5 252,-409.5 411,-409.5 411,-368.5 252,-368.5"/>
<text text-anchor="start" x="260" y="-397.5" font-family="Helvetica,sans-Serif" font-size="10.00">/home/runner/work/Raytracer</text>
<text text-anchor="start" x="260" y="-386.5" font-family="Helvetica,sans-Serif" font-size="10.00">/Raytracer/src/Plugins/Filters</text>
<text text-anchor="middle" x="331.5" y="-375.5" font-family="Helvetica,sans-Serif" font-size="10.00">/IFilterCreator.hpp</text>
</a>
</g>
</g>
<!-- Node1&#45;&gt;Node23 -->
<g id="edge29" class="edge">
<title>Node1&#45;&gt;Node23</title>
<path fill="none" stroke="midnightblue" d="M408.38,-440.65C393.68,-430.97 376.04,-419.35 361.37,-409.68"/>
<polygon fill="midnightblue" stroke="midnightblue" points="406.83,-443.82 417.1,-446.4 410.68,-437.98 406.83,-443.82"/>
</g>
<!-- Node24 -->
<g id="node24" class="node">
<title>Node24</title>
<g id="a_node24"><a xlink:href="a00239.html" target="_top" xlink:title=" ">
<polygon fill="white" stroke="black" points="466.5,-290.5 466.5,-331.5 648.5,-331.5 648.5,-290.5 466.5,-290.5"/>
<text text-anchor="start" x="474.5" y="-319.5" font-family="Helvetica,sans-Serif" font-size="10.00">/home/runner/work/Raytracer</text>
<text text-anchor="start" x="474.5" y="-308.5" font-family="Helvetica,sans-Serif" font-size="10.00">/Raytracer/PluginsExt/AntiAliasing</text>
<text text-anchor="middle" x="557.5" y="-297.5" font-family="Helvetica,sans-Serif" font-size="10.00">/SSAAx4/SSAAx4Creator.hpp</text>
</a>
</g>
</g>
<!-- Node1&#45;&gt;Node24 -->
<g id="edge32" class="edge">
<title>Node1&#45;&gt;Node24</title>
<path fill="none" stroke="midnightblue" d="M532.71,-450.45C584.57,-442.76 641.58,-430.01 657.5,-410 669.12,-395.39 666.94,-384.1 657.5,-368 648.04,-351.86 632.05,-340.03 615.59,-331.51"/>
<polygon fill="midnightblue" stroke="midnightblue" points="532.16,-446.99 522.76,-451.88 533.15,-453.92 532.16,-446.99"/>
</g>
<!-- Node25 -->
<g id="node25" class="node">
<title>Node25</title>
<g id="a_node25"><a xlink:href="a00242.html" target="_top" xlink:title=" ">
<polygon fill="white" stroke="black" points="466.5,-368.5 466.5,-409.5 648.5,-409.5 648.5,-368.5 466.5,-368.5"/>
<text text-anchor="start" x="474.5" y="-397.5" font-family="Helvetica,sans-Serif" font-size="10.00">/home/runner/work/Raytracer</text>
<text text-anchor="start" x="474.5" y="-386.5" font-family="Helvetica,sans-Serif" font-size="10.00">/Raytracer/PluginsExt/AntiAliasing</text>
<text text-anchor="middle" x="557.5" y="-375.5" font-family="Helvetica,sans-Serif" font-size="10.00">/SSAAx4/SSAAx4Filter.hpp</text>
</a>
</g>
</g>
<!-- Node1&#45;&gt;Node25 -->
<g id="edge33" class="edge">
<title>Node1&#45;&gt;Node25</title>
<path fill="none" stroke="midnightblue" d="M471.08,-441.2C487.61,-431.41 507.66,-419.53 524.28,-409.68"/>
<polygon fill="midnightblue" stroke="midnightblue" points="469.11,-438.29 462.3,-446.4 472.68,-444.32 469.11,-438.29"/>
</g>
<!-- Node3 -->
<g id="node3" class="node">
<title>Node3</title>
<g id="a_node3"><a xlink:href="a00074.html" target="_top" xlink:title=" ">
<polygon fill="white" stroke="black" points="1759.5,-212.5 1759.5,-253.5 1927.5,-253.5 1927.5,-212.5 1759.5,-212.5"/>
<text text-anchor="start" x="1767.5" y="-241.5" font-family="Helvetica,sans-Serif" font-size="10.00">/home/runner/work/Raytracer</text>
<text text-anchor="start" x="1767.5" y="-230.5" font-family="Helvetica,sans-Serif" font-size="10.00">/Raytracer/src/Display/Modules</text>
<text text-anchor="middle" x="1843.5" y="-219.5" font-family="Helvetica,sans-Serif" font-size="10.00">/CanvasModule.hpp</text>
</a>
</g>
</g>
<!-- Node2&#45;&gt;Node3 -->
<g id="edge2" class="edge">
<title>Node2&#45;&gt;Node3</title>
<path fill="none" stroke="midnightblue" d="M1446.17,-368.24C1531.23,-360.97 1886.98,-369.22 1921.5,-332 1934.19,-318.31 1930.02,-306.61 1921.5,-290 1913.66,-274.72 1899.5,-262.67 1885.38,-253.73"/>
<polygon fill="midnightblue" stroke="midnightblue" points="1445.57,-364.78 1436.02,-369.37 1446.35,-371.74 1445.57,-364.78"/>
</g>
<!-- Node4 -->
<g id="node4" class="node">
<title>Node4</title>
<g id="a_node4"><a xlink:href="a00077.html" target="_top" xlink:title=" ">
<polygon fill="white" stroke="black" points="1347.5,-212.5 1347.5,-253.5 1515.5,-253.5 1515.5,-212.5 1347.5,-212.5"/>
<text text-anchor="start" x="1355.5" y="-241.5" font-family="Helvetica,sans-Serif" font-size="10.00">/home/runner/work/Raytracer</text>
<text text-anchor="start" x="1355.5" y="-230.5" font-family="Helvetica,sans-Serif" font-size="10.00">/Raytracer/src/Display/Modules</text>
<text text-anchor="middle" x="1431.5" y="-219.5" font-family="Helvetica,sans-Serif" font-size="10.00">/ProgressModule.hpp</text>
</a>
</g>
</g>
<!-- Node2&#45;&gt;Node4 -->
<g id="edge3" class="edge">
<title>Node2&#45;&gt;Node4</title>
<path fill="none" stroke="midnightblue" d="M1432,-363.64C1445.72,-355.74 1458.28,-345.41 1466.5,-332 1481.8,-307.05 1463.72,-274.43 1448.38,-253.84"/>
<polygon fill="midnightblue" stroke="midnightblue" points="1430.04,-360.72 1422.85,-368.5 1433.32,-366.91 1430.04,-360.72"/>
</g>
<!-- Node5 -->
<g id="node5" class="node">
<title>Node5</title>
<g id="a_node5"><a xlink:href="a00152.html" target="_top" xlink:title=" ">
<polygon fill="white" stroke="black" points="1707,-296 1707,-326 1912,-326 1912,-296 1707,-296"/>
<text text-anchor="start" x="1715" y="-314" font-family="Helvetica,sans-Serif" font-size="10.00">/home/runner/work/Raytracer</text>
<text text-anchor="middle" x="1809.5" y="-303" font-family="Helvetica,sans-Serif" font-size="10.00">/Raytracer/src/Images/RayIterrator.hpp</text>
</a>
</g>
</g>
<!-- Node2&#45;&gt;Node5 -->
<g id="edge4" class="edge">
<title>Node2&#45;&gt;Node5</title>
<path fill="none" stroke="midnightblue" d="M1446.09,-367.78C1558.36,-347.49 1589.12,-349.6 1698.5,-332 1709.91,-330.16 1721.95,-328.11 1733.73,-326.04"/>
<polygon fill="midnightblue" stroke="midnightblue" points="1445.27,-364.37 1436.06,-369.61 1446.53,-371.25 1445.27,-364.37"/>
</g>
<!-- Node6 -->
<g id="node6" class="node">
<title>Node6</title>
<g id="a_node6"><a xlink:href="a00221.html" target="_top" xlink:title=" ">
<polygon fill="white" stroke="black" points="1514,-296 1514,-326 1689,-326 1689,-296 1514,-296"/>
<text text-anchor="start" x="1522" y="-314" font-family="Helvetica,sans-Serif" font-size="10.00">/home/runner/work/Raytracer</text>
<text text-anchor="middle" x="1601.5" y="-303" font-family="Helvetica,sans-Serif" font-size="10.00">/Raytracer/src/Scenes/Scene.hpp</text>
</a>
</g>
</g>
<!-- Node2&#45;&gt;Node6 -->
<g id="edge5" class="edge">
<title>Node2&#45;&gt;Node6</title>
<path fill="none" stroke="midnightblue" d="M1429.29,-365.42C1470.39,-352.67 1520.49,-337.13 1556.03,-326.11"/>
<polygon fill="midnightblue" stroke="midnightblue" points="1428.11,-362.12 1419.59,-368.43 1430.18,-368.81 1428.11,-362.12"/>
</g>
<!-- Node9 -->
<g id="node9" class="node">
<title>Node9</title>
<g id="a_node9"><a xlink:href="a00248.html" target="_top" xlink:title=" ">
<polygon fill="white" stroke="black" points="1968.5,-290.5 1968.5,-331.5 2130.5,-331.5 2130.5,-290.5 1968.5,-290.5"/>
<text text-anchor="start" x="1976.5" y="-319.5" font-family="Helvetica,sans-Serif" font-size="10.00">/home/runner/work/Raytracer</text>
<text text-anchor="start" x="1976.5" y="-308.5" font-family="Helvetica,sans-Serif" font-size="10.00">/Raytracer/PluginsExt/Camera</text>
<text text-anchor="middle" x="2049.5" y="-297.5" font-family="Helvetica,sans-Serif" font-size="10.00">/Basic/CameraEntity.hpp</text>
</a>
</g>
</g>
<!-- Node2&#45;&gt;Node9 -->
<g id="edge10" class="edge">
<title>Node2&#45;&gt;Node9</title>
<path fill="none" stroke="midnightblue" d="M1446.16,-367.87C1671.08,-335.55 1732.76,-363.02 1954.5,-332 1959.01,-331.37 1963.62,-330.65 1968.27,-329.87"/>
<polygon fill="midnightblue" stroke="midnightblue" points="1445.41,-364.44 1436.02,-369.35 1446.42,-371.37 1445.41,-364.44"/>
</g>
<!-- Node11 -->
<g id="node11" class="node">
<title>Node11</title>
<g id="a_node11"><a xlink:href="a00254.html" target="_top" xlink:title=" ">
<polygon fill="white" stroke="black" points="851.5,-290.5 851.5,-331.5 1029.5,-331.5 1029.5,-290.5 851.5,-290.5"/>
<text text-anchor="start" x="859.5" y="-319.5" font-family="Helvetica,sans-Serif" font-size="10.00">/home/runner/work/Raytracer</text>
<text text-anchor="start" x="859.5" y="-308.5" font-family="Helvetica,sans-Serif" font-size="10.00">/Raytracer/PluginsExt/Camera</text>
<text text-anchor="middle" x="940.5" y="-297.5" font-family="Helvetica,sans-Serif" font-size="10.00">/Cluster/CameraClusterEntity.hpp</text>
</a>
</g>
</g>
<!-- Node2&#45;&gt;Node11 -->
<g id="edge12" class="edge">
<title>Node2&#45;&gt;Node11</title>
<path fill="none" stroke="midnightblue" d="M1266.97,-372.9C1203.19,-361.98 1115.48,-346.63 1038.5,-332 1035.6,-331.45 1032.65,-330.88 1029.68,-330.31"/>
<polygon fill="midnightblue" stroke="midnightblue" points="1266.55,-376.38 1277,-374.61 1267.73,-369.48 1266.55,-376.38"/>
</g>
<!-- Node13 -->
<g id="node13" class="node">
<title>Node13</title>
<g id="a_node13"><a xlink:href="a00257.html" target="_top" xlink:title=" ">
<polygon fill="white" stroke="black" points="667,-290.5 667,-331.5 834,-331.5 834,-290.5 667,-290.5"/>
<text text-anchor="start" x="675" y="-319.5" font-family="Helvetica,sans-Serif" font-size="10.00">/home/runner/work/Raytracer</text>
<text text-anchor="start" x="675" y="-308.5" font-family="Helvetica,sans-Serif" font-size="10.00">/Raytracer/PluginsExt/Camera</text>
<text text-anchor="middle" x="750.5" y="-297.5" font-family="Helvetica,sans-Serif" font-size="10.00">/Cluster/ClusterRayIterator.hpp</text>
</a>
</g>
</g>
<!-- Node2&#45;&gt;Node13 -->
<g id="edge14" class="edge">
<title>Node2&#45;&gt;Node13</title>
<path fill="none" stroke="midnightblue" d="M1266.86,-381.12C1163.99,-372.56 990.41,-356.07 842.5,-332 839.76,-331.55 836.97,-331.08 834.17,-330.58"/>
<polygon fill="midnightblue" stroke="midnightblue" points="1266.65,-384.61 1276.9,-381.95 1267.22,-377.64 1266.65,-384.61"/>
</g>
<!-- Node14 -->
<g id="node14" class="node">
<title>Node14</title>
<g id="a_node14"><a xlink:href="a00263.html" target="_top" xlink:title=" ">
<polygon fill="white" stroke="black" points="1256,-290.5 1256,-331.5 1457,-331.5 1457,-290.5 1256,-290.5"/>
<text text-anchor="start" x="1264" y="-319.5" font-family="Helvetica,sans-Serif" font-size="10.00">/home/runner/work/Raytracer</text>
<text text-anchor="start" x="1264" y="-308.5" font-family="Helvetica,sans-Serif" font-size="10.00">/Raytracer/PluginsExt/Camera</text>
<text text-anchor="middle" x="1356.5" y="-297.5" font-family="Helvetica,sans-Serif" font-size="10.00">/FullCustom/CameraCustomEntity.hpp</text>
</a>
</g>
</g>
<!-- Node2&#45;&gt;Node14 -->
<g id="edge15" class="edge">
<title>Node2&#45;&gt;Node14</title>
<path fill="none" stroke="midnightblue" d="M1356.5,-358.3C1356.5,-349.3 1356.5,-339.65 1356.5,-331.51"/>
<polygon fill="midnightblue" stroke="midnightblue" points="1353,-358.43 1356.5,-368.43 1360,-358.43 1353,-358.43"/>
</g>
<!-- Node16 -->
<g id="node16" class="node">
<title>Node16</title>
<g id="a_node16"><a xlink:href="a00266.html" target="_top" xlink:title=" ">
<polygon fill="white" stroke="black" points="1047.5,-290.5 1047.5,-331.5 1237.5,-331.5 1237.5,-290.5 1047.5,-290.5"/>
<text text-anchor="start" x="1055.5" y="-319.5" font-family="Helvetica,sans-Serif" font-size="10.00">/home/runner/work/Raytracer</text>
<text text-anchor="start" x="1055.5" y="-308.5" font-family="Helvetica,sans-Serif" font-size="10.00">/Raytracer/PluginsExt/Camera</text>
<text text-anchor="middle" x="1142.5" y="-297.5" font-family="Helvetica,sans-Serif" font-size="10.00">/FullCustom/CustomRayIterator.hpp</text>
</a>
</g>
</g>
<!-- Node2&#45;&gt;Node16 -->
<g id="edge17" class="edge">
<title>Node2&#45;&gt;Node16</title>
<path fill="none" stroke="midnightblue" d="M1291.81,-365.03C1261.69,-354.33 1226.23,-341.73 1197.42,-331.51"/>
<polygon fill="midnightblue" stroke="midnightblue" points="1290.79,-368.38 1301.39,-368.43 1293.14,-361.78 1290.79,-368.38"/>
</g>
<!-- Node6&#45;&gt;Node3 -->
<g id="edge7" class="edge">
<title>Node6&#45;&gt;Node3</title>
<path fill="none" stroke="midnightblue" d="M1655.84,-292.94C1693.06,-281.25 1742.52,-265.71 1781.31,-253.53"/>
<polygon fill="midnightblue" stroke="midnightblue" points="1654.66,-289.64 1646.17,-295.97 1656.76,-296.31 1654.66,-289.64"/>
</g>
<!-- Node6&#45;&gt;Node4 -->
<g id="edge8" class="edge">
<title>Node6&#45;&gt;Node4</title>
<path fill="none" stroke="midnightblue" d="M1560.46,-291.65C1534.75,-280.16 1501.64,-265.36 1475.4,-253.63"/>
<polygon fill="midnightblue" stroke="midnightblue" points="1559.36,-295 1569.92,-295.88 1562.22,-288.61 1559.36,-295"/>
</g>
<!-- Node7 -->
<g id="node7" class="node">
<title>Node7</title>
<g id="a_node7"><a xlink:href="a00068.html" target="_top" xlink:title=" ">
<polygon fill="white" stroke="black" points="984,-0.5 984,-30.5 1167,-30.5 1167,-0.5 984,-0.5"/>
<text text-anchor="start" x="992" y="-18.5" font-family="Helvetica,sans-Serif" font-size="10.00">/home/runner/work/Raytracer</text>
<text text-anchor="middle" x="1075.5" y="-7.5" font-family="Helvetica,sans-Serif" font-size="10.00">/Raytracer/src/Display/Display.hpp</text>
</a>
</g>
</g>
<!-- Node6&#45;&gt;Node7 -->
<g id="edge6" class="edge">
<title>Node6&#45;&gt;Node7</title>
<path fill="none" stroke="midnightblue" d="M1657.55,-291.53C1674.72,-282.94 1691.65,-270.8 1701.5,-254 1710.94,-237.9 1712.56,-227.04 1701.5,-212 1636.75,-123.94 1317,-58 1161.17,-30.54"/>
<polygon fill="midnightblue" stroke="midnightblue" points="1655.64,-288.56 1648.04,-295.94 1658.58,-294.91 1655.64,-288.56"/>
</g>
<!-- Node8 -->
<g id="node8" class="node">
<title>Node8</title>
<g id="a_node8"><a xlink:href="a00158.html" target="_top" xlink:title=" ">
<polygon fill="white" stroke="black" points="1533,-218 1533,-248 1692,-248 1692,-218 1533,-218"/>
<text text-anchor="start" x="1541" y="-236" font-family="Helvetica,sans-Serif" font-size="10.00">/home/runner/work/Raytracer</text>
<text text-anchor="middle" x="1612.5" y="-225" font-family="Helvetica,sans-Serif" font-size="10.00">/Raytracer/src/Main.hpp</text>
</a>
</g>
</g>
<!-- Node6&#45;&gt;Node8 -->
<g id="edge9" class="edge">
<title>Node6&#45;&gt;Node8</title>
<path fill="none" stroke="midnightblue" d="M1605.03,-285.59C1606.82,-273.26 1608.92,-258.72 1610.44,-248.23"/>
<polygon fill="midnightblue" stroke="midnightblue" points="1601.54,-285.31 1603.57,-295.7 1608.47,-286.31 1601.54,-285.31"/>
</g>
<!-- Node10 -->
<g id="node10" class="node">
<title>Node10</title>
<g id="a_node10"><a xlink:href="a00245.html" target="_top" xlink:title=" ">
<polygon fill="white" stroke="black" points="1968.5,-212.5 1968.5,-253.5 2130.5,-253.5 2130.5,-212.5 1968.5,-212.5"/>
<text text-anchor="start" x="1976.5" y="-241.5" font-family="Helvetica,sans-Serif" font-size="10.00">/home/runner/work/Raytracer</text>
<text text-anchor="start" x="1976.5" y="-230.5" font-family="Helvetica,sans-Serif" font-size="10.00">/Raytracer/PluginsExt/Camera</text>
<text text-anchor="middle" x="2049.5" y="-219.5" font-family="Helvetica,sans-Serif" font-size="10.00">/Basic/CameraCreator.hpp</text>
</a>
</g>
</g>
<!-- Node9&#45;&gt;Node10 -->
<g id="edge11" class="edge">
<title>Node9&#45;&gt;Node10</title>
<path fill="none" stroke="midnightblue" d="M2049.5,-280.3C2049.5,-271.3 2049.5,-261.65 2049.5,-253.51"/>
<polygon fill="midnightblue" stroke="midnightblue" points="2046,-280.43 2049.5,-290.43 2053,-280.43 2046,-280.43"/>
</g>
<!-- Node12 -->
<g id="node12" class="node">
<title>Node12</title>
<g id="a_node12"><a xlink:href="a00251.html" target="_top" xlink:title=" ">
<polygon fill="white" stroke="black" points="847.5,-212.5 847.5,-253.5 1033.5,-253.5 1033.5,-212.5 847.5,-212.5"/>
<text text-anchor="start" x="855.5" y="-241.5" font-family="Helvetica,sans-Serif" font-size="10.00">/home/runner/work/Raytracer</text>
<text text-anchor="start" x="855.5" y="-230.5" font-family="Helvetica,sans-Serif" font-size="10.00">/Raytracer/PluginsExt/Camera</text>
<text text-anchor="middle" x="940.5" y="-219.5" font-family="Helvetica,sans-Serif" font-size="10.00">/Cluster/CameraClusterCreator.hpp</text>
</a>
</g>
</g>
<!-- Node11&#45;&gt;Node12 -->
<g id="edge13" class="edge">
<title>Node11&#45;&gt;Node12</title>
<path fill="none" stroke="midnightblue" d="M940.5,-280.3C940.5,-271.3 940.5,-261.65 940.5,-253.51"/>
<polygon fill="midnightblue" stroke="midnightblue" points="937,-280.43 940.5,-290.43 944,-280.43 937,-280.43"/>
</g>
<!-- Node15 -->
<g id="node15" class="node">
<title>Node15</title>
<g id="a_node15"><a xlink:href="a00260.html" target="_top" xlink:title=" ">
<polygon fill="white" stroke="black" points="1120,-212.5 1120,-253.5 1329,-253.5 1329,-212.5 1120,-212.5"/>
<text text-anchor="start" x="1128" y="-241.5" font-family="Helvetica,sans-Serif" font-size="10.00">/home/runner/work/Raytracer</text>
<text text-anchor="start" x="1128" y="-230.5" font-family="Helvetica,sans-Serif" font-size="10.00">/Raytracer/PluginsExt/Camera</text>
<text text-anchor="middle" x="1224.5" y="-219.5" font-family="Helvetica,sans-Serif" font-size="10.00">/FullCustom/CameraCustomCreator.hpp</text>
</a>
</g>
</g>
<!-- Node14&#45;&gt;Node15 -->
<g id="edge16" class="edge">
<title>Node14&#45;&gt;Node15</title>
<path fill="none" stroke="midnightblue" d="M1313.43,-285.2C1295.57,-274.92 1275.14,-263.16 1258.38,-253.51"/>
<polygon fill="midnightblue" stroke="midnightblue" points="1312.09,-288.47 1322.51,-290.43 1315.59,-282.41 1312.09,-288.47"/>
</g>
<!-- Node17&#45;&gt;Node18 -->
<g id="edge19" class="edge">
<title>Node17&#45;&gt;Node18</title>
<path fill="none" stroke="midnightblue" d="M276.15,-208.89C305.07,-198.22 339.02,-185.69 366.63,-175.51"/>
<polygon fill="midnightblue" stroke="midnightblue" points="274.72,-205.68 266.55,-212.43 277.14,-212.25 274.72,-205.68"/>
</g>
<!-- Node19 -->
<g id="node19" class="node">
<title>Node19</title>
<g id="a_node19"><a xlink:href="a00224.html" target="_top" xlink:title=" ">
<polygon fill="white" stroke="black" points="906,-67.5 906,-97.5 1113,-97.5 1113,-67.5 906,-67.5"/>
<text text-anchor="start" x="914" y="-85.5" font-family="Helvetica,sans-Serif" font-size="10.00">/home/runner/work/Raytracer</text>
<text text-anchor="middle" x="1009.5" y="-74.5" font-family="Helvetica,sans-Serif" font-size="10.00">/Raytracer/src/Scenes/SceneLoader.hpp</text>
</a>
</g>
</g>
<!-- Node18&#45;&gt;Node19 -->
<g id="edge20" class="edge">
<title>Node18&#45;&gt;Node19</title>
<path fill="none" stroke="midnightblue" d="M509.16,-143.29C615.82,-130.54 793.51,-109.31 905.93,-95.88"/>
<polygon fill="midnightblue" stroke="midnightblue" points="508.58,-139.83 499.07,-144.49 509.41,-146.78 508.58,-139.83"/>
</g>
<!-- Node19&#45;&gt;Node7 -->
<g id="edge21" class="edge">
<title>Node19&#45;&gt;Node7</title>
<path fill="none" stroke="midnightblue" d="M1031.01,-60.31C1040.91,-50.56 1052.39,-39.26 1061.21,-30.58"/>
<polygon fill="midnightblue" stroke="midnightblue" points="1028.49,-57.89 1023.82,-67.4 1033.4,-62.87 1028.49,-57.89"/>
</g>
<!-- Node20&#45;&gt;Node17 -->
<g id="edge23" class="edge">
<title>Node20&#45;&gt;Node17</title>
<path fill="none" stroke="midnightblue" d="M103.21,-360.75C129.88,-330.1 172.56,-281.05 196.24,-253.83"/>
<polygon fill="midnightblue" stroke="midnightblue" points="100.4,-358.65 96.47,-368.5 105.68,-363.25 100.4,-358.65"/>
</g>
<!-- Node22&#45;&gt;Node17 -->
<g id="edge26" class="edge">
<title>Node22&#45;&gt;Node17</title>
<path fill="none" stroke="midnightblue" d="M278.72,-284.06C265.68,-274.06 251.02,-262.8 238.91,-253.51"/>
<polygon fill="midnightblue" stroke="midnightblue" points="276.94,-287.11 287.01,-290.43 281.2,-281.56 276.94,-287.11"/>
</g>
<!-- Node22&#45;&gt;Node18 -->
<g id="edge27" class="edge">
<title>Node22&#45;&gt;Node18</title>
<path fill="none" stroke="midnightblue" d="M331.98,-281.96C353.31,-251.26 386.97,-202.82 405.72,-175.83"/>
<polygon fill="midnightblue" stroke="midnightblue" points="328.88,-280.29 326.05,-290.5 334.63,-284.28 328.88,-280.29"/>
</g>
<!-- Node23&#45;&gt;Node22 -->
<g id="edge30" class="edge">
<title>Node23&#45;&gt;Node22</title>
<path fill="none" stroke="midnightblue" d="M324.15,-358.59C321.88,-349.51 319.44,-339.74 317.38,-331.51"/>
<polygon fill="midnightblue" stroke="midnightblue" points="320.79,-359.58 326.61,-368.43 327.58,-357.88 320.79,-359.58"/>
</g>
<!-- Node23&#45;&gt;Node24 -->
<g id="edge31" class="edge">
<title>Node23&#45;&gt;Node24</title>
<path fill="none" stroke="midnightblue" d="M399.4,-365.17C431.31,-354.44 468.95,-341.78 499.5,-331.51"/>
<polygon fill="midnightblue" stroke="midnightblue" points="398.06,-361.92 389.7,-368.43 400.29,-368.56 398.06,-361.92"/>
</g>
<!-- Node25&#45;&gt;Node24 -->
<g id="edge34" class="edge">
<title>Node25&#45;&gt;Node24</title>
<path fill="none" stroke="midnightblue" d="M557.5,-358.3C557.5,-349.3 557.5,-339.65 557.5,-331.51"/>
<polygon fill="midnightblue" stroke="midnightblue" points="554,-358.43 557.5,-368.43 561,-358.43 554,-358.43"/>
</g>
</g>
</svg>
