<?xml version="1.0" encoding="UTF-8" standalone="no"?>
<!DOCTYPE svg PUBLIC "-//W3C//DTD SVG 1.1//EN"
 "http://www.w3.org/Graphics/SVG/1.1/DTD/svg11.dtd">
<!-- Generated by graphviz version 2.43.0 (0)
 -->
<!-- Title: /home/runner/work/Raytracer/Raytracer/src/Plugins/Entities/IEntityCreator.hpp Pages: 1 -->
<svg width="2972pt" height="351pt"
 viewBox="0.00 0.00 2971.50 351.00" xmlns="http://www.w3.org/2000/svg" xmlns:xlink="http://www.w3.org/1999/xlink">
<g id="graph0" class="graph" transform="scale(1 1) rotate(0) translate(4 347)">
<title>/home/runner/work/Raytracer/Raytracer/src/Plugins/Entities/IEntityCreator.hpp</title>
<polygon fill="white" stroke="transparent" points="-4,4 -4,-347 2967.5,-347 2967.5,4 -4,4"/>
<!-- Node1 -->
<g id="node1" class="node">
<title>Node1</title>
<g id="a_node1"><a xlink:title=" ">
<polygon fill="#bfbfbf" stroke="black" points="1440.5,-301.5 1440.5,-342.5 1602.5,-342.5 1602.5,-301.5 1440.5,-301.5"/>
<text text-anchor="start" x="1448.5" y="-330.5" font-family="Helvetica,sans-Serif" font-size="10.00">/home/runner/work/Raytracer</text>
<text text-anchor="start" x="1448.5" y="-319.5" font-family="Helvetica,sans-Serif" font-size="10.00">/Raytracer/src/Plugins/Entities</text>
<text text-anchor="middle" x="1521.5" y="-308.5" font-family="Helvetica,sans-Serif" font-size="10.00">/IEntityCreator.hpp</text>
</a>
</g>
</g>
<!-- Node2 -->
<g id="node2" class="node">
<title>Node2</title>
<g id="a_node2"><a xlink:href="a00155.html" target="_top" xlink:title=" ">
<polygon fill="white" stroke="black" points="82.5,-223.5 82.5,-264.5 244.5,-264.5 244.5,-223.5 82.5,-223.5"/>
<text text-anchor="start" x="90.5" y="-252.5" font-family="Helvetica,sans-Serif" font-size="10.00">/home/runner/work/Raytracer</text>
<text text-anchor="start" x="90.5" y="-241.5" font-family="Helvetica,sans-Serif" font-size="10.00">/Raytracer/src/Plugins/Entities</text>
<text text-anchor="middle" x="163.5" y="-230.5" font-family="Helvetica,sans-Serif" font-size="10.00">/EntityHandler.hpp</text>
</a>
</g>
</g>
<!-- Node1&#45;&gt;Node2 -->
<g id="edge1" class="edge">
<title>Node1&#45;&gt;Node2</title>
<path fill="none" stroke="midnightblue" d="M1430.28,-319.01C1179.3,-313.21 482.08,-294.81 254.5,-265 251.29,-264.58 248.03,-264.1 244.74,-263.58"/>
<polygon fill="midnightblue" stroke="midnightblue" points="1430.38,-322.51 1440.46,-319.24 1430.54,-315.51 1430.38,-322.51"/>
</g>
<!-- Node8 -->
<g id="node8" class="node">
<title>Node8</title>
<g id="a_node8"><a xlink:href="a00221.html" target="_top" xlink:title=" ">
<polygon fill="white" stroke="black" points="263,-223.5 263,-264.5 452,-264.5 452,-223.5 263,-223.5"/>
<text text-anchor="start" x="271" y="-252.5" font-family="Helvetica,sans-Serif" font-size="10.00">/home/runner/work/Raytracer</text>
<text text-anchor="start" x="271" y="-241.5" font-family="Helvetica,sans-Serif" font-size="10.00">/Raytracer/PluginsExt/AmbientLight</text>
<text text-anchor="middle" x="357.5" y="-230.5" font-family="Helvetica,sans-Serif" font-size="10.00">/AmbientLightCreator.hpp</text>
</a>
</g>
</g>
<!-- Node1&#45;&gt;Node8 -->
<g id="edge8" class="edge">
<title>Node1&#45;&gt;Node8</title>
<path fill="none" stroke="midnightblue" d="M1430.22,-320.39C1246.26,-318.22 818.1,-308.5 461.5,-265 458.4,-264.62 455.25,-264.21 452.07,-263.76"/>
<polygon fill="midnightblue" stroke="midnightblue" points="1430.35,-323.89 1440.39,-320.5 1430.43,-316.89 1430.35,-323.89"/>
</g>
<!-- Node9 -->
<g id="node9" class="node">
<title>Node9</title>
<g id="a_node9"><a xlink:href="a00233.html" target="_top" xlink:title=" ">
<polygon fill="white" stroke="black" points="470.5,-223.5 470.5,-264.5 632.5,-264.5 632.5,-223.5 470.5,-223.5"/>
<text text-anchor="start" x="478.5" y="-252.5" font-family="Helvetica,sans-Serif" font-size="10.00">/home/runner/work/Raytracer</text>
<text text-anchor="start" x="478.5" y="-241.5" font-family="Helvetica,sans-Serif" font-size="10.00">/Raytracer/PluginsExt/Camera</text>
<text text-anchor="middle" x="551.5" y="-230.5" font-family="Helvetica,sans-Serif" font-size="10.00">/Basic/CameraCreator.hpp</text>
</a>
</g>
</g>
<!-- Node1&#45;&gt;Node9 -->
<g id="edge9" class="edge">
<title>Node1&#45;&gt;Node9</title>
<path fill="none" stroke="midnightblue" d="M1430.09,-319.84C1269.68,-316.78 927.37,-305.61 641.5,-265 638.65,-264.59 635.75,-264.15 632.83,-263.67"/>
<polygon fill="midnightblue" stroke="midnightblue" points="1430.33,-323.35 1440.39,-320.03 1430.46,-316.35 1430.33,-323.35"/>
</g>
<!-- Node10 -->
<g id="node10" class="node">
<title>Node10</title>
<g id="a_node10"><a xlink:href="a00239.html" target="_top" xlink:title=" ">
<polygon fill="white" stroke="black" points="650.5,-223.5 650.5,-264.5 836.5,-264.5 836.5,-223.5 650.5,-223.5"/>
<text text-anchor="start" x="658.5" y="-252.5" font-family="Helvetica,sans-Serif" font-size="10.00">/home/runner/work/Raytracer</text>
<text text-anchor="start" x="658.5" y="-241.5" font-family="Helvetica,sans-Serif" font-size="10.00">/Raytracer/PluginsExt/Camera</text>
<text text-anchor="middle" x="743.5" y="-230.5" font-family="Helvetica,sans-Serif" font-size="10.00">/Cluster/CameraClusterCreator.hpp</text>
</a>
</g>
</g>
<!-- Node1&#45;&gt;Node10 -->
<g id="edge10" class="edge">
<title>Node1&#45;&gt;Node10</title>
<path fill="none" stroke="midnightblue" d="M1430.09,-316.58C1300,-309.58 1054.19,-293.69 846.5,-265 843.25,-264.55 839.95,-264.07 836.62,-263.55"/>
<polygon fill="midnightblue" stroke="midnightblue" points="1430.23,-320.1 1440.4,-317.13 1430.6,-313.11 1430.23,-320.1"/>
</g>
<!-- Node11 -->
<g id="node11" class="node">
<title>Node11</title>
<g id="a_node11"><a xlink:href="a00248.html" target="_top" xlink:title=" ">
<polygon fill="white" stroke="black" points="855,-223.5 855,-264.5 1064,-264.5 1064,-223.5 855,-223.5"/>
<text text-anchor="start" x="863" y="-252.5" font-family="Helvetica,sans-Serif" font-size="10.00">/home/runner/work/Raytracer</text>
<text text-anchor="start" x="863" y="-241.5" font-family="Helvetica,sans-Serif" font-size="10.00">/Raytracer/PluginsExt/Camera</text>
<text text-anchor="middle" x="959.5" y="-230.5" font-family="Helvetica,sans-Serif" font-size="10.00">/FullCustom/CameraCustomCreator.hpp</text>
</a>
</g>
</g>
<!-- Node1&#45;&gt;Node11 -->
<g id="edge11" class="edge">
<title>Node1&#45;&gt;Node11</title>
<path fill="none" stroke="midnightblue" d="M1430.43,-310.95C1339.79,-300.63 1196.78,-283.51 1073.5,-265 1070.42,-264.54 1067.29,-264.06 1064.14,-263.56"/>
<polygon fill="midnightblue" stroke="midnightblue" points="1430.07,-314.43 1440.4,-312.08 1430.86,-307.48 1430.07,-314.43"/>
</g>
<!-- Node12 -->
<g id="node12" class="node">
<title>Node12</title>
<g id="a_node12"><a xlink:href="a00257.html" target="_top" xlink:title=" ">
<polygon fill="white" stroke="black" points="1082,-223.5 1082,-264.5 1241,-264.5 1241,-223.5 1082,-223.5"/>
<text text-anchor="start" x="1090" y="-252.5" font-family="Helvetica,sans-Serif" font-size="10.00">/home/runner/work/Raytracer</text>
<text text-anchor="start" x="1090" y="-241.5" font-family="Helvetica,sans-Serif" font-size="10.00">/Raytracer/PluginsExt/Cone</text>
<text text-anchor="middle" x="1161.5" y="-230.5" font-family="Helvetica,sans-Serif" font-size="10.00">/ConeCreator.hpp</text>
</a>
</g>
</g>
<!-- Node1&#45;&gt;Node12 -->
<g id="edge12" class="edge">
<title>Node1&#45;&gt;Node12</title>
<path fill="none" stroke="midnightblue" d="M1430.5,-302.6C1377.87,-291.86 1310.39,-277.92 1250.5,-265 1247.4,-264.33 1244.25,-263.65 1241.06,-262.95"/>
<polygon fill="midnightblue" stroke="midnightblue" points="1429.99,-306.07 1440.49,-304.64 1431.39,-299.21 1429.99,-306.07"/>
</g>
<!-- Node13 -->
<g id="node13" class="node">
<title>Node13</title>
<g id="a_node13"><a xlink:href="a00263.html" target="_top" xlink:title=" ">
<polygon fill="white" stroke="black" points="1259.5,-223.5 1259.5,-264.5 1423.5,-264.5 1423.5,-223.5 1259.5,-223.5"/>
<text text-anchor="start" x="1267.5" y="-252.5" font-family="Helvetica,sans-Serif" font-size="10.00">/home/runner/work/Raytracer</text>
<text text-anchor="start" x="1267.5" y="-241.5" font-family="Helvetica,sans-Serif" font-size="10.00">/Raytracer/PluginsExt/Cylinder</text>
<text text-anchor="middle" x="1341.5" y="-230.5" font-family="Helvetica,sans-Serif" font-size="10.00">/CylinderCreator.hpp</text>
</a>
</g>
</g>
<!-- Node1&#45;&gt;Node13 -->
<g id="edge13" class="edge">
<title>Node1&#45;&gt;Node13</title>
<path fill="none" stroke="midnightblue" d="M1465.77,-297.47C1440.72,-286.89 1411.5,-274.56 1387.7,-264.51"/>
<polygon fill="midnightblue" stroke="midnightblue" points="1464.57,-300.76 1475.15,-301.43 1467.29,-294.31 1464.57,-300.76"/>
</g>
<!-- Node14 -->
<g id="node14" class="node">
<title>Node14</title>
<g id="a_node14"><a xlink:href="a00269.html" target="_top" xlink:title=" ">
<polygon fill="white" stroke="black" points="1442,-223.5 1442,-264.5 1601,-264.5 1601,-223.5 1442,-223.5"/>
<text text-anchor="start" x="1450" y="-252.5" font-family="Helvetica,sans-Serif" font-size="10.00">/home/runner/work/Raytracer</text>
<text text-anchor="start" x="1450" y="-241.5" font-family="Helvetica,sans-Serif" font-size="10.00">/Raytracer/PluginsExt/Disk</text>
<text text-anchor="middle" x="1521.5" y="-230.5" font-family="Helvetica,sans-Serif" font-size="10.00">/DiskCreator.hpp</text>
</a>
</g>
</g>
<!-- Node1&#45;&gt;Node14 -->
<g id="edge14" class="edge">
<title>Node1&#45;&gt;Node14</title>
<path fill="none" stroke="midnightblue" d="M1521.5,-291.3C1521.5,-282.3 1521.5,-272.65 1521.5,-264.51"/>
<polygon fill="midnightblue" stroke="midnightblue" points="1518,-291.43 1521.5,-301.43 1525,-291.43 1518,-291.43"/>
</g>
<!-- Node15 -->
<g id="node15" class="node">
<title>Node15</title>
<g id="a_node15"><a xlink:href="a00275.html" target="_top" xlink:title=" ">
<polygon fill="white" stroke="black" points="1619,-223.5 1619,-264.5 1804,-264.5 1804,-223.5 1619,-223.5"/>
<text text-anchor="start" x="1627" y="-252.5" font-family="Helvetica,sans-Serif" font-size="10.00">/home/runner/work/Raytracer</text>
<text text-anchor="start" x="1627" y="-241.5" font-family="Helvetica,sans-Serif" font-size="10.00">/Raytracer/PluginsExt/LimitedCone</text>
<text text-anchor="middle" x="1711.5" y="-230.5" font-family="Helvetica,sans-Serif" font-size="10.00">/LimitedConeCreator.hpp</text>
</a>
</g>
</g>
<!-- Node1&#45;&gt;Node15 -->
<g id="edge15" class="edge">
<title>Node1&#45;&gt;Node15</title>
<path fill="none" stroke="midnightblue" d="M1579.98,-297.61C1606.5,-287 1637.5,-274.6 1662.74,-264.51"/>
<polygon fill="midnightblue" stroke="midnightblue" points="1578.41,-294.46 1570.43,-301.43 1581.01,-300.96 1578.41,-294.46"/>
</g>
<!-- Node16 -->
<g id="node16" class="node">
<title>Node16</title>
<g id="a_node16"><a xlink:href="a00281.html" target="_top" xlink:title=" ">
<polygon fill="white" stroke="black" points="1822,-223.5 1822,-264.5 2023,-264.5 2023,-223.5 1822,-223.5"/>
<text text-anchor="start" x="1830" y="-252.5" font-family="Helvetica,sans-Serif" font-size="10.00">/home/runner/work/Raytracer</text>
<text text-anchor="start" x="1830" y="-241.5" font-family="Helvetica,sans-Serif" font-size="10.00">/Raytracer/PluginsExt/LimitedCylinder</text>
<text text-anchor="middle" x="1922.5" y="-230.5" font-family="Helvetica,sans-Serif" font-size="10.00">/LimitedCylinderCreator.hpp</text>
</a>
</g>
</g>
<!-- Node1&#45;&gt;Node16 -->
<g id="edge16" class="edge">
<title>Node1&#45;&gt;Node16</title>
<path fill="none" stroke="midnightblue" d="M1612.48,-303.76C1674.83,-291.94 1757.58,-276.26 1821.91,-264.07"/>
<polygon fill="midnightblue" stroke="midnightblue" points="1611.82,-300.32 1602.65,-305.62 1613.13,-307.2 1611.82,-300.32"/>
</g>
<!-- Node17 -->
<g id="node17" class="node">
<title>Node17</title>
<g id="a_node17"><a xlink:href="a00287.html" target="_top" xlink:title=" ">
<polygon fill="white" stroke="black" points="2041.5,-223.5 2041.5,-264.5 2229.5,-264.5 2229.5,-223.5 2041.5,-223.5"/>
<text text-anchor="start" x="2049.5" y="-252.5" font-family="Helvetica,sans-Serif" font-size="10.00">/home/runner/work/Raytracer</text>
<text text-anchor="start" x="2049.5" y="-241.5" font-family="Helvetica,sans-Serif" font-size="10.00">/Raytracer/PluginsExt/LimitedPlane</text>
<text text-anchor="middle" x="2135.5" y="-230.5" font-family="Helvetica,sans-Serif" font-size="10.00">/LimitedPlaneCreator.hpp</text>
</a>
</g>
</g>
<!-- Node1&#45;&gt;Node17 -->
<g id="edge17" class="edge">
<title>Node1&#45;&gt;Node17</title>
<path fill="none" stroke="midnightblue" d="M1612.75,-313.29C1715.2,-304.11 1886.26,-287.17 2032.5,-265 2035.38,-264.56 2038.31,-264.1 2041.25,-263.62"/>
<polygon fill="midnightblue" stroke="midnightblue" points="1612.4,-309.81 1602.75,-314.18 1613.02,-316.78 1612.4,-309.81"/>
</g>
<!-- Node18 -->
<g id="node18" class="node">
<title>Node18</title>
<g id="a_node18"><a xlink:href="a00299.html" target="_top" xlink:title=" ">
<polygon fill="white" stroke="black" points="2248,-223.5 2248,-264.5 2407,-264.5 2407,-223.5 2248,-223.5"/>
<text text-anchor="start" x="2256" y="-252.5" font-family="Helvetica,sans-Serif" font-size="10.00">/home/runner/work/Raytracer</text>
<text text-anchor="start" x="2256" y="-241.5" font-family="Helvetica,sans-Serif" font-size="10.00">/Raytracer/PluginsExt/Plane</text>
<text text-anchor="middle" x="2327.5" y="-230.5" font-family="Helvetica,sans-Serif" font-size="10.00">/PlaneCreator.hpp</text>
</a>
</g>
</g>
<!-- Node1&#45;&gt;Node18 -->
<g id="edge18" class="edge">
<title>Node1&#45;&gt;Node18</title>
<path fill="none" stroke="midnightblue" d="M1612.59,-318.06C1749.22,-312.71 2015.06,-298.65 2238.5,-265 2241.48,-264.55 2244.5,-264.06 2247.55,-263.53"/>
<polygon fill="midnightblue" stroke="midnightblue" points="1612.43,-314.56 1602.57,-318.45 1612.7,-321.56 1612.43,-314.56"/>
</g>
<!-- Node19 -->
<g id="node19" class="node">
<title>Node19</title>
<g id="a_node19"><a xlink:href="a00305.html" target="_top" xlink:title=" ">
<polygon fill="white" stroke="black" points="2425,-223.5 2425,-264.5 2598,-264.5 2598,-223.5 2425,-223.5"/>
<text text-anchor="start" x="2433" y="-252.5" font-family="Helvetica,sans-Serif" font-size="10.00">/home/runner/work/Raytracer</text>
<text text-anchor="start" x="2433" y="-241.5" font-family="Helvetica,sans-Serif" font-size="10.00">/Raytracer/PluginsExt/PointLight</text>
<text text-anchor="middle" x="2511.5" y="-230.5" font-family="Helvetica,sans-Serif" font-size="10.00">/PointLightCreator.hpp</text>
</a>
</g>
</g>
<!-- Node1&#45;&gt;Node19 -->
<g id="edge19" class="edge">
<title>Node1&#45;&gt;Node19</title>
<path fill="none" stroke="midnightblue" d="M1613.16,-319.64C1775.69,-316.26 2124.78,-304.62 2416.5,-265 2419.26,-264.63 2422.05,-264.22 2424.87,-263.78"/>
<polygon fill="midnightblue" stroke="midnightblue" points="1612.65,-316.15 1602.72,-319.85 1612.79,-323.15 1612.65,-316.15"/>
</g>
<!-- Node20 -->
<g id="node20" class="node">
<title>Node20</title>
<g id="a_node20"><a xlink:href="a00311.html" target="_top" xlink:title=" ">
<polygon fill="white" stroke="black" points="2616,-223.5 2616,-264.5 2775,-264.5 2775,-223.5 2616,-223.5"/>
<text text-anchor="start" x="2624" y="-252.5" font-family="Helvetica,sans-Serif" font-size="10.00">/home/runner/work/Raytracer</text>
<text text-anchor="start" x="2624" y="-241.5" font-family="Helvetica,sans-Serif" font-size="10.00">/Raytracer/PluginsExt/Sphere</text>
<text text-anchor="middle" x="2695.5" y="-230.5" font-family="Helvetica,sans-Serif" font-size="10.00">/SphereCreator.hpp</text>
</a>
</g>
</g>
<!-- Node1&#45;&gt;Node20 -->
<g id="edge20" class="edge">
<title>Node1&#45;&gt;Node20</title>
<path fill="none" stroke="midnightblue" d="M1612.75,-321.57C1800.11,-321.59 2241.38,-315.66 2607.5,-265 2610.29,-264.61 2613.13,-264.18 2615.99,-263.71"/>
<polygon fill="midnightblue" stroke="midnightblue" points="1612.67,-318.07 1602.67,-321.57 1612.67,-325.07 1612.67,-318.07"/>
</g>
<!-- Node21 -->
<g id="node21" class="node">
<title>Node21</title>
<g id="a_node21"><a xlink:href="a00317.html" target="_top" xlink:title=" ">
<polygon fill="white" stroke="black" points="2793.5,-223.5 2793.5,-264.5 2963.5,-264.5 2963.5,-223.5 2793.5,-223.5"/>
<text text-anchor="start" x="2801.5" y="-252.5" font-family="Helvetica,sans-Serif" font-size="10.00">/home/runner/work/Raytracer</text>
<text text-anchor="start" x="2801.5" y="-241.5" font-family="Helvetica,sans-Serif" font-size="10.00">/Raytracer/PluginsExt/SpotLight</text>
<text text-anchor="middle" x="2878.5" y="-230.5" font-family="Helvetica,sans-Serif" font-size="10.00">/SpotLightCreator.hpp</text>
</a>
</g>
</g>
<!-- Node1&#45;&gt;Node21 -->
<g id="edge21" class="edge">
<title>Node1&#45;&gt;Node21</title>
<path fill="none" stroke="midnightblue" d="M1612.87,-318.91C1863.4,-312.87 2557.68,-293.96 2784.5,-265 2787.4,-264.63 2790.34,-264.22 2793.3,-263.77"/>
<polygon fill="midnightblue" stroke="midnightblue" points="1612.62,-315.42 1602.71,-319.16 1612.79,-322.42 1612.62,-315.42"/>
</g>
<!-- Node3 -->
<g id="node3" class="node">
<title>Node3</title>
<g id="a_node3"><a xlink:href="a00095.html" target="_top" xlink:title=" ">
<polygon fill="white" stroke="black" points="138,-145.5 138,-186.5 297,-186.5 297,-145.5 138,-145.5"/>
<text text-anchor="start" x="146" y="-174.5" font-family="Helvetica,sans-Serif" font-size="10.00">/home/runner/work/Raytracer</text>
<text text-anchor="start" x="146" y="-163.5" font-family="Helvetica,sans-Serif" font-size="10.00">/Raytracer/src/Factories</text>
<text text-anchor="middle" x="217.5" y="-152.5" font-family="Helvetica,sans-Serif" font-size="10.00">/EntityFactory.hpp</text>
</a>
</g>
</g>
<!-- Node2&#45;&gt;Node3 -->
<g id="edge2" class="edge">
<title>Node2&#45;&gt;Node3</title>
<path fill="none" stroke="midnightblue" d="M183.36,-215.05C190.1,-205.57 197.47,-195.18 203.64,-186.51"/>
<polygon fill="midnightblue" stroke="midnightblue" points="180.35,-213.25 177.41,-223.43 186.05,-217.3 180.35,-213.25"/>
</g>
<!-- Node4 -->
<g id="node4" class="node">
<title>Node4</title>
<g id="a_node4"><a xlink:href="a00158.html" target="_top" xlink:title=" ">
<polygon fill="white" stroke="black" points="29.5,-67.5 29.5,-108.5 191.5,-108.5 191.5,-67.5 29.5,-67.5"/>
<text text-anchor="start" x="37.5" y="-96.5" font-family="Helvetica,sans-Serif" font-size="10.00">/home/runner/work/Raytracer</text>
<text text-anchor="start" x="37.5" y="-85.5" font-family="Helvetica,sans-Serif" font-size="10.00">/Raytracer/src/Plugins/Entities</text>
<text text-anchor="middle" x="110.5" y="-74.5" font-family="Helvetica,sans-Serif" font-size="10.00">/EntityLoader.hpp</text>
</a>
</g>
</g>
<!-- Node2&#45;&gt;Node4 -->
<g id="edge7" class="edge">
<title>Node2&#45;&gt;Node4</title>
<path fill="none" stroke="midnightblue" d="M143.77,-214.89C138.46,-206.26 133.18,-196.53 129.5,-187 119.45,-160.97 114.52,-128.92 112.25,-108.72"/>
<polygon fill="midnightblue" stroke="midnightblue" points="140.9,-216.89 149.24,-223.42 146.79,-213.11 140.9,-216.89"/>
</g>
<!-- Node3&#45;&gt;Node4 -->
<g id="edge3" class="edge">
<title>Node3&#45;&gt;Node4</title>
<path fill="none" stroke="midnightblue" d="M181.79,-139.64C167.5,-129.49 151.3,-117.98 137.96,-108.51"/>
<polygon fill="midnightblue" stroke="midnightblue" points="179.77,-142.49 189.94,-145.43 183.82,-136.78 179.77,-142.49"/>
</g>
<!-- Node6 -->
<g id="node6" class="node">
<title>Node6</title>
<g id="a_node6"><a xlink:href="a00209.html" target="_top" xlink:title=" ">
<polygon fill="white" stroke="black" points="213,-73 213,-103 388,-103 388,-73 213,-73"/>
<text text-anchor="start" x="221" y="-91" font-family="Helvetica,sans-Serif" font-size="10.00">/home/runner/work/Raytracer</text>
<text text-anchor="middle" x="300.5" y="-80" font-family="Helvetica,sans-Serif" font-size="10.00">/Raytracer/src/Scenes/Scene.hpp</text>
</a>
</g>
</g>
<!-- Node3&#45;&gt;Node6 -->
<g id="edge5" class="edge">
<title>Node3&#45;&gt;Node6</title>
<path fill="none" stroke="midnightblue" d="M246.27,-138.66C259.26,-126.76 274.1,-113.18 284.96,-103.23"/>
<polygon fill="midnightblue" stroke="midnightblue" points="243.89,-136.09 238.87,-145.43 248.61,-141.26 243.89,-136.09"/>
</g>
<!-- Node5 -->
<g id="node5" class="node">
<title>Node5</title>
<g id="a_node5"><a xlink:href="a00212.html" target="_top" xlink:title=" ">
<polygon fill="white" stroke="black" points="0,-0.5 0,-30.5 207,-30.5 207,-0.5 0,-0.5"/>
<text text-anchor="start" x="8" y="-18.5" font-family="Helvetica,sans-Serif" font-size="10.00">/home/runner/work/Raytracer</text>
<text text-anchor="middle" x="103.5" y="-7.5" font-family="Helvetica,sans-Serif" font-size="10.00">/Raytracer/src/Scenes/SceneLoader.hpp</text>
</a>
</g>
</g>
<!-- Node4&#45;&gt;Node5 -->
<g id="edge4" class="edge">
<title>Node4&#45;&gt;Node5</title>
<path fill="none" stroke="midnightblue" d="M107.56,-57.38C106.65,-48.21 105.69,-38.53 104.93,-30.89"/>
<polygon fill="midnightblue" stroke="midnightblue" points="104.08,-57.76 108.55,-67.36 111.04,-57.06 104.08,-57.76"/>
</g>
<!-- Node7 -->
<g id="node7" class="node">
<title>Node7</title>
<g id="a_node7"><a xlink:href="a00146.html" target="_top" xlink:title=" ">
<polygon fill="white" stroke="black" points="225,-0.5 225,-30.5 384,-30.5 384,-0.5 225,-0.5"/>
<text text-anchor="start" x="233" y="-18.5" font-family="Helvetica,sans-Serif" font-size="10.00">/home/runner/work/Raytracer</text>
<text text-anchor="middle" x="304.5" y="-7.5" font-family="Helvetica,sans-Serif" font-size="10.00">/Raytracer/src/Main.hpp</text>
</a>
</g>
</g>
<!-- Node6&#45;&gt;Node7 -->
<g id="edge6" class="edge">
<title>Node6&#45;&gt;Node7</title>
<path fill="none" stroke="midnightblue" d="M301.88,-62.73C302.48,-52.07 303.17,-39.91 303.69,-30.75"/>
<polygon fill="midnightblue" stroke="midnightblue" points="298.38,-62.55 301.31,-72.73 305.37,-62.95 298.38,-62.55"/>
</g>
</g>
</svg>
