<?xml version="1.0" encoding="UTF-8" standalone="no"?>
<!DOCTYPE svg PUBLIC "-//W3C//DTD SVG 1.1//EN"
 "http://www.w3.org/Graphics/SVG/1.1/DTD/svg11.dtd">
<!-- Generated by graphviz version 2.43.0 (0)
 -->
<!-- Title: /home/runner/work/Raytracer/Raytracer/src/Plugins/Entities/EntityLoader.hpp Pages: 1 -->
<svg width="1156pt" height="498pt"
 viewBox="0.00 0.00 1155.56 498.00" xmlns="http://www.w3.org/2000/svg" xmlns:xlink="http://www.w3.org/1999/xlink">
<g id="graph0" class="graph" transform="scale(1 1) rotate(0) translate(4 494)">
<title>/home/runner/work/Raytracer/Raytracer/src/Plugins/Entities/EntityLoader.hpp</title>
<polygon fill="white" stroke="transparent" points="-4,4 -4,-494 1151.56,-494 1151.56,4 -4,4"/>
<!-- Node1 -->
<g id="node1" class="node">
<title>Node1</title>
<g id="a_node1"><a xlink:title=" ">
<polygon fill="#bfbfbf" stroke="black" points="327.06,-448.5 327.06,-489.5 489.06,-489.5 489.06,-448.5 327.06,-448.5"/>
<text text-anchor="start" x="335.06" y="-477.5" font-family="Helvetica,sans-Serif" font-size="10.00">/home/runner/work/Raytracer</text>
<text text-anchor="start" x="335.06" y="-466.5" font-family="Helvetica,sans-Serif" font-size="10.00">/Raytracer/src/Plugins/Entities</text>
<text text-anchor="middle" x="408.06" y="-455.5" font-family="Helvetica,sans-Serif" font-size="10.00">/EntityLoader.hpp</text>
</a>
</g>
</g>
<!-- Node2 -->
<g id="node2" class="node">
<title>Node2</title>
<g id="a_node2"><a xlink:title=" ">
<polygon fill="white" stroke="#bfbfbf" points="262.06,-168.5 262.06,-187.5 306.06,-187.5 306.06,-168.5 262.06,-168.5"/>
<text text-anchor="middle" x="284.06" y="-175.5" font-family="Helvetica,sans-Serif" font-size="10.00">string</text>
</a>
</g>
</g>
<!-- Node1&#45;&gt;Node2 -->
<g id="edge1" class="edge">
<title>Node1&#45;&gt;Node2</title>
<path fill="none" stroke="midnightblue" d="M390.37,-448.29C358.9,-411.45 295.26,-328.19 282.06,-244 279.65,-228.64 280.41,-211.01 281.63,-197.98"/>
<polygon fill="midnightblue" stroke="midnightblue" points="285.13,-198.22 282.75,-187.9 278.17,-197.45 285.13,-198.22"/>
</g>
<!-- Node3 -->
<g id="node3" class="node">
<title>Node3</title>
<g id="a_node3"><a xlink:href="a00125.html" target="_top" xlink:title=" ">
<polygon fill="white" stroke="black" points="152.56,-280.5 152.56,-299.5 229.56,-299.5 229.56,-280.5 152.56,-280.5"/>
<text text-anchor="middle" x="191.06" y="-287.5" font-family="Helvetica,sans-Serif" font-size="10.00">TFactory.hpp</text>
</a>
</g>
</g>
<!-- Node1&#45;&gt;Node3 -->
<g id="edge2" class="edge">
<title>Node1&#45;&gt;Node3</title>
<path fill="none" stroke="midnightblue" d="M326.99,-453.04C299.41,-444.69 270.03,-431.8 248.06,-412 217.12,-384.11 201.55,-335.9 195.01,-309.54"/>
<polygon fill="midnightblue" stroke="midnightblue" points="198.4,-308.65 192.74,-299.7 191.58,-310.23 198.4,-308.65"/>
</g>
<!-- Node10 -->
<g id="node10" class="node">
<title>Node10</title>
<g id="a_node10"><a xlink:href="a00083.html" target="_top" xlink:title=" ">
<polygon fill="white" stroke="black" points="1006.06,-224.5 1006.06,-243.5 1074.06,-243.5 1074.06,-224.5 1006.06,-224.5"/>
<text text-anchor="middle" x="1040.06" y="-231.5" font-family="Helvetica,sans-Serif" font-size="10.00">IEntity.hpp</text>
</a>
</g>
</g>
<!-- Node1&#45;&gt;Node10 -->
<g id="edge12" class="edge">
<title>Node1&#45;&gt;Node10</title>
<path fill="none" stroke="midnightblue" d="M489.07,-453.47C585.93,-435.13 752.34,-400.52 891.06,-356 952.91,-336.15 984.47,-349.9 1026.06,-300 1036.79,-287.13 1039.85,-267.95 1040.49,-253.76"/>
<polygon fill="midnightblue" stroke="midnightblue" points="1043.99,-253.69 1040.59,-243.66 1036.99,-253.63 1043.99,-253.69"/>
</g>
<!-- Node14 -->
<g id="node14" class="node">
<title>Node14</title>
<g id="a_node14"><a xlink:href="a00197.html" target="_top" xlink:title=" ">
<polygon fill="white" stroke="black" points="58.06,-336.5 58.06,-355.5 158.06,-355.5 158.06,-336.5 58.06,-336.5"/>
<text text-anchor="middle" x="108.06" y="-343.5" font-family="Helvetica,sans-Serif" font-size="10.00">PluginLoader.hpp</text>
</a>
</g>
</g>
<!-- Node1&#45;&gt;Node14 -->
<g id="edge17" class="edge">
<title>Node1&#45;&gt;Node14</title>
<path fill="none" stroke="midnightblue" d="M326.94,-460.1C279.41,-452.78 219.57,-438.77 172.06,-412 150.81,-400.03 131.96,-378.93 120.32,-364.02"/>
<polygon fill="midnightblue" stroke="midnightblue" points="122.85,-361.57 114.04,-355.68 117.26,-365.77 122.85,-361.57"/>
</g>
<!-- Node16 -->
<g id="node16" class="node">
<title>Node16</title>
<g id="a_node16"><a xlink:href="a00167.html" target="_top" xlink:title=" ">
<polygon fill="white" stroke="black" points="579.06,-336.5 579.06,-355.5 683.06,-355.5 683.06,-336.5 579.06,-336.5"/>
<text text-anchor="middle" x="631.06" y="-343.5" font-family="Helvetica,sans-Serif" font-size="10.00">EntityHandler.hpp</text>
</a>
</g>
</g>
<!-- Node1&#45;&gt;Node16 -->
<g id="edge22" class="edge">
<title>Node1&#45;&gt;Node16</title>
<path fill="none" stroke="midnightblue" d="M489.35,-452.47C520,-443.95 553.97,-431.1 581.06,-412 598.46,-399.74 612.59,-379.63 621.33,-365.02"/>
<polygon fill="midnightblue" stroke="midnightblue" points="624.59,-366.37 626.5,-355.95 618.51,-362.91 624.59,-366.37"/>
</g>
<!-- Node21 -->
<g id="node21" class="node">
<title>Node21</title>
<g id="a_node21"><a xlink:href="a00107.html" target="_top" xlink:title=" ">
<polygon fill="white" stroke="black" points="472.06,-392.5 472.06,-411.5 572.06,-411.5 572.06,-392.5 472.06,-392.5"/>
<text text-anchor="middle" x="522.06" y="-399.5" font-family="Helvetica,sans-Serif" font-size="10.00">EntityFactory.hpp</text>
</a>
</g>
</g>
<!-- Node1&#45;&gt;Node21 -->
<g id="edge41" class="edge">
<title>Node1&#45;&gt;Node21</title>
<path fill="none" stroke="midnightblue" d="M442.26,-448.5C460.25,-438.24 481.85,-425.93 498.05,-416.69"/>
<polygon fill="midnightblue" stroke="midnightblue" points="499.93,-419.65 506.88,-411.65 496.46,-413.57 499.93,-419.65"/>
</g>
<!-- Node3&#45;&gt;Node2 -->
<g id="edge3" class="edge">
<title>Node3&#45;&gt;Node2</title>
<path fill="none" stroke="midnightblue" d="M197.81,-280.49C207.77,-267.98 227.07,-243.96 244.06,-224 252.29,-214.33 261.72,-203.7 269.36,-195.2"/>
<polygon fill="midnightblue" stroke="midnightblue" points="272.18,-197.3 276.28,-187.53 266.98,-192.61 272.18,-197.3"/>
</g>
<!-- Node4 -->
<g id="node4" class="node">
<title>Node4</title>
<g id="a_node4"><a xlink:title=" ">
<polygon fill="white" stroke="#bfbfbf" points="419.06,-0.5 419.06,-19.5 477.06,-19.5 477.06,-0.5 419.06,-0.5"/>
<text text-anchor="middle" x="448.06" y="-7.5" font-family="Helvetica,sans-Serif" font-size="10.00">memory</text>
</a>
</g>
</g>
<!-- Node3&#45;&gt;Node4 -->
<g id="edge4" class="edge">
<title>Node3&#45;&gt;Node4</title>
<path fill="none" stroke="midnightblue" d="M172.77,-280.35C142.69,-264.69 86.06,-228.63 86.06,-179 86.06,-179 86.06,-179 86.06,-121 86.06,-54.12 315.15,-24.03 408.84,-14.53"/>
<polygon fill="midnightblue" stroke="midnightblue" points="409.44,-17.99 419.05,-13.52 408.75,-11.02 409.44,-17.99"/>
</g>
<!-- Node5 -->
<g id="node5" class="node">
<title>Node5</title>
<g id="a_node5"><a xlink:title=" ">
<polygon fill="white" stroke="#bfbfbf" points="154.06,-224.5 154.06,-243.5 192.06,-243.5 192.06,-224.5 154.06,-224.5"/>
<text text-anchor="middle" x="173.06" y="-231.5" font-family="Helvetica,sans-Serif" font-size="10.00">map</text>
</a>
</g>
</g>
<!-- Node3&#45;&gt;Node5 -->
<g id="edge5" class="edge">
<title>Node3&#45;&gt;Node5</title>
<path fill="none" stroke="midnightblue" d="M188.09,-280.08C185.68,-272.85 182.2,-262.41 179.19,-253.4"/>
<polygon fill="midnightblue" stroke="midnightblue" points="182.46,-252.13 175.98,-243.75 175.82,-254.34 182.46,-252.13"/>
</g>
<!-- Node6 -->
<g id="node6" class="node">
<title>Node6</title>
<g id="a_node6"><a xlink:href="a00131.html" target="_top" xlink:title=" ">
<polygon fill="white" stroke="black" points="514.56,-224.5 514.56,-243.5 587.56,-243.5 587.56,-224.5 514.56,-224.5"/>
<text text-anchor="middle" x="551.06" y="-231.5" font-family="Helvetica,sans-Serif" font-size="10.00">ILogger.hpp</text>
</a>
</g>
</g>
<!-- Node3&#45;&gt;Node6 -->
<g id="edge6" class="edge">
<title>Node3&#45;&gt;Node6</title>
<path fill="none" stroke="midnightblue" d="M229.59,-283.22C296.15,-273.24 432.43,-252.79 504.3,-242.01"/>
<polygon fill="midnightblue" stroke="midnightblue" points="505.05,-245.44 514.42,-240.5 504.02,-238.52 505.05,-245.44"/>
</g>
<!-- Node8 -->
<g id="node8" class="node">
<title>Node8</title>
<g id="a_node8"><a xlink:href="a00218.html" target="_top" xlink:title=" ">
<polygon fill="white" stroke="black" points="892.56,-56.5 892.56,-75.5 967.56,-75.5 967.56,-56.5 892.56,-56.5"/>
<text text-anchor="middle" x="930.06" y="-63.5" font-family="Helvetica,sans-Serif" font-size="10.00">ISetting.hpp</text>
</a>
</g>
</g>
<!-- Node3&#45;&gt;Node8 -->
<g id="edge9" class="edge">
<title>Node3&#45;&gt;Node8</title>
<path fill="none" stroke="midnightblue" d="M207.35,-280.32C262.48,-251.37 447.74,-157.35 612.06,-112 705.74,-86.14 819.27,-74.64 882.19,-69.92"/>
<polygon fill="midnightblue" stroke="midnightblue" points="882.49,-73.41 892.22,-69.2 881.99,-66.43 882.49,-73.41"/>
</g>
<!-- Node6&#45;&gt;Node2 -->
<g id="edge8" class="edge">
<title>Node6&#45;&gt;Node2</title>
<path fill="none" stroke="midnightblue" d="M514.49,-225.6C461.96,-214.98 365.97,-195.57 316.08,-185.48"/>
<polygon fill="midnightblue" stroke="midnightblue" points="316.67,-182.02 306.17,-183.47 315.28,-188.88 316.67,-182.02"/>
</g>
<!-- Node7 -->
<g id="node7" class="node">
<title>Node7</title>
<g id="a_node7"><a xlink:title=" ">
<polygon fill="white" stroke="#bfbfbf" points="557.56,-168.5 557.56,-187.5 622.56,-187.5 622.56,-168.5 557.56,-168.5"/>
<text text-anchor="middle" x="590.06" y="-175.5" font-family="Helvetica,sans-Serif" font-size="10.00">functional</text>
</a>
</g>
</g>
<!-- Node6&#45;&gt;Node7 -->
<g id="edge7" class="edge">
<title>Node6&#45;&gt;Node7</title>
<path fill="none" stroke="midnightblue" d="M557.5,-224.08C563.01,-216.46 571.09,-205.26 577.82,-195.94"/>
<polygon fill="midnightblue" stroke="midnightblue" points="580.72,-197.91 583.74,-187.75 575.05,-193.81 580.72,-197.91"/>
</g>
<!-- Node8&#45;&gt;Node4 -->
<g id="edge10" class="edge">
<title>Node8&#45;&gt;Node4</title>
<path fill="none" stroke="midnightblue" d="M892.33,-58.16C887.54,-57.39 882.69,-56.64 878.06,-56 734.44,-36.08 562.74,-20.6 487.1,-14.2"/>
<polygon fill="midnightblue" stroke="midnightblue" points="487.34,-10.71 477.08,-13.36 486.75,-17.69 487.34,-10.71"/>
</g>
<!-- Node9 -->
<g id="node9" class="node">
<title>Node9</title>
<g id="a_node9"><a xlink:title=" ">
<polygon fill="white" stroke="#bfbfbf" points="888.56,-0.5 888.56,-19.5 971.56,-19.5 971.56,-0.5 888.56,-0.5"/>
<text text-anchor="middle" x="930.06" y="-7.5" font-family="Helvetica,sans-Serif" font-size="10.00">libconfig.h++</text>
</a>
</g>
</g>
<!-- Node8&#45;&gt;Node9 -->
<g id="edge11" class="edge">
<title>Node8&#45;&gt;Node9</title>
<path fill="none" stroke="midnightblue" d="M930.06,-56.08C930.06,-49.01 930.06,-38.86 930.06,-29.99"/>
<polygon fill="midnightblue" stroke="midnightblue" points="933.56,-29.75 930.06,-19.75 926.56,-29.75 933.56,-29.75"/>
</g>
<!-- Node11 -->
<g id="node11" class="node">
<title>Node11</title>
<g id="a_node11"><a xlink:href="a00095.html" target="_top" xlink:title=" ">
<polygon fill="white" stroke="black" points="1006.56,-168.5 1006.56,-187.5 1147.56,-187.5 1147.56,-168.5 1006.56,-168.5"/>
<text text-anchor="middle" x="1077.06" y="-175.5" font-family="Helvetica,sans-Serif" font-size="10.00">Transform/ITransform.hpp</text>
</a>
</g>
</g>
<!-- Node10&#45;&gt;Node11 -->
<g id="edge13" class="edge">
<title>Node10&#45;&gt;Node11</title>
<path fill="none" stroke="midnightblue" d="M1046.17,-224.08C1051.34,-216.53 1058.91,-205.49 1065.25,-196.23"/>
<polygon fill="midnightblue" stroke="midnightblue" points="1068.3,-197.98 1071.06,-187.75 1062.52,-194.02 1068.3,-197.98"/>
</g>
<!-- Node12 -->
<g id="node12" class="node">
<title>Node12</title>
<g id="a_node12"><a xlink:href="a00104.html" target="_top" xlink:title=" ">
<polygon fill="white" stroke="black" points="1022.56,-112.5 1022.56,-131.5 1099.56,-131.5 1099.56,-112.5 1022.56,-112.5"/>
<text text-anchor="middle" x="1061.06" y="-119.5" font-family="Helvetica,sans-Serif" font-size="10.00">Vector3f.hpp</text>
</a>
</g>
</g>
<!-- Node11&#45;&gt;Node12 -->
<g id="edge14" class="edge">
<title>Node11&#45;&gt;Node12</title>
<path fill="none" stroke="midnightblue" d="M1074.42,-168.08C1072.27,-160.85 1069.18,-150.41 1066.51,-141.4"/>
<polygon fill="midnightblue" stroke="midnightblue" points="1069.85,-140.34 1063.65,-131.75 1063.14,-142.33 1069.85,-140.34"/>
</g>
<!-- Node12&#45;&gt;Node8 -->
<g id="edge16" class="edge">
<title>Node12&#45;&gt;Node8</title>
<path fill="none" stroke="midnightblue" d="M1040.3,-112.44C1018.74,-103.56 984.8,-89.56 960.27,-79.45"/>
<polygon fill="midnightblue" stroke="midnightblue" points="961.3,-76.09 950.72,-75.52 958.63,-82.56 961.3,-76.09"/>
</g>
<!-- Node13 -->
<g id="node13" class="node">
<title>Node13</title>
<g id="a_node13"><a xlink:title=" ">
<polygon fill="white" stroke="#bfbfbf" points="1032.56,-56.5 1032.56,-75.5 1089.56,-75.5 1089.56,-56.5 1032.56,-56.5"/>
<text text-anchor="middle" x="1061.06" y="-63.5" font-family="Helvetica,sans-Serif" font-size="10.00">ostream</text>
</a>
</g>
</g>
<!-- Node12&#45;&gt;Node13 -->
<g id="edge15" class="edge">
<title>Node12&#45;&gt;Node13</title>
<path fill="none" stroke="midnightblue" d="M1061.06,-112.08C1061.06,-105.01 1061.06,-94.86 1061.06,-85.99"/>
<polygon fill="midnightblue" stroke="midnightblue" points="1064.56,-85.75 1061.06,-75.75 1057.56,-85.75 1064.56,-85.75"/>
</g>
<!-- Node14&#45;&gt;Node2 -->
<g id="edge18" class="edge">
<title>Node14&#45;&gt;Node2</title>
<path fill="none" stroke="midnightblue" d="M108.12,-336.33C108.75,-314.38 113.48,-256.1 145.06,-224 173.51,-195.08 220.66,-184.73 252.04,-181.04"/>
<polygon fill="midnightblue" stroke="midnightblue" points="252.44,-184.52 262.03,-180.02 251.73,-177.55 252.44,-184.52"/>
</g>
<!-- Node14&#45;&gt;Node3 -->
<g id="edge19" class="edge">
<title>Node14&#45;&gt;Node3</title>
<path fill="none" stroke="midnightblue" d="M121.4,-336.32C134.22,-327.98 153.84,-315.21 169,-305.35"/>
<polygon fill="midnightblue" stroke="midnightblue" points="171.28,-308.04 177.76,-299.65 167.47,-302.17 171.28,-308.04"/>
</g>
<!-- Node14&#45;&gt;Node4 -->
<g id="edge21" class="edge">
<title>Node14&#45;&gt;Node4</title>
<path fill="none" stroke="midnightblue" d="M77.22,-336.39C57.93,-329.51 34,-317.97 19.06,-300 -0.18,-276.85 0.06,-265.1 0.06,-235 0.06,-235 0.06,-235 0.06,-121 0.06,-37.2 299.46,-16.9 408.74,-12.28"/>
<polygon fill="midnightblue" stroke="midnightblue" points="409.16,-15.77 419.01,-11.87 408.88,-8.77 409.16,-15.77"/>
</g>
<!-- Node15 -->
<g id="node15" class="node">
<title>Node15</title>
<g id="a_node15"><a xlink:title=" ">
<polygon fill="white" stroke="#bfbfbf" points="28.06,-280.5 28.06,-299.5 96.06,-299.5 96.06,-280.5 28.06,-280.5"/>
<text text-anchor="middle" x="62.06" y="-287.5" font-family="Helvetica,sans-Serif" font-size="10.00">filesystem</text>
</a>
</g>
</g>
<!-- Node14&#45;&gt;Node15 -->
<g id="edge20" class="edge">
<title>Node14&#45;&gt;Node15</title>
<path fill="none" stroke="midnightblue" d="M100.46,-336.08C93.83,-328.3 84.04,-316.8 76,-307.37"/>
<polygon fill="midnightblue" stroke="midnightblue" points="78.66,-305.09 69.51,-299.75 73.33,-309.63 78.66,-305.09"/>
</g>
<!-- Node16&#45;&gt;Node2 -->
<g id="edge24" class="edge">
<title>Node16&#45;&gt;Node2</title>
<path fill="none" stroke="midnightblue" d="M578.83,-344.07C500.52,-341.61 357.83,-332.64 320.06,-300 290.17,-274.17 284.52,-224.73 283.8,-197.73"/>
<polygon fill="midnightblue" stroke="midnightblue" points="287.3,-197.64 283.73,-187.67 280.3,-197.69 287.3,-197.64"/>
</g>
<!-- Node16&#45;&gt;Node4 -->
<g id="edge23" class="edge">
<title>Node16&#45;&gt;Node4</title>
<path fill="none" stroke="midnightblue" d="M578.94,-341.64C532.83,-337.01 464.73,-326.02 411.06,-300 370.76,-280.46 334.06,-279.79 334.06,-235 334.06,-235 334.06,-235 334.06,-121 334.06,-74.11 384.61,-40.89 418.39,-23.93"/>
<polygon fill="midnightblue" stroke="midnightblue" points="419.93,-27.07 427.42,-19.58 416.89,-20.77 419.93,-27.07"/>
</g>
<!-- Node16&#45;&gt;Node6 -->
<g id="edge31" class="edge">
<title>Node16&#45;&gt;Node6</title>
<path fill="none" stroke="midnightblue" d="M624.78,-336.37C611.58,-318.22 580.73,-275.8 563.42,-251.99"/>
<polygon fill="midnightblue" stroke="midnightblue" points="566.02,-249.62 557.31,-243.59 560.36,-253.74 566.02,-249.62"/>
</g>
<!-- Node16&#45;&gt;Node8 -->
<g id="edge40" class="edge">
<title>Node16&#45;&gt;Node8</title>
<path fill="none" stroke="midnightblue" d="M683.26,-343.97C758.25,-341.36 891.19,-332.2 925.06,-300 986.15,-241.93 967.56,-194.45 950.06,-112 948.06,-102.59 943.96,-92.76 939.99,-84.7"/>
<polygon fill="midnightblue" stroke="midnightblue" points="942.95,-82.81 935.19,-75.59 936.75,-86.07 942.95,-82.81"/>
</g>
<!-- Node16&#45;&gt;Node10 -->
<g id="edge25" class="edge">
<title>Node16&#45;&gt;Node10</title>
<path fill="none" stroke="midnightblue" d="M683.06,-342.49C766.89,-337.75 927.6,-325.57 978.06,-300 999.72,-289.03 1017.96,-267.36 1028.94,-252.06"/>
<polygon fill="midnightblue" stroke="midnightblue" points="1032.03,-253.74 1034.8,-243.52 1026.26,-249.79 1032.03,-253.74"/>
</g>
<!-- Node17 -->
<g id="node17" class="node">
<title>Node17</title>
<g id="a_node17"><a xlink:href="a00173.html" target="_top" xlink:title=" ">
<polygon fill="white" stroke="black" points="812.06,-280.5 812.06,-299.5 916.06,-299.5 916.06,-280.5 812.06,-280.5"/>
<text text-anchor="middle" x="864.06" y="-287.5" font-family="Helvetica,sans-Serif" font-size="10.00">IEntityCreator.hpp</text>
</a>
</g>
</g>
<!-- Node16&#45;&gt;Node17 -->
<g id="edge26" class="edge">
<title>Node16&#45;&gt;Node17</title>
<path fill="none" stroke="midnightblue" d="M667.98,-336.44C708.46,-327.06 773.48,-311.99 817.44,-301.8"/>
<polygon fill="midnightblue" stroke="midnightblue" points="818.36,-305.18 827.31,-299.52 816.78,-298.36 818.36,-305.18"/>
</g>
<!-- Node18 -->
<g id="node18" class="node">
<title>Node18</title>
<g id="a_node18"><a xlink:href="a00194.html" target="_top" xlink:title=" ">
<polygon fill="white" stroke="black" points="636.56,-280.5 636.56,-299.5 741.56,-299.5 741.56,-280.5 636.56,-280.5"/>
<text text-anchor="middle" x="689.06" y="-287.5" font-family="Helvetica,sans-Serif" font-size="10.00">PluginHandler.hpp</text>
</a>
</g>
</g>
<!-- Node16&#45;&gt;Node18 -->
<g id="edge32" class="edge">
<title>Node16&#45;&gt;Node18</title>
<path fill="none" stroke="midnightblue" d="M640.38,-336.32C648.95,-328.34 661.87,-316.31 672.25,-306.65"/>
<polygon fill="midnightblue" stroke="midnightblue" points="674.64,-309.21 679.57,-299.83 669.87,-304.09 674.64,-309.21"/>
</g>
<!-- Node17&#45;&gt;Node4 -->
<g id="edge27" class="edge">
<title>Node17&#45;&gt;Node4</title>
<path fill="none" stroke="midnightblue" d="M864.06,-280.44C864.06,-261.94 864.06,-216.81 864.06,-179 864.06,-179 864.06,-179 864.06,-121 864.06,-43.54 591.08,-19.39 487.38,-13.01"/>
<polygon fill="midnightblue" stroke="midnightblue" points="487.5,-9.52 477.31,-12.42 487.09,-16.5 487.5,-9.52"/>
</g>
<!-- Node17&#45;&gt;Node6 -->
<g id="edge29" class="edge">
<title>Node17&#45;&gt;Node6</title>
<path fill="none" stroke="midnightblue" d="M814.46,-280.44C754.95,-270.18 655.92,-253.09 597.73,-243.05"/>
<polygon fill="midnightblue" stroke="midnightblue" points="598.16,-239.57 587.71,-241.32 596.97,-246.47 598.16,-239.57"/>
</g>
<!-- Node17&#45;&gt;Node8 -->
<g id="edge30" class="edge">
<title>Node17&#45;&gt;Node8</title>
<path fill="none" stroke="midnightblue" d="M879.27,-280.46C891.51,-272.68 907.98,-259.98 916.06,-244 942.44,-191.83 937.42,-119.82 933.04,-86"/>
<polygon fill="midnightblue" stroke="midnightblue" points="936.45,-85.13 931.57,-75.72 929.52,-86.12 936.45,-85.13"/>
</g>
<!-- Node17&#45;&gt;Node10 -->
<g id="edge28" class="edge">
<title>Node17&#45;&gt;Node10</title>
<path fill="none" stroke="midnightblue" d="M891.95,-280.44C921.81,-271.28 969.37,-256.69 1002.52,-246.52"/>
<polygon fill="midnightblue" stroke="midnightblue" points="1003.77,-249.8 1012.3,-243.52 1001.72,-243.1 1003.77,-249.8"/>
</g>
<!-- Node18&#45;&gt;Node2 -->
<g id="edge33" class="edge">
<title>Node18&#45;&gt;Node2</title>
<path fill="none" stroke="midnightblue" d="M679.77,-280.1C664.11,-265.67 630.85,-237.46 597.06,-224 500.07,-185.38 374.46,-179.3 316.27,-178.73"/>
<polygon fill="midnightblue" stroke="midnightblue" points="316.23,-175.23 306.21,-178.69 316.2,-182.23 316.23,-175.23"/>
</g>
<!-- Node18&#45;&gt;Node4 -->
<g id="edge34" class="edge">
<title>Node18&#45;&gt;Node4</title>
<path fill="none" stroke="midnightblue" d="M685.49,-280.21C675.46,-255.73 646.79,-187.28 632.06,-168 584.36,-105.55 508.07,-50.51 470.48,-25.41"/>
<polygon fill="midnightblue" stroke="midnightblue" points="472.08,-22.27 461.8,-19.69 468.22,-28.12 472.08,-22.27"/>
</g>
<!-- Node18&#45;&gt;Node6 -->
<g id="edge38" class="edge">
<title>Node18&#45;&gt;Node6</title>
<path fill="none" stroke="midnightblue" d="M667.19,-280.44C644.28,-271.48 608.08,-257.31 582.19,-247.18"/>
<polygon fill="midnightblue" stroke="midnightblue" points="583.41,-243.9 572.82,-243.52 580.86,-250.42 583.41,-243.9"/>
</g>
<!-- Node18&#45;&gt;Node7 -->
<g id="edge37" class="edge">
<title>Node18&#45;&gt;Node7</title>
<path fill="none" stroke="midnightblue" d="M737.16,-280.5C779.33,-270.93 830.53,-252.84 807.06,-224 785.51,-197.52 689.57,-186.13 632.72,-181.63"/>
<polygon fill="midnightblue" stroke="midnightblue" points="632.82,-178.13 622.59,-180.87 632.3,-185.11 632.82,-178.13"/>
</g>
<!-- Node18&#45;&gt;Node8 -->
<g id="edge39" class="edge">
<title>Node18&#45;&gt;Node8</title>
<path fill="none" stroke="midnightblue" d="M740.91,-280.47C767.65,-274 799.5,-262.87 823.06,-244 877.4,-200.45 910.82,-121.3 923.82,-85.49"/>
<polygon fill="midnightblue" stroke="midnightblue" points="927.2,-86.44 927.21,-75.85 920.59,-84.13 927.2,-86.44"/>
</g>
<!-- Node19 -->
<g id="node19" class="node">
<title>Node19</title>
<g id="a_node19"><a xlink:title=" ">
<polygon fill="white" stroke="#bfbfbf" points="682.06,-224.5 682.06,-243.5 732.06,-243.5 732.06,-224.5 682.06,-224.5"/>
<text text-anchor="middle" x="707.06" y="-231.5" font-family="Helvetica,sans-Serif" font-size="10.00">dlfcn.h</text>
</a>
</g>
</g>
<!-- Node18&#45;&gt;Node19 -->
<g id="edge35" class="edge">
<title>Node18&#45;&gt;Node19</title>
<path fill="none" stroke="midnightblue" d="M692.03,-280.08C694.44,-272.85 697.92,-262.41 700.93,-253.4"/>
<polygon fill="midnightblue" stroke="midnightblue" points="704.3,-254.34 704.14,-243.75 697.66,-252.13 704.3,-254.34"/>
</g>
<!-- Node20 -->
<g id="node20" class="node">
<title>Node20</title>
<g id="a_node20"><a xlink:title=" ">
<polygon fill="white" stroke="#bfbfbf" points="750.56,-224.5 750.56,-243.5 797.56,-243.5 797.56,-224.5 750.56,-224.5"/>
<text text-anchor="middle" x="774.06" y="-231.5" font-family="Helvetica,sans-Serif" font-size="10.00">vector</text>
</a>
</g>
</g>
<!-- Node18&#45;&gt;Node20 -->
<g id="edge36" class="edge">
<title>Node18&#45;&gt;Node20</title>
<path fill="none" stroke="midnightblue" d="M702.72,-280.32C715.98,-271.9 736.33,-258.97 751.91,-249.07"/>
<polygon fill="midnightblue" stroke="midnightblue" points="753.87,-251.97 760.44,-243.65 750.12,-246.06 753.87,-251.97"/>
</g>
<!-- Node21&#45;&gt;Node3 -->
<g id="edge49" class="edge">
<title>Node21&#45;&gt;Node3</title>
<path fill="none" stroke="midnightblue" d="M496.36,-392.46C437.7,-372.97 293.85,-325.16 226.68,-302.84"/>
<polygon fill="midnightblue" stroke="midnightblue" points="227.56,-299.44 216.97,-299.61 225.36,-306.09 227.56,-299.44"/>
</g>
<!-- Node21&#45;&gt;Node6 -->
<g id="edge48" class="edge">
<title>Node21&#45;&gt;Node6</title>
<path fill="none" stroke="midnightblue" d="M523.62,-392.08C528.18,-365.95 541.59,-289.21 547.81,-253.58"/>
<polygon fill="midnightblue" stroke="midnightblue" points="551.29,-254.02 549.56,-243.57 544.39,-252.82 551.29,-254.02"/>
</g>
<!-- Node21&#45;&gt;Node10 -->
<g id="edge51" class="edge">
<title>Node21&#45;&gt;Node10</title>
<path fill="none" stroke="midnightblue" d="M572.1,-395.81C681.05,-383.69 935.44,-350.64 1004.06,-300 1019.6,-288.54 1029.27,-268.26 1034.63,-253.39"/>
<polygon fill="midnightblue" stroke="midnightblue" points="1038.01,-254.32 1037.79,-243.73 1031.35,-252.14 1038.01,-254.32"/>
</g>
<!-- Node21&#45;&gt;Node16 -->
<g id="edge50" class="edge">
<title>Node21&#45;&gt;Node16</title>
<path fill="none" stroke="midnightblue" d="M539.57,-392.32C557.13,-383.62 584.39,-370.12 604.59,-360.11"/>
<polygon fill="midnightblue" stroke="midnightblue" points="606.18,-363.23 613.59,-355.65 603.08,-356.96 606.18,-363.23"/>
</g>
<!-- Node22 -->
<g id="node22" class="node">
<title>Node22</title>
<g id="a_node22"><a xlink:href="a00113.html" target="_top" xlink:title=" ">
<polygon fill="white" stroke="black" points="419.56,-280.5 419.56,-299.5 522.56,-299.5 522.56,-280.5 419.56,-280.5"/>
<text text-anchor="middle" x="471.06" y="-287.5" font-family="Helvetica,sans-Serif" font-size="10.00">IEntityFactory.hpp</text>
</a>
</g>
</g>
<!-- Node21&#45;&gt;Node22 -->
<g id="edge42" class="edge">
<title>Node21&#45;&gt;Node22</title>
<path fill="none" stroke="midnightblue" d="M518.06,-392.37C509.75,-374.46 490.5,-332.92 479.38,-308.95"/>
<polygon fill="midnightblue" stroke="midnightblue" points="482.42,-307.19 475.04,-299.59 476.07,-310.14 482.42,-307.19"/>
</g>
<!-- Node22&#45;&gt;Node2 -->
<g id="edge43" class="edge">
<title>Node22&#45;&gt;Node2</title>
<path fill="none" stroke="midnightblue" d="M456.39,-280.37C424.16,-261.41 346.96,-216 307.76,-192.94"/>
<polygon fill="midnightblue" stroke="midnightblue" points="309.06,-189.64 298.67,-187.59 305.51,-195.68 309.06,-189.64"/>
</g>
<!-- Node22&#45;&gt;Node4 -->
<g id="edge44" class="edge">
<title>Node22&#45;&gt;Node4</title>
<path fill="none" stroke="midnightblue" d="M467.96,-280.29C461.68,-261.86 448.06,-217.44 448.06,-179 448.06,-179 448.06,-179 448.06,-121 448.06,-88.95 448.06,-51.64 448.06,-29.75"/>
<polygon fill="midnightblue" stroke="midnightblue" points="451.56,-29.56 448.06,-19.56 444.56,-29.56 451.56,-29.56"/>
</g>
<!-- Node22&#45;&gt;Node6 -->
<g id="edge45" class="edge">
<title>Node22&#45;&gt;Node6</title>
<path fill="none" stroke="midnightblue" d="M483.91,-280.32C496.28,-271.98 515.19,-259.21 529.8,-249.35"/>
<polygon fill="midnightblue" stroke="midnightblue" points="531.91,-252.15 538.24,-243.65 527.99,-246.35 531.91,-252.15"/>
</g>
<!-- Node22&#45;&gt;Node8 -->
<g id="edge47" class="edge">
<title>Node22&#45;&gt;Node8</title>
<path fill="none" stroke="midnightblue" d="M473.92,-280.22C481.81,-257.5 506.21,-196.54 549.06,-168 654.18,-97.99 805.77,-76.43 882.18,-69.85"/>
<polygon fill="midnightblue" stroke="midnightblue" points="882.76,-73.31 892.45,-69.02 882.2,-66.34 882.76,-73.31"/>
</g>
<!-- Node22&#45;&gt;Node10 -->
<g id="edge46" class="edge">
<title>Node22&#45;&gt;Node10</title>
<path fill="none" stroke="midnightblue" d="M522.81,-284.09C633.52,-273.58 891.71,-249.08 995.59,-239.22"/>
<polygon fill="midnightblue" stroke="midnightblue" points="996.11,-242.69 1005.74,-238.26 995.45,-235.72 996.11,-242.69"/>
</g>
</g>
</svg>
