<?xml version="1.0" encoding="UTF-8" standalone="no"?>
<!DOCTYPE svg PUBLIC "-//W3C//DTD SVG 1.1//EN"
 "http://www.w3.org/Graphics/SVG/1.1/DTD/svg11.dtd">
<!-- Generated by graphviz version 2.43.0 (0)
 -->
<!-- Title: /home/runner/work/Raytracer/Raytracer/src/Filters/IFilter.hpp Pages: 1 -->
<svg width="429pt" height="319pt"
 viewBox="0.00 0.00 429.00 319.00" xmlns="http://www.w3.org/2000/svg" xmlns:xlink="http://www.w3.org/1999/xlink">
<g id="graph0" class="graph" transform="scale(1 1) rotate(0) translate(4 315)">
<title>/home/runner/work/Raytracer/Raytracer/src/Filters/IFilter.hpp</title>
<polygon fill="white" stroke="transparent" points="-4,4 -4,-315 425,-315 425,4 -4,4"/>
<!-- Node1 -->
<g id="node1" class="node">
<title>Node1</title>
<g id="a_node1"><a xlink:title=" ">
<polygon fill="#bfbfbf" stroke="black" points="73.5,-280.5 73.5,-310.5 241.5,-310.5 241.5,-280.5 73.5,-280.5"/>
<text text-anchor="start" x="81.5" y="-298.5" font-family="Helvetica,sans-Serif" font-size="10.00">/home/runner/work/Raytracer</text>
<text text-anchor="middle" x="157.5" y="-287.5" font-family="Helvetica,sans-Serif" font-size="10.00">/Raytracer/src/Filters/IFilter.hpp</text>
</a>
</g>
</g>
<!-- Node2 -->
<g id="node2" class="node">
<title>Node2</title>
<g id="a_node2"><a xlink:href="a00137.html" target="_top" xlink:title=" ">
<polygon fill="white" stroke="black" points="123.5,-224.5 123.5,-243.5 191.5,-243.5 191.5,-224.5 123.5,-224.5"/>
<text text-anchor="middle" x="157.5" y="-231.5" font-family="Helvetica,sans-Serif" font-size="10.00">Image.hpp</text>
</a>
</g>
</g>
<!-- Node1&#45;&gt;Node2 -->
<g id="edge1" class="edge">
<title>Node1&#45;&gt;Node2</title>
<path fill="none" stroke="midnightblue" d="M157.5,-280.4C157.5,-272.47 157.5,-262.46 157.5,-253.86"/>
<polygon fill="midnightblue" stroke="midnightblue" points="161,-253.66 157.5,-243.66 154,-253.66 161,-253.66"/>
</g>
<!-- Node3 -->
<g id="node3" class="node">
<title>Node3</title>
<g id="a_node3"><a xlink:title=" ">
<polygon fill="white" stroke="#bfbfbf" points="0,-168.5 0,-187.5 53,-187.5 53,-168.5 0,-168.5"/>
<text text-anchor="middle" x="26.5" y="-175.5" font-family="Helvetica,sans-Serif" font-size="10.00">cstddef</text>
</a>
</g>
</g>
<!-- Node2&#45;&gt;Node3 -->
<g id="edge2" class="edge">
<title>Node2&#45;&gt;Node3</title>
<path fill="none" stroke="midnightblue" d="M136.74,-224.44C115.18,-215.56 81.24,-201.56 56.71,-191.45"/>
<polygon fill="midnightblue" stroke="midnightblue" points="57.74,-188.09 47.16,-187.52 55.07,-194.56 57.74,-188.09"/>
</g>
<!-- Node4 -->
<g id="node4" class="node">
<title>Node4</title>
<g id="a_node4"><a xlink:title=" ">
<polygon fill="white" stroke="#bfbfbf" points="71.5,-168.5 71.5,-187.5 115.5,-187.5 115.5,-168.5 71.5,-168.5"/>
<text text-anchor="middle" x="93.5" y="-175.5" font-family="Helvetica,sans-Serif" font-size="10.00">string</text>
</a>
</g>
</g>
<!-- Node2&#45;&gt;Node4 -->
<g id="edge3" class="edge">
<title>Node2&#45;&gt;Node4</title>
<path fill="none" stroke="midnightblue" d="M147.22,-224.32C137.66,-216.26 123.22,-204.08 111.72,-194.37"/>
<polygon fill="midnightblue" stroke="midnightblue" points="113.87,-191.61 103.97,-187.83 109.36,-196.96 113.87,-191.61"/>
</g>
<!-- Node5 -->
<g id="node5" class="node">
<title>Node5</title>
<g id="a_node5"><a xlink:title=" ">
<polygon fill="white" stroke="#bfbfbf" points="134,-168.5 134,-187.5 181,-187.5 181,-168.5 134,-168.5"/>
<text text-anchor="middle" x="157.5" y="-175.5" font-family="Helvetica,sans-Serif" font-size="10.00">vector</text>
</a>
</g>
</g>
<!-- Node2&#45;&gt;Node5 -->
<g id="edge4" class="edge">
<title>Node2&#45;&gt;Node5</title>
<path fill="none" stroke="midnightblue" d="M157.5,-224.08C157.5,-217.01 157.5,-206.86 157.5,-197.99"/>
<polygon fill="midnightblue" stroke="midnightblue" points="161,-197.75 157.5,-187.75 154,-197.75 161,-197.75"/>
</g>
<!-- Node6 -->
<g id="node6" class="node">
<title>Node6</title>
<g id="a_node6"><a xlink:href="a00134.html" target="_top" xlink:title=" ">
<polygon fill="white" stroke="black" points="199.5,-168.5 199.5,-187.5 261.5,-187.5 261.5,-168.5 199.5,-168.5"/>
<text text-anchor="middle" x="230.5" y="-175.5" font-family="Helvetica,sans-Serif" font-size="10.00">Color.hpp</text>
</a>
</g>
</g>
<!-- Node2&#45;&gt;Node6 -->
<g id="edge5" class="edge">
<title>Node2&#45;&gt;Node6</title>
<path fill="none" stroke="midnightblue" d="M169.23,-224.32C180.34,-216.11 197.24,-203.6 210.48,-193.81"/>
<polygon fill="midnightblue" stroke="midnightblue" points="212.6,-196.59 218.56,-187.83 208.44,-190.97 212.6,-196.59"/>
</g>
<!-- Node13 -->
<g id="node13" class="node">
<title>Node13</title>
<g id="a_node13"><a xlink:href="a00101.html" target="_top" xlink:title=" ">
<polygon fill="white" stroke="black" points="280,-168.5 280,-187.5 357,-187.5 357,-168.5 280,-168.5"/>
<text text-anchor="middle" x="318.5" y="-175.5" font-family="Helvetica,sans-Serif" font-size="10.00">Vector2i.hpp</text>
</a>
</g>
</g>
<!-- Node2&#45;&gt;Node13 -->
<g id="edge12" class="edge">
<title>Node2&#45;&gt;Node13</title>
<path fill="none" stroke="midnightblue" d="M183.01,-224.44C210.1,-215.36 253.09,-200.94 283.37,-190.78"/>
<polygon fill="midnightblue" stroke="midnightblue" points="284.74,-194.01 293.11,-187.52 282.51,-187.38 284.74,-194.01"/>
</g>
<!-- Node7 -->
<g id="node7" class="node">
<title>Node7</title>
<g id="a_node7"><a xlink:title=" ">
<polygon fill="white" stroke="#bfbfbf" points="14.5,-112.5 14.5,-131.5 62.5,-131.5 62.5,-112.5 14.5,-112.5"/>
<text text-anchor="middle" x="38.5" y="-119.5" font-family="Helvetica,sans-Serif" font-size="10.00">mutex</text>
</a>
</g>
</g>
<!-- Node6&#45;&gt;Node7 -->
<g id="edge6" class="edge">
<title>Node6&#45;&gt;Node7</title>
<path fill="none" stroke="midnightblue" d="M200.08,-168.44C165.43,-158.7 108.96,-142.82 72.78,-132.64"/>
<polygon fill="midnightblue" stroke="midnightblue" points="73.28,-129.14 62.7,-129.81 71.38,-135.88 73.28,-129.14"/>
</g>
<!-- Node8 -->
<g id="node8" class="node">
<title>Node8</title>
<g id="a_node8"><a xlink:title=" ">
<polygon fill="white" stroke="#bfbfbf" points="275,-112.5 275,-131.5 332,-131.5 332,-112.5 275,-112.5"/>
<text text-anchor="middle" x="303.5" y="-119.5" font-family="Helvetica,sans-Serif" font-size="10.00">ostream</text>
</a>
</g>
</g>
<!-- Node6&#45;&gt;Node8 -->
<g id="edge7" class="edge">
<title>Node6&#45;&gt;Node8</title>
<path fill="none" stroke="midnightblue" d="M242.23,-168.32C253.34,-160.11 270.24,-147.6 283.48,-137.81"/>
<polygon fill="midnightblue" stroke="midnightblue" points="285.6,-140.59 291.56,-131.83 281.44,-134.97 285.6,-140.59"/>
</g>
<!-- Node9 -->
<g id="node9" class="node">
<title>Node9</title>
<g id="a_node9"><a xlink:title=" ">
<polygon fill="white" stroke="#bfbfbf" points="81,-112.5 81,-131.5 218,-131.5 218,-112.5 81,-112.5"/>
<text text-anchor="middle" x="149.5" y="-119.5" font-family="Helvetica,sans-Serif" font-size="10.00">SFML/Graphics/Color.hpp</text>
</a>
</g>
</g>
<!-- Node6&#45;&gt;Node9 -->
<g id="edge8" class="edge">
<title>Node6&#45;&gt;Node9</title>
<path fill="none" stroke="midnightblue" d="M217.49,-168.32C204.97,-159.98 185.82,-147.21 171.03,-137.35"/>
<polygon fill="midnightblue" stroke="midnightblue" points="172.74,-134.29 162.48,-131.65 168.86,-140.11 172.74,-134.29"/>
</g>
<!-- Node10 -->
<g id="node10" class="node">
<title>Node10</title>
<g id="a_node10"><a xlink:href="a00218.html" target="_top" xlink:title=" ">
<polygon fill="white" stroke="black" points="270,-56.5 270,-75.5 345,-75.5 345,-56.5 270,-56.5"/>
<text text-anchor="middle" x="307.5" y="-63.5" font-family="Helvetica,sans-Serif" font-size="10.00">ISetting.hpp</text>
</a>
</g>
</g>
<!-- Node6&#45;&gt;Node10 -->
<g id="edge9" class="edge">
<title>Node6&#45;&gt;Node10</title>
<path fill="none" stroke="midnightblue" d="M234.37,-168.17C240.21,-155.26 252.05,-130.74 265.5,-112 272.96,-101.6 282.63,-91.09 290.81,-82.84"/>
<polygon fill="midnightblue" stroke="midnightblue" points="293.39,-85.21 298.08,-75.7 288.49,-80.21 293.39,-85.21"/>
</g>
<!-- Node11 -->
<g id="node11" class="node">
<title>Node11</title>
<g id="a_node11"><a xlink:title=" ">
<polygon fill="white" stroke="#bfbfbf" points="356.5,-0.5 356.5,-19.5 414.5,-19.5 414.5,-0.5 356.5,-0.5"/>
<text text-anchor="middle" x="385.5" y="-7.5" font-family="Helvetica,sans-Serif" font-size="10.00">memory</text>
</a>
</g>
</g>
<!-- Node10&#45;&gt;Node11 -->
<g id="edge10" class="edge">
<title>Node10&#45;&gt;Node11</title>
<path fill="none" stroke="midnightblue" d="M320.03,-56.32C332.09,-47.98 350.53,-35.21 364.77,-25.35"/>
<polygon fill="midnightblue" stroke="midnightblue" points="366.77,-28.22 373,-19.65 362.78,-22.47 366.77,-28.22"/>
</g>
<!-- Node12 -->
<g id="node12" class="node">
<title>Node12</title>
<g id="a_node12"><a xlink:title=" ">
<polygon fill="white" stroke="#bfbfbf" points="255,-0.5 255,-19.5 338,-19.5 338,-0.5 255,-0.5"/>
<text text-anchor="middle" x="296.5" y="-7.5" font-family="Helvetica,sans-Serif" font-size="10.00">libconfig.h++</text>
</a>
</g>
</g>
<!-- Node10&#45;&gt;Node12 -->
<g id="edge11" class="edge">
<title>Node10&#45;&gt;Node12</title>
<path fill="none" stroke="midnightblue" d="M305.68,-56.08C304.23,-48.93 302.13,-38.64 300.31,-29.69"/>
<polygon fill="midnightblue" stroke="midnightblue" points="303.71,-28.85 298.28,-19.75 296.85,-30.25 303.71,-28.85"/>
</g>
<!-- Node13&#45;&gt;Node8 -->
<g id="edge13" class="edge">
<title>Node13&#45;&gt;Node8</title>
<path fill="none" stroke="midnightblue" d="M316.02,-168.08C314.01,-160.85 311.11,-150.41 308.61,-141.4"/>
<polygon fill="midnightblue" stroke="midnightblue" points="311.98,-140.45 305.93,-131.75 305.24,-142.32 311.98,-140.45"/>
</g>
<!-- Node14 -->
<g id="node14" class="node">
<title>Node14</title>
<g id="a_node14"><a xlink:href="a00209.html" target="_top" xlink:title=" ">
<polygon fill="white" stroke="black" points="350,-112.5 350,-131.5 421,-131.5 421,-112.5 350,-112.5"/>
<text text-anchor="middle" x="385.5" y="-119.5" font-family="Helvetica,sans-Serif" font-size="10.00">IConfig.hpp</text>
</a>
</g>
</g>
<!-- Node13&#45;&gt;Node14 -->
<g id="edge14" class="edge">
<title>Node13&#45;&gt;Node14</title>
<path fill="none" stroke="midnightblue" d="M329.26,-168.32C339.27,-160.26 354.39,-148.08 366.43,-138.37"/>
<polygon fill="midnightblue" stroke="midnightblue" points="368.95,-140.83 374.54,-131.83 364.56,-135.38 368.95,-140.83"/>
</g>
<!-- Node14&#45;&gt;Node10 -->
<g id="edge16" class="edge">
<title>Node14&#45;&gt;Node10</title>
<path fill="none" stroke="midnightblue" d="M372.97,-112.32C360.91,-103.98 342.47,-91.21 328.23,-81.35"/>
<polygon fill="midnightblue" stroke="midnightblue" points="330.22,-78.47 320,-75.65 326.23,-84.22 330.22,-78.47"/>
</g>
<!-- Node14&#45;&gt;Node11 -->
<g id="edge15" class="edge">
<title>Node14&#45;&gt;Node11</title>
<path fill="none" stroke="midnightblue" d="M385.5,-112.37C385.5,-94.62 385.5,-53.67 385.5,-29.6"/>
<polygon fill="midnightblue" stroke="midnightblue" points="389,-29.59 385.5,-19.59 382,-29.59 389,-29.59"/>
</g>
</g>
</svg>
