<?xml version="1.0" encoding="UTF-8" standalone="no"?>
<!DOCTYPE svg PUBLIC "-//W3C//DTD SVG 1.1//EN"
 "http://www.w3.org/Graphics/SVG/1.1/DTD/svg11.dtd">
<!-- Generated by graphviz version 2.43.0 (0)
 -->
<!-- Title: /home/runner/work/Raytracer/Raytracer/src/Factories/IMaterialFactory.hpp Pages: 1 -->
<svg width="215pt" height="340pt"
 viewBox="0.00 0.00 215.00 340.00" xmlns="http://www.w3.org/2000/svg" xmlns:xlink="http://www.w3.org/1999/xlink">
<g id="graph0" class="graph" transform="scale(1 1) rotate(0) translate(4 336)">
<title>/home/runner/work/Raytracer/Raytracer/src/Factories/IMaterialFactory.hpp</title>
<polygon fill="white" stroke="transparent" points="-4,4 -4,-336 211,-336 211,4 -4,4"/>
<!-- Node1 -->
<g id="node1" class="node">
<title>Node1</title>
<g id="a_node1"><a xlink:title=" ">
<polygon fill="#bfbfbf" stroke="black" points="24,-290.5 24,-331.5 183,-331.5 183,-290.5 24,-290.5"/>
<text text-anchor="start" x="32" y="-319.5" font-family="Helvetica,sans-Serif" font-size="10.00">/home/runner/work/Raytracer</text>
<text text-anchor="start" x="32" y="-308.5" font-family="Helvetica,sans-Serif" font-size="10.00">/Raytracer/src/Factories</text>
<text text-anchor="middle" x="103.5" y="-297.5" font-family="Helvetica,sans-Serif" font-size="10.00">/IMaterialFactory.hpp</text>
</a>
</g>
</g>
<!-- Node2 -->
<g id="node2" class="node">
<title>Node2</title>
<g id="a_node2"><a xlink:href="a00143.html" target="_top" xlink:title=" ">
<polygon fill="white" stroke="black" points="24,-212.5 24,-253.5 183,-253.5 183,-212.5 24,-212.5"/>
<text text-anchor="start" x="32" y="-241.5" font-family="Helvetica,sans-Serif" font-size="10.00">/home/runner/work/Raytracer</text>
<text text-anchor="start" x="32" y="-230.5" font-family="Helvetica,sans-Serif" font-size="10.00">/Raytracer/src/Factories</text>
<text text-anchor="middle" x="103.5" y="-219.5" font-family="Helvetica,sans-Serif" font-size="10.00">/MaterialFactory.hpp</text>
</a>
</g>
</g>
<!-- Node1&#45;&gt;Node2 -->
<g id="edge1" class="edge">
<title>Node1&#45;&gt;Node2</title>
<path fill="none" stroke="midnightblue" d="M103.5,-280.3C103.5,-271.3 103.5,-261.65 103.5,-253.51"/>
<polygon fill="midnightblue" stroke="midnightblue" points="100,-280.43 103.5,-290.43 107,-280.43 100,-280.43"/>
</g>
<!-- Node3 -->
<g id="node3" class="node">
<title>Node3</title>
<g id="a_node3"><a xlink:href="a00212.html" target="_top" xlink:title=" ">
<polygon fill="white" stroke="black" points="18,-134.5 18,-175.5 189,-175.5 189,-134.5 18,-134.5"/>
<text text-anchor="start" x="26" y="-163.5" font-family="Helvetica,sans-Serif" font-size="10.00">/home/runner/work/Raytracer</text>
<text text-anchor="start" x="26" y="-152.5" font-family="Helvetica,sans-Serif" font-size="10.00">/Raytracer/src/Plugins/Materials</text>
<text text-anchor="middle" x="103.5" y="-141.5" font-family="Helvetica,sans-Serif" font-size="10.00">/MaterialLoader.hpp</text>
</a>
</g>
</g>
<!-- Node2&#45;&gt;Node3 -->
<g id="edge2" class="edge">
<title>Node2&#45;&gt;Node3</title>
<path fill="none" stroke="midnightblue" d="M103.5,-202.3C103.5,-193.3 103.5,-183.65 103.5,-175.51"/>
<polygon fill="midnightblue" stroke="midnightblue" points="100,-202.43 103.5,-212.43 107,-202.43 100,-202.43"/>
</g>
<!-- Node4 -->
<g id="node4" class="node">
<title>Node4</title>
<g id="a_node4"><a xlink:href="a00245.html" target="_top" xlink:title=" ">
<polygon fill="white" stroke="black" points="0,-67.5 0,-97.5 207,-97.5 207,-67.5 0,-67.5"/>
<text text-anchor="start" x="8" y="-85.5" font-family="Helvetica,sans-Serif" font-size="10.00">/home/runner/work/Raytracer</text>
<text text-anchor="middle" x="103.5" y="-74.5" font-family="Helvetica,sans-Serif" font-size="10.00">/Raytracer/src/Scenes/SceneLoader.hpp</text>
</a>
</g>
</g>
<!-- Node3&#45;&gt;Node4 -->
<g id="edge3" class="edge">
<title>Node3&#45;&gt;Node4</title>
<path fill="none" stroke="midnightblue" d="M103.5,-124.08C103.5,-115.01 103.5,-105.45 103.5,-97.89"/>
<polygon fill="midnightblue" stroke="midnightblue" points="100,-124.36 103.5,-134.36 107,-124.36 100,-124.36"/>
</g>
<!-- Node5 -->
<g id="node5" class="node">
<title>Node5</title>
<g id="a_node5"><a xlink:href="a00089.html" target="_top" xlink:title=" ">
<polygon fill="white" stroke="black" points="12,-0.5 12,-30.5 195,-30.5 195,-0.5 12,-0.5"/>
<text text-anchor="start" x="20" y="-18.5" font-family="Helvetica,sans-Serif" font-size="10.00">/home/runner/work/Raytracer</text>
<text text-anchor="middle" x="103.5" y="-7.5" font-family="Helvetica,sans-Serif" font-size="10.00">/Raytracer/src/Display/Display.hpp</text>
</a>
</g>
</g>
<!-- Node4&#45;&gt;Node5 -->
<g id="edge4" class="edge">
<title>Node4&#45;&gt;Node5</title>
<path fill="none" stroke="midnightblue" d="M103.5,-57.11C103.5,-48.15 103.5,-38.32 103.5,-30.58"/>
<polygon fill="midnightblue" stroke="midnightblue" points="100,-57.4 103.5,-67.4 107,-57.4 100,-57.4"/>
</g>
</g>
</svg>
