<?xml version="1.0" encoding="UTF-8" standalone="no"?>
<!DOCTYPE svg PUBLIC "-//W3C//DTD SVG 1.1//EN"
 "http://www.w3.org/Graphics/SVG/1.1/DTD/svg11.dtd">
<!-- Generated by graphviz version 2.43.0 (0)
 -->
<!-- Title: /home/runner/work/Raytracer/Raytracer/src/Images/Color.hpp Pages: 1 -->
<svg width="273pt" height="151pt"
 viewBox="0.00 0.00 272.50 151.00" xmlns="http://www.w3.org/2000/svg" xmlns:xlink="http://www.w3.org/1999/xlink">
<g id="graph0" class="graph" transform="scale(1 1) rotate(0) translate(4 147)">
<title>/home/runner/work/Raytracer/Raytracer/src/Images/Color.hpp</title>
<polygon fill="white" stroke="transparent" points="-4,4 -4,-147 268.5,-147 268.5,4 -4,4"/>
<!-- Node1 -->
<g id="node1" class="node">
<title>Node1</title>
<g id="a_node1"><a xlink:title=" ">
<polygon fill="#bfbfbf" stroke="black" points="9,-112.5 9,-142.5 181,-142.5 181,-112.5 9,-112.5"/>
<text text-anchor="start" x="17" y="-130.5" font-family="Helvetica,sans-Serif" font-size="10.00">/home/runner/work/Raytracer</text>
<text text-anchor="middle" x="95" y="-119.5" font-family="Helvetica,sans-Serif" font-size="10.00">/Raytracer/src/Images/Color.hpp</text>
</a>
</g>
</g>
<!-- Node2 -->
<g id="node2" class="node">
<title>Node2</title>
<g id="a_node2"><a xlink:title=" ">
<polygon fill="white" stroke="#bfbfbf" points="0,-56.5 0,-75.5 48,-75.5 48,-56.5 0,-56.5"/>
<text text-anchor="middle" x="24" y="-63.5" font-family="Helvetica,sans-Serif" font-size="10.00">mutex</text>
</a>
</g>
</g>
<!-- Node1&#45;&gt;Node2 -->
<g id="edge1" class="edge">
<title>Node1&#45;&gt;Node2</title>
<path fill="none" stroke="midnightblue" d="M78.17,-112.4C67.33,-103.31 53.22,-91.49 42.13,-82.19"/>
<polygon fill="midnightblue" stroke="midnightblue" points="44.24,-79.4 34.33,-75.66 39.75,-84.76 44.24,-79.4"/>
</g>
<!-- Node3 -->
<g id="node3" class="node">
<title>Node3</title>
<g id="a_node3"><a xlink:title=" ">
<polygon fill="white" stroke="#bfbfbf" points="66.5,-56.5 66.5,-75.5 123.5,-75.5 123.5,-56.5 66.5,-56.5"/>
<text text-anchor="middle" x="95" y="-63.5" font-family="Helvetica,sans-Serif" font-size="10.00">ostream</text>
</a>
</g>
</g>
<!-- Node1&#45;&gt;Node3 -->
<g id="edge2" class="edge">
<title>Node1&#45;&gt;Node3</title>
<path fill="none" stroke="midnightblue" d="M95,-112.4C95,-104.47 95,-94.46 95,-85.86"/>
<polygon fill="midnightblue" stroke="midnightblue" points="98.5,-85.66 95,-75.66 91.5,-85.66 98.5,-85.66"/>
</g>
<!-- Node4 -->
<g id="node4" class="node">
<title>Node4</title>
<g id="a_node4"><a xlink:href="a00206.html" target="_top" xlink:title=" ">
<polygon fill="white" stroke="black" points="141.5,-56.5 141.5,-75.5 216.5,-75.5 216.5,-56.5 141.5,-56.5"/>
<text text-anchor="middle" x="179" y="-63.5" font-family="Helvetica,sans-Serif" font-size="10.00">ISetting.hpp</text>
</a>
</g>
</g>
<!-- Node1&#45;&gt;Node4 -->
<g id="edge3" class="edge">
<title>Node1&#45;&gt;Node4</title>
<path fill="none" stroke="midnightblue" d="M114.91,-112.4C127.99,-103.13 145.08,-91.03 158.32,-81.65"/>
<polygon fill="midnightblue" stroke="midnightblue" points="160.64,-84.29 166.78,-75.66 156.59,-78.58 160.64,-84.29"/>
</g>
<!-- Node5 -->
<g id="node5" class="node">
<title>Node5</title>
<g id="a_node5"><a xlink:title=" ">
<polygon fill="white" stroke="#bfbfbf" points="105,-0.5 105,-19.5 163,-19.5 163,-0.5 105,-0.5"/>
<text text-anchor="middle" x="134" y="-7.5" font-family="Helvetica,sans-Serif" font-size="10.00">memory</text>
</a>
</g>
</g>
<!-- Node4&#45;&gt;Node5 -->
<g id="edge4" class="edge">
<title>Node4&#45;&gt;Node5</title>
<path fill="none" stroke="midnightblue" d="M171.57,-56.08C165.15,-48.38 155.69,-37.03 147.88,-27.65"/>
<polygon fill="midnightblue" stroke="midnightblue" points="150.38,-25.19 141.29,-19.75 145.01,-29.67 150.38,-25.19"/>
</g>
<!-- Node6 -->
<g id="node6" class="node">
<title>Node6</title>
<g id="a_node6"><a xlink:title=" ">
<polygon fill="white" stroke="#bfbfbf" points="181.5,-0.5 181.5,-19.5 264.5,-19.5 264.5,-0.5 181.5,-0.5"/>
<text text-anchor="middle" x="223" y="-7.5" font-family="Helvetica,sans-Serif" font-size="10.00">libconfig.h++</text>
</a>
</g>
</g>
<!-- Node4&#45;&gt;Node6 -->
<g id="edge5" class="edge">
<title>Node4&#45;&gt;Node6</title>
<path fill="none" stroke="midnightblue" d="M186.27,-56.08C192.54,-48.38 201.79,-37.03 209.43,-27.65"/>
<polygon fill="midnightblue" stroke="midnightblue" points="212.27,-29.71 215.87,-19.75 206.84,-25.29 212.27,-29.71"/>
</g>
</g>
</svg>
