<?xml version="1.0" encoding="UTF-8" standalone="no"?>
<!DOCTYPE svg PUBLIC "-//W3C//DTD SVG 1.1//EN"
 "http://www.w3.org/Graphics/SVG/1.1/DTD/svg11.dtd">
<!-- Generated by graphviz version 2.43.0 (0)
 -->
<!-- Title: /home/runner/work/Raytracer/Raytracer/src/Factories/IEntityFactory.hpp Pages: 1 -->
<svg width="337pt" height="330pt"
 viewBox="0.00 0.00 336.76 330.00" xmlns="http://www.w3.org/2000/svg" xmlns:xlink="http://www.w3.org/1999/xlink">
<g id="graph0" class="graph" transform="scale(1 1) rotate(0) translate(4 326)">
<title>/home/runner/work/Raytracer/Raytracer/src/Factories/IEntityFactory.hpp</title>
<polygon fill="white" stroke="transparent" points="-4,4 -4,-326 332.76,-326 332.76,4 -4,4"/>
<!-- Node1 -->
<g id="node1" class="node">
<title>Node1</title>
<g id="a_node1"><a xlink:title=" ">
<polygon fill="#bfbfbf" stroke="black" points="41.5,-280.5 41.5,-321.5 200.5,-321.5 200.5,-280.5 41.5,-280.5"/>
<text text-anchor="start" x="49.5" y="-309.5" font-family="Helvetica,sans-Serif" font-size="10.00">/home/runner/work/Raytracer</text>
<text text-anchor="start" x="49.5" y="-298.5" font-family="Helvetica,sans-Serif" font-size="10.00">/Raytracer/src/Factories</text>
<text text-anchor="middle" x="121" y="-287.5" font-family="Helvetica,sans-Serif" font-size="10.00">/IEntityFactory.hpp</text>
</a>
</g>
</g>
<!-- Node2 -->
<g id="node2" class="node">
<title>Node2</title>
<g id="a_node2"><a xlink:title=" ">
<polygon fill="white" stroke="#bfbfbf" points="28,-168.5 28,-187.5 72,-187.5 72,-168.5 28,-168.5"/>
<text text-anchor="middle" x="50" y="-175.5" font-family="Helvetica,sans-Serif" font-size="10.00">string</text>
</a>
</g>
</g>
<!-- Node1&#45;&gt;Node2 -->
<g id="edge1" class="edge">
<title>Node1&#45;&gt;Node2</title>
<path fill="none" stroke="midnightblue" d="M102.28,-280.42C93.18,-270.17 82.6,-257.05 75,-244 66.44,-229.31 59.74,-211.14 55.44,-197.75"/>
<polygon fill="midnightblue" stroke="midnightblue" points="58.67,-196.35 52.41,-187.81 51.98,-198.4 58.67,-196.35"/>
</g>
<!-- Node3 -->
<g id="node3" class="node">
<title>Node3</title>
<g id="a_node3"><a xlink:title=" ">
<polygon fill="white" stroke="#bfbfbf" points="91,-0.5 91,-19.5 149,-19.5 149,-0.5 91,-0.5"/>
<text text-anchor="middle" x="120" y="-7.5" font-family="Helvetica,sans-Serif" font-size="10.00">memory</text>
</a>
</g>
</g>
<!-- Node1&#45;&gt;Node3 -->
<g id="edge2" class="edge">
<title>Node1&#45;&gt;Node3</title>
<path fill="none" stroke="midnightblue" d="M80.37,-280.44C45.22,-260.36 0,-225.49 0,-179 0,-179 0,-179 0,-121 0,-73.08 52.64,-40.38 88.19,-23.76"/>
<polygon fill="midnightblue" stroke="midnightblue" points="90.01,-26.78 97.71,-19.5 87.15,-20.4 90.01,-26.78"/>
</g>
<!-- Node4 -->
<g id="node4" class="node">
<title>Node4</title>
<g id="a_node4"><a xlink:href="a00155.html" target="_top" xlink:title=" ">
<polygon fill="white" stroke="black" points="84.5,-224.5 84.5,-243.5 157.5,-243.5 157.5,-224.5 84.5,-224.5"/>
<text text-anchor="middle" x="121" y="-231.5" font-family="Helvetica,sans-Serif" font-size="10.00">ILogger.hpp</text>
</a>
</g>
</g>
<!-- Node1&#45;&gt;Node4 -->
<g id="edge3" class="edge">
<title>Node1&#45;&gt;Node4</title>
<path fill="none" stroke="midnightblue" d="M121,-280.5C121,-272.07 121,-262.24 121,-253.87"/>
<polygon fill="midnightblue" stroke="midnightblue" points="124.5,-253.65 121,-243.65 117.5,-253.65 124.5,-253.65"/>
</g>
<!-- Node6 -->
<g id="node6" class="node">
<title>Node6</title>
<g id="a_node6"><a xlink:href="a00107.html" target="_top" xlink:title=" ">
<polygon fill="white" stroke="black" points="192,-224.5 192,-243.5 260,-243.5 260,-224.5 192,-224.5"/>
<text text-anchor="middle" x="226" y="-231.5" font-family="Helvetica,sans-Serif" font-size="10.00">IEntity.hpp</text>
</a>
</g>
</g>
<!-- Node1&#45;&gt;Node6 -->
<g id="edge6" class="edge">
<title>Node1&#45;&gt;Node6</title>
<path fill="none" stroke="midnightblue" d="M152.5,-280.5C168.91,-270.34 188.6,-258.16 203.46,-248.95"/>
<polygon fill="midnightblue" stroke="midnightblue" points="205.36,-251.89 212.02,-243.65 201.68,-245.94 205.36,-251.89"/>
</g>
<!-- Node10 -->
<g id="node10" class="node">
<title>Node10</title>
<g id="a_node10"><a xlink:href="a00242.html" target="_top" xlink:title=" ">
<polygon fill="white" stroke="black" points="248.5,-56.5 248.5,-75.5 323.5,-75.5 323.5,-56.5 248.5,-56.5"/>
<text text-anchor="middle" x="286" y="-63.5" font-family="Helvetica,sans-Serif" font-size="10.00">ISetting.hpp</text>
</a>
</g>
</g>
<!-- Node1&#45;&gt;Node10 -->
<g id="edge13" class="edge">
<title>Node1&#45;&gt;Node10</title>
<path fill="none" stroke="midnightblue" d="M200.66,-282.21C248.31,-266.59 303.47,-238.2 324,-188 338.79,-151.84 314.82,-107.67 298.72,-83.97"/>
<polygon fill="midnightblue" stroke="midnightblue" points="301.47,-81.81 292.83,-75.68 295.77,-85.86 301.47,-81.81"/>
</g>
<!-- Node4&#45;&gt;Node2 -->
<g id="edge5" class="edge">
<title>Node4&#45;&gt;Node2</title>
<path fill="none" stroke="midnightblue" d="M109.59,-224.32C98.89,-216.18 82.66,-203.84 69.84,-194.09"/>
<polygon fill="midnightblue" stroke="midnightblue" points="71.69,-191.1 61.61,-187.83 67.46,-196.67 71.69,-191.1"/>
</g>
<!-- Node5 -->
<g id="node5" class="node">
<title>Node5</title>
<g id="a_node5"><a xlink:title=" ">
<polygon fill="white" stroke="#bfbfbf" points="90.5,-168.5 90.5,-187.5 155.5,-187.5 155.5,-168.5 90.5,-168.5"/>
<text text-anchor="middle" x="123" y="-175.5" font-family="Helvetica,sans-Serif" font-size="10.00">functional</text>
</a>
</g>
</g>
<!-- Node4&#45;&gt;Node5 -->
<g id="edge4" class="edge">
<title>Node4&#45;&gt;Node5</title>
<path fill="none" stroke="midnightblue" d="M121.33,-224.08C121.59,-217.01 121.97,-206.86 122.3,-197.99"/>
<polygon fill="midnightblue" stroke="midnightblue" points="125.8,-197.87 122.68,-187.75 118.81,-197.61 125.8,-197.87"/>
</g>
<!-- Node7 -->
<g id="node7" class="node">
<title>Node7</title>
<g id="a_node7"><a xlink:href="a00119.html" target="_top" xlink:title=" ">
<polygon fill="white" stroke="black" points="173.5,-168.5 173.5,-187.5 314.5,-187.5 314.5,-168.5 173.5,-168.5"/>
<text text-anchor="middle" x="244" y="-175.5" font-family="Helvetica,sans-Serif" font-size="10.00">Transform/ITransform.hpp</text>
</a>
</g>
</g>
<!-- Node6&#45;&gt;Node7 -->
<g id="edge7" class="edge">
<title>Node6&#45;&gt;Node7</title>
<path fill="none" stroke="midnightblue" d="M228.97,-224.08C231.38,-216.85 234.86,-206.41 237.87,-197.4"/>
<polygon fill="midnightblue" stroke="midnightblue" points="241.24,-198.34 241.08,-187.75 234.6,-196.13 241.24,-198.34"/>
</g>
<!-- Node8 -->
<g id="node8" class="node">
<title>Node8</title>
<g id="a_node8"><a xlink:href="a00128.html" target="_top" xlink:title=" ">
<polygon fill="white" stroke="black" points="205.5,-112.5 205.5,-131.5 282.5,-131.5 282.5,-112.5 205.5,-112.5"/>
<text text-anchor="middle" x="244" y="-119.5" font-family="Helvetica,sans-Serif" font-size="10.00">Vector3f.hpp</text>
</a>
</g>
</g>
<!-- Node7&#45;&gt;Node8 -->
<g id="edge8" class="edge">
<title>Node7&#45;&gt;Node8</title>
<path fill="none" stroke="midnightblue" d="M244,-168.08C244,-161.01 244,-150.86 244,-141.99"/>
<polygon fill="midnightblue" stroke="midnightblue" points="247.5,-141.75 244,-131.75 240.5,-141.75 247.5,-141.75"/>
</g>
<!-- Node9 -->
<g id="node9" class="node">
<title>Node9</title>
<g id="a_node9"><a xlink:title=" ">
<polygon fill="white" stroke="#bfbfbf" points="173.5,-56.5 173.5,-75.5 230.5,-75.5 230.5,-56.5 173.5,-56.5"/>
<text text-anchor="middle" x="202" y="-63.5" font-family="Helvetica,sans-Serif" font-size="10.00">ostream</text>
</a>
</g>
</g>
<!-- Node8&#45;&gt;Node9 -->
<g id="edge9" class="edge">
<title>Node8&#45;&gt;Node9</title>
<path fill="none" stroke="midnightblue" d="M237.06,-112.08C231.07,-104.38 222.25,-93.03 214.95,-83.65"/>
<polygon fill="midnightblue" stroke="midnightblue" points="217.71,-81.5 208.81,-75.75 212.18,-85.79 217.71,-81.5"/>
</g>
<!-- Node8&#45;&gt;Node10 -->
<g id="edge10" class="edge">
<title>Node8&#45;&gt;Node10</title>
<path fill="none" stroke="midnightblue" d="M250.94,-112.08C256.93,-104.38 265.75,-93.03 273.05,-83.65"/>
<polygon fill="midnightblue" stroke="midnightblue" points="275.82,-85.79 279.19,-75.75 270.29,-81.5 275.82,-85.79"/>
</g>
<!-- Node10&#45;&gt;Node3 -->
<g id="edge11" class="edge">
<title>Node10&#45;&gt;Node3</title>
<path fill="none" stroke="midnightblue" d="M259.7,-56.44C231.65,-47.32 187.06,-32.81 155.82,-22.65"/>
<polygon fill="midnightblue" stroke="midnightblue" points="156.77,-19.28 146.18,-19.52 154.61,-25.94 156.77,-19.28"/>
</g>
<!-- Node11 -->
<g id="node11" class="node">
<title>Node11</title>
<g id="a_node11"><a xlink:title=" ">
<polygon fill="white" stroke="#bfbfbf" points="244.5,-0.5 244.5,-19.5 327.5,-19.5 327.5,-0.5 244.5,-0.5"/>
<text text-anchor="middle" x="286" y="-7.5" font-family="Helvetica,sans-Serif" font-size="10.00">libconfig.h++</text>
</a>
</g>
</g>
<!-- Node10&#45;&gt;Node11 -->
<g id="edge12" class="edge">
<title>Node10&#45;&gt;Node11</title>
<path fill="none" stroke="midnightblue" d="M286,-56.08C286,-49.01 286,-38.86 286,-29.99"/>
<polygon fill="midnightblue" stroke="midnightblue" points="289.5,-29.75 286,-19.75 282.5,-29.75 289.5,-29.75"/>
</g>
</g>
</svg>
