<?xml version="1.0" encoding="UTF-8" standalone="no"?>
<!DOCTYPE svg PUBLIC "-//W3C//DTD SVG 1.1//EN"
 "http://www.w3.org/Graphics/SVG/1.1/DTD/svg11.dtd">
<!-- Generated by graphviz version 2.43.0 (0)
 -->
<!-- Title: /home/runner/work/Raytracer/Raytracer/src/Entities/Transform/Transform.hpp Pages: 1 -->
<svg width="3600pt" height="206pt"
 viewBox="0.00 0.00 3600.00 206.00" xmlns="http://www.w3.org/2000/svg" xmlns:xlink="http://www.w3.org/1999/xlink">
<g id="graph0" class="graph" transform="scale(1 1) rotate(0) translate(4 202)">
<title>/home/runner/work/Raytracer/Raytracer/src/Entities/Transform/Transform.hpp</title>
<polygon fill="white" stroke="transparent" points="-4,4 -4,-202 3596,-202 3596,4 -4,4"/>
<!-- Node1 -->
<g id="node1" class="node">
<title>Node1</title>
<g id="a_node1"><a xlink:title=" ">
<polygon fill="#bfbfbf" stroke="black" points="1725.5,-156.5 1725.5,-197.5 1884.5,-197.5 1884.5,-156.5 1725.5,-156.5"/>
<text text-anchor="start" x="1733.5" y="-185.5" font-family="Helvetica,sans-Serif" font-size="10.00">/home/runner/work/Raytracer</text>
<text text-anchor="start" x="1733.5" y="-174.5" font-family="Helvetica,sans-Serif" font-size="10.00">/Raytracer/src/Entities</text>
<text text-anchor="middle" x="1805" y="-163.5" font-family="Helvetica,sans-Serif" font-size="10.00">/Transform/Transform.hpp</text>
</a>
</g>
</g>
<!-- Node2 -->
<g id="node2" class="node">
<title>Node2</title>
<g id="a_node2"><a xlink:href="a00101.html" target="_top" xlink:title=" ">
<polygon fill="white" stroke="black" points="0,-78.5 0,-119.5 168,-119.5 168,-78.5 0,-78.5"/>
<text text-anchor="start" x="8" y="-107.5" font-family="Helvetica,sans-Serif" font-size="10.00">/home/runner/work/Raytracer</text>
<text text-anchor="start" x="8" y="-96.5" font-family="Helvetica,sans-Serif" font-size="10.00">/Raytracer/src/Display/Modules</text>
<text text-anchor="middle" x="84" y="-85.5" font-family="Helvetica,sans-Serif" font-size="10.00">/CanvasModule.hpp</text>
</a>
</g>
</g>
<!-- Node1&#45;&gt;Node2 -->
<g id="edge1" class="edge">
<title>Node1&#45;&gt;Node2</title>
<path fill="none" stroke="midnightblue" d="M1715.1,-175.01C1419.34,-171.42 478.3,-157.28 177,-120 174.05,-119.63 171.05,-119.22 168.04,-118.77"/>
<polygon fill="midnightblue" stroke="midnightblue" points="1715.3,-178.51 1725.35,-175.13 1715.39,-171.51 1715.3,-178.51"/>
</g>
<!-- Node3 -->
<g id="node3" class="node">
<title>Node3</title>
<g id="a_node3"><a xlink:href="a00104.html" target="_top" xlink:title=" ">
<polygon fill="white" stroke="black" points="186,-78.5 186,-119.5 354,-119.5 354,-78.5 186,-78.5"/>
<text text-anchor="start" x="194" y="-107.5" font-family="Helvetica,sans-Serif" font-size="10.00">/home/runner/work/Raytracer</text>
<text text-anchor="start" x="194" y="-96.5" font-family="Helvetica,sans-Serif" font-size="10.00">/Raytracer/src/Display/Modules</text>
<text text-anchor="middle" x="270" y="-85.5" font-family="Helvetica,sans-Serif" font-size="10.00">/ProgressModule.hpp</text>
</a>
</g>
</g>
<!-- Node1&#45;&gt;Node3 -->
<g id="edge2" class="edge">
<title>Node1&#45;&gt;Node3</title>
<path fill="none" stroke="midnightblue" d="M1714.81,-174.54C1441.72,-169.8 626.36,-153.18 363,-120 360.05,-119.63 357.06,-119.21 354.04,-118.75"/>
<polygon fill="midnightblue" stroke="midnightblue" points="1715.02,-178.04 1725.08,-174.72 1715.14,-171.05 1715.02,-178.04"/>
</g>
<!-- Node4 -->
<g id="node4" class="node">
<title>Node4</title>
<g id="a_node4"><a xlink:href="a00263.html" target="_top" xlink:title=" ">
<polygon fill="white" stroke="black" points="372.5,-78.5 372.5,-119.5 561.5,-119.5 561.5,-78.5 372.5,-78.5"/>
<text text-anchor="start" x="380.5" y="-107.5" font-family="Helvetica,sans-Serif" font-size="10.00">/home/runner/work/Raytracer</text>
<text text-anchor="start" x="380.5" y="-96.5" font-family="Helvetica,sans-Serif" font-size="10.00">/Raytracer/PluginsExt/AmbientLight</text>
<text text-anchor="middle" x="467" y="-85.5" font-family="Helvetica,sans-Serif" font-size="10.00">/AmbientLightEntity.hpp</text>
</a>
</g>
</g>
<!-- Node1&#45;&gt;Node4 -->
<g id="edge3" class="edge">
<title>Node1&#45;&gt;Node4</title>
<path fill="none" stroke="midnightblue" d="M1715.21,-176.36C1511.15,-176.22 997.21,-170.38 571,-120 567.9,-119.63 564.75,-119.23 561.57,-118.79"/>
<polygon fill="midnightblue" stroke="midnightblue" points="1715.27,-179.86 1725.27,-176.36 1715.27,-172.86 1715.27,-179.86"/>
</g>
<!-- Node6 -->
<g id="node6" class="node">
<title>Node6</title>
<g id="a_node6"><a xlink:href="a00281.html" target="_top" xlink:title=" ">
<polygon fill="white" stroke="black" points="580,-78.5 580,-119.5 742,-119.5 742,-78.5 580,-78.5"/>
<text text-anchor="start" x="588" y="-107.5" font-family="Helvetica,sans-Serif" font-size="10.00">/home/runner/work/Raytracer</text>
<text text-anchor="start" x="588" y="-96.5" font-family="Helvetica,sans-Serif" font-size="10.00">/Raytracer/PluginsExt/Camera</text>
<text text-anchor="middle" x="661" y="-85.5" font-family="Helvetica,sans-Serif" font-size="10.00">/Basic/CameraEntity.hpp</text>
</a>
</g>
</g>
<!-- Node1&#45;&gt;Node6 -->
<g id="edge5" class="edge">
<title>Node1&#45;&gt;Node6</title>
<path fill="none" stroke="midnightblue" d="M1715.16,-176.22C1532.61,-175.58 1105.59,-168.48 751,-120 748.15,-119.61 745.25,-119.18 742.33,-118.71"/>
<polygon fill="midnightblue" stroke="midnightblue" points="1715.23,-179.72 1725.24,-176.25 1715.26,-172.72 1715.23,-179.72"/>
</g>
<!-- Node8 -->
<g id="node8" class="node">
<title>Node8</title>
<g id="a_node8"><a xlink:href="a00287.html" target="_top" xlink:title=" ">
<polygon fill="white" stroke="black" points="760,-78.5 760,-119.5 938,-119.5 938,-78.5 760,-78.5"/>
<text text-anchor="start" x="768" y="-107.5" font-family="Helvetica,sans-Serif" font-size="10.00">/home/runner/work/Raytracer</text>
<text text-anchor="start" x="768" y="-96.5" font-family="Helvetica,sans-Serif" font-size="10.00">/Raytracer/PluginsExt/Camera</text>
<text text-anchor="middle" x="849" y="-85.5" font-family="Helvetica,sans-Serif" font-size="10.00">/Cluster/CameraClusterEntity.hpp</text>
</a>
</g>
</g>
<!-- Node1&#45;&gt;Node8 -->
<g id="edge7" class="edge">
<title>Node1&#45;&gt;Node8</title>
<path fill="none" stroke="midnightblue" d="M1715.33,-174.16C1558.78,-170.06 1225.69,-157.36 947,-120 944.07,-119.61 941.1,-119.18 938.11,-118.72"/>
<polygon fill="midnightblue" stroke="midnightblue" points="1715.3,-177.66 1725.39,-174.42 1715.48,-170.66 1715.3,-177.66"/>
</g>
<!-- Node10 -->
<g id="node10" class="node">
<title>Node10</title>
<g id="a_node10"><a xlink:href="a00296.html" target="_top" xlink:title=" ">
<polygon fill="white" stroke="black" points="956.5,-78.5 956.5,-119.5 1157.5,-119.5 1157.5,-78.5 956.5,-78.5"/>
<text text-anchor="start" x="964.5" y="-107.5" font-family="Helvetica,sans-Serif" font-size="10.00">/home/runner/work/Raytracer</text>
<text text-anchor="start" x="964.5" y="-96.5" font-family="Helvetica,sans-Serif" font-size="10.00">/Raytracer/PluginsExt/Camera</text>
<text text-anchor="middle" x="1057" y="-85.5" font-family="Helvetica,sans-Serif" font-size="10.00">/FullCustom/CameraCustomEntity.hpp</text>
</a>
</g>
</g>
<!-- Node1&#45;&gt;Node10 -->
<g id="edge9" class="edge">
<title>Node1&#45;&gt;Node10</title>
<path fill="none" stroke="midnightblue" d="M1715.09,-170.8C1591.14,-163.01 1360.96,-146.37 1166,-120 1163.24,-119.63 1160.43,-119.23 1157.61,-118.82"/>
<polygon fill="midnightblue" stroke="midnightblue" points="1715.09,-174.3 1725.29,-171.43 1715.52,-167.32 1715.09,-174.3"/>
</g>
<!-- Node12 -->
<g id="node12" class="node">
<title>Node12</title>
<g id="a_node12"><a xlink:href="a00311.html" target="_top" xlink:title=" ">
<polygon fill="white" stroke="black" points="1175.5,-78.5 1175.5,-119.5 1334.5,-119.5 1334.5,-78.5 1175.5,-78.5"/>
<text text-anchor="start" x="1183.5" y="-107.5" font-family="Helvetica,sans-Serif" font-size="10.00">/home/runner/work/Raytracer</text>
<text text-anchor="start" x="1183.5" y="-96.5" font-family="Helvetica,sans-Serif" font-size="10.00">/Raytracer/PluginsExt/Cone</text>
<text text-anchor="middle" x="1255" y="-85.5" font-family="Helvetica,sans-Serif" font-size="10.00">/ConeEntity.hpp</text>
</a>
</g>
</g>
<!-- Node1&#45;&gt;Node12 -->
<g id="edge11" class="edge">
<title>Node1&#45;&gt;Node12</title>
<path fill="none" stroke="midnightblue" d="M1715.15,-167.77C1621.96,-158.62 1472.2,-142.13 1344,-120 1341.03,-119.49 1338.02,-118.94 1334.98,-118.37"/>
<polygon fill="midnightblue" stroke="midnightblue" points="1714.82,-171.26 1725.11,-168.75 1715.5,-164.29 1714.82,-171.26"/>
</g>
<!-- Node14 -->
<g id="node14" class="node">
<title>Node14</title>
<g id="a_node14"><a xlink:href="a00317.html" target="_top" xlink:title=" ">
<polygon fill="white" stroke="black" points="1353,-78.5 1353,-119.5 1517,-119.5 1517,-78.5 1353,-78.5"/>
<text text-anchor="start" x="1361" y="-107.5" font-family="Helvetica,sans-Serif" font-size="10.00">/home/runner/work/Raytracer</text>
<text text-anchor="start" x="1361" y="-96.5" font-family="Helvetica,sans-Serif" font-size="10.00">/Raytracer/PluginsExt/Cylinder</text>
<text text-anchor="middle" x="1435" y="-85.5" font-family="Helvetica,sans-Serif" font-size="10.00">/CylinderEntity.hpp</text>
</a>
</g>
</g>
<!-- Node1&#45;&gt;Node14 -->
<g id="edge13" class="edge">
<title>Node1&#45;&gt;Node14</title>
<path fill="none" stroke="midnightblue" d="M1715.23,-158.41C1660.49,-147.58 1589.15,-133.28 1526,-120 1523.15,-119.4 1520.25,-118.79 1517.33,-118.16"/>
<polygon fill="midnightblue" stroke="midnightblue" points="1714.76,-161.89 1725.25,-160.39 1716.12,-155.02 1714.76,-161.89"/>
</g>
<!-- Node16 -->
<g id="node16" class="node">
<title>Node16</title>
<g id="a_node16"><a xlink:href="a00323.html" target="_top" xlink:title=" ">
<polygon fill="white" stroke="black" points="1535.5,-78.5 1535.5,-119.5 1694.5,-119.5 1694.5,-78.5 1535.5,-78.5"/>
<text text-anchor="start" x="1543.5" y="-107.5" font-family="Helvetica,sans-Serif" font-size="10.00">/home/runner/work/Raytracer</text>
<text text-anchor="start" x="1543.5" y="-96.5" font-family="Helvetica,sans-Serif" font-size="10.00">/Raytracer/PluginsExt/Disk</text>
<text text-anchor="middle" x="1615" y="-85.5" font-family="Helvetica,sans-Serif" font-size="10.00">/DiskEntity.hpp</text>
</a>
</g>
</g>
<!-- Node1&#45;&gt;Node16 -->
<g id="edge15" class="edge">
<title>Node1&#45;&gt;Node16</title>
<path fill="none" stroke="midnightblue" d="M1746.52,-152.61C1720,-142 1689,-129.6 1663.76,-119.51"/>
<polygon fill="midnightblue" stroke="midnightblue" points="1745.49,-155.96 1756.07,-156.43 1748.09,-149.46 1745.49,-155.96"/>
</g>
<!-- Node18 -->
<g id="node18" class="node">
<title>Node18</title>
<g id="a_node18"><a xlink:href="a00329.html" target="_top" xlink:title=" ">
<polygon fill="white" stroke="black" points="1712.5,-78.5 1712.5,-119.5 1897.5,-119.5 1897.5,-78.5 1712.5,-78.5"/>
<text text-anchor="start" x="1720.5" y="-107.5" font-family="Helvetica,sans-Serif" font-size="10.00">/home/runner/work/Raytracer</text>
<text text-anchor="start" x="1720.5" y="-96.5" font-family="Helvetica,sans-Serif" font-size="10.00">/Raytracer/PluginsExt/LimitedCone</text>
<text text-anchor="middle" x="1805" y="-85.5" font-family="Helvetica,sans-Serif" font-size="10.00">/LimitedConeEntity.hpp</text>
</a>
</g>
</g>
<!-- Node1&#45;&gt;Node18 -->
<g id="edge17" class="edge">
<title>Node1&#45;&gt;Node18</title>
<path fill="none" stroke="midnightblue" d="M1805,-146.3C1805,-137.3 1805,-127.65 1805,-119.51"/>
<polygon fill="midnightblue" stroke="midnightblue" points="1801.5,-146.43 1805,-156.43 1808.5,-146.43 1801.5,-146.43"/>
</g>
<!-- Node20 -->
<g id="node20" class="node">
<title>Node20</title>
<g id="a_node20"><a xlink:href="a00335.html" target="_top" xlink:title=" ">
<polygon fill="white" stroke="black" points="1915.5,-78.5 1915.5,-119.5 2116.5,-119.5 2116.5,-78.5 1915.5,-78.5"/>
<text text-anchor="start" x="1923.5" y="-107.5" font-family="Helvetica,sans-Serif" font-size="10.00">/home/runner/work/Raytracer</text>
<text text-anchor="start" x="1923.5" y="-96.5" font-family="Helvetica,sans-Serif" font-size="10.00">/Raytracer/PluginsExt/LimitedCylinder</text>
<text text-anchor="middle" x="2016" y="-85.5" font-family="Helvetica,sans-Serif" font-size="10.00">/LimitedCylinderEntity.hpp</text>
</a>
</g>
</g>
<!-- Node1&#45;&gt;Node20 -->
<g id="edge19" class="edge">
<title>Node1&#45;&gt;Node20</title>
<path fill="none" stroke="midnightblue" d="M1868.78,-153.03C1898.49,-142.33 1933.45,-129.73 1961.85,-119.51"/>
<polygon fill="midnightblue" stroke="midnightblue" points="1867.56,-149.75 1859.34,-156.43 1869.93,-156.33 1867.56,-149.75"/>
</g>
<!-- Node22 -->
<g id="node22" class="node">
<title>Node22</title>
<g id="a_node22"><a xlink:href="a00341.html" target="_top" xlink:title=" ">
<polygon fill="white" stroke="black" points="2135,-78.5 2135,-119.5 2323,-119.5 2323,-78.5 2135,-78.5"/>
<text text-anchor="start" x="2143" y="-107.5" font-family="Helvetica,sans-Serif" font-size="10.00">/home/runner/work/Raytracer</text>
<text text-anchor="start" x="2143" y="-96.5" font-family="Helvetica,sans-Serif" font-size="10.00">/Raytracer/PluginsExt/LimitedPlane</text>
<text text-anchor="middle" x="2229" y="-85.5" font-family="Helvetica,sans-Serif" font-size="10.00">/LimitedPlaneEntity.hpp</text>
</a>
</g>
</g>
<!-- Node1&#45;&gt;Node22 -->
<g id="edge21" class="edge">
<title>Node1&#45;&gt;Node22</title>
<path fill="none" stroke="midnightblue" d="M1894.72,-160.71C1958.9,-149.67 2047.33,-134.26 2125,-120 2128.26,-119.4 2131.57,-118.79 2134.91,-118.17"/>
<polygon fill="midnightblue" stroke="midnightblue" points="1893.89,-157.3 1884.63,-162.45 1895.08,-164.2 1893.89,-157.3"/>
</g>
<!-- Node24 -->
<g id="node24" class="node">
<title>Node24</title>
<g id="a_node24"><a xlink:href="a00353.html" target="_top" xlink:title=" ">
<polygon fill="white" stroke="black" points="2341.5,-78.5 2341.5,-119.5 2500.5,-119.5 2500.5,-78.5 2341.5,-78.5"/>
<text text-anchor="start" x="2349.5" y="-107.5" font-family="Helvetica,sans-Serif" font-size="10.00">/home/runner/work/Raytracer</text>
<text text-anchor="start" x="2349.5" y="-96.5" font-family="Helvetica,sans-Serif" font-size="10.00">/Raytracer/PluginsExt/Obj</text>
<text text-anchor="middle" x="2421" y="-85.5" font-family="Helvetica,sans-Serif" font-size="10.00">/ObjEntity.hpp</text>
</a>
</g>
</g>
<!-- Node1&#45;&gt;Node24 -->
<g id="edge23" class="edge">
<title>Node1&#45;&gt;Node24</title>
<path fill="none" stroke="midnightblue" d="M1895.11,-169.6C2000.38,-161.39 2179.57,-145.14 2332,-120 2334.97,-119.51 2337.99,-118.98 2341.03,-118.43"/>
<polygon fill="midnightblue" stroke="midnightblue" points="1894.55,-166.13 1884.85,-170.39 1895.09,-173.11 1894.55,-166.13"/>
</g>
<!-- Node26 -->
<g id="node26" class="node">
<title>Node26</title>
<g id="a_node26"><a xlink:href="a00365.html" target="_top" xlink:title=" ">
<polygon fill="white" stroke="black" points="2518.5,-78.5 2518.5,-119.5 2677.5,-119.5 2677.5,-78.5 2518.5,-78.5"/>
<text text-anchor="start" x="2526.5" y="-107.5" font-family="Helvetica,sans-Serif" font-size="10.00">/home/runner/work/Raytracer</text>
<text text-anchor="start" x="2526.5" y="-96.5" font-family="Helvetica,sans-Serif" font-size="10.00">/Raytracer/PluginsExt/Plane</text>
<text text-anchor="middle" x="2598" y="-85.5" font-family="Helvetica,sans-Serif" font-size="10.00">/PlaneEntity.hpp</text>
</a>
</g>
</g>
<!-- Node1&#45;&gt;Node26 -->
<g id="edge25" class="edge">
<title>Node1&#45;&gt;Node26</title>
<path fill="none" stroke="midnightblue" d="M1894.84,-172.93C2029.11,-167.42 2289.83,-153.17 2509,-120 2511.98,-119.55 2515,-119.06 2518.05,-118.53"/>
<polygon fill="midnightblue" stroke="midnightblue" points="1894.45,-169.44 1884.6,-173.34 1894.74,-176.44 1894.45,-169.44"/>
</g>
<!-- Node28 -->
<g id="node28" class="node">
<title>Node28</title>
<g id="a_node28"><a xlink:href="a00371.html" target="_top" xlink:title=" ">
<polygon fill="white" stroke="black" points="2695.5,-78.5 2695.5,-119.5 2868.5,-119.5 2868.5,-78.5 2695.5,-78.5"/>
<text text-anchor="start" x="2703.5" y="-107.5" font-family="Helvetica,sans-Serif" font-size="10.00">/home/runner/work/Raytracer</text>
<text text-anchor="start" x="2703.5" y="-96.5" font-family="Helvetica,sans-Serif" font-size="10.00">/Raytracer/PluginsExt/PointLight</text>
<text text-anchor="middle" x="2782" y="-85.5" font-family="Helvetica,sans-Serif" font-size="10.00">/PointLightEntity.hpp</text>
</a>
</g>
</g>
<!-- Node1&#45;&gt;Node28 -->
<g id="edge27" class="edge">
<title>Node1&#45;&gt;Node28</title>
<path fill="none" stroke="midnightblue" d="M1894.9,-174.49C2054.75,-170.87 2398.62,-158.87 2686,-120 2689.12,-119.58 2692.29,-119.11 2695.49,-118.61"/>
<polygon fill="midnightblue" stroke="midnightblue" points="1894.56,-171 1884.64,-174.72 1894.72,-178 1894.56,-171"/>
</g>
<!-- Node30 -->
<g id="node30" class="node">
<title>Node30</title>
<g id="a_node30"><a xlink:href="a00383.html" target="_top" xlink:title=" ">
<polygon fill="white" stroke="black" points="2886.5,-78.5 2886.5,-119.5 3045.5,-119.5 3045.5,-78.5 2886.5,-78.5"/>
<text text-anchor="start" x="2894.5" y="-107.5" font-family="Helvetica,sans-Serif" font-size="10.00">/home/runner/work/Raytracer</text>
<text text-anchor="start" x="2894.5" y="-96.5" font-family="Helvetica,sans-Serif" font-size="10.00">/Raytracer/PluginsExt/Sphere</text>
<text text-anchor="middle" x="2966" y="-85.5" font-family="Helvetica,sans-Serif" font-size="10.00">/SphereEntity.hpp</text>
</a>
</g>
</g>
<!-- Node1&#45;&gt;Node30 -->
<g id="edge29" class="edge">
<title>Node1&#45;&gt;Node30</title>
<path fill="none" stroke="midnightblue" d="M1894.99,-176.41C2079.88,-176.13 2515.5,-169.7 2877,-120 2879.98,-119.59 2883.01,-119.13 2886.06,-118.63"/>
<polygon fill="midnightblue" stroke="midnightblue" points="1894.77,-172.91 1884.78,-176.42 1894.78,-179.91 1894.77,-172.91"/>
</g>
<!-- Node32 -->
<g id="node32" class="node">
<title>Node32</title>
<g id="a_node32"><a xlink:href="a00389.html" target="_top" xlink:title=" ">
<polygon fill="white" stroke="black" points="3064,-78.5 3064,-119.5 3234,-119.5 3234,-78.5 3064,-78.5"/>
<text text-anchor="start" x="3072" y="-107.5" font-family="Helvetica,sans-Serif" font-size="10.00">/home/runner/work/Raytracer</text>
<text text-anchor="start" x="3072" y="-96.5" font-family="Helvetica,sans-Serif" font-size="10.00">/Raytracer/PluginsExt/SpotLight</text>
<text text-anchor="middle" x="3149" y="-85.5" font-family="Helvetica,sans-Serif" font-size="10.00">/SpotLightEntity.hpp</text>
</a>
</g>
</g>
<!-- Node1&#45;&gt;Node32 -->
<g id="edge31" class="edge">
<title>Node1&#45;&gt;Node32</title>
<path fill="none" stroke="midnightblue" d="M1894.91,-173.87C2142.29,-167.71 2829.53,-148.47 3054,-120 3057.26,-119.59 3060.58,-119.12 3063.92,-118.61"/>
<polygon fill="midnightblue" stroke="midnightblue" points="1894.79,-170.37 1884.88,-174.12 1894.96,-177.37 1894.79,-170.37"/>
</g>
<!-- Node34 -->
<g id="node34" class="node">
<title>Node34</title>
<g id="a_node34"><a xlink:href="a00395.html" target="_top" xlink:title=" ">
<polygon fill="white" stroke="black" points="3252.5,-78.5 3252.5,-119.5 3411.5,-119.5 3411.5,-78.5 3252.5,-78.5"/>
<text text-anchor="start" x="3260.5" y="-107.5" font-family="Helvetica,sans-Serif" font-size="10.00">/home/runner/work/Raytracer</text>
<text text-anchor="start" x="3260.5" y="-96.5" font-family="Helvetica,sans-Serif" font-size="10.00">/Raytracer/PluginsExt/Torus</text>
<text text-anchor="middle" x="3332" y="-85.5" font-family="Helvetica,sans-Serif" font-size="10.00">/TorusEntity.hpp</text>
</a>
</g>
</g>
<!-- Node1&#45;&gt;Node34 -->
<g id="edge33" class="edge">
<title>Node1&#45;&gt;Node34</title>
<path fill="none" stroke="midnightblue" d="M1894.95,-174.64C2167.33,-170.19 2980.53,-154.31 3243,-120 3245.98,-119.61 3249.01,-119.17 3252.07,-118.68"/>
<polygon fill="midnightblue" stroke="midnightblue" points="1894.65,-171.15 1884.71,-174.81 1894.77,-178.15 1894.65,-171.15"/>
</g>
<!-- Node36 -->
<g id="node36" class="node">
<title>Node36</title>
<g id="a_node36"><a xlink:href="a00407.html" target="_top" xlink:title=" ">
<polygon fill="white" stroke="black" points="3430,-78.5 3430,-119.5 3592,-119.5 3592,-78.5 3430,-78.5"/>
<text text-anchor="start" x="3438" y="-107.5" font-family="Helvetica,sans-Serif" font-size="10.00">/home/runner/work/Raytracer</text>
<text text-anchor="start" x="3438" y="-96.5" font-family="Helvetica,sans-Serif" font-size="10.00">/Raytracer/PluginsExt/Triangle</text>
<text text-anchor="middle" x="3511" y="-85.5" font-family="Helvetica,sans-Serif" font-size="10.00">/TriangleEntity.hpp</text>
</a>
</g>
</g>
<!-- Node1&#45;&gt;Node36 -->
<g id="edge35" class="edge">
<title>Node1&#45;&gt;Node36</title>
<path fill="none" stroke="midnightblue" d="M1894.7,-175.04C2188.68,-171.54 3121.36,-157.68 3420,-120 3423.21,-119.6 3426.47,-119.13 3429.76,-118.62"/>
<polygon fill="midnightblue" stroke="midnightblue" points="1894.47,-171.54 1884.51,-175.16 1894.55,-178.54 1894.47,-171.54"/>
</g>
<!-- Node5 -->
<g id="node5" class="node">
<title>Node5</title>
<g id="a_node5"><a xlink:href="a00260.html" target="_top" xlink:title=" ">
<polygon fill="white" stroke="black" points="356.5,-0.5 356.5,-41.5 545.5,-41.5 545.5,-0.5 356.5,-0.5"/>
<text text-anchor="start" x="364.5" y="-29.5" font-family="Helvetica,sans-Serif" font-size="10.00">/home/runner/work/Raytracer</text>
<text text-anchor="start" x="364.5" y="-18.5" font-family="Helvetica,sans-Serif" font-size="10.00">/Raytracer/PluginsExt/AmbientLight</text>
<text text-anchor="middle" x="451" y="-7.5" font-family="Helvetica,sans-Serif" font-size="10.00">/AmbientLightCreator.hpp</text>
</a>
</g>
</g>
<!-- Node4&#45;&gt;Node5 -->
<g id="edge4" class="edge">
<title>Node4&#45;&gt;Node5</title>
<path fill="none" stroke="midnightblue" d="M460.81,-68.59C458.9,-59.51 456.84,-49.74 455.11,-41.51"/>
<polygon fill="midnightblue" stroke="midnightblue" points="457.39,-69.36 462.88,-78.43 464.24,-67.92 457.39,-69.36"/>
</g>
<!-- Node7 -->
<g id="node7" class="node">
<title>Node7</title>
<g id="a_node7"><a xlink:href="a00278.html" target="_top" xlink:title=" ">
<polygon fill="white" stroke="black" points="564,-0.5 564,-41.5 726,-41.5 726,-0.5 564,-0.5"/>
<text text-anchor="start" x="572" y="-29.5" font-family="Helvetica,sans-Serif" font-size="10.00">/home/runner/work/Raytracer</text>
<text text-anchor="start" x="572" y="-18.5" font-family="Helvetica,sans-Serif" font-size="10.00">/Raytracer/PluginsExt/Camera</text>
<text text-anchor="middle" x="645" y="-7.5" font-family="Helvetica,sans-Serif" font-size="10.00">/Basic/CameraCreator.hpp</text>
</a>
</g>
</g>
<!-- Node6&#45;&gt;Node7 -->
<g id="edge6" class="edge">
<title>Node6&#45;&gt;Node7</title>
<path fill="none" stroke="midnightblue" d="M654.81,-68.59C652.9,-59.51 650.84,-49.74 649.11,-41.51"/>
<polygon fill="midnightblue" stroke="midnightblue" points="651.39,-69.36 656.88,-78.43 658.24,-67.92 651.39,-69.36"/>
</g>
<!-- Node9 -->
<g id="node9" class="node">
<title>Node9</title>
<g id="a_node9"><a xlink:href="a00284.html" target="_top" xlink:title=" ">
<polygon fill="white" stroke="black" points="744,-0.5 744,-41.5 930,-41.5 930,-0.5 744,-0.5"/>
<text text-anchor="start" x="752" y="-29.5" font-family="Helvetica,sans-Serif" font-size="10.00">/home/runner/work/Raytracer</text>
<text text-anchor="start" x="752" y="-18.5" font-family="Helvetica,sans-Serif" font-size="10.00">/Raytracer/PluginsExt/Camera</text>
<text text-anchor="middle" x="837" y="-7.5" font-family="Helvetica,sans-Serif" font-size="10.00">/Cluster/CameraClusterCreator.hpp</text>
</a>
</g>
</g>
<!-- Node8&#45;&gt;Node9 -->
<g id="edge8" class="edge">
<title>Node8&#45;&gt;Node9</title>
<path fill="none" stroke="midnightblue" d="M844.31,-68.3C842.89,-59.3 841.37,-49.65 840.08,-41.51"/>
<polygon fill="midnightblue" stroke="midnightblue" points="840.89,-69.1 845.91,-78.43 847.81,-68 840.89,-69.1"/>
</g>
<!-- Node11 -->
<g id="node11" class="node">
<title>Node11</title>
<g id="a_node11"><a xlink:href="a00293.html" target="_top" xlink:title=" ">
<polygon fill="white" stroke="black" points="948.5,-0.5 948.5,-41.5 1157.5,-41.5 1157.5,-0.5 948.5,-0.5"/>
<text text-anchor="start" x="956.5" y="-29.5" font-family="Helvetica,sans-Serif" font-size="10.00">/home/runner/work/Raytracer</text>
<text text-anchor="start" x="956.5" y="-18.5" font-family="Helvetica,sans-Serif" font-size="10.00">/Raytracer/PluginsExt/Camera</text>
<text text-anchor="middle" x="1053" y="-7.5" font-family="Helvetica,sans-Serif" font-size="10.00">/FullCustom/CameraCustomCreator.hpp</text>
</a>
</g>
</g>
<!-- Node10&#45;&gt;Node11 -->
<g id="edge10" class="edge">
<title>Node10&#45;&gt;Node11</title>
<path fill="none" stroke="midnightblue" d="M1055.44,-68.3C1054.96,-59.3 1054.46,-49.65 1054.03,-41.51"/>
<polygon fill="midnightblue" stroke="midnightblue" points="1051.95,-68.63 1055.97,-78.43 1058.94,-68.26 1051.95,-68.63"/>
</g>
<!-- Node13 -->
<g id="node13" class="node">
<title>Node13</title>
<g id="a_node13"><a xlink:href="a00308.html" target="_top" xlink:title=" ">
<polygon fill="white" stroke="black" points="1175.5,-0.5 1175.5,-41.5 1334.5,-41.5 1334.5,-0.5 1175.5,-0.5"/>
<text text-anchor="start" x="1183.5" y="-29.5" font-family="Helvetica,sans-Serif" font-size="10.00">/home/runner/work/Raytracer</text>
<text text-anchor="start" x="1183.5" y="-18.5" font-family="Helvetica,sans-Serif" font-size="10.00">/Raytracer/PluginsExt/Cone</text>
<text text-anchor="middle" x="1255" y="-7.5" font-family="Helvetica,sans-Serif" font-size="10.00">/ConeCreator.hpp</text>
</a>
</g>
</g>
<!-- Node12&#45;&gt;Node13 -->
<g id="edge12" class="edge">
<title>Node12&#45;&gt;Node13</title>
<path fill="none" stroke="midnightblue" d="M1255,-68.3C1255,-59.3 1255,-49.65 1255,-41.51"/>
<polygon fill="midnightblue" stroke="midnightblue" points="1251.5,-68.43 1255,-78.43 1258.5,-68.43 1251.5,-68.43"/>
</g>
<!-- Node15 -->
<g id="node15" class="node">
<title>Node15</title>
<g id="a_node15"><a xlink:href="a00314.html" target="_top" xlink:title=" ">
<polygon fill="white" stroke="black" points="1353,-0.5 1353,-41.5 1517,-41.5 1517,-0.5 1353,-0.5"/>
<text text-anchor="start" x="1361" y="-29.5" font-family="Helvetica,sans-Serif" font-size="10.00">/home/runner/work/Raytracer</text>
<text text-anchor="start" x="1361" y="-18.5" font-family="Helvetica,sans-Serif" font-size="10.00">/Raytracer/PluginsExt/Cylinder</text>
<text text-anchor="middle" x="1435" y="-7.5" font-family="Helvetica,sans-Serif" font-size="10.00">/CylinderCreator.hpp</text>
</a>
</g>
</g>
<!-- Node14&#45;&gt;Node15 -->
<g id="edge14" class="edge">
<title>Node14&#45;&gt;Node15</title>
<path fill="none" stroke="midnightblue" d="M1435,-68.3C1435,-59.3 1435,-49.65 1435,-41.51"/>
<polygon fill="midnightblue" stroke="midnightblue" points="1431.5,-68.43 1435,-78.43 1438.5,-68.43 1431.5,-68.43"/>
</g>
<!-- Node17 -->
<g id="node17" class="node">
<title>Node17</title>
<g id="a_node17"><a xlink:href="a00320.html" target="_top" xlink:title=" ">
<polygon fill="white" stroke="black" points="1535.5,-0.5 1535.5,-41.5 1694.5,-41.5 1694.5,-0.5 1535.5,-0.5"/>
<text text-anchor="start" x="1543.5" y="-29.5" font-family="Helvetica,sans-Serif" font-size="10.00">/home/runner/work/Raytracer</text>
<text text-anchor="start" x="1543.5" y="-18.5" font-family="Helvetica,sans-Serif" font-size="10.00">/Raytracer/PluginsExt/Disk</text>
<text text-anchor="middle" x="1615" y="-7.5" font-family="Helvetica,sans-Serif" font-size="10.00">/DiskCreator.hpp</text>
</a>
</g>
</g>
<!-- Node16&#45;&gt;Node17 -->
<g id="edge16" class="edge">
<title>Node16&#45;&gt;Node17</title>
<path fill="none" stroke="midnightblue" d="M1615,-68.3C1615,-59.3 1615,-49.65 1615,-41.51"/>
<polygon fill="midnightblue" stroke="midnightblue" points="1611.5,-68.43 1615,-78.43 1618.5,-68.43 1611.5,-68.43"/>
</g>
<!-- Node19 -->
<g id="node19" class="node">
<title>Node19</title>
<g id="a_node19"><a xlink:href="a00326.html" target="_top" xlink:title=" ">
<polygon fill="white" stroke="black" points="1712.5,-0.5 1712.5,-41.5 1897.5,-41.5 1897.5,-0.5 1712.5,-0.5"/>
<text text-anchor="start" x="1720.5" y="-29.5" font-family="Helvetica,sans-Serif" font-size="10.00">/home/runner/work/Raytracer</text>
<text text-anchor="start" x="1720.5" y="-18.5" font-family="Helvetica,sans-Serif" font-size="10.00">/Raytracer/PluginsExt/LimitedCone</text>
<text text-anchor="middle" x="1805" y="-7.5" font-family="Helvetica,sans-Serif" font-size="10.00">/LimitedConeCreator.hpp</text>
</a>
</g>
</g>
<!-- Node18&#45;&gt;Node19 -->
<g id="edge18" class="edge">
<title>Node18&#45;&gt;Node19</title>
<path fill="none" stroke="midnightblue" d="M1805,-68.3C1805,-59.3 1805,-49.65 1805,-41.51"/>
<polygon fill="midnightblue" stroke="midnightblue" points="1801.5,-68.43 1805,-78.43 1808.5,-68.43 1801.5,-68.43"/>
</g>
<!-- Node21 -->
<g id="node21" class="node">
<title>Node21</title>
<g id="a_node21"><a xlink:href="a00332.html" target="_top" xlink:title=" ">
<polygon fill="white" stroke="black" points="1915.5,-0.5 1915.5,-41.5 2116.5,-41.5 2116.5,-0.5 1915.5,-0.5"/>
<text text-anchor="start" x="1923.5" y="-29.5" font-family="Helvetica,sans-Serif" font-size="10.00">/home/runner/work/Raytracer</text>
<text text-anchor="start" x="1923.5" y="-18.5" font-family="Helvetica,sans-Serif" font-size="10.00">/Raytracer/PluginsExt/LimitedCylinder</text>
<text text-anchor="middle" x="2016" y="-7.5" font-family="Helvetica,sans-Serif" font-size="10.00">/LimitedCylinderCreator.hpp</text>
</a>
</g>
</g>
<!-- Node20&#45;&gt;Node21 -->
<g id="edge20" class="edge">
<title>Node20&#45;&gt;Node21</title>
<path fill="none" stroke="midnightblue" d="M2016,-68.3C2016,-59.3 2016,-49.65 2016,-41.51"/>
<polygon fill="midnightblue" stroke="midnightblue" points="2012.5,-68.43 2016,-78.43 2019.5,-68.43 2012.5,-68.43"/>
</g>
<!-- Node23 -->
<g id="node23" class="node">
<title>Node23</title>
<g id="a_node23"><a xlink:href="a00338.html" target="_top" xlink:title=" ">
<polygon fill="white" stroke="black" points="2135,-0.5 2135,-41.5 2323,-41.5 2323,-0.5 2135,-0.5"/>
<text text-anchor="start" x="2143" y="-29.5" font-family="Helvetica,sans-Serif" font-size="10.00">/home/runner/work/Raytracer</text>
<text text-anchor="start" x="2143" y="-18.5" font-family="Helvetica,sans-Serif" font-size="10.00">/Raytracer/PluginsExt/LimitedPlane</text>
<text text-anchor="middle" x="2229" y="-7.5" font-family="Helvetica,sans-Serif" font-size="10.00">/LimitedPlaneCreator.hpp</text>
</a>
</g>
</g>
<!-- Node22&#45;&gt;Node23 -->
<g id="edge22" class="edge">
<title>Node22&#45;&gt;Node23</title>
<path fill="none" stroke="midnightblue" d="M2229,-68.3C2229,-59.3 2229,-49.65 2229,-41.51"/>
<polygon fill="midnightblue" stroke="midnightblue" points="2225.5,-68.43 2229,-78.43 2232.5,-68.43 2225.5,-68.43"/>
</g>
<!-- Node25 -->
<g id="node25" class="node">
<title>Node25</title>
<g id="a_node25"><a xlink:href="a00350.html" target="_top" xlink:title=" ">
<polygon fill="white" stroke="black" points="2341.5,-0.5 2341.5,-41.5 2500.5,-41.5 2500.5,-0.5 2341.5,-0.5"/>
<text text-anchor="start" x="2349.5" y="-29.5" font-family="Helvetica,sans-Serif" font-size="10.00">/home/runner/work/Raytracer</text>
<text text-anchor="start" x="2349.5" y="-18.5" font-family="Helvetica,sans-Serif" font-size="10.00">/Raytracer/PluginsExt/Obj</text>
<text text-anchor="middle" x="2421" y="-7.5" font-family="Helvetica,sans-Serif" font-size="10.00">/ObjCreator.hpp</text>
</a>
</g>
</g>
<!-- Node24&#45;&gt;Node25 -->
<g id="edge24" class="edge">
<title>Node24&#45;&gt;Node25</title>
<path fill="none" stroke="midnightblue" d="M2421,-68.3C2421,-59.3 2421,-49.65 2421,-41.51"/>
<polygon fill="midnightblue" stroke="midnightblue" points="2417.5,-68.43 2421,-78.43 2424.5,-68.43 2417.5,-68.43"/>
</g>
<!-- Node27 -->
<g id="node27" class="node">
<title>Node27</title>
<g id="a_node27"><a xlink:href="a00362.html" target="_top" xlink:title=" ">
<polygon fill="white" stroke="black" points="2518.5,-0.5 2518.5,-41.5 2677.5,-41.5 2677.5,-0.5 2518.5,-0.5"/>
<text text-anchor="start" x="2526.5" y="-29.5" font-family="Helvetica,sans-Serif" font-size="10.00">/home/runner/work/Raytracer</text>
<text text-anchor="start" x="2526.5" y="-18.5" font-family="Helvetica,sans-Serif" font-size="10.00">/Raytracer/PluginsExt/Plane</text>
<text text-anchor="middle" x="2598" y="-7.5" font-family="Helvetica,sans-Serif" font-size="10.00">/PlaneCreator.hpp</text>
</a>
</g>
</g>
<!-- Node26&#45;&gt;Node27 -->
<g id="edge26" class="edge">
<title>Node26&#45;&gt;Node27</title>
<path fill="none" stroke="midnightblue" d="M2598,-68.3C2598,-59.3 2598,-49.65 2598,-41.51"/>
<polygon fill="midnightblue" stroke="midnightblue" points="2594.5,-68.43 2598,-78.43 2601.5,-68.43 2594.5,-68.43"/>
</g>
<!-- Node29 -->
<g id="node29" class="node">
<title>Node29</title>
<g id="a_node29"><a xlink:href="a00368.html" target="_top" xlink:title=" ">
<polygon fill="white" stroke="black" points="2695.5,-0.5 2695.5,-41.5 2868.5,-41.5 2868.5,-0.5 2695.5,-0.5"/>
<text text-anchor="start" x="2703.5" y="-29.5" font-family="Helvetica,sans-Serif" font-size="10.00">/home/runner/work/Raytracer</text>
<text text-anchor="start" x="2703.5" y="-18.5" font-family="Helvetica,sans-Serif" font-size="10.00">/Raytracer/PluginsExt/PointLight</text>
<text text-anchor="middle" x="2782" y="-7.5" font-family="Helvetica,sans-Serif" font-size="10.00">/PointLightCreator.hpp</text>
</a>
</g>
</g>
<!-- Node28&#45;&gt;Node29 -->
<g id="edge28" class="edge">
<title>Node28&#45;&gt;Node29</title>
<path fill="none" stroke="midnightblue" d="M2782,-68.3C2782,-59.3 2782,-49.65 2782,-41.51"/>
<polygon fill="midnightblue" stroke="midnightblue" points="2778.5,-68.43 2782,-78.43 2785.5,-68.43 2778.5,-68.43"/>
</g>
<!-- Node31 -->
<g id="node31" class="node">
<title>Node31</title>
<g id="a_node31"><a xlink:href="a00380.html" target="_top" xlink:title=" ">
<polygon fill="white" stroke="black" points="2886.5,-0.5 2886.5,-41.5 3045.5,-41.5 3045.5,-0.5 2886.5,-0.5"/>
<text text-anchor="start" x="2894.5" y="-29.5" font-family="Helvetica,sans-Serif" font-size="10.00">/home/runner/work/Raytracer</text>
<text text-anchor="start" x="2894.5" y="-18.5" font-family="Helvetica,sans-Serif" font-size="10.00">/Raytracer/PluginsExt/Sphere</text>
<text text-anchor="middle" x="2966" y="-7.5" font-family="Helvetica,sans-Serif" font-size="10.00">/SphereCreator.hpp</text>
</a>
</g>
</g>
<!-- Node30&#45;&gt;Node31 -->
<g id="edge30" class="edge">
<title>Node30&#45;&gt;Node31</title>
<path fill="none" stroke="midnightblue" d="M2966,-68.3C2966,-59.3 2966,-49.65 2966,-41.51"/>
<polygon fill="midnightblue" stroke="midnightblue" points="2962.5,-68.43 2966,-78.43 2969.5,-68.43 2962.5,-68.43"/>
</g>
<!-- Node33 -->
<g id="node33" class="node">
<title>Node33</title>
<g id="a_node33"><a xlink:href="a00386.html" target="_top" xlink:title=" ">
<polygon fill="white" stroke="black" points="3064,-0.5 3064,-41.5 3234,-41.5 3234,-0.5 3064,-0.5"/>
<text text-anchor="start" x="3072" y="-29.5" font-family="Helvetica,sans-Serif" font-size="10.00">/home/runner/work/Raytracer</text>
<text text-anchor="start" x="3072" y="-18.5" font-family="Helvetica,sans-Serif" font-size="10.00">/Raytracer/PluginsExt/SpotLight</text>
<text text-anchor="middle" x="3149" y="-7.5" font-family="Helvetica,sans-Serif" font-size="10.00">/SpotLightCreator.hpp</text>
</a>
</g>
</g>
<!-- Node32&#45;&gt;Node33 -->
<g id="edge32" class="edge">
<title>Node32&#45;&gt;Node33</title>
<path fill="none" stroke="midnightblue" d="M3149,-68.3C3149,-59.3 3149,-49.65 3149,-41.51"/>
<polygon fill="midnightblue" stroke="midnightblue" points="3145.5,-68.43 3149,-78.43 3152.5,-68.43 3145.5,-68.43"/>
</g>
<!-- Node35 -->
<g id="node35" class="node">
<title>Node35</title>
<g id="a_node35"><a xlink:href="a00392.html" target="_top" xlink:title=" ">
<polygon fill="white" stroke="black" points="3252.5,-0.5 3252.5,-41.5 3411.5,-41.5 3411.5,-0.5 3252.5,-0.5"/>
<text text-anchor="start" x="3260.5" y="-29.5" font-family="Helvetica,sans-Serif" font-size="10.00">/home/runner/work/Raytracer</text>
<text text-anchor="start" x="3260.5" y="-18.5" font-family="Helvetica,sans-Serif" font-size="10.00">/Raytracer/PluginsExt/Torus</text>
<text text-anchor="middle" x="3332" y="-7.5" font-family="Helvetica,sans-Serif" font-size="10.00">/TorusCreator.hpp</text>
</a>
</g>
</g>
<!-- Node34&#45;&gt;Node35 -->
<g id="edge34" class="edge">
<title>Node34&#45;&gt;Node35</title>
<path fill="none" stroke="midnightblue" d="M3332,-68.3C3332,-59.3 3332,-49.65 3332,-41.51"/>
<polygon fill="midnightblue" stroke="midnightblue" points="3328.5,-68.43 3332,-78.43 3335.5,-68.43 3328.5,-68.43"/>
</g>
<!-- Node37 -->
<g id="node37" class="node">
<title>Node37</title>
<g id="a_node37"><a xlink:href="a00404.html" target="_top" xlink:title=" ">
<polygon fill="white" stroke="black" points="3430,-0.5 3430,-41.5 3592,-41.5 3592,-0.5 3430,-0.5"/>
<text text-anchor="start" x="3438" y="-29.5" font-family="Helvetica,sans-Serif" font-size="10.00">/home/runner/work/Raytracer</text>
<text text-anchor="start" x="3438" y="-18.5" font-family="Helvetica,sans-Serif" font-size="10.00">/Raytracer/PluginsExt/Triangle</text>
<text text-anchor="middle" x="3511" y="-7.5" font-family="Helvetica,sans-Serif" font-size="10.00">/TriangleCreator.hpp</text>
</a>
</g>
</g>
<!-- Node36&#45;&gt;Node37 -->
<g id="edge36" class="edge">
<title>Node36&#45;&gt;Node37</title>
<path fill="none" stroke="midnightblue" d="M3511,-68.3C3511,-59.3 3511,-49.65 3511,-41.51"/>
<polygon fill="midnightblue" stroke="midnightblue" points="3507.5,-68.43 3511,-78.43 3514.5,-68.43 3507.5,-68.43"/>
</g>
</g>
</svg>
