<?xml version="1.0" encoding="UTF-8" standalone="no"?>
<!DOCTYPE svg PUBLIC "-//W3C//DTD SVG 1.1//EN"
 "http://www.w3.org/Graphics/SVG/1.1/DTD/svg11.dtd">
<!-- Generated by graphviz version 2.43.0 (0)
 -->
<!-- Title: /home/runner/work/Raytracer/Raytracer/src/Images/IRayIterator.hpp Pages: 1 -->
<svg width="355pt" height="263pt"
 viewBox="0.00 0.00 354.50 263.00" xmlns="http://www.w3.org/2000/svg" xmlns:xlink="http://www.w3.org/1999/xlink">
<g id="graph0" class="graph" transform="scale(1 1) rotate(0) translate(4 259)">
<title>/home/runner/work/Raytracer/Raytracer/src/Images/IRayIterator.hpp</title>
<polygon fill="white" stroke="transparent" points="-4,4 -4,-259 350.5,-259 350.5,4 -4,4"/>
<!-- Node1 -->
<g id="node1" class="node">
<title>Node1</title>
<g id="a_node1"><a xlink:title=" ">
<polygon fill="#bfbfbf" stroke="black" points="62,-224.5 62,-254.5 266,-254.5 266,-224.5 62,-224.5"/>
<text text-anchor="start" x="70" y="-242.5" font-family="Helvetica,sans-Serif" font-size="10.00">/home/runner/work/Raytracer</text>
<text text-anchor="middle" x="164" y="-231.5" font-family="Helvetica,sans-Serif" font-size="10.00">/Raytracer/src/Images/IRayIterator.hpp</text>
</a>
</g>
</g>
<!-- Node2 -->
<g id="node2" class="node">
<title>Node2</title>
<g id="a_node2"><a xlink:title=" ">
<polygon fill="white" stroke="#bfbfbf" points="0,-168.5 0,-187.5 64,-187.5 64,-168.5 0,-168.5"/>
<text text-anchor="middle" x="32" y="-175.5" font-family="Helvetica,sans-Serif" font-size="10.00">algorithm</text>
</a>
</g>
</g>
<!-- Node1&#45;&gt;Node2 -->
<g id="edge1" class="edge">
<title>Node1&#45;&gt;Node2</title>
<path fill="none" stroke="midnightblue" d="M132.72,-224.4C110.77,-214.51 81.66,-201.38 60.38,-191.79"/>
<polygon fill="midnightblue" stroke="midnightblue" points="61.76,-188.58 51.21,-187.66 58.89,-194.96 61.76,-188.58"/>
</g>
<!-- Node3 -->
<g id="node3" class="node">
<title>Node3</title>
<g id="a_node3"><a xlink:title=" ">
<polygon fill="white" stroke="#bfbfbf" points="82.5,-168.5 82.5,-187.5 135.5,-187.5 135.5,-168.5 82.5,-168.5"/>
<text text-anchor="middle" x="109" y="-175.5" font-family="Helvetica,sans-Serif" font-size="10.00">iterator</text>
</a>
</g>
</g>
<!-- Node1&#45;&gt;Node3 -->
<g id="edge2" class="edge">
<title>Node1&#45;&gt;Node3</title>
<path fill="none" stroke="midnightblue" d="M150.97,-224.4C142.81,-215.58 132.28,-204.18 123.81,-195.02"/>
<polygon fill="midnightblue" stroke="midnightblue" points="126.36,-192.63 117,-187.66 121.22,-197.38 126.36,-192.63"/>
</g>
<!-- Node4 -->
<g id="node4" class="node">
<title>Node4</title>
<g id="a_node4"><a xlink:title=" ">
<polygon fill="white" stroke="#bfbfbf" points="161,-0.5 161,-19.5 219,-19.5 219,-0.5 161,-0.5"/>
<text text-anchor="middle" x="190" y="-7.5" font-family="Helvetica,sans-Serif" font-size="10.00">memory</text>
</a>
</g>
</g>
<!-- Node1&#45;&gt;Node4 -->
<g id="edge3" class="edge">
<title>Node1&#45;&gt;Node4</title>
<path fill="none" stroke="midnightblue" d="M165.23,-224.27C167.96,-193.52 174.88,-118.55 183,-56 184.13,-47.27 185.61,-37.62 186.91,-29.5"/>
<polygon fill="midnightblue" stroke="midnightblue" points="190.36,-30.04 188.53,-19.61 183.46,-28.91 190.36,-30.04"/>
</g>
<!-- Node5 -->
<g id="node5" class="node">
<title>Node5</title>
<g id="a_node5"><a xlink:title=" ">
<polygon fill="white" stroke="#bfbfbf" points="192,-168.5 192,-187.5 236,-187.5 236,-168.5 192,-168.5"/>
<text text-anchor="middle" x="214" y="-175.5" font-family="Helvetica,sans-Serif" font-size="10.00">string</text>
</a>
</g>
</g>
<!-- Node1&#45;&gt;Node5 -->
<g id="edge4" class="edge">
<title>Node1&#45;&gt;Node5</title>
<path fill="none" stroke="midnightblue" d="M175.85,-224.4C183.11,-215.75 192.45,-204.64 200.07,-195.58"/>
<polygon fill="midnightblue" stroke="midnightblue" points="202.97,-197.57 206.72,-187.66 197.61,-193.06 202.97,-197.57"/>
</g>
<!-- Node6 -->
<g id="node6" class="node">
<title>Node6</title>
<g id="a_node6"><a xlink:href="a00149.html" target="_top" xlink:title=" ">
<polygon fill="white" stroke="black" points="254.5,-168.5 254.5,-187.5 309.5,-187.5 309.5,-168.5 254.5,-168.5"/>
<text text-anchor="middle" x="282" y="-175.5" font-family="Helvetica,sans-Serif" font-size="10.00">Ray.hpp</text>
</a>
</g>
</g>
<!-- Node1&#45;&gt;Node6 -->
<g id="edge5" class="edge">
<title>Node1&#45;&gt;Node6</title>
<path fill="none" stroke="midnightblue" d="M191.96,-224.4C211.32,-214.64 236.91,-201.74 255.86,-192.18"/>
<polygon fill="midnightblue" stroke="midnightblue" points="257.48,-195.29 264.83,-187.66 254.33,-189.04 257.48,-195.29"/>
</g>
<!-- Node7 -->
<g id="node7" class="node">
<title>Node7</title>
<g id="a_node7"><a xlink:href="a00104.html" target="_top" xlink:title=" ">
<polygon fill="white" stroke="black" points="243.5,-112.5 243.5,-131.5 320.5,-131.5 320.5,-112.5 243.5,-112.5"/>
<text text-anchor="middle" x="282" y="-119.5" font-family="Helvetica,sans-Serif" font-size="10.00">Vector3f.hpp</text>
</a>
</g>
</g>
<!-- Node6&#45;&gt;Node7 -->
<g id="edge6" class="edge">
<title>Node6&#45;&gt;Node7</title>
<path fill="none" stroke="midnightblue" d="M282,-168.08C282,-161.01 282,-150.86 282,-141.99"/>
<polygon fill="midnightblue" stroke="midnightblue" points="285.5,-141.75 282,-131.75 278.5,-141.75 285.5,-141.75"/>
</g>
<!-- Node8 -->
<g id="node8" class="node">
<title>Node8</title>
<g id="a_node8"><a xlink:title=" ">
<polygon fill="white" stroke="#bfbfbf" points="192.5,-56.5 192.5,-75.5 249.5,-75.5 249.5,-56.5 192.5,-56.5"/>
<text text-anchor="middle" x="221" y="-63.5" font-family="Helvetica,sans-Serif" font-size="10.00">ostream</text>
</a>
</g>
</g>
<!-- Node7&#45;&gt;Node8 -->
<g id="edge7" class="edge">
<title>Node7&#45;&gt;Node8</title>
<path fill="none" stroke="midnightblue" d="M272.2,-112.32C263.18,-104.34 249.59,-92.31 238.68,-82.65"/>
<polygon fill="midnightblue" stroke="midnightblue" points="240.79,-79.84 230.98,-75.83 236.15,-85.08 240.79,-79.84"/>
</g>
<!-- Node9 -->
<g id="node9" class="node">
<title>Node9</title>
<g id="a_node9"><a xlink:href="a00218.html" target="_top" xlink:title=" ">
<polygon fill="white" stroke="black" points="267.5,-56.5 267.5,-75.5 342.5,-75.5 342.5,-56.5 267.5,-56.5"/>
<text text-anchor="middle" x="305" y="-63.5" font-family="Helvetica,sans-Serif" font-size="10.00">ISetting.hpp</text>
</a>
</g>
</g>
<!-- Node7&#45;&gt;Node9 -->
<g id="edge8" class="edge">
<title>Node7&#45;&gt;Node9</title>
<path fill="none" stroke="midnightblue" d="M285.8,-112.08C288.91,-104.77 293.42,-94.18 297.29,-85.1"/>
<polygon fill="midnightblue" stroke="midnightblue" points="300.57,-86.32 301.27,-75.75 294.13,-83.58 300.57,-86.32"/>
</g>
<!-- Node9&#45;&gt;Node4 -->
<g id="edge9" class="edge">
<title>Node9&#45;&gt;Node4</title>
<path fill="none" stroke="midnightblue" d="M286.78,-56.44C268.1,-47.68 238.84,-33.94 217.38,-23.86"/>
<polygon fill="midnightblue" stroke="midnightblue" points="218.68,-20.6 208.14,-19.52 215.7,-26.93 218.68,-20.6"/>
</g>
<!-- Node10 -->
<g id="node10" class="node">
<title>Node10</title>
<g id="a_node10"><a xlink:title=" ">
<polygon fill="white" stroke="#bfbfbf" points="263.5,-0.5 263.5,-19.5 346.5,-19.5 346.5,-0.5 263.5,-0.5"/>
<text text-anchor="middle" x="305" y="-7.5" font-family="Helvetica,sans-Serif" font-size="10.00">libconfig.h++</text>
</a>
</g>
</g>
<!-- Node9&#45;&gt;Node10 -->
<g id="edge10" class="edge">
<title>Node9&#45;&gt;Node10</title>
<path fill="none" stroke="midnightblue" d="M305,-56.08C305,-49.01 305,-38.86 305,-29.99"/>
<polygon fill="midnightblue" stroke="midnightblue" points="308.5,-29.75 305,-19.75 301.5,-29.75 308.5,-29.75"/>
</g>
</g>
</svg>
