<?xml version="1.0" encoding="UTF-8" standalone="no"?>
<!DOCTYPE svg PUBLIC "-//W3C//DTD SVG 1.1//EN"
 "http://www.w3.org/Graphics/SVG/1.1/DTD/svg11.dtd">
<!-- Generated by graphviz version 2.43.0 (0)
 -->
<!-- Title: /home/runner/work/Raytracer/Raytracer/src/Images/Ray.hpp Pages: 1 -->
<svg width="2392pt" height="496pt"
 viewBox="0.00 0.00 2392.00 496.00" xmlns="http://www.w3.org/2000/svg" xmlns:xlink="http://www.w3.org/1999/xlink">
<g id="graph0" class="graph" transform="scale(1 1) rotate(0) translate(4 492)">
<title>/home/runner/work/Raytracer/Raytracer/src/Images/Ray.hpp</title>
<polygon fill="white" stroke="transparent" points="-4,4 -4,-492 2388,-492 2388,4 -4,4"/>
<!-- Node1 -->
<g id="node1" class="node">
<title>Node1</title>
<g id="a_node1"><a xlink:title=" ">
<polygon fill="#bfbfbf" stroke="black" points="1499,-457.5 1499,-487.5 1663,-487.5 1663,-457.5 1499,-457.5"/>
<text text-anchor="start" x="1507" y="-475.5" font-family="Helvetica,sans-Serif" font-size="10.00">/home/runner/work/Raytracer</text>
<text text-anchor="middle" x="1581" y="-464.5" font-family="Helvetica,sans-Serif" font-size="10.00">/Raytracer/src/Images/Ray.hpp</text>
</a>
</g>
</g>
<!-- Node2 -->
<g id="node2" class="node">
<title>Node2</title>
<g id="a_node2"><a xlink:href="a00077.html" target="_top" xlink:title=" ">
<polygon fill="white" stroke="black" points="796.5,-379.5 796.5,-420.5 955.5,-420.5 955.5,-379.5 796.5,-379.5"/>
<text text-anchor="start" x="804.5" y="-408.5" font-family="Helvetica,sans-Serif" font-size="10.00">/home/runner/work/Raytracer</text>
<text text-anchor="start" x="804.5" y="-397.5" font-family="Helvetica,sans-Serif" font-size="10.00">/Raytracer/src/Entities</text>
<text text-anchor="middle" x="876" y="-386.5" font-family="Helvetica,sans-Serif" font-size="10.00">/IMaterial.hpp</text>
</a>
</g>
</g>
<!-- Node1&#45;&gt;Node2 -->
<g id="edge1" class="edge">
<title>Node1&#45;&gt;Node2</title>
<path fill="none" stroke="midnightblue" d="M1488.51,-462.25C1348.98,-448.3 1087.05,-422.11 955.57,-408.96"/>
<polygon fill="midnightblue" stroke="midnightblue" points="1488.45,-465.76 1498.75,-463.27 1489.15,-458.8 1488.45,-465.76"/>
</g>
<!-- Node3 -->
<g id="node3" class="node">
<title>Node3</title>
<g id="a_node3"><a xlink:href="a00080.html" target="_top" xlink:title=" ">
<polygon fill="white" stroke="black" points="1261.5,-301.5 1261.5,-342.5 1420.5,-342.5 1420.5,-301.5 1261.5,-301.5"/>
<text text-anchor="start" x="1269.5" y="-330.5" font-family="Helvetica,sans-Serif" font-size="10.00">/home/runner/work/Raytracer</text>
<text text-anchor="start" x="1269.5" y="-319.5" font-family="Helvetica,sans-Serif" font-size="10.00">/Raytracer/src/Entities</text>
<text text-anchor="middle" x="1341" y="-308.5" font-family="Helvetica,sans-Serif" font-size="10.00">/IPrimitive.hpp</text>
</a>
</g>
</g>
<!-- Node1&#45;&gt;Node3 -->
<g id="edge42" class="edge">
<title>Node1&#45;&gt;Node3</title>
<path fill="none" stroke="midnightblue" d="M1536.41,-453.36C1516.24,-444.52 1492.41,-433.18 1472,-421 1432,-397.13 1389.49,-363.62 1364.1,-342.62"/>
<polygon fill="midnightblue" stroke="midnightblue" points="1535.12,-456.62 1545.69,-457.36 1537.9,-450.19 1535.12,-456.62"/>
</g>
<!-- Node8 -->
<g id="node8" class="node">
<title>Node8</title>
<g id="a_node8"><a xlink:href="a00266.html" target="_top" xlink:title=" ">
<polygon fill="white" stroke="black" points="1931,-223.5 1931,-264.5 2095,-264.5 2095,-223.5 1931,-223.5"/>
<text text-anchor="start" x="1939" y="-252.5" font-family="Helvetica,sans-Serif" font-size="10.00">/home/runner/work/Raytracer</text>
<text text-anchor="start" x="1939" y="-241.5" font-family="Helvetica,sans-Serif" font-size="10.00">/Raytracer/PluginsExt/Cylinder</text>
<text text-anchor="middle" x="2013" y="-230.5" font-family="Helvetica,sans-Serif" font-size="10.00">/CylinderEntity.hpp</text>
</a>
</g>
</g>
<!-- Node1&#45;&gt;Node8 -->
<g id="edge52" class="edge">
<title>Node1&#45;&gt;Node8</title>
<path fill="none" stroke="midnightblue" d="M1562.41,-449.14C1556.62,-440.83 1550.97,-430.98 1548,-421 1532.78,-369.88 1512.14,-340.48 1548,-301 1575.99,-270.18 1879.86,-271.43 1921,-265 1924.23,-264.49 1927.52,-263.95 1930.83,-263.37"/>
<polygon fill="midnightblue" stroke="midnightblue" points="1559.61,-451.25 1568.39,-457.19 1565.23,-447.07 1559.61,-451.25"/>
</g>
<!-- Node14 -->
<g id="node14" class="node">
<title>Node14</title>
<g id="a_node14"><a xlink:href="a00284.html" target="_top" xlink:title=" ">
<polygon fill="white" stroke="black" points="2113.5,-223.5 2113.5,-264.5 2314.5,-264.5 2314.5,-223.5 2113.5,-223.5"/>
<text text-anchor="start" x="2121.5" y="-252.5" font-family="Helvetica,sans-Serif" font-size="10.00">/home/runner/work/Raytracer</text>
<text text-anchor="start" x="2121.5" y="-241.5" font-family="Helvetica,sans-Serif" font-size="10.00">/Raytracer/PluginsExt/LimitedCylinder</text>
<text text-anchor="middle" x="2214" y="-230.5" font-family="Helvetica,sans-Serif" font-size="10.00">/LimitedCylinderEntity.hpp</text>
</a>
</g>
</g>
<!-- Node1&#45;&gt;Node14 -->
<g id="edge53" class="edge">
<title>Node1&#45;&gt;Node14</title>
<path fill="none" stroke="midnightblue" d="M1571.97,-447.44C1559.91,-410.66 1544.05,-340.58 1581,-301 1620.75,-258.42 2046.2,-272.22 2104,-265 2107.08,-264.61 2110.21,-264.2 2113.36,-263.76"/>
<polygon fill="midnightblue" stroke="midnightblue" points="1568.8,-448.99 1575.38,-457.29 1575.42,-446.7 1568.8,-448.99"/>
</g>
<!-- Node29 -->
<g id="node29" class="node">
<title>Node29</title>
<g id="a_node29"><a xlink:href="a00293.html" target="_top" xlink:title=" ">
<polygon fill="white" stroke="black" points="0,-301.5 0,-342.5 188,-342.5 188,-301.5 0,-301.5"/>
<text text-anchor="start" x="8" y="-330.5" font-family="Helvetica,sans-Serif" font-size="10.00">/home/runner/work/Raytracer</text>
<text text-anchor="start" x="8" y="-319.5" font-family="Helvetica,sans-Serif" font-size="10.00">/Raytracer/PluginsExt/PlainMaterial</text>
<text text-anchor="middle" x="94" y="-308.5" font-family="Helvetica,sans-Serif" font-size="10.00">/PlainMaterial.hpp</text>
</a>
</g>
</g>
<!-- Node1&#45;&gt;Node29 -->
<g id="edge54" class="edge">
<title>Node1&#45;&gt;Node29</title>
<path fill="none" stroke="midnightblue" d="M1488.43,-467.65C1340.13,-461.04 1040.23,-445.76 787,-421 523.75,-395.26 458.06,-385.56 197,-343 194.12,-342.53 191.2,-342.04 188.26,-341.54"/>
<polygon fill="midnightblue" stroke="midnightblue" points="1488.69,-471.17 1498.84,-468.12 1489.01,-464.18 1488.69,-471.17"/>
</g>
<!-- Node30 -->
<g id="node30" class="node">
<title>Node30</title>
<g id="a_node30"><a xlink:href="a00131.html" target="_top" xlink:title=" ">
<polygon fill="white" stroke="black" points="1737,-385 1737,-415 1941,-415 1941,-385 1737,-385"/>
<text text-anchor="start" x="1745" y="-403" font-family="Helvetica,sans-Serif" font-size="10.00">/home/runner/work/Raytracer</text>
<text text-anchor="middle" x="1839" y="-392" font-family="Helvetica,sans-Serif" font-size="10.00">/Raytracer/src/Images/IRayIterator.hpp</text>
</a>
</g>
</g>
<!-- Node1&#45;&gt;Node30 -->
<g id="edge43" class="edge">
<title>Node1&#45;&gt;Node30</title>
<path fill="none" stroke="midnightblue" d="M1642.05,-454.82C1686.3,-442.73 1745.47,-426.56 1787.37,-415.11"/>
<polygon fill="midnightblue" stroke="midnightblue" points="1641,-451.47 1632.28,-457.49 1642.85,-458.23 1641,-451.47"/>
</g>
<!-- Node32 -->
<g id="node32" class="node">
<title>Node32</title>
<g id="a_node32"><a xlink:href="a00140.html" target="_top" xlink:title=" ">
<polygon fill="white" stroke="black" points="1590.5,-307 1590.5,-337 1795.5,-337 1795.5,-307 1590.5,-307"/>
<text text-anchor="start" x="1598.5" y="-325" font-family="Helvetica,sans-Serif" font-size="10.00">/home/runner/work/Raytracer</text>
<text text-anchor="middle" x="1693" y="-314" font-family="Helvetica,sans-Serif" font-size="10.00">/Raytracer/src/Images/RayIterrator.hpp</text>
</a>
</g>
</g>
<!-- Node1&#45;&gt;Node32 -->
<g id="edge49" class="edge">
<title>Node1&#45;&gt;Node32</title>
<path fill="none" stroke="midnightblue" d="M1597.79,-449.24C1621.08,-418.36 1662.51,-363.42 1682.13,-337.41"/>
<polygon fill="midnightblue" stroke="midnightblue" points="1594.97,-447.17 1591.74,-457.26 1600.55,-451.38 1594.97,-447.17"/>
</g>
<!-- Node33 -->
<g id="node33" class="node">
<title>Node33</title>
<g id="a_node33"><a xlink:href="a00245.html" target="_top" xlink:title=" ">
<polygon fill="white" stroke="black" points="2008.5,-301.5 2008.5,-342.5 2175.5,-342.5 2175.5,-301.5 2008.5,-301.5"/>
<text text-anchor="start" x="2016.5" y="-330.5" font-family="Helvetica,sans-Serif" font-size="10.00">/home/runner/work/Raytracer</text>
<text text-anchor="start" x="2016.5" y="-319.5" font-family="Helvetica,sans-Serif" font-size="10.00">/Raytracer/PluginsExt/Camera</text>
<text text-anchor="middle" x="2092" y="-308.5" font-family="Helvetica,sans-Serif" font-size="10.00">/Cluster/ClusterRayIterator.hpp</text>
</a>
</g>
</g>
<!-- Node1&#45;&gt;Node33 -->
<g id="edge50" class="edge">
<title>Node1&#45;&gt;Node33</title>
<path fill="none" stroke="midnightblue" d="M1673.28,-465.49C1766.31,-458.26 1902.71,-444.12 1950,-421 1974,-409.26 1971.64,-395.04 1993,-379 2011.32,-365.24 2033.36,-352.46 2051.99,-342.58"/>
<polygon fill="midnightblue" stroke="midnightblue" points="1673,-462 1663.29,-466.25 1673.53,-468.98 1673,-462"/>
</g>
<!-- Node34 -->
<g id="node34" class="node">
<title>Node34</title>
<g id="a_node34"><a xlink:href="a00254.html" target="_top" xlink:title=" ">
<polygon fill="white" stroke="black" points="2194,-301.5 2194,-342.5 2384,-342.5 2384,-301.5 2194,-301.5"/>
<text text-anchor="start" x="2202" y="-330.5" font-family="Helvetica,sans-Serif" font-size="10.00">/home/runner/work/Raytracer</text>
<text text-anchor="start" x="2202" y="-319.5" font-family="Helvetica,sans-Serif" font-size="10.00">/Raytracer/PluginsExt/Camera</text>
<text text-anchor="middle" x="2289" y="-308.5" font-family="Helvetica,sans-Serif" font-size="10.00">/FullCustom/CustomRayIterator.hpp</text>
</a>
</g>
</g>
<!-- Node1&#45;&gt;Node34 -->
<g id="edge51" class="edge">
<title>Node1&#45;&gt;Node34</title>
<path fill="none" stroke="midnightblue" d="M1673.15,-467.03C1775.07,-460.85 1931.93,-447.36 1985,-421 2008.36,-409.4 2003.15,-391.59 2026,-379 2033.63,-374.8 2121.75,-356.46 2193.92,-341.9"/>
<polygon fill="midnightblue" stroke="midnightblue" points="1672.93,-463.53 1663.16,-467.62 1673.35,-470.52 1672.93,-463.53"/>
</g>
<!-- Node35 -->
<g id="node35" class="node">
<title>Node35</title>
<g id="a_node35"><a xlink:href="a00134.html" target="_top" xlink:title=" ">
<polygon fill="white" stroke="black" points="2035,-385 2035,-415 2239,-415 2239,-385 2035,-385"/>
<text text-anchor="start" x="2043" y="-403" font-family="Helvetica,sans-Serif" font-size="10.00">/home/runner/work/Raytracer</text>
<text text-anchor="middle" x="2137" y="-392" font-family="Helvetica,sans-Serif" font-size="10.00">/Raytracer/src/Images/PixelThread.hpp</text>
</a>
</g>
</g>
<!-- Node1&#45;&gt;Node35 -->
<g id="edge48" class="edge">
<title>Node1&#45;&gt;Node35</title>
<path fill="none" stroke="midnightblue" d="M1673.17,-462.45C1762.33,-453.34 1901.18,-438.19 2021,-421 2033.44,-419.22 2046.6,-417.13 2059.41,-415"/>
<polygon fill="midnightblue" stroke="midnightblue" points="1672.68,-458.98 1663.08,-463.48 1673.39,-465.95 1672.68,-458.98"/>
</g>
<!-- Node2&#45;&gt;Node3 -->
<g id="edge2" class="edge">
<title>Node2&#45;&gt;Node3</title>
<path fill="none" stroke="midnightblue" d="M966.02,-385.12C1037.18,-374.04 1139.01,-357.95 1228,-343 1238.81,-341.18 1250.18,-339.23 1261.39,-337.27"/>
<polygon fill="midnightblue" stroke="midnightblue" points="965.09,-381.72 955.75,-386.72 966.17,-388.64 965.09,-381.72"/>
</g>
<!-- Node6 -->
<g id="node6" class="node">
<title>Node6</title>
<g id="a_node6"><a xlink:href="a00260.html" target="_top" xlink:title=" ">
<polygon fill="white" stroke="black" points="796.5,-223.5 796.5,-264.5 955.5,-264.5 955.5,-223.5 796.5,-223.5"/>
<text text-anchor="start" x="804.5" y="-252.5" font-family="Helvetica,sans-Serif" font-size="10.00">/home/runner/work/Raytracer</text>
<text text-anchor="start" x="804.5" y="-241.5" font-family="Helvetica,sans-Serif" font-size="10.00">/Raytracer/PluginsExt/Cone</text>
<text text-anchor="middle" x="876" y="-230.5" font-family="Helvetica,sans-Serif" font-size="10.00">/ConeEntity.hpp</text>
</a>
</g>
</g>
<!-- Node2&#45;&gt;Node6 -->
<g id="edge33" class="edge">
<title>Node2&#45;&gt;Node6</title>
<path fill="none" stroke="midnightblue" d="M876,-369.36C876,-338.61 876,-291.36 876,-264.83"/>
<polygon fill="midnightblue" stroke="midnightblue" points="872.5,-369.5 876,-379.5 879.5,-369.5 872.5,-369.5"/>
</g>
<!-- Node2&#45;&gt;Node8 -->
<g id="edge34" class="edge">
<title>Node2&#45;&gt;Node8</title>
<path fill="none" stroke="midnightblue" d="M966.05,-397.05C1101.17,-392.92 1349.07,-380.36 1429,-343 1453.2,-331.69 1447.68,-312.06 1472,-301 1563.12,-259.56 1821.98,-279.66 1921,-265 1924.23,-264.52 1927.52,-263.99 1930.84,-263.43"/>
<polygon fill="midnightblue" stroke="midnightblue" points="965.62,-393.56 955.72,-397.35 965.82,-400.56 965.62,-393.56"/>
</g>
<!-- Node10 -->
<g id="node10" class="node">
<title>Node10</title>
<g id="a_node10"><a xlink:href="a00272.html" target="_top" xlink:title=" ">
<polygon fill="white" stroke="black" points="973.5,-223.5 973.5,-264.5 1132.5,-264.5 1132.5,-223.5 973.5,-223.5"/>
<text text-anchor="start" x="981.5" y="-252.5" font-family="Helvetica,sans-Serif" font-size="10.00">/home/runner/work/Raytracer</text>
<text text-anchor="start" x="981.5" y="-241.5" font-family="Helvetica,sans-Serif" font-size="10.00">/Raytracer/PluginsExt/Disk</text>
<text text-anchor="middle" x="1053" y="-230.5" font-family="Helvetica,sans-Serif" font-size="10.00">/DiskEntity.hpp</text>
</a>
</g>
</g>
<!-- Node2&#45;&gt;Node10 -->
<g id="edge35" class="edge">
<title>Node2&#45;&gt;Node10</title>
<path fill="none" stroke="midnightblue" d="M906.01,-372.89C941.24,-342.24 998.87,-292.1 1030.49,-264.59"/>
<polygon fill="midnightblue" stroke="midnightblue" points="903.66,-370.29 898.42,-379.5 908.26,-375.57 903.66,-370.29"/>
</g>
<!-- Node2&#45;&gt;Node14 -->
<g id="edge36" class="edge">
<title>Node2&#45;&gt;Node14</title>
<path fill="none" stroke="midnightblue" d="M966.01,-394.54C1107.14,-386.87 1373.79,-369.39 1465,-343 1504.71,-331.51 1508.12,-311.89 1548,-301 1786.88,-235.77 1858.22,-295.2 2104,-265 2107.08,-264.62 2110.21,-264.21 2113.36,-263.78"/>
<polygon fill="midnightblue" stroke="midnightblue" points="965.46,-391.07 955.66,-395.1 965.83,-398.06 965.46,-391.07"/>
</g>
<!-- Node16 -->
<g id="node16" class="node">
<title>Node16</title>
<g id="a_node16"><a xlink:href="a00290.html" target="_top" xlink:title=" ">
<polygon fill="white" stroke="black" points="1151,-223.5 1151,-264.5 1339,-264.5 1339,-223.5 1151,-223.5"/>
<text text-anchor="start" x="1159" y="-252.5" font-family="Helvetica,sans-Serif" font-size="10.00">/home/runner/work/Raytracer</text>
<text text-anchor="start" x="1159" y="-241.5" font-family="Helvetica,sans-Serif" font-size="10.00">/Raytracer/PluginsExt/LimitedPlane</text>
<text text-anchor="middle" x="1245" y="-230.5" font-family="Helvetica,sans-Serif" font-size="10.00">/LimitedPlaneEntity.hpp</text>
</a>
</g>
</g>
<!-- Node2&#45;&gt;Node16 -->
<g id="edge37" class="edge">
<title>Node2&#45;&gt;Node16</title>
<path fill="none" stroke="midnightblue" d="M932.2,-375.55C1004.89,-345.21 1130.21,-292.91 1198.06,-264.59"/>
<polygon fill="midnightblue" stroke="midnightblue" points="930.61,-372.41 922.73,-379.5 933.31,-378.87 930.61,-372.41"/>
</g>
<!-- Node18 -->
<g id="node18" class="node">
<title>Node18</title>
<g id="a_node18"><a xlink:href="a00302.html" target="_top" xlink:title=" ">
<polygon fill="white" stroke="black" points="1357.5,-223.5 1357.5,-264.5 1516.5,-264.5 1516.5,-223.5 1357.5,-223.5"/>
<text text-anchor="start" x="1365.5" y="-252.5" font-family="Helvetica,sans-Serif" font-size="10.00">/home/runner/work/Raytracer</text>
<text text-anchor="start" x="1365.5" y="-241.5" font-family="Helvetica,sans-Serif" font-size="10.00">/Raytracer/PluginsExt/Plane</text>
<text text-anchor="middle" x="1437" y="-230.5" font-family="Helvetica,sans-Serif" font-size="10.00">/PlaneEntity.hpp</text>
</a>
</g>
</g>
<!-- Node2&#45;&gt;Node18 -->
<g id="edge40" class="edge">
<title>Node2&#45;&gt;Node18</title>
<path fill="none" stroke="midnightblue" d="M956.75,-376.83C1066.49,-346.71 1261,-293.31 1365.64,-264.59"/>
<polygon fill="midnightblue" stroke="midnightblue" points="955.77,-373.47 947.05,-379.5 957.62,-380.22 955.77,-373.47"/>
</g>
<!-- Node20 -->
<g id="node20" class="node">
<title>Node20</title>
<g id="a_node20"><a xlink:href="a00314.html" target="_top" xlink:title=" ">
<polygon fill="white" stroke="black" points="619.5,-223.5 619.5,-264.5 778.5,-264.5 778.5,-223.5 619.5,-223.5"/>
<text text-anchor="start" x="627.5" y="-252.5" font-family="Helvetica,sans-Serif" font-size="10.00">/home/runner/work/Raytracer</text>
<text text-anchor="start" x="627.5" y="-241.5" font-family="Helvetica,sans-Serif" font-size="10.00">/Raytracer/PluginsExt/Sphere</text>
<text text-anchor="middle" x="699" y="-230.5" font-family="Helvetica,sans-Serif" font-size="10.00">/SphereEntity.hpp</text>
</a>
</g>
</g>
<!-- Node2&#45;&gt;Node20 -->
<g id="edge41" class="edge">
<title>Node2&#45;&gt;Node20</title>
<path fill="none" stroke="midnightblue" d="M845.99,-372.89C810.76,-342.24 753.13,-292.1 721.51,-264.59"/>
<polygon fill="midnightblue" stroke="midnightblue" points="843.74,-375.57 853.58,-379.5 848.34,-370.29 843.74,-375.57"/>
</g>
<!-- Node22 -->
<g id="node22" class="node">
<title>Node22</title>
<g id="a_node22"><a xlink:href="a00107.html" target="_top" xlink:title=" ">
<polygon fill="white" stroke="black" points="471.5,-301.5 471.5,-342.5 630.5,-342.5 630.5,-301.5 471.5,-301.5"/>
<text text-anchor="start" x="479.5" y="-330.5" font-family="Helvetica,sans-Serif" font-size="10.00">/home/runner/work/Raytracer</text>
<text text-anchor="start" x="479.5" y="-319.5" font-family="Helvetica,sans-Serif" font-size="10.00">/Raytracer/src/Factories</text>
<text text-anchor="middle" x="551" y="-308.5" font-family="Helvetica,sans-Serif" font-size="10.00">/IMaterialFactory.hpp</text>
</a>
</g>
</g>
<!-- Node2&#45;&gt;Node22 -->
<g id="edge21" class="edge">
<title>Node2&#45;&gt;Node22</title>
<path fill="none" stroke="midnightblue" d="M786.57,-378.09C737.71,-366.66 677.74,-352.64 630.53,-341.6"/>
<polygon fill="midnightblue" stroke="midnightblue" points="785.96,-381.54 796.5,-380.41 787.56,-374.72 785.96,-381.54"/>
</g>
<!-- Node23 -->
<g id="node23" class="node">
<title>Node23</title>
<g id="a_node23"><a xlink:href="a00110.html" target="_top" xlink:title=" ">
<polygon fill="white" stroke="black" points="442.5,-145.5 442.5,-186.5 601.5,-186.5 601.5,-145.5 442.5,-145.5"/>
<text text-anchor="start" x="450.5" y="-174.5" font-family="Helvetica,sans-Serif" font-size="10.00">/home/runner/work/Raytracer</text>
<text text-anchor="start" x="450.5" y="-163.5" font-family="Helvetica,sans-Serif" font-size="10.00">/Raytracer/src/Factories</text>
<text text-anchor="middle" x="522" y="-152.5" font-family="Helvetica,sans-Serif" font-size="10.00">/MaterialFactory.hpp</text>
</a>
</g>
</g>
<!-- Node2&#45;&gt;Node23 -->
<g id="edge25" class="edge">
<title>Node2&#45;&gt;Node23</title>
<path fill="none" stroke="midnightblue" d="M813.91,-375.6C757.43,-352.56 673.46,-313.78 610,-265 580.08,-242.01 552.18,-207.94 536.11,-186.63"/>
<polygon fill="midnightblue" stroke="midnightblue" points="812.84,-378.94 823.42,-379.44 815.46,-372.45 812.84,-378.94"/>
</g>
<!-- Node24 -->
<g id="node24" class="node">
<title>Node24</title>
<g id="a_node24"><a xlink:href="a00179.html" target="_top" xlink:title=" ">
<polygon fill="white" stroke="black" points="329.5,-67.5 329.5,-108.5 500.5,-108.5 500.5,-67.5 329.5,-67.5"/>
<text text-anchor="start" x="337.5" y="-96.5" font-family="Helvetica,sans-Serif" font-size="10.00">/home/runner/work/Raytracer</text>
<text text-anchor="start" x="337.5" y="-85.5" font-family="Helvetica,sans-Serif" font-size="10.00">/Raytracer/src/Plugins/Materials</text>
<text text-anchor="middle" x="415" y="-74.5" font-family="Helvetica,sans-Serif" font-size="10.00">/MaterialLoader.hpp</text>
</a>
</g>
</g>
<!-- Node2&#45;&gt;Node24 -->
<g id="edge32" class="edge">
<title>Node2&#45;&gt;Node24</title>
<path fill="none" stroke="midnightblue" d="M786.15,-393.49C676.62,-385.74 498.61,-369.53 438,-343 434.91,-341.65 346.43,-268.06 345,-265 319.08,-209.42 368.08,-141.41 396.59,-108.58"/>
<polygon fill="midnightblue" stroke="midnightblue" points="785.98,-396.99 796.2,-394.19 786.47,-390 785.98,-396.99"/>
</g>
<!-- Node26 -->
<g id="node26" class="node">
<title>Node26</title>
<g id="a_node26"><a xlink:href="a00173.html" target="_top" xlink:title=" ">
<polygon fill="white" stroke="black" points="206.5,-301.5 206.5,-342.5 377.5,-342.5 377.5,-301.5 206.5,-301.5"/>
<text text-anchor="start" x="214.5" y="-330.5" font-family="Helvetica,sans-Serif" font-size="10.00">/home/runner/work/Raytracer</text>
<text text-anchor="start" x="214.5" y="-319.5" font-family="Helvetica,sans-Serif" font-size="10.00">/Raytracer/src/Plugins/Materials</text>
<text text-anchor="middle" x="292" y="-308.5" font-family="Helvetica,sans-Serif" font-size="10.00">/IMaterialCreator.hpp</text>
</a>
</g>
</g>
<!-- Node2&#45;&gt;Node26 -->
<g id="edge26" class="edge">
<title>Node2&#45;&gt;Node26</title>
<path fill="none" stroke="midnightblue" d="M785.97,-390.82C688.55,-381.44 528.79,-364.55 392,-343 387.28,-342.26 382.44,-341.45 377.56,-340.59"/>
<polygon fill="midnightblue" stroke="midnightblue" points="785.79,-394.32 796.08,-391.78 786.46,-387.35 785.79,-394.32"/>
</g>
<!-- Node27 -->
<g id="node27" class="node">
<title>Node27</title>
<g id="a_node27"><a xlink:href="a00176.html" target="_top" xlink:title=" ">
<polygon fill="white" stroke="black" points="354.5,-223.5 354.5,-264.5 525.5,-264.5 525.5,-223.5 354.5,-223.5"/>
<text text-anchor="start" x="362.5" y="-252.5" font-family="Helvetica,sans-Serif" font-size="10.00">/home/runner/work/Raytracer</text>
<text text-anchor="start" x="362.5" y="-241.5" font-family="Helvetica,sans-Serif" font-size="10.00">/Raytracer/src/Plugins/Materials</text>
<text text-anchor="middle" x="440" y="-230.5" font-family="Helvetica,sans-Serif" font-size="10.00">/MaterialHandler.hpp</text>
</a>
</g>
</g>
<!-- Node2&#45;&gt;Node27 -->
<g id="edge31" class="edge">
<title>Node2&#45;&gt;Node27</title>
<path fill="none" stroke="midnightblue" d="M786.29,-398.48C678.96,-395.94 507.96,-385.15 462,-343 440.41,-323.2 437.68,-287.18 438.36,-264.76"/>
<polygon fill="midnightblue" stroke="midnightblue" points="786.4,-401.99 796.47,-398.71 786.55,-394.99 786.4,-401.99"/>
</g>
<!-- Node2&#45;&gt;Node29 -->
<g id="edge38" class="edge">
<title>Node2&#45;&gt;Node29</title>
<path fill="none" stroke="midnightblue" d="M785.92,-394.72C655.55,-387.8 406.91,-371.95 197,-343 194.11,-342.6 191.18,-342.18 188.23,-341.73"/>
<polygon fill="midnightblue" stroke="midnightblue" points="786.07,-398.23 796.24,-395.26 786.44,-391.24 786.07,-398.23"/>
</g>
<!-- Node4 -->
<g id="node4" class="node">
<title>Node4</title>
<g id="a_node4"><a xlink:href="a00209.html" target="_top" xlink:title=" ">
<polygon fill="white" stroke="black" points="1737.5,-229 1737.5,-259 1912.5,-259 1912.5,-229 1737.5,-229"/>
<text text-anchor="start" x="1745.5" y="-247" font-family="Helvetica,sans-Serif" font-size="10.00">/home/runner/work/Raytracer</text>
<text text-anchor="middle" x="1825" y="-236" font-family="Helvetica,sans-Serif" font-size="10.00">/Raytracer/src/Scenes/Scene.hpp</text>
</a>
</g>
</g>
<!-- Node3&#45;&gt;Node4 -->
<g id="edge3" class="edge">
<title>Node3&#45;&gt;Node4</title>
<path fill="none" stroke="midnightblue" d="M1430.68,-301.57C1431.79,-301.37 1432.9,-301.19 1434,-301 1563.81,-279.14 1598.09,-286.31 1728,-265 1738.6,-263.26 1749.81,-261.18 1760.7,-259.02"/>
<polygon fill="midnightblue" stroke="midnightblue" points="1429.78,-298.17 1420.56,-303.4 1431.02,-305.06 1429.78,-298.17"/>
</g>
<!-- Node3&#45;&gt;Node6 -->
<g id="edge5" class="edge">
<title>Node3&#45;&gt;Node6</title>
<path fill="none" stroke="midnightblue" d="M1251.18,-309.61C1174.6,-299.44 1061.72,-283.33 964,-265 961.23,-264.48 958.41,-263.93 955.57,-263.37"/>
<polygon fill="midnightblue" stroke="midnightblue" points="1250.9,-313.11 1261.27,-310.95 1251.82,-306.17 1250.9,-313.11"/>
</g>
<!-- Node3&#45;&gt;Node8 -->
<g id="edge7" class="edge">
<title>Node3&#45;&gt;Node8</title>
<path fill="none" stroke="midnightblue" d="M1430.67,-301.49C1431.79,-301.32 1432.9,-301.16 1434,-301 1648.83,-270.11 1706.21,-296.13 1921,-265 1924.24,-264.53 1927.53,-264.01 1930.85,-263.46"/>
<polygon fill="midnightblue" stroke="midnightblue" points="1429.83,-298.08 1420.52,-303.14 1430.95,-304.99 1429.83,-298.08"/>
</g>
<!-- Node3&#45;&gt;Node10 -->
<g id="edge9" class="edge">
<title>Node3&#45;&gt;Node10</title>
<path fill="none" stroke="midnightblue" d="M1257.09,-298.86C1215.88,-287.98 1166.68,-275 1126.92,-264.51"/>
<polygon fill="midnightblue" stroke="midnightblue" points="1256.27,-302.26 1266.83,-301.43 1258.06,-295.49 1256.27,-302.26"/>
</g>
<!-- Node12 -->
<g id="node12" class="node">
<title>Node12</title>
<g id="a_node12"><a xlink:href="a00278.html" target="_top" xlink:title=" ">
<polygon fill="white" stroke="black" points="1534.5,-223.5 1534.5,-264.5 1719.5,-264.5 1719.5,-223.5 1534.5,-223.5"/>
<text text-anchor="start" x="1542.5" y="-252.5" font-family="Helvetica,sans-Serif" font-size="10.00">/home/runner/work/Raytracer</text>
<text text-anchor="start" x="1542.5" y="-241.5" font-family="Helvetica,sans-Serif" font-size="10.00">/Raytracer/PluginsExt/LimitedCone</text>
<text text-anchor="middle" x="1627" y="-230.5" font-family="Helvetica,sans-Serif" font-size="10.00">/LimitedConeEntity.hpp</text>
</a>
</g>
</g>
<!-- Node3&#45;&gt;Node12 -->
<g id="edge11" class="edge">
<title>Node3&#45;&gt;Node12</title>
<path fill="none" stroke="midnightblue" d="M1424.33,-298.86C1465.25,-287.98 1514.11,-275 1553.6,-264.51"/>
<polygon fill="midnightblue" stroke="midnightblue" points="1423.42,-295.48 1414.65,-301.43 1425.22,-302.24 1423.42,-295.48"/>
</g>
<!-- Node3&#45;&gt;Node14 -->
<g id="edge13" class="edge">
<title>Node3&#45;&gt;Node14</title>
<path fill="none" stroke="midnightblue" d="M1430.89,-309.39C1456.42,-306.36 1484.28,-303.3 1510,-301 1773.43,-277.45 1841.42,-296.71 2104,-265 2107.08,-264.63 2110.21,-264.22 2113.36,-263.79"/>
<polygon fill="midnightblue" stroke="midnightblue" points="1430.36,-305.93 1420.85,-310.6 1431.2,-312.88 1430.36,-305.93"/>
</g>
<!-- Node3&#45;&gt;Node16 -->
<g id="edge15" class="edge">
<title>Node3&#45;&gt;Node16</title>
<path fill="none" stroke="midnightblue" d="M1308.24,-295.06C1295.6,-285.06 1281.38,-273.8 1269.64,-264.51"/>
<polygon fill="midnightblue" stroke="midnightblue" points="1306.26,-297.97 1316.28,-301.43 1310.61,-292.48 1306.26,-297.97"/>
</g>
<!-- Node3&#45;&gt;Node18 -->
<g id="edge17" class="edge">
<title>Node3&#45;&gt;Node18</title>
<path fill="none" stroke="midnightblue" d="M1373.76,-295.06C1386.4,-285.06 1400.62,-273.8 1412.36,-264.51"/>
<polygon fill="midnightblue" stroke="midnightblue" points="1371.39,-292.48 1365.72,-301.43 1375.74,-297.97 1371.39,-292.48"/>
</g>
<!-- Node3&#45;&gt;Node20 -->
<g id="edge19" class="edge">
<title>Node3&#45;&gt;Node20</title>
<path fill="none" stroke="midnightblue" d="M1251.19,-315.33C1141.24,-307.6 949.6,-291.59 787,-265 784.22,-264.54 781.39,-264.05 778.54,-263.54"/>
<polygon fill="midnightblue" stroke="midnightblue" points="1251.02,-318.82 1261.24,-316.03 1251.51,-311.84 1251.02,-318.82"/>
</g>
<!-- Node5 -->
<g id="node5" class="node">
<title>Node5</title>
<g id="a_node5"><a xlink:href="a00146.html" target="_top" xlink:title=" ">
<polygon fill="white" stroke="black" points="1745.5,-151 1745.5,-181 1904.5,-181 1904.5,-151 1745.5,-151"/>
<text text-anchor="start" x="1753.5" y="-169" font-family="Helvetica,sans-Serif" font-size="10.00">/home/runner/work/Raytracer</text>
<text text-anchor="middle" x="1825" y="-158" font-family="Helvetica,sans-Serif" font-size="10.00">/Raytracer/src/Main.hpp</text>
</a>
</g>
</g>
<!-- Node4&#45;&gt;Node5 -->
<g id="edge4" class="edge">
<title>Node4&#45;&gt;Node5</title>
<path fill="none" stroke="midnightblue" d="M1825,-218.59C1825,-206.26 1825,-191.72 1825,-181.23"/>
<polygon fill="midnightblue" stroke="midnightblue" points="1821.5,-218.7 1825,-228.7 1828.5,-218.71 1821.5,-218.7"/>
</g>
<!-- Node7 -->
<g id="node7" class="node">
<title>Node7</title>
<g id="a_node7"><a xlink:href="a00257.html" target="_top" xlink:title=" ">
<polygon fill="white" stroke="black" points="796.5,-145.5 796.5,-186.5 955.5,-186.5 955.5,-145.5 796.5,-145.5"/>
<text text-anchor="start" x="804.5" y="-174.5" font-family="Helvetica,sans-Serif" font-size="10.00">/home/runner/work/Raytracer</text>
<text text-anchor="start" x="804.5" y="-163.5" font-family="Helvetica,sans-Serif" font-size="10.00">/Raytracer/PluginsExt/Cone</text>
<text text-anchor="middle" x="876" y="-152.5" font-family="Helvetica,sans-Serif" font-size="10.00">/ConeCreator.hpp</text>
</a>
</g>
</g>
<!-- Node6&#45;&gt;Node7 -->
<g id="edge6" class="edge">
<title>Node6&#45;&gt;Node7</title>
<path fill="none" stroke="midnightblue" d="M876,-213.3C876,-204.3 876,-194.65 876,-186.51"/>
<polygon fill="midnightblue" stroke="midnightblue" points="872.5,-213.43 876,-223.43 879.5,-213.43 872.5,-213.43"/>
</g>
<!-- Node9 -->
<g id="node9" class="node">
<title>Node9</title>
<g id="a_node9"><a xlink:href="a00263.html" target="_top" xlink:title=" ">
<polygon fill="white" stroke="black" points="1931,-145.5 1931,-186.5 2095,-186.5 2095,-145.5 1931,-145.5"/>
<text text-anchor="start" x="1939" y="-174.5" font-family="Helvetica,sans-Serif" font-size="10.00">/home/runner/work/Raytracer</text>
<text text-anchor="start" x="1939" y="-163.5" font-family="Helvetica,sans-Serif" font-size="10.00">/Raytracer/PluginsExt/Cylinder</text>
<text text-anchor="middle" x="2013" y="-152.5" font-family="Helvetica,sans-Serif" font-size="10.00">/CylinderCreator.hpp</text>
</a>
</g>
</g>
<!-- Node8&#45;&gt;Node9 -->
<g id="edge8" class="edge">
<title>Node8&#45;&gt;Node9</title>
<path fill="none" stroke="midnightblue" d="M2013,-213.3C2013,-204.3 2013,-194.65 2013,-186.51"/>
<polygon fill="midnightblue" stroke="midnightblue" points="2009.5,-213.43 2013,-223.43 2016.5,-213.43 2009.5,-213.43"/>
</g>
<!-- Node11 -->
<g id="node11" class="node">
<title>Node11</title>
<g id="a_node11"><a xlink:href="a00269.html" target="_top" xlink:title=" ">
<polygon fill="white" stroke="black" points="973.5,-145.5 973.5,-186.5 1132.5,-186.5 1132.5,-145.5 973.5,-145.5"/>
<text text-anchor="start" x="981.5" y="-174.5" font-family="Helvetica,sans-Serif" font-size="10.00">/home/runner/work/Raytracer</text>
<text text-anchor="start" x="981.5" y="-163.5" font-family="Helvetica,sans-Serif" font-size="10.00">/Raytracer/PluginsExt/Disk</text>
<text text-anchor="middle" x="1053" y="-152.5" font-family="Helvetica,sans-Serif" font-size="10.00">/DiskCreator.hpp</text>
</a>
</g>
</g>
<!-- Node10&#45;&gt;Node11 -->
<g id="edge10" class="edge">
<title>Node10&#45;&gt;Node11</title>
<path fill="none" stroke="midnightblue" d="M1053,-213.3C1053,-204.3 1053,-194.65 1053,-186.51"/>
<polygon fill="midnightblue" stroke="midnightblue" points="1049.5,-213.43 1053,-223.43 1056.5,-213.43 1049.5,-213.43"/>
</g>
<!-- Node13 -->
<g id="node13" class="node">
<title>Node13</title>
<g id="a_node13"><a xlink:href="a00275.html" target="_top" xlink:title=" ">
<polygon fill="white" stroke="black" points="1534.5,-145.5 1534.5,-186.5 1719.5,-186.5 1719.5,-145.5 1534.5,-145.5"/>
<text text-anchor="start" x="1542.5" y="-174.5" font-family="Helvetica,sans-Serif" font-size="10.00">/home/runner/work/Raytracer</text>
<text text-anchor="start" x="1542.5" y="-163.5" font-family="Helvetica,sans-Serif" font-size="10.00">/Raytracer/PluginsExt/LimitedCone</text>
<text text-anchor="middle" x="1627" y="-152.5" font-family="Helvetica,sans-Serif" font-size="10.00">/LimitedConeCreator.hpp</text>
</a>
</g>
</g>
<!-- Node12&#45;&gt;Node13 -->
<g id="edge12" class="edge">
<title>Node12&#45;&gt;Node13</title>
<path fill="none" stroke="midnightblue" d="M1627,-213.3C1627,-204.3 1627,-194.65 1627,-186.51"/>
<polygon fill="midnightblue" stroke="midnightblue" points="1623.5,-213.43 1627,-223.43 1630.5,-213.43 1623.5,-213.43"/>
</g>
<!-- Node15 -->
<g id="node15" class="node">
<title>Node15</title>
<g id="a_node15"><a xlink:href="a00281.html" target="_top" xlink:title=" ">
<polygon fill="white" stroke="black" points="2113.5,-145.5 2113.5,-186.5 2314.5,-186.5 2314.5,-145.5 2113.5,-145.5"/>
<text text-anchor="start" x="2121.5" y="-174.5" font-family="Helvetica,sans-Serif" font-size="10.00">/home/runner/work/Raytracer</text>
<text text-anchor="start" x="2121.5" y="-163.5" font-family="Helvetica,sans-Serif" font-size="10.00">/Raytracer/PluginsExt/LimitedCylinder</text>
<text text-anchor="middle" x="2214" y="-152.5" font-family="Helvetica,sans-Serif" font-size="10.00">/LimitedCylinderCreator.hpp</text>
</a>
</g>
</g>
<!-- Node14&#45;&gt;Node15 -->
<g id="edge14" class="edge">
<title>Node14&#45;&gt;Node15</title>
<path fill="none" stroke="midnightblue" d="M2214,-213.3C2214,-204.3 2214,-194.65 2214,-186.51"/>
<polygon fill="midnightblue" stroke="midnightblue" points="2210.5,-213.43 2214,-223.43 2217.5,-213.43 2210.5,-213.43"/>
</g>
<!-- Node17 -->
<g id="node17" class="node">
<title>Node17</title>
<g id="a_node17"><a xlink:href="a00287.html" target="_top" xlink:title=" ">
<polygon fill="white" stroke="black" points="1151,-145.5 1151,-186.5 1339,-186.5 1339,-145.5 1151,-145.5"/>
<text text-anchor="start" x="1159" y="-174.5" font-family="Helvetica,sans-Serif" font-size="10.00">/home/runner/work/Raytracer</text>
<text text-anchor="start" x="1159" y="-163.5" font-family="Helvetica,sans-Serif" font-size="10.00">/Raytracer/PluginsExt/LimitedPlane</text>
<text text-anchor="middle" x="1245" y="-152.5" font-family="Helvetica,sans-Serif" font-size="10.00">/LimitedPlaneCreator.hpp</text>
</a>
</g>
</g>
<!-- Node16&#45;&gt;Node17 -->
<g id="edge16" class="edge">
<title>Node16&#45;&gt;Node17</title>
<path fill="none" stroke="midnightblue" d="M1245,-213.3C1245,-204.3 1245,-194.65 1245,-186.51"/>
<polygon fill="midnightblue" stroke="midnightblue" points="1241.5,-213.43 1245,-223.43 1248.5,-213.43 1241.5,-213.43"/>
</g>
<!-- Node19 -->
<g id="node19" class="node">
<title>Node19</title>
<g id="a_node19"><a xlink:href="a00299.html" target="_top" xlink:title=" ">
<polygon fill="white" stroke="black" points="1357.5,-145.5 1357.5,-186.5 1516.5,-186.5 1516.5,-145.5 1357.5,-145.5"/>
<text text-anchor="start" x="1365.5" y="-174.5" font-family="Helvetica,sans-Serif" font-size="10.00">/home/runner/work/Raytracer</text>
<text text-anchor="start" x="1365.5" y="-163.5" font-family="Helvetica,sans-Serif" font-size="10.00">/Raytracer/PluginsExt/Plane</text>
<text text-anchor="middle" x="1437" y="-152.5" font-family="Helvetica,sans-Serif" font-size="10.00">/PlaneCreator.hpp</text>
</a>
</g>
</g>
<!-- Node18&#45;&gt;Node19 -->
<g id="edge18" class="edge">
<title>Node18&#45;&gt;Node19</title>
<path fill="none" stroke="midnightblue" d="M1437,-213.3C1437,-204.3 1437,-194.65 1437,-186.51"/>
<polygon fill="midnightblue" stroke="midnightblue" points="1433.5,-213.43 1437,-223.43 1440.5,-213.43 1433.5,-213.43"/>
</g>
<!-- Node21 -->
<g id="node21" class="node">
<title>Node21</title>
<g id="a_node21"><a xlink:href="a00311.html" target="_top" xlink:title=" ">
<polygon fill="white" stroke="black" points="619.5,-145.5 619.5,-186.5 778.5,-186.5 778.5,-145.5 619.5,-145.5"/>
<text text-anchor="start" x="627.5" y="-174.5" font-family="Helvetica,sans-Serif" font-size="10.00">/home/runner/work/Raytracer</text>
<text text-anchor="start" x="627.5" y="-163.5" font-family="Helvetica,sans-Serif" font-size="10.00">/Raytracer/PluginsExt/Sphere</text>
<text text-anchor="middle" x="699" y="-152.5" font-family="Helvetica,sans-Serif" font-size="10.00">/SphereCreator.hpp</text>
</a>
</g>
</g>
<!-- Node20&#45;&gt;Node21 -->
<g id="edge20" class="edge">
<title>Node20&#45;&gt;Node21</title>
<path fill="none" stroke="midnightblue" d="M699,-213.3C699,-204.3 699,-194.65 699,-186.51"/>
<polygon fill="midnightblue" stroke="midnightblue" points="695.5,-213.43 699,-223.43 702.5,-213.43 695.5,-213.43"/>
</g>
<!-- Node22&#45;&gt;Node23 -->
<g id="edge22" class="edge">
<title>Node22&#45;&gt;Node23</title>
<path fill="none" stroke="midnightblue" d="M546.17,-291.35C542.92,-271.89 538.44,-245.89 534,-223 531.65,-210.9 528.77,-197.38 526.41,-186.66"/>
<polygon fill="midnightblue" stroke="midnightblue" points="542.75,-292.14 547.84,-301.44 549.66,-291 542.75,-292.14"/>
</g>
<!-- Node23&#45;&gt;Node24 -->
<g id="edge23" class="edge">
<title>Node23&#45;&gt;Node24</title>
<path fill="none" stroke="midnightblue" d="M486.29,-139.64C472,-129.49 455.8,-117.98 442.46,-108.51"/>
<polygon fill="midnightblue" stroke="midnightblue" points="484.27,-142.49 494.44,-145.43 488.32,-136.78 484.27,-142.49"/>
</g>
<!-- Node25 -->
<g id="node25" class="node">
<title>Node25</title>
<g id="a_node25"><a xlink:href="a00212.html" target="_top" xlink:title=" ">
<polygon fill="white" stroke="black" points="311.5,-0.5 311.5,-30.5 518.5,-30.5 518.5,-0.5 311.5,-0.5"/>
<text text-anchor="start" x="319.5" y="-18.5" font-family="Helvetica,sans-Serif" font-size="10.00">/home/runner/work/Raytracer</text>
<text text-anchor="middle" x="415" y="-7.5" font-family="Helvetica,sans-Serif" font-size="10.00">/Raytracer/src/Scenes/SceneLoader.hpp</text>
</a>
</g>
</g>
<!-- Node24&#45;&gt;Node25 -->
<g id="edge24" class="edge">
<title>Node24&#45;&gt;Node25</title>
<path fill="none" stroke="midnightblue" d="M415,-57.08C415,-48.01 415,-38.45 415,-30.89"/>
<polygon fill="midnightblue" stroke="midnightblue" points="411.5,-57.36 415,-67.36 418.5,-57.36 411.5,-57.36"/>
</g>
<!-- Node26&#45;&gt;Node27 -->
<g id="edge27" class="edge">
<title>Node26&#45;&gt;Node27</title>
<path fill="none" stroke="midnightblue" d="M339.19,-296.77C359.48,-286.35 382.87,-274.34 402.02,-264.51"/>
<polygon fill="midnightblue" stroke="midnightblue" points="337.41,-293.75 330.11,-301.43 340.61,-299.97 337.41,-293.75"/>
</g>
<!-- Node28 -->
<g id="node28" class="node">
<title>Node28</title>
<g id="a_node28"><a xlink:href="a00296.html" target="_top" xlink:title=" ">
<polygon fill="white" stroke="black" points="57,-223.5 57,-264.5 245,-264.5 245,-223.5 57,-223.5"/>
<text text-anchor="start" x="65" y="-252.5" font-family="Helvetica,sans-Serif" font-size="10.00">/home/runner/work/Raytracer</text>
<text text-anchor="start" x="65" y="-241.5" font-family="Helvetica,sans-Serif" font-size="10.00">/Raytracer/PluginsExt/PlainMaterial</text>
<text text-anchor="middle" x="151" y="-230.5" font-family="Helvetica,sans-Serif" font-size="10.00">/PlainMaterialCreator.hpp</text>
</a>
</g>
</g>
<!-- Node26&#45;&gt;Node28 -->
<g id="edge30" class="edge">
<title>Node26&#45;&gt;Node28</title>
<path fill="none" stroke="midnightblue" d="M246.78,-296.63C227.51,-286.24 205.34,-274.29 187.19,-264.51"/>
<polygon fill="midnightblue" stroke="midnightblue" points="245.23,-299.76 255.69,-301.43 248.55,-293.6 245.23,-299.76"/>
</g>
<!-- Node27&#45;&gt;Node23 -->
<g id="edge28" class="edge">
<title>Node27&#45;&gt;Node23</title>
<path fill="none" stroke="midnightblue" d="M468.6,-216.49C479.24,-206.63 491.11,-195.63 500.95,-186.51"/>
<polygon fill="midnightblue" stroke="midnightblue" points="466.07,-214.06 461.12,-223.43 470.83,-219.2 466.07,-214.06"/>
</g>
<!-- Node27&#45;&gt;Node24 -->
<g id="edge29" class="edge">
<title>Node27&#45;&gt;Node24</title>
<path fill="none" stroke="midnightblue" d="M435.19,-213.36C430.2,-182.61 422.53,-135.36 418.22,-108.83"/>
<polygon fill="midnightblue" stroke="midnightblue" points="431.78,-214.19 436.83,-223.5 438.69,-213.06 431.78,-214.19"/>
</g>
<!-- Node29&#45;&gt;Node28 -->
<g id="edge39" class="edge">
<title>Node29&#45;&gt;Node28</title>
<path fill="none" stroke="midnightblue" d="M114.75,-293.34C121.92,-283.78 129.8,-273.27 136.37,-264.51"/>
<polygon fill="midnightblue" stroke="midnightblue" points="111.88,-291.33 108.68,-301.43 117.48,-295.53 111.88,-291.33"/>
</g>
<!-- Node31 -->
<g id="node31" class="node">
<title>Node31</title>
<g id="a_node31"><a xlink:href="a00128.html" target="_top" xlink:title=" ">
<polygon fill="white" stroke="black" points="1813,-301.5 1813,-342.5 1991,-342.5 1991,-301.5 1813,-301.5"/>
<text text-anchor="start" x="1821" y="-330.5" font-family="Helvetica,sans-Serif" font-size="10.00">/home/runner/work/Raytracer</text>
<text text-anchor="start" x="1821" y="-319.5" font-family="Helvetica,sans-Serif" font-size="10.00">/Raytracer/src/Images/ImagePipe</text>
<text text-anchor="middle" x="1902" y="-308.5" font-family="Helvetica,sans-Serif" font-size="10.00">Line.hpp</text>
</a>
</g>
</g>
<!-- Node30&#45;&gt;Node31 -->
<g id="edge44" class="edge">
<title>Node30&#45;&gt;Node31</title>
<path fill="none" stroke="midnightblue" d="M1857.31,-376.91C1866.28,-366.09 1877,-353.16 1885.69,-342.68"/>
<polygon fill="midnightblue" stroke="midnightblue" points="1854.54,-374.77 1850.85,-384.7 1859.93,-379.24 1854.54,-374.77"/>
</g>
<!-- Node30&#45;&gt;Node32 -->
<g id="edge45" class="edge">
<title>Node30&#45;&gt;Node32</title>
<path fill="none" stroke="midnightblue" d="M1802.83,-380.17C1777.17,-366.82 1743.29,-349.18 1719.97,-337.04"/>
<polygon fill="midnightblue" stroke="midnightblue" points="1801.39,-383.37 1811.88,-384.88 1804.63,-377.16 1801.39,-383.37"/>
</g>
<!-- Node30&#45;&gt;Node33 -->
<g id="edge46" class="edge">
<title>Node30&#45;&gt;Node33</title>
<path fill="none" stroke="midnightblue" d="M1895.31,-382.08C1934.28,-370.38 1986.25,-354.77 2026.99,-342.53"/>
<polygon fill="midnightblue" stroke="midnightblue" points="1894.27,-378.74 1885.7,-384.97 1896.28,-385.45 1894.27,-378.74"/>
</g>
<!-- Node30&#45;&gt;Node34 -->
<g id="edge47" class="edge">
<title>Node30&#45;&gt;Node34</title>
<path fill="none" stroke="midnightblue" d="M1940.19,-383.43C2009.25,-372.6 2102.76,-357.56 2185,-343 2187.9,-342.49 2190.84,-341.96 2193.81,-341.42"/>
<polygon fill="midnightblue" stroke="midnightblue" points="1939.52,-379.99 1930.19,-384.99 1940.61,-386.91 1939.52,-379.99"/>
</g>
</g>
</svg>
