<?xml version="1.0" encoding="UTF-8" standalone="no"?>
<!DOCTYPE svg PUBLIC "-//W3C//DTD SVG 1.1//EN"
 "http://www.w3.org/Graphics/SVG/1.1/DTD/svg11.dtd">
<!-- Generated by graphviz version 2.43.0 (0)
 -->
<!-- Title: /home/runner/work/Raytracer/Raytracer/src/Plugins/Entities/IEntityCreator.hpp Pages: 1 -->
<svg width="364pt" height="330pt"
 viewBox="0.00 0.00 364.00 330.00" xmlns="http://www.w3.org/2000/svg" xmlns:xlink="http://www.w3.org/1999/xlink">
<g id="graph0" class="graph" transform="scale(1 1) rotate(0) translate(4 326)">
<title>/home/runner/work/Raytracer/Raytracer/src/Plugins/Entities/IEntityCreator.hpp</title>
<polygon fill="white" stroke="transparent" points="-4,4 -4,-326 360,-326 360,4 -4,4"/>
<!-- Node1 -->
<g id="node1" class="node">
<title>Node1</title>
<g id="a_node1"><a xlink:title=" ">
<polygon fill="#bfbfbf" stroke="black" points="85,-280.5 85,-321.5 247,-321.5 247,-280.5 85,-280.5"/>
<text text-anchor="start" x="93" y="-309.5" font-family="Helvetica,sans-Serif" font-size="10.00">/home/runner/work/Raytracer</text>
<text text-anchor="start" x="93" y="-298.5" font-family="Helvetica,sans-Serif" font-size="10.00">/Raytracer/src/Plugins/Entities</text>
<text text-anchor="middle" x="166" y="-287.5" font-family="Helvetica,sans-Serif" font-size="10.00">/IEntityCreator.hpp</text>
</a>
</g>
</g>
<!-- Node2 -->
<g id="node2" class="node">
<title>Node2</title>
<g id="a_node2"><a xlink:title=" ">
<polygon fill="white" stroke="#bfbfbf" points="8,-0.5 8,-19.5 66,-19.5 66,-0.5 8,-0.5"/>
<text text-anchor="middle" x="37" y="-7.5" font-family="Helvetica,sans-Serif" font-size="10.00">memory</text>
</a>
</g>
</g>
<!-- Node1&#45;&gt;Node2 -->
<g id="edge1" class="edge">
<title>Node1&#45;&gt;Node2</title>
<path fill="none" stroke="midnightblue" d="M98.96,-280.46C52.89,-262.44 0,-230.53 0,-179 0,-179 0,-179 0,-121 0,-86.89 16.18,-49.79 27.14,-28.57"/>
<polygon fill="midnightblue" stroke="midnightblue" points="30.36,-29.98 32.01,-19.51 24.19,-26.66 30.36,-29.98"/>
</g>
<!-- Node3 -->
<g id="node3" class="node">
<title>Node3</title>
<g id="a_node3"><a xlink:href="a00101.html" target="_top" xlink:title=" ">
<polygon fill="white" stroke="black" points="83,-224.5 83,-243.5 151,-243.5 151,-224.5 83,-224.5"/>
<text text-anchor="middle" x="117" y="-231.5" font-family="Helvetica,sans-Serif" font-size="10.00">IEntity.hpp</text>
</a>
</g>
</g>
<!-- Node1&#45;&gt;Node3 -->
<g id="edge2" class="edge">
<title>Node1&#45;&gt;Node3</title>
<path fill="none" stroke="midnightblue" d="M151.3,-280.5C144.44,-271.39 136.35,-260.66 129.75,-251.91"/>
<polygon fill="midnightblue" stroke="midnightblue" points="132.34,-249.53 123.52,-243.65 126.75,-253.74 132.34,-249.53"/>
</g>
<!-- Node7 -->
<g id="node7" class="node">
<title>Node7</title>
<g id="a_node7"><a xlink:href="a00236.html" target="_top" xlink:title=" ">
<polygon fill="white" stroke="black" points="124.5,-56.5 124.5,-75.5 199.5,-75.5 199.5,-56.5 124.5,-56.5"/>
<text text-anchor="middle" x="162" y="-63.5" font-family="Helvetica,sans-Serif" font-size="10.00">ISetting.hpp</text>
</a>
</g>
</g>
<!-- Node1&#45;&gt;Node7 -->
<g id="edge12" class="edge">
<title>Node1&#45;&gt;Node7</title>
<path fill="none" stroke="midnightblue" d="M169.87,-280.33C174.47,-254.55 181.14,-207.92 178,-168 175.72,-139.02 169.81,-105.78 165.85,-85.6"/>
<polygon fill="midnightblue" stroke="midnightblue" points="169.24,-84.7 163.83,-75.59 162.37,-86.09 169.24,-84.7"/>
</g>
<!-- Node9 -->
<g id="node9" class="node">
<title>Node9</title>
<g id="a_node9"><a xlink:href="a00149.html" target="_top" xlink:title=" ">
<polygon fill="white" stroke="black" points="226.5,-224.5 226.5,-243.5 299.5,-243.5 299.5,-224.5 226.5,-224.5"/>
<text text-anchor="middle" x="263" y="-231.5" font-family="Helvetica,sans-Serif" font-size="10.00">ILogger.hpp</text>
</a>
</g>
</g>
<!-- Node1&#45;&gt;Node9 -->
<g id="edge9" class="edge">
<title>Node1&#45;&gt;Node9</title>
<path fill="none" stroke="midnightblue" d="M195.1,-280.5C209.98,-270.53 227.76,-258.61 241.4,-249.48"/>
<polygon fill="midnightblue" stroke="midnightblue" points="243.73,-252.13 250.09,-243.65 239.83,-246.31 243.73,-252.13"/>
</g>
<!-- Node4 -->
<g id="node4" class="node">
<title>Node4</title>
<g id="a_node4"><a xlink:href="a00113.html" target="_top" xlink:title=" ">
<polygon fill="white" stroke="black" points="28.5,-168.5 28.5,-187.5 169.5,-187.5 169.5,-168.5 28.5,-168.5"/>
<text text-anchor="middle" x="99" y="-175.5" font-family="Helvetica,sans-Serif" font-size="10.00">Transform/ITransform.hpp</text>
</a>
</g>
</g>
<!-- Node3&#45;&gt;Node4 -->
<g id="edge3" class="edge">
<title>Node3&#45;&gt;Node4</title>
<path fill="none" stroke="midnightblue" d="M114.03,-224.08C111.62,-216.85 108.14,-206.41 105.13,-197.4"/>
<polygon fill="midnightblue" stroke="midnightblue" points="108.4,-196.13 101.92,-187.75 101.76,-198.34 108.4,-196.13"/>
</g>
<!-- Node5 -->
<g id="node5" class="node">
<title>Node5</title>
<g id="a_node5"><a xlink:href="a00122.html" target="_top" xlink:title=" ">
<polygon fill="white" stroke="black" points="60.5,-112.5 60.5,-131.5 137.5,-131.5 137.5,-112.5 60.5,-112.5"/>
<text text-anchor="middle" x="99" y="-119.5" font-family="Helvetica,sans-Serif" font-size="10.00">Vector3f.hpp</text>
</a>
</g>
</g>
<!-- Node4&#45;&gt;Node5 -->
<g id="edge4" class="edge">
<title>Node4&#45;&gt;Node5</title>
<path fill="none" stroke="midnightblue" d="M99,-168.08C99,-161.01 99,-150.86 99,-141.99"/>
<polygon fill="midnightblue" stroke="midnightblue" points="102.5,-141.75 99,-131.75 95.5,-141.75 102.5,-141.75"/>
</g>
<!-- Node6 -->
<g id="node6" class="node">
<title>Node6</title>
<g id="a_node6"><a xlink:title=" ">
<polygon fill="white" stroke="#bfbfbf" points="49.5,-56.5 49.5,-75.5 106.5,-75.5 106.5,-56.5 49.5,-56.5"/>
<text text-anchor="middle" x="78" y="-63.5" font-family="Helvetica,sans-Serif" font-size="10.00">ostream</text>
</a>
</g>
</g>
<!-- Node5&#45;&gt;Node6 -->
<g id="edge5" class="edge">
<title>Node5&#45;&gt;Node6</title>
<path fill="none" stroke="midnightblue" d="M95.53,-112.08C92.69,-104.77 88.57,-94.18 85.04,-85.1"/>
<polygon fill="midnightblue" stroke="midnightblue" points="88.29,-83.8 81.4,-75.75 81.77,-86.34 88.29,-83.8"/>
</g>
<!-- Node5&#45;&gt;Node7 -->
<g id="edge6" class="edge">
<title>Node5&#45;&gt;Node7</title>
<path fill="none" stroke="midnightblue" d="M109.12,-112.32C118.53,-104.26 132.74,-92.08 144.07,-82.37"/>
<polygon fill="midnightblue" stroke="midnightblue" points="146.38,-85 151.69,-75.83 141.82,-79.68 146.38,-85"/>
</g>
<!-- Node7&#45;&gt;Node2 -->
<g id="edge7" class="edge">
<title>Node7&#45;&gt;Node2</title>
<path fill="none" stroke="midnightblue" d="M142.19,-56.44C121.71,-47.6 89.52,-33.69 66.14,-23.59"/>
<polygon fill="midnightblue" stroke="midnightblue" points="67.28,-20.27 56.71,-19.52 64.51,-26.7 67.28,-20.27"/>
</g>
<!-- Node8 -->
<g id="node8" class="node">
<title>Node8</title>
<g id="a_node8"><a xlink:title=" ">
<polygon fill="white" stroke="#bfbfbf" points="120.5,-0.5 120.5,-19.5 203.5,-19.5 203.5,-0.5 120.5,-0.5"/>
<text text-anchor="middle" x="162" y="-7.5" font-family="Helvetica,sans-Serif" font-size="10.00">libconfig.h++</text>
</a>
</g>
</g>
<!-- Node7&#45;&gt;Node8 -->
<g id="edge8" class="edge">
<title>Node7&#45;&gt;Node8</title>
<path fill="none" stroke="midnightblue" d="M162,-56.08C162,-49.01 162,-38.86 162,-29.99"/>
<polygon fill="midnightblue" stroke="midnightblue" points="165.5,-29.75 162,-19.75 158.5,-29.75 165.5,-29.75"/>
</g>
<!-- Node10 -->
<g id="node10" class="node">
<title>Node10</title>
<g id="a_node10"><a xlink:title=" ">
<polygon fill="white" stroke="#bfbfbf" points="228.5,-168.5 228.5,-187.5 293.5,-187.5 293.5,-168.5 228.5,-168.5"/>
<text text-anchor="middle" x="261" y="-175.5" font-family="Helvetica,sans-Serif" font-size="10.00">functional</text>
</a>
</g>
</g>
<!-- Node9&#45;&gt;Node10 -->
<g id="edge10" class="edge">
<title>Node9&#45;&gt;Node10</title>
<path fill="none" stroke="midnightblue" d="M262.67,-224.08C262.41,-217.01 262.03,-206.86 261.7,-197.99"/>
<polygon fill="midnightblue" stroke="midnightblue" points="265.19,-197.61 261.32,-187.75 258.2,-197.87 265.19,-197.61"/>
</g>
<!-- Node11 -->
<g id="node11" class="node">
<title>Node11</title>
<g id="a_node11"><a xlink:title=" ">
<polygon fill="white" stroke="#bfbfbf" points="312,-168.5 312,-187.5 356,-187.5 356,-168.5 312,-168.5"/>
<text text-anchor="middle" x="334" y="-175.5" font-family="Helvetica,sans-Serif" font-size="10.00">string</text>
</a>
</g>
</g>
<!-- Node9&#45;&gt;Node11 -->
<g id="edge11" class="edge">
<title>Node9&#45;&gt;Node11</title>
<path fill="none" stroke="midnightblue" d="M274.41,-224.32C285.11,-216.18 301.34,-203.84 314.16,-194.09"/>
<polygon fill="midnightblue" stroke="midnightblue" points="316.54,-196.67 322.39,-187.83 312.31,-191.1 316.54,-196.67"/>
</g>
</g>
</svg>
