<?xml version="1.0" encoding="UTF-8" standalone="no"?>
<!DOCTYPE svg PUBLIC "-//W3C//DTD SVG 1.1//EN"
 "http://www.w3.org/Graphics/SVG/1.1/DTD/svg11.dtd">
<!-- Generated by graphviz version 2.43.0 (0)
 -->
<!-- Title: /home/runner/work/Raytracer/Raytracer/src/Plugins/Filters/FilterLoader.hpp Pages: 1 -->
<svg width="1175pt" height="554pt"
 viewBox="0.00 0.00 1175.00 554.00" xmlns="http://www.w3.org/2000/svg" xmlns:xlink="http://www.w3.org/1999/xlink">
<g id="graph0" class="graph" transform="scale(1 1) rotate(0) translate(4 550)">
<title>/home/runner/work/Raytracer/Raytracer/src/Plugins/Filters/FilterLoader.hpp</title>
<polygon fill="white" stroke="transparent" points="-4,4 -4,-550 1171,-550 1171,4 -4,4"/>
<!-- Node1 -->
<g id="node1" class="node">
<title>Node1</title>
<g id="a_node1"><a xlink:title=" ">
<polygon fill="#bfbfbf" stroke="black" points="245.5,-504.5 245.5,-545.5 404.5,-545.5 404.5,-504.5 245.5,-504.5"/>
<text text-anchor="start" x="253.5" y="-533.5" font-family="Helvetica,sans-Serif" font-size="10.00">/home/runner/work/Raytracer</text>
<text text-anchor="start" x="253.5" y="-522.5" font-family="Helvetica,sans-Serif" font-size="10.00">/Raytracer/src/Plugins/Filters</text>
<text text-anchor="middle" x="325" y="-511.5" font-family="Helvetica,sans-Serif" font-size="10.00">/FilterLoader.hpp</text>
</a>
</g>
</g>
<!-- Node2 -->
<g id="node2" class="node">
<title>Node2</title>
<g id="a_node2"><a xlink:title=" ">
<polygon fill="white" stroke="#bfbfbf" points="358,-168.5 358,-187.5 402,-187.5 402,-168.5 358,-168.5"/>
<text text-anchor="middle" x="380" y="-175.5" font-family="Helvetica,sans-Serif" font-size="10.00">string</text>
</a>
</g>
</g>
<!-- Node1&#45;&gt;Node2 -->
<g id="edge1" class="edge">
<title>Node1&#45;&gt;Node2</title>
<path fill="none" stroke="midnightblue" d="M287.03,-504.32C253.53,-483.93 210,-448.65 210,-403 210,-403 210,-403 210,-289 210,-258.9 207.77,-245.34 229,-224 260.6,-192.24 313.57,-182.7 347.63,-179.95"/>
<polygon fill="midnightblue" stroke="midnightblue" points="348.22,-183.42 357.97,-179.27 347.77,-176.43 348.22,-183.42"/>
</g>
<!-- Node3 -->
<g id="node3" class="node">
<title>Node3</title>
<g id="a_node3"><a xlink:href="a00113.html" target="_top" xlink:title=" ">
<polygon fill="white" stroke="black" points="238.5,-280.5 238.5,-299.5 315.5,-299.5 315.5,-280.5 238.5,-280.5"/>
<text text-anchor="middle" x="277" y="-287.5" font-family="Helvetica,sans-Serif" font-size="10.00">TFactory.hpp</text>
</a>
</g>
</g>
<!-- Node1&#45;&gt;Node3 -->
<g id="edge2" class="edge">
<title>Node1&#45;&gt;Node3</title>
<path fill="none" stroke="midnightblue" d="M317.42,-504.28C313.57,-493.66 309.06,-480.25 306,-468 291.82,-411.23 282.83,-342.43 279.05,-309.85"/>
<polygon fill="midnightblue" stroke="midnightblue" points="282.49,-309.12 277.9,-299.58 275.54,-309.9 282.49,-309.12"/>
</g>
<!-- Node9 -->
<g id="node9" class="node">
<title>Node9</title>
<g id="a_node9"><a xlink:href="a00116.html" target="_top" xlink:title=" ">
<polygon fill="white" stroke="black" points="749.5,-280.5 749.5,-299.5 814.5,-299.5 814.5,-280.5 749.5,-280.5"/>
<text text-anchor="middle" x="782" y="-287.5" font-family="Helvetica,sans-Serif" font-size="10.00">IFilter.hpp</text>
</a>
</g>
</g>
<!-- Node1&#45;&gt;Node9 -->
<g id="edge11" class="edge">
<title>Node1&#45;&gt;Node9</title>
<path fill="none" stroke="midnightblue" d="M401.9,-504.42C475.41,-484.67 588.69,-451.49 683,-412 731.78,-391.57 760.79,-401.35 788,-356 796.37,-342.04 793.46,-323.29 789.3,-309.51"/>
<polygon fill="midnightblue" stroke="midnightblue" points="792.48,-308.01 785.87,-299.72 785.87,-310.32 792.48,-308.01"/>
</g>
<!-- Node18 -->
<g id="node18" class="node">
<title>Node18</title>
<g id="a_node18"><a xlink:href="a00164.html" target="_top" xlink:title=" ">
<polygon fill="white" stroke="black" points="410,-392.5 410,-411.5 510,-411.5 510,-392.5 410,-392.5"/>
<text text-anchor="middle" x="460" y="-399.5" font-family="Helvetica,sans-Serif" font-size="10.00">FilterHandler.hpp</text>
</a>
</g>
</g>
<!-- Node1&#45;&gt;Node18 -->
<g id="edge25" class="edge">
<title>Node1&#45;&gt;Node18</title>
<path fill="none" stroke="midnightblue" d="M368.26,-504.27C385.67,-494.94 405.1,-482.62 420,-468 433.85,-454.41 444.95,-435.1 451.9,-421.05"/>
<polygon fill="midnightblue" stroke="midnightblue" points="455.11,-422.46 456.22,-411.92 448.78,-419.47 455.11,-422.46"/>
</g>
<!-- Node23 -->
<g id="node23" class="node">
<title>Node23</title>
<g id="a_node23"><a xlink:href="a00185.html" target="_top" xlink:title=" ">
<polygon fill="white" stroke="black" points="82,-336.5 82,-355.5 182,-355.5 182,-336.5 82,-336.5"/>
<text text-anchor="middle" x="132" y="-343.5" font-family="Helvetica,sans-Serif" font-size="10.00">PluginLoader.hpp</text>
</a>
</g>
</g>
<!-- Node1&#45;&gt;Node23 -->
<g id="edge44" class="edge">
<title>Node1&#45;&gt;Node23</title>
<path fill="none" stroke="midnightblue" d="M256.97,-504.38C235.64,-495.78 213.2,-483.92 196,-468 164.72,-439.04 145.85,-391.26 137.36,-365.25"/>
<polygon fill="midnightblue" stroke="midnightblue" points="140.66,-364.07 134.35,-355.55 133.97,-366.14 140.66,-364.07"/>
</g>
<!-- Node25 -->
<g id="node25" class="node">
<title>Node25</title>
<g id="a_node25"><a xlink:href="a00098.html" target="_top" xlink:title=" ">
<polygon fill="white" stroke="black" points="315,-448.5 315,-467.5 411,-467.5 411,-448.5 315,-448.5"/>
<text text-anchor="middle" x="363" y="-455.5" font-family="Helvetica,sans-Serif" font-size="10.00">FilterFactory.hpp</text>
</a>
</g>
</g>
<!-- Node1&#45;&gt;Node25 -->
<g id="edge49" class="edge">
<title>Node1&#45;&gt;Node25</title>
<path fill="none" stroke="midnightblue" d="M336.4,-504.5C341.61,-495.59 347.73,-485.11 352.79,-476.46"/>
<polygon fill="midnightblue" stroke="midnightblue" points="355.92,-478.05 357.94,-467.65 349.87,-474.52 355.92,-478.05"/>
</g>
<!-- Node3&#45;&gt;Node2 -->
<g id="edge3" class="edge">
<title>Node3&#45;&gt;Node2</title>
<path fill="none" stroke="midnightblue" d="M285.08,-280.37C302.31,-261.97 342.85,-218.67 364.97,-195.05"/>
<polygon fill="midnightblue" stroke="midnightblue" points="367.68,-197.28 371.96,-187.59 362.57,-192.5 367.68,-197.28"/>
</g>
<!-- Node4 -->
<g id="node4" class="node">
<title>Node4</title>
<g id="a_node4"><a xlink:title=" ">
<polygon fill="white" stroke="#bfbfbf" points="519,-0.5 519,-19.5 577,-19.5 577,-0.5 519,-0.5"/>
<text text-anchor="middle" x="548" y="-7.5" font-family="Helvetica,sans-Serif" font-size="10.00">memory</text>
</a>
</g>
</g>
<!-- Node3&#45;&gt;Node4 -->
<g id="edge4" class="edge">
<title>Node3&#45;&gt;Node4</title>
<path fill="none" stroke="midnightblue" d="M246.32,-280.46C204.3,-266.68 134,-235.22 134,-179 134,-179 134,-179 134,-121 134,-43.89 405.67,-19.52 508.87,-13.05"/>
<polygon fill="midnightblue" stroke="midnightblue" points="509.12,-16.54 518.89,-12.45 508.7,-9.56 509.12,-16.54"/>
</g>
<!-- Node5 -->
<g id="node5" class="node">
<title>Node5</title>
<g id="a_node5"><a xlink:title=" ">
<polygon fill="white" stroke="#bfbfbf" points="238,-224.5 238,-243.5 276,-243.5 276,-224.5 238,-224.5"/>
<text text-anchor="middle" x="257" y="-231.5" font-family="Helvetica,sans-Serif" font-size="10.00">map</text>
</a>
</g>
</g>
<!-- Node3&#45;&gt;Node5 -->
<g id="edge5" class="edge">
<title>Node3&#45;&gt;Node5</title>
<path fill="none" stroke="midnightblue" d="M273.7,-280.08C271.02,-272.85 267.15,-262.41 263.81,-253.4"/>
<polygon fill="midnightblue" stroke="midnightblue" points="267,-251.91 260.24,-243.75 260.43,-254.34 267,-251.91"/>
</g>
<!-- Node6 -->
<g id="node6" class="node">
<title>Node6</title>
<g id="a_node6"><a xlink:href="a00119.html" target="_top" xlink:title=" ">
<polygon fill="white" stroke="black" points="408.5,-224.5 408.5,-243.5 481.5,-243.5 481.5,-224.5 408.5,-224.5"/>
<text text-anchor="middle" x="445" y="-231.5" font-family="Helvetica,sans-Serif" font-size="10.00">ILogger.hpp</text>
</a>
</g>
</g>
<!-- Node3&#45;&gt;Node6 -->
<g id="edge6" class="edge">
<title>Node3&#45;&gt;Node6</title>
<path fill="none" stroke="midnightblue" d="M303.62,-280.44C332.01,-271.32 377.14,-256.81 408.75,-246.65"/>
<polygon fill="midnightblue" stroke="midnightblue" points="410.06,-249.91 418.5,-243.52 407.91,-243.24 410.06,-249.91"/>
</g>
<!-- Node7 -->
<g id="node7" class="node">
<title>Node7</title>
<g id="a_node7"><a xlink:href="a00206.html" target="_top" xlink:title=" ">
<polygon fill="white" stroke="black" points="624.5,-56.5 624.5,-75.5 699.5,-75.5 699.5,-56.5 624.5,-56.5"/>
<text text-anchor="middle" x="662" y="-63.5" font-family="Helvetica,sans-Serif" font-size="10.00">ISetting.hpp</text>
</a>
</g>
</g>
<!-- Node3&#45;&gt;Node7 -->
<g id="edge8" class="edge">
<title>Node3&#45;&gt;Node7</title>
<path fill="none" stroke="midnightblue" d="M279.77,-280.23C287.22,-258.04 309.82,-199.24 349,-168 428.35,-104.73 548.4,-80.63 614.38,-71.81"/>
<polygon fill="midnightblue" stroke="midnightblue" points="615.01,-75.26 624.49,-70.52 614.13,-68.31 615.01,-75.26"/>
</g>
<!-- Node6&#45;&gt;Node2 -->
<g id="edge7" class="edge">
<title>Node6&#45;&gt;Node2</title>
<path fill="none" stroke="midnightblue" d="M434.56,-224.32C424.85,-216.26 410.18,-204.08 398.5,-194.37"/>
<polygon fill="midnightblue" stroke="midnightblue" points="400.56,-191.53 390.63,-187.83 396.09,-196.92 400.56,-191.53"/>
</g>
<!-- Node7&#45;&gt;Node4 -->
<g id="edge9" class="edge">
<title>Node7&#45;&gt;Node4</title>
<path fill="none" stroke="midnightblue" d="M643.94,-56.44C625.43,-47.68 596.42,-33.94 575.14,-23.86"/>
<polygon fill="midnightblue" stroke="midnightblue" points="576.51,-20.63 565.98,-19.52 573.52,-26.96 576.51,-20.63"/>
</g>
<!-- Node8 -->
<g id="node8" class="node">
<title>Node8</title>
<g id="a_node8"><a xlink:title=" ">
<polygon fill="white" stroke="#bfbfbf" points="620.5,-0.5 620.5,-19.5 703.5,-19.5 703.5,-0.5 620.5,-0.5"/>
<text text-anchor="middle" x="662" y="-7.5" font-family="Helvetica,sans-Serif" font-size="10.00">libconfig.h++</text>
</a>
</g>
</g>
<!-- Node7&#45;&gt;Node8 -->
<g id="edge10" class="edge">
<title>Node7&#45;&gt;Node8</title>
<path fill="none" stroke="midnightblue" d="M662,-56.08C662,-49.01 662,-38.86 662,-29.99"/>
<polygon fill="midnightblue" stroke="midnightblue" points="665.5,-29.75 662,-19.75 658.5,-29.75 665.5,-29.75"/>
</g>
<!-- Node10 -->
<g id="node10" class="node">
<title>Node10</title>
<g id="a_node10"><a xlink:href="a00125.html" target="_top" xlink:title=" ">
<polygon fill="white" stroke="black" points="753,-224.5 753,-243.5 821,-243.5 821,-224.5 753,-224.5"/>
<text text-anchor="middle" x="787" y="-231.5" font-family="Helvetica,sans-Serif" font-size="10.00">Image.hpp</text>
</a>
</g>
</g>
<!-- Node9&#45;&gt;Node10 -->
<g id="edge12" class="edge">
<title>Node9&#45;&gt;Node10</title>
<path fill="none" stroke="midnightblue" d="M782.83,-280.08C783.48,-273.01 784.42,-262.86 785.24,-253.99"/>
<polygon fill="midnightblue" stroke="midnightblue" points="788.75,-254.03 786.19,-243.75 781.78,-253.39 788.75,-254.03"/>
</g>
<!-- Node10&#45;&gt;Node2 -->
<g id="edge14" class="edge">
<title>Node10&#45;&gt;Node2</title>
<path fill="none" stroke="midnightblue" d="M753,-228.49C675.79,-218.24 488.08,-193.34 412.41,-183.3"/>
<polygon fill="midnightblue" stroke="midnightblue" points="412.46,-179.78 402.09,-181.93 411.54,-186.72 412.46,-179.78"/>
</g>
<!-- Node11 -->
<g id="node11" class="node">
<title>Node11</title>
<g id="a_node11"><a xlink:title=" ">
<polygon fill="white" stroke="#bfbfbf" points="823.5,-168.5 823.5,-187.5 876.5,-187.5 876.5,-168.5 823.5,-168.5"/>
<text text-anchor="middle" x="850" y="-175.5" font-family="Helvetica,sans-Serif" font-size="10.00">cstddef</text>
</a>
</g>
</g>
<!-- Node10&#45;&gt;Node11 -->
<g id="edge13" class="edge">
<title>Node10&#45;&gt;Node11</title>
<path fill="none" stroke="midnightblue" d="M797.12,-224.32C806.53,-216.26 820.74,-204.08 832.07,-194.37"/>
<polygon fill="midnightblue" stroke="midnightblue" points="834.38,-197 839.69,-187.83 829.82,-191.68 834.38,-197"/>
</g>
<!-- Node12 -->
<g id="node12" class="node">
<title>Node12</title>
<g id="a_node12"><a xlink:title=" ">
<polygon fill="white" stroke="#bfbfbf" points="975.5,-168.5 975.5,-187.5 1022.5,-187.5 1022.5,-168.5 975.5,-168.5"/>
<text text-anchor="middle" x="999" y="-175.5" font-family="Helvetica,sans-Serif" font-size="10.00">vector</text>
</a>
</g>
</g>
<!-- Node10&#45;&gt;Node12 -->
<g id="edge15" class="edge">
<title>Node10&#45;&gt;Node12</title>
<path fill="none" stroke="midnightblue" d="M821.03,-224.66C855.11,-216.26 909.29,-202.78 965.46,-188.1"/>
<polygon fill="midnightblue" stroke="midnightblue" points="966.44,-191.47 975.22,-185.55 964.66,-184.69 966.44,-191.47"/>
</g>
<!-- Node13 -->
<g id="node13" class="node">
<title>Node13</title>
<g id="a_node13"><a xlink:href="a00122.html" target="_top" xlink:title=" ">
<polygon fill="white" stroke="black" points="895,-168.5 895,-187.5 957,-187.5 957,-168.5 895,-168.5"/>
<text text-anchor="middle" x="926" y="-175.5" font-family="Helvetica,sans-Serif" font-size="10.00">Color.hpp</text>
</a>
</g>
</g>
<!-- Node10&#45;&gt;Node13 -->
<g id="edge16" class="edge">
<title>Node10&#45;&gt;Node13</title>
<path fill="none" stroke="midnightblue" d="M809.02,-224.44C832.1,-215.48 868.56,-201.31 894.64,-191.18"/>
<polygon fill="midnightblue" stroke="midnightblue" points="896.02,-194.4 904.08,-187.52 893.49,-187.88 896.02,-194.4"/>
</g>
<!-- Node16 -->
<g id="node16" class="node">
<title>Node16</title>
<g id="a_node16"><a xlink:href="a00089.html" target="_top" xlink:title=" ">
<polygon fill="white" stroke="black" points="728.5,-168.5 728.5,-187.5 805.5,-187.5 805.5,-168.5 728.5,-168.5"/>
<text text-anchor="middle" x="767" y="-175.5" font-family="Helvetica,sans-Serif" font-size="10.00">Vector2i.hpp</text>
</a>
</g>
</g>
<!-- Node10&#45;&gt;Node16 -->
<g id="edge20" class="edge">
<title>Node10&#45;&gt;Node16</title>
<path fill="none" stroke="midnightblue" d="M783.7,-224.08C781.02,-216.85 777.15,-206.41 773.81,-197.4"/>
<polygon fill="midnightblue" stroke="midnightblue" points="777,-195.91 770.24,-187.75 770.43,-198.34 777,-195.91"/>
</g>
<!-- Node13&#45;&gt;Node7 -->
<g id="edge19" class="edge">
<title>Node13&#45;&gt;Node7</title>
<path fill="none" stroke="midnightblue" d="M926.9,-168.42C927.83,-154.47 927.44,-126.92 912,-112 883.84,-84.78 774.42,-73.67 710.04,-69.42"/>
<polygon fill="midnightblue" stroke="midnightblue" points="709.93,-65.9 699.73,-68.77 709.49,-72.89 709.93,-65.9"/>
</g>
<!-- Node14 -->
<g id="node14" class="node">
<title>Node14</title>
<g id="a_node14"><a xlink:title=" ">
<polygon fill="white" stroke="#bfbfbf" points="855,-112.5 855,-131.5 903,-131.5 903,-112.5 855,-112.5"/>
<text text-anchor="middle" x="879" y="-119.5" font-family="Helvetica,sans-Serif" font-size="10.00">mutex</text>
</a>
</g>
</g>
<!-- Node13&#45;&gt;Node14 -->
<g id="edge17" class="edge">
<title>Node13&#45;&gt;Node14</title>
<path fill="none" stroke="midnightblue" d="M918.24,-168.08C911.46,-160.3 901.46,-148.8 893.24,-139.37"/>
<polygon fill="midnightblue" stroke="midnightblue" points="895.82,-137 886.62,-131.75 890.54,-141.59 895.82,-137"/>
</g>
<!-- Node15 -->
<g id="node15" class="node">
<title>Node15</title>
<g id="a_node15"><a xlink:title=" ">
<polygon fill="white" stroke="#bfbfbf" points="779.5,-112.5 779.5,-131.5 836.5,-131.5 836.5,-112.5 779.5,-112.5"/>
<text text-anchor="middle" x="808" y="-119.5" font-family="Helvetica,sans-Serif" font-size="10.00">ostream</text>
</a>
</g>
</g>
<!-- Node13&#45;&gt;Node15 -->
<g id="edge18" class="edge">
<title>Node13&#45;&gt;Node15</title>
<path fill="none" stroke="midnightblue" d="M907.3,-168.44C888.06,-159.64 857.85,-145.81 835.8,-135.72"/>
<polygon fill="midnightblue" stroke="midnightblue" points="837.16,-132.5 826.61,-131.52 834.25,-138.86 837.16,-132.5"/>
</g>
<!-- Node16&#45;&gt;Node15 -->
<g id="edge21" class="edge">
<title>Node16&#45;&gt;Node15</title>
<path fill="none" stroke="midnightblue" d="M773.77,-168.08C779.56,-160.46 788.06,-149.26 795.14,-139.94"/>
<polygon fill="midnightblue" stroke="midnightblue" points="798.1,-141.83 801.36,-131.75 792.52,-137.6 798.1,-141.83"/>
</g>
<!-- Node17 -->
<g id="node17" class="node">
<title>Node17</title>
<g id="a_node17"><a xlink:href="a00197.html" target="_top" xlink:title=" ">
<polygon fill="white" stroke="black" points="690.5,-112.5 690.5,-131.5 761.5,-131.5 761.5,-112.5 690.5,-112.5"/>
<text text-anchor="middle" x="726" y="-119.5" font-family="Helvetica,sans-Serif" font-size="10.00">IConfig.hpp</text>
</a>
</g>
</g>
<!-- Node16&#45;&gt;Node17 -->
<g id="edge22" class="edge">
<title>Node16&#45;&gt;Node17</title>
<path fill="none" stroke="midnightblue" d="M760.23,-168.08C754.44,-160.46 745.94,-149.26 738.86,-139.94"/>
<polygon fill="midnightblue" stroke="midnightblue" points="741.48,-137.6 732.64,-131.75 735.9,-141.83 741.48,-137.6"/>
</g>
<!-- Node17&#45;&gt;Node4 -->
<g id="edge23" class="edge">
<title>Node17&#45;&gt;Node4</title>
<path fill="none" stroke="midnightblue" d="M696.99,-112.45C673.94,-104.9 641.44,-92.51 616,-76 594.93,-62.33 574.63,-41.62 561.78,-27.27"/>
<polygon fill="midnightblue" stroke="midnightblue" points="564.34,-24.88 555.13,-19.65 559.07,-29.48 564.34,-24.88"/>
</g>
<!-- Node17&#45;&gt;Node7 -->
<g id="edge24" class="edge">
<title>Node17&#45;&gt;Node7</title>
<path fill="none" stroke="midnightblue" d="M715.72,-112.32C706.16,-104.26 691.72,-92.08 680.22,-82.37"/>
<polygon fill="midnightblue" stroke="midnightblue" points="682.37,-79.61 672.47,-75.83 677.86,-84.96 682.37,-79.61"/>
</g>
<!-- Node18&#45;&gt;Node2 -->
<g id="edge27" class="edge">
<title>Node18&#45;&gt;Node2</title>
<path fill="none" stroke="midnightblue" d="M455.01,-392.23C450.04,-383.29 442.41,-368.95 437,-356 413.51,-299.78 393.67,-230.24 384.87,-197.59"/>
<polygon fill="midnightblue" stroke="midnightblue" points="388.18,-196.42 382.23,-187.66 381.42,-198.22 388.18,-196.42"/>
</g>
<!-- Node18&#45;&gt;Node4 -->
<g id="edge26" class="edge">
<title>Node18&#45;&gt;Node4</title>
<path fill="none" stroke="midnightblue" d="M462.55,-392.13C472.74,-356.38 510,-222.66 510,-179 510,-179 510,-179 510,-121 510,-86.81 526.6,-49.76 537.86,-28.57"/>
<polygon fill="midnightblue" stroke="midnightblue" points="540.95,-30.22 542.72,-19.77 534.82,-26.83 540.95,-30.22"/>
</g>
<!-- Node18&#45;&gt;Node6 -->
<g id="edge29" class="edge">
<title>Node18&#45;&gt;Node6</title>
<path fill="none" stroke="midnightblue" d="M455.89,-392.28C451.94,-383.38 446.26,-369.07 444,-356 437.83,-320.24 440.44,-277.65 442.79,-253.73"/>
<polygon fill="midnightblue" stroke="midnightblue" points="446.29,-253.91 443.89,-243.59 439.33,-253.16 446.29,-253.91"/>
</g>
<!-- Node18&#45;&gt;Node9 -->
<g id="edge28" class="edge">
<title>Node18&#45;&gt;Node9</title>
<path fill="none" stroke="midnightblue" d="M510.17,-398.45C582.06,-393.92 709.8,-382.34 747,-356 762.65,-344.91 771.97,-324.57 777,-309.59"/>
<polygon fill="midnightblue" stroke="midnightblue" points="780.41,-310.42 779.94,-299.83 773.71,-308.4 780.41,-310.42"/>
</g>
<!-- Node18&#45;&gt;Node17 -->
<g id="edge43" class="edge">
<title>Node18&#45;&gt;Node17</title>
<path fill="none" stroke="midnightblue" d="M510.22,-399.35C576.56,-396 688.06,-385.96 714,-356 768.72,-292.8 713.13,-251.32 720,-168 720.71,-159.35 721.92,-149.82 723.07,-141.76"/>
<polygon fill="midnightblue" stroke="midnightblue" points="726.57,-142.01 724.59,-131.6 719.65,-140.97 726.57,-142.01"/>
</g>
<!-- Node19 -->
<g id="node19" class="node">
<title>Node19</title>
<g id="a_node19"><a xlink:href="a00182.html" target="_top" xlink:title=" ">
<polygon fill="white" stroke="black" points="906.5,-280.5 906.5,-299.5 1011.5,-299.5 1011.5,-280.5 906.5,-280.5"/>
<text text-anchor="middle" x="959" y="-287.5" font-family="Helvetica,sans-Serif" font-size="10.00">PluginHandler.hpp</text>
</a>
</g>
</g>
<!-- Node18&#45;&gt;Node19 -->
<g id="edge30" class="edge">
<title>Node18&#45;&gt;Node19</title>
<path fill="none" stroke="midnightblue" d="M510.04,-396.59C571.61,-390.5 679.02,-377.74 769,-356 826.61,-342.08 891.5,-317.98 928.59,-303.36"/>
<polygon fill="midnightblue" stroke="midnightblue" points="930.29,-306.45 938.29,-299.51 927.7,-299.95 930.29,-306.45"/>
</g>
<!-- Node22 -->
<g id="node22" class="node">
<title>Node22</title>
<g id="a_node22"><a xlink:href="a00170.html" target="_top" xlink:title=" ">
<polygon fill="white" stroke="black" points="603.5,-336.5 603.5,-355.5 704.5,-355.5 704.5,-336.5 603.5,-336.5"/>
<text text-anchor="middle" x="654" y="-343.5" font-family="Helvetica,sans-Serif" font-size="10.00">IFilterCreator.hpp</text>
</a>
</g>
</g>
<!-- Node18&#45;&gt;Node22 -->
<g id="edge38" class="edge">
<title>Node18&#45;&gt;Node22</title>
<path fill="none" stroke="midnightblue" d="M490.74,-392.44C523.94,-383.2 576.99,-368.44 613.56,-358.26"/>
<polygon fill="midnightblue" stroke="midnightblue" points="614.71,-361.57 623.4,-355.52 612.83,-354.83 614.71,-361.57"/>
</g>
<!-- Node19&#45;&gt;Node2 -->
<g id="edge31" class="edge">
<title>Node19&#45;&gt;Node2</title>
<path fill="none" stroke="midnightblue" d="M914.05,-280.46C801.49,-259.08 509.6,-203.62 412.18,-185.11"/>
<polygon fill="midnightblue" stroke="midnightblue" points="412.55,-181.62 402.07,-183.19 411.24,-188.5 412.55,-181.62"/>
</g>
<!-- Node19&#45;&gt;Node4 -->
<g id="edge32" class="edge">
<title>Node19&#45;&gt;Node4</title>
<path fill="none" stroke="midnightblue" d="M954.12,-280.2C947.46,-266.9 937.6,-241.37 949,-224 971.06,-190.38 1009.94,-221.62 1032,-188 1036.88,-180.57 1036.51,-175.66 1032,-168 985.31,-88.72 694.13,-34.51 587.27,-17.06"/>
<polygon fill="midnightblue" stroke="midnightblue" points="587.65,-13.58 577.22,-15.44 586.53,-20.49 587.65,-13.58"/>
</g>
<!-- Node19&#45;&gt;Node6 -->
<g id="edge36" class="edge">
<title>Node19&#45;&gt;Node6</title>
<path fill="none" stroke="midnightblue" d="M906.41,-283.47C805.81,-272.91 587.62,-249.98 491.77,-239.91"/>
<polygon fill="midnightblue" stroke="midnightblue" points="492.1,-236.43 481.79,-238.86 491.37,-243.39 492.1,-236.43"/>
</g>
<!-- Node19&#45;&gt;Node7 -->
<g id="edge37" class="edge">
<title>Node19&#45;&gt;Node7</title>
<path fill="none" stroke="midnightblue" d="M994.85,-280.4C1013.88,-273.81 1035.63,-262.59 1047,-244 1058.51,-225.18 1043.08,-182.18 1032,-168 1000.4,-127.55 979.46,-128.92 931,-112 856.25,-85.89 764.37,-74.69 709.64,-70.06"/>
<polygon fill="midnightblue" stroke="midnightblue" points="709.79,-66.56 699.54,-69.25 709.23,-73.54 709.79,-66.56"/>
</g>
<!-- Node19&#45;&gt;Node12 -->
<g id="edge34" class="edge">
<title>Node19&#45;&gt;Node12</title>
<path fill="none" stroke="midnightblue" d="M985.21,-280.41C1001.85,-273.44 1022.06,-261.81 1032,-244 1041.2,-227.53 1028.49,-208.2 1016.28,-194.93"/>
<polygon fill="midnightblue" stroke="midnightblue" points="1018.46,-192.16 1008.93,-187.53 1013.49,-197.09 1018.46,-192.16"/>
</g>
<!-- Node20 -->
<g id="node20" class="node">
<title>Node20</title>
<g id="a_node20"><a xlink:title=" ">
<polygon fill="white" stroke="#bfbfbf" points="1117,-224.5 1117,-243.5 1167,-243.5 1167,-224.5 1117,-224.5"/>
<text text-anchor="middle" x="1142" y="-231.5" font-family="Helvetica,sans-Serif" font-size="10.00">dlfcn.h</text>
</a>
</g>
</g>
<!-- Node19&#45;&gt;Node20 -->
<g id="edge33" class="edge">
<title>Node19&#45;&gt;Node20</title>
<path fill="none" stroke="midnightblue" d="M988,-280.44C1020.38,-270.89 1072.76,-255.43 1107.29,-245.24"/>
<polygon fill="midnightblue" stroke="midnightblue" points="1108.36,-248.58 1116.96,-242.39 1106.38,-241.86 1108.36,-248.58"/>
</g>
<!-- Node21 -->
<g id="node21" class="node">
<title>Node21</title>
<g id="a_node21"><a xlink:title=" ">
<polygon fill="white" stroke="#bfbfbf" points="957.5,-224.5 957.5,-243.5 1022.5,-243.5 1022.5,-224.5 957.5,-224.5"/>
<text text-anchor="middle" x="990" y="-231.5" font-family="Helvetica,sans-Serif" font-size="10.00">functional</text>
</a>
</g>
</g>
<!-- Node19&#45;&gt;Node21 -->
<g id="edge35" class="edge">
<title>Node19&#45;&gt;Node21</title>
<path fill="none" stroke="midnightblue" d="M964.12,-280.08C968.41,-272.61 974.66,-261.72 979.94,-252.52"/>
<polygon fill="midnightblue" stroke="midnightblue" points="983.03,-254.17 984.98,-243.75 976.96,-250.68 983.03,-254.17"/>
</g>
<!-- Node22&#45;&gt;Node4 -->
<g id="edge39" class="edge">
<title>Node22&#45;&gt;Node4</title>
<path fill="none" stroke="midnightblue" d="M651.27,-336.41C637.27,-292.29 573.36,-90.91 553.74,-29.1"/>
<polygon fill="midnightblue" stroke="midnightblue" points="557.07,-28.01 550.71,-19.54 550.4,-30.13 557.07,-28.01"/>
</g>
<!-- Node22&#45;&gt;Node6 -->
<g id="edge41" class="edge">
<title>Node22&#45;&gt;Node6</title>
<path fill="none" stroke="midnightblue" d="M637.6,-336.37C601.28,-317.25 513.84,-271.23 470.39,-248.36"/>
<polygon fill="midnightblue" stroke="midnightblue" points="471.8,-245.15 461.32,-243.59 468.54,-251.35 471.8,-245.15"/>
</g>
<!-- Node22&#45;&gt;Node7 -->
<g id="edge42" class="edge">
<title>Node22&#45;&gt;Node7</title>
<path fill="none" stroke="midnightblue" d="M655.05,-336.46C657.21,-317.98 662,-272.91 662,-235 662,-235 662,-235 662,-177 662,-144.95 662,-107.64 662,-85.75"/>
<polygon fill="midnightblue" stroke="midnightblue" points="665.5,-85.56 662,-75.56 658.5,-85.56 665.5,-85.56"/>
</g>
<!-- Node22&#45;&gt;Node9 -->
<g id="edge40" class="edge">
<title>Node22&#45;&gt;Node9</title>
<path fill="none" stroke="midnightblue" d="M674.28,-336.44C695.35,-327.56 728.52,-313.56 752.49,-303.45"/>
<polygon fill="midnightblue" stroke="midnightblue" points="753.96,-306.63 761.81,-299.52 751.24,-300.18 753.96,-306.63"/>
</g>
<!-- Node23&#45;&gt;Node2 -->
<g id="edge45" class="edge">
<title>Node23&#45;&gt;Node2</title>
<path fill="none" stroke="midnightblue" d="M133.95,-336.4C139.48,-314.11 157.39,-254.09 196,-224 240.55,-189.28 308.14,-180.89 347.81,-179.13"/>
<polygon fill="midnightblue" stroke="midnightblue" points="348.09,-182.62 357.97,-178.8 347.87,-175.63 348.09,-182.62"/>
</g>
<!-- Node23&#45;&gt;Node3 -->
<g id="edge46" class="edge">
<title>Node23&#45;&gt;Node3</title>
<path fill="none" stroke="midnightblue" d="M154.98,-336.44C179.16,-327.44 217.42,-313.19 244.65,-303.05"/>
<polygon fill="midnightblue" stroke="midnightblue" points="245.98,-306.29 254.13,-299.52 243.54,-299.73 245.98,-306.29"/>
</g>
<!-- Node23&#45;&gt;Node4 -->
<g id="edge48" class="edge">
<title>Node23&#45;&gt;Node4</title>
<path fill="none" stroke="midnightblue" d="M127.14,-336.47C117.32,-318.39 96,-274.59 96,-235 96,-235 96,-235 96,-121 96,-75.87 132.56,-73.87 174,-56 233.6,-30.29 425.65,-17.39 508.9,-12.9"/>
<polygon fill="midnightblue" stroke="midnightblue" points="509.17,-16.39 518.97,-12.37 508.8,-9.4 509.17,-16.39"/>
</g>
<!-- Node24 -->
<g id="node24" class="node">
<title>Node24</title>
<g id="a_node24"><a xlink:title=" ">
<polygon fill="white" stroke="#bfbfbf" points="0,-280.5 0,-299.5 68,-299.5 68,-280.5 0,-280.5"/>
<text text-anchor="middle" x="34" y="-287.5" font-family="Helvetica,sans-Serif" font-size="10.00">filesystem</text>
</a>
</g>
</g>
<!-- Node23&#45;&gt;Node24 -->
<g id="edge47" class="edge">
<title>Node23&#45;&gt;Node24</title>
<path fill="none" stroke="midnightblue" d="M116.25,-336.32C100.68,-327.74 76.62,-314.49 58.54,-304.52"/>
<polygon fill="midnightblue" stroke="midnightblue" points="60.15,-301.42 49.71,-299.65 56.78,-307.55 60.15,-301.42"/>
</g>
<!-- Node25&#45;&gt;Node3 -->
<g id="edge55" class="edge">
<title>Node25&#45;&gt;Node3</title>
<path fill="none" stroke="midnightblue" d="M355.82,-448.43C348.7,-439.65 337.74,-425.43 330,-412 309.94,-377.19 292.52,-333.37 283.52,-309.16"/>
<polygon fill="midnightblue" stroke="midnightblue" points="286.71,-307.71 279.99,-299.52 280.14,-310.12 286.71,-307.71"/>
</g>
<!-- Node25&#45;&gt;Node6 -->
<g id="edge54" class="edge">
<title>Node25&#45;&gt;Node6</title>
<path fill="none" stroke="midnightblue" d="M364.66,-448.47C367.19,-435.93 372.43,-411.86 379,-392 396.13,-340.25 422.82,-281.61 436.41,-252.85"/>
<polygon fill="midnightblue" stroke="midnightblue" points="439.64,-254.2 440.79,-243.67 433.32,-251.19 439.64,-254.2"/>
</g>
<!-- Node25&#45;&gt;Node9 -->
<g id="edge57" class="edge">
<title>Node25&#45;&gt;Node9</title>
<path fill="none" stroke="midnightblue" d="M411.35,-451.44C507.97,-439.34 719.85,-407.49 769,-356 780.54,-343.91 783.17,-324.63 783.29,-310.2"/>
<polygon fill="midnightblue" stroke="midnightblue" points="786.78,-309.78 782.96,-299.9 779.78,-310 786.78,-309.78"/>
</g>
<!-- Node25&#45;&gt;Node18 -->
<g id="edge56" class="edge">
<title>Node25&#45;&gt;Node18</title>
<path fill="none" stroke="midnightblue" d="M378.58,-448.32C394,-439.74 417.81,-426.49 435.71,-416.52"/>
<polygon fill="midnightblue" stroke="midnightblue" points="437.42,-419.58 444.45,-411.65 434.01,-413.46 437.42,-419.58"/>
</g>
<!-- Node26 -->
<g id="node26" class="node">
<title>Node26</title>
<g id="a_node26"><a xlink:href="a00104.html" target="_top" xlink:title=" ">
<polygon fill="white" stroke="black" points="486.5,-336.5 486.5,-355.5 585.5,-355.5 585.5,-336.5 486.5,-336.5"/>
<text text-anchor="middle" x="536" y="-343.5" font-family="Helvetica,sans-Serif" font-size="10.00">IFilterFactory.hpp</text>
</a>
</g>
</g>
<!-- Node25&#45;&gt;Node26 -->
<g id="edge50" class="edge">
<title>Node25&#45;&gt;Node26</title>
<path fill="none" stroke="midnightblue" d="M365.9,-448.06C370.86,-434.1 382.32,-407.16 401,-392 422.51,-374.55 451.07,-363.75 476.38,-357.12"/>
<polygon fill="midnightblue" stroke="midnightblue" points="477.39,-360.48 486.27,-354.7 475.72,-353.68 477.39,-360.48"/>
</g>
<!-- Node26&#45;&gt;Node6 -->
<g id="edge52" class="edge">
<title>Node26&#45;&gt;Node6</title>
<path fill="none" stroke="midnightblue" d="M528.86,-336.37C513.71,-318.05 478.13,-275.05 458.54,-251.36"/>
<polygon fill="midnightblue" stroke="midnightblue" points="461.18,-249.07 452.11,-243.59 455.78,-253.53 461.18,-249.07"/>
</g>
<!-- Node26&#45;&gt;Node7 -->
<g id="edge51" class="edge">
<title>Node26&#45;&gt;Node7</title>
<path fill="none" stroke="midnightblue" d="M539.91,-336.38C557.51,-297.54 629.61,-138.47 653.94,-84.79"/>
<polygon fill="midnightblue" stroke="midnightblue" points="657.2,-86.08 658.14,-75.52 650.82,-83.19 657.2,-86.08"/>
</g>
<!-- Node26&#45;&gt;Node9 -->
<g id="edge53" class="edge">
<title>Node26&#45;&gt;Node9</title>
<path fill="none" stroke="midnightblue" d="M574.98,-336.44C619.82,-326.6 693.19,-310.49 739.48,-300.33"/>
<polygon fill="midnightblue" stroke="midnightblue" points="740.47,-303.7 749.49,-298.14 738.97,-296.86 740.47,-303.7"/>
</g>
</g>
</svg>
