<?xml version="1.0" encoding="UTF-8" standalone="no"?>
<!DOCTYPE svg PUBLIC "-//W3C//DTD SVG 1.1//EN"
 "http://www.w3.org/Graphics/SVG/1.1/DTD/svg11.dtd">
<!-- Generated by graphviz version 2.43.0 (0)
 -->
<!-- Title: /home/runner/work/Raytracer/Raytracer/src/Plugins/Filters/FilterHandler.hpp Pages: 1 -->
<svg width="882pt" height="442pt"
 viewBox="0.00 0.00 882.43 442.00" xmlns="http://www.w3.org/2000/svg" xmlns:xlink="http://www.w3.org/1999/xlink">
<g id="graph0" class="graph" transform="scale(1 1) rotate(0) translate(4 438)">
<title>/home/runner/work/Raytracer/Raytracer/src/Plugins/Filters/FilterHandler.hpp</title>
<polygon fill="white" stroke="transparent" points="-4,4 -4,-438 878.43,-438 878.43,4 -4,4"/>
<!-- Node1 -->
<g id="node1" class="node">
<title>Node1</title>
<g id="a_node1"><a xlink:title=" ">
<polygon fill="#bfbfbf" stroke="black" points="379.5,-392.5 379.5,-433.5 538.5,-433.5 538.5,-392.5 379.5,-392.5"/>
<text text-anchor="start" x="387.5" y="-421.5" font-family="Helvetica,sans-Serif" font-size="10.00">/home/runner/work/Raytracer</text>
<text text-anchor="start" x="387.5" y="-410.5" font-family="Helvetica,sans-Serif" font-size="10.00">/Raytracer/src/Plugins/Filters</text>
<text text-anchor="middle" x="459" y="-399.5" font-family="Helvetica,sans-Serif" font-size="10.00">/FilterHandler.hpp</text>
</a>
</g>
</g>
<!-- Node2 -->
<g id="node2" class="node">
<title>Node2</title>
<g id="a_node2"><a xlink:title=" ">
<polygon fill="white" stroke="#bfbfbf" points="421,-0.5 421,-19.5 479,-19.5 479,-0.5 421,-0.5"/>
<text text-anchor="middle" x="450" y="-7.5" font-family="Helvetica,sans-Serif" font-size="10.00">memory</text>
</a>
</g>
</g>
<!-- Node1&#45;&gt;Node2 -->
<g id="edge1" class="edge">
<title>Node1&#45;&gt;Node2</title>
<path fill="none" stroke="midnightblue" d="M379.31,-407.34C247.87,-397.45 0,-368.52 0,-291 0,-291 0,-291 0,-121 0,-36.84 300.74,-16.77 410.51,-12.24"/>
<polygon fill="midnightblue" stroke="midnightblue" points="410.96,-15.73 420.82,-11.84 410.69,-8.74 410.96,-15.73"/>
</g>
<!-- Node3 -->
<g id="node3" class="node">
<title>Node3</title>
<g id="a_node3"><a xlink:title=" ">
<polygon fill="white" stroke="#bfbfbf" points="574,-168.5 574,-187.5 618,-187.5 618,-168.5 574,-168.5"/>
<text text-anchor="middle" x="596" y="-175.5" font-family="Helvetica,sans-Serif" font-size="10.00">string</text>
</a>
</g>
</g>
<!-- Node1&#45;&gt;Node3 -->
<g id="edge2" class="edge">
<title>Node1&#45;&gt;Node3</title>
<path fill="none" stroke="midnightblue" d="M483.88,-392.35C495.35,-382.37 508.49,-369.51 518,-356 554.81,-303.7 580.02,-231.24 590.52,-197.57"/>
<polygon fill="midnightblue" stroke="midnightblue" points="593.95,-198.32 593.51,-187.73 587.26,-196.28 593.95,-198.32"/>
</g>
<!-- Node4 -->
<g id="node4" class="node">
<title>Node4</title>
<g id="a_node4"><a xlink:href="a00128.html" target="_top" xlink:title=" ">
<polygon fill="white" stroke="black" points="347.5,-280.5 347.5,-299.5 412.5,-299.5 412.5,-280.5 347.5,-280.5"/>
<text text-anchor="middle" x="380" y="-287.5" font-family="Helvetica,sans-Serif" font-size="10.00">IFilter.hpp</text>
</a>
</g>
</g>
<!-- Node1&#45;&gt;Node4 -->
<g id="edge3" class="edge">
<title>Node1&#45;&gt;Node4</title>
<path fill="none" stroke="midnightblue" d="M432.27,-392.45C420.58,-382.67 407.59,-369.95 399,-356 390.23,-341.77 385.34,-323.29 382.73,-309.68"/>
<polygon fill="midnightblue" stroke="midnightblue" points="386.14,-308.87 381.03,-299.59 379.24,-310.03 386.14,-308.87"/>
</g>
<!-- Node15 -->
<g id="node15" class="node">
<title>Node15</title>
<g id="a_node15"><a xlink:href="a00209.html" target="_top" xlink:title=" ">
<polygon fill="white" stroke="black" points="28.5,-112.5 28.5,-131.5 99.5,-131.5 99.5,-112.5 28.5,-112.5"/>
<text text-anchor="middle" x="64" y="-119.5" font-family="Helvetica,sans-Serif" font-size="10.00">IConfig.hpp</text>
</a>
</g>
</g>
<!-- Node1&#45;&gt;Node15 -->
<g id="edge36" class="edge">
<title>Node1&#45;&gt;Node15</title>
<path fill="none" stroke="midnightblue" d="M379.18,-403.12C266.93,-388.37 76,-354.02 76,-291 76,-291 76,-291 76,-233 76,-200.76 70.84,-163.51 67.29,-141.68"/>
<polygon fill="midnightblue" stroke="midnightblue" points="70.69,-140.8 65.57,-131.52 63.79,-141.97 70.69,-140.8"/>
</g>
<!-- Node16 -->
<g id="node16" class="node">
<title>Node16</title>
<g id="a_node16"><a xlink:href="a00131.html" target="_top" xlink:title=" ">
<polygon fill="white" stroke="black" points="604.5,-224.5 604.5,-243.5 677.5,-243.5 677.5,-224.5 604.5,-224.5"/>
<text text-anchor="middle" x="641" y="-231.5" font-family="Helvetica,sans-Serif" font-size="10.00">ILogger.hpp</text>
</a>
</g>
</g>
<!-- Node1&#45;&gt;Node16 -->
<g id="edge20" class="edge">
<title>Node1&#45;&gt;Node16</title>
<path fill="none" stroke="midnightblue" d="M499.37,-392.28C516.65,-382.72 536.4,-370.22 552,-356 586.7,-324.36 616.63,-277.35 631.32,-252.26"/>
<polygon fill="midnightblue" stroke="midnightblue" points="634.4,-253.93 636.34,-243.51 628.33,-250.44 634.4,-253.93"/>
</g>
<!-- Node18 -->
<g id="node18" class="node">
<title>Node18</title>
<g id="a_node18"><a xlink:href="a00194.html" target="_top" xlink:title=" ">
<polygon fill="white" stroke="black" points="662.5,-280.5 662.5,-299.5 767.5,-299.5 767.5,-280.5 662.5,-280.5"/>
<text text-anchor="middle" x="715" y="-287.5" font-family="Helvetica,sans-Serif" font-size="10.00">PluginHandler.hpp</text>
</a>
</g>
</g>
<!-- Node1&#45;&gt;Node18 -->
<g id="edge23" class="edge">
<title>Node1&#45;&gt;Node18</title>
<path fill="none" stroke="midnightblue" d="M538.7,-396.49C572.89,-387.73 612.38,-374.7 645,-356 667.13,-343.32 687.94,-322.41 701.02,-307.74"/>
<polygon fill="midnightblue" stroke="midnightblue" points="703.88,-309.78 707.79,-299.93 698.59,-305.2 703.88,-309.78"/>
</g>
<!-- Node20 -->
<g id="node20" class="node">
<title>Node20</title>
<g id="a_node20"><a xlink:href="a00182.html" target="_top" xlink:title=" ">
<polygon fill="white" stroke="black" points="408.5,-336.5 408.5,-355.5 509.5,-355.5 509.5,-336.5 408.5,-336.5"/>
<text text-anchor="middle" x="459" y="-343.5" font-family="Helvetica,sans-Serif" font-size="10.00">IFilterCreator.hpp</text>
</a>
</g>
</g>
<!-- Node1&#45;&gt;Node20 -->
<g id="edge31" class="edge">
<title>Node1&#45;&gt;Node20</title>
<path fill="none" stroke="midnightblue" d="M459,-392.5C459,-384.07 459,-374.24 459,-365.87"/>
<polygon fill="midnightblue" stroke="midnightblue" points="462.5,-365.65 459,-355.65 455.5,-365.65 462.5,-365.65"/>
</g>
<!-- Node5 -->
<g id="node5" class="node">
<title>Node5</title>
<g id="a_node5"><a xlink:href="a00137.html" target="_top" xlink:title=" ">
<polygon fill="white" stroke="black" points="325,-224.5 325,-243.5 393,-243.5 393,-224.5 325,-224.5"/>
<text text-anchor="middle" x="359" y="-231.5" font-family="Helvetica,sans-Serif" font-size="10.00">Image.hpp</text>
</a>
</g>
</g>
<!-- Node4&#45;&gt;Node5 -->
<g id="edge4" class="edge">
<title>Node4&#45;&gt;Node5</title>
<path fill="none" stroke="midnightblue" d="M376.53,-280.08C373.69,-272.77 369.57,-262.18 366.04,-253.1"/>
<polygon fill="midnightblue" stroke="midnightblue" points="369.29,-251.8 362.4,-243.75 362.77,-254.34 369.29,-251.8"/>
</g>
<!-- Node5&#45;&gt;Node3 -->
<g id="edge6" class="edge">
<title>Node5&#45;&gt;Node3</title>
<path fill="none" stroke="midnightblue" d="M393.21,-225.21C438.9,-214.8 519.25,-196.49 563.86,-186.32"/>
<polygon fill="midnightblue" stroke="midnightblue" points="564.9,-189.68 573.87,-184.04 563.34,-182.85 564.9,-189.68"/>
</g>
<!-- Node6 -->
<g id="node6" class="node">
<title>Node6</title>
<g id="a_node6"><a xlink:title=" ">
<polygon fill="white" stroke="#bfbfbf" points="116.5,-168.5 116.5,-187.5 169.5,-187.5 169.5,-168.5 116.5,-168.5"/>
<text text-anchor="middle" x="143" y="-175.5" font-family="Helvetica,sans-Serif" font-size="10.00">cstddef</text>
</a>
</g>
</g>
<!-- Node5&#45;&gt;Node6 -->
<g id="edge5" class="edge">
<title>Node5&#45;&gt;Node6</title>
<path fill="none" stroke="midnightblue" d="M324.95,-224.62C290.55,-216.14 235.6,-202.53 179.49,-188.36"/>
<polygon fill="midnightblue" stroke="midnightblue" points="180.3,-184.96 169.75,-185.9 178.58,-191.75 180.3,-184.96"/>
</g>
<!-- Node7 -->
<g id="node7" class="node">
<title>Node7</title>
<g id="a_node7"><a xlink:title=" ">
<polygon fill="white" stroke="#bfbfbf" points="386.5,-168.5 386.5,-187.5 433.5,-187.5 433.5,-168.5 386.5,-168.5"/>
<text text-anchor="middle" x="410" y="-175.5" font-family="Helvetica,sans-Serif" font-size="10.00">vector</text>
</a>
</g>
</g>
<!-- Node5&#45;&gt;Node7 -->
<g id="edge7" class="edge">
<title>Node5&#45;&gt;Node7</title>
<path fill="none" stroke="midnightblue" d="M367.42,-224.08C374.85,-216.22 385.85,-204.57 394.81,-195.08"/>
<polygon fill="midnightblue" stroke="midnightblue" points="397.41,-197.42 401.74,-187.75 392.32,-192.62 397.41,-197.42"/>
</g>
<!-- Node8 -->
<g id="node8" class="node">
<title>Node8</title>
<g id="a_node8"><a xlink:href="a00134.html" target="_top" xlink:title=" ">
<polygon fill="white" stroke="black" points="306,-168.5 306,-187.5 368,-187.5 368,-168.5 306,-168.5"/>
<text text-anchor="middle" x="337" y="-175.5" font-family="Helvetica,sans-Serif" font-size="10.00">Color.hpp</text>
</a>
</g>
</g>
<!-- Node5&#45;&gt;Node8 -->
<g id="edge8" class="edge">
<title>Node5&#45;&gt;Node8</title>
<path fill="none" stroke="midnightblue" d="M355.37,-224.08C352.39,-216.77 348.07,-206.18 344.38,-197.1"/>
<polygon fill="midnightblue" stroke="midnightblue" points="347.58,-195.69 340.57,-187.75 341.1,-198.33 347.58,-195.69"/>
</g>
<!-- Node14 -->
<g id="node14" class="node">
<title>Node14</title>
<g id="a_node14"><a xlink:href="a00101.html" target="_top" xlink:title=" ">
<polygon fill="white" stroke="black" points="187.5,-168.5 187.5,-187.5 264.5,-187.5 264.5,-168.5 187.5,-168.5"/>
<text text-anchor="middle" x="226" y="-175.5" font-family="Helvetica,sans-Serif" font-size="10.00">Vector2i.hpp</text>
</a>
</g>
</g>
<!-- Node5&#45;&gt;Node14 -->
<g id="edge15" class="edge">
<title>Node5&#45;&gt;Node14</title>
<path fill="none" stroke="midnightblue" d="M337.93,-224.44C315.94,-215.52 281.27,-201.44 256.34,-191.32"/>
<polygon fill="midnightblue" stroke="midnightblue" points="257.56,-188.04 246.98,-187.52 254.92,-194.52 257.56,-188.04"/>
</g>
<!-- Node9 -->
<g id="node9" class="node">
<title>Node9</title>
<g id="a_node9"><a xlink:title=" ">
<polygon fill="white" stroke="#bfbfbf" points="348,-112.5 348,-131.5 396,-131.5 396,-112.5 348,-112.5"/>
<text text-anchor="middle" x="372" y="-119.5" font-family="Helvetica,sans-Serif" font-size="10.00">mutex</text>
</a>
</g>
</g>
<!-- Node8&#45;&gt;Node9 -->
<g id="edge9" class="edge">
<title>Node8&#45;&gt;Node9</title>
<path fill="none" stroke="midnightblue" d="M342.78,-168.08C347.67,-160.53 354.83,-149.49 360.83,-140.23"/>
<polygon fill="midnightblue" stroke="midnightblue" points="363.83,-142.05 366.33,-131.75 357.95,-138.24 363.83,-142.05"/>
</g>
<!-- Node10 -->
<g id="node10" class="node">
<title>Node10</title>
<g id="a_node10"><a xlink:title=" ">
<polygon fill="white" stroke="#bfbfbf" points="117.5,-112.5 117.5,-131.5 174.5,-131.5 174.5,-112.5 117.5,-112.5"/>
<text text-anchor="middle" x="146" y="-119.5" font-family="Helvetica,sans-Serif" font-size="10.00">ostream</text>
</a>
</g>
</g>
<!-- Node8&#45;&gt;Node10 -->
<g id="edge10" class="edge">
<title>Node8&#45;&gt;Node10</title>
<path fill="none" stroke="midnightblue" d="M306.74,-168.44C273.56,-159.07 220.28,-144 184.24,-133.81"/>
<polygon fill="midnightblue" stroke="midnightblue" points="185.14,-130.43 174.56,-131.08 183.23,-137.16 185.14,-130.43"/>
</g>
<!-- Node11 -->
<g id="node11" class="node">
<title>Node11</title>
<g id="a_node11"><a xlink:title=" ">
<polygon fill="white" stroke="#bfbfbf" points="192.5,-112.5 192.5,-131.5 329.5,-131.5 329.5,-112.5 192.5,-112.5"/>
<text text-anchor="middle" x="261" y="-119.5" font-family="Helvetica,sans-Serif" font-size="10.00">SFML/Graphics/Color.hpp</text>
</a>
</g>
</g>
<!-- Node8&#45;&gt;Node11 -->
<g id="edge11" class="edge">
<title>Node8&#45;&gt;Node11</title>
<path fill="none" stroke="midnightblue" d="M324.79,-168.32C313.22,-160.11 295.62,-147.6 281.84,-137.81"/>
<polygon fill="midnightblue" stroke="midnightblue" points="283.61,-134.77 273.43,-131.83 279.56,-140.48 283.61,-134.77"/>
</g>
<!-- Node12 -->
<g id="node12" class="node">
<title>Node12</title>
<g id="a_node12"><a xlink:href="a00218.html" target="_top" xlink:title=" ">
<polygon fill="white" stroke="black" points="490.5,-56.5 490.5,-75.5 565.5,-75.5 565.5,-56.5 490.5,-56.5"/>
<text text-anchor="middle" x="528" y="-63.5" font-family="Helvetica,sans-Serif" font-size="10.00">ISetting.hpp</text>
</a>
</g>
</g>
<!-- Node8&#45;&gt;Node12 -->
<g id="edge12" class="edge">
<title>Node8&#45;&gt;Node12</title>
<path fill="none" stroke="midnightblue" d="M351.99,-168.37C385.04,-149.33 464.42,-103.62 504.3,-80.65"/>
<polygon fill="midnightblue" stroke="midnightblue" points="506.16,-83.62 513.08,-75.59 502.67,-77.55 506.16,-83.62"/>
</g>
<!-- Node12&#45;&gt;Node2 -->
<g id="edge13" class="edge">
<title>Node12&#45;&gt;Node2</title>
<path fill="none" stroke="midnightblue" d="M515.47,-56.32C503.41,-47.98 484.97,-35.21 470.73,-25.35"/>
<polygon fill="midnightblue" stroke="midnightblue" points="472.72,-22.47 462.5,-19.65 468.73,-28.22 472.72,-22.47"/>
</g>
<!-- Node13 -->
<g id="node13" class="node">
<title>Node13</title>
<g id="a_node13"><a xlink:title=" ">
<polygon fill="white" stroke="#bfbfbf" points="497.5,-0.5 497.5,-19.5 580.5,-19.5 580.5,-0.5 497.5,-0.5"/>
<text text-anchor="middle" x="539" y="-7.5" font-family="Helvetica,sans-Serif" font-size="10.00">libconfig.h++</text>
</a>
</g>
</g>
<!-- Node12&#45;&gt;Node13 -->
<g id="edge14" class="edge">
<title>Node12&#45;&gt;Node13</title>
<path fill="none" stroke="midnightblue" d="M529.82,-56.08C531.27,-48.93 533.37,-38.64 535.19,-29.69"/>
<polygon fill="midnightblue" stroke="midnightblue" points="538.65,-30.25 537.22,-19.75 531.79,-28.85 538.65,-30.25"/>
</g>
<!-- Node14&#45;&gt;Node10 -->
<g id="edge16" class="edge">
<title>Node14&#45;&gt;Node10</title>
<path fill="none" stroke="midnightblue" d="M213.15,-168.32C200.78,-159.98 181.87,-147.21 167.26,-137.35"/>
<polygon fill="midnightblue" stroke="midnightblue" points="169.07,-134.35 158.82,-131.65 165.15,-140.15 169.07,-134.35"/>
</g>
<!-- Node14&#45;&gt;Node15 -->
<g id="edge17" class="edge">
<title>Node14&#45;&gt;Node15</title>
<path fill="none" stroke="midnightblue" d="M200.33,-168.44C173.08,-159.36 129.82,-144.94 99.35,-134.78"/>
<polygon fill="midnightblue" stroke="midnightblue" points="100.14,-131.36 89.55,-131.52 97.93,-138 100.14,-131.36"/>
</g>
<!-- Node15&#45;&gt;Node2 -->
<g id="edge18" class="edge">
<title>Node15&#45;&gt;Node2</title>
<path fill="none" stroke="midnightblue" d="M93.97,-112.46C163.13,-92.75 333.87,-44.09 411.03,-22.1"/>
<polygon fill="midnightblue" stroke="midnightblue" points="412.19,-25.42 420.84,-19.31 410.27,-18.68 412.19,-25.42"/>
</g>
<!-- Node15&#45;&gt;Node12 -->
<g id="edge19" class="edge">
<title>Node15&#45;&gt;Node12</title>
<path fill="none" stroke="midnightblue" d="M99.97,-113.35C102.68,-112.87 105.38,-112.41 108,-112 242.36,-91.11 402.43,-76.87 480.47,-70.61"/>
<polygon fill="midnightblue" stroke="midnightblue" points="480.79,-74.1 490.48,-69.82 480.23,-67.12 480.79,-74.1"/>
</g>
<!-- Node16&#45;&gt;Node3 -->
<g id="edge22" class="edge">
<title>Node16&#45;&gt;Node3</title>
<path fill="none" stroke="midnightblue" d="M633.57,-224.08C627.15,-216.38 617.69,-205.03 609.88,-195.65"/>
<polygon fill="midnightblue" stroke="midnightblue" points="612.38,-193.19 603.29,-187.75 607.01,-197.67 612.38,-193.19"/>
</g>
<!-- Node17 -->
<g id="node17" class="node">
<title>Node17</title>
<g id="a_node17"><a xlink:title=" ">
<polygon fill="white" stroke="#bfbfbf" points="685.5,-168.5 685.5,-187.5 750.5,-187.5 750.5,-168.5 685.5,-168.5"/>
<text text-anchor="middle" x="718" y="-175.5" font-family="Helvetica,sans-Serif" font-size="10.00">functional</text>
</a>
</g>
</g>
<!-- Node16&#45;&gt;Node17 -->
<g id="edge21" class="edge">
<title>Node16&#45;&gt;Node17</title>
<path fill="none" stroke="midnightblue" d="M653.37,-224.32C665.16,-216.06 683.13,-203.45 697.14,-193.63"/>
<polygon fill="midnightblue" stroke="midnightblue" points="699.48,-196.26 705.66,-187.65 695.46,-190.53 699.48,-196.26"/>
</g>
<!-- Node18&#45;&gt;Node2 -->
<g id="edge25" class="edge">
<title>Node18&#45;&gt;Node2</title>
<path fill="none" stroke="midnightblue" d="M724.89,-280.4C743.52,-263.18 782,-222.38 782,-179 782,-179 782,-179 782,-121 782,-105.72 576.76,-46.47 489.02,-21.83"/>
<polygon fill="midnightblue" stroke="midnightblue" points="489.75,-18.4 479.17,-19.08 487.86,-25.14 489.75,-18.4"/>
</g>
<!-- Node18&#45;&gt;Node3 -->
<g id="edge24" class="edge">
<title>Node18&#45;&gt;Node3</title>
<path fill="none" stroke="midnightblue" d="M713.14,-280.37C709.82,-266.82 701.72,-240.43 686,-224 670.06,-207.34 646.63,-195.9 627.67,-188.72"/>
<polygon fill="midnightblue" stroke="midnightblue" points="628.83,-185.42 618.23,-185.35 626.47,-192.01 628.83,-185.42"/>
</g>
<!-- Node18&#45;&gt;Node7 -->
<g id="edge27" class="edge">
<title>Node18&#45;&gt;Node7</title>
<path fill="none" stroke="midnightblue" d="M691.32,-280.46C637.49,-261.05 505.8,-213.55 443.59,-191.12"/>
<polygon fill="midnightblue" stroke="midnightblue" points="444.47,-187.71 433.87,-187.61 442.09,-194.3 444.47,-187.71"/>
</g>
<!-- Node18&#45;&gt;Node12 -->
<g id="edge30" class="edge">
<title>Node18&#45;&gt;Node12</title>
<path fill="none" stroke="midnightblue" d="M767.57,-285.83C821.51,-280.3 894.25,-265.19 869,-224 805.43,-120.3 653.33,-84.36 575.55,-72.5"/>
<polygon fill="midnightblue" stroke="midnightblue" points="575.94,-69.01 565.54,-71.04 574.93,-75.94 575.94,-69.01"/>
</g>
<!-- Node18&#45;&gt;Node16 -->
<g id="edge29" class="edge">
<title>Node18&#45;&gt;Node16</title>
<path fill="none" stroke="midnightblue" d="M703.11,-280.32C691.85,-272.11 674.71,-259.6 661.29,-249.81"/>
<polygon fill="midnightblue" stroke="midnightblue" points="663.25,-246.9 653.11,-243.83 659.12,-252.56 663.25,-246.9"/>
</g>
<!-- Node18&#45;&gt;Node17 -->
<g id="edge28" class="edge">
<title>Node18&#45;&gt;Node17</title>
<path fill="none" stroke="midnightblue" d="M716.24,-280.4C717.48,-271.36 719.3,-256.71 720,-244 720.86,-228.48 720.22,-210.85 719.44,-197.88"/>
<polygon fill="midnightblue" stroke="midnightblue" points="722.93,-197.58 718.75,-187.84 715.94,-198.05 722.93,-197.58"/>
</g>
<!-- Node19 -->
<g id="node19" class="node">
<title>Node19</title>
<g id="a_node19"><a xlink:title=" ">
<polygon fill="white" stroke="#bfbfbf" points="810,-224.5 810,-243.5 860,-243.5 860,-224.5 810,-224.5"/>
<text text-anchor="middle" x="835" y="-231.5" font-family="Helvetica,sans-Serif" font-size="10.00">dlfcn.h</text>
</a>
</g>
</g>
<!-- Node18&#45;&gt;Node19 -->
<g id="edge26" class="edge">
<title>Node18&#45;&gt;Node19</title>
<path fill="none" stroke="midnightblue" d="M734.01,-280.44C753.59,-271.64 784.31,-257.81 806.73,-247.72"/>
<polygon fill="midnightblue" stroke="midnightblue" points="808.39,-250.81 816.07,-243.52 805.52,-244.43 808.39,-250.81"/>
</g>
<!-- Node20&#45;&gt;Node2 -->
<g id="edge32" class="edge">
<title>Node20&#45;&gt;Node2</title>
<path fill="none" stroke="midnightblue" d="M459.39,-336.44C460.21,-317.94 462,-272.83 462,-235 462,-235 462,-235 462,-121 462,-88.76 456.84,-51.51 453.29,-29.68"/>
<polygon fill="midnightblue" stroke="midnightblue" points="456.69,-28.8 451.57,-19.52 449.79,-29.97 456.69,-28.8"/>
</g>
<!-- Node20&#45;&gt;Node4 -->
<g id="edge33" class="edge">
<title>Node20&#45;&gt;Node4</title>
<path fill="none" stroke="midnightblue" d="M446.31,-336.32C434.1,-327.98 415.42,-315.21 401,-305.35"/>
<polygon fill="midnightblue" stroke="midnightblue" points="402.89,-302.41 392.66,-299.65 398.94,-308.19 402.89,-302.41"/>
</g>
<!-- Node20&#45;&gt;Node12 -->
<g id="edge35" class="edge">
<title>Node20&#45;&gt;Node12</title>
<path fill="none" stroke="midnightblue" d="M464.7,-336.29C475.97,-318.2 500,-274.95 500,-235 500,-235 500,-235 500,-177 500,-143.79 512.13,-106.63 520.43,-85.12"/>
<polygon fill="midnightblue" stroke="midnightblue" points="523.75,-86.23 524.22,-75.65 517.25,-83.63 523.75,-86.23"/>
</g>
<!-- Node20&#45;&gt;Node16 -->
<g id="edge34" class="edge">
<title>Node20&#45;&gt;Node16</title>
<path fill="none" stroke="midnightblue" d="M473.28,-336.37C504.65,-317.41 579.78,-272 617.93,-248.94"/>
<polygon fill="midnightblue" stroke="midnightblue" points="620.04,-251.76 626.79,-243.59 616.42,-245.77 620.04,-251.76"/>
</g>
</g>
</svg>
