<?xml version="1.0" encoding="UTF-8" standalone="no"?>
<!DOCTYPE svg PUBLIC "-//W3C//DTD SVG 1.1//EN"
 "http://www.w3.org/Graphics/SVG/1.1/DTD/svg11.dtd">
<!-- Generated by graphviz version 2.43.0 (0)
 -->
<!-- Title: /home/runner/work/Raytracer/Raytracer/src/Entities/ILight.hpp Pages: 1 -->
<svg width="471pt" height="330pt"
 viewBox="0.00 0.00 470.50 330.00" xmlns="http://www.w3.org/2000/svg" xmlns:xlink="http://www.w3.org/1999/xlink">
<g id="graph0" class="graph" transform="scale(1 1) rotate(0) translate(4 326)">
<title>/home/runner/work/Raytracer/Raytracer/src/Entities/ILight.hpp</title>
<polygon fill="white" stroke="transparent" points="-4,4 -4,-326 466.5,-326 466.5,4 -4,4"/>
<!-- Node1 -->
<g id="node1" class="node">
<title>Node1</title>
<g id="a_node1"><a xlink:title=" ">
<polygon fill="#bfbfbf" stroke="black" points="225,-280.5 225,-321.5 384,-321.5 384,-280.5 225,-280.5"/>
<text text-anchor="start" x="233" y="-309.5" font-family="Helvetica,sans-Serif" font-size="10.00">/home/runner/work/Raytracer</text>
<text text-anchor="start" x="233" y="-298.5" font-family="Helvetica,sans-Serif" font-size="10.00">/Raytracer/src/Entities</text>
<text text-anchor="middle" x="304.5" y="-287.5" font-family="Helvetica,sans-Serif" font-size="10.00">/ILight.hpp</text>
</a>
</g>
</g>
<!-- Node2 -->
<g id="node2" class="node">
<title>Node2</title>
<g id="a_node2"><a xlink:href="a00155.html" target="_top" xlink:title=" ">
<polygon fill="white" stroke="black" points="148.5,-112.5 148.5,-131.5 210.5,-131.5 210.5,-112.5 148.5,-112.5"/>
<text text-anchor="middle" x="179.5" y="-119.5" font-family="Helvetica,sans-Serif" font-size="10.00">Color.hpp</text>
</a>
</g>
</g>
<!-- Node1&#45;&gt;Node2 -->
<g id="edge1" class="edge">
<title>Node1&#45;&gt;Node2</title>
<path fill="none" stroke="midnightblue" d="M257.68,-280.49C221.8,-262.52 175.47,-231.95 157.5,-188 150.97,-172.03 158.87,-153.32 166.96,-140.09"/>
<polygon fill="midnightblue" stroke="midnightblue" points="170.03,-141.79 172.69,-131.54 164.22,-137.9 170.03,-141.79"/>
</g>
<!-- Node9 -->
<g id="node9" class="node">
<title>Node9</title>
<g id="a_node9"><a xlink:href="a00233.html" target="_top" xlink:title=" ">
<polygon fill="white" stroke="black" points="364.5,-224.5 364.5,-243.5 462.5,-243.5 462.5,-224.5 364.5,-224.5"/>
<text text-anchor="middle" x="413.5" y="-231.5" font-family="Helvetica,sans-Serif" font-size="10.00">IDisplayable.hpp</text>
</a>
</g>
</g>
<!-- Node1&#45;&gt;Node9 -->
<g id="edge8" class="edge">
<title>Node1&#45;&gt;Node9</title>
<path fill="none" stroke="midnightblue" d="M337.2,-280.5C354.24,-270.34 374.67,-258.16 390.1,-248.95"/>
<polygon fill="midnightblue" stroke="midnightblue" points="392.19,-251.78 398.99,-243.65 388.61,-245.77 392.19,-251.78"/>
</g>
<!-- Node11 -->
<g id="node11" class="node">
<title>Node11</title>
<g id="a_node11"><a xlink:href="a00125.html" target="_top" xlink:title=" ">
<polygon fill="white" stroke="black" points="230,-112.5 230,-131.5 359,-131.5 359,-112.5 230,-112.5"/>
<text text-anchor="middle" x="294.5" y="-119.5" font-family="Helvetica,sans-Serif" font-size="10.00">Transform/Vector3f.hpp</text>
</a>
</g>
</g>
<!-- Node1&#45;&gt;Node11 -->
<g id="edge11" class="edge">
<title>Node1&#45;&gt;Node11</title>
<path fill="none" stroke="midnightblue" d="M310.41,-280.48C317.39,-254.48 326.93,-207.18 317.5,-168 315.19,-158.42 310.48,-148.58 305.92,-140.56"/>
<polygon fill="midnightblue" stroke="midnightblue" points="308.79,-138.54 300.6,-131.81 302.81,-142.17 308.79,-138.54"/>
</g>
<!-- Node12 -->
<g id="node12" class="node">
<title>Node12</title>
<g id="a_node12"><a xlink:href="a00104.html" target="_top" xlink:title=" ">
<polygon fill="white" stroke="black" points="221.5,-224.5 221.5,-243.5 289.5,-243.5 289.5,-224.5 221.5,-224.5"/>
<text text-anchor="middle" x="255.5" y="-231.5" font-family="Helvetica,sans-Serif" font-size="10.00">IEntity.hpp</text>
</a>
</g>
</g>
<!-- Node1&#45;&gt;Node12 -->
<g id="edge14" class="edge">
<title>Node1&#45;&gt;Node12</title>
<path fill="none" stroke="midnightblue" d="M289.8,-280.5C282.94,-271.39 274.85,-260.66 268.25,-251.91"/>
<polygon fill="midnightblue" stroke="midnightblue" points="270.84,-249.53 262.02,-243.65 265.25,-253.74 270.84,-249.53"/>
</g>
<!-- Node3 -->
<g id="node3" class="node">
<title>Node3</title>
<g id="a_node3"><a xlink:title=" ">
<polygon fill="white" stroke="#bfbfbf" points="155.5,-56.5 155.5,-75.5 203.5,-75.5 203.5,-56.5 155.5,-56.5"/>
<text text-anchor="middle" x="179.5" y="-63.5" font-family="Helvetica,sans-Serif" font-size="10.00">mutex</text>
</a>
</g>
</g>
<!-- Node2&#45;&gt;Node3 -->
<g id="edge2" class="edge">
<title>Node2&#45;&gt;Node3</title>
<path fill="none" stroke="midnightblue" d="M179.5,-112.08C179.5,-105.01 179.5,-94.86 179.5,-85.99"/>
<polygon fill="midnightblue" stroke="midnightblue" points="183,-85.75 179.5,-75.75 176,-85.75 183,-85.75"/>
</g>
<!-- Node4 -->
<g id="node4" class="node">
<title>Node4</title>
<g id="a_node4"><a xlink:title=" ">
<polygon fill="white" stroke="#bfbfbf" points="315,-56.5 315,-75.5 372,-75.5 372,-56.5 315,-56.5"/>
<text text-anchor="middle" x="343.5" y="-63.5" font-family="Helvetica,sans-Serif" font-size="10.00">ostream</text>
</a>
</g>
</g>
<!-- Node2&#45;&gt;Node4 -->
<g id="edge3" class="edge">
<title>Node2&#45;&gt;Node4</title>
<path fill="none" stroke="midnightblue" d="M205.49,-112.44C233.2,-103.32 277.25,-88.81 308.12,-78.65"/>
<polygon fill="midnightblue" stroke="midnightblue" points="309.23,-81.97 317.64,-75.52 307.04,-75.32 309.23,-81.97"/>
</g>
<!-- Node5 -->
<g id="node5" class="node">
<title>Node5</title>
<g id="a_node5"><a xlink:title=" ">
<polygon fill="white" stroke="#bfbfbf" points="0,-56.5 0,-75.5 137,-75.5 137,-56.5 0,-56.5"/>
<text text-anchor="middle" x="68.5" y="-63.5" font-family="Helvetica,sans-Serif" font-size="10.00">SFML/Graphics/Color.hpp</text>
</a>
</g>
</g>
<!-- Node2&#45;&gt;Node5 -->
<g id="edge4" class="edge">
<title>Node2&#45;&gt;Node5</title>
<path fill="none" stroke="midnightblue" d="M161.67,-112.32C143.78,-103.62 116.02,-90.12 95.45,-80.11"/>
<polygon fill="midnightblue" stroke="midnightblue" points="96.81,-76.88 86.29,-75.65 93.75,-83.18 96.81,-76.88"/>
</g>
<!-- Node6 -->
<g id="node6" class="node">
<title>Node6</title>
<g id="a_node6"><a xlink:href="a00239.html" target="_top" xlink:title=" ">
<polygon fill="white" stroke="black" points="222,-56.5 222,-75.5 297,-75.5 297,-56.5 222,-56.5"/>
<text text-anchor="middle" x="259.5" y="-63.5" font-family="Helvetica,sans-Serif" font-size="10.00">ISetting.hpp</text>
</a>
</g>
</g>
<!-- Node2&#45;&gt;Node6 -->
<g id="edge5" class="edge">
<title>Node2&#45;&gt;Node6</title>
<path fill="none" stroke="midnightblue" d="M192.35,-112.32C204.72,-103.98 223.63,-91.21 238.24,-81.35"/>
<polygon fill="midnightblue" stroke="midnightblue" points="240.35,-84.15 246.68,-75.65 236.43,-78.35 240.35,-84.15"/>
</g>
<!-- Node7 -->
<g id="node7" class="node">
<title>Node7</title>
<g id="a_node7"><a xlink:title=" ">
<polygon fill="white" stroke="#bfbfbf" points="345.5,-0.5 345.5,-19.5 403.5,-19.5 403.5,-0.5 345.5,-0.5"/>
<text text-anchor="middle" x="374.5" y="-7.5" font-family="Helvetica,sans-Serif" font-size="10.00">memory</text>
</a>
</g>
</g>
<!-- Node6&#45;&gt;Node7 -->
<g id="edge6" class="edge">
<title>Node6&#45;&gt;Node7</title>
<path fill="none" stroke="midnightblue" d="M277.72,-56.44C296.4,-47.68 325.66,-33.94 347.12,-23.86"/>
<polygon fill="midnightblue" stroke="midnightblue" points="348.8,-26.93 356.36,-19.52 345.82,-20.6 348.8,-26.93"/>
</g>
<!-- Node8 -->
<g id="node8" class="node">
<title>Node8</title>
<g id="a_node8"><a xlink:title=" ">
<polygon fill="white" stroke="#bfbfbf" points="218,-0.5 218,-19.5 301,-19.5 301,-0.5 218,-0.5"/>
<text text-anchor="middle" x="259.5" y="-7.5" font-family="Helvetica,sans-Serif" font-size="10.00">libconfig.h++</text>
</a>
</g>
</g>
<!-- Node6&#45;&gt;Node8 -->
<g id="edge7" class="edge">
<title>Node6&#45;&gt;Node8</title>
<path fill="none" stroke="midnightblue" d="M259.5,-56.08C259.5,-49.01 259.5,-38.86 259.5,-29.99"/>
<polygon fill="midnightblue" stroke="midnightblue" points="263,-29.75 259.5,-19.75 256,-29.75 263,-29.75"/>
</g>
<!-- Node9&#45;&gt;Node7 -->
<g id="edge9" class="edge">
<title>Node9&#45;&gt;Node7</title>
<path fill="none" stroke="midnightblue" d="M416.09,-224.15C419.42,-211.63 424.43,-188.02 421.5,-168 413.93,-116.33 393.05,-58.04 381.84,-29.19"/>
<polygon fill="midnightblue" stroke="midnightblue" points="385,-27.66 378.07,-19.65 378.49,-30.24 385,-27.66"/>
</g>
<!-- Node10 -->
<g id="node10" class="node">
<title>Node10</title>
<g id="a_node10"><a xlink:title=" ">
<polygon fill="white" stroke="#bfbfbf" points="365,-168.5 365,-187.5 412,-187.5 412,-168.5 365,-168.5"/>
<text text-anchor="middle" x="388.5" y="-175.5" font-family="Helvetica,sans-Serif" font-size="10.00">vector</text>
</a>
</g>
</g>
<!-- Node9&#45;&gt;Node10 -->
<g id="edge10" class="edge">
<title>Node9&#45;&gt;Node10</title>
<path fill="none" stroke="midnightblue" d="M409.37,-224.08C405.99,-216.77 401.08,-206.18 396.88,-197.1"/>
<polygon fill="midnightblue" stroke="midnightblue" points="399.93,-195.36 392.55,-187.75 393.58,-198.3 399.93,-195.36"/>
</g>
<!-- Node11&#45;&gt;Node4 -->
<g id="edge12" class="edge">
<title>Node11&#45;&gt;Node4</title>
<path fill="none" stroke="midnightblue" d="M302.59,-112.08C309.66,-104.3 320.09,-92.8 328.65,-83.37"/>
<polygon fill="midnightblue" stroke="midnightblue" points="331.43,-85.51 335.56,-75.75 326.25,-80.8 331.43,-85.51"/>
</g>
<!-- Node11&#45;&gt;Node6 -->
<g id="edge13" class="edge">
<title>Node11&#45;&gt;Node6</title>
<path fill="none" stroke="midnightblue" d="M288.72,-112.08C283.83,-104.53 276.67,-93.49 270.67,-84.23"/>
<polygon fill="midnightblue" stroke="midnightblue" points="273.55,-82.24 265.17,-75.75 267.67,-86.05 273.55,-82.24"/>
</g>
<!-- Node13 -->
<g id="node13" class="node">
<title>Node13</title>
<g id="a_node13"><a xlink:href="a00116.html" target="_top" xlink:title=" ">
<polygon fill="white" stroke="black" points="167,-168.5 167,-187.5 308,-187.5 308,-168.5 167,-168.5"/>
<text text-anchor="middle" x="237.5" y="-175.5" font-family="Helvetica,sans-Serif" font-size="10.00">Transform/ITransform.hpp</text>
</a>
</g>
</g>
<!-- Node12&#45;&gt;Node13 -->
<g id="edge15" class="edge">
<title>Node12&#45;&gt;Node13</title>
<path fill="none" stroke="midnightblue" d="M252.53,-224.08C250.12,-216.85 246.64,-206.41 243.63,-197.4"/>
<polygon fill="midnightblue" stroke="midnightblue" points="246.9,-196.13 240.42,-187.75 240.26,-198.34 246.9,-196.13"/>
</g>
<!-- Node13&#45;&gt;Node11 -->
<g id="edge16" class="edge">
<title>Node13&#45;&gt;Node11</title>
<path fill="none" stroke="midnightblue" d="M246.66,-168.32C255,-160.42 267.53,-148.55 277.68,-138.94"/>
<polygon fill="midnightblue" stroke="midnightblue" points="280.32,-141.25 285.18,-131.83 275.51,-136.17 280.32,-141.25"/>
</g>
</g>
</svg>
