<?xml version="1.0" encoding="UTF-8" standalone="no"?>
<!DOCTYPE svg PUBLIC "-//W3C//DTD SVG 1.1//EN"
 "http://www.w3.org/Graphics/SVG/1.1/DTD/svg11.dtd">
<!-- Generated by graphviz version 2.43.0 (0)
 -->
<!-- Title: /home/runner/work/Raytracer/Raytracer/src/Scenes/IConfig.hpp Pages: 1 -->
<svg width="2678pt" height="652pt"
 viewBox="0.00 0.00 2678.50 652.00" xmlns="http://www.w3.org/2000/svg" xmlns:xlink="http://www.w3.org/1999/xlink">
<g id="graph0" class="graph" transform="scale(1 1) rotate(0) translate(4 648)">
<title>/home/runner/work/Raytracer/Raytracer/src/Scenes/IConfig.hpp</title>
<polygon fill="white" stroke="transparent" points="-4,4 -4,-648 2674.5,-648 2674.5,4 -4,4"/>
<!-- Node1 -->
<g id="node1" class="node">
<title>Node1</title>
<g id="a_node1"><a xlink:title=" ">
<polygon fill="#bfbfbf" stroke="black" points="2045,-613.5 2045,-643.5 2224,-643.5 2224,-613.5 2045,-613.5"/>
<text text-anchor="start" x="2053" y="-631.5" font-family="Helvetica,sans-Serif" font-size="10.00">/home/runner/work/Raytracer</text>
<text text-anchor="middle" x="2134.5" y="-620.5" font-family="Helvetica,sans-Serif" font-size="10.00">/Raytracer/src/Scenes/IConfig.hpp</text>
</a>
</g>
</g>
<!-- Node2 -->
<g id="node2" class="node">
<title>Node2</title>
<g id="a_node2"><a xlink:href="a00089.html" target="_top" xlink:title=" ">
<polygon fill="white" stroke="black" points="739,-535.5 739,-576.5 898,-576.5 898,-535.5 739,-535.5"/>
<text text-anchor="start" x="747" y="-564.5" font-family="Helvetica,sans-Serif" font-size="10.00">/home/runner/work/Raytracer</text>
<text text-anchor="start" x="747" y="-553.5" font-family="Helvetica,sans-Serif" font-size="10.00">/Raytracer/src/Entities</text>
<text text-anchor="middle" x="818.5" y="-542.5" font-family="Helvetica,sans-Serif" font-size="10.00">/Transform/Vector2i.hpp</text>
</a>
</g>
</g>
<!-- Node1&#45;&gt;Node2 -->
<g id="edge1" class="edge">
<title>Node1&#45;&gt;Node2</title>
<path fill="none" stroke="midnightblue" d="M2034.59,-622.15C1782.9,-608.66 1126.65,-573.51 898.25,-561.27"/>
<polygon fill="midnightblue" stroke="midnightblue" points="2034.65,-625.66 2044.82,-622.7 2035.02,-618.67 2034.65,-625.66"/>
</g>
<!-- Node22 -->
<g id="node22" class="node">
<title>Node22</title>
<g id="a_node22"><a xlink:href="a00164.html" target="_top" xlink:title=" ">
<polygon fill="white" stroke="black" points="1577,-223.5 1577,-264.5 1736,-264.5 1736,-223.5 1577,-223.5"/>
<text text-anchor="start" x="1585" y="-252.5" font-family="Helvetica,sans-Serif" font-size="10.00">/home/runner/work/Raytracer</text>
<text text-anchor="start" x="1585" y="-241.5" font-family="Helvetica,sans-Serif" font-size="10.00">/Raytracer/src/Plugins/Filters</text>
<text text-anchor="middle" x="1656.5" y="-230.5" font-family="Helvetica,sans-Serif" font-size="10.00">/FilterHandler.hpp</text>
</a>
</g>
</g>
<!-- Node1&#45;&gt;Node22 -->
<g id="edge44" class="edge">
<title>Node1&#45;&gt;Node22</title>
<path fill="none" stroke="midnightblue" d="M2112.5,-605.96C2105.09,-597.57 2097.46,-587.46 2092.5,-577 2073.49,-536.91 2073.5,-523.37 2073.5,-479 2073.5,-479 2073.5,-479 2073.5,-399 2073.5,-354.63 2087.03,-331.17 2054.5,-301 2003.8,-254 1813.65,-276.59 1745.5,-265 1742.53,-264.5 1739.51,-263.96 1736.47,-263.39"/>
<polygon fill="midnightblue" stroke="midnightblue" points="2110.06,-608.48 2119.43,-613.43 2115.19,-603.72 2110.06,-608.48"/>
</g>
<!-- Node28 -->
<g id="node28" class="node">
<title>Node28</title>
<g id="a_node28"><a xlink:href="a00191.html" target="_top" xlink:title=" ">
<polygon fill="white" stroke="black" points="567,-73 567,-103 784,-103 784,-73 567,-73"/>
<text text-anchor="start" x="575" y="-91" font-family="Helvetica,sans-Serif" font-size="10.00">/home/runner/work/Raytracer</text>
<text text-anchor="middle" x="675.5" y="-80" font-family="Helvetica,sans-Serif" font-size="10.00">/Raytracer/src/Scenes/ConfigWrapper.hpp</text>
</a>
</g>
</g>
<!-- Node1&#45;&gt;Node28 -->
<g id="edge45" class="edge">
<title>Node1&#45;&gt;Node28</title>
<path fill="none" stroke="midnightblue" d="M2034.95,-625.84C1614.24,-618.19 3.5,-582.18 3.5,-479 3.5,-479 3.5,-479 3.5,-243 3.5,-198.63 -10.49,-174.67 22.5,-145 62,-109.48 391.37,-95.98 566.67,-91.28"/>
<polygon fill="midnightblue" stroke="midnightblue" points="2034.91,-629.34 2044.97,-626.02 2035.03,-622.34 2034.91,-629.34"/>
</g>
<!-- Node29 -->
<g id="node29" class="node">
<title>Node29</title>
<g id="a_node29"><a xlink:href="a00224.html" target="_top" xlink:title=" ">
<polygon fill="white" stroke="black" points="2102,-535.5 2102,-576.5 2291,-576.5 2291,-535.5 2102,-535.5"/>
<text text-anchor="start" x="2110" y="-564.5" font-family="Helvetica,sans-Serif" font-size="10.00">/home/runner/work/Raytracer</text>
<text text-anchor="start" x="2110" y="-553.5" font-family="Helvetica,sans-Serif" font-size="10.00">/Raytracer/PluginsExt/AmbientLight</text>
<text text-anchor="middle" x="2196.5" y="-542.5" font-family="Helvetica,sans-Serif" font-size="10.00">/AmbientLightEntity.hpp</text>
</a>
</g>
</g>
<!-- Node1&#45;&gt;Node29 -->
<g id="edge47" class="edge">
<title>Node1&#45;&gt;Node29</title>
<path fill="none" stroke="midnightblue" d="M2153.81,-605.54C2161.96,-596.28 2171.36,-585.58 2179.27,-576.59"/>
<polygon fill="midnightblue" stroke="midnightblue" points="2151.02,-603.41 2147.04,-613.23 2156.28,-608.04 2151.02,-603.41"/>
</g>
<!-- Node31 -->
<g id="node31" class="node">
<title>Node31</title>
<g id="a_node31"><a xlink:href="a00314.html" target="_top" xlink:title=" ">
<polygon fill="white" stroke="black" points="2309,-535.5 2309,-576.5 2482,-576.5 2482,-535.5 2309,-535.5"/>
<text text-anchor="start" x="2317" y="-564.5" font-family="Helvetica,sans-Serif" font-size="10.00">/home/runner/work/Raytracer</text>
<text text-anchor="start" x="2317" y="-553.5" font-family="Helvetica,sans-Serif" font-size="10.00">/Raytracer/PluginsExt/PointLight</text>
<text text-anchor="middle" x="2395.5" y="-542.5" font-family="Helvetica,sans-Serif" font-size="10.00">/PointLightEntity.hpp</text>
</a>
</g>
</g>
<!-- Node1&#45;&gt;Node31 -->
<g id="edge49" class="edge">
<title>Node1&#45;&gt;Node31</title>
<path fill="none" stroke="midnightblue" d="M2196.29,-610.81C2234.28,-600.55 2283.14,-587.35 2322.97,-576.59"/>
<polygon fill="midnightblue" stroke="midnightblue" points="2195.12,-607.5 2186.37,-613.49 2196.94,-614.26 2195.12,-607.5"/>
</g>
<!-- Node33 -->
<g id="node33" class="node">
<title>Node33</title>
<g id="a_node33"><a xlink:href="a00326.html" target="_top" xlink:title=" ">
<polygon fill="white" stroke="black" points="2500.5,-535.5 2500.5,-576.5 2670.5,-576.5 2670.5,-535.5 2500.5,-535.5"/>
<text text-anchor="start" x="2508.5" y="-564.5" font-family="Helvetica,sans-Serif" font-size="10.00">/home/runner/work/Raytracer</text>
<text text-anchor="start" x="2508.5" y="-553.5" font-family="Helvetica,sans-Serif" font-size="10.00">/Raytracer/PluginsExt/SpotLight</text>
<text text-anchor="middle" x="2585.5" y="-542.5" font-family="Helvetica,sans-Serif" font-size="10.00">/SpotLightEntity.hpp</text>
</a>
</g>
</g>
<!-- Node1&#45;&gt;Node33 -->
<g id="edge51" class="edge">
<title>Node1&#45;&gt;Node33</title>
<path fill="none" stroke="midnightblue" d="M2234.21,-615.27C2305.96,-606.01 2404.96,-592.31 2491.5,-577 2494.45,-576.48 2497.46,-575.93 2500.49,-575.36"/>
<polygon fill="midnightblue" stroke="midnightblue" points="2233.74,-611.8 2224.27,-616.55 2234.63,-618.75 2233.74,-611.8"/>
</g>
<!-- Node3 -->
<g id="node3" class="node">
<title>Node3</title>
<g id="a_node3"><a xlink:href="a00068.html" target="_top" xlink:title=" ">
<polygon fill="white" stroke="black" points="869,-301.5 869,-342.5 1028,-342.5 1028,-301.5 869,-301.5"/>
<text text-anchor="start" x="877" y="-330.5" font-family="Helvetica,sans-Serif" font-size="10.00">/home/runner/work/Raytracer</text>
<text text-anchor="start" x="877" y="-319.5" font-family="Helvetica,sans-Serif" font-size="10.00">/Raytracer/src/Entities</text>
<text text-anchor="middle" x="948.5" y="-308.5" font-family="Helvetica,sans-Serif" font-size="10.00">/ICamera.hpp</text>
</a>
</g>
</g>
<!-- Node2&#45;&gt;Node3 -->
<g id="edge2" class="edge">
<title>Node2&#45;&gt;Node3</title>
<path fill="none" stroke="midnightblue" d="M834.57,-526.32C861.35,-478.52 914.44,-383.78 937.44,-342.73"/>
<polygon fill="midnightblue" stroke="midnightblue" points="831.42,-524.79 829.58,-535.22 837.52,-528.21 831.42,-524.79"/>
</g>
<!-- Node4 -->
<g id="node4" class="node">
<title>Node4</title>
<g id="a_node4"><a xlink:href="a00140.html" target="_top" xlink:title=" ">
<polygon fill="white" stroke="black" points="460,-229 460,-259 665,-259 665,-229 460,-229"/>
<text text-anchor="start" x="468" y="-247" font-family="Helvetica,sans-Serif" font-size="10.00">/home/runner/work/Raytracer</text>
<text text-anchor="middle" x="562.5" y="-236" font-family="Helvetica,sans-Serif" font-size="10.00">/Raytracer/src/Images/RayIterrator.hpp</text>
</a>
</g>
</g>
<!-- Node2&#45;&gt;Node4 -->
<g id="edge37" class="edge">
<title>Node2&#45;&gt;Node4</title>
<path fill="none" stroke="midnightblue" d="M728.81,-543.19C674.25,-534.08 611.67,-519.54 593.5,-499 531.4,-428.79 550.61,-301.76 559.28,-259.28"/>
<polygon fill="midnightblue" stroke="midnightblue" points="728.46,-546.68 738.89,-544.83 729.58,-539.77 728.46,-546.68"/>
</g>
<!-- Node9 -->
<g id="node9" class="node">
<title>Node9</title>
<g id="a_node9"><a xlink:href="a00242.html" target="_top" xlink:title=" ">
<polygon fill="white" stroke="black" points="682.5,-223.5 682.5,-264.5 860.5,-264.5 860.5,-223.5 682.5,-223.5"/>
<text text-anchor="start" x="690.5" y="-252.5" font-family="Helvetica,sans-Serif" font-size="10.00">/home/runner/work/Raytracer</text>
<text text-anchor="start" x="690.5" y="-241.5" font-family="Helvetica,sans-Serif" font-size="10.00">/Raytracer/PluginsExt/Camera</text>
<text text-anchor="middle" x="771.5" y="-230.5" font-family="Helvetica,sans-Serif" font-size="10.00">/Cluster/CameraClusterEntity.hpp</text>
</a>
</g>
</g>
<!-- Node2&#45;&gt;Node9 -->
<g id="edge38" class="edge">
<title>Node2&#45;&gt;Node9</title>
<path fill="none" stroke="midnightblue" d="M816.19,-525.34C813.26,-490.26 807.59,-430.17 799.5,-379 793.04,-338.15 782.43,-290.93 776.29,-264.87"/>
<polygon fill="midnightblue" stroke="midnightblue" points="812.71,-525.7 817.01,-535.38 819.69,-525.13 812.71,-525.7"/>
</g>
<!-- Node11 -->
<g id="node11" class="node">
<title>Node11</title>
<g id="a_node11"><a xlink:href="a00245.html" target="_top" xlink:title=" ">
<polygon fill="white" stroke="black" points="1252,-223.5 1252,-264.5 1419,-264.5 1419,-223.5 1252,-223.5"/>
<text text-anchor="start" x="1260" y="-252.5" font-family="Helvetica,sans-Serif" font-size="10.00">/home/runner/work/Raytracer</text>
<text text-anchor="start" x="1260" y="-241.5" font-family="Helvetica,sans-Serif" font-size="10.00">/Raytracer/PluginsExt/Camera</text>
<text text-anchor="middle" x="1335.5" y="-230.5" font-family="Helvetica,sans-Serif" font-size="10.00">/Cluster/ClusterRayIterator.hpp</text>
</a>
</g>
</g>
<!-- Node2&#45;&gt;Node11 -->
<g id="edge39" class="edge">
<title>Node2&#45;&gt;Node11</title>
<path fill="none" stroke="midnightblue" d="M908.23,-552.19C1081.57,-544.61 1451.99,-517.27 1526.5,-421 1559.14,-378.82 1558.47,-343.69 1526.5,-301 1513.06,-283.06 1464.18,-268.92 1419.23,-259.33"/>
<polygon fill="midnightblue" stroke="midnightblue" points="907.95,-548.7 898.11,-552.62 908.25,-555.69 907.95,-548.7"/>
</g>
<!-- Node12 -->
<g id="node12" class="node">
<title>Node12</title>
<g id="a_node12"><a xlink:href="a00251.html" target="_top" xlink:title=" ">
<polygon fill="white" stroke="black" points="32,-223.5 32,-264.5 233,-264.5 233,-223.5 32,-223.5"/>
<text text-anchor="start" x="40" y="-252.5" font-family="Helvetica,sans-Serif" font-size="10.00">/home/runner/work/Raytracer</text>
<text text-anchor="start" x="40" y="-241.5" font-family="Helvetica,sans-Serif" font-size="10.00">/Raytracer/PluginsExt/Camera</text>
<text text-anchor="middle" x="132.5" y="-230.5" font-family="Helvetica,sans-Serif" font-size="10.00">/FullCustom/CameraCustomEntity.hpp</text>
</a>
</g>
</g>
<!-- Node2&#45;&gt;Node12 -->
<g id="edge40" class="edge">
<title>Node2&#45;&gt;Node12</title>
<path fill="none" stroke="midnightblue" d="M728.71,-549.09C664.34,-542.46 576.63,-528.47 504.5,-499 356.81,-438.67 208.28,-313.2 154.03,-264.72"/>
<polygon fill="midnightblue" stroke="midnightblue" points="728.54,-552.59 738.83,-550.09 729.23,-545.62 728.54,-552.59"/>
</g>
<!-- Node14 -->
<g id="node14" class="node">
<title>Node14</title>
<g id="a_node14"><a xlink:href="a00254.html" target="_top" xlink:title=" ">
<polygon fill="white" stroke="black" points="251.5,-223.5 251.5,-264.5 441.5,-264.5 441.5,-223.5 251.5,-223.5"/>
<text text-anchor="start" x="259.5" y="-252.5" font-family="Helvetica,sans-Serif" font-size="10.00">/home/runner/work/Raytracer</text>
<text text-anchor="start" x="259.5" y="-241.5" font-family="Helvetica,sans-Serif" font-size="10.00">/Raytracer/PluginsExt/Camera</text>
<text text-anchor="middle" x="346.5" y="-230.5" font-family="Helvetica,sans-Serif" font-size="10.00">/FullCustom/CustomRayIterator.hpp</text>
</a>
</g>
</g>
<!-- Node2&#45;&gt;Node14 -->
<g id="edge41" class="edge">
<title>Node2&#45;&gt;Node14</title>
<path fill="none" stroke="midnightblue" d="M728.94,-549.29C677.8,-542.72 614.17,-528.73 564.5,-499 462.77,-438.13 384.74,-312.98 357.24,-264.65"/>
<polygon fill="midnightblue" stroke="midnightblue" points="728.64,-552.78 738.99,-550.51 729.49,-545.83 728.64,-552.78"/>
</g>
<!-- Node15 -->
<g id="node15" class="node">
<title>Node15</title>
<g id="a_node15"><a xlink:href="a00125.html" target="_top" xlink:title=" ">
<polygon fill="white" stroke="black" points="1038.5,-463 1038.5,-493 1216.5,-493 1216.5,-463 1038.5,-463"/>
<text text-anchor="start" x="1046.5" y="-481" font-family="Helvetica,sans-Serif" font-size="10.00">/home/runner/work/Raytracer</text>
<text text-anchor="middle" x="1127.5" y="-470" font-family="Helvetica,sans-Serif" font-size="10.00">/Raytracer/src/Images/Image.hpp</text>
</a>
</g>
</g>
<!-- Node2&#45;&gt;Node15 -->
<g id="edge14" class="edge">
<title>Node2&#45;&gt;Node15</title>
<path fill="none" stroke="midnightblue" d="M908.02,-532.98C960.27,-520.13 1024.66,-504.29 1070.14,-493.11"/>
<polygon fill="midnightblue" stroke="midnightblue" points="906.95,-529.64 898.07,-535.43 908.62,-536.44 906.95,-529.64"/>
</g>
<!-- Node26 -->
<g id="node26" class="node">
<title>Node26</title>
<g id="a_node26"><a xlink:href="a00296.html" target="_top" xlink:title=" ">
<polygon fill="white" stroke="black" points="602.5,-457.5 602.5,-498.5 790.5,-498.5 790.5,-457.5 602.5,-457.5"/>
<text text-anchor="start" x="610.5" y="-486.5" font-family="Helvetica,sans-Serif" font-size="10.00">/home/runner/work/Raytracer</text>
<text text-anchor="start" x="610.5" y="-475.5" font-family="Helvetica,sans-Serif" font-size="10.00">/Raytracer/PluginsExt/LimitedPlane</text>
<text text-anchor="middle" x="696.5" y="-464.5" font-family="Helvetica,sans-Serif" font-size="10.00">/LimitedPlaneEntity.hpp</text>
</a>
</g>
</g>
<!-- Node2&#45;&gt;Node26 -->
<g id="edge42" class="edge">
<title>Node2&#45;&gt;Node26</title>
<path fill="none" stroke="midnightblue" d="M778.24,-529.92C761.83,-519.7 743.16,-508.07 727.81,-498.51"/>
<polygon fill="midnightblue" stroke="midnightblue" points="776.74,-533.11 787.08,-535.43 780.44,-527.17 776.74,-533.11"/>
</g>
<!-- Node3&#45;&gt;Node4 -->
<g id="edge3" class="edge">
<title>Node3&#45;&gt;Node4</title>
<path fill="none" stroke="midnightblue" d="M859.06,-303.39C790.55,-289.9 697.31,-271.54 633.78,-259.04"/>
<polygon fill="midnightblue" stroke="midnightblue" points="858.5,-306.85 868.99,-305.34 859.85,-299.98 858.5,-306.85"/>
</g>
<!-- Node5 -->
<g id="node5" class="node">
<title>Node5</title>
<g id="a_node5"><a xlink:href="a00209.html" target="_top" xlink:title=" ">
<polygon fill="white" stroke="black" points="1059,-229 1059,-259 1234,-259 1234,-229 1059,-229"/>
<text text-anchor="start" x="1067" y="-247" font-family="Helvetica,sans-Serif" font-size="10.00">/home/runner/work/Raytracer</text>
<text text-anchor="middle" x="1146.5" y="-236" font-family="Helvetica,sans-Serif" font-size="10.00">/Raytracer/src/Scenes/Scene.hpp</text>
</a>
</g>
</g>
<!-- Node3&#45;&gt;Node5 -->
<g id="edge4" class="edge">
<title>Node3&#45;&gt;Node5</title>
<path fill="none" stroke="midnightblue" d="M1009.01,-297.77C1041.91,-285.15 1081.51,-269.94 1109.75,-259.11"/>
<polygon fill="midnightblue" stroke="midnightblue" points="1007.57,-294.58 999.49,-301.43 1010.08,-301.11 1007.57,-294.58"/>
</g>
<!-- Node7 -->
<g id="node7" class="node">
<title>Node7</title>
<g id="a_node7"><a xlink:href="a00236.html" target="_top" xlink:title=" ">
<polygon fill="white" stroke="black" points="878.5,-223.5 878.5,-264.5 1040.5,-264.5 1040.5,-223.5 878.5,-223.5"/>
<text text-anchor="start" x="886.5" y="-252.5" font-family="Helvetica,sans-Serif" font-size="10.00">/home/runner/work/Raytracer</text>
<text text-anchor="start" x="886.5" y="-241.5" font-family="Helvetica,sans-Serif" font-size="10.00">/Raytracer/PluginsExt/Camera</text>
<text text-anchor="middle" x="959.5" y="-230.5" font-family="Helvetica,sans-Serif" font-size="10.00">/Basic/CameraEntity.hpp</text>
</a>
</g>
</g>
<!-- Node3&#45;&gt;Node7 -->
<g id="edge6" class="edge">
<title>Node3&#45;&gt;Node7</title>
<path fill="none" stroke="midnightblue" d="M952.8,-291.3C954.1,-282.3 955.49,-272.65 956.67,-264.51"/>
<polygon fill="midnightblue" stroke="midnightblue" points="949.3,-291.03 951.33,-301.43 956.23,-292.03 949.3,-291.03"/>
</g>
<!-- Node3&#45;&gt;Node9 -->
<g id="edge8" class="edge">
<title>Node3&#45;&gt;Node9</title>
<path fill="none" stroke="midnightblue" d="M893.69,-297.47C869.06,-286.89 840.33,-274.56 816.92,-264.51"/>
<polygon fill="midnightblue" stroke="midnightblue" points="892.35,-300.7 902.92,-301.43 895.11,-294.27 892.35,-300.7"/>
</g>
<!-- Node3&#45;&gt;Node11 -->
<g id="edge10" class="edge">
<title>Node3&#45;&gt;Node11</title>
<path fill="none" stroke="midnightblue" d="M1038.06,-304.51C1096.36,-293.63 1174.02,-278.88 1242.5,-265 1245.57,-264.38 1248.7,-263.74 1251.87,-263.08"/>
<polygon fill="midnightblue" stroke="midnightblue" points="1037.34,-301.08 1028.15,-306.35 1038.62,-307.96 1037.34,-301.08"/>
</g>
<!-- Node3&#45;&gt;Node12 -->
<g id="edge11" class="edge">
<title>Node3&#45;&gt;Node12</title>
<path fill="none" stroke="midnightblue" d="M858.57,-316.77C724.12,-309.8 462.93,-293.71 242.5,-265 239.42,-264.6 236.29,-264.17 233.14,-263.72"/>
<polygon fill="midnightblue" stroke="midnightblue" points="858.65,-320.28 868.82,-317.3 859.01,-313.29 858.65,-320.28"/>
</g>
<!-- Node3&#45;&gt;Node14 -->
<g id="edge13" class="edge">
<title>Node3&#45;&gt;Node14</title>
<path fill="none" stroke="midnightblue" d="M858.84,-313.04C758.92,-303.68 592.7,-286.63 450.5,-265 447.59,-264.56 444.64,-264.09 441.66,-263.61"/>
<polygon fill="midnightblue" stroke="midnightblue" points="858.61,-316.54 868.9,-313.98 859.26,-309.57 858.61,-316.54"/>
</g>
<!-- Node6 -->
<g id="node6" class="node">
<title>Node6</title>
<g id="a_node6"><a xlink:href="a00146.html" target="_top" xlink:title=" ">
<polygon fill="white" stroke="black" points="1067,-151 1067,-181 1226,-181 1226,-151 1067,-151"/>
<text text-anchor="start" x="1075" y="-169" font-family="Helvetica,sans-Serif" font-size="10.00">/home/runner/work/Raytracer</text>
<text text-anchor="middle" x="1146.5" y="-158" font-family="Helvetica,sans-Serif" font-size="10.00">/Raytracer/src/Main.hpp</text>
</a>
</g>
</g>
<!-- Node5&#45;&gt;Node6 -->
<g id="edge5" class="edge">
<title>Node5&#45;&gt;Node6</title>
<path fill="none" stroke="midnightblue" d="M1146.5,-218.59C1146.5,-206.26 1146.5,-191.72 1146.5,-181.23"/>
<polygon fill="midnightblue" stroke="midnightblue" points="1143,-218.7 1146.5,-228.7 1150,-218.71 1143,-218.7"/>
</g>
<!-- Node8 -->
<g id="node8" class="node">
<title>Node8</title>
<g id="a_node8"><a xlink:href="a00233.html" target="_top" xlink:title=" ">
<polygon fill="white" stroke="black" points="880.5,-145.5 880.5,-186.5 1042.5,-186.5 1042.5,-145.5 880.5,-145.5"/>
<text text-anchor="start" x="888.5" y="-174.5" font-family="Helvetica,sans-Serif" font-size="10.00">/home/runner/work/Raytracer</text>
<text text-anchor="start" x="888.5" y="-163.5" font-family="Helvetica,sans-Serif" font-size="10.00">/Raytracer/PluginsExt/Camera</text>
<text text-anchor="middle" x="961.5" y="-152.5" font-family="Helvetica,sans-Serif" font-size="10.00">/Basic/CameraCreator.hpp</text>
</a>
</g>
</g>
<!-- Node7&#45;&gt;Node8 -->
<g id="edge7" class="edge">
<title>Node7&#45;&gt;Node8</title>
<path fill="none" stroke="midnightblue" d="M960.28,-213.3C960.52,-204.3 960.77,-194.65 960.98,-186.51"/>
<polygon fill="midnightblue" stroke="midnightblue" points="956.78,-213.34 960.01,-223.43 963.77,-213.52 956.78,-213.34"/>
</g>
<!-- Node10 -->
<g id="node10" class="node">
<title>Node10</title>
<g id="a_node10"><a xlink:href="a00239.html" target="_top" xlink:title=" ">
<polygon fill="white" stroke="black" points="676.5,-145.5 676.5,-186.5 862.5,-186.5 862.5,-145.5 676.5,-145.5"/>
<text text-anchor="start" x="684.5" y="-174.5" font-family="Helvetica,sans-Serif" font-size="10.00">/home/runner/work/Raytracer</text>
<text text-anchor="start" x="684.5" y="-163.5" font-family="Helvetica,sans-Serif" font-size="10.00">/Raytracer/PluginsExt/Camera</text>
<text text-anchor="middle" x="769.5" y="-152.5" font-family="Helvetica,sans-Serif" font-size="10.00">/Cluster/CameraClusterCreator.hpp</text>
</a>
</g>
</g>
<!-- Node9&#45;&gt;Node10 -->
<g id="edge9" class="edge">
<title>Node9&#45;&gt;Node10</title>
<path fill="none" stroke="midnightblue" d="M770.72,-213.3C770.48,-204.3 770.22,-194.65 770.01,-186.51"/>
<polygon fill="midnightblue" stroke="midnightblue" points="767.22,-213.52 770.98,-223.43 774.22,-213.34 767.22,-213.52"/>
</g>
<!-- Node13 -->
<g id="node13" class="node">
<title>Node13</title>
<g id="a_node13"><a xlink:href="a00248.html" target="_top" xlink:title=" ">
<polygon fill="white" stroke="black" points="32,-145.5 32,-186.5 241,-186.5 241,-145.5 32,-145.5"/>
<text text-anchor="start" x="40" y="-174.5" font-family="Helvetica,sans-Serif" font-size="10.00">/home/runner/work/Raytracer</text>
<text text-anchor="start" x="40" y="-163.5" font-family="Helvetica,sans-Serif" font-size="10.00">/Raytracer/PluginsExt/Camera</text>
<text text-anchor="middle" x="136.5" y="-152.5" font-family="Helvetica,sans-Serif" font-size="10.00">/FullCustom/CameraCustomCreator.hpp</text>
</a>
</g>
</g>
<!-- Node12&#45;&gt;Node13 -->
<g id="edge12" class="edge">
<title>Node12&#45;&gt;Node13</title>
<path fill="none" stroke="midnightblue" d="M134.06,-213.3C134.53,-204.3 135.04,-194.65 135.47,-186.51"/>
<polygon fill="midnightblue" stroke="midnightblue" points="130.56,-213.26 133.53,-223.43 137.55,-213.63 130.56,-213.26"/>
</g>
<!-- Node15&#45;&gt;Node3 -->
<g id="edge15" class="edge">
<title>Node15&#45;&gt;Node3</title>
<path fill="none" stroke="midnightblue" d="M1103.22,-456.11C1068.54,-426.27 1005.26,-371.84 971.37,-342.68"/>
<polygon fill="midnightblue" stroke="midnightblue" points="1101.11,-458.92 1110.98,-462.79 1105.68,-453.61 1101.11,-458.92"/>
</g>
<!-- Node15&#45;&gt;Node5 -->
<g id="edge35" class="edge">
<title>Node15&#45;&gt;Node5</title>
<path fill="none" stroke="midnightblue" d="M1121.33,-452.52C1113.7,-418.13 1103.25,-353.78 1116.5,-301 1120.31,-285.81 1129.12,-270.24 1136.22,-259.39"/>
<polygon fill="midnightblue" stroke="midnightblue" points="1118,-453.64 1123.67,-462.59 1124.81,-452.05 1118,-453.64"/>
</g>
<!-- Node16 -->
<g id="node16" class="node">
<title>Node16</title>
<g id="a_node16"><a xlink:href="a00116.html" target="_top" xlink:title=" ">
<polygon fill="white" stroke="black" points="1349.5,-385 1349.5,-415 1517.5,-415 1517.5,-385 1349.5,-385"/>
<text text-anchor="start" x="1357.5" y="-403" font-family="Helvetica,sans-Serif" font-size="10.00">/home/runner/work/Raytracer</text>
<text text-anchor="middle" x="1433.5" y="-392" font-family="Helvetica,sans-Serif" font-size="10.00">/Raytracer/src/Filters/IFilter.hpp</text>
</a>
</g>
</g>
<!-- Node15&#45;&gt;Node16 -->
<g id="edge16" class="edge">
<title>Node15&#45;&gt;Node16</title>
<path fill="none" stroke="midnightblue" d="M1193.93,-460.5C1248.63,-446.92 1325.33,-427.87 1377.09,-415.01"/>
<polygon fill="midnightblue" stroke="midnightblue" points="1192.84,-457.16 1183.98,-462.97 1194.53,-463.96 1192.84,-457.16"/>
</g>
<!-- Node21 -->
<g id="node21" class="node">
<title>Node21</title>
<g id="a_node21"><a xlink:href="a00128.html" target="_top" xlink:title=" ">
<polygon fill="white" stroke="black" points="1125.5,-301.5 1125.5,-342.5 1303.5,-342.5 1303.5,-301.5 1125.5,-301.5"/>
<text text-anchor="start" x="1133.5" y="-330.5" font-family="Helvetica,sans-Serif" font-size="10.00">/home/runner/work/Raytracer</text>
<text text-anchor="start" x="1133.5" y="-319.5" font-family="Helvetica,sans-Serif" font-size="10.00">/Raytracer/src/Images/ImagePipe</text>
<text text-anchor="middle" x="1214.5" y="-308.5" font-family="Helvetica,sans-Serif" font-size="10.00">Line.hpp</text>
</a>
</g>
</g>
<!-- Node15&#45;&gt;Node21 -->
<g id="edge34" class="edge">
<title>Node15&#45;&gt;Node21</title>
<path fill="none" stroke="midnightblue" d="M1140.6,-453.8C1157.7,-423.53 1187.32,-371.1 1203.38,-342.68"/>
<polygon fill="midnightblue" stroke="midnightblue" points="1137.4,-452.36 1135.53,-462.79 1143.49,-455.8 1137.4,-452.36"/>
</g>
<!-- Node25 -->
<g id="node25" class="node">
<title>Node25</title>
<g id="a_node25"><a xlink:href="a00230.html" target="_top" xlink:title=" ">
<polygon fill="white" stroke="black" points="1863.5,-301.5 1863.5,-342.5 2045.5,-342.5 2045.5,-301.5 1863.5,-301.5"/>
<text text-anchor="start" x="1871.5" y="-330.5" font-family="Helvetica,sans-Serif" font-size="10.00">/home/runner/work/Raytracer</text>
<text text-anchor="start" x="1871.5" y="-319.5" font-family="Helvetica,sans-Serif" font-size="10.00">/Raytracer/PluginsExt/AntiAliasing</text>
<text text-anchor="middle" x="1954.5" y="-308.5" font-family="Helvetica,sans-Serif" font-size="10.00">/SSAAx4/SSAAx4Filter.hpp</text>
</a>
</g>
</g>
<!-- Node15&#45;&gt;Node25 -->
<g id="edge36" class="edge">
<title>Node15&#45;&gt;Node25</title>
<path fill="none" stroke="midnightblue" d="M1226.78,-465.46C1307.74,-455.48 1424.9,-439.72 1526.5,-421 1650.57,-398.13 1793.1,-363.87 1878.37,-342.51"/>
<polygon fill="midnightblue" stroke="midnightblue" points="1226.09,-462.02 1216.59,-466.71 1226.95,-468.97 1226.09,-462.02"/>
</g>
<!-- Node16&#45;&gt;Node3 -->
<g id="edge17" class="edge">
<title>Node16&#45;&gt;Node3</title>
<path fill="none" stroke="midnightblue" d="M1339.3,-384.24C1248.75,-370.05 1113.4,-348.84 1028.09,-335.47"/>
<polygon fill="midnightblue" stroke="midnightblue" points="1338.87,-387.71 1349.29,-385.81 1339.96,-380.8 1338.87,-387.71"/>
</g>
<!-- Node17 -->
<g id="node17" class="node">
<title>Node17</title>
<g id="a_node17"><a xlink:href="a00098.html" target="_top" xlink:title=" ">
<polygon fill="white" stroke="black" points="1474,-145.5 1474,-186.5 1633,-186.5 1633,-145.5 1474,-145.5"/>
<text text-anchor="start" x="1482" y="-174.5" font-family="Helvetica,sans-Serif" font-size="10.00">/home/runner/work/Raytracer</text>
<text text-anchor="start" x="1482" y="-163.5" font-family="Helvetica,sans-Serif" font-size="10.00">/Raytracer/src/Factories</text>
<text text-anchor="middle" x="1553.5" y="-152.5" font-family="Helvetica,sans-Serif" font-size="10.00">/FilterFactory.hpp</text>
</a>
</g>
</g>
<!-- Node16&#45;&gt;Node17 -->
<g id="edge18" class="edge">
<title>Node16&#45;&gt;Node17</title>
<path fill="none" stroke="midnightblue" d="M1481.49,-380.38C1498.26,-371.52 1515.61,-359.25 1526.5,-343 1559.11,-294.34 1558.24,-221.28 1555.58,-186.61"/>
<polygon fill="midnightblue" stroke="midnightblue" points="1479.67,-377.37 1472.27,-384.95 1482.78,-383.64 1479.67,-377.37"/>
</g>
<!-- Node18 -->
<g id="node18" class="node">
<title>Node18</title>
<g id="a_node18"><a xlink:href="a00167.html" target="_top" xlink:title=" ">
<polygon fill="white" stroke="black" points="1420,-67.5 1420,-108.5 1579,-108.5 1579,-67.5 1420,-67.5"/>
<text text-anchor="start" x="1428" y="-96.5" font-family="Helvetica,sans-Serif" font-size="10.00">/home/runner/work/Raytracer</text>
<text text-anchor="start" x="1428" y="-85.5" font-family="Helvetica,sans-Serif" font-size="10.00">/Raytracer/src/Plugins/Filters</text>
<text text-anchor="middle" x="1499.5" y="-74.5" font-family="Helvetica,sans-Serif" font-size="10.00">/FilterLoader.hpp</text>
</a>
</g>
</g>
<!-- Node16&#45;&gt;Node18 -->
<g id="edge27" class="edge">
<title>Node16&#45;&gt;Node18</title>
<path fill="none" stroke="midnightblue" d="M1388.77,-380.13C1373.47,-371.25 1358.07,-359.02 1349.5,-343 1340.69,-326.54 1339.44,-316.72 1349.5,-301 1370.07,-268.84 1402.36,-293.74 1427.5,-265 1464.25,-222.99 1441.29,-195.76 1464.5,-145 1470.31,-132.28 1478.53,-118.96 1485.55,-108.51"/>
<polygon fill="midnightblue" stroke="midnightblue" points="1387.25,-383.28 1397.71,-384.97 1390.58,-377.13 1387.25,-383.28"/>
</g>
<!-- Node20 -->
<g id="node20" class="node">
<title>Node20</title>
<g id="a_node20"><a xlink:href="a00104.html" target="_top" xlink:title=" ">
<polygon fill="white" stroke="black" points="1359,-301.5 1359,-342.5 1518,-342.5 1518,-301.5 1359,-301.5"/>
<text text-anchor="start" x="1367" y="-330.5" font-family="Helvetica,sans-Serif" font-size="10.00">/home/runner/work/Raytracer</text>
<text text-anchor="start" x="1367" y="-319.5" font-family="Helvetica,sans-Serif" font-size="10.00">/Raytracer/src/Factories</text>
<text text-anchor="middle" x="1438.5" y="-308.5" font-family="Helvetica,sans-Serif" font-size="10.00">/IFilterFactory.hpp</text>
</a>
</g>
</g>
<!-- Node16&#45;&gt;Node20 -->
<g id="edge21" class="edge">
<title>Node16&#45;&gt;Node20</title>
<path fill="none" stroke="midnightblue" d="M1435.1,-374.66C1435.78,-364.33 1436.56,-352.44 1437.2,-342.68"/>
<polygon fill="midnightblue" stroke="midnightblue" points="1431.6,-374.5 1434.44,-384.7 1438.59,-374.96 1431.6,-374.5"/>
</g>
<!-- Node16&#45;&gt;Node21 -->
<g id="edge23" class="edge">
<title>Node16&#45;&gt;Node21</title>
<path fill="none" stroke="midnightblue" d="M1383.46,-381.64C1349.88,-369.98 1305.58,-354.61 1270.77,-342.53"/>
<polygon fill="midnightblue" stroke="midnightblue" points="1382.48,-385 1393.07,-384.97 1384.77,-378.39 1382.48,-385"/>
</g>
<!-- Node16&#45;&gt;Node22 -->
<g id="edge24" class="edge">
<title>Node16&#45;&gt;Node22</title>
<path fill="none" stroke="midnightblue" d="M1484.82,-381.24C1508.63,-371.76 1536.64,-358.78 1559.5,-343 1592,-320.55 1622.9,-286.33 1640.76,-264.84"/>
<polygon fill="midnightblue" stroke="midnightblue" points="1483.3,-378.07 1475.24,-384.95 1485.83,-384.6 1483.3,-378.07"/>
</g>
<!-- Node23 -->
<g id="node23" class="node">
<title>Node23</title>
<g id="a_node23"><a xlink:href="a00170.html" target="_top" xlink:title=" ">
<polygon fill="white" stroke="black" points="1649,-301.5 1649,-342.5 1808,-342.5 1808,-301.5 1649,-301.5"/>
<text text-anchor="start" x="1657" y="-330.5" font-family="Helvetica,sans-Serif" font-size="10.00">/home/runner/work/Raytracer</text>
<text text-anchor="start" x="1657" y="-319.5" font-family="Helvetica,sans-Serif" font-size="10.00">/Raytracer/src/Plugins/Filters</text>
<text text-anchor="middle" x="1728.5" y="-308.5" font-family="Helvetica,sans-Serif" font-size="10.00">/IFilterCreator.hpp</text>
</a>
</g>
</g>
<!-- Node16&#45;&gt;Node23 -->
<g id="edge28" class="edge">
<title>Node16&#45;&gt;Node23</title>
<path fill="none" stroke="midnightblue" d="M1497.72,-382.45C1543.31,-370.71 1604.69,-354.9 1652.69,-342.53"/>
<polygon fill="midnightblue" stroke="midnightblue" points="1496.76,-379.09 1487.95,-384.97 1498.51,-385.87 1496.76,-379.09"/>
</g>
<!-- Node24 -->
<g id="node24" class="node">
<title>Node24</title>
<g id="a_node24"><a xlink:href="a00227.html" target="_top" xlink:title=" ">
<polygon fill="white" stroke="black" points="1754.5,-223.5 1754.5,-264.5 1936.5,-264.5 1936.5,-223.5 1754.5,-223.5"/>
<text text-anchor="start" x="1762.5" y="-252.5" font-family="Helvetica,sans-Serif" font-size="10.00">/home/runner/work/Raytracer</text>
<text text-anchor="start" x="1762.5" y="-241.5" font-family="Helvetica,sans-Serif" font-size="10.00">/Raytracer/PluginsExt/AntiAliasing</text>
<text text-anchor="middle" x="1845.5" y="-230.5" font-family="Helvetica,sans-Serif" font-size="10.00">/SSAAx4/SSAAx4Creator.hpp</text>
</a>
</g>
</g>
<!-- Node16&#45;&gt;Node24 -->
<g id="edge31" class="edge">
<title>Node16&#45;&gt;Node24</title>
<path fill="none" stroke="midnightblue" d="M1508.77,-383.04C1516.43,-381.59 1524.11,-380.22 1531.5,-379 1594.48,-368.61 1767.85,-384.34 1816.5,-343 1839.35,-323.58 1844.67,-287.09 1845.64,-264.53"/>
<polygon fill="midnightblue" stroke="midnightblue" points="1507.89,-379.64 1498.74,-384.97 1509.22,-386.52 1507.89,-379.64"/>
</g>
<!-- Node16&#45;&gt;Node25 -->
<g id="edge32" class="edge">
<title>Node16&#45;&gt;Node25</title>
<path fill="none" stroke="midnightblue" d="M1508.12,-383.06C1516,-381.59 1523.9,-380.2 1531.5,-379 1671.98,-356.76 1708.87,-364.32 1849.5,-343 1853.99,-342.32 1858.59,-341.58 1863.23,-340.81"/>
<polygon fill="midnightblue" stroke="midnightblue" points="1507.35,-379.64 1498.19,-384.95 1508.67,-386.52 1507.35,-379.64"/>
</g>
<!-- Node17&#45;&gt;Node18 -->
<g id="edge19" class="edge">
<title>Node17&#45;&gt;Node18</title>
<path fill="none" stroke="midnightblue" d="M1533.64,-137.05C1526.9,-127.57 1519.52,-117.18 1513.36,-108.51"/>
<polygon fill="midnightblue" stroke="midnightblue" points="1530.95,-139.3 1539.59,-145.43 1536.65,-135.25 1530.95,-139.3"/>
</g>
<!-- Node19 -->
<g id="node19" class="node">
<title>Node19</title>
<g id="a_node19"><a xlink:href="a00212.html" target="_top" xlink:title=" ">
<polygon fill="white" stroke="black" points="675,-0.5 675,-30.5 882,-30.5 882,-0.5 675,-0.5"/>
<text text-anchor="start" x="683" y="-18.5" font-family="Helvetica,sans-Serif" font-size="10.00">/home/runner/work/Raytracer</text>
<text text-anchor="middle" x="778.5" y="-7.5" font-family="Helvetica,sans-Serif" font-size="10.00">/Raytracer/src/Scenes/SceneLoader.hpp</text>
</a>
</g>
</g>
<!-- Node18&#45;&gt;Node19 -->
<g id="edge20" class="edge">
<title>Node18&#45;&gt;Node19</title>
<path fill="none" stroke="midnightblue" d="M1409.69,-78.22C1275.62,-65.11 1023.77,-40.48 882.09,-26.63"/>
<polygon fill="midnightblue" stroke="midnightblue" points="1409.64,-81.73 1419.93,-79.22 1410.32,-74.76 1409.64,-81.73"/>
</g>
<!-- Node20&#45;&gt;Node17 -->
<g id="edge22" class="edge">
<title>Node20&#45;&gt;Node17</title>
<path fill="none" stroke="midnightblue" d="M1459.14,-293.36C1482.05,-262.68 1518.45,-213.94 1538.69,-186.83"/>
<polygon fill="midnightblue" stroke="midnightblue" points="1456.24,-291.39 1453.06,-301.5 1461.85,-295.58 1456.24,-291.39"/>
</g>
<!-- Node22&#45;&gt;Node17 -->
<g id="edge25" class="edge">
<title>Node22&#45;&gt;Node17</title>
<path fill="none" stroke="midnightblue" d="M1621.74,-217.35C1608.08,-207.27 1592.65,-195.89 1579.93,-186.51"/>
<polygon fill="midnightblue" stroke="midnightblue" points="1619.85,-220.31 1629.97,-223.43 1624,-214.67 1619.85,-220.31"/>
</g>
<!-- Node22&#45;&gt;Node18 -->
<g id="edge26" class="edge">
<title>Node22&#45;&gt;Node18</title>
<path fill="none" stroke="midnightblue" d="M1659.29,-213.38C1659.69,-192.17 1656.74,-164.1 1641.5,-145 1625.88,-125.43 1602.44,-112.67 1579.08,-104.37"/>
<polygon fill="midnightblue" stroke="midnightblue" points="1655.79,-213.32 1658.85,-223.46 1662.78,-213.62 1655.79,-213.32"/>
</g>
<!-- Node23&#45;&gt;Node22 -->
<g id="edge29" class="edge">
<title>Node23&#45;&gt;Node22</title>
<path fill="none" stroke="midnightblue" d="M1702.84,-293.92C1693.64,-284.2 1683.45,-273.45 1674.98,-264.51"/>
<polygon fill="midnightblue" stroke="midnightblue" points="1700.54,-296.58 1709.96,-301.43 1705.62,-291.76 1700.54,-296.58"/>
</g>
<!-- Node23&#45;&gt;Node24 -->
<g id="edge30" class="edge">
<title>Node23&#45;&gt;Node24</title>
<path fill="none" stroke="midnightblue" d="M1767.11,-295.92C1782.84,-285.7 1800.74,-274.07 1815.47,-264.51"/>
<polygon fill="midnightblue" stroke="midnightblue" points="1765.11,-293.05 1758.63,-301.43 1768.92,-298.92 1765.11,-293.05"/>
</g>
<!-- Node25&#45;&gt;Node24 -->
<g id="edge33" class="edge">
<title>Node25&#45;&gt;Node24</title>
<path fill="none" stroke="midnightblue" d="M1918.12,-295.64C1903.56,-285.49 1887.06,-273.98 1873.47,-264.51"/>
<polygon fill="midnightblue" stroke="midnightblue" points="1916.22,-298.58 1926.43,-301.43 1920.23,-292.84 1916.22,-298.58"/>
</g>
<!-- Node27 -->
<g id="node27" class="node">
<title>Node27</title>
<g id="a_node27"><a xlink:href="a00293.html" target="_top" xlink:title=" ">
<polygon fill="white" stroke="black" points="602.5,-379.5 602.5,-420.5 790.5,-420.5 790.5,-379.5 602.5,-379.5"/>
<text text-anchor="start" x="610.5" y="-408.5" font-family="Helvetica,sans-Serif" font-size="10.00">/home/runner/work/Raytracer</text>
<text text-anchor="start" x="610.5" y="-397.5" font-family="Helvetica,sans-Serif" font-size="10.00">/Raytracer/PluginsExt/LimitedPlane</text>
<text text-anchor="middle" x="696.5" y="-386.5" font-family="Helvetica,sans-Serif" font-size="10.00">/LimitedPlaneCreator.hpp</text>
</a>
</g>
</g>
<!-- Node26&#45;&gt;Node27 -->
<g id="edge43" class="edge">
<title>Node26&#45;&gt;Node27</title>
<path fill="none" stroke="midnightblue" d="M696.5,-447.3C696.5,-438.3 696.5,-428.65 696.5,-420.51"/>
<polygon fill="midnightblue" stroke="midnightblue" points="693,-447.43 696.5,-457.43 700,-447.43 693,-447.43"/>
</g>
<!-- Node28&#45;&gt;Node19 -->
<g id="edge46" class="edge">
<title>Node28&#45;&gt;Node19</title>
<path fill="none" stroke="midnightblue" d="M704.82,-66.93C721.82,-55.29 742.81,-40.92 758.04,-30.5"/>
<polygon fill="midnightblue" stroke="midnightblue" points="702.62,-64.2 696.34,-72.73 706.57,-69.97 702.62,-64.2"/>
</g>
<!-- Node30 -->
<g id="node30" class="node">
<title>Node30</title>
<g id="a_node30"><a xlink:href="a00221.html" target="_top" xlink:title=" ">
<polygon fill="white" stroke="black" points="2102,-457.5 2102,-498.5 2291,-498.5 2291,-457.5 2102,-457.5"/>
<text text-anchor="start" x="2110" y="-486.5" font-family="Helvetica,sans-Serif" font-size="10.00">/home/runner/work/Raytracer</text>
<text text-anchor="start" x="2110" y="-475.5" font-family="Helvetica,sans-Serif" font-size="10.00">/Raytracer/PluginsExt/AmbientLight</text>
<text text-anchor="middle" x="2196.5" y="-464.5" font-family="Helvetica,sans-Serif" font-size="10.00">/AmbientLightCreator.hpp</text>
</a>
</g>
</g>
<!-- Node29&#45;&gt;Node30 -->
<g id="edge48" class="edge">
<title>Node29&#45;&gt;Node30</title>
<path fill="none" stroke="midnightblue" d="M2196.5,-525.3C2196.5,-516.3 2196.5,-506.65 2196.5,-498.51"/>
<polygon fill="midnightblue" stroke="midnightblue" points="2193,-525.43 2196.5,-535.43 2200,-525.43 2193,-525.43"/>
</g>
<!-- Node32 -->
<g id="node32" class="node">
<title>Node32</title>
<g id="a_node32"><a xlink:href="a00311.html" target="_top" xlink:title=" ">
<polygon fill="white" stroke="black" points="2309,-457.5 2309,-498.5 2482,-498.5 2482,-457.5 2309,-457.5"/>
<text text-anchor="start" x="2317" y="-486.5" font-family="Helvetica,sans-Serif" font-size="10.00">/home/runner/work/Raytracer</text>
<text text-anchor="start" x="2317" y="-475.5" font-family="Helvetica,sans-Serif" font-size="10.00">/Raytracer/PluginsExt/PointLight</text>
<text text-anchor="middle" x="2395.5" y="-464.5" font-family="Helvetica,sans-Serif" font-size="10.00">/PointLightCreator.hpp</text>
</a>
</g>
</g>
<!-- Node31&#45;&gt;Node32 -->
<g id="edge50" class="edge">
<title>Node31&#45;&gt;Node32</title>
<path fill="none" stroke="midnightblue" d="M2395.5,-525.3C2395.5,-516.3 2395.5,-506.65 2395.5,-498.51"/>
<polygon fill="midnightblue" stroke="midnightblue" points="2392,-525.43 2395.5,-535.43 2399,-525.43 2392,-525.43"/>
</g>
<!-- Node34 -->
<g id="node34" class="node">
<title>Node34</title>
<g id="a_node34"><a xlink:href="a00323.html" target="_top" xlink:title=" ">
<polygon fill="white" stroke="black" points="2500.5,-457.5 2500.5,-498.5 2670.5,-498.5 2670.5,-457.5 2500.5,-457.5"/>
<text text-anchor="start" x="2508.5" y="-486.5" font-family="Helvetica,sans-Serif" font-size="10.00">/home/runner/work/Raytracer</text>
<text text-anchor="start" x="2508.5" y="-475.5" font-family="Helvetica,sans-Serif" font-size="10.00">/Raytracer/PluginsExt/SpotLight</text>
<text text-anchor="middle" x="2585.5" y="-464.5" font-family="Helvetica,sans-Serif" font-size="10.00">/SpotLightCreator.hpp</text>
</a>
</g>
</g>
<!-- Node33&#45;&gt;Node34 -->
<g id="edge52" class="edge">
<title>Node33&#45;&gt;Node34</title>
<path fill="none" stroke="midnightblue" d="M2585.5,-525.3C2585.5,-516.3 2585.5,-506.65 2585.5,-498.51"/>
<polygon fill="midnightblue" stroke="midnightblue" points="2582,-525.43 2585.5,-535.43 2589,-525.43 2582,-525.43"/>
</g>
</g>
</svg>
