<?xml version="1.0" encoding="UTF-8" standalone="no"?>
<!DOCTYPE svg PUBLIC "-//W3C//DTD SVG 1.1//EN"
 "http://www.w3.org/Graphics/SVG/1.1/DTD/svg11.dtd">
<!-- Generated by graphviz version 2.43.0 (0)
 -->
<!-- Title: /home/runner/work/Raytracer/Raytracer/src/Plugins/Materials/MaterialLoader.hpp Pages: 1 -->
<svg width="1241pt" height="498pt"
 viewBox="0.00 0.00 1241.00 498.00" xmlns="http://www.w3.org/2000/svg" xmlns:xlink="http://www.w3.org/1999/xlink">
<g id="graph0" class="graph" transform="scale(1 1) rotate(0) translate(4 494)">
<title>/home/runner/work/Raytracer/Raytracer/src/Plugins/Materials/MaterialLoader.hpp</title>
<polygon fill="white" stroke="transparent" points="-4,4 -4,-494 1237,-494 1237,4 -4,4"/>
<!-- Node1 -->
<g id="node1" class="node">
<title>Node1</title>
<g id="a_node1"><a xlink:title=" ">
<polygon fill="#bfbfbf" stroke="black" points="361.5,-448.5 361.5,-489.5 532.5,-489.5 532.5,-448.5 361.5,-448.5"/>
<text text-anchor="start" x="369.5" y="-477.5" font-family="Helvetica,sans-Serif" font-size="10.00">/home/runner/work/Raytracer</text>
<text text-anchor="start" x="369.5" y="-466.5" font-family="Helvetica,sans-Serif" font-size="10.00">/Raytracer/src/Plugins/Materials</text>
<text text-anchor="middle" x="447" y="-455.5" font-family="Helvetica,sans-Serif" font-size="10.00">/MaterialLoader.hpp</text>
</a>
</g>
</g>
<!-- Node2 -->
<g id="node2" class="node">
<title>Node2</title>
<g id="a_node2"><a xlink:title=" ">
<polygon fill="white" stroke="#bfbfbf" points="332,-168.5 332,-187.5 376,-187.5 376,-168.5 332,-168.5"/>
<text text-anchor="middle" x="354" y="-175.5" font-family="Helvetica,sans-Serif" font-size="10.00">string</text>
</a>
</g>
</g>
<!-- Node1&#45;&gt;Node2 -->
<g id="edge1" class="edge">
<title>Node1&#45;&gt;Node2</title>
<path fill="none" stroke="midnightblue" d="M408.3,-448.29C348.51,-415.38 235.9,-342.95 191,-244 167.16,-191.46 267.79,-181.08 321.78,-179.24"/>
<polygon fill="midnightblue" stroke="midnightblue" points="322,-182.74 331.91,-178.98 321.82,-175.74 322,-182.74"/>
</g>
<!-- Node3 -->
<g id="node3" class="node">
<title>Node3</title>
<g id="a_node3"><a xlink:href="a00113.html" target="_top" xlink:title=" ">
<polygon fill="white" stroke="black" points="267.5,-280.5 267.5,-299.5 344.5,-299.5 344.5,-280.5 267.5,-280.5"/>
<text text-anchor="middle" x="306" y="-287.5" font-family="Helvetica,sans-Serif" font-size="10.00">TFactory.hpp</text>
</a>
</g>
</g>
<!-- Node1&#45;&gt;Node3 -->
<g id="edge2" class="edge">
<title>Node1&#45;&gt;Node3</title>
<path fill="none" stroke="midnightblue" d="M431.37,-448.38C403.45,-413.33 345.48,-340.57 319.32,-307.72"/>
<polygon fill="midnightblue" stroke="midnightblue" points="321.81,-305.22 312.84,-299.58 316.33,-309.59 321.81,-305.22"/>
</g>
<!-- Node9 -->
<g id="node9" class="node">
<title>Node9</title>
<g id="a_node9"><a xlink:href="a00077.html" target="_top" xlink:title=" ">
<polygon fill="white" stroke="black" points="703.5,-224.5 703.5,-243.5 784.5,-243.5 784.5,-224.5 703.5,-224.5"/>
<text text-anchor="middle" x="744" y="-231.5" font-family="Helvetica,sans-Serif" font-size="10.00">IMaterial.hpp</text>
</a>
</g>
</g>
<!-- Node1&#45;&gt;Node9 -->
<g id="edge11" class="edge">
<title>Node1&#45;&gt;Node9</title>
<path fill="none" stroke="midnightblue" d="M532.55,-451.58C600.1,-435.52 694.28,-406.01 764,-356 795.72,-333.25 825.99,-314.64 808,-280 800.85,-266.23 787.33,-255.78 774.55,-248.44"/>
<polygon fill="midnightblue" stroke="midnightblue" points="775.96,-245.23 765.48,-243.64 772.68,-251.41 775.96,-245.23"/>
</g>
<!-- Node18 -->
<g id="node18" class="node">
<title>Node18</title>
<g id="a_node18"><a xlink:href="a00185.html" target="_top" xlink:title=" ">
<polygon fill="white" stroke="black" points="46,-336.5 46,-355.5 146,-355.5 146,-336.5 46,-336.5"/>
<text text-anchor="middle" x="96" y="-343.5" font-family="Helvetica,sans-Serif" font-size="10.00">PluginLoader.hpp</text>
</a>
</g>
</g>
<!-- Node1&#45;&gt;Node18 -->
<g id="edge26" class="edge">
<title>Node1&#45;&gt;Node18</title>
<path fill="none" stroke="midnightblue" d="M361.23,-464.55C301.72,-459.08 222.28,-445.45 160,-412 138.51,-400.46 119.71,-379.27 108.14,-364.23"/>
<polygon fill="midnightblue" stroke="midnightblue" points="110.67,-361.76 101.92,-355.8 105.04,-365.92 110.67,-361.76"/>
</g>
<!-- Node20 -->
<g id="node20" class="node">
<title>Node20</title>
<g id="a_node20"><a xlink:href="a00176.html" target="_top" xlink:title=" ">
<polygon fill="white" stroke="black" points="576,-336.5 576,-355.5 692,-355.5 692,-336.5 576,-336.5"/>
<text text-anchor="middle" x="634" y="-343.5" font-family="Helvetica,sans-Serif" font-size="10.00">MaterialHandler.hpp</text>
</a>
</g>
</g>
<!-- Node1&#45;&gt;Node20 -->
<g id="edge31" class="edge">
<title>Node1&#45;&gt;Node20</title>
<path fill="none" stroke="midnightblue" d="M512.32,-448.47C535.68,-439.6 561.31,-427.55 582,-412 599.44,-398.89 614.39,-378.65 623.72,-364.23"/>
<polygon fill="midnightblue" stroke="midnightblue" points="626.7,-366.08 629.02,-355.74 620.76,-362.38 626.7,-366.08"/>
</g>
<!-- Node25 -->
<g id="node25" class="node">
<title>Node25</title>
<g id="a_node25"><a xlink:href="a00110.html" target="_top" xlink:title=" ">
<polygon fill="white" stroke="black" points="461,-392.5 461,-411.5 573,-411.5 573,-392.5 461,-392.5"/>
<text text-anchor="middle" x="517" y="-399.5" font-family="Helvetica,sans-Serif" font-size="10.00">MaterialFactory.hpp</text>
</a>
</g>
</g>
<!-- Node1&#45;&gt;Node25 -->
<g id="edge50" class="edge">
<title>Node1&#45;&gt;Node25</title>
<path fill="none" stroke="midnightblue" d="M468,-448.5C478.32,-438.92 490.59,-427.53 500.26,-418.54"/>
<polygon fill="midnightblue" stroke="midnightblue" points="502.74,-421.02 507.68,-411.65 497.97,-415.89 502.74,-421.02"/>
</g>
<!-- Node3&#45;&gt;Node2 -->
<g id="edge3" class="edge">
<title>Node3&#45;&gt;Node2</title>
<path fill="none" stroke="midnightblue" d="M309.77,-280.37C317.58,-262.46 335.71,-220.92 346.17,-196.95"/>
<polygon fill="midnightblue" stroke="midnightblue" points="349.46,-198.16 350.25,-187.59 343.04,-195.36 349.46,-198.16"/>
</g>
<!-- Node4 -->
<g id="node4" class="node">
<title>Node4</title>
<g id="a_node4"><a xlink:title=" ">
<polygon fill="white" stroke="#bfbfbf" points="432,-0.5 432,-19.5 490,-19.5 490,-0.5 432,-0.5"/>
<text text-anchor="middle" x="461" y="-7.5" font-family="Helvetica,sans-Serif" font-size="10.00">memory</text>
</a>
</g>
</g>
<!-- Node3&#45;&gt;Node4 -->
<g id="edge4" class="edge">
<title>Node3&#45;&gt;Node4</title>
<path fill="none" stroke="midnightblue" d="M300.44,-280.27C289.45,-262.15 266,-218.83 266,-179 266,-179 266,-179 266,-121 266,-50.2 364.73,-24.46 421.69,-15.5"/>
<polygon fill="midnightblue" stroke="midnightblue" points="422.42,-18.93 431.81,-14.02 421.4,-12.01 422.42,-18.93"/>
</g>
<!-- Node5 -->
<g id="node5" class="node">
<title>Node5</title>
<g id="a_node5"><a xlink:title=" ">
<polygon fill="white" stroke="#bfbfbf" points="200,-224.5 200,-243.5 238,-243.5 238,-224.5 200,-224.5"/>
<text text-anchor="middle" x="219" y="-231.5" font-family="Helvetica,sans-Serif" font-size="10.00">map</text>
</a>
</g>
</g>
<!-- Node3&#45;&gt;Node5 -->
<g id="edge5" class="edge">
<title>Node3&#45;&gt;Node5</title>
<path fill="none" stroke="midnightblue" d="M292.02,-280.32C278.45,-271.9 257.62,-258.97 241.68,-249.07"/>
<polygon fill="midnightblue" stroke="midnightblue" points="243.29,-245.95 232.94,-243.65 239.59,-251.9 243.29,-245.95"/>
</g>
<!-- Node6 -->
<g id="node6" class="node">
<title>Node6</title>
<g id="a_node6"><a xlink:href="a00119.html" target="_top" xlink:title=" ">
<polygon fill="white" stroke="black" points="522.5,-224.5 522.5,-243.5 595.5,-243.5 595.5,-224.5 522.5,-224.5"/>
<text text-anchor="middle" x="559" y="-231.5" font-family="Helvetica,sans-Serif" font-size="10.00">ILogger.hpp</text>
</a>
</g>
</g>
<!-- Node3&#45;&gt;Node6 -->
<g id="edge6" class="edge">
<title>Node3&#45;&gt;Node6</title>
<path fill="none" stroke="midnightblue" d="M344.7,-280.74C389.8,-271.11 464.29,-255.22 512.49,-244.93"/>
<polygon fill="midnightblue" stroke="midnightblue" points="513.31,-248.33 522.36,-242.82 511.85,-241.49 513.31,-248.33"/>
</g>
<!-- Node7 -->
<g id="node7" class="node">
<title>Node7</title>
<g id="a_node7"><a xlink:href="a00206.html" target="_top" xlink:title=" ">
<polygon fill="white" stroke="black" points="662.5,-56.5 662.5,-75.5 737.5,-75.5 737.5,-56.5 662.5,-56.5"/>
<text text-anchor="middle" x="700" y="-63.5" font-family="Helvetica,sans-Serif" font-size="10.00">ISetting.hpp</text>
</a>
</g>
</g>
<!-- Node3&#45;&gt;Node7 -->
<g id="edge8" class="edge">
<title>Node3&#45;&gt;Node7</title>
<path fill="none" stroke="midnightblue" d="M304.16,-280.49C299.92,-258.42 292.1,-198.9 323,-168 363.62,-127.38 524.76,-150.93 579,-132 595.55,-126.22 597.65,-120.47 613,-112 633.22,-100.83 656.48,-88.85 673.86,-80.05"/>
<polygon fill="midnightblue" stroke="midnightblue" points="675.49,-83.15 682.85,-75.52 672.35,-76.9 675.49,-83.15"/>
</g>
<!-- Node6&#45;&gt;Node2 -->
<g id="edge7" class="edge">
<title>Node6&#45;&gt;Node2</title>
<path fill="none" stroke="midnightblue" d="M526.52,-224.44C488.13,-214.33 424.64,-197.61 386.32,-187.51"/>
<polygon fill="midnightblue" stroke="midnightblue" points="386.78,-184.02 376.22,-184.85 385,-190.79 386.78,-184.02"/>
</g>
<!-- Node7&#45;&gt;Node4 -->
<g id="edge9" class="edge">
<title>Node7&#45;&gt;Node4</title>
<path fill="none" stroke="midnightblue" d="M662.39,-56.5C618.12,-46.5 544.96,-29.97 500.07,-19.83"/>
<polygon fill="midnightblue" stroke="midnightblue" points="500.64,-16.37 490.12,-17.58 499.1,-23.2 500.64,-16.37"/>
</g>
<!-- Node8 -->
<g id="node8" class="node">
<title>Node8</title>
<g id="a_node8"><a xlink:title=" ">
<polygon fill="white" stroke="#bfbfbf" points="658.5,-0.5 658.5,-19.5 741.5,-19.5 741.5,-0.5 658.5,-0.5"/>
<text text-anchor="middle" x="700" y="-7.5" font-family="Helvetica,sans-Serif" font-size="10.00">libconfig.h++</text>
</a>
</g>
</g>
<!-- Node7&#45;&gt;Node8 -->
<g id="edge10" class="edge">
<title>Node7&#45;&gt;Node8</title>
<path fill="none" stroke="midnightblue" d="M700,-56.08C700,-49.01 700,-38.86 700,-29.99"/>
<polygon fill="midnightblue" stroke="midnightblue" points="703.5,-29.75 700,-19.75 696.5,-29.75 703.5,-29.75"/>
</g>
<!-- Node10 -->
<g id="node10" class="node">
<title>Node10</title>
<g id="a_node10"><a xlink:href="a00137.html" target="_top" xlink:title=" ">
<polygon fill="white" stroke="black" points="729.5,-168.5 729.5,-187.5 784.5,-187.5 784.5,-168.5 729.5,-168.5"/>
<text text-anchor="middle" x="757" y="-175.5" font-family="Helvetica,sans-Serif" font-size="10.00">Ray.hpp</text>
</a>
</g>
</g>
<!-- Node9&#45;&gt;Node10 -->
<g id="edge12" class="edge">
<title>Node9&#45;&gt;Node10</title>
<path fill="none" stroke="midnightblue" d="M746.15,-224.08C747.87,-216.93 750.35,-206.64 752.5,-197.69"/>
<polygon fill="midnightblue" stroke="midnightblue" points="755.96,-198.29 754.89,-187.75 749.15,-196.65 755.96,-198.29"/>
</g>
<!-- Node11 -->
<g id="node11" class="node">
<title>Node11</title>
<g id="a_node11"><a xlink:href="a00092.html" target="_top" xlink:title=" ">
<polygon fill="white" stroke="black" points="664.5,-112.5 664.5,-131.5 741.5,-131.5 741.5,-112.5 664.5,-112.5"/>
<text text-anchor="middle" x="703" y="-119.5" font-family="Helvetica,sans-Serif" font-size="10.00">Vector3f.hpp</text>
</a>
</g>
</g>
<!-- Node9&#45;&gt;Node11 -->
<g id="edge25" class="edge">
<title>Node9&#45;&gt;Node11</title>
<path fill="none" stroke="midnightblue" d="M703.94,-224.48C669.84,-216.31 624.7,-203.03 614,-188 597.23,-164.44 631.28,-146.04 661.99,-134.93"/>
<polygon fill="midnightblue" stroke="midnightblue" points="663.45,-138.13 671.78,-131.57 661.19,-131.5 663.45,-138.13"/>
</g>
<!-- Node13 -->
<g id="node13" class="node">
<title>Node13</title>
<g id="a_node13"><a xlink:href="a00122.html" target="_top" xlink:title=" ">
<polygon fill="white" stroke="black" points="508,-112.5 508,-131.5 570,-131.5 570,-112.5 508,-112.5"/>
<text text-anchor="middle" x="539" y="-119.5" font-family="Helvetica,sans-Serif" font-size="10.00">Color.hpp</text>
</a>
</g>
</g>
<!-- Node9&#45;&gt;Node13 -->
<g id="edge16" class="edge">
<title>Node9&#45;&gt;Node13</title>
<path fill="none" stroke="midnightblue" d="M703.25,-225.08C674.36,-218.24 635.47,-206.49 605,-188 583.85,-175.17 564.29,-154.29 552.04,-139.67"/>
<polygon fill="midnightblue" stroke="midnightblue" points="554.75,-137.44 545.72,-131.89 549.31,-141.86 554.75,-137.44"/>
</g>
<!-- Node15 -->
<g id="node15" class="node">
<title>Node15</title>
<g id="a_node15"><a xlink:href="a00200.html" target="_top" xlink:title=" ">
<polygon fill="white" stroke="black" points="803,-168.5 803,-187.5 901,-187.5 901,-168.5 803,-168.5"/>
<text text-anchor="middle" x="852" y="-175.5" font-family="Helvetica,sans-Serif" font-size="10.00">IDisplayable.hpp</text>
</a>
</g>
</g>
<!-- Node9&#45;&gt;Node15 -->
<g id="edge20" class="edge">
<title>Node9&#45;&gt;Node15</title>
<path fill="none" stroke="midnightblue" d="M761.35,-224.32C778.67,-215.66 805.52,-202.24 825.5,-192.25"/>
<polygon fill="midnightblue" stroke="midnightblue" points="827.31,-195.26 834.69,-187.65 824.18,-189 827.31,-195.26"/>
</g>
<!-- Node17 -->
<g id="node17" class="node">
<title>Node17</title>
<g id="a_node17"><a xlink:href="a00083.html" target="_top" xlink:title=" ">
<polygon fill="white" stroke="black" points="622.5,-168.5 622.5,-187.5 711.5,-187.5 711.5,-168.5 622.5,-168.5"/>
<text text-anchor="middle" x="667" y="-175.5" font-family="Helvetica,sans-Serif" font-size="10.00">ITransform.hpp</text>
</a>
</g>
</g>
<!-- Node9&#45;&gt;Node17 -->
<g id="edge23" class="edge">
<title>Node9&#45;&gt;Node17</title>
<path fill="none" stroke="midnightblue" d="M731.63,-224.32C719.84,-216.06 701.87,-203.45 687.86,-193.63"/>
<polygon fill="midnightblue" stroke="midnightblue" points="689.54,-190.53 679.34,-187.65 685.52,-196.26 689.54,-190.53"/>
</g>
<!-- Node10&#45;&gt;Node11 -->
<g id="edge13" class="edge">
<title>Node10&#45;&gt;Node11</title>
<path fill="none" stroke="midnightblue" d="M748.08,-168.08C740.22,-160.22 728.57,-148.57 719.08,-139.08"/>
<polygon fill="midnightblue" stroke="midnightblue" points="721.3,-136.35 711.75,-131.75 716.35,-141.3 721.3,-136.35"/>
</g>
<!-- Node11&#45;&gt;Node7 -->
<g id="edge15" class="edge">
<title>Node11&#45;&gt;Node7</title>
<path fill="none" stroke="midnightblue" d="M702.5,-112.08C702.11,-105.01 701.55,-94.86 701.05,-85.99"/>
<polygon fill="midnightblue" stroke="midnightblue" points="704.54,-85.54 700.49,-75.75 697.55,-85.93 704.54,-85.54"/>
</g>
<!-- Node12 -->
<g id="node12" class="node">
<title>Node12</title>
<g id="a_node12"><a xlink:title=" ">
<polygon fill="white" stroke="#bfbfbf" points="585.5,-56.5 585.5,-75.5 642.5,-75.5 642.5,-56.5 585.5,-56.5"/>
<text text-anchor="middle" x="614" y="-63.5" font-family="Helvetica,sans-Serif" font-size="10.00">ostream</text>
</a>
</g>
</g>
<!-- Node11&#45;&gt;Node12 -->
<g id="edge14" class="edge">
<title>Node11&#45;&gt;Node12</title>
<path fill="none" stroke="midnightblue" d="M688.7,-112.32C674.82,-103.9 653.51,-90.97 637.2,-81.07"/>
<polygon fill="midnightblue" stroke="midnightblue" points="638.63,-77.85 628.26,-75.65 635,-83.83 638.63,-77.85"/>
</g>
<!-- Node13&#45;&gt;Node7 -->
<g id="edge19" class="edge">
<title>Node13&#45;&gt;Node7</title>
<path fill="none" stroke="midnightblue" d="M564.51,-112.44C591.6,-103.36 634.59,-88.94 664.87,-78.78"/>
<polygon fill="midnightblue" stroke="midnightblue" points="666.24,-82.01 674.61,-75.52 664.01,-75.38 666.24,-82.01"/>
</g>
<!-- Node13&#45;&gt;Node12 -->
<g id="edge18" class="edge">
<title>Node13&#45;&gt;Node12</title>
<path fill="none" stroke="midnightblue" d="M551.05,-112.32C562.46,-104.11 579.83,-91.6 593.43,-81.81"/>
<polygon fill="midnightblue" stroke="midnightblue" points="595.66,-84.52 601.73,-75.83 591.57,-78.84 595.66,-84.52"/>
</g>
<!-- Node14 -->
<g id="node14" class="node">
<title>Node14</title>
<g id="a_node14"><a xlink:title=" ">
<polygon fill="white" stroke="#bfbfbf" points="515,-56.5 515,-75.5 563,-75.5 563,-56.5 515,-56.5"/>
<text text-anchor="middle" x="539" y="-63.5" font-family="Helvetica,sans-Serif" font-size="10.00">mutex</text>
</a>
</g>
</g>
<!-- Node13&#45;&gt;Node14 -->
<g id="edge17" class="edge">
<title>Node13&#45;&gt;Node14</title>
<path fill="none" stroke="midnightblue" d="M539,-112.08C539,-105.01 539,-94.86 539,-85.99"/>
<polygon fill="midnightblue" stroke="midnightblue" points="542.5,-85.75 539,-75.75 535.5,-85.75 542.5,-85.75"/>
</g>
<!-- Node15&#45;&gt;Node4 -->
<g id="edge21" class="edge">
<title>Node15&#45;&gt;Node4</title>
<path fill="none" stroke="midnightblue" d="M847.47,-168.47C834.93,-145.8 797.36,-83.91 747,-56 705.37,-32.93 568.83,-19.37 500.58,-13.87"/>
<polygon fill="midnightblue" stroke="midnightblue" points="500.48,-10.35 490.24,-13.06 499.93,-17.33 500.48,-10.35"/>
</g>
<!-- Node16 -->
<g id="node16" class="node">
<title>Node16</title>
<g id="a_node16"><a xlink:title=" ">
<polygon fill="white" stroke="#bfbfbf" points="840.5,-112.5 840.5,-131.5 887.5,-131.5 887.5,-112.5 840.5,-112.5"/>
<text text-anchor="middle" x="864" y="-119.5" font-family="Helvetica,sans-Serif" font-size="10.00">vector</text>
</a>
</g>
</g>
<!-- Node15&#45;&gt;Node16 -->
<g id="edge22" class="edge">
<title>Node15&#45;&gt;Node16</title>
<path fill="none" stroke="midnightblue" d="M853.98,-168.08C855.57,-160.93 857.86,-150.64 859.85,-141.69"/>
<polygon fill="midnightblue" stroke="midnightblue" points="863.3,-142.27 862.06,-131.75 856.47,-140.75 863.3,-142.27"/>
</g>
<!-- Node17&#45;&gt;Node11 -->
<g id="edge24" class="edge">
<title>Node17&#45;&gt;Node11</title>
<path fill="none" stroke="midnightblue" d="M672.94,-168.08C677.98,-160.53 685.34,-149.49 691.51,-140.23"/>
<polygon fill="midnightblue" stroke="midnightblue" points="694.53,-142.01 697.17,-131.75 688.71,-138.13 694.53,-142.01"/>
</g>
<!-- Node18&#45;&gt;Node2 -->
<g id="edge27" class="edge">
<title>Node18&#45;&gt;Node2</title>
<path fill="none" stroke="midnightblue" d="M99.39,-336.16C109.25,-310.89 138.44,-239.22 158,-224 206.03,-186.61 279.53,-179.28 321.54,-178.4"/>
<polygon fill="midnightblue" stroke="midnightblue" points="321.8,-181.9 331.76,-178.3 321.73,-174.9 321.8,-181.9"/>
</g>
<!-- Node18&#45;&gt;Node3 -->
<g id="edge28" class="edge">
<title>Node18&#45;&gt;Node3</title>
<path fill="none" stroke="midnightblue" d="M129.28,-336.44C165.45,-327.14 223.38,-312.25 262.98,-302.06"/>
<polygon fill="midnightblue" stroke="midnightblue" points="264.07,-305.4 272.88,-299.52 262.32,-298.62 264.07,-305.4"/>
</g>
<!-- Node18&#45;&gt;Node4 -->
<g id="edge30" class="edge">
<title>Node18&#45;&gt;Node4</title>
<path fill="none" stroke="midnightblue" d="M96,-336.44C96,-317.94 96,-272.81 96,-235 96,-235 96,-235 96,-121 96,-53.54 327.46,-23.77 421.74,-14.44"/>
<polygon fill="midnightblue" stroke="midnightblue" points="422.13,-17.91 431.75,-13.47 421.46,-10.95 422.13,-17.91"/>
</g>
<!-- Node19 -->
<g id="node19" class="node">
<title>Node19</title>
<g id="a_node19"><a xlink:title=" ">
<polygon fill="white" stroke="#bfbfbf" points="0,-280.5 0,-299.5 68,-299.5 68,-280.5 0,-280.5"/>
<text text-anchor="middle" x="34" y="-287.5" font-family="Helvetica,sans-Serif" font-size="10.00">filesystem</text>
</a>
</g>
</g>
<!-- Node18&#45;&gt;Node19 -->
<g id="edge29" class="edge">
<title>Node18&#45;&gt;Node19</title>
<path fill="none" stroke="midnightblue" d="M86.04,-336.32C76.87,-328.34 63.06,-316.31 51.97,-306.65"/>
<polygon fill="midnightblue" stroke="midnightblue" points="53.98,-303.76 44.14,-299.83 49.38,-309.04 53.98,-303.76"/>
</g>
<!-- Node20&#45;&gt;Node2 -->
<g id="edge33" class="edge">
<title>Node20&#45;&gt;Node2</title>
<path fill="none" stroke="midnightblue" d="M575.96,-340.65C514.38,-334.91 422.39,-322.76 396,-300 365.65,-273.82 357.22,-224.52 354.88,-197.64"/>
<polygon fill="midnightblue" stroke="midnightblue" points="358.37,-197.36 354.21,-187.62 351.39,-197.83 358.37,-197.36"/>
</g>
<!-- Node20&#45;&gt;Node4 -->
<g id="edge32" class="edge">
<title>Node20&#45;&gt;Node4</title>
<path fill="none" stroke="midnightblue" d="M634.32,-336.29C634.66,-314.77 632.68,-258.29 605,-224 581.77,-195.23 559.21,-210.67 530,-188 504.33,-168.08 498.94,-160.32 483,-132 470.11,-109.1 468.88,-101.83 464,-76 461.08,-60.55 460.45,-42.68 460.48,-29.59"/>
<polygon fill="midnightblue" stroke="midnightblue" points="463.98,-29.56 460.64,-19.5 456.98,-29.45 463.98,-29.56"/>
</g>
<!-- Node20&#45;&gt;Node6 -->
<g id="edge40" class="edge">
<title>Node20&#45;&gt;Node6</title>
<path fill="none" stroke="midnightblue" d="M628.11,-336.37C615.74,-318.22 586.82,-275.8 570.58,-251.99"/>
<polygon fill="midnightblue" stroke="midnightblue" points="573.38,-249.88 564.86,-243.59 567.6,-253.83 573.38,-249.88"/>
</g>
<!-- Node20&#45;&gt;Node7 -->
<g id="edge49" class="edge">
<title>Node20&#45;&gt;Node7</title>
<path fill="none" stroke="midnightblue" d="M692.24,-342.65C772.96,-338.5 923.03,-327.53 1048,-300 1133.11,-281.25 1233,-322.15 1233,-235 1233,-235 1233,-235 1233,-177 1233,-78.45 879.1,-67.47 748.05,-66.78"/>
<polygon fill="midnightblue" stroke="midnightblue" points="747.92,-63.28 737.9,-66.75 747.89,-70.28 747.92,-63.28"/>
</g>
<!-- Node20&#45;&gt;Node9 -->
<g id="edge34" class="edge">
<title>Node20&#45;&gt;Node9</title>
<path fill="none" stroke="midnightblue" d="M692.17,-342.43C722.66,-337.76 757.6,-326.44 777,-300 788.26,-284.65 774.89,-264.89 761.94,-251.2"/>
<polygon fill="midnightblue" stroke="midnightblue" points="764.14,-248.45 754.56,-243.93 759.23,-253.44 764.14,-248.45"/>
</g>
<!-- Node21 -->
<g id="node21" class="node">
<title>Node21</title>
<g id="a_node21"><a xlink:href="a00173.html" target="_top" xlink:title=" ">
<polygon fill="white" stroke="black" points="652,-280.5 652,-299.5 768,-299.5 768,-280.5 652,-280.5"/>
<text text-anchor="middle" x="710" y="-287.5" font-family="Helvetica,sans-Serif" font-size="10.00">IMaterialCreator.hpp</text>
</a>
</g>
</g>
<!-- Node20&#45;&gt;Node21 -->
<g id="edge35" class="edge">
<title>Node20&#45;&gt;Node21</title>
<path fill="none" stroke="midnightblue" d="M646.21,-336.32C657.78,-328.11 675.38,-315.6 689.16,-305.81"/>
<polygon fill="midnightblue" stroke="midnightblue" points="691.44,-308.48 697.57,-299.83 687.39,-302.77 691.44,-308.48"/>
</g>
<!-- Node22 -->
<g id="node22" class="node">
<title>Node22</title>
<g id="a_node22"><a xlink:href="a00182.html" target="_top" xlink:title=" ">
<polygon fill="white" stroke="black" points="933.5,-280.5 933.5,-299.5 1038.5,-299.5 1038.5,-280.5 933.5,-280.5"/>
<text text-anchor="middle" x="986" y="-287.5" font-family="Helvetica,sans-Serif" font-size="10.00">PluginHandler.hpp</text>
</a>
</g>
</g>
<!-- Node20&#45;&gt;Node22 -->
<g id="edge41" class="edge">
<title>Node20&#45;&gt;Node22</title>
<path fill="none" stroke="midnightblue" d="M689.78,-336.44C753.39,-326.68 857.15,-310.77 923.45,-300.6"/>
<polygon fill="midnightblue" stroke="midnightblue" points="924.01,-304.05 933.36,-299.08 922.94,-297.13 924.01,-304.05"/>
</g>
<!-- Node21&#45;&gt;Node4 -->
<g id="edge36" class="edge">
<title>Node21&#45;&gt;Node4</title>
<path fill="none" stroke="midnightblue" d="M701.64,-280.37C688.71,-267.3 662.76,-242.06 638,-224 578.15,-180.34 542.23,-192.16 499,-132 476.38,-100.52 466.9,-55.12 463.19,-29.83"/>
<polygon fill="midnightblue" stroke="midnightblue" points="466.63,-29.2 461.86,-19.74 459.69,-30.12 466.63,-29.2"/>
</g>
<!-- Node21&#45;&gt;Node6 -->
<g id="edge38" class="edge">
<title>Node21&#45;&gt;Node6</title>
<path fill="none" stroke="midnightblue" d="M686.07,-280.44C660.78,-271.4 620.7,-257.06 592.32,-246.92"/>
<polygon fill="midnightblue" stroke="midnightblue" points="593.41,-243.59 582.81,-243.52 591.05,-250.18 593.41,-243.59"/>
</g>
<!-- Node21&#45;&gt;Node7 -->
<g id="edge39" class="edge">
<title>Node21&#45;&gt;Node7</title>
<path fill="none" stroke="midnightblue" d="M755.53,-280.4C803.45,-268.66 876.47,-242.5 910,-188 914.66,-180.43 911.01,-176.83 910,-168 907.09,-142.62 915.1,-130.04 897,-112 876.31,-91.38 799.18,-78.55 747.79,-72.09"/>
<polygon fill="midnightblue" stroke="midnightblue" points="747.91,-68.58 737.56,-70.85 747.07,-75.53 747.91,-68.58"/>
</g>
<!-- Node21&#45;&gt;Node9 -->
<g id="edge37" class="edge">
<title>Node21&#45;&gt;Node9</title>
<path fill="none" stroke="midnightblue" d="M715.61,-280.08C720.37,-272.53 727.32,-261.49 733.15,-252.23"/>
<polygon fill="midnightblue" stroke="midnightblue" points="736.12,-254.08 738.49,-243.75 730.2,-250.35 736.12,-254.08"/>
</g>
<!-- Node22&#45;&gt;Node2 -->
<g id="edge42" class="edge">
<title>Node22&#45;&gt;Node2</title>
<path fill="none" stroke="midnightblue" d="M965.69,-280.43C931.11,-266.22 858.3,-237.99 794,-224 644.12,-191.4 460.26,-182.28 386.69,-179.84"/>
<polygon fill="midnightblue" stroke="midnightblue" points="386.36,-176.33 376.25,-179.52 386.14,-183.33 386.36,-176.33"/>
</g>
<!-- Node22&#45;&gt;Node4 -->
<g id="edge43" class="edge">
<title>Node22&#45;&gt;Node4</title>
<path fill="none" stroke="midnightblue" d="M994.17,-280.38C1009.93,-262.81 1043,-220.94 1043,-179 1043,-179 1043,-179 1043,-121 1043,-65.62 630.9,-25.55 500.24,-14.24"/>
<polygon fill="midnightblue" stroke="midnightblue" points="500.52,-10.75 490.26,-13.39 499.92,-17.73 500.52,-10.75"/>
</g>
<!-- Node22&#45;&gt;Node6 -->
<g id="edge47" class="edge">
<title>Node22&#45;&gt;Node6</title>
<path fill="none" stroke="midnightblue" d="M933.21,-282.32C849.18,-271.7 686.31,-251.1 606.05,-240.95"/>
<polygon fill="midnightblue" stroke="midnightblue" points="606.11,-237.43 595.75,-239.65 605.23,-244.37 606.11,-237.43"/>
</g>
<!-- Node22&#45;&gt;Node7 -->
<g id="edge48" class="edge">
<title>Node22&#45;&gt;Node7</title>
<path fill="none" stroke="midnightblue" d="M985.48,-280.22C983.25,-250.92 971.82,-155.96 916,-112 890.36,-91.81 803.16,-78.56 747.71,-71.96"/>
<polygon fill="midnightblue" stroke="midnightblue" points="748.08,-68.48 737.74,-70.8 747.27,-75.43 748.08,-68.48"/>
</g>
<!-- Node22&#45;&gt;Node16 -->
<g id="edge45" class="edge">
<title>Node22&#45;&gt;Node16</title>
<path fill="none" stroke="midnightblue" d="M981.48,-280.33C970.59,-259.79 941.45,-207.01 910,-168 901.52,-157.48 890.78,-146.85 881.81,-138.57"/>
<polygon fill="midnightblue" stroke="midnightblue" points="883.96,-135.79 874.19,-131.69 879.27,-140.99 883.96,-135.79"/>
</g>
<!-- Node23 -->
<g id="node23" class="node">
<title>Node23</title>
<g id="a_node23"><a xlink:title=" ">
<polygon fill="white" stroke="#bfbfbf" points="1071,-224.5 1071,-243.5 1121,-243.5 1121,-224.5 1071,-224.5"/>
<text text-anchor="middle" x="1096" y="-231.5" font-family="Helvetica,sans-Serif" font-size="10.00">dlfcn.h</text>
</a>
</g>
</g>
<!-- Node22&#45;&gt;Node23 -->
<g id="edge44" class="edge">
<title>Node22&#45;&gt;Node23</title>
<path fill="none" stroke="midnightblue" d="M1003.67,-280.32C1021.39,-271.62 1048.9,-258.12 1069.29,-248.11"/>
<polygon fill="midnightblue" stroke="midnightblue" points="1070.94,-251.2 1078.37,-243.65 1067.85,-244.92 1070.94,-251.2"/>
</g>
<!-- Node24 -->
<g id="node24" class="node">
<title>Node24</title>
<g id="a_node24"><a xlink:title=" ">
<polygon fill="white" stroke="#bfbfbf" points="1139.5,-224.5 1139.5,-243.5 1204.5,-243.5 1204.5,-224.5 1139.5,-224.5"/>
<text text-anchor="middle" x="1172" y="-231.5" font-family="Helvetica,sans-Serif" font-size="10.00">functional</text>
</a>
</g>
</g>
<!-- Node22&#45;&gt;Node24 -->
<g id="edge46" class="edge">
<title>Node22&#45;&gt;Node24</title>
<path fill="none" stroke="midnightblue" d="M1015.47,-280.44C1047.17,-271.24 1097.73,-256.56 1132.77,-246.39"/>
<polygon fill="midnightblue" stroke="midnightblue" points="1134.04,-249.67 1142.67,-243.52 1132.09,-242.94 1134.04,-249.67"/>
</g>
<!-- Node25&#45;&gt;Node3 -->
<g id="edge58" class="edge">
<title>Node25&#45;&gt;Node3</title>
<path fill="none" stroke="midnightblue" d="M500.44,-392.37C463.7,-373.21 375.12,-327.04 331.35,-304.22"/>
<polygon fill="midnightblue" stroke="midnightblue" points="332.97,-301.11 322.48,-299.59 329.73,-307.32 332.97,-301.11"/>
</g>
<!-- Node25&#45;&gt;Node6 -->
<g id="edge57" class="edge">
<title>Node25&#45;&gt;Node6</title>
<path fill="none" stroke="midnightblue" d="M519.26,-392.08C525.87,-365.95 545.28,-289.21 554.3,-253.58"/>
<polygon fill="midnightblue" stroke="midnightblue" points="557.77,-254.12 556.83,-243.57 550.99,-252.4 557.77,-254.12"/>
</g>
<!-- Node25&#45;&gt;Node9 -->
<g id="edge60" class="edge">
<title>Node25&#45;&gt;Node9</title>
<path fill="none" stroke="midnightblue" d="M573.05,-400.21C640.51,-395.74 750.07,-376.4 793,-300 803.44,-281.43 784.6,-262.2 767.34,-249.51"/>
<polygon fill="midnightblue" stroke="midnightblue" points="768.84,-246.3 758.62,-243.52 764.88,-252.07 768.84,-246.3"/>
</g>
<!-- Node25&#45;&gt;Node20 -->
<g id="edge59" class="edge">
<title>Node25&#45;&gt;Node20</title>
<path fill="none" stroke="midnightblue" d="M535.54,-392.44C554.62,-383.64 584.57,-369.81 606.44,-359.72"/>
<polygon fill="midnightblue" stroke="midnightblue" points="607.93,-362.88 615.55,-355.52 605,-356.53 607.93,-362.88"/>
</g>
<!-- Node26 -->
<g id="node26" class="node">
<title>Node26</title>
<g id="a_node26"><a xlink:href="a00107.html" target="_top" xlink:title=" ">
<polygon fill="white" stroke="black" points="404.5,-280.5 404.5,-299.5 519.5,-299.5 519.5,-280.5 404.5,-280.5"/>
<text text-anchor="middle" x="462" y="-287.5" font-family="Helvetica,sans-Serif" font-size="10.00">IMaterialFactory.hpp</text>
</a>
</g>
</g>
<!-- Node25&#45;&gt;Node26 -->
<g id="edge51" class="edge">
<title>Node25&#45;&gt;Node26</title>
<path fill="none" stroke="midnightblue" d="M512.68,-392.37C503.69,-374.38 482.78,-332.55 470.81,-308.63"/>
<polygon fill="midnightblue" stroke="midnightblue" points="473.9,-306.97 466.3,-299.59 467.64,-310.1 473.9,-306.97"/>
</g>
<!-- Node26&#45;&gt;Node2 -->
<g id="edge52" class="edge">
<title>Node26&#45;&gt;Node2</title>
<path fill="none" stroke="midnightblue" d="M453.53,-280.37C435.39,-261.89 392.58,-218.29 369.46,-194.74"/>
<polygon fill="midnightblue" stroke="midnightblue" points="371.94,-192.28 362.44,-187.59 366.94,-197.18 371.94,-192.28"/>
</g>
<!-- Node26&#45;&gt;Node4 -->
<g id="edge53" class="edge">
<title>Node26&#45;&gt;Node4</title>
<path fill="none" stroke="midnightblue" d="M458,-280.33C450.34,-263.16 433.8,-223.42 428,-188 418.52,-130.1 409.75,-111.76 428,-56 431.49,-45.34 438.57,-35.12 445.29,-27.12"/>
<polygon fill="midnightblue" stroke="midnightblue" points="447.9,-29.44 451.98,-19.66 442.7,-24.76 447.9,-29.44"/>
</g>
<!-- Node26&#45;&gt;Node6 -->
<g id="edge54" class="edge">
<title>Node26&#45;&gt;Node6</title>
<path fill="none" stroke="midnightblue" d="M477.58,-280.32C493,-271.74 516.81,-258.49 534.71,-248.52"/>
<polygon fill="midnightblue" stroke="midnightblue" points="536.42,-251.58 543.45,-243.65 533.01,-245.46 536.42,-251.58"/>
</g>
<!-- Node26&#45;&gt;Node7 -->
<g id="edge56" class="edge">
<title>Node26&#45;&gt;Node7</title>
<path fill="none" stroke="midnightblue" d="M468.23,-280.14C477.52,-267.2 495.85,-242.63 514,-224 569.72,-166.79 644.54,-108.49 679.89,-81.88"/>
<polygon fill="midnightblue" stroke="midnightblue" points="682.08,-84.61 687.99,-75.82 677.89,-79.01 682.08,-84.61"/>
</g>
<!-- Node26&#45;&gt;Node9 -->
<g id="edge55" class="edge">
<title>Node26&#45;&gt;Node9</title>
<path fill="none" stroke="midnightblue" d="M506.68,-280.44C557.46,-270.72 640.15,-254.89 693.3,-244.71"/>
<polygon fill="midnightblue" stroke="midnightblue" points="694.02,-248.13 703.19,-242.82 692.71,-241.26 694.02,-248.13"/>
</g>
</g>
</svg>
