<?xml version="1.0" encoding="UTF-8" standalone="no"?>
<!DOCTYPE svg PUBLIC "-//W3C//DTD SVG 1.1//EN"
 "http://www.w3.org/Graphics/SVG/1.1/DTD/svg11.dtd">
<!-- Generated by graphviz version 2.43.0 (0)
 -->
<!-- Title: /home/runner/work/Raytracer/Raytracer/src/Plugins/PluginLoader.hpp Pages: 1 -->
<svg width="446pt" height="207pt"
 viewBox="0.00 0.00 445.89 207.00" xmlns="http://www.w3.org/2000/svg" xmlns:xlink="http://www.w3.org/1999/xlink">
<g id="graph0" class="graph" transform="scale(1 1) rotate(0) translate(4 203)">
<title>/home/runner/work/Raytracer/Raytracer/src/Plugins/PluginLoader.hpp</title>
<polygon fill="white" stroke="transparent" points="-4,4 -4,-203 441.89,-203 441.89,4 -4,4"/>
<!-- Node1 -->
<g id="node1" class="node">
<title>Node1</title>
<g id="a_node1"><a xlink:title=" ">
<polygon fill="#bfbfbf" stroke="black" points="185.39,-168.5 185.39,-198.5 394.39,-198.5 394.39,-168.5 185.39,-168.5"/>
<text text-anchor="start" x="193.39" y="-186.5" font-family="Helvetica,sans-Serif" font-size="10.00">/home/runner/work/Raytracer</text>
<text text-anchor="middle" x="289.89" y="-175.5" font-family="Helvetica,sans-Serif" font-size="10.00">/Raytracer/src/Plugins/PluginLoader.hpp</text>
</a>
</g>
</g>
<!-- Node2 -->
<g id="node2" class="node">
<title>Node2</title>
<g id="a_node2"><a xlink:title=" ">
<polygon fill="white" stroke="#bfbfbf" points="84.89,-0.5 84.89,-19.5 128.89,-19.5 128.89,-0.5 84.89,-0.5"/>
<text text-anchor="middle" x="106.89" y="-7.5" font-family="Helvetica,sans-Serif" font-size="10.00">string</text>
</a>
</g>
</g>
<!-- Node1&#45;&gt;Node2 -->
<g id="edge1" class="edge">
<title>Node1&#45;&gt;Node2</title>
<path fill="none" stroke="midnightblue" d="M185.25,-172.68C121.72,-160.7 45.31,-134.26 4.89,-76 -15.74,-46.27 37.6,-27.12 74.69,-17.77"/>
<polygon fill="midnightblue" stroke="midnightblue" points="75.73,-21.12 84.65,-15.39 74.11,-14.31 75.73,-21.12"/>
</g>
<!-- Node3 -->
<g id="node3" class="node">
<title>Node3</title>
<g id="a_node3"><a xlink:href="a00113.html" target="_top" xlink:title=" ">
<polygon fill="white" stroke="black" points="166.39,-112.5 166.39,-131.5 243.39,-131.5 243.39,-112.5 166.39,-112.5"/>
<text text-anchor="middle" x="204.89" y="-119.5" font-family="Helvetica,sans-Serif" font-size="10.00">TFactory.hpp</text>
</a>
</g>
</g>
<!-- Node1&#45;&gt;Node3 -->
<g id="edge2" class="edge">
<title>Node1&#45;&gt;Node3</title>
<path fill="none" stroke="midnightblue" d="M269.74,-168.4C256.5,-159.13 239.21,-147.03 225.81,-137.65"/>
<polygon fill="midnightblue" stroke="midnightblue" points="227.45,-134.53 217.25,-131.66 223.44,-140.26 227.45,-134.53"/>
</g>
<!-- Node4 -->
<g id="node4" class="node">
<title>Node4</title>
<g id="a_node4"><a xlink:title=" ">
<polygon fill="white" stroke="#bfbfbf" points="285.89,-0.5 285.89,-19.5 343.89,-19.5 343.89,-0.5 285.89,-0.5"/>
<text text-anchor="middle" x="314.89" y="-7.5" font-family="Helvetica,sans-Serif" font-size="10.00">memory</text>
</a>
</g>
</g>
<!-- Node1&#45;&gt;Node4 -->
<g id="edge12" class="edge">
<title>Node1&#45;&gt;Node4</title>
<path fill="none" stroke="midnightblue" d="M291.93,-168.47C296.42,-137.7 307.11,-64.33 312.16,-29.7"/>
<polygon fill="midnightblue" stroke="midnightblue" points="315.66,-29.96 313.64,-19.56 308.73,-28.95 315.66,-29.96"/>
</g>
<!-- Node9 -->
<g id="node9" class="node">
<title>Node9</title>
<g id="a_node9"><a xlink:title=" ">
<polygon fill="white" stroke="#bfbfbf" points="369.89,-112.5 369.89,-131.5 437.89,-131.5 437.89,-112.5 369.89,-112.5"/>
<text text-anchor="middle" x="403.89" y="-119.5" font-family="Helvetica,sans-Serif" font-size="10.00">filesystem</text>
</a>
</g>
</g>
<!-- Node1&#45;&gt;Node9 -->
<g id="edge11" class="edge">
<title>Node1&#45;&gt;Node9</title>
<path fill="none" stroke="midnightblue" d="M316.9,-168.4C335.52,-158.68 360.1,-145.86 378.38,-136.31"/>
<polygon fill="midnightblue" stroke="midnightblue" points="380.05,-139.39 387.3,-131.66 376.81,-133.18 380.05,-139.39"/>
</g>
<!-- Node3&#45;&gt;Node2 -->
<g id="edge3" class="edge">
<title>Node3&#45;&gt;Node2</title>
<path fill="none" stroke="midnightblue" d="M198.29,-112.36C188.52,-99.68 169.46,-75.45 151.89,-56 142.81,-45.96 132.12,-35.22 123.43,-26.76"/>
<polygon fill="midnightblue" stroke="midnightblue" points="125.75,-24.13 116.12,-19.7 120.89,-29.17 125.75,-24.13"/>
</g>
<!-- Node3&#45;&gt;Node4 -->
<g id="edge4" class="edge">
<title>Node3&#45;&gt;Node4</title>
<path fill="none" stroke="midnightblue" d="M228.49,-112.38C245.96,-104.99 269.32,-92.86 284.89,-76 297.25,-62.61 305.29,-43.23 309.91,-29.12"/>
<polygon fill="midnightblue" stroke="midnightblue" points="313.26,-30.13 312.78,-19.54 306.55,-28.12 313.26,-30.13"/>
</g>
<!-- Node5 -->
<g id="node5" class="node">
<title>Node5</title>
<g id="a_node5"><a xlink:title=" ">
<polygon fill="white" stroke="#bfbfbf" points="13.89,-56.5 13.89,-75.5 51.89,-75.5 51.89,-56.5 13.89,-56.5"/>
<text text-anchor="middle" x="32.89" y="-63.5" font-family="Helvetica,sans-Serif" font-size="10.00">map</text>
</a>
</g>
</g>
<!-- Node3&#45;&gt;Node5 -->
<g id="edge5" class="edge">
<title>Node3&#45;&gt;Node5</title>
<path fill="none" stroke="midnightblue" d="M177.26,-112.44C150.18,-104.03 107.49,-90.74 61.92,-76.31"/>
<polygon fill="midnightblue" stroke="midnightblue" points="62.75,-72.9 52.16,-73.22 60.63,-79.58 62.75,-72.9"/>
</g>
<!-- Node6 -->
<g id="node6" class="node">
<title>Node6</title>
<g id="a_node6"><a xlink:href="a00119.html" target="_top" xlink:title=" ">
<polygon fill="white" stroke="black" points="70.39,-56.5 70.39,-75.5 143.39,-75.5 143.39,-56.5 70.39,-56.5"/>
<text text-anchor="middle" x="106.89" y="-63.5" font-family="Helvetica,sans-Serif" font-size="10.00">ILogger.hpp</text>
</a>
</g>
</g>
<!-- Node3&#45;&gt;Node6 -->
<g id="edge6" class="edge">
<title>Node3&#45;&gt;Node6</title>
<path fill="none" stroke="midnightblue" d="M189.14,-112.32C173.57,-103.74 149.51,-90.49 131.43,-80.52"/>
<polygon fill="midnightblue" stroke="midnightblue" points="133.04,-77.42 122.59,-75.65 129.66,-83.55 133.04,-77.42"/>
</g>
<!-- Node7 -->
<g id="node7" class="node">
<title>Node7</title>
<g id="a_node7"><a xlink:href="a00206.html" target="_top" xlink:title=" ">
<polygon fill="white" stroke="black" points="200.39,-56.5 200.39,-75.5 275.39,-75.5 275.39,-56.5 200.39,-56.5"/>
<text text-anchor="middle" x="237.89" y="-63.5" font-family="Helvetica,sans-Serif" font-size="10.00">ISetting.hpp</text>
</a>
</g>
</g>
<!-- Node3&#45;&gt;Node7 -->
<g id="edge8" class="edge">
<title>Node3&#45;&gt;Node7</title>
<path fill="none" stroke="midnightblue" d="M210.34,-112.08C214.9,-104.61 221.55,-93.72 227.18,-84.52"/>
<polygon fill="midnightblue" stroke="midnightblue" points="230.31,-86.11 232.54,-75.75 224.34,-82.46 230.31,-86.11"/>
</g>
<!-- Node6&#45;&gt;Node2 -->
<g id="edge7" class="edge">
<title>Node6&#45;&gt;Node2</title>
<path fill="none" stroke="midnightblue" d="M106.89,-56.08C106.89,-49.01 106.89,-38.86 106.89,-29.99"/>
<polygon fill="midnightblue" stroke="midnightblue" points="110.39,-29.75 106.89,-19.75 103.39,-29.75 110.39,-29.75"/>
</g>
<!-- Node7&#45;&gt;Node4 -->
<g id="edge9" class="edge">
<title>Node7&#45;&gt;Node4</title>
<path fill="none" stroke="midnightblue" d="M250.26,-56.32C262.04,-48.06 280.02,-35.45 294.02,-25.63"/>
<polygon fill="midnightblue" stroke="midnightblue" points="296.37,-28.26 302.55,-19.65 292.35,-22.53 296.37,-28.26"/>
</g>
<!-- Node8 -->
<g id="node8" class="node">
<title>Node8</title>
<g id="a_node8"><a xlink:title=" ">
<polygon fill="white" stroke="#bfbfbf" points="184.39,-0.5 184.39,-19.5 267.39,-19.5 267.39,-0.5 184.39,-0.5"/>
<text text-anchor="middle" x="225.89" y="-7.5" font-family="Helvetica,sans-Serif" font-size="10.00">libconfig.h++</text>
</a>
</g>
</g>
<!-- Node7&#45;&gt;Node8 -->
<g id="edge10" class="edge">
<title>Node7&#45;&gt;Node8</title>
<path fill="none" stroke="midnightblue" d="M235.9,-56.08C234.31,-48.93 232.03,-38.64 230.04,-29.69"/>
<polygon fill="midnightblue" stroke="midnightblue" points="233.42,-28.75 227.83,-19.75 226.58,-30.27 233.42,-28.75"/>
</g>
</g>
</svg>
