<?xml version="1.0" encoding="UTF-8" standalone="no"?>
<!DOCTYPE svg PUBLIC "-//W3C//DTD SVG 1.1//EN"
 "http://www.w3.org/Graphics/SVG/1.1/DTD/svg11.dtd">
<!-- Generated by graphviz version 2.43.0 (0)
 -->
<!-- Title: /home/runner/work/Raytracer/Raytracer/src/Filters/IFilter.hpp Pages: 1 -->
<svg width="413pt" height="319pt"
 viewBox="0.00 0.00 413.00 319.00" xmlns="http://www.w3.org/2000/svg" xmlns:xlink="http://www.w3.org/1999/xlink">
<g id="graph0" class="graph" transform="scale(1 1) rotate(0) translate(4 315)">
<title>/home/runner/work/Raytracer/Raytracer/src/Filters/IFilter.hpp</title>
<polygon fill="white" stroke="transparent" points="-4,4 -4,-315 409,-315 409,4 -4,4"/>
<!-- Node1 -->
<g id="node1" class="node">
<title>Node1</title>
<g id="a_node1"><a xlink:title=" ">
<polygon fill="#bfbfbf" stroke="black" points="73.5,-280.5 73.5,-310.5 241.5,-310.5 241.5,-280.5 73.5,-280.5"/>
<text text-anchor="start" x="81.5" y="-298.5" font-family="Helvetica,sans-Serif" font-size="10.00">/home/runner/work/Raytracer</text>
<text text-anchor="middle" x="157.5" y="-287.5" font-family="Helvetica,sans-Serif" font-size="10.00">/Raytracer/src/Filters/IFilter.hpp</text>
</a>
</g>
</g>
<!-- Node2 -->
<g id="node2" class="node">
<title>Node2</title>
<g id="a_node2"><a xlink:href="a00125.html" target="_top" xlink:title=" ">
<polygon fill="white" stroke="black" points="123.5,-224.5 123.5,-243.5 191.5,-243.5 191.5,-224.5 123.5,-224.5"/>
<text text-anchor="middle" x="157.5" y="-231.5" font-family="Helvetica,sans-Serif" font-size="10.00">Image.hpp</text>
</a>
</g>
</g>
<!-- Node1&#45;&gt;Node2 -->
<g id="edge1" class="edge">
<title>Node1&#45;&gt;Node2</title>
<path fill="none" stroke="midnightblue" d="M157.5,-280.4C157.5,-272.47 157.5,-262.46 157.5,-253.86"/>
<polygon fill="midnightblue" stroke="midnightblue" points="161,-253.66 157.5,-243.66 154,-253.66 161,-253.66"/>
</g>
<!-- Node3 -->
<g id="node3" class="node">
<title>Node3</title>
<g id="a_node3"><a xlink:title=" ">
<polygon fill="white" stroke="#bfbfbf" points="0,-168.5 0,-187.5 53,-187.5 53,-168.5 0,-168.5"/>
<text text-anchor="middle" x="26.5" y="-175.5" font-family="Helvetica,sans-Serif" font-size="10.00">cstddef</text>
</a>
</g>
</g>
<!-- Node2&#45;&gt;Node3 -->
<g id="edge2" class="edge">
<title>Node2&#45;&gt;Node3</title>
<path fill="none" stroke="midnightblue" d="M136.74,-224.44C115.18,-215.56 81.24,-201.56 56.71,-191.45"/>
<polygon fill="midnightblue" stroke="midnightblue" points="57.74,-188.09 47.16,-187.52 55.07,-194.56 57.74,-188.09"/>
</g>
<!-- Node4 -->
<g id="node4" class="node">
<title>Node4</title>
<g id="a_node4"><a xlink:title=" ">
<polygon fill="white" stroke="#bfbfbf" points="71.5,-168.5 71.5,-187.5 115.5,-187.5 115.5,-168.5 71.5,-168.5"/>
<text text-anchor="middle" x="93.5" y="-175.5" font-family="Helvetica,sans-Serif" font-size="10.00">string</text>
</a>
</g>
</g>
<!-- Node2&#45;&gt;Node4 -->
<g id="edge3" class="edge">
<title>Node2&#45;&gt;Node4</title>
<path fill="none" stroke="midnightblue" d="M147.22,-224.32C137.66,-216.26 123.22,-204.08 111.72,-194.37"/>
<polygon fill="midnightblue" stroke="midnightblue" points="113.87,-191.61 103.97,-187.83 109.36,-196.96 113.87,-191.61"/>
</g>
<!-- Node5 -->
<g id="node5" class="node">
<title>Node5</title>
<g id="a_node5"><a xlink:title=" ">
<polygon fill="white" stroke="#bfbfbf" points="134,-168.5 134,-187.5 181,-187.5 181,-168.5 134,-168.5"/>
<text text-anchor="middle" x="157.5" y="-175.5" font-family="Helvetica,sans-Serif" font-size="10.00">vector</text>
</a>
</g>
</g>
<!-- Node2&#45;&gt;Node5 -->
<g id="edge4" class="edge">
<title>Node2&#45;&gt;Node5</title>
<path fill="none" stroke="midnightblue" d="M157.5,-224.08C157.5,-217.01 157.5,-206.86 157.5,-197.99"/>
<polygon fill="midnightblue" stroke="midnightblue" points="161,-197.75 157.5,-187.75 154,-197.75 161,-197.75"/>
</g>
<!-- Node6 -->
<g id="node6" class="node">
<title>Node6</title>
<g id="a_node6"><a xlink:href="a00122.html" target="_top" xlink:title=" ">
<polygon fill="white" stroke="black" points="199.5,-168.5 199.5,-187.5 261.5,-187.5 261.5,-168.5 199.5,-168.5"/>
<text text-anchor="middle" x="230.5" y="-175.5" font-family="Helvetica,sans-Serif" font-size="10.00">Color.hpp</text>
</a>
</g>
</g>
<!-- Node2&#45;&gt;Node6 -->
<g id="edge5" class="edge">
<title>Node2&#45;&gt;Node6</title>
<path fill="none" stroke="midnightblue" d="M169.23,-224.32C180.34,-216.11 197.24,-203.6 210.48,-193.81"/>
<polygon fill="midnightblue" stroke="midnightblue" points="212.6,-196.59 218.56,-187.83 208.44,-190.97 212.6,-196.59"/>
</g>
<!-- Node12 -->
<g id="node12" class="node">
<title>Node12</title>
<g id="a_node12"><a xlink:href="a00089.html" target="_top" xlink:title=" ">
<polygon fill="white" stroke="black" points="280,-168.5 280,-187.5 357,-187.5 357,-168.5 280,-168.5"/>
<text text-anchor="middle" x="318.5" y="-175.5" font-family="Helvetica,sans-Serif" font-size="10.00">Vector2i.hpp</text>
</a>
</g>
</g>
<!-- Node2&#45;&gt;Node12 -->
<g id="edge11" class="edge">
<title>Node2&#45;&gt;Node12</title>
<path fill="none" stroke="midnightblue" d="M183.01,-224.44C210.1,-215.36 253.09,-200.94 283.37,-190.78"/>
<polygon fill="midnightblue" stroke="midnightblue" points="284.74,-194.01 293.11,-187.52 282.51,-187.38 284.74,-194.01"/>
</g>
<!-- Node7 -->
<g id="node7" class="node">
<title>Node7</title>
<g id="a_node7"><a xlink:title=" ">
<polygon fill="white" stroke="#bfbfbf" points="154.5,-112.5 154.5,-131.5 202.5,-131.5 202.5,-112.5 154.5,-112.5"/>
<text text-anchor="middle" x="178.5" y="-119.5" font-family="Helvetica,sans-Serif" font-size="10.00">mutex</text>
</a>
</g>
</g>
<!-- Node6&#45;&gt;Node7 -->
<g id="edge6" class="edge">
<title>Node6&#45;&gt;Node7</title>
<path fill="none" stroke="midnightblue" d="M221.91,-168.08C214.34,-160.22 203.12,-148.57 193.99,-139.08"/>
<polygon fill="midnightblue" stroke="midnightblue" points="196.38,-136.53 186.93,-131.75 191.34,-141.38 196.38,-136.53"/>
</g>
<!-- Node8 -->
<g id="node8" class="node">
<title>Node8</title>
<g id="a_node8"><a xlink:title=" ">
<polygon fill="white" stroke="#bfbfbf" points="259,-112.5 259,-131.5 316,-131.5 316,-112.5 259,-112.5"/>
<text text-anchor="middle" x="287.5" y="-119.5" font-family="Helvetica,sans-Serif" font-size="10.00">ostream</text>
</a>
</g>
</g>
<!-- Node6&#45;&gt;Node8 -->
<g id="edge7" class="edge">
<title>Node6&#45;&gt;Node8</title>
<path fill="none" stroke="midnightblue" d="M239.66,-168.32C248,-160.42 260.53,-148.55 270.68,-138.94"/>
<polygon fill="midnightblue" stroke="midnightblue" points="273.32,-141.25 278.18,-131.83 268.51,-136.17 273.32,-141.25"/>
</g>
<!-- Node9 -->
<g id="node9" class="node">
<title>Node9</title>
<g id="a_node9"><a xlink:href="a00206.html" target="_top" xlink:title=" ">
<polygon fill="white" stroke="black" points="254,-56.5 254,-75.5 329,-75.5 329,-56.5 254,-56.5"/>
<text text-anchor="middle" x="291.5" y="-63.5" font-family="Helvetica,sans-Serif" font-size="10.00">ISetting.hpp</text>
</a>
</g>
</g>
<!-- Node6&#45;&gt;Node9 -->
<g id="edge8" class="edge">
<title>Node6&#45;&gt;Node9</title>
<path fill="none" stroke="midnightblue" d="M231.76,-168.08C233.89,-155.05 239.03,-130.39 249.5,-112 255.75,-101.02 265.19,-90.59 273.53,-82.53"/>
<polygon fill="midnightblue" stroke="midnightblue" points="276.07,-84.95 281.06,-75.6 271.33,-79.8 276.07,-84.95"/>
</g>
<!-- Node10 -->
<g id="node10" class="node">
<title>Node10</title>
<g id="a_node10"><a xlink:title=" ">
<polygon fill="white" stroke="#bfbfbf" points="340.5,-0.5 340.5,-19.5 398.5,-19.5 398.5,-0.5 340.5,-0.5"/>
<text text-anchor="middle" x="369.5" y="-7.5" font-family="Helvetica,sans-Serif" font-size="10.00">memory</text>
</a>
</g>
</g>
<!-- Node9&#45;&gt;Node10 -->
<g id="edge9" class="edge">
<title>Node9&#45;&gt;Node10</title>
<path fill="none" stroke="midnightblue" d="M304.03,-56.32C316.09,-47.98 334.53,-35.21 348.77,-25.35"/>
<polygon fill="midnightblue" stroke="midnightblue" points="350.77,-28.22 357,-19.65 346.78,-22.47 350.77,-28.22"/>
</g>
<!-- Node11 -->
<g id="node11" class="node">
<title>Node11</title>
<g id="a_node11"><a xlink:title=" ">
<polygon fill="white" stroke="#bfbfbf" points="239,-0.5 239,-19.5 322,-19.5 322,-0.5 239,-0.5"/>
<text text-anchor="middle" x="280.5" y="-7.5" font-family="Helvetica,sans-Serif" font-size="10.00">libconfig.h++</text>
</a>
</g>
</g>
<!-- Node9&#45;&gt;Node11 -->
<g id="edge10" class="edge">
<title>Node9&#45;&gt;Node11</title>
<path fill="none" stroke="midnightblue" d="M289.68,-56.08C288.23,-48.93 286.13,-38.64 284.31,-29.69"/>
<polygon fill="midnightblue" stroke="midnightblue" points="287.71,-28.85 282.28,-19.75 280.85,-30.25 287.71,-28.85"/>
</g>
<!-- Node12&#45;&gt;Node8 -->
<g id="edge12" class="edge">
<title>Node12&#45;&gt;Node8</title>
<path fill="none" stroke="midnightblue" d="M313.38,-168.08C309.09,-160.61 302.84,-149.72 297.56,-140.52"/>
<polygon fill="midnightblue" stroke="midnightblue" points="300.54,-138.68 292.52,-131.75 294.47,-142.17 300.54,-138.68"/>
</g>
<!-- Node13 -->
<g id="node13" class="node">
<title>Node13</title>
<g id="a_node13"><a xlink:href="a00197.html" target="_top" xlink:title=" ">
<polygon fill="white" stroke="black" points="334,-112.5 334,-131.5 405,-131.5 405,-112.5 334,-112.5"/>
<text text-anchor="middle" x="369.5" y="-119.5" font-family="Helvetica,sans-Serif" font-size="10.00">IConfig.hpp</text>
</a>
</g>
</g>
<!-- Node12&#45;&gt;Node13 -->
<g id="edge13" class="edge">
<title>Node12&#45;&gt;Node13</title>
<path fill="none" stroke="midnightblue" d="M326.92,-168.08C334.35,-160.22 345.35,-148.57 354.31,-139.08"/>
<polygon fill="midnightblue" stroke="midnightblue" points="356.91,-141.42 361.24,-131.75 351.82,-136.62 356.91,-141.42"/>
</g>
<!-- Node13&#45;&gt;Node9 -->
<g id="edge15" class="edge">
<title>Node13&#45;&gt;Node9</title>
<path fill="none" stroke="midnightblue" d="M356.97,-112.32C344.91,-103.98 326.47,-91.21 312.23,-81.35"/>
<polygon fill="midnightblue" stroke="midnightblue" points="314.22,-78.47 304,-75.65 310.23,-84.22 314.22,-78.47"/>
</g>
<!-- Node13&#45;&gt;Node10 -->
<g id="edge14" class="edge">
<title>Node13&#45;&gt;Node10</title>
<path fill="none" stroke="midnightblue" d="M369.5,-112.37C369.5,-94.62 369.5,-53.67 369.5,-29.6"/>
<polygon fill="midnightblue" stroke="midnightblue" points="373,-29.59 369.5,-19.59 366,-29.59 373,-29.59"/>
</g>
</g>
</svg>
