<?xml version="1.0" encoding="UTF-8" standalone="no"?>
<!DOCTYPE svg PUBLIC "-//W3C//DTD SVG 1.1//EN"
 "http://www.w3.org/Graphics/SVG/1.1/DTD/svg11.dtd">
<!-- Generated by graphviz version 2.43.0 (0)
 -->
<!-- Title: /home/runner/work/Raytracer/Raytracer/src/Images/PixelThread.hpp Pages: 1 -->
<svg width="340pt" height="263pt"
 viewBox="0.00 0.00 339.50 263.00" xmlns="http://www.w3.org/2000/svg" xmlns:xlink="http://www.w3.org/1999/xlink">
<g id="graph0" class="graph" transform="scale(1 1) rotate(0) translate(4 259)">
<title>/home/runner/work/Raytracer/Raytracer/src/Images/PixelThread.hpp</title>
<polygon fill="white" stroke="transparent" points="-4,4 -4,-259 335.5,-259 335.5,4 -4,4"/>
<!-- Node1 -->
<g id="node1" class="node">
<title>Node1</title>
<g id="a_node1"><a xlink:title=" ">
<polygon fill="#bfbfbf" stroke="black" points="80,-224.5 80,-254.5 284,-254.5 284,-224.5 80,-224.5"/>
<text text-anchor="start" x="88" y="-242.5" font-family="Helvetica,sans-Serif" font-size="10.00">/home/runner/work/Raytracer</text>
<text text-anchor="middle" x="182" y="-231.5" font-family="Helvetica,sans-Serif" font-size="10.00">/Raytracer/src/Images/PixelThread.hpp</text>
</a>
</g>
</g>
<!-- Node2 -->
<g id="node2" class="node">
<title>Node2</title>
<g id="a_node2"><a xlink:href="a00200.html" target="_top" xlink:title=" ">
<polygon fill="white" stroke="black" points="0,-168.5 0,-187.5 98,-187.5 98,-168.5 0,-168.5"/>
<text text-anchor="middle" x="49" y="-175.5" font-family="Helvetica,sans-Serif" font-size="10.00">IDisplayable.hpp</text>
</a>
</g>
</g>
<!-- Node1&#45;&gt;Node2 -->
<g id="edge1" class="edge">
<title>Node1&#45;&gt;Node2</title>
<path fill="none" stroke="midnightblue" d="M150.48,-224.4C128.36,-214.51 99.03,-201.38 77.59,-191.79"/>
<polygon fill="midnightblue" stroke="midnightblue" points="78.91,-188.55 68.35,-187.66 76.05,-194.94 78.91,-188.55"/>
</g>
<!-- Node4 -->
<g id="node4" class="node">
<title>Node4</title>
<g id="a_node4"><a xlink:title=" ">
<polygon fill="white" stroke="#bfbfbf" points="77.5,-112.5 77.5,-131.5 124.5,-131.5 124.5,-112.5 77.5,-112.5"/>
<text text-anchor="middle" x="101" y="-119.5" font-family="Helvetica,sans-Serif" font-size="10.00">vector</text>
</a>
</g>
</g>
<!-- Node1&#45;&gt;Node4 -->
<g id="edge15" class="edge">
<title>Node1&#45;&gt;Node4</title>
<path fill="none" stroke="midnightblue" d="M171.49,-224.45C164.01,-214.38 153.76,-200.44 145,-188 133.76,-172.04 121.32,-153.59 112.55,-140.44"/>
<polygon fill="midnightblue" stroke="midnightblue" points="115.33,-138.29 106.87,-131.9 109.5,-142.17 115.33,-138.29"/>
</g>
<!-- Node5 -->
<g id="node5" class="node">
<title>Node5</title>
<g id="a_node5"><a xlink:href="a00137.html" target="_top" xlink:title=" ">
<polygon fill="white" stroke="black" points="154.5,-168.5 154.5,-187.5 209.5,-187.5 209.5,-168.5 154.5,-168.5"/>
<text text-anchor="middle" x="182" y="-175.5" font-family="Helvetica,sans-Serif" font-size="10.00">Ray.hpp</text>
</a>
</g>
</g>
<!-- Node1&#45;&gt;Node5 -->
<g id="edge4" class="edge">
<title>Node1&#45;&gt;Node5</title>
<path fill="none" stroke="midnightblue" d="M182,-224.4C182,-216.47 182,-206.46 182,-197.86"/>
<polygon fill="midnightblue" stroke="midnightblue" points="185.5,-197.66 182,-187.66 178.5,-197.66 185.5,-197.66"/>
</g>
<!-- Node10 -->
<g id="node10" class="node">
<title>Node10</title>
<g id="a_node10"><a xlink:href="a00122.html" target="_top" xlink:title=" ">
<polygon fill="white" stroke="black" points="238,-112.5 238,-131.5 300,-131.5 300,-112.5 238,-112.5"/>
<text text-anchor="middle" x="269" y="-119.5" font-family="Helvetica,sans-Serif" font-size="10.00">Color.hpp</text>
</a>
</g>
</g>
<!-- Node1&#45;&gt;Node10 -->
<g id="edge10" class="edge">
<title>Node1&#45;&gt;Node10</title>
<path fill="none" stroke="midnightblue" d="M192.67,-224.34C208.77,-202.96 239.22,-162.53 256.4,-139.73"/>
<polygon fill="midnightblue" stroke="midnightblue" points="259.25,-141.76 262.47,-131.67 253.66,-137.55 259.25,-141.76"/>
</g>
<!-- Node12 -->
<g id="node12" class="node">
<title>Node12</title>
<g id="a_node12"><a xlink:title=" ">
<polygon fill="white" stroke="#bfbfbf" points="266.5,-168.5 266.5,-187.5 331.5,-187.5 331.5,-168.5 266.5,-168.5"/>
<text text-anchor="middle" x="299" y="-175.5" font-family="Helvetica,sans-Serif" font-size="10.00">functional</text>
</a>
</g>
</g>
<!-- Node1&#45;&gt;Node12 -->
<g id="edge14" class="edge">
<title>Node1&#45;&gt;Node12</title>
<path fill="none" stroke="midnightblue" d="M209.73,-224.4C228.83,-214.68 254.06,-201.86 272.82,-192.31"/>
<polygon fill="midnightblue" stroke="midnightblue" points="274.65,-195.31 281.98,-187.66 271.48,-189.07 274.65,-195.31"/>
</g>
<!-- Node3 -->
<g id="node3" class="node">
<title>Node3</title>
<g id="a_node3"><a xlink:title=" ">
<polygon fill="white" stroke="#bfbfbf" points="65,-0.5 65,-19.5 123,-19.5 123,-0.5 65,-0.5"/>
<text text-anchor="middle" x="94" y="-7.5" font-family="Helvetica,sans-Serif" font-size="10.00">memory</text>
</a>
</g>
</g>
<!-- Node2&#45;&gt;Node3 -->
<g id="edge2" class="edge">
<title>Node2&#45;&gt;Node3</title>
<path fill="none" stroke="midnightblue" d="M51.42,-168.08C58.5,-141.95 79.3,-65.21 88.96,-29.58"/>
<polygon fill="midnightblue" stroke="midnightblue" points="92.44,-30.14 91.68,-19.57 85.68,-28.3 92.44,-30.14"/>
</g>
<!-- Node2&#45;&gt;Node4 -->
<g id="edge3" class="edge">
<title>Node2&#45;&gt;Node4</title>
<path fill="none" stroke="midnightblue" d="M57.59,-168.08C65.16,-160.22 76.38,-148.57 85.51,-139.08"/>
<polygon fill="midnightblue" stroke="midnightblue" points="88.16,-141.38 92.57,-131.75 83.12,-136.53 88.16,-141.38"/>
</g>
<!-- Node6 -->
<g id="node6" class="node">
<title>Node6</title>
<g id="a_node6"><a xlink:href="a00092.html" target="_top" xlink:title=" ">
<polygon fill="white" stroke="black" points="142.5,-112.5 142.5,-131.5 219.5,-131.5 219.5,-112.5 142.5,-112.5"/>
<text text-anchor="middle" x="181" y="-119.5" font-family="Helvetica,sans-Serif" font-size="10.00">Vector3f.hpp</text>
</a>
</g>
</g>
<!-- Node5&#45;&gt;Node6 -->
<g id="edge5" class="edge">
<title>Node5&#45;&gt;Node6</title>
<path fill="none" stroke="midnightblue" d="M181.83,-168.08C181.7,-161.01 181.52,-150.86 181.35,-141.99"/>
<polygon fill="midnightblue" stroke="midnightblue" points="184.85,-141.68 181.16,-131.75 177.85,-141.81 184.85,-141.68"/>
</g>
<!-- Node7 -->
<g id="node7" class="node">
<title>Node7</title>
<g id="a_node7"><a xlink:title=" ">
<polygon fill="white" stroke="#bfbfbf" points="114.5,-56.5 114.5,-75.5 171.5,-75.5 171.5,-56.5 114.5,-56.5"/>
<text text-anchor="middle" x="143" y="-63.5" font-family="Helvetica,sans-Serif" font-size="10.00">ostream</text>
</a>
</g>
</g>
<!-- Node6&#45;&gt;Node7 -->
<g id="edge6" class="edge">
<title>Node6&#45;&gt;Node7</title>
<path fill="none" stroke="midnightblue" d="M174.73,-112.08C169.36,-104.46 161.48,-93.26 154.92,-83.94"/>
<polygon fill="midnightblue" stroke="midnightblue" points="157.78,-81.91 149.16,-75.75 152.05,-85.94 157.78,-81.91"/>
</g>
<!-- Node8 -->
<g id="node8" class="node">
<title>Node8</title>
<g id="a_node8"><a xlink:href="a00206.html" target="_top" xlink:title=" ">
<polygon fill="white" stroke="black" points="189.5,-56.5 189.5,-75.5 264.5,-75.5 264.5,-56.5 189.5,-56.5"/>
<text text-anchor="middle" x="227" y="-63.5" font-family="Helvetica,sans-Serif" font-size="10.00">ISetting.hpp</text>
</a>
</g>
</g>
<!-- Node6&#45;&gt;Node8 -->
<g id="edge7" class="edge">
<title>Node6&#45;&gt;Node8</title>
<path fill="none" stroke="midnightblue" d="M188.6,-112.08C195.23,-104.3 205.02,-92.8 213.06,-83.37"/>
<polygon fill="midnightblue" stroke="midnightblue" points="215.73,-85.63 219.55,-75.75 210.4,-81.09 215.73,-85.63"/>
</g>
<!-- Node8&#45;&gt;Node3 -->
<g id="edge8" class="edge">
<title>Node8&#45;&gt;Node3</title>
<path fill="none" stroke="midnightblue" d="M205.93,-56.44C183.94,-47.52 149.27,-33.44 124.34,-23.32"/>
<polygon fill="midnightblue" stroke="midnightblue" points="125.56,-20.04 114.98,-19.52 122.92,-26.52 125.56,-20.04"/>
</g>
<!-- Node9 -->
<g id="node9" class="node">
<title>Node9</title>
<g id="a_node9"><a xlink:title=" ">
<polygon fill="white" stroke="#bfbfbf" points="185.5,-0.5 185.5,-19.5 268.5,-19.5 268.5,-0.5 185.5,-0.5"/>
<text text-anchor="middle" x="227" y="-7.5" font-family="Helvetica,sans-Serif" font-size="10.00">libconfig.h++</text>
</a>
</g>
</g>
<!-- Node8&#45;&gt;Node9 -->
<g id="edge9" class="edge">
<title>Node8&#45;&gt;Node9</title>
<path fill="none" stroke="midnightblue" d="M227,-56.08C227,-49.01 227,-38.86 227,-29.99"/>
<polygon fill="midnightblue" stroke="midnightblue" points="230.5,-29.75 227,-19.75 223.5,-29.75 230.5,-29.75"/>
</g>
<!-- Node10&#45;&gt;Node7 -->
<g id="edge12" class="edge">
<title>Node10&#45;&gt;Node7</title>
<path fill="none" stroke="midnightblue" d="M249.03,-112.44C228.39,-103.6 195.94,-89.69 172.37,-79.59"/>
<polygon fill="midnightblue" stroke="midnightblue" points="173.44,-76.24 162.87,-75.52 170.68,-82.67 173.44,-76.24"/>
</g>
<!-- Node10&#45;&gt;Node8 -->
<g id="edge13" class="edge">
<title>Node10&#45;&gt;Node8</title>
<path fill="none" stroke="midnightblue" d="M262.06,-112.08C256.07,-104.38 247.25,-93.03 239.95,-83.65"/>
<polygon fill="midnightblue" stroke="midnightblue" points="242.71,-81.5 233.81,-75.75 237.18,-85.79 242.71,-81.5"/>
</g>
<!-- Node11 -->
<g id="node11" class="node">
<title>Node11</title>
<g id="a_node11"><a xlink:title=" ">
<polygon fill="white" stroke="#bfbfbf" points="283,-56.5 283,-75.5 331,-75.5 331,-56.5 283,-56.5"/>
<text text-anchor="middle" x="307" y="-63.5" font-family="Helvetica,sans-Serif" font-size="10.00">mutex</text>
</a>
</g>
</g>
<!-- Node10&#45;&gt;Node11 -->
<g id="edge11" class="edge">
<title>Node10&#45;&gt;Node11</title>
<path fill="none" stroke="midnightblue" d="M275.27,-112.08C280.64,-104.46 288.52,-93.26 295.08,-83.94"/>
<polygon fill="midnightblue" stroke="midnightblue" points="297.95,-85.94 300.84,-75.75 292.22,-81.91 297.95,-85.94"/>
</g>
</g>
</svg>
