<?xml version="1.0" encoding="UTF-8" standalone="no"?>
<!DOCTYPE svg PUBLIC "-//W3C//DTD SVG 1.1//EN"
 "http://www.w3.org/Graphics/SVG/1.1/DTD/svg11.dtd">
<!-- Generated by graphviz version 2.43.0 (0)
 -->
<!-- Title: /home/runner/work/Raytracer/Raytracer/src/Plugins/Filters/FilterHandler.hpp Pages: 1 -->
<svg width="244pt" height="273pt"
 viewBox="0.00 0.00 244.00 273.00" xmlns="http://www.w3.org/2000/svg" xmlns:xlink="http://www.w3.org/1999/xlink">
<g id="graph0" class="graph" transform="scale(1 1) rotate(0) translate(4 269)">
<title>/home/runner/work/Raytracer/Raytracer/src/Plugins/Filters/FilterHandler.hpp</title>
<polygon fill="white" stroke="transparent" points="-4,4 -4,-269 240,-269 240,4 -4,4"/>
<!-- Node1 -->
<g id="node1" class="node">
<title>Node1</title>
<g id="a_node1"><a xlink:title=" ">
<polygon fill="#bfbfbf" stroke="black" points="53,-223.5 53,-264.5 212,-264.5 212,-223.5 53,-223.5"/>
<text text-anchor="start" x="61" y="-252.5" font-family="Helvetica,sans-Serif" font-size="10.00">/home/runner/work/Raytracer</text>
<text text-anchor="start" x="61" y="-241.5" font-family="Helvetica,sans-Serif" font-size="10.00">/Raytracer/src/Plugins/Filters</text>
<text text-anchor="middle" x="132.5" y="-230.5" font-family="Helvetica,sans-Serif" font-size="10.00">/FilterHandler.hpp</text>
</a>
</g>
</g>
<!-- Node2 -->
<g id="node2" class="node">
<title>Node2</title>
<g id="a_node2"><a xlink:href="a00098.html" target="_top" xlink:title=" ">
<polygon fill="white" stroke="black" points="0,-145.5 0,-186.5 159,-186.5 159,-145.5 0,-145.5"/>
<text text-anchor="start" x="8" y="-174.5" font-family="Helvetica,sans-Serif" font-size="10.00">/home/runner/work/Raytracer</text>
<text text-anchor="start" x="8" y="-163.5" font-family="Helvetica,sans-Serif" font-size="10.00">/Raytracer/src/Factories</text>
<text text-anchor="middle" x="79.5" y="-152.5" font-family="Helvetica,sans-Serif" font-size="10.00">/FilterFactory.hpp</text>
</a>
</g>
</g>
<!-- Node1&#45;&gt;Node2 -->
<g id="edge1" class="edge">
<title>Node1&#45;&gt;Node2</title>
<path fill="none" stroke="midnightblue" d="M113.01,-215.05C106.39,-205.57 99.16,-195.18 93.1,-186.51"/>
<polygon fill="midnightblue" stroke="midnightblue" points="110.26,-217.23 118.85,-223.43 116,-213.22 110.26,-217.23"/>
</g>
<!-- Node3 -->
<g id="node3" class="node">
<title>Node3</title>
<g id="a_node3"><a xlink:href="a00167.html" target="_top" xlink:title=" ">
<polygon fill="white" stroke="black" points="53,-67.5 53,-108.5 212,-108.5 212,-67.5 53,-67.5"/>
<text text-anchor="start" x="61" y="-96.5" font-family="Helvetica,sans-Serif" font-size="10.00">/home/runner/work/Raytracer</text>
<text text-anchor="start" x="61" y="-85.5" font-family="Helvetica,sans-Serif" font-size="10.00">/Raytracer/src/Plugins/Filters</text>
<text text-anchor="middle" x="132.5" y="-74.5" font-family="Helvetica,sans-Serif" font-size="10.00">/FilterLoader.hpp</text>
</a>
</g>
</g>
<!-- Node1&#45;&gt;Node3 -->
<g id="edge4" class="edge">
<title>Node1&#45;&gt;Node3</title>
<path fill="none" stroke="midnightblue" d="M154.28,-214.92C159.68,-206.42 164.71,-196.73 167.5,-187 172.65,-169.06 172.65,-162.94 167.5,-145 163.74,-131.89 155.91,-118.86 148.61,-108.68"/>
<polygon fill="midnightblue" stroke="midnightblue" points="151.31,-213.07 148.61,-223.32 157.11,-216.99 151.31,-213.07"/>
</g>
<!-- Node2&#45;&gt;Node3 -->
<g id="edge2" class="edge">
<title>Node2&#45;&gt;Node3</title>
<path fill="none" stroke="midnightblue" d="M98.99,-137.05C105.61,-127.57 112.84,-117.18 118.9,-108.51"/>
<polygon fill="midnightblue" stroke="midnightblue" points="96,-135.22 93.15,-145.43 101.74,-139.23 96,-135.22"/>
</g>
<!-- Node4 -->
<g id="node4" class="node">
<title>Node4</title>
<g id="a_node4"><a xlink:href="a00212.html" target="_top" xlink:title=" ">
<polygon fill="white" stroke="black" points="29,-0.5 29,-30.5 236,-30.5 236,-0.5 29,-0.5"/>
<text text-anchor="start" x="37" y="-18.5" font-family="Helvetica,sans-Serif" font-size="10.00">/home/runner/work/Raytracer</text>
<text text-anchor="middle" x="132.5" y="-7.5" font-family="Helvetica,sans-Serif" font-size="10.00">/Raytracer/src/Scenes/SceneLoader.hpp</text>
</a>
</g>
</g>
<!-- Node3&#45;&gt;Node4 -->
<g id="edge3" class="edge">
<title>Node3&#45;&gt;Node4</title>
<path fill="none" stroke="midnightblue" d="M132.5,-57.08C132.5,-48.01 132.5,-38.45 132.5,-30.89"/>
<polygon fill="midnightblue" stroke="midnightblue" points="129,-57.36 132.5,-67.36 136,-57.36 129,-57.36"/>
</g>
</g>
</svg>
