<?xml version="1.0" encoding="UTF-8" standalone="no"?>
<!DOCTYPE svg PUBLIC "-//W3C//DTD SVG 1.1//EN"
 "http://www.w3.org/Graphics/SVG/1.1/DTD/svg11.dtd">
<!-- Generated by graphviz version 2.43.0 (0)
 -->
<!-- Title: /home/runner/work/Raytracer/Raytracer/src/Plugins/PluginHandler.hpp Pages: 1 -->
<svg width="430pt" height="151pt"
 viewBox="0.00 0.00 429.50 151.00" xmlns="http://www.w3.org/2000/svg" xmlns:xlink="http://www.w3.org/1999/xlink">
<g id="graph0" class="graph" transform="scale(1 1) rotate(0) translate(4 147)">
<title>/home/runner/work/Raytracer/Raytracer/src/Plugins/PluginHandler.hpp</title>
<polygon fill="white" stroke="transparent" points="-4,4 -4,-147 425.5,-147 425.5,4 -4,4"/>
<!-- Node1 -->
<g id="node1" class="node">
<title>Node1</title>
<g id="a_node1"><a xlink:title=" ">
<polygon fill="#bfbfbf" stroke="black" points="94,-112.5 94,-142.5 308,-142.5 308,-112.5 94,-112.5"/>
<text text-anchor="start" x="102" y="-130.5" font-family="Helvetica,sans-Serif" font-size="10.00">/home/runner/work/Raytracer</text>
<text text-anchor="middle" x="201" y="-119.5" font-family="Helvetica,sans-Serif" font-size="10.00">/Raytracer/src/Plugins/PluginHandler.hpp</text>
</a>
</g>
</g>
<!-- Node2 -->
<g id="node2" class="node">
<title>Node2</title>
<g id="a_node2"><a xlink:title=" ">
<polygon fill="white" stroke="#bfbfbf" points="0,-0.5 0,-19.5 44,-19.5 44,-0.5 0,-0.5"/>
<text text-anchor="middle" x="22" y="-7.5" font-family="Helvetica,sans-Serif" font-size="10.00">string</text>
</a>
</g>
</g>
<!-- Node1&#45;&gt;Node2 -->
<g id="edge1" class="edge">
<title>Node1&#45;&gt;Node2</title>
<path fill="none" stroke="midnightblue" d="M104.37,-112.45C62.65,-104.22 20.51,-92.21 8,-76 -2.55,-62.34 4,-42.47 11.27,-28.3"/>
<polygon fill="midnightblue" stroke="midnightblue" points="14.35,-29.97 16.22,-19.54 8.25,-26.53 14.35,-29.97"/>
</g>
<!-- Node3 -->
<g id="node3" class="node">
<title>Node3</title>
<g id="a_node3"><a xlink:title=" ">
<polygon fill="white" stroke="#bfbfbf" points="262,-0.5 262,-19.5 320,-19.5 320,-0.5 262,-0.5"/>
<text text-anchor="middle" x="291" y="-7.5" font-family="Helvetica,sans-Serif" font-size="10.00">memory</text>
</a>
</g>
</g>
<!-- Node1&#45;&gt;Node3 -->
<g id="edge2" class="edge">
<title>Node1&#45;&gt;Node3</title>
<path fill="none" stroke="midnightblue" d="M216.05,-112.13C225.91,-102.37 238.83,-88.93 249,-76 261.04,-60.71 272.9,-41.91 280.93,-28.47"/>
<polygon fill="midnightblue" stroke="midnightblue" points="284,-30.16 286.05,-19.76 277.96,-26.61 284,-30.16"/>
</g>
<!-- Node4 -->
<g id="node4" class="node">
<title>Node4</title>
<g id="a_node4"><a xlink:title=" ">
<polygon fill="white" stroke="#bfbfbf" points="109,-56.5 109,-75.5 159,-75.5 159,-56.5 109,-56.5"/>
<text text-anchor="middle" x="134" y="-63.5" font-family="Helvetica,sans-Serif" font-size="10.00">dlfcn.h</text>
</a>
</g>
</g>
<!-- Node1&#45;&gt;Node4 -->
<g id="edge3" class="edge">
<title>Node1&#45;&gt;Node4</title>
<path fill="none" stroke="midnightblue" d="M185.12,-112.4C174.98,-103.4 161.84,-91.72 151.41,-82.47"/>
<polygon fill="midnightblue" stroke="midnightblue" points="153.55,-79.68 143.75,-75.66 148.9,-84.92 153.55,-79.68"/>
</g>
<!-- Node5 -->
<g id="node5" class="node">
<title>Node5</title>
<g id="a_node5"><a xlink:title=" ">
<polygon fill="white" stroke="#bfbfbf" points="177.5,-56.5 177.5,-75.5 224.5,-75.5 224.5,-56.5 177.5,-56.5"/>
<text text-anchor="middle" x="201" y="-63.5" font-family="Helvetica,sans-Serif" font-size="10.00">vector</text>
</a>
</g>
</g>
<!-- Node1&#45;&gt;Node5 -->
<g id="edge4" class="edge">
<title>Node1&#45;&gt;Node5</title>
<path fill="none" stroke="midnightblue" d="M201,-112.4C201,-104.47 201,-94.46 201,-85.86"/>
<polygon fill="midnightblue" stroke="midnightblue" points="204.5,-85.66 201,-75.66 197.5,-85.66 204.5,-85.66"/>
</g>
<!-- Node6 -->
<g id="node6" class="node">
<title>Node6</title>
<g id="a_node6"><a xlink:title=" ">
<polygon fill="white" stroke="#bfbfbf" points="120.5,-0.5 120.5,-19.5 185.5,-19.5 185.5,-0.5 120.5,-0.5"/>
<text text-anchor="middle" x="153" y="-7.5" font-family="Helvetica,sans-Serif" font-size="10.00">functional</text>
</a>
</g>
</g>
<!-- Node1&#45;&gt;Node6 -->
<g id="edge5" class="edge">
<title>Node1&#45;&gt;Node6</title>
<path fill="none" stroke="midnightblue" d="M215.46,-112.3C228.45,-97.75 243.93,-74.68 233,-56 224.14,-40.85 208.09,-30.41 192.69,-23.42"/>
<polygon fill="midnightblue" stroke="midnightblue" points="193.83,-20.11 183.25,-19.51 191.15,-26.57 193.83,-20.11"/>
</g>
<!-- Node7 -->
<g id="node7" class="node">
<title>Node7</title>
<g id="a_node7"><a xlink:href="a00131.html" target="_top" xlink:title=" ">
<polygon fill="white" stroke="black" points="17.5,-56.5 17.5,-75.5 90.5,-75.5 90.5,-56.5 17.5,-56.5"/>
<text text-anchor="middle" x="54" y="-63.5" font-family="Helvetica,sans-Serif" font-size="10.00">ILogger.hpp</text>
</a>
</g>
</g>
<!-- Node1&#45;&gt;Node7 -->
<g id="edge6" class="edge">
<title>Node1&#45;&gt;Node7</title>
<path fill="none" stroke="midnightblue" d="M166.16,-112.4C141.5,-102.42 108.71,-89.15 84.97,-79.53"/>
<polygon fill="midnightblue" stroke="midnightblue" points="85.97,-76.17 75.39,-75.66 83.35,-82.65 85.97,-76.17"/>
</g>
<!-- Node8 -->
<g id="node8" class="node">
<title>Node8</title>
<g id="a_node8"><a xlink:href="a00218.html" target="_top" xlink:title=" ">
<polygon fill="white" stroke="black" points="319.5,-56.5 319.5,-75.5 394.5,-75.5 394.5,-56.5 319.5,-56.5"/>
<text text-anchor="middle" x="357" y="-63.5" font-family="Helvetica,sans-Serif" font-size="10.00">ISetting.hpp</text>
</a>
</g>
</g>
<!-- Node1&#45;&gt;Node8 -->
<g id="edge9" class="edge">
<title>Node1&#45;&gt;Node8</title>
<path fill="none" stroke="midnightblue" d="M237.97,-112.4C264.38,-102.33 299.56,-88.91 324.81,-79.28"/>
<polygon fill="midnightblue" stroke="midnightblue" points="326.2,-82.49 334.3,-75.66 323.71,-75.95 326.2,-82.49"/>
</g>
<!-- Node7&#45;&gt;Node2 -->
<g id="edge8" class="edge">
<title>Node7&#45;&gt;Node2</title>
<path fill="none" stroke="midnightblue" d="M48.72,-56.08C44.29,-48.61 37.84,-37.72 32.38,-28.52"/>
<polygon fill="midnightblue" stroke="midnightblue" points="35.29,-26.57 27.19,-19.75 29.27,-30.14 35.29,-26.57"/>
</g>
<!-- Node7&#45;&gt;Node6 -->
<g id="edge7" class="edge">
<title>Node7&#45;&gt;Node6</title>
<path fill="none" stroke="midnightblue" d="M69.91,-56.32C85.64,-47.74 109.94,-34.49 128.21,-24.52"/>
<polygon fill="midnightblue" stroke="midnightblue" points="130.03,-27.52 137.13,-19.65 126.68,-21.37 130.03,-27.52"/>
</g>
<!-- Node8&#45;&gt;Node3 -->
<g id="edge10" class="edge">
<title>Node8&#45;&gt;Node3</title>
<path fill="none" stroke="midnightblue" d="M346.4,-56.32C336.54,-48.26 321.65,-36.08 309.78,-26.37"/>
<polygon fill="midnightblue" stroke="midnightblue" points="311.75,-23.46 301.8,-19.83 307.32,-28.88 311.75,-23.46"/>
</g>
<!-- Node9 -->
<g id="node9" class="node">
<title>Node9</title>
<g id="a_node9"><a xlink:title=" ">
<polygon fill="white" stroke="#bfbfbf" points="338.5,-0.5 338.5,-19.5 421.5,-19.5 421.5,-0.5 338.5,-0.5"/>
<text text-anchor="middle" x="380" y="-7.5" font-family="Helvetica,sans-Serif" font-size="10.00">libconfig.h++</text>
</a>
</g>
</g>
<!-- Node8&#45;&gt;Node9 -->
<g id="edge11" class="edge">
<title>Node8&#45;&gt;Node9</title>
<path fill="none" stroke="midnightblue" d="M360.8,-56.08C363.91,-48.77 368.42,-38.18 372.29,-29.1"/>
<polygon fill="midnightblue" stroke="midnightblue" points="375.57,-30.32 376.27,-19.75 369.13,-27.58 375.57,-30.32"/>
</g>
</g>
</svg>
