<?xml version="1.0" encoding="UTF-8" standalone="no"?>
<!DOCTYPE svg PUBLIC "-//W3C//DTD SVG 1.1//EN"
 "http://www.w3.org/Graphics/SVG/1.1/DTD/svg11.dtd">
<!-- Generated by graphviz version 2.43.0 (0)
 -->
<!-- Title: /home/runner/work/Raytracer/Raytracer/src/Images/Ray.hpp Pages: 1 -->
<svg width="3536pt" height="496pt"
 viewBox="0.00 0.00 3536.00 496.00" xmlns="http://www.w3.org/2000/svg" xmlns:xlink="http://www.w3.org/1999/xlink">
<g id="graph0" class="graph" transform="scale(1 1) rotate(0) translate(4 492)">
<title>/home/runner/work/Raytracer/Raytracer/src/Images/Ray.hpp</title>
<polygon fill="white" stroke="transparent" points="-4,4 -4,-492 3532,-492 3532,4 -4,4"/>
<!-- Node1 -->
<g id="node1" class="node">
<title>Node1</title>
<g id="a_node1"><a xlink:title=" ">
<polygon fill="#bfbfbf" stroke="black" points="2459,-457.5 2459,-487.5 2623,-487.5 2623,-457.5 2459,-457.5"/>
<text text-anchor="start" x="2467" y="-475.5" font-family="Helvetica,sans-Serif" font-size="10.00">/home/runner/work/Raytracer</text>
<text text-anchor="middle" x="2541" y="-464.5" font-family="Helvetica,sans-Serif" font-size="10.00">/Raytracer/src/Images/Ray.hpp</text>
</a>
</g>
</g>
<!-- Node2 -->
<g id="node2" class="node">
<title>Node2</title>
<g id="a_node2"><a xlink:href="a00077.html" target="_top" xlink:title=" ">
<polygon fill="white" stroke="black" points="1566.5,-379.5 1566.5,-420.5 1725.5,-420.5 1725.5,-379.5 1566.5,-379.5"/>
<text text-anchor="start" x="1574.5" y="-408.5" font-family="Helvetica,sans-Serif" font-size="10.00">/home/runner/work/Raytracer</text>
<text text-anchor="start" x="1574.5" y="-397.5" font-family="Helvetica,sans-Serif" font-size="10.00">/Raytracer/src/Entities</text>
<text text-anchor="middle" x="1646" y="-386.5" font-family="Helvetica,sans-Serif" font-size="10.00">/IMaterial.hpp</text>
</a>
</g>
</g>
<!-- Node1&#45;&gt;Node2 -->
<g id="edge1" class="edge">
<title>Node1&#45;&gt;Node2</title>
<path fill="none" stroke="midnightblue" d="M2448.78,-464.24C2272.68,-450.36 1891.33,-420.32 1725.59,-407.27"/>
<polygon fill="midnightblue" stroke="midnightblue" points="2448.56,-467.73 2458.8,-465.03 2449.11,-460.75 2448.56,-467.73"/>
</g>
<!-- Node3 -->
<g id="node3" class="node">
<title>Node3</title>
<g id="a_node3"><a xlink:href="a00080.html" target="_top" xlink:title=" ">
<polygon fill="white" stroke="black" points="974.5,-301.5 974.5,-342.5 1133.5,-342.5 1133.5,-301.5 974.5,-301.5"/>
<text text-anchor="start" x="982.5" y="-330.5" font-family="Helvetica,sans-Serif" font-size="10.00">/home/runner/work/Raytracer</text>
<text text-anchor="start" x="982.5" y="-319.5" font-family="Helvetica,sans-Serif" font-size="10.00">/Raytracer/src/Entities</text>
<text text-anchor="middle" x="1054" y="-308.5" font-family="Helvetica,sans-Serif" font-size="10.00">/IPrimitive.hpp</text>
</a>
</g>
</g>
<!-- Node1&#45;&gt;Node3 -->
<g id="edge48" class="edge">
<title>Node1&#45;&gt;Node3</title>
<path fill="none" stroke="midnightblue" d="M2448.54,-470.84C2273.78,-468.69 1883.24,-459.57 1557,-421 1405.92,-403.14 1232.24,-365.41 1133.57,-342.33"/>
<polygon fill="midnightblue" stroke="midnightblue" points="2448.68,-474.34 2458.72,-470.96 2448.77,-467.34 2448.68,-474.34"/>
</g>
<!-- Node8 -->
<g id="node8" class="node">
<title>Node8</title>
<g id="a_node8"><a xlink:href="a00272.html" target="_top" xlink:title=" ">
<polygon fill="white" stroke="black" points="0,-223.5 0,-264.5 164,-264.5 164,-223.5 0,-223.5"/>
<text text-anchor="start" x="8" y="-252.5" font-family="Helvetica,sans-Serif" font-size="10.00">/home/runner/work/Raytracer</text>
<text text-anchor="start" x="8" y="-241.5" font-family="Helvetica,sans-Serif" font-size="10.00">/Raytracer/PluginsExt/Cylinder</text>
<text text-anchor="middle" x="82" y="-230.5" font-family="Helvetica,sans-Serif" font-size="10.00">/CylinderEntity.hpp</text>
</a>
</g>
</g>
<!-- Node1&#45;&gt;Node8 -->
<g id="edge59" class="edge">
<title>Node1&#45;&gt;Node8</title>
<path fill="none" stroke="midnightblue" d="M2448.71,-471.82C2207.29,-471.94 1537.34,-467.67 982,-421 725.89,-399.48 660.19,-397.39 409,-343 311.98,-321.99 201.93,-286.52 137.43,-264.51"/>
<polygon fill="midnightblue" stroke="midnightblue" points="2448.85,-475.32 2458.85,-471.81 2448.84,-468.32 2448.85,-475.32"/>
</g>
<!-- Node14 -->
<g id="node14" class="node">
<title>Node14</title>
<g id="a_node14"><a xlink:href="a00290.html" target="_top" xlink:title=" ">
<polygon fill="white" stroke="black" points="182.5,-223.5 182.5,-264.5 383.5,-264.5 383.5,-223.5 182.5,-223.5"/>
<text text-anchor="start" x="190.5" y="-252.5" font-family="Helvetica,sans-Serif" font-size="10.00">/home/runner/work/Raytracer</text>
<text text-anchor="start" x="190.5" y="-241.5" font-family="Helvetica,sans-Serif" font-size="10.00">/Raytracer/PluginsExt/LimitedCylinder</text>
<text text-anchor="middle" x="283" y="-230.5" font-family="Helvetica,sans-Serif" font-size="10.00">/LimitedCylinderEntity.hpp</text>
</a>
</g>
</g>
<!-- Node1&#45;&gt;Node14 -->
<g id="edge60" class="edge">
<title>Node1&#45;&gt;Node14</title>
<path fill="none" stroke="midnightblue" d="M2448.55,-471.1C2242.68,-469.48 1731.03,-461.36 1305,-421 1071.03,-398.84 1013.59,-382.99 782,-343 639.76,-318.44 475.66,-285.28 375.65,-264.52"/>
<polygon fill="midnightblue" stroke="midnightblue" points="2448.69,-474.61 2458.71,-471.18 2448.74,-467.61 2448.69,-474.61"/>
</g>
<!-- Node31 -->
<g id="node31" class="node">
<title>Node31</title>
<g id="a_node31"><a xlink:href="a00260.html" target="_top" xlink:title=" ">
<polygon fill="white" stroke="black" points="1927,-301.5 1927,-342.5 2109,-342.5 2109,-301.5 1927,-301.5"/>
<text text-anchor="start" x="1935" y="-330.5" font-family="Helvetica,sans-Serif" font-size="10.00">/home/runner/work/Raytracer</text>
<text text-anchor="start" x="1935" y="-319.5" font-family="Helvetica,sans-Serif" font-size="10.00">/Raytracer/PluginsExt/ChessBoard</text>
<text text-anchor="middle" x="2018" y="-308.5" font-family="Helvetica,sans-Serif" font-size="10.00">Material/ChessBoardMaterial.hpp</text>
</a>
</g>
</g>
<!-- Node1&#45;&gt;Node31 -->
<g id="edge58" class="edge">
<title>Node1&#45;&gt;Node31</title>
<path fill="none" stroke="midnightblue" d="M2481.62,-454.64C2384.09,-426.95 2190.47,-371.97 2087,-342.59"/>
<polygon fill="midnightblue" stroke="midnightblue" points="2480.75,-458.03 2491.33,-457.4 2482.66,-451.3 2480.75,-458.03"/>
</g>
<!-- Node32 -->
<g id="node32" class="node">
<title>Node32</title>
<g id="a_node32"><a xlink:href="a00299.html" target="_top" xlink:title=" ">
<polygon fill="white" stroke="black" points="2317,-301.5 2317,-342.5 2505,-342.5 2505,-301.5 2317,-301.5"/>
<text text-anchor="start" x="2325" y="-330.5" font-family="Helvetica,sans-Serif" font-size="10.00">/home/runner/work/Raytracer</text>
<text text-anchor="start" x="2325" y="-319.5" font-family="Helvetica,sans-Serif" font-size="10.00">/Raytracer/PluginsExt/PlainMaterial</text>
<text text-anchor="middle" x="2411" y="-308.5" font-family="Helvetica,sans-Serif" font-size="10.00">/PlainMaterial.hpp</text>
</a>
</g>
</g>
<!-- Node1&#45;&gt;Node32 -->
<g id="edge61" class="edge">
<title>Node1&#45;&gt;Node32</title>
<path fill="none" stroke="midnightblue" d="M2521.94,-449.72C2496.65,-420.84 2452.38,-370.27 2428.11,-342.55"/>
<polygon fill="midnightblue" stroke="midnightblue" points="2519.31,-452.04 2528.54,-457.26 2524.58,-447.43 2519.31,-452.04"/>
</g>
<!-- Node33 -->
<g id="node33" class="node">
<title>Node33</title>
<g id="a_node33"><a xlink:href="a00332.html" target="_top" xlink:title=" ">
<polygon fill="white" stroke="black" points="2523.5,-301.5 2523.5,-342.5 2716.5,-342.5 2716.5,-301.5 2523.5,-301.5"/>
<text text-anchor="start" x="2531.5" y="-330.5" font-family="Helvetica,sans-Serif" font-size="10.00">/home/runner/work/Raytracer</text>
<text text-anchor="start" x="2531.5" y="-319.5" font-family="Helvetica,sans-Serif" font-size="10.00">/Raytracer/PluginsExt/ZebraMaterial</text>
<text text-anchor="middle" x="2620" y="-308.5" font-family="Helvetica,sans-Serif" font-size="10.00">/ZebraMaterial.hpp</text>
</a>
</g>
</g>
<!-- Node1&#45;&gt;Node33 -->
<g id="edge62" class="edge">
<title>Node1&#45;&gt;Node33</title>
<path fill="none" stroke="midnightblue" d="M2553.38,-448.22C2568.87,-419.11 2595.11,-369.79 2609.6,-342.55"/>
<polygon fill="midnightblue" stroke="midnightblue" points="2550.18,-446.79 2548.57,-457.26 2556.36,-450.08 2550.18,-446.79"/>
</g>
<!-- Node34 -->
<g id="node34" class="node">
<title>Node34</title>
<g id="a_node34"><a xlink:href="a00131.html" target="_top" xlink:title=" ">
<polygon fill="white" stroke="black" points="2825,-385 2825,-415 3029,-415 3029,-385 2825,-385"/>
<text text-anchor="start" x="2833" y="-403" font-family="Helvetica,sans-Serif" font-size="10.00">/home/runner/work/Raytracer</text>
<text text-anchor="middle" x="2927" y="-392" font-family="Helvetica,sans-Serif" font-size="10.00">/Raytracer/src/Images/IRayIterator.hpp</text>
</a>
</g>
</g>
<!-- Node1&#45;&gt;Node34 -->
<g id="edge49" class="edge">
<title>Node1&#45;&gt;Node34</title>
<path fill="none" stroke="midnightblue" d="M2627.8,-455.65C2694.56,-443.45 2785.94,-426.76 2850.09,-415.05"/>
<polygon fill="midnightblue" stroke="midnightblue" points="2626.93,-452.25 2617.72,-457.49 2628.19,-459.13 2626.93,-452.25"/>
</g>
<!-- Node36 -->
<g id="node36" class="node">
<title>Node36</title>
<g id="a_node36"><a xlink:href="a00140.html" target="_top" xlink:title=" ">
<polygon fill="white" stroke="black" points="2734.5,-307 2734.5,-337 2939.5,-337 2939.5,-307 2734.5,-307"/>
<text text-anchor="start" x="2742.5" y="-325" font-family="Helvetica,sans-Serif" font-size="10.00">/home/runner/work/Raytracer</text>
<text text-anchor="middle" x="2837" y="-314" font-family="Helvetica,sans-Serif" font-size="10.00">/Raytracer/src/Images/RayIterrator.hpp</text>
</a>
</g>
</g>
<!-- Node1&#45;&gt;Node36 -->
<g id="edge55" class="edge">
<title>Node1&#45;&gt;Node36</title>
<path fill="none" stroke="midnightblue" d="M2578.26,-452.81C2638.4,-422.64 2755.53,-363.87 2809.07,-337.01"/>
<polygon fill="midnightblue" stroke="midnightblue" points="2576.48,-449.78 2569.11,-457.4 2579.62,-456.04 2576.48,-449.78"/>
</g>
<!-- Node37 -->
<g id="node37" class="node">
<title>Node37</title>
<g id="a_node37"><a xlink:href="a00245.html" target="_top" xlink:title=" ">
<polygon fill="white" stroke="black" points="3152.5,-301.5 3152.5,-342.5 3319.5,-342.5 3319.5,-301.5 3152.5,-301.5"/>
<text text-anchor="start" x="3160.5" y="-330.5" font-family="Helvetica,sans-Serif" font-size="10.00">/home/runner/work/Raytracer</text>
<text text-anchor="start" x="3160.5" y="-319.5" font-family="Helvetica,sans-Serif" font-size="10.00">/Raytracer/PluginsExt/Camera</text>
<text text-anchor="middle" x="3236" y="-308.5" font-family="Helvetica,sans-Serif" font-size="10.00">/Cluster/ClusterRayIterator.hpp</text>
</a>
</g>
</g>
<!-- Node1&#45;&gt;Node37 -->
<g id="edge56" class="edge">
<title>Node1&#45;&gt;Node37</title>
<path fill="none" stroke="midnightblue" d="M2633.36,-469.35C2756.87,-465.24 2968.37,-453.56 3038,-421 3062.2,-409.68 3058.37,-393.19 3081,-379 3105.72,-363.49 3135.35,-351.45 3162.05,-342.58"/>
<polygon fill="midnightblue" stroke="midnightblue" points="2633.04,-465.86 2623.15,-469.68 2633.26,-472.85 2633.04,-465.86"/>
</g>
<!-- Node38 -->
<g id="node38" class="node">
<title>Node38</title>
<g id="a_node38"><a xlink:href="a00254.html" target="_top" xlink:title=" ">
<polygon fill="white" stroke="black" points="3338,-301.5 3338,-342.5 3528,-342.5 3528,-301.5 3338,-301.5"/>
<text text-anchor="start" x="3346" y="-330.5" font-family="Helvetica,sans-Serif" font-size="10.00">/home/runner/work/Raytracer</text>
<text text-anchor="start" x="3346" y="-319.5" font-family="Helvetica,sans-Serif" font-size="10.00">/Raytracer/PluginsExt/Camera</text>
<text text-anchor="middle" x="3433" y="-308.5" font-family="Helvetica,sans-Serif" font-size="10.00">/FullCustom/CustomRayIterator.hpp</text>
</a>
</g>
</g>
<!-- Node1&#45;&gt;Node38 -->
<g id="edge57" class="edge">
<title>Node1&#45;&gt;Node38</title>
<path fill="none" stroke="midnightblue" d="M2633.24,-470.33C2764.48,-467.39 2997.54,-457.08 3073,-421 3096.53,-409.75 3090.88,-391.08 3114,-379 3199.86,-334.12 3233.64,-360.15 3329,-343 3331.9,-342.48 3334.84,-341.95 3337.8,-341.4"/>
<polygon fill="midnightblue" stroke="midnightblue" points="2633.12,-466.83 2623.2,-470.54 2633.27,-473.83 2633.12,-466.83"/>
</g>
<!-- Node39 -->
<g id="node39" class="node">
<title>Node39</title>
<g id="a_node39"><a xlink:href="a00134.html" target="_top" xlink:title=" ">
<polygon fill="white" stroke="black" points="3123,-385 3123,-415 3327,-415 3327,-385 3123,-385"/>
<text text-anchor="start" x="3131" y="-403" font-family="Helvetica,sans-Serif" font-size="10.00">/home/runner/work/Raytracer</text>
<text text-anchor="middle" x="3225" y="-392" font-family="Helvetica,sans-Serif" font-size="10.00">/Raytracer/src/Images/PixelThread.hpp</text>
</a>
</g>
</g>
<!-- Node1&#45;&gt;Node39 -->
<g id="edge54" class="edge">
<title>Node1&#45;&gt;Node39</title>
<path fill="none" stroke="midnightblue" d="M2633.36,-465.63C2745.97,-457.93 2941.93,-442.79 3109,-421 3121.97,-419.31 3135.7,-417.21 3149.01,-415.02"/>
<polygon fill="midnightblue" stroke="midnightblue" points="2632.8,-462.16 2623.06,-466.33 2633.28,-469.14 2632.8,-462.16"/>
</g>
<!-- Node2&#45;&gt;Node3 -->
<g id="edge2" class="edge">
<title>Node2&#45;&gt;Node3</title>
<path fill="none" stroke="midnightblue" d="M1556.28,-387.48C1441.25,-372.71 1243.54,-347.33 1133.61,-333.22"/>
<polygon fill="midnightblue" stroke="midnightblue" points="1556.1,-390.99 1566.47,-388.79 1556.99,-384.04 1556.1,-390.99"/>
</g>
<!-- Node6 -->
<g id="node6" class="node">
<title>Node6</title>
<g id="a_node6"><a xlink:href="a00266.html" target="_top" xlink:title=" ">
<polygon fill="white" stroke="black" points="797.5,-223.5 797.5,-264.5 956.5,-264.5 956.5,-223.5 797.5,-223.5"/>
<text text-anchor="start" x="805.5" y="-252.5" font-family="Helvetica,sans-Serif" font-size="10.00">/home/runner/work/Raytracer</text>
<text text-anchor="start" x="805.5" y="-241.5" font-family="Helvetica,sans-Serif" font-size="10.00">/Raytracer/PluginsExt/Cone</text>
<text text-anchor="middle" x="877" y="-230.5" font-family="Helvetica,sans-Serif" font-size="10.00">/ConeEntity.hpp</text>
</a>
</g>
</g>
<!-- Node2&#45;&gt;Node6 -->
<g id="edge37" class="edge">
<title>Node2&#45;&gt;Node6</title>
<path fill="none" stroke="midnightblue" d="M1556.36,-391.3C1477.06,-383.25 1358.67,-368.21 1258,-343 1204.81,-329.68 1194.79,-315.84 1142,-301 1064.72,-279.28 1043.48,-281.9 965,-265 962.24,-264.41 959.44,-263.8 956.61,-263.18"/>
<polygon fill="midnightblue" stroke="midnightblue" points="1556.01,-394.78 1566.31,-392.29 1556.71,-387.82 1556.01,-394.78"/>
</g>
<!-- Node2&#45;&gt;Node8 -->
<g id="edge38" class="edge">
<title>Node2&#45;&gt;Node8</title>
<path fill="none" stroke="midnightblue" d="M1556.33,-395.94C1325.43,-386.94 692.12,-355.33 173,-265 170.13,-264.5 167.22,-263.97 164.28,-263.42"/>
<polygon fill="midnightblue" stroke="midnightblue" points="1556.24,-399.43 1566.36,-396.32 1556.51,-392.44 1556.24,-399.43"/>
</g>
<!-- Node10 -->
<g id="node10" class="node">
<title>Node10</title>
<g id="a_node10"><a xlink:href="a00278.html" target="_top" xlink:title=" ">
<polygon fill="white" stroke="black" points="974.5,-223.5 974.5,-264.5 1133.5,-264.5 1133.5,-223.5 974.5,-223.5"/>
<text text-anchor="start" x="982.5" y="-252.5" font-family="Helvetica,sans-Serif" font-size="10.00">/home/runner/work/Raytracer</text>
<text text-anchor="start" x="982.5" y="-241.5" font-family="Helvetica,sans-Serif" font-size="10.00">/Raytracer/PluginsExt/Disk</text>
<text text-anchor="middle" x="1054" y="-230.5" font-family="Helvetica,sans-Serif" font-size="10.00">/DiskEntity.hpp</text>
</a>
</g>
</g>
<!-- Node2&#45;&gt;Node10 -->
<g id="edge39" class="edge">
<title>Node2&#45;&gt;Node10</title>
<path fill="none" stroke="midnightblue" d="M1556.42,-380.79C1508.34,-370.57 1448.19,-357.06 1395,-343 1333.43,-326.72 1319.16,-318.76 1258,-301 1214.8,-288.45 1166.23,-275.09 1127.32,-264.57"/>
<polygon fill="midnightblue" stroke="midnightblue" points="1555.98,-384.27 1566.48,-382.92 1557.43,-377.42 1555.98,-384.27"/>
</g>
<!-- Node2&#45;&gt;Node14 -->
<g id="edge40" class="edge">
<title>Node2&#45;&gt;Node14</title>
<path fill="none" stroke="midnightblue" d="M1556.04,-395.72C1425.27,-390.01 1175.3,-375.61 965,-343 882.54,-330.21 864.4,-314.2 782,-301 610.12,-273.47 564.44,-288.73 392,-265 389.24,-264.62 386.44,-264.22 383.61,-263.8"/>
<polygon fill="midnightblue" stroke="midnightblue" points="1556.26,-399.23 1566.4,-396.16 1556.56,-392.24 1556.26,-399.23"/>
</g>
<!-- Node16 -->
<g id="node16" class="node">
<title>Node16</title>
<g id="a_node16"><a xlink:href="a00296.html" target="_top" xlink:title=" ">
<polygon fill="white" stroke="black" points="1152,-223.5 1152,-264.5 1340,-264.5 1340,-223.5 1152,-223.5"/>
<text text-anchor="start" x="1160" y="-252.5" font-family="Helvetica,sans-Serif" font-size="10.00">/home/runner/work/Raytracer</text>
<text text-anchor="start" x="1160" y="-241.5" font-family="Helvetica,sans-Serif" font-size="10.00">/Raytracer/PluginsExt/LimitedPlane</text>
<text text-anchor="middle" x="1246" y="-230.5" font-family="Helvetica,sans-Serif" font-size="10.00">/LimitedPlaneEntity.hpp</text>
</a>
</g>
</g>
<!-- Node2&#45;&gt;Node16 -->
<g id="edge41" class="edge">
<title>Node2&#45;&gt;Node16</title>
<path fill="none" stroke="midnightblue" d="M1585.56,-375.73C1506.84,-345.42 1370.59,-292.97 1296.88,-264.59"/>
<polygon fill="midnightblue" stroke="midnightblue" points="1584.75,-379.17 1595.34,-379.5 1587.27,-372.64 1584.75,-379.17"/>
</g>
<!-- Node18 -->
<g id="node18" class="node">
<title>Node18</title>
<g id="a_node18"><a xlink:href="a00308.html" target="_top" xlink:title=" ">
<polygon fill="white" stroke="black" points="1358.5,-223.5 1358.5,-264.5 1517.5,-264.5 1517.5,-223.5 1358.5,-223.5"/>
<text text-anchor="start" x="1366.5" y="-252.5" font-family="Helvetica,sans-Serif" font-size="10.00">/home/runner/work/Raytracer</text>
<text text-anchor="start" x="1366.5" y="-241.5" font-family="Helvetica,sans-Serif" font-size="10.00">/Raytracer/PluginsExt/Plane</text>
<text text-anchor="middle" x="1438" y="-230.5" font-family="Helvetica,sans-Serif" font-size="10.00">/PlaneEntity.hpp</text>
</a>
</g>
</g>
<!-- Node2&#45;&gt;Node18 -->
<g id="edge44" class="edge">
<title>Node2&#45;&gt;Node18</title>
<path fill="none" stroke="midnightblue" d="M1611.52,-373.47C1570.19,-342.87 1501.85,-292.27 1464.46,-264.59"/>
<polygon fill="midnightblue" stroke="midnightblue" points="1609.54,-376.36 1619.66,-379.5 1613.7,-370.73 1609.54,-376.36"/>
</g>
<!-- Node20 -->
<g id="node20" class="node">
<title>Node20</title>
<g id="a_node20"><a xlink:href="a00320.html" target="_top" xlink:title=" ">
<polygon fill="white" stroke="black" points="1535.5,-223.5 1535.5,-264.5 1694.5,-264.5 1694.5,-223.5 1535.5,-223.5"/>
<text text-anchor="start" x="1543.5" y="-252.5" font-family="Helvetica,sans-Serif" font-size="10.00">/home/runner/work/Raytracer</text>
<text text-anchor="start" x="1543.5" y="-241.5" font-family="Helvetica,sans-Serif" font-size="10.00">/Raytracer/PluginsExt/Sphere</text>
<text text-anchor="middle" x="1615" y="-230.5" font-family="Helvetica,sans-Serif" font-size="10.00">/SphereEntity.hpp</text>
</a>
</g>
</g>
<!-- Node2&#45;&gt;Node20 -->
<g id="edge45" class="edge">
<title>Node2&#45;&gt;Node20</title>
<path fill="none" stroke="midnightblue" d="M1638.19,-369.5C1636.06,-360.97 1633.83,-351.64 1632,-343 1626.28,-315.97 1621.07,-284.45 1617.97,-264.6"/>
<polygon fill="midnightblue" stroke="midnightblue" points="1634.85,-370.56 1640.72,-379.39 1641.64,-368.83 1634.85,-370.56"/>
</g>
<!-- Node22 -->
<g id="node22" class="node">
<title>Node22</title>
<g id="a_node22"><a xlink:href="a00107.html" target="_top" xlink:title=" ">
<polygon fill="white" stroke="black" points="1749.5,-301.5 1749.5,-342.5 1908.5,-342.5 1908.5,-301.5 1749.5,-301.5"/>
<text text-anchor="start" x="1757.5" y="-330.5" font-family="Helvetica,sans-Serif" font-size="10.00">/home/runner/work/Raytracer</text>
<text text-anchor="start" x="1757.5" y="-319.5" font-family="Helvetica,sans-Serif" font-size="10.00">/Raytracer/src/Factories</text>
<text text-anchor="middle" x="1829" y="-308.5" font-family="Helvetica,sans-Serif" font-size="10.00">/IMaterialFactory.hpp</text>
</a>
</g>
</g>
<!-- Node2&#45;&gt;Node22 -->
<g id="edge21" class="edge">
<title>Node2&#45;&gt;Node22</title>
<path fill="none" stroke="midnightblue" d="M1702.66,-375.47C1728.13,-364.89 1757.83,-352.56 1782.03,-342.51"/>
<polygon fill="midnightblue" stroke="midnightblue" points="1701.02,-372.36 1693.13,-379.43 1703.7,-378.82 1701.02,-372.36"/>
</g>
<!-- Node23 -->
<g id="node23" class="node">
<title>Node23</title>
<g id="a_node23"><a xlink:href="a00110.html" target="_top" xlink:title=" ">
<polygon fill="white" stroke="black" points="1866.5,-145.5 1866.5,-186.5 2025.5,-186.5 2025.5,-145.5 1866.5,-145.5"/>
<text text-anchor="start" x="1874.5" y="-174.5" font-family="Helvetica,sans-Serif" font-size="10.00">/home/runner/work/Raytracer</text>
<text text-anchor="start" x="1874.5" y="-163.5" font-family="Helvetica,sans-Serif" font-size="10.00">/Raytracer/src/Factories</text>
<text text-anchor="middle" x="1946" y="-152.5" font-family="Helvetica,sans-Serif" font-size="10.00">/MaterialFactory.hpp</text>
</a>
</g>
</g>
<!-- Node2&#45;&gt;Node23 -->
<g id="edge25" class="edge">
<title>Node2&#45;&gt;Node23</title>
<path fill="none" stroke="midnightblue" d="M1675.39,-372.39C1685.05,-363.3 1695.7,-352.92 1705,-343 1721.62,-325.27 1719.06,-313.32 1740,-301 1814.08,-257.43 1870,-326.54 1930,-265 1950.1,-244.39 1950.78,-208.96 1948.83,-186.82"/>
<polygon fill="midnightblue" stroke="midnightblue" points="1672.82,-369.99 1667.89,-379.36 1677.59,-375.11 1672.82,-369.99"/>
</g>
<!-- Node24 -->
<g id="node24" class="node">
<title>Node24</title>
<g id="a_node24"><a xlink:href="a00179.html" target="_top" xlink:title=" ">
<polygon fill="white" stroke="black" points="1750.5,-67.5 1750.5,-108.5 1921.5,-108.5 1921.5,-67.5 1750.5,-67.5"/>
<text text-anchor="start" x="1758.5" y="-96.5" font-family="Helvetica,sans-Serif" font-size="10.00">/home/runner/work/Raytracer</text>
<text text-anchor="start" x="1758.5" y="-85.5" font-family="Helvetica,sans-Serif" font-size="10.00">/Raytracer/src/Plugins/Materials</text>
<text text-anchor="middle" x="1836" y="-74.5" font-family="Helvetica,sans-Serif" font-size="10.00">/MaterialLoader.hpp</text>
</a>
</g>
</g>
<!-- Node2&#45;&gt;Node24 -->
<g id="edge34" class="edge">
<title>Node2&#45;&gt;Node24</title>
<path fill="none" stroke="midnightblue" d="M1649.38,-369.02C1652.58,-348.86 1658.66,-322.21 1670,-301 1680.24,-281.86 1689.11,-281.68 1703,-265 1748.72,-210.12 1798.41,-141.79 1822.02,-108.74"/>
<polygon fill="midnightblue" stroke="midnightblue" points="1645.88,-368.79 1647.92,-379.19 1652.8,-369.78 1645.88,-368.79"/>
</g>
<!-- Node26 -->
<g id="node26" class="node">
<title>Node26</title>
<g id="a_node26"><a xlink:href="a00173.html" target="_top" xlink:title=" ">
<polygon fill="white" stroke="black" points="2127.5,-301.5 2127.5,-342.5 2298.5,-342.5 2298.5,-301.5 2127.5,-301.5"/>
<text text-anchor="start" x="2135.5" y="-330.5" font-family="Helvetica,sans-Serif" font-size="10.00">/home/runner/work/Raytracer</text>
<text text-anchor="start" x="2135.5" y="-319.5" font-family="Helvetica,sans-Serif" font-size="10.00">/Raytracer/src/Plugins/Materials</text>
<text text-anchor="middle" x="2213" y="-308.5" font-family="Helvetica,sans-Serif" font-size="10.00">/IMaterialCreator.hpp</text>
</a>
</g>
</g>
<!-- Node2&#45;&gt;Node26 -->
<g id="edge26" class="edge">
<title>Node2&#45;&gt;Node26</title>
<path fill="none" stroke="midnightblue" d="M1735.81,-390.76C1831.02,-381.46 1985.62,-364.74 2118,-343 2121.08,-342.49 2124.21,-341.96 2127.36,-341.4"/>
<polygon fill="midnightblue" stroke="midnightblue" points="1735.26,-387.29 1725.64,-391.74 1735.93,-394.26 1735.26,-387.29"/>
</g>
<!-- Node27 -->
<g id="node27" class="node">
<title>Node27</title>
<g id="a_node27"><a xlink:href="a00176.html" target="_top" xlink:title=" ">
<polygon fill="white" stroke="black" points="1750.5,-223.5 1750.5,-264.5 1921.5,-264.5 1921.5,-223.5 1750.5,-223.5"/>
<text text-anchor="start" x="1758.5" y="-252.5" font-family="Helvetica,sans-Serif" font-size="10.00">/home/runner/work/Raytracer</text>
<text text-anchor="start" x="1758.5" y="-241.5" font-family="Helvetica,sans-Serif" font-size="10.00">/Raytracer/src/Plugins/Materials</text>
<text text-anchor="middle" x="1836" y="-230.5" font-family="Helvetica,sans-Serif" font-size="10.00">/MaterialHandler.hpp</text>
</a>
</g>
</g>
<!-- Node2&#45;&gt;Node27 -->
<g id="edge33" class="edge">
<title>Node2&#45;&gt;Node27</title>
<path fill="none" stroke="midnightblue" d="M1658.6,-369.96C1669.15,-348.52 1686.01,-319.88 1708,-301 1726.31,-285.28 1749.72,-273.32 1771.51,-264.57"/>
<polygon fill="midnightblue" stroke="midnightblue" points="1655.32,-368.72 1654.2,-379.25 1661.64,-371.71 1655.32,-368.72"/>
</g>
<!-- Node2&#45;&gt;Node31 -->
<g id="edge35" class="edge">
<title>Node2&#45;&gt;Node31</title>
<path fill="none" stroke="midnightblue" d="M1735.67,-380.68C1793.58,-368.85 1868.69,-353.5 1926.88,-341.62"/>
<polygon fill="midnightblue" stroke="midnightblue" points="1734.9,-377.27 1725.8,-382.7 1736.3,-384.12 1734.9,-377.27"/>
</g>
<!-- Node2&#45;&gt;Node32 -->
<g id="edge42" class="edge">
<title>Node2&#45;&gt;Node32</title>
<path fill="none" stroke="midnightblue" d="M1735.77,-394.4C1863.21,-387.2 2103.73,-371.08 2307,-343 2310.28,-342.55 2313.61,-342.06 2316.97,-341.54"/>
<polygon fill="midnightblue" stroke="midnightblue" points="1735.45,-390.92 1725.66,-394.97 1735.84,-397.91 1735.45,-390.92"/>
</g>
<!-- Node2&#45;&gt;Node33 -->
<g id="edge46" class="edge">
<title>Node2&#45;&gt;Node33</title>
<path fill="none" stroke="midnightblue" d="M1735.73,-396.82C1893.63,-392.18 2231.24,-378.66 2514,-343 2517.07,-342.61 2520.18,-342.19 2523.31,-341.75"/>
<polygon fill="midnightblue" stroke="midnightblue" points="1735.49,-393.32 1725.59,-397.11 1735.69,-400.32 1735.49,-393.32"/>
</g>
<!-- Node4 -->
<g id="node4" class="node">
<title>Node4</title>
<g id="a_node4"><a xlink:href="a00209.html" target="_top" xlink:title=" ">
<polygon fill="white" stroke="black" points="604.5,-229 604.5,-259 779.5,-259 779.5,-229 604.5,-229"/>
<text text-anchor="start" x="612.5" y="-247" font-family="Helvetica,sans-Serif" font-size="10.00">/home/runner/work/Raytracer</text>
<text text-anchor="middle" x="692" y="-236" font-family="Helvetica,sans-Serif" font-size="10.00">/Raytracer/src/Scenes/Scene.hpp</text>
</a>
</g>
</g>
<!-- Node3&#45;&gt;Node4 -->
<g id="edge3" class="edge">
<title>Node3&#45;&gt;Node4</title>
<path fill="none" stroke="midnightblue" d="M964.09,-302.12C900.52,-288.78 816.67,-271.17 758.95,-259.05"/>
<polygon fill="midnightblue" stroke="midnightblue" points="963.6,-305.6 974.11,-304.23 965.04,-298.75 963.6,-305.6"/>
</g>
<!-- Node3&#45;&gt;Node6 -->
<g id="edge5" class="edge">
<title>Node3&#45;&gt;Node6</title>
<path fill="none" stroke="midnightblue" d="M999.2,-297.47C974.56,-286.89 945.84,-274.56 922.43,-264.51"/>
<polygon fill="midnightblue" stroke="midnightblue" points="997.85,-300.7 1008.42,-301.43 1000.61,-294.27 997.85,-300.7"/>
</g>
<!-- Node3&#45;&gt;Node8 -->
<g id="edge7" class="edge">
<title>Node3&#45;&gt;Node8</title>
<path fill="none" stroke="midnightblue" d="M964.35,-317.05C771.78,-308.27 323.87,-286.25 173,-265 170.12,-264.59 167.19,-264.15 164.24,-263.66"/>
<polygon fill="midnightblue" stroke="midnightblue" points="964.29,-320.55 974.44,-317.5 964.61,-313.55 964.29,-320.55"/>
</g>
<!-- Node3&#45;&gt;Node10 -->
<g id="edge9" class="edge">
<title>Node3&#45;&gt;Node10</title>
<path fill="none" stroke="midnightblue" d="M1054,-291.3C1054,-282.3 1054,-272.65 1054,-264.51"/>
<polygon fill="midnightblue" stroke="midnightblue" points="1050.5,-291.43 1054,-301.43 1057.5,-291.43 1050.5,-291.43"/>
</g>
<!-- Node12 -->
<g id="node12" class="node">
<title>Node12</title>
<g id="a_node12"><a xlink:href="a00284.html" target="_top" xlink:title=" ">
<polygon fill="white" stroke="black" points="401.5,-223.5 401.5,-264.5 586.5,-264.5 586.5,-223.5 401.5,-223.5"/>
<text text-anchor="start" x="409.5" y="-252.5" font-family="Helvetica,sans-Serif" font-size="10.00">/home/runner/work/Raytracer</text>
<text text-anchor="start" x="409.5" y="-241.5" font-family="Helvetica,sans-Serif" font-size="10.00">/Raytracer/PluginsExt/LimitedCone</text>
<text text-anchor="middle" x="494" y="-230.5" font-family="Helvetica,sans-Serif" font-size="10.00">/LimitedConeEntity.hpp</text>
</a>
</g>
</g>
<!-- Node3&#45;&gt;Node12 -->
<g id="edge11" class="edge">
<title>Node3&#45;&gt;Node12</title>
<path fill="none" stroke="midnightblue" d="M964.18,-307.77C947.51,-305.43 930.24,-303.08 914,-301 772.47,-282.91 735.99,-286.88 595,-265 592.26,-264.58 589.49,-264.13 586.68,-263.66"/>
<polygon fill="midnightblue" stroke="midnightblue" points="964.07,-311.29 974.47,-309.22 965.05,-304.36 964.07,-311.29"/>
</g>
<!-- Node3&#45;&gt;Node14 -->
<g id="edge13" class="edge">
<title>Node3&#45;&gt;Node14</title>
<path fill="none" stroke="midnightblue" d="M963.94,-307.14C947.36,-304.88 930.18,-302.71 914,-301 682.74,-276.54 622.73,-294.03 392,-265 389.23,-264.65 386.43,-264.28 383.6,-263.89"/>
<polygon fill="midnightblue" stroke="midnightblue" points="963.78,-310.66 974.17,-308.57 964.75,-303.72 963.78,-310.66"/>
</g>
<!-- Node3&#45;&gt;Node16 -->
<g id="edge15" class="edge">
<title>Node3&#45;&gt;Node16</title>
<path fill="none" stroke="midnightblue" d="M1113.09,-297.61C1139.89,-287 1171.22,-274.6 1196.72,-264.51"/>
<polygon fill="midnightblue" stroke="midnightblue" points="1111.45,-294.49 1103.44,-301.43 1114.03,-301 1111.45,-294.49"/>
</g>
<!-- Node3&#45;&gt;Node18 -->
<g id="edge17" class="edge">
<title>Node3&#45;&gt;Node18</title>
<path fill="none" stroke="midnightblue" d="M1143.61,-304.79C1202.16,-294.01 1280.24,-279.25 1349,-265 1352.1,-264.36 1355.26,-263.69 1358.45,-263.01"/>
<polygon fill="midnightblue" stroke="midnightblue" points="1142.85,-301.38 1133.65,-306.63 1144.12,-308.26 1142.85,-301.38"/>
</g>
<!-- Node3&#45;&gt;Node20 -->
<g id="edge19" class="edge">
<title>Node3&#45;&gt;Node20</title>
<path fill="none" stroke="midnightblue" d="M1143.87,-313.11C1239.13,-304.11 1393.77,-287.64 1526,-265 1528.97,-264.49 1531.98,-263.95 1535.02,-263.38"/>
<polygon fill="midnightblue" stroke="midnightblue" points="1143.33,-309.65 1133.7,-314.07 1143.98,-316.62 1143.33,-309.65"/>
</g>
<!-- Node5 -->
<g id="node5" class="node">
<title>Node5</title>
<g id="a_node5"><a xlink:href="a00146.html" target="_top" xlink:title=" ">
<polygon fill="white" stroke="black" points="612.5,-151 612.5,-181 771.5,-181 771.5,-151 612.5,-151"/>
<text text-anchor="start" x="620.5" y="-169" font-family="Helvetica,sans-Serif" font-size="10.00">/home/runner/work/Raytracer</text>
<text text-anchor="middle" x="692" y="-158" font-family="Helvetica,sans-Serif" font-size="10.00">/Raytracer/src/Main.hpp</text>
</a>
</g>
</g>
<!-- Node4&#45;&gt;Node5 -->
<g id="edge4" class="edge">
<title>Node4&#45;&gt;Node5</title>
<path fill="none" stroke="midnightblue" d="M692,-218.59C692,-206.26 692,-191.72 692,-181.23"/>
<polygon fill="midnightblue" stroke="midnightblue" points="688.5,-218.7 692,-228.7 695.5,-218.71 688.5,-218.7"/>
</g>
<!-- Node7 -->
<g id="node7" class="node">
<title>Node7</title>
<g id="a_node7"><a xlink:href="a00263.html" target="_top" xlink:title=" ">
<polygon fill="white" stroke="black" points="797.5,-145.5 797.5,-186.5 956.5,-186.5 956.5,-145.5 797.5,-145.5"/>
<text text-anchor="start" x="805.5" y="-174.5" font-family="Helvetica,sans-Serif" font-size="10.00">/home/runner/work/Raytracer</text>
<text text-anchor="start" x="805.5" y="-163.5" font-family="Helvetica,sans-Serif" font-size="10.00">/Raytracer/PluginsExt/Cone</text>
<text text-anchor="middle" x="877" y="-152.5" font-family="Helvetica,sans-Serif" font-size="10.00">/ConeCreator.hpp</text>
</a>
</g>
</g>
<!-- Node6&#45;&gt;Node7 -->
<g id="edge6" class="edge">
<title>Node6&#45;&gt;Node7</title>
<path fill="none" stroke="midnightblue" d="M877,-213.3C877,-204.3 877,-194.65 877,-186.51"/>
<polygon fill="midnightblue" stroke="midnightblue" points="873.5,-213.43 877,-223.43 880.5,-213.43 873.5,-213.43"/>
</g>
<!-- Node9 -->
<g id="node9" class="node">
<title>Node9</title>
<g id="a_node9"><a xlink:href="a00269.html" target="_top" xlink:title=" ">
<polygon fill="white" stroke="black" points="0,-145.5 0,-186.5 164,-186.5 164,-145.5 0,-145.5"/>
<text text-anchor="start" x="8" y="-174.5" font-family="Helvetica,sans-Serif" font-size="10.00">/home/runner/work/Raytracer</text>
<text text-anchor="start" x="8" y="-163.5" font-family="Helvetica,sans-Serif" font-size="10.00">/Raytracer/PluginsExt/Cylinder</text>
<text text-anchor="middle" x="82" y="-152.5" font-family="Helvetica,sans-Serif" font-size="10.00">/CylinderCreator.hpp</text>
</a>
</g>
</g>
<!-- Node8&#45;&gt;Node9 -->
<g id="edge8" class="edge">
<title>Node8&#45;&gt;Node9</title>
<path fill="none" stroke="midnightblue" d="M82,-213.3C82,-204.3 82,-194.65 82,-186.51"/>
<polygon fill="midnightblue" stroke="midnightblue" points="78.5,-213.43 82,-223.43 85.5,-213.43 78.5,-213.43"/>
</g>
<!-- Node11 -->
<g id="node11" class="node">
<title>Node11</title>
<g id="a_node11"><a xlink:href="a00275.html" target="_top" xlink:title=" ">
<polygon fill="white" stroke="black" points="974.5,-145.5 974.5,-186.5 1133.5,-186.5 1133.5,-145.5 974.5,-145.5"/>
<text text-anchor="start" x="982.5" y="-174.5" font-family="Helvetica,sans-Serif" font-size="10.00">/home/runner/work/Raytracer</text>
<text text-anchor="start" x="982.5" y="-163.5" font-family="Helvetica,sans-Serif" font-size="10.00">/Raytracer/PluginsExt/Disk</text>
<text text-anchor="middle" x="1054" y="-152.5" font-family="Helvetica,sans-Serif" font-size="10.00">/DiskCreator.hpp</text>
</a>
</g>
</g>
<!-- Node10&#45;&gt;Node11 -->
<g id="edge10" class="edge">
<title>Node10&#45;&gt;Node11</title>
<path fill="none" stroke="midnightblue" d="M1054,-213.3C1054,-204.3 1054,-194.65 1054,-186.51"/>
<polygon fill="midnightblue" stroke="midnightblue" points="1050.5,-213.43 1054,-223.43 1057.5,-213.43 1050.5,-213.43"/>
</g>
<!-- Node13 -->
<g id="node13" class="node">
<title>Node13</title>
<g id="a_node13"><a xlink:href="a00281.html" target="_top" xlink:title=" ">
<polygon fill="white" stroke="black" points="401.5,-145.5 401.5,-186.5 586.5,-186.5 586.5,-145.5 401.5,-145.5"/>
<text text-anchor="start" x="409.5" y="-174.5" font-family="Helvetica,sans-Serif" font-size="10.00">/home/runner/work/Raytracer</text>
<text text-anchor="start" x="409.5" y="-163.5" font-family="Helvetica,sans-Serif" font-size="10.00">/Raytracer/PluginsExt/LimitedCone</text>
<text text-anchor="middle" x="494" y="-152.5" font-family="Helvetica,sans-Serif" font-size="10.00">/LimitedConeCreator.hpp</text>
</a>
</g>
</g>
<!-- Node12&#45;&gt;Node13 -->
<g id="edge12" class="edge">
<title>Node12&#45;&gt;Node13</title>
<path fill="none" stroke="midnightblue" d="M494,-213.3C494,-204.3 494,-194.65 494,-186.51"/>
<polygon fill="midnightblue" stroke="midnightblue" points="490.5,-213.43 494,-223.43 497.5,-213.43 490.5,-213.43"/>
</g>
<!-- Node15 -->
<g id="node15" class="node">
<title>Node15</title>
<g id="a_node15"><a xlink:href="a00287.html" target="_top" xlink:title=" ">
<polygon fill="white" stroke="black" points="182.5,-145.5 182.5,-186.5 383.5,-186.5 383.5,-145.5 182.5,-145.5"/>
<text text-anchor="start" x="190.5" y="-174.5" font-family="Helvetica,sans-Serif" font-size="10.00">/home/runner/work/Raytracer</text>
<text text-anchor="start" x="190.5" y="-163.5" font-family="Helvetica,sans-Serif" font-size="10.00">/Raytracer/PluginsExt/LimitedCylinder</text>
<text text-anchor="middle" x="283" y="-152.5" font-family="Helvetica,sans-Serif" font-size="10.00">/LimitedCylinderCreator.hpp</text>
</a>
</g>
</g>
<!-- Node14&#45;&gt;Node15 -->
<g id="edge14" class="edge">
<title>Node14&#45;&gt;Node15</title>
<path fill="none" stroke="midnightblue" d="M283,-213.3C283,-204.3 283,-194.65 283,-186.51"/>
<polygon fill="midnightblue" stroke="midnightblue" points="279.5,-213.43 283,-223.43 286.5,-213.43 279.5,-213.43"/>
</g>
<!-- Node17 -->
<g id="node17" class="node">
<title>Node17</title>
<g id="a_node17"><a xlink:href="a00293.html" target="_top" xlink:title=" ">
<polygon fill="white" stroke="black" points="1152,-145.5 1152,-186.5 1340,-186.5 1340,-145.5 1152,-145.5"/>
<text text-anchor="start" x="1160" y="-174.5" font-family="Helvetica,sans-Serif" font-size="10.00">/home/runner/work/Raytracer</text>
<text text-anchor="start" x="1160" y="-163.5" font-family="Helvetica,sans-Serif" font-size="10.00">/Raytracer/PluginsExt/LimitedPlane</text>
<text text-anchor="middle" x="1246" y="-152.5" font-family="Helvetica,sans-Serif" font-size="10.00">/LimitedPlaneCreator.hpp</text>
</a>
</g>
</g>
<!-- Node16&#45;&gt;Node17 -->
<g id="edge16" class="edge">
<title>Node16&#45;&gt;Node17</title>
<path fill="none" stroke="midnightblue" d="M1246,-213.3C1246,-204.3 1246,-194.65 1246,-186.51"/>
<polygon fill="midnightblue" stroke="midnightblue" points="1242.5,-213.43 1246,-223.43 1249.5,-213.43 1242.5,-213.43"/>
</g>
<!-- Node19 -->
<g id="node19" class="node">
<title>Node19</title>
<g id="a_node19"><a xlink:href="a00305.html" target="_top" xlink:title=" ">
<polygon fill="white" stroke="black" points="1358.5,-145.5 1358.5,-186.5 1517.5,-186.5 1517.5,-145.5 1358.5,-145.5"/>
<text text-anchor="start" x="1366.5" y="-174.5" font-family="Helvetica,sans-Serif" font-size="10.00">/home/runner/work/Raytracer</text>
<text text-anchor="start" x="1366.5" y="-163.5" font-family="Helvetica,sans-Serif" font-size="10.00">/Raytracer/PluginsExt/Plane</text>
<text text-anchor="middle" x="1438" y="-152.5" font-family="Helvetica,sans-Serif" font-size="10.00">/PlaneCreator.hpp</text>
</a>
</g>
</g>
<!-- Node18&#45;&gt;Node19 -->
<g id="edge18" class="edge">
<title>Node18&#45;&gt;Node19</title>
<path fill="none" stroke="midnightblue" d="M1438,-213.3C1438,-204.3 1438,-194.65 1438,-186.51"/>
<polygon fill="midnightblue" stroke="midnightblue" points="1434.5,-213.43 1438,-223.43 1441.5,-213.43 1434.5,-213.43"/>
</g>
<!-- Node21 -->
<g id="node21" class="node">
<title>Node21</title>
<g id="a_node21"><a xlink:href="a00317.html" target="_top" xlink:title=" ">
<polygon fill="white" stroke="black" points="1535.5,-145.5 1535.5,-186.5 1694.5,-186.5 1694.5,-145.5 1535.5,-145.5"/>
<text text-anchor="start" x="1543.5" y="-174.5" font-family="Helvetica,sans-Serif" font-size="10.00">/home/runner/work/Raytracer</text>
<text text-anchor="start" x="1543.5" y="-163.5" font-family="Helvetica,sans-Serif" font-size="10.00">/Raytracer/PluginsExt/Sphere</text>
<text text-anchor="middle" x="1615" y="-152.5" font-family="Helvetica,sans-Serif" font-size="10.00">/SphereCreator.hpp</text>
</a>
</g>
</g>
<!-- Node20&#45;&gt;Node21 -->
<g id="edge20" class="edge">
<title>Node20&#45;&gt;Node21</title>
<path fill="none" stroke="midnightblue" d="M1615,-213.3C1615,-204.3 1615,-194.65 1615,-186.51"/>
<polygon fill="midnightblue" stroke="midnightblue" points="1611.5,-213.43 1615,-223.43 1618.5,-213.43 1611.5,-213.43"/>
</g>
<!-- Node22&#45;&gt;Node23 -->
<g id="edge22" class="edge">
<title>Node22&#45;&gt;Node23</title>
<path fill="none" stroke="midnightblue" d="M1904.05,-298.1C1930.85,-288.29 1956.34,-276.47 1964,-265 1979.76,-241.41 1967.94,-207.82 1957.41,-186.73"/>
<polygon fill="midnightblue" stroke="midnightblue" points="1902.8,-294.83 1894.55,-301.48 1905.14,-301.43 1902.8,-294.83"/>
</g>
<!-- Node23&#45;&gt;Node24 -->
<g id="edge23" class="edge">
<title>Node23&#45;&gt;Node24</title>
<path fill="none" stroke="midnightblue" d="M1909.29,-139.64C1894.6,-129.49 1877.95,-117.98 1864.23,-108.51"/>
<polygon fill="midnightblue" stroke="midnightblue" points="1907.46,-142.62 1917.67,-145.43 1911.43,-136.86 1907.46,-142.62"/>
</g>
<!-- Node25 -->
<g id="node25" class="node">
<title>Node25</title>
<g id="a_node25"><a xlink:href="a00212.html" target="_top" xlink:title=" ">
<polygon fill="white" stroke="black" points="1732.5,-0.5 1732.5,-30.5 1939.5,-30.5 1939.5,-0.5 1732.5,-0.5"/>
<text text-anchor="start" x="1740.5" y="-18.5" font-family="Helvetica,sans-Serif" font-size="10.00">/home/runner/work/Raytracer</text>
<text text-anchor="middle" x="1836" y="-7.5" font-family="Helvetica,sans-Serif" font-size="10.00">/Raytracer/src/Scenes/SceneLoader.hpp</text>
</a>
</g>
</g>
<!-- Node24&#45;&gt;Node25 -->
<g id="edge24" class="edge">
<title>Node24&#45;&gt;Node25</title>
<path fill="none" stroke="midnightblue" d="M1836,-57.08C1836,-48.01 1836,-38.45 1836,-30.89"/>
<polygon fill="midnightblue" stroke="midnightblue" points="1832.5,-57.36 1836,-67.36 1839.5,-57.36 1832.5,-57.36"/>
</g>
<!-- Node26&#45;&gt;Node27 -->
<g id="edge27" class="edge">
<title>Node26&#45;&gt;Node27</title>
<path fill="none" stroke="midnightblue" d="M2117.18,-300.84C2045.44,-286.2 1974.94,-272.22 1921.51,-261.72"/>
<polygon fill="midnightblue" stroke="midnightblue" points="2116.81,-304.34 2127.3,-302.91 2118.21,-297.48 2116.81,-304.34"/>
</g>
<!-- Node28 -->
<g id="node28" class="node">
<title>Node28</title>
<g id="a_node28"><a xlink:href="a00257.html" target="_top" xlink:title=" ">
<polygon fill="white" stroke="black" points="2070,-223.5 2070,-264.5 2252,-264.5 2252,-223.5 2070,-223.5"/>
<text text-anchor="start" x="2078" y="-252.5" font-family="Helvetica,sans-Serif" font-size="10.00">/home/runner/work/Raytracer</text>
<text text-anchor="start" x="2078" y="-241.5" font-family="Helvetica,sans-Serif" font-size="10.00">/Raytracer/PluginsExt/ChessBoard</text>
<text text-anchor="middle" x="2161" y="-230.5" font-family="Helvetica,sans-Serif" font-size="10.00">Material/ChessBoardCreator.hpp</text>
</a>
</g>
</g>
<!-- Node26&#45;&gt;Node28 -->
<g id="edge30" class="edge">
<title>Node26&#45;&gt;Node28</title>
<path fill="none" stroke="midnightblue" d="M2193.87,-293.05C2187.39,-283.57 2180.28,-273.18 2174.35,-264.51"/>
<polygon fill="midnightblue" stroke="midnightblue" points="2191.07,-295.15 2199.61,-301.43 2196.85,-291.2 2191.07,-295.15"/>
</g>
<!-- Node29 -->
<g id="node29" class="node">
<title>Node29</title>
<g id="a_node29"><a xlink:href="a00302.html" target="_top" xlink:title=" ">
<polygon fill="white" stroke="black" points="2297,-223.5 2297,-264.5 2485,-264.5 2485,-223.5 2297,-223.5"/>
<text text-anchor="start" x="2305" y="-252.5" font-family="Helvetica,sans-Serif" font-size="10.00">/home/runner/work/Raytracer</text>
<text text-anchor="start" x="2305" y="-241.5" font-family="Helvetica,sans-Serif" font-size="10.00">/Raytracer/PluginsExt/PlainMaterial</text>
<text text-anchor="middle" x="2391" y="-230.5" font-family="Helvetica,sans-Serif" font-size="10.00">/PlainMaterialCreator.hpp</text>
</a>
</g>
</g>
<!-- Node26&#45;&gt;Node29 -->
<g id="edge31" class="edge">
<title>Node26&#45;&gt;Node29</title>
<path fill="none" stroke="midnightblue" d="M2268.11,-297.47C2292.88,-286.89 2321.77,-274.56 2345.32,-264.51"/>
<polygon fill="midnightblue" stroke="midnightblue" points="2266.66,-294.28 2258.84,-301.43 2269.41,-300.72 2266.66,-294.28"/>
</g>
<!-- Node30 -->
<g id="node30" class="node">
<title>Node30</title>
<g id="a_node30"><a xlink:href="a00329.html" target="_top" xlink:title=" ">
<polygon fill="white" stroke="black" points="2516.5,-223.5 2516.5,-264.5 2709.5,-264.5 2709.5,-223.5 2516.5,-223.5"/>
<text text-anchor="start" x="2524.5" y="-252.5" font-family="Helvetica,sans-Serif" font-size="10.00">/home/runner/work/Raytracer</text>
<text text-anchor="start" x="2524.5" y="-241.5" font-family="Helvetica,sans-Serif" font-size="10.00">/Raytracer/PluginsExt/ZebraMaterial</text>
<text text-anchor="middle" x="2613" y="-230.5" font-family="Helvetica,sans-Serif" font-size="10.00">/ZebraCreator.hpp</text>
</a>
</g>
</g>
<!-- Node26&#45;&gt;Node30 -->
<g id="edge32" class="edge">
<title>Node26&#45;&gt;Node30</title>
<path fill="none" stroke="midnightblue" d="M2308.85,-300.85C2384.32,-286.05 2458.92,-272.39 2516.38,-262.08"/>
<polygon fill="midnightblue" stroke="midnightblue" points="2307.82,-297.49 2298.68,-302.85 2309.17,-304.36 2307.82,-297.49"/>
</g>
<!-- Node27&#45;&gt;Node23 -->
<g id="edge28" class="edge">
<title>Node27&#45;&gt;Node23</title>
<path fill="none" stroke="midnightblue" d="M1872.71,-217.64C1887.4,-207.49 1904.05,-195.98 1917.77,-186.51"/>
<polygon fill="midnightblue" stroke="midnightblue" points="1870.57,-214.86 1864.33,-223.43 1874.54,-220.62 1870.57,-214.86"/>
</g>
<!-- Node27&#45;&gt;Node24 -->
<g id="edge29" class="edge">
<title>Node27&#45;&gt;Node24</title>
<path fill="none" stroke="midnightblue" d="M1836,-213.36C1836,-182.61 1836,-135.36 1836,-108.83"/>
<polygon fill="midnightblue" stroke="midnightblue" points="1832.5,-213.5 1836,-223.5 1839.5,-213.5 1832.5,-213.5"/>
</g>
<!-- Node31&#45;&gt;Node28 -->
<g id="edge36" class="edge">
<title>Node31&#45;&gt;Node28</title>
<path fill="none" stroke="midnightblue" d="M2063.86,-296.63C2083.4,-286.24 2105.89,-274.29 2124.3,-264.51"/>
<polygon fill="midnightblue" stroke="midnightblue" points="2062.01,-293.64 2054.83,-301.43 2065.3,-299.83 2062.01,-293.64"/>
</g>
<!-- Node32&#45;&gt;Node29 -->
<g id="edge43" class="edge">
<title>Node32&#45;&gt;Node29</title>
<path fill="none" stroke="midnightblue" d="M2403.26,-291.59C2400.87,-282.51 2398.3,-272.74 2396.13,-264.51"/>
<polygon fill="midnightblue" stroke="midnightblue" points="2399.92,-292.65 2405.85,-301.43 2406.69,-290.87 2399.92,-292.65"/>
</g>
<!-- Node33&#45;&gt;Node30 -->
<g id="edge47" class="edge">
<title>Node33&#45;&gt;Node30</title>
<path fill="none" stroke="midnightblue" d="M2617.26,-291.3C2616.44,-282.3 2615.55,-272.65 2614.8,-264.51"/>
<polygon fill="midnightblue" stroke="midnightblue" points="2613.79,-291.79 2618.2,-301.43 2620.77,-291.15 2613.79,-291.79"/>
</g>
<!-- Node35 -->
<g id="node35" class="node">
<title>Node35</title>
<g id="a_node35"><a xlink:href="a00128.html" target="_top" xlink:title=" ">
<polygon fill="white" stroke="black" points="2957,-301.5 2957,-342.5 3135,-342.5 3135,-301.5 2957,-301.5"/>
<text text-anchor="start" x="2965" y="-330.5" font-family="Helvetica,sans-Serif" font-size="10.00">/home/runner/work/Raytracer</text>
<text text-anchor="start" x="2965" y="-319.5" font-family="Helvetica,sans-Serif" font-size="10.00">/Raytracer/src/Images/ImagePipe</text>
<text text-anchor="middle" x="3046" y="-308.5" font-family="Helvetica,sans-Serif" font-size="10.00">Line.hpp</text>
</a>
</g>
</g>
<!-- Node34&#45;&gt;Node35 -->
<g id="edge50" class="edge">
<title>Node34&#45;&gt;Node35</title>
<path fill="none" stroke="midnightblue" d="M2957.86,-379.29C2975.45,-368.06 2997.43,-354.02 3015.04,-342.77"/>
<polygon fill="midnightblue" stroke="midnightblue" points="2955.65,-376.55 2949.1,-384.88 2959.42,-382.45 2955.65,-376.55"/>
</g>
<!-- Node34&#45;&gt;Node36 -->
<g id="edge51" class="edge">
<title>Node34&#45;&gt;Node36</title>
<path fill="none" stroke="midnightblue" d="M2902.01,-377.89C2886.66,-364.93 2867.41,-348.68 2853.85,-337.23"/>
<polygon fill="midnightblue" stroke="midnightblue" points="2900.17,-380.93 2910.07,-384.7 2904.69,-375.58 2900.17,-380.93"/>
</g>
<!-- Node34&#45;&gt;Node37 -->
<g id="edge52" class="edge">
<title>Node34&#45;&gt;Node37</title>
<path fill="none" stroke="midnightblue" d="M2993.97,-382.53C3041.75,-370.78 3106.21,-354.92 3156.6,-342.53"/>
<polygon fill="midnightblue" stroke="midnightblue" points="2992.91,-379.18 2984.04,-384.97 2994.58,-385.98 2992.91,-379.18"/>
</g>
<!-- Node34&#45;&gt;Node38 -->
<g id="edge53" class="edge">
<title>Node34&#45;&gt;Node38</title>
<path fill="none" stroke="midnightblue" d="M3039.4,-384C3138.39,-370.67 3274.98,-351.95 3329,-343 3331.9,-342.52 3334.85,-342.02 3337.82,-341.51"/>
<polygon fill="midnightblue" stroke="midnightblue" points="3038.78,-380.55 3029.34,-385.36 3039.71,-387.49 3038.78,-380.55"/>
</g>
</g>
</svg>
