<?xml version="1.0" encoding="UTF-8" standalone="no"?>
<!DOCTYPE svg PUBLIC "-//W3C//DTD SVG 1.1//EN"
 "http://www.w3.org/Graphics/SVG/1.1/DTD/svg11.dtd">
<!-- Generated by graphviz version 2.43.0 (0)
 -->
<!-- Title: /home/runner/work/Raytracer/Raytracer/src/Filters/IFilter.hpp Pages: 1 -->
<svg width="2295pt" height="418pt"
 viewBox="0.00 0.00 2294.50 418.00" xmlns="http://www.w3.org/2000/svg" xmlns:xlink="http://www.w3.org/1999/xlink">
<g id="graph0" class="graph" transform="scale(1 1) rotate(0) translate(4 414)">
<title>/home/runner/work/Raytracer/Raytracer/src/Filters/IFilter.hpp</title>
<polygon fill="white" stroke="transparent" points="-4,4 -4,-414 2290.5,-414 2290.5,4 -4,4"/>
<!-- Node1 -->
<g id="node1" class="node">
<title>Node1</title>
<g id="a_node1"><a xlink:title=" ">
<polygon fill="#bfbfbf" stroke="black" points="1582.5,-379.5 1582.5,-409.5 1750.5,-409.5 1750.5,-379.5 1582.5,-379.5"/>
<text text-anchor="start" x="1590.5" y="-397.5" font-family="Helvetica,sans-Serif" font-size="10.00">/home/runner/work/Raytracer</text>
<text text-anchor="middle" x="1666.5" y="-386.5" font-family="Helvetica,sans-Serif" font-size="10.00">/Raytracer/src/Filters/IFilter.hpp</text>
</a>
</g>
</g>
<!-- Node2 -->
<g id="node2" class="node">
<title>Node2</title>
<g id="a_node2"><a xlink:href="a00068.html" target="_top" xlink:title=" ">
<polygon fill="white" stroke="black" points="701,-301.5 701,-342.5 860,-342.5 860,-301.5 701,-301.5"/>
<text text-anchor="start" x="709" y="-330.5" font-family="Helvetica,sans-Serif" font-size="10.00">/home/runner/work/Raytracer</text>
<text text-anchor="start" x="709" y="-319.5" font-family="Helvetica,sans-Serif" font-size="10.00">/Raytracer/src/Entities</text>
<text text-anchor="middle" x="780.5" y="-308.5" font-family="Helvetica,sans-Serif" font-size="10.00">/ICamera.hpp</text>
</a>
</g>
</g>
<!-- Node1&#45;&gt;Node2 -->
<g id="edge1" class="edge">
<title>Node1&#45;&gt;Node2</title>
<path fill="none" stroke="midnightblue" d="M1572.37,-386.01C1397.16,-372.07 1023.94,-342.37 860.25,-329.35"/>
<polygon fill="midnightblue" stroke="midnightblue" points="1572.1,-389.5 1582.35,-386.8 1572.66,-382.52 1572.1,-389.5"/>
</g>
<!-- Node14 -->
<g id="node14" class="node">
<title>Node14</title>
<g id="a_node14"><a xlink:href="a00098.html" target="_top" xlink:title=" ">
<polygon fill="white" stroke="black" points="1480,-145.5 1480,-186.5 1639,-186.5 1639,-145.5 1480,-145.5"/>
<text text-anchor="start" x="1488" y="-174.5" font-family="Helvetica,sans-Serif" font-size="10.00">/home/runner/work/Raytracer</text>
<text text-anchor="start" x="1488" y="-163.5" font-family="Helvetica,sans-Serif" font-size="10.00">/Raytracer/src/Factories</text>
<text text-anchor="middle" x="1559.5" y="-152.5" font-family="Helvetica,sans-Serif" font-size="10.00">/FilterFactory.hpp</text>
</a>
</g>
</g>
<!-- Node1&#45;&gt;Node14 -->
<g id="edge13" class="edge">
<title>Node1&#45;&gt;Node14</title>
<path fill="none" stroke="midnightblue" d="M1572.43,-380.41C1528.78,-372.21 1483.63,-359.95 1470.5,-343 1430.96,-291.98 1497.9,-220.67 1535.95,-186.62"/>
<polygon fill="midnightblue" stroke="midnightblue" points="1571.83,-383.85 1582.29,-382.2 1573.08,-376.97 1571.83,-383.85"/>
</g>
<!-- Node15 -->
<g id="node15" class="node">
<title>Node15</title>
<g id="a_node15"><a xlink:href="a00167.html" target="_top" xlink:title=" ">
<polygon fill="white" stroke="black" points="1480,-67.5 1480,-108.5 1639,-108.5 1639,-67.5 1480,-67.5"/>
<text text-anchor="start" x="1488" y="-96.5" font-family="Helvetica,sans-Serif" font-size="10.00">/home/runner/work/Raytracer</text>
<text text-anchor="start" x="1488" y="-85.5" font-family="Helvetica,sans-Serif" font-size="10.00">/Raytracer/src/Plugins/Filters</text>
<text text-anchor="middle" x="1559.5" y="-74.5" font-family="Helvetica,sans-Serif" font-size="10.00">/FilterLoader.hpp</text>
</a>
</g>
</g>
<!-- Node1&#45;&gt;Node15 -->
<g id="edge22" class="edge">
<title>Node1&#45;&gt;Node15</title>
<path fill="none" stroke="midnightblue" d="M1572.22,-382.58C1522.84,-374.71 1469.56,-362.06 1454.5,-343 1428.41,-309.97 1396.34,-264.43 1470.5,-145 1480.23,-129.34 1496.13,-117.32 1511.83,-108.5"/>
<polygon fill="midnightblue" stroke="midnightblue" points="1571.94,-386.07 1582.36,-384.14 1573.01,-379.16 1571.94,-386.07"/>
</g>
<!-- Node17 -->
<g id="node17" class="node">
<title>Node17</title>
<g id="a_node17"><a xlink:href="a00104.html" target="_top" xlink:title=" ">
<polygon fill="white" stroke="black" points="1480,-301.5 1480,-342.5 1639,-342.5 1639,-301.5 1480,-301.5"/>
<text text-anchor="start" x="1488" y="-330.5" font-family="Helvetica,sans-Serif" font-size="10.00">/home/runner/work/Raytracer</text>
<text text-anchor="start" x="1488" y="-319.5" font-family="Helvetica,sans-Serif" font-size="10.00">/Raytracer/src/Factories</text>
<text text-anchor="middle" x="1559.5" y="-308.5" font-family="Helvetica,sans-Serif" font-size="10.00">/IFilterFactory.hpp</text>
</a>
</g>
</g>
<!-- Node1&#45;&gt;Node17 -->
<g id="edge16" class="edge">
<title>Node1&#45;&gt;Node17</title>
<path fill="none" stroke="midnightblue" d="M1636.38,-373.65C1621.68,-363.97 1604.04,-352.35 1589.37,-342.68"/>
<polygon fill="midnightblue" stroke="midnightblue" points="1634.83,-376.82 1645.1,-379.4 1638.68,-370.98 1634.83,-376.82"/>
</g>
<!-- Node18 -->
<g id="node18" class="node">
<title>Node18</title>
<g id="a_node18"><a xlink:href="a00128.html" target="_top" xlink:title=" ">
<polygon fill="white" stroke="black" points="2108.5,-301.5 2108.5,-342.5 2286.5,-342.5 2286.5,-301.5 2108.5,-301.5"/>
<text text-anchor="start" x="2116.5" y="-330.5" font-family="Helvetica,sans-Serif" font-size="10.00">/home/runner/work/Raytracer</text>
<text text-anchor="start" x="2116.5" y="-319.5" font-family="Helvetica,sans-Serif" font-size="10.00">/Raytracer/src/Images/ImagePipe</text>
<text text-anchor="middle" x="2197.5" y="-308.5" font-family="Helvetica,sans-Serif" font-size="10.00">Line.hpp</text>
</a>
</g>
</g>
<!-- Node1&#45;&gt;Node18 -->
<g id="edge18" class="edge">
<title>Node1&#45;&gt;Node18</title>
<path fill="none" stroke="midnightblue" d="M1760.56,-384.86C1848.49,-376.24 1983.29,-361.6 2099.5,-343 2102.41,-342.53 2105.37,-342.04 2108.36,-341.53"/>
<polygon fill="midnightblue" stroke="midnightblue" points="1760.22,-381.38 1750.61,-385.83 1760.9,-388.35 1760.22,-381.38"/>
</g>
<!-- Node19 -->
<g id="node19" class="node">
<title>Node19</title>
<g id="a_node19"><a xlink:href="a00164.html" target="_top" xlink:title=" ">
<polygon fill="white" stroke="black" points="1587,-223.5 1587,-264.5 1746,-264.5 1746,-223.5 1587,-223.5"/>
<text text-anchor="start" x="1595" y="-252.5" font-family="Helvetica,sans-Serif" font-size="10.00">/home/runner/work/Raytracer</text>
<text text-anchor="start" x="1595" y="-241.5" font-family="Helvetica,sans-Serif" font-size="10.00">/Raytracer/src/Plugins/Filters</text>
<text text-anchor="middle" x="1666.5" y="-230.5" font-family="Helvetica,sans-Serif" font-size="10.00">/FilterHandler.hpp</text>
</a>
</g>
</g>
<!-- Node1&#45;&gt;Node19 -->
<g id="edge19" class="edge">
<title>Node1&#45;&gt;Node19</title>
<path fill="none" stroke="midnightblue" d="M1666.5,-369.08C1666.5,-339.83 1666.5,-291.44 1666.5,-264.55"/>
<polygon fill="midnightblue" stroke="midnightblue" points="1663,-369.26 1666.5,-379.26 1670,-369.26 1663,-369.26"/>
</g>
<!-- Node20 -->
<g id="node20" class="node">
<title>Node20</title>
<g id="a_node20"><a xlink:href="a00170.html" target="_top" xlink:title=" ">
<polygon fill="white" stroke="black" points="1694,-301.5 1694,-342.5 1853,-342.5 1853,-301.5 1694,-301.5"/>
<text text-anchor="start" x="1702" y="-330.5" font-family="Helvetica,sans-Serif" font-size="10.00">/home/runner/work/Raytracer</text>
<text text-anchor="start" x="1702" y="-319.5" font-family="Helvetica,sans-Serif" font-size="10.00">/Raytracer/src/Plugins/Filters</text>
<text text-anchor="middle" x="1773.5" y="-308.5" font-family="Helvetica,sans-Serif" font-size="10.00">/IFilterCreator.hpp</text>
</a>
</g>
</g>
<!-- Node1&#45;&gt;Node20 -->
<g id="edge23" class="edge">
<title>Node1&#45;&gt;Node20</title>
<path fill="none" stroke="midnightblue" d="M1696.62,-373.65C1711.32,-363.97 1728.96,-352.35 1743.63,-342.68"/>
<polygon fill="midnightblue" stroke="midnightblue" points="1694.32,-370.98 1687.9,-379.4 1698.17,-376.82 1694.32,-370.98"/>
</g>
<!-- Node21 -->
<g id="node21" class="node">
<title>Node21</title>
<g id="a_node21"><a xlink:href="a00227.html" target="_top" xlink:title=" ">
<polygon fill="white" stroke="black" points="1789.5,-223.5 1789.5,-264.5 1971.5,-264.5 1971.5,-223.5 1789.5,-223.5"/>
<text text-anchor="start" x="1797.5" y="-252.5" font-family="Helvetica,sans-Serif" font-size="10.00">/home/runner/work/Raytracer</text>
<text text-anchor="start" x="1797.5" y="-241.5" font-family="Helvetica,sans-Serif" font-size="10.00">/Raytracer/PluginsExt/AntiAliasing</text>
<text text-anchor="middle" x="1880.5" y="-230.5" font-family="Helvetica,sans-Serif" font-size="10.00">/SSAAx4/SSAAx4Creator.hpp</text>
</a>
</g>
</g>
<!-- Node1&#45;&gt;Node21 -->
<g id="edge26" class="edge">
<title>Node1&#45;&gt;Node21</title>
<path fill="none" stroke="midnightblue" d="M1760.57,-378.91C1803.11,-370.42 1847.08,-358.34 1861.5,-343 1881.32,-321.91 1883.37,-286.63 1882.39,-264.65"/>
<polygon fill="midnightblue" stroke="midnightblue" points="1759.81,-375.49 1750.66,-380.83 1761.15,-382.36 1759.81,-375.49"/>
</g>
<!-- Node22 -->
<g id="node22" class="node">
<title>Node22</title>
<g id="a_node22"><a xlink:href="a00230.html" target="_top" xlink:title=" ">
<polygon fill="white" stroke="black" points="1908.5,-301.5 1908.5,-342.5 2090.5,-342.5 2090.5,-301.5 1908.5,-301.5"/>
<text text-anchor="start" x="1916.5" y="-330.5" font-family="Helvetica,sans-Serif" font-size="10.00">/home/runner/work/Raytracer</text>
<text text-anchor="start" x="1916.5" y="-319.5" font-family="Helvetica,sans-Serif" font-size="10.00">/Raytracer/PluginsExt/AntiAliasing</text>
<text text-anchor="middle" x="1999.5" y="-308.5" font-family="Helvetica,sans-Serif" font-size="10.00">/SSAAx4/SSAAx4Filter.hpp</text>
</a>
</g>
</g>
<!-- Node1&#45;&gt;Node22 -->
<g id="edge27" class="edge">
<title>Node1&#45;&gt;Node22</title>
<path fill="none" stroke="midnightblue" d="M1742.64,-377.38C1791.88,-366.96 1856.24,-353.33 1908.22,-342.33"/>
<polygon fill="midnightblue" stroke="midnightblue" points="1741.75,-373.99 1732.69,-379.49 1743.2,-380.84 1741.75,-373.99"/>
</g>
<!-- Node3 -->
<g id="node3" class="node">
<title>Node3</title>
<g id="a_node3"><a xlink:href="a00140.html" target="_top" xlink:title=" ">
<polygon fill="white" stroke="black" points="0,-229 0,-259 205,-259 205,-229 0,-229"/>
<text text-anchor="start" x="8" y="-247" font-family="Helvetica,sans-Serif" font-size="10.00">/home/runner/work/Raytracer</text>
<text text-anchor="middle" x="102.5" y="-236" font-family="Helvetica,sans-Serif" font-size="10.00">/Raytracer/src/Images/RayIterrator.hpp</text>
</a>
</g>
</g>
<!-- Node2&#45;&gt;Node3 -->
<g id="edge2" class="edge">
<title>Node2&#45;&gt;Node3</title>
<path fill="none" stroke="midnightblue" d="M690.68,-314.36C578.65,-305.56 381.42,-288.38 213.5,-265 201.18,-263.29 188.15,-261.19 175.51,-259.01"/>
<polygon fill="midnightblue" stroke="midnightblue" points="690.67,-317.87 700.91,-315.16 691.22,-310.89 690.67,-317.87"/>
</g>
<!-- Node4 -->
<g id="node4" class="node">
<title>Node4</title>
<g id="a_node4"><a xlink:href="a00209.html" target="_top" xlink:title=" ">
<polygon fill="white" stroke="black" points="223,-229 223,-259 398,-259 398,-229 223,-229"/>
<text text-anchor="start" x="231" y="-247" font-family="Helvetica,sans-Serif" font-size="10.00">/home/runner/work/Raytracer</text>
<text text-anchor="middle" x="310.5" y="-236" font-family="Helvetica,sans-Serif" font-size="10.00">/Raytracer/src/Scenes/Scene.hpp</text>
</a>
</g>
</g>
<!-- Node2&#45;&gt;Node4 -->
<g id="edge3" class="edge">
<title>Node2&#45;&gt;Node4</title>
<path fill="none" stroke="midnightblue" d="M691.01,-308.96C615.31,-298.43 504.06,-282.19 407.5,-265 397.34,-263.19 386.62,-261.13 376.15,-259.04"/>
<polygon fill="midnightblue" stroke="midnightblue" points="690.6,-312.43 700.98,-310.34 691.56,-305.5 690.6,-312.43"/>
</g>
<!-- Node6 -->
<g id="node6" class="node">
<title>Node6</title>
<g id="a_node6"><a xlink:href="a00236.html" target="_top" xlink:title=" ">
<polygon fill="white" stroke="black" points="416.5,-223.5 416.5,-264.5 578.5,-264.5 578.5,-223.5 416.5,-223.5"/>
<text text-anchor="start" x="424.5" y="-252.5" font-family="Helvetica,sans-Serif" font-size="10.00">/home/runner/work/Raytracer</text>
<text text-anchor="start" x="424.5" y="-241.5" font-family="Helvetica,sans-Serif" font-size="10.00">/Raytracer/PluginsExt/Camera</text>
<text text-anchor="middle" x="497.5" y="-230.5" font-family="Helvetica,sans-Serif" font-size="10.00">/Basic/CameraEntity.hpp</text>
</a>
</g>
</g>
<!-- Node2&#45;&gt;Node6 -->
<g id="edge5" class="edge">
<title>Node2&#45;&gt;Node6</title>
<path fill="none" stroke="midnightblue" d="M697.79,-298.79C657.35,-287.93 609.13,-274.98 570.13,-264.51"/>
<polygon fill="midnightblue" stroke="midnightblue" points="697.05,-302.21 707.62,-301.43 698.87,-295.45 697.05,-302.21"/>
</g>
<!-- Node8 -->
<g id="node8" class="node">
<title>Node8</title>
<g id="a_node8"><a xlink:href="a00242.html" target="_top" xlink:title=" ">
<polygon fill="white" stroke="black" points="596.5,-223.5 596.5,-264.5 774.5,-264.5 774.5,-223.5 596.5,-223.5"/>
<text text-anchor="start" x="604.5" y="-252.5" font-family="Helvetica,sans-Serif" font-size="10.00">/home/runner/work/Raytracer</text>
<text text-anchor="start" x="604.5" y="-241.5" font-family="Helvetica,sans-Serif" font-size="10.00">/Raytracer/PluginsExt/Camera</text>
<text text-anchor="middle" x="685.5" y="-230.5" font-family="Helvetica,sans-Serif" font-size="10.00">/Cluster/CameraClusterEntity.hpp</text>
</a>
</g>
</g>
<!-- Node2&#45;&gt;Node8 -->
<g id="edge7" class="edge">
<title>Node2&#45;&gt;Node8</title>
<path fill="none" stroke="midnightblue" d="M748.08,-295.06C735.57,-285.06 721.51,-273.8 709.88,-264.51"/>
<polygon fill="midnightblue" stroke="midnightblue" points="746.04,-297.91 756.04,-301.43 750.41,-292.45 746.04,-297.91"/>
</g>
<!-- Node10 -->
<g id="node10" class="node">
<title>Node10</title>
<g id="a_node10"><a xlink:href="a00245.html" target="_top" xlink:title=" ">
<polygon fill="white" stroke="black" points="792,-223.5 792,-264.5 959,-264.5 959,-223.5 792,-223.5"/>
<text text-anchor="start" x="800" y="-252.5" font-family="Helvetica,sans-Serif" font-size="10.00">/home/runner/work/Raytracer</text>
<text text-anchor="start" x="800" y="-241.5" font-family="Helvetica,sans-Serif" font-size="10.00">/Raytracer/PluginsExt/Camera</text>
<text text-anchor="middle" x="875.5" y="-230.5" font-family="Helvetica,sans-Serif" font-size="10.00">/Cluster/ClusterRayIterator.hpp</text>
</a>
</g>
</g>
<!-- Node2&#45;&gt;Node10 -->
<g id="edge9" class="edge">
<title>Node2&#45;&gt;Node10</title>
<path fill="none" stroke="midnightblue" d="M812.92,-295.06C825.43,-285.06 839.49,-273.8 851.12,-264.51"/>
<polygon fill="midnightblue" stroke="midnightblue" points="810.59,-292.45 804.96,-301.43 814.96,-297.91 810.59,-292.45"/>
</g>
<!-- Node11 -->
<g id="node11" class="node">
<title>Node11</title>
<g id="a_node11"><a xlink:href="a00251.html" target="_top" xlink:title=" ">
<polygon fill="white" stroke="black" points="977,-223.5 977,-264.5 1178,-264.5 1178,-223.5 977,-223.5"/>
<text text-anchor="start" x="985" y="-252.5" font-family="Helvetica,sans-Serif" font-size="10.00">/home/runner/work/Raytracer</text>
<text text-anchor="start" x="985" y="-241.5" font-family="Helvetica,sans-Serif" font-size="10.00">/Raytracer/PluginsExt/Camera</text>
<text text-anchor="middle" x="1077.5" y="-230.5" font-family="Helvetica,sans-Serif" font-size="10.00">/FullCustom/CameraCustomEntity.hpp</text>
</a>
</g>
</g>
<!-- Node2&#45;&gt;Node11 -->
<g id="edge10" class="edge">
<title>Node2&#45;&gt;Node11</title>
<path fill="none" stroke="midnightblue" d="M866.77,-298.92C909.31,-288.04 960.18,-275.02 1001.27,-264.51"/>
<polygon fill="midnightblue" stroke="midnightblue" points="865.81,-295.56 856.98,-301.43 867.54,-302.34 865.81,-295.56"/>
</g>
<!-- Node13 -->
<g id="node13" class="node">
<title>Node13</title>
<g id="a_node13"><a xlink:href="a00254.html" target="_top" xlink:title=" ">
<polygon fill="white" stroke="black" points="1196.5,-223.5 1196.5,-264.5 1386.5,-264.5 1386.5,-223.5 1196.5,-223.5"/>
<text text-anchor="start" x="1204.5" y="-252.5" font-family="Helvetica,sans-Serif" font-size="10.00">/home/runner/work/Raytracer</text>
<text text-anchor="start" x="1204.5" y="-241.5" font-family="Helvetica,sans-Serif" font-size="10.00">/Raytracer/PluginsExt/Camera</text>
<text text-anchor="middle" x="1291.5" y="-230.5" font-family="Helvetica,sans-Serif" font-size="10.00">/FullCustom/CustomRayIterator.hpp</text>
</a>
</g>
</g>
<!-- Node2&#45;&gt;Node13 -->
<g id="edge12" class="edge">
<title>Node2&#45;&gt;Node13</title>
<path fill="none" stroke="midnightblue" d="M870.11,-309.98C952.51,-299.52 1077.98,-282.81 1186.5,-265 1189.7,-264.47 1192.96,-263.93 1196.25,-263.36"/>
<polygon fill="midnightblue" stroke="midnightblue" points="869.51,-306.52 860.03,-311.25 870.39,-313.47 869.51,-306.52"/>
</g>
<!-- Node5 -->
<g id="node5" class="node">
<title>Node5</title>
<g id="a_node5"><a xlink:href="a00146.html" target="_top" xlink:title=" ">
<polygon fill="white" stroke="black" points="231,-151 231,-181 390,-181 390,-151 231,-151"/>
<text text-anchor="start" x="239" y="-169" font-family="Helvetica,sans-Serif" font-size="10.00">/home/runner/work/Raytracer</text>
<text text-anchor="middle" x="310.5" y="-158" font-family="Helvetica,sans-Serif" font-size="10.00">/Raytracer/src/Main.hpp</text>
</a>
</g>
</g>
<!-- Node4&#45;&gt;Node5 -->
<g id="edge4" class="edge">
<title>Node4&#45;&gt;Node5</title>
<path fill="none" stroke="midnightblue" d="M310.5,-218.59C310.5,-206.26 310.5,-191.72 310.5,-181.23"/>
<polygon fill="midnightblue" stroke="midnightblue" points="307,-218.7 310.5,-228.7 314,-218.71 307,-218.7"/>
</g>
<!-- Node7 -->
<g id="node7" class="node">
<title>Node7</title>
<g id="a_node7"><a xlink:href="a00233.html" target="_top" xlink:title=" ">
<polygon fill="white" stroke="black" points="414.5,-145.5 414.5,-186.5 576.5,-186.5 576.5,-145.5 414.5,-145.5"/>
<text text-anchor="start" x="422.5" y="-174.5" font-family="Helvetica,sans-Serif" font-size="10.00">/home/runner/work/Raytracer</text>
<text text-anchor="start" x="422.5" y="-163.5" font-family="Helvetica,sans-Serif" font-size="10.00">/Raytracer/PluginsExt/Camera</text>
<text text-anchor="middle" x="495.5" y="-152.5" font-family="Helvetica,sans-Serif" font-size="10.00">/Basic/CameraCreator.hpp</text>
</a>
</g>
</g>
<!-- Node6&#45;&gt;Node7 -->
<g id="edge6" class="edge">
<title>Node6&#45;&gt;Node7</title>
<path fill="none" stroke="midnightblue" d="M496.72,-213.3C496.48,-204.3 496.23,-194.65 496.01,-186.51"/>
<polygon fill="midnightblue" stroke="midnightblue" points="493.22,-213.52 496.98,-223.43 500.22,-213.34 493.22,-213.52"/>
</g>
<!-- Node9 -->
<g id="node9" class="node">
<title>Node9</title>
<g id="a_node9"><a xlink:href="a00239.html" target="_top" xlink:title=" ">
<polygon fill="white" stroke="black" points="594.5,-145.5 594.5,-186.5 780.5,-186.5 780.5,-145.5 594.5,-145.5"/>
<text text-anchor="start" x="602.5" y="-174.5" font-family="Helvetica,sans-Serif" font-size="10.00">/home/runner/work/Raytracer</text>
<text text-anchor="start" x="602.5" y="-163.5" font-family="Helvetica,sans-Serif" font-size="10.00">/Raytracer/PluginsExt/Camera</text>
<text text-anchor="middle" x="687.5" y="-152.5" font-family="Helvetica,sans-Serif" font-size="10.00">/Cluster/CameraClusterCreator.hpp</text>
</a>
</g>
</g>
<!-- Node8&#45;&gt;Node9 -->
<g id="edge8" class="edge">
<title>Node8&#45;&gt;Node9</title>
<path fill="none" stroke="midnightblue" d="M686.28,-213.3C686.52,-204.3 686.77,-194.65 686.99,-186.51"/>
<polygon fill="midnightblue" stroke="midnightblue" points="682.78,-213.34 686.02,-223.43 689.78,-213.52 682.78,-213.34"/>
</g>
<!-- Node12 -->
<g id="node12" class="node">
<title>Node12</title>
<g id="a_node12"><a xlink:href="a00248.html" target="_top" xlink:title=" ">
<polygon fill="white" stroke="black" points="973,-145.5 973,-186.5 1182,-186.5 1182,-145.5 973,-145.5"/>
<text text-anchor="start" x="981" y="-174.5" font-family="Helvetica,sans-Serif" font-size="10.00">/home/runner/work/Raytracer</text>
<text text-anchor="start" x="981" y="-163.5" font-family="Helvetica,sans-Serif" font-size="10.00">/Raytracer/PluginsExt/Camera</text>
<text text-anchor="middle" x="1077.5" y="-152.5" font-family="Helvetica,sans-Serif" font-size="10.00">/FullCustom/CameraCustomCreator.hpp</text>
</a>
</g>
</g>
<!-- Node11&#45;&gt;Node12 -->
<g id="edge11" class="edge">
<title>Node11&#45;&gt;Node12</title>
<path fill="none" stroke="midnightblue" d="M1077.5,-213.3C1077.5,-204.3 1077.5,-194.65 1077.5,-186.51"/>
<polygon fill="midnightblue" stroke="midnightblue" points="1074,-213.43 1077.5,-223.43 1081,-213.43 1074,-213.43"/>
</g>
<!-- Node14&#45;&gt;Node15 -->
<g id="edge14" class="edge">
<title>Node14&#45;&gt;Node15</title>
<path fill="none" stroke="midnightblue" d="M1559.5,-135.3C1559.5,-126.3 1559.5,-116.65 1559.5,-108.51"/>
<polygon fill="midnightblue" stroke="midnightblue" points="1556,-135.43 1559.5,-145.43 1563,-135.43 1556,-135.43"/>
</g>
<!-- Node16 -->
<g id="node16" class="node">
<title>Node16</title>
<g id="a_node16"><a xlink:href="a00212.html" target="_top" xlink:title=" ">
<polygon fill="white" stroke="black" points="1456,-0.5 1456,-30.5 1663,-30.5 1663,-0.5 1456,-0.5"/>
<text text-anchor="start" x="1464" y="-18.5" font-family="Helvetica,sans-Serif" font-size="10.00">/home/runner/work/Raytracer</text>
<text text-anchor="middle" x="1559.5" y="-7.5" font-family="Helvetica,sans-Serif" font-size="10.00">/Raytracer/src/Scenes/SceneLoader.hpp</text>
</a>
</g>
</g>
<!-- Node15&#45;&gt;Node16 -->
<g id="edge15" class="edge">
<title>Node15&#45;&gt;Node16</title>
<path fill="none" stroke="midnightblue" d="M1559.5,-57.08C1559.5,-48.01 1559.5,-38.45 1559.5,-30.89"/>
<polygon fill="midnightblue" stroke="midnightblue" points="1556,-57.36 1559.5,-67.36 1563,-57.36 1556,-57.36"/>
</g>
<!-- Node17&#45;&gt;Node14 -->
<g id="edge17" class="edge">
<title>Node17&#45;&gt;Node14</title>
<path fill="none" stroke="midnightblue" d="M1559.5,-291.36C1559.5,-260.61 1559.5,-213.36 1559.5,-186.83"/>
<polygon fill="midnightblue" stroke="midnightblue" points="1556,-291.5 1559.5,-301.5 1563,-291.5 1556,-291.5"/>
</g>
<!-- Node19&#45;&gt;Node14 -->
<g id="edge20" class="edge">
<title>Node19&#45;&gt;Node14</title>
<path fill="none" stroke="midnightblue" d="M1630.79,-217.64C1616.5,-207.49 1600.3,-195.98 1586.96,-186.51"/>
<polygon fill="midnightblue" stroke="midnightblue" points="1628.77,-220.49 1638.94,-223.43 1632.82,-214.78 1628.77,-220.49"/>
</g>
<!-- Node19&#45;&gt;Node15 -->
<g id="edge21" class="edge">
<title>Node19&#45;&gt;Node15</title>
<path fill="none" stroke="midnightblue" d="M1666.73,-213.07C1665.54,-192.35 1661.12,-165.01 1647.5,-145 1637,-129.58 1620.71,-117.51 1604.98,-108.58"/>
<polygon fill="midnightblue" stroke="midnightblue" points="1663.24,-213.36 1667.1,-223.23 1670.24,-213.11 1663.24,-213.36"/>
</g>
<!-- Node20&#45;&gt;Node19 -->
<g id="edge24" class="edge">
<title>Node20&#45;&gt;Node19</title>
<path fill="none" stroke="midnightblue" d="M1737.79,-295.64C1723.5,-285.49 1707.3,-273.98 1693.96,-264.51"/>
<polygon fill="midnightblue" stroke="midnightblue" points="1735.77,-298.49 1745.94,-301.43 1739.82,-292.78 1735.77,-298.49"/>
</g>
<!-- Node20&#45;&gt;Node21 -->
<g id="edge25" class="edge">
<title>Node20&#45;&gt;Node21</title>
<path fill="none" stroke="midnightblue" d="M1809.21,-295.64C1823.5,-285.49 1839.7,-273.98 1853.04,-264.51"/>
<polygon fill="midnightblue" stroke="midnightblue" points="1807.18,-292.78 1801.06,-301.43 1811.23,-298.49 1807.18,-292.78"/>
</g>
<!-- Node22&#45;&gt;Node21 -->
<g id="edge28" class="edge">
<title>Node22&#45;&gt;Node21</title>
<path fill="none" stroke="midnightblue" d="M1960.23,-295.92C1944.23,-285.7 1926.02,-274.07 1911.04,-264.51"/>
<polygon fill="midnightblue" stroke="midnightblue" points="1958.54,-299 1968.85,-301.43 1962.31,-293.1 1958.54,-299"/>
</g>
</g>
</svg>
