<?xml version="1.0" encoding="UTF-8" standalone="no"?>
<!DOCTYPE svg PUBLIC "-//W3C//DTD SVG 1.1//EN"
 "http://www.w3.org/Graphics/SVG/1.1/DTD/svg11.dtd">
<!-- Generated by graphviz version 2.43.0 (0)
 -->
<!-- Title: /home/runner/work/Raytracer/Raytracer/src/Plugins/Entities/EntityHandler.hpp Pages: 1 -->
<svg width="396pt" height="273pt"
 viewBox="0.00 0.00 396.00 273.00" xmlns="http://www.w3.org/2000/svg" xmlns:xlink="http://www.w3.org/1999/xlink">
<g id="graph0" class="graph" transform="scale(1 1) rotate(0) translate(4 269)">
<title>/home/runner/work/Raytracer/Raytracer/src/Plugins/Entities/EntityHandler.hpp</title>
<polygon fill="white" stroke="transparent" points="-4,4 -4,-269 392,-269 392,4 -4,4"/>
<!-- Node1 -->
<g id="node1" class="node">
<title>Node1</title>
<g id="a_node1"><a xlink:title=" ">
<polygon fill="#bfbfbf" stroke="black" points="82.5,-223.5 82.5,-264.5 244.5,-264.5 244.5,-223.5 82.5,-223.5"/>
<text text-anchor="start" x="90.5" y="-252.5" font-family="Helvetica,sans-Serif" font-size="10.00">/home/runner/work/Raytracer</text>
<text text-anchor="start" x="90.5" y="-241.5" font-family="Helvetica,sans-Serif" font-size="10.00">/Raytracer/src/Plugins/Entities</text>
<text text-anchor="middle" x="163.5" y="-230.5" font-family="Helvetica,sans-Serif" font-size="10.00">/EntityHandler.hpp</text>
</a>
</g>
</g>
<!-- Node2 -->
<g id="node2" class="node">
<title>Node2</title>
<g id="a_node2"><a xlink:href="a00095.html" target="_top" xlink:title=" ">
<polygon fill="white" stroke="black" points="138,-145.5 138,-186.5 297,-186.5 297,-145.5 138,-145.5"/>
<text text-anchor="start" x="146" y="-174.5" font-family="Helvetica,sans-Serif" font-size="10.00">/home/runner/work/Raytracer</text>
<text text-anchor="start" x="146" y="-163.5" font-family="Helvetica,sans-Serif" font-size="10.00">/Raytracer/src/Factories</text>
<text text-anchor="middle" x="217.5" y="-152.5" font-family="Helvetica,sans-Serif" font-size="10.00">/EntityFactory.hpp</text>
</a>
</g>
</g>
<!-- Node1&#45;&gt;Node2 -->
<g id="edge1" class="edge">
<title>Node1&#45;&gt;Node2</title>
<path fill="none" stroke="midnightblue" d="M183.36,-215.05C190.1,-205.57 197.47,-195.18 203.64,-186.51"/>
<polygon fill="midnightblue" stroke="midnightblue" points="180.35,-213.25 177.41,-223.43 186.05,-217.3 180.35,-213.25"/>
</g>
<!-- Node3 -->
<g id="node3" class="node">
<title>Node3</title>
<g id="a_node3"><a xlink:href="a00158.html" target="_top" xlink:title=" ">
<polygon fill="white" stroke="black" points="29.5,-67.5 29.5,-108.5 191.5,-108.5 191.5,-67.5 29.5,-67.5"/>
<text text-anchor="start" x="37.5" y="-96.5" font-family="Helvetica,sans-Serif" font-size="10.00">/home/runner/work/Raytracer</text>
<text text-anchor="start" x="37.5" y="-85.5" font-family="Helvetica,sans-Serif" font-size="10.00">/Raytracer/src/Plugins/Entities</text>
<text text-anchor="middle" x="110.5" y="-74.5" font-family="Helvetica,sans-Serif" font-size="10.00">/EntityLoader.hpp</text>
</a>
</g>
</g>
<!-- Node1&#45;&gt;Node3 -->
<g id="edge6" class="edge">
<title>Node1&#45;&gt;Node3</title>
<path fill="none" stroke="midnightblue" d="M143.77,-214.89C138.46,-206.26 133.18,-196.53 129.5,-187 119.45,-160.97 114.52,-128.92 112.25,-108.72"/>
<polygon fill="midnightblue" stroke="midnightblue" points="140.9,-216.89 149.24,-223.42 146.79,-213.11 140.9,-216.89"/>
</g>
<!-- Node2&#45;&gt;Node3 -->
<g id="edge2" class="edge">
<title>Node2&#45;&gt;Node3</title>
<path fill="none" stroke="midnightblue" d="M181.79,-139.64C167.5,-129.49 151.3,-117.98 137.96,-108.51"/>
<polygon fill="midnightblue" stroke="midnightblue" points="179.77,-142.49 189.94,-145.43 183.82,-136.78 179.77,-142.49"/>
</g>
<!-- Node5 -->
<g id="node5" class="node">
<title>Node5</title>
<g id="a_node5"><a xlink:href="a00209.html" target="_top" xlink:title=" ">
<polygon fill="white" stroke="black" points="213,-73 213,-103 388,-103 388,-73 213,-73"/>
<text text-anchor="start" x="221" y="-91" font-family="Helvetica,sans-Serif" font-size="10.00">/home/runner/work/Raytracer</text>
<text text-anchor="middle" x="300.5" y="-80" font-family="Helvetica,sans-Serif" font-size="10.00">/Raytracer/src/Scenes/Scene.hpp</text>
</a>
</g>
</g>
<!-- Node2&#45;&gt;Node5 -->
<g id="edge4" class="edge">
<title>Node2&#45;&gt;Node5</title>
<path fill="none" stroke="midnightblue" d="M246.27,-138.66C259.26,-126.76 274.1,-113.18 284.96,-103.23"/>
<polygon fill="midnightblue" stroke="midnightblue" points="243.89,-136.09 238.87,-145.43 248.61,-141.26 243.89,-136.09"/>
</g>
<!-- Node4 -->
<g id="node4" class="node">
<title>Node4</title>
<g id="a_node4"><a xlink:href="a00212.html" target="_top" xlink:title=" ">
<polygon fill="white" stroke="black" points="0,-0.5 0,-30.5 207,-30.5 207,-0.5 0,-0.5"/>
<text text-anchor="start" x="8" y="-18.5" font-family="Helvetica,sans-Serif" font-size="10.00">/home/runner/work/Raytracer</text>
<text text-anchor="middle" x="103.5" y="-7.5" font-family="Helvetica,sans-Serif" font-size="10.00">/Raytracer/src/Scenes/SceneLoader.hpp</text>
</a>
</g>
</g>
<!-- Node3&#45;&gt;Node4 -->
<g id="edge3" class="edge">
<title>Node3&#45;&gt;Node4</title>
<path fill="none" stroke="midnightblue" d="M107.56,-57.38C106.65,-48.21 105.69,-38.53 104.93,-30.89"/>
<polygon fill="midnightblue" stroke="midnightblue" points="104.08,-57.76 108.55,-67.36 111.04,-57.06 104.08,-57.76"/>
</g>
<!-- Node6 -->
<g id="node6" class="node">
<title>Node6</title>
<g id="a_node6"><a xlink:href="a00146.html" target="_top" xlink:title=" ">
<polygon fill="white" stroke="black" points="225,-0.5 225,-30.5 384,-30.5 384,-0.5 225,-0.5"/>
<text text-anchor="start" x="233" y="-18.5" font-family="Helvetica,sans-Serif" font-size="10.00">/home/runner/work/Raytracer</text>
<text text-anchor="middle" x="304.5" y="-7.5" font-family="Helvetica,sans-Serif" font-size="10.00">/Raytracer/src/Main.hpp</text>
</a>
</g>
</g>
<!-- Node5&#45;&gt;Node6 -->
<g id="edge5" class="edge">
<title>Node5&#45;&gt;Node6</title>
<path fill="none" stroke="midnightblue" d="M301.88,-62.73C302.48,-52.07 303.17,-39.91 303.69,-30.75"/>
<polygon fill="midnightblue" stroke="midnightblue" points="298.38,-62.55 301.31,-72.73 305.37,-62.95 298.38,-62.55"/>
</g>
</g>
</svg>
