<?xml version="1.0" encoding="UTF-8" standalone="no"?>
<!DOCTYPE svg PUBLIC "-//W3C//DTD SVG 1.1//EN"
 "http://www.w3.org/Graphics/SVG/1.1/DTD/svg11.dtd">
<!-- Generated by graphviz version 2.43.0 (0)
 -->
<!-- Title: /home/runner/work/Raytracer/Raytracer/src/Filters/IFilter.hpp Pages: 1 -->
<svg width="486pt" height="319pt"
 viewBox="0.00 0.00 486.00 319.00" xmlns="http://www.w3.org/2000/svg" xmlns:xlink="http://www.w3.org/1999/xlink">
<g id="graph0" class="graph" transform="scale(1 1) rotate(0) translate(4 315)">
<title>/home/runner/work/Raytracer/Raytracer/src/Filters/IFilter.hpp</title>
<polygon fill="white" stroke="transparent" points="-4,4 -4,-315 482,-315 482,4 -4,4"/>
<!-- Node1 -->
<g id="node1" class="node">
<title>Node1</title>
<g id="a_node1"><a xlink:title=" ">
<polygon fill="#bfbfbf" stroke="black" points="49.5,-280.5 49.5,-310.5 217.5,-310.5 217.5,-280.5 49.5,-280.5"/>
<text text-anchor="start" x="57.5" y="-298.5" font-family="Helvetica,sans-Serif" font-size="10.00">/home/runner/work/Raytracer</text>
<text text-anchor="middle" x="133.5" y="-287.5" font-family="Helvetica,sans-Serif" font-size="10.00">/Raytracer/src/Filters/IFilter.hpp</text>
</a>
</g>
</g>
<!-- Node2 -->
<g id="node2" class="node">
<title>Node2</title>
<g id="a_node2"><a xlink:href="a00164.html" target="_top" xlink:title=" ">
<polygon fill="white" stroke="black" points="99.5,-224.5 99.5,-243.5 167.5,-243.5 167.5,-224.5 99.5,-224.5"/>
<text text-anchor="middle" x="133.5" y="-231.5" font-family="Helvetica,sans-Serif" font-size="10.00">Image.hpp</text>
</a>
</g>
</g>
<!-- Node1&#45;&gt;Node2 -->
<g id="edge1" class="edge">
<title>Node1&#45;&gt;Node2</title>
<path fill="none" stroke="midnightblue" d="M133.5,-280.4C133.5,-272.47 133.5,-262.46 133.5,-253.86"/>
<polygon fill="midnightblue" stroke="midnightblue" points="137,-253.66 133.5,-243.66 130,-253.66 137,-253.66"/>
</g>
<!-- Node3 -->
<g id="node3" class="node">
<title>Node3</title>
<g id="a_node3"><a xlink:title=" ">
<polygon fill="white" stroke="#bfbfbf" points="0,-168.5 0,-187.5 53,-187.5 53,-168.5 0,-168.5"/>
<text text-anchor="middle" x="26.5" y="-175.5" font-family="Helvetica,sans-Serif" font-size="10.00">cstddef</text>
</a>
</g>
</g>
<!-- Node2&#45;&gt;Node3 -->
<g id="edge2" class="edge">
<title>Node2&#45;&gt;Node3</title>
<path fill="none" stroke="midnightblue" d="M116.31,-224.32C99.15,-215.66 72.55,-202.24 52.75,-192.25"/>
<polygon fill="midnightblue" stroke="midnightblue" points="54.15,-189.04 43.65,-187.65 51,-195.28 54.15,-189.04"/>
</g>
<!-- Node4 -->
<g id="node4" class="node">
<title>Node4</title>
<g id="a_node4"><a xlink:title=" ">
<polygon fill="white" stroke="#bfbfbf" points="9.5,-112.5 9.5,-131.5 53.5,-131.5 53.5,-112.5 9.5,-112.5"/>
<text text-anchor="middle" x="31.5" y="-119.5" font-family="Helvetica,sans-Serif" font-size="10.00">string</text>
</a>
</g>
</g>
<!-- Node2&#45;&gt;Node4 -->
<g id="edge3" class="edge">
<title>Node2&#45;&gt;Node4</title>
<path fill="none" stroke="midnightblue" d="M125.5,-224.37C108.44,-205.97 68.29,-162.67 46.38,-139.05"/>
<polygon fill="midnightblue" stroke="midnightblue" points="48.83,-136.54 39.47,-131.59 43.7,-141.3 48.83,-136.54"/>
</g>
<!-- Node5 -->
<g id="node5" class="node">
<title>Node5</title>
<g id="a_node5"><a xlink:title=" ">
<polygon fill="white" stroke="#bfbfbf" points="110,-168.5 110,-187.5 157,-187.5 157,-168.5 110,-168.5"/>
<text text-anchor="middle" x="133.5" y="-175.5" font-family="Helvetica,sans-Serif" font-size="10.00">vector</text>
</a>
</g>
</g>
<!-- Node2&#45;&gt;Node5 -->
<g id="edge4" class="edge">
<title>Node2&#45;&gt;Node5</title>
<path fill="none" stroke="midnightblue" d="M133.5,-224.08C133.5,-217.01 133.5,-206.86 133.5,-197.99"/>
<polygon fill="midnightblue" stroke="midnightblue" points="137,-197.75 133.5,-187.75 130,-197.75 137,-197.75"/>
</g>
<!-- Node6 -->
<g id="node6" class="node">
<title>Node6</title>
<g id="a_node6"><a xlink:href="a00161.html" target="_top" xlink:title=" ">
<polygon fill="white" stroke="black" points="175.5,-168.5 175.5,-187.5 237.5,-187.5 237.5,-168.5 175.5,-168.5"/>
<text text-anchor="middle" x="206.5" y="-175.5" font-family="Helvetica,sans-Serif" font-size="10.00">Color.hpp</text>
</a>
</g>
</g>
<!-- Node2&#45;&gt;Node6 -->
<g id="edge5" class="edge">
<title>Node2&#45;&gt;Node6</title>
<path fill="none" stroke="midnightblue" d="M145.23,-224.32C156.34,-216.11 173.24,-203.6 186.48,-193.81"/>
<polygon fill="midnightblue" stroke="midnightblue" points="188.6,-196.59 194.56,-187.83 184.44,-190.97 188.6,-196.59"/>
</g>
<!-- Node13 -->
<g id="node13" class="node">
<title>Node13</title>
<g id="a_node13"><a xlink:href="a00128.html" target="_top" xlink:title=" ">
<polygon fill="white" stroke="black" points="322,-168.5 322,-187.5 399,-187.5 399,-168.5 322,-168.5"/>
<text text-anchor="middle" x="360.5" y="-175.5" font-family="Helvetica,sans-Serif" font-size="10.00">Vector2i.hpp</text>
</a>
</g>
</g>
<!-- Node2&#45;&gt;Node13 -->
<g id="edge13" class="edge">
<title>Node2&#45;&gt;Node13</title>
<path fill="none" stroke="midnightblue" d="M167.98,-224.8C207.21,-215.46 271.46,-200.18 314.84,-189.86"/>
<polygon fill="midnightblue" stroke="midnightblue" points="315.65,-193.27 324.57,-187.55 314.03,-186.46 315.65,-193.27"/>
</g>
<!-- Node6&#45;&gt;Node4 -->
<g id="edge9" class="edge">
<title>Node6&#45;&gt;Node4</title>
<path fill="none" stroke="midnightblue" d="M178.77,-168.44C147.33,-158.74 96.16,-142.95 63.17,-132.77"/>
<polygon fill="midnightblue" stroke="midnightblue" points="64.15,-129.41 53.56,-129.81 62.08,-136.1 64.15,-129.41"/>
</g>
<!-- Node7 -->
<g id="node7" class="node">
<title>Node7</title>
<g id="a_node7"><a xlink:title=" ">
<polygon fill="white" stroke="#bfbfbf" points="71.5,-112.5 71.5,-131.5 119.5,-131.5 119.5,-112.5 71.5,-112.5"/>
<text text-anchor="middle" x="95.5" y="-119.5" font-family="Helvetica,sans-Serif" font-size="10.00">mutex</text>
</a>
</g>
</g>
<!-- Node6&#45;&gt;Node7 -->
<g id="edge6" class="edge">
<title>Node6&#45;&gt;Node7</title>
<path fill="none" stroke="midnightblue" d="M188.67,-168.32C170.78,-159.62 143.02,-146.12 122.45,-136.11"/>
<polygon fill="midnightblue" stroke="midnightblue" points="123.81,-132.88 113.29,-131.65 120.75,-139.18 123.81,-132.88"/>
</g>
<!-- Node8 -->
<g id="node8" class="node">
<title>Node8</title>
<g id="a_node8"><a xlink:title=" ">
<polygon fill="white" stroke="#bfbfbf" points="332,-112.5 332,-131.5 389,-131.5 389,-112.5 332,-112.5"/>
<text text-anchor="middle" x="360.5" y="-119.5" font-family="Helvetica,sans-Serif" font-size="10.00">ostream</text>
</a>
</g>
</g>
<!-- Node6&#45;&gt;Node8 -->
<g id="edge7" class="edge">
<title>Node6&#45;&gt;Node8</title>
<path fill="none" stroke="midnightblue" d="M230.9,-168.44C256.7,-159.4 297.58,-145.06 326.52,-134.92"/>
<polygon fill="midnightblue" stroke="midnightblue" points="327.93,-138.13 336.21,-131.52 325.62,-131.52 327.93,-138.13"/>
</g>
<!-- Node9 -->
<g id="node9" class="node">
<title>Node9</title>
<g id="a_node9"><a xlink:title=" ">
<polygon fill="white" stroke="#bfbfbf" points="138,-112.5 138,-131.5 275,-131.5 275,-112.5 138,-112.5"/>
<text text-anchor="middle" x="206.5" y="-119.5" font-family="Helvetica,sans-Serif" font-size="10.00">SFML/Graphics/Color.hpp</text>
</a>
</g>
</g>
<!-- Node6&#45;&gt;Node9 -->
<g id="edge8" class="edge">
<title>Node6&#45;&gt;Node9</title>
<path fill="none" stroke="midnightblue" d="M206.5,-168.08C206.5,-161.01 206.5,-150.86 206.5,-141.99"/>
<polygon fill="midnightblue" stroke="midnightblue" points="210,-141.75 206.5,-131.75 203,-141.75 210,-141.75"/>
</g>
<!-- Node10 -->
<g id="node10" class="node">
<title>Node10</title>
<g id="a_node10"><a xlink:href="a00245.html" target="_top" xlink:title=" ">
<polygon fill="white" stroke="black" points="327,-56.5 327,-75.5 402,-75.5 402,-56.5 327,-56.5"/>
<text text-anchor="middle" x="364.5" y="-63.5" font-family="Helvetica,sans-Serif" font-size="10.00">ISetting.hpp</text>
</a>
</g>
</g>
<!-- Node6&#45;&gt;Node10 -->
<g id="edge10" class="edge">
<title>Node6&#45;&gt;Node10</title>
<path fill="none" stroke="midnightblue" d="M222.85,-168.36C238.74,-159.76 263.34,-145.87 283.5,-132 306.06,-116.48 330.36,-96.5 346.4,-82.81"/>
<polygon fill="midnightblue" stroke="midnightblue" points="349.1,-85.1 354.39,-75.92 344.53,-79.8 349.1,-85.1"/>
</g>
<!-- Node11 -->
<g id="node11" class="node">
<title>Node11</title>
<g id="a_node11"><a xlink:title=" ">
<polygon fill="white" stroke="#bfbfbf" points="413.5,-0.5 413.5,-19.5 471.5,-19.5 471.5,-0.5 413.5,-0.5"/>
<text text-anchor="middle" x="442.5" y="-7.5" font-family="Helvetica,sans-Serif" font-size="10.00">memory</text>
</a>
</g>
</g>
<!-- Node10&#45;&gt;Node11 -->
<g id="edge11" class="edge">
<title>Node10&#45;&gt;Node11</title>
<path fill="none" stroke="midnightblue" d="M377.03,-56.32C389.09,-47.98 407.53,-35.21 421.77,-25.35"/>
<polygon fill="midnightblue" stroke="midnightblue" points="423.77,-28.22 430,-19.65 419.78,-22.47 423.77,-28.22"/>
</g>
<!-- Node12 -->
<g id="node12" class="node">
<title>Node12</title>
<g id="a_node12"><a xlink:title=" ">
<polygon fill="white" stroke="#bfbfbf" points="312,-0.5 312,-19.5 395,-19.5 395,-0.5 312,-0.5"/>
<text text-anchor="middle" x="353.5" y="-7.5" font-family="Helvetica,sans-Serif" font-size="10.00">libconfig.h++</text>
</a>
</g>
</g>
<!-- Node10&#45;&gt;Node12 -->
<g id="edge12" class="edge">
<title>Node10&#45;&gt;Node12</title>
<path fill="none" stroke="midnightblue" d="M362.68,-56.08C361.23,-48.93 359.13,-38.64 357.31,-29.69"/>
<polygon fill="midnightblue" stroke="midnightblue" points="360.71,-28.85 355.28,-19.75 353.85,-30.25 360.71,-28.85"/>
</g>
<!-- Node13&#45;&gt;Node8 -->
<g id="edge14" class="edge">
<title>Node13&#45;&gt;Node8</title>
<path fill="none" stroke="midnightblue" d="M360.5,-168.08C360.5,-161.01 360.5,-150.86 360.5,-141.99"/>
<polygon fill="midnightblue" stroke="midnightblue" points="364,-141.75 360.5,-131.75 357,-141.75 364,-141.75"/>
</g>
<!-- Node14 -->
<g id="node14" class="node">
<title>Node14</title>
<g id="a_node14"><a xlink:href="a00236.html" target="_top" xlink:title=" ">
<polygon fill="white" stroke="black" points="407,-112.5 407,-131.5 478,-131.5 478,-112.5 407,-112.5"/>
<text text-anchor="middle" x="442.5" y="-119.5" font-family="Helvetica,sans-Serif" font-size="10.00">IConfig.hpp</text>
</a>
</g>
</g>
<!-- Node13&#45;&gt;Node14 -->
<g id="edge15" class="edge">
<title>Node13&#45;&gt;Node14</title>
<path fill="none" stroke="midnightblue" d="M373.67,-168.32C386.35,-159.98 405.73,-147.21 420.71,-137.35"/>
<polygon fill="midnightblue" stroke="midnightblue" points="422.93,-140.08 429.36,-131.65 419.08,-134.23 422.93,-140.08"/>
</g>
<!-- Node14&#45;&gt;Node10 -->
<g id="edge17" class="edge">
<title>Node14&#45;&gt;Node10</title>
<path fill="none" stroke="midnightblue" d="M429.97,-112.32C417.91,-103.98 399.47,-91.21 385.23,-81.35"/>
<polygon fill="midnightblue" stroke="midnightblue" points="387.22,-78.47 377,-75.65 383.23,-84.22 387.22,-78.47"/>
</g>
<!-- Node14&#45;&gt;Node11 -->
<g id="edge16" class="edge">
<title>Node14&#45;&gt;Node11</title>
<path fill="none" stroke="midnightblue" d="M442.5,-112.37C442.5,-94.62 442.5,-53.67 442.5,-29.6"/>
<polygon fill="midnightblue" stroke="midnightblue" points="446,-29.59 442.5,-19.59 439,-29.59 446,-29.59"/>
</g>
</g>
</svg>
