<?xml version="1.0" encoding="UTF-8" standalone="no"?>
<!DOCTYPE svg PUBLIC "-//W3C//DTD SVG 1.1//EN"
 "http://www.w3.org/Graphics/SVG/1.1/DTD/svg11.dtd">
<!-- Generated by graphviz version 2.43.0 (0)
 -->
<!-- Title: /home/runner/work/Raytracer/Raytracer/PluginsExt/Cylinder/CylinderEntity.hpp Pages: 1 -->
<svg width="654pt" height="386pt"
 viewBox="0.00 0.00 654.00 386.00" xmlns="http://www.w3.org/2000/svg" xmlns:xlink="http://www.w3.org/1999/xlink">
<g id="graph0" class="graph" transform="scale(1 1) rotate(0) translate(4 382)">
<title>/home/runner/work/Raytracer/Raytracer/PluginsExt/Cylinder/CylinderEntity.hpp</title>
<polygon fill="white" stroke="transparent" points="-4,4 -4,-382 650,-382 650,4 -4,4"/>
<!-- Node1 -->
<g id="node1" class="node">
<title>Node1</title>
<g id="a_node1"><a xlink:title=" ">
<polygon fill="#bfbfbf" stroke="black" points="116,-336.5 116,-377.5 280,-377.5 280,-336.5 116,-336.5"/>
<text text-anchor="start" x="124" y="-365.5" font-family="Helvetica,sans-Serif" font-size="10.00">/home/runner/work/Raytracer</text>
<text text-anchor="start" x="124" y="-354.5" font-family="Helvetica,sans-Serif" font-size="10.00">/Raytracer/PluginsExt/Cylinder</text>
<text text-anchor="middle" x="198" y="-343.5" font-family="Helvetica,sans-Serif" font-size="10.00">/CylinderEntity.hpp</text>
</a>
</g>
</g>
<!-- Node2 -->
<g id="node2" class="node">
<title>Node2</title>
<g id="a_node2"><a xlink:title=" ">
<polygon fill="white" stroke="#bfbfbf" points="170,-224.5 170,-243.5 226,-243.5 226,-224.5 170,-224.5"/>
<text text-anchor="middle" x="198" y="-231.5" font-family="Helvetica,sans-Serif" font-size="10.00">optional</text>
</a>
</g>
</g>
<!-- Node1&#45;&gt;Node2 -->
<g id="edge1" class="edge">
<title>Node1&#45;&gt;Node2</title>
<path fill="none" stroke="midnightblue" d="M198,-336.29C198,-313.48 198,-276.19 198,-253.78"/>
<polygon fill="midnightblue" stroke="midnightblue" points="201.5,-253.57 198,-243.57 194.5,-253.57 201.5,-253.57"/>
</g>
<!-- Node3 -->
<g id="node3" class="node">
<title>Node3</title>
<g id="a_node3"><a xlink:href="a00080.html" target="_top" xlink:title=" ">
<polygon fill="white" stroke="black" points="288.5,-280.5 288.5,-299.5 373.5,-299.5 373.5,-280.5 288.5,-280.5"/>
<text text-anchor="middle" x="331" y="-287.5" font-family="Helvetica,sans-Serif" font-size="10.00">IPrimitive.hpp</text>
</a>
</g>
</g>
<!-- Node1&#45;&gt;Node3 -->
<g id="edge2" class="edge">
<title>Node1&#45;&gt;Node3</title>
<path fill="none" stroke="midnightblue" d="M237.9,-336.5C259.37,-326.01 285.27,-313.35 304.3,-304.05"/>
<polygon fill="midnightblue" stroke="midnightblue" points="305.85,-307.19 313.3,-299.65 302.77,-300.9 305.85,-307.19"/>
</g>
<!-- Node7 -->
<g id="node7" class="node">
<title>Node7</title>
<g id="a_node7"><a xlink:href="a00206.html" target="_top" xlink:title=" ">
<polygon fill="white" stroke="black" points="242.5,-56.5 242.5,-75.5 317.5,-75.5 317.5,-56.5 242.5,-56.5"/>
<text text-anchor="middle" x="280" y="-63.5" font-family="Helvetica,sans-Serif" font-size="10.00">ISetting.hpp</text>
</a>
</g>
</g>
<!-- Node1&#45;&gt;Node7 -->
<g id="edge27" class="edge">
<title>Node1&#45;&gt;Node7</title>
<path fill="none" stroke="midnightblue" d="M115.75,-339.59C61.35,-323.4 0,-292.41 0,-235 0,-235 0,-235 0,-177 0,-127.67 152.49,-91.24 232.4,-75.54"/>
<polygon fill="midnightblue" stroke="midnightblue" points="233.08,-78.97 242.24,-73.64 231.76,-72.1 233.08,-78.97"/>
</g>
<!-- Node15 -->
<g id="node15" class="node">
<title>Node15</title>
<g id="a_node15"><a xlink:href="a00077.html" target="_top" xlink:title=" ">
<polygon fill="white" stroke="black" points="406.5,-224.5 406.5,-243.5 487.5,-243.5 487.5,-224.5 406.5,-224.5"/>
<text text-anchor="middle" x="447" y="-231.5" font-family="Helvetica,sans-Serif" font-size="10.00">IMaterial.hpp</text>
</a>
</g>
</g>
<!-- Node1&#45;&gt;Node15 -->
<g id="edge34" class="edge">
<title>Node1&#45;&gt;Node15</title>
<path fill="none" stroke="midnightblue" d="M280.44,-340.4C313.86,-331.76 351.84,-318.83 383,-300 403.88,-287.38 422.8,-266.42 434.56,-251.72"/>
<polygon fill="midnightblue" stroke="midnightblue" points="437.57,-253.56 440.92,-243.5 432.03,-249.27 437.57,-253.56"/>
</g>
<!-- Node16 -->
<g id="node16" class="node">
<title>Node16</title>
<g id="a_node16"><a xlink:href="a00137.html" target="_top" xlink:title=" ">
<polygon fill="white" stroke="black" points="356.5,-168.5 356.5,-187.5 411.5,-187.5 411.5,-168.5 356.5,-168.5"/>
<text text-anchor="middle" x="384" y="-175.5" font-family="Helvetica,sans-Serif" font-size="10.00">Ray.hpp</text>
</a>
</g>
</g>
<!-- Node1&#45;&gt;Node16 -->
<g id="edge35" class="edge">
<title>Node1&#45;&gt;Node16</title>
<path fill="none" stroke="midnightblue" d="M182.61,-336.28C162.78,-308.3 133.89,-256.86 161,-224 212.6,-161.46 261.01,-202.63 346.14,-187.89"/>
<polygon fill="midnightblue" stroke="midnightblue" points="347.01,-191.28 356.15,-185.92 345.67,-184.41 347.01,-191.28"/>
</g>
<!-- Node17 -->
<g id="node17" class="node">
<title>Node17</title>
<g id="a_node17"><a xlink:href="a00119.html" target="_top" xlink:title=" ">
<polygon fill="white" stroke="black" points="521.5,-280.5 521.5,-299.5 594.5,-299.5 594.5,-280.5 521.5,-280.5"/>
<text text-anchor="middle" x="558" y="-287.5" font-family="Helvetica,sans-Serif" font-size="10.00">ILogger.hpp</text>
</a>
</g>
</g>
<!-- Node1&#45;&gt;Node17 -->
<g id="edge28" class="edge">
<title>Node1&#45;&gt;Node17</title>
<path fill="none" stroke="midnightblue" d="M280.14,-341.17C351.59,-328.27 452.61,-310.03 511.11,-299.47"/>
<polygon fill="midnightblue" stroke="midnightblue" points="511.95,-302.87 521.17,-297.65 510.71,-295.98 511.95,-302.87"/>
</g>
<!-- Node19 -->
<g id="node19" class="node">
<title>Node19</title>
<g id="a_node19"><a xlink:href="a00086.html" target="_top" xlink:title=" ">
<polygon fill="white" stroke="black" points="28,-224.5 28,-243.5 114,-243.5 114,-224.5 28,-224.5"/>
<text text-anchor="middle" x="71" y="-231.5" font-family="Helvetica,sans-Serif" font-size="10.00">Transform.hpp</text>
</a>
</g>
</g>
<!-- Node1&#45;&gt;Node19 -->
<g id="edge30" class="edge">
<title>Node1&#45;&gt;Node19</title>
<path fill="none" stroke="midnightblue" d="M171.15,-336.3C157.73,-326.02 141.5,-312.9 128,-300 111.98,-284.69 95.48,-265.41 84.38,-251.84"/>
<polygon fill="midnightblue" stroke="midnightblue" points="86.93,-249.43 77.92,-243.85 81.48,-253.83 86.93,-249.43"/>
</g>
<!-- Node3&#45;&gt;Node2 -->
<g id="edge3" class="edge">
<title>Node3&#45;&gt;Node2</title>
<path fill="none" stroke="midnightblue" d="M309.93,-280.44C287.94,-271.52 253.27,-257.44 228.34,-247.32"/>
<polygon fill="midnightblue" stroke="midnightblue" points="229.56,-244.04 218.98,-243.52 226.92,-250.52 229.56,-244.04"/>
</g>
<!-- Node4 -->
<g id="node4" class="node">
<title>Node4</title>
<g id="a_node4"><a xlink:href="a00122.html" target="_top" xlink:title=" ">
<polygon fill="white" stroke="black" points="468,-168.5 468,-187.5 530,-187.5 530,-168.5 468,-168.5"/>
<text text-anchor="middle" x="499" y="-175.5" font-family="Helvetica,sans-Serif" font-size="10.00">Color.hpp</text>
</a>
</g>
</g>
<!-- Node3&#45;&gt;Node4 -->
<g id="edge4" class="edge">
<title>Node3&#45;&gt;Node4</title>
<path fill="none" stroke="midnightblue" d="M373.63,-283.25C417.58,-276.36 481.78,-263.27 497,-244 507.16,-231.14 506.44,-211.96 503.91,-197.76"/>
<polygon fill="midnightblue" stroke="midnightblue" points="507.25,-196.67 501.67,-187.66 500.42,-198.18 507.25,-196.67"/>
</g>
<!-- Node10 -->
<g id="node10" class="node">
<title>Node10</title>
<g id="a_node10"><a xlink:href="a00200.html" target="_top" xlink:title=" ">
<polygon fill="white" stroke="black" points="548,-168.5 548,-187.5 646,-187.5 646,-168.5 548,-168.5"/>
<text text-anchor="middle" x="597" y="-175.5" font-family="Helvetica,sans-Serif" font-size="10.00">IDisplayable.hpp</text>
</a>
</g>
</g>
<!-- Node3&#45;&gt;Node10 -->
<g id="edge10" class="edge">
<title>Node3&#45;&gt;Node10</title>
<path fill="none" stroke="midnightblue" d="M373.8,-283.7C412.04,-277.77 468.84,-265.97 514,-244 540.07,-231.32 565.65,-209.45 581.37,-194.61"/>
<polygon fill="midnightblue" stroke="midnightblue" points="583.89,-197.05 588.64,-187.58 579.02,-192.02 583.89,-197.05"/>
</g>
<!-- Node12 -->
<g id="node12" class="node">
<title>Node12</title>
<g id="a_node12"><a xlink:href="a00071.html" target="_top" xlink:title=" ">
<polygon fill="white" stroke="black" points="282,-224.5 282,-243.5 350,-243.5 350,-224.5 282,-224.5"/>
<text text-anchor="middle" x="316" y="-231.5" font-family="Helvetica,sans-Serif" font-size="10.00">IEntity.hpp</text>
</a>
</g>
</g>
<!-- Node3&#45;&gt;Node12 -->
<g id="edge13" class="edge">
<title>Node3&#45;&gt;Node12</title>
<path fill="none" stroke="midnightblue" d="M328.52,-280.08C326.51,-272.85 323.61,-262.41 321.11,-253.4"/>
<polygon fill="midnightblue" stroke="midnightblue" points="324.48,-252.45 318.43,-243.75 317.74,-254.32 324.48,-252.45"/>
</g>
<!-- Node14 -->
<g id="node14" class="node">
<title>Node14</title>
<g id="a_node14"><a xlink:href="a00092.html" target="_top" xlink:title=" ">
<polygon fill="white" stroke="black" points="241.5,-112.5 241.5,-131.5 318.5,-131.5 318.5,-112.5 241.5,-112.5"/>
<text text-anchor="middle" x="280" y="-119.5" font-family="Helvetica,sans-Serif" font-size="10.00">Vector3f.hpp</text>
</a>
</g>
</g>
<!-- Node3&#45;&gt;Node14 -->
<g id="edge26" class="edge">
<title>Node3&#45;&gt;Node14</title>
<path fill="none" stroke="midnightblue" d="M318.19,-280.42C283.77,-257.31 191.63,-195.02 188,-188 174.89,-162.69 206.52,-145.14 236.2,-134.7"/>
<polygon fill="midnightblue" stroke="midnightblue" points="237.31,-138.02 245.71,-131.57 235.11,-131.38 237.31,-138.02"/>
</g>
<!-- Node3&#45;&gt;Node15 -->
<g id="edge18" class="edge">
<title>Node3&#45;&gt;Node15</title>
<path fill="none" stroke="midnightblue" d="M349.38,-280.44C368.22,-271.68 397.73,-257.94 419.38,-247.86"/>
<polygon fill="midnightblue" stroke="midnightblue" points="421.12,-250.91 428.71,-243.52 418.16,-244.56 421.12,-250.91"/>
</g>
<!-- Node3&#45;&gt;Node16 -->
<g id="edge25" class="edge">
<title>Node3&#45;&gt;Node16</title>
<path fill="none" stroke="midnightblue" d="M337.09,-280.32C343.14,-271.46 352.44,-257.18 359,-244 366.58,-228.78 373.37,-210.67 377.96,-197.43"/>
<polygon fill="midnightblue" stroke="midnightblue" points="381.39,-198.23 381.26,-187.63 374.75,-195.99 381.39,-198.23"/>
</g>
<!-- Node5 -->
<g id="node5" class="node">
<title>Node5</title>
<g id="a_node5"><a xlink:title=" ">
<polygon fill="white" stroke="#bfbfbf" points="465,-112.5 465,-131.5 513,-131.5 513,-112.5 465,-112.5"/>
<text text-anchor="middle" x="489" y="-119.5" font-family="Helvetica,sans-Serif" font-size="10.00">mutex</text>
</a>
</g>
</g>
<!-- Node4&#45;&gt;Node5 -->
<g id="edge5" class="edge">
<title>Node4&#45;&gt;Node5</title>
<path fill="none" stroke="midnightblue" d="M497.35,-168.08C496.02,-160.93 494.12,-150.64 492.46,-141.69"/>
<polygon fill="midnightblue" stroke="midnightblue" points="495.88,-140.95 490.62,-131.75 489,-142.22 495.88,-140.95"/>
</g>
<!-- Node6 -->
<g id="node6" class="node">
<title>Node6</title>
<g id="a_node6"><a xlink:title=" ">
<polygon fill="white" stroke="#bfbfbf" points="364.5,-56.5 364.5,-75.5 421.5,-75.5 421.5,-56.5 364.5,-56.5"/>
<text text-anchor="middle" x="393" y="-63.5" font-family="Helvetica,sans-Serif" font-size="10.00">ostream</text>
</a>
</g>
</g>
<!-- Node4&#45;&gt;Node6 -->
<g id="edge6" class="edge">
<title>Node4&#45;&gt;Node6</title>
<path fill="none" stroke="midnightblue" d="M490.68,-168.37C472.96,-149.97 431.23,-106.67 408.47,-83.05"/>
<polygon fill="midnightblue" stroke="midnightblue" points="410.74,-80.36 401.28,-75.59 405.7,-85.22 410.74,-80.36"/>
</g>
<!-- Node4&#45;&gt;Node7 -->
<g id="edge7" class="edge">
<title>Node4&#45;&gt;Node7</title>
<path fill="none" stroke="midnightblue" d="M481.82,-168.37C443.68,-149.21 351.74,-103.04 306.31,-80.22"/>
<polygon fill="midnightblue" stroke="midnightblue" points="307.61,-76.95 297.1,-75.59 304.47,-83.21 307.61,-76.95"/>
</g>
<!-- Node8 -->
<g id="node8" class="node">
<title>Node8</title>
<g id="a_node8"><a xlink:title=" ">
<polygon fill="white" stroke="#bfbfbf" points="460,-0.5 460,-19.5 518,-19.5 518,-0.5 460,-0.5"/>
<text text-anchor="middle" x="489" y="-7.5" font-family="Helvetica,sans-Serif" font-size="10.00">memory</text>
</a>
</g>
</g>
<!-- Node7&#45;&gt;Node8 -->
<g id="edge8" class="edge">
<title>Node7&#45;&gt;Node8</title>
<path fill="none" stroke="midnightblue" d="M313.12,-56.44C350.28,-46.84 410.52,-31.28 449.95,-21.09"/>
<polygon fill="midnightblue" stroke="midnightblue" points="450.94,-24.45 459.75,-18.56 449.19,-17.67 450.94,-24.45"/>
</g>
<!-- Node9 -->
<g id="node9" class="node">
<title>Node9</title>
<g id="a_node9"><a xlink:title=" ">
<polygon fill="white" stroke="#bfbfbf" points="238.5,-0.5 238.5,-19.5 321.5,-19.5 321.5,-0.5 238.5,-0.5"/>
<text text-anchor="middle" x="280" y="-7.5" font-family="Helvetica,sans-Serif" font-size="10.00">libconfig.h++</text>
</a>
</g>
</g>
<!-- Node7&#45;&gt;Node9 -->
<g id="edge9" class="edge">
<title>Node7&#45;&gt;Node9</title>
<path fill="none" stroke="midnightblue" d="M280,-56.08C280,-49.01 280,-38.86 280,-29.99"/>
<polygon fill="midnightblue" stroke="midnightblue" points="283.5,-29.75 280,-19.75 276.5,-29.75 283.5,-29.75"/>
</g>
<!-- Node10&#45;&gt;Node8 -->
<g id="edge11" class="edge">
<title>Node10&#45;&gt;Node8</title>
<path fill="none" stroke="midnightblue" d="M597.48,-168.08C597.82,-155.06 597.04,-130.41 588,-112 569.86,-75.06 533.04,-43.2 509.78,-25.6"/>
<polygon fill="midnightblue" stroke="midnightblue" points="511.72,-22.69 501.59,-19.57 507.57,-28.32 511.72,-22.69"/>
</g>
<!-- Node11 -->
<g id="node11" class="node">
<title>Node11</title>
<g id="a_node11"><a xlink:title=" ">
<polygon fill="white" stroke="#bfbfbf" points="531.5,-112.5 531.5,-131.5 578.5,-131.5 578.5,-112.5 531.5,-112.5"/>
<text text-anchor="middle" x="555" y="-119.5" font-family="Helvetica,sans-Serif" font-size="10.00">vector</text>
</a>
</g>
</g>
<!-- Node10&#45;&gt;Node11 -->
<g id="edge12" class="edge">
<title>Node10&#45;&gt;Node11</title>
<path fill="none" stroke="midnightblue" d="M590.06,-168.08C584.07,-160.38 575.25,-149.03 567.95,-139.65"/>
<polygon fill="midnightblue" stroke="midnightblue" points="570.71,-137.5 561.81,-131.75 565.18,-141.79 570.71,-137.5"/>
</g>
<!-- Node13 -->
<g id="node13" class="node">
<title>Node13</title>
<g id="a_node13"><a xlink:href="a00083.html" target="_top" xlink:title=" ">
<polygon fill="white" stroke="black" points="197.5,-168.5 197.5,-187.5 338.5,-187.5 338.5,-168.5 197.5,-168.5"/>
<text text-anchor="middle" x="268" y="-175.5" font-family="Helvetica,sans-Serif" font-size="10.00">Transform/ITransform.hpp</text>
</a>
</g>
</g>
<!-- Node12&#45;&gt;Node13 -->
<g id="edge14" class="edge">
<title>Node12&#45;&gt;Node13</title>
<path fill="none" stroke="midnightblue" d="M308.07,-224.08C301.15,-216.3 290.93,-204.8 282.55,-195.37"/>
<polygon fill="midnightblue" stroke="midnightblue" points="285.04,-192.9 275.78,-187.75 279.81,-197.55 285.04,-192.9"/>
</g>
<!-- Node13&#45;&gt;Node14 -->
<g id="edge15" class="edge">
<title>Node13&#45;&gt;Node14</title>
<path fill="none" stroke="midnightblue" d="M269.98,-168.08C271.57,-160.93 273.86,-150.64 275.85,-141.69"/>
<polygon fill="midnightblue" stroke="midnightblue" points="279.3,-142.27 278.06,-131.75 272.47,-140.75 279.3,-142.27"/>
</g>
<!-- Node14&#45;&gt;Node6 -->
<g id="edge16" class="edge">
<title>Node14&#45;&gt;Node6</title>
<path fill="none" stroke="midnightblue" d="M297.91,-112.44C316.25,-103.68 345.01,-89.94 366.09,-79.86"/>
<polygon fill="midnightblue" stroke="midnightblue" points="367.67,-82.99 375.18,-75.52 364.65,-76.67 367.67,-82.99"/>
</g>
<!-- Node14&#45;&gt;Node7 -->
<g id="edge17" class="edge">
<title>Node14&#45;&gt;Node7</title>
<path fill="none" stroke="midnightblue" d="M280,-112.08C280,-105.01 280,-94.86 280,-85.99"/>
<polygon fill="midnightblue" stroke="midnightblue" points="283.5,-85.75 280,-75.75 276.5,-85.75 283.5,-85.75"/>
</g>
<!-- Node15&#45;&gt;Node4 -->
<g id="edge21" class="edge">
<title>Node15&#45;&gt;Node4</title>
<path fill="none" stroke="midnightblue" d="M455.59,-224.08C463.16,-216.22 474.38,-204.57 483.51,-195.08"/>
<polygon fill="midnightblue" stroke="midnightblue" points="486.16,-197.38 490.57,-187.75 481.12,-192.53 486.16,-197.38"/>
</g>
<!-- Node15&#45;&gt;Node10 -->
<g id="edge22" class="edge">
<title>Node15&#45;&gt;Node10</title>
<path fill="none" stroke="midnightblue" d="M470.77,-224.44C495.89,-215.4 535.71,-201.06 563.9,-190.92"/>
<polygon fill="midnightblue" stroke="midnightblue" points="565.12,-194.2 573.34,-187.52 562.75,-187.61 565.12,-194.2"/>
</g>
<!-- Node15&#45;&gt;Node13 -->
<g id="edge23" class="edge">
<title>Node15&#45;&gt;Node13</title>
<path fill="none" stroke="midnightblue" d="M418.64,-224.44C388.26,-215.28 339.89,-200.69 306.18,-190.52"/>
<polygon fill="midnightblue" stroke="midnightblue" points="306.82,-187.05 296.23,-187.52 304.79,-193.76 306.82,-187.05"/>
</g>
<!-- Node15&#45;&gt;Node14 -->
<g id="edge24" class="edge">
<title>Node15&#45;&gt;Node14</title>
<path fill="none" stroke="midnightblue" d="M445.87,-224.08C443.64,-210.15 437.37,-183.24 421,-168 407.35,-155.29 363.84,-142.53 328.72,-133.85"/>
<polygon fill="midnightblue" stroke="midnightblue" points="329.15,-130.36 318.61,-131.41 327.51,-137.16 329.15,-130.36"/>
</g>
<!-- Node15&#45;&gt;Node16 -->
<g id="edge19" class="edge">
<title>Node15&#45;&gt;Node16</title>
<path fill="none" stroke="midnightblue" d="M436.88,-224.32C427.47,-216.26 413.26,-204.08 401.93,-194.37"/>
<polygon fill="midnightblue" stroke="midnightblue" points="404.18,-191.68 394.31,-187.83 399.62,-197 404.18,-191.68"/>
</g>
<!-- Node16&#45;&gt;Node14 -->
<g id="edge20" class="edge">
<title>Node16&#45;&gt;Node14</title>
<path fill="none" stroke="midnightblue" d="M367.29,-168.32C350.69,-159.7 325,-146.36 305.78,-136.39"/>
<polygon fill="midnightblue" stroke="midnightblue" points="307.16,-133.16 296.67,-131.65 303.93,-139.37 307.16,-133.16"/>
</g>
<!-- Node18 -->
<g id="node18" class="node">
<title>Node18</title>
<g id="a_node18"><a xlink:title=" ">
<polygon fill="white" stroke="#bfbfbf" points="582,-224.5 582,-243.5 626,-243.5 626,-224.5 582,-224.5"/>
<text text-anchor="middle" x="604" y="-231.5" font-family="Helvetica,sans-Serif" font-size="10.00">string</text>
</a>
</g>
</g>
<!-- Node17&#45;&gt;Node18 -->
<g id="edge29" class="edge">
<title>Node17&#45;&gt;Node18</title>
<path fill="none" stroke="midnightblue" d="M565.6,-280.08C572.23,-272.3 582.02,-260.8 590.06,-251.37"/>
<polygon fill="midnightblue" stroke="midnightblue" points="592.73,-253.63 596.55,-243.75 587.4,-249.09 592.73,-253.63"/>
</g>
<!-- Node19&#45;&gt;Node7 -->
<g id="edge32" class="edge">
<title>Node19&#45;&gt;Node7</title>
<path fill="none" stroke="midnightblue" d="M76.48,-224.24C85.05,-211 102.67,-185.55 122,-168 163.46,-130.36 220.54,-97.7 253.53,-80.32"/>
<polygon fill="midnightblue" stroke="midnightblue" points="255.3,-83.35 262.56,-75.63 252.07,-77.14 255.3,-83.35"/>
</g>
<!-- Node19&#45;&gt;Node13 -->
<g id="edge31" class="edge">
<title>Node19&#45;&gt;Node13</title>
<path fill="none" stroke="midnightblue" d="M102.22,-224.44C135.93,-215.2 189.8,-200.44 226.93,-190.26"/>
<polygon fill="midnightblue" stroke="midnightblue" points="228.21,-193.54 236.93,-187.52 226.36,-186.78 228.21,-193.54"/>
</g>
<!-- Node19&#45;&gt;Node14 -->
<g id="edge33" class="edge">
<title>Node19&#45;&gt;Node14</title>
<path fill="none" stroke="midnightblue" d="M80.14,-224.34C94.88,-210.76 125.26,-184.33 155,-168 181.21,-153.61 212.93,-142.26 237.86,-134.55"/>
<polygon fill="midnightblue" stroke="midnightblue" points="239.18,-137.81 247.74,-131.58 237.16,-131.11 239.18,-137.81"/>
</g>
</g>
</svg>
