<?xml version="1.0" encoding="UTF-8" standalone="no"?>
<!DOCTYPE svg PUBLIC "-//W3C//DTD SVG 1.1//EN"
 "http://www.w3.org/Graphics/SVG/1.1/DTD/svg11.dtd">
<!-- Generated by graphviz version 2.43.0 (0)
 -->
<!-- Title: /home/runner/work/Raytracer/Raytracer/PluginsExt/LimitedCylinder/LimitedCylinderCreator.hpp Pages: 1 -->
<svg width="814pt" height="442pt"
 viewBox="0.00 0.00 814.00 442.00" xmlns="http://www.w3.org/2000/svg" xmlns:xlink="http://www.w3.org/1999/xlink">
<g id="graph0" class="graph" transform="scale(1 1) rotate(0) translate(4 438)">
<title>/home/runner/work/Raytracer/Raytracer/PluginsExt/LimitedCylinder/LimitedCylinderCreator.hpp</title>
<polygon fill="white" stroke="transparent" points="-4,4 -4,-438 810,-438 810,4 -4,4"/>
<!-- Node1 -->
<g id="node1" class="node">
<title>Node1</title>
<g id="a_node1"><a xlink:title=" ">
<polygon fill="#bfbfbf" stroke="black" points="229.5,-392.5 229.5,-433.5 430.5,-433.5 430.5,-392.5 229.5,-392.5"/>
<text text-anchor="start" x="237.5" y="-421.5" font-family="Helvetica,sans-Serif" font-size="10.00">/home/runner/work/Raytracer</text>
<text text-anchor="start" x="237.5" y="-410.5" font-family="Helvetica,sans-Serif" font-size="10.00">/Raytracer/PluginsExt/LimitedCylinder</text>
<text text-anchor="middle" x="330" y="-399.5" font-family="Helvetica,sans-Serif" font-size="10.00">/LimitedCylinderCreator.hpp</text>
</a>
</g>
</g>
<!-- Node2 -->
<g id="node2" class="node">
<title>Node2</title>
<g id="a_node2"><a xlink:title=" ">
<polygon fill="white" stroke="#bfbfbf" points="56.5,-112.5 56.5,-131.5 103.5,-131.5 103.5,-112.5 56.5,-112.5"/>
<text text-anchor="middle" x="80" y="-119.5" font-family="Helvetica,sans-Serif" font-size="10.00">vector</text>
</a>
</g>
</g>
<!-- Node1&#45;&gt;Node2 -->
<g id="edge1" class="edge">
<title>Node1&#45;&gt;Node2</title>
<path fill="none" stroke="midnightblue" d="M229.1,-410.04C144.7,-402.39 38,-375.92 38,-291 38,-291 38,-291 38,-233 38,-198.41 56.35,-161.49 68.79,-140.43"/>
<polygon fill="midnightblue" stroke="midnightblue" points="71.91,-142.04 74.16,-131.69 65.94,-138.38 71.91,-142.04"/>
</g>
<!-- Node3 -->
<g id="node3" class="node">
<title>Node3</title>
<g id="a_node3"><a xlink:title=" ">
<polygon fill="white" stroke="#bfbfbf" points="317,-0.5 317,-19.5 375,-19.5 375,-0.5 317,-0.5"/>
<text text-anchor="middle" x="346" y="-7.5" font-family="Helvetica,sans-Serif" font-size="10.00">memory</text>
</a>
</g>
</g>
<!-- Node1&#45;&gt;Node3 -->
<g id="edge2" class="edge">
<title>Node1&#45;&gt;Node3</title>
<path fill="none" stroke="midnightblue" d="M229.42,-409.03C173.07,-403.34 103.57,-389.31 50,-356 19.05,-336.76 0,-327.45 0,-291 0,-291 0,-291 0,-121 0,-57.26 215.94,-25.58 306.64,-15.08"/>
<polygon fill="midnightblue" stroke="midnightblue" points="307.25,-18.54 316.8,-13.93 306.47,-11.58 307.25,-18.54"/>
</g>
<!-- Node4 -->
<g id="node4" class="node">
<title>Node4</title>
<g id="a_node4"><a xlink:href="a00161.html" target="_top" xlink:title=" ">
<polygon fill="white" stroke="black" points="474,-336.5 474,-355.5 578,-355.5 578,-336.5 474,-336.5"/>
<text text-anchor="middle" x="526" y="-343.5" font-family="Helvetica,sans-Serif" font-size="10.00">IEntityCreator.hpp</text>
</a>
</g>
</g>
<!-- Node1&#45;&gt;Node4 -->
<g id="edge3" class="edge">
<title>Node1&#45;&gt;Node4</title>
<path fill="none" stroke="midnightblue" d="M388.81,-392.5C421.85,-381.54 462,-368.22 490.31,-358.84"/>
<polygon fill="midnightblue" stroke="midnightblue" points="491.78,-362.04 500.17,-355.57 489.57,-355.39 491.78,-362.04"/>
</g>
<!-- Node9 -->
<g id="node9" class="node">
<title>Node9</title>
<g id="a_node9"><a xlink:href="a00206.html" target="_top" xlink:title=" ">
<polygon fill="white" stroke="black" points="585.5,-56.5 585.5,-75.5 660.5,-75.5 660.5,-56.5 585.5,-56.5"/>
<text text-anchor="middle" x="623" y="-63.5" font-family="Helvetica,sans-Serif" font-size="10.00">ISetting.hpp</text>
</a>
</g>
</g>
<!-- Node1&#45;&gt;Node9 -->
<g id="edge16" class="edge">
<title>Node1&#45;&gt;Node9</title>
<path fill="none" stroke="midnightblue" d="M430.66,-406.65C570.35,-396.42 806,-367.79 806,-291 806,-291 806,-291 806,-177 806,-113.97 725.26,-86.14 671.04,-74.56"/>
<polygon fill="midnightblue" stroke="midnightblue" points="671.41,-71.06 660.92,-72.52 670.03,-77.92 671.41,-71.06"/>
</g>
<!-- Node11 -->
<g id="node11" class="node">
<title>Node11</title>
<g id="a_node11"><a xlink:href="a00119.html" target="_top" xlink:title=" ">
<polygon fill="white" stroke="black" points="171.5,-280.5 171.5,-299.5 244.5,-299.5 244.5,-280.5 171.5,-280.5"/>
<text text-anchor="middle" x="208" y="-287.5" font-family="Helvetica,sans-Serif" font-size="10.00">ILogger.hpp</text>
</a>
</g>
</g>
<!-- Node1&#45;&gt;Node11 -->
<g id="edge15" class="edge">
<title>Node1&#45;&gt;Node11</title>
<path fill="none" stroke="midnightblue" d="M310.13,-392.29C286.07,-368.43 246.05,-328.74 223.92,-306.79"/>
<polygon fill="midnightblue" stroke="midnightblue" points="226.21,-304.13 216.65,-299.57 221.28,-309.1 226.21,-304.13"/>
</g>
<!-- Node13 -->
<g id="node13" class="node">
<title>Node13</title>
<g id="a_node13"><a xlink:href="a00284.html" target="_top" xlink:title=" ">
<polygon fill="white" stroke="black" points="290,-336.5 290,-355.5 432,-355.5 432,-336.5 290,-336.5"/>
<text text-anchor="middle" x="361" y="-343.5" font-family="Helvetica,sans-Serif" font-size="10.00">LimitedCylinderEntity.hpp</text>
</a>
</g>
</g>
<!-- Node1&#45;&gt;Node13 -->
<g id="edge17" class="edge">
<title>Node1&#45;&gt;Node13</title>
<path fill="none" stroke="midnightblue" d="M339.3,-392.5C343.51,-383.68 348.44,-373.34 352.54,-364.74"/>
<polygon fill="midnightblue" stroke="midnightblue" points="355.73,-366.19 356.87,-355.65 349.41,-363.17 355.73,-366.19"/>
</g>
<!-- Node4&#45;&gt;Node3 -->
<g id="edge4" class="edge">
<title>Node4&#45;&gt;Node3</title>
<path fill="none" stroke="midnightblue" d="M578.21,-343.57C649.35,-338.53 768,-317.72 768,-235 768,-235 768,-235 768,-121 768,-42.31 489.79,-18.89 385.15,-12.86"/>
<polygon fill="midnightblue" stroke="midnightblue" points="385.18,-9.36 375.01,-12.3 384.8,-16.34 385.18,-9.36"/>
</g>
<!-- Node5 -->
<g id="node5" class="node">
<title>Node5</title>
<g id="a_node5"><a xlink:href="a00071.html" target="_top" xlink:title=" ">
<polygon fill="white" stroke="black" points="492,-224.5 492,-243.5 560,-243.5 560,-224.5 492,-224.5"/>
<text text-anchor="middle" x="526" y="-231.5" font-family="Helvetica,sans-Serif" font-size="10.00">IEntity.hpp</text>
</a>
</g>
</g>
<!-- Node4&#45;&gt;Node5 -->
<g id="edge5" class="edge">
<title>Node4&#45;&gt;Node5</title>
<path fill="none" stroke="midnightblue" d="M526,-336.37C526,-318.62 526,-277.67 526,-253.6"/>
<polygon fill="midnightblue" stroke="midnightblue" points="529.5,-253.59 526,-243.59 522.5,-253.59 529.5,-253.59"/>
</g>
<!-- Node4&#45;&gt;Node9 -->
<g id="edge14" class="edge">
<title>Node4&#45;&gt;Node9</title>
<path fill="none" stroke="midnightblue" d="M578.16,-344.58C617.73,-341.55 671.11,-331.29 706,-300 728.93,-279.44 730,-265.8 730,-235 730,-235 730,-235 730,-177 730,-146.2 726.16,-135.28 706,-112 693.35,-97.4 674.75,-86.7 658.37,-79.41"/>
<polygon fill="midnightblue" stroke="midnightblue" points="659.61,-76.14 649.04,-75.51 656.91,-82.6 659.61,-76.14"/>
</g>
<!-- Node4&#45;&gt;Node11 -->
<g id="edge12" class="edge">
<title>Node4&#45;&gt;Node11</title>
<path fill="none" stroke="midnightblue" d="M475.61,-336.44C414.98,-326.15 313.98,-309 254.93,-298.97"/>
<polygon fill="midnightblue" stroke="midnightblue" points="255.21,-295.47 244.77,-297.24 254.04,-302.37 255.21,-295.47"/>
</g>
<!-- Node6 -->
<g id="node6" class="node">
<title>Node6</title>
<g id="a_node6"><a xlink:href="a00083.html" target="_top" xlink:title=" ">
<polygon fill="white" stroke="black" points="415.5,-168.5 415.5,-187.5 556.5,-187.5 556.5,-168.5 415.5,-168.5"/>
<text text-anchor="middle" x="486" y="-175.5" font-family="Helvetica,sans-Serif" font-size="10.00">Transform/ITransform.hpp</text>
</a>
</g>
</g>
<!-- Node5&#45;&gt;Node6 -->
<g id="edge6" class="edge">
<title>Node5&#45;&gt;Node6</title>
<path fill="none" stroke="midnightblue" d="M519.39,-224.08C513.74,-216.46 505.46,-205.26 498.55,-195.94"/>
<polygon fill="midnightblue" stroke="midnightblue" points="501.25,-193.7 492.48,-187.75 495.62,-197.87 501.25,-193.7"/>
</g>
<!-- Node7 -->
<g id="node7" class="node">
<title>Node7</title>
<g id="a_node7"><a xlink:href="a00092.html" target="_top" xlink:title=" ">
<polygon fill="white" stroke="black" points="340.5,-112.5 340.5,-131.5 417.5,-131.5 417.5,-112.5 340.5,-112.5"/>
<text text-anchor="middle" x="379" y="-119.5" font-family="Helvetica,sans-Serif" font-size="10.00">Vector3f.hpp</text>
</a>
</g>
</g>
<!-- Node6&#45;&gt;Node7 -->
<g id="edge7" class="edge">
<title>Node6&#45;&gt;Node7</title>
<path fill="none" stroke="midnightblue" d="M468.81,-168.32C451.65,-159.66 425.05,-146.24 405.25,-136.25"/>
<polygon fill="midnightblue" stroke="midnightblue" points="406.65,-133.04 396.15,-131.65 403.5,-139.28 406.65,-133.04"/>
</g>
<!-- Node8 -->
<g id="node8" class="node">
<title>Node8</title>
<g id="a_node8"><a xlink:title=" ">
<polygon fill="white" stroke="#bfbfbf" points="264.5,-56.5 264.5,-75.5 321.5,-75.5 321.5,-56.5 264.5,-56.5"/>
<text text-anchor="middle" x="293" y="-63.5" font-family="Helvetica,sans-Serif" font-size="10.00">ostream</text>
</a>
</g>
</g>
<!-- Node7&#45;&gt;Node8 -->
<g id="edge8" class="edge">
<title>Node7&#45;&gt;Node8</title>
<path fill="none" stroke="midnightblue" d="M365.18,-112.32C351.77,-103.9 331.18,-90.97 315.41,-81.07"/>
<polygon fill="midnightblue" stroke="midnightblue" points="317.11,-78.01 306.78,-75.65 313.39,-83.94 317.11,-78.01"/>
</g>
<!-- Node7&#45;&gt;Node9 -->
<g id="edge9" class="edge">
<title>Node7&#45;&gt;Node9</title>
<path fill="none" stroke="midnightblue" d="M417.66,-112.44C460.39,-102.99 529.24,-87.75 575.28,-77.56"/>
<polygon fill="midnightblue" stroke="midnightblue" points="576.31,-80.92 585.32,-75.34 574.8,-74.08 576.31,-80.92"/>
</g>
<!-- Node9&#45;&gt;Node3 -->
<g id="edge10" class="edge">
<title>Node9&#45;&gt;Node3</title>
<path fill="none" stroke="midnightblue" d="M585.35,-57.66C532.93,-47.44 438.41,-29.02 385.18,-18.64"/>
<polygon fill="midnightblue" stroke="midnightblue" points="385.6,-15.15 375.11,-16.68 384.26,-22.02 385.6,-15.15"/>
</g>
<!-- Node10 -->
<g id="node10" class="node">
<title>Node10</title>
<g id="a_node10"><a xlink:title=" ">
<polygon fill="white" stroke="#bfbfbf" points="581.5,-0.5 581.5,-19.5 664.5,-19.5 664.5,-0.5 581.5,-0.5"/>
<text text-anchor="middle" x="623" y="-7.5" font-family="Helvetica,sans-Serif" font-size="10.00">libconfig.h++</text>
</a>
</g>
</g>
<!-- Node9&#45;&gt;Node10 -->
<g id="edge11" class="edge">
<title>Node9&#45;&gt;Node10</title>
<path fill="none" stroke="midnightblue" d="M623,-56.08C623,-49.01 623,-38.86 623,-29.99"/>
<polygon fill="midnightblue" stroke="midnightblue" points="626.5,-29.75 623,-19.75 619.5,-29.75 626.5,-29.75"/>
</g>
<!-- Node12 -->
<g id="node12" class="node">
<title>Node12</title>
<g id="a_node12"><a xlink:title=" ">
<polygon fill="white" stroke="#bfbfbf" points="66,-224.5 66,-243.5 110,-243.5 110,-224.5 66,-224.5"/>
<text text-anchor="middle" x="88" y="-231.5" font-family="Helvetica,sans-Serif" font-size="10.00">string</text>
</a>
</g>
</g>
<!-- Node11&#45;&gt;Node12 -->
<g id="edge13" class="edge">
<title>Node11&#45;&gt;Node12</title>
<path fill="none" stroke="midnightblue" d="M188.99,-280.44C169.41,-271.64 138.69,-257.81 116.27,-247.72"/>
<polygon fill="midnightblue" stroke="midnightblue" points="117.48,-244.43 106.93,-243.52 114.61,-250.81 117.48,-244.43"/>
</g>
<!-- Node13&#45;&gt;Node9 -->
<g id="edge38" class="edge">
<title>Node13&#45;&gt;Node9</title>
<path fill="none" stroke="midnightblue" d="M428.38,-336.5C525.16,-322.37 692,-290.03 692,-235 692,-235 692,-235 692,-177 692,-138.39 661.12,-102.21 640.67,-82.49"/>
<polygon fill="midnightblue" stroke="midnightblue" points="642.89,-79.77 633.18,-75.54 638.13,-84.9 642.89,-79.77"/>
</g>
<!-- Node13&#45;&gt;Node11 -->
<g id="edge39" class="edge">
<title>Node13&#45;&gt;Node11</title>
<path fill="none" stroke="midnightblue" d="M336.76,-336.44C311.13,-327.4 270.51,-313.06 241.76,-302.92"/>
<polygon fill="midnightblue" stroke="midnightblue" points="242.72,-299.54 232.13,-299.52 240.39,-306.15 242.72,-299.54"/>
</g>
<!-- Node14 -->
<g id="node14" class="node">
<title>Node14</title>
<g id="a_node14"><a xlink:title=" ">
<polygon fill="white" stroke="#bfbfbf" points="380,-224.5 380,-243.5 436,-243.5 436,-224.5 380,-224.5"/>
<text text-anchor="middle" x="408" y="-231.5" font-family="Helvetica,sans-Serif" font-size="10.00">optional</text>
</a>
</g>
</g>
<!-- Node13&#45;&gt;Node14 -->
<g id="edge18" class="edge">
<title>Node13&#45;&gt;Node14</title>
<path fill="none" stroke="midnightblue" d="M369.35,-336.47C377.19,-327.95 388.66,-314.11 395,-300 401.57,-285.39 404.83,-267.44 406.45,-254.11"/>
<polygon fill="midnightblue" stroke="midnightblue" points="409.97,-254.09 407.49,-243.79 403.01,-253.39 409.97,-254.09"/>
</g>
<!-- Node15 -->
<g id="node15" class="node">
<title>Node15</title>
<g id="a_node15"><a xlink:href="a00080.html" target="_top" xlink:title=" ">
<polygon fill="white" stroke="black" points="301.5,-280.5 301.5,-299.5 386.5,-299.5 386.5,-280.5 301.5,-280.5"/>
<text text-anchor="middle" x="344" y="-287.5" font-family="Helvetica,sans-Serif" font-size="10.00">IPrimitive.hpp</text>
</a>
</g>
</g>
<!-- Node13&#45;&gt;Node15 -->
<g id="edge19" class="edge">
<title>Node13&#45;&gt;Node15</title>
<path fill="none" stroke="midnightblue" d="M358.19,-336.08C355.92,-328.85 352.63,-318.41 349.79,-309.4"/>
<polygon fill="midnightblue" stroke="midnightblue" points="353.1,-308.24 346.75,-299.75 346.42,-310.34 353.1,-308.24"/>
</g>
<!-- Node19 -->
<g id="node19" class="node">
<title>Node19</title>
<g id="a_node19"><a xlink:href="a00077.html" target="_top" xlink:title=" ">
<polygon fill="white" stroke="black" points="204.5,-224.5 204.5,-243.5 285.5,-243.5 285.5,-224.5 204.5,-224.5"/>
<text text-anchor="middle" x="245" y="-231.5" font-family="Helvetica,sans-Serif" font-size="10.00">IMaterial.hpp</text>
</a>
</g>
</g>
<!-- Node13&#45;&gt;Node19 -->
<g id="edge44" class="edge">
<title>Node13&#45;&gt;Node19</title>
<path fill="none" stroke="midnightblue" d="M344.46,-336.5C329.67,-328.39 307.94,-315.19 292,-300 277.09,-285.79 263.73,-266.31 255.09,-252.39"/>
<polygon fill="midnightblue" stroke="midnightblue" points="258.06,-250.54 249.91,-243.77 252.06,-254.14 258.06,-250.54"/>
</g>
<!-- Node20 -->
<g id="node20" class="node">
<title>Node20</title>
<g id="a_node20"><a xlink:href="a00137.html" target="_top" xlink:title=" ">
<polygon fill="white" stroke="black" points="342.5,-168.5 342.5,-187.5 397.5,-187.5 397.5,-168.5 342.5,-168.5"/>
<text text-anchor="middle" x="370" y="-175.5" font-family="Helvetica,sans-Serif" font-size="10.00">Ray.hpp</text>
</a>
</g>
</g>
<!-- Node13&#45;&gt;Node20 -->
<g id="edge45" class="edge">
<title>Node13&#45;&gt;Node20</title>
<path fill="none" stroke="midnightblue" d="M373.19,-336.35C384.45,-327.95 401.17,-314.38 413,-300 431.21,-277.86 437.64,-271.71 445,-244 447.28,-235.41 449.38,-231.74 445,-224 436.65,-209.26 421.34,-198.82 406.71,-191.73"/>
<polygon fill="midnightblue" stroke="midnightblue" points="407.84,-188.4 397.28,-187.55 405,-194.8 407.84,-188.4"/>
</g>
<!-- Node21 -->
<g id="node21" class="node">
<title>Node21</title>
<g id="a_node21"><a xlink:href="a00086.html" target="_top" xlink:title=" ">
<polygon fill="white" stroke="black" points="578,-224.5 578,-243.5 664,-243.5 664,-224.5 578,-224.5"/>
<text text-anchor="middle" x="621" y="-231.5" font-family="Helvetica,sans-Serif" font-size="10.00">Transform.hpp</text>
</a>
</g>
</g>
<!-- Node13&#45;&gt;Node21 -->
<g id="edge40" class="edge">
<title>Node13&#45;&gt;Node21</title>
<path fill="none" stroke="midnightblue" d="M384.47,-336.44C408.21,-327.67 445.89,-313.46 478,-300 518.72,-282.93 565.13,-261.45 593.75,-247.97"/>
<polygon fill="midnightblue" stroke="midnightblue" points="595.55,-250.99 603.09,-243.55 592.56,-244.66 595.55,-250.99"/>
</g>
<!-- Node15&#45;&gt;Node5 -->
<g id="edge28" class="edge">
<title>Node15&#45;&gt;Node5</title>
<path fill="none" stroke="midnightblue" d="M372.84,-280.44C403.86,-271.24 453.33,-256.56 487.62,-246.39"/>
<polygon fill="midnightblue" stroke="midnightblue" points="488.71,-249.72 497.3,-243.52 486.71,-243.01 488.71,-249.72"/>
</g>
<!-- Node15&#45;&gt;Node7 -->
<g id="edge37" class="edge">
<title>Node15&#45;&gt;Node7</title>
<path fill="none" stroke="midnightblue" d="M340.53,-280.36C332.88,-259.91 316.48,-207.28 333,-168 338.03,-156.05 347.94,-145.69 357.29,-137.93"/>
<polygon fill="midnightblue" stroke="midnightblue" points="359.44,-140.69 365.21,-131.81 355.16,-135.15 359.44,-140.69"/>
</g>
<!-- Node15&#45;&gt;Node14 -->
<g id="edge20" class="edge">
<title>Node15&#45;&gt;Node14</title>
<path fill="none" stroke="midnightblue" d="M354.28,-280.32C363.84,-272.26 378.28,-260.08 389.78,-250.37"/>
<polygon fill="midnightblue" stroke="midnightblue" points="392.14,-252.96 397.53,-243.83 387.63,-247.61 392.14,-252.96"/>
</g>
<!-- Node16 -->
<g id="node16" class="node">
<title>Node16</title>
<g id="a_node16"><a xlink:href="a00122.html" target="_top" xlink:title=" ">
<polygon fill="white" stroke="black" points="186,-168.5 186,-187.5 248,-187.5 248,-168.5 186,-168.5"/>
<text text-anchor="middle" x="217" y="-175.5" font-family="Helvetica,sans-Serif" font-size="10.00">Color.hpp</text>
</a>
</g>
</g>
<!-- Node15&#45;&gt;Node16 -->
<g id="edge21" class="edge">
<title>Node15&#45;&gt;Node16</title>
<path fill="none" stroke="midnightblue" d="M301.18,-281.87C261.84,-274.35 207.77,-261.19 195,-244 184.4,-229.72 193.64,-209.99 203.19,-196.02"/>
<polygon fill="midnightblue" stroke="midnightblue" points="206.15,-197.9 209.31,-187.79 200.53,-193.73 206.15,-197.9"/>
</g>
<!-- Node18 -->
<g id="node18" class="node">
<title>Node18</title>
<g id="a_node18"><a xlink:href="a00200.html" target="_top" xlink:title=" ">
<polygon fill="white" stroke="black" points="70,-168.5 70,-187.5 168,-187.5 168,-168.5 70,-168.5"/>
<text text-anchor="middle" x="119" y="-175.5" font-family="Helvetica,sans-Serif" font-size="10.00">IDisplayable.hpp</text>
</a>
</g>
</g>
<!-- Node15&#45;&gt;Node18 -->
<g id="edge25" class="edge">
<title>Node15&#45;&gt;Node18</title>
<path fill="none" stroke="midnightblue" d="M301.5,-282.56C268.61,-276.26 222.78,-264.53 187,-244 164.98,-231.36 144.62,-210.1 132.03,-195.35"/>
<polygon fill="midnightblue" stroke="midnightblue" points="134.63,-193 125.56,-187.53 129.24,-197.47 134.63,-193"/>
</g>
<!-- Node15&#45;&gt;Node19 -->
<g id="edge29" class="edge">
<title>Node15&#45;&gt;Node19</title>
<path fill="none" stroke="midnightblue" d="M328.09,-280.32C312.36,-271.74 288.06,-258.49 269.79,-248.52"/>
<polygon fill="midnightblue" stroke="midnightblue" points="271.32,-245.37 260.87,-243.65 267.97,-251.52 271.32,-245.37"/>
</g>
<!-- Node15&#45;&gt;Node20 -->
<g id="edge36" class="edge">
<title>Node15&#45;&gt;Node20</title>
<path fill="none" stroke="midnightblue" d="M346.04,-280.37C350.24,-262.62 359.92,-221.67 365.6,-197.6"/>
<polygon fill="midnightblue" stroke="midnightblue" points="369.08,-198.13 367.97,-187.59 362.26,-196.52 369.08,-198.13"/>
</g>
<!-- Node16&#45;&gt;Node8 -->
<g id="edge23" class="edge">
<title>Node16&#45;&gt;Node8</title>
<path fill="none" stroke="midnightblue" d="M216.25,-168.25C215.54,-155.02 215.92,-129.58 227,-112 235.65,-98.27 250.18,-87.7 263.41,-80.25"/>
<polygon fill="midnightblue" stroke="midnightblue" points="265.04,-83.35 272.27,-75.6 261.79,-77.15 265.04,-83.35"/>
</g>
<!-- Node16&#45;&gt;Node9 -->
<g id="edge24" class="edge">
<title>Node16&#45;&gt;Node9</title>
<path fill="none" stroke="midnightblue" d="M231.55,-168.31C259.86,-151.46 320.51,-115.66 331,-112 413.7,-83.16 515.98,-72.77 574.93,-69.05"/>
<polygon fill="midnightblue" stroke="midnightblue" points="575.29,-72.54 585.07,-68.45 574.88,-65.55 575.29,-72.54"/>
</g>
<!-- Node17 -->
<g id="node17" class="node">
<title>Node17</title>
<g id="a_node17"><a xlink:title=" ">
<polygon fill="white" stroke="#bfbfbf" points="236,-112.5 236,-131.5 284,-131.5 284,-112.5 236,-112.5"/>
<text text-anchor="middle" x="260" y="-119.5" font-family="Helvetica,sans-Serif" font-size="10.00">mutex</text>
</a>
</g>
</g>
<!-- Node16&#45;&gt;Node17 -->
<g id="edge22" class="edge">
<title>Node16&#45;&gt;Node17</title>
<path fill="none" stroke="midnightblue" d="M224.1,-168.08C230.24,-160.38 239.27,-149.03 246.74,-139.65"/>
<polygon fill="midnightblue" stroke="midnightblue" points="249.54,-141.75 253.03,-131.75 244.06,-137.39 249.54,-141.75"/>
</g>
<!-- Node18&#45;&gt;Node2 -->
<g id="edge27" class="edge">
<title>Node18&#45;&gt;Node2</title>
<path fill="none" stroke="midnightblue" d="M112.56,-168.08C107.05,-160.46 98.97,-149.26 92.24,-139.94"/>
<polygon fill="midnightblue" stroke="midnightblue" points="95.01,-137.81 86.32,-131.75 89.34,-141.91 95.01,-137.81"/>
</g>
<!-- Node18&#45;&gt;Node3 -->
<g id="edge26" class="edge">
<title>Node18&#45;&gt;Node3</title>
<path fill="none" stroke="midnightblue" d="M127.23,-168.2C147.46,-146.93 201.8,-91.86 255,-56 274.08,-43.14 297.36,-31.69 315.6,-23.56"/>
<polygon fill="midnightblue" stroke="midnightblue" points="317.12,-26.72 324.89,-19.51 314.33,-20.3 317.12,-26.72"/>
</g>
<!-- Node19&#45;&gt;Node6 -->
<g id="edge34" class="edge">
<title>Node19&#45;&gt;Node6</title>
<path fill="none" stroke="midnightblue" d="M283.19,-224.44C325.14,-215.04 392.59,-199.93 438.07,-189.74"/>
<polygon fill="midnightblue" stroke="midnightblue" points="439,-193.12 447.99,-187.52 437.47,-186.29 439,-193.12"/>
</g>
<!-- Node19&#45;&gt;Node7 -->
<g id="edge35" class="edge">
<title>Node19&#45;&gt;Node7</title>
<path fill="none" stroke="midnightblue" d="M250.94,-224.16C260.24,-210.79 279.3,-185.19 300,-168 315.28,-155.3 334.64,-144.21 350.36,-136.22"/>
<polygon fill="midnightblue" stroke="midnightblue" points="352.2,-139.22 359.62,-131.66 349.1,-132.94 352.2,-139.22"/>
</g>
<!-- Node19&#45;&gt;Node16 -->
<g id="edge32" class="edge">
<title>Node19&#45;&gt;Node16</title>
<path fill="none" stroke="midnightblue" d="M240.38,-224.08C236.54,-216.69 230.98,-205.95 226.24,-196.81"/>
<polygon fill="midnightblue" stroke="midnightblue" points="229.25,-195.02 221.54,-187.75 223.03,-198.24 229.25,-195.02"/>
</g>
<!-- Node19&#45;&gt;Node18 -->
<g id="edge33" class="edge">
<title>Node19&#45;&gt;Node18</title>
<path fill="none" stroke="midnightblue" d="M225.03,-224.44C204.39,-215.6 171.94,-201.69 148.37,-191.59"/>
<polygon fill="midnightblue" stroke="midnightblue" points="149.44,-188.24 138.87,-187.52 146.68,-194.67 149.44,-188.24"/>
</g>
<!-- Node19&#45;&gt;Node20 -->
<g id="edge30" class="edge">
<title>Node19&#45;&gt;Node20</title>
<path fill="none" stroke="midnightblue" d="M264.81,-224.44C285.29,-215.6 317.48,-201.69 340.86,-191.59"/>
<polygon fill="midnightblue" stroke="midnightblue" points="342.49,-194.7 350.29,-187.52 339.72,-188.27 342.49,-194.7"/>
</g>
<!-- Node20&#45;&gt;Node7 -->
<g id="edge31" class="edge">
<title>Node20&#45;&gt;Node7</title>
<path fill="none" stroke="midnightblue" d="M371.49,-168.08C372.68,-160.93 374.39,-150.64 375.88,-141.69"/>
<polygon fill="midnightblue" stroke="midnightblue" points="379.35,-142.19 377.54,-131.75 372.45,-141.04 379.35,-142.19"/>
</g>
<!-- Node21&#45;&gt;Node6 -->
<g id="edge41" class="edge">
<title>Node21&#45;&gt;Node6</title>
<path fill="none" stroke="midnightblue" d="M599.61,-224.44C577.29,-215.52 542.1,-201.44 516.79,-191.32"/>
<polygon fill="midnightblue" stroke="midnightblue" points="517.88,-187.98 507.29,-187.52 515.28,-194.48 517.88,-187.98"/>
</g>
<!-- Node21&#45;&gt;Node7 -->
<g id="edge43" class="edge">
<title>Node21&#45;&gt;Node7</title>
<path fill="none" stroke="midnightblue" d="M616.03,-224.32C607.49,-210.21 588.64,-182.45 565,-168 522.97,-142.32 467.24,-131.29 427.78,-126.56"/>
<polygon fill="midnightblue" stroke="midnightblue" points="427.93,-123.05 417.61,-125.43 427.16,-130.01 427.93,-123.05"/>
</g>
<!-- Node21&#45;&gt;Node9 -->
<g id="edge42" class="edge">
<title>Node21&#45;&gt;Node9</title>
<path fill="none" stroke="midnightblue" d="M621.11,-224.08C621.42,-197.95 622.35,-121.21 622.78,-85.58"/>
<polygon fill="midnightblue" stroke="midnightblue" points="626.28,-85.61 622.9,-75.57 619.28,-85.53 626.28,-85.61"/>
</g>
</g>
</svg>
