<?xml version="1.0" encoding="UTF-8" standalone="no"?>
<!DOCTYPE svg PUBLIC "-//W3C//DTD SVG 1.1//EN"
 "http://www.w3.org/Graphics/SVG/1.1/DTD/svg11.dtd">
<!-- Generated by graphviz version 2.43.0 (0)
 -->
<!-- Title: /home/runner/work/Raytracer/Raytracer/PluginsExt/Camera/Basic/CameraEntity.hpp Pages: 1 -->
<svg width="757pt" height="442pt"
 viewBox="0.00 0.00 756.50 442.00" xmlns="http://www.w3.org/2000/svg" xmlns:xlink="http://www.w3.org/1999/xlink">
<g id="graph0" class="graph" transform="scale(1 1) rotate(0) translate(4 438)">
<title>/home/runner/work/Raytracer/Raytracer/PluginsExt/Camera/Basic/CameraEntity.hpp</title>
<polygon fill="white" stroke="transparent" points="-4,4 -4,-438 752.5,-438 752.5,4 -4,4"/>
<!-- Node1 -->
<g id="node1" class="node">
<title>Node1</title>
<g id="a_node1"><a xlink:title=" ">
<polygon fill="#bfbfbf" stroke="black" points="393.5,-392.5 393.5,-433.5 555.5,-433.5 555.5,-392.5 393.5,-392.5"/>
<text text-anchor="start" x="401.5" y="-421.5" font-family="Helvetica,sans-Serif" font-size="10.00">/home/runner/work/Raytracer</text>
<text text-anchor="start" x="401.5" y="-410.5" font-family="Helvetica,sans-Serif" font-size="10.00">/Raytracer/PluginsExt/Camera</text>
<text text-anchor="middle" x="474.5" y="-399.5" font-family="Helvetica,sans-Serif" font-size="10.00">/Basic/CameraEntity.hpp</text>
</a>
</g>
</g>
<!-- Node2 -->
<g id="node2" class="node">
<title>Node2</title>
<g id="a_node2"><a xlink:title=" ">
<polygon fill="white" stroke="#bfbfbf" points="0,-168.5 0,-187.5 53,-187.5 53,-168.5 0,-168.5"/>
<text text-anchor="middle" x="26.5" y="-175.5" font-family="Helvetica,sans-Serif" font-size="10.00">cstddef</text>
</a>
</g>
</g>
<!-- Node1&#45;&gt;Node2 -->
<g id="edge1" class="edge">
<title>Node1&#45;&gt;Node2</title>
<path fill="none" stroke="midnightblue" d="M393.4,-407.4C326.88,-401.4 231.33,-387.62 153.5,-356 85.61,-328.42 57.64,-312.83 32.5,-244 27.09,-229.18 25.79,-211.26 25.73,-197.99"/>
<polygon fill="midnightblue" stroke="midnightblue" points="29.23,-197.78 25.92,-187.72 22.23,-197.65 29.23,-197.78"/>
</g>
<!-- Node3 -->
<g id="node3" class="node">
<title>Node3</title>
<g id="a_node3"><a xlink:title=" ">
<polygon fill="white" stroke="#bfbfbf" points="579,-280.5 579,-299.5 644,-299.5 644,-280.5 579,-280.5"/>
<text text-anchor="middle" x="611.5" y="-287.5" font-family="Helvetica,sans-Serif" font-size="10.00">functional</text>
</a>
</g>
</g>
<!-- Node1&#45;&gt;Node3 -->
<g id="edge2" class="edge">
<title>Node1&#45;&gt;Node3</title>
<path fill="none" stroke="midnightblue" d="M539.16,-392.37C558.23,-383.84 577.68,-372.03 591.5,-356 602.69,-343.02 607.62,-323.85 609.79,-309.7"/>
<polygon fill="midnightblue" stroke="midnightblue" points="613.28,-309.98 611.01,-299.63 606.34,-309.14 613.28,-309.98"/>
</g>
<!-- Node4 -->
<g id="node4" class="node">
<title>Node4</title>
<g id="a_node4"><a xlink:href="a00098.html" target="_top" xlink:title=" ">
<polygon fill="white" stroke="black" points="235,-336.5 235,-355.5 314,-355.5 314,-336.5 235,-336.5"/>
<text text-anchor="middle" x="274.5" y="-343.5" font-family="Helvetica,sans-Serif" font-size="10.00">ICamera.hpp</text>
</a>
</g>
</g>
<!-- Node1&#45;&gt;Node4 -->
<g id="edge3" class="edge">
<title>Node1&#45;&gt;Node4</title>
<path fill="none" stroke="midnightblue" d="M414.49,-392.5C380.63,-381.49 339.44,-368.11 310.54,-358.71"/>
<polygon fill="midnightblue" stroke="midnightblue" points="311.45,-355.33 300.86,-355.57 309.29,-361.99 311.45,-355.33"/>
</g>
<!-- Node12 -->
<g id="node12" class="node">
<title>Node12</title>
<g id="a_node12"><a xlink:href="a00230.html" target="_top" xlink:title=" ">
<polygon fill="white" stroke="black" points="54.5,-224.5 54.5,-243.5 152.5,-243.5 152.5,-224.5 54.5,-224.5"/>
<text text-anchor="middle" x="103.5" y="-231.5" font-family="Helvetica,sans-Serif" font-size="10.00">IDisplayable.hpp</text>
</a>
</g>
</g>
<!-- Node1&#45;&gt;Node12 -->
<g id="edge38" class="edge">
<title>Node1&#45;&gt;Node12</title>
<path fill="none" stroke="midnightblue" d="M393.22,-399.39C294.9,-382.21 138.52,-347.98 106.5,-300 97.49,-286.51 97.65,-267.7 99.52,-253.78"/>
<polygon fill="midnightblue" stroke="midnightblue" points="102.98,-254.32 101.25,-243.87 96.08,-253.12 102.98,-254.32"/>
</g>
<!-- Node20 -->
<g id="node20" class="node">
<title>Node20</title>
<g id="a_node20"><a xlink:href="a00233.html" target="_top" xlink:title=" ">
<polygon fill="white" stroke="black" points="427,-280.5 427,-299.5 522,-299.5 522,-280.5 427,-280.5"/>
<text text-anchor="middle" x="474.5" y="-287.5" font-family="Helvetica,sans-Serif" font-size="10.00">ISceneState.hpp</text>
</a>
</g>
</g>
<!-- Node1&#45;&gt;Node20 -->
<g id="edge37" class="edge">
<title>Node1&#45;&gt;Node20</title>
<path fill="none" stroke="midnightblue" d="M474.5,-392.29C474.5,-369.48 474.5,-332.19 474.5,-309.78"/>
<polygon fill="midnightblue" stroke="midnightblue" points="478,-309.57 474.5,-299.57 471,-309.57 478,-309.57"/>
</g>
<!-- Node24 -->
<g id="node24" class="node">
<title>Node24</title>
<g id="a_node24"><a xlink:href="a00149.html" target="_top" xlink:title=" ">
<polygon fill="white" stroke="black" points="510,-336.5 510,-355.5 583,-355.5 583,-336.5 510,-336.5"/>
<text text-anchor="middle" x="546.5" y="-343.5" font-family="Helvetica,sans-Serif" font-size="10.00">ILogger.hpp</text>
</a>
</g>
</g>
<!-- Node1&#45;&gt;Node24 -->
<g id="edge34" class="edge">
<title>Node1&#45;&gt;Node24</title>
<path fill="none" stroke="midnightblue" d="M496.1,-392.5C506.72,-382.92 519.33,-371.53 529.28,-362.54"/>
<polygon fill="midnightblue" stroke="midnightblue" points="531.84,-364.95 536.92,-355.65 527.15,-359.76 531.84,-364.95"/>
</g>
<!-- Node25 -->
<g id="node25" class="node">
<title>Node25</title>
<g id="a_node25"><a xlink:href="a00116.html" target="_top" xlink:title=" ">
<polygon fill="white" stroke="black" points="662.5,-280.5 662.5,-299.5 748.5,-299.5 748.5,-280.5 662.5,-280.5"/>
<text text-anchor="middle" x="705.5" y="-287.5" font-family="Helvetica,sans-Serif" font-size="10.00">Transform.hpp</text>
</a>
</g>
</g>
<!-- Node1&#45;&gt;Node25 -->
<g id="edge39" class="edge">
<title>Node1&#45;&gt;Node25</title>
<path fill="none" stroke="midnightblue" d="M530.09,-392.43C555.5,-382.7 585.63,-370.01 611.5,-356 638.94,-341.14 668.14,-320 686.58,-305.92"/>
<polygon fill="midnightblue" stroke="midnightblue" points="688.95,-308.51 694.72,-299.62 684.67,-302.97 688.95,-308.51"/>
</g>
<!-- Node4&#45;&gt;Node2 -->
<g id="edge4" class="edge">
<title>Node4&#45;&gt;Node2</title>
<path fill="none" stroke="midnightblue" d="M234.81,-339.86C199.43,-334.04 147.13,-322.31 106.5,-300 74.24,-282.28 64.93,-275.25 45.5,-244 36.67,-229.8 31.79,-211.32 29.19,-197.7"/>
<polygon fill="midnightblue" stroke="midnightblue" points="32.61,-196.89 27.51,-187.6 25.7,-198.04 32.61,-196.89"/>
</g>
<!-- Node5 -->
<g id="node5" class="node">
<title>Node5</title>
<g id="a_node5"><a xlink:title=" ">
<polygon fill="white" stroke="#bfbfbf" points="130.5,-280.5 130.5,-299.5 162.5,-299.5 162.5,-280.5 130.5,-280.5"/>
<text text-anchor="middle" x="146.5" y="-287.5" font-family="Helvetica,sans-Serif" font-size="10.00">list</text>
</a>
</g>
</g>
<!-- Node4&#45;&gt;Node5 -->
<g id="edge5" class="edge">
<title>Node4&#45;&gt;Node5</title>
<path fill="none" stroke="midnightblue" d="M254.22,-336.44C231.91,-327.03 196.04,-311.9 171.88,-301.71"/>
<polygon fill="midnightblue" stroke="midnightblue" points="173.21,-298.47 162.63,-297.81 170.49,-304.92 173.21,-298.47"/>
</g>
<!-- Node6 -->
<g id="node6" class="node">
<title>Node6</title>
<g id="a_node6"><a xlink:href="a00119.html" target="_top" xlink:title=" ">
<polygon fill="white" stroke="black" points="338,-168.5 338,-187.5 467,-187.5 467,-168.5 338,-168.5"/>
<text text-anchor="middle" x="402.5" y="-175.5" font-family="Helvetica,sans-Serif" font-size="10.00">Transform/Vector2i.hpp</text>
</a>
</g>
</g>
<!-- Node4&#45;&gt;Node6 -->
<g id="edge6" class="edge">
<title>Node4&#45;&gt;Node6</title>
<path fill="none" stroke="midnightblue" d="M281.38,-336.08C301.88,-309.49 362.76,-230.54 389.57,-195.76"/>
<polygon fill="midnightblue" stroke="midnightblue" points="392.56,-197.62 395.89,-187.57 387.02,-193.35 392.56,-197.62"/>
</g>
<!-- Node4&#45;&gt;Node12 -->
<g id="edge13" class="edge">
<title>Node4&#45;&gt;Node12</title>
<path fill="none" stroke="midnightblue" d="M234.9,-343.7C200.38,-340.43 151.31,-330.29 121.5,-300 109.57,-287.88 105.39,-268.6 103.99,-254.18"/>
<polygon fill="midnightblue" stroke="midnightblue" points="107.47,-253.66 103.38,-243.89 100.48,-254.08 107.47,-253.66"/>
</g>
<!-- Node14 -->
<g id="node14" class="node">
<title>Node14</title>
<g id="a_node14"><a xlink:href="a00155.html" target="_top" xlink:title=" ">
<polygon fill="white" stroke="black" points="216.5,-224.5 216.5,-243.5 284.5,-243.5 284.5,-224.5 216.5,-224.5"/>
<text text-anchor="middle" x="250.5" y="-231.5" font-family="Helvetica,sans-Serif" font-size="10.00">Image.hpp</text>
</a>
</g>
</g>
<!-- Node4&#45;&gt;Node14 -->
<g id="edge16" class="edge">
<title>Node4&#45;&gt;Node14</title>
<path fill="none" stroke="midnightblue" d="M272.62,-336.37C268.74,-318.62 259.81,-277.67 254.56,-253.6"/>
<polygon fill="midnightblue" stroke="midnightblue" points="257.93,-252.62 252.37,-243.59 251.09,-254.11 257.93,-252.62"/>
</g>
<!-- Node19 -->
<g id="node19" class="node">
<title>Node19</title>
<g id="a_node19"><a xlink:href="a00146.html" target="_top" xlink:title=" ">
<polygon fill="white" stroke="black" points="181,-280.5 181,-299.5 246,-299.5 246,-280.5 181,-280.5"/>
<text text-anchor="middle" x="213.5" y="-287.5" font-family="Helvetica,sans-Serif" font-size="10.00">IFilter.hpp</text>
</a>
</g>
</g>
<!-- Node4&#45;&gt;Node19 -->
<g id="edge26" class="edge">
<title>Node4&#45;&gt;Node19</title>
<path fill="none" stroke="midnightblue" d="M264.7,-336.32C255.68,-328.34 242.09,-316.31 231.18,-306.65"/>
<polygon fill="midnightblue" stroke="midnightblue" points="233.29,-303.84 223.48,-299.83 228.65,-309.08 233.29,-303.84"/>
</g>
<!-- Node4&#45;&gt;Node20 -->
<g id="edge28" class="edge">
<title>Node4&#45;&gt;Node20</title>
<path fill="none" stroke="midnightblue" d="M306.19,-336.44C340.57,-327.16 395.58,-312.31 433.29,-302.13"/>
<polygon fill="midnightblue" stroke="midnightblue" points="434.22,-305.5 442.96,-299.52 432.39,-298.74 434.22,-305.5"/>
</g>
<!-- Node21 -->
<g id="node21" class="node">
<title>Node21</title>
<g id="a_node21"><a xlink:href="a00101.html" target="_top" xlink:title=" ">
<polygon fill="white" stroke="black" points="340.5,-280.5 340.5,-299.5 408.5,-299.5 408.5,-280.5 340.5,-280.5"/>
<text text-anchor="middle" x="374.5" y="-287.5" font-family="Helvetica,sans-Serif" font-size="10.00">IEntity.hpp</text>
</a>
</g>
</g>
<!-- Node4&#45;&gt;Node21 -->
<g id="edge29" class="edge">
<title>Node4&#45;&gt;Node21</title>
<path fill="none" stroke="midnightblue" d="M290.57,-336.32C306.46,-327.74 331.01,-314.49 349.46,-304.52"/>
<polygon fill="midnightblue" stroke="midnightblue" points="351.34,-307.49 358.47,-299.65 348.01,-301.33 351.34,-307.49"/>
</g>
<!-- Node7 -->
<g id="node7" class="node">
<title>Node7</title>
<g id="a_node7"><a xlink:title=" ">
<polygon fill="white" stroke="#bfbfbf" points="470,-112.5 470,-131.5 527,-131.5 527,-112.5 470,-112.5"/>
<text text-anchor="middle" x="498.5" y="-119.5" font-family="Helvetica,sans-Serif" font-size="10.00">ostream</text>
</a>
</g>
</g>
<!-- Node6&#45;&gt;Node7 -->
<g id="edge7" class="edge">
<title>Node6&#45;&gt;Node7</title>
<path fill="none" stroke="midnightblue" d="M417.92,-168.32C433.04,-159.82 456.32,-146.73 473.97,-136.8"/>
<polygon fill="midnightblue" stroke="midnightblue" points="476.11,-139.61 483.11,-131.65 472.68,-133.51 476.11,-139.61"/>
</g>
<!-- Node8 -->
<g id="node8" class="node">
<title>Node8</title>
<g id="a_node8"><a xlink:href="a00227.html" target="_top" xlink:title=" ">
<polygon fill="white" stroke="black" points="381,-112.5 381,-131.5 452,-131.5 452,-112.5 381,-112.5"/>
<text text-anchor="middle" x="416.5" y="-119.5" font-family="Helvetica,sans-Serif" font-size="10.00">IConfig.hpp</text>
</a>
</g>
</g>
<!-- Node6&#45;&gt;Node8 -->
<g id="edge8" class="edge">
<title>Node6&#45;&gt;Node8</title>
<path fill="none" stroke="midnightblue" d="M404.81,-168.08C406.67,-160.93 409.34,-150.64 411.65,-141.69"/>
<polygon fill="midnightblue" stroke="midnightblue" points="415.11,-142.31 414.23,-131.75 408.33,-140.55 415.11,-142.31"/>
</g>
<!-- Node9 -->
<g id="node9" class="node">
<title>Node9</title>
<g id="a_node9"><a xlink:title=" ">
<polygon fill="white" stroke="#bfbfbf" points="342.5,-0.5 342.5,-19.5 400.5,-19.5 400.5,-0.5 342.5,-0.5"/>
<text text-anchor="middle" x="371.5" y="-7.5" font-family="Helvetica,sans-Serif" font-size="10.00">memory</text>
</a>
</g>
</g>
<!-- Node8&#45;&gt;Node9 -->
<g id="edge9" class="edge">
<title>Node8&#45;&gt;Node9</title>
<path fill="none" stroke="midnightblue" d="M412.97,-112.37C405.64,-94.46 388.65,-52.92 378.84,-28.95"/>
<polygon fill="midnightblue" stroke="midnightblue" points="382.04,-27.52 375.01,-19.59 375.56,-30.17 382.04,-27.52"/>
</g>
<!-- Node10 -->
<g id="node10" class="node">
<title>Node10</title>
<g id="a_node10"><a xlink:href="a00236.html" target="_top" xlink:title=" ">
<polygon fill="white" stroke="black" points="417,-56.5 417,-75.5 492,-75.5 492,-56.5 417,-56.5"/>
<text text-anchor="middle" x="454.5" y="-63.5" font-family="Helvetica,sans-Serif" font-size="10.00">ISetting.hpp</text>
</a>
</g>
</g>
<!-- Node8&#45;&gt;Node10 -->
<g id="edge10" class="edge">
<title>Node8&#45;&gt;Node10</title>
<path fill="none" stroke="midnightblue" d="M422.77,-112.08C428.14,-104.46 436.02,-93.26 442.58,-83.94"/>
<polygon fill="midnightblue" stroke="midnightblue" points="445.45,-85.94 448.34,-75.75 439.72,-81.91 445.45,-85.94"/>
</g>
<!-- Node10&#45;&gt;Node9 -->
<g id="edge11" class="edge">
<title>Node10&#45;&gt;Node9</title>
<path fill="none" stroke="midnightblue" d="M441.16,-56.32C428.34,-47.98 408.72,-35.21 393.56,-25.35"/>
<polygon fill="midnightblue" stroke="midnightblue" points="395.09,-22.17 384.8,-19.65 391.28,-28.04 395.09,-22.17"/>
</g>
<!-- Node11 -->
<g id="node11" class="node">
<title>Node11</title>
<g id="a_node11"><a xlink:title=" ">
<polygon fill="white" stroke="#bfbfbf" points="419,-0.5 419,-19.5 502,-19.5 502,-0.5 419,-0.5"/>
<text text-anchor="middle" x="460.5" y="-7.5" font-family="Helvetica,sans-Serif" font-size="10.00">libconfig.h++</text>
</a>
</g>
</g>
<!-- Node10&#45;&gt;Node11 -->
<g id="edge12" class="edge">
<title>Node10&#45;&gt;Node11</title>
<path fill="none" stroke="midnightblue" d="M455.49,-56.08C456.29,-48.93 457.43,-38.64 458.42,-29.69"/>
<polygon fill="midnightblue" stroke="midnightblue" points="461.9,-30.08 459.53,-19.75 454.94,-29.3 461.9,-30.08"/>
</g>
<!-- Node12&#45;&gt;Node9 -->
<g id="edge14" class="edge">
<title>Node12&#45;&gt;Node9</title>
<path fill="none" stroke="midnightblue" d="M101.21,-224.34C96.1,-202.9 86.09,-146.62 111.5,-112 163.8,-40.74 273.71,-19.75 332.48,-13.57"/>
<polygon fill="midnightblue" stroke="midnightblue" points="332.87,-17.05 342.49,-12.61 332.2,-10.08 332.87,-17.05"/>
</g>
<!-- Node13 -->
<g id="node13" class="node">
<title>Node13</title>
<g id="a_node13"><a xlink:title=" ">
<polygon fill="white" stroke="#bfbfbf" points="156,-168.5 156,-187.5 203,-187.5 203,-168.5 156,-168.5"/>
<text text-anchor="middle" x="179.5" y="-175.5" font-family="Helvetica,sans-Serif" font-size="10.00">vector</text>
</a>
</g>
</g>
<!-- Node12&#45;&gt;Node13 -->
<g id="edge15" class="edge">
<title>Node12&#45;&gt;Node13</title>
<path fill="none" stroke="midnightblue" d="M115.71,-224.32C127.28,-216.11 144.88,-203.6 158.66,-193.81"/>
<polygon fill="midnightblue" stroke="midnightblue" points="160.94,-196.48 167.07,-187.83 156.89,-190.77 160.94,-196.48"/>
</g>
<!-- Node14&#45;&gt;Node2 -->
<g id="edge17" class="edge">
<title>Node14&#45;&gt;Node2</title>
<path fill="none" stroke="midnightblue" d="M216.48,-224.8C175.1,-214.82 105.52,-198.05 63.03,-187.81"/>
<polygon fill="midnightblue" stroke="midnightblue" points="63.65,-184.36 53.11,-185.41 62.01,-191.16 63.65,-184.36"/>
</g>
<!-- Node14&#45;&gt;Node6 -->
<g id="edge25" class="edge">
<title>Node14&#45;&gt;Node6</title>
<path fill="none" stroke="midnightblue" d="M274.58,-224.44C300.04,-215.4 340.39,-201.06 368.96,-190.92"/>
<polygon fill="midnightblue" stroke="midnightblue" points="370.28,-194.16 378.53,-187.52 367.93,-187.57 370.28,-194.16"/>
</g>
<!-- Node14&#45;&gt;Node13 -->
<g id="edge19" class="edge">
<title>Node14&#45;&gt;Node13</title>
<path fill="none" stroke="midnightblue" d="M239.09,-224.32C228.39,-216.18 212.16,-203.84 199.34,-194.09"/>
<polygon fill="midnightblue" stroke="midnightblue" points="201.19,-191.1 191.11,-187.83 196.96,-196.67 201.19,-191.1"/>
</g>
<!-- Node15 -->
<g id="node15" class="node">
<title>Node15</title>
<g id="a_node15"><a xlink:title=" ">
<polygon fill="white" stroke="#bfbfbf" points="485.5,-168.5 485.5,-187.5 529.5,-187.5 529.5,-168.5 485.5,-168.5"/>
<text text-anchor="middle" x="507.5" y="-175.5" font-family="Helvetica,sans-Serif" font-size="10.00">string</text>
</a>
</g>
</g>
<!-- Node14&#45;&gt;Node15 -->
<g id="edge18" class="edge">
<title>Node14&#45;&gt;Node15</title>
<path fill="none" stroke="midnightblue" d="M284.6,-227.02C326.94,-219.42 401.53,-205.42 475.26,-187.9"/>
<polygon fill="midnightblue" stroke="midnightblue" points="476.27,-191.25 485.18,-185.51 474.64,-184.44 476.27,-191.25"/>
</g>
<!-- Node16 -->
<g id="node16" class="node">
<title>Node16</title>
<g id="a_node16"><a xlink:href="a00152.html" target="_top" xlink:title=" ">
<polygon fill="white" stroke="black" points="257.5,-168.5 257.5,-187.5 319.5,-187.5 319.5,-168.5 257.5,-168.5"/>
<text text-anchor="middle" x="288.5" y="-175.5" font-family="Helvetica,sans-Serif" font-size="10.00">Color.hpp</text>
</a>
</g>
</g>
<!-- Node14&#45;&gt;Node16 -->
<g id="edge20" class="edge">
<title>Node14&#45;&gt;Node16</title>
<path fill="none" stroke="midnightblue" d="M256.77,-224.08C262.14,-216.46 270.02,-205.26 276.58,-195.94"/>
<polygon fill="midnightblue" stroke="midnightblue" points="279.45,-197.94 282.34,-187.75 273.72,-193.91 279.45,-197.94"/>
</g>
<!-- Node16&#45;&gt;Node7 -->
<g id="edge22" class="edge">
<title>Node16&#45;&gt;Node7</title>
<path fill="none" stroke="midnightblue" d="M319.94,-168.92C357.38,-159.29 419.91,-143.21 460.16,-132.86"/>
<polygon fill="midnightblue" stroke="midnightblue" points="461.07,-136.24 469.89,-130.36 459.33,-129.46 461.07,-136.24"/>
</g>
<!-- Node16&#45;&gt;Node10 -->
<g id="edge24" class="edge">
<title>Node16&#45;&gt;Node10</title>
<path fill="none" stroke="midnightblue" d="M298.31,-168.43C313.45,-155.42 343.65,-130.27 371.5,-112 389.49,-100.2 410.85,-88.67 427.39,-80.24"/>
<polygon fill="midnightblue" stroke="midnightblue" points="429.15,-83.27 436.52,-75.65 426.01,-77.02 429.15,-83.27"/>
</g>
<!-- Node17 -->
<g id="node17" class="node">
<title>Node17</title>
<g id="a_node17"><a xlink:title=" ">
<polygon fill="white" stroke="#bfbfbf" points="276.5,-112.5 276.5,-131.5 324.5,-131.5 324.5,-112.5 276.5,-112.5"/>
<text text-anchor="middle" x="300.5" y="-119.5" font-family="Helvetica,sans-Serif" font-size="10.00">mutex</text>
</a>
</g>
</g>
<!-- Node16&#45;&gt;Node17 -->
<g id="edge21" class="edge">
<title>Node16&#45;&gt;Node17</title>
<path fill="none" stroke="midnightblue" d="M290.48,-168.08C292.07,-160.93 294.36,-150.64 296.35,-141.69"/>
<polygon fill="midnightblue" stroke="midnightblue" points="299.8,-142.27 298.56,-131.75 292.97,-140.75 299.8,-142.27"/>
</g>
<!-- Node18 -->
<g id="node18" class="node">
<title>Node18</title>
<g id="a_node18"><a xlink:title=" ">
<polygon fill="white" stroke="#bfbfbf" points="121,-112.5 121,-131.5 258,-131.5 258,-112.5 121,-112.5"/>
<text text-anchor="middle" x="189.5" y="-119.5" font-family="Helvetica,sans-Serif" font-size="10.00">SFML/Graphics/Color.hpp</text>
</a>
</g>
</g>
<!-- Node16&#45;&gt;Node18 -->
<g id="edge23" class="edge">
<title>Node16&#45;&gt;Node18</title>
<path fill="none" stroke="midnightblue" d="M272.59,-168.32C256.86,-159.74 232.56,-146.49 214.29,-136.52"/>
<polygon fill="midnightblue" stroke="midnightblue" points="215.82,-133.37 205.37,-131.65 212.47,-139.52 215.82,-133.37"/>
</g>
<!-- Node19&#45;&gt;Node14 -->
<g id="edge27" class="edge">
<title>Node19&#45;&gt;Node14</title>
<path fill="none" stroke="midnightblue" d="M219.61,-280.08C224.78,-272.53 232.35,-261.49 238.69,-252.23"/>
<polygon fill="midnightblue" stroke="midnightblue" points="241.74,-253.98 244.5,-243.75 235.96,-250.02 241.74,-253.98"/>
</g>
<!-- Node22 -->
<g id="node22" class="node">
<title>Node22</title>
<g id="a_node22"><a xlink:href="a00113.html" target="_top" xlink:title=" ">
<polygon fill="white" stroke="black" points="536,-224.5 536,-243.5 677,-243.5 677,-224.5 536,-224.5"/>
<text text-anchor="middle" x="606.5" y="-231.5" font-family="Helvetica,sans-Serif" font-size="10.00">Transform/ITransform.hpp</text>
</a>
</g>
</g>
<!-- Node21&#45;&gt;Node22 -->
<g id="edge30" class="edge">
<title>Node21&#45;&gt;Node22</title>
<path fill="none" stroke="midnightblue" d="M408.73,-281.03C448.81,-271.7 515.38,-256.21 560.08,-245.8"/>
<polygon fill="midnightblue" stroke="midnightblue" points="560.88,-249.21 569.83,-243.54 559.29,-242.39 560.88,-249.21"/>
</g>
<!-- Node23 -->
<g id="node23" class="node">
<title>Node23</title>
<g id="a_node23"><a xlink:href="a00122.html" target="_top" xlink:title=" ">
<polygon fill="white" stroke="black" points="558,-168.5 558,-187.5 635,-187.5 635,-168.5 558,-168.5"/>
<text text-anchor="middle" x="596.5" y="-175.5" font-family="Helvetica,sans-Serif" font-size="10.00">Vector3f.hpp</text>
</a>
</g>
</g>
<!-- Node22&#45;&gt;Node23 -->
<g id="edge31" class="edge">
<title>Node22&#45;&gt;Node23</title>
<path fill="none" stroke="midnightblue" d="M604.85,-224.08C603.52,-216.93 601.62,-206.64 599.96,-197.69"/>
<polygon fill="midnightblue" stroke="midnightblue" points="603.38,-196.95 598.12,-187.75 596.5,-198.22 603.38,-196.95"/>
</g>
<!-- Node23&#45;&gt;Node7 -->
<g id="edge32" class="edge">
<title>Node23&#45;&gt;Node7</title>
<path fill="none" stroke="midnightblue" d="M580.75,-168.32C565.18,-159.74 541.12,-146.49 523.04,-136.52"/>
<polygon fill="midnightblue" stroke="midnightblue" points="524.65,-133.42 514.21,-131.65 521.28,-139.55 524.65,-133.42"/>
</g>
<!-- Node23&#45;&gt;Node10 -->
<g id="edge33" class="edge">
<title>Node23&#45;&gt;Node10</title>
<path fill="none" stroke="midnightblue" d="M589.72,-168.19C579.17,-154.86 557.71,-129.32 535.5,-112 519.27,-99.35 499.04,-88.11 482.86,-80.02"/>
<polygon fill="midnightblue" stroke="midnightblue" points="484.38,-76.87 473.86,-75.64 481.32,-83.17 484.38,-76.87"/>
</g>
<!-- Node24&#45;&gt;Node3 -->
<g id="edge35" class="edge">
<title>Node24&#45;&gt;Node3</title>
<path fill="none" stroke="midnightblue" d="M556.94,-336.32C566.65,-328.26 581.32,-316.08 593,-306.37"/>
<polygon fill="midnightblue" stroke="midnightblue" points="595.41,-308.92 600.87,-299.83 590.94,-303.53 595.41,-308.92"/>
</g>
<!-- Node24&#45;&gt;Node15 -->
<g id="edge36" class="edge">
<title>Node24&#45;&gt;Node15</title>
<path fill="none" stroke="midnightblue" d="M544.4,-336.08C538.26,-309.95 520.24,-233.21 511.86,-197.58"/>
<polygon fill="midnightblue" stroke="midnightblue" points="515.21,-196.5 509.51,-187.57 508.39,-198.1 515.21,-196.5"/>
</g>
<!-- Node25&#45;&gt;Node10 -->
<g id="edge41" class="edge">
<title>Node25&#45;&gt;Node10</title>
<path fill="none" stroke="midnightblue" d="M707.66,-280.13C710.35,-267.18 713.67,-242.6 705.5,-224 668.67,-140.2 561.62,-97.01 499.86,-78.49"/>
<polygon fill="midnightblue" stroke="midnightblue" points="500.57,-75.05 489.99,-75.62 498.62,-81.77 500.57,-75.05"/>
</g>
<!-- Node25&#45;&gt;Node22 -->
<g id="edge40" class="edge">
<title>Node25&#45;&gt;Node22</title>
<path fill="none" stroke="midnightblue" d="M689.59,-280.32C673.86,-271.74 649.56,-258.49 631.29,-248.52"/>
<polygon fill="midnightblue" stroke="midnightblue" points="632.82,-245.37 622.37,-243.65 629.47,-251.52 632.82,-245.37"/>
</g>
<!-- Node25&#45;&gt;Node23 -->
<g id="edge42" class="edge">
<title>Node25&#45;&gt;Node23</title>
<path fill="none" stroke="midnightblue" d="M705.13,-280.41C704.12,-266.92 700.37,-240.6 686.5,-224 673.75,-208.73 654.52,-198.14 637.11,-191.08"/>
<polygon fill="midnightblue" stroke="midnightblue" points="638.27,-187.78 627.68,-187.52 635.8,-194.33 638.27,-187.78"/>
</g>
</g>
</svg>
