<?xml version="1.0" encoding="UTF-8" standalone="no"?>
<!DOCTYPE svg PUBLIC "-//W3C//DTD SVG 1.1//EN"
 "http://www.w3.org/Graphics/SVG/1.1/DTD/svg11.dtd">
<!-- Generated by graphviz version 2.43.0 (0)
 -->
<!-- Title: /home/runner/work/Raytracer/Raytracer/PluginsExt/Camera/Basic/CameraCreator.hpp Pages: 1 -->
<svg width="814pt" height="498pt"
 viewBox="0.00 0.00 813.50 498.00" xmlns="http://www.w3.org/2000/svg" xmlns:xlink="http://www.w3.org/1999/xlink">
<g id="graph0" class="graph" transform="scale(1 1) rotate(0) translate(4 494)">
<title>/home/runner/work/Raytracer/Raytracer/PluginsExt/Camera/Basic/CameraCreator.hpp</title>
<polygon fill="white" stroke="transparent" points="-4,4 -4,-494 809.5,-494 809.5,4 -4,4"/>
<!-- Node1 -->
<g id="node1" class="node">
<title>Node1</title>
<g id="a_node1"><a xlink:title=" ">
<polygon fill="#bfbfbf" stroke="black" points="280,-448.5 280,-489.5 442,-489.5 442,-448.5 280,-448.5"/>
<text text-anchor="start" x="288" y="-477.5" font-family="Helvetica,sans-Serif" font-size="10.00">/home/runner/work/Raytracer</text>
<text text-anchor="start" x="288" y="-466.5" font-family="Helvetica,sans-Serif" font-size="10.00">/Raytracer/PluginsExt/Camera</text>
<text text-anchor="middle" x="361" y="-455.5" font-family="Helvetica,sans-Serif" font-size="10.00">/Basic/CameraCreator.hpp</text>
</a>
</g>
</g>
<!-- Node2 -->
<g id="node2" class="node">
<title>Node2</title>
<g id="a_node2"><a xlink:title=" ">
<polygon fill="white" stroke="#bfbfbf" points="57.5,-168.5 57.5,-187.5 104.5,-187.5 104.5,-168.5 57.5,-168.5"/>
<text text-anchor="middle" x="81" y="-175.5" font-family="Helvetica,sans-Serif" font-size="10.00">vector</text>
</a>
</g>
</g>
<!-- Node1&#45;&gt;Node2 -->
<g id="edge1" class="edge">
<title>Node1&#45;&gt;Node2</title>
<path fill="none" stroke="midnightblue" d="M279.91,-454.18C184.23,-435.52 38,-398.57 38,-347 38,-347 38,-347 38,-289 38,-254.31 56.78,-217.42 69.52,-196.4"/>
<polygon fill="midnightblue" stroke="midnightblue" points="72.65,-198 75.02,-187.67 66.73,-194.27 72.65,-198"/>
</g>
<!-- Node3 -->
<g id="node3" class="node">
<title>Node3</title>
<g id="a_node3"><a xlink:title=" ">
<polygon fill="white" stroke="#bfbfbf" points="197,-0.5 197,-19.5 255,-19.5 255,-0.5 197,-0.5"/>
<text text-anchor="middle" x="226" y="-7.5" font-family="Helvetica,sans-Serif" font-size="10.00">memory</text>
</a>
</g>
</g>
<!-- Node1&#45;&gt;Node3 -->
<g id="edge2" class="edge">
<title>Node1&#45;&gt;Node3</title>
<path fill="none" stroke="midnightblue" d="M279.78,-463.31C220.51,-457.28 139.58,-443.49 75,-412 35.35,-392.67 0,-391.11 0,-347 0,-347 0,-347 0,-121 0,-38.95 121.93,-18.09 186.67,-12.79"/>
<polygon fill="midnightblue" stroke="midnightblue" points="187.2,-16.26 196.92,-12.05 186.69,-9.28 187.2,-16.26"/>
</g>
<!-- Node4 -->
<g id="node4" class="node">
<title>Node4</title>
<g id="a_node4"><a xlink:href="a00161.html" target="_top" xlink:title=" ">
<polygon fill="white" stroke="black" points="599,-336.5 599,-355.5 703,-355.5 703,-336.5 599,-336.5"/>
<text text-anchor="middle" x="651" y="-343.5" font-family="Helvetica,sans-Serif" font-size="10.00">IEntityCreator.hpp</text>
</a>
</g>
</g>
<!-- Node1&#45;&gt;Node4 -->
<g id="edge3" class="edge">
<title>Node1&#45;&gt;Node4</title>
<path fill="none" stroke="midnightblue" d="M407.92,-448.42C468.03,-423.34 570.49,-380.59 621.01,-359.51"/>
<polygon fill="midnightblue" stroke="midnightblue" points="622.52,-362.68 630.4,-355.6 619.82,-356.22 622.52,-362.68"/>
</g>
<!-- Node11 -->
<g id="node11" class="node">
<title>Node11</title>
<g id="a_node11"><a xlink:href="a00119.html" target="_top" xlink:title=" ">
<polygon fill="white" stroke="black" points="732.5,-280.5 732.5,-299.5 805.5,-299.5 805.5,-280.5 732.5,-280.5"/>
<text text-anchor="middle" x="769" y="-287.5" font-family="Helvetica,sans-Serif" font-size="10.00">ILogger.hpp</text>
</a>
</g>
</g>
<!-- Node1&#45;&gt;Node11 -->
<g id="edge15" class="edge">
<title>Node1&#45;&gt;Node11</title>
<path fill="none" stroke="midnightblue" d="M442.15,-462.86C525.28,-453.63 653.92,-427.87 738,-356 752.09,-343.96 760.25,-324.07 764.63,-309.46"/>
<polygon fill="midnightblue" stroke="midnightblue" points="768.09,-310.1 767.28,-299.53 761.32,-308.29 768.09,-310.1"/>
</g>
<!-- Node13 -->
<g id="node13" class="node">
<title>Node13</title>
<g id="a_node13"><a xlink:href="a00236.html" target="_top" xlink:title=" ">
<polygon fill="white" stroke="black" points="309.5,-392.5 309.5,-411.5 412.5,-411.5 412.5,-392.5 309.5,-392.5"/>
<text text-anchor="middle" x="361" y="-399.5" font-family="Helvetica,sans-Serif" font-size="10.00">CameraEntity.hpp</text>
</a>
</g>
</g>
<!-- Node1&#45;&gt;Node13 -->
<g id="edge16" class="edge">
<title>Node1&#45;&gt;Node13</title>
<path fill="none" stroke="midnightblue" d="M361,-448.5C361,-440.07 361,-430.24 361,-421.87"/>
<polygon fill="midnightblue" stroke="midnightblue" points="364.5,-421.65 361,-411.65 357.5,-421.65 364.5,-421.65"/>
</g>
<!-- Node4&#45;&gt;Node3 -->
<g id="edge4" class="edge">
<title>Node4&#45;&gt;Node3</title>
<path fill="none" stroke="midnightblue" d="M658.59,-336.28C673.25,-318.52 704,-276.34 704,-235 704,-235 704,-235 704,-121 704,-23.83 382.26,-41.32 265.39,-19.84"/>
<polygon fill="midnightblue" stroke="midnightblue" points="265.89,-16.37 255.39,-17.78 264.48,-23.22 265.89,-16.37"/>
</g>
<!-- Node5 -->
<g id="node5" class="node">
<title>Node5</title>
<g id="a_node5"><a xlink:href="a00071.html" target="_top" xlink:title=" ">
<polygon fill="white" stroke="black" points="466,-280.5 466,-299.5 534,-299.5 534,-280.5 466,-280.5"/>
<text text-anchor="middle" x="500" y="-287.5" font-family="Helvetica,sans-Serif" font-size="10.00">IEntity.hpp</text>
</a>
</g>
</g>
<!-- Node4&#45;&gt;Node5 -->
<g id="edge5" class="edge">
<title>Node4&#45;&gt;Node5</title>
<path fill="none" stroke="midnightblue" d="M627.07,-336.44C601.78,-327.4 561.7,-313.06 533.32,-302.92"/>
<polygon fill="midnightblue" stroke="midnightblue" points="534.41,-299.59 523.81,-299.52 532.05,-306.18 534.41,-299.59"/>
</g>
<!-- Node9 -->
<g id="node9" class="node">
<title>Node9</title>
<g id="a_node9"><a xlink:href="a00206.html" target="_top" xlink:title=" ">
<polygon fill="white" stroke="black" points="278.5,-56.5 278.5,-75.5 353.5,-75.5 353.5,-56.5 278.5,-56.5"/>
<text text-anchor="middle" x="316" y="-63.5" font-family="Helvetica,sans-Serif" font-size="10.00">ISetting.hpp</text>
</a>
</g>
</g>
<!-- Node4&#45;&gt;Node9 -->
<g id="edge14" class="edge">
<title>Node4&#45;&gt;Node9</title>
<path fill="none" stroke="midnightblue" d="M652.96,-336.5C657.03,-318.09 666,-273.16 666,-235 666,-235 666,-235 666,-177 666,-127.66 621.48,-131.14 576,-112 505.94,-82.51 417.46,-72.34 363.88,-68.84"/>
<polygon fill="midnightblue" stroke="midnightblue" points="363.84,-65.33 353.65,-68.22 363.42,-72.32 363.84,-65.33"/>
</g>
<!-- Node4&#45;&gt;Node11 -->
<g id="edge12" class="edge">
<title>Node4&#45;&gt;Node11</title>
<path fill="none" stroke="midnightblue" d="M669.7,-336.44C688.94,-327.64 719.15,-313.81 741.2,-303.72"/>
<polygon fill="midnightblue" stroke="midnightblue" points="742.75,-306.86 750.39,-299.52 739.84,-300.5 742.75,-306.86"/>
</g>
<!-- Node6 -->
<g id="node6" class="node">
<title>Node6</title>
<g id="a_node6"><a xlink:href="a00083.html" target="_top" xlink:title=" ">
<polygon fill="white" stroke="black" points="382.5,-224.5 382.5,-243.5 523.5,-243.5 523.5,-224.5 382.5,-224.5"/>
<text text-anchor="middle" x="453" y="-231.5" font-family="Helvetica,sans-Serif" font-size="10.00">Transform/ITransform.hpp</text>
</a>
</g>
</g>
<!-- Node5&#45;&gt;Node6 -->
<g id="edge6" class="edge">
<title>Node5&#45;&gt;Node6</title>
<path fill="none" stroke="midnightblue" d="M492.24,-280.08C485.46,-272.3 475.46,-260.8 467.24,-251.37"/>
<polygon fill="midnightblue" stroke="midnightblue" points="469.82,-249 460.62,-243.75 464.54,-253.59 469.82,-249"/>
</g>
<!-- Node7 -->
<g id="node7" class="node">
<title>Node7</title>
<g id="a_node7"><a xlink:href="a00092.html" target="_top" xlink:title=" ">
<polygon fill="white" stroke="black" points="460.5,-168.5 460.5,-187.5 537.5,-187.5 537.5,-168.5 460.5,-168.5"/>
<text text-anchor="middle" x="499" y="-175.5" font-family="Helvetica,sans-Serif" font-size="10.00">Vector3f.hpp</text>
</a>
</g>
</g>
<!-- Node6&#45;&gt;Node7 -->
<g id="edge7" class="edge">
<title>Node6&#45;&gt;Node7</title>
<path fill="none" stroke="midnightblue" d="M460.6,-224.08C467.23,-216.3 477.02,-204.8 485.06,-195.37"/>
<polygon fill="midnightblue" stroke="midnightblue" points="487.73,-197.63 491.55,-187.75 482.4,-193.09 487.73,-197.63"/>
</g>
<!-- Node8 -->
<g id="node8" class="node">
<title>Node8</title>
<g id="a_node8"><a xlink:title=" ">
<polygon fill="white" stroke="#bfbfbf" points="331.5,-112.5 331.5,-131.5 388.5,-131.5 388.5,-112.5 331.5,-112.5"/>
<text text-anchor="middle" x="360" y="-119.5" font-family="Helvetica,sans-Serif" font-size="10.00">ostream</text>
</a>
</g>
</g>
<!-- Node7&#45;&gt;Node8 -->
<g id="edge8" class="edge">
<title>Node7&#45;&gt;Node8</title>
<path fill="none" stroke="midnightblue" d="M476.98,-168.44C453.9,-159.48 417.44,-145.31 391.36,-135.18"/>
<polygon fill="midnightblue" stroke="midnightblue" points="392.51,-131.88 381.92,-131.52 389.98,-138.4 392.51,-131.88"/>
</g>
<!-- Node7&#45;&gt;Node9 -->
<g id="edge9" class="edge">
<title>Node7&#45;&gt;Node9</title>
<path fill="none" stroke="midnightblue" d="M496.72,-168.47C492.56,-154.57 482.45,-127.1 464,-112 435.62,-88.77 395.4,-77.52 364.05,-72.07"/>
<polygon fill="midnightblue" stroke="midnightblue" points="364.22,-68.56 353.79,-70.44 363.12,-75.47 364.22,-68.56"/>
</g>
<!-- Node9&#45;&gt;Node3 -->
<g id="edge10" class="edge">
<title>Node9&#45;&gt;Node3</title>
<path fill="none" stroke="midnightblue" d="M301.54,-56.32C287.5,-47.9 265.95,-34.97 249.46,-25.07"/>
<polygon fill="midnightblue" stroke="midnightblue" points="250.8,-21.8 240.42,-19.65 247.2,-27.8 250.8,-21.8"/>
</g>
<!-- Node10 -->
<g id="node10" class="node">
<title>Node10</title>
<g id="a_node10"><a xlink:title=" ">
<polygon fill="white" stroke="#bfbfbf" points="274.5,-0.5 274.5,-19.5 357.5,-19.5 357.5,-0.5 274.5,-0.5"/>
<text text-anchor="middle" x="316" y="-7.5" font-family="Helvetica,sans-Serif" font-size="10.00">libconfig.h++</text>
</a>
</g>
</g>
<!-- Node9&#45;&gt;Node10 -->
<g id="edge11" class="edge">
<title>Node9&#45;&gt;Node10</title>
<path fill="none" stroke="midnightblue" d="M316,-56.08C316,-49.01 316,-38.86 316,-29.99"/>
<polygon fill="midnightblue" stroke="midnightblue" points="319.5,-29.75 316,-19.75 312.5,-29.75 319.5,-29.75"/>
</g>
<!-- Node12 -->
<g id="node12" class="node">
<title>Node12</title>
<g id="a_node12"><a xlink:title=" ">
<polygon fill="white" stroke="#bfbfbf" points="556,-168.5 556,-187.5 600,-187.5 600,-168.5 556,-168.5"/>
<text text-anchor="middle" x="578" y="-175.5" font-family="Helvetica,sans-Serif" font-size="10.00">string</text>
</a>
</g>
</g>
<!-- Node11&#45;&gt;Node12 -->
<g id="edge13" class="edge">
<title>Node11&#45;&gt;Node12</title>
<path fill="none" stroke="midnightblue" d="M754.01,-280.37C720.96,-261.33 641.58,-215.62 601.7,-192.65"/>
<polygon fill="midnightblue" stroke="midnightblue" points="603.33,-189.55 592.92,-187.59 599.84,-195.62 603.33,-189.55"/>
</g>
<!-- Node13&#45;&gt;Node11 -->
<g id="edge41" class="edge">
<title>Node13&#45;&gt;Node11</title>
<path fill="none" stroke="midnightblue" d="M412.7,-398.84C497.38,-394.56 661.29,-382.99 712,-356 732.63,-345.02 749.25,-323.35 759.1,-308.06"/>
<polygon fill="midnightblue" stroke="midnightblue" points="762.1,-309.87 764.34,-299.52 756.13,-306.21 762.1,-309.87"/>
</g>
<!-- Node14 -->
<g id="node14" class="node">
<title>Node14</title>
<g id="a_node14"><a xlink:title=" ">
<polygon fill="white" stroke="#bfbfbf" points="423.5,-336.5 423.5,-355.5 488.5,-355.5 488.5,-336.5 423.5,-336.5"/>
<text text-anchor="middle" x="456" y="-343.5" font-family="Helvetica,sans-Serif" font-size="10.00">functional</text>
</a>
</g>
</g>
<!-- Node13&#45;&gt;Node14 -->
<g id="edge17" class="edge">
<title>Node13&#45;&gt;Node14</title>
<path fill="none" stroke="midnightblue" d="M376.26,-392.32C391.22,-383.82 414.25,-370.73 431.73,-360.8"/>
<polygon fill="midnightblue" stroke="midnightblue" points="433.81,-363.64 440.77,-355.65 430.35,-357.55 433.81,-363.64"/>
</g>
<!-- Node15 -->
<g id="node15" class="node">
<title>Node15</title>
<g id="a_node15"><a xlink:href="a00068.html" target="_top" xlink:title=" ">
<polygon fill="white" stroke="black" points="287.5,-336.5 287.5,-355.5 366.5,-355.5 366.5,-336.5 287.5,-336.5"/>
<text text-anchor="middle" x="327" y="-343.5" font-family="Helvetica,sans-Serif" font-size="10.00">ICamera.hpp</text>
</a>
</g>
</g>
<!-- Node13&#45;&gt;Node15 -->
<g id="edge18" class="edge">
<title>Node13&#45;&gt;Node15</title>
<path fill="none" stroke="midnightblue" d="M355.39,-392.08C350.63,-384.53 343.68,-373.49 337.85,-364.23"/>
<polygon fill="midnightblue" stroke="midnightblue" points="340.8,-362.35 332.51,-355.75 334.88,-366.08 340.8,-362.35"/>
</g>
<!-- Node19 -->
<g id="node19" class="node">
<title>Node19</title>
<g id="a_node19"><a xlink:href="a00200.html" target="_top" xlink:title=" ">
<polygon fill="white" stroke="black" points="75,-224.5 75,-243.5 173,-243.5 173,-224.5 75,-224.5"/>
<text text-anchor="middle" x="124" y="-231.5" font-family="Helvetica,sans-Serif" font-size="10.00">IDisplayable.hpp</text>
</a>
</g>
</g>
<!-- Node13&#45;&gt;Node19 -->
<g id="edge43" class="edge">
<title>Node13&#45;&gt;Node19</title>
<path fill="none" stroke="midnightblue" d="M309.23,-398.26C246.28,-391.8 142.55,-370.41 95,-300 84.69,-284.73 96.22,-265.21 107.65,-251.56"/>
<polygon fill="midnightblue" stroke="midnightblue" points="110.45,-253.68 114.56,-243.91 105.26,-248.99 110.45,-253.68"/>
</g>
<!-- Node25 -->
<g id="node25" class="node">
<title>Node25</title>
<g id="a_node25"><a xlink:href="a00203.html" target="_top" xlink:title=" ">
<polygon fill="white" stroke="black" points="104.5,-280.5 104.5,-299.5 199.5,-299.5 199.5,-280.5 104.5,-280.5"/>
<text text-anchor="middle" x="152" y="-287.5" font-family="Helvetica,sans-Serif" font-size="10.00">ISceneState.hpp</text>
</a>
</g>
</g>
<!-- Node13&#45;&gt;Node25 -->
<g id="edge42" class="edge">
<title>Node13&#45;&gt;Node25</title>
<path fill="none" stroke="midnightblue" d="M344.6,-392.37C308.28,-373.25 220.84,-327.23 177.39,-304.36"/>
<polygon fill="midnightblue" stroke="midnightblue" points="178.8,-301.15 168.32,-299.59 175.54,-307.35 178.8,-301.15"/>
</g>
<!-- Node26 -->
<g id="node26" class="node">
<title>Node26</title>
<g id="a_node26"><a xlink:href="a00086.html" target="_top" xlink:title=" ">
<polygon fill="white" stroke="black" points="552,-280.5 552,-299.5 638,-299.5 638,-280.5 552,-280.5"/>
<text text-anchor="middle" x="595" y="-287.5" font-family="Helvetica,sans-Serif" font-size="10.00">Transform.hpp</text>
</a>
</g>
</g>
<!-- Node13&#45;&gt;Node26 -->
<g id="edge44" class="edge">
<title>Node13&#45;&gt;Node26</title>
<path fill="none" stroke="midnightblue" d="M365.59,-392.33C373.51,-378.25 391.13,-350.51 414,-336 435.04,-322.66 496.17,-309.1 541.6,-300.4"/>
<polygon fill="midnightblue" stroke="midnightblue" points="542.44,-303.81 551.62,-298.51 541.14,-296.93 542.44,-303.81"/>
</g>
<!-- Node15&#45;&gt;Node5 -->
<g id="edge40" class="edge">
<title>Node15&#45;&gt;Node5</title>
<path fill="none" stroke="midnightblue" d="M354.41,-336.44C383.77,-327.28 430.52,-312.69 463.1,-302.52"/>
<polygon fill="midnightblue" stroke="midnightblue" points="464.21,-305.84 472.72,-299.52 462.13,-299.16 464.21,-305.84"/>
</g>
<!-- Node16 -->
<g id="node16" class="node">
<title>Node16</title>
<g id="a_node16"><a xlink:title=" ">
<polygon fill="white" stroke="#bfbfbf" points="378,-280.5 378,-299.5 410,-299.5 410,-280.5 378,-280.5"/>
<text text-anchor="middle" x="394" y="-287.5" font-family="Helvetica,sans-Serif" font-size="10.00">list</text>
</a>
</g>
</g>
<!-- Node15&#45;&gt;Node16 -->
<g id="edge19" class="edge">
<title>Node15&#45;&gt;Node16</title>
<path fill="none" stroke="midnightblue" d="M337.76,-336.32C347.77,-328.26 362.89,-316.08 374.93,-306.37"/>
<polygon fill="midnightblue" stroke="midnightblue" points="377.45,-308.83 383.04,-299.83 373.06,-303.38 377.45,-308.83"/>
</g>
<!-- Node17 -->
<g id="node17" class="node">
<title>Node17</title>
<g id="a_node17"><a xlink:href="a00089.html" target="_top" xlink:title=" ">
<polygon fill="white" stroke="black" points="161.5,-168.5 161.5,-187.5 290.5,-187.5 290.5,-168.5 161.5,-168.5"/>
<text text-anchor="middle" x="226" y="-175.5" font-family="Helvetica,sans-Serif" font-size="10.00">Transform/Vector2i.hpp</text>
</a>
</g>
</g>
<!-- Node15&#45;&gt;Node17 -->
<g id="edge20" class="edge">
<title>Node15&#45;&gt;Node17</title>
<path fill="none" stroke="midnightblue" d="M317.45,-336.38C308.32,-327.79 294.57,-313.91 285,-300 261.7,-266.11 242.56,-221.64 232.86,-197.15"/>
<polygon fill="midnightblue" stroke="midnightblue" points="236.07,-195.75 229.2,-187.69 229.55,-198.28 236.07,-195.75"/>
</g>
<!-- Node15&#45;&gt;Node19 -->
<g id="edge25" class="edge">
<title>Node15&#45;&gt;Node19</title>
<path fill="none" stroke="midnightblue" d="M311.24,-336.34C288.48,-323.84 245.06,-300.05 208,-280 188.29,-269.34 165.93,-257.37 149.24,-248.45"/>
<polygon fill="midnightblue" stroke="midnightblue" points="150.59,-245.21 140.12,-243.59 147.3,-251.38 150.59,-245.21"/>
</g>
<!-- Node20 -->
<g id="node20" class="node">
<title>Node20</title>
<g id="a_node20"><a xlink:href="a00125.html" target="_top" xlink:title=" ">
<polygon fill="white" stroke="black" points="296,-224.5 296,-243.5 364,-243.5 364,-224.5 296,-224.5"/>
<text text-anchor="middle" x="330" y="-231.5" font-family="Helvetica,sans-Serif" font-size="10.00">Image.hpp</text>
</a>
</g>
</g>
<!-- Node15&#45;&gt;Node20 -->
<g id="edge28" class="edge">
<title>Node15&#45;&gt;Node20</title>
<path fill="none" stroke="midnightblue" d="M365.85,-336.36C385.38,-329.85 407.33,-318.7 419,-300 434.13,-275.76 401.32,-257.68 371.35,-246.82"/>
<polygon fill="midnightblue" stroke="midnightblue" points="372.38,-243.48 361.79,-243.55 370.12,-250.1 372.38,-243.48"/>
</g>
<!-- Node24 -->
<g id="node24" class="node">
<title>Node24</title>
<g id="a_node24"><a xlink:href="a00116.html" target="_top" xlink:title=" ">
<polygon fill="white" stroke="black" points="294.5,-280.5 294.5,-299.5 359.5,-299.5 359.5,-280.5 294.5,-280.5"/>
<text text-anchor="middle" x="327" y="-287.5" font-family="Helvetica,sans-Serif" font-size="10.00">IFilter.hpp</text>
</a>
</g>
</g>
<!-- Node15&#45;&gt;Node24 -->
<g id="edge37" class="edge">
<title>Node15&#45;&gt;Node24</title>
<path fill="none" stroke="midnightblue" d="M327,-336.08C327,-329.01 327,-318.86 327,-309.99"/>
<polygon fill="midnightblue" stroke="midnightblue" points="330.5,-309.75 327,-299.75 323.5,-309.75 330.5,-309.75"/>
</g>
<!-- Node15&#45;&gt;Node25 -->
<g id="edge39" class="edge">
<title>Node15&#45;&gt;Node25</title>
<path fill="none" stroke="midnightblue" d="M299.27,-336.44C269.57,-327.28 222.28,-312.69 189.33,-302.52"/>
<polygon fill="midnightblue" stroke="midnightblue" points="190.19,-299.12 179.6,-299.52 188.12,-305.81 190.19,-299.12"/>
</g>
<!-- Node17&#45;&gt;Node8 -->
<g id="edge21" class="edge">
<title>Node17&#45;&gt;Node8</title>
<path fill="none" stroke="midnightblue" d="M247.23,-168.44C269.38,-159.52 304.32,-145.44 329.44,-135.32"/>
<polygon fill="midnightblue" stroke="midnightblue" points="330.9,-138.5 338.87,-131.52 328.28,-132.01 330.9,-138.5"/>
</g>
<!-- Node18 -->
<g id="node18" class="node">
<title>Node18</title>
<g id="a_node18"><a xlink:href="a00197.html" target="_top" xlink:title=" ">
<polygon fill="white" stroke="black" points="190.5,-112.5 190.5,-131.5 261.5,-131.5 261.5,-112.5 190.5,-112.5"/>
<text text-anchor="middle" x="226" y="-119.5" font-family="Helvetica,sans-Serif" font-size="10.00">IConfig.hpp</text>
</a>
</g>
</g>
<!-- Node17&#45;&gt;Node18 -->
<g id="edge22" class="edge">
<title>Node17&#45;&gt;Node18</title>
<path fill="none" stroke="midnightblue" d="M226,-168.08C226,-161.01 226,-150.86 226,-141.99"/>
<polygon fill="midnightblue" stroke="midnightblue" points="229.5,-141.75 226,-131.75 222.5,-141.75 229.5,-141.75"/>
</g>
<!-- Node18&#45;&gt;Node3 -->
<g id="edge23" class="edge">
<title>Node18&#45;&gt;Node3</title>
<path fill="none" stroke="midnightblue" d="M226,-112.37C226,-94.62 226,-53.67 226,-29.6"/>
<polygon fill="midnightblue" stroke="midnightblue" points="229.5,-29.59 226,-19.59 222.5,-29.59 229.5,-29.59"/>
</g>
<!-- Node18&#45;&gt;Node9 -->
<g id="edge24" class="edge">
<title>Node18&#45;&gt;Node9</title>
<path fill="none" stroke="midnightblue" d="M240.46,-112.32C254.5,-103.9 276.05,-90.97 292.54,-81.07"/>
<polygon fill="midnightblue" stroke="midnightblue" points="294.8,-83.8 301.58,-75.65 291.2,-77.8 294.8,-83.8"/>
</g>
<!-- Node19&#45;&gt;Node2 -->
<g id="edge27" class="edge">
<title>Node19&#45;&gt;Node2</title>
<path fill="none" stroke="midnightblue" d="M116.9,-224.08C110.76,-216.38 101.73,-205.03 94.26,-195.65"/>
<polygon fill="midnightblue" stroke="midnightblue" points="96.94,-193.39 87.97,-187.75 91.46,-197.75 96.94,-193.39"/>
</g>
<!-- Node19&#45;&gt;Node3 -->
<g id="edge26" class="edge">
<title>Node19&#45;&gt;Node3</title>
<path fill="none" stroke="midnightblue" d="M127.71,-224.13C132.98,-211.57 143.01,-187.94 152,-168 174.83,-117.36 203.16,-58.23 217.22,-29.11"/>
<polygon fill="midnightblue" stroke="midnightblue" points="220.52,-30.33 221.72,-19.8 214.22,-27.28 220.52,-30.33"/>
</g>
<!-- Node20&#45;&gt;Node2 -->
<g id="edge31" class="edge">
<title>Node20&#45;&gt;Node2</title>
<path fill="none" stroke="midnightblue" d="M295.9,-225.6C248.13,-215.24 161.82,-196.53 114.42,-186.25"/>
<polygon fill="midnightblue" stroke="midnightblue" points="115.16,-182.83 104.64,-184.13 113.67,-189.67 115.16,-182.83"/>
</g>
<!-- Node20&#45;&gt;Node12 -->
<g id="edge30" class="edge">
<title>Node20&#45;&gt;Node12</title>
<path fill="none" stroke="midnightblue" d="M364.27,-225.82C367.22,-225.2 370.16,-224.59 373,-224 447.29,-208.54 468.7,-207.12 546,-188.11"/>
<polygon fill="midnightblue" stroke="midnightblue" points="546.84,-191.5 555.71,-185.7 545.16,-184.71 546.84,-191.5"/>
</g>
<!-- Node20&#45;&gt;Node17 -->
<g id="edge36" class="edge">
<title>Node20&#45;&gt;Node17</title>
<path fill="none" stroke="midnightblue" d="M313.29,-224.32C296.69,-215.7 271,-202.36 251.78,-192.39"/>
<polygon fill="midnightblue" stroke="midnightblue" points="253.16,-189.16 242.67,-187.65 249.93,-195.37 253.16,-189.16"/>
</g>
<!-- Node21 -->
<g id="node21" class="node">
<title>Node21</title>
<g id="a_node21"><a xlink:title=" ">
<polygon fill="white" stroke="#bfbfbf" points="389.5,-168.5 389.5,-187.5 442.5,-187.5 442.5,-168.5 389.5,-168.5"/>
<text text-anchor="middle" x="416" y="-175.5" font-family="Helvetica,sans-Serif" font-size="10.00">cstddef</text>
</a>
</g>
</g>
<!-- Node20&#45;&gt;Node21 -->
<g id="edge29" class="edge">
<title>Node20&#45;&gt;Node21</title>
<path fill="none" stroke="midnightblue" d="M343.82,-224.32C357.23,-215.9 377.82,-202.97 393.59,-193.07"/>
<polygon fill="midnightblue" stroke="midnightblue" points="395.61,-195.94 402.22,-187.65 391.89,-190.01 395.61,-195.94"/>
</g>
<!-- Node22 -->
<g id="node22" class="node">
<title>Node22</title>
<g id="a_node22"><a xlink:href="a00122.html" target="_top" xlink:title=" ">
<polygon fill="white" stroke="black" points="309,-168.5 309,-187.5 371,-187.5 371,-168.5 309,-168.5"/>
<text text-anchor="middle" x="340" y="-175.5" font-family="Helvetica,sans-Serif" font-size="10.00">Color.hpp</text>
</a>
</g>
</g>
<!-- Node20&#45;&gt;Node22 -->
<g id="edge32" class="edge">
<title>Node20&#45;&gt;Node22</title>
<path fill="none" stroke="midnightblue" d="M331.65,-224.08C332.98,-216.93 334.88,-206.64 336.54,-197.69"/>
<polygon fill="midnightblue" stroke="midnightblue" points="340,-198.22 338.38,-187.75 333.12,-196.95 340,-198.22"/>
</g>
<!-- Node22&#45;&gt;Node8 -->
<g id="edge34" class="edge">
<title>Node22&#45;&gt;Node8</title>
<path fill="none" stroke="midnightblue" d="M343.3,-168.08C345.98,-160.85 349.85,-150.41 353.19,-141.4"/>
<polygon fill="midnightblue" stroke="midnightblue" points="356.57,-142.34 356.76,-131.75 350,-139.91 356.57,-142.34"/>
</g>
<!-- Node22&#45;&gt;Node9 -->
<g id="edge35" class="edge">
<title>Node22&#45;&gt;Node9</title>
<path fill="none" stroke="midnightblue" d="M335.63,-168.28C331.39,-159.39 325.15,-145.09 322,-132 318.31,-116.66 316.86,-98.78 316.3,-85.66"/>
<polygon fill="midnightblue" stroke="midnightblue" points="319.8,-85.44 316.01,-75.54 312.8,-85.64 319.8,-85.44"/>
</g>
<!-- Node23 -->
<g id="node23" class="node">
<title>Node23</title>
<g id="a_node23"><a xlink:title=" ">
<polygon fill="white" stroke="#bfbfbf" points="407,-112.5 407,-131.5 455,-131.5 455,-112.5 407,-112.5"/>
<text text-anchor="middle" x="431" y="-119.5" font-family="Helvetica,sans-Serif" font-size="10.00">mutex</text>
</a>
</g>
</g>
<!-- Node22&#45;&gt;Node23 -->
<g id="edge33" class="edge">
<title>Node22&#45;&gt;Node23</title>
<path fill="none" stroke="midnightblue" d="M354.62,-168.32C368.95,-159.82 391.01,-146.73 407.75,-136.8"/>
<polygon fill="midnightblue" stroke="midnightblue" points="409.6,-139.77 416.42,-131.65 406.03,-133.75 409.6,-139.77"/>
</g>
<!-- Node24&#45;&gt;Node20 -->
<g id="edge38" class="edge">
<title>Node24&#45;&gt;Node20</title>
<path fill="none" stroke="midnightblue" d="M327.5,-280.08C327.89,-273.01 328.45,-262.86 328.95,-253.99"/>
<polygon fill="midnightblue" stroke="midnightblue" points="332.45,-253.93 329.51,-243.75 325.46,-253.54 332.45,-253.93"/>
</g>
<!-- Node26&#45;&gt;Node6 -->
<g id="edge45" class="edge">
<title>Node26&#45;&gt;Node6</title>
<path fill="none" stroke="midnightblue" d="M572.5,-280.44C548.92,-271.48 511.68,-257.31 485.04,-247.18"/>
<polygon fill="midnightblue" stroke="midnightblue" points="485.99,-243.8 475.4,-243.52 483.5,-250.34 485.99,-243.8"/>
</g>
<!-- Node26&#45;&gt;Node7 -->
<g id="edge47" class="edge">
<title>Node26&#45;&gt;Node7</title>
<path fill="none" stroke="midnightblue" d="M587.47,-280.37C571.48,-262.05 533.95,-219.05 513.28,-195.36"/>
<polygon fill="midnightblue" stroke="midnightblue" points="515.71,-192.82 506.5,-187.59 510.44,-197.43 515.71,-192.82"/>
</g>
<!-- Node26&#45;&gt;Node9 -->
<g id="edge46" class="edge">
<title>Node26&#45;&gt;Node9</title>
<path fill="none" stroke="midnightblue" d="M599.53,-280.24C609.79,-259.05 632.17,-204.14 609,-168 556.58,-86.25 432.44,-69.57 363.76,-66.84"/>
<polygon fill="midnightblue" stroke="midnightblue" points="363.74,-63.34 353.64,-66.52 363.52,-70.34 363.74,-63.34"/>
</g>
</g>
</svg>
