<?xml version="1.0" encoding="UTF-8" standalone="no"?>
<!DOCTYPE svg PUBLIC "-//W3C//DTD SVG 1.1//EN"
 "http://www.w3.org/Graphics/SVG/1.1/DTD/svg11.dtd">
<!-- Generated by graphviz version 2.43.0 (0)
 -->
<!-- Title: /home/runner/work/Raytracer/Raytracer/PluginsExt/Camera/FullCustom/CustomRayIterator.hpp Pages: 1 -->
<svg width="967pt" height="442pt"
 viewBox="0.00 0.00 966.50 442.00" xmlns="http://www.w3.org/2000/svg" xmlns:xlink="http://www.w3.org/1999/xlink">
<g id="graph0" class="graph" transform="scale(1 1) rotate(0) translate(4 438)">
<title>/home/runner/work/Raytracer/Raytracer/PluginsExt/Camera/FullCustom/CustomRayIterator.hpp</title>
<polygon fill="white" stroke="transparent" points="-4,4 -4,-438 962.5,-438 962.5,4 -4,4"/>
<!-- Node1 -->
<g id="node1" class="node">
<title>Node1</title>
<g id="a_node1"><a xlink:title=" ">
<polygon fill="#bfbfbf" stroke="black" points="532,-392.5 532,-433.5 722,-433.5 722,-392.5 532,-392.5"/>
<text text-anchor="start" x="540" y="-421.5" font-family="Helvetica,sans-Serif" font-size="10.00">/home/runner/work/Raytracer</text>
<text text-anchor="start" x="540" y="-410.5" font-family="Helvetica,sans-Serif" font-size="10.00">/Raytracer/PluginsExt/Camera</text>
<text text-anchor="middle" x="627" y="-399.5" font-family="Helvetica,sans-Serif" font-size="10.00">/FullCustom/CustomRayIterator.hpp</text>
</a>
</g>
</g>
<!-- Node2 -->
<g id="node2" class="node">
<title>Node2</title>
<g id="a_node2"><a xlink:title=" ">
<polygon fill="white" stroke="#bfbfbf" points="674,-280.5 674,-299.5 738,-299.5 738,-280.5 674,-280.5"/>
<text text-anchor="middle" x="706" y="-287.5" font-family="Helvetica,sans-Serif" font-size="10.00">algorithm</text>
</a>
</g>
</g>
<!-- Node1&#45;&gt;Node2 -->
<g id="edge1" class="edge">
<title>Node1&#45;&gt;Node2</title>
<path fill="none" stroke="midnightblue" d="M639.87,-392.29C655.17,-368.85 680.46,-330.13 694.92,-307.96"/>
<polygon fill="midnightblue" stroke="midnightblue" points="697.87,-309.86 700.4,-299.57 692,-306.03 697.87,-309.86"/>
</g>
<!-- Node3 -->
<g id="node3" class="node">
<title>Node3</title>
<g id="a_node3"><a xlink:title=" ">
<polygon fill="white" stroke="#bfbfbf" points="66.5,-168.5 66.5,-187.5 119.5,-187.5 119.5,-168.5 66.5,-168.5"/>
<text text-anchor="middle" x="93" y="-175.5" font-family="Helvetica,sans-Serif" font-size="10.00">cstddef</text>
</a>
</g>
</g>
<!-- Node1&#45;&gt;Node3 -->
<g id="edge2" class="edge">
<title>Node1&#45;&gt;Node3</title>
<path fill="none" stroke="midnightblue" d="M531.99,-408.03C454.25,-402.41 342.44,-388.83 250,-356 157.99,-323.33 109.34,-328.84 61,-244 51.72,-227.71 64.09,-208.35 76.05,-195.02"/>
<polygon fill="midnightblue" stroke="midnightblue" points="78.81,-197.2 83.25,-187.58 73.78,-192.34 78.81,-197.2"/>
</g>
<!-- Node4 -->
<g id="node4" class="node">
<title>Node4</title>
<g id="a_node4"><a xlink:title=" ">
<polygon fill="white" stroke="#bfbfbf" points="832.5,-280.5 832.5,-299.5 885.5,-299.5 885.5,-280.5 832.5,-280.5"/>
<text text-anchor="middle" x="859" y="-287.5" font-family="Helvetica,sans-Serif" font-size="10.00">iterator</text>
</a>
</g>
</g>
<!-- Node1&#45;&gt;Node4 -->
<g id="edge3" class="edge">
<title>Node1&#45;&gt;Node4</title>
<path fill="none" stroke="midnightblue" d="M722.13,-401.61C757.8,-393.77 796.74,-380.03 826,-356 840.5,-344.09 849.27,-324.19 854.09,-309.53"/>
<polygon fill="midnightblue" stroke="midnightblue" points="857.55,-310.15 857.03,-299.57 850.84,-308.17 857.55,-310.15"/>
</g>
<!-- Node5 -->
<g id="node5" class="node">
<title>Node5</title>
<g id="a_node5"><a xlink:title=" ">
<polygon fill="white" stroke="#bfbfbf" points="287,-0.5 287,-19.5 345,-19.5 345,-0.5 287,-0.5"/>
<text text-anchor="middle" x="316" y="-7.5" font-family="Helvetica,sans-Serif" font-size="10.00">memory</text>
</a>
</g>
</g>
<!-- Node1&#45;&gt;Node5 -->
<g id="edge4" class="edge">
<title>Node1&#45;&gt;Node5</title>
<path fill="none" stroke="midnightblue" d="M531.77,-403.34C356.37,-386.1 0,-344.49 0,-291 0,-291 0,-291 0,-121 0,-63.01 192.24,-28.56 276.84,-16.21"/>
<polygon fill="midnightblue" stroke="midnightblue" points="277.43,-19.66 286.84,-14.78 276.44,-12.73 277.43,-19.66"/>
</g>
<!-- Node6 -->
<g id="node6" class="node">
<title>Node6</title>
<g id="a_node6"><a xlink:title=" ">
<polygon fill="white" stroke="#bfbfbf" points="431,-168.5 431,-187.5 475,-187.5 475,-168.5 431,-168.5"/>
<text text-anchor="middle" x="453" y="-175.5" font-family="Helvetica,sans-Serif" font-size="10.00">string</text>
</a>
</g>
</g>
<!-- Node1&#45;&gt;Node6 -->
<g id="edge5" class="edge">
<title>Node1&#45;&gt;Node6</title>
<path fill="none" stroke="midnightblue" d="M626.94,-392.06C625.75,-363.34 619.25,-310.45 589,-280 549.16,-239.89 505.45,-285.44 467,-244 455.6,-231.71 452.63,-212.46 452.19,-198.09"/>
<polygon fill="midnightblue" stroke="midnightblue" points="455.69,-197.86 452.27,-187.84 448.69,-197.81 455.69,-197.86"/>
</g>
<!-- Node7 -->
<g id="node7" class="node">
<title>Node7</title>
<g id="a_node7"><a xlink:href="a00068.html" target="_top" xlink:title=" ">
<polygon fill="white" stroke="black" points="318.5,-336.5 318.5,-355.5 397.5,-355.5 397.5,-336.5 318.5,-336.5"/>
<text text-anchor="middle" x="358" y="-343.5" font-family="Helvetica,sans-Serif" font-size="10.00">ICamera.hpp</text>
</a>
</g>
</g>
<!-- Node1&#45;&gt;Node7 -->
<g id="edge6" class="edge">
<title>Node1&#45;&gt;Node7</title>
<path fill="none" stroke="midnightblue" d="M546.29,-392.5C499.55,-381.2 442.44,-367.4 403.45,-357.98"/>
<polygon fill="midnightblue" stroke="midnightblue" points="404,-354.51 393.45,-355.57 402.35,-361.32 404,-354.51"/>
</g>
<!-- Node9 -->
<g id="node9" class="node">
<title>Node9</title>
<g id="a_node9"><a xlink:href="a00089.html" target="_top" xlink:title=" ">
<polygon fill="white" stroke="black" points="283.5,-168.5 283.5,-187.5 412.5,-187.5 412.5,-168.5 283.5,-168.5"/>
<text text-anchor="middle" x="348" y="-175.5" font-family="Helvetica,sans-Serif" font-size="10.00">Transform/Vector2i.hpp</text>
</a>
</g>
</g>
<!-- Node1&#45;&gt;Node9 -->
<g id="edge43" class="edge">
<title>Node1&#45;&gt;Node9</title>
<path fill="none" stroke="midnightblue" d="M531.68,-404.55C467.2,-397.28 380.99,-383.14 309,-356 264.21,-339.11 240.45,-341.73 217,-300 212.65,-292.25 213.08,-287.98 217,-280 217.76,-278.45 291.58,-222.02 328.06,-194.2"/>
<polygon fill="midnightblue" stroke="midnightblue" points="330.63,-196.64 336.46,-187.79 326.38,-191.07 330.63,-196.64"/>
</g>
<!-- Node23 -->
<g id="node23" class="node">
<title>Node23</title>
<g id="a_node23"><a xlink:href="a00092.html" target="_top" xlink:title=" ">
<polygon fill="white" stroke="black" points="508.5,-168.5 508.5,-187.5 585.5,-187.5 585.5,-168.5 508.5,-168.5"/>
<text text-anchor="middle" x="547" y="-175.5" font-family="Helvetica,sans-Serif" font-size="10.00">Vector3f.hpp</text>
</a>
</g>
</g>
<!-- Node1&#45;&gt;Node23 -->
<g id="edge44" class="edge">
<title>Node1&#45;&gt;Node23</title>
<path fill="none" stroke="midnightblue" d="M632.85,-392.49C642.46,-356.39 657.55,-277.96 626,-224 617.22,-208.99 601.38,-198.57 586.17,-191.56"/>
<polygon fill="midnightblue" stroke="midnightblue" points="587.42,-188.29 576.85,-187.63 584.7,-194.74 587.42,-188.29"/>
</g>
<!-- Node24 -->
<g id="node24" class="node">
<title>Node24</title>
<g id="a_node24"><a xlink:href="a00131.html" target="_top" xlink:title=" ">
<polygon fill="white" stroke="black" points="722.5,-336.5 722.5,-355.5 817.5,-355.5 817.5,-336.5 722.5,-336.5"/>
<text text-anchor="middle" x="770" y="-343.5" font-family="Helvetica,sans-Serif" font-size="10.00">IRayIterator.hpp</text>
</a>
</g>
</g>
<!-- Node1&#45;&gt;Node24 -->
<g id="edge35" class="edge">
<title>Node1&#45;&gt;Node24</title>
<path fill="none" stroke="midnightblue" d="M669.9,-392.5C693.2,-381.91 721.34,-369.12 741.85,-359.8"/>
<polygon fill="midnightblue" stroke="midnightblue" points="743.31,-362.98 750.96,-355.65 740.41,-356.6 743.31,-362.98"/>
</g>
<!-- Node25 -->
<g id="node25" class="node">
<title>Node25</title>
<g id="a_node25"><a xlink:href="a00137.html" target="_top" xlink:title=" ">
<polygon fill="white" stroke="black" points="903.5,-280.5 903.5,-299.5 958.5,-299.5 958.5,-280.5 903.5,-280.5"/>
<text text-anchor="middle" x="931" y="-287.5" font-family="Helvetica,sans-Serif" font-size="10.00">Ray.hpp</text>
</a>
</g>
</g>
<!-- Node1&#45;&gt;Node25 -->
<g id="edge42" class="edge">
<title>Node1&#45;&gt;Node25</title>
<path fill="none" stroke="midnightblue" d="M722.18,-397.2C762.66,-388.6 809.53,-375.49 849,-356 874.8,-343.26 900.06,-321.4 915.58,-306.59"/>
<polygon fill="midnightblue" stroke="midnightblue" points="918.05,-309.06 922.76,-299.57 913.16,-304.06 918.05,-309.06"/>
</g>
<!-- Node8 -->
<g id="node8" class="node">
<title>Node8</title>
<g id="a_node8"><a xlink:title=" ">
<polygon fill="white" stroke="#bfbfbf" points="462,-280.5 462,-299.5 494,-299.5 494,-280.5 462,-280.5"/>
<text text-anchor="middle" x="478" y="-287.5" font-family="Helvetica,sans-Serif" font-size="10.00">list</text>
</a>
</g>
</g>
<!-- Node7&#45;&gt;Node8 -->
<g id="edge7" class="edge">
<title>Node7&#45;&gt;Node8</title>
<path fill="none" stroke="midnightblue" d="M377.01,-336.44C397.39,-327.27 429.86,-312.66 452.46,-302.5"/>
<polygon fill="midnightblue" stroke="midnightblue" points="454.09,-305.6 461.77,-298.3 451.21,-299.22 454.09,-305.6"/>
</g>
<!-- Node7&#45;&gt;Node9 -->
<g id="edge8" class="edge">
<title>Node7&#45;&gt;Node9</title>
<path fill="none" stroke="midnightblue" d="M353.12,-336.37C348.44,-327.55 341.69,-313.3 339,-300 331.75,-264.18 338.46,-221.32 343.54,-197.43"/>
<polygon fill="midnightblue" stroke="midnightblue" points="346.97,-198.14 345.77,-187.61 340.14,-196.59 346.97,-198.14"/>
</g>
<!-- Node14 -->
<g id="node14" class="node">
<title>Node14</title>
<g id="a_node14"><a xlink:href="a00200.html" target="_top" xlink:title=" ">
<polygon fill="white" stroke="black" points="70,-224.5 70,-243.5 168,-243.5 168,-224.5 70,-224.5"/>
<text text-anchor="middle" x="119" y="-231.5" font-family="Helvetica,sans-Serif" font-size="10.00">IDisplayable.hpp</text>
</a>
</g>
</g>
<!-- Node7&#45;&gt;Node14 -->
<g id="edge15" class="edge">
<title>Node7&#45;&gt;Node14</title>
<path fill="none" stroke="midnightblue" d="M318.43,-337.17C287.13,-330.05 242.86,-317.9 207,-300 180.37,-286.71 153.37,-265.34 136.43,-250.76"/>
<polygon fill="midnightblue" stroke="midnightblue" points="138.37,-247.8 128.55,-243.83 133.75,-253.06 138.37,-247.8"/>
</g>
<!-- Node16 -->
<g id="node16" class="node">
<title>Node16</title>
<g id="a_node16"><a xlink:href="a00125.html" target="_top" xlink:title=" ">
<polygon fill="white" stroke="black" points="186,-224.5 186,-243.5 254,-243.5 254,-224.5 186,-224.5"/>
<text text-anchor="middle" x="220" y="-231.5" font-family="Helvetica,sans-Serif" font-size="10.00">Image.hpp</text>
</a>
</g>
</g>
<!-- Node7&#45;&gt;Node16 -->
<g id="edge18" class="edge">
<title>Node7&#45;&gt;Node16</title>
<path fill="none" stroke="midnightblue" d="M318.18,-344.34C285.13,-341.42 239.96,-331.43 217,-300 207.23,-286.63 209.63,-267.25 213.47,-253.13"/>
<polygon fill="midnightblue" stroke="midnightblue" points="216.83,-254.14 216.51,-243.55 210.15,-252.02 216.83,-254.14"/>
</g>
<!-- Node19 -->
<g id="node19" class="node">
<title>Node19</title>
<g id="a_node19"><a xlink:href="a00116.html" target="_top" xlink:title=" ">
<polygon fill="white" stroke="black" points="226.5,-280.5 226.5,-299.5 291.5,-299.5 291.5,-280.5 226.5,-280.5"/>
<text text-anchor="middle" x="259" y="-287.5" font-family="Helvetica,sans-Serif" font-size="10.00">IFilter.hpp</text>
</a>
</g>
</g>
<!-- Node7&#45;&gt;Node19 -->
<g id="edge27" class="edge">
<title>Node7&#45;&gt;Node19</title>
<path fill="none" stroke="midnightblue" d="M342.09,-336.32C326.36,-327.74 302.06,-314.49 283.79,-304.52"/>
<polygon fill="midnightblue" stroke="midnightblue" points="285.32,-301.37 274.87,-299.65 281.97,-307.52 285.32,-301.37"/>
</g>
<!-- Node20 -->
<g id="node20" class="node">
<title>Node20</title>
<g id="a_node20"><a xlink:href="a00203.html" target="_top" xlink:title=" ">
<polygon fill="white" stroke="black" points="348.5,-280.5 348.5,-299.5 443.5,-299.5 443.5,-280.5 348.5,-280.5"/>
<text text-anchor="middle" x="396" y="-287.5" font-family="Helvetica,sans-Serif" font-size="10.00">ISceneState.hpp</text>
</a>
</g>
</g>
<!-- Node7&#45;&gt;Node20 -->
<g id="edge29" class="edge">
<title>Node7&#45;&gt;Node20</title>
<path fill="none" stroke="midnightblue" d="M364.27,-336.08C369.64,-328.46 377.52,-317.26 384.08,-307.94"/>
<polygon fill="midnightblue" stroke="midnightblue" points="386.95,-309.94 389.84,-299.75 381.22,-305.91 386.95,-309.94"/>
</g>
<!-- Node21 -->
<g id="node21" class="node">
<title>Node21</title>
<g id="a_node21"><a xlink:href="a00071.html" target="_top" xlink:title=" ">
<polygon fill="white" stroke="black" points="512,-280.5 512,-299.5 580,-299.5 580,-280.5 512,-280.5"/>
<text text-anchor="middle" x="546" y="-287.5" font-family="Helvetica,sans-Serif" font-size="10.00">IEntity.hpp</text>
</a>
</g>
</g>
<!-- Node7&#45;&gt;Node21 -->
<g id="edge30" class="edge">
<title>Node7&#45;&gt;Node21</title>
<path fill="none" stroke="midnightblue" d="M387.79,-336.44C419.83,-327.24 470.93,-312.56 506.35,-302.39"/>
<polygon fill="midnightblue" stroke="midnightblue" points="507.71,-305.64 516.35,-299.52 505.77,-298.91 507.71,-305.64"/>
</g>
<!-- Node10 -->
<g id="node10" class="node">
<title>Node10</title>
<g id="a_node10"><a xlink:title=" ">
<polygon fill="white" stroke="#bfbfbf" points="288.5,-112.5 288.5,-131.5 345.5,-131.5 345.5,-112.5 288.5,-112.5"/>
<text text-anchor="middle" x="317" y="-119.5" font-family="Helvetica,sans-Serif" font-size="10.00">ostream</text>
</a>
</g>
</g>
<!-- Node9&#45;&gt;Node10 -->
<g id="edge9" class="edge">
<title>Node9&#45;&gt;Node10</title>
<path fill="none" stroke="midnightblue" d="M342.88,-168.08C338.59,-160.61 332.34,-149.72 327.06,-140.52"/>
<polygon fill="midnightblue" stroke="midnightblue" points="330.04,-138.68 322.02,-131.75 323.97,-142.17 330.04,-138.68"/>
</g>
<!-- Node11 -->
<g id="node11" class="node">
<title>Node11</title>
<g id="a_node11"><a xlink:href="a00197.html" target="_top" xlink:title=" ">
<polygon fill="white" stroke="black" points="363.5,-112.5 363.5,-131.5 434.5,-131.5 434.5,-112.5 363.5,-112.5"/>
<text text-anchor="middle" x="399" y="-119.5" font-family="Helvetica,sans-Serif" font-size="10.00">IConfig.hpp</text>
</a>
</g>
</g>
<!-- Node9&#45;&gt;Node11 -->
<g id="edge10" class="edge">
<title>Node9&#45;&gt;Node11</title>
<path fill="none" stroke="midnightblue" d="M356.42,-168.08C363.85,-160.22 374.85,-148.57 383.81,-139.08"/>
<polygon fill="midnightblue" stroke="midnightblue" points="386.41,-141.42 390.74,-131.75 381.32,-136.62 386.41,-141.42"/>
</g>
<!-- Node11&#45;&gt;Node5 -->
<g id="edge11" class="edge">
<title>Node11&#45;&gt;Node5</title>
<path fill="none" stroke="midnightblue" d="M388.4,-112.48C378.24,-103.97 362.89,-90.14 352,-76 340.71,-61.34 330.77,-42.7 324.21,-29.15"/>
<polygon fill="midnightblue" stroke="midnightblue" points="327.3,-27.49 319.89,-19.92 320.96,-30.46 327.3,-27.49"/>
</g>
<!-- Node12 -->
<g id="node12" class="node">
<title>Node12</title>
<g id="a_node12"><a xlink:href="a00206.html" target="_top" xlink:title=" ">
<polygon fill="white" stroke="black" points="361.5,-56.5 361.5,-75.5 436.5,-75.5 436.5,-56.5 361.5,-56.5"/>
<text text-anchor="middle" x="399" y="-63.5" font-family="Helvetica,sans-Serif" font-size="10.00">ISetting.hpp</text>
</a>
</g>
</g>
<!-- Node11&#45;&gt;Node12 -->
<g id="edge12" class="edge">
<title>Node11&#45;&gt;Node12</title>
<path fill="none" stroke="midnightblue" d="M399,-112.08C399,-105.01 399,-94.86 399,-85.99"/>
<polygon fill="midnightblue" stroke="midnightblue" points="402.5,-85.75 399,-75.75 395.5,-85.75 402.5,-85.75"/>
</g>
<!-- Node12&#45;&gt;Node5 -->
<g id="edge13" class="edge">
<title>Node12&#45;&gt;Node5</title>
<path fill="none" stroke="midnightblue" d="M385.66,-56.32C372.84,-47.98 353.22,-35.21 338.06,-25.35"/>
<polygon fill="midnightblue" stroke="midnightblue" points="339.59,-22.17 329.3,-19.65 335.78,-28.04 339.59,-22.17"/>
</g>
<!-- Node13 -->
<g id="node13" class="node">
<title>Node13</title>
<g id="a_node13"><a xlink:title=" ">
<polygon fill="white" stroke="#bfbfbf" points="363.5,-0.5 363.5,-19.5 446.5,-19.5 446.5,-0.5 363.5,-0.5"/>
<text text-anchor="middle" x="405" y="-7.5" font-family="Helvetica,sans-Serif" font-size="10.00">libconfig.h++</text>
</a>
</g>
</g>
<!-- Node12&#45;&gt;Node13 -->
<g id="edge14" class="edge">
<title>Node12&#45;&gt;Node13</title>
<path fill="none" stroke="midnightblue" d="M399.99,-56.08C400.79,-48.93 401.93,-38.64 402.92,-29.69"/>
<polygon fill="midnightblue" stroke="midnightblue" points="406.4,-30.08 404.03,-19.75 399.44,-29.3 406.4,-30.08"/>
</g>
<!-- Node14&#45;&gt;Node5 -->
<g id="edge16" class="edge">
<title>Node14&#45;&gt;Node5</title>
<path fill="none" stroke="midnightblue" d="M99.5,-224.35C76.73,-212.93 43.76,-191.51 57,-168 104.32,-83.98 216.76,-39.77 276.73,-21.45"/>
<polygon fill="midnightblue" stroke="midnightblue" points="278,-24.72 286.59,-18.53 276.01,-18.01 278,-24.72"/>
</g>
<!-- Node15 -->
<g id="node15" class="node">
<title>Node15</title>
<g id="a_node15"><a xlink:title=" ">
<polygon fill="white" stroke="#bfbfbf" points="137.5,-168.5 137.5,-187.5 184.5,-187.5 184.5,-168.5 137.5,-168.5"/>
<text text-anchor="middle" x="161" y="-175.5" font-family="Helvetica,sans-Serif" font-size="10.00">vector</text>
</a>
</g>
</g>
<!-- Node14&#45;&gt;Node15 -->
<g id="edge17" class="edge">
<title>Node14&#45;&gt;Node15</title>
<path fill="none" stroke="midnightblue" d="M125.94,-224.08C131.93,-216.38 140.75,-205.03 148.05,-195.65"/>
<polygon fill="midnightblue" stroke="midnightblue" points="150.82,-197.79 154.19,-187.75 145.29,-193.5 150.82,-197.79"/>
</g>
<!-- Node16&#45;&gt;Node3 -->
<g id="edge19" class="edge">
<title>Node16&#45;&gt;Node3</title>
<path fill="none" stroke="midnightblue" d="M199.88,-224.44C178.98,-215.56 146.07,-201.56 122.28,-191.45"/>
<polygon fill="midnightblue" stroke="midnightblue" points="123.6,-188.21 113.03,-187.52 120.86,-194.65 123.6,-188.21"/>
</g>
<!-- Node16&#45;&gt;Node6 -->
<g id="edge20" class="edge">
<title>Node16&#45;&gt;Node6</title>
<path fill="none" stroke="midnightblue" d="M254.27,-225.91C292.43,-217.9 356.14,-204.13 420.71,-187.96"/>
<polygon fill="midnightblue" stroke="midnightblue" points="421.82,-191.29 430.66,-185.45 420.11,-184.5 421.82,-191.29"/>
</g>
<!-- Node16&#45;&gt;Node9 -->
<g id="edge26" class="edge">
<title>Node16&#45;&gt;Node9</title>
<path fill="none" stroke="midnightblue" d="M240.28,-224.44C261.35,-215.56 294.52,-201.56 318.49,-191.45"/>
<polygon fill="midnightblue" stroke="midnightblue" points="319.96,-194.63 327.81,-187.52 317.24,-188.18 319.96,-194.63"/>
</g>
<!-- Node16&#45;&gt;Node15 -->
<g id="edge21" class="edge">
<title>Node16&#45;&gt;Node15</title>
<path fill="none" stroke="midnightblue" d="M210.52,-224.32C201.8,-216.34 188.66,-204.31 178.1,-194.65"/>
<polygon fill="midnightblue" stroke="midnightblue" points="180.39,-192 170.65,-187.83 175.67,-197.17 180.39,-192"/>
</g>
<!-- Node17 -->
<g id="node17" class="node">
<title>Node17</title>
<g id="a_node17"><a xlink:href="a00122.html" target="_top" xlink:title=" ">
<polygon fill="white" stroke="black" points="203,-168.5 203,-187.5 265,-187.5 265,-168.5 203,-168.5"/>
<text text-anchor="middle" x="234" y="-175.5" font-family="Helvetica,sans-Serif" font-size="10.00">Color.hpp</text>
</a>
</g>
</g>
<!-- Node16&#45;&gt;Node17 -->
<g id="edge22" class="edge">
<title>Node16&#45;&gt;Node17</title>
<path fill="none" stroke="midnightblue" d="M222.31,-224.08C224.17,-216.93 226.84,-206.64 229.15,-197.69"/>
<polygon fill="midnightblue" stroke="midnightblue" points="232.61,-198.31 231.73,-187.75 225.83,-196.55 232.61,-198.31"/>
</g>
<!-- Node17&#45;&gt;Node10 -->
<g id="edge24" class="edge">
<title>Node17&#45;&gt;Node10</title>
<path fill="none" stroke="midnightblue" d="M247.34,-168.32C260.16,-159.98 279.78,-147.21 294.94,-137.35"/>
<polygon fill="midnightblue" stroke="midnightblue" points="297.22,-140.04 303.7,-131.65 293.41,-134.17 297.22,-140.04"/>
</g>
<!-- Node17&#45;&gt;Node12 -->
<g id="edge25" class="edge">
<title>Node17&#45;&gt;Node12</title>
<path fill="none" stroke="midnightblue" d="M237.95,-168.15C244.55,-154.31 259.08,-127.52 279,-112 300.19,-95.48 328.09,-84.54 351.65,-77.58"/>
<polygon fill="midnightblue" stroke="midnightblue" points="352.77,-80.9 361.45,-74.84 350.88,-74.16 352.77,-80.9"/>
</g>
<!-- Node18 -->
<g id="node18" class="node">
<title>Node18</title>
<g id="a_node18"><a xlink:title=" ">
<polygon fill="white" stroke="#bfbfbf" points="184,-112.5 184,-131.5 232,-131.5 232,-112.5 184,-112.5"/>
<text text-anchor="middle" x="208" y="-119.5" font-family="Helvetica,sans-Serif" font-size="10.00">mutex</text>
</a>
</g>
</g>
<!-- Node17&#45;&gt;Node18 -->
<g id="edge23" class="edge">
<title>Node17&#45;&gt;Node18</title>
<path fill="none" stroke="midnightblue" d="M229.71,-168.08C226.15,-160.69 220.98,-149.95 216.58,-140.81"/>
<polygon fill="midnightblue" stroke="midnightblue" points="219.71,-139.24 212.21,-131.75 213.4,-142.28 219.71,-139.24"/>
</g>
<!-- Node19&#45;&gt;Node16 -->
<g id="edge28" class="edge">
<title>Node19&#45;&gt;Node16</title>
<path fill="none" stroke="midnightblue" d="M252.56,-280.08C247.05,-272.46 238.97,-261.26 232.24,-251.94"/>
<polygon fill="midnightblue" stroke="midnightblue" points="235.01,-249.81 226.32,-243.75 229.34,-253.91 235.01,-249.81"/>
</g>
<!-- Node22 -->
<g id="node22" class="node">
<title>Node22</title>
<g id="a_node22"><a xlink:href="a00083.html" target="_top" xlink:title=" ">
<polygon fill="white" stroke="black" points="476.5,-224.5 476.5,-243.5 617.5,-243.5 617.5,-224.5 476.5,-224.5"/>
<text text-anchor="middle" x="547" y="-231.5" font-family="Helvetica,sans-Serif" font-size="10.00">Transform/ITransform.hpp</text>
</a>
</g>
</g>
<!-- Node21&#45;&gt;Node22 -->
<g id="edge31" class="edge">
<title>Node21&#45;&gt;Node22</title>
<path fill="none" stroke="midnightblue" d="M546.17,-280.08C546.3,-273.01 546.48,-262.86 546.65,-253.99"/>
<polygon fill="midnightblue" stroke="midnightblue" points="550.15,-253.81 546.84,-243.75 543.15,-253.68 550.15,-253.81"/>
</g>
<!-- Node22&#45;&gt;Node23 -->
<g id="edge32" class="edge">
<title>Node22&#45;&gt;Node23</title>
<path fill="none" stroke="midnightblue" d="M547,-224.08C547,-217.01 547,-206.86 547,-197.99"/>
<polygon fill="midnightblue" stroke="midnightblue" points="550.5,-197.75 547,-187.75 543.5,-197.75 550.5,-197.75"/>
</g>
<!-- Node23&#45;&gt;Node10 -->
<g id="edge33" class="edge">
<title>Node23&#45;&gt;Node10</title>
<path fill="none" stroke="midnightblue" d="M509.98,-168.48C473.15,-159.98 414.79,-146.44 355.57,-132.36"/>
<polygon fill="midnightblue" stroke="midnightblue" points="356.22,-128.92 345.68,-130 354.59,-135.72 356.22,-128.92"/>
</g>
<!-- Node23&#45;&gt;Node12 -->
<g id="edge34" class="edge">
<title>Node23&#45;&gt;Node12</title>
<path fill="none" stroke="midnightblue" d="M535.39,-168.37C510.21,-149.65 450.33,-105.15 418.96,-81.83"/>
<polygon fill="midnightblue" stroke="midnightblue" points="420.67,-78.75 410.56,-75.59 416.5,-84.37 420.67,-78.75"/>
</g>
<!-- Node24&#45;&gt;Node2 -->
<g id="edge36" class="edge">
<title>Node24&#45;&gt;Node2</title>
<path fill="none" stroke="midnightblue" d="M759.72,-336.32C750.16,-328.26 735.72,-316.08 724.22,-306.37"/>
<polygon fill="midnightblue" stroke="midnightblue" points="726.37,-303.61 716.47,-299.83 721.86,-308.96 726.37,-303.61"/>
</g>
<!-- Node24&#45;&gt;Node4 -->
<g id="edge37" class="edge">
<title>Node24&#45;&gt;Node4</title>
<path fill="none" stroke="midnightblue" d="M784.3,-336.32C798.18,-327.9 819.49,-314.97 835.8,-305.07"/>
<polygon fill="midnightblue" stroke="midnightblue" points="838,-307.83 844.74,-299.65 834.37,-301.85 838,-307.83"/>
</g>
<!-- Node24&#45;&gt;Node5 -->
<g id="edge38" class="edge">
<title>Node24&#45;&gt;Node5</title>
<path fill="none" stroke="midnightblue" d="M774.59,-336.44C783.87,-318.29 804,-274.38 804,-235 804,-235 804,-235 804,-121 804,-21.41 473.42,-41.75 354.85,-19.93"/>
<polygon fill="midnightblue" stroke="midnightblue" points="355.54,-16.5 345.04,-17.91 354.13,-23.36 355.54,-16.5"/>
</g>
<!-- Node24&#45;&gt;Node6 -->
<g id="edge39" class="edge">
<title>Node24&#45;&gt;Node6</title>
<path fill="none" stroke="midnightblue" d="M769.08,-336.33C767.22,-322.74 761.83,-296.28 747,-280 710.88,-240.34 553.57,-201.37 485.07,-185.93"/>
<polygon fill="midnightblue" stroke="midnightblue" points="485.77,-182.51 475.25,-183.75 484.25,-189.34 485.77,-182.51"/>
</g>
<!-- Node24&#45;&gt;Node25 -->
<g id="edge40" class="edge">
<title>Node24&#45;&gt;Node25</title>
<path fill="none" stroke="midnightblue" d="M795.51,-336.44C822.6,-327.36 865.59,-312.94 895.87,-302.78"/>
<polygon fill="midnightblue" stroke="midnightblue" points="897.24,-306.01 905.61,-299.52 895.01,-299.38 897.24,-306.01"/>
</g>
<!-- Node25&#45;&gt;Node23 -->
<g id="edge41" class="edge">
<title>Node25&#45;&gt;Node23</title>
<path fill="none" stroke="midnightblue" d="M908.55,-280.42C873.39,-267.19 803.04,-241.49 742,-224 692.69,-209.87 635.39,-197.07 595.72,-188.77"/>
<polygon fill="midnightblue" stroke="midnightblue" points="596.29,-185.31 585.78,-186.7 594.86,-192.16 596.29,-185.31"/>
</g>
</g>
</svg>
