<?xml version="1.0" encoding="UTF-8" standalone="no"?>
<!DOCTYPE svg PUBLIC "-//W3C//DTD SVG 1.1//EN"
 "http://www.w3.org/Graphics/SVG/1.1/DTD/svg11.dtd">
<!-- Generated by graphviz version 2.43.0 (0)
 -->
<!-- Title: /home/runner/work/Raytracer/Raytracer/PluginsExt/BlackAndWhite/BlackAndWhiteCreator.hpp Pages: 1 -->
<svg width="651pt" height="442pt"
 viewBox="0.00 0.00 651.00 442.00" xmlns="http://www.w3.org/2000/svg" xmlns:xlink="http://www.w3.org/1999/xlink">
<g id="graph0" class="graph" transform="scale(1 1) rotate(0) translate(4 438)">
<title>/home/runner/work/Raytracer/Raytracer/PluginsExt/BlackAndWhite/BlackAndWhiteCreator.hpp</title>
<polygon fill="white" stroke="transparent" points="-4,4 -4,-438 647,-438 647,4 -4,4"/>
<!-- Node1 -->
<g id="node1" class="node">
<title>Node1</title>
<g id="a_node1"><a xlink:title=" ">
<polygon fill="#bfbfbf" stroke="black" points="314,-392.5 314,-433.5 512,-433.5 512,-392.5 314,-392.5"/>
<text text-anchor="start" x="322" y="-421.5" font-family="Helvetica,sans-Serif" font-size="10.00">/home/runner/work/Raytracer</text>
<text text-anchor="start" x="322" y="-410.5" font-family="Helvetica,sans-Serif" font-size="10.00">/Raytracer/PluginsExt/BlackAndWhite</text>
<text text-anchor="middle" x="413" y="-399.5" font-family="Helvetica,sans-Serif" font-size="10.00">/BlackAndWhiteCreator.hpp</text>
</a>
</g>
</g>
<!-- Node2 -->
<g id="node2" class="node">
<title>Node2</title>
<g id="a_node2"><a xlink:title=" ">
<polygon fill="white" stroke="#bfbfbf" points="114.5,-168.5 114.5,-187.5 161.5,-187.5 161.5,-168.5 114.5,-168.5"/>
<text text-anchor="middle" x="138" y="-175.5" font-family="Helvetica,sans-Serif" font-size="10.00">vector</text>
</a>
</g>
</g>
<!-- Node1&#45;&gt;Node2 -->
<g id="edge1" class="edge">
<title>Node1&#45;&gt;Node2</title>
<path fill="none" stroke="midnightblue" d="M313.79,-396.39C257.19,-381.79 190.96,-353.72 157,-300 137,-268.36 135.52,-223.02 136.55,-197.78"/>
<polygon fill="midnightblue" stroke="midnightblue" points="140.05,-197.91 137.14,-187.72 133.06,-197.5 140.05,-197.91"/>
</g>
<!-- Node3 -->
<g id="node3" class="node">
<title>Node3</title>
<g id="a_node3"><a xlink:title=" ">
<polygon fill="white" stroke="#bfbfbf" points="518,-0.5 518,-19.5 576,-19.5 576,-0.5 518,-0.5"/>
<text text-anchor="middle" x="547" y="-7.5" font-family="Helvetica,sans-Serif" font-size="10.00">memory</text>
</a>
</g>
</g>
<!-- Node1&#45;&gt;Node3 -->
<g id="edge2" class="edge">
<title>Node1&#45;&gt;Node3</title>
<path fill="none" stroke="midnightblue" d="M512.21,-398.81C574.46,-384.32 643,-354.05 643,-291 643,-291 643,-291 643,-121 643,-77.54 599.94,-42.96 571.5,-24.85"/>
<polygon fill="midnightblue" stroke="midnightblue" points="573.21,-21.79 562.85,-19.56 569.56,-27.77 573.21,-21.79"/>
</g>
<!-- Node4 -->
<g id="node4" class="node">
<title>Node4</title>
<g id="a_node4"><a xlink:href="a00155.html" target="_top" xlink:title=" ">
<polygon fill="white" stroke="black" points="382.5,-280.5 382.5,-299.5 447.5,-299.5 447.5,-280.5 382.5,-280.5"/>
<text text-anchor="middle" x="415" y="-287.5" font-family="Helvetica,sans-Serif" font-size="10.00">IFilter.hpp</text>
</a>
</g>
</g>
<!-- Node1&#45;&gt;Node4 -->
<g id="edge3" class="edge">
<title>Node1&#45;&gt;Node4</title>
<path fill="none" stroke="midnightblue" d="M413.33,-392.29C413.7,-369.48 414.32,-332.19 414.69,-309.78"/>
<polygon fill="midnightblue" stroke="midnightblue" points="418.19,-309.63 414.86,-299.57 411.19,-309.52 418.19,-309.63"/>
</g>
<!-- Node12 -->
<g id="node12" class="node">
<title>Node12</title>
<g id="a_node12"><a xlink:href="a00245.html" target="_top" xlink:title=" ">
<polygon fill="white" stroke="black" points="348.5,-56.5 348.5,-75.5 423.5,-75.5 423.5,-56.5 348.5,-56.5"/>
<text text-anchor="middle" x="386" y="-63.5" font-family="Helvetica,sans-Serif" font-size="10.00">ISetting.hpp</text>
</a>
</g>
</g>
<!-- Node1&#45;&gt;Node12 -->
<g id="edge29" class="edge">
<title>Node1&#45;&gt;Node12</title>
<path fill="none" stroke="midnightblue" d="M313.81,-402.81C191.62,-388.68 0,-356.14 0,-291 0,-291 0,-291 0,-177 0,-143.54 10.1,-130.48 38,-112 86.26,-80.02 254.7,-70.72 338.25,-68.05"/>
<polygon fill="midnightblue" stroke="midnightblue" points="338.36,-71.55 348.25,-67.75 338.15,-64.56 338.36,-71.55"/>
</g>
<!-- Node16 -->
<g id="node16" class="node">
<title>Node16</title>
<g id="a_node16"><a xlink:href="a00209.html" target="_top" xlink:title=" ">
<polygon fill="white" stroke="black" points="479.5,-336.5 479.5,-355.5 580.5,-355.5 580.5,-336.5 479.5,-336.5"/>
<text text-anchor="middle" x="530" y="-343.5" font-family="Helvetica,sans-Serif" font-size="10.00">IFilterCreator.hpp</text>
</a>
</g>
</g>
<!-- Node1&#45;&gt;Node16 -->
<g id="edge21" class="edge">
<title>Node1&#45;&gt;Node16</title>
<path fill="none" stroke="midnightblue" d="M448.1,-392.5C466.56,-382.24 488.73,-369.93 505.35,-360.69"/>
<polygon fill="midnightblue" stroke="midnightblue" points="507.38,-363.57 514.43,-355.65 503.98,-357.45 507.38,-363.57"/>
</g>
<!-- Node17 -->
<g id="node17" class="node">
<title>Node17</title>
<g id="a_node17"><a xlink:href="a00158.html" target="_top" xlink:title=" ">
<polygon fill="white" stroke="black" points="465.5,-280.5 465.5,-299.5 538.5,-299.5 538.5,-280.5 465.5,-280.5"/>
<text text-anchor="middle" x="502" y="-287.5" font-family="Helvetica,sans-Serif" font-size="10.00">ILogger.hpp</text>
</a>
</g>
</g>
<!-- Node1&#45;&gt;Node17 -->
<g id="edge28" class="edge">
<title>Node1&#45;&gt;Node17</title>
<path fill="none" stroke="midnightblue" d="M427.5,-392.29C444.81,-368.75 473.48,-329.78 489.74,-307.67"/>
<polygon fill="midnightblue" stroke="midnightblue" points="492.59,-309.7 495.69,-299.57 486.95,-305.56 492.59,-309.7"/>
</g>
<!-- Node19 -->
<g id="node19" class="node">
<title>Node19</title>
<g id="a_node19"><a xlink:href="a00275.html" target="_top" xlink:title=" ">
<polygon fill="white" stroke="black" points="248,-336.5 248,-355.5 384,-355.5 384,-336.5 248,-336.5"/>
<text text-anchor="middle" x="316" y="-343.5" font-family="Helvetica,sans-Serif" font-size="10.00">BlackAndWhiteFilter.hpp</text>
</a>
</g>
</g>
<!-- Node1&#45;&gt;Node19 -->
<g id="edge30" class="edge">
<title>Node1&#45;&gt;Node19</title>
<path fill="none" stroke="midnightblue" d="M383.9,-392.5C369.02,-382.53 351.24,-370.61 337.6,-361.48"/>
<polygon fill="midnightblue" stroke="midnightblue" points="339.17,-358.31 328.91,-355.65 335.27,-364.13 339.17,-358.31"/>
</g>
<!-- Node5 -->
<g id="node5" class="node">
<title>Node5</title>
<g id="a_node5"><a xlink:href="a00164.html" target="_top" xlink:title=" ">
<polygon fill="white" stroke="black" points="306,-224.5 306,-243.5 374,-243.5 374,-224.5 306,-224.5"/>
<text text-anchor="middle" x="340" y="-231.5" font-family="Helvetica,sans-Serif" font-size="10.00">Image.hpp</text>
</a>
</g>
</g>
<!-- Node4&#45;&gt;Node5 -->
<g id="edge4" class="edge">
<title>Node4&#45;&gt;Node5</title>
<path fill="none" stroke="midnightblue" d="M402.95,-280.32C391.54,-272.11 374.17,-259.6 360.57,-249.81"/>
<polygon fill="midnightblue" stroke="midnightblue" points="362.43,-246.84 352.27,-243.83 358.34,-252.52 362.43,-246.84"/>
</g>
<!-- Node5&#45;&gt;Node2 -->
<g id="edge7" class="edge">
<title>Node5&#45;&gt;Node2</title>
<path fill="none" stroke="midnightblue" d="M307.59,-224.43C275.55,-215.95 224.87,-202.49 171.74,-188.19"/>
<polygon fill="midnightblue" stroke="midnightblue" points="172.35,-184.73 161.79,-185.51 170.53,-191.49 172.35,-184.73"/>
</g>
<!-- Node6 -->
<g id="node6" class="node">
<title>Node6</title>
<g id="a_node6"><a xlink:title=" ">
<polygon fill="white" stroke="#bfbfbf" points="260.5,-168.5 260.5,-187.5 313.5,-187.5 313.5,-168.5 260.5,-168.5"/>
<text text-anchor="middle" x="287" y="-175.5" font-family="Helvetica,sans-Serif" font-size="10.00">cstddef</text>
</a>
</g>
</g>
<!-- Node5&#45;&gt;Node6 -->
<g id="edge5" class="edge">
<title>Node5&#45;&gt;Node6</title>
<path fill="none" stroke="midnightblue" d="M331.25,-224.08C323.53,-216.22 312.1,-204.57 302.78,-195.08"/>
<polygon fill="midnightblue" stroke="midnightblue" points="305.09,-192.44 295.59,-187.75 300.1,-197.34 305.09,-192.44"/>
</g>
<!-- Node7 -->
<g id="node7" class="node">
<title>Node7</title>
<g id="a_node7"><a xlink:title=" ">
<polygon fill="white" stroke="#bfbfbf" points="491,-112.5 491,-131.5 535,-131.5 535,-112.5 491,-112.5"/>
<text text-anchor="middle" x="513" y="-119.5" font-family="Helvetica,sans-Serif" font-size="10.00">string</text>
</a>
</g>
</g>
<!-- Node5&#45;&gt;Node7 -->
<g id="edge6" class="edge">
<title>Node5&#45;&gt;Node7</title>
<path fill="none" stroke="midnightblue" d="M355.23,-224.5C370.89,-215.66 395.91,-201.28 417,-188 443.47,-171.33 473.17,-150.95 492.44,-137.5"/>
<polygon fill="midnightblue" stroke="midnightblue" points="494.57,-140.29 500.75,-131.68 490.55,-134.55 494.57,-140.29"/>
</g>
<!-- Node8 -->
<g id="node8" class="node">
<title>Node8</title>
<g id="a_node8"><a xlink:href="a00161.html" target="_top" xlink:title=" ">
<polygon fill="white" stroke="black" points="180,-168.5 180,-187.5 242,-187.5 242,-168.5 180,-168.5"/>
<text text-anchor="middle" x="211" y="-175.5" font-family="Helvetica,sans-Serif" font-size="10.00">Color.hpp</text>
</a>
</g>
</g>
<!-- Node5&#45;&gt;Node8 -->
<g id="edge8" class="edge">
<title>Node5&#45;&gt;Node8</title>
<path fill="none" stroke="midnightblue" d="M319.56,-224.44C298.33,-215.56 264.9,-201.56 240.75,-191.45"/>
<polygon fill="midnightblue" stroke="midnightblue" points="241.92,-188.15 231.34,-187.52 239.22,-194.61 241.92,-188.15"/>
</g>
<!-- Node14 -->
<g id="node14" class="node">
<title>Node14</title>
<g id="a_node14"><a xlink:href="a00128.html" target="_top" xlink:title=" ">
<polygon fill="white" stroke="black" points="331.5,-168.5 331.5,-187.5 408.5,-187.5 408.5,-168.5 331.5,-168.5"/>
<text text-anchor="middle" x="370" y="-175.5" font-family="Helvetica,sans-Serif" font-size="10.00">Vector2i.hpp</text>
</a>
</g>
</g>
<!-- Node5&#45;&gt;Node14 -->
<g id="edge16" class="edge">
<title>Node5&#45;&gt;Node14</title>
<path fill="none" stroke="midnightblue" d="M344.95,-224.08C349.1,-216.61 355.15,-205.72 360.27,-196.52"/>
<polygon fill="midnightblue" stroke="midnightblue" points="363.34,-198.19 365.14,-187.75 357.22,-194.79 363.34,-198.19"/>
</g>
<!-- Node8&#45;&gt;Node7 -->
<g id="edge12" class="edge">
<title>Node8&#45;&gt;Node7</title>
<path fill="none" stroke="midnightblue" d="M242.4,-169.73C245.3,-169.12 248.2,-168.53 251,-168 349.56,-149.22 378.19,-153.74 480.87,-131.77"/>
<polygon fill="midnightblue" stroke="midnightblue" points="481.68,-135.18 490.71,-129.64 480.19,-128.34 481.68,-135.18"/>
</g>
<!-- Node9 -->
<g id="node9" class="node">
<title>Node9</title>
<g id="a_node9"><a xlink:title=" ">
<polygon fill="white" stroke="#bfbfbf" points="222,-112.5 222,-131.5 270,-131.5 270,-112.5 222,-112.5"/>
<text text-anchor="middle" x="246" y="-119.5" font-family="Helvetica,sans-Serif" font-size="10.00">mutex</text>
</a>
</g>
</g>
<!-- Node8&#45;&gt;Node9 -->
<g id="edge9" class="edge">
<title>Node8&#45;&gt;Node9</title>
<path fill="none" stroke="midnightblue" d="M216.78,-168.08C221.67,-160.53 228.83,-149.49 234.83,-140.23"/>
<polygon fill="midnightblue" stroke="midnightblue" points="237.83,-142.05 240.33,-131.75 231.95,-138.24 237.83,-142.05"/>
</g>
<!-- Node10 -->
<g id="node10" class="node">
<title>Node10</title>
<g id="a_node10"><a xlink:title=" ">
<polygon fill="white" stroke="#bfbfbf" points="326.5,-112.5 326.5,-131.5 383.5,-131.5 383.5,-112.5 326.5,-112.5"/>
<text text-anchor="middle" x="355" y="-119.5" font-family="Helvetica,sans-Serif" font-size="10.00">ostream</text>
</a>
</g>
</g>
<!-- Node8&#45;&gt;Node10 -->
<g id="edge10" class="edge">
<title>Node8&#45;&gt;Node10</title>
<path fill="none" stroke="midnightblue" d="M233.82,-168.44C257.83,-159.44 295.83,-145.19 322.87,-135.05"/>
<polygon fill="midnightblue" stroke="midnightblue" points="324.16,-138.3 332.29,-131.52 321.7,-131.75 324.16,-138.3"/>
</g>
<!-- Node11 -->
<g id="node11" class="node">
<title>Node11</title>
<g id="a_node11"><a xlink:title=" ">
<polygon fill="white" stroke="#bfbfbf" points="66.5,-112.5 66.5,-131.5 203.5,-131.5 203.5,-112.5 66.5,-112.5"/>
<text text-anchor="middle" x="135" y="-119.5" font-family="Helvetica,sans-Serif" font-size="10.00">SFML/Graphics/Color.hpp</text>
</a>
</g>
</g>
<!-- Node8&#45;&gt;Node11 -->
<g id="edge11" class="edge">
<title>Node8&#45;&gt;Node11</title>
<path fill="none" stroke="midnightblue" d="M198.79,-168.32C187.22,-160.11 169.62,-147.6 155.84,-137.81"/>
<polygon fill="midnightblue" stroke="midnightblue" points="157.61,-134.77 147.43,-131.83 153.56,-140.48 157.61,-134.77"/>
</g>
<!-- Node8&#45;&gt;Node12 -->
<g id="edge13" class="edge">
<title>Node8&#45;&gt;Node12</title>
<path fill="none" stroke="midnightblue" d="M224.73,-168.37C254.89,-149.41 327.14,-104 363.82,-80.94"/>
<polygon fill="midnightblue" stroke="midnightblue" points="365.73,-83.88 372.33,-75.59 362,-77.95 365.73,-83.88"/>
</g>
<!-- Node12&#45;&gt;Node3 -->
<g id="edge14" class="edge">
<title>Node12&#45;&gt;Node3</title>
<path fill="none" stroke="midnightblue" d="M411.51,-56.44C438.6,-47.36 481.59,-32.94 511.87,-22.78"/>
<polygon fill="midnightblue" stroke="midnightblue" points="513.24,-26.01 521.61,-19.52 511.01,-19.38 513.24,-26.01"/>
</g>
<!-- Node13 -->
<g id="node13" class="node">
<title>Node13</title>
<g id="a_node13"><a xlink:title=" ">
<polygon fill="white" stroke="#bfbfbf" points="344.5,-0.5 344.5,-19.5 427.5,-19.5 427.5,-0.5 344.5,-0.5"/>
<text text-anchor="middle" x="386" y="-7.5" font-family="Helvetica,sans-Serif" font-size="10.00">libconfig.h++</text>
</a>
</g>
</g>
<!-- Node12&#45;&gt;Node13 -->
<g id="edge15" class="edge">
<title>Node12&#45;&gt;Node13</title>
<path fill="none" stroke="midnightblue" d="M386,-56.08C386,-49.01 386,-38.86 386,-29.99"/>
<polygon fill="midnightblue" stroke="midnightblue" points="389.5,-29.75 386,-19.75 382.5,-29.75 389.5,-29.75"/>
</g>
<!-- Node14&#45;&gt;Node10 -->
<g id="edge17" class="edge">
<title>Node14&#45;&gt;Node10</title>
<path fill="none" stroke="midnightblue" d="M367.52,-168.08C365.51,-160.85 362.61,-150.41 360.11,-141.4"/>
<polygon fill="midnightblue" stroke="midnightblue" points="363.48,-140.45 357.43,-131.75 356.74,-142.32 363.48,-140.45"/>
</g>
<!-- Node15 -->
<g id="node15" class="node">
<title>Node15</title>
<g id="a_node15"><a xlink:href="a00236.html" target="_top" xlink:title=" ">
<polygon fill="white" stroke="black" points="401.5,-112.5 401.5,-131.5 472.5,-131.5 472.5,-112.5 401.5,-112.5"/>
<text text-anchor="middle" x="437" y="-119.5" font-family="Helvetica,sans-Serif" font-size="10.00">IConfig.hpp</text>
</a>
</g>
</g>
<!-- Node14&#45;&gt;Node15 -->
<g id="edge18" class="edge">
<title>Node14&#45;&gt;Node15</title>
<path fill="none" stroke="midnightblue" d="M380.76,-168.32C390.77,-160.26 405.89,-148.08 417.93,-138.37"/>
<polygon fill="midnightblue" stroke="midnightblue" points="420.45,-140.83 426.04,-131.83 416.06,-135.38 420.45,-140.83"/>
</g>
<!-- Node15&#45;&gt;Node3 -->
<g id="edge19" class="edge">
<title>Node15&#45;&gt;Node3</title>
<path fill="none" stroke="midnightblue" d="M445.63,-112.37C464.11,-93.89 507.71,-50.29 531.26,-26.74"/>
<polygon fill="midnightblue" stroke="midnightblue" points="533.81,-29.14 538.41,-19.59 528.86,-24.19 533.81,-29.14"/>
</g>
<!-- Node15&#45;&gt;Node12 -->
<g id="edge20" class="edge">
<title>Node15&#45;&gt;Node12</title>
<path fill="none" stroke="midnightblue" d="M428.58,-112.08C421.15,-104.22 410.15,-92.57 401.19,-83.08"/>
<polygon fill="midnightblue" stroke="midnightblue" points="403.68,-80.62 394.26,-75.75 398.59,-85.42 403.68,-80.62"/>
</g>
<!-- Node16&#45;&gt;Node3 -->
<g id="edge22" class="edge">
<title>Node16&#45;&gt;Node3</title>
<path fill="none" stroke="midnightblue" d="M541.39,-336.4C562.37,-319.48 605,-279.61 605,-235 605,-235 605,-235 605,-121 605,-84.16 579.23,-47.57 562.05,-27.25"/>
<polygon fill="midnightblue" stroke="midnightblue" points="564.54,-24.79 555.31,-19.59 559.29,-29.41 564.54,-24.79"/>
</g>
<!-- Node16&#45;&gt;Node4 -->
<g id="edge23" class="edge">
<title>Node16&#45;&gt;Node4</title>
<path fill="none" stroke="midnightblue" d="M511.78,-336.44C493.1,-327.68 463.84,-313.94 442.38,-303.86"/>
<polygon fill="midnightblue" stroke="midnightblue" points="443.68,-300.6 433.14,-299.52 440.7,-306.93 443.68,-300.6"/>
</g>
<!-- Node16&#45;&gt;Node12 -->
<g id="edge27" class="edge">
<title>Node16&#45;&gt;Node12</title>
<path fill="none" stroke="midnightblue" d="M534.99,-336.49C545.09,-318.44 567,-274.69 567,-235 567,-235 567,-235 567,-177 567,-146.36 566.34,-132.98 544,-112 514.33,-84.13 468.63,-73.35 433.99,-69.26"/>
<polygon fill="midnightblue" stroke="midnightblue" points="433.94,-65.74 423.63,-68.2 433.22,-72.7 433.94,-65.74"/>
</g>
<!-- Node16&#45;&gt;Node17 -->
<g id="edge24" class="edge">
<title>Node16&#45;&gt;Node17</title>
<path fill="none" stroke="midnightblue" d="M525.38,-336.08C521.54,-328.69 515.98,-317.95 511.24,-308.81"/>
<polygon fill="midnightblue" stroke="midnightblue" points="514.25,-307.02 506.54,-299.75 508.03,-310.24 514.25,-307.02"/>
</g>
<!-- Node17&#45;&gt;Node7 -->
<g id="edge26" class="edge">
<title>Node17&#45;&gt;Node7</title>
<path fill="none" stroke="midnightblue" d="M491.29,-280.3C482.06,-272.07 469.41,-258.79 464,-244 460.95,-235.65 461.34,-232.48 464,-224 469.82,-205.41 480,-205.28 489,-188 496.82,-173 503.29,-154.86 507.53,-141.57"/>
<polygon fill="midnightblue" stroke="midnightblue" points="510.97,-142.29 510.56,-131.71 504.28,-140.24 510.97,-142.29"/>
</g>
<!-- Node18 -->
<g id="node18" class="node">
<title>Node18</title>
<g id="a_node18"><a xlink:title=" ">
<polygon fill="white" stroke="#bfbfbf" points="473.5,-224.5 473.5,-243.5 538.5,-243.5 538.5,-224.5 473.5,-224.5"/>
<text text-anchor="middle" x="506" y="-231.5" font-family="Helvetica,sans-Serif" font-size="10.00">functional</text>
</a>
</g>
</g>
<!-- Node17&#45;&gt;Node18 -->
<g id="edge25" class="edge">
<title>Node17&#45;&gt;Node18</title>
<path fill="none" stroke="midnightblue" d="M502.66,-280.08C503.18,-273.01 503.94,-262.86 504.59,-253.99"/>
<polygon fill="midnightblue" stroke="midnightblue" points="508.1,-253.98 505.35,-243.75 501.12,-253.47 508.1,-253.98"/>
</g>
<!-- Node19&#45;&gt;Node2 -->
<g id="edge33" class="edge">
<title>Node19&#45;&gt;Node2</title>
<path fill="none" stroke="midnightblue" d="M306.43,-336.08C277.56,-309.15 191.09,-228.51 154.57,-194.45"/>
<polygon fill="midnightblue" stroke="midnightblue" points="156.89,-191.83 147.19,-187.57 152.11,-196.95 156.89,-191.83"/>
</g>
<!-- Node19&#45;&gt;Node4 -->
<g id="edge36" class="edge">
<title>Node19&#45;&gt;Node4</title>
<path fill="none" stroke="midnightblue" d="M331.91,-336.32C347.64,-327.74 371.94,-314.49 390.21,-304.52"/>
<polygon fill="midnightblue" stroke="midnightblue" points="392.03,-307.52 399.13,-299.65 388.68,-301.37 392.03,-307.52"/>
</g>
<!-- Node19&#45;&gt;Node5 -->
<g id="edge38" class="edge">
<title>Node19&#45;&gt;Node5</title>
<path fill="none" stroke="midnightblue" d="M317.88,-336.37C321.76,-318.62 330.69,-277.67 335.94,-253.6"/>
<polygon fill="midnightblue" stroke="midnightblue" points="339.41,-254.11 338.13,-243.59 332.57,-252.62 339.41,-254.11"/>
</g>
<!-- Node19&#45;&gt;Node7 -->
<g id="edge32" class="edge">
<title>Node19&#45;&gt;Node7</title>
<path fill="none" stroke="midnightblue" d="M323.72,-336.15C334.66,-323.62 355.3,-300.01 373,-280 418.58,-228.46 472.9,-167.75 498.4,-139.28"/>
<polygon fill="midnightblue" stroke="midnightblue" points="501.01,-141.61 505.08,-131.83 495.8,-136.94 501.01,-141.61"/>
</g>
<!-- Node19&#45;&gt;Node8 -->
<g id="edge34" class="edge">
<title>Node19&#45;&gt;Node8</title>
<path fill="none" stroke="midnightblue" d="M312.58,-336.31C304.26,-315.73 281.63,-262.86 254,-224 246.5,-213.46 236.61,-202.93 228.21,-194.71"/>
<polygon fill="midnightblue" stroke="midnightblue" points="230.39,-191.96 220.73,-187.62 225.57,-197.04 230.39,-191.96"/>
</g>
<!-- Node19&#45;&gt;Node12 -->
<g id="edge37" class="edge">
<title>Node19&#45;&gt;Node12</title>
<path fill="none" stroke="midnightblue" d="M269.16,-336.48C189.93,-320.73 38,-284.11 38,-235 38,-235 38,-235 38,-177 38,-146.9 34.2,-131.65 57,-112 98.17,-76.53 257.14,-68.9 338.07,-67.34"/>
<polygon fill="midnightblue" stroke="midnightblue" points="338.55,-70.83 348.48,-67.16 338.43,-63.83 338.55,-70.83"/>
</g>
<!-- Node19&#45;&gt;Node17 -->
<g id="edge35" class="edge">
<title>Node19&#45;&gt;Node17</title>
<path fill="none" stroke="midnightblue" d="M345.47,-336.44C377.17,-327.24 427.73,-312.56 462.77,-302.39"/>
<polygon fill="midnightblue" stroke="midnightblue" points="464.04,-305.67 472.67,-299.52 462.09,-298.94 464.04,-305.67"/>
</g>
<!-- Node20 -->
<g id="node20" class="node">
<title>Node20</title>
<g id="a_node20"><a xlink:title=" ">
<polygon fill="white" stroke="#bfbfbf" points="166,-280.5 166,-299.5 212,-299.5 212,-280.5 166,-280.5"/>
<text text-anchor="middle" x="189" y="-287.5" font-family="Helvetica,sans-Serif" font-size="10.00">future</text>
</a>
</g>
</g>
<!-- Node19&#45;&gt;Node20 -->
<g id="edge31" class="edge">
<title>Node19&#45;&gt;Node20</title>
<path fill="none" stroke="midnightblue" d="M295.88,-336.44C274.98,-327.56 242.07,-313.56 218.28,-303.45"/>
<polygon fill="midnightblue" stroke="midnightblue" points="219.6,-300.21 209.03,-299.52 216.86,-306.65 219.6,-300.21"/>
</g>
</g>
</svg>
