<?xml version="1.0" encoding="UTF-8" standalone="no"?>
<!DOCTYPE svg PUBLIC "-//W3C//DTD SVG 1.1//EN"
 "http://www.w3.org/Graphics/SVG/1.1/DTD/svg11.dtd">
<!-- Generated by graphviz version 2.43.0 (0)
 -->
<!-- Title: /home/runner/work/Raytracer/Raytracer/PluginsExt/AntiAliasing/SSAAx4/SSAAx4Creator.hpp Pages: 1 -->
<svg width="551pt" height="442pt"
 viewBox="0.00 0.00 551.00 442.00" xmlns="http://www.w3.org/2000/svg" xmlns:xlink="http://www.w3.org/1999/xlink">
<g id="graph0" class="graph" transform="scale(1 1) rotate(0) translate(4 438)">
<title>/home/runner/work/Raytracer/Raytracer/PluginsExt/AntiAliasing/SSAAx4/SSAAx4Creator.hpp</title>
<polygon fill="white" stroke="transparent" points="-4,4 -4,-438 547,-438 547,4 -4,4"/>
<!-- Node1 -->
<g id="node1" class="node">
<title>Node1</title>
<g id="a_node1"><a xlink:title=" ">
<polygon fill="#bfbfbf" stroke="black" points="142,-392.5 142,-433.5 324,-433.5 324,-392.5 142,-392.5"/>
<text text-anchor="start" x="150" y="-421.5" font-family="Helvetica,sans-Serif" font-size="10.00">/home/runner/work/Raytracer</text>
<text text-anchor="start" x="150" y="-410.5" font-family="Helvetica,sans-Serif" font-size="10.00">/Raytracer/PluginsExt/AntiAliasing</text>
<text text-anchor="middle" x="233" y="-399.5" font-family="Helvetica,sans-Serif" font-size="10.00">/SSAAx4/SSAAx4Creator.hpp</text>
</a>
</g>
</g>
<!-- Node2 -->
<g id="node2" class="node">
<title>Node2</title>
<g id="a_node2"><a xlink:title=" ">
<polygon fill="white" stroke="#bfbfbf" points="457.5,-168.5 457.5,-187.5 504.5,-187.5 504.5,-168.5 457.5,-168.5"/>
<text text-anchor="middle" x="481" y="-175.5" font-family="Helvetica,sans-Serif" font-size="10.00">vector</text>
</a>
</g>
</g>
<!-- Node1&#45;&gt;Node2 -->
<g id="edge1" class="edge">
<title>Node1&#45;&gt;Node2</title>
<path fill="none" stroke="midnightblue" d="M309.6,-392.42C360.15,-375.75 424.17,-346.86 464,-300 486.94,-273.01 490.73,-259.32 488,-224 487.32,-215.22 485.91,-205.56 484.53,-197.45"/>
<polygon fill="midnightblue" stroke="midnightblue" points="487.97,-196.8 482.74,-187.58 481.08,-198.04 487.97,-196.8"/>
</g>
<!-- Node3 -->
<g id="node3" class="node">
<title>Node3</title>
<g id="a_node3"><a xlink:title=" ">
<polygon fill="white" stroke="#bfbfbf" points="32,-0.5 32,-19.5 90,-19.5 90,-0.5 32,-0.5"/>
<text text-anchor="middle" x="61" y="-7.5" font-family="Helvetica,sans-Serif" font-size="10.00">memory</text>
</a>
</g>
</g>
<!-- Node1&#45;&gt;Node3 -->
<g id="edge2" class="edge">
<title>Node1&#45;&gt;Node3</title>
<path fill="none" stroke="midnightblue" d="M141.92,-401.24C76.57,-387.85 0,-357.89 0,-291 0,-291 0,-291 0,-121 0,-83.57 27.34,-46.96 45.41,-26.84"/>
<polygon fill="midnightblue" stroke="midnightblue" points="47.99,-29.21 52.26,-19.51 42.88,-24.43 47.99,-29.21"/>
</g>
<!-- Node4 -->
<g id="node4" class="node">
<title>Node4</title>
<g id="a_node4"><a xlink:href="a00116.html" target="_top" xlink:title=" ">
<polygon fill="white" stroke="black" points="195.5,-280.5 195.5,-299.5 260.5,-299.5 260.5,-280.5 195.5,-280.5"/>
<text text-anchor="middle" x="228" y="-287.5" font-family="Helvetica,sans-Serif" font-size="10.00">IFilter.hpp</text>
</a>
</g>
</g>
<!-- Node1&#45;&gt;Node4 -->
<g id="edge3" class="edge">
<title>Node1&#45;&gt;Node4</title>
<path fill="none" stroke="midnightblue" d="M232.19,-392.29C231.24,-369.48 229.7,-332.19 228.78,-309.78"/>
<polygon fill="midnightblue" stroke="midnightblue" points="232.26,-309.42 228.35,-299.57 225.27,-309.71 232.26,-309.42"/>
</g>
<!-- Node11 -->
<g id="node11" class="node">
<title>Node11</title>
<g id="a_node11"><a xlink:href="a00206.html" target="_top" xlink:title=" ">
<polygon fill="white" stroke="black" points="174.5,-56.5 174.5,-75.5 249.5,-75.5 249.5,-56.5 174.5,-56.5"/>
<text text-anchor="middle" x="212" y="-63.5" font-family="Helvetica,sans-Serif" font-size="10.00">ISetting.hpp</text>
</a>
</g>
</g>
<!-- Node1&#45;&gt;Node11 -->
<g id="edge26" class="edge">
<title>Node1&#45;&gt;Node11</title>
<path fill="none" stroke="midnightblue" d="M324.33,-394.71C415.78,-374.71 543,-338.37 543,-291 543,-291 543,-291 543,-177 543,-118.04 351.45,-85.13 259.78,-72.75"/>
<polygon fill="midnightblue" stroke="midnightblue" points="260.02,-69.25 249.65,-71.41 259.1,-76.19 260.02,-69.25"/>
</g>
<!-- Node15 -->
<g id="node15" class="node">
<title>Node15</title>
<g id="a_node15"><a xlink:href="a00170.html" target="_top" xlink:title=" ">
<polygon fill="white" stroke="black" points="65.5,-336.5 65.5,-355.5 166.5,-355.5 166.5,-336.5 65.5,-336.5"/>
<text text-anchor="middle" x="116" y="-343.5" font-family="Helvetica,sans-Serif" font-size="10.00">IFilterCreator.hpp</text>
</a>
</g>
</g>
<!-- Node1&#45;&gt;Node15 -->
<g id="edge19" class="edge">
<title>Node1&#45;&gt;Node15</title>
<path fill="none" stroke="midnightblue" d="M197.9,-392.5C179.44,-382.24 157.27,-369.93 140.65,-360.69"/>
<polygon fill="midnightblue" stroke="midnightblue" points="142.02,-357.45 131.57,-355.65 138.62,-363.57 142.02,-357.45"/>
</g>
<!-- Node16 -->
<g id="node16" class="node">
<title>Node16</title>
<g id="a_node16"><a xlink:href="a00119.html" target="_top" xlink:title=" ">
<polygon fill="white" stroke="black" points="104.5,-280.5 104.5,-299.5 177.5,-299.5 177.5,-280.5 104.5,-280.5"/>
<text text-anchor="middle" x="141" y="-287.5" font-family="Helvetica,sans-Serif" font-size="10.00">ILogger.hpp</text>
</a>
</g>
</g>
<!-- Node1&#45;&gt;Node16 -->
<g id="edge25" class="edge">
<title>Node1&#45;&gt;Node16</title>
<path fill="none" stroke="midnightblue" d="M218.33,-392.25C206.87,-376.86 190.52,-355.01 176,-336 168.78,-326.54 160.62,-316.04 154,-307.57"/>
<polygon fill="midnightblue" stroke="midnightblue" points="156.67,-305.31 147.75,-299.59 151.16,-309.62 156.67,-305.31"/>
</g>
<!-- Node17 -->
<g id="node17" class="node">
<title>Node17</title>
<g id="a_node17"><a xlink:href="a00230.html" target="_top" xlink:title=" ">
<polygon fill="white" stroke="black" points="267,-336.5 267,-355.5 367,-355.5 367,-336.5 267,-336.5"/>
<text text-anchor="middle" x="317" y="-343.5" font-family="Helvetica,sans-Serif" font-size="10.00">SSAAx4Filter.hpp</text>
</a>
</g>
</g>
<!-- Node1&#45;&gt;Node17 -->
<g id="edge27" class="edge">
<title>Node1&#45;&gt;Node17</title>
<path fill="none" stroke="midnightblue" d="M258.2,-392.5C270.83,-382.72 285.89,-371.07 297.61,-362.01"/>
<polygon fill="midnightblue" stroke="midnightblue" points="300.05,-364.54 305.82,-355.65 295.77,-359 300.05,-364.54"/>
</g>
<!-- Node5 -->
<g id="node5" class="node">
<title>Node5</title>
<g id="a_node5"><a xlink:href="a00125.html" target="_top" xlink:title=" ">
<polygon fill="white" stroke="black" points="231,-224.5 231,-243.5 299,-243.5 299,-224.5 231,-224.5"/>
<text text-anchor="middle" x="265" y="-231.5" font-family="Helvetica,sans-Serif" font-size="10.00">Image.hpp</text>
</a>
</g>
</g>
<!-- Node4&#45;&gt;Node5 -->
<g id="edge4" class="edge">
<title>Node4&#45;&gt;Node5</title>
<path fill="none" stroke="midnightblue" d="M234.11,-280.08C239.28,-272.53 246.85,-261.49 253.19,-252.23"/>
<polygon fill="midnightblue" stroke="midnightblue" points="256.24,-253.98 259,-243.75 250.46,-250.02 256.24,-253.98"/>
</g>
<!-- Node5&#45;&gt;Node2 -->
<g id="edge7" class="edge">
<title>Node5&#45;&gt;Node2</title>
<path fill="none" stroke="midnightblue" d="M299.23,-224.44C339.82,-214.29 407.07,-197.48 447.39,-187.4"/>
<polygon fill="midnightblue" stroke="midnightblue" points="448.42,-190.75 457.28,-184.93 446.73,-183.96 448.42,-190.75"/>
</g>
<!-- Node6 -->
<g id="node6" class="node">
<title>Node6</title>
<g id="a_node6"><a xlink:title=" ">
<polygon fill="white" stroke="#bfbfbf" points="261.5,-168.5 261.5,-187.5 314.5,-187.5 314.5,-168.5 261.5,-168.5"/>
<text text-anchor="middle" x="288" y="-175.5" font-family="Helvetica,sans-Serif" font-size="10.00">cstddef</text>
</a>
</g>
</g>
<!-- Node5&#45;&gt;Node6 -->
<g id="edge5" class="edge">
<title>Node5&#45;&gt;Node6</title>
<path fill="none" stroke="midnightblue" d="M268.8,-224.08C271.91,-216.77 276.42,-206.18 280.29,-197.1"/>
<polygon fill="midnightblue" stroke="midnightblue" points="283.57,-198.32 284.27,-187.75 277.13,-195.58 283.57,-198.32"/>
</g>
<!-- Node7 -->
<g id="node7" class="node">
<title>Node7</title>
<g id="a_node7"><a xlink:title=" ">
<polygon fill="white" stroke="#bfbfbf" points="104,-168.5 104,-187.5 148,-187.5 148,-168.5 104,-168.5"/>
<text text-anchor="middle" x="126" y="-175.5" font-family="Helvetica,sans-Serif" font-size="10.00">string</text>
</a>
</g>
</g>
<!-- Node5&#45;&gt;Node7 -->
<g id="edge6" class="edge">
<title>Node5&#45;&gt;Node7</title>
<path fill="none" stroke="midnightblue" d="M242.98,-224.44C219.9,-215.48 183.44,-201.31 157.36,-191.18"/>
<polygon fill="midnightblue" stroke="midnightblue" points="158.51,-187.88 147.92,-187.52 155.98,-194.4 158.51,-187.88"/>
</g>
<!-- Node8 -->
<g id="node8" class="node">
<title>Node8</title>
<g id="a_node8"><a xlink:href="a00122.html" target="_top" xlink:title=" ">
<polygon fill="white" stroke="black" points="333,-168.5 333,-187.5 395,-187.5 395,-168.5 333,-168.5"/>
<text text-anchor="middle" x="364" y="-175.5" font-family="Helvetica,sans-Serif" font-size="10.00">Color.hpp</text>
</a>
</g>
</g>
<!-- Node5&#45;&gt;Node8 -->
<g id="edge8" class="edge">
<title>Node5&#45;&gt;Node8</title>
<path fill="none" stroke="midnightblue" d="M280.91,-224.32C296.64,-215.74 320.94,-202.49 339.21,-192.52"/>
<polygon fill="midnightblue" stroke="midnightblue" points="341.03,-195.52 348.13,-187.65 337.68,-189.37 341.03,-195.52"/>
</g>
<!-- Node13 -->
<g id="node13" class="node">
<title>Node13</title>
<g id="a_node13"><a xlink:href="a00089.html" target="_top" xlink:title=" ">
<polygon fill="white" stroke="black" points="166.5,-168.5 166.5,-187.5 243.5,-187.5 243.5,-168.5 166.5,-168.5"/>
<text text-anchor="middle" x="205" y="-175.5" font-family="Helvetica,sans-Serif" font-size="10.00">Vector2i.hpp</text>
</a>
</g>
</g>
<!-- Node5&#45;&gt;Node13 -->
<g id="edge14" class="edge">
<title>Node5&#45;&gt;Node13</title>
<path fill="none" stroke="midnightblue" d="M255.36,-224.32C246.49,-216.34 233.13,-204.31 222.39,-194.65"/>
<polygon fill="midnightblue" stroke="midnightblue" points="224.59,-191.92 214.82,-187.83 219.91,-197.13 224.59,-191.92"/>
</g>
<!-- Node9 -->
<g id="node9" class="node">
<title>Node9</title>
<g id="a_node9"><a xlink:title=" ">
<polygon fill="white" stroke="#bfbfbf" points="346,-112.5 346,-131.5 394,-131.5 394,-112.5 346,-112.5"/>
<text text-anchor="middle" x="370" y="-119.5" font-family="Helvetica,sans-Serif" font-size="10.00">mutex</text>
</a>
</g>
</g>
<!-- Node8&#45;&gt;Node9 -->
<g id="edge9" class="edge">
<title>Node8&#45;&gt;Node9</title>
<path fill="none" stroke="midnightblue" d="M364.99,-168.08C365.79,-160.93 366.93,-150.64 367.92,-141.69"/>
<polygon fill="midnightblue" stroke="midnightblue" points="371.4,-142.08 369.03,-131.75 364.44,-141.3 371.4,-142.08"/>
</g>
<!-- Node10 -->
<g id="node10" class="node">
<title>Node10</title>
<g id="a_node10"><a xlink:title=" ">
<polygon fill="white" stroke="#bfbfbf" points="232.5,-112.5 232.5,-131.5 289.5,-131.5 289.5,-112.5 232.5,-112.5"/>
<text text-anchor="middle" x="261" y="-119.5" font-family="Helvetica,sans-Serif" font-size="10.00">ostream</text>
</a>
</g>
</g>
<!-- Node8&#45;&gt;Node10 -->
<g id="edge10" class="edge">
<title>Node8&#45;&gt;Node10</title>
<path fill="none" stroke="midnightblue" d="M347.45,-168.32C331.01,-159.7 305.57,-146.36 286.53,-136.39"/>
<polygon fill="midnightblue" stroke="midnightblue" points="287.99,-133.2 277.51,-131.65 284.74,-139.4 287.99,-133.2"/>
</g>
<!-- Node8&#45;&gt;Node11 -->
<g id="edge11" class="edge">
<title>Node8&#45;&gt;Node11</title>
<path fill="none" stroke="midnightblue" d="M356.72,-168.14C345.41,-154.76 322.45,-129.14 299,-112 281.28,-99.04 259.31,-87.71 241.88,-79.66"/>
<polygon fill="midnightblue" stroke="midnightblue" points="243.27,-76.45 232.72,-75.53 240.4,-82.83 243.27,-76.45"/>
</g>
<!-- Node11&#45;&gt;Node3 -->
<g id="edge12" class="edge">
<title>Node11&#45;&gt;Node3</title>
<path fill="none" stroke="midnightblue" d="M188.07,-56.44C162.78,-47.4 122.7,-33.06 94.32,-22.92"/>
<polygon fill="midnightblue" stroke="midnightblue" points="95.41,-19.59 84.81,-19.52 93.05,-26.18 95.41,-19.59"/>
</g>
<!-- Node12 -->
<g id="node12" class="node">
<title>Node12</title>
<g id="a_node12"><a xlink:title=" ">
<polygon fill="white" stroke="#bfbfbf" points="170.5,-0.5 170.5,-19.5 253.5,-19.5 253.5,-0.5 170.5,-0.5"/>
<text text-anchor="middle" x="212" y="-7.5" font-family="Helvetica,sans-Serif" font-size="10.00">libconfig.h++</text>
</a>
</g>
</g>
<!-- Node11&#45;&gt;Node12 -->
<g id="edge13" class="edge">
<title>Node11&#45;&gt;Node12</title>
<path fill="none" stroke="midnightblue" d="M212,-56.08C212,-49.01 212,-38.86 212,-29.99"/>
<polygon fill="midnightblue" stroke="midnightblue" points="215.5,-29.75 212,-19.75 208.5,-29.75 215.5,-29.75"/>
</g>
<!-- Node13&#45;&gt;Node10 -->
<g id="edge15" class="edge">
<title>Node13&#45;&gt;Node10</title>
<path fill="none" stroke="midnightblue" d="M214,-168.32C222.19,-160.42 234.51,-148.55 244.47,-138.94"/>
<polygon fill="midnightblue" stroke="midnightblue" points="247.07,-141.29 251.84,-131.83 242.21,-136.26 247.07,-141.29"/>
</g>
<!-- Node14 -->
<g id="node14" class="node">
<title>Node14</title>
<g id="a_node14"><a xlink:href="a00197.html" target="_top" xlink:title=" ">
<polygon fill="white" stroke="black" points="143.5,-112.5 143.5,-131.5 214.5,-131.5 214.5,-112.5 143.5,-112.5"/>
<text text-anchor="middle" x="179" y="-119.5" font-family="Helvetica,sans-Serif" font-size="10.00">IConfig.hpp</text>
</a>
</g>
</g>
<!-- Node13&#45;&gt;Node14 -->
<g id="edge16" class="edge">
<title>Node13&#45;&gt;Node14</title>
<path fill="none" stroke="midnightblue" d="M200.71,-168.08C197.15,-160.69 191.98,-149.95 187.58,-140.81"/>
<polygon fill="midnightblue" stroke="midnightblue" points="190.71,-139.24 183.21,-131.75 184.4,-142.28 190.71,-139.24"/>
</g>
<!-- Node14&#45;&gt;Node3 -->
<g id="edge17" class="edge">
<title>Node14&#45;&gt;Node3</title>
<path fill="none" stroke="midnightblue" d="M169.74,-112.37C149.84,-93.81 102.74,-49.91 77.56,-26.44"/>
<polygon fill="midnightblue" stroke="midnightblue" points="79.92,-23.85 70.22,-19.59 75.14,-28.97 79.92,-23.85"/>
</g>
<!-- Node14&#45;&gt;Node11 -->
<g id="edge18" class="edge">
<title>Node14&#45;&gt;Node11</title>
<path fill="none" stroke="midnightblue" d="M184.45,-112.08C189.01,-104.61 195.67,-93.72 201.29,-84.52"/>
<polygon fill="midnightblue" stroke="midnightblue" points="204.42,-86.11 206.65,-75.75 198.45,-82.46 204.42,-86.11"/>
</g>
<!-- Node15&#45;&gt;Node3 -->
<g id="edge20" class="edge">
<title>Node15&#45;&gt;Node3</title>
<path fill="none" stroke="midnightblue" d="M103.81,-336.24C81.88,-319.35 38,-279.95 38,-235 38,-235 38,-235 38,-121 38,-88.12 47.97,-50.86 54.78,-29.24"/>
<polygon fill="midnightblue" stroke="midnightblue" points="58.11,-30.3 57.9,-19.71 51.46,-28.12 58.11,-30.3"/>
</g>
<!-- Node15&#45;&gt;Node4 -->
<g id="edge21" class="edge">
<title>Node15&#45;&gt;Node4</title>
<path fill="none" stroke="midnightblue" d="M133.99,-336.32C152.04,-327.62 180.05,-314.12 200.8,-304.11"/>
<polygon fill="midnightblue" stroke="midnightblue" points="202.56,-307.15 210.05,-299.65 199.52,-300.84 202.56,-307.15"/>
</g>
<!-- Node15&#45;&gt;Node11 -->
<g id="edge24" class="edge">
<title>Node15&#45;&gt;Node11</title>
<path fill="none" stroke="midnightblue" d="M110.44,-336.27C99.45,-318.15 76,-274.83 76,-235 76,-235 76,-235 76,-177 76,-126.08 134.34,-94.67 174.6,-79.06"/>
<polygon fill="midnightblue" stroke="midnightblue" points="175.99,-82.28 184.15,-75.52 173.56,-75.72 175.99,-82.28"/>
</g>
<!-- Node15&#45;&gt;Node16 -->
<g id="edge22" class="edge">
<title>Node15&#45;&gt;Node16</title>
<path fill="none" stroke="midnightblue" d="M120.13,-336.08C123.51,-328.77 128.42,-318.18 132.62,-309.1"/>
<polygon fill="midnightblue" stroke="midnightblue" points="135.92,-310.3 136.95,-299.75 129.57,-307.36 135.92,-310.3"/>
</g>
<!-- Node16&#45;&gt;Node7 -->
<g id="edge23" class="edge">
<title>Node16&#45;&gt;Node7</title>
<path fill="none" stroke="midnightblue" d="M139.82,-280.37C137.4,-262.62 131.82,-221.67 128.54,-197.6"/>
<polygon fill="midnightblue" stroke="midnightblue" points="131.99,-197.03 127.17,-187.59 125.05,-197.97 131.99,-197.03"/>
</g>
<!-- Node17&#45;&gt;Node2 -->
<g id="edge29" class="edge">
<title>Node17&#45;&gt;Node2</title>
<path fill="none" stroke="midnightblue" d="M367.03,-338C392.85,-331.96 423.03,-320.76 443,-300 470.26,-271.66 477.98,-223.98 480.16,-197.73"/>
<polygon fill="midnightblue" stroke="midnightblue" points="483.66,-197.82 480.8,-187.62 476.67,-197.38 483.66,-197.82"/>
</g>
<!-- Node17&#45;&gt;Node4 -->
<g id="edge32" class="edge">
<title>Node17&#45;&gt;Node4</title>
<path fill="none" stroke="midnightblue" d="M302.7,-336.32C288.82,-327.9 267.51,-314.97 251.2,-305.07"/>
<polygon fill="midnightblue" stroke="midnightblue" points="252.63,-301.85 242.26,-299.65 249,-307.83 252.63,-301.85"/>
</g>
<!-- Node17&#45;&gt;Node5 -->
<g id="edge34" class="edge">
<title>Node17&#45;&gt;Node5</title>
<path fill="none" stroke="midnightblue" d="M312.92,-336.37C304.45,-318.46 284.82,-276.92 273.48,-252.95"/>
<polygon fill="midnightblue" stroke="midnightblue" points="276.5,-251.14 269.06,-243.59 270.17,-254.13 276.5,-251.14"/>
</g>
<!-- Node17&#45;&gt;Node8 -->
<g id="edge30" class="edge">
<title>Node17&#45;&gt;Node8</title>
<path fill="none" stroke="midnightblue" d="M319.53,-336.08C326.93,-309.95 348.65,-233.21 358.74,-197.58"/>
<polygon fill="midnightblue" stroke="midnightblue" points="362.22,-198.14 361.57,-187.57 355.48,-196.24 362.22,-198.14"/>
</g>
<!-- Node17&#45;&gt;Node11 -->
<g id="edge33" class="edge">
<title>Node17&#45;&gt;Node11</title>
<path fill="none" stroke="midnightblue" d="M350.1,-336.43C370.09,-329.65 394.59,-318.21 410,-300 429.44,-277.02 429,-265.1 429,-235 429,-235 429,-235 429,-177 429,-145.89 426.58,-132.3 403,-112 381.79,-93.74 309.12,-80.38 259.79,-73.15"/>
<polygon fill="midnightblue" stroke="midnightblue" points="260.04,-69.65 249.64,-71.71 259.05,-76.58 260.04,-69.65"/>
</g>
<!-- Node17&#45;&gt;Node16 -->
<g id="edge31" class="edge">
<title>Node17&#45;&gt;Node16</title>
<path fill="none" stroke="midnightblue" d="M289.11,-336.44C259.25,-327.28 211.69,-312.69 178.54,-302.52"/>
<polygon fill="midnightblue" stroke="midnightblue" points="179.34,-299.1 168.76,-299.52 177.29,-305.8 179.34,-299.1"/>
</g>
<!-- Node18 -->
<g id="node18" class="node">
<title>Node18</title>
<g id="a_node18"><a xlink:title=" ">
<polygon fill="white" stroke="#bfbfbf" points="355,-280.5 355,-299.5 401,-299.5 401,-280.5 355,-280.5"/>
<text text-anchor="middle" x="378" y="-287.5" font-family="Helvetica,sans-Serif" font-size="10.00">future</text>
</a>
</g>
</g>
<!-- Node17&#45;&gt;Node18 -->
<g id="edge28" class="edge">
<title>Node17&#45;&gt;Node18</title>
<path fill="none" stroke="midnightblue" d="M326.8,-336.32C335.82,-328.34 349.41,-316.31 360.32,-306.65"/>
<polygon fill="midnightblue" stroke="midnightblue" points="362.85,-309.08 368.02,-299.83 358.21,-303.84 362.85,-309.08"/>
</g>
</g>
</svg>
