<?xml version="1.0" encoding="UTF-8" standalone="no"?>
<!DOCTYPE svg PUBLIC "-//W3C//DTD SVG 1.1//EN"
 "http://www.w3.org/Graphics/SVG/1.1/DTD/svg11.dtd">
<!-- Generated by graphviz version 2.43.0 (0)
 -->
<!-- Title: /home/runner/work/Raytracer/Raytracer/PluginsExt/LimitedCone/LimitedConeCreator.hpp Pages: 1 -->
<svg width="770pt" height="442pt"
 viewBox="0.00 0.00 770.00 442.00" xmlns="http://www.w3.org/2000/svg" xmlns:xlink="http://www.w3.org/1999/xlink">
<g id="graph0" class="graph" transform="scale(1 1) rotate(0) translate(4 438)">
<title>/home/runner/work/Raytracer/Raytracer/PluginsExt/LimitedCone/LimitedConeCreator.hpp</title>
<polygon fill="white" stroke="transparent" points="-4,4 -4,-438 766,-438 766,4 -4,4"/>
<!-- Node1 -->
<g id="node1" class="node">
<title>Node1</title>
<g id="a_node1"><a xlink:title=" ">
<polygon fill="#bfbfbf" stroke="black" points="319.5,-392.5 319.5,-433.5 504.5,-433.5 504.5,-392.5 319.5,-392.5"/>
<text text-anchor="start" x="327.5" y="-421.5" font-family="Helvetica,sans-Serif" font-size="10.00">/home/runner/work/Raytracer</text>
<text text-anchor="start" x="327.5" y="-410.5" font-family="Helvetica,sans-Serif" font-size="10.00">/Raytracer/PluginsExt/LimitedCone</text>
<text text-anchor="middle" x="412" y="-399.5" font-family="Helvetica,sans-Serif" font-size="10.00">/LimitedConeCreator.hpp</text>
</a>
</g>
</g>
<!-- Node2 -->
<g id="node2" class="node">
<title>Node2</title>
<g id="a_node2"><a xlink:title=" ">
<polygon fill="white" stroke="#bfbfbf" points="104.5,-112.5 104.5,-131.5 151.5,-131.5 151.5,-112.5 104.5,-112.5"/>
<text text-anchor="middle" x="128" y="-119.5" font-family="Helvetica,sans-Serif" font-size="10.00">vector</text>
</a>
</g>
</g>
<!-- Node1&#45;&gt;Node2 -->
<g id="edge1" class="edge">
<title>Node1&#45;&gt;Node2</title>
<path fill="none" stroke="midnightblue" d="M319.07,-400.64C208.31,-384.44 38,-349.95 38,-291 38,-291 38,-291 38,-233 38,-190.66 78.44,-155.66 105.1,-137.18"/>
<polygon fill="midnightblue" stroke="midnightblue" points="107.16,-140.02 113.54,-131.56 103.28,-134.19 107.16,-140.02"/>
</g>
<!-- Node3 -->
<g id="node3" class="node">
<title>Node3</title>
<g id="a_node3"><a xlink:href="a00161.html" target="_top" xlink:title=" ">
<polygon fill="white" stroke="black" points="294,-336.5 294,-355.5 398,-355.5 398,-336.5 294,-336.5"/>
<text text-anchor="middle" x="346" y="-343.5" font-family="Helvetica,sans-Serif" font-size="10.00">IEntityCreator.hpp</text>
</a>
</g>
</g>
<!-- Node1&#45;&gt;Node3 -->
<g id="edge2" class="edge">
<title>Node1&#45;&gt;Node3</title>
<path fill="none" stroke="midnightblue" d="M392.2,-392.5C382.57,-383.01 371.14,-371.76 362.06,-362.81"/>
<polygon fill="midnightblue" stroke="midnightblue" points="364.37,-360.18 354.79,-355.65 359.45,-365.16 364.37,-360.18"/>
</g>
<!-- Node11 -->
<g id="node11" class="node">
<title>Node11</title>
<g id="a_node11"><a xlink:href="a00119.html" target="_top" xlink:title=" ">
<polygon fill="white" stroke="black" points="584.5,-280.5 584.5,-299.5 657.5,-299.5 657.5,-280.5 584.5,-280.5"/>
<text text-anchor="middle" x="621" y="-287.5" font-family="Helvetica,sans-Serif" font-size="10.00">ILogger.hpp</text>
</a>
</g>
</g>
<!-- Node1&#45;&gt;Node11 -->
<g id="edge14" class="edge">
<title>Node1&#45;&gt;Node11</title>
<path fill="none" stroke="midnightblue" d="M474.22,-392.46C499.1,-383.27 527.39,-370.99 551,-356 572.53,-342.33 593.46,-321.62 606.74,-307.27"/>
<polygon fill="midnightblue" stroke="midnightblue" points="609.51,-309.42 613.62,-299.65 604.32,-304.73 609.51,-309.42"/>
</g>
<!-- Node13 -->
<g id="node13" class="node">
<title>Node13</title>
<g id="a_node13"><a xlink:href="a00278.html" target="_top" xlink:title=" ">
<polygon fill="white" stroke="black" points="416,-336.5 416,-355.5 542,-355.5 542,-336.5 416,-336.5"/>
<text text-anchor="middle" x="479" y="-343.5" font-family="Helvetica,sans-Serif" font-size="10.00">LimitedConeEntity.hpp</text>
</a>
</g>
</g>
<!-- Node1&#45;&gt;Node13 -->
<g id="edge15" class="edge">
<title>Node1&#45;&gt;Node13</title>
<path fill="none" stroke="midnightblue" d="M432.1,-392.5C441.88,-383.01 453.48,-371.76 462.7,-362.81"/>
<polygon fill="midnightblue" stroke="midnightblue" points="465.34,-365.13 470.08,-355.65 460.47,-360.1 465.34,-365.13"/>
</g>
<!-- Node4 -->
<g id="node4" class="node">
<title>Node4</title>
<g id="a_node4"><a xlink:title=" ">
<polygon fill="white" stroke="#bfbfbf" points="145,-0.5 145,-19.5 203,-19.5 203,-0.5 145,-0.5"/>
<text text-anchor="middle" x="174" y="-7.5" font-family="Helvetica,sans-Serif" font-size="10.00">memory</text>
</a>
</g>
</g>
<!-- Node3&#45;&gt;Node4 -->
<g id="edge3" class="edge">
<title>Node3&#45;&gt;Node4</title>
<path fill="none" stroke="midnightblue" d="M293.83,-339.39C197.17,-327.54 0,-295.9 0,-235 0,-235 0,-235 0,-121 0,-57.51 83.8,-29.16 135.09,-17.76"/>
<polygon fill="midnightblue" stroke="midnightblue" points="135.81,-21.19 144.88,-15.7 134.37,-14.34 135.81,-21.19"/>
</g>
<!-- Node5 -->
<g id="node5" class="node">
<title>Node5</title>
<g id="a_node5"><a xlink:href="a00071.html" target="_top" xlink:title=" ">
<polygon fill="white" stroke="black" points="332,-224.5 332,-243.5 400,-243.5 400,-224.5 332,-224.5"/>
<text text-anchor="middle" x="366" y="-231.5" font-family="Helvetica,sans-Serif" font-size="10.00">IEntity.hpp</text>
</a>
</g>
</g>
<!-- Node3&#45;&gt;Node5 -->
<g id="edge4" class="edge">
<title>Node3&#45;&gt;Node5</title>
<path fill="none" stroke="midnightblue" d="M347.57,-336.37C350.8,-318.62 358.24,-277.67 362.62,-253.6"/>
<polygon fill="midnightblue" stroke="midnightblue" points="366.09,-254.06 364.44,-243.59 359.21,-252.8 366.09,-254.06"/>
</g>
<!-- Node9 -->
<g id="node9" class="node">
<title>Node9</title>
<g id="a_node9"><a xlink:href="a00206.html" target="_top" xlink:title=" ">
<polygon fill="white" stroke="black" points="219.5,-56.5 219.5,-75.5 294.5,-75.5 294.5,-56.5 219.5,-56.5"/>
<text text-anchor="middle" x="257" y="-63.5" font-family="Helvetica,sans-Serif" font-size="10.00">ISetting.hpp</text>
</a>
</g>
</g>
<!-- Node3&#45;&gt;Node9 -->
<g id="edge13" class="edge">
<title>Node3&#45;&gt;Node9</title>
<path fill="none" stroke="midnightblue" d="M301.72,-336.49C225.12,-320.48 76,-283.15 76,-235 76,-235 76,-235 76,-177 76,-146.9 73.58,-133.14 95,-112 125.16,-82.24 173.21,-71.76 209.16,-68.27"/>
<polygon fill="midnightblue" stroke="midnightblue" points="209.74,-71.73 219.42,-67.42 209.17,-64.75 209.74,-71.73"/>
</g>
<!-- Node3&#45;&gt;Node11 -->
<g id="edge11" class="edge">
<title>Node3&#45;&gt;Node11</title>
<path fill="none" stroke="midnightblue" d="M390.1,-336.43C434.33,-327.82 504.67,-314.09 574.34,-300.32"/>
<polygon fill="midnightblue" stroke="midnightblue" points="575.03,-303.75 584.17,-298.38 573.68,-296.89 575.03,-303.75"/>
</g>
<!-- Node6 -->
<g id="node6" class="node">
<title>Node6</title>
<g id="a_node6"><a xlink:href="a00083.html" target="_top" xlink:title=" ">
<polygon fill="white" stroke="black" points="296.5,-168.5 296.5,-187.5 437.5,-187.5 437.5,-168.5 296.5,-168.5"/>
<text text-anchor="middle" x="367" y="-175.5" font-family="Helvetica,sans-Serif" font-size="10.00">Transform/ITransform.hpp</text>
</a>
</g>
</g>
<!-- Node5&#45;&gt;Node6 -->
<g id="edge5" class="edge">
<title>Node5&#45;&gt;Node6</title>
<path fill="none" stroke="midnightblue" d="M366.17,-224.08C366.3,-217.01 366.48,-206.86 366.65,-197.99"/>
<polygon fill="midnightblue" stroke="midnightblue" points="370.15,-197.81 366.84,-187.75 363.15,-197.68 370.15,-197.81"/>
</g>
<!-- Node7 -->
<g id="node7" class="node">
<title>Node7</title>
<g id="a_node7"><a xlink:href="a00092.html" target="_top" xlink:title=" ">
<polygon fill="white" stroke="black" points="427.5,-112.5 427.5,-131.5 504.5,-131.5 504.5,-112.5 427.5,-112.5"/>
<text text-anchor="middle" x="466" y="-119.5" font-family="Helvetica,sans-Serif" font-size="10.00">Vector3f.hpp</text>
</a>
</g>
</g>
<!-- Node6&#45;&gt;Node7 -->
<g id="edge6" class="edge">
<title>Node6&#45;&gt;Node7</title>
<path fill="none" stroke="midnightblue" d="M382.91,-168.32C398.64,-159.74 422.94,-146.49 441.21,-136.52"/>
<polygon fill="midnightblue" stroke="midnightblue" points="443.03,-139.52 450.13,-131.65 439.68,-133.37 443.03,-139.52"/>
</g>
<!-- Node8 -->
<g id="node8" class="node">
<title>Node8</title>
<g id="a_node8"><a xlink:title=" ">
<polygon fill="white" stroke="#bfbfbf" points="495.5,-56.5 495.5,-75.5 552.5,-75.5 552.5,-56.5 495.5,-56.5"/>
<text text-anchor="middle" x="524" y="-63.5" font-family="Helvetica,sans-Serif" font-size="10.00">ostream</text>
</a>
</g>
</g>
<!-- Node7&#45;&gt;Node8 -->
<g id="edge7" class="edge">
<title>Node7&#45;&gt;Node8</title>
<path fill="none" stroke="midnightblue" d="M475.32,-112.32C483.89,-104.34 496.81,-92.31 507.19,-82.65"/>
<polygon fill="midnightblue" stroke="midnightblue" points="509.58,-85.21 514.51,-75.83 504.81,-80.09 509.58,-85.21"/>
</g>
<!-- Node7&#45;&gt;Node9 -->
<g id="edge8" class="edge">
<title>Node7&#45;&gt;Node9</title>
<path fill="none" stroke="midnightblue" d="M432.88,-112.44C396.88,-103.14 339.23,-88.25 299.81,-78.06"/>
<polygon fill="midnightblue" stroke="midnightblue" points="300.52,-74.63 289.96,-75.52 298.77,-81.41 300.52,-74.63"/>
</g>
<!-- Node9&#45;&gt;Node4 -->
<g id="edge9" class="edge">
<title>Node9&#45;&gt;Node4</title>
<path fill="none" stroke="midnightblue" d="M243.66,-56.32C230.84,-47.98 211.22,-35.21 196.06,-25.35"/>
<polygon fill="midnightblue" stroke="midnightblue" points="197.59,-22.17 187.3,-19.65 193.78,-28.04 197.59,-22.17"/>
</g>
<!-- Node10 -->
<g id="node10" class="node">
<title>Node10</title>
<g id="a_node10"><a xlink:title=" ">
<polygon fill="white" stroke="#bfbfbf" points="221.5,-0.5 221.5,-19.5 304.5,-19.5 304.5,-0.5 221.5,-0.5"/>
<text text-anchor="middle" x="263" y="-7.5" font-family="Helvetica,sans-Serif" font-size="10.00">libconfig.h++</text>
</a>
</g>
</g>
<!-- Node9&#45;&gt;Node10 -->
<g id="edge10" class="edge">
<title>Node9&#45;&gt;Node10</title>
<path fill="none" stroke="midnightblue" d="M257.99,-56.08C258.79,-48.93 259.93,-38.64 260.92,-29.69"/>
<polygon fill="midnightblue" stroke="midnightblue" points="264.4,-30.08 262.03,-19.75 257.44,-29.3 264.4,-30.08"/>
</g>
<!-- Node12 -->
<g id="node12" class="node">
<title>Node12</title>
<g id="a_node12"><a xlink:title=" ">
<polygon fill="white" stroke="#bfbfbf" points="718,-224.5 718,-243.5 762,-243.5 762,-224.5 718,-224.5"/>
<text text-anchor="middle" x="740" y="-231.5" font-family="Helvetica,sans-Serif" font-size="10.00">string</text>
</a>
</g>
</g>
<!-- Node11&#45;&gt;Node12 -->
<g id="edge12" class="edge">
<title>Node11&#45;&gt;Node12</title>
<path fill="none" stroke="midnightblue" d="M639.86,-280.44C659.27,-271.64 689.73,-257.81 711.96,-247.72"/>
<polygon fill="midnightblue" stroke="midnightblue" points="713.57,-250.84 721.23,-243.52 710.68,-244.46 713.57,-250.84"/>
</g>
<!-- Node13&#45;&gt;Node11 -->
<g id="edge17" class="edge">
<title>Node13&#45;&gt;Node11</title>
<path fill="none" stroke="midnightblue" d="M501.5,-336.44C525.08,-327.48 562.32,-313.31 588.96,-303.18"/>
<polygon fill="midnightblue" stroke="midnightblue" points="590.5,-306.34 598.6,-299.52 588.01,-299.8 590.5,-306.34"/>
</g>
<!-- Node14 -->
<g id="node14" class="node">
<title>Node14</title>
<g id="a_node14"><a xlink:title=" ">
<polygon fill="white" stroke="#bfbfbf" points="519.5,-280.5 519.5,-299.5 566.5,-299.5 566.5,-280.5 519.5,-280.5"/>
<text text-anchor="middle" x="543" y="-287.5" font-family="Helvetica,sans-Serif" font-size="10.00">cmath</text>
</a>
</g>
</g>
<!-- Node13&#45;&gt;Node14 -->
<g id="edge16" class="edge">
<title>Node13&#45;&gt;Node14</title>
<path fill="none" stroke="midnightblue" d="M489.28,-336.32C498.84,-328.26 513.28,-316.08 524.78,-306.37"/>
<polygon fill="midnightblue" stroke="midnightblue" points="527.14,-308.96 532.53,-299.83 522.63,-303.61 527.14,-308.96"/>
</g>
<!-- Node15 -->
<g id="node15" class="node">
<title>Node15</title>
<g id="a_node15"><a xlink:href="a00080.html" target="_top" xlink:title=" ">
<polygon fill="white" stroke="black" points="416.5,-280.5 416.5,-299.5 501.5,-299.5 501.5,-280.5 416.5,-280.5"/>
<text text-anchor="middle" x="459" y="-287.5" font-family="Helvetica,sans-Serif" font-size="10.00">IPrimitive.hpp</text>
</a>
</g>
</g>
<!-- Node13&#45;&gt;Node15 -->
<g id="edge18" class="edge">
<title>Node13&#45;&gt;Node15</title>
<path fill="none" stroke="midnightblue" d="M475.7,-336.08C473.02,-328.85 469.15,-318.41 465.81,-309.4"/>
<polygon fill="midnightblue" stroke="midnightblue" points="469,-307.91 462.24,-299.75 462.43,-310.34 469,-307.91"/>
</g>
<!-- Node22 -->
<g id="node22" class="node">
<title>Node22</title>
<g id="a_node22"><a xlink:href="a00086.html" target="_top" xlink:title=" ">
<polygon fill="white" stroke="black" points="226,-224.5 226,-243.5 312,-243.5 312,-224.5 226,-224.5"/>
<text text-anchor="middle" x="269" y="-231.5" font-family="Helvetica,sans-Serif" font-size="10.00">Transform.hpp</text>
</a>
</g>
</g>
<!-- Node13&#45;&gt;Node22 -->
<g id="edge37" class="edge">
<title>Node13&#45;&gt;Node22</title>
<path fill="none" stroke="midnightblue" d="M462.52,-336.37C426.03,-317.25 338.16,-271.23 294.51,-248.36"/>
<polygon fill="midnightblue" stroke="midnightblue" points="295.88,-245.13 285.4,-243.59 292.64,-251.33 295.88,-245.13"/>
</g>
<!-- Node15&#45;&gt;Node5 -->
<g id="edge27" class="edge">
<title>Node15&#45;&gt;Node5</title>
<path fill="none" stroke="midnightblue" d="M444.06,-280.32C429.41,-271.82 406.87,-258.73 389.76,-248.8"/>
<polygon fill="midnightblue" stroke="midnightblue" points="391.31,-245.65 380.9,-243.65 387.8,-251.7 391.31,-245.65"/>
</g>
<!-- Node15&#45;&gt;Node7 -->
<g id="edge36" class="edge">
<title>Node15&#45;&gt;Node7</title>
<path fill="none" stroke="midnightblue" d="M475.95,-280.43C490.51,-272.46 511.39,-259.5 526,-244 545.82,-222.98 551.4,-215.87 559,-188 561.34,-179.42 563.72,-175.53 559,-168 548.95,-151.97 531.4,-141.51 514.23,-134.75"/>
<polygon fill="midnightblue" stroke="midnightblue" points="515.37,-131.45 504.78,-131.37 513.01,-138.04 515.37,-131.45"/>
</g>
<!-- Node16 -->
<g id="node16" class="node">
<title>Node16</title>
<g id="a_node16"><a xlink:title=" ">
<polygon fill="white" stroke="#bfbfbf" points="644,-224.5 644,-243.5 700,-243.5 700,-224.5 644,-224.5"/>
<text text-anchor="middle" x="672" y="-231.5" font-family="Helvetica,sans-Serif" font-size="10.00">optional</text>
</a>
</g>
</g>
<!-- Node15&#45;&gt;Node16 -->
<g id="edge19" class="edge">
<title>Node15&#45;&gt;Node16</title>
<path fill="none" stroke="midnightblue" d="M492.75,-280.44C531.17,-270.7 593.78,-254.83 633.91,-244.66"/>
<polygon fill="midnightblue" stroke="midnightblue" points="635.02,-247.99 643.85,-242.14 633.3,-241.2 635.02,-247.99"/>
</g>
<!-- Node17 -->
<g id="node17" class="node">
<title>Node17</title>
<g id="a_node17"><a xlink:href="a00122.html" target="_top" xlink:title=" ">
<polygon fill="white" stroke="black" points="606,-168.5 606,-187.5 668,-187.5 668,-168.5 606,-168.5"/>
<text text-anchor="middle" x="637" y="-175.5" font-family="Helvetica,sans-Serif" font-size="10.00">Color.hpp</text>
</a>
</g>
</g>
<!-- Node15&#45;&gt;Node17 -->
<g id="edge20" class="edge">
<title>Node15&#45;&gt;Node17</title>
<path fill="none" stroke="midnightblue" d="M501.51,-281.83C529.38,-275.49 565.43,-264.02 592,-244 608.39,-231.65 620.98,-211.56 628.62,-196.98"/>
<polygon fill="midnightblue" stroke="midnightblue" points="631.81,-198.44 633.11,-187.93 625.53,-195.33 631.81,-198.44"/>
</g>
<!-- Node19 -->
<g id="node19" class="node">
<title>Node19</title>
<g id="a_node19"><a xlink:href="a00200.html" target="_top" xlink:title=" ">
<polygon fill="white" stroke="black" points="104,-168.5 104,-187.5 202,-187.5 202,-168.5 104,-168.5"/>
<text text-anchor="middle" x="153" y="-175.5" font-family="Helvetica,sans-Serif" font-size="10.00">IDisplayable.hpp</text>
</a>
</g>
</g>
<!-- Node15&#45;&gt;Node19 -->
<g id="edge24" class="edge">
<title>Node15&#45;&gt;Node19</title>
<path fill="none" stroke="midnightblue" d="M416.24,-288.68C365.81,-286.65 280.77,-277.89 217,-244 195.46,-232.55 176.67,-211.35 165.12,-196.27"/>
<polygon fill="midnightblue" stroke="midnightblue" points="167.65,-193.8 158.9,-187.82 162.01,-197.95 167.65,-193.8"/>
</g>
<!-- Node20 -->
<g id="node20" class="node">
<title>Node20</title>
<g id="a_node20"><a xlink:href="a00077.html" target="_top" xlink:title=" ">
<polygon fill="white" stroke="black" points="418.5,-224.5 418.5,-243.5 499.5,-243.5 499.5,-224.5 418.5,-224.5"/>
<text text-anchor="middle" x="459" y="-231.5" font-family="Helvetica,sans-Serif" font-size="10.00">IMaterial.hpp</text>
</a>
</g>
</g>
<!-- Node15&#45;&gt;Node20 -->
<g id="edge28" class="edge">
<title>Node15&#45;&gt;Node20</title>
<path fill="none" stroke="midnightblue" d="M459,-280.08C459,-273.01 459,-262.86 459,-253.99"/>
<polygon fill="midnightblue" stroke="midnightblue" points="462.5,-253.75 459,-243.75 455.5,-253.75 462.5,-253.75"/>
</g>
<!-- Node21 -->
<g id="node21" class="node">
<title>Node21</title>
<g id="a_node21"><a xlink:href="a00137.html" target="_top" xlink:title=" ">
<polygon fill="white" stroke="black" points="494.5,-168.5 494.5,-187.5 549.5,-187.5 549.5,-168.5 494.5,-168.5"/>
<text text-anchor="middle" x="522" y="-175.5" font-family="Helvetica,sans-Serif" font-size="10.00">Ray.hpp</text>
</a>
</g>
</g>
<!-- Node15&#45;&gt;Node21 -->
<g id="edge35" class="edge">
<title>Node15&#45;&gt;Node21</title>
<path fill="none" stroke="midnightblue" d="M472.7,-280.39C484.24,-272.4 500.22,-259.43 509,-244 517.1,-229.78 520.21,-211.31 521.38,-197.69"/>
<polygon fill="midnightblue" stroke="midnightblue" points="524.88,-197.78 521.97,-187.59 517.89,-197.37 524.88,-197.78"/>
</g>
<!-- Node17&#45;&gt;Node8 -->
<g id="edge22" class="edge">
<title>Node17&#45;&gt;Node8</title>
<path fill="none" stroke="midnightblue" d="M628.13,-168.37C609.15,-149.89 564.36,-106.29 540.17,-82.74"/>
<polygon fill="midnightblue" stroke="midnightblue" points="542.43,-80.06 532.83,-75.59 537.55,-85.07 542.43,-80.06"/>
</g>
<!-- Node17&#45;&gt;Node9 -->
<g id="edge23" class="edge">
<title>Node17&#45;&gt;Node9</title>
<path fill="none" stroke="midnightblue" d="M623.97,-168.34C602.17,-154.27 556.5,-126.55 514,-112 443.29,-87.8 356.96,-76.1 304.53,-70.84"/>
<polygon fill="midnightblue" stroke="midnightblue" points="304.8,-67.35 294.51,-69.87 304.13,-74.32 304.8,-67.35"/>
</g>
<!-- Node18 -->
<g id="node18" class="node">
<title>Node18</title>
<g id="a_node18"><a xlink:title=" ">
<polygon fill="white" stroke="#bfbfbf" points="613,-112.5 613,-131.5 661,-131.5 661,-112.5 613,-112.5"/>
<text text-anchor="middle" x="637" y="-119.5" font-family="Helvetica,sans-Serif" font-size="10.00">mutex</text>
</a>
</g>
</g>
<!-- Node17&#45;&gt;Node18 -->
<g id="edge21" class="edge">
<title>Node17&#45;&gt;Node18</title>
<path fill="none" stroke="midnightblue" d="M637,-168.08C637,-161.01 637,-150.86 637,-141.99"/>
<polygon fill="midnightblue" stroke="midnightblue" points="640.5,-141.75 637,-131.75 633.5,-141.75 640.5,-141.75"/>
</g>
<!-- Node19&#45;&gt;Node2 -->
<g id="edge26" class="edge">
<title>Node19&#45;&gt;Node2</title>
<path fill="none" stroke="midnightblue" d="M148.87,-168.08C145.49,-160.77 140.58,-150.18 136.38,-141.1"/>
<polygon fill="midnightblue" stroke="midnightblue" points="139.43,-139.36 132.05,-131.75 133.08,-142.3 139.43,-139.36"/>
</g>
<!-- Node19&#45;&gt;Node4 -->
<g id="edge25" class="edge">
<title>Node19&#45;&gt;Node4</title>
<path fill="none" stroke="midnightblue" d="M154.44,-168.39C155.93,-159.34 158.28,-144.69 160,-132 164.91,-95.8 169.57,-53.36 172.08,-29.59"/>
<polygon fill="midnightblue" stroke="midnightblue" points="175.57,-29.83 173.13,-19.52 168.61,-29.1 175.57,-29.83"/>
</g>
<!-- Node20&#45;&gt;Node6 -->
<g id="edge33" class="edge">
<title>Node20&#45;&gt;Node6</title>
<path fill="none" stroke="midnightblue" d="M444.22,-224.32C429.73,-215.82 407.43,-202.73 390.51,-192.8"/>
<polygon fill="midnightblue" stroke="midnightblue" points="392.14,-189.7 381.74,-187.65 388.6,-195.74 392.14,-189.7"/>
</g>
<!-- Node20&#45;&gt;Node7 -->
<g id="edge34" class="edge">
<title>Node20&#45;&gt;Node7</title>
<path fill="none" stroke="midnightblue" d="M459.55,-224.37C460.68,-206.62 463.28,-165.67 464.82,-141.6"/>
<polygon fill="midnightblue" stroke="midnightblue" points="468.31,-141.79 465.45,-131.59 461.33,-141.35 468.31,-141.79"/>
</g>
<!-- Node20&#45;&gt;Node17 -->
<g id="edge31" class="edge">
<title>Node20&#45;&gt;Node17</title>
<path fill="none" stroke="midnightblue" d="M487.2,-224.44C517.41,-215.28 565.51,-200.69 599.03,-190.52"/>
<polygon fill="midnightblue" stroke="midnightblue" points="600.37,-193.77 608.93,-187.52 598.34,-187.07 600.37,-193.77"/>
</g>
<!-- Node20&#45;&gt;Node19 -->
<g id="edge32" class="edge">
<title>Node20&#45;&gt;Node19</title>
<path fill="none" stroke="midnightblue" d="M418.34,-225.67C415.18,-225.1 412.04,-224.54 409,-224 341.52,-212 264.01,-198.4 212.11,-189.32"/>
<polygon fill="midnightblue" stroke="midnightblue" points="212.54,-185.84 202.09,-187.57 211.34,-192.74 212.54,-185.84"/>
</g>
<!-- Node20&#45;&gt;Node21 -->
<g id="edge29" class="edge">
<title>Node20&#45;&gt;Node21</title>
<path fill="none" stroke="midnightblue" d="M469.12,-224.32C478.53,-216.26 492.74,-204.08 504.07,-194.37"/>
<polygon fill="midnightblue" stroke="midnightblue" points="506.38,-197 511.69,-187.83 501.82,-191.68 506.38,-197"/>
</g>
<!-- Node21&#45;&gt;Node7 -->
<g id="edge30" class="edge">
<title>Node21&#45;&gt;Node7</title>
<path fill="none" stroke="midnightblue" d="M513,-168.32C504.81,-160.42 492.49,-148.55 482.53,-138.94"/>
<polygon fill="midnightblue" stroke="midnightblue" points="484.79,-136.26 475.16,-131.83 479.93,-141.29 484.79,-136.26"/>
</g>
<!-- Node22&#45;&gt;Node6 -->
<g id="edge38" class="edge">
<title>Node22&#45;&gt;Node6</title>
<path fill="none" stroke="midnightblue" d="M284.75,-224.32C300.32,-215.74 324.38,-202.49 342.46,-192.52"/>
<polygon fill="midnightblue" stroke="midnightblue" points="344.22,-195.55 351.29,-187.65 340.85,-189.42 344.22,-195.55"/>
</g>
<!-- Node22&#45;&gt;Node7 -->
<g id="edge40" class="edge">
<title>Node22&#45;&gt;Node7</title>
<path fill="none" stroke="midnightblue" d="M268.81,-224.49C268.98,-210.63 271.42,-183.22 287,-168 305.37,-150.06 370.88,-136.95 417.31,-129.65"/>
<polygon fill="midnightblue" stroke="midnightblue" points="417.84,-133.11 427.2,-128.14 416.78,-126.19 417.84,-133.11"/>
</g>
<!-- Node22&#45;&gt;Node9 -->
<g id="edge39" class="edge">
<title>Node22&#45;&gt;Node9</title>
<path fill="none" stroke="midnightblue" d="M268.35,-224.08C266.47,-197.95 260.92,-121.21 258.34,-85.58"/>
<polygon fill="midnightblue" stroke="midnightblue" points="261.83,-85.29 257.62,-75.57 254.85,-85.79 261.83,-85.29"/>
</g>
</g>
</svg>
