<?xml version="1.0" encoding="UTF-8" standalone="no"?>
<!DOCTYPE svg PUBLIC "-//W3C//DTD SVG 1.1//EN"
 "http://www.w3.org/Graphics/SVG/1.1/DTD/svg11.dtd">
<!-- Generated by graphviz version 2.43.0 (0)
 -->
<!-- Title: /home/runner/work/Raytracer/Raytracer/src/Plugins/Filters/FilterLoader.hpp Pages: 1 -->
<svg width="1206pt" height="554pt"
 viewBox="0.00 0.00 1206.22 554.00" xmlns="http://www.w3.org/2000/svg" xmlns:xlink="http://www.w3.org/1999/xlink">
<g id="graph0" class="graph" transform="scale(1 1) rotate(0) translate(4 550)">
<title>/home/runner/work/Raytracer/Raytracer/src/Plugins/Filters/FilterLoader.hpp</title>
<polygon fill="white" stroke="transparent" points="-4,4 -4,-550 1202.22,-550 1202.22,4 -4,4"/>
<!-- Node1 -->
<g id="node1" class="node">
<title>Node1</title>
<g id="a_node1"><a xlink:title=" ">
<polygon fill="#bfbfbf" stroke="black" points="231.7,-504.5 231.7,-545.5 390.7,-545.5 390.7,-504.5 231.7,-504.5"/>
<text text-anchor="start" x="239.7" y="-533.5" font-family="Helvetica,sans-Serif" font-size="10.00">/home/runner/work/Raytracer</text>
<text text-anchor="start" x="239.7" y="-522.5" font-family="Helvetica,sans-Serif" font-size="10.00">/Raytracer/src/Plugins/Filters</text>
<text text-anchor="middle" x="311.2" y="-511.5" font-family="Helvetica,sans-Serif" font-size="10.00">/FilterLoader.hpp</text>
</a>
</g>
</g>
<!-- Node2 -->
<g id="node2" class="node">
<title>Node2</title>
<g id="a_node2"><a xlink:title=" ">
<polygon fill="white" stroke="#bfbfbf" points="336.2,-168.5 336.2,-187.5 380.2,-187.5 380.2,-168.5 336.2,-168.5"/>
<text text-anchor="middle" x="358.2" y="-175.5" font-family="Helvetica,sans-Serif" font-size="10.00">string</text>
</a>
</g>
</g>
<!-- Node1&#45;&gt;Node2 -->
<g id="edge1" class="edge">
<title>Node1&#45;&gt;Node2</title>
<path fill="none" stroke="midnightblue" d="M274.2,-504.35C241.24,-483.86 198.2,-448.41 198.2,-403 198.2,-403 198.2,-403 198.2,-345 198.2,-290.42 183.42,-265.22 219.2,-224 245.94,-193.19 293.94,-183.33 325.93,-180.26"/>
<polygon fill="midnightblue" stroke="midnightblue" points="326.42,-183.73 336.12,-179.46 325.87,-176.75 326.42,-183.73"/>
</g>
<!-- Node3 -->
<g id="node3" class="node">
<title>Node3</title>
<g id="a_node3"><a xlink:href="a00152.html" target="_top" xlink:title=" ">
<polygon fill="white" stroke="black" points="264.7,-280.5 264.7,-299.5 341.7,-299.5 341.7,-280.5 264.7,-280.5"/>
<text text-anchor="middle" x="303.2" y="-287.5" font-family="Helvetica,sans-Serif" font-size="10.00">TFactory.hpp</text>
</a>
</g>
</g>
<!-- Node1&#45;&gt;Node3 -->
<g id="edge2" class="edge">
<title>Node1&#45;&gt;Node3</title>
<path fill="none" stroke="midnightblue" d="M310.52,-504.13C309,-459.78 305.34,-353.18 303.85,-309.82"/>
<polygon fill="midnightblue" stroke="midnightblue" points="307.34,-309.46 303.5,-299.59 300.34,-309.7 307.34,-309.46"/>
</g>
<!-- Node10 -->
<g id="node10" class="node">
<title>Node10</title>
<g id="a_node10"><a xlink:href="a00155.html" target="_top" xlink:title=" ">
<polygon fill="white" stroke="black" points="824.7,-280.5 824.7,-299.5 889.7,-299.5 889.7,-280.5 824.7,-280.5"/>
<text text-anchor="middle" x="857.2" y="-287.5" font-family="Helvetica,sans-Serif" font-size="10.00">IFilter.hpp</text>
</a>
</g>
</g>
<!-- Node1&#45;&gt;Node10 -->
<g id="edge12" class="edge">
<title>Node1&#45;&gt;Node10</title>
<path fill="none" stroke="midnightblue" d="M390.78,-510.58C479.71,-493.99 626.88,-461.7 746.2,-412 791.09,-393.3 810.98,-394.87 840.2,-356 850.17,-342.74 854.31,-324.16 856.02,-310.26"/>
<polygon fill="midnightblue" stroke="midnightblue" points="859.54,-310.18 856.96,-299.9 852.57,-309.54 859.54,-310.18"/>
</g>
<!-- Node20 -->
<g id="node20" class="node">
<title>Node20</title>
<g id="a_node20"><a xlink:href="a00203.html" target="_top" xlink:title=" ">
<polygon fill="white" stroke="black" points="357.2,-392.5 357.2,-411.5 457.2,-411.5 457.2,-392.5 357.2,-392.5"/>
<text text-anchor="middle" x="407.2" y="-399.5" font-family="Helvetica,sans-Serif" font-size="10.00">FilterHandler.hpp</text>
</a>
</g>
</g>
<!-- Node1&#45;&gt;Node20 -->
<g id="edge27" class="edge">
<title>Node1&#45;&gt;Node20</title>
<path fill="none" stroke="midnightblue" d="M326.84,-504.29C345.52,-480.75 376.43,-441.78 393.98,-419.67"/>
<polygon fill="midnightblue" stroke="midnightblue" points="396.92,-421.58 400.4,-411.57 391.44,-417.23 396.92,-421.58"/>
</g>
<!-- Node24 -->
<g id="node24" class="node">
<title>Node24</title>
<g id="a_node24"><a xlink:href="a00224.html" target="_top" xlink:title=" ">
<polygon fill="white" stroke="black" points="70.2,-336.5 70.2,-355.5 170.2,-355.5 170.2,-336.5 70.2,-336.5"/>
<text text-anchor="middle" x="120.2" y="-343.5" font-family="Helvetica,sans-Serif" font-size="10.00">PluginLoader.hpp</text>
</a>
</g>
</g>
<!-- Node1&#45;&gt;Node24 -->
<g id="edge46" class="edge">
<title>Node1&#45;&gt;Node24</title>
<path fill="none" stroke="midnightblue" d="M244.88,-504.46C223.68,-495.83 201.31,-483.93 184.2,-468 153,-438.95 134.1,-391.2 125.58,-365.22"/>
<polygon fill="midnightblue" stroke="midnightblue" points="128.88,-364.04 122.56,-355.54 122.2,-366.13 128.88,-364.04"/>
</g>
<!-- Node26 -->
<g id="node26" class="node">
<title>Node26</title>
<g id="a_node26"><a xlink:href="a00137.html" target="_top" xlink:title=" ">
<polygon fill="white" stroke="black" points="397.2,-448.5 397.2,-467.5 493.2,-467.5 493.2,-448.5 397.2,-448.5"/>
<text text-anchor="middle" x="445.2" y="-455.5" font-family="Helvetica,sans-Serif" font-size="10.00">FilterFactory.hpp</text>
</a>
</g>
</g>
<!-- Node1&#45;&gt;Node26 -->
<g id="edge51" class="edge">
<title>Node1&#45;&gt;Node26</title>
<path fill="none" stroke="midnightblue" d="M351.4,-504.5C373.04,-494.01 399.13,-481.35 418.3,-472.05"/>
<polygon fill="midnightblue" stroke="midnightblue" points="419.89,-475.17 427.36,-467.65 416.84,-468.87 419.89,-475.17"/>
</g>
<!-- Node3&#45;&gt;Node2 -->
<g id="edge3" class="edge">
<title>Node3&#45;&gt;Node2</title>
<path fill="none" stroke="midnightblue" d="M307.52,-280.37C316.51,-262.38 337.43,-220.55 349.39,-196.63"/>
<polygon fill="midnightblue" stroke="midnightblue" points="352.56,-198.1 353.9,-187.59 346.3,-194.97 352.56,-198.1"/>
</g>
<!-- Node4 -->
<g id="node4" class="node">
<title>Node4</title>
<g id="a_node4"><a xlink:title=" ">
<polygon fill="white" stroke="#bfbfbf" points="525.2,-0.5 525.2,-19.5 583.2,-19.5 583.2,-0.5 525.2,-0.5"/>
<text text-anchor="middle" x="554.2" y="-7.5" font-family="Helvetica,sans-Serif" font-size="10.00">memory</text>
</a>
</g>
</g>
<!-- Node3&#45;&gt;Node4 -->
<g id="edge4" class="edge">
<title>Node3&#45;&gt;Node4</title>
<path fill="none" stroke="midnightblue" d="M273.3,-280.45C231.91,-266.56 162.2,-234.89 162.2,-179 162.2,-179 162.2,-179 162.2,-121 162.2,-48.28 415.42,-21.4 514.82,-13.65"/>
<polygon fill="midnightblue" stroke="midnightblue" points="515.35,-17.12 525.06,-12.87 514.82,-10.14 515.35,-17.12"/>
</g>
<!-- Node5 -->
<g id="node5" class="node">
<title>Node5</title>
<g id="a_node5"><a xlink:title=" ">
<polygon fill="white" stroke="#bfbfbf" points="228.2,-224.5 228.2,-243.5 266.2,-243.5 266.2,-224.5 228.2,-224.5"/>
<text text-anchor="middle" x="247.2" y="-231.5" font-family="Helvetica,sans-Serif" font-size="10.00">map</text>
</a>
</g>
</g>
<!-- Node3&#45;&gt;Node5 -->
<g id="edge5" class="edge">
<title>Node3&#45;&gt;Node5</title>
<path fill="none" stroke="midnightblue" d="M294.2,-280.32C286.01,-272.42 273.69,-260.55 263.73,-250.94"/>
<polygon fill="midnightblue" stroke="midnightblue" points="265.99,-248.26 256.36,-243.83 261.13,-253.29 265.99,-248.26"/>
</g>
<!-- Node6 -->
<g id="node6" class="node">
<title>Node6</title>
<g id="a_node6"><a xlink:href="a00158.html" target="_top" xlink:title=" ">
<polygon fill="white" stroke="black" points="436.7,-224.5 436.7,-243.5 509.7,-243.5 509.7,-224.5 436.7,-224.5"/>
<text text-anchor="middle" x="473.2" y="-231.5" font-family="Helvetica,sans-Serif" font-size="10.00">ILogger.hpp</text>
</a>
</g>
</g>
<!-- Node3&#45;&gt;Node6 -->
<g id="edge6" class="edge">
<title>Node3&#45;&gt;Node6</title>
<path fill="none" stroke="midnightblue" d="M330.14,-280.44C358.86,-271.32 404.53,-256.81 436.52,-246.65"/>
<polygon fill="midnightblue" stroke="midnightblue" points="437.92,-249.88 446.39,-243.52 435.8,-243.21 437.92,-249.88"/>
</g>
<!-- Node8 -->
<g id="node8" class="node">
<title>Node8</title>
<g id="a_node8"><a xlink:href="a00245.html" target="_top" xlink:title=" ">
<polygon fill="white" stroke="black" points="720.7,-56.5 720.7,-75.5 795.7,-75.5 795.7,-56.5 720.7,-56.5"/>
<text text-anchor="middle" x="758.2" y="-63.5" font-family="Helvetica,sans-Serif" font-size="10.00">ISetting.hpp</text>
</a>
</g>
</g>
<!-- Node3&#45;&gt;Node8 -->
<g id="edge9" class="edge">
<title>Node3&#45;&gt;Node8</title>
<path fill="none" stroke="midnightblue" d="M302.05,-280.27C299.66,-258.17 296.69,-199.57 327.2,-168 380.13,-113.22 609.53,-82.72 710.35,-71.74"/>
<polygon fill="midnightblue" stroke="midnightblue" points="710.99,-75.19 720.56,-70.65 710.25,-68.23 710.99,-75.19"/>
</g>
<!-- Node6&#45;&gt;Node2 -->
<g id="edge8" class="edge">
<title>Node6&#45;&gt;Node2</title>
<path fill="none" stroke="midnightblue" d="M454.98,-224.44C436.3,-215.68 407.04,-201.94 385.58,-191.86"/>
<polygon fill="midnightblue" stroke="midnightblue" points="386.88,-188.6 376.34,-187.52 383.9,-194.93 386.88,-188.6"/>
</g>
<!-- Node7 -->
<g id="node7" class="node">
<title>Node7</title>
<g id="a_node7"><a xlink:title=" ">
<polygon fill="white" stroke="#bfbfbf" points="465.7,-168.5 465.7,-187.5 530.7,-187.5 530.7,-168.5 465.7,-168.5"/>
<text text-anchor="middle" x="498.2" y="-175.5" font-family="Helvetica,sans-Serif" font-size="10.00">functional</text>
</a>
</g>
</g>
<!-- Node6&#45;&gt;Node7 -->
<g id="edge7" class="edge">
<title>Node6&#45;&gt;Node7</title>
<path fill="none" stroke="midnightblue" d="M477.33,-224.08C480.71,-216.77 485.62,-206.18 489.82,-197.1"/>
<polygon fill="midnightblue" stroke="midnightblue" points="493.12,-198.3 494.15,-187.75 486.77,-195.36 493.12,-198.3"/>
</g>
<!-- Node8&#45;&gt;Node4 -->
<g id="edge10" class="edge">
<title>Node8&#45;&gt;Node4</title>
<path fill="none" stroke="midnightblue" d="M725.88,-56.44C689.88,-46.92 631.72,-31.52 593.22,-21.33"/>
<polygon fill="midnightblue" stroke="midnightblue" points="593.96,-17.9 583.4,-18.73 592.17,-24.67 593.96,-17.9"/>
</g>
<!-- Node9 -->
<g id="node9" class="node">
<title>Node9</title>
<g id="a_node9"><a xlink:title=" ">
<polygon fill="white" stroke="#bfbfbf" points="716.7,-0.5 716.7,-19.5 799.7,-19.5 799.7,-0.5 716.7,-0.5"/>
<text text-anchor="middle" x="758.2" y="-7.5" font-family="Helvetica,sans-Serif" font-size="10.00">libconfig.h++</text>
</a>
</g>
</g>
<!-- Node8&#45;&gt;Node9 -->
<g id="edge11" class="edge">
<title>Node8&#45;&gt;Node9</title>
<path fill="none" stroke="midnightblue" d="M758.2,-56.08C758.2,-49.01 758.2,-38.86 758.2,-29.99"/>
<polygon fill="midnightblue" stroke="midnightblue" points="761.7,-29.75 758.2,-19.75 754.7,-29.75 761.7,-29.75"/>
</g>
<!-- Node11 -->
<g id="node11" class="node">
<title>Node11</title>
<g id="a_node11"><a xlink:href="a00164.html" target="_top" xlink:title=" ">
<polygon fill="white" stroke="black" points="882.2,-224.5 882.2,-243.5 950.2,-243.5 950.2,-224.5 882.2,-224.5"/>
<text text-anchor="middle" x="916.2" y="-231.5" font-family="Helvetica,sans-Serif" font-size="10.00">Image.hpp</text>
</a>
</g>
</g>
<!-- Node10&#45;&gt;Node11 -->
<g id="edge13" class="edge">
<title>Node10&#45;&gt;Node11</title>
<path fill="none" stroke="midnightblue" d="M866.68,-280.32C875.4,-272.34 888.54,-260.31 899.1,-250.65"/>
<polygon fill="midnightblue" stroke="midnightblue" points="901.53,-253.17 906.55,-243.83 896.81,-248 901.53,-253.17"/>
</g>
<!-- Node11&#45;&gt;Node2 -->
<g id="edge15" class="edge">
<title>Node11&#45;&gt;Node2</title>
<path fill="none" stroke="midnightblue" d="M882.13,-229.7C781.9,-220 488.86,-191.64 390.69,-182.14"/>
<polygon fill="midnightblue" stroke="midnightblue" points="390.78,-178.64 380.49,-181.16 390.1,-185.6 390.78,-178.64"/>
</g>
<!-- Node12 -->
<g id="node12" class="node">
<title>Node12</title>
<g id="a_node12"><a xlink:title=" ">
<polygon fill="white" stroke="#bfbfbf" points="1065.7,-168.5 1065.7,-187.5 1118.7,-187.5 1118.7,-168.5 1065.7,-168.5"/>
<text text-anchor="middle" x="1092.2" y="-175.5" font-family="Helvetica,sans-Serif" font-size="10.00">cstddef</text>
</a>
</g>
</g>
<!-- Node11&#45;&gt;Node12 -->
<g id="edge14" class="edge">
<title>Node11&#45;&gt;Node12</title>
<path fill="none" stroke="midnightblue" d="M944.09,-224.44C974.31,-215.17 1022.64,-200.34 1055.82,-190.16"/>
<polygon fill="midnightblue" stroke="midnightblue" points="1057.06,-193.44 1065.6,-187.16 1055.01,-186.75 1057.06,-193.44"/>
</g>
<!-- Node13 -->
<g id="node13" class="node">
<title>Node13</title>
<g id="a_node13"><a xlink:title=" ">
<polygon fill="white" stroke="#bfbfbf" points="824.7,-168.5 824.7,-187.5 871.7,-187.5 871.7,-168.5 824.7,-168.5"/>
<text text-anchor="middle" x="848.2" y="-175.5" font-family="Helvetica,sans-Serif" font-size="10.00">vector</text>
</a>
</g>
</g>
<!-- Node11&#45;&gt;Node13 -->
<g id="edge16" class="edge">
<title>Node11&#45;&gt;Node13</title>
<path fill="none" stroke="midnightblue" d="M905.27,-224.32C895.03,-216.18 879.48,-203.84 867.2,-194.09"/>
<polygon fill="midnightblue" stroke="midnightblue" points="869.33,-191.31 859.32,-187.83 864.98,-196.79 869.33,-191.31"/>
</g>
<!-- Node14 -->
<g id="node14" class="node">
<title>Node14</title>
<g id="a_node14"><a xlink:href="a00161.html" target="_top" xlink:title=" ">
<polygon fill="white" stroke="black" points="985.2,-168.5 985.2,-187.5 1047.2,-187.5 1047.2,-168.5 985.2,-168.5"/>
<text text-anchor="middle" x="1016.2" y="-175.5" font-family="Helvetica,sans-Serif" font-size="10.00">Color.hpp</text>
</a>
</g>
</g>
<!-- Node11&#45;&gt;Node14 -->
<g id="edge17" class="edge">
<title>Node11&#45;&gt;Node14</title>
<path fill="none" stroke="midnightblue" d="M932.27,-224.32C948.16,-215.74 972.71,-202.49 991.16,-192.52"/>
<polygon fill="midnightblue" stroke="midnightblue" points="993.04,-195.49 1000.17,-187.65 989.71,-189.33 993.04,-195.49"/>
</g>
<!-- Node18 -->
<g id="node18" class="node">
<title>Node18</title>
<g id="a_node18"><a xlink:href="a00128.html" target="_top" xlink:title=" ">
<polygon fill="white" stroke="black" points="889.7,-168.5 889.7,-187.5 966.7,-187.5 966.7,-168.5 889.7,-168.5"/>
<text text-anchor="middle" x="928.2" y="-175.5" font-family="Helvetica,sans-Serif" font-size="10.00">Vector2i.hpp</text>
</a>
</g>
</g>
<!-- Node11&#45;&gt;Node18 -->
<g id="edge22" class="edge">
<title>Node11&#45;&gt;Node18</title>
<path fill="none" stroke="midnightblue" d="M918.18,-224.08C919.77,-216.93 922.06,-206.64 924.05,-197.69"/>
<polygon fill="midnightblue" stroke="midnightblue" points="927.5,-198.27 926.26,-187.75 920.67,-196.75 927.5,-198.27"/>
</g>
<!-- Node14&#45;&gt;Node8 -->
<g id="edge21" class="edge">
<title>Node14&#45;&gt;Node8</title>
<path fill="none" stroke="midnightblue" d="M1005.69,-168.41C988.42,-154.68 952.53,-127.74 918.2,-112 882.11,-95.45 838.59,-83.69 806.05,-76.35"/>
<polygon fill="midnightblue" stroke="midnightblue" points="806.41,-72.85 795.9,-74.13 804.91,-79.69 806.41,-72.85"/>
</g>
<!-- Node15 -->
<g id="node15" class="node">
<title>Node15</title>
<g id="a_node15"><a xlink:title=" ">
<polygon fill="white" stroke="#bfbfbf" points="965.2,-112.5 965.2,-131.5 1013.2,-131.5 1013.2,-112.5 965.2,-112.5"/>
<text text-anchor="middle" x="989.2" y="-119.5" font-family="Helvetica,sans-Serif" font-size="10.00">mutex</text>
</a>
</g>
</g>
<!-- Node14&#45;&gt;Node15 -->
<g id="edge18" class="edge">
<title>Node14&#45;&gt;Node15</title>
<path fill="none" stroke="midnightblue" d="M1011.74,-168.08C1008.05,-160.69 1002.68,-149.95 998.11,-140.81"/>
<polygon fill="midnightblue" stroke="midnightblue" points="1001.18,-139.13 993.58,-131.75 994.92,-142.26 1001.18,-139.13"/>
</g>
<!-- Node16 -->
<g id="node16" class="node">
<title>Node16</title>
<g id="a_node16"><a xlink:title=" ">
<polygon fill="white" stroke="#bfbfbf" points="851.7,-112.5 851.7,-131.5 908.7,-131.5 908.7,-112.5 851.7,-112.5"/>
<text text-anchor="middle" x="880.2" y="-119.5" font-family="Helvetica,sans-Serif" font-size="10.00">ostream</text>
</a>
</g>
</g>
<!-- Node14&#45;&gt;Node16 -->
<g id="edge19" class="edge">
<title>Node14&#45;&gt;Node16</title>
<path fill="none" stroke="midnightblue" d="M994.65,-168.44C972.17,-159.52 936.71,-145.44 911.22,-135.32"/>
<polygon fill="midnightblue" stroke="midnightblue" points="912.23,-131.95 901.65,-131.52 909.65,-138.46 912.23,-131.95"/>
</g>
<!-- Node17 -->
<g id="node17" class="node">
<title>Node17</title>
<g id="a_node17"><a xlink:title=" ">
<polygon fill="white" stroke="#bfbfbf" points="1031.7,-112.5 1031.7,-131.5 1168.7,-131.5 1168.7,-112.5 1031.7,-112.5"/>
<text text-anchor="middle" x="1100.2" y="-119.5" font-family="Helvetica,sans-Serif" font-size="10.00">SFML/Graphics/Color.hpp</text>
</a>
</g>
</g>
<!-- Node14&#45;&gt;Node17 -->
<g id="edge20" class="edge">
<title>Node14&#45;&gt;Node17</title>
<path fill="none" stroke="midnightblue" d="M1029.7,-168.32C1042.8,-159.9 1062.91,-146.97 1078.31,-137.07"/>
<polygon fill="midnightblue" stroke="midnightblue" points="1080.22,-140.01 1086.74,-131.65 1076.43,-134.12 1080.22,-140.01"/>
</g>
<!-- Node18&#45;&gt;Node16 -->
<g id="edge23" class="edge">
<title>Node18&#45;&gt;Node16</title>
<path fill="none" stroke="midnightblue" d="M920.27,-168.08C913.35,-160.3 903.13,-148.8 894.75,-139.37"/>
<polygon fill="midnightblue" stroke="midnightblue" points="897.24,-136.9 887.98,-131.75 892.01,-141.55 897.24,-136.9"/>
</g>
<!-- Node19 -->
<g id="node19" class="node">
<title>Node19</title>
<g id="a_node19"><a xlink:href="a00236.html" target="_top" xlink:title=" ">
<polygon fill="white" stroke="black" points="658.7,-112.5 658.7,-131.5 729.7,-131.5 729.7,-112.5 658.7,-112.5"/>
<text text-anchor="middle" x="694.2" y="-119.5" font-family="Helvetica,sans-Serif" font-size="10.00">IConfig.hpp</text>
</a>
</g>
</g>
<!-- Node18&#45;&gt;Node19 -->
<g id="edge24" class="edge">
<title>Node18&#45;&gt;Node19</title>
<path fill="none" stroke="midnightblue" d="M891.12,-168.44C850.11,-158.98 784.01,-143.73 739.85,-133.54"/>
<polygon fill="midnightblue" stroke="midnightblue" points="740.48,-130.09 729.95,-131.25 738.91,-136.91 740.48,-130.09"/>
</g>
<!-- Node19&#45;&gt;Node4 -->
<g id="edge25" class="edge">
<title>Node19&#45;&gt;Node4</title>
<path fill="none" stroke="midnightblue" d="M683.21,-112.37C659.4,-93.65 602.76,-49.15 573.08,-25.83"/>
<polygon fill="midnightblue" stroke="midnightblue" points="575.16,-23.02 565.13,-19.59 570.84,-28.52 575.16,-23.02"/>
</g>
<!-- Node19&#45;&gt;Node8 -->
<g id="edge26" class="edge">
<title>Node19&#45;&gt;Node8</title>
<path fill="none" stroke="midnightblue" d="M704.48,-112.32C714.04,-104.26 728.48,-92.08 739.98,-82.37"/>
<polygon fill="midnightblue" stroke="midnightblue" points="742.34,-84.96 747.73,-75.83 737.83,-79.61 742.34,-84.96"/>
</g>
<!-- Node20&#45;&gt;Node2 -->
<g id="edge29" class="edge">
<title>Node20&#45;&gt;Node2</title>
<path fill="none" stroke="midnightblue" d="M404.5,-392.43C401.71,-383.42 397.34,-368.79 394.2,-356 380.14,-298.77 367.32,-230.19 361.5,-197.75"/>
<polygon fill="midnightblue" stroke="midnightblue" points="364.88,-196.76 359.68,-187.53 357.99,-197.99 364.88,-196.76"/>
</g>
<!-- Node20&#45;&gt;Node4 -->
<g id="edge28" class="edge">
<title>Node20&#45;&gt;Node4</title>
<path fill="none" stroke="midnightblue" d="M364.57,-392.48C277.26,-372.29 86.2,-312.82 86.2,-179 86.2,-179 86.2,-179 86.2,-121 86.2,-33.27 401.78,-15.45 514.65,-11.88"/>
<polygon fill="midnightblue" stroke="midnightblue" points="515.03,-15.37 524.92,-11.58 514.83,-8.37 515.03,-15.37"/>
</g>
<!-- Node20&#45;&gt;Node6 -->
<g id="edge31" class="edge">
<title>Node20&#45;&gt;Node6</title>
<path fill="none" stroke="midnightblue" d="M410.75,-392.08C421.18,-365.83 451.91,-288.55 466,-253.12"/>
<polygon fill="midnightblue" stroke="midnightblue" points="469.35,-254.15 469.79,-243.57 462.85,-251.57 469.35,-254.15"/>
</g>
<!-- Node20&#45;&gt;Node10 -->
<g id="edge30" class="edge">
<title>Node20&#45;&gt;Node10</title>
<path fill="none" stroke="midnightblue" d="M457.46,-396.56C509.5,-390.94 592.65,-379.07 661.2,-356 679.66,-349.79 682.09,-343.16 700.2,-336 737.91,-321.09 782.49,-308.79 814.49,-300.85"/>
<polygon fill="midnightblue" stroke="midnightblue" points="815.53,-304.19 824.41,-298.42 813.87,-297.39 815.53,-304.19"/>
</g>
<!-- Node20&#45;&gt;Node19 -->
<g id="edge45" class="edge">
<title>Node20&#45;&gt;Node19</title>
<path fill="none" stroke="midnightblue" d="M407.33,-392.44C407.6,-373.94 408.2,-328.81 408.2,-291 408.2,-291 408.2,-291 408.2,-233 408.2,-196.82 426.48,-187.1 457.2,-168 515.97,-131.46 597.62,-123.34 648.12,-122.18"/>
<polygon fill="midnightblue" stroke="midnightblue" points="648.46,-125.68 658.41,-122.03 648.36,-118.68 648.46,-125.68"/>
</g>
<!-- Node21 -->
<g id="node21" class="node">
<title>Node21</title>
<g id="a_node21"><a xlink:href="a00221.html" target="_top" xlink:title=" ">
<polygon fill="white" stroke="black" points="588.7,-280.5 588.7,-299.5 693.7,-299.5 693.7,-280.5 588.7,-280.5"/>
<text text-anchor="middle" x="641.2" y="-287.5" font-family="Helvetica,sans-Serif" font-size="10.00">PluginHandler.hpp</text>
</a>
</g>
</g>
<!-- Node20&#45;&gt;Node21 -->
<g id="edge32" class="edge">
<title>Node20&#45;&gt;Node21</title>
<path fill="none" stroke="midnightblue" d="M424.62,-392.46C450.28,-379.92 499.79,-355.85 542.2,-336 565.9,-324.91 592.95,-312.64 612.78,-303.72"/>
<polygon fill="midnightblue" stroke="midnightblue" points="614.48,-306.79 622.16,-299.5 611.61,-300.41 614.48,-306.79"/>
</g>
<!-- Node23 -->
<g id="node23" class="node">
<title>Node23</title>
<g id="a_node23"><a xlink:href="a00209.html" target="_top" xlink:title=" ">
<polygon fill="white" stroke="black" points="550.7,-336.5 550.7,-355.5 651.7,-355.5 651.7,-336.5 550.7,-336.5"/>
<text text-anchor="middle" x="601.2" y="-343.5" font-family="Helvetica,sans-Serif" font-size="10.00">IFilterCreator.hpp</text>
</a>
</g>
</g>
<!-- Node20&#45;&gt;Node23 -->
<g id="edge40" class="edge">
<title>Node20&#45;&gt;Node23</title>
<path fill="none" stroke="midnightblue" d="M437.94,-392.44C471.14,-383.2 524.19,-368.44 560.76,-358.26"/>
<polygon fill="midnightblue" stroke="midnightblue" points="561.91,-361.57 570.6,-355.52 560.03,-354.83 561.91,-361.57"/>
</g>
<!-- Node21&#45;&gt;Node2 -->
<g id="edge33" class="edge">
<title>Node21&#45;&gt;Node2</title>
<path fill="none" stroke="midnightblue" d="M623.26,-280.43C605.13,-271.66 576.42,-257.44 552.2,-244 537.2,-235.68 534.94,-230.82 519.2,-224 476.3,-205.42 423.65,-192.41 390.5,-185.31"/>
<polygon fill="midnightblue" stroke="midnightblue" points="390.97,-181.83 380.46,-183.21 389.54,-188.68 390.97,-181.83"/>
</g>
<!-- Node21&#45;&gt;Node4 -->
<g id="edge34" class="edge">
<title>Node21&#45;&gt;Node4</title>
<path fill="none" stroke="midnightblue" d="M637.06,-280.35C626.02,-256.96 595.51,-190.28 578.2,-132 567.67,-96.54 560.42,-53.84 556.82,-29.82"/>
<polygon fill="midnightblue" stroke="midnightblue" points="560.25,-29.04 555.35,-19.64 553.32,-30.04 560.25,-29.04"/>
</g>
<!-- Node21&#45;&gt;Node6 -->
<g id="edge38" class="edge">
<title>Node21&#45;&gt;Node6</title>
<path fill="none" stroke="midnightblue" d="M614.58,-280.44C586.19,-271.32 541.06,-256.81 509.45,-246.65"/>
<polygon fill="midnightblue" stroke="midnightblue" points="510.29,-243.24 499.7,-243.52 508.15,-249.91 510.29,-243.24"/>
</g>
<!-- Node21&#45;&gt;Node7 -->
<g id="edge37" class="edge">
<title>Node21&#45;&gt;Node7</title>
<path fill="none" stroke="midnightblue" d="M629.98,-280.37C605.65,-261.65 547.8,-217.15 517.48,-193.83"/>
<polygon fill="midnightblue" stroke="midnightblue" points="519.43,-190.91 509.37,-187.59 515.16,-196.46 519.43,-190.91"/>
</g>
<!-- Node21&#45;&gt;Node8 -->
<g id="edge39" class="edge">
<title>Node21&#45;&gt;Node8</title>
<path fill="none" stroke="midnightblue" d="M657.65,-280.38C671.11,-272.55 689.74,-259.81 701.2,-244 737.46,-193.98 751.36,-119.83 756.07,-85.58"/>
<polygon fill="midnightblue" stroke="midnightblue" points="759.55,-85.95 757.33,-75.59 752.61,-85.07 759.55,-85.95"/>
</g>
<!-- Node21&#45;&gt;Node13 -->
<g id="edge36" class="edge">
<title>Node21&#45;&gt;Node13</title>
<path fill="none" stroke="midnightblue" d="M677.5,-280.49C704.71,-273.19 742.24,-261.12 772.2,-244 795.6,-230.63 818.57,-209.57 833.03,-195.06"/>
<polygon fill="midnightblue" stroke="midnightblue" points="835.66,-197.38 840.13,-187.77 830.64,-192.49 835.66,-197.38"/>
</g>
<!-- Node22 -->
<g id="node22" class="node">
<title>Node22</title>
<g id="a_node22"><a xlink:title=" ">
<polygon fill="white" stroke="#bfbfbf" points="642.2,-224.5 642.2,-243.5 692.2,-243.5 692.2,-224.5 642.2,-224.5"/>
<text text-anchor="middle" x="667.2" y="-231.5" font-family="Helvetica,sans-Serif" font-size="10.00">dlfcn.h</text>
</a>
</g>
</g>
<!-- Node21&#45;&gt;Node22 -->
<g id="edge35" class="edge">
<title>Node21&#45;&gt;Node22</title>
<path fill="none" stroke="midnightblue" d="M645.49,-280.08C649.05,-272.69 654.22,-261.95 658.62,-252.81"/>
<polygon fill="midnightblue" stroke="midnightblue" points="661.8,-254.28 662.99,-243.75 655.5,-251.24 661.8,-254.28"/>
</g>
<!-- Node23&#45;&gt;Node4 -->
<g id="edge41" class="edge">
<title>Node23&#45;&gt;Node4</title>
<path fill="none" stroke="midnightblue" d="M647.56,-336.47C668.27,-330.1 690.78,-319.05 703.2,-300 708.68,-291.59 713.58,-261.37 701.2,-224 686.69,-180.2 600.84,-69.57 567.46,-27.55"/>
<polygon fill="midnightblue" stroke="midnightblue" points="570.15,-25.31 561.18,-19.67 564.68,-29.67 570.15,-25.31"/>
</g>
<!-- Node23&#45;&gt;Node6 -->
<g id="edge43" class="edge">
<title>Node23&#45;&gt;Node6</title>
<path fill="none" stroke="midnightblue" d="M590.13,-336.17C578.94,-327.19 561.21,-312.82 546.2,-300 526.78,-283.42 504.97,-263.88 490.29,-250.58"/>
<polygon fill="midnightblue" stroke="midnightblue" points="492.29,-247.67 482.54,-243.54 487.59,-252.86 492.29,-247.67"/>
</g>
<!-- Node23&#45;&gt;Node8 -->
<g id="edge44" class="edge">
<title>Node23&#45;&gt;Node8</title>
<path fill="none" stroke="midnightblue" d="M644.39,-336.47C672.18,-329.62 708.19,-318.1 736.2,-300 769.22,-278.67 796.2,-274.32 796.2,-235 796.2,-235 796.2,-235 796.2,-177 796.2,-142.81 779.6,-105.76 768.34,-84.57"/>
<polygon fill="midnightblue" stroke="midnightblue" points="771.38,-82.83 763.48,-75.77 765.25,-86.22 771.38,-82.83"/>
</g>
<!-- Node23&#45;&gt;Node10 -->
<g id="edge42" class="edge">
<title>Node23&#45;&gt;Node10</title>
<path fill="none" stroke="midnightblue" d="M641.76,-336.44C688.92,-326.5 766.4,-310.15 814.46,-300.02"/>
<polygon fill="midnightblue" stroke="midnightblue" points="815.48,-303.38 824.54,-297.89 814.04,-296.53 815.48,-303.38"/>
</g>
<!-- Node24&#45;&gt;Node2 -->
<g id="edge47" class="edge">
<title>Node24&#45;&gt;Node2</title>
<path fill="none" stroke="midnightblue" d="M122.33,-336.43C128.3,-314.21 147.37,-254.37 186.2,-224 227.03,-192.07 288.3,-182.67 325.63,-179.98"/>
<polygon fill="midnightblue" stroke="midnightblue" points="326.17,-183.45 335.94,-179.36 325.75,-176.46 326.17,-183.45"/>
</g>
<!-- Node24&#45;&gt;Node3 -->
<g id="edge48" class="edge">
<title>Node24&#45;&gt;Node3</title>
<path fill="none" stroke="midnightblue" d="M149.2,-336.44C180.38,-327.24 230.13,-312.56 264.61,-302.39"/>
<polygon fill="midnightblue" stroke="midnightblue" points="265.74,-305.7 274.34,-299.52 263.76,-298.99 265.74,-305.7"/>
</g>
<!-- Node24&#45;&gt;Node4 -->
<g id="edge50" class="edge">
<title>Node24&#45;&gt;Node4</title>
<path fill="none" stroke="midnightblue" d="M81.82,-336.38C60.62,-329.75 35.37,-318.5 19.2,-300 -0.6,-277.33 0.2,-265.1 0.2,-235 0.2,-235 0.2,-235 0.2,-121 0.2,-15.85 389.04,-9.68 515.19,-10.44"/>
<polygon fill="midnightblue" stroke="midnightblue" points="515.17,-13.94 525.19,-10.52 515.22,-6.94 515.17,-13.94"/>
</g>
<!-- Node25 -->
<g id="node25" class="node">
<title>Node25</title>
<g id="a_node25"><a xlink:title=" ">
<polygon fill="white" stroke="#bfbfbf" points="28.2,-280.5 28.2,-299.5 96.2,-299.5 96.2,-280.5 28.2,-280.5"/>
<text text-anchor="middle" x="62.2" y="-287.5" font-family="Helvetica,sans-Serif" font-size="10.00">filesystem</text>
</a>
</g>
</g>
<!-- Node24&#45;&gt;Node25 -->
<g id="edge49" class="edge">
<title>Node24&#45;&gt;Node25</title>
<path fill="none" stroke="midnightblue" d="M110.88,-336.32C102.31,-328.34 89.39,-316.31 79.01,-306.65"/>
<polygon fill="midnightblue" stroke="midnightblue" points="81.39,-304.09 71.69,-299.83 76.62,-309.21 81.39,-304.09"/>
</g>
<!-- Node26&#45;&gt;Node3 -->
<g id="edge57" class="edge">
<title>Node26&#45;&gt;Node3</title>
<path fill="none" stroke="midnightblue" d="M411.15,-448.37C390.49,-441.57 364.96,-430.13 348.2,-412 321.16,-382.76 309.98,-335.81 305.67,-309.83"/>
<polygon fill="midnightblue" stroke="midnightblue" points="309.11,-309.17 304.17,-299.79 302.18,-310.2 309.11,-309.17"/>
</g>
<!-- Node26&#45;&gt;Node6 -->
<g id="edge56" class="edge">
<title>Node26&#45;&gt;Node6</title>
<path fill="none" stroke="midnightblue" d="M450.47,-448.42C455.56,-439.63 462.95,-425.41 466.2,-412 479.83,-355.84 477.22,-286.75 474.87,-253.98"/>
<polygon fill="midnightblue" stroke="midnightblue" points="478.33,-253.33 474.05,-243.64 471.35,-253.89 478.33,-253.33"/>
</g>
<!-- Node26&#45;&gt;Node10 -->
<g id="edge59" class="edge">
<title>Node26&#45;&gt;Node10</title>
<path fill="none" stroke="midnightblue" d="M493.26,-455.11C569.26,-449.86 718.65,-430.11 817.2,-356 833.05,-344.08 844.04,-323.88 850.43,-309.16"/>
<polygon fill="midnightblue" stroke="midnightblue" points="853.79,-310.18 854.28,-299.6 847.3,-307.57 853.79,-310.18"/>
</g>
<!-- Node26&#45;&gt;Node20 -->
<g id="edge58" class="edge">
<title>Node26&#45;&gt;Node20</title>
<path fill="none" stroke="midnightblue" d="M438.93,-448.08C433.56,-440.46 425.68,-429.26 419.12,-419.94"/>
<polygon fill="midnightblue" stroke="midnightblue" points="421.98,-417.91 413.36,-411.75 416.25,-421.94 421.98,-417.91"/>
</g>
<!-- Node27 -->
<g id="node27" class="node">
<title>Node27</title>
<g id="a_node27"><a xlink:href="a00143.html" target="_top" xlink:title=" ">
<polygon fill="white" stroke="black" points="708.7,-336.5 708.7,-355.5 807.7,-355.5 807.7,-336.5 708.7,-336.5"/>
<text text-anchor="middle" x="758.2" y="-343.5" font-family="Helvetica,sans-Serif" font-size="10.00">IFilterFactory.hpp</text>
</a>
</g>
</g>
<!-- Node26&#45;&gt;Node27 -->
<g id="edge52" class="edge">
<title>Node26&#45;&gt;Node27</title>
<path fill="none" stroke="midnightblue" d="M469.5,-448.46C524.85,-429.01 660.44,-381.36 724.12,-358.98"/>
<polygon fill="midnightblue" stroke="midnightblue" points="725.43,-362.23 733.7,-355.61 723.11,-355.62 725.43,-362.23"/>
</g>
<!-- Node27&#45;&gt;Node6 -->
<g id="edge54" class="edge">
<title>Node27&#45;&gt;Node6</title>
<path fill="none" stroke="midnightblue" d="M708.58,-336.58C672.15,-329.42 621.95,-317.49 580.2,-300 575.75,-298.14 525.96,-267.57 495.89,-249.02"/>
<polygon fill="midnightblue" stroke="midnightblue" points="497.62,-245.97 487.27,-243.7 493.94,-251.93 497.62,-245.97"/>
</g>
<!-- Node27&#45;&gt;Node8 -->
<g id="edge53" class="edge">
<title>Node27&#45;&gt;Node8</title>
<path fill="none" stroke="midnightblue" d="M807.71,-343.02C922.52,-337.08 1197.2,-314.55 1197.2,-235 1197.2,-235 1197.2,-235 1197.2,-177 1197.2,-146.9 1201.29,-131.31 1178.2,-112 1150.13,-88.52 910.4,-74.29 806.22,-69.17"/>
<polygon fill="midnightblue" stroke="midnightblue" points="806.14,-65.66 795.98,-68.67 805.8,-72.65 806.14,-65.66"/>
</g>
<!-- Node27&#45;&gt;Node10 -->
<g id="edge55" class="edge">
<title>Node27&#45;&gt;Node10</title>
<path fill="none" stroke="midnightblue" d="M774.11,-336.32C789.84,-327.74 814.14,-314.49 832.41,-304.52"/>
<polygon fill="midnightblue" stroke="midnightblue" points="834.23,-307.52 841.33,-299.65 830.88,-301.37 834.23,-307.52"/>
</g>
</g>
</svg>
