<?xml version="1.0" encoding="UTF-8" standalone="no"?>
<!DOCTYPE svg PUBLIC "-//W3C//DTD SVG 1.1//EN"
 "http://www.w3.org/Graphics/SVG/1.1/DTD/svg11.dtd">
<!-- Generated by graphviz version 2.43.0 (0)
 -->
<!-- Title: /home/runner/work/Raytracer/Raytracer/src/Scenes/SceneState.hpp Pages: 1 -->
<svg width="208pt" height="173pt"
 viewBox="0.00 0.00 208.00 173.00" xmlns="http://www.w3.org/2000/svg" xmlns:xlink="http://www.w3.org/1999/xlink">
<g id="graph0" class="graph" transform="scale(1 1) rotate(0) translate(4 169)">
<title>/home/runner/work/Raytracer/Raytracer/src/Scenes/SceneState.hpp</title>
<polygon fill="white" stroke="transparent" points="-4,4 -4,-169 204,-169 204,4 -4,4"/>
<!-- Node1 -->
<g id="node1" class="node">
<title>Node1</title>
<g id="a_node1"><a xlink:title=" ">
<polygon fill="#bfbfbf" stroke="black" points="0,-134.5 0,-164.5 200,-164.5 200,-134.5 0,-134.5"/>
<text text-anchor="start" x="8" y="-152.5" font-family="Helvetica,sans-Serif" font-size="10.00">/home/runner/work/Raytracer</text>
<text text-anchor="middle" x="100" y="-141.5" font-family="Helvetica,sans-Serif" font-size="10.00">/Raytracer/src/Scenes/SceneState.hpp</text>
</a>
</g>
</g>
<!-- Node2 -->
<g id="node2" class="node">
<title>Node2</title>
<g id="a_node2"><a xlink:href="a00209.html" target="_top" xlink:title=" ">
<polygon fill="white" stroke="black" points="12.5,-67.5 12.5,-97.5 187.5,-97.5 187.5,-67.5 12.5,-67.5"/>
<text text-anchor="start" x="20.5" y="-85.5" font-family="Helvetica,sans-Serif" font-size="10.00">/home/runner/work/Raytracer</text>
<text text-anchor="middle" x="100" y="-74.5" font-family="Helvetica,sans-Serif" font-size="10.00">/Raytracer/src/Scenes/Scene.hpp</text>
</a>
</g>
</g>
<!-- Node1&#45;&gt;Node2 -->
<g id="edge1" class="edge">
<title>Node1&#45;&gt;Node2</title>
<path fill="none" stroke="midnightblue" d="M100,-124.11C100,-115.15 100,-105.32 100,-97.58"/>
<polygon fill="midnightblue" stroke="midnightblue" points="96.5,-124.4 100,-134.4 103.5,-124.4 96.5,-124.4"/>
</g>
<!-- Node3 -->
<g id="node3" class="node">
<title>Node3</title>
<g id="a_node3"><a xlink:href="a00146.html" target="_top" xlink:title=" ">
<polygon fill="white" stroke="black" points="20.5,-0.5 20.5,-30.5 179.5,-30.5 179.5,-0.5 20.5,-0.5"/>
<text text-anchor="start" x="28.5" y="-18.5" font-family="Helvetica,sans-Serif" font-size="10.00">/home/runner/work/Raytracer</text>
<text text-anchor="middle" x="100" y="-7.5" font-family="Helvetica,sans-Serif" font-size="10.00">/Raytracer/src/Main.hpp</text>
</a>
</g>
</g>
<!-- Node2&#45;&gt;Node3 -->
<g id="edge2" class="edge">
<title>Node2&#45;&gt;Node3</title>
<path fill="none" stroke="midnightblue" d="M100,-57.11C100,-48.15 100,-38.32 100,-30.58"/>
<polygon fill="midnightblue" stroke="midnightblue" points="96.5,-57.4 100,-67.4 103.5,-57.4 96.5,-57.4"/>
</g>
</g>
</svg>
