<?xml version="1.0" encoding="UTF-8" standalone="no"?>
<!DOCTYPE svg PUBLIC "-//W3C//DTD SVG 1.1//EN"
 "http://www.w3.org/Graphics/SVG/1.1/DTD/svg11.dtd">
<!-- Generated by graphviz version 2.43.0 (0)
 -->
<!-- Title: /home/runner/work/Raytracer/Raytracer/src/Plugins/Materials/MaterialHandler.hpp Pages: 1 -->
<svg width="891pt" height="386pt"
 viewBox="0.00 0.00 890.52 386.00" xmlns="http://www.w3.org/2000/svg" xmlns:xlink="http://www.w3.org/1999/xlink">
<g id="graph0" class="graph" transform="scale(1 1) rotate(0) translate(4 382)">
<title>/home/runner/work/Raytracer/Raytracer/src/Plugins/Materials/MaterialHandler.hpp</title>
<polygon fill="white" stroke="transparent" points="-4,4 -4,-382 886.52,-382 886.52,4 -4,4"/>
<!-- Node1 -->
<g id="node1" class="node">
<title>Node1</title>
<g id="a_node1"><a xlink:title=" ">
<polygon fill="#bfbfbf" stroke="black" points="416.48,-336.5 416.48,-377.5 587.48,-377.5 587.48,-336.5 416.48,-336.5"/>
<text text-anchor="start" x="424.48" y="-365.5" font-family="Helvetica,sans-Serif" font-size="10.00">/home/runner/work/Raytracer</text>
<text text-anchor="start" x="424.48" y="-354.5" font-family="Helvetica,sans-Serif" font-size="10.00">/Raytracer/src/Plugins/Materials</text>
<text text-anchor="middle" x="501.98" y="-343.5" font-family="Helvetica,sans-Serif" font-size="10.00">/MaterialHandler.hpp</text>
</a>
</g>
</g>
<!-- Node2 -->
<g id="node2" class="node">
<title>Node2</title>
<g id="a_node2"><a xlink:title=" ">
<polygon fill="white" stroke="#bfbfbf" points="357.98,-0.5 357.98,-19.5 415.98,-19.5 415.98,-0.5 357.98,-0.5"/>
<text text-anchor="middle" x="386.98" y="-7.5" font-family="Helvetica,sans-Serif" font-size="10.00">memory</text>
</a>
</g>
</g>
<!-- Node1&#45;&gt;Node2 -->
<g id="edge1" class="edge">
<title>Node1&#45;&gt;Node2</title>
<path fill="none" stroke="midnightblue" d="M416.43,-352.82C273.34,-345.15 0.98,-319.45 0.98,-235 0.98,-235 0.98,-235 0.98,-121 0.98,-90.9 -2.95,-75.49 19.98,-56 68.66,-14.65 263.41,-10.39 347.73,-10.55"/>
<polygon fill="midnightblue" stroke="midnightblue" points="347.91,-14.05 357.92,-10.59 347.94,-7.05 347.91,-14.05"/>
</g>
<!-- Node3 -->
<g id="node3" class="node">
<title>Node3</title>
<g id="a_node3"><a xlink:title=" ">
<polygon fill="white" stroke="#bfbfbf" points="544.98,-168.5 544.98,-187.5 588.98,-187.5 588.98,-168.5 544.98,-168.5"/>
<text text-anchor="middle" x="566.98" y="-175.5" font-family="Helvetica,sans-Serif" font-size="10.00">string</text>
</a>
</g>
</g>
<!-- Node1&#45;&gt;Node3 -->
<g id="edge2" class="edge">
<title>Node1&#45;&gt;Node3</title>
<path fill="none" stroke="midnightblue" d="M501.23,-336.05C501.03,-309.15 503.59,-260.41 521.98,-224 527.86,-212.37 537.87,-201.91 546.96,-194.01"/>
<polygon fill="midnightblue" stroke="midnightblue" points="549.38,-196.55 554.9,-187.51 544.94,-191.13 549.38,-196.55"/>
</g>
<!-- Node4 -->
<g id="node4" class="node">
<title>Node4</title>
<g id="a_node4"><a xlink:href="a00113.html" target="_top" xlink:title=" ">
<polygon fill="white" stroke="black" points="197.48,-224.5 197.48,-243.5 278.48,-243.5 278.48,-224.5 197.48,-224.5"/>
<text text-anchor="middle" x="237.98" y="-231.5" font-family="Helvetica,sans-Serif" font-size="10.00">IMaterial.hpp</text>
</a>
</g>
</g>
<!-- Node1&#45;&gt;Node4 -->
<g id="edge3" class="edge">
<title>Node1&#45;&gt;Node4</title>
<path fill="none" stroke="midnightblue" d="M441.02,-336.49C412.57,-326.68 378.54,-313.92 348.98,-300 316.64,-284.76 281.33,-263.15 259.42,-249.11"/>
<polygon fill="midnightblue" stroke="midnightblue" points="261.19,-246.09 250.9,-243.59 257.39,-251.96 261.19,-246.09"/>
</g>
<!-- Node8 -->
<g id="node8" class="node">
<title>Node8</title>
<g id="a_node8"><a xlink:href="a00242.html" target="_top" xlink:title=" ">
<polygon fill="white" stroke="black" points="445.48,-56.5 445.48,-75.5 520.48,-75.5 520.48,-56.5 445.48,-56.5"/>
<text text-anchor="middle" x="482.98" y="-63.5" font-family="Helvetica,sans-Serif" font-size="10.00">ISetting.hpp</text>
</a>
</g>
</g>
<!-- Node1&#45;&gt;Node8 -->
<g id="edge37" class="edge">
<title>Node1&#45;&gt;Node8</title>
<path fill="none" stroke="midnightblue" d="M587.53,-356.11C715.45,-352.81 935.09,-331.83 870.98,-224 799.79,-104.26 617.64,-75.81 530.64,-69.08"/>
<polygon fill="midnightblue" stroke="midnightblue" points="530.74,-65.57 520.51,-68.36 530.24,-72.56 530.74,-65.57"/>
</g>
<!-- Node16 -->
<g id="node16" class="node">
<title>Node16</title>
<g id="a_node16"><a xlink:href="a00209.html" target="_top" xlink:title=" ">
<polygon fill="white" stroke="black" points="357.98,-280.5 357.98,-299.5 473.98,-299.5 473.98,-280.5 357.98,-280.5"/>
<text text-anchor="middle" x="415.98" y="-287.5" font-family="Helvetica,sans-Serif" font-size="10.00">IMaterialCreator.hpp</text>
</a>
</g>
</g>
<!-- Node1&#45;&gt;Node16 -->
<g id="edge21" class="edge">
<title>Node1&#45;&gt;Node16</title>
<path fill="none" stroke="midnightblue" d="M476.18,-336.5C463.12,-326.63 447.53,-314.84 435.49,-305.74"/>
<polygon fill="midnightblue" stroke="midnightblue" points="437.52,-302.89 427.43,-299.65 433.3,-308.47 437.52,-302.89"/>
</g>
<!-- Node17 -->
<g id="node17" class="node">
<title>Node17</title>
<g id="a_node17"><a xlink:href="a00155.html" target="_top" xlink:title=" ">
<polygon fill="white" stroke="black" points="530.48,-224.5 530.48,-243.5 603.48,-243.5 603.48,-224.5 530.48,-224.5"/>
<text text-anchor="middle" x="566.98" y="-231.5" font-family="Helvetica,sans-Serif" font-size="10.00">ILogger.hpp</text>
</a>
</g>
</g>
<!-- Node1&#45;&gt;Node17 -->
<g id="edge28" class="edge">
<title>Node1&#45;&gt;Node17</title>
<path fill="none" stroke="midnightblue" d="M512.57,-336.29C525.05,-313.06 545.6,-274.82 557.55,-252.56"/>
<polygon fill="midnightblue" stroke="midnightblue" points="560.73,-254.04 562.38,-243.57 554.56,-250.73 560.73,-254.04"/>
</g>
<!-- Node19 -->
<g id="node19" class="node">
<title>Node19</title>
<g id="a_node19"><a xlink:href="a00218.html" target="_top" xlink:title=" ">
<polygon fill="white" stroke="black" points="636.48,-280.5 636.48,-299.5 741.48,-299.5 741.48,-280.5 636.48,-280.5"/>
<text text-anchor="middle" x="688.98" y="-287.5" font-family="Helvetica,sans-Serif" font-size="10.00">PluginHandler.hpp</text>
</a>
</g>
</g>
<!-- Node1&#45;&gt;Node19 -->
<g id="edge29" class="edge">
<title>Node1&#45;&gt;Node19</title>
<path fill="none" stroke="midnightblue" d="M558.09,-336.5C589.38,-325.62 627.36,-312.42 654.33,-303.05"/>
<polygon fill="midnightblue" stroke="midnightblue" points="655.8,-306.24 664.09,-299.65 653.5,-299.63 655.8,-306.24"/>
</g>
<!-- Node5 -->
<g id="node5" class="node">
<title>Node5</title>
<g id="a_node5"><a xlink:href="a00173.html" target="_top" xlink:title=" ">
<polygon fill="white" stroke="black" points="81.48,-168.5 81.48,-187.5 136.48,-187.5 136.48,-168.5 81.48,-168.5"/>
<text text-anchor="middle" x="108.98" y="-175.5" font-family="Helvetica,sans-Serif" font-size="10.00">Ray.hpp</text>
</a>
</g>
</g>
<!-- Node4&#45;&gt;Node5 -->
<g id="edge4" class="edge">
<title>Node4&#45;&gt;Node5</title>
<path fill="none" stroke="midnightblue" d="M217.54,-224.44C196.31,-215.56 162.89,-201.56 138.73,-191.45"/>
<polygon fill="midnightblue" stroke="midnightblue" points="139.91,-188.15 129.33,-187.52 137.2,-194.61 139.91,-188.15"/>
</g>
<!-- Node6 -->
<g id="node6" class="node">
<title>Node6</title>
<g id="a_node6"><a xlink:href="a00128.html" target="_top" xlink:title=" ">
<polygon fill="white" stroke="black" points="206.48,-112.5 206.48,-131.5 283.48,-131.5 283.48,-112.5 206.48,-112.5"/>
<text text-anchor="middle" x="244.98" y="-119.5" font-family="Helvetica,sans-Serif" font-size="10.00">Vector3f.hpp</text>
</a>
</g>
</g>
<!-- Node4&#45;&gt;Node6 -->
<g id="edge20" class="edge">
<title>Node4&#45;&gt;Node6</title>
<path fill="none" stroke="midnightblue" d="M221.71,-224.48C201.9,-212.88 172.41,-190.92 183.98,-168 190.79,-154.52 203.75,-144.08 215.98,-136.67"/>
<polygon fill="midnightblue" stroke="midnightblue" points="218.05,-139.52 225.08,-131.59 214.64,-133.41 218.05,-139.52"/>
</g>
<!-- Node10 -->
<g id="node10" class="node">
<title>Node10</title>
<g id="a_node10"><a xlink:href="a00158.html" target="_top" xlink:title=" ">
<polygon fill="white" stroke="black" points="125.98,-112.5 125.98,-131.5 187.98,-131.5 187.98,-112.5 125.98,-112.5"/>
<text text-anchor="middle" x="156.98" y="-119.5" font-family="Helvetica,sans-Serif" font-size="10.00">Color.hpp</text>
</a>
</g>
</g>
<!-- Node4&#45;&gt;Node10 -->
<g id="edge10" class="edge">
<title>Node4&#45;&gt;Node10</title>
<path fill="none" stroke="midnightblue" d="M197.24,-227.65C153.16,-220.92 87.13,-207.8 71.98,-188 54.67,-165.37 88.63,-146.52 118.62,-135.05"/>
<polygon fill="midnightblue" stroke="midnightblue" points="119.95,-138.29 128.16,-131.59 117.56,-131.71 119.95,-138.29"/>
</g>
<!-- Node13 -->
<g id="node13" class="node">
<title>Node13</title>
<g id="a_node13"><a xlink:href="a00236.html" target="_top" xlink:title=" ">
<polygon fill="white" stroke="black" points="299.98,-168.5 299.98,-187.5 397.98,-187.5 397.98,-168.5 299.98,-168.5"/>
<text text-anchor="middle" x="348.98" y="-175.5" font-family="Helvetica,sans-Serif" font-size="10.00">IDisplayable.hpp</text>
</a>
</g>
</g>
<!-- Node4&#45;&gt;Node13 -->
<g id="edge15" class="edge">
<title>Node4&#45;&gt;Node13</title>
<path fill="none" stroke="midnightblue" d="M255.82,-224.32C273.7,-215.62 301.46,-202.12 322.03,-192.11"/>
<polygon fill="midnightblue" stroke="midnightblue" points="323.73,-195.18 331.19,-187.65 320.67,-188.88 323.73,-195.18"/>
</g>
<!-- Node15 -->
<g id="node15" class="node">
<title>Node15</title>
<g id="a_node15"><a xlink:href="a00119.html" target="_top" xlink:title=" ">
<polygon fill="white" stroke="black" points="193.48,-168.5 193.48,-187.5 282.48,-187.5 282.48,-168.5 193.48,-168.5"/>
<text text-anchor="middle" x="237.98" y="-175.5" font-family="Helvetica,sans-Serif" font-size="10.00">ITransform.hpp</text>
</a>
</g>
</g>
<!-- Node4&#45;&gt;Node15 -->
<g id="edge18" class="edge">
<title>Node4&#45;&gt;Node15</title>
<path fill="none" stroke="midnightblue" d="M237.98,-224.08C237.98,-217.01 237.98,-206.86 237.98,-197.99"/>
<polygon fill="midnightblue" stroke="midnightblue" points="241.48,-197.75 237.98,-187.75 234.48,-197.75 241.48,-197.75"/>
</g>
<!-- Node5&#45;&gt;Node6 -->
<g id="edge5" class="edge">
<title>Node5&#45;&gt;Node6</title>
<path fill="none" stroke="midnightblue" d="M130.53,-168.44C153.02,-159.52 188.47,-145.44 213.96,-135.32"/>
<polygon fill="midnightblue" stroke="midnightblue" points="215.53,-138.46 223.54,-131.52 212.95,-131.95 215.53,-138.46"/>
</g>
<!-- Node7 -->
<g id="node7" class="node">
<title>Node7</title>
<g id="a_node7"><a xlink:title=" ">
<polygon fill="white" stroke="#bfbfbf" points="250.48,-56.5 250.48,-75.5 307.48,-75.5 307.48,-56.5 250.48,-56.5"/>
<text text-anchor="middle" x="278.98" y="-63.5" font-family="Helvetica,sans-Serif" font-size="10.00">ostream</text>
</a>
</g>
</g>
<!-- Node6&#45;&gt;Node7 -->
<g id="edge6" class="edge">
<title>Node6&#45;&gt;Node7</title>
<path fill="none" stroke="midnightblue" d="M250.6,-112.08C255.35,-104.53 262.3,-93.49 268.14,-84.23"/>
<polygon fill="midnightblue" stroke="midnightblue" points="271.11,-86.08 273.47,-75.75 265.18,-82.35 271.11,-86.08"/>
</g>
<!-- Node6&#45;&gt;Node8 -->
<g id="edge7" class="edge">
<title>Node6&#45;&gt;Node8</title>
<path fill="none" stroke="midnightblue" d="M282.7,-112.44C324.13,-103.04 390.74,-87.93 435.65,-77.74"/>
<polygon fill="midnightblue" stroke="midnightblue" points="436.47,-81.14 445.45,-75.52 434.92,-74.32 436.47,-81.14"/>
</g>
<!-- Node8&#45;&gt;Node2 -->
<g id="edge8" class="edge">
<title>Node8&#45;&gt;Node2</title>
<path fill="none" stroke="midnightblue" d="M467.56,-56.32C452.45,-47.82 429.17,-34.73 411.51,-24.8"/>
<polygon fill="midnightblue" stroke="midnightblue" points="412.8,-21.51 402.37,-19.65 409.37,-27.61 412.8,-21.51"/>
</g>
<!-- Node9 -->
<g id="node9" class="node">
<title>Node9</title>
<g id="a_node9"><a xlink:title=" ">
<polygon fill="white" stroke="#bfbfbf" points="441.48,-0.5 441.48,-19.5 524.48,-19.5 524.48,-0.5 441.48,-0.5"/>
<text text-anchor="middle" x="482.98" y="-7.5" font-family="Helvetica,sans-Serif" font-size="10.00">libconfig.h++</text>
</a>
</g>
</g>
<!-- Node8&#45;&gt;Node9 -->
<g id="edge9" class="edge">
<title>Node8&#45;&gt;Node9</title>
<path fill="none" stroke="midnightblue" d="M482.98,-56.08C482.98,-49.01 482.98,-38.86 482.98,-29.99"/>
<polygon fill="midnightblue" stroke="midnightblue" points="486.48,-29.75 482.98,-19.75 479.48,-29.75 486.48,-29.75"/>
</g>
<!-- Node10&#45;&gt;Node7 -->
<g id="edge12" class="edge">
<title>Node10&#45;&gt;Node7</title>
<path fill="none" stroke="midnightblue" d="M176.32,-112.44C196.3,-103.6 227.73,-89.69 250.55,-79.59"/>
<polygon fill="midnightblue" stroke="midnightblue" points="252.02,-82.76 259.74,-75.52 249.18,-76.36 252.02,-82.76"/>
</g>
<!-- Node10&#45;&gt;Node8 -->
<g id="edge14" class="edge">
<title>Node10&#45;&gt;Node8</title>
<path fill="none" stroke="midnightblue" d="M188.39,-113.73C191.29,-113.12 194.19,-112.53 196.98,-112 280.41,-96.07 378.32,-81.56 435.23,-73.54"/>
<polygon fill="midnightblue" stroke="midnightblue" points="435.95,-76.97 445.37,-72.12 434.98,-70.04 435.95,-76.97"/>
</g>
<!-- Node11 -->
<g id="node11" class="node">
<title>Node11</title>
<g id="a_node11"><a xlink:title=" ">
<polygon fill="white" stroke="#bfbfbf" points="28.98,-56.5 28.98,-75.5 76.98,-75.5 76.98,-56.5 28.98,-56.5"/>
<text text-anchor="middle" x="52.98" y="-63.5" font-family="Helvetica,sans-Serif" font-size="10.00">mutex</text>
</a>
</g>
</g>
<!-- Node10&#45;&gt;Node11 -->
<g id="edge11" class="edge">
<title>Node10&#45;&gt;Node11</title>
<path fill="none" stroke="midnightblue" d="M140.28,-112.32C123.67,-103.7 97.98,-90.36 78.76,-80.39"/>
<polygon fill="midnightblue" stroke="midnightblue" points="80.14,-77.16 69.65,-75.65 76.91,-83.37 80.14,-77.16"/>
</g>
<!-- Node12 -->
<g id="node12" class="node">
<title>Node12</title>
<g id="a_node12"><a xlink:title=" ">
<polygon fill="white" stroke="#bfbfbf" points="95.48,-56.5 95.48,-75.5 232.48,-75.5 232.48,-56.5 95.48,-56.5"/>
<text text-anchor="middle" x="163.98" y="-63.5" font-family="Helvetica,sans-Serif" font-size="10.00">SFML/Graphics/Color.hpp</text>
</a>
</g>
</g>
<!-- Node10&#45;&gt;Node12 -->
<g id="edge13" class="edge">
<title>Node10&#45;&gt;Node12</title>
<path fill="none" stroke="midnightblue" d="M158.14,-112.08C159.07,-104.93 160.4,-94.64 161.56,-85.69"/>
<polygon fill="midnightblue" stroke="midnightblue" points="165.04,-86.12 162.85,-75.75 158.09,-85.22 165.04,-86.12"/>
</g>
<!-- Node13&#45;&gt;Node2 -->
<g id="edge16" class="edge">
<title>Node13&#45;&gt;Node2</title>
<path fill="none" stroke="midnightblue" d="M350.36,-168.42C353.64,-148.52 362.39,-97.72 372.98,-56 375.25,-47.07 378.24,-37.28 380.86,-29.13"/>
<polygon fill="midnightblue" stroke="midnightblue" points="384.22,-30.14 384.03,-19.55 377.57,-27.95 384.22,-30.14"/>
</g>
<!-- Node14 -->
<g id="node14" class="node">
<title>Node14</title>
<g id="a_node14"><a xlink:title=" ">
<polygon fill="white" stroke="#bfbfbf" points="415.48,-112.5 415.48,-131.5 462.48,-131.5 462.48,-112.5 415.48,-112.5"/>
<text text-anchor="middle" x="438.98" y="-119.5" font-family="Helvetica,sans-Serif" font-size="10.00">vector</text>
</a>
</g>
</g>
<!-- Node13&#45;&gt;Node14 -->
<g id="edge17" class="edge">
<title>Node13&#45;&gt;Node14</title>
<path fill="none" stroke="midnightblue" d="M363.44,-168.32C377.48,-159.9 399.03,-146.97 415.53,-137.07"/>
<polygon fill="midnightblue" stroke="midnightblue" points="417.79,-139.8 424.56,-131.65 414.18,-133.8 417.79,-139.8"/>
</g>
<!-- Node15&#45;&gt;Node6 -->
<g id="edge19" class="edge">
<title>Node15&#45;&gt;Node6</title>
<path fill="none" stroke="midnightblue" d="M239.14,-168.08C240.07,-160.93 241.4,-150.64 242.56,-141.69"/>
<polygon fill="midnightblue" stroke="midnightblue" points="246.04,-142.12 243.85,-131.75 239.09,-141.22 246.04,-142.12"/>
</g>
<!-- Node16&#45;&gt;Node2 -->
<g id="edge22" class="edge">
<title>Node16&#45;&gt;Node2</title>
<path fill="none" stroke="midnightblue" d="M415.5,-280.48C414.36,-260.69 411.23,-210.13 406.98,-168 401.95,-118.04 393.91,-59.41 389.72,-29.94"/>
<polygon fill="midnightblue" stroke="midnightblue" points="393.16,-29.24 388.28,-19.83 386.23,-30.23 393.16,-29.24"/>
</g>
<!-- Node16&#45;&gt;Node4 -->
<g id="edge23" class="edge">
<title>Node16&#45;&gt;Node4</title>
<path fill="none" stroke="midnightblue" d="M387.78,-280.44C357.57,-271.28 309.47,-256.69 275.96,-246.52"/>
<polygon fill="midnightblue" stroke="midnightblue" points="276.64,-243.07 266.06,-243.52 274.61,-249.77 276.64,-243.07"/>
</g>
<!-- Node16&#45;&gt;Node8 -->
<g id="edge27" class="edge">
<title>Node16&#45;&gt;Node8</title>
<path fill="none" stroke="midnightblue" d="M421.34,-280.3C426.63,-271.43 434.68,-257.13 439.98,-244 459.39,-196 460.54,-182.49 471.98,-132 475.47,-116.63 478.39,-99 480.34,-85.97"/>
<polygon fill="midnightblue" stroke="midnightblue" points="483.83,-86.29 481.8,-75.89 476.9,-85.29 483.83,-86.29"/>
</g>
<!-- Node16&#45;&gt;Node17 -->
<g id="edge24" class="edge">
<title>Node16&#45;&gt;Node17</title>
<path fill="none" stroke="midnightblue" d="M439.91,-280.44C465.2,-271.4 505.29,-257.06 533.66,-246.92"/>
<polygon fill="midnightblue" stroke="midnightblue" points="534.93,-250.18 543.17,-243.52 532.58,-243.59 534.93,-250.18"/>
</g>
<!-- Node17&#45;&gt;Node3 -->
<g id="edge26" class="edge">
<title>Node17&#45;&gt;Node3</title>
<path fill="none" stroke="midnightblue" d="M566.98,-224.08C566.98,-217.01 566.98,-206.86 566.98,-197.99"/>
<polygon fill="midnightblue" stroke="midnightblue" points="570.48,-197.75 566.98,-187.75 563.48,-197.75 570.48,-197.75"/>
</g>
<!-- Node18 -->
<g id="node18" class="node">
<title>Node18</title>
<g id="a_node18"><a xlink:title=" ">
<polygon fill="white" stroke="#bfbfbf" points="611.48,-168.5 611.48,-187.5 676.48,-187.5 676.48,-168.5 611.48,-168.5"/>
<text text-anchor="middle" x="643.98" y="-175.5" font-family="Helvetica,sans-Serif" font-size="10.00">functional</text>
</a>
</g>
</g>
<!-- Node17&#45;&gt;Node18 -->
<g id="edge25" class="edge">
<title>Node17&#45;&gt;Node18</title>
<path fill="none" stroke="midnightblue" d="M579.36,-224.32C591.14,-216.06 609.12,-203.45 623.12,-193.63"/>
<polygon fill="midnightblue" stroke="midnightblue" points="625.47,-196.26 631.64,-187.65 621.45,-190.53 625.47,-196.26"/>
</g>
<!-- Node19&#45;&gt;Node2 -->
<g id="edge31" class="edge">
<title>Node19&#45;&gt;Node2</title>
<path fill="none" stroke="midnightblue" d="M700.25,-280.43C709.95,-272.27 723.26,-259.05 728.98,-244 732.14,-235.69 729.61,-232.87 728.98,-224 727.2,-198.92 732.23,-190.49 720.98,-168 705.24,-136.52 694.25,-131.56 664.98,-112 588.43,-60.82 482.7,-31.78 426.25,-18.98"/>
<polygon fill="midnightblue" stroke="midnightblue" points="426.82,-15.52 416.3,-16.77 425.3,-22.35 426.82,-15.52"/>
</g>
<!-- Node19&#45;&gt;Node3 -->
<g id="edge30" class="edge">
<title>Node19&#45;&gt;Node3</title>
<path fill="none" stroke="midnightblue" d="M679.41,-280.37C658.83,-261.81 610.14,-217.91 584.11,-194.44"/>
<polygon fill="midnightblue" stroke="midnightblue" points="586.28,-191.69 576.51,-187.59 581.6,-196.89 586.28,-191.69"/>
</g>
<!-- Node19&#45;&gt;Node8 -->
<g id="edge36" class="edge">
<title>Node19&#45;&gt;Node8</title>
<path fill="none" stroke="midnightblue" d="M695.87,-280.32C702.25,-271.68 711.29,-257.77 714.98,-244 720.84,-222.17 706.74,-170.25 704.98,-168 662.01,-112.66 581.84,-86.66 530.52,-75.2"/>
<polygon fill="midnightblue" stroke="midnightblue" points="531.16,-71.76 520.65,-73.09 529.7,-78.6 531.16,-71.76"/>
</g>
<!-- Node19&#45;&gt;Node14 -->
<g id="edge33" class="edge">
<title>Node19&#45;&gt;Node14</title>
<path fill="none" stroke="midnightblue" d="M692.01,-280.4C699.07,-258.63 713.99,-200.73 685.98,-168 658.85,-136.29 534.1,-126.84 472.95,-124.09"/>
<polygon fill="midnightblue" stroke="midnightblue" points="472.8,-120.58 462.66,-123.66 472.51,-127.58 472.8,-120.58"/>
</g>
<!-- Node19&#45;&gt;Node17 -->
<g id="edge35" class="edge">
<title>Node19&#45;&gt;Node17</title>
<path fill="none" stroke="midnightblue" d="M669.65,-280.44C649.66,-271.6 618.24,-257.69 595.42,-247.59"/>
<polygon fill="midnightblue" stroke="midnightblue" points="596.79,-244.36 586.23,-243.52 593.95,-250.76 596.79,-244.36"/>
</g>
<!-- Node19&#45;&gt;Node18 -->
<g id="edge34" class="edge">
<title>Node19&#45;&gt;Node18</title>
<path fill="none" stroke="midnightblue" d="M685.45,-280.37C678.13,-262.46 661.13,-220.92 651.33,-196.95"/>
<polygon fill="midnightblue" stroke="midnightblue" points="654.53,-195.52 647.5,-187.59 648.05,-198.17 654.53,-195.52"/>
</g>
<!-- Node20 -->
<g id="node20" class="node">
<title>Node20</title>
<g id="a_node20"><a xlink:title=" ">
<polygon fill="white" stroke="#bfbfbf" points="811.98,-224.5 811.98,-243.5 861.98,-243.5 861.98,-224.5 811.98,-224.5"/>
<text text-anchor="middle" x="836.98" y="-231.5" font-family="Helvetica,sans-Serif" font-size="10.00">dlfcn.h</text>
</a>
</g>
</g>
<!-- Node19&#45;&gt;Node20 -->
<g id="edge32" class="edge">
<title>Node19&#45;&gt;Node20</title>
<path fill="none" stroke="midnightblue" d="M712.44,-280.44C737.12,-271.44 776.17,-257.19 803.96,-247.05"/>
<polygon fill="midnightblue" stroke="midnightblue" points="805.45,-250.23 813.64,-243.52 803.05,-243.66 805.45,-250.23"/>
</g>
</g>
</svg>
