<?xml version="1.0" encoding="UTF-8" standalone="no"?>
<!DOCTYPE svg PUBLIC "-//W3C//DTD SVG 1.1//EN"
 "http://www.w3.org/Graphics/SVG/1.1/DTD/svg11.dtd">
<!-- Generated by graphviz version 2.43.0 (0)
 -->
<!-- Title: /home/runner/work/Raytracer/Raytracer/src/Plugins/Materials/IMaterialCreator.hpp Pages: 1 -->
<svg width="1454pt" height="418pt"
 viewBox="0.00 0.00 1454.00 418.00" xmlns="http://www.w3.org/2000/svg" xmlns:xlink="http://www.w3.org/1999/xlink">
<g id="graph0" class="graph" transform="scale(1 1) rotate(0) translate(4 414)">
<title>/home/runner/work/Raytracer/Raytracer/src/Plugins/Materials/IMaterialCreator.hpp</title>
<polygon fill="white" stroke="transparent" points="-4,4 -4,-414 1450,-414 1450,4 -4,4"/>
<!-- Node1 -->
<g id="node1" class="node">
<title>Node1</title>
<g id="a_node1"><a xlink:title=" ">
<polygon fill="#bfbfbf" stroke="black" points="657,-368.5 657,-409.5 828,-409.5 828,-368.5 657,-368.5"/>
<text text-anchor="start" x="665" y="-397.5" font-family="Helvetica,sans-Serif" font-size="10.00">/home/runner/work/Raytracer</text>
<text text-anchor="start" x="665" y="-386.5" font-family="Helvetica,sans-Serif" font-size="10.00">/Raytracer/src/Plugins/Materials</text>
<text text-anchor="middle" x="742.5" y="-375.5" font-family="Helvetica,sans-Serif" font-size="10.00">/IMaterialCreator.hpp</text>
</a>
</g>
</g>
<!-- Node2 -->
<g id="node2" class="node">
<title>Node2</title>
<g id="a_node2"><a xlink:href="a00209.html" target="_top" xlink:title=" ">
<polygon fill="white" stroke="black" points="47,-290.5 47,-331.5 218,-331.5 218,-290.5 47,-290.5"/>
<text text-anchor="start" x="55" y="-319.5" font-family="Helvetica,sans-Serif" font-size="10.00">/home/runner/work/Raytracer</text>
<text text-anchor="start" x="55" y="-308.5" font-family="Helvetica,sans-Serif" font-size="10.00">/Raytracer/src/Plugins/Materials</text>
<text text-anchor="middle" x="132.5" y="-297.5" font-family="Helvetica,sans-Serif" font-size="10.00">/MaterialHandler.hpp</text>
</a>
</g>
</g>
<!-- Node1&#45;&gt;Node2 -->
<g id="edge1" class="edge">
<title>Node1&#45;&gt;Node2</title>
<path fill="none" stroke="midnightblue" d="M646.82,-380.45C543.13,-371.61 372.98,-355.16 227.5,-332 224.42,-331.51 221.29,-330.99 218.13,-330.44"/>
<polygon fill="midnightblue" stroke="midnightblue" points="646.69,-383.96 656.95,-381.31 647.28,-376.98 646.69,-383.96"/>
</g>
<!-- Node7 -->
<g id="node7" class="node">
<title>Node7</title>
<g id="a_node7"><a xlink:href="a00296.html" target="_top" xlink:title=" ">
<polygon fill="white" stroke="black" points="236.5,-290.5 236.5,-331.5 418.5,-331.5 418.5,-290.5 236.5,-290.5"/>
<text text-anchor="start" x="244.5" y="-319.5" font-family="Helvetica,sans-Serif" font-size="10.00">/home/runner/work/Raytracer</text>
<text text-anchor="start" x="244.5" y="-308.5" font-family="Helvetica,sans-Serif" font-size="10.00">/Raytracer/PluginsExt/ChessBoard</text>
<text text-anchor="middle" x="327.5" y="-297.5" font-family="Helvetica,sans-Serif" font-size="10.00">Material/ChessBoardCreator.hpp</text>
</a>
</g>
</g>
<!-- Node1&#45;&gt;Node7 -->
<g id="edge7" class="edge">
<title>Node1&#45;&gt;Node7</title>
<path fill="none" stroke="midnightblue" d="M646.61,-371.5C584.15,-360.62 500.92,-345.87 427.5,-332 424.54,-331.44 421.54,-330.87 418.5,-330.29"/>
<polygon fill="midnightblue" stroke="midnightblue" points="646.39,-375.02 656.84,-373.28 647.59,-368.12 646.39,-375.02"/>
</g>
<!-- Node8 -->
<g id="node8" class="node">
<title>Node8</title>
<g id="a_node8"><a xlink:href="a00338.html" target="_top" xlink:title=" ">
<polygon fill="white" stroke="black" points="436.5,-290.5 436.5,-331.5 630.5,-331.5 630.5,-290.5 436.5,-290.5"/>
<text text-anchor="start" x="444.5" y="-319.5" font-family="Helvetica,sans-Serif" font-size="10.00">/home/runner/work/Raytracer</text>
<text text-anchor="start" x="444.5" y="-308.5" font-family="Helvetica,sans-Serif" font-size="10.00">/Raytracer/PluginsExt/MirrorMaterial</text>
<text text-anchor="middle" x="533.5" y="-297.5" font-family="Helvetica,sans-Serif" font-size="10.00">/MirrorCreator.hpp</text>
</a>
</g>
</g>
<!-- Node1&#45;&gt;Node8 -->
<g id="edge8" class="edge">
<title>Node1&#45;&gt;Node8</title>
<path fill="none" stroke="midnightblue" d="M678.94,-364.89C649.6,-354.22 615.15,-341.69 587.14,-331.51"/>
<polygon fill="midnightblue" stroke="midnightblue" points="678.08,-368.3 688.68,-368.43 680.48,-361.72 678.08,-368.3"/>
</g>
<!-- Node9 -->
<g id="node9" class="node">
<title>Node9</title>
<g id="a_node9"><a xlink:href="a00347.html" target="_top" xlink:title=" ">
<polygon fill="white" stroke="black" points="648.5,-290.5 648.5,-331.5 836.5,-331.5 836.5,-290.5 648.5,-290.5"/>
<text text-anchor="start" x="656.5" y="-319.5" font-family="Helvetica,sans-Serif" font-size="10.00">/home/runner/work/Raytracer</text>
<text text-anchor="start" x="656.5" y="-308.5" font-family="Helvetica,sans-Serif" font-size="10.00">/Raytracer/PluginsExt/PlainMaterial</text>
<text text-anchor="middle" x="742.5" y="-297.5" font-family="Helvetica,sans-Serif" font-size="10.00">/PlainMaterialCreator.hpp</text>
</a>
</g>
</g>
<!-- Node1&#45;&gt;Node9 -->
<g id="edge9" class="edge">
<title>Node1&#45;&gt;Node9</title>
<path fill="none" stroke="midnightblue" d="M742.5,-358.3C742.5,-349.3 742.5,-339.65 742.5,-331.51"/>
<polygon fill="midnightblue" stroke="midnightblue" points="739,-358.43 742.5,-368.43 746,-358.43 739,-358.43"/>
</g>
<!-- Node10 -->
<g id="node10" class="node">
<title>Node10</title>
<g id="a_node10"><a xlink:href="a00362.html" target="_top" xlink:title=" ">
<polygon fill="white" stroke="black" points="854.5,-290.5 854.5,-331.5 1028.5,-331.5 1028.5,-290.5 854.5,-290.5"/>
<text text-anchor="start" x="862.5" y="-319.5" font-family="Helvetica,sans-Serif" font-size="10.00">/home/runner/work/Raytracer</text>
<text text-anchor="start" x="862.5" y="-308.5" font-family="Helvetica,sans-Serif" font-size="10.00">/Raytracer/PluginsExt/Refraction</text>
<text text-anchor="middle" x="941.5" y="-297.5" font-family="Helvetica,sans-Serif" font-size="10.00">Material/RefractionCreator.hpp</text>
</a>
</g>
</g>
<!-- Node1&#45;&gt;Node10 -->
<g id="edge10" class="edge">
<title>Node1&#45;&gt;Node10</title>
<path fill="none" stroke="midnightblue" d="M803.38,-364.75C831.24,-354.11 863.87,-341.65 890.43,-331.51"/>
<polygon fill="midnightblue" stroke="midnightblue" points="801.84,-361.59 793.75,-368.43 804.34,-368.13 801.84,-361.59"/>
</g>
<!-- Node11 -->
<g id="node11" class="node">
<title>Node11</title>
<g id="a_node11"><a xlink:href="a00386.html" target="_top" xlink:title=" ">
<polygon fill="white" stroke="black" points="1046.5,-290.5 1046.5,-331.5 1234.5,-331.5 1234.5,-290.5 1046.5,-290.5"/>
<text text-anchor="start" x="1054.5" y="-319.5" font-family="Helvetica,sans-Serif" font-size="10.00">/home/runner/work/Raytracer</text>
<text text-anchor="start" x="1054.5" y="-308.5" font-family="Helvetica,sans-Serif" font-size="10.00">/Raytracer/PluginsExt/Transparency</text>
<text text-anchor="middle" x="1140.5" y="-297.5" font-family="Helvetica,sans-Serif" font-size="10.00">Material/TransparencyCreator.hpp</text>
</a>
</g>
</g>
<!-- Node1&#45;&gt;Node11 -->
<g id="edge11" class="edge">
<title>Node1&#45;&gt;Node11</title>
<path fill="none" stroke="midnightblue" d="M837.89,-370C895.66,-359.07 970.84,-344.8 1037.5,-332 1040.45,-331.43 1043.45,-330.86 1046.48,-330.27"/>
<polygon fill="midnightblue" stroke="midnightblue" points="837.21,-366.56 828.04,-371.86 838.52,-373.44 837.21,-366.56"/>
</g>
<!-- Node12 -->
<g id="node12" class="node">
<title>Node12</title>
<g id="a_node12"><a xlink:href="a00398.html" target="_top" xlink:title=" ">
<polygon fill="white" stroke="black" points="1253,-290.5 1253,-331.5 1446,-331.5 1446,-290.5 1253,-290.5"/>
<text text-anchor="start" x="1261" y="-319.5" font-family="Helvetica,sans-Serif" font-size="10.00">/home/runner/work/Raytracer</text>
<text text-anchor="start" x="1261" y="-308.5" font-family="Helvetica,sans-Serif" font-size="10.00">/Raytracer/PluginsExt/ZebraMaterial</text>
<text text-anchor="middle" x="1349.5" y="-297.5" font-family="Helvetica,sans-Serif" font-size="10.00">/ZebraCreator.hpp</text>
</a>
</g>
</g>
<!-- Node1&#45;&gt;Node12 -->
<g id="edge12" class="edge">
<title>Node1&#45;&gt;Node12</title>
<path fill="none" stroke="midnightblue" d="M838.49,-379.43C939.54,-369.91 1103.13,-353.06 1243.5,-332 1246.56,-331.54 1249.66,-331.06 1252.79,-330.56"/>
<polygon fill="midnightblue" stroke="midnightblue" points="837.93,-375.97 828.3,-380.39 838.58,-382.94 837.93,-375.97"/>
</g>
<!-- Node3 -->
<g id="node3" class="node">
<title>Node3</title>
<g id="a_node3"><a xlink:href="a00143.html" target="_top" xlink:title=" ">
<polygon fill="white" stroke="black" points="0,-212.5 0,-253.5 159,-253.5 159,-212.5 0,-212.5"/>
<text text-anchor="start" x="8" y="-241.5" font-family="Helvetica,sans-Serif" font-size="10.00">/home/runner/work/Raytracer</text>
<text text-anchor="start" x="8" y="-230.5" font-family="Helvetica,sans-Serif" font-size="10.00">/Raytracer/src/Factories</text>
<text text-anchor="middle" x="79.5" y="-219.5" font-family="Helvetica,sans-Serif" font-size="10.00">/MaterialFactory.hpp</text>
</a>
</g>
</g>
<!-- Node2&#45;&gt;Node3 -->
<g id="edge2" class="edge">
<title>Node2&#45;&gt;Node3</title>
<path fill="none" stroke="midnightblue" d="M113.01,-282.05C106.39,-272.57 99.16,-262.18 93.1,-253.51"/>
<polygon fill="midnightblue" stroke="midnightblue" points="110.26,-284.23 118.85,-290.43 116,-280.22 110.26,-284.23"/>
</g>
<!-- Node4 -->
<g id="node4" class="node">
<title>Node4</title>
<g id="a_node4"><a xlink:href="a00212.html" target="_top" xlink:title=" ">
<polygon fill="white" stroke="black" points="47,-134.5 47,-175.5 218,-175.5 218,-134.5 47,-134.5"/>
<text text-anchor="start" x="55" y="-163.5" font-family="Helvetica,sans-Serif" font-size="10.00">/home/runner/work/Raytracer</text>
<text text-anchor="start" x="55" y="-152.5" font-family="Helvetica,sans-Serif" font-size="10.00">/Raytracer/src/Plugins/Materials</text>
<text text-anchor="middle" x="132.5" y="-141.5" font-family="Helvetica,sans-Serif" font-size="10.00">/MaterialLoader.hpp</text>
</a>
</g>
</g>
<!-- Node2&#45;&gt;Node4 -->
<g id="edge6" class="edge">
<title>Node2&#45;&gt;Node4</title>
<path fill="none" stroke="midnightblue" d="M154.28,-281.92C159.68,-273.42 164.71,-263.73 167.5,-254 172.65,-236.06 172.65,-229.94 167.5,-212 163.74,-198.89 155.91,-185.86 148.61,-175.68"/>
<polygon fill="midnightblue" stroke="midnightblue" points="151.31,-280.07 148.61,-290.32 157.11,-283.99 151.31,-280.07"/>
</g>
<!-- Node3&#45;&gt;Node4 -->
<g id="edge3" class="edge">
<title>Node3&#45;&gt;Node4</title>
<path fill="none" stroke="midnightblue" d="M98.99,-204.05C105.61,-194.57 112.84,-184.18 118.9,-175.51"/>
<polygon fill="midnightblue" stroke="midnightblue" points="96,-202.22 93.15,-212.43 101.74,-206.23 96,-202.22"/>
</g>
<!-- Node5 -->
<g id="node5" class="node">
<title>Node5</title>
<g id="a_node5"><a xlink:href="a00245.html" target="_top" xlink:title=" ">
<polygon fill="white" stroke="black" points="29,-67.5 29,-97.5 236,-97.5 236,-67.5 29,-67.5"/>
<text text-anchor="start" x="37" y="-85.5" font-family="Helvetica,sans-Serif" font-size="10.00">/home/runner/work/Raytracer</text>
<text text-anchor="middle" x="132.5" y="-74.5" font-family="Helvetica,sans-Serif" font-size="10.00">/Raytracer/src/Scenes/SceneLoader.hpp</text>
</a>
</g>
</g>
<!-- Node4&#45;&gt;Node5 -->
<g id="edge4" class="edge">
<title>Node4&#45;&gt;Node5</title>
<path fill="none" stroke="midnightblue" d="M132.5,-124.08C132.5,-115.01 132.5,-105.45 132.5,-97.89"/>
<polygon fill="midnightblue" stroke="midnightblue" points="129,-124.36 132.5,-134.36 136,-124.36 129,-124.36"/>
</g>
<!-- Node6 -->
<g id="node6" class="node">
<title>Node6</title>
<g id="a_node6"><a xlink:href="a00089.html" target="_top" xlink:title=" ">
<polygon fill="white" stroke="black" points="41,-0.5 41,-30.5 224,-30.5 224,-0.5 41,-0.5"/>
<text text-anchor="start" x="49" y="-18.5" font-family="Helvetica,sans-Serif" font-size="10.00">/home/runner/work/Raytracer</text>
<text text-anchor="middle" x="132.5" y="-7.5" font-family="Helvetica,sans-Serif" font-size="10.00">/Raytracer/src/Display/Display.hpp</text>
</a>
</g>
</g>
<!-- Node5&#45;&gt;Node6 -->
<g id="edge5" class="edge">
<title>Node5&#45;&gt;Node6</title>
<path fill="none" stroke="midnightblue" d="M132.5,-57.11C132.5,-48.15 132.5,-38.32 132.5,-30.58"/>
<polygon fill="midnightblue" stroke="midnightblue" points="129,-57.4 132.5,-67.4 136,-57.4 129,-57.4"/>
</g>
</g>
</svg>
