<?xml version="1.0" encoding="UTF-8" standalone="no"?>
<!DOCTYPE svg PUBLIC "-//W3C//DTD SVG 1.1//EN"
 "http://www.w3.org/Graphics/SVG/1.1/DTD/svg11.dtd">
<!-- Generated by graphviz version 2.43.0 (0)
 -->
<!-- Title: /home/runner/work/Raytracer/Raytracer/src/Scenes/ConfigWrapper.hpp Pages: 1 -->
<svg width="225pt" height="173pt"
 viewBox="0.00 0.00 225.00 173.00" xmlns="http://www.w3.org/2000/svg" xmlns:xlink="http://www.w3.org/1999/xlink">
<g id="graph0" class="graph" transform="scale(1 1) rotate(0) translate(4 169)">
<title>/home/runner/work/Raytracer/Raytracer/src/Scenes/ConfigWrapper.hpp</title>
<polygon fill="white" stroke="transparent" points="-4,4 -4,-169 221,-169 221,4 -4,4"/>
<!-- Node1 -->
<g id="node1" class="node">
<title>Node1</title>
<g id="a_node1"><a xlink:title=" ">
<polygon fill="#bfbfbf" stroke="black" points="0,-134.5 0,-164.5 217,-164.5 217,-134.5 0,-134.5"/>
<text text-anchor="start" x="8" y="-152.5" font-family="Helvetica,sans-Serif" font-size="10.00">/home/runner/work/Raytracer</text>
<text text-anchor="middle" x="108.5" y="-141.5" font-family="Helvetica,sans-Serif" font-size="10.00">/Raytracer/src/Scenes/ConfigWrapper.hpp</text>
</a>
</g>
</g>
<!-- Node2 -->
<g id="node2" class="node">
<title>Node2</title>
<g id="a_node2"><a xlink:href="a00224.html" target="_top" xlink:title=" ">
<polygon fill="white" stroke="black" points="5,-67.5 5,-97.5 212,-97.5 212,-67.5 5,-67.5"/>
<text text-anchor="start" x="13" y="-85.5" font-family="Helvetica,sans-Serif" font-size="10.00">/home/runner/work/Raytracer</text>
<text text-anchor="middle" x="108.5" y="-74.5" font-family="Helvetica,sans-Serif" font-size="10.00">/Raytracer/src/Scenes/SceneLoader.hpp</text>
</a>
</g>
</g>
<!-- Node1&#45;&gt;Node2 -->
<g id="edge1" class="edge">
<title>Node1&#45;&gt;Node2</title>
<path fill="none" stroke="midnightblue" d="M108.5,-124.11C108.5,-115.15 108.5,-105.32 108.5,-97.58"/>
<polygon fill="midnightblue" stroke="midnightblue" points="105,-124.4 108.5,-134.4 112,-124.4 105,-124.4"/>
</g>
<!-- Node3 -->
<g id="node3" class="node">
<title>Node3</title>
<g id="a_node3"><a xlink:href="a00068.html" target="_top" xlink:title=" ">
<polygon fill="white" stroke="black" points="17,-0.5 17,-30.5 200,-30.5 200,-0.5 17,-0.5"/>
<text text-anchor="start" x="25" y="-18.5" font-family="Helvetica,sans-Serif" font-size="10.00">/home/runner/work/Raytracer</text>
<text text-anchor="middle" x="108.5" y="-7.5" font-family="Helvetica,sans-Serif" font-size="10.00">/Raytracer/src/Display/Display.hpp</text>
</a>
</g>
</g>
<!-- Node2&#45;&gt;Node3 -->
<g id="edge2" class="edge">
<title>Node2&#45;&gt;Node3</title>
<path fill="none" stroke="midnightblue" d="M108.5,-57.11C108.5,-48.15 108.5,-38.32 108.5,-30.58"/>
<polygon fill="midnightblue" stroke="midnightblue" points="105,-57.4 108.5,-67.4 112,-57.4 105,-57.4"/>
</g>
</g>
</svg>
