<?xml version="1.0" encoding="UTF-8" standalone="no"?>
<!DOCTYPE svg PUBLIC "-//W3C//DTD SVG 1.1//EN"
 "http://www.w3.org/Graphics/SVG/1.1/DTD/svg11.dtd">
<!-- Generated by graphviz version 2.43.0 (0)
 -->
<!-- Title: /home/runner/work/Raytracer/Raytracer/PluginsExt/LimitedCone/LimitedConeEntity.hpp Pages: 1 -->
<svg width="723pt" height="386pt"
 viewBox="0.00 0.00 722.50 386.00" xmlns="http://www.w3.org/2000/svg" xmlns:xlink="http://www.w3.org/1999/xlink">
<g id="graph0" class="graph" transform="scale(1 1) rotate(0) translate(4 382)">
<title>/home/runner/work/Raytracer/Raytracer/PluginsExt/LimitedCone/LimitedConeEntity.hpp</title>
<polygon fill="white" stroke="transparent" points="-4,4 -4,-382 718.5,-382 718.5,4 -4,4"/>
<!-- Node1 -->
<g id="node1" class="node">
<title>Node1</title>
<g id="a_node1"><a xlink:title=" ">
<polygon fill="#bfbfbf" stroke="black" points="41,-336.5 41,-377.5 226,-377.5 226,-336.5 41,-336.5"/>
<text text-anchor="start" x="49" y="-365.5" font-family="Helvetica,sans-Serif" font-size="10.00">/home/runner/work/Raytracer</text>
<text text-anchor="start" x="49" y="-354.5" font-family="Helvetica,sans-Serif" font-size="10.00">/Raytracer/PluginsExt/LimitedCone</text>
<text text-anchor="middle" x="133.5" y="-343.5" font-family="Helvetica,sans-Serif" font-size="10.00">/LimitedConeEntity.hpp</text>
</a>
</g>
</g>
<!-- Node2 -->
<g id="node2" class="node">
<title>Node2</title>
<g id="a_node2"><a xlink:title=" ">
<polygon fill="white" stroke="#bfbfbf" points="0,-280.5 0,-299.5 47,-299.5 47,-280.5 0,-280.5"/>
<text text-anchor="middle" x="23.5" y="-287.5" font-family="Helvetica,sans-Serif" font-size="10.00">cmath</text>
</a>
</g>
</g>
<!-- Node1&#45;&gt;Node2 -->
<g id="edge1" class="edge">
<title>Node1&#45;&gt;Node2</title>
<path fill="none" stroke="midnightblue" d="M100.5,-336.5C83.31,-326.34 62.69,-314.16 47.11,-304.95"/>
<polygon fill="midnightblue" stroke="midnightblue" points="48.53,-301.73 38.14,-299.65 44.97,-307.75 48.53,-301.73"/>
</g>
<!-- Node3 -->
<g id="node3" class="node">
<title>Node3</title>
<g id="a_node3"><a xlink:href="a00119.html" target="_top" xlink:title=" ">
<polygon fill="white" stroke="black" points="65,-280.5 65,-299.5 138,-299.5 138,-280.5 65,-280.5"/>
<text text-anchor="middle" x="101.5" y="-287.5" font-family="Helvetica,sans-Serif" font-size="10.00">ILogger.hpp</text>
</a>
</g>
</g>
<!-- Node1&#45;&gt;Node3 -->
<g id="edge2" class="edge">
<title>Node1&#45;&gt;Node3</title>
<path fill="none" stroke="midnightblue" d="M123.9,-336.5C119.56,-327.68 114.47,-317.34 110.24,-308.74"/>
<polygon fill="midnightblue" stroke="midnightblue" points="113.32,-307.08 105.76,-299.65 107.04,-310.17 113.32,-307.08"/>
</g>
<!-- Node5 -->
<g id="node5" class="node">
<title>Node5</title>
<g id="a_node5"><a xlink:href="a00080.html" target="_top" xlink:title=" ">
<polygon fill="white" stroke="black" points="390,-280.5 390,-299.5 475,-299.5 475,-280.5 390,-280.5"/>
<text text-anchor="middle" x="432.5" y="-287.5" font-family="Helvetica,sans-Serif" font-size="10.00">IPrimitive.hpp</text>
</a>
</g>
</g>
<!-- Node1&#45;&gt;Node5 -->
<g id="edge4" class="edge">
<title>Node1&#45;&gt;Node5</title>
<path fill="none" stroke="midnightblue" d="M223.21,-336.5C275.6,-325.11 339.73,-311.17 383.08,-301.74"/>
<polygon fill="midnightblue" stroke="midnightblue" points="384.06,-305.11 393.09,-299.57 382.58,-298.27 384.06,-305.11"/>
</g>
<!-- Node20 -->
<g id="node20" class="node">
<title>Node20</title>
<g id="a_node20"><a xlink:href="a00086.html" target="_top" xlink:title=" ">
<polygon fill="white" stroke="black" points="123.5,-224.5 123.5,-243.5 209.5,-243.5 209.5,-224.5 123.5,-224.5"/>
<text text-anchor="middle" x="166.5" y="-231.5" font-family="Helvetica,sans-Serif" font-size="10.00">Transform.hpp</text>
</a>
</g>
</g>
<!-- Node1&#45;&gt;Node20 -->
<g id="edge29" class="edge">
<title>Node1&#45;&gt;Node20</title>
<path fill="none" stroke="midnightblue" d="M138.88,-336.29C145.13,-313.37 155.36,-275.85 161.46,-253.47"/>
<polygon fill="midnightblue" stroke="midnightblue" points="164.91,-254.14 164.16,-243.57 158.15,-252.3 164.91,-254.14"/>
</g>
<!-- Node4 -->
<g id="node4" class="node">
<title>Node4</title>
<g id="a_node4"><a xlink:title=" ">
<polygon fill="white" stroke="#bfbfbf" points="61.5,-224.5 61.5,-243.5 105.5,-243.5 105.5,-224.5 61.5,-224.5"/>
<text text-anchor="middle" x="83.5" y="-231.5" font-family="Helvetica,sans-Serif" font-size="10.00">string</text>
</a>
</g>
</g>
<!-- Node3&#45;&gt;Node4 -->
<g id="edge3" class="edge">
<title>Node3&#45;&gt;Node4</title>
<path fill="none" stroke="midnightblue" d="M98.53,-280.08C96.12,-272.85 92.64,-262.41 89.63,-253.4"/>
<polygon fill="midnightblue" stroke="midnightblue" points="92.9,-252.13 86.42,-243.75 86.26,-254.34 92.9,-252.13"/>
</g>
<!-- Node6 -->
<g id="node6" class="node">
<title>Node6</title>
<g id="a_node6"><a xlink:title=" ">
<polygon fill="white" stroke="#bfbfbf" points="526.5,-224.5 526.5,-243.5 582.5,-243.5 582.5,-224.5 526.5,-224.5"/>
<text text-anchor="middle" x="554.5" y="-231.5" font-family="Helvetica,sans-Serif" font-size="10.00">optional</text>
</a>
</g>
</g>
<!-- Node5&#45;&gt;Node6 -->
<g id="edge5" class="edge">
<title>Node5&#45;&gt;Node6</title>
<path fill="none" stroke="midnightblue" d="M451.83,-280.44C471.82,-271.6 503.24,-257.69 526.06,-247.59"/>
<polygon fill="midnightblue" stroke="midnightblue" points="527.53,-250.76 535.26,-243.52 524.7,-244.36 527.53,-250.76"/>
</g>
<!-- Node7 -->
<g id="node7" class="node">
<title>Node7</title>
<g id="a_node7"><a xlink:href="a00122.html" target="_top" xlink:title=" ">
<polygon fill="white" stroke="black" points="536.5,-168.5 536.5,-187.5 598.5,-187.5 598.5,-168.5 536.5,-168.5"/>
<text text-anchor="middle" x="567.5" y="-175.5" font-family="Helvetica,sans-Serif" font-size="10.00">Color.hpp</text>
</a>
</g>
</g>
<!-- Node5&#45;&gt;Node7 -->
<g id="edge6" class="edge">
<title>Node5&#45;&gt;Node7</title>
<path fill="none" stroke="midnightblue" d="M475.01,-282.82C517.16,-275.71 577.44,-262.59 591.5,-244 602.33,-229.68 592.37,-209.95 582.18,-196"/>
<polygon fill="midnightblue" stroke="midnightblue" points="584.62,-193.44 575.67,-187.78 579.13,-197.79 584.62,-193.44"/>
</g>
<!-- Node13 -->
<g id="node13" class="node">
<title>Node13</title>
<g id="a_node13"><a xlink:href="a00200.html" target="_top" xlink:title=" ">
<polygon fill="white" stroke="black" points="616.5,-168.5 616.5,-187.5 714.5,-187.5 714.5,-168.5 616.5,-168.5"/>
<text text-anchor="middle" x="665.5" y="-175.5" font-family="Helvetica,sans-Serif" font-size="10.00">IDisplayable.hpp</text>
</a>
</g>
</g>
<!-- Node5&#45;&gt;Node13 -->
<g id="edge12" class="edge">
<title>Node5&#45;&gt;Node13</title>
<path fill="none" stroke="midnightblue" d="M475.15,-285.08C512.36,-280.09 566.64,-268.88 607.5,-244 627.4,-231.88 644.35,-210.82 654.69,-195.96"/>
<polygon fill="midnightblue" stroke="midnightblue" points="657.61,-197.9 660.25,-187.64 651.79,-194.01 657.61,-197.9"/>
</g>
<!-- Node15 -->
<g id="node15" class="node">
<title>Node15</title>
<g id="a_node15"><a xlink:href="a00071.html" target="_top" xlink:title=" ">
<polygon fill="white" stroke="black" points="302.5,-224.5 302.5,-243.5 370.5,-243.5 370.5,-224.5 302.5,-224.5"/>
<text text-anchor="middle" x="336.5" y="-231.5" font-family="Helvetica,sans-Serif" font-size="10.00">IEntity.hpp</text>
</a>
</g>
</g>
<!-- Node5&#45;&gt;Node15 -->
<g id="edge15" class="edge">
<title>Node5&#45;&gt;Node15</title>
<path fill="none" stroke="midnightblue" d="M417.08,-280.32C401.96,-271.82 378.68,-258.73 361.03,-248.8"/>
<polygon fill="midnightblue" stroke="midnightblue" points="362.32,-245.51 351.89,-243.65 358.89,-251.61 362.32,-245.51"/>
</g>
<!-- Node17 -->
<g id="node17" class="node">
<title>Node17</title>
<g id="a_node17"><a xlink:href="a00092.html" target="_top" xlink:title=" ">
<polygon fill="white" stroke="black" points="358,-112.5 358,-131.5 435,-131.5 435,-112.5 358,-112.5"/>
<text text-anchor="middle" x="396.5" y="-119.5" font-family="Helvetica,sans-Serif" font-size="10.00">Vector3f.hpp</text>
</a>
</g>
</g>
<!-- Node5&#45;&gt;Node17 -->
<g id="edge28" class="edge">
<title>Node5&#45;&gt;Node17</title>
<path fill="none" stroke="midnightblue" d="M389.76,-282.94C360.29,-277.01 321.53,-265.59 293.5,-244 270.06,-225.95 265.84,-216.39 257.5,-188 245.49,-147.09 302.81,-131.93 347.48,-126.31"/>
<polygon fill="midnightblue" stroke="midnightblue" points="348.11,-129.76 357.65,-125.16 347.32,-122.81 348.11,-129.76"/>
</g>
<!-- Node18 -->
<g id="node18" class="node">
<title>Node18</title>
<g id="a_node18"><a xlink:href="a00077.html" target="_top" xlink:title=" ">
<polygon fill="white" stroke="black" points="427,-224.5 427,-243.5 508,-243.5 508,-224.5 427,-224.5"/>
<text text-anchor="middle" x="467.5" y="-231.5" font-family="Helvetica,sans-Serif" font-size="10.00">IMaterial.hpp</text>
</a>
</g>
</g>
<!-- Node5&#45;&gt;Node18 -->
<g id="edge20" class="edge">
<title>Node5&#45;&gt;Node18</title>
<path fill="none" stroke="midnightblue" d="M438.28,-280.08C443.17,-272.53 450.33,-261.49 456.33,-252.23"/>
<polygon fill="midnightblue" stroke="midnightblue" points="459.33,-254.05 461.83,-243.75 453.45,-250.24 459.33,-254.05"/>
</g>
<!-- Node19 -->
<g id="node19" class="node">
<title>Node19</title>
<g id="a_node19"><a xlink:href="a00137.html" target="_top" xlink:title=" ">
<polygon fill="white" stroke="black" points="425,-168.5 425,-187.5 480,-187.5 480,-168.5 425,-168.5"/>
<text text-anchor="middle" x="452.5" y="-175.5" font-family="Helvetica,sans-Serif" font-size="10.00">Ray.hpp</text>
</a>
</g>
</g>
<!-- Node5&#45;&gt;Node19 -->
<g id="edge27" class="edge">
<title>Node5&#45;&gt;Node19</title>
<path fill="none" stroke="midnightblue" d="M427.78,-280.42C421.5,-267.83 411.89,-243.7 418.5,-224 422.1,-213.25 429.4,-203.02 436.32,-195.04"/>
<polygon fill="midnightblue" stroke="midnightblue" points="438.98,-197.32 443.21,-187.61 433.85,-192.56 438.98,-197.32"/>
</g>
<!-- Node8 -->
<g id="node8" class="node">
<title>Node8</title>
<g id="a_node8"><a xlink:title=" ">
<polygon fill="white" stroke="#bfbfbf" points="491.5,-112.5 491.5,-131.5 539.5,-131.5 539.5,-112.5 491.5,-112.5"/>
<text text-anchor="middle" x="515.5" y="-119.5" font-family="Helvetica,sans-Serif" font-size="10.00">mutex</text>
</a>
</g>
</g>
<!-- Node7&#45;&gt;Node8 -->
<g id="edge7" class="edge">
<title>Node7&#45;&gt;Node8</title>
<path fill="none" stroke="midnightblue" d="M558.91,-168.08C551.34,-160.22 540.12,-148.57 530.99,-139.08"/>
<polygon fill="midnightblue" stroke="midnightblue" points="533.38,-136.53 523.93,-131.75 528.34,-141.38 533.38,-136.53"/>
</g>
<!-- Node9 -->
<g id="node9" class="node">
<title>Node9</title>
<g id="a_node9"><a xlink:title=" ">
<polygon fill="white" stroke="#bfbfbf" points="513,-56.5 513,-75.5 570,-75.5 570,-56.5 513,-56.5"/>
<text text-anchor="middle" x="541.5" y="-63.5" font-family="Helvetica,sans-Serif" font-size="10.00">ostream</text>
</a>
</g>
</g>
<!-- Node7&#45;&gt;Node9 -->
<g id="edge8" class="edge">
<title>Node7&#45;&gt;Node9</title>
<path fill="none" stroke="midnightblue" d="M565.46,-168.37C561.26,-150.62 551.58,-109.67 545.9,-85.6"/>
<polygon fill="midnightblue" stroke="midnightblue" points="549.24,-84.52 543.53,-75.59 542.42,-86.13 549.24,-84.52"/>
</g>
<!-- Node10 -->
<g id="node10" class="node">
<title>Node10</title>
<g id="a_node10"><a xlink:href="a00206.html" target="_top" xlink:title=" ">
<polygon fill="white" stroke="black" points="393,-56.5 393,-75.5 468,-75.5 468,-56.5 393,-56.5"/>
<text text-anchor="middle" x="430.5" y="-63.5" font-family="Helvetica,sans-Serif" font-size="10.00">ISetting.hpp</text>
</a>
</g>
</g>
<!-- Node7&#45;&gt;Node10 -->
<g id="edge9" class="edge">
<title>Node7&#45;&gt;Node10</title>
<path fill="none" stroke="midnightblue" d="M545.77,-168.46C527.66,-160.68 501.79,-147.97 482.5,-132 465.86,-118.22 450.92,-98.37 441.37,-84.24"/>
<polygon fill="midnightblue" stroke="midnightblue" points="444.07,-81.96 435.67,-75.51 438.21,-85.79 444.07,-81.96"/>
</g>
<!-- Node11 -->
<g id="node11" class="node">
<title>Node11</title>
<g id="a_node11"><a xlink:title=" ">
<polygon fill="white" stroke="#bfbfbf" points="566.5,-0.5 566.5,-19.5 624.5,-19.5 624.5,-0.5 566.5,-0.5"/>
<text text-anchor="middle" x="595.5" y="-7.5" font-family="Helvetica,sans-Serif" font-size="10.00">memory</text>
</a>
</g>
</g>
<!-- Node10&#45;&gt;Node11 -->
<g id="edge10" class="edge">
<title>Node10&#45;&gt;Node11</title>
<path fill="none" stroke="midnightblue" d="M456.64,-56.44C484.52,-47.32 528.85,-32.81 559.9,-22.65"/>
<polygon fill="midnightblue" stroke="midnightblue" points="561.06,-25.95 569.48,-19.52 558.88,-19.3 561.06,-25.95"/>
</g>
<!-- Node12 -->
<g id="node12" class="node">
<title>Node12</title>
<g id="a_node12"><a xlink:title=" ">
<polygon fill="white" stroke="#bfbfbf" points="389,-0.5 389,-19.5 472,-19.5 472,-0.5 389,-0.5"/>
<text text-anchor="middle" x="430.5" y="-7.5" font-family="Helvetica,sans-Serif" font-size="10.00">libconfig.h++</text>
</a>
</g>
</g>
<!-- Node10&#45;&gt;Node12 -->
<g id="edge11" class="edge">
<title>Node10&#45;&gt;Node12</title>
<path fill="none" stroke="midnightblue" d="M430.5,-56.08C430.5,-49.01 430.5,-38.86 430.5,-29.99"/>
<polygon fill="midnightblue" stroke="midnightblue" points="434,-29.75 430.5,-19.75 427,-29.75 434,-29.75"/>
</g>
<!-- Node13&#45;&gt;Node11 -->
<g id="edge13" class="edge">
<title>Node13&#45;&gt;Node11</title>
<path fill="none" stroke="midnightblue" d="M664.65,-168.35C663.21,-155.66 659.71,-131.42 652.5,-112 640.87,-80.69 620.39,-47.56 607.4,-28.1"/>
<polygon fill="midnightblue" stroke="midnightblue" points="610.22,-26.02 601.7,-19.72 604.43,-29.96 610.22,-26.02"/>
</g>
<!-- Node14 -->
<g id="node14" class="node">
<title>Node14</title>
<g id="a_node14"><a xlink:title=" ">
<polygon fill="white" stroke="#bfbfbf" points="596,-112.5 596,-131.5 643,-131.5 643,-112.5 596,-112.5"/>
<text text-anchor="middle" x="619.5" y="-119.5" font-family="Helvetica,sans-Serif" font-size="10.00">vector</text>
</a>
</g>
</g>
<!-- Node13&#45;&gt;Node14 -->
<g id="edge14" class="edge">
<title>Node13&#45;&gt;Node14</title>
<path fill="none" stroke="midnightblue" d="M657.9,-168.08C651.27,-160.3 641.48,-148.8 633.44,-139.37"/>
<polygon fill="midnightblue" stroke="midnightblue" points="636.1,-137.09 626.95,-131.75 630.77,-141.63 636.1,-137.09"/>
</g>
<!-- Node16 -->
<g id="node16" class="node">
<title>Node16</title>
<g id="a_node16"><a xlink:href="a00083.html" target="_top" xlink:title=" ">
<polygon fill="white" stroke="black" points="266,-168.5 266,-187.5 407,-187.5 407,-168.5 266,-168.5"/>
<text text-anchor="middle" x="336.5" y="-175.5" font-family="Helvetica,sans-Serif" font-size="10.00">Transform/ITransform.hpp</text>
</a>
</g>
</g>
<!-- Node15&#45;&gt;Node16 -->
<g id="edge16" class="edge">
<title>Node15&#45;&gt;Node16</title>
<path fill="none" stroke="midnightblue" d="M336.5,-224.08C336.5,-217.01 336.5,-206.86 336.5,-197.99"/>
<polygon fill="midnightblue" stroke="midnightblue" points="340,-197.75 336.5,-187.75 333,-197.75 340,-197.75"/>
</g>
<!-- Node16&#45;&gt;Node17 -->
<g id="edge17" class="edge">
<title>Node16&#45;&gt;Node17</title>
<path fill="none" stroke="midnightblue" d="M346.14,-168.32C355.01,-160.34 368.37,-148.31 379.11,-138.65"/>
<polygon fill="midnightblue" stroke="midnightblue" points="381.59,-141.13 386.68,-131.83 376.91,-135.92 381.59,-141.13"/>
</g>
<!-- Node17&#45;&gt;Node9 -->
<g id="edge18" class="edge">
<title>Node17&#45;&gt;Node9</title>
<path fill="none" stroke="midnightblue" d="M419.48,-112.44C443.66,-103.44 481.92,-89.19 509.15,-79.05"/>
<polygon fill="midnightblue" stroke="midnightblue" points="510.48,-82.29 518.63,-75.52 508.04,-75.73 510.48,-82.29"/>
</g>
<!-- Node17&#45;&gt;Node10 -->
<g id="edge19" class="edge">
<title>Node17&#45;&gt;Node10</title>
<path fill="none" stroke="midnightblue" d="M402.11,-112.08C406.87,-104.53 413.82,-93.49 419.65,-84.23"/>
<polygon fill="midnightblue" stroke="midnightblue" points="422.62,-86.08 424.99,-75.75 416.7,-82.35 422.62,-86.08"/>
</g>
<!-- Node18&#45;&gt;Node7 -->
<g id="edge23" class="edge">
<title>Node18&#45;&gt;Node7</title>
<path fill="none" stroke="midnightblue" d="M483.57,-224.32C499.46,-215.74 524.01,-202.49 542.46,-192.52"/>
<polygon fill="midnightblue" stroke="midnightblue" points="544.34,-195.49 551.47,-187.65 541.01,-189.33 544.34,-195.49"/>
</g>
<!-- Node18&#45;&gt;Node13 -->
<g id="edge24" class="edge">
<title>Node18&#45;&gt;Node13</title>
<path fill="none" stroke="midnightblue" d="M498.87,-224.44C532.76,-215.2 586.9,-200.44 624.22,-190.26"/>
<polygon fill="midnightblue" stroke="midnightblue" points="625.55,-193.52 634.27,-187.52 623.7,-186.77 625.55,-193.52"/>
</g>
<!-- Node18&#45;&gt;Node16 -->
<g id="edge25" class="edge">
<title>Node18&#45;&gt;Node16</title>
<path fill="none" stroke="midnightblue" d="M446.74,-224.44C425.18,-215.56 391.24,-201.56 366.71,-191.45"/>
<polygon fill="midnightblue" stroke="midnightblue" points="367.74,-188.09 357.16,-187.52 365.07,-194.56 367.74,-188.09"/>
</g>
<!-- Node18&#45;&gt;Node17 -->
<g id="edge26" class="edge">
<title>Node18&#45;&gt;Node17</title>
<path fill="none" stroke="midnightblue" d="M474.84,-224.45C485.04,-211.47 501.02,-186.37 489.5,-168 479.45,-151.97 461.9,-141.51 444.73,-134.75"/>
<polygon fill="midnightblue" stroke="midnightblue" points="445.87,-131.45 435.28,-131.37 443.51,-138.04 445.87,-131.45"/>
</g>
<!-- Node18&#45;&gt;Node19 -->
<g id="edge21" class="edge">
<title>Node18&#45;&gt;Node19</title>
<path fill="none" stroke="midnightblue" d="M465.02,-224.08C463.01,-216.85 460.11,-206.41 457.61,-197.4"/>
<polygon fill="midnightblue" stroke="midnightblue" points="460.98,-196.45 454.93,-187.75 454.24,-198.32 460.98,-196.45"/>
</g>
<!-- Node19&#45;&gt;Node17 -->
<g id="edge22" class="edge">
<title>Node19&#45;&gt;Node17</title>
<path fill="none" stroke="midnightblue" d="M443.5,-168.32C435.31,-160.42 422.99,-148.55 413.03,-138.94"/>
<polygon fill="midnightblue" stroke="midnightblue" points="415.29,-136.26 405.66,-131.83 410.43,-141.29 415.29,-136.26"/>
</g>
<!-- Node20&#45;&gt;Node10 -->
<g id="edge31" class="edge">
<title>Node20&#45;&gt;Node10</title>
<path fill="none" stroke="midnightblue" d="M168.4,-224.26C171.79,-210.56 180.13,-183.97 196.5,-168 248.91,-116.88 331.33,-89.65 383.07,-76.78"/>
<polygon fill="midnightblue" stroke="midnightblue" points="384.09,-80.14 392.99,-74.39 382.45,-73.33 384.09,-80.14"/>
</g>
<!-- Node20&#45;&gt;Node16 -->
<g id="edge30" class="edge">
<title>Node20&#45;&gt;Node16</title>
<path fill="none" stroke="midnightblue" d="M193.44,-224.44C222.16,-215.32 267.83,-200.81 299.82,-190.65"/>
<polygon fill="midnightblue" stroke="midnightblue" points="301.22,-193.88 309.69,-187.52 299.1,-187.21 301.22,-193.88"/>
</g>
<!-- Node20&#45;&gt;Node17 -->
<g id="edge32" class="edge">
<title>Node20&#45;&gt;Node17</title>
<path fill="none" stroke="midnightblue" d="M171.63,-224.37C180.42,-210.33 199.74,-182.66 223.5,-168 261.36,-144.65 311.07,-133.34 347.48,-127.91"/>
<polygon fill="midnightblue" stroke="midnightblue" points="348.43,-131.31 357.85,-126.46 347.46,-124.37 348.43,-131.31"/>
</g>
</g>
</svg>
