<?xml version="1.0" encoding="UTF-8" standalone="no"?>
<!DOCTYPE svg PUBLIC "-//W3C//DTD SVG 1.1//EN"
 "http://www.w3.org/Graphics/SVG/1.1/DTD/svg11.dtd">
<!-- Generated by graphviz version 2.43.0 (0)
 -->
<!-- Title: /home/runner/work/Raytracer/Raytracer/PluginsExt/Camera/Basic/CameraEntity.hpp Pages: 1 -->
<svg width="702pt" height="442pt"
 viewBox="0.00 0.00 701.50 442.00" xmlns="http://www.w3.org/2000/svg" xmlns:xlink="http://www.w3.org/1999/xlink">
<g id="graph0" class="graph" transform="scale(1 1) rotate(0) translate(4 438)">
<title>/home/runner/work/Raytracer/Raytracer/PluginsExt/Camera/Basic/CameraEntity.hpp</title>
<polygon fill="white" stroke="transparent" points="-4,4 -4,-438 697.5,-438 697.5,4 -4,4"/>
<!-- Node1 -->
<g id="node1" class="node">
<title>Node1</title>
<g id="a_node1"><a xlink:title=" ">
<polygon fill="#bfbfbf" stroke="black" points="311.5,-392.5 311.5,-433.5 473.5,-433.5 473.5,-392.5 311.5,-392.5"/>
<text text-anchor="start" x="319.5" y="-421.5" font-family="Helvetica,sans-Serif" font-size="10.00">/home/runner/work/Raytracer</text>
<text text-anchor="start" x="319.5" y="-410.5" font-family="Helvetica,sans-Serif" font-size="10.00">/Raytracer/PluginsExt/Camera</text>
<text text-anchor="middle" x="392.5" y="-399.5" font-family="Helvetica,sans-Serif" font-size="10.00">/Basic/CameraEntity.hpp</text>
</a>
</g>
</g>
<!-- Node2 -->
<g id="node2" class="node">
<title>Node2</title>
<g id="a_node2"><a xlink:title=" ">
<polygon fill="white" stroke="#bfbfbf" points="0,-336.5 0,-355.5 65,-355.5 65,-336.5 0,-336.5"/>
<text text-anchor="middle" x="32.5" y="-343.5" font-family="Helvetica,sans-Serif" font-size="10.00">functional</text>
</a>
</g>
</g>
<!-- Node1&#45;&gt;Node2 -->
<g id="edge1" class="edge">
<title>Node1&#45;&gt;Node2</title>
<path fill="none" stroke="midnightblue" d="M311.39,-397.77C248.17,-386.61 158.21,-370.58 79.5,-356 78.04,-355.73 76.56,-355.45 75.07,-355.18"/>
<polygon fill="midnightblue" stroke="midnightblue" points="75.58,-351.71 65.11,-353.3 74.28,-358.59 75.58,-351.71"/>
</g>
<!-- Node3 -->
<g id="node3" class="node">
<title>Node3</title>
<g id="a_node3"><a xlink:href="a00068.html" target="_top" xlink:title=" ">
<polygon fill="white" stroke="black" points="283,-336.5 283,-355.5 362,-355.5 362,-336.5 283,-336.5"/>
<text text-anchor="middle" x="322.5" y="-343.5" font-family="Helvetica,sans-Serif" font-size="10.00">ICamera.hpp</text>
</a>
</g>
</g>
<!-- Node1&#45;&gt;Node3 -->
<g id="edge2" class="edge">
<title>Node1&#45;&gt;Node3</title>
<path fill="none" stroke="midnightblue" d="M371.5,-392.5C361.18,-382.92 348.91,-371.53 339.24,-362.54"/>
<polygon fill="midnightblue" stroke="midnightblue" points="341.53,-359.89 331.82,-355.65 336.76,-365.02 341.53,-359.89"/>
</g>
<!-- Node11 -->
<g id="node11" class="node">
<title>Node11</title>
<g id="a_node11"><a xlink:href="a00200.html" target="_top" xlink:title=" ">
<polygon fill="white" stroke="black" points="44.5,-224.5 44.5,-243.5 142.5,-243.5 142.5,-224.5 44.5,-224.5"/>
<text text-anchor="middle" x="93.5" y="-231.5" font-family="Helvetica,sans-Serif" font-size="10.00">IDisplayable.hpp</text>
</a>
</g>
</g>
<!-- Node1&#45;&gt;Node11 -->
<g id="edge34" class="edge">
<title>Node1&#45;&gt;Node11</title>
<path fill="none" stroke="midnightblue" d="M311.38,-394.96C252.9,-379.04 175.43,-350 123.5,-300 110.37,-287.36 102.44,-267.88 98.06,-253.53"/>
<polygon fill="midnightblue" stroke="midnightblue" points="101.4,-252.48 95.37,-243.77 94.65,-254.34 101.4,-252.48"/>
</g>
<!-- Node19 -->
<g id="node19" class="node">
<title>Node19</title>
<g id="a_node19"><a xlink:href="a00203.html" target="_top" xlink:title=" ">
<polygon fill="white" stroke="black" points="456,-280.5 456,-299.5 551,-299.5 551,-280.5 456,-280.5"/>
<text text-anchor="middle" x="503.5" y="-287.5" font-family="Helvetica,sans-Serif" font-size="10.00">ISceneState.hpp</text>
</a>
</g>
</g>
<!-- Node1&#45;&gt;Node19 -->
<g id="edge33" class="edge">
<title>Node1&#45;&gt;Node19</title>
<path fill="none" stroke="midnightblue" d="M410.58,-392.29C432.37,-368.54 468.56,-329.09 488.75,-307.08"/>
<polygon fill="midnightblue" stroke="midnightblue" points="491.45,-309.31 495.63,-299.57 486.29,-304.58 491.45,-309.31"/>
</g>
<!-- Node23 -->
<g id="node23" class="node">
<title>Node23</title>
<g id="a_node23"><a xlink:href="a00119.html" target="_top" xlink:title=" ">
<polygon fill="white" stroke="black" points="374,-224.5 374,-243.5 447,-243.5 447,-224.5 374,-224.5"/>
<text text-anchor="middle" x="410.5" y="-231.5" font-family="Helvetica,sans-Serif" font-size="10.00">ILogger.hpp</text>
</a>
</g>
</g>
<!-- Node1&#45;&gt;Node23 -->
<g id="edge31" class="edge">
<title>Node1&#45;&gt;Node23</title>
<path fill="none" stroke="midnightblue" d="M446.34,-392.37C485.8,-374.79 536.52,-344.81 560.5,-300 564.69,-292.16 565.81,-287.13 560.5,-280 554.08,-271.37 498.24,-256.2 456.55,-245.89"/>
<polygon fill="midnightblue" stroke="midnightblue" points="457.38,-242.49 446.83,-243.5 455.71,-249.28 457.38,-242.49"/>
</g>
<!-- Node24 -->
<g id="node24" class="node">
<title>Node24</title>
<g id="a_node24"><a xlink:href="a00086.html" target="_top" xlink:title=" ">
<polygon fill="white" stroke="black" points="607.5,-280.5 607.5,-299.5 693.5,-299.5 693.5,-280.5 607.5,-280.5"/>
<text text-anchor="middle" x="650.5" y="-287.5" font-family="Helvetica,sans-Serif" font-size="10.00">Transform.hpp</text>
</a>
</g>
</g>
<!-- Node1&#45;&gt;Node24 -->
<g id="edge35" class="edge">
<title>Node1&#45;&gt;Node24</title>
<path fill="none" stroke="midnightblue" d="M473.7,-400.46C512.17,-392.31 557.47,-378.66 593.5,-356 612.89,-343.81 629.41,-323.06 639.6,-308.29"/>
<polygon fill="midnightblue" stroke="midnightblue" points="642.75,-309.86 645.35,-299.59 636.91,-306 642.75,-309.86"/>
</g>
<!-- Node4 -->
<g id="node4" class="node">
<title>Node4</title>
<g id="a_node4"><a xlink:title=" ">
<polygon fill="white" stroke="#bfbfbf" points="405.5,-280.5 405.5,-299.5 437.5,-299.5 437.5,-280.5 405.5,-280.5"/>
<text text-anchor="middle" x="421.5" y="-287.5" font-family="Helvetica,sans-Serif" font-size="10.00">list</text>
</a>
</g>
</g>
<!-- Node3&#45;&gt;Node4 -->
<g id="edge3" class="edge">
<title>Node3&#45;&gt;Node4</title>
<path fill="none" stroke="midnightblue" d="M338.41,-336.32C354.14,-327.74 378.44,-314.49 396.71,-304.52"/>
<polygon fill="midnightblue" stroke="midnightblue" points="398.53,-307.52 405.63,-299.65 395.18,-301.37 398.53,-307.52"/>
</g>
<!-- Node5 -->
<g id="node5" class="node">
<title>Node5</title>
<g id="a_node5"><a xlink:href="a00089.html" target="_top" xlink:title=" ">
<polygon fill="white" stroke="black" points="287,-168.5 287,-187.5 416,-187.5 416,-168.5 287,-168.5"/>
<text text-anchor="middle" x="351.5" y="-175.5" font-family="Helvetica,sans-Serif" font-size="10.00">Transform/Vector2i.hpp</text>
</a>
</g>
</g>
<!-- Node3&#45;&gt;Node5 -->
<g id="edge4" class="edge">
<title>Node3&#45;&gt;Node5</title>
<path fill="none" stroke="midnightblue" d="M318.75,-336.16C313.92,-323.64 306.59,-300.05 310.5,-280 316.49,-249.32 331.82,-216.17 341.95,-196.52"/>
<polygon fill="midnightblue" stroke="midnightblue" points="345.1,-198.04 346.69,-187.56 338.92,-194.76 345.1,-198.04"/>
</g>
<!-- Node3&#45;&gt;Node11 -->
<g id="edge11" class="edge">
<title>Node3&#45;&gt;Node11</title>
<path fill="none" stroke="midnightblue" d="M282.67,-341.3C246.02,-336.41 191.33,-325.23 150.5,-300 131.02,-287.96 114.51,-267.19 104.35,-252.36"/>
<polygon fill="midnightblue" stroke="midnightblue" points="107.04,-250.07 98.63,-243.63 101.18,-253.91 107.04,-250.07"/>
</g>
<!-- Node13 -->
<g id="node13" class="node">
<title>Node13</title>
<g id="a_node13"><a xlink:href="a00125.html" target="_top" xlink:title=" ">
<polygon fill="white" stroke="black" points="195.5,-224.5 195.5,-243.5 263.5,-243.5 263.5,-224.5 195.5,-224.5"/>
<text text-anchor="middle" x="229.5" y="-231.5" font-family="Helvetica,sans-Serif" font-size="10.00">Image.hpp</text>
</a>
</g>
</g>
<!-- Node3&#45;&gt;Node13 -->
<g id="edge14" class="edge">
<title>Node3&#45;&gt;Node13</title>
<path fill="none" stroke="midnightblue" d="M313.13,-336.41C303.73,-327.63 289.03,-313.4 277.5,-300 264.12,-284.45 250.36,-265.45 241.02,-252.02"/>
<polygon fill="midnightblue" stroke="midnightblue" points="243.87,-249.99 235.32,-243.72 238.1,-253.95 243.87,-249.99"/>
</g>
<!-- Node18 -->
<g id="node18" class="node">
<title>Node18</title>
<g id="a_node18"><a xlink:href="a00116.html" target="_top" xlink:title=" ">
<polygon fill="white" stroke="black" points="160,-280.5 160,-299.5 225,-299.5 225,-280.5 160,-280.5"/>
<text text-anchor="middle" x="192.5" y="-287.5" font-family="Helvetica,sans-Serif" font-size="10.00">IFilter.hpp</text>
</a>
</g>
</g>
<!-- Node3&#45;&gt;Node18 -->
<g id="edge23" class="edge">
<title>Node3&#45;&gt;Node18</title>
<path fill="none" stroke="midnightblue" d="M301.9,-336.44C280.51,-327.56 246.82,-313.56 222.48,-303.45"/>
<polygon fill="midnightblue" stroke="midnightblue" points="223.58,-300.12 213,-299.52 220.89,-306.58 223.58,-300.12"/>
</g>
<!-- Node3&#45;&gt;Node19 -->
<g id="edge25" class="edge">
<title>Node3&#45;&gt;Node19</title>
<path fill="none" stroke="midnightblue" d="M351.18,-336.44C382.03,-327.24 431.23,-312.56 465.33,-302.39"/>
<polygon fill="midnightblue" stroke="midnightblue" points="466.37,-305.73 474.95,-299.52 464.37,-299.02 466.37,-305.73"/>
</g>
<!-- Node20 -->
<g id="node20" class="node">
<title>Node20</title>
<g id="a_node20"><a xlink:href="a00071.html" target="_top" xlink:title=" ">
<polygon fill="white" stroke="black" points="319.5,-280.5 319.5,-299.5 387.5,-299.5 387.5,-280.5 319.5,-280.5"/>
<text text-anchor="middle" x="353.5" y="-287.5" font-family="Helvetica,sans-Serif" font-size="10.00">IEntity.hpp</text>
</a>
</g>
</g>
<!-- Node3&#45;&gt;Node20 -->
<g id="edge26" class="edge">
<title>Node3&#45;&gt;Node20</title>
<path fill="none" stroke="midnightblue" d="M327.62,-336.08C331.91,-328.61 338.16,-317.72 343.44,-308.52"/>
<polygon fill="midnightblue" stroke="midnightblue" points="346.53,-310.17 348.48,-299.75 340.46,-306.68 346.53,-310.17"/>
</g>
<!-- Node6 -->
<g id="node6" class="node">
<title>Node6</title>
<g id="a_node6"><a xlink:title=" ">
<polygon fill="white" stroke="#bfbfbf" points="304,-112.5 304,-131.5 361,-131.5 361,-112.5 304,-112.5"/>
<text text-anchor="middle" x="332.5" y="-119.5" font-family="Helvetica,sans-Serif" font-size="10.00">ostream</text>
</a>
</g>
</g>
<!-- Node5&#45;&gt;Node6 -->
<g id="edge5" class="edge">
<title>Node5&#45;&gt;Node6</title>
<path fill="none" stroke="midnightblue" d="M348.36,-168.08C345.82,-160.85 342.14,-150.41 338.97,-141.4"/>
<polygon fill="midnightblue" stroke="midnightblue" points="342.2,-140.02 335.58,-131.75 335.6,-142.35 342.2,-140.02"/>
</g>
<!-- Node7 -->
<g id="node7" class="node">
<title>Node7</title>
<g id="a_node7"><a xlink:href="a00197.html" target="_top" xlink:title=" ">
<polygon fill="white" stroke="black" points="379,-112.5 379,-131.5 450,-131.5 450,-112.5 379,-112.5"/>
<text text-anchor="middle" x="414.5" y="-119.5" font-family="Helvetica,sans-Serif" font-size="10.00">IConfig.hpp</text>
</a>
</g>
</g>
<!-- Node5&#45;&gt;Node7 -->
<g id="edge6" class="edge">
<title>Node5&#45;&gt;Node7</title>
<path fill="none" stroke="midnightblue" d="M361.62,-168.32C371.03,-160.26 385.24,-148.08 396.57,-138.37"/>
<polygon fill="midnightblue" stroke="midnightblue" points="398.88,-141 404.19,-131.83 394.32,-135.68 398.88,-141"/>
</g>
<!-- Node8 -->
<g id="node8" class="node">
<title>Node8</title>
<g id="a_node8"><a xlink:title=" ">
<polygon fill="white" stroke="#bfbfbf" points="340.5,-0.5 340.5,-19.5 398.5,-19.5 398.5,-0.5 340.5,-0.5"/>
<text text-anchor="middle" x="369.5" y="-7.5" font-family="Helvetica,sans-Serif" font-size="10.00">memory</text>
</a>
</g>
</g>
<!-- Node7&#45;&gt;Node8 -->
<g id="edge7" class="edge">
<title>Node7&#45;&gt;Node8</title>
<path fill="none" stroke="midnightblue" d="M410.97,-112.37C403.64,-94.46 386.65,-52.92 376.84,-28.95"/>
<polygon fill="midnightblue" stroke="midnightblue" points="380.04,-27.52 373.01,-19.59 373.56,-30.17 380.04,-27.52"/>
</g>
<!-- Node9 -->
<g id="node9" class="node">
<title>Node9</title>
<g id="a_node9"><a xlink:href="a00206.html" target="_top" xlink:title=" ">
<polygon fill="white" stroke="black" points="415,-56.5 415,-75.5 490,-75.5 490,-56.5 415,-56.5"/>
<text text-anchor="middle" x="452.5" y="-63.5" font-family="Helvetica,sans-Serif" font-size="10.00">ISetting.hpp</text>
</a>
</g>
</g>
<!-- Node7&#45;&gt;Node9 -->
<g id="edge8" class="edge">
<title>Node7&#45;&gt;Node9</title>
<path fill="none" stroke="midnightblue" d="M420.77,-112.08C426.14,-104.46 434.02,-93.26 440.58,-83.94"/>
<polygon fill="midnightblue" stroke="midnightblue" points="443.45,-85.94 446.34,-75.75 437.72,-81.91 443.45,-85.94"/>
</g>
<!-- Node9&#45;&gt;Node8 -->
<g id="edge9" class="edge">
<title>Node9&#45;&gt;Node8</title>
<path fill="none" stroke="midnightblue" d="M439.16,-56.32C426.34,-47.98 406.72,-35.21 391.56,-25.35"/>
<polygon fill="midnightblue" stroke="midnightblue" points="393.09,-22.17 382.8,-19.65 389.28,-28.04 393.09,-22.17"/>
</g>
<!-- Node10 -->
<g id="node10" class="node">
<title>Node10</title>
<g id="a_node10"><a xlink:title=" ">
<polygon fill="white" stroke="#bfbfbf" points="417,-0.5 417,-19.5 500,-19.5 500,-0.5 417,-0.5"/>
<text text-anchor="middle" x="458.5" y="-7.5" font-family="Helvetica,sans-Serif" font-size="10.00">libconfig.h++</text>
</a>
</g>
</g>
<!-- Node9&#45;&gt;Node10 -->
<g id="edge10" class="edge">
<title>Node9&#45;&gt;Node10</title>
<path fill="none" stroke="midnightblue" d="M453.49,-56.08C454.29,-48.93 455.43,-38.64 456.42,-29.69"/>
<polygon fill="midnightblue" stroke="midnightblue" points="459.9,-30.08 457.53,-19.75 452.94,-29.3 459.9,-30.08"/>
</g>
<!-- Node11&#45;&gt;Node8 -->
<g id="edge12" class="edge">
<title>Node11&#45;&gt;Node8</title>
<path fill="none" stroke="midnightblue" d="M83.4,-224.2C70.38,-211.74 50.54,-188.2 60.5,-168 111.49,-64.61 259.21,-28.04 330.33,-16.18"/>
<polygon fill="midnightblue" stroke="midnightblue" points="330.92,-19.63 340.25,-14.61 329.82,-12.72 330.92,-19.63"/>
</g>
<!-- Node12 -->
<g id="node12" class="node">
<title>Node12</title>
<g id="a_node12"><a xlink:title=" ">
<polygon fill="white" stroke="#bfbfbf" points="70,-168.5 70,-187.5 117,-187.5 117,-168.5 70,-168.5"/>
<text text-anchor="middle" x="93.5" y="-175.5" font-family="Helvetica,sans-Serif" font-size="10.00">vector</text>
</a>
</g>
</g>
<!-- Node11&#45;&gt;Node12 -->
<g id="edge13" class="edge">
<title>Node11&#45;&gt;Node12</title>
<path fill="none" stroke="midnightblue" d="M93.5,-224.08C93.5,-217.01 93.5,-206.86 93.5,-197.99"/>
<polygon fill="midnightblue" stroke="midnightblue" points="97,-197.75 93.5,-187.75 90,-197.75 97,-197.75"/>
</g>
<!-- Node13&#45;&gt;Node5 -->
<g id="edge22" class="edge">
<title>Node13&#45;&gt;Node5</title>
<path fill="none" stroke="midnightblue" d="M248.83,-224.44C268.82,-215.6 300.24,-201.69 323.06,-191.59"/>
<polygon fill="midnightblue" stroke="midnightblue" points="324.53,-194.76 332.26,-187.52 321.7,-188.36 324.53,-194.76"/>
</g>
<!-- Node13&#45;&gt;Node12 -->
<g id="edge17" class="edge">
<title>Node13&#45;&gt;Node12</title>
<path fill="none" stroke="midnightblue" d="M207.95,-224.44C185.47,-215.52 150.01,-201.44 124.52,-191.32"/>
<polygon fill="midnightblue" stroke="midnightblue" points="125.53,-187.95 114.95,-187.52 122.95,-194.46 125.53,-187.95"/>
</g>
<!-- Node14 -->
<g id="node14" class="node">
<title>Node14</title>
<g id="a_node14"><a xlink:title=" ">
<polygon fill="white" stroke="#bfbfbf" points="216,-168.5 216,-187.5 269,-187.5 269,-168.5 216,-168.5"/>
<text text-anchor="middle" x="242.5" y="-175.5" font-family="Helvetica,sans-Serif" font-size="10.00">cstddef</text>
</a>
</g>
</g>
<!-- Node13&#45;&gt;Node14 -->
<g id="edge15" class="edge">
<title>Node13&#45;&gt;Node14</title>
<path fill="none" stroke="midnightblue" d="M231.65,-224.08C233.37,-216.93 235.85,-206.64 238,-197.69"/>
<polygon fill="midnightblue" stroke="midnightblue" points="241.46,-198.29 240.39,-187.75 234.65,-196.65 241.46,-198.29"/>
</g>
<!-- Node15 -->
<g id="node15" class="node">
<title>Node15</title>
<g id="a_node15"><a xlink:title=" ">
<polygon fill="white" stroke="#bfbfbf" points="434.5,-168.5 434.5,-187.5 478.5,-187.5 478.5,-168.5 434.5,-168.5"/>
<text text-anchor="middle" x="456.5" y="-175.5" font-family="Helvetica,sans-Serif" font-size="10.00">string</text>
</a>
</g>
</g>
<!-- Node13&#45;&gt;Node15 -->
<g id="edge16" class="edge">
<title>Node13&#45;&gt;Node15</title>
<path fill="none" stroke="midnightblue" d="M263.79,-225.6C300.84,-217.5 361.86,-203.82 424.15,-187.99"/>
<polygon fill="midnightblue" stroke="midnightblue" points="425.34,-191.3 434.16,-185.43 423.6,-184.52 425.34,-191.3"/>
</g>
<!-- Node16 -->
<g id="node16" class="node">
<title>Node16</title>
<g id="a_node16"><a xlink:href="a00122.html" target="_top" xlink:title=" ">
<polygon fill="white" stroke="black" points="135.5,-168.5 135.5,-187.5 197.5,-187.5 197.5,-168.5 135.5,-168.5"/>
<text text-anchor="middle" x="166.5" y="-175.5" font-family="Helvetica,sans-Serif" font-size="10.00">Color.hpp</text>
</a>
</g>
</g>
<!-- Node13&#45;&gt;Node16 -->
<g id="edge18" class="edge">
<title>Node13&#45;&gt;Node16</title>
<path fill="none" stroke="midnightblue" d="M219.38,-224.32C209.97,-216.26 195.76,-204.08 184.43,-194.37"/>
<polygon fill="midnightblue" stroke="midnightblue" points="186.68,-191.68 176.81,-187.83 182.12,-197 186.68,-191.68"/>
</g>
<!-- Node16&#45;&gt;Node6 -->
<g id="edge20" class="edge">
<title>Node16&#45;&gt;Node6</title>
<path fill="none" stroke="midnightblue" d="M192.8,-168.44C220.85,-159.32 265.44,-144.81 296.68,-134.65"/>
<polygon fill="midnightblue" stroke="midnightblue" points="297.89,-137.94 306.32,-131.52 295.73,-131.28 297.89,-137.94"/>
</g>
<!-- Node16&#45;&gt;Node9 -->
<g id="edge21" class="edge">
<title>Node16&#45;&gt;Node9</title>
<path fill="none" stroke="midnightblue" d="M181.05,-168.44C204.36,-155 251.81,-128.74 294.5,-112 330.68,-97.81 373.11,-85.98 404.88,-78.02"/>
<polygon fill="midnightblue" stroke="midnightblue" points="405.93,-81.36 414.8,-75.57 404.25,-74.56 405.93,-81.36"/>
</g>
<!-- Node17 -->
<g id="node17" class="node">
<title>Node17</title>
<g id="a_node17"><a xlink:title=" ">
<polygon fill="white" stroke="#bfbfbf" points="142.5,-112.5 142.5,-131.5 190.5,-131.5 190.5,-112.5 142.5,-112.5"/>
<text text-anchor="middle" x="166.5" y="-119.5" font-family="Helvetica,sans-Serif" font-size="10.00">mutex</text>
</a>
</g>
</g>
<!-- Node16&#45;&gt;Node17 -->
<g id="edge19" class="edge">
<title>Node16&#45;&gt;Node17</title>
<path fill="none" stroke="midnightblue" d="M166.5,-168.08C166.5,-161.01 166.5,-150.86 166.5,-141.99"/>
<polygon fill="midnightblue" stroke="midnightblue" points="170,-141.75 166.5,-131.75 163,-141.75 170,-141.75"/>
</g>
<!-- Node18&#45;&gt;Node13 -->
<g id="edge24" class="edge">
<title>Node18&#45;&gt;Node13</title>
<path fill="none" stroke="midnightblue" d="M198.61,-280.08C203.78,-272.53 211.35,-261.49 217.69,-252.23"/>
<polygon fill="midnightblue" stroke="midnightblue" points="220.74,-253.98 223.5,-243.75 214.96,-250.02 220.74,-253.98"/>
</g>
<!-- Node21 -->
<g id="node21" class="node">
<title>Node21</title>
<g id="a_node21"><a xlink:href="a00083.html" target="_top" xlink:title=" ">
<polygon fill="white" stroke="black" points="465,-224.5 465,-243.5 606,-243.5 606,-224.5 465,-224.5"/>
<text text-anchor="middle" x="535.5" y="-231.5" font-family="Helvetica,sans-Serif" font-size="10.00">Transform/ITransform.hpp</text>
</a>
</g>
</g>
<!-- Node20&#45;&gt;Node21 -->
<g id="edge27" class="edge">
<title>Node20&#45;&gt;Node21</title>
<path fill="none" stroke="midnightblue" d="M382.34,-280.44C413.36,-271.24 462.83,-256.56 497.12,-246.39"/>
<polygon fill="midnightblue" stroke="midnightblue" points="498.21,-249.72 506.8,-243.52 496.21,-243.01 498.21,-249.72"/>
</g>
<!-- Node22 -->
<g id="node22" class="node">
<title>Node22</title>
<g id="a_node22"><a xlink:href="a00092.html" target="_top" xlink:title=" ">
<polygon fill="white" stroke="black" points="497,-168.5 497,-187.5 574,-187.5 574,-168.5 497,-168.5"/>
<text text-anchor="middle" x="535.5" y="-175.5" font-family="Helvetica,sans-Serif" font-size="10.00">Vector3f.hpp</text>
</a>
</g>
</g>
<!-- Node21&#45;&gt;Node22 -->
<g id="edge28" class="edge">
<title>Node21&#45;&gt;Node22</title>
<path fill="none" stroke="midnightblue" d="M535.5,-224.08C535.5,-217.01 535.5,-206.86 535.5,-197.99"/>
<polygon fill="midnightblue" stroke="midnightblue" points="539,-197.75 535.5,-187.75 532,-197.75 539,-197.75"/>
</g>
<!-- Node22&#45;&gt;Node6 -->
<g id="edge29" class="edge">
<title>Node22&#45;&gt;Node6</title>
<path fill="none" stroke="midnightblue" d="M503.33,-168.44C467.41,-158.89 409.3,-143.43 371,-133.24"/>
<polygon fill="midnightblue" stroke="midnightblue" points="371.8,-129.83 361.23,-130.64 370,-136.6 371.8,-129.83"/>
</g>
<!-- Node22&#45;&gt;Node9 -->
<g id="edge30" class="edge">
<title>Node22&#45;&gt;Node9</title>
<path fill="none" stroke="midnightblue" d="M528.99,-168.37C515.23,-150.14 483,-107.43 465.08,-83.68"/>
<polygon fill="midnightblue" stroke="midnightblue" points="467.8,-81.47 458.98,-75.59 462.21,-85.68 467.8,-81.47"/>
</g>
<!-- Node23&#45;&gt;Node15 -->
<g id="edge32" class="edge">
<title>Node23&#45;&gt;Node15</title>
<path fill="none" stroke="midnightblue" d="M418.1,-224.08C424.73,-216.3 434.52,-204.8 442.56,-195.37"/>
<polygon fill="midnightblue" stroke="midnightblue" points="445.23,-197.63 449.05,-187.75 439.9,-193.09 445.23,-197.63"/>
</g>
<!-- Node24&#45;&gt;Node9 -->
<g id="edge37" class="edge">
<title>Node24&#45;&gt;Node9</title>
<path fill="none" stroke="midnightblue" d="M650.09,-280.08C649.17,-267.05 646.19,-242.38 636.5,-224 600.17,-155.07 519.85,-103.58 478.38,-80.47"/>
<polygon fill="midnightblue" stroke="midnightblue" points="479.9,-77.3 469.44,-75.59 476.54,-83.45 479.9,-77.3"/>
</g>
<!-- Node24&#45;&gt;Node21 -->
<g id="edge36" class="edge">
<title>Node24&#45;&gt;Node21</title>
<path fill="none" stroke="midnightblue" d="M632.28,-280.44C613.6,-271.68 584.34,-257.94 562.88,-247.86"/>
<polygon fill="midnightblue" stroke="midnightblue" points="564.18,-244.6 553.64,-243.52 561.2,-250.93 564.18,-244.6"/>
</g>
<!-- Node24&#45;&gt;Node22 -->
<g id="edge38" class="edge">
<title>Node24&#45;&gt;Node22</title>
<path fill="none" stroke="midnightblue" d="M647.67,-280.46C642.87,-267.05 632.02,-240.83 615.5,-224 602,-210.25 583.41,-199.45 567.55,-191.88"/>
<polygon fill="midnightblue" stroke="midnightblue" points="568.64,-188.54 558.09,-187.59 565.75,-194.91 568.64,-188.54"/>
</g>
</g>
</svg>
