<?xml version="1.0" encoding="UTF-8" standalone="no"?>
<!DOCTYPE svg PUBLIC "-//W3C//DTD SVG 1.1//EN"
 "http://www.w3.org/Graphics/SVG/1.1/DTD/svg11.dtd">
<!-- Generated by graphviz version 2.43.0 (0)
 -->
<!-- Title: /home/runner/work/Raytracer/Raytracer/PluginsExt/BlackAndWhite/BlackAndWhiteFilter.hpp Pages: 1 -->
<svg width="676pt" height="386pt"
 viewBox="0.00 0.00 675.65 386.00" xmlns="http://www.w3.org/2000/svg" xmlns:xlink="http://www.w3.org/1999/xlink">
<g id="graph0" class="graph" transform="scale(1 1) rotate(0) translate(4 382)">
<title>/home/runner/work/Raytracer/Raytracer/PluginsExt/BlackAndWhite/BlackAndWhiteFilter.hpp</title>
<polygon fill="white" stroke="transparent" points="-4,4 -4,-382 671.65,-382 671.65,4 -4,4"/>
<!-- Node1 -->
<g id="node1" class="node">
<title>Node1</title>
<g id="a_node1"><a xlink:title=" ">
<polygon fill="#bfbfbf" stroke="black" points="228,-336.5 228,-377.5 426,-377.5 426,-336.5 228,-336.5"/>
<text text-anchor="start" x="236" y="-365.5" font-family="Helvetica,sans-Serif" font-size="10.00">/home/runner/work/Raytracer</text>
<text text-anchor="start" x="236" y="-354.5" font-family="Helvetica,sans-Serif" font-size="10.00">/Raytracer/PluginsExt/BlackAndWhite</text>
<text text-anchor="middle" x="327" y="-343.5" font-family="Helvetica,sans-Serif" font-size="10.00">/BlackAndWhiteFilter.hpp</text>
</a>
</g>
</g>
<!-- Node2 -->
<g id="node2" class="node">
<title>Node2</title>
<g id="a_node2"><a xlink:title=" ">
<polygon fill="white" stroke="#bfbfbf" points="0,-280.5 0,-299.5 46,-299.5 46,-280.5 0,-280.5"/>
<text text-anchor="middle" x="23" y="-287.5" font-family="Helvetica,sans-Serif" font-size="10.00">future</text>
</a>
</g>
</g>
<!-- Node1&#45;&gt;Node2 -->
<g id="edge1" class="edge">
<title>Node1&#45;&gt;Node2</title>
<path fill="none" stroke="midnightblue" d="M230.13,-336.46C179.38,-326.02 116.24,-312.73 60,-300 58.73,-299.71 57.44,-299.42 56.13,-299.11"/>
<polygon fill="midnightblue" stroke="midnightblue" points="56.6,-295.63 46.07,-296.73 54.99,-302.44 56.6,-295.63"/>
</g>
<!-- Node3 -->
<g id="node3" class="node">
<title>Node3</title>
<g id="a_node3"><a xlink:title=" ">
<polygon fill="white" stroke="#bfbfbf" points="536,-112.5 536,-131.5 580,-131.5 580,-112.5 536,-112.5"/>
<text text-anchor="middle" x="558" y="-119.5" font-family="Helvetica,sans-Serif" font-size="10.00">string</text>
</a>
</g>
</g>
<!-- Node1&#45;&gt;Node3 -->
<g id="edge2" class="edge">
<title>Node1&#45;&gt;Node3</title>
<path fill="none" stroke="midnightblue" d="M361.56,-336.32C378.27,-326.23 398.27,-313.3 415,-300 470.6,-255.8 488.49,-246.34 529,-188 539.12,-173.42 547.01,-154.75 551.99,-141.16"/>
<polygon fill="midnightblue" stroke="midnightblue" points="555.36,-142.12 555.35,-131.52 548.75,-139.82 555.36,-142.12"/>
</g>
<!-- Node4 -->
<g id="node4" class="node">
<title>Node4</title>
<g id="a_node4"><a xlink:title=" ">
<polygon fill="white" stroke="#bfbfbf" points="282.5,-168.5 282.5,-187.5 329.5,-187.5 329.5,-168.5 282.5,-168.5"/>
<text text-anchor="middle" x="306" y="-175.5" font-family="Helvetica,sans-Serif" font-size="10.00">vector</text>
</a>
</g>
</g>
<!-- Node1&#45;&gt;Node4 -->
<g id="edge3" class="edge">
<title>Node1&#45;&gt;Node4</title>
<path fill="none" stroke="midnightblue" d="M322.59,-336.39C320.33,-325.69 317.69,-312.17 316,-300 310.98,-263.94 308.18,-221.45 306.89,-197.63"/>
<polygon fill="midnightblue" stroke="midnightblue" points="310.38,-197.35 306.38,-187.54 303.39,-197.71 310.38,-197.35"/>
</g>
<!-- Node5 -->
<g id="node5" class="node">
<title>Node5</title>
<g id="a_node5"><a xlink:href="a00161.html" target="_top" xlink:title=" ">
<polygon fill="white" stroke="black" points="202,-168.5 202,-187.5 264,-187.5 264,-168.5 202,-168.5"/>
<text text-anchor="middle" x="233" y="-175.5" font-family="Helvetica,sans-Serif" font-size="10.00">Color.hpp</text>
</a>
</g>
</g>
<!-- Node1&#45;&gt;Node5 -->
<g id="edge4" class="edge">
<title>Node1&#45;&gt;Node5</title>
<path fill="none" stroke="midnightblue" d="M316.58,-336.38C298.13,-301.63 259.98,-229.81 242.33,-196.57"/>
<polygon fill="midnightblue" stroke="midnightblue" points="245.34,-194.77 237.56,-187.58 239.16,-198.06 245.34,-194.77"/>
</g>
<!-- Node9 -->
<g id="node9" class="node">
<title>Node9</title>
<g id="a_node9"><a xlink:href="a00245.html" target="_top" xlink:title=" ">
<polygon fill="white" stroke="black" points="210.5,-56.5 210.5,-75.5 285.5,-75.5 285.5,-56.5 210.5,-56.5"/>
<text text-anchor="middle" x="248" y="-63.5" font-family="Helvetica,sans-Serif" font-size="10.00">ISetting.hpp</text>
</a>
</g>
</g>
<!-- Node1&#45;&gt;Node9 -->
<g id="edge26" class="edge">
<title>Node1&#45;&gt;Node9</title>
<path fill="none" stroke="midnightblue" d="M227.73,-347.68C156.85,-335.65 74,-306.33 74,-235 74,-235 74,-235 74,-177 74,-117.03 148.77,-88.41 200.28,-75.82"/>
<polygon fill="midnightblue" stroke="midnightblue" points="201.29,-79.17 210.24,-73.51 199.71,-72.36 201.29,-79.17"/>
</g>
<!-- Node12 -->
<g id="node12" class="node">
<title>Node12</title>
<g id="a_node12"><a xlink:href="a00158.html" target="_top" xlink:title=" ">
<polygon fill="white" stroke="black" points="590.5,-280.5 590.5,-299.5 663.5,-299.5 663.5,-280.5 590.5,-280.5"/>
<text text-anchor="middle" x="627" y="-287.5" font-family="Helvetica,sans-Serif" font-size="10.00">ILogger.hpp</text>
</a>
</g>
</g>
<!-- Node1&#45;&gt;Node12 -->
<g id="edge12" class="edge">
<title>Node1&#45;&gt;Node12</title>
<path fill="none" stroke="midnightblue" d="M417.01,-336.5C470.7,-324.87 536.66,-310.57 580.16,-301.15"/>
<polygon fill="midnightblue" stroke="midnightblue" points="581.14,-304.52 590.18,-298.98 579.66,-297.68 581.14,-304.52"/>
</g>
<!-- Node14 -->
<g id="node14" class="node">
<title>Node14</title>
<g id="a_node14"><a xlink:href="a00155.html" target="_top" xlink:title=" ">
<polygon fill="white" stroke="black" points="325.5,-280.5 325.5,-299.5 390.5,-299.5 390.5,-280.5 325.5,-280.5"/>
<text text-anchor="middle" x="358" y="-287.5" font-family="Helvetica,sans-Serif" font-size="10.00">IFilter.hpp</text>
</a>
</g>
</g>
<!-- Node1&#45;&gt;Node14 -->
<g id="edge15" class="edge">
<title>Node1&#45;&gt;Node14</title>
<path fill="none" stroke="midnightblue" d="M336.3,-336.5C340.51,-327.68 345.44,-317.34 349.54,-308.74"/>
<polygon fill="midnightblue" stroke="midnightblue" points="352.73,-310.19 353.87,-299.65 346.41,-307.17 352.73,-310.19"/>
</g>
<!-- Node15 -->
<g id="node15" class="node">
<title>Node15</title>
<g id="a_node15"><a xlink:href="a00164.html" target="_top" xlink:title=" ">
<polygon fill="white" stroke="black" points="352,-224.5 352,-243.5 420,-243.5 420,-224.5 352,-224.5"/>
<text text-anchor="middle" x="386" y="-231.5" font-family="Helvetica,sans-Serif" font-size="10.00">Image.hpp</text>
</a>
</g>
</g>
<!-- Node1&#45;&gt;Node15 -->
<g id="edge27" class="edge">
<title>Node1&#45;&gt;Node15</title>
<path fill="none" stroke="midnightblue" d="M364.59,-336.38C378.01,-327.27 391.63,-315.08 399,-300 406.25,-285.17 401.3,-266.55 395.54,-253.05"/>
<polygon fill="midnightblue" stroke="midnightblue" points="398.62,-251.39 391.16,-243.86 392.3,-254.4 398.62,-251.39"/>
</g>
<!-- Node5&#45;&gt;Node3 -->
<g id="edge8" class="edge">
<title>Node5&#45;&gt;Node3</title>
<path fill="none" stroke="midnightblue" d="M264.4,-169.7C267.3,-169.1 270.2,-168.52 273,-168 380.77,-147.95 409.18,-151.76 517,-132 519.89,-131.47 522.89,-130.88 525.88,-130.27"/>
<polygon fill="midnightblue" stroke="midnightblue" points="526.87,-133.64 535.93,-128.14 525.42,-126.79 526.87,-133.64"/>
</g>
<!-- Node6 -->
<g id="node6" class="node">
<title>Node6</title>
<g id="a_node6"><a xlink:title=" ">
<polygon fill="white" stroke="#bfbfbf" points="296,-112.5 296,-131.5 344,-131.5 344,-112.5 296,-112.5"/>
<text text-anchor="middle" x="320" y="-119.5" font-family="Helvetica,sans-Serif" font-size="10.00">mutex</text>
</a>
</g>
</g>
<!-- Node5&#45;&gt;Node6 -->
<g id="edge5" class="edge">
<title>Node5&#45;&gt;Node6</title>
<path fill="none" stroke="midnightblue" d="M246.98,-168.32C260.55,-159.9 281.38,-146.97 297.32,-137.07"/>
<polygon fill="midnightblue" stroke="midnightblue" points="299.41,-139.9 306.06,-131.65 295.71,-133.95 299.41,-139.9"/>
</g>
<!-- Node7 -->
<g id="node7" class="node">
<title>Node7</title>
<g id="a_node7"><a xlink:title=" ">
<polygon fill="white" stroke="#bfbfbf" points="362.5,-112.5 362.5,-131.5 419.5,-131.5 419.5,-112.5 362.5,-112.5"/>
<text text-anchor="middle" x="391" y="-119.5" font-family="Helvetica,sans-Serif" font-size="10.00">ostream</text>
</a>
</g>
</g>
<!-- Node5&#45;&gt;Node7 -->
<g id="edge6" class="edge">
<title>Node5&#45;&gt;Node7</title>
<path fill="none" stroke="midnightblue" d="M258.04,-168.44C284.62,-159.36 326.81,-144.94 356.52,-134.78"/>
<polygon fill="midnightblue" stroke="midnightblue" points="357.75,-138.06 366.08,-131.52 355.49,-131.44 357.75,-138.06"/>
</g>
<!-- Node8 -->
<g id="node8" class="node">
<title>Node8</title>
<g id="a_node8"><a xlink:title=" ">
<polygon fill="white" stroke="#bfbfbf" points="140.5,-112.5 140.5,-131.5 277.5,-131.5 277.5,-112.5 140.5,-112.5"/>
<text text-anchor="middle" x="209" y="-119.5" font-family="Helvetica,sans-Serif" font-size="10.00">SFML/Graphics/Color.hpp</text>
</a>
</g>
</g>
<!-- Node5&#45;&gt;Node8 -->
<g id="edge7" class="edge">
<title>Node5&#45;&gt;Node8</title>
<path fill="none" stroke="midnightblue" d="M229.04,-168.08C225.79,-160.77 221.08,-150.18 217.05,-141.1"/>
<polygon fill="midnightblue" stroke="midnightblue" points="220.15,-139.47 212.89,-131.75 213.75,-142.31 220.15,-139.47"/>
</g>
<!-- Node5&#45;&gt;Node9 -->
<g id="edge9" class="edge">
<title>Node5&#45;&gt;Node9</title>
<path fill="none" stroke="midnightblue" d="M201.94,-170.54C164.87,-161.32 110.32,-142.12 131,-112 146.54,-89.37 175.17,-78.12 200.21,-72.52"/>
<polygon fill="midnightblue" stroke="midnightblue" points="201.19,-75.9 210.32,-70.52 199.83,-69.03 201.19,-75.9"/>
</g>
<!-- Node10 -->
<g id="node10" class="node">
<title>Node10</title>
<g id="a_node10"><a xlink:title=" ">
<polygon fill="white" stroke="#bfbfbf" points="376,-0.5 376,-19.5 434,-19.5 434,-0.5 376,-0.5"/>
<text text-anchor="middle" x="405" y="-7.5" font-family="Helvetica,sans-Serif" font-size="10.00">memory</text>
</a>
</g>
</g>
<!-- Node9&#45;&gt;Node10 -->
<g id="edge10" class="edge">
<title>Node9&#45;&gt;Node10</title>
<path fill="none" stroke="midnightblue" d="M272.88,-56.44C299.29,-47.36 341.22,-32.94 370.74,-22.78"/>
<polygon fill="midnightblue" stroke="midnightblue" points="371.92,-26.08 380.24,-19.52 369.64,-19.46 371.92,-26.08"/>
</g>
<!-- Node11 -->
<g id="node11" class="node">
<title>Node11</title>
<g id="a_node11"><a xlink:title=" ">
<polygon fill="white" stroke="#bfbfbf" points="206.5,-0.5 206.5,-19.5 289.5,-19.5 289.5,-0.5 206.5,-0.5"/>
<text text-anchor="middle" x="248" y="-7.5" font-family="Helvetica,sans-Serif" font-size="10.00">libconfig.h++</text>
</a>
</g>
</g>
<!-- Node9&#45;&gt;Node11 -->
<g id="edge11" class="edge">
<title>Node9&#45;&gt;Node11</title>
<path fill="none" stroke="midnightblue" d="M248,-56.08C248,-49.01 248,-38.86 248,-29.99"/>
<polygon fill="midnightblue" stroke="midnightblue" points="251.5,-29.75 248,-19.75 244.5,-29.75 251.5,-29.75"/>
</g>
<!-- Node12&#45;&gt;Node3 -->
<g id="edge14" class="edge">
<title>Node12&#45;&gt;Node3</title>
<path fill="none" stroke="midnightblue" d="M638.48,-280.11C652.73,-267.93 674.11,-245.13 665,-224 648.17,-184.97 608.02,-154.01 581.97,-137.12"/>
<polygon fill="midnightblue" stroke="midnightblue" points="583.74,-134.09 573.41,-131.74 580.01,-140.02 583.74,-134.09"/>
</g>
<!-- Node13 -->
<g id="node13" class="node">
<title>Node13</title>
<g id="a_node13"><a xlink:title=" ">
<polygon fill="white" stroke="#bfbfbf" points="590.5,-224.5 590.5,-243.5 655.5,-243.5 655.5,-224.5 590.5,-224.5"/>
<text text-anchor="middle" x="623" y="-231.5" font-family="Helvetica,sans-Serif" font-size="10.00">functional</text>
</a>
</g>
</g>
<!-- Node12&#45;&gt;Node13 -->
<g id="edge13" class="edge">
<title>Node12&#45;&gt;Node13</title>
<path fill="none" stroke="midnightblue" d="M626.34,-280.08C625.82,-273.01 625.06,-262.86 624.41,-253.99"/>
<polygon fill="midnightblue" stroke="midnightblue" points="627.88,-253.47 623.65,-243.75 620.9,-253.98 627.88,-253.47"/>
</g>
<!-- Node14&#45;&gt;Node15 -->
<g id="edge16" class="edge">
<title>Node14&#45;&gt;Node15</title>
<path fill="none" stroke="midnightblue" d="M362.62,-280.08C366.46,-272.69 372.02,-261.95 376.76,-252.81"/>
<polygon fill="midnightblue" stroke="midnightblue" points="379.97,-254.24 381.46,-243.75 373.75,-251.02 379.97,-254.24"/>
</g>
<!-- Node15&#45;&gt;Node3 -->
<g id="edge18" class="edge">
<title>Node15&#45;&gt;Node3</title>
<path fill="none" stroke="midnightblue" d="M420.03,-225.03C444.91,-218.06 478.59,-206.18 504,-188 522.01,-175.12 537.55,-154.83 547.28,-140.35"/>
<polygon fill="midnightblue" stroke="midnightblue" points="550.31,-142.1 552.8,-131.81 544.43,-138.31 550.31,-142.1"/>
</g>
<!-- Node15&#45;&gt;Node4 -->
<g id="edge19" class="edge">
<title>Node15&#45;&gt;Node4</title>
<path fill="none" stroke="midnightblue" d="M373.15,-224.32C360.78,-215.98 341.87,-203.21 327.26,-193.35"/>
<polygon fill="midnightblue" stroke="midnightblue" points="329.07,-190.35 318.82,-187.65 325.15,-196.15 329.07,-190.35"/>
</g>
<!-- Node15&#45;&gt;Node5 -->
<g id="edge20" class="edge">
<title>Node15&#45;&gt;Node5</title>
<path fill="none" stroke="midnightblue" d="M361.76,-224.44C336.13,-215.4 295.51,-201.06 266.76,-190.92"/>
<polygon fill="midnightblue" stroke="midnightblue" points="267.72,-187.54 257.13,-187.52 265.39,-194.15 267.72,-187.54"/>
</g>
<!-- Node16 -->
<g id="node16" class="node">
<title>Node16</title>
<g id="a_node16"><a xlink:title=" ">
<polygon fill="white" stroke="#bfbfbf" points="442.5,-168.5 442.5,-187.5 495.5,-187.5 495.5,-168.5 442.5,-168.5"/>
<text text-anchor="middle" x="469" y="-175.5" font-family="Helvetica,sans-Serif" font-size="10.00">cstddef</text>
</a>
</g>
</g>
<!-- Node15&#45;&gt;Node16 -->
<g id="edge17" class="edge">
<title>Node15&#45;&gt;Node16</title>
<path fill="none" stroke="midnightblue" d="M399.34,-224.32C412.16,-215.98 431.78,-203.21 446.94,-193.35"/>
<polygon fill="midnightblue" stroke="midnightblue" points="449.22,-196.04 455.7,-187.65 445.41,-190.17 449.22,-196.04"/>
</g>
<!-- Node17 -->
<g id="node17" class="node">
<title>Node17</title>
<g id="a_node17"><a xlink:href="a00128.html" target="_top" xlink:title=" ">
<polygon fill="white" stroke="black" points="347.5,-168.5 347.5,-187.5 424.5,-187.5 424.5,-168.5 347.5,-168.5"/>
<text text-anchor="middle" x="386" y="-175.5" font-family="Helvetica,sans-Serif" font-size="10.00">Vector2i.hpp</text>
</a>
</g>
</g>
<!-- Node15&#45;&gt;Node17 -->
<g id="edge21" class="edge">
<title>Node15&#45;&gt;Node17</title>
<path fill="none" stroke="midnightblue" d="M386,-224.08C386,-217.01 386,-206.86 386,-197.99"/>
<polygon fill="midnightblue" stroke="midnightblue" points="389.5,-197.75 386,-187.75 382.5,-197.75 389.5,-197.75"/>
</g>
<!-- Node17&#45;&gt;Node7 -->
<g id="edge22" class="edge">
<title>Node17&#45;&gt;Node7</title>
<path fill="none" stroke="midnightblue" d="M386.83,-168.08C387.48,-161.01 388.42,-150.86 389.24,-141.99"/>
<polygon fill="midnightblue" stroke="midnightblue" points="392.75,-142.03 390.19,-131.75 385.78,-141.39 392.75,-142.03"/>
</g>
<!-- Node18 -->
<g id="node18" class="node">
<title>Node18</title>
<g id="a_node18"><a xlink:href="a00236.html" target="_top" xlink:title=" ">
<polygon fill="white" stroke="black" points="437.5,-112.5 437.5,-131.5 508.5,-131.5 508.5,-112.5 437.5,-112.5"/>
<text text-anchor="middle" x="473" y="-119.5" font-family="Helvetica,sans-Serif" font-size="10.00">IConfig.hpp</text>
</a>
</g>
</g>
<!-- Node17&#45;&gt;Node18 -->
<g id="edge23" class="edge">
<title>Node17&#45;&gt;Node18</title>
<path fill="none" stroke="midnightblue" d="M399.98,-168.32C413.55,-159.9 434.38,-146.97 450.32,-137.07"/>
<polygon fill="midnightblue" stroke="midnightblue" points="452.41,-139.9 459.06,-131.65 448.71,-133.95 452.41,-139.9"/>
</g>
<!-- Node18&#45;&gt;Node9 -->
<g id="edge25" class="edge">
<title>Node18&#45;&gt;Node9</title>
<path fill="none" stroke="midnightblue" d="M437.35,-112.44C398.34,-103.08 335.73,-88.06 293.28,-77.87"/>
<polygon fill="midnightblue" stroke="midnightblue" points="294.03,-74.45 283.49,-75.52 292.39,-81.25 294.03,-74.45"/>
</g>
<!-- Node18&#45;&gt;Node10 -->
<g id="edge24" class="edge">
<title>Node18&#45;&gt;Node10</title>
<path fill="none" stroke="midnightblue" d="M467.66,-112.37C456.49,-94.3 430.45,-52.18 415.7,-28.31"/>
<polygon fill="midnightblue" stroke="midnightblue" points="418.55,-26.26 410.31,-19.59 412.59,-29.94 418.55,-26.26"/>
</g>
</g>
</svg>
