<?xml version="1.0" encoding="UTF-8" standalone="no"?>
<!DOCTYPE svg PUBLIC "-//W3C//DTD SVG 1.1//EN"
 "http://www.w3.org/Graphics/SVG/1.1/DTD/svg11.dtd">
<!-- Generated by graphviz version 2.43.0 (0)
 -->
<!-- Title: /home/runner/work/Raytracer/Raytracer/PluginsExt/LimitedPlane/LimitedPlaneCreator.hpp Pages: 1 -->
<svg width="902pt" height="442pt"
 viewBox="0.00 0.00 901.50 442.00" xmlns="http://www.w3.org/2000/svg" xmlns:xlink="http://www.w3.org/1999/xlink">
<g id="graph0" class="graph" transform="scale(1 1) rotate(0) translate(4 438)">
<title>/home/runner/work/Raytracer/Raytracer/PluginsExt/LimitedPlane/LimitedPlaneCreator.hpp</title>
<polygon fill="white" stroke="transparent" points="-4,4 -4,-438 897.5,-438 897.5,4 -4,4"/>
<!-- Node1 -->
<g id="node1" class="node">
<title>Node1</title>
<g id="a_node1"><a xlink:title=" ">
<polygon fill="#bfbfbf" stroke="black" points="276,-392.5 276,-433.5 464,-433.5 464,-392.5 276,-392.5"/>
<text text-anchor="start" x="284" y="-421.5" font-family="Helvetica,sans-Serif" font-size="10.00">/home/runner/work/Raytracer</text>
<text text-anchor="start" x="284" y="-410.5" font-family="Helvetica,sans-Serif" font-size="10.00">/Raytracer/PluginsExt/LimitedPlane</text>
<text text-anchor="middle" x="370" y="-399.5" font-family="Helvetica,sans-Serif" font-size="10.00">/LimitedPlaneCreator.hpp</text>
</a>
</g>
</g>
<!-- Node2 -->
<g id="node2" class="node">
<title>Node2</title>
<g id="a_node2"><a xlink:title=" ">
<polygon fill="white" stroke="#bfbfbf" points="159.5,-112.5 159.5,-131.5 206.5,-131.5 206.5,-112.5 159.5,-112.5"/>
<text text-anchor="middle" x="183" y="-119.5" font-family="Helvetica,sans-Serif" font-size="10.00">vector</text>
</a>
</g>
</g>
<!-- Node1&#45;&gt;Node2 -->
<g id="edge1" class="edge">
<title>Node1&#45;&gt;Node2</title>
<path fill="none" stroke="midnightblue" d="M275.71,-401.21C209.97,-387.82 134,-357.88 134,-291 134,-291 134,-291 134,-233 134,-197.47 155.6,-160.63 170.12,-139.88"/>
<polygon fill="midnightblue" stroke="midnightblue" points="173.13,-141.69 176.19,-131.54 167.47,-137.57 173.13,-141.69"/>
</g>
<!-- Node3 -->
<g id="node3" class="node">
<title>Node3</title>
<g id="a_node3"><a xlink:title=" ">
<polygon fill="white" stroke="#bfbfbf" points="206,-0.5 206,-19.5 264,-19.5 264,-0.5 206,-0.5"/>
<text text-anchor="middle" x="235" y="-7.5" font-family="Helvetica,sans-Serif" font-size="10.00">memory</text>
</a>
</g>
</g>
<!-- Node1&#45;&gt;Node3 -->
<g id="edge2" class="edge">
<title>Node1&#45;&gt;Node3</title>
<path fill="none" stroke="midnightblue" d="M275.68,-400.1C166.05,-383.56 0,-348.95 0,-291 0,-291 0,-291 0,-121 0,-35.69 128.59,-16.4 195.53,-12.14"/>
<polygon fill="midnightblue" stroke="midnightblue" points="195.92,-15.62 205.71,-11.58 195.53,-8.63 195.92,-15.62"/>
</g>
<!-- Node4 -->
<g id="node4" class="node">
<title>Node4</title>
<g id="a_node4"><a xlink:href="a00161.html" target="_top" xlink:title=" ">
<polygon fill="white" stroke="black" points="702,-336.5 702,-355.5 806,-355.5 806,-336.5 702,-336.5"/>
<text text-anchor="middle" x="754" y="-343.5" font-family="Helvetica,sans-Serif" font-size="10.00">IEntityCreator.hpp</text>
</a>
</g>
</g>
<!-- Node1&#45;&gt;Node4 -->
<g id="edge3" class="edge">
<title>Node1&#45;&gt;Node4</title>
<path fill="none" stroke="midnightblue" d="M464.43,-396.02C536.06,-383.89 632.36,-367.59 693.82,-357.19"/>
<polygon fill="midnightblue" stroke="midnightblue" points="694.47,-360.63 703.75,-355.51 693.3,-353.72 694.47,-360.63"/>
</g>
<!-- Node11 -->
<g id="node11" class="node">
<title>Node11</title>
<g id="a_node11"><a xlink:href="a00119.html" target="_top" xlink:title=" ">
<polygon fill="white" stroke="black" points="820.5,-280.5 820.5,-299.5 893.5,-299.5 893.5,-280.5 820.5,-280.5"/>
<text text-anchor="middle" x="857" y="-287.5" font-family="Helvetica,sans-Serif" font-size="10.00">ILogger.hpp</text>
</a>
</g>
</g>
<!-- Node1&#45;&gt;Node11 -->
<g id="edge15" class="edge">
<title>Node1&#45;&gt;Node11</title>
<path fill="none" stroke="midnightblue" d="M464.47,-409.36C577.44,-404.63 758.39,-391.58 815,-356 832.19,-345.19 843.72,-324.49 850.28,-309.35"/>
<polygon fill="midnightblue" stroke="midnightblue" points="853.58,-310.52 854.04,-299.94 847.08,-307.93 853.58,-310.52"/>
</g>
<!-- Node13 -->
<g id="node13" class="node">
<title>Node13</title>
<g id="a_node13"><a xlink:href="a00290.html" target="_top" xlink:title=" ">
<polygon fill="white" stroke="black" points="306,-336.5 306,-355.5 434,-355.5 434,-336.5 306,-336.5"/>
<text text-anchor="middle" x="370" y="-343.5" font-family="Helvetica,sans-Serif" font-size="10.00">LimitedPlaneEntity.hpp</text>
</a>
</g>
</g>
<!-- Node1&#45;&gt;Node13 -->
<g id="edge16" class="edge">
<title>Node1&#45;&gt;Node13</title>
<path fill="none" stroke="midnightblue" d="M370,-392.5C370,-384.07 370,-374.24 370,-365.87"/>
<polygon fill="midnightblue" stroke="midnightblue" points="373.5,-365.65 370,-355.65 366.5,-365.65 373.5,-365.65"/>
</g>
<!-- Node4&#45;&gt;Node3 -->
<g id="edge4" class="edge">
<title>Node4&#45;&gt;Node3</title>
<path fill="none" stroke="midnightblue" d="M759.28,-336.23C769.73,-318.04 792,-274.6 792,-235 792,-235 792,-235 792,-121 792,-68.15 401.06,-26.65 274.22,-14.57"/>
<polygon fill="midnightblue" stroke="midnightblue" points="274.45,-11.08 264.16,-13.62 273.79,-18.05 274.45,-11.08"/>
</g>
<!-- Node5 -->
<g id="node5" class="node">
<title>Node5</title>
<g id="a_node5"><a xlink:href="a00071.html" target="_top" xlink:title=" ">
<polygon fill="white" stroke="black" points="545,-224.5 545,-243.5 613,-243.5 613,-224.5 545,-224.5"/>
<text text-anchor="middle" x="579" y="-231.5" font-family="Helvetica,sans-Serif" font-size="10.00">IEntity.hpp</text>
</a>
</g>
</g>
<!-- Node4&#45;&gt;Node5 -->
<g id="edge5" class="edge">
<title>Node4&#45;&gt;Node5</title>
<path fill="none" stroke="midnightblue" d="M740.27,-336.37C710.11,-317.41 637.86,-272 601.18,-248.94"/>
<polygon fill="midnightblue" stroke="midnightblue" points="603,-245.95 592.67,-243.59 599.27,-251.88 603,-245.95"/>
</g>
<!-- Node9 -->
<g id="node9" class="node">
<title>Node9</title>
<g id="a_node9"><a xlink:href="a00206.html" target="_top" xlink:title=" ">
<polygon fill="white" stroke="black" points="395.5,-56.5 395.5,-75.5 470.5,-75.5 470.5,-56.5 395.5,-56.5"/>
<text text-anchor="middle" x="433" y="-63.5" font-family="Helvetica,sans-Serif" font-size="10.00">ISetting.hpp</text>
</a>
</g>
</g>
<!-- Node4&#45;&gt;Node9 -->
<g id="edge14" class="edge">
<title>Node4&#45;&gt;Node9</title>
<path fill="none" stroke="midnightblue" d="M754,-336.44C754,-317.94 754,-272.81 754,-235 754,-235 754,-235 754,-177 754,-119.98 570.44,-86.29 480.94,-73.26"/>
<polygon fill="midnightblue" stroke="midnightblue" points="481.16,-69.76 470.77,-71.81 480.17,-76.69 481.16,-69.76"/>
</g>
<!-- Node4&#45;&gt;Node11 -->
<g id="edge12" class="edge">
<title>Node4&#45;&gt;Node11</title>
<path fill="none" stroke="midnightblue" d="M770.55,-336.32C786.99,-327.7 812.43,-314.36 831.47,-304.39"/>
<polygon fill="midnightblue" stroke="midnightblue" points="833.26,-307.4 840.49,-299.65 830.01,-301.2 833.26,-307.4"/>
</g>
<!-- Node6 -->
<g id="node6" class="node">
<title>Node6</title>
<g id="a_node6"><a xlink:href="a00083.html" target="_top" xlink:title=" ">
<polygon fill="white" stroke="black" points="508.5,-168.5 508.5,-187.5 649.5,-187.5 649.5,-168.5 508.5,-168.5"/>
<text text-anchor="middle" x="579" y="-175.5" font-family="Helvetica,sans-Serif" font-size="10.00">Transform/ITransform.hpp</text>
</a>
</g>
</g>
<!-- Node5&#45;&gt;Node6 -->
<g id="edge6" class="edge">
<title>Node5&#45;&gt;Node6</title>
<path fill="none" stroke="midnightblue" d="M579,-224.08C579,-217.01 579,-206.86 579,-197.99"/>
<polygon fill="midnightblue" stroke="midnightblue" points="582.5,-197.75 579,-187.75 575.5,-197.75 582.5,-197.75"/>
</g>
<!-- Node7 -->
<g id="node7" class="node">
<title>Node7</title>
<g id="a_node7"><a xlink:href="a00092.html" target="_top" xlink:title=" ">
<polygon fill="white" stroke="black" points="405.5,-112.5 405.5,-131.5 482.5,-131.5 482.5,-112.5 405.5,-112.5"/>
<text text-anchor="middle" x="444" y="-119.5" font-family="Helvetica,sans-Serif" font-size="10.00">Vector3f.hpp</text>
</a>
</g>
</g>
<!-- Node6&#45;&gt;Node7 -->
<g id="edge7" class="edge">
<title>Node6&#45;&gt;Node7</title>
<path fill="none" stroke="midnightblue" d="M557.61,-168.44C535.29,-159.52 500.1,-145.44 474.79,-135.32"/>
<polygon fill="midnightblue" stroke="midnightblue" points="475.88,-131.98 465.29,-131.52 473.28,-138.48 475.88,-131.98"/>
</g>
<!-- Node8 -->
<g id="node8" class="node">
<title>Node8</title>
<g id="a_node8"><a xlink:title=" ">
<polygon fill="white" stroke="#bfbfbf" points="310.5,-56.5 310.5,-75.5 367.5,-75.5 367.5,-56.5 310.5,-56.5"/>
<text text-anchor="middle" x="339" y="-63.5" font-family="Helvetica,sans-Serif" font-size="10.00">ostream</text>
</a>
</g>
</g>
<!-- Node7&#45;&gt;Node8 -->
<g id="edge8" class="edge">
<title>Node7&#45;&gt;Node8</title>
<path fill="none" stroke="midnightblue" d="M427.13,-112.32C410.29,-103.66 384.19,-90.24 364.76,-80.25"/>
<polygon fill="midnightblue" stroke="midnightblue" points="366.32,-77.12 355.83,-75.65 363.12,-83.34 366.32,-77.12"/>
</g>
<!-- Node7&#45;&gt;Node9 -->
<g id="edge9" class="edge">
<title>Node7&#45;&gt;Node9</title>
<path fill="none" stroke="midnightblue" d="M442.18,-112.08C440.73,-104.93 438.63,-94.64 436.81,-85.69"/>
<polygon fill="midnightblue" stroke="midnightblue" points="440.21,-84.85 434.78,-75.75 433.35,-86.25 440.21,-84.85"/>
</g>
<!-- Node9&#45;&gt;Node3 -->
<g id="edge10" class="edge">
<title>Node9&#45;&gt;Node3</title>
<path fill="none" stroke="midnightblue" d="M401.63,-56.44C367.14,-47.04 311.68,-31.91 274.32,-21.72"/>
<polygon fill="midnightblue" stroke="midnightblue" points="274.86,-18.24 264.29,-18.99 273.02,-25 274.86,-18.24"/>
</g>
<!-- Node10 -->
<g id="node10" class="node">
<title>Node10</title>
<g id="a_node10"><a xlink:title=" ">
<polygon fill="white" stroke="#bfbfbf" points="391.5,-0.5 391.5,-19.5 474.5,-19.5 474.5,-0.5 391.5,-0.5"/>
<text text-anchor="middle" x="433" y="-7.5" font-family="Helvetica,sans-Serif" font-size="10.00">libconfig.h++</text>
</a>
</g>
</g>
<!-- Node9&#45;&gt;Node10 -->
<g id="edge11" class="edge">
<title>Node9&#45;&gt;Node10</title>
<path fill="none" stroke="midnightblue" d="M433,-56.08C433,-49.01 433,-38.86 433,-29.99"/>
<polygon fill="midnightblue" stroke="midnightblue" points="436.5,-29.75 433,-19.75 429.5,-29.75 436.5,-29.75"/>
</g>
<!-- Node12 -->
<g id="node12" class="node">
<title>Node12</title>
<g id="a_node12"><a xlink:title=" ">
<polygon fill="white" stroke="#bfbfbf" points="835,-224.5 835,-243.5 879,-243.5 879,-224.5 835,-224.5"/>
<text text-anchor="middle" x="857" y="-231.5" font-family="Helvetica,sans-Serif" font-size="10.00">string</text>
</a>
</g>
</g>
<!-- Node11&#45;&gt;Node12 -->
<g id="edge13" class="edge">
<title>Node11&#45;&gt;Node12</title>
<path fill="none" stroke="midnightblue" d="M857,-280.08C857,-273.01 857,-262.86 857,-253.99"/>
<polygon fill="midnightblue" stroke="midnightblue" points="860.5,-253.75 857,-243.75 853.5,-253.75 860.5,-253.75"/>
</g>
<!-- Node13&#45;&gt;Node11 -->
<g id="edge18" class="edge">
<title>Node13&#45;&gt;Node11</title>
<path fill="none" stroke="midnightblue" d="M434.17,-337.88C533.57,-326.86 722.44,-305.92 810.12,-296.2"/>
<polygon fill="midnightblue" stroke="midnightblue" points="810.74,-299.65 820.29,-295.07 809.97,-292.69 810.74,-299.65"/>
</g>
<!-- Node14 -->
<g id="node14" class="node">
<title>Node14</title>
<g id="a_node14"><a xlink:title=" ">
<polygon fill="white" stroke="#bfbfbf" points="162.5,-280.5 162.5,-299.5 227.5,-299.5 227.5,-280.5 162.5,-280.5"/>
<text text-anchor="middle" x="195" y="-287.5" font-family="Helvetica,sans-Serif" font-size="10.00">functional</text>
</a>
</g>
</g>
<!-- Node13&#45;&gt;Node14 -->
<g id="edge17" class="edge">
<title>Node13&#45;&gt;Node14</title>
<path fill="none" stroke="midnightblue" d="M342.27,-336.44C312.57,-327.28 265.28,-312.69 232.33,-302.52"/>
<polygon fill="midnightblue" stroke="midnightblue" points="233.19,-299.12 222.6,-299.52 231.12,-305.81 233.19,-299.12"/>
</g>
<!-- Node15 -->
<g id="node15" class="node">
<title>Node15</title>
<g id="a_node15"><a xlink:href="a00080.html" target="_top" xlink:title=" ">
<polygon fill="white" stroke="black" points="367.5,-280.5 367.5,-299.5 452.5,-299.5 452.5,-280.5 367.5,-280.5"/>
<text text-anchor="middle" x="410" y="-287.5" font-family="Helvetica,sans-Serif" font-size="10.00">IPrimitive.hpp</text>
</a>
</g>
</g>
<!-- Node13&#45;&gt;Node15 -->
<g id="edge19" class="edge">
<title>Node13&#45;&gt;Node15</title>
<path fill="none" stroke="midnightblue" d="M376.61,-336.08C382.26,-328.46 390.54,-317.26 397.45,-307.94"/>
<polygon fill="midnightblue" stroke="midnightblue" points="400.38,-309.87 403.52,-299.75 394.75,-305.7 400.38,-309.87"/>
</g>
<!-- Node20 -->
<g id="node20" class="node">
<title>Node20</title>
<g id="a_node20"><a xlink:href="a00077.html" target="_top" xlink:title=" ">
<polygon fill="white" stroke="black" points="286.5,-224.5 286.5,-243.5 367.5,-243.5 367.5,-224.5 286.5,-224.5"/>
<text text-anchor="middle" x="327" y="-231.5" font-family="Helvetica,sans-Serif" font-size="10.00">IMaterial.hpp</text>
</a>
</g>
</g>
<!-- Node13&#45;&gt;Node20 -->
<g id="edge42" class="edge">
<title>Node13&#45;&gt;Node20</title>
<path fill="none" stroke="midnightblue" d="M366.63,-336.37C359.62,-318.46 343.39,-276.92 334.02,-252.95"/>
<polygon fill="midnightblue" stroke="midnightblue" points="337.26,-251.63 330.36,-243.59 330.74,-254.18 337.26,-251.63"/>
</g>
<!-- Node22 -->
<g id="node22" class="node">
<title>Node22</title>
<g id="a_node22"><a xlink:href="a00086.html" target="_top" xlink:title=" ">
<polygon fill="white" stroke="black" points="633,-224.5 633,-243.5 719,-243.5 719,-224.5 633,-224.5"/>
<text text-anchor="middle" x="676" y="-231.5" font-family="Helvetica,sans-Serif" font-size="10.00">Transform.hpp</text>
</a>
</g>
</g>
<!-- Node13&#45;&gt;Node22 -->
<g id="edge38" class="edge">
<title>Node13&#45;&gt;Node22</title>
<path fill="none" stroke="midnightblue" d="M393.76,-336.46C447.76,-317.05 579.88,-269.55 642.3,-247.12"/>
<polygon fill="midnightblue" stroke="midnightblue" points="643.82,-250.29 652.05,-243.61 641.45,-243.7 643.82,-250.29"/>
</g>
<!-- Node23 -->
<g id="node23" class="node">
<title>Node23</title>
<g id="a_node23"><a xlink:href="a00089.html" target="_top" xlink:title=" ">
<polygon fill="white" stroke="black" points="28.5,-168.5 28.5,-187.5 105.5,-187.5 105.5,-168.5 28.5,-168.5"/>
<text text-anchor="middle" x="67" y="-175.5" font-family="Helvetica,sans-Serif" font-size="10.00">Vector2i.hpp</text>
</a>
</g>
</g>
<!-- Node13&#45;&gt;Node23 -->
<g id="edge43" class="edge">
<title>Node13&#45;&gt;Node23</title>
<path fill="none" stroke="midnightblue" d="M354.14,-336.31C304.44,-309.08 151.5,-225.29 91.51,-192.43"/>
<polygon fill="midnightblue" stroke="midnightblue" points="93.16,-189.34 82.71,-187.61 89.8,-195.48 93.16,-189.34"/>
</g>
<!-- Node15&#45;&gt;Node5 -->
<g id="edge28" class="edge">
<title>Node15&#45;&gt;Node5</title>
<path fill="none" stroke="midnightblue" d="M436.78,-280.44C465.33,-271.32 510.73,-256.81 542.54,-246.65"/>
<polygon fill="midnightblue" stroke="midnightblue" points="543.89,-249.89 552.35,-243.52 541.76,-243.23 543.89,-249.89"/>
</g>
<!-- Node15&#45;&gt;Node7 -->
<g id="edge37" class="edge">
<title>Node15&#45;&gt;Node7</title>
<path fill="none" stroke="midnightblue" d="M427.5,-280.46C440.79,-272.92 458.08,-260.53 466,-244 482.31,-209.97 465.61,-165.25 453.71,-140.82"/>
<polygon fill="midnightblue" stroke="midnightblue" points="456.7,-138.98 449.01,-131.69 450.47,-142.18 456.7,-138.98"/>
</g>
<!-- Node16 -->
<g id="node16" class="node">
<title>Node16</title>
<g id="a_node16"><a xlink:title=" ">
<polygon fill="white" stroke="#bfbfbf" points="386,-224.5 386,-243.5 442,-243.5 442,-224.5 386,-224.5"/>
<text text-anchor="middle" x="414" y="-231.5" font-family="Helvetica,sans-Serif" font-size="10.00">optional</text>
</a>
</g>
</g>
<!-- Node15&#45;&gt;Node16 -->
<g id="edge20" class="edge">
<title>Node15&#45;&gt;Node16</title>
<path fill="none" stroke="midnightblue" d="M410.66,-280.08C411.18,-273.01 411.94,-262.86 412.59,-253.99"/>
<polygon fill="midnightblue" stroke="midnightblue" points="416.1,-253.98 413.35,-243.75 409.12,-253.47 416.1,-253.98"/>
</g>
<!-- Node17 -->
<g id="node17" class="node">
<title>Node17</title>
<g id="a_node17"><a xlink:href="a00122.html" target="_top" xlink:title=" ">
<polygon fill="white" stroke="black" points="278,-168.5 278,-187.5 340,-187.5 340,-168.5 278,-168.5"/>
<text text-anchor="middle" x="309" y="-175.5" font-family="Helvetica,sans-Serif" font-size="10.00">Color.hpp</text>
</a>
</g>
</g>
<!-- Node15&#45;&gt;Node17 -->
<g id="edge21" class="edge">
<title>Node15&#45;&gt;Node17</title>
<path fill="none" stroke="midnightblue" d="M367.33,-286.89C336.98,-282.9 298.15,-272.16 278,-244 266.93,-228.53 279.97,-208.49 292.37,-194.78"/>
<polygon fill="midnightblue" stroke="midnightblue" points="294.96,-197.13 299.41,-187.52 289.93,-192.26 294.96,-197.13"/>
</g>
<!-- Node19 -->
<g id="node19" class="node">
<title>Node19</title>
<g id="a_node19"><a xlink:href="a00200.html" target="_top" xlink:title=" ">
<polygon fill="white" stroke="black" points="162,-168.5 162,-187.5 260,-187.5 260,-168.5 162,-168.5"/>
<text text-anchor="middle" x="211" y="-175.5" font-family="Helvetica,sans-Serif" font-size="10.00">IDisplayable.hpp</text>
</a>
</g>
</g>
<!-- Node15&#45;&gt;Node19 -->
<g id="edge25" class="edge">
<title>Node15&#45;&gt;Node19</title>
<path fill="none" stroke="midnightblue" d="M367.34,-281.58C337.96,-275.04 298.96,-263.44 269,-244 249.85,-231.57 233.12,-211.2 222.61,-196.58"/>
<polygon fill="midnightblue" stroke="midnightblue" points="225.21,-194.18 216.64,-187.94 219.45,-198.16 225.21,-194.18"/>
</g>
<!-- Node15&#45;&gt;Node20 -->
<g id="edge29" class="edge">
<title>Node15&#45;&gt;Node20</title>
<path fill="none" stroke="midnightblue" d="M396.66,-280.32C383.84,-271.98 364.22,-259.21 349.06,-249.35"/>
<polygon fill="midnightblue" stroke="midnightblue" points="350.59,-246.17 340.3,-243.65 346.78,-252.04 350.59,-246.17"/>
</g>
<!-- Node21 -->
<g id="node21" class="node">
<title>Node21</title>
<g id="a_node21"><a xlink:href="a00137.html" target="_top" xlink:title=" ">
<polygon fill="white" stroke="black" points="396.5,-168.5 396.5,-187.5 451.5,-187.5 451.5,-168.5 396.5,-168.5"/>
<text text-anchor="middle" x="424" y="-175.5" font-family="Helvetica,sans-Serif" font-size="10.00">Ray.hpp</text>
</a>
</g>
</g>
<!-- Node15&#45;&gt;Node21 -->
<g id="edge36" class="edge">
<title>Node15&#45;&gt;Node21</title>
<path fill="none" stroke="midnightblue" d="M421.54,-280.49C431.48,-272.38 445.12,-259.18 451,-244 457.38,-227.52 447.94,-208.92 438.51,-195.85"/>
<polygon fill="midnightblue" stroke="midnightblue" points="441.11,-193.49 432.18,-187.78 435.6,-197.81 441.11,-193.49"/>
</g>
<!-- Node17&#45;&gt;Node8 -->
<g id="edge23" class="edge">
<title>Node17&#45;&gt;Node8</title>
<path fill="none" stroke="midnightblue" d="M311.35,-168.37C316.22,-150.54 327.46,-109.3 334.02,-85.27"/>
<polygon fill="midnightblue" stroke="midnightblue" points="337.4,-86.16 336.66,-75.59 330.65,-84.32 337.4,-86.16"/>
</g>
<!-- Node17&#45;&gt;Node9 -->
<g id="edge24" class="edge">
<title>Node17&#45;&gt;Node9</title>
<path fill="none" stroke="midnightblue" d="M318.73,-168.37C339.65,-149.81 389.13,-105.91 415.6,-82.44"/>
<polygon fill="midnightblue" stroke="midnightblue" points="418.16,-84.85 423.32,-75.59 413.51,-79.61 418.16,-84.85"/>
</g>
<!-- Node18 -->
<g id="node18" class="node">
<title>Node18</title>
<g id="a_node18"><a xlink:title=" ">
<polygon fill="white" stroke="#bfbfbf" points="263,-112.5 263,-131.5 311,-131.5 311,-112.5 263,-112.5"/>
<text text-anchor="middle" x="287" y="-119.5" font-family="Helvetica,sans-Serif" font-size="10.00">mutex</text>
</a>
</g>
</g>
<!-- Node17&#45;&gt;Node18 -->
<g id="edge22" class="edge">
<title>Node17&#45;&gt;Node18</title>
<path fill="none" stroke="midnightblue" d="M305.37,-168.08C302.39,-160.77 298.07,-150.18 294.38,-141.1"/>
<polygon fill="midnightblue" stroke="midnightblue" points="297.58,-139.69 290.57,-131.75 291.1,-142.33 297.58,-139.69"/>
</g>
<!-- Node19&#45;&gt;Node2 -->
<g id="edge27" class="edge">
<title>Node19&#45;&gt;Node2</title>
<path fill="none" stroke="midnightblue" d="M206.38,-168.08C202.54,-160.69 196.98,-149.95 192.24,-140.81"/>
<polygon fill="midnightblue" stroke="midnightblue" points="195.25,-139.02 187.54,-131.75 189.03,-142.24 195.25,-139.02"/>
</g>
<!-- Node19&#45;&gt;Node3 -->
<g id="edge26" class="edge">
<title>Node19&#45;&gt;Node3</title>
<path fill="none" stroke="midnightblue" d="M212.29,-168.08C216.07,-141.95 227.16,-65.21 232.31,-29.58"/>
<polygon fill="midnightblue" stroke="midnightblue" points="235.79,-29.97 233.76,-19.57 228.87,-28.96 235.79,-29.97"/>
</g>
<!-- Node20&#45;&gt;Node6 -->
<g id="edge34" class="edge">
<title>Node20&#45;&gt;Node6</title>
<path fill="none" stroke="midnightblue" d="M366.93,-224.44C410.89,-215.02 481.63,-199.87 529.18,-189.68"/>
<polygon fill="midnightblue" stroke="midnightblue" points="530.21,-193.03 539.26,-187.52 528.75,-186.19 530.21,-193.03"/>
</g>
<!-- Node20&#45;&gt;Node7 -->
<g id="edge35" class="edge">
<title>Node20&#45;&gt;Node7</title>
<path fill="none" stroke="midnightblue" d="M334.53,-224.22C345.71,-211.37 367.56,-186.93 388,-168 399.55,-157.3 413.33,-146.21 424.33,-137.72"/>
<polygon fill="midnightblue" stroke="midnightblue" points="426.63,-140.36 432.46,-131.52 422.38,-134.8 426.63,-140.36"/>
</g>
<!-- Node20&#45;&gt;Node17 -->
<g id="edge32" class="edge">
<title>Node20&#45;&gt;Node17</title>
<path fill="none" stroke="midnightblue" d="M324.03,-224.08C321.62,-216.85 318.14,-206.41 315.13,-197.4"/>
<polygon fill="midnightblue" stroke="midnightblue" points="318.4,-196.13 311.92,-187.75 311.76,-198.34 318.4,-196.13"/>
</g>
<!-- Node20&#45;&gt;Node19 -->
<g id="edge33" class="edge">
<title>Node20&#45;&gt;Node19</title>
<path fill="none" stroke="midnightblue" d="M308.62,-224.44C289.78,-215.68 260.27,-201.94 238.62,-191.86"/>
<polygon fill="midnightblue" stroke="midnightblue" points="239.84,-188.56 229.29,-187.52 236.88,-194.91 239.84,-188.56"/>
</g>
<!-- Node20&#45;&gt;Node21 -->
<g id="edge30" class="edge">
<title>Node20&#45;&gt;Node21</title>
<path fill="none" stroke="midnightblue" d="M342.58,-224.32C358,-215.74 381.81,-202.49 399.71,-192.52"/>
<polygon fill="midnightblue" stroke="midnightblue" points="401.42,-195.58 408.45,-187.65 398.01,-189.46 401.42,-195.58"/>
</g>
<!-- Node21&#45;&gt;Node7 -->
<g id="edge31" class="edge">
<title>Node21&#45;&gt;Node7</title>
<path fill="none" stroke="midnightblue" d="M427.3,-168.08C429.98,-160.85 433.85,-150.41 437.19,-141.4"/>
<polygon fill="midnightblue" stroke="midnightblue" points="440.57,-142.34 440.76,-131.75 434,-139.91 440.57,-142.34"/>
</g>
<!-- Node22&#45;&gt;Node6 -->
<g id="edge39" class="edge">
<title>Node22&#45;&gt;Node6</title>
<path fill="none" stroke="midnightblue" d="M660.42,-224.32C645,-215.74 621.19,-202.49 603.29,-192.52"/>
<polygon fill="midnightblue" stroke="midnightblue" points="604.99,-189.46 594.55,-187.65 601.58,-195.58 604.99,-189.46"/>
</g>
<!-- Node22&#45;&gt;Node7 -->
<g id="edge41" class="edge">
<title>Node22&#45;&gt;Node7</title>
<path fill="none" stroke="midnightblue" d="M676.41,-224.43C676.57,-210.49 674.72,-182.96 659,-168 635.53,-145.66 548.49,-133.15 492.61,-127.27"/>
<polygon fill="midnightblue" stroke="midnightblue" points="492.87,-123.77 482.57,-126.24 492.16,-130.74 492.87,-123.77"/>
</g>
<!-- Node22&#45;&gt;Node9 -->
<g id="edge40" class="edge">
<title>Node22&#45;&gt;Node9</title>
<path fill="none" stroke="midnightblue" d="M679.48,-224.13C684.1,-210.73 690.45,-185.08 679,-168 634.74,-101.98 538.75,-79.08 480.63,-71.16"/>
<polygon fill="midnightblue" stroke="midnightblue" points="480.95,-67.67 470.59,-69.89 480.07,-74.62 480.95,-67.67"/>
</g>
<!-- Node23&#45;&gt;Node8 -->
<g id="edge44" class="edge">
<title>Node23&#45;&gt;Node8</title>
<path fill="none" stroke="midnightblue" d="M75.34,-168.39C89.41,-154.4 119.33,-126.78 150,-112 198.81,-88.48 260.79,-76.76 300.18,-71.29"/>
<polygon fill="midnightblue" stroke="midnightblue" points="300.72,-74.75 310.18,-69.97 299.81,-67.81 300.72,-74.75"/>
</g>
<!-- Node24 -->
<g id="node24" class="node">
<title>Node24</title>
<g id="a_node24"><a xlink:href="a00197.html" target="_top" xlink:title=" ">
<polygon fill="white" stroke="black" points="31.5,-112.5 31.5,-131.5 102.5,-131.5 102.5,-112.5 31.5,-112.5"/>
<text text-anchor="middle" x="67" y="-119.5" font-family="Helvetica,sans-Serif" font-size="10.00">IConfig.hpp</text>
</a>
</g>
</g>
<!-- Node23&#45;&gt;Node24 -->
<g id="edge45" class="edge">
<title>Node23&#45;&gt;Node24</title>
<path fill="none" stroke="midnightblue" d="M67,-168.08C67,-161.01 67,-150.86 67,-141.99"/>
<polygon fill="midnightblue" stroke="midnightblue" points="70.5,-141.75 67,-131.75 63.5,-141.75 70.5,-141.75"/>
</g>
<!-- Node24&#45;&gt;Node3 -->
<g id="edge46" class="edge">
<title>Node24&#45;&gt;Node3</title>
<path fill="none" stroke="midnightblue" d="M80.18,-112.37C109.01,-93.49 177.9,-48.38 213.26,-25.24"/>
<polygon fill="midnightblue" stroke="midnightblue" points="215.43,-28 221.88,-19.59 211.6,-22.14 215.43,-28"/>
</g>
<!-- Node24&#45;&gt;Node9 -->
<g id="edge47" class="edge">
<title>Node24&#45;&gt;Node9</title>
<path fill="none" stroke="midnightblue" d="M102.83,-115.98C160.58,-107.85 277.82,-91.17 377,-76 379.69,-75.59 382.45,-75.16 385.24,-74.73"/>
<polygon fill="midnightblue" stroke="midnightblue" points="386.03,-78.15 395.36,-73.13 384.94,-71.23 386.03,-78.15"/>
</g>
</g>
</svg>
