<?xml version="1.0" encoding="UTF-8" standalone="no"?>
<!DOCTYPE svg PUBLIC "-//W3C//DTD SVG 1.1//EN"
 "http://www.w3.org/Graphics/SVG/1.1/DTD/svg11.dtd">
<!-- Generated by graphviz version 2.43.0 (0)
 -->
<!-- Title: /home/runner/work/Raytracer/Raytracer/PluginsExt/SpotLight/SpotLightEntity.hpp Pages: 1 -->
<svg width="792pt" height="386pt"
 viewBox="0.00 0.00 791.97 386.00" xmlns="http://www.w3.org/2000/svg" xmlns:xlink="http://www.w3.org/1999/xlink">
<g id="graph0" class="graph" transform="scale(1 1) rotate(0) translate(4 382)">
<title>/home/runner/work/Raytracer/Raytracer/PluginsExt/SpotLight/SpotLightEntity.hpp</title>
<polygon fill="white" stroke="transparent" points="-4,4 -4,-382 787.97,-382 787.97,4 -4,4"/>
<!-- Node1 -->
<g id="node1" class="node">
<title>Node1</title>
<g id="a_node1"><a xlink:title=" ">
<polygon fill="#bfbfbf" stroke="black" points="517.47,-336.5 517.47,-377.5 687.47,-377.5 687.47,-336.5 517.47,-336.5"/>
<text text-anchor="start" x="525.47" y="-365.5" font-family="Helvetica,sans-Serif" font-size="10.00">/home/runner/work/Raytracer</text>
<text text-anchor="start" x="525.47" y="-354.5" font-family="Helvetica,sans-Serif" font-size="10.00">/Raytracer/PluginsExt/SpotLight</text>
<text text-anchor="middle" x="602.47" y="-343.5" font-family="Helvetica,sans-Serif" font-size="10.00">/SpotLightEntity.hpp</text>
</a>
</g>
</g>
<!-- Node2 -->
<g id="node2" class="node">
<title>Node2</title>
<g id="a_node2"><a xlink:href="a00113.html" target="_top" xlink:title=" ">
<polygon fill="white" stroke="black" points="263.97,-280.5 263.97,-299.5 328.97,-299.5 328.97,-280.5 263.97,-280.5"/>
<text text-anchor="middle" x="296.47" y="-287.5" font-family="Helvetica,sans-Serif" font-size="10.00">ILight.hpp</text>
</a>
</g>
</g>
<!-- Node1&#45;&gt;Node2 -->
<g id="edge1" class="edge">
<title>Node1&#45;&gt;Node2</title>
<path fill="none" stroke="midnightblue" d="M517.23,-337.89C459.19,-325.57 384.86,-309.78 338.96,-300.03"/>
<polygon fill="midnightblue" stroke="midnightblue" points="339.56,-296.58 329.05,-297.92 338.11,-303.42 339.56,-296.58"/>
</g>
<!-- Node16 -->
<g id="node16" class="node">
<title>Node16</title>
<g id="a_node16"><a xlink:href="a00236.html" target="_top" xlink:title=" ">
<polygon fill="white" stroke="black" points="712.97,-112.5 712.97,-131.5 783.97,-131.5 783.97,-112.5 712.97,-112.5"/>
<text text-anchor="middle" x="748.47" y="-119.5" font-family="Helvetica,sans-Serif" font-size="10.00">IConfig.hpp</text>
</a>
</g>
</g>
<!-- Node1&#45;&gt;Node16 -->
<g id="edge19" class="edge">
<title>Node1&#45;&gt;Node16</title>
<path fill="none" stroke="midnightblue" d="M638.4,-336.34C653.21,-326.87 669.63,-314.43 681.47,-300 721.35,-251.39 739.04,-176.55 745.44,-141.85"/>
<polygon fill="midnightblue" stroke="midnightblue" points="748.93,-142.17 747.19,-131.72 742.04,-140.98 748.93,-142.17"/>
</g>
<!-- Node17 -->
<g id="node17" class="node">
<title>Node17</title>
<g id="a_node17"><a xlink:href="a00158.html" target="_top" xlink:title=" ">
<polygon fill="white" stroke="black" points="598.97,-280.5 598.97,-299.5 671.97,-299.5 671.97,-280.5 598.97,-280.5"/>
<text text-anchor="middle" x="635.47" y="-287.5" font-family="Helvetica,sans-Serif" font-size="10.00">ILogger.hpp</text>
</a>
</g>
</g>
<!-- Node1&#45;&gt;Node17 -->
<g id="edge22" class="edge">
<title>Node1&#45;&gt;Node17</title>
<path fill="none" stroke="midnightblue" d="M612.37,-336.5C616.84,-327.68 622.1,-317.34 626.46,-308.74"/>
<polygon fill="midnightblue" stroke="midnightblue" points="629.67,-310.15 631.08,-299.65 623.43,-306.98 629.67,-310.15"/>
</g>
<!-- Node19 -->
<g id="node19" class="node">
<title>Node19</title>
<g id="a_node19"><a xlink:href="a00125.html" target="_top" xlink:title=" ">
<polygon fill="white" stroke="black" points="527.47,-224.5 527.47,-243.5 613.47,-243.5 613.47,-224.5 527.47,-224.5"/>
<text text-anchor="middle" x="570.47" y="-231.5" font-family="Helvetica,sans-Serif" font-size="10.00">Transform.hpp</text>
</a>
</g>
</g>
<!-- Node1&#45;&gt;Node19 -->
<g id="edge25" class="edge">
<title>Node1&#45;&gt;Node19</title>
<path fill="none" stroke="midnightblue" d="M597.26,-336.29C591.2,-313.37 581.27,-275.85 575.35,-253.47"/>
<polygon fill="midnightblue" stroke="midnightblue" points="578.68,-252.35 572.74,-243.57 571.91,-254.14 578.68,-252.35"/>
</g>
<!-- Node3 -->
<g id="node3" class="node">
<title>Node3</title>
<g id="a_node3"><a xlink:href="a00161.html" target="_top" xlink:title=" ">
<polygon fill="white" stroke="black" points="265.47,-224.5 265.47,-243.5 327.47,-243.5 327.47,-224.5 265.47,-224.5"/>
<text text-anchor="middle" x="296.47" y="-231.5" font-family="Helvetica,sans-Serif" font-size="10.00">Color.hpp</text>
</a>
</g>
</g>
<!-- Node2&#45;&gt;Node3 -->
<g id="edge2" class="edge">
<title>Node2&#45;&gt;Node3</title>
<path fill="none" stroke="midnightblue" d="M296.47,-280.08C296.47,-273.01 296.47,-262.86 296.47,-253.99"/>
<polygon fill="midnightblue" stroke="midnightblue" points="299.97,-253.75 296.47,-243.75 292.97,-253.75 299.97,-253.75"/>
</g>
<!-- Node11 -->
<g id="node11" class="node">
<title>Node11</title>
<g id="a_node11"><a xlink:href="a00239.html" target="_top" xlink:title=" ">
<polygon fill="white" stroke="black" points="46.47,-224.5 46.47,-243.5 144.47,-243.5 144.47,-224.5 46.47,-224.5"/>
<text text-anchor="middle" x="95.47" y="-231.5" font-family="Helvetica,sans-Serif" font-size="10.00">IDisplayable.hpp</text>
</a>
</g>
</g>
<!-- Node2&#45;&gt;Node11 -->
<g id="edge10" class="edge">
<title>Node2&#45;&gt;Node11</title>
<path fill="none" stroke="midnightblue" d="M264.62,-280.44C230.07,-271.16 174.79,-256.31 136.88,-246.13"/>
<polygon fill="midnightblue" stroke="midnightblue" points="137.73,-242.73 127.17,-243.52 135.92,-249.49 137.73,-242.73"/>
</g>
<!-- Node13 -->
<g id="node13" class="node">
<title>Node13</title>
<g id="a_node13"><a xlink:href="a00131.html" target="_top" xlink:title=" ">
<polygon fill="white" stroke="black" points="489.97,-112.5 489.97,-131.5 618.97,-131.5 618.97,-112.5 489.97,-112.5"/>
<text text-anchor="middle" x="554.47" y="-119.5" font-family="Helvetica,sans-Serif" font-size="10.00">Transform/Vector3f.hpp</text>
</a>
</g>
</g>
<!-- Node2&#45;&gt;Node13 -->
<g id="edge13" class="edge">
<title>Node2&#45;&gt;Node13</title>
<path fill="none" stroke="midnightblue" d="M263.52,-286.99C201.98,-282.64 72.61,-270.54 37.47,-244 8.86,-222.4 -13.81,-194.37 10.47,-168 41.58,-134.2 337.64,-125.79 479.45,-123.69"/>
<polygon fill="midnightblue" stroke="midnightblue" points="479.85,-127.19 489.8,-123.55 479.75,-120.19 479.85,-127.19"/>
</g>
<!-- Node14 -->
<g id="node14" class="node">
<title>Node14</title>
<g id="a_node14"><a xlink:href="a00110.html" target="_top" xlink:title=" ">
<polygon fill="white" stroke="black" points="372.47,-224.5 372.47,-243.5 440.47,-243.5 440.47,-224.5 372.47,-224.5"/>
<text text-anchor="middle" x="406.47" y="-231.5" font-family="Helvetica,sans-Serif" font-size="10.00">IEntity.hpp</text>
</a>
</g>
</g>
<!-- Node2&#45;&gt;Node14 -->
<g id="edge16" class="edge">
<title>Node2&#45;&gt;Node14</title>
<path fill="none" stroke="midnightblue" d="M314.14,-280.32C331.86,-271.62 359.37,-258.12 379.76,-248.11"/>
<polygon fill="midnightblue" stroke="midnightblue" points="381.4,-251.2 388.84,-243.65 378.32,-244.92 381.4,-251.2"/>
</g>
<!-- Node4 -->
<g id="node4" class="node">
<title>Node4</title>
<g id="a_node4"><a xlink:title=" ">
<polygon fill="white" stroke="#bfbfbf" points="123.47,-168.5 123.47,-187.5 171.47,-187.5 171.47,-168.5 123.47,-168.5"/>
<text text-anchor="middle" x="147.47" y="-175.5" font-family="Helvetica,sans-Serif" font-size="10.00">mutex</text>
</a>
</g>
</g>
<!-- Node3&#45;&gt;Node4 -->
<g id="edge3" class="edge">
<title>Node3&#45;&gt;Node4</title>
<path fill="none" stroke="midnightblue" d="M272.86,-224.44C248.01,-215.44 208.69,-201.19 180.71,-191.05"/>
<polygon fill="midnightblue" stroke="midnightblue" points="181.56,-187.63 170.97,-187.52 179.18,-194.21 181.56,-187.63"/>
</g>
<!-- Node5 -->
<g id="node5" class="node">
<title>Node5</title>
<g id="a_node5"><a xlink:title=" ">
<polygon fill="white" stroke="#bfbfbf" points="305.97,-56.5 305.97,-75.5 362.97,-75.5 362.97,-56.5 305.97,-56.5"/>
<text text-anchor="middle" x="334.47" y="-63.5" font-family="Helvetica,sans-Serif" font-size="10.00">ostream</text>
</a>
</g>
</g>
<!-- Node3&#45;&gt;Node5 -->
<g id="edge4" class="edge">
<title>Node3&#45;&gt;Node5</title>
<path fill="none" stroke="midnightblue" d="M269.83,-224.42C242.74,-214.06 206.34,-194.63 218.47,-168 236.86,-127.61 280.27,-97.09 308.45,-80.65"/>
<polygon fill="midnightblue" stroke="midnightblue" points="310.38,-83.58 317.37,-75.62 306.94,-77.49 310.38,-83.58"/>
</g>
<!-- Node6 -->
<g id="node6" class="node">
<title>Node6</title>
<g id="a_node6"><a xlink:title=" ">
<polygon fill="white" stroke="#bfbfbf" points="227.97,-168.5 227.97,-187.5 364.97,-187.5 364.97,-168.5 227.97,-168.5"/>
<text text-anchor="middle" x="296.47" y="-175.5" font-family="Helvetica,sans-Serif" font-size="10.00">SFML/Graphics/Color.hpp</text>
</a>
</g>
</g>
<!-- Node3&#45;&gt;Node6 -->
<g id="edge5" class="edge">
<title>Node3&#45;&gt;Node6</title>
<path fill="none" stroke="midnightblue" d="M296.47,-224.08C296.47,-217.01 296.47,-206.86 296.47,-197.99"/>
<polygon fill="midnightblue" stroke="midnightblue" points="299.97,-197.75 296.47,-187.75 292.97,-197.75 299.97,-197.75"/>
</g>
<!-- Node7 -->
<g id="node7" class="node">
<title>Node7</title>
<g id="a_node7"><a xlink:title=" ">
<polygon fill="white" stroke="#bfbfbf" points="421.47,-168.5 421.47,-187.5 465.47,-187.5 465.47,-168.5 421.47,-168.5"/>
<text text-anchor="middle" x="443.47" y="-175.5" font-family="Helvetica,sans-Serif" font-size="10.00">string</text>
</a>
</g>
</g>
<!-- Node3&#45;&gt;Node7 -->
<g id="edge6" class="edge">
<title>Node3&#45;&gt;Node7</title>
<path fill="none" stroke="midnightblue" d="M319.76,-224.44C344.56,-215.33 383.98,-200.85 411.64,-190.69"/>
<polygon fill="midnightblue" stroke="midnightblue" points="413.07,-193.9 421.25,-187.16 410.65,-187.33 413.07,-193.9"/>
</g>
<!-- Node8 -->
<g id="node8" class="node">
<title>Node8</title>
<g id="a_node8"><a xlink:href="a00245.html" target="_top" xlink:title=" ">
<polygon fill="white" stroke="black" points="546.97,-56.5 546.97,-75.5 621.97,-75.5 621.97,-56.5 546.97,-56.5"/>
<text text-anchor="middle" x="584.47" y="-63.5" font-family="Helvetica,sans-Serif" font-size="10.00">ISetting.hpp</text>
</a>
</g>
</g>
<!-- Node3&#45;&gt;Node8 -->
<g id="edge7" class="edge">
<title>Node3&#45;&gt;Node8</title>
<path fill="none" stroke="midnightblue" d="M312.05,-224.43C327.78,-215.66 352.65,-201.44 373.47,-188 422.47,-156.36 429.65,-140.63 480.47,-112 503.26,-99.16 530.42,-87.52 551.28,-79.3"/>
<polygon fill="midnightblue" stroke="midnightblue" points="552.61,-82.54 560.67,-75.66 550.08,-76.01 552.61,-82.54"/>
</g>
<!-- Node9 -->
<g id="node9" class="node">
<title>Node9</title>
<g id="a_node9"><a xlink:title=" ">
<polygon fill="white" stroke="#bfbfbf" points="599.47,-0.5 599.47,-19.5 657.47,-19.5 657.47,-0.5 599.47,-0.5"/>
<text text-anchor="middle" x="628.47" y="-7.5" font-family="Helvetica,sans-Serif" font-size="10.00">memory</text>
</a>
</g>
</g>
<!-- Node8&#45;&gt;Node9 -->
<g id="edge8" class="edge">
<title>Node8&#45;&gt;Node9</title>
<path fill="none" stroke="midnightblue" d="M591.73,-56.08C598.01,-48.38 607.26,-37.03 614.9,-27.65"/>
<polygon fill="midnightblue" stroke="midnightblue" points="617.73,-29.71 621.34,-19.75 612.31,-25.29 617.73,-29.71"/>
</g>
<!-- Node10 -->
<g id="node10" class="node">
<title>Node10</title>
<g id="a_node10"><a xlink:title=" ">
<polygon fill="white" stroke="#bfbfbf" points="497.97,-0.5 497.97,-19.5 580.97,-19.5 580.97,-0.5 497.97,-0.5"/>
<text text-anchor="middle" x="539.47" y="-7.5" font-family="Helvetica,sans-Serif" font-size="10.00">libconfig.h++</text>
</a>
</g>
</g>
<!-- Node8&#45;&gt;Node10 -->
<g id="edge9" class="edge">
<title>Node8&#45;&gt;Node10</title>
<path fill="none" stroke="midnightblue" d="M577.04,-56.08C570.62,-48.38 561.16,-37.03 553.35,-27.65"/>
<polygon fill="midnightblue" stroke="midnightblue" points="555.85,-25.19 546.76,-19.75 550.47,-29.67 555.85,-25.19"/>
</g>
<!-- Node11&#45;&gt;Node9 -->
<g id="edge11" class="edge">
<title>Node11&#45;&gt;Node9</title>
<path fill="none" stroke="midnightblue" d="M96.06,-224.11C97.36,-210.69 101.49,-185.01 114.47,-168 172.08,-92.49 206.83,-87.4 296.47,-56 417.27,-13.68 458.26,-41.35 589.15,-19.82"/>
<polygon fill="midnightblue" stroke="midnightblue" points="589.88,-23.25 599.15,-18.11 588.7,-16.35 589.88,-23.25"/>
</g>
<!-- Node12 -->
<g id="node12" class="node">
<title>Node12</title>
<g id="a_node12"><a xlink:title=" ">
<polygon fill="white" stroke="#bfbfbf" points="19.97,-168.5 19.97,-187.5 66.97,-187.5 66.97,-168.5 19.97,-168.5"/>
<text text-anchor="middle" x="43.47" y="-175.5" font-family="Helvetica,sans-Serif" font-size="10.00">vector</text>
</a>
</g>
</g>
<!-- Node11&#45;&gt;Node12 -->
<g id="edge12" class="edge">
<title>Node11&#45;&gt;Node12</title>
<path fill="none" stroke="midnightblue" d="M86.88,-224.08C79.31,-216.22 68.09,-204.57 58.95,-195.08"/>
<polygon fill="midnightblue" stroke="midnightblue" points="61.35,-192.53 51.89,-187.75 56.31,-197.38 61.35,-192.53"/>
</g>
<!-- Node13&#45;&gt;Node5 -->
<g id="edge14" class="edge">
<title>Node13&#45;&gt;Node5</title>
<path fill="none" stroke="midnightblue" d="M519.61,-112.44C479.65,-102.64 414.35,-86.61 372.93,-76.44"/>
<polygon fill="midnightblue" stroke="midnightblue" points="373.75,-73.04 363.21,-74.05 372.08,-79.84 373.75,-73.04"/>
</g>
<!-- Node13&#45;&gt;Node8 -->
<g id="edge15" class="edge">
<title>Node13&#45;&gt;Node8</title>
<path fill="none" stroke="midnightblue" d="M559.42,-112.08C563.57,-104.61 569.62,-93.72 574.73,-84.52"/>
<polygon fill="midnightblue" stroke="midnightblue" points="577.81,-86.19 579.61,-75.75 571.69,-82.79 577.81,-86.19"/>
</g>
<!-- Node15 -->
<g id="node15" class="node">
<title>Node15</title>
<g id="a_node15"><a xlink:href="a00122.html" target="_top" xlink:title=" ">
<polygon fill="white" stroke="black" points="483.97,-168.5 483.97,-187.5 624.97,-187.5 624.97,-168.5 483.97,-168.5"/>
<text text-anchor="middle" x="554.47" y="-175.5" font-family="Helvetica,sans-Serif" font-size="10.00">Transform/ITransform.hpp</text>
</a>
</g>
</g>
<!-- Node14&#45;&gt;Node15 -->
<g id="edge17" class="edge">
<title>Node14&#45;&gt;Node15</title>
<path fill="none" stroke="midnightblue" d="M429.92,-224.44C454.6,-215.44 493.65,-201.19 521.44,-191.05"/>
<polygon fill="midnightblue" stroke="midnightblue" points="522.93,-194.23 531.13,-187.52 520.53,-187.66 522.93,-194.23"/>
</g>
<!-- Node15&#45;&gt;Node13 -->
<g id="edge18" class="edge">
<title>Node15&#45;&gt;Node13</title>
<path fill="none" stroke="midnightblue" d="M554.47,-168.08C554.47,-161.01 554.47,-150.86 554.47,-141.99"/>
<polygon fill="midnightblue" stroke="midnightblue" points="557.97,-141.75 554.47,-131.75 550.97,-141.75 557.97,-141.75"/>
</g>
<!-- Node16&#45;&gt;Node8 -->
<g id="edge21" class="edge">
<title>Node16&#45;&gt;Node8</title>
<path fill="none" stroke="midnightblue" d="M722.48,-112.44C694.77,-103.32 650.72,-88.81 619.85,-78.65"/>
<polygon fill="midnightblue" stroke="midnightblue" points="620.93,-75.32 610.33,-75.52 618.74,-81.97 620.93,-75.32"/>
</g>
<!-- Node16&#45;&gt;Node9 -->
<g id="edge20" class="edge">
<title>Node16&#45;&gt;Node9</title>
<path fill="none" stroke="midnightblue" d="M739.05,-112.37C718.81,-93.81 670.92,-49.91 645.31,-26.44"/>
<polygon fill="midnightblue" stroke="midnightblue" points="647.58,-23.77 637.84,-19.59 642.85,-28.93 647.58,-23.77"/>
</g>
<!-- Node17&#45;&gt;Node7 -->
<g id="edge24" class="edge">
<title>Node17&#45;&gt;Node7</title>
<path fill="none" stroke="midnightblue" d="M604.82,-280.43C580.4,-272.86 545.9,-260.47 518.47,-244 495.53,-230.23 472.83,-209.26 458.52,-194.88"/>
<polygon fill="midnightblue" stroke="midnightblue" points="460.96,-192.38 451.48,-187.66 455.95,-197.26 460.96,-192.38"/>
</g>
<!-- Node18 -->
<g id="node18" class="node">
<title>Node18</title>
<g id="a_node18"><a xlink:title=" ">
<polygon fill="white" stroke="#bfbfbf" points="631.97,-224.5 631.97,-243.5 696.97,-243.5 696.97,-224.5 631.97,-224.5"/>
<text text-anchor="middle" x="664.47" y="-231.5" font-family="Helvetica,sans-Serif" font-size="10.00">functional</text>
</a>
</g>
</g>
<!-- Node17&#45;&gt;Node18 -->
<g id="edge23" class="edge">
<title>Node17&#45;&gt;Node18</title>
<path fill="none" stroke="midnightblue" d="M640.26,-280.08C644.23,-272.69 649.99,-261.95 654.9,-252.81"/>
<polygon fill="midnightblue" stroke="midnightblue" points="658.12,-254.22 659.77,-243.75 651.95,-250.91 658.12,-254.22"/>
</g>
<!-- Node19&#45;&gt;Node8 -->
<g id="edge27" class="edge">
<title>Node19&#45;&gt;Node8</title>
<path fill="none" stroke="midnightblue" d="M599.59,-224.44C617.11,-217.62 637.99,-206.14 648.47,-188 670.02,-150.68 628.91,-105.5 603.11,-82.34"/>
<polygon fill="midnightblue" stroke="midnightblue" points="605.22,-79.53 595.37,-75.63 600.63,-84.82 605.22,-79.53"/>
</g>
<!-- Node19&#45;&gt;Node13 -->
<g id="edge28" class="edge">
<title>Node19&#45;&gt;Node13</title>
<path fill="none" stroke="midnightblue" d="M590.35,-224.35C613.56,-212.93 647.13,-191.51 633.47,-168 624.73,-152.97 608.89,-142.54 593.67,-135.54"/>
<polygon fill="midnightblue" stroke="midnightblue" points="594.92,-132.27 584.35,-131.61 592.21,-138.72 594.92,-132.27"/>
</g>
<!-- Node19&#45;&gt;Node15 -->
<g id="edge26" class="edge">
<title>Node19&#45;&gt;Node15</title>
<path fill="none" stroke="midnightblue" d="M567.83,-224.08C565.68,-216.85 562.59,-206.41 559.92,-197.4"/>
<polygon fill="midnightblue" stroke="midnightblue" points="563.26,-196.34 557.06,-187.75 556.55,-198.33 563.26,-196.34"/>
</g>
</g>
</svg>
