<?xml version="1.0" encoding="UTF-8" standalone="no"?>
<!DOCTYPE svg PUBLIC "-//W3C//DTD SVG 1.1//EN"
 "http://www.w3.org/Graphics/SVG/1.1/DTD/svg11.dtd">
<!-- Generated by graphviz version 2.43.0 (0)
 -->
<!-- Title: /home/runner/work/Raytracer/Raytracer/PluginsExt/Cone/ConeEntity.hpp Pages: 1 -->
<svg width="729pt" height="386pt"
 viewBox="0.00 0.00 729.00 386.00" xmlns="http://www.w3.org/2000/svg" xmlns:xlink="http://www.w3.org/1999/xlink">
<g id="graph0" class="graph" transform="scale(1 1) rotate(0) translate(4 382)">
<title>/home/runner/work/Raytracer/Raytracer/PluginsExt/Cone/ConeEntity.hpp</title>
<polygon fill="white" stroke="transparent" points="-4,4 -4,-382 725,-382 725,4 -4,4"/>
<!-- Node1 -->
<g id="node1" class="node">
<title>Node1</title>
<g id="a_node1"><a xlink:title=" ">
<polygon fill="#bfbfbf" stroke="black" points="231.5,-336.5 231.5,-377.5 390.5,-377.5 390.5,-336.5 231.5,-336.5"/>
<text text-anchor="start" x="239.5" y="-365.5" font-family="Helvetica,sans-Serif" font-size="10.00">/home/runner/work/Raytracer</text>
<text text-anchor="start" x="239.5" y="-354.5" font-family="Helvetica,sans-Serif" font-size="10.00">/Raytracer/PluginsExt/Cone</text>
<text text-anchor="middle" x="311" y="-343.5" font-family="Helvetica,sans-Serif" font-size="10.00">/ConeEntity.hpp</text>
</a>
</g>
</g>
<!-- Node2 -->
<g id="node2" class="node">
<title>Node2</title>
<g id="a_node2"><a xlink:title=" ">
<polygon fill="white" stroke="#bfbfbf" points="94.5,-280.5 94.5,-299.5 141.5,-299.5 141.5,-280.5 94.5,-280.5"/>
<text text-anchor="middle" x="118" y="-287.5" font-family="Helvetica,sans-Serif" font-size="10.00">cmath</text>
</a>
</g>
</g>
<!-- Node1&#45;&gt;Node2 -->
<g id="edge1" class="edge">
<title>Node1&#45;&gt;Node2</title>
<path fill="none" stroke="midnightblue" d="M253.09,-336.5C219.87,-325.31 179.33,-311.66 151.38,-302.24"/>
<polygon fill="midnightblue" stroke="midnightblue" points="152.28,-298.85 141.69,-298.98 150.05,-305.49 152.28,-298.85"/>
</g>
<!-- Node3 -->
<g id="node3" class="node">
<title>Node3</title>
<g id="a_node3"><a xlink:href="a00158.html" target="_top" xlink:title=" ">
<polygon fill="white" stroke="black" points="159.5,-280.5 159.5,-299.5 232.5,-299.5 232.5,-280.5 159.5,-280.5"/>
<text text-anchor="middle" x="196" y="-287.5" font-family="Helvetica,sans-Serif" font-size="10.00">ILogger.hpp</text>
</a>
</g>
</g>
<!-- Node1&#45;&gt;Node3 -->
<g id="edge2" class="edge">
<title>Node1&#45;&gt;Node3</title>
<path fill="none" stroke="midnightblue" d="M276.5,-336.5C258.36,-326.24 236.56,-313.93 220.23,-304.69"/>
<polygon fill="midnightblue" stroke="midnightblue" points="221.74,-301.53 211.31,-299.65 218.29,-307.62 221.74,-301.53"/>
</g>
<!-- Node6 -->
<g id="node6" class="node">
<title>Node6</title>
<g id="a_node6"><a xlink:href="a00119.html" target="_top" xlink:title=" ">
<polygon fill="white" stroke="black" points="347.5,-280.5 347.5,-299.5 432.5,-299.5 432.5,-280.5 347.5,-280.5"/>
<text text-anchor="middle" x="390" y="-287.5" font-family="Helvetica,sans-Serif" font-size="10.00">IPrimitive.hpp</text>
</a>
</g>
</g>
<!-- Node1&#45;&gt;Node6 -->
<g id="edge5" class="edge">
<title>Node1&#45;&gt;Node6</title>
<path fill="none" stroke="midnightblue" d="M334.7,-336.5C346.58,-326.72 360.74,-315.07 371.76,-306.01"/>
<polygon fill="midnightblue" stroke="midnightblue" points="373.99,-308.71 379.48,-299.65 369.54,-303.3 373.99,-308.71"/>
</g>
<!-- Node20 -->
<g id="node20" class="node">
<title>Node20</title>
<g id="a_node20"><a xlink:href="a00116.html" target="_top" xlink:title=" ">
<polygon fill="white" stroke="black" points="270.5,-224.5 270.5,-243.5 351.5,-243.5 351.5,-224.5 270.5,-224.5"/>
<text text-anchor="middle" x="311" y="-231.5" font-family="Helvetica,sans-Serif" font-size="10.00">IMaterial.hpp</text>
</a>
</g>
</g>
<!-- Node1&#45;&gt;Node20 -->
<g id="edge36" class="edge">
<title>Node1&#45;&gt;Node20</title>
<path fill="none" stroke="midnightblue" d="M311,-336.29C311,-313.48 311,-276.19 311,-253.78"/>
<polygon fill="midnightblue" stroke="midnightblue" points="314.5,-253.57 311,-243.57 307.5,-253.57 314.5,-253.57"/>
</g>
<!-- Node22 -->
<g id="node22" class="node">
<title>Node22</title>
<g id="a_node22"><a xlink:href="a00125.html" target="_top" xlink:title=" ">
<polygon fill="white" stroke="black" points="635,-224.5 635,-243.5 721,-243.5 721,-224.5 635,-224.5"/>
<text text-anchor="middle" x="678" y="-231.5" font-family="Helvetica,sans-Serif" font-size="10.00">Transform.hpp</text>
</a>
</g>
</g>
<!-- Node1&#45;&gt;Node22 -->
<g id="edge32" class="edge">
<title>Node1&#45;&gt;Node22</title>
<path fill="none" stroke="midnightblue" d="M370.37,-336.42C447.4,-311.03 579.36,-267.52 642.42,-246.73"/>
<polygon fill="midnightblue" stroke="midnightblue" points="643.53,-250.05 651.93,-243.6 641.33,-243.4 643.53,-250.05"/>
</g>
<!-- Node4 -->
<g id="node4" class="node">
<title>Node4</title>
<g id="a_node4"><a xlink:title=" ">
<polygon fill="white" stroke="#bfbfbf" points="52.5,-224.5 52.5,-243.5 117.5,-243.5 117.5,-224.5 52.5,-224.5"/>
<text text-anchor="middle" x="85" y="-231.5" font-family="Helvetica,sans-Serif" font-size="10.00">functional</text>
</a>
</g>
</g>
<!-- Node3&#45;&gt;Node4 -->
<g id="edge3" class="edge">
<title>Node3&#45;&gt;Node4</title>
<path fill="none" stroke="midnightblue" d="M178.17,-280.32C160.28,-271.62 132.52,-258.12 111.95,-248.11"/>
<polygon fill="midnightblue" stroke="midnightblue" points="113.31,-244.88 102.79,-243.65 110.25,-251.18 113.31,-244.88"/>
</g>
<!-- Node5 -->
<g id="node5" class="node">
<title>Node5</title>
<g id="a_node5"><a xlink:title=" ">
<polygon fill="white" stroke="#bfbfbf" points="0,-112.5 0,-131.5 44,-131.5 44,-112.5 0,-112.5"/>
<text text-anchor="middle" x="22" y="-119.5" font-family="Helvetica,sans-Serif" font-size="10.00">string</text>
</a>
</g>
</g>
<!-- Node3&#45;&gt;Node5 -->
<g id="edge4" class="edge">
<title>Node3&#45;&gt;Node5</title>
<path fill="none" stroke="midnightblue" d="M186.65,-280.08C158.54,-253.27 74.61,-173.19 38.65,-138.89"/>
<polygon fill="midnightblue" stroke="midnightblue" points="40.63,-135.94 30.98,-131.57 35.8,-141 40.63,-135.94"/>
</g>
<!-- Node7 -->
<g id="node7" class="node">
<title>Node7</title>
<g id="a_node7"><a xlink:title=" ">
<polygon fill="white" stroke="#bfbfbf" points="370,-224.5 370,-243.5 426,-243.5 426,-224.5 370,-224.5"/>
<text text-anchor="middle" x="398" y="-231.5" font-family="Helvetica,sans-Serif" font-size="10.00">optional</text>
</a>
</g>
</g>
<!-- Node6&#45;&gt;Node7 -->
<g id="edge6" class="edge">
<title>Node6&#45;&gt;Node7</title>
<path fill="none" stroke="midnightblue" d="M391.32,-280.08C392.38,-272.93 393.91,-262.64 395.23,-253.69"/>
<polygon fill="midnightblue" stroke="midnightblue" points="398.7,-254.16 396.7,-243.75 391.78,-253.13 398.7,-254.16"/>
</g>
<!-- Node8 -->
<g id="node8" class="node">
<title>Node8</title>
<g id="a_node8"><a xlink:href="a00161.html" target="_top" xlink:title=" ">
<polygon fill="white" stroke="black" points="174,-168.5 174,-187.5 236,-187.5 236,-168.5 174,-168.5"/>
<text text-anchor="middle" x="205" y="-175.5" font-family="Helvetica,sans-Serif" font-size="10.00">Color.hpp</text>
</a>
</g>
</g>
<!-- Node6&#45;&gt;Node8 -->
<g id="edge7" class="edge">
<title>Node6&#45;&gt;Node8</title>
<path fill="none" stroke="midnightblue" d="M347.42,-281.81C318.96,-275.43 281.79,-263.93 254,-244 236.83,-231.69 223,-211.59 214.47,-197"/>
<polygon fill="midnightblue" stroke="midnightblue" points="217.35,-194.97 209.43,-187.94 211.23,-198.38 217.35,-194.97"/>
</g>
<!-- Node15 -->
<g id="node15" class="node">
<title>Node15</title>
<g id="a_node15"><a xlink:href="a00239.html" target="_top" xlink:title=" ">
<polygon fill="white" stroke="black" points="254,-168.5 254,-187.5 352,-187.5 352,-168.5 254,-168.5"/>
<text text-anchor="middle" x="303" y="-175.5" font-family="Helvetica,sans-Serif" font-size="10.00">IDisplayable.hpp</text>
</a>
</g>
</g>
<!-- Node6&#45;&gt;Node15 -->
<g id="edge15" class="edge">
<title>Node6&#45;&gt;Node15</title>
<path fill="none" stroke="midnightblue" d="M347.33,-286.47C317.8,-282.23 280.44,-271.36 261,-244 249.07,-227.21 266.49,-207.22 282.38,-193.89"/>
<polygon fill="midnightblue" stroke="midnightblue" points="284.7,-196.51 290.39,-187.57 280.37,-191.02 284.7,-196.51"/>
</g>
<!-- Node17 -->
<g id="node17" class="node">
<title>Node17</title>
<g id="a_node17"><a xlink:href="a00110.html" target="_top" xlink:title=" ">
<polygon fill="white" stroke="black" points="538,-224.5 538,-243.5 606,-243.5 606,-224.5 538,-224.5"/>
<text text-anchor="middle" x="572" y="-231.5" font-family="Helvetica,sans-Serif" font-size="10.00">IEntity.hpp</text>
</a>
</g>
</g>
<!-- Node6&#45;&gt;Node17 -->
<g id="edge18" class="edge">
<title>Node6&#45;&gt;Node17</title>
<path fill="none" stroke="midnightblue" d="M418.84,-280.44C449.86,-271.24 499.33,-256.56 533.62,-246.39"/>
<polygon fill="midnightblue" stroke="midnightblue" points="534.71,-249.72 543.3,-243.52 532.71,-243.01 534.71,-249.72"/>
</g>
<!-- Node19 -->
<g id="node19" class="node">
<title>Node19</title>
<g id="a_node19"><a xlink:href="a00131.html" target="_top" xlink:title=" ">
<polygon fill="white" stroke="black" points="463.5,-112.5 463.5,-131.5 540.5,-131.5 540.5,-112.5 463.5,-112.5"/>
<text text-anchor="middle" x="502" y="-119.5" font-family="Helvetica,sans-Serif" font-size="10.00">Vector3f.hpp</text>
</a>
</g>
</g>
<!-- Node6&#45;&gt;Node19 -->
<g id="edge31" class="edge">
<title>Node6&#45;&gt;Node19</title>
<path fill="none" stroke="midnightblue" d="M406.16,-280.38C419.69,-272.46 438.71,-259.61 451,-244 475.94,-212.33 490.76,-166.68 497.54,-141.47"/>
<polygon fill="midnightblue" stroke="midnightblue" points="500.94,-142.29 500.03,-131.74 494.16,-140.56 500.94,-142.29"/>
</g>
<!-- Node6&#45;&gt;Node20 -->
<g id="edge23" class="edge">
<title>Node6&#45;&gt;Node20</title>
<path fill="none" stroke="midnightblue" d="M377.31,-280.32C365.1,-271.98 346.42,-259.21 332,-249.35"/>
<polygon fill="midnightblue" stroke="midnightblue" points="333.89,-246.41 323.66,-243.65 329.94,-252.19 333.89,-246.41"/>
</g>
<!-- Node21 -->
<g id="node21" class="node">
<title>Node21</title>
<g id="a_node21"><a xlink:href="a00176.html" target="_top" xlink:title=" ">
<polygon fill="white" stroke="black" points="408.5,-168.5 408.5,-187.5 463.5,-187.5 463.5,-168.5 408.5,-168.5"/>
<text text-anchor="middle" x="436" y="-175.5" font-family="Helvetica,sans-Serif" font-size="10.00">Ray.hpp</text>
</a>
</g>
</g>
<!-- Node6&#45;&gt;Node21 -->
<g id="edge30" class="edge">
<title>Node6&#45;&gt;Node21</title>
<path fill="none" stroke="midnightblue" d="M403.01,-280.41C413.82,-272.43 428.45,-259.47 435,-244 441.19,-229.38 440.88,-211.21 439.34,-197.8"/>
<polygon fill="midnightblue" stroke="midnightblue" points="442.8,-197.22 437.88,-187.84 435.87,-198.24 442.8,-197.22"/>
</g>
<!-- Node8&#45;&gt;Node5 -->
<g id="edge11" class="edge">
<title>Node8&#45;&gt;Node5</title>
<path fill="none" stroke="midnightblue" d="M176,-168.44C142.85,-158.66 88.72,-142.69 54.26,-132.52"/>
<polygon fill="midnightblue" stroke="midnightblue" points="54.82,-129.04 44.24,-129.56 52.84,-135.75 54.82,-129.04"/>
</g>
<!-- Node9 -->
<g id="node9" class="node">
<title>Node9</title>
<g id="a_node9"><a xlink:title=" ">
<polygon fill="white" stroke="#bfbfbf" points="218,-112.5 218,-131.5 266,-131.5 266,-112.5 218,-112.5"/>
<text text-anchor="middle" x="242" y="-119.5" font-family="Helvetica,sans-Serif" font-size="10.00">mutex</text>
</a>
</g>
</g>
<!-- Node8&#45;&gt;Node9 -->
<g id="edge8" class="edge">
<title>Node8&#45;&gt;Node9</title>
<path fill="none" stroke="midnightblue" d="M211.11,-168.08C216.28,-160.53 223.85,-149.49 230.19,-140.23"/>
<polygon fill="midnightblue" stroke="midnightblue" points="233.24,-141.98 236,-131.75 227.46,-138.02 233.24,-141.98"/>
</g>
<!-- Node10 -->
<g id="node10" class="node">
<title>Node10</title>
<g id="a_node10"><a xlink:title=" ">
<polygon fill="white" stroke="#bfbfbf" points="355.5,-56.5 355.5,-75.5 412.5,-75.5 412.5,-56.5 355.5,-56.5"/>
<text text-anchor="middle" x="384" y="-63.5" font-family="Helvetica,sans-Serif" font-size="10.00">ostream</text>
</a>
</g>
</g>
<!-- Node8&#45;&gt;Node10 -->
<g id="edge9" class="edge">
<title>Node8&#45;&gt;Node10</title>
<path fill="none" stroke="midnightblue" d="M219.05,-168.37C249.89,-149.41 323.79,-104 361.31,-80.94"/>
<polygon fill="midnightblue" stroke="midnightblue" points="363.33,-83.81 370.02,-75.59 359.67,-77.85 363.33,-83.81"/>
</g>
<!-- Node11 -->
<g id="node11" class="node">
<title>Node11</title>
<g id="a_node11"><a xlink:title=" ">
<polygon fill="white" stroke="#bfbfbf" points="62.5,-112.5 62.5,-131.5 199.5,-131.5 199.5,-112.5 62.5,-112.5"/>
<text text-anchor="middle" x="131" y="-119.5" font-family="Helvetica,sans-Serif" font-size="10.00">SFML/Graphics/Color.hpp</text>
</a>
</g>
</g>
<!-- Node8&#45;&gt;Node11 -->
<g id="edge10" class="edge">
<title>Node8&#45;&gt;Node11</title>
<path fill="none" stroke="midnightblue" d="M193.11,-168.32C181.85,-160.11 164.71,-147.6 151.29,-137.81"/>
<polygon fill="midnightblue" stroke="midnightblue" points="153.25,-134.9 143.11,-131.83 149.12,-140.56 153.25,-134.9"/>
</g>
<!-- Node12 -->
<g id="node12" class="node">
<title>Node12</title>
<g id="a_node12"><a xlink:href="a00245.html" target="_top" xlink:title=" ">
<polygon fill="white" stroke="black" points="447.5,-56.5 447.5,-75.5 522.5,-75.5 522.5,-56.5 447.5,-56.5"/>
<text text-anchor="middle" x="485" y="-63.5" font-family="Helvetica,sans-Serif" font-size="10.00">ISetting.hpp</text>
</a>
</g>
</g>
<!-- Node8&#45;&gt;Node12 -->
<g id="edge12" class="edge">
<title>Node8&#45;&gt;Node12</title>
<path fill="none" stroke="midnightblue" d="M226.97,-168.37C276.35,-148.97 396.24,-101.87 453.52,-79.37"/>
<polygon fill="midnightblue" stroke="midnightblue" points="455.1,-82.51 463.13,-75.59 452.54,-75.99 455.1,-82.51"/>
</g>
<!-- Node13 -->
<g id="node13" class="node">
<title>Node13</title>
<g id="a_node13"><a xlink:title=" ">
<polygon fill="white" stroke="#bfbfbf" points="341,-0.5 341,-19.5 399,-19.5 399,-0.5 341,-0.5"/>
<text text-anchor="middle" x="370" y="-7.5" font-family="Helvetica,sans-Serif" font-size="10.00">memory</text>
</a>
</g>
</g>
<!-- Node12&#45;&gt;Node13 -->
<g id="edge13" class="edge">
<title>Node12&#45;&gt;Node13</title>
<path fill="none" stroke="midnightblue" d="M466.78,-56.44C448.1,-47.68 418.84,-33.94 397.38,-23.86"/>
<polygon fill="midnightblue" stroke="midnightblue" points="398.68,-20.6 388.14,-19.52 395.7,-26.93 398.68,-20.6"/>
</g>
<!-- Node14 -->
<g id="node14" class="node">
<title>Node14</title>
<g id="a_node14"><a xlink:title=" ">
<polygon fill="white" stroke="#bfbfbf" points="443.5,-0.5 443.5,-19.5 526.5,-19.5 526.5,-0.5 443.5,-0.5"/>
<text text-anchor="middle" x="485" y="-7.5" font-family="Helvetica,sans-Serif" font-size="10.00">libconfig.h++</text>
</a>
</g>
</g>
<!-- Node12&#45;&gt;Node14 -->
<g id="edge14" class="edge">
<title>Node12&#45;&gt;Node14</title>
<path fill="none" stroke="midnightblue" d="M485,-56.08C485,-49.01 485,-38.86 485,-29.99"/>
<polygon fill="midnightblue" stroke="midnightblue" points="488.5,-29.75 485,-19.75 481.5,-29.75 488.5,-29.75"/>
</g>
<!-- Node15&#45;&gt;Node13 -->
<g id="edge16" class="edge">
<title>Node15&#45;&gt;Node13</title>
<path fill="none" stroke="midnightblue" d="M305.6,-168.32C311.72,-148.21 327.9,-96.99 346,-56 350.07,-46.79 355.26,-36.88 359.77,-28.71"/>
<polygon fill="midnightblue" stroke="midnightblue" points="362.95,-30.2 364.82,-19.77 356.85,-26.76 362.95,-30.2"/>
</g>
<!-- Node16 -->
<g id="node16" class="node">
<title>Node16</title>
<g id="a_node16"><a xlink:title=" ">
<polygon fill="white" stroke="#bfbfbf" points="398.5,-112.5 398.5,-131.5 445.5,-131.5 445.5,-112.5 398.5,-112.5"/>
<text text-anchor="middle" x="422" y="-119.5" font-family="Helvetica,sans-Serif" font-size="10.00">vector</text>
</a>
</g>
</g>
<!-- Node15&#45;&gt;Node16 -->
<g id="edge17" class="edge">
<title>Node15&#45;&gt;Node16</title>
<path fill="none" stroke="midnightblue" d="M321.86,-168.44C341.27,-159.64 371.73,-145.81 393.96,-135.72"/>
<polygon fill="midnightblue" stroke="midnightblue" points="395.57,-138.84 403.23,-131.52 392.68,-132.46 395.57,-138.84"/>
</g>
<!-- Node18 -->
<g id="node18" class="node">
<title>Node18</title>
<g id="a_node18"><a xlink:href="a00122.html" target="_top" xlink:title=" ">
<polygon fill="white" stroke="black" points="520.5,-168.5 520.5,-187.5 661.5,-187.5 661.5,-168.5 520.5,-168.5"/>
<text text-anchor="middle" x="591" y="-175.5" font-family="Helvetica,sans-Serif" font-size="10.00">Transform/ITransform.hpp</text>
</a>
</g>
</g>
<!-- Node17&#45;&gt;Node18 -->
<g id="edge19" class="edge">
<title>Node17&#45;&gt;Node18</title>
<path fill="none" stroke="midnightblue" d="M575.14,-224.08C577.68,-216.85 581.36,-206.41 584.53,-197.4"/>
<polygon fill="midnightblue" stroke="midnightblue" points="587.9,-198.35 587.92,-187.75 581.3,-196.02 587.9,-198.35"/>
</g>
<!-- Node18&#45;&gt;Node19 -->
<g id="edge20" class="edge">
<title>Node18&#45;&gt;Node19</title>
<path fill="none" stroke="midnightblue" d="M576.7,-168.32C562.82,-159.9 541.51,-146.97 525.2,-137.07"/>
<polygon fill="midnightblue" stroke="midnightblue" points="526.63,-133.85 516.26,-131.65 523,-139.83 526.63,-133.85"/>
</g>
<!-- Node19&#45;&gt;Node10 -->
<g id="edge21" class="edge">
<title>Node19&#45;&gt;Node10</title>
<path fill="none" stroke="midnightblue" d="M483.3,-112.44C464.06,-103.64 433.85,-89.81 411.8,-79.72"/>
<polygon fill="midnightblue" stroke="midnightblue" points="413.16,-76.5 402.61,-75.52 410.25,-82.86 413.16,-76.5"/>
</g>
<!-- Node19&#45;&gt;Node12 -->
<g id="edge22" class="edge">
<title>Node19&#45;&gt;Node12</title>
<path fill="none" stroke="midnightblue" d="M499.19,-112.08C496.92,-104.85 493.63,-94.41 490.79,-85.4"/>
<polygon fill="midnightblue" stroke="midnightblue" points="494.1,-84.24 487.75,-75.75 487.42,-86.34 494.1,-84.24"/>
</g>
<!-- Node20&#45;&gt;Node8 -->
<g id="edge26" class="edge">
<title>Node20&#45;&gt;Node8</title>
<path fill="none" stroke="midnightblue" d="M293.97,-224.32C276.97,-215.66 250.62,-202.24 231.01,-192.25"/>
<polygon fill="midnightblue" stroke="midnightblue" points="232.49,-189.08 221.99,-187.65 229.31,-195.31 232.49,-189.08"/>
</g>
<!-- Node20&#45;&gt;Node15 -->
<g id="edge27" class="edge">
<title>Node20&#45;&gt;Node15</title>
<path fill="none" stroke="midnightblue" d="M309.68,-224.08C308.62,-216.93 307.09,-206.64 305.77,-197.69"/>
<polygon fill="midnightblue" stroke="midnightblue" points="309.22,-197.13 304.3,-187.75 302.3,-198.16 309.22,-197.13"/>
</g>
<!-- Node20&#45;&gt;Node18 -->
<g id="edge28" class="edge">
<title>Node20&#45;&gt;Node18</title>
<path fill="none" stroke="midnightblue" d="M351.71,-225.15C400.45,-215.75 482.25,-199.97 536.42,-189.53"/>
<polygon fill="midnightblue" stroke="midnightblue" points="537.38,-192.91 546.53,-187.58 536.05,-186.03 537.38,-192.91"/>
</g>
<!-- Node20&#45;&gt;Node19 -->
<g id="edge29" class="edge">
<title>Node20&#45;&gt;Node19</title>
<path fill="none" stroke="midnightblue" d="M321.18,-224.43C337.22,-211.19 369.67,-185.49 400,-168 422.19,-155.2 448.7,-143.61 469.13,-135.4"/>
<polygon fill="midnightblue" stroke="midnightblue" points="470.61,-138.58 478.62,-131.65 468.04,-132.07 470.61,-138.58"/>
</g>
<!-- Node20&#45;&gt;Node21 -->
<g id="edge24" class="edge">
<title>Node20&#45;&gt;Node21</title>
<path fill="none" stroke="midnightblue" d="M330.81,-224.44C351.29,-215.6 383.48,-201.69 406.86,-191.59"/>
<polygon fill="midnightblue" stroke="midnightblue" points="408.49,-194.7 416.29,-187.52 405.72,-188.27 408.49,-194.7"/>
</g>
<!-- Node21&#45;&gt;Node19 -->
<g id="edge25" class="edge">
<title>Node21&#45;&gt;Node19</title>
<path fill="none" stroke="midnightblue" d="M446.6,-168.32C456.46,-160.26 471.35,-148.08 483.22,-138.37"/>
<polygon fill="midnightblue" stroke="midnightblue" points="485.68,-140.88 491.2,-131.83 481.25,-135.46 485.68,-140.88"/>
</g>
<!-- Node22&#45;&gt;Node12 -->
<g id="edge34" class="edge">
<title>Node22&#45;&gt;Node12</title>
<path fill="none" stroke="midnightblue" d="M682.98,-224.28C689.79,-211.08 699.99,-185.7 689,-168 655.04,-113.3 581.69,-87.32 532.83,-75.65"/>
<polygon fill="midnightblue" stroke="midnightblue" points="533.33,-72.18 522.8,-73.38 531.78,-79 533.33,-72.18"/>
</g>
<!-- Node22&#45;&gt;Node18 -->
<g id="edge33" class="edge">
<title>Node22&#45;&gt;Node18</title>
<path fill="none" stroke="midnightblue" d="M664.02,-224.32C650.45,-215.9 629.62,-202.97 613.68,-193.07"/>
<polygon fill="midnightblue" stroke="midnightblue" points="615.29,-189.95 604.94,-187.65 611.59,-195.9 615.29,-189.95"/>
</g>
<!-- Node22&#45;&gt;Node19 -->
<g id="edge35" class="edge">
<title>Node22&#45;&gt;Node19</title>
<path fill="none" stroke="midnightblue" d="M679.88,-224.23C682.26,-210.5 684.6,-183.85 671,-168 655.41,-149.83 594.89,-136.97 550.71,-129.77"/>
<polygon fill="midnightblue" stroke="midnightblue" points="551.14,-126.29 540.71,-128.19 550.05,-133.21 551.14,-126.29"/>
</g>
</g>
</svg>
