<?xml version="1.0" encoding="UTF-8" standalone="no"?>
<!DOCTYPE svg PUBLIC "-//W3C//DTD SVG 1.1//EN"
 "http://www.w3.org/Graphics/SVG/1.1/DTD/svg11.dtd">
<!-- Generated by graphviz version 2.43.0 (0)
 -->
<!-- Title: /home/runner/work/Raytracer/Raytracer/PluginsExt/Obj/ObjEntity.hpp Pages: 1 -->
<svg width="734pt" height="386pt"
 viewBox="0.00 0.00 733.93 386.00" xmlns="http://www.w3.org/2000/svg" xmlns:xlink="http://www.w3.org/1999/xlink">
<g id="graph0" class="graph" transform="scale(1 1) rotate(0) translate(4 382)">
<title>/home/runner/work/Raytracer/Raytracer/PluginsExt/Obj/ObjEntity.hpp</title>
<polygon fill="white" stroke="transparent" points="-4,4 -4,-382 729.93,-382 729.93,4 -4,4"/>
<!-- Node1 -->
<g id="node1" class="node">
<title>Node1</title>
<g id="a_node1"><a xlink:title=" ">
<polygon fill="#bfbfbf" stroke="black" points="150.43,-336.5 150.43,-377.5 309.43,-377.5 309.43,-336.5 150.43,-336.5"/>
<text text-anchor="start" x="158.43" y="-365.5" font-family="Helvetica,sans-Serif" font-size="10.00">/home/runner/work/Raytracer</text>
<text text-anchor="start" x="158.43" y="-354.5" font-family="Helvetica,sans-Serif" font-size="10.00">/Raytracer/PluginsExt/Obj</text>
<text text-anchor="middle" x="229.93" y="-343.5" font-family="Helvetica,sans-Serif" font-size="10.00">/ObjEntity.hpp</text>
</a>
</g>
</g>
<!-- Node2 -->
<g id="node2" class="node">
<title>Node2</title>
<g id="a_node2"><a xlink:title=" ">
<polygon fill="white" stroke="#bfbfbf" points="12.43,-224.5 12.43,-243.5 77.43,-243.5 77.43,-224.5 12.43,-224.5"/>
<text text-anchor="middle" x="44.93" y="-231.5" font-family="Helvetica,sans-Serif" font-size="10.00">functional</text>
</a>
</g>
</g>
<!-- Node1&#45;&gt;Node2 -->
<g id="edge1" class="edge">
<title>Node1&#45;&gt;Node2</title>
<path fill="none" stroke="midnightblue" d="M150.4,-342.27C105.03,-332.64 54.55,-318.24 40.93,-300 31.02,-286.72 33.77,-267.33 37.94,-253.18"/>
<polygon fill="midnightblue" stroke="midnightblue" points="41.3,-254.17 41.21,-243.58 34.67,-251.91 41.3,-254.17"/>
</g>
<!-- Node3 -->
<g id="node3" class="node">
<title>Node3</title>
<g id="a_node3"><a xlink:title=" ">
<polygon fill="white" stroke="#bfbfbf" points="0.43,-112.5 0.43,-131.5 47.43,-131.5 47.43,-112.5 0.43,-112.5"/>
<text text-anchor="middle" x="23.93" y="-119.5" font-family="Helvetica,sans-Serif" font-size="10.00">vector</text>
</a>
</g>
</g>
<!-- Node1&#45;&gt;Node3 -->
<g id="edge2" class="edge">
<title>Node1&#45;&gt;Node3</title>
<path fill="none" stroke="midnightblue" d="M150.21,-348.79C110.7,-341.69 64.41,-327.67 30.93,-300 9.49,-282.27 9.33,-271.08 2.93,-244 -5.6,-207.83 7.22,-164.82 16.27,-141.05"/>
<polygon fill="midnightblue" stroke="midnightblue" points="19.6,-142.16 20.08,-131.58 13.1,-139.55 19.6,-142.16"/>
</g>
<!-- Node4 -->
<g id="node4" class="node">
<title>Node4</title>
<g id="a_node4"><a xlink:title=" ">
<polygon fill="white" stroke="#bfbfbf" points="50.43,-280.5 50.43,-299.5 105.43,-299.5 105.43,-280.5 50.43,-280.5"/>
<text text-anchor="middle" x="77.93" y="-287.5" font-family="Helvetica,sans-Serif" font-size="10.00">fstream</text>
</a>
</g>
</g>
<!-- Node1&#45;&gt;Node4 -->
<g id="edge3" class="edge">
<title>Node1&#45;&gt;Node4</title>
<path fill="none" stroke="midnightblue" d="M184.33,-336.5C159.46,-325.86 129.38,-313 107.56,-303.67"/>
<polygon fill="midnightblue" stroke="midnightblue" points="108.74,-300.37 98.17,-299.65 105.99,-306.8 108.74,-300.37"/>
</g>
<!-- Node5 -->
<g id="node5" class="node">
<title>Node5</title>
<g id="a_node5"><a xlink:title=" ">
<polygon fill="white" stroke="#bfbfbf" points="123.93,-280.5 123.93,-299.5 183.93,-299.5 183.93,-280.5 123.93,-280.5"/>
<text text-anchor="middle" x="153.93" y="-287.5" font-family="Helvetica,sans-Serif" font-size="10.00">iostream</text>
</a>
</g>
</g>
<!-- Node1&#45;&gt;Node5 -->
<g id="edge4" class="edge">
<title>Node1&#45;&gt;Node5</title>
<path fill="none" stroke="midnightblue" d="M207.13,-336.5C195.82,-326.82 182.35,-315.3 171.79,-306.27"/>
<polygon fill="midnightblue" stroke="midnightblue" points="173.93,-303.49 164.05,-299.65 169.38,-308.81 173.93,-303.49"/>
</g>
<!-- Node6 -->
<g id="node6" class="node">
<title>Node6</title>
<g id="a_node6"><a xlink:title=" ">
<polygon fill="white" stroke="#bfbfbf" points="201.93,-280.5 201.93,-299.5 257.93,-299.5 257.93,-280.5 201.93,-280.5"/>
<text text-anchor="middle" x="229.93" y="-287.5" font-family="Helvetica,sans-Serif" font-size="10.00">sstream</text>
</a>
</g>
</g>
<!-- Node1&#45;&gt;Node6 -->
<g id="edge5" class="edge">
<title>Node1&#45;&gt;Node6</title>
<path fill="none" stroke="midnightblue" d="M229.93,-336.5C229.93,-328.07 229.93,-318.24 229.93,-309.87"/>
<polygon fill="midnightblue" stroke="midnightblue" points="233.43,-309.65 229.93,-299.65 226.43,-309.65 233.43,-309.65"/>
</g>
<!-- Node7 -->
<g id="node7" class="node">
<title>Node7</title>
<g id="a_node7"><a xlink:href="a00158.html" target="_top" xlink:title=" ">
<polygon fill="white" stroke="black" points="276.43,-280.5 276.43,-299.5 349.43,-299.5 349.43,-280.5 276.43,-280.5"/>
<text text-anchor="middle" x="312.93" y="-287.5" font-family="Helvetica,sans-Serif" font-size="10.00">ILogger.hpp</text>
</a>
</g>
</g>
<!-- Node1&#45;&gt;Node7 -->
<g id="edge6" class="edge">
<title>Node1&#45;&gt;Node7</title>
<path fill="none" stroke="midnightblue" d="M254.84,-336.5C267.32,-326.72 282.2,-315.07 293.77,-306.01"/>
<polygon fill="midnightblue" stroke="midnightblue" points="296.17,-308.57 301.89,-299.65 291.85,-303.06 296.17,-308.57"/>
</g>
<!-- Node9 -->
<g id="node9" class="node">
<title>Node9</title>
<g id="a_node9"><a xlink:href="a00119.html" target="_top" xlink:title=" ">
<polygon fill="white" stroke="black" points="367.43,-280.5 367.43,-299.5 452.43,-299.5 452.43,-280.5 367.43,-280.5"/>
<text text-anchor="middle" x="409.93" y="-287.5" font-family="Helvetica,sans-Serif" font-size="10.00">IPrimitive.hpp</text>
</a>
</g>
</g>
<!-- Node1&#45;&gt;Node9 -->
<g id="edge9" class="edge">
<title>Node1&#45;&gt;Node9</title>
<path fill="none" stroke="midnightblue" d="M283.94,-336.5C313.93,-325.67 350.29,-312.54 376.23,-303.17"/>
<polygon fill="midnightblue" stroke="midnightblue" points="377.76,-306.34 385.97,-299.65 375.38,-299.76 377.76,-306.34"/>
</g>
<!-- Node22 -->
<g id="node22" class="node">
<title>Node22</title>
<g id="a_node22"><a xlink:href="a00116.html" target="_top" xlink:title=" ">
<polygon fill="white" stroke="black" points="454.43,-224.5 454.43,-243.5 535.43,-243.5 535.43,-224.5 454.43,-224.5"/>
<text text-anchor="middle" x="494.93" y="-231.5" font-family="Helvetica,sans-Serif" font-size="10.00">IMaterial.hpp</text>
</a>
</g>
</g>
<!-- Node1&#45;&gt;Node22 -->
<g id="edge40" class="edge">
<title>Node1&#45;&gt;Node22</title>
<path fill="none" stroke="midnightblue" d="M309.54,-352.95C357.71,-347.43 417.93,-333.6 460.93,-300 475.95,-288.26 485.03,-268.03 489.98,-253.25"/>
<polygon fill="midnightblue" stroke="midnightblue" points="493.34,-254.24 492.88,-243.65 486.64,-252.21 493.34,-254.24"/>
</g>
<!-- Node24 -->
<g id="node24" class="node">
<title>Node24</title>
<g id="a_node24"><a xlink:href="a00125.html" target="_top" xlink:title=" ">
<polygon fill="white" stroke="black" points="639.93,-224.5 639.93,-243.5 725.93,-243.5 725.93,-224.5 639.93,-224.5"/>
<text text-anchor="middle" x="682.93" y="-231.5" font-family="Helvetica,sans-Serif" font-size="10.00">Transform.hpp</text>
</a>
</g>
</g>
<!-- Node1&#45;&gt;Node24 -->
<g id="edge36" class="edge">
<title>Node1&#45;&gt;Node24</title>
<path fill="none" stroke="midnightblue" d="M309.65,-340.53C359.95,-330.25 426.1,-315.78 483.93,-300 542.96,-283.9 610.41,-260.86 649.68,-246.98"/>
<polygon fill="midnightblue" stroke="midnightblue" points="651.02,-250.22 659.27,-243.57 648.68,-243.62 651.02,-250.22"/>
</g>
<!-- Node7&#45;&gt;Node2 -->
<g id="edge7" class="edge">
<title>Node7&#45;&gt;Node2</title>
<path fill="none" stroke="midnightblue" d="M276.23,-281.6C227.04,-271.69 139.9,-254.14 87.77,-243.63"/>
<polygon fill="midnightblue" stroke="midnightblue" points="88.33,-240.17 77.83,-241.63 86.94,-247.03 88.33,-240.17"/>
</g>
<!-- Node8 -->
<g id="node8" class="node">
<title>Node8</title>
<g id="a_node8"><a xlink:title=" ">
<polygon fill="white" stroke="#bfbfbf" points="142.93,-112.5 142.93,-131.5 186.93,-131.5 186.93,-112.5 142.93,-112.5"/>
<text text-anchor="middle" x="164.93" y="-119.5" font-family="Helvetica,sans-Serif" font-size="10.00">string</text>
</a>
</g>
</g>
<!-- Node7&#45;&gt;Node8 -->
<g id="edge8" class="edge">
<title>Node7&#45;&gt;Node8</title>
<path fill="none" stroke="midnightblue" d="M276.06,-281.18C231.26,-269.49 157.64,-242.7 124.93,-188 114.66,-170.82 130.43,-151.29 145.09,-138.16"/>
<polygon fill="midnightblue" stroke="midnightblue" points="147.53,-140.68 152.95,-131.58 143.04,-135.32 147.53,-140.68"/>
</g>
<!-- Node10 -->
<g id="node10" class="node">
<title>Node10</title>
<g id="a_node10"><a xlink:title=" ">
<polygon fill="white" stroke="#bfbfbf" points="341.93,-224.5 341.93,-243.5 397.93,-243.5 397.93,-224.5 341.93,-224.5"/>
<text text-anchor="middle" x="369.93" y="-231.5" font-family="Helvetica,sans-Serif" font-size="10.00">optional</text>
</a>
</g>
</g>
<!-- Node9&#45;&gt;Node10 -->
<g id="edge10" class="edge">
<title>Node9&#45;&gt;Node10</title>
<path fill="none" stroke="midnightblue" d="M403.33,-280.08C397.68,-272.46 389.39,-261.26 382.48,-251.94"/>
<polygon fill="midnightblue" stroke="midnightblue" points="385.18,-249.7 376.42,-243.75 379.56,-253.87 385.18,-249.7"/>
</g>
<!-- Node11 -->
<g id="node11" class="node">
<title>Node11</title>
<g id="a_node11"><a xlink:href="a00161.html" target="_top" xlink:title=" ">
<polygon fill="white" stroke="black" points="249.93,-168.5 249.93,-187.5 311.93,-187.5 311.93,-168.5 249.93,-168.5"/>
<text text-anchor="middle" x="280.93" y="-175.5" font-family="Helvetica,sans-Serif" font-size="10.00">Color.hpp</text>
</a>
</g>
</g>
<!-- Node9&#45;&gt;Node11 -->
<g id="edge11" class="edge">
<title>Node9&#45;&gt;Node11</title>
<path fill="none" stroke="midnightblue" d="M367.38,-280.99C344.47,-274.61 317.41,-263.39 299.93,-244 288.51,-231.32 283.93,-212.12 282.11,-197.87"/>
<polygon fill="midnightblue" stroke="midnightblue" points="285.58,-197.35 281.16,-187.72 278.61,-198 285.58,-197.35"/>
</g>
<!-- Node18 -->
<g id="node18" class="node">
<title>Node18</title>
<g id="a_node18"><a xlink:href="a00239.html" target="_top" xlink:title=" ">
<polygon fill="white" stroke="black" points="133.93,-168.5 133.93,-187.5 231.93,-187.5 231.93,-168.5 133.93,-168.5"/>
<text text-anchor="middle" x="182.93" y="-175.5" font-family="Helvetica,sans-Serif" font-size="10.00">IDisplayable.hpp</text>
</a>
</g>
</g>
<!-- Node9&#45;&gt;Node18 -->
<g id="edge19" class="edge">
<title>Node9&#45;&gt;Node18</title>
<path fill="none" stroke="midnightblue" d="M380.64,-280.48C354.82,-272.5 316.51,-259.5 284.93,-244 255.02,-229.31 223,-207.86 202.98,-193.67"/>
<polygon fill="midnightblue" stroke="midnightblue" points="204.84,-190.7 194.67,-187.71 200.76,-196.38 204.84,-190.7"/>
</g>
<!-- Node19 -->
<g id="node19" class="node">
<title>Node19</title>
<g id="a_node19"><a xlink:href="a00110.html" target="_top" xlink:title=" ">
<polygon fill="white" stroke="black" points="553.93,-224.5 553.93,-243.5 621.93,-243.5 621.93,-224.5 553.93,-224.5"/>
<text text-anchor="middle" x="587.93" y="-231.5" font-family="Helvetica,sans-Serif" font-size="10.00">IEntity.hpp</text>
</a>
</g>
</g>
<!-- Node9&#45;&gt;Node19 -->
<g id="edge22" class="edge">
<title>Node9&#45;&gt;Node19</title>
<path fill="none" stroke="midnightblue" d="M438.14,-280.44C468.34,-271.28 516.45,-256.69 549.96,-246.52"/>
<polygon fill="midnightblue" stroke="midnightblue" points="551.31,-249.77 559.86,-243.52 549.28,-243.07 551.31,-249.77"/>
</g>
<!-- Node21 -->
<g id="node21" class="node">
<title>Node21</title>
<g id="a_node21"><a xlink:href="a00131.html" target="_top" xlink:title=" ">
<polygon fill="white" stroke="black" points="503.43,-112.5 503.43,-131.5 580.43,-131.5 580.43,-112.5 503.43,-112.5"/>
<text text-anchor="middle" x="541.93" y="-119.5" font-family="Helvetica,sans-Serif" font-size="10.00">Vector3f.hpp</text>
</a>
</g>
</g>
<!-- Node9&#45;&gt;Node21 -->
<g id="edge35" class="edge">
<title>Node9&#45;&gt;Node21</title>
<path fill="none" stroke="midnightblue" d="M383.82,-280.44C357.25,-270.09 321.47,-250.68 332.93,-224 347.2,-190.78 360.66,-186.13 391.93,-168 423.32,-149.81 462.73,-138.35 493.28,-131.56"/>
<polygon fill="midnightblue" stroke="midnightblue" points="494.22,-134.94 503.28,-129.43 492.77,-128.09 494.22,-134.94"/>
</g>
<!-- Node9&#45;&gt;Node22 -->
<g id="edge27" class="edge">
<title>Node9&#45;&gt;Node22</title>
<path fill="none" stroke="midnightblue" d="M423.59,-280.32C436.85,-271.9 457.2,-258.97 472.78,-249.07"/>
<polygon fill="midnightblue" stroke="midnightblue" points="474.75,-251.97 481.31,-243.65 470.99,-246.06 474.75,-251.97"/>
</g>
<!-- Node23 -->
<g id="node23" class="node">
<title>Node23</title>
<g id="a_node23"><a xlink:href="a00176.html" target="_top" xlink:title=" ">
<polygon fill="white" stroke="black" points="401.43,-168.5 401.43,-187.5 456.43,-187.5 456.43,-168.5 401.43,-168.5"/>
<text text-anchor="middle" x="428.93" y="-175.5" font-family="Helvetica,sans-Serif" font-size="10.00">Ray.hpp</text>
</a>
</g>
</g>
<!-- Node9&#45;&gt;Node23 -->
<g id="edge34" class="edge">
<title>Node9&#45;&gt;Node23</title>
<path fill="none" stroke="midnightblue" d="M411.42,-280.37C414.49,-262.62 421.56,-221.67 425.72,-197.6"/>
<polygon fill="midnightblue" stroke="midnightblue" points="429.2,-198.04 427.45,-187.59 422.3,-196.85 429.2,-198.04"/>
</g>
<!-- Node11&#45;&gt;Node8 -->
<g id="edge15" class="edge">
<title>Node11&#45;&gt;Node8</title>
<path fill="none" stroke="midnightblue" d="M262.55,-168.44C243.72,-159.68 214.2,-145.94 192.55,-135.86"/>
<polygon fill="midnightblue" stroke="midnightblue" points="193.77,-132.56 183.23,-131.52 190.82,-138.91 193.77,-132.56"/>
</g>
<!-- Node12 -->
<g id="node12" class="node">
<title>Node12</title>
<g id="a_node12"><a xlink:title=" ">
<polygon fill="white" stroke="#bfbfbf" points="204.93,-112.5 204.93,-131.5 252.93,-131.5 252.93,-112.5 204.93,-112.5"/>
<text text-anchor="middle" x="228.93" y="-119.5" font-family="Helvetica,sans-Serif" font-size="10.00">mutex</text>
</a>
</g>
</g>
<!-- Node11&#45;&gt;Node12 -->
<g id="edge12" class="edge">
<title>Node11&#45;&gt;Node12</title>
<path fill="none" stroke="midnightblue" d="M272.35,-168.08C264.78,-160.22 253.56,-148.57 244.42,-139.08"/>
<polygon fill="midnightblue" stroke="midnightblue" points="246.82,-136.53 237.36,-131.75 241.78,-141.38 246.82,-136.53"/>
</g>
<!-- Node13 -->
<g id="node13" class="node">
<title>Node13</title>
<g id="a_node13"><a xlink:title=" ">
<polygon fill="white" stroke="#bfbfbf" points="323.43,-56.5 323.43,-75.5 380.43,-75.5 380.43,-56.5 323.43,-56.5"/>
<text text-anchor="middle" x="351.93" y="-63.5" font-family="Helvetica,sans-Serif" font-size="10.00">ostream</text>
</a>
</g>
</g>
<!-- Node11&#45;&gt;Node13 -->
<g id="edge13" class="edge">
<title>Node11&#45;&gt;Node13</title>
<path fill="none" stroke="midnightblue" d="M281.88,-168.36C283.65,-155.26 288.37,-130 299.93,-112 307.6,-100.07 319.34,-89.53 329.73,-81.65"/>
<polygon fill="midnightblue" stroke="midnightblue" points="331.94,-84.37 338.02,-75.69 327.85,-78.68 331.94,-84.37"/>
</g>
<!-- Node14 -->
<g id="node14" class="node">
<title>Node14</title>
<g id="a_node14"><a xlink:title=" ">
<polygon fill="white" stroke="#bfbfbf" points="309.43,-112.5 309.43,-131.5 446.43,-131.5 446.43,-112.5 309.43,-112.5"/>
<text text-anchor="middle" x="377.93" y="-119.5" font-family="Helvetica,sans-Serif" font-size="10.00">SFML/Graphics/Color.hpp</text>
</a>
</g>
</g>
<!-- Node11&#45;&gt;Node14 -->
<g id="edge14" class="edge">
<title>Node11&#45;&gt;Node14</title>
<path fill="none" stroke="midnightblue" d="M296.52,-168.32C311.93,-159.74 335.75,-146.49 353.64,-136.52"/>
<polygon fill="midnightblue" stroke="midnightblue" points="355.35,-139.58 362.39,-131.65 351.95,-133.46 355.35,-139.58"/>
</g>
<!-- Node15 -->
<g id="node15" class="node">
<title>Node15</title>
<g id="a_node15"><a xlink:href="a00245.html" target="_top" xlink:title=" ">
<polygon fill="white" stroke="black" points="470.43,-56.5 470.43,-75.5 545.43,-75.5 545.43,-56.5 470.43,-56.5"/>
<text text-anchor="middle" x="507.93" y="-63.5" font-family="Helvetica,sans-Serif" font-size="10.00">ISetting.hpp</text>
</a>
</g>
</g>
<!-- Node11&#45;&gt;Node15 -->
<g id="edge16" class="edge">
<title>Node11&#45;&gt;Node15</title>
<path fill="none" stroke="midnightblue" d="M312,-170.08C358.71,-159.5 442.88,-139.72 454.93,-132 473.64,-120.01 488.87,-99.23 498.13,-84.39"/>
<polygon fill="midnightblue" stroke="midnightblue" points="501.23,-86.03 503.33,-75.64 495.21,-82.45 501.23,-86.03"/>
</g>
<!-- Node16 -->
<g id="node16" class="node">
<title>Node16</title>
<g id="a_node16"><a xlink:title=" ">
<polygon fill="white" stroke="#bfbfbf" points="254.93,-0.5 254.93,-19.5 312.93,-19.5 312.93,-0.5 254.93,-0.5"/>
<text text-anchor="middle" x="283.93" y="-7.5" font-family="Helvetica,sans-Serif" font-size="10.00">memory</text>
</a>
</g>
</g>
<!-- Node15&#45;&gt;Node16 -->
<g id="edge17" class="edge">
<title>Node15&#45;&gt;Node16</title>
<path fill="none" stroke="midnightblue" d="M472.44,-56.44C431.75,-46.64 365.27,-30.61 323.1,-20.44"/>
<polygon fill="midnightblue" stroke="midnightblue" points="323.74,-16.99 313.19,-18.05 322.1,-23.8 323.74,-16.99"/>
</g>
<!-- Node17 -->
<g id="node17" class="node">
<title>Node17</title>
<g id="a_node17"><a xlink:title=" ">
<polygon fill="white" stroke="#bfbfbf" points="466.43,-0.5 466.43,-19.5 549.43,-19.5 549.43,-0.5 466.43,-0.5"/>
<text text-anchor="middle" x="507.93" y="-7.5" font-family="Helvetica,sans-Serif" font-size="10.00">libconfig.h++</text>
</a>
</g>
</g>
<!-- Node15&#45;&gt;Node17 -->
<g id="edge18" class="edge">
<title>Node15&#45;&gt;Node17</title>
<path fill="none" stroke="midnightblue" d="M507.93,-56.08C507.93,-49.01 507.93,-38.86 507.93,-29.99"/>
<polygon fill="midnightblue" stroke="midnightblue" points="511.43,-29.75 507.93,-19.75 504.43,-29.75 511.43,-29.75"/>
</g>
<!-- Node18&#45;&gt;Node3 -->
<g id="edge21" class="edge">
<title>Node18&#45;&gt;Node3</title>
<path fill="none" stroke="midnightblue" d="M157.74,-168.44C130.52,-159.2 87.03,-144.43 57.06,-134.25"/>
<polygon fill="midnightblue" stroke="midnightblue" points="58.05,-130.89 47.46,-130.99 55.8,-137.52 58.05,-130.89"/>
</g>
<!-- Node18&#45;&gt;Node16 -->
<g id="edge20" class="edge">
<title>Node18&#45;&gt;Node16</title>
<path fill="none" stroke="midnightblue" d="M168.15,-168.36C149.79,-156.45 122.25,-133.96 133.93,-112 158,-66.78 212.32,-38.18 248.55,-23.37"/>
<polygon fill="midnightblue" stroke="midnightblue" points="250.23,-26.48 258.25,-19.56 247.67,-19.96 250.23,-26.48"/>
</g>
<!-- Node20 -->
<g id="node20" class="node">
<title>Node20</title>
<g id="a_node20"><a xlink:href="a00122.html" target="_top" xlink:title=" ">
<polygon fill="white" stroke="black" points="513.43,-168.5 513.43,-187.5 654.43,-187.5 654.43,-168.5 513.43,-168.5"/>
<text text-anchor="middle" x="583.93" y="-175.5" font-family="Helvetica,sans-Serif" font-size="10.00">Transform/ITransform.hpp</text>
</a>
</g>
</g>
<!-- Node19&#45;&gt;Node20 -->
<g id="edge23" class="edge">
<title>Node19&#45;&gt;Node20</title>
<path fill="none" stroke="midnightblue" d="M587.27,-224.08C586.75,-217.01 586,-206.86 585.34,-197.99"/>
<polygon fill="midnightblue" stroke="midnightblue" points="588.81,-197.47 584.58,-187.75 581.83,-197.98 588.81,-197.47"/>
</g>
<!-- Node20&#45;&gt;Node21 -->
<g id="edge24" class="edge">
<title>Node20&#45;&gt;Node21</title>
<path fill="none" stroke="midnightblue" d="M577,-168.08C571,-160.38 562.18,-149.03 554.89,-139.65"/>
<polygon fill="midnightblue" stroke="midnightblue" points="557.64,-137.5 548.74,-131.75 552.12,-141.79 557.64,-137.5"/>
</g>
<!-- Node21&#45;&gt;Node13 -->
<g id="edge25" class="edge">
<title>Node21&#45;&gt;Node13</title>
<path fill="none" stroke="midnightblue" d="M511.83,-112.44C478.93,-103.09 426.13,-88.09 390.29,-77.9"/>
<polygon fill="midnightblue" stroke="midnightblue" points="391.23,-74.53 380.66,-75.16 389.32,-81.26 391.23,-74.53"/>
</g>
<!-- Node21&#45;&gt;Node15 -->
<g id="edge26" class="edge">
<title>Node21&#45;&gt;Node15</title>
<path fill="none" stroke="midnightblue" d="M536.32,-112.08C531.57,-104.53 524.62,-93.49 518.78,-84.23"/>
<polygon fill="midnightblue" stroke="midnightblue" points="521.73,-82.35 513.44,-75.75 515.81,-86.08 521.73,-82.35"/>
</g>
<!-- Node22&#45;&gt;Node11 -->
<g id="edge30" class="edge">
<title>Node22&#45;&gt;Node11</title>
<path fill="none" stroke="midnightblue" d="M461.03,-224.44C423.32,-214.93 362.43,-199.57 322.05,-189.37"/>
<polygon fill="midnightblue" stroke="midnightblue" points="322.8,-185.95 312.25,-186.9 321.09,-192.74 322.8,-185.95"/>
</g>
<!-- Node22&#45;&gt;Node18 -->
<g id="edge31" class="edge">
<title>Node22&#45;&gt;Node18</title>
<path fill="none" stroke="midnightblue" d="M454.15,-225.94C400.01,-216.57 304.04,-199.96 241.99,-189.22"/>
<polygon fill="midnightblue" stroke="midnightblue" points="242.4,-185.74 231.95,-187.48 241.21,-192.64 242.4,-185.74"/>
</g>
<!-- Node22&#45;&gt;Node20 -->
<g id="edge32" class="edge">
<title>Node22&#45;&gt;Node20</title>
<path fill="none" stroke="midnightblue" d="M509.23,-224.32C523.12,-215.9 544.43,-202.97 560.74,-193.07"/>
<polygon fill="midnightblue" stroke="midnightblue" points="562.94,-195.83 569.67,-187.65 559.31,-189.85 562.94,-195.83"/>
</g>
<!-- Node22&#45;&gt;Node21 -->
<g id="edge33" class="edge">
<title>Node22&#45;&gt;Node21</title>
<path fill="none" stroke="midnightblue" d="M494.63,-224.17C494.53,-211.26 495.58,-186.73 503.93,-168 508.81,-157.07 517.16,-146.73 524.8,-138.73"/>
<polygon fill="midnightblue" stroke="midnightblue" points="527.39,-141.09 532.04,-131.57 522.47,-136.11 527.39,-141.09"/>
</g>
<!-- Node22&#45;&gt;Node23 -->
<g id="edge28" class="edge">
<title>Node22&#45;&gt;Node23</title>
<path fill="none" stroke="midnightblue" d="M484.33,-224.32C474.48,-216.26 459.58,-204.08 447.72,-194.37"/>
<polygon fill="midnightblue" stroke="midnightblue" points="449.69,-191.46 439.73,-187.83 445.25,-196.88 449.69,-191.46"/>
</g>
<!-- Node23&#45;&gt;Node21 -->
<g id="edge29" class="edge">
<title>Node23&#45;&gt;Node21</title>
<path fill="none" stroke="midnightblue" d="M446.84,-168.44C465.19,-159.68 493.94,-145.94 515.03,-135.86"/>
<polygon fill="midnightblue" stroke="midnightblue" points="516.6,-138.99 524.11,-131.52 513.58,-132.67 516.6,-138.99"/>
</g>
<!-- Node24&#45;&gt;Node15 -->
<g id="edge38" class="edge">
<title>Node24&#45;&gt;Node15</title>
<path fill="none" stroke="midnightblue" d="M685.47,-224.33C688.78,-211.19 693.04,-185.88 682.93,-168 655.45,-119.37 594.45,-92.16 552.26,-78.54"/>
<polygon fill="midnightblue" stroke="midnightblue" points="553.09,-75.13 542.51,-75.52 551.02,-81.82 553.09,-75.13"/>
</g>
<!-- Node24&#45;&gt;Node20 -->
<g id="edge37" class="edge">
<title>Node24&#45;&gt;Node20</title>
<path fill="none" stroke="midnightblue" d="M667.03,-224.32C651.3,-215.74 626.99,-202.49 608.73,-192.52"/>
<polygon fill="midnightblue" stroke="midnightblue" points="610.26,-189.37 599.8,-187.65 606.9,-195.52 610.26,-189.37"/>
</g>
<!-- Node24&#45;&gt;Node21 -->
<g id="edge39" class="edge">
<title>Node24&#45;&gt;Node21</title>
<path fill="none" stroke="midnightblue" d="M682.77,-224.22C682.05,-210.48 678.69,-183.82 663.93,-168 644.85,-147.55 615.65,-136.35 590.6,-130.24"/>
<polygon fill="midnightblue" stroke="midnightblue" points="591.05,-126.76 580.52,-128 589.52,-133.59 591.05,-126.76"/>
</g>
</g>
</svg>
