<?xml version="1.0" encoding="UTF-8" standalone="no"?>
<!DOCTYPE svg PUBLIC "-//W3C//DTD SVG 1.1//EN"
 "http://www.w3.org/Graphics/SVG/1.1/DTD/svg11.dtd">
<!-- Generated by graphviz version 2.43.0 (0)
 -->
<!-- Title: /home/runner/work/Raytracer/Raytracer/PluginsExt/SpotLight/SpotLightCreator.hpp Pages: 1 -->
<svg width="632pt" height="442pt"
 viewBox="0.00 0.00 632.00 442.00" xmlns="http://www.w3.org/2000/svg" xmlns:xlink="http://www.w3.org/1999/xlink">
<g id="graph0" class="graph" transform="scale(1 1) rotate(0) translate(4 438)">
<title>/home/runner/work/Raytracer/Raytracer/PluginsExt/SpotLight/SpotLightCreator.hpp</title>
<polygon fill="white" stroke="transparent" points="-4,4 -4,-438 628,-438 628,4 -4,4"/>
<!-- Node1 -->
<g id="node1" class="node">
<title>Node1</title>
<g id="a_node1"><a xlink:title=" ">
<polygon fill="#bfbfbf" stroke="black" points="228,-392.5 228,-433.5 398,-433.5 398,-392.5 228,-392.5"/>
<text text-anchor="start" x="236" y="-421.5" font-family="Helvetica,sans-Serif" font-size="10.00">/home/runner/work/Raytracer</text>
<text text-anchor="start" x="236" y="-410.5" font-family="Helvetica,sans-Serif" font-size="10.00">/Raytracer/PluginsExt/SpotLight</text>
<text text-anchor="middle" x="313" y="-399.5" font-family="Helvetica,sans-Serif" font-size="10.00">/SpotLightCreator.hpp</text>
</a>
</g>
</g>
<!-- Node2 -->
<g id="node2" class="node">
<title>Node2</title>
<g id="a_node2"><a xlink:title=" ">
<polygon fill="white" stroke="#bfbfbf" points="28.5,-168.5 28.5,-187.5 75.5,-187.5 75.5,-168.5 28.5,-168.5"/>
<text text-anchor="middle" x="52" y="-175.5" font-family="Helvetica,sans-Serif" font-size="10.00">vector</text>
</a>
</g>
</g>
<!-- Node1&#45;&gt;Node2 -->
<g id="edge1" class="edge">
<title>Node1&#45;&gt;Node2</title>
<path fill="none" stroke="midnightblue" d="M282.39,-392.44C250.28,-371.31 199.02,-335.84 159,-300 133.92,-277.54 130.32,-269.2 108,-244 93.58,-227.72 77.39,-208.86 66.14,-195.67"/>
<polygon fill="midnightblue" stroke="midnightblue" points="68.68,-193.25 59.53,-187.9 63.35,-197.78 68.68,-193.25"/>
</g>
<!-- Node3 -->
<g id="node3" class="node">
<title>Node3</title>
<g id="a_node3"><a xlink:title=" ">
<polygon fill="white" stroke="#bfbfbf" points="126,-0.5 126,-19.5 184,-19.5 184,-0.5 126,-0.5"/>
<text text-anchor="middle" x="155" y="-7.5" font-family="Helvetica,sans-Serif" font-size="10.00">memory</text>
</a>
</g>
</g>
<!-- Node1&#45;&gt;Node3 -->
<g id="edge2" class="edge">
<title>Node1&#45;&gt;Node3</title>
<path fill="none" stroke="midnightblue" d="M227.88,-396.37C135.2,-376.86 0,-340.01 0,-291 0,-291 0,-291 0,-121 0,-64.13 70.26,-33.97 116.17,-20.34"/>
<polygon fill="midnightblue" stroke="midnightblue" points="117.18,-23.69 125.85,-17.6 115.27,-16.96 117.18,-23.69"/>
</g>
<!-- Node4 -->
<g id="node4" class="node">
<title>Node4</title>
<g id="a_node4"><a xlink:href="a00119.html" target="_top" xlink:title=" ">
<polygon fill="white" stroke="black" points="413.5,-280.5 413.5,-299.5 486.5,-299.5 486.5,-280.5 413.5,-280.5"/>
<text text-anchor="middle" x="450" y="-287.5" font-family="Helvetica,sans-Serif" font-size="10.00">ILogger.hpp</text>
</a>
</g>
</g>
<!-- Node1&#45;&gt;Node4 -->
<g id="edge3" class="edge">
<title>Node1&#45;&gt;Node4</title>
<path fill="none" stroke="midnightblue" d="M335.55,-392.35C347.83,-381.63 363.27,-368.12 377,-356 395.93,-339.29 417.52,-320.05 432.28,-306.86"/>
<polygon fill="midnightblue" stroke="midnightblue" points="434.98,-309.13 440.11,-299.86 430.32,-303.91 434.98,-309.13"/>
</g>
<!-- Node6 -->
<g id="node6" class="node">
<title>Node6</title>
<g id="a_node6"><a xlink:href="a00161.html" target="_top" xlink:title=" ">
<polygon fill="white" stroke="black" points="472,-336.5 472,-355.5 576,-355.5 576,-336.5 472,-336.5"/>
<text text-anchor="middle" x="524" y="-343.5" font-family="Helvetica,sans-Serif" font-size="10.00">IEntityCreator.hpp</text>
</a>
</g>
</g>
<!-- Node1&#45;&gt;Node6 -->
<g id="edge5" class="edge">
<title>Node1&#45;&gt;Node6</title>
<path fill="none" stroke="midnightblue" d="M376.31,-392.5C412.19,-381.44 455.86,-367.99 486.38,-358.59"/>
<polygon fill="midnightblue" stroke="midnightblue" points="487.66,-361.86 496.19,-355.57 485.6,-355.17 487.66,-361.86"/>
</g>
<!-- Node13 -->
<g id="node13" class="node">
<title>Node13</title>
<g id="a_node13"><a xlink:href="a00326.html" target="_top" xlink:title=" ">
<polygon fill="white" stroke="black" points="258,-336.5 258,-355.5 368,-355.5 368,-336.5 258,-336.5"/>
<text text-anchor="middle" x="313" y="-343.5" font-family="Helvetica,sans-Serif" font-size="10.00">SpotLightEntity.hpp</text>
</a>
</g>
</g>
<!-- Node1&#45;&gt;Node13 -->
<g id="edge16" class="edge">
<title>Node1&#45;&gt;Node13</title>
<path fill="none" stroke="midnightblue" d="M313,-392.5C313,-384.07 313,-374.24 313,-365.87"/>
<polygon fill="midnightblue" stroke="midnightblue" points="316.5,-365.65 313,-355.65 309.5,-365.65 316.5,-365.65"/>
</g>
<!-- Node5 -->
<g id="node5" class="node">
<title>Node5</title>
<g id="a_node5"><a xlink:title=" ">
<polygon fill="white" stroke="#bfbfbf" points="428,-224.5 428,-243.5 472,-243.5 472,-224.5 428,-224.5"/>
<text text-anchor="middle" x="450" y="-231.5" font-family="Helvetica,sans-Serif" font-size="10.00">string</text>
</a>
</g>
</g>
<!-- Node4&#45;&gt;Node5 -->
<g id="edge4" class="edge">
<title>Node4&#45;&gt;Node5</title>
<path fill="none" stroke="midnightblue" d="M450,-280.08C450,-273.01 450,-262.86 450,-253.99"/>
<polygon fill="midnightblue" stroke="midnightblue" points="453.5,-253.75 450,-243.75 446.5,-253.75 453.5,-253.75"/>
</g>
<!-- Node6&#45;&gt;Node3 -->
<g id="edge6" class="edge">
<title>Node6&#45;&gt;Node3</title>
<path fill="none" stroke="midnightblue" d="M540.96,-336.36C569.49,-320.49 624,-283.78 624,-235 624,-235 624,-235 624,-121 624,-76.89 589.5,-73.48 549,-56 406.39,5.57 352.67,-43.77 194.39,-19.78"/>
<polygon fill="midnightblue" stroke="midnightblue" points="194.73,-16.29 184.31,-18.18 193.63,-23.21 194.73,-16.29"/>
</g>
<!-- Node6&#45;&gt;Node4 -->
<g id="edge14" class="edge">
<title>Node6&#45;&gt;Node4</title>
<path fill="none" stroke="midnightblue" d="M512.11,-336.32C500.85,-328.11 483.71,-315.6 470.29,-305.81"/>
<polygon fill="midnightblue" stroke="midnightblue" points="472.25,-302.9 462.11,-299.83 468.12,-308.56 472.25,-302.9"/>
</g>
<!-- Node7 -->
<g id="node7" class="node">
<title>Node7</title>
<g id="a_node7"><a xlink:href="a00071.html" target="_top" xlink:title=" ">
<polygon fill="white" stroke="black" points="490,-224.5 490,-243.5 558,-243.5 558,-224.5 490,-224.5"/>
<text text-anchor="middle" x="524" y="-231.5" font-family="Helvetica,sans-Serif" font-size="10.00">IEntity.hpp</text>
</a>
</g>
</g>
<!-- Node6&#45;&gt;Node7 -->
<g id="edge7" class="edge">
<title>Node6&#45;&gt;Node7</title>
<path fill="none" stroke="midnightblue" d="M524,-336.37C524,-318.62 524,-277.67 524,-253.6"/>
<polygon fill="midnightblue" stroke="midnightblue" points="527.5,-253.59 524,-243.59 520.5,-253.59 527.5,-253.59"/>
</g>
<!-- Node11 -->
<g id="node11" class="node">
<title>Node11</title>
<g id="a_node11"><a xlink:href="a00206.html" target="_top" xlink:title=" ">
<polygon fill="white" stroke="black" points="207.5,-56.5 207.5,-75.5 282.5,-75.5 282.5,-56.5 207.5,-56.5"/>
<text text-anchor="middle" x="245" y="-63.5" font-family="Helvetica,sans-Serif" font-size="10.00">ISetting.hpp</text>
</a>
</g>
</g>
<!-- Node6&#45;&gt;Node11 -->
<g id="edge15" class="edge">
<title>Node6&#45;&gt;Node11</title>
<path fill="none" stroke="midnightblue" d="M531.91,-336.34C549.65,-315.83 589.34,-263.1 567,-224 509.98,-124.2 367.48,-86.67 292.63,-73.52"/>
<polygon fill="midnightblue" stroke="midnightblue" points="292.97,-70.03 282.53,-71.82 291.81,-76.93 292.97,-70.03"/>
</g>
<!-- Node8 -->
<g id="node8" class="node">
<title>Node8</title>
<g id="a_node8"><a xlink:href="a00083.html" target="_top" xlink:title=" ">
<polygon fill="white" stroke="black" points="259.5,-168.5 259.5,-187.5 400.5,-187.5 400.5,-168.5 259.5,-168.5"/>
<text text-anchor="middle" x="330" y="-175.5" font-family="Helvetica,sans-Serif" font-size="10.00">Transform/ITransform.hpp</text>
</a>
</g>
</g>
<!-- Node7&#45;&gt;Node8 -->
<g id="edge8" class="edge">
<title>Node7&#45;&gt;Node8</title>
<path fill="none" stroke="midnightblue" d="M493.26,-224.44C460.06,-215.2 407.01,-200.44 370.44,-190.26"/>
<polygon fill="midnightblue" stroke="midnightblue" points="371.17,-186.83 360.6,-187.52 369.29,-193.57 371.17,-186.83"/>
</g>
<!-- Node9 -->
<g id="node9" class="node">
<title>Node9</title>
<g id="a_node9"><a xlink:href="a00092.html" target="_top" xlink:title=" ">
<polygon fill="white" stroke="black" points="291.5,-112.5 291.5,-131.5 368.5,-131.5 368.5,-112.5 291.5,-112.5"/>
<text text-anchor="middle" x="330" y="-119.5" font-family="Helvetica,sans-Serif" font-size="10.00">Vector3f.hpp</text>
</a>
</g>
</g>
<!-- Node8&#45;&gt;Node9 -->
<g id="edge9" class="edge">
<title>Node8&#45;&gt;Node9</title>
<path fill="none" stroke="midnightblue" d="M330,-168.08C330,-161.01 330,-150.86 330,-141.99"/>
<polygon fill="midnightblue" stroke="midnightblue" points="333.5,-141.75 330,-131.75 326.5,-141.75 333.5,-141.75"/>
</g>
<!-- Node10 -->
<g id="node10" class="node">
<title>Node10</title>
<g id="a_node10"><a xlink:title=" ">
<polygon fill="white" stroke="#bfbfbf" points="334.5,-56.5 334.5,-75.5 391.5,-75.5 391.5,-56.5 334.5,-56.5"/>
<text text-anchor="middle" x="363" y="-63.5" font-family="Helvetica,sans-Serif" font-size="10.00">ostream</text>
</a>
</g>
</g>
<!-- Node9&#45;&gt;Node10 -->
<g id="edge10" class="edge">
<title>Node9&#45;&gt;Node10</title>
<path fill="none" stroke="midnightblue" d="M335.45,-112.08C340.01,-104.61 346.67,-93.72 352.29,-84.52"/>
<polygon fill="midnightblue" stroke="midnightblue" points="355.42,-86.11 357.65,-75.75 349.45,-82.46 355.42,-86.11"/>
</g>
<!-- Node9&#45;&gt;Node11 -->
<g id="edge11" class="edge">
<title>Node9&#45;&gt;Node11</title>
<path fill="none" stroke="midnightblue" d="M316.34,-112.32C303.08,-103.9 282.73,-90.97 267.15,-81.07"/>
<polygon fill="midnightblue" stroke="midnightblue" points="268.94,-78.06 258.62,-75.65 265.19,-83.97 268.94,-78.06"/>
</g>
<!-- Node11&#45;&gt;Node3 -->
<g id="edge12" class="edge">
<title>Node11&#45;&gt;Node3</title>
<path fill="none" stroke="midnightblue" d="M230.54,-56.32C216.5,-47.9 194.95,-34.97 178.46,-25.07"/>
<polygon fill="midnightblue" stroke="midnightblue" points="179.8,-21.8 169.42,-19.65 176.2,-27.8 179.8,-21.8"/>
</g>
<!-- Node12 -->
<g id="node12" class="node">
<title>Node12</title>
<g id="a_node12"><a xlink:title=" ">
<polygon fill="white" stroke="#bfbfbf" points="203.5,-0.5 203.5,-19.5 286.5,-19.5 286.5,-0.5 203.5,-0.5"/>
<text text-anchor="middle" x="245" y="-7.5" font-family="Helvetica,sans-Serif" font-size="10.00">libconfig.h++</text>
</a>
</g>
</g>
<!-- Node11&#45;&gt;Node12 -->
<g id="edge13" class="edge">
<title>Node11&#45;&gt;Node12</title>
<path fill="none" stroke="midnightblue" d="M245,-56.08C245,-49.01 245,-38.86 245,-29.99"/>
<polygon fill="midnightblue" stroke="midnightblue" points="248.5,-29.75 245,-19.75 241.5,-29.75 248.5,-29.75"/>
</g>
<!-- Node13&#45;&gt;Node4 -->
<g id="edge30" class="edge">
<title>Node13&#45;&gt;Node4</title>
<path fill="none" stroke="midnightblue" d="M334.71,-336.44C357.35,-327.52 393.07,-313.44 418.75,-303.32"/>
<polygon fill="midnightblue" stroke="midnightblue" points="420.37,-306.44 428.39,-299.52 417.81,-299.93 420.37,-306.44"/>
</g>
<!-- Node14 -->
<g id="node14" class="node">
<title>Node14</title>
<g id="a_node14"><a xlink:href="a00074.html" target="_top" xlink:title=" ">
<polygon fill="white" stroke="black" points="329.5,-280.5 329.5,-299.5 394.5,-299.5 394.5,-280.5 329.5,-280.5"/>
<text text-anchor="middle" x="362" y="-287.5" font-family="Helvetica,sans-Serif" font-size="10.00">ILight.hpp</text>
</a>
</g>
</g>
<!-- Node13&#45;&gt;Node14 -->
<g id="edge17" class="edge">
<title>Node13&#45;&gt;Node14</title>
<path fill="none" stroke="midnightblue" d="M321.09,-336.08C328.16,-328.3 338.59,-316.8 347.15,-307.37"/>
<polygon fill="midnightblue" stroke="midnightblue" points="349.93,-309.51 354.06,-299.75 344.75,-304.8 349.93,-309.51"/>
</g>
<!-- Node18 -->
<g id="node18" class="node">
<title>Node18</title>
<g id="a_node18"><a xlink:href="a00197.html" target="_top" xlink:title=" ">
<polygon fill="white" stroke="black" points="55.5,-112.5 55.5,-131.5 126.5,-131.5 126.5,-112.5 55.5,-112.5"/>
<text text-anchor="middle" x="91" y="-119.5" font-family="Helvetica,sans-Serif" font-size="10.00">IConfig.hpp</text>
</a>
</g>
</g>
<!-- Node13&#45;&gt;Node18 -->
<g id="edge27" class="edge">
<title>Node13&#45;&gt;Node18</title>
<path fill="none" stroke="midnightblue" d="M280.17,-336.45C237.49,-323.61 163.62,-295.23 123,-244 99.12,-213.88 92.96,-167.61 91.44,-141.89"/>
<polygon fill="midnightblue" stroke="midnightblue" points="94.92,-141.5 91.02,-131.65 87.93,-141.79 94.92,-141.5"/>
</g>
<!-- Node19 -->
<g id="node19" class="node">
<title>Node19</title>
<g id="a_node19"><a xlink:href="a00086.html" target="_top" xlink:title=" ">
<polygon fill="white" stroke="black" points="248,-224.5 248,-243.5 334,-243.5 334,-224.5 248,-224.5"/>
<text text-anchor="middle" x="291" y="-231.5" font-family="Helvetica,sans-Serif" font-size="10.00">Transform.hpp</text>
</a>
</g>
</g>
<!-- Node13&#45;&gt;Node19 -->
<g id="edge31" class="edge">
<title>Node13&#45;&gt;Node19</title>
<path fill="none" stroke="midnightblue" d="M311.27,-336.37C307.72,-318.62 299.53,-277.67 294.72,-253.6"/>
<polygon fill="midnightblue" stroke="midnightblue" points="298.11,-252.71 292.72,-243.59 291.25,-254.08 298.11,-252.71"/>
</g>
<!-- Node14&#45;&gt;Node7 -->
<g id="edge26" class="edge">
<title>Node14&#45;&gt;Node7</title>
<path fill="none" stroke="midnightblue" d="M387.67,-280.44C414.92,-271.36 458.18,-256.94 488.65,-246.78"/>
<polygon fill="midnightblue" stroke="midnightblue" points="490.07,-250 498.45,-243.52 487.86,-243.36 490.07,-250"/>
</g>
<!-- Node14&#45;&gt;Node9 -->
<g id="edge25" class="edge">
<title>Node14&#45;&gt;Node9</title>
<path fill="none" stroke="midnightblue" d="M364.54,-280.34C368.41,-267.65 376.37,-243.39 386,-224 394.45,-207 403.68,-206.22 409,-188 411.49,-179.47 413.47,-175.69 409,-168 400.26,-152.97 384.42,-142.54 369.21,-135.54"/>
<polygon fill="midnightblue" stroke="midnightblue" points="370.46,-132.27 359.88,-131.61 367.74,-138.72 370.46,-132.27"/>
</g>
<!-- Node15 -->
<g id="node15" class="node">
<title>Node15</title>
<g id="a_node15"><a xlink:href="a00122.html" target="_top" xlink:title=" ">
<polygon fill="white" stroke="black" points="485,-112.5 485,-131.5 547,-131.5 547,-112.5 485,-112.5"/>
<text text-anchor="middle" x="516" y="-119.5" font-family="Helvetica,sans-Serif" font-size="10.00">Color.hpp</text>
</a>
</g>
</g>
<!-- Node14&#45;&gt;Node15 -->
<g id="edge18" class="edge">
<title>Node14&#45;&gt;Node15</title>
<path fill="none" stroke="midnightblue" d="M369.26,-280.48C379.97,-267.95 400.73,-243.9 419,-224 447.17,-193.3 481.1,-158.44 500.45,-138.75"/>
<polygon fill="midnightblue" stroke="midnightblue" points="503.04,-141.1 507.56,-131.52 498.05,-136.19 503.04,-141.1"/>
</g>
<!-- Node17 -->
<g id="node17" class="node">
<title>Node17</title>
<g id="a_node17"><a xlink:href="a00200.html" target="_top" xlink:title=" ">
<polygon fill="white" stroke="black" points="132,-224.5 132,-243.5 230,-243.5 230,-224.5 132,-224.5"/>
<text text-anchor="middle" x="181" y="-231.5" font-family="Helvetica,sans-Serif" font-size="10.00">IDisplayable.hpp</text>
</a>
</g>
</g>
<!-- Node14&#45;&gt;Node17 -->
<g id="edge22" class="edge">
<title>Node14&#45;&gt;Node17</title>
<path fill="none" stroke="midnightblue" d="M333.32,-280.44C302.47,-271.24 253.27,-256.56 219.17,-246.39"/>
<polygon fill="midnightblue" stroke="midnightblue" points="220.13,-243.02 209.55,-243.52 218.13,-249.73 220.13,-243.02"/>
</g>
<!-- Node15&#45;&gt;Node10 -->
<g id="edge20" class="edge">
<title>Node15&#45;&gt;Node10</title>
<path fill="none" stroke="midnightblue" d="M491.76,-112.44C466.13,-103.4 425.51,-89.06 396.76,-78.92"/>
<polygon fill="midnightblue" stroke="midnightblue" points="397.72,-75.54 387.13,-75.52 395.39,-82.15 397.72,-75.54"/>
</g>
<!-- Node15&#45;&gt;Node11 -->
<g id="edge21" class="edge">
<title>Node15&#45;&gt;Node11</title>
<path fill="none" stroke="midnightblue" d="M484.53,-114.7C479.99,-113.79 475.38,-112.87 471,-112 409.36,-99.7 338.25,-85.55 292.52,-76.45"/>
<polygon fill="midnightblue" stroke="midnightblue" points="293.08,-72.99 282.59,-74.47 291.72,-79.86 293.08,-72.99"/>
</g>
<!-- Node16 -->
<g id="node16" class="node">
<title>Node16</title>
<g id="a_node16"><a xlink:title=" ">
<polygon fill="white" stroke="#bfbfbf" points="492,-56.5 492,-75.5 540,-75.5 540,-56.5 492,-56.5"/>
<text text-anchor="middle" x="516" y="-63.5" font-family="Helvetica,sans-Serif" font-size="10.00">mutex</text>
</a>
</g>
</g>
<!-- Node15&#45;&gt;Node16 -->
<g id="edge19" class="edge">
<title>Node15&#45;&gt;Node16</title>
<path fill="none" stroke="midnightblue" d="M516,-112.08C516,-105.01 516,-94.86 516,-85.99"/>
<polygon fill="midnightblue" stroke="midnightblue" points="519.5,-85.75 516,-75.75 512.5,-85.75 519.5,-85.75"/>
</g>
<!-- Node17&#45;&gt;Node2 -->
<g id="edge24" class="edge">
<title>Node17&#45;&gt;Node2</title>
<path fill="none" stroke="midnightblue" d="M160.56,-224.44C139.33,-215.56 105.9,-201.56 81.75,-191.45"/>
<polygon fill="midnightblue" stroke="midnightblue" points="82.92,-188.15 72.34,-187.52 80.22,-194.61 82.92,-188.15"/>
</g>
<!-- Node17&#45;&gt;Node3 -->
<g id="edge23" class="edge">
<title>Node17&#45;&gt;Node3</title>
<path fill="none" stroke="midnightblue" d="M179.98,-224.3C176.16,-191.63 162.6,-75.87 157.22,-29.96"/>
<polygon fill="midnightblue" stroke="midnightblue" points="160.68,-29.41 156.04,-19.88 153.73,-30.22 160.68,-29.41"/>
</g>
<!-- Node18&#45;&gt;Node3 -->
<g id="edge28" class="edge">
<title>Node18&#45;&gt;Node3</title>
<path fill="none" stroke="midnightblue" d="M96.02,-112.37C106.54,-94.3 131.04,-52.18 144.93,-28.31"/>
<polygon fill="midnightblue" stroke="midnightblue" points="148,-30 150,-19.59 141.95,-26.47 148,-30"/>
</g>
<!-- Node18&#45;&gt;Node11 -->
<g id="edge29" class="edge">
<title>Node18&#45;&gt;Node11</title>
<path fill="none" stroke="midnightblue" d="M115.4,-112.44C141.2,-103.4 182.08,-89.06 211.02,-78.92"/>
<polygon fill="midnightblue" stroke="midnightblue" points="212.43,-82.13 220.71,-75.52 210.12,-75.52 212.43,-82.13"/>
</g>
<!-- Node19&#45;&gt;Node8 -->
<g id="edge32" class="edge">
<title>Node19&#45;&gt;Node8</title>
<path fill="none" stroke="midnightblue" d="M297.44,-224.08C302.95,-216.46 311.03,-205.26 317.76,-195.94"/>
<polygon fill="midnightblue" stroke="midnightblue" points="320.66,-197.91 323.68,-187.75 314.99,-193.81 320.66,-197.91"/>
</g>
<!-- Node19&#45;&gt;Node9 -->
<g id="edge34" class="edge">
<title>Node19&#45;&gt;Node9</title>
<path fill="none" stroke="midnightblue" d="M278.83,-224.49C262.79,-212.18 237.94,-188.62 250,-168 258.86,-152.85 274.91,-142.41 290.31,-135.42"/>
<polygon fill="midnightblue" stroke="midnightblue" points="291.85,-138.57 299.75,-131.51 289.17,-132.11 291.85,-138.57"/>
</g>
<!-- Node19&#45;&gt;Node11 -->
<g id="edge33" class="edge">
<title>Node19&#45;&gt;Node11</title>
<path fill="none" stroke="midnightblue" d="M276.63,-224.33C265.12,-216.47 249.81,-203.72 243,-188 228.37,-154.23 234.7,-110.02 240.15,-85.47"/>
<polygon fill="midnightblue" stroke="midnightblue" points="243.57,-86.22 242.52,-75.68 236.77,-84.58 243.57,-86.22"/>
</g>
</g>
</svg>
