<?xml version="1.0" encoding="UTF-8" standalone="no"?>
<!DOCTYPE svg PUBLIC "-//W3C//DTD SVG 1.1//EN"
 "http://www.w3.org/Graphics/SVG/1.1/DTD/svg11.dtd">
<!-- Generated by graphviz version 2.43.0 (0)
 -->
<!-- Title: /home/runner/work/Raytracer/Raytracer/PluginsExt/PointLight/PointLightCreator.hpp Pages: 1 -->
<svg width="899pt" height="442pt"
 viewBox="0.00 0.00 899.41 442.00" xmlns="http://www.w3.org/2000/svg" xmlns:xlink="http://www.w3.org/1999/xlink">
<g id="graph0" class="graph" transform="scale(1 1) rotate(0) translate(4 438)">
<title>/home/runner/work/Raytracer/Raytracer/PluginsExt/PointLight/PointLightCreator.hpp</title>
<polygon fill="white" stroke="transparent" points="-4,4 -4,-438 895.41,-438 895.41,4 -4,4"/>
<!-- Node1 -->
<g id="node1" class="node">
<title>Node1</title>
<g id="a_node1"><a xlink:title=" ">
<polygon fill="#bfbfbf" stroke="black" points="598.91,-392.5 598.91,-433.5 771.91,-433.5 771.91,-392.5 598.91,-392.5"/>
<text text-anchor="start" x="606.91" y="-421.5" font-family="Helvetica,sans-Serif" font-size="10.00">/home/runner/work/Raytracer</text>
<text text-anchor="start" x="606.91" y="-410.5" font-family="Helvetica,sans-Serif" font-size="10.00">/Raytracer/PluginsExt/PointLight</text>
<text text-anchor="middle" x="685.41" y="-399.5" font-family="Helvetica,sans-Serif" font-size="10.00">/PointLightCreator.hpp</text>
</a>
</g>
</g>
<!-- Node2 -->
<g id="node2" class="node">
<title>Node2</title>
<g id="a_node2"><a xlink:title=" ">
<polygon fill="white" stroke="#bfbfbf" points="815.91,-168.5 815.91,-187.5 862.91,-187.5 862.91,-168.5 815.91,-168.5"/>
<text text-anchor="middle" x="839.41" y="-175.5" font-family="Helvetica,sans-Serif" font-size="10.00">vector</text>
</a>
</g>
</g>
<!-- Node1&#45;&gt;Node2 -->
<g id="edge1" class="edge">
<title>Node1&#45;&gt;Node2</title>
<path fill="none" stroke="midnightblue" d="M709.44,-392.36C742.75,-363.62 802.07,-306.66 830.41,-244 836.95,-229.55 839.04,-211.59 839.58,-198.22"/>
<polygon fill="midnightblue" stroke="midnightblue" points="843.09,-197.9 839.74,-187.84 836.09,-197.79 843.09,-197.9"/>
</g>
<!-- Node3 -->
<g id="node3" class="node">
<title>Node3</title>
<g id="a_node3"><a xlink:title=" ">
<polygon fill="white" stroke="#bfbfbf" points="600.41,-0.5 600.41,-19.5 658.41,-19.5 658.41,-0.5 600.41,-0.5"/>
<text text-anchor="middle" x="629.41" y="-7.5" font-family="Helvetica,sans-Serif" font-size="10.00">memory</text>
</a>
</g>
</g>
<!-- Node1&#45;&gt;Node3 -->
<g id="edge2" class="edge">
<title>Node1&#45;&gt;Node3</title>
<path fill="none" stroke="midnightblue" d="M772.18,-396.26C828.47,-380.47 891.41,-349.69 891.41,-291 891.41,-291 891.41,-291 891.41,-121 891.41,-25.55 741.75,-11.55 668.65,-10.4"/>
<polygon fill="midnightblue" stroke="midnightblue" points="668.48,-6.9 658.45,-10.32 668.42,-13.9 668.48,-6.9"/>
</g>
<!-- Node4 -->
<g id="node4" class="node">
<title>Node4</title>
<g id="a_node4"><a xlink:href="a00158.html" target="_top" xlink:title=" ">
<polygon fill="white" stroke="black" points="631.91,-224.5 631.91,-243.5 704.91,-243.5 704.91,-224.5 631.91,-224.5"/>
<text text-anchor="middle" x="668.41" y="-231.5" font-family="Helvetica,sans-Serif" font-size="10.00">ILogger.hpp</text>
</a>
</g>
</g>
<!-- Node1&#45;&gt;Node4 -->
<g id="edge3" class="edge">
<title>Node1&#45;&gt;Node4</title>
<path fill="none" stroke="midnightblue" d="M683.53,-392.38C680.23,-358.08 673.47,-287.66 670.22,-253.88"/>
<polygon fill="midnightblue" stroke="midnightblue" points="673.67,-253.2 669.23,-243.58 666.71,-253.87 673.67,-253.2"/>
</g>
<!-- Node7 -->
<g id="node7" class="node">
<title>Node7</title>
<g id="a_node7"><a xlink:href="a00200.html" target="_top" xlink:title=" ">
<polygon fill="white" stroke="black" points="143.41,-280.5 143.41,-299.5 247.41,-299.5 247.41,-280.5 143.41,-280.5"/>
<text text-anchor="middle" x="195.41" y="-287.5" font-family="Helvetica,sans-Serif" font-size="10.00">IEntityCreator.hpp</text>
</a>
</g>
</g>
<!-- Node1&#45;&gt;Node7 -->
<g id="edge6" class="edge">
<title>Node1&#45;&gt;Node7</title>
<path fill="none" stroke="midnightblue" d="M606.41,-392.49C502.34,-366.79 322.82,-322.46 239.84,-301.97"/>
<polygon fill="midnightblue" stroke="midnightblue" points="240.52,-298.53 229.97,-299.53 238.84,-305.33 240.52,-298.53"/>
</g>
<!-- Node14 -->
<g id="node14" class="node">
<title>Node14</title>
<g id="a_node14"><a xlink:href="a00371.html" target="_top" xlink:title=" ">
<polygon fill="white" stroke="black" points="543.91,-336.5 543.91,-355.5 656.91,-355.5 656.91,-336.5 543.91,-336.5"/>
<text text-anchor="middle" x="600.41" y="-343.5" font-family="Helvetica,sans-Serif" font-size="10.00">PointLightEntity.hpp</text>
</a>
</g>
</g>
<!-- Node1&#45;&gt;Node14 -->
<g id="edge17" class="edge">
<title>Node1&#45;&gt;Node14</title>
<path fill="none" stroke="midnightblue" d="M659.91,-392.5C647,-382.63 631.59,-370.84 619.69,-361.74"/>
<polygon fill="midnightblue" stroke="midnightblue" points="621.79,-358.95 611.72,-355.65 617.54,-364.51 621.79,-358.95"/>
</g>
<!-- Node5 -->
<g id="node5" class="node">
<title>Node5</title>
<g id="a_node5"><a xlink:title=" ">
<polygon fill="white" stroke="#bfbfbf" points="693.91,-168.5 693.91,-187.5 758.91,-187.5 758.91,-168.5 693.91,-168.5"/>
<text text-anchor="middle" x="726.41" y="-175.5" font-family="Helvetica,sans-Serif" font-size="10.00">functional</text>
</a>
</g>
</g>
<!-- Node4&#45;&gt;Node5 -->
<g id="edge4" class="edge">
<title>Node4&#45;&gt;Node5</title>
<path fill="none" stroke="midnightblue" d="M677.73,-224.32C686.3,-216.34 699.22,-204.31 709.6,-194.65"/>
<polygon fill="midnightblue" stroke="midnightblue" points="711.99,-197.21 716.92,-187.83 707.22,-192.09 711.99,-197.21"/>
</g>
<!-- Node6 -->
<g id="node6" class="node">
<title>Node6</title>
<g id="a_node6"><a xlink:title=" ">
<polygon fill="white" stroke="#bfbfbf" points="631.41,-168.5 631.41,-187.5 675.41,-187.5 675.41,-168.5 631.41,-168.5"/>
<text text-anchor="middle" x="653.41" y="-175.5" font-family="Helvetica,sans-Serif" font-size="10.00">string</text>
</a>
</g>
</g>
<!-- Node4&#45;&gt;Node6 -->
<g id="edge5" class="edge">
<title>Node4&#45;&gt;Node6</title>
<path fill="none" stroke="midnightblue" d="M665.93,-224.08C663.92,-216.85 661.02,-206.41 658.52,-197.4"/>
<polygon fill="midnightblue" stroke="midnightblue" points="661.89,-196.45 655.84,-187.75 655.15,-198.32 661.89,-196.45"/>
</g>
<!-- Node7&#45;&gt;Node3 -->
<g id="edge7" class="edge">
<title>Node7&#45;&gt;Node3</title>
<path fill="none" stroke="midnightblue" d="M143.27,-281.93C99.68,-274.83 42.43,-262.29 28.41,-244 -7.82,-196.72 -31.74,-228.64 106.41,-112 151.07,-74.29 169.16,-71.89 225.41,-56 355.52,-19.24 517.15,-12.3 590.25,-11.13"/>
<polygon fill="midnightblue" stroke="midnightblue" points="590.43,-14.63 600.38,-11 590.34,-7.63 590.43,-14.63"/>
</g>
<!-- Node7&#45;&gt;Node4 -->
<g id="edge15" class="edge">
<title>Node7&#45;&gt;Node4</title>
<path fill="none" stroke="midnightblue" d="M247.84,-283.01C340.85,-272.4 533.26,-250.43 621.88,-240.31"/>
<polygon fill="midnightblue" stroke="midnightblue" points="622.36,-243.78 631.9,-239.17 621.57,-236.82 622.36,-243.78"/>
</g>
<!-- Node8 -->
<g id="node8" class="node">
<title>Node8</title>
<g id="a_node8"><a xlink:href="a00110.html" target="_top" xlink:title=" ">
<polygon fill="white" stroke="black" points="161.41,-224.5 161.41,-243.5 229.41,-243.5 229.41,-224.5 161.41,-224.5"/>
<text text-anchor="middle" x="195.41" y="-231.5" font-family="Helvetica,sans-Serif" font-size="10.00">IEntity.hpp</text>
</a>
</g>
</g>
<!-- Node7&#45;&gt;Node8 -->
<g id="edge8" class="edge">
<title>Node7&#45;&gt;Node8</title>
<path fill="none" stroke="midnightblue" d="M195.41,-280.08C195.41,-273.01 195.41,-262.86 195.41,-253.99"/>
<polygon fill="midnightblue" stroke="midnightblue" points="198.91,-253.75 195.41,-243.75 191.91,-253.75 198.91,-253.75"/>
</g>
<!-- Node12 -->
<g id="node12" class="node">
<title>Node12</title>
<g id="a_node12"><a xlink:href="a00245.html" target="_top" xlink:title=" ">
<polygon fill="white" stroke="black" points="234.91,-56.5 234.91,-75.5 309.91,-75.5 309.91,-56.5 234.91,-56.5"/>
<text text-anchor="middle" x="272.41" y="-63.5" font-family="Helvetica,sans-Serif" font-size="10.00">ISetting.hpp</text>
</a>
</g>
</g>
<!-- Node7&#45;&gt;Node12 -->
<g id="edge16" class="edge">
<title>Node7&#45;&gt;Node12</title>
<path fill="none" stroke="midnightblue" d="M143.25,-288.87C88.66,-286.13 12.85,-273.57 28.41,-224 46.58,-166.12 56.82,-146.93 106.41,-112 141.41,-87.35 189.26,-76.2 224.6,-71.15"/>
<polygon fill="midnightblue" stroke="midnightblue" points="225.21,-74.6 234.67,-69.83 224.3,-67.66 225.21,-74.6"/>
</g>
<!-- Node9 -->
<g id="node9" class="node">
<title>Node9</title>
<g id="a_node9"><a xlink:href="a00122.html" target="_top" xlink:title=" ">
<polygon fill="white" stroke="black" points="97.91,-168.5 97.91,-187.5 238.91,-187.5 238.91,-168.5 97.91,-168.5"/>
<text text-anchor="middle" x="168.41" y="-175.5" font-family="Helvetica,sans-Serif" font-size="10.00">Transform/ITransform.hpp</text>
</a>
</g>
</g>
<!-- Node8&#45;&gt;Node9 -->
<g id="edge9" class="edge">
<title>Node8&#45;&gt;Node9</title>
<path fill="none" stroke="midnightblue" d="M190.95,-224.08C187.26,-216.69 181.89,-205.95 177.32,-196.81"/>
<polygon fill="midnightblue" stroke="midnightblue" points="180.39,-195.13 172.79,-187.75 174.13,-198.26 180.39,-195.13"/>
</g>
<!-- Node10 -->
<g id="node10" class="node">
<title>Node10</title>
<g id="a_node10"><a xlink:href="a00131.html" target="_top" xlink:title=" ">
<polygon fill="white" stroke="black" points="199.91,-112.5 199.91,-131.5 276.91,-131.5 276.91,-112.5 199.91,-112.5"/>
<text text-anchor="middle" x="238.41" y="-119.5" font-family="Helvetica,sans-Serif" font-size="10.00">Vector3f.hpp</text>
</a>
</g>
</g>
<!-- Node9&#45;&gt;Node10 -->
<g id="edge10" class="edge">
<title>Node9&#45;&gt;Node10</title>
<path fill="none" stroke="midnightblue" d="M179.66,-168.32C190.21,-160.18 206.21,-147.84 218.85,-138.09"/>
<polygon fill="midnightblue" stroke="midnightblue" points="221.18,-140.71 226.96,-131.83 216.9,-135.17 221.18,-140.71"/>
</g>
<!-- Node11 -->
<g id="node11" class="node">
<title>Node11</title>
<g id="a_node11"><a xlink:title=" ">
<polygon fill="white" stroke="#bfbfbf" points="432.91,-56.5 432.91,-75.5 489.91,-75.5 489.91,-56.5 432.91,-56.5"/>
<text text-anchor="middle" x="461.41" y="-63.5" font-family="Helvetica,sans-Serif" font-size="10.00">ostream</text>
</a>
</g>
</g>
<!-- Node10&#45;&gt;Node11 -->
<g id="edge11" class="edge">
<title>Node10&#45;&gt;Node11</title>
<path fill="none" stroke="midnightblue" d="M273.75,-112.44C314.36,-102.61 380.81,-86.52 422.77,-76.36"/>
<polygon fill="midnightblue" stroke="midnightblue" points="423.73,-79.73 432.62,-73.97 422.08,-72.92 423.73,-79.73"/>
</g>
<!-- Node10&#45;&gt;Node12 -->
<g id="edge12" class="edge">
<title>Node10&#45;&gt;Node12</title>
<path fill="none" stroke="midnightblue" d="M244.02,-112.08C248.78,-104.53 255.73,-93.49 261.56,-84.23"/>
<polygon fill="midnightblue" stroke="midnightblue" points="264.53,-86.08 266.9,-75.75 258.61,-82.35 264.53,-86.08"/>
</g>
<!-- Node12&#45;&gt;Node3 -->
<g id="edge13" class="edge">
<title>Node12&#45;&gt;Node3</title>
<path fill="none" stroke="midnightblue" d="M309.94,-59.32C377.88,-49.05 520.63,-27.45 589.96,-16.97"/>
<polygon fill="midnightblue" stroke="midnightblue" points="590.67,-20.4 600.03,-15.44 589.62,-13.48 590.67,-20.4"/>
</g>
<!-- Node13 -->
<g id="node13" class="node">
<title>Node13</title>
<g id="a_node13"><a xlink:title=" ">
<polygon fill="white" stroke="#bfbfbf" points="230.91,-0.5 230.91,-19.5 313.91,-19.5 313.91,-0.5 230.91,-0.5"/>
<text text-anchor="middle" x="272.41" y="-7.5" font-family="Helvetica,sans-Serif" font-size="10.00">libconfig.h++</text>
</a>
</g>
</g>
<!-- Node12&#45;&gt;Node13 -->
<g id="edge14" class="edge">
<title>Node12&#45;&gt;Node13</title>
<path fill="none" stroke="midnightblue" d="M272.41,-56.08C272.41,-49.01 272.41,-38.86 272.41,-29.99"/>
<polygon fill="midnightblue" stroke="midnightblue" points="275.91,-29.75 272.41,-19.75 268.91,-29.75 275.91,-29.75"/>
</g>
<!-- Node14&#45;&gt;Node4 -->
<g id="edge33" class="edge">
<title>Node14&#45;&gt;Node4</title>
<path fill="none" stroke="midnightblue" d="M605.75,-336.37C616.92,-318.3 642.96,-276.18 657.71,-252.31"/>
<polygon fill="midnightblue" stroke="midnightblue" points="660.82,-253.94 663.1,-243.59 654.86,-250.26 660.82,-253.94"/>
</g>
<!-- Node15 -->
<g id="node15" class="node">
<title>Node15</title>
<g id="a_node15"><a xlink:href="a00113.html" target="_top" xlink:title=" ">
<polygon fill="white" stroke="black" points="480.91,-280.5 480.91,-299.5 545.91,-299.5 545.91,-280.5 480.91,-280.5"/>
<text text-anchor="middle" x="513.41" y="-287.5" font-family="Helvetica,sans-Serif" font-size="10.00">ILight.hpp</text>
</a>
</g>
</g>
<!-- Node14&#45;&gt;Node15 -->
<g id="edge18" class="edge">
<title>Node14&#45;&gt;Node15</title>
<path fill="none" stroke="midnightblue" d="M586.43,-336.32C572.86,-327.9 552.03,-314.97 536.09,-305.07"/>
<polygon fill="midnightblue" stroke="midnightblue" points="537.7,-301.95 527.35,-299.65 534,-307.9 537.7,-301.95"/>
</g>
<!-- Node20 -->
<g id="node20" class="node">
<title>Node20</title>
<g id="a_node20"><a xlink:href="a00236.html" target="_top" xlink:title=" ">
<polygon fill="white" stroke="black" points="593.91,-112.5 593.91,-131.5 664.91,-131.5 664.91,-112.5 593.91,-112.5"/>
<text text-anchor="middle" x="629.41" y="-119.5" font-family="Helvetica,sans-Serif" font-size="10.00">IConfig.hpp</text>
</a>
</g>
</g>
<!-- Node14&#45;&gt;Node20 -->
<g id="edge30" class="edge">
<title>Node14&#45;&gt;Node20</title>
<path fill="none" stroke="midnightblue" d="M601.41,-336.15C604.37,-310.25 613.4,-232.4 622.41,-168 623.63,-159.28 625.11,-149.63 626.4,-141.51"/>
<polygon fill="midnightblue" stroke="midnightblue" points="629.86,-142.04 627.99,-131.62 622.95,-140.93 629.86,-142.04"/>
</g>
<!-- Node21 -->
<g id="node21" class="node">
<title>Node21</title>
<g id="a_node21"><a xlink:href="a00125.html" target="_top" xlink:title=" ">
<polygon fill="white" stroke="black" points="37.41,-224.5 37.41,-243.5 123.41,-243.5 123.41,-224.5 37.41,-224.5"/>
<text text-anchor="middle" x="80.41" y="-231.5" font-family="Helvetica,sans-Serif" font-size="10.00">Transform.hpp</text>
</a>
</g>
</g>
<!-- Node14&#45;&gt;Node21 -->
<g id="edge34" class="edge">
<title>Node14&#45;&gt;Node21</title>
<path fill="none" stroke="midnightblue" d="M560.04,-336.46C466.16,-316.6 233.39,-267.36 130.58,-245.61"/>
<polygon fill="midnightblue" stroke="midnightblue" points="131.26,-242.18 120.76,-243.53 129.81,-249.03 131.26,-242.18"/>
</g>
<!-- Node15&#45;&gt;Node8 -->
<g id="edge29" class="edge">
<title>Node15&#45;&gt;Node8</title>
<path fill="none" stroke="midnightblue" d="M480.87,-283.47C423.47,-273.73 304.2,-253.47 239.48,-242.48"/>
<polygon fill="midnightblue" stroke="midnightblue" points="240.02,-239.03 229.58,-240.8 238.85,-245.93 240.02,-239.03"/>
</g>
<!-- Node15&#45;&gt;Node10 -->
<g id="edge28" class="edge">
<title>Node15&#45;&gt;Node10</title>
<path fill="none" stroke="midnightblue" d="M490.09,-280.38C450.38,-265.11 367.93,-230.85 306.41,-188 286.02,-173.8 265.85,-153.52 252.84,-139.4"/>
<polygon fill="midnightblue" stroke="midnightblue" points="255.36,-136.97 246.06,-131.9 250.16,-141.66 255.36,-136.97"/>
</g>
<!-- Node16 -->
<g id="node16" class="node">
<title>Node16</title>
<g id="a_node16"><a xlink:href="a00161.html" target="_top" xlink:title=" ">
<polygon fill="white" stroke="black" points="482.41,-224.5 482.41,-243.5 544.41,-243.5 544.41,-224.5 482.41,-224.5"/>
<text text-anchor="middle" x="513.41" y="-231.5" font-family="Helvetica,sans-Serif" font-size="10.00">Color.hpp</text>
</a>
</g>
</g>
<!-- Node15&#45;&gt;Node16 -->
<g id="edge19" class="edge">
<title>Node15&#45;&gt;Node16</title>
<path fill="none" stroke="midnightblue" d="M513.41,-280.08C513.41,-273.01 513.41,-262.86 513.41,-253.99"/>
<polygon fill="midnightblue" stroke="midnightblue" points="516.91,-253.75 513.41,-243.75 509.91,-253.75 516.91,-253.75"/>
</g>
<!-- Node19 -->
<g id="node19" class="node">
<title>Node19</title>
<g id="a_node19"><a xlink:href="a00239.html" target="_top" xlink:title=" ">
<polygon fill="white" stroke="black" points="723.41,-224.5 723.41,-243.5 821.41,-243.5 821.41,-224.5 723.41,-224.5"/>
<text text-anchor="middle" x="772.41" y="-231.5" font-family="Helvetica,sans-Serif" font-size="10.00">IDisplayable.hpp</text>
</a>
</g>
</g>
<!-- Node15&#45;&gt;Node19 -->
<g id="edge25" class="edge">
<title>Node15&#45;&gt;Node19</title>
<path fill="none" stroke="midnightblue" d="M545.95,-282.22C590.02,-273.03 669.15,-256.53 721.22,-245.67"/>
<polygon fill="midnightblue" stroke="midnightblue" points="722.18,-249.05 731.26,-243.58 720.75,-242.2 722.18,-249.05"/>
</g>
<!-- Node16&#45;&gt;Node6 -->
<g id="edge23" class="edge">
<title>Node16&#45;&gt;Node6</title>
<path fill="none" stroke="midnightblue" d="M535.59,-224.44C558.84,-215.48 595.56,-201.31 621.83,-191.18"/>
<polygon fill="midnightblue" stroke="midnightblue" points="623.26,-194.38 631.33,-187.52 620.74,-187.85 623.26,-194.38"/>
</g>
<!-- Node16&#45;&gt;Node11 -->
<g id="edge21" class="edge">
<title>Node16&#45;&gt;Node11</title>
<path fill="none" stroke="midnightblue" d="M522.88,-224.47C535.16,-212.32 554.13,-189.16 546.41,-168 533.29,-132.05 501.12,-100.02 480.33,-82.1"/>
<polygon fill="midnightblue" stroke="midnightblue" points="482.39,-79.25 472.47,-75.52 477.9,-84.62 482.39,-79.25"/>
</g>
<!-- Node16&#45;&gt;Node12 -->
<g id="edge24" class="edge">
<title>Node16&#45;&gt;Node12</title>
<path fill="none" stroke="midnightblue" d="M482.19,-233.75C441.32,-233.07 369.58,-226 324.41,-188 308.05,-174.24 287.84,-116 278.14,-85.62"/>
<polygon fill="midnightblue" stroke="midnightblue" points="281.4,-84.31 275.06,-75.82 274.72,-86.41 281.4,-84.31"/>
</g>
<!-- Node17 -->
<g id="node17" class="node">
<title>Node17</title>
<g id="a_node17"><a xlink:title=" ">
<polygon fill="white" stroke="#bfbfbf" points="489.41,-168.5 489.41,-187.5 537.41,-187.5 537.41,-168.5 489.41,-168.5"/>
<text text-anchor="middle" x="513.41" y="-175.5" font-family="Helvetica,sans-Serif" font-size="10.00">mutex</text>
</a>
</g>
</g>
<!-- Node16&#45;&gt;Node17 -->
<g id="edge20" class="edge">
<title>Node16&#45;&gt;Node17</title>
<path fill="none" stroke="midnightblue" d="M513.41,-224.08C513.41,-217.01 513.41,-206.86 513.41,-197.99"/>
<polygon fill="midnightblue" stroke="midnightblue" points="516.91,-197.75 513.41,-187.75 509.91,-197.75 516.91,-197.75"/>
</g>
<!-- Node18 -->
<g id="node18" class="node">
<title>Node18</title>
<g id="a_node18"><a xlink:title=" ">
<polygon fill="white" stroke="#bfbfbf" points="333.91,-168.5 333.91,-187.5 470.91,-187.5 470.91,-168.5 333.91,-168.5"/>
<text text-anchor="middle" x="402.41" y="-175.5" font-family="Helvetica,sans-Serif" font-size="10.00">SFML/Graphics/Color.hpp</text>
</a>
</g>
</g>
<!-- Node16&#45;&gt;Node18 -->
<g id="edge22" class="edge">
<title>Node16&#45;&gt;Node18</title>
<path fill="none" stroke="midnightblue" d="M495.58,-224.32C477.69,-215.62 449.94,-202.12 429.36,-192.11"/>
<polygon fill="midnightblue" stroke="midnightblue" points="430.72,-188.88 420.2,-187.65 427.66,-195.18 430.72,-188.88"/>
</g>
<!-- Node19&#45;&gt;Node2 -->
<g id="edge27" class="edge">
<title>Node19&#45;&gt;Node2</title>
<path fill="none" stroke="midnightblue" d="M783.17,-224.32C793.18,-216.26 808.3,-204.08 820.34,-194.37"/>
<polygon fill="midnightblue" stroke="midnightblue" points="822.86,-196.83 828.45,-187.83 818.47,-191.38 822.86,-196.83"/>
</g>
<!-- Node19&#45;&gt;Node3 -->
<g id="edge26" class="edge">
<title>Node19&#45;&gt;Node3</title>
<path fill="none" stroke="midnightblue" d="M773.62,-224.19C775.02,-211.3 776.2,-186.8 768.41,-168 742.54,-105.6 681.14,-51.18 649.32,-25.95"/>
<polygon fill="midnightblue" stroke="midnightblue" points="651.22,-23 641.18,-19.62 646.93,-28.52 651.22,-23"/>
</g>
<!-- Node20&#45;&gt;Node3 -->
<g id="edge31" class="edge">
<title>Node20&#45;&gt;Node3</title>
<path fill="none" stroke="midnightblue" d="M629.41,-112.37C629.41,-94.62 629.41,-53.67 629.41,-29.6"/>
<polygon fill="midnightblue" stroke="midnightblue" points="632.91,-29.59 629.41,-19.59 625.91,-29.59 632.91,-29.59"/>
</g>
<!-- Node20&#45;&gt;Node12 -->
<g id="edge32" class="edge">
<title>Node20&#45;&gt;Node12</title>
<path fill="none" stroke="midnightblue" d="M593.87,-115.62C529.32,-105.86 392.79,-85.21 320.17,-74.22"/>
<polygon fill="midnightblue" stroke="midnightblue" points="320.35,-70.71 309.94,-72.68 319.3,-77.63 320.35,-70.71"/>
</g>
<!-- Node21&#45;&gt;Node9 -->
<g id="edge35" class="edge">
<title>Node21&#45;&gt;Node9</title>
<path fill="none" stroke="midnightblue" d="M94.55,-224.32C108.28,-215.9 129.35,-202.97 145.47,-193.07"/>
<polygon fill="midnightblue" stroke="midnightblue" points="147.61,-195.87 154.31,-187.65 143.95,-189.9 147.61,-195.87"/>
</g>
<!-- Node21&#45;&gt;Node10 -->
<g id="edge37" class="edge">
<title>Node21&#45;&gt;Node10</title>
<path fill="none" stroke="midnightblue" d="M78.75,-224.26C76.69,-210.57 74.92,-183.99 88.41,-168 113.12,-138.72 156.08,-128.04 189.71,-124.35"/>
<polygon fill="midnightblue" stroke="midnightblue" points="190.18,-127.82 199.81,-123.42 189.54,-120.85 190.18,-127.82"/>
</g>
<!-- Node21&#45;&gt;Node12 -->
<g id="edge36" class="edge">
<title>Node21&#45;&gt;Node12</title>
<path fill="none" stroke="midnightblue" d="M76.92,-224.25C72.24,-211.01 65.7,-185.57 76.41,-168 108.53,-115.32 177.89,-88.94 224.87,-76.62"/>
<polygon fill="midnightblue" stroke="midnightblue" points="225.98,-79.96 234.83,-74.13 224.28,-73.16 225.98,-79.96"/>
</g>
</g>
</svg>
