<?xml version="1.0" encoding="UTF-8" standalone="no"?>
<!DOCTYPE svg PUBLIC "-//W3C//DTD SVG 1.1//EN"
 "http://www.w3.org/Graphics/SVG/1.1/DTD/svg11.dtd">
<!-- Generated by graphviz version 2.43.0 (0)
 -->
<!-- Title: /home/runner/work/Raytracer/Raytracer/PluginsExt/ChessBoardMaterial/ChessBoardMaterial.hpp Pages: 1 -->
<svg width="626pt" height="330pt"
 viewBox="0.00 0.00 626.00 330.00" xmlns="http://www.w3.org/2000/svg" xmlns:xlink="http://www.w3.org/1999/xlink">
<g id="graph0" class="graph" transform="scale(1 1) rotate(0) translate(4 326)">
<title>/home/runner/work/Raytracer/Raytracer/PluginsExt/ChessBoardMaterial/ChessBoardMaterial.hpp</title>
<polygon fill="white" stroke="transparent" points="-4,4 -4,-326 622,-326 622,4 -4,4"/>
<!-- Node1 -->
<g id="node1" class="node">
<title>Node1</title>
<g id="a_node1"><a xlink:title=" ">
<polygon fill="#bfbfbf" stroke="black" points="0,-280.5 0,-321.5 182,-321.5 182,-280.5 0,-280.5"/>
<text text-anchor="start" x="8" y="-309.5" font-family="Helvetica,sans-Serif" font-size="10.00">/home/runner/work/Raytracer</text>
<text text-anchor="start" x="8" y="-298.5" font-family="Helvetica,sans-Serif" font-size="10.00">/Raytracer/PluginsExt/ChessBoard</text>
<text text-anchor="middle" x="91" y="-287.5" font-family="Helvetica,sans-Serif" font-size="10.00">Material/ChessBoardMaterial.hpp</text>
</a>
</g>
</g>
<!-- Node2 -->
<g id="node2" class="node">
<title>Node2</title>
<g id="a_node2"><a xlink:href="a00245.html" target="_top" xlink:title=" ">
<polygon fill="white" stroke="black" points="118.5,-56.5 118.5,-75.5 193.5,-75.5 193.5,-56.5 118.5,-56.5"/>
<text text-anchor="middle" x="156" y="-63.5" font-family="Helvetica,sans-Serif" font-size="10.00">ISetting.hpp</text>
</a>
</g>
</g>
<!-- Node1&#45;&gt;Node2 -->
<g id="edge1" class="edge">
<title>Node1&#45;&gt;Node2</title>
<path fill="none" stroke="midnightblue" d="M58.76,-280.32C46.15,-270.92 32.86,-258.54 25,-244 8.86,-214.16 5.75,-199.63 18,-168 35.49,-122.83 86.74,-94.21 121.62,-79.39"/>
<polygon fill="midnightblue" stroke="midnightblue" points="123.04,-82.59 130.98,-75.58 120.39,-76.11 123.04,-82.59"/>
</g>
<!-- Node5 -->
<g id="node5" class="node">
<title>Node5</title>
<g id="a_node5"><a xlink:href="a00176.html" target="_top" xlink:title=" ">
<polygon fill="white" stroke="black" points="37.5,-168.5 37.5,-187.5 92.5,-187.5 92.5,-168.5 37.5,-168.5"/>
<text text-anchor="middle" x="65" y="-175.5" font-family="Helvetica,sans-Serif" font-size="10.00">Ray.hpp</text>
</a>
</g>
</g>
<!-- Node1&#45;&gt;Node5 -->
<g id="edge4" class="edge">
<title>Node1&#45;&gt;Node5</title>
<path fill="none" stroke="midnightblue" d="M86.76,-280.29C81.84,-257.37 73.78,-219.85 68.97,-197.47"/>
<polygon fill="midnightblue" stroke="midnightblue" points="72.37,-196.62 66.84,-187.57 65.52,-198.09 72.37,-196.62"/>
</g>
<!-- Node6 -->
<g id="node6" class="node">
<title>Node6</title>
<g id="a_node6"><a xlink:href="a00131.html" target="_top" xlink:title=" ">
<polygon fill="white" stroke="black" points="77.5,-112.5 77.5,-131.5 154.5,-131.5 154.5,-112.5 77.5,-112.5"/>
<text text-anchor="middle" x="116" y="-119.5" font-family="Helvetica,sans-Serif" font-size="10.00">Vector3f.hpp</text>
</a>
</g>
</g>
<!-- Node1&#45;&gt;Node6 -->
<g id="edge16" class="edge">
<title>Node1&#45;&gt;Node6</title>
<path fill="none" stroke="midnightblue" d="M69.1,-280.1C42.76,-253.67 4.81,-205.91 28,-168 37.51,-152.46 54.26,-142.07 70.62,-135.23"/>
<polygon fill="midnightblue" stroke="midnightblue" points="72.05,-138.43 80.15,-131.6 69.56,-131.89 72.05,-138.43"/>
</g>
<!-- Node8 -->
<g id="node8" class="node">
<title>Node8</title>
<g id="a_node8"><a xlink:href="a00161.html" target="_top" xlink:title=" ">
<polygon fill="white" stroke="black" points="372,-168.5 372,-187.5 434,-187.5 434,-168.5 372,-168.5"/>
<text text-anchor="middle" x="403" y="-175.5" font-family="Helvetica,sans-Serif" font-size="10.00">Color.hpp</text>
</a>
</g>
</g>
<!-- Node1&#45;&gt;Node8 -->
<g id="edge8" class="edge">
<title>Node1&#45;&gt;Node8</title>
<path fill="none" stroke="midnightblue" d="M161.99,-280.48C195.21,-270.67 235.06,-257.91 270,-244 308.92,-228.51 352.19,-206.39 378.5,-192.37"/>
<polygon fill="midnightblue" stroke="midnightblue" points="380.23,-195.41 387.38,-187.6 376.92,-189.25 380.23,-195.41"/>
</g>
<!-- Node12 -->
<g id="node12" class="node">
<title>Node12</title>
<g id="a_node12"><a xlink:href="a00122.html" target="_top" xlink:title=" ">
<polygon fill="white" stroke="black" points="110.5,-168.5 110.5,-187.5 199.5,-187.5 199.5,-168.5 110.5,-168.5"/>
<text text-anchor="middle" x="155" y="-175.5" font-family="Helvetica,sans-Serif" font-size="10.00">ITransform.hpp</text>
</a>
</g>
</g>
<!-- Node1&#45;&gt;Node12 -->
<g id="edge14" class="edge">
<title>Node1&#45;&gt;Node12</title>
<path fill="none" stroke="midnightblue" d="M101.43,-280.29C113.71,-257.06 133.94,-218.82 145.71,-196.56"/>
<polygon fill="midnightblue" stroke="midnightblue" points="148.88,-198.05 150.46,-187.57 142.7,-194.78 148.88,-198.05"/>
</g>
<!-- Node13 -->
<g id="node13" class="node">
<title>Node13</title>
<g id="a_node13"><a xlink:href="a00116.html" target="_top" xlink:title=" ">
<polygon fill="white" stroke="black" points="179.5,-224.5 179.5,-243.5 260.5,-243.5 260.5,-224.5 179.5,-224.5"/>
<text text-anchor="middle" x="220" y="-231.5" font-family="Helvetica,sans-Serif" font-size="10.00">IMaterial.hpp</text>
</a>
</g>
</g>
<!-- Node1&#45;&gt;Node13 -->
<g id="edge17" class="edge">
<title>Node1&#45;&gt;Node13</title>
<path fill="none" stroke="midnightblue" d="M129.7,-280.5C150.43,-270.05 175.42,-257.46 193.85,-248.18"/>
<polygon fill="midnightblue" stroke="midnightblue" points="195.47,-251.28 202.83,-243.65 192.32,-245.03 195.47,-251.28"/>
</g>
<!-- Node3 -->
<g id="node3" class="node">
<title>Node3</title>
<g id="a_node3"><a xlink:title=" ">
<polygon fill="white" stroke="#bfbfbf" points="237,-0.5 237,-19.5 295,-19.5 295,-0.5 237,-0.5"/>
<text text-anchor="middle" x="266" y="-7.5" font-family="Helvetica,sans-Serif" font-size="10.00">memory</text>
</a>
</g>
</g>
<!-- Node2&#45;&gt;Node3 -->
<g id="edge2" class="edge">
<title>Node2&#45;&gt;Node3</title>
<path fill="none" stroke="midnightblue" d="M173.67,-56.32C191.39,-47.62 218.9,-34.12 239.29,-24.11"/>
<polygon fill="midnightblue" stroke="midnightblue" points="240.94,-27.2 248.37,-19.65 237.85,-20.92 240.94,-27.2"/>
</g>
<!-- Node4 -->
<g id="node4" class="node">
<title>Node4</title>
<g id="a_node4"><a xlink:title=" ">
<polygon fill="white" stroke="#bfbfbf" points="114.5,-0.5 114.5,-19.5 197.5,-19.5 197.5,-0.5 114.5,-0.5"/>
<text text-anchor="middle" x="156" y="-7.5" font-family="Helvetica,sans-Serif" font-size="10.00">libconfig.h++</text>
</a>
</g>
</g>
<!-- Node2&#45;&gt;Node4 -->
<g id="edge3" class="edge">
<title>Node2&#45;&gt;Node4</title>
<path fill="none" stroke="midnightblue" d="M156,-56.08C156,-49.01 156,-38.86 156,-29.99"/>
<polygon fill="midnightblue" stroke="midnightblue" points="159.5,-29.75 156,-19.75 152.5,-29.75 159.5,-29.75"/>
</g>
<!-- Node5&#45;&gt;Node6 -->
<g id="edge5" class="edge">
<title>Node5&#45;&gt;Node6</title>
<path fill="none" stroke="midnightblue" d="M73.42,-168.08C80.85,-160.22 91.85,-148.57 100.81,-139.08"/>
<polygon fill="midnightblue" stroke="midnightblue" points="103.41,-141.42 107.74,-131.75 98.32,-136.62 103.41,-141.42"/>
</g>
<!-- Node6&#45;&gt;Node2 -->
<g id="edge7" class="edge">
<title>Node6&#45;&gt;Node2</title>
<path fill="none" stroke="midnightblue" d="M122.61,-112.08C128.26,-104.46 136.54,-93.26 143.45,-83.94"/>
<polygon fill="midnightblue" stroke="midnightblue" points="146.38,-85.87 149.52,-75.75 140.75,-81.7 146.38,-85.87"/>
</g>
<!-- Node7 -->
<g id="node7" class="node">
<title>Node7</title>
<g id="a_node7"><a xlink:title=" ">
<polygon fill="white" stroke="#bfbfbf" points="314.5,-56.5 314.5,-75.5 371.5,-75.5 371.5,-56.5 314.5,-56.5"/>
<text text-anchor="middle" x="343" y="-63.5" font-family="Helvetica,sans-Serif" font-size="10.00">ostream</text>
</a>
</g>
</g>
<!-- Node6&#45;&gt;Node7 -->
<g id="edge6" class="edge">
<title>Node6&#45;&gt;Node7</title>
<path fill="none" stroke="midnightblue" d="M151.97,-112.44C193.63,-102.53 262,-86.27 304.65,-76.12"/>
<polygon fill="midnightblue" stroke="midnightblue" points="305.47,-79.53 314.39,-73.81 303.85,-72.72 305.47,-79.53"/>
</g>
<!-- Node8&#45;&gt;Node2 -->
<g id="edge13" class="edge">
<title>Node8&#45;&gt;Node2</title>
<path fill="none" stroke="midnightblue" d="M383.62,-168.37C340.33,-149.09 235.61,-102.45 184.72,-79.79"/>
<polygon fill="midnightblue" stroke="midnightblue" points="185.85,-76.46 175.29,-75.59 183,-82.86 185.85,-76.46"/>
</g>
<!-- Node8&#45;&gt;Node7 -->
<g id="edge10" class="edge">
<title>Node8&#45;&gt;Node7</title>
<path fill="none" stroke="midnightblue" d="M384.09,-168.36C370.23,-160.9 352.41,-148.68 344,-132 336.77,-117.67 337.26,-99.21 339.13,-85.62"/>
<polygon fill="midnightblue" stroke="midnightblue" points="342.62,-86.01 340.88,-75.56 335.72,-84.81 342.62,-86.01"/>
</g>
<!-- Node9 -->
<g id="node9" class="node">
<title>Node9</title>
<g id="a_node9"><a xlink:title=" ">
<polygon fill="white" stroke="#bfbfbf" points="570,-112.5 570,-131.5 618,-131.5 618,-112.5 570,-112.5"/>
<text text-anchor="middle" x="594" y="-119.5" font-family="Helvetica,sans-Serif" font-size="10.00">mutex</text>
</a>
</g>
</g>
<!-- Node8&#45;&gt;Node9 -->
<g id="edge9" class="edge">
<title>Node8&#45;&gt;Node9</title>
<path fill="none" stroke="midnightblue" d="M433.26,-168.44C467.73,-158.7 523.91,-142.82 559.9,-132.64"/>
<polygon fill="midnightblue" stroke="midnightblue" points="561.25,-135.9 569.92,-129.81 559.35,-129.16 561.25,-135.9"/>
</g>
<!-- Node10 -->
<g id="node10" class="node">
<title>Node10</title>
<g id="a_node10"><a xlink:title=" ">
<polygon fill="white" stroke="#bfbfbf" points="352.5,-112.5 352.5,-131.5 489.5,-131.5 489.5,-112.5 352.5,-112.5"/>
<text text-anchor="middle" x="421" y="-119.5" font-family="Helvetica,sans-Serif" font-size="10.00">SFML/Graphics/Color.hpp</text>
</a>
</g>
</g>
<!-- Node8&#45;&gt;Node10 -->
<g id="edge11" class="edge">
<title>Node8&#45;&gt;Node10</title>
<path fill="none" stroke="midnightblue" d="M405.97,-168.08C408.38,-160.85 411.86,-150.41 414.87,-141.4"/>
<polygon fill="midnightblue" stroke="midnightblue" points="418.24,-142.34 418.08,-131.75 411.6,-140.13 418.24,-142.34"/>
</g>
<!-- Node11 -->
<g id="node11" class="node">
<title>Node11</title>
<g id="a_node11"><a xlink:title=" ">
<polygon fill="white" stroke="#bfbfbf" points="508,-112.5 508,-131.5 552,-131.5 552,-112.5 508,-112.5"/>
<text text-anchor="middle" x="530" y="-119.5" font-family="Helvetica,sans-Serif" font-size="10.00">string</text>
</a>
</g>
</g>
<!-- Node8&#45;&gt;Node11 -->
<g id="edge12" class="edge">
<title>Node8&#45;&gt;Node11</title>
<path fill="none" stroke="midnightblue" d="M423.12,-168.44C444.02,-159.56 476.93,-145.56 500.72,-135.45"/>
<polygon fill="midnightblue" stroke="midnightblue" points="502.14,-138.65 509.97,-131.52 499.4,-132.21 502.14,-138.65"/>
</g>
<!-- Node12&#45;&gt;Node6 -->
<g id="edge15" class="edge">
<title>Node12&#45;&gt;Node6</title>
<path fill="none" stroke="midnightblue" d="M148.56,-168.08C143.05,-160.46 134.97,-149.26 128.24,-139.94"/>
<polygon fill="midnightblue" stroke="midnightblue" points="131.01,-137.81 122.32,-131.75 125.34,-141.91 131.01,-137.81"/>
</g>
<!-- Node13&#45;&gt;Node5 -->
<g id="edge18" class="edge">
<title>Node13&#45;&gt;Node5</title>
<path fill="none" stroke="midnightblue" d="M195.44,-224.44C169.48,-215.4 128.33,-201.06 99.2,-190.92"/>
<polygon fill="midnightblue" stroke="midnightblue" points="100.04,-187.5 89.45,-187.52 97.74,-194.11 100.04,-187.5"/>
</g>
<!-- Node13&#45;&gt;Node6 -->
<g id="edge24" class="edge">
<title>Node13&#45;&gt;Node6</title>
<path fill="none" stroke="midnightblue" d="M220.88,-224.46C221.79,-211.05 221.64,-184.84 209,-168 197.28,-152.39 178.71,-141.91 161.24,-135.04"/>
<polygon fill="midnightblue" stroke="midnightblue" points="162.29,-131.69 151.7,-131.57 159.91,-138.27 162.29,-131.69"/>
</g>
<!-- Node13&#45;&gt;Node8 -->
<g id="edge19" class="edge">
<title>Node13&#45;&gt;Node8</title>
<path fill="none" stroke="midnightblue" d="M249,-224.44C280.18,-215.24 329.93,-200.56 364.41,-190.39"/>
<polygon fill="midnightblue" stroke="midnightblue" points="365.54,-193.7 374.14,-187.52 363.56,-186.99 365.54,-193.7"/>
</g>
<!-- Node13&#45;&gt;Node12 -->
<g id="edge23" class="edge">
<title>Node13&#45;&gt;Node12</title>
<path fill="none" stroke="midnightblue" d="M209.56,-224.32C199.85,-216.26 185.18,-204.08 173.5,-194.37"/>
<polygon fill="midnightblue" stroke="midnightblue" points="175.56,-191.53 165.63,-187.83 171.09,-196.92 175.56,-191.53"/>
</g>
<!-- Node14 -->
<g id="node14" class="node">
<title>Node14</title>
<g id="a_node14"><a xlink:href="a00239.html" target="_top" xlink:title=" ">
<polygon fill="white" stroke="black" points="256,-168.5 256,-187.5 354,-187.5 354,-168.5 256,-168.5"/>
<text text-anchor="middle" x="305" y="-175.5" font-family="Helvetica,sans-Serif" font-size="10.00">IDisplayable.hpp</text>
</a>
</g>
</g>
<!-- Node13&#45;&gt;Node14 -->
<g id="edge20" class="edge">
<title>Node13&#45;&gt;Node14</title>
<path fill="none" stroke="midnightblue" d="M233.66,-224.32C246.92,-215.9 267.27,-202.97 282.85,-193.07"/>
<polygon fill="midnightblue" stroke="midnightblue" points="284.81,-195.97 291.38,-187.65 281.06,-190.06 284.81,-195.97"/>
</g>
<!-- Node14&#45;&gt;Node3 -->
<g id="edge21" class="edge">
<title>Node14&#45;&gt;Node3</title>
<path fill="none" stroke="midnightblue" d="M302.9,-168.08C296.76,-141.95 278.74,-65.21 270.36,-29.58"/>
<polygon fill="midnightblue" stroke="midnightblue" points="273.71,-28.5 268.01,-19.57 266.89,-30.1 273.71,-28.5"/>
</g>
<!-- Node15 -->
<g id="node15" class="node">
<title>Node15</title>
<g id="a_node15"><a xlink:title=" ">
<polygon fill="white" stroke="#bfbfbf" points="172.5,-112.5 172.5,-131.5 219.5,-131.5 219.5,-112.5 172.5,-112.5"/>
<text text-anchor="middle" x="196" y="-119.5" font-family="Helvetica,sans-Serif" font-size="10.00">vector</text>
</a>
</g>
</g>
<!-- Node14&#45;&gt;Node15 -->
<g id="edge22" class="edge">
<title>Node14&#45;&gt;Node15</title>
<path fill="none" stroke="midnightblue" d="M287.49,-168.32C269.93,-159.62 242.67,-146.12 222.47,-136.11"/>
<polygon fill="midnightblue" stroke="midnightblue" points="223.98,-132.96 213.47,-131.65 220.88,-139.23 223.98,-132.96"/>
</g>
</g>
</svg>
