<?xml version="1.0" encoding="UTF-8" standalone="no"?>
<!DOCTYPE svg PUBLIC "-//W3C//DTD SVG 1.1//EN"
 "http://www.w3.org/Graphics/SVG/1.1/DTD/svg11.dtd">
<!-- Generated by graphviz version 2.43.0 (0)
 -->
<!-- Title: /home/runner/work/Raytracer/Raytracer/PluginsExt/LimitedCone/LimitedConeEntity.hpp Pages: 1 -->
<svg width="739pt" height="386pt"
 viewBox="0.00 0.00 739.00 386.00" xmlns="http://www.w3.org/2000/svg" xmlns:xlink="http://www.w3.org/1999/xlink">
<g id="graph0" class="graph" transform="scale(1 1) rotate(0) translate(4 382)">
<title>/home/runner/work/Raytracer/Raytracer/PluginsExt/LimitedCone/LimitedConeEntity.hpp</title>
<polygon fill="white" stroke="transparent" points="-4,4 -4,-382 735,-382 735,4 -4,4"/>
<!-- Node1 -->
<g id="node1" class="node">
<title>Node1</title>
<g id="a_node1"><a xlink:title=" ">
<polygon fill="#bfbfbf" stroke="black" points="54,-336.5 54,-377.5 239,-377.5 239,-336.5 54,-336.5"/>
<text text-anchor="start" x="62" y="-365.5" font-family="Helvetica,sans-Serif" font-size="10.00">/home/runner/work/Raytracer</text>
<text text-anchor="start" x="62" y="-354.5" font-family="Helvetica,sans-Serif" font-size="10.00">/Raytracer/PluginsExt/LimitedCone</text>
<text text-anchor="middle" x="146.5" y="-343.5" font-family="Helvetica,sans-Serif" font-size="10.00">/LimitedConeEntity.hpp</text>
</a>
</g>
</g>
<!-- Node2 -->
<g id="node2" class="node">
<title>Node2</title>
<g id="a_node2"><a xlink:title=" ">
<polygon fill="white" stroke="#bfbfbf" points="8,-280.5 8,-299.5 55,-299.5 55,-280.5 8,-280.5"/>
<text text-anchor="middle" x="31.5" y="-287.5" font-family="Helvetica,sans-Serif" font-size="10.00">cmath</text>
</a>
</g>
</g>
<!-- Node1&#45;&gt;Node2 -->
<g id="edge1" class="edge">
<title>Node1&#45;&gt;Node2</title>
<path fill="none" stroke="midnightblue" d="M112,-336.5C93.86,-326.24 72.06,-313.93 55.73,-304.69"/>
<polygon fill="midnightblue" stroke="midnightblue" points="57.24,-301.53 46.81,-299.65 53.79,-307.62 57.24,-301.53"/>
</g>
<!-- Node3 -->
<g id="node3" class="node">
<title>Node3</title>
<g id="a_node3"><a xlink:href="a00158.html" target="_top" xlink:title=" ">
<polygon fill="white" stroke="black" points="73,-280.5 73,-299.5 146,-299.5 146,-280.5 73,-280.5"/>
<text text-anchor="middle" x="109.5" y="-287.5" font-family="Helvetica,sans-Serif" font-size="10.00">ILogger.hpp</text>
</a>
</g>
</g>
<!-- Node1&#45;&gt;Node3 -->
<g id="edge2" class="edge">
<title>Node1&#45;&gt;Node3</title>
<path fill="none" stroke="midnightblue" d="M135.4,-336.5C130.33,-327.59 124.36,-317.11 119.44,-308.46"/>
<polygon fill="midnightblue" stroke="midnightblue" points="122.41,-306.61 114.43,-299.65 116.33,-310.07 122.41,-306.61"/>
</g>
<!-- Node6 -->
<g id="node6" class="node">
<title>Node6</title>
<g id="a_node6"><a xlink:href="a00119.html" target="_top" xlink:title=" ">
<polygon fill="white" stroke="black" points="405,-280.5 405,-299.5 490,-299.5 490,-280.5 405,-280.5"/>
<text text-anchor="middle" x="447.5" y="-287.5" font-family="Helvetica,sans-Serif" font-size="10.00">IPrimitive.hpp</text>
</a>
</g>
</g>
<!-- Node1&#45;&gt;Node6 -->
<g id="edge5" class="edge">
<title>Node1&#45;&gt;Node6</title>
<path fill="none" stroke="midnightblue" d="M236.81,-336.5C289.66,-325.08 354.38,-311.11 398.03,-301.68"/>
<polygon fill="midnightblue" stroke="midnightblue" points="398.79,-305.1 407.83,-299.57 397.31,-298.26 398.79,-305.1"/>
</g>
<!-- Node22 -->
<g id="node22" class="node">
<title>Node22</title>
<g id="a_node22"><a xlink:href="a00125.html" target="_top" xlink:title=" ">
<polygon fill="white" stroke="black" points="145.5,-224.5 145.5,-243.5 231.5,-243.5 231.5,-224.5 145.5,-224.5"/>
<text text-anchor="middle" x="188.5" y="-231.5" font-family="Helvetica,sans-Serif" font-size="10.00">Transform.hpp</text>
</a>
</g>
</g>
<!-- Node1&#45;&gt;Node22 -->
<g id="edge31" class="edge">
<title>Node1&#45;&gt;Node22</title>
<path fill="none" stroke="midnightblue" d="M153.34,-336.29C161.33,-313.27 174.44,-275.5 182.19,-253.17"/>
<polygon fill="midnightblue" stroke="midnightblue" points="185.55,-254.17 185.52,-243.57 178.94,-251.87 185.55,-254.17"/>
</g>
<!-- Node4 -->
<g id="node4" class="node">
<title>Node4</title>
<g id="a_node4"><a xlink:title=" ">
<polygon fill="white" stroke="#bfbfbf" points="0,-224.5 0,-243.5 65,-243.5 65,-224.5 0,-224.5"/>
<text text-anchor="middle" x="32.5" y="-231.5" font-family="Helvetica,sans-Serif" font-size="10.00">functional</text>
</a>
</g>
</g>
<!-- Node3&#45;&gt;Node4 -->
<g id="edge3" class="edge">
<title>Node3&#45;&gt;Node4</title>
<path fill="none" stroke="midnightblue" d="M97.13,-280.32C85.34,-272.06 67.37,-259.45 53.36,-249.63"/>
<polygon fill="midnightblue" stroke="midnightblue" points="55.04,-246.53 44.84,-243.65 51.02,-252.26 55.04,-246.53"/>
</g>
<!-- Node5 -->
<g id="node5" class="node">
<title>Node5</title>
<g id="a_node5"><a xlink:title=" ">
<polygon fill="white" stroke="#bfbfbf" points="83.5,-224.5 83.5,-243.5 127.5,-243.5 127.5,-224.5 83.5,-224.5"/>
<text text-anchor="middle" x="105.5" y="-231.5" font-family="Helvetica,sans-Serif" font-size="10.00">string</text>
</a>
</g>
</g>
<!-- Node3&#45;&gt;Node5 -->
<g id="edge4" class="edge">
<title>Node3&#45;&gt;Node5</title>
<path fill="none" stroke="midnightblue" d="M108.84,-280.08C108.32,-273.01 107.56,-262.86 106.91,-253.99"/>
<polygon fill="midnightblue" stroke="midnightblue" points="110.38,-253.47 106.15,-243.75 103.4,-253.98 110.38,-253.47"/>
</g>
<!-- Node7 -->
<g id="node7" class="node">
<title>Node7</title>
<g id="a_node7"><a xlink:title=" ">
<polygon fill="white" stroke="#bfbfbf" points="579.5,-224.5 579.5,-243.5 635.5,-243.5 635.5,-224.5 579.5,-224.5"/>
<text text-anchor="middle" x="607.5" y="-231.5" font-family="Helvetica,sans-Serif" font-size="10.00">optional</text>
</a>
</g>
</g>
<!-- Node6&#45;&gt;Node7 -->
<g id="edge6" class="edge">
<title>Node6&#45;&gt;Node7</title>
<path fill="none" stroke="midnightblue" d="M472.85,-280.44C499.77,-271.36 542.5,-256.94 572.59,-246.78"/>
<polygon fill="midnightblue" stroke="midnightblue" points="573.91,-250.03 582.27,-243.52 571.67,-243.4 573.91,-250.03"/>
</g>
<!-- Node8 -->
<g id="node8" class="node">
<title>Node8</title>
<g id="a_node8"><a xlink:href="a00161.html" target="_top" xlink:title=" ">
<polygon fill="white" stroke="black" points="517.5,-168.5 517.5,-187.5 579.5,-187.5 579.5,-168.5 517.5,-168.5"/>
<text text-anchor="middle" x="548.5" y="-175.5" font-family="Helvetica,sans-Serif" font-size="10.00">Color.hpp</text>
</a>
</g>
</g>
<!-- Node6&#45;&gt;Node8 -->
<g id="edge7" class="edge">
<title>Node6&#45;&gt;Node8</title>
<path fill="none" stroke="midnightblue" d="M476.81,-280.41C495.41,-273.48 518.53,-261.9 532.5,-244 542.88,-230.7 546.63,-211.58 547.94,-197.52"/>
<polygon fill="midnightblue" stroke="midnightblue" points="551.43,-197.72 548.54,-187.53 544.44,-197.3 551.43,-197.72"/>
</g>
<!-- Node15 -->
<g id="node15" class="node">
<title>Node15</title>
<g id="a_node15"><a xlink:href="a00239.html" target="_top" xlink:title=" ">
<polygon fill="white" stroke="black" points="609.5,-168.5 609.5,-187.5 707.5,-187.5 707.5,-168.5 609.5,-168.5"/>
<text text-anchor="middle" x="658.5" y="-175.5" font-family="Helvetica,sans-Serif" font-size="10.00">IDisplayable.hpp</text>
</a>
</g>
</g>
<!-- Node6&#45;&gt;Node15 -->
<g id="edge14" class="edge">
<title>Node6&#45;&gt;Node15</title>
<path fill="none" stroke="midnightblue" d="M490.36,-284.58C541.66,-278.4 623.3,-265.47 644.5,-244 656.28,-232.08 659.2,-212.77 659.52,-198.29"/>
<polygon fill="midnightblue" stroke="midnightblue" points="663.01,-197.88 659.34,-187.95 656.02,-198.01 663.01,-197.88"/>
</g>
<!-- Node17 -->
<g id="node17" class="node">
<title>Node17</title>
<g id="a_node17"><a xlink:href="a00110.html" target="_top" xlink:title=" ">
<polygon fill="white" stroke="black" points="269.5,-224.5 269.5,-243.5 337.5,-243.5 337.5,-224.5 269.5,-224.5"/>
<text text-anchor="middle" x="303.5" y="-231.5" font-family="Helvetica,sans-Serif" font-size="10.00">IEntity.hpp</text>
</a>
</g>
</g>
<!-- Node6&#45;&gt;Node17 -->
<g id="edge17" class="edge">
<title>Node6&#45;&gt;Node17</title>
<path fill="none" stroke="midnightblue" d="M424.68,-280.44C400.67,-271.44 362.67,-257.19 335.63,-247.05"/>
<polygon fill="midnightblue" stroke="midnightblue" points="336.8,-243.75 326.21,-243.52 334.34,-250.3 336.8,-243.75"/>
</g>
<!-- Node19 -->
<g id="node19" class="node">
<title>Node19</title>
<g id="a_node19"><a xlink:href="a00131.html" target="_top" xlink:title=" ">
<polygon fill="white" stroke="black" points="252,-112.5 252,-131.5 329,-131.5 329,-112.5 252,-112.5"/>
<text text-anchor="middle" x="290.5" y="-119.5" font-family="Helvetica,sans-Serif" font-size="10.00">Vector3f.hpp</text>
</a>
</g>
</g>
<!-- Node6&#45;&gt;Node19 -->
<g id="edge30" class="edge">
<title>Node6&#45;&gt;Node19</title>
<path fill="none" stroke="midnightblue" d="M442.38,-280.33C429.7,-259.34 395.09,-204.84 356.5,-168 343.99,-156.06 328,-145.07 314.9,-136.94"/>
<polygon fill="midnightblue" stroke="midnightblue" points="316.33,-133.72 305.95,-131.56 312.71,-139.71 316.33,-133.72"/>
</g>
<!-- Node20 -->
<g id="node20" class="node">
<title>Node20</title>
<g id="a_node20"><a xlink:href="a00116.html" target="_top" xlink:title=" ">
<polygon fill="white" stroke="black" points="442,-224.5 442,-243.5 523,-243.5 523,-224.5 442,-224.5"/>
<text text-anchor="middle" x="482.5" y="-231.5" font-family="Helvetica,sans-Serif" font-size="10.00">IMaterial.hpp</text>
</a>
</g>
</g>
<!-- Node6&#45;&gt;Node20 -->
<g id="edge22" class="edge">
<title>Node6&#45;&gt;Node20</title>
<path fill="none" stroke="midnightblue" d="M453.28,-280.08C458.17,-272.53 465.33,-261.49 471.33,-252.23"/>
<polygon fill="midnightblue" stroke="midnightblue" points="474.33,-254.05 476.83,-243.75 468.45,-250.24 474.33,-254.05"/>
</g>
<!-- Node21 -->
<g id="node21" class="node">
<title>Node21</title>
<g id="a_node21"><a xlink:href="a00176.html" target="_top" xlink:title=" ">
<polygon fill="white" stroke="black" points="404,-168.5 404,-187.5 459,-187.5 459,-168.5 404,-168.5"/>
<text text-anchor="middle" x="431.5" y="-175.5" font-family="Helvetica,sans-Serif" font-size="10.00">Ray.hpp</text>
</a>
</g>
</g>
<!-- Node6&#45;&gt;Node21 -->
<g id="edge29" class="edge">
<title>Node6&#45;&gt;Node21</title>
<path fill="none" stroke="midnightblue" d="M443.98,-280.21C440.59,-271.26 435.67,-256.91 433.5,-244 430.93,-228.67 430.54,-211.03 430.74,-198"/>
<polygon fill="midnightblue" stroke="midnightblue" points="434.24,-198 431.02,-187.91 427.24,-197.81 434.24,-198"/>
</g>
<!-- Node9 -->
<g id="node9" class="node">
<title>Node9</title>
<g id="a_node9"><a xlink:title=" ">
<polygon fill="white" stroke="#bfbfbf" points="579.5,-112.5 579.5,-131.5 627.5,-131.5 627.5,-112.5 579.5,-112.5"/>
<text text-anchor="middle" x="603.5" y="-119.5" font-family="Helvetica,sans-Serif" font-size="10.00">mutex</text>
</a>
</g>
</g>
<!-- Node8&#45;&gt;Node9 -->
<g id="edge8" class="edge">
<title>Node8&#45;&gt;Node9</title>
<path fill="none" stroke="midnightblue" d="M557.58,-168.08C565.67,-160.14 577.7,-148.34 587.41,-138.8"/>
<polygon fill="midnightblue" stroke="midnightblue" points="589.9,-141.25 594.59,-131.75 585,-136.26 589.9,-141.25"/>
</g>
<!-- Node10 -->
<g id="node10" class="node">
<title>Node10</title>
<g id="a_node10"><a xlink:title=" ">
<polygon fill="white" stroke="#bfbfbf" points="452,-56.5 452,-75.5 509,-75.5 509,-56.5 452,-56.5"/>
<text text-anchor="middle" x="480.5" y="-63.5" font-family="Helvetica,sans-Serif" font-size="10.00">ostream</text>
</a>
</g>
</g>
<!-- Node8&#45;&gt;Node10 -->
<g id="edge9" class="edge">
<title>Node8&#45;&gt;Node10</title>
<path fill="none" stroke="midnightblue" d="M548.03,-168.37C546.97,-155.28 543.54,-130.04 532.5,-112 525.1,-99.91 513.37,-89.35 502.93,-81.51"/>
<polygon fill="midnightblue" stroke="midnightblue" points="504.76,-78.52 494.58,-75.58 500.71,-84.23 504.76,-78.52"/>
</g>
<!-- Node11 -->
<g id="node11" class="node">
<title>Node11</title>
<g id="a_node11"><a xlink:title=" ">
<polygon fill="white" stroke="#bfbfbf" points="386,-112.5 386,-131.5 523,-131.5 523,-112.5 386,-112.5"/>
<text text-anchor="middle" x="454.5" y="-119.5" font-family="Helvetica,sans-Serif" font-size="10.00">SFML/Graphics/Color.hpp</text>
</a>
</g>
</g>
<!-- Node8&#45;&gt;Node11 -->
<g id="edge10" class="edge">
<title>Node8&#45;&gt;Node11</title>
<path fill="none" stroke="midnightblue" d="M533.4,-168.32C518.6,-159.82 495.81,-146.73 478.52,-136.8"/>
<polygon fill="midnightblue" stroke="midnightblue" points="479.98,-133.6 469.57,-131.65 476.49,-139.67 479.98,-133.6"/>
</g>
<!-- Node12 -->
<g id="node12" class="node">
<title>Node12</title>
<g id="a_node12"><a xlink:href="a00245.html" target="_top" xlink:title=" ">
<polygon fill="white" stroke="black" points="287,-56.5 287,-75.5 362,-75.5 362,-56.5 287,-56.5"/>
<text text-anchor="middle" x="324.5" y="-63.5" font-family="Helvetica,sans-Serif" font-size="10.00">ISetting.hpp</text>
</a>
</g>
</g>
<!-- Node8&#45;&gt;Node12 -->
<g id="edge11" class="edge">
<title>Node8&#45;&gt;Node12</title>
<path fill="none" stroke="midnightblue" d="M517.31,-171.2C474.58,-162.86 400.54,-146.83 377.5,-132 358.82,-119.97 343.58,-99.19 334.32,-84.37"/>
<polygon fill="midnightblue" stroke="midnightblue" points="337.24,-82.43 329.11,-75.63 331.22,-86.02 337.24,-82.43"/>
</g>
<!-- Node13 -->
<g id="node13" class="node">
<title>Node13</title>
<g id="a_node13"><a xlink:title=" ">
<polygon fill="white" stroke="#bfbfbf" points="505.5,-0.5 505.5,-19.5 563.5,-19.5 563.5,-0.5 505.5,-0.5"/>
<text text-anchor="middle" x="534.5" y="-7.5" font-family="Helvetica,sans-Serif" font-size="10.00">memory</text>
</a>
</g>
</g>
<!-- Node12&#45;&gt;Node13 -->
<g id="edge12" class="edge">
<title>Node12&#45;&gt;Node13</title>
<path fill="none" stroke="midnightblue" d="M357.78,-56.44C395.22,-46.81 455.99,-31.19 495.6,-21"/>
<polygon fill="midnightblue" stroke="midnightblue" points="496.63,-24.35 505.44,-18.47 494.88,-17.57 496.63,-24.35"/>
</g>
<!-- Node14 -->
<g id="node14" class="node">
<title>Node14</title>
<g id="a_node14"><a xlink:title=" ">
<polygon fill="white" stroke="#bfbfbf" points="283,-0.5 283,-19.5 366,-19.5 366,-0.5 283,-0.5"/>
<text text-anchor="middle" x="324.5" y="-7.5" font-family="Helvetica,sans-Serif" font-size="10.00">libconfig.h++</text>
</a>
</g>
</g>
<!-- Node12&#45;&gt;Node14 -->
<g id="edge13" class="edge">
<title>Node12&#45;&gt;Node14</title>
<path fill="none" stroke="midnightblue" d="M324.5,-56.08C324.5,-49.01 324.5,-38.86 324.5,-29.99"/>
<polygon fill="midnightblue" stroke="midnightblue" points="328,-29.75 324.5,-19.75 321,-29.75 328,-29.75"/>
</g>
<!-- Node15&#45;&gt;Node13 -->
<g id="edge15" class="edge">
<title>Node15&#45;&gt;Node13</title>
<path fill="none" stroke="midnightblue" d="M656.93,-168.46C654.26,-155.48 647.99,-130.39 636.5,-112 614.26,-76.39 577.11,-43.91 554.32,-25.86"/>
<polygon fill="midnightblue" stroke="midnightblue" points="556.39,-23.04 546.34,-19.67 552.1,-28.57 556.39,-23.04"/>
</g>
<!-- Node16 -->
<g id="node16" class="node">
<title>Node16</title>
<g id="a_node16"><a xlink:title=" ">
<polygon fill="white" stroke="#bfbfbf" points="684,-112.5 684,-131.5 731,-131.5 731,-112.5 684,-112.5"/>
<text text-anchor="middle" x="707.5" y="-119.5" font-family="Helvetica,sans-Serif" font-size="10.00">vector</text>
</a>
</g>
</g>
<!-- Node15&#45;&gt;Node16 -->
<g id="edge16" class="edge">
<title>Node15&#45;&gt;Node16</title>
<path fill="none" stroke="midnightblue" d="M666.59,-168.08C673.66,-160.3 684.09,-148.8 692.65,-139.37"/>
<polygon fill="midnightblue" stroke="midnightblue" points="695.43,-141.51 699.56,-131.75 690.25,-136.8 695.43,-141.51"/>
</g>
<!-- Node18 -->
<g id="node18" class="node">
<title>Node18</title>
<g id="a_node18"><a xlink:href="a00122.html" target="_top" xlink:title=" ">
<polygon fill="white" stroke="black" points="206,-168.5 206,-187.5 347,-187.5 347,-168.5 206,-168.5"/>
<text text-anchor="middle" x="276.5" y="-175.5" font-family="Helvetica,sans-Serif" font-size="10.00">Transform/ITransform.hpp</text>
</a>
</g>
</g>
<!-- Node17&#45;&gt;Node18 -->
<g id="edge18" class="edge">
<title>Node17&#45;&gt;Node18</title>
<path fill="none" stroke="midnightblue" d="M299.04,-224.08C295.35,-216.69 289.98,-205.95 285.41,-196.81"/>
<polygon fill="midnightblue" stroke="midnightblue" points="288.48,-195.13 280.88,-187.75 282.22,-198.26 288.48,-195.13"/>
</g>
<!-- Node18&#45;&gt;Node19 -->
<g id="edge19" class="edge">
<title>Node18&#45;&gt;Node19</title>
<path fill="none" stroke="midnightblue" d="M278.81,-168.08C280.67,-160.93 283.34,-150.64 285.65,-141.69"/>
<polygon fill="midnightblue" stroke="midnightblue" points="289.11,-142.31 288.23,-131.75 282.33,-140.55 289.11,-142.31"/>
</g>
<!-- Node19&#45;&gt;Node10 -->
<g id="edge20" class="edge">
<title>Node19&#45;&gt;Node10</title>
<path fill="none" stroke="midnightblue" d="M320.61,-112.44C353.51,-103.09 406.3,-88.09 442.15,-77.9"/>
<polygon fill="midnightblue" stroke="midnightblue" points="443.12,-81.26 451.78,-75.16 441.2,-74.53 443.12,-81.26"/>
</g>
<!-- Node19&#45;&gt;Node12 -->
<g id="edge21" class="edge">
<title>Node19&#45;&gt;Node12</title>
<path fill="none" stroke="midnightblue" d="M296.11,-112.08C300.87,-104.53 307.82,-93.49 313.65,-84.23"/>
<polygon fill="midnightblue" stroke="midnightblue" points="316.62,-86.08 318.99,-75.75 310.7,-82.35 316.62,-86.08"/>
</g>
<!-- Node20&#45;&gt;Node8 -->
<g id="edge25" class="edge">
<title>Node20&#45;&gt;Node8</title>
<path fill="none" stroke="midnightblue" d="M493.1,-224.32C502.96,-216.26 517.85,-204.08 529.72,-194.37"/>
<polygon fill="midnightblue" stroke="midnightblue" points="532.18,-196.88 537.7,-187.83 527.75,-191.46 532.18,-196.88"/>
</g>
<!-- Node20&#45;&gt;Node15 -->
<g id="edge26" class="edge">
<title>Node20&#45;&gt;Node15</title>
<path fill="none" stroke="midnightblue" d="M510.39,-224.44C540.25,-215.28 587.81,-200.69 620.96,-190.52"/>
<polygon fill="midnightblue" stroke="midnightblue" points="622.21,-193.8 630.74,-187.52 620.16,-187.1 622.21,-193.8"/>
</g>
<!-- Node20&#45;&gt;Node18 -->
<g id="edge27" class="edge">
<title>Node20&#45;&gt;Node18</title>
<path fill="none" stroke="midnightblue" d="M449.86,-224.44C414.45,-215.16 357.79,-200.31 318.95,-190.13"/>
<polygon fill="midnightblue" stroke="midnightblue" points="319.55,-186.67 308.99,-187.52 317.77,-193.44 319.55,-186.67"/>
</g>
<!-- Node20&#45;&gt;Node19 -->
<g id="edge28" class="edge">
<title>Node20&#45;&gt;Node19</title>
<path fill="none" stroke="midnightblue" d="M483.3,-224.09C484.03,-210.18 483.25,-183.28 468.5,-168 459.41,-158.59 388.76,-142.74 339.26,-132.58"/>
<polygon fill="midnightblue" stroke="midnightblue" points="339.85,-129.13 329.35,-130.57 338.45,-135.99 339.85,-129.13"/>
</g>
<!-- Node20&#45;&gt;Node21 -->
<g id="edge23" class="edge">
<title>Node20&#45;&gt;Node21</title>
<path fill="none" stroke="midnightblue" d="M474.08,-224.08C466.65,-216.22 455.65,-204.57 446.69,-195.08"/>
<polygon fill="midnightblue" stroke="midnightblue" points="449.18,-192.62 439.76,-187.75 444.09,-197.42 449.18,-192.62"/>
</g>
<!-- Node21&#45;&gt;Node19 -->
<g id="edge24" class="edge">
<title>Node21&#45;&gt;Node19</title>
<path fill="none" stroke="midnightblue" d="M409.16,-168.44C385.75,-159.48 348.76,-145.31 322.31,-135.18"/>
<polygon fill="midnightblue" stroke="midnightblue" points="323.33,-131.82 312.74,-131.52 320.82,-138.36 323.33,-131.82"/>
</g>
<!-- Node22&#45;&gt;Node12 -->
<g id="edge33" class="edge">
<title>Node22&#45;&gt;Node12</title>
<path fill="none" stroke="midnightblue" d="M185.53,-224.16C181.71,-211.24 176.47,-186.7 184.5,-168 203.85,-122.94 255.66,-94.22 290.52,-79.36"/>
<polygon fill="midnightblue" stroke="midnightblue" points="291.94,-82.57 299.87,-75.54 289.29,-76.09 291.94,-82.57"/>
</g>
<!-- Node22&#45;&gt;Node18 -->
<g id="edge32" class="edge">
<title>Node22&#45;&gt;Node18</title>
<path fill="none" stroke="midnightblue" d="M202.64,-224.32C216.37,-215.9 237.44,-202.97 253.56,-193.07"/>
<polygon fill="midnightblue" stroke="midnightblue" points="255.7,-195.87 262.4,-187.65 252.04,-189.9 255.7,-195.87"/>
</g>
<!-- Node22&#45;&gt;Node19 -->
<g id="edge34" class="edge">
<title>Node22&#45;&gt;Node19</title>
<path fill="none" stroke="midnightblue" d="M187.14,-224.5C185.5,-211.13 184.29,-184.99 196.5,-168 207.82,-152.26 226.13,-141.81 243.6,-134.98"/>
<polygon fill="midnightblue" stroke="midnightblue" points="244.94,-138.22 253.17,-131.55 242.57,-131.63 244.94,-138.22"/>
</g>
</g>
</svg>
