<?xml version="1.0" encoding="UTF-8" standalone="no"?>
<!DOCTYPE svg PUBLIC "-//W3C//DTD SVG 1.1//EN"
 "http://www.w3.org/Graphics/SVG/1.1/DTD/svg11.dtd">
<!-- Generated by graphviz version 2.43.0 (0)
 -->
<!-- Title: /home/runner/work/Raytracer/Raytracer/PluginsExt/ZebraMaterial/ZebraCreator.hpp Pages: 1 -->
<svg width="660pt" height="386pt"
 viewBox="0.00 0.00 660.22 386.00" xmlns="http://www.w3.org/2000/svg" xmlns:xlink="http://www.w3.org/1999/xlink">
<g id="graph0" class="graph" transform="scale(1 1) rotate(0) translate(4 382)">
<title>/home/runner/work/Raytracer/Raytracer/PluginsExt/ZebraMaterial/ZebraCreator.hpp</title>
<polygon fill="white" stroke="transparent" points="-4,4 -4,-382 656.22,-382 656.22,4 -4,4"/>
<!-- Node1 -->
<g id="node1" class="node">
<title>Node1</title>
<g id="a_node1"><a xlink:title=" ">
<polygon fill="#bfbfbf" stroke="black" points="41.5,-336.5 41.5,-377.5 234.5,-377.5 234.5,-336.5 41.5,-336.5"/>
<text text-anchor="start" x="49.5" y="-365.5" font-family="Helvetica,sans-Serif" font-size="10.00">/home/runner/work/Raytracer</text>
<text text-anchor="start" x="49.5" y="-354.5" font-family="Helvetica,sans-Serif" font-size="10.00">/Raytracer/PluginsExt/ZebraMaterial</text>
<text text-anchor="middle" x="138" y="-343.5" font-family="Helvetica,sans-Serif" font-size="10.00">/ZebraCreator.hpp</text>
</a>
</g>
</g>
<!-- Node2 -->
<g id="node2" class="node">
<title>Node2</title>
<g id="a_node2"><a xlink:title=" ">
<polygon fill="white" stroke="#bfbfbf" points="133.5,-112.5 133.5,-131.5 180.5,-131.5 180.5,-112.5 133.5,-112.5"/>
<text text-anchor="middle" x="157" y="-119.5" font-family="Helvetica,sans-Serif" font-size="10.00">vector</text>
</a>
</g>
</g>
<!-- Node1&#45;&gt;Node2 -->
<g id="edge1" class="edge">
<title>Node1&#45;&gt;Node2</title>
<path fill="none" stroke="midnightblue" d="M139.62,-336.13C143.24,-291.78 151.93,-185.18 155.47,-141.82"/>
<polygon fill="midnightblue" stroke="midnightblue" points="158.98,-141.84 156.3,-131.59 152,-141.27 158.98,-141.84"/>
</g>
<!-- Node3 -->
<g id="node3" class="node">
<title>Node3</title>
<g id="a_node3"><a xlink:title=" ">
<polygon fill="white" stroke="#bfbfbf" points="127,-0.5 127,-19.5 185,-19.5 185,-0.5 127,-0.5"/>
<text text-anchor="middle" x="156" y="-7.5" font-family="Helvetica,sans-Serif" font-size="10.00">memory</text>
</a>
</g>
</g>
<!-- Node1&#45;&gt;Node3 -->
<g id="edge2" class="edge">
<title>Node1&#45;&gt;Node3</title>
<path fill="none" stroke="midnightblue" d="M88.57,-336.49C48.97,-317.23 0,-283.59 0,-235 0,-235 0,-235 0,-121 0,-63.88 70.71,-33.81 116.92,-20.26"/>
<polygon fill="midnightblue" stroke="midnightblue" points="117.97,-23.6 126.66,-17.54 116.08,-16.86 117.97,-23.6"/>
</g>
<!-- Node4 -->
<g id="node4" class="node">
<title>Node4</title>
<g id="a_node4"><a xlink:href="a00173.html" target="_top" xlink:title=" ">
<polygon fill="white" stroke="black" points="166,-280.5 166,-299.5 282,-299.5 282,-280.5 166,-280.5"/>
<text text-anchor="middle" x="224" y="-287.5" font-family="Helvetica,sans-Serif" font-size="10.00">IMaterialCreator.hpp</text>
</a>
</g>
</g>
<!-- Node1&#45;&gt;Node4 -->
<g id="edge3" class="edge">
<title>Node1&#45;&gt;Node4</title>
<path fill="none" stroke="midnightblue" d="M163.8,-336.5C176.86,-326.63 192.45,-314.84 204.5,-305.74"/>
<polygon fill="midnightblue" stroke="midnightblue" points="206.68,-308.47 212.55,-299.65 202.46,-302.89 206.68,-308.47"/>
</g>
<!-- Node15 -->
<g id="node15" class="node">
<title>Node15</title>
<g id="a_node15"><a xlink:href="a00119.html" target="_top" xlink:title=" ">
<polygon fill="white" stroke="black" points="36.5,-224.5 36.5,-243.5 109.5,-243.5 109.5,-224.5 36.5,-224.5"/>
<text text-anchor="middle" x="73" y="-231.5" font-family="Helvetica,sans-Serif" font-size="10.00">ILogger.hpp</text>
</a>
</g>
</g>
<!-- Node1&#45;&gt;Node15 -->
<g id="edge25" class="edge">
<title>Node1&#45;&gt;Node15</title>
<path fill="none" stroke="midnightblue" d="M127.41,-336.29C114.93,-313.06 94.39,-274.82 82.43,-252.56"/>
<polygon fill="midnightblue" stroke="midnightblue" points="85.42,-250.73 77.61,-243.57 79.26,-254.04 85.42,-250.73"/>
</g>
<!-- Node17 -->
<g id="node17" class="node">
<title>Node17</title>
<g id="a_node17"><a xlink:href="a00338.html" target="_top" xlink:title=" ">
<polygon fill="white" stroke="black" points="395.5,-280.5 395.5,-299.5 502.5,-299.5 502.5,-280.5 395.5,-280.5"/>
<text text-anchor="middle" x="449" y="-287.5" font-family="Helvetica,sans-Serif" font-size="10.00">ZebraMaterial.hpp</text>
</a>
</g>
</g>
<!-- Node1&#45;&gt;Node17 -->
<g id="edge26" class="edge">
<title>Node1&#45;&gt;Node17</title>
<path fill="none" stroke="midnightblue" d="M231.31,-336.5C286.04,-325.06 353.07,-311.05 398.17,-301.62"/>
<polygon fill="midnightblue" stroke="midnightblue" points="398.94,-305.04 408.01,-299.57 397.51,-298.19 398.94,-305.04"/>
</g>
<!-- Node4&#45;&gt;Node3 -->
<g id="edge4" class="edge">
<title>Node4&#45;&gt;Node3</title>
<path fill="none" stroke="midnightblue" d="M215.8,-280.39C195.24,-258.11 141.95,-195.85 125,-132 115.21,-95.14 133.5,-51.82 145.91,-28.31"/>
<polygon fill="midnightblue" stroke="midnightblue" points="149,-29.97 150.77,-19.52 142.87,-26.58 149,-29.97"/>
</g>
<!-- Node5 -->
<g id="node5" class="node">
<title>Node5</title>
<g id="a_node5"><a xlink:href="a00077.html" target="_top" xlink:title=" ">
<polygon fill="white" stroke="black" points="408.5,-224.5 408.5,-243.5 489.5,-243.5 489.5,-224.5 408.5,-224.5"/>
<text text-anchor="middle" x="449" y="-231.5" font-family="Helvetica,sans-Serif" font-size="10.00">IMaterial.hpp</text>
</a>
</g>
</g>
<!-- Node4&#45;&gt;Node5 -->
<g id="edge5" class="edge">
<title>Node4&#45;&gt;Node5</title>
<path fill="none" stroke="midnightblue" d="M259.65,-280.44C298.66,-271.08 361.27,-256.06 403.72,-245.87"/>
<polygon fill="midnightblue" stroke="midnightblue" points="404.61,-249.25 413.51,-243.52 402.97,-242.45 404.61,-249.25"/>
</g>
<!-- Node9 -->
<g id="node9" class="node">
<title>Node9</title>
<g id="a_node9"><a xlink:href="a00206.html" target="_top" xlink:title=" ">
<polygon fill="white" stroke="black" points="292.5,-56.5 292.5,-75.5 367.5,-75.5 367.5,-56.5 292.5,-56.5"/>
<text text-anchor="middle" x="330" y="-63.5" font-family="Helvetica,sans-Serif" font-size="10.00">ISetting.hpp</text>
</a>
</g>
</g>
<!-- Node4&#45;&gt;Node9 -->
<g id="edge24" class="edge">
<title>Node4&#45;&gt;Node9</title>
<path fill="none" stroke="midnightblue" d="M228.23,-280.37C236.76,-262.94 256.61,-222.29 273,-188 290.54,-151.32 310.75,-108.21 321.77,-84.63"/>
<polygon fill="midnightblue" stroke="midnightblue" points="324.96,-86.07 326.03,-75.52 318.62,-83.1 324.96,-86.07"/>
</g>
<!-- Node4&#45;&gt;Node15 -->
<g id="edge22" class="edge">
<title>Node4&#45;&gt;Node15</title>
<path fill="none" stroke="midnightblue" d="M200.07,-280.44C174.78,-271.4 134.7,-257.06 106.32,-246.92"/>
<polygon fill="midnightblue" stroke="midnightblue" points="107.41,-243.59 96.81,-243.52 105.05,-250.18 107.41,-243.59"/>
</g>
<!-- Node6 -->
<g id="node6" class="node">
<title>Node6</title>
<g id="a_node6"><a xlink:href="a00137.html" target="_top" xlink:title=" ">
<polygon fill="white" stroke="black" points="583.5,-168.5 583.5,-187.5 638.5,-187.5 638.5,-168.5 583.5,-168.5"/>
<text text-anchor="middle" x="611" y="-175.5" font-family="Helvetica,sans-Serif" font-size="10.00">Ray.hpp</text>
</a>
</g>
</g>
<!-- Node5&#45;&gt;Node6 -->
<g id="edge6" class="edge">
<title>Node5&#45;&gt;Node6</title>
<path fill="none" stroke="midnightblue" d="M474.67,-224.44C501.92,-215.36 545.18,-200.94 575.65,-190.78"/>
<polygon fill="midnightblue" stroke="midnightblue" points="577.07,-194 585.45,-187.52 574.86,-187.36 577.07,-194"/>
</g>
<!-- Node7 -->
<g id="node7" class="node">
<title>Node7</title>
<g id="a_node7"><a xlink:href="a00092.html" target="_top" xlink:title=" ">
<polygon fill="white" stroke="black" points="500.5,-112.5 500.5,-131.5 577.5,-131.5 577.5,-112.5 500.5,-112.5"/>
<text text-anchor="middle" x="539" y="-119.5" font-family="Helvetica,sans-Serif" font-size="10.00">Vector3f.hpp</text>
</a>
</g>
</g>
<!-- Node5&#45;&gt;Node7 -->
<g id="edge21" class="edge">
<title>Node5&#45;&gt;Node7</title>
<path fill="none" stroke="midnightblue" d="M449.62,-224.13C450.96,-210.74 455.13,-185.1 468,-168 478.44,-154.13 494.5,-143.43 508.71,-135.96"/>
<polygon fill="midnightblue" stroke="midnightblue" points="510.3,-139.08 517.71,-131.51 507.19,-132.81 510.3,-139.08"/>
</g>
<!-- Node11 -->
<g id="node11" class="node">
<title>Node11</title>
<g id="a_node11"><a xlink:href="a00122.html" target="_top" xlink:title=" ">
<polygon fill="white" stroke="black" points="358,-168.5 358,-187.5 420,-187.5 420,-168.5 358,-168.5"/>
<text text-anchor="middle" x="389" y="-175.5" font-family="Helvetica,sans-Serif" font-size="10.00">Color.hpp</text>
</a>
</g>
</g>
<!-- Node5&#45;&gt;Node11 -->
<g id="edge12" class="edge">
<title>Node5&#45;&gt;Node11</title>
<path fill="none" stroke="midnightblue" d="M439.36,-224.32C430.49,-216.34 417.13,-204.31 406.39,-194.65"/>
<polygon fill="midnightblue" stroke="midnightblue" points="408.59,-191.92 398.82,-187.83 403.91,-197.13 408.59,-191.92"/>
</g>
<!-- Node13 -->
<g id="node13" class="node">
<title>Node13</title>
<g id="a_node13"><a xlink:href="a00200.html" target="_top" xlink:title=" ">
<polygon fill="white" stroke="black" points="166,-168.5 166,-187.5 264,-187.5 264,-168.5 166,-168.5"/>
<text text-anchor="middle" x="215" y="-175.5" font-family="Helvetica,sans-Serif" font-size="10.00">IDisplayable.hpp</text>
</a>
</g>
</g>
<!-- Node5&#45;&gt;Node13 -->
<g id="edge16" class="edge">
<title>Node5&#45;&gt;Node13</title>
<path fill="none" stroke="midnightblue" d="M411.92,-224.44C371.27,-215.06 305.97,-199.99 261.82,-189.8"/>
<polygon fill="midnightblue" stroke="midnightblue" points="262.44,-186.35 251.9,-187.52 260.86,-193.18 262.44,-186.35"/>
</g>
<!-- Node14 -->
<g id="node14" class="node">
<title>Node14</title>
<g id="a_node14"><a xlink:href="a00083.html" target="_top" xlink:title=" ">
<polygon fill="white" stroke="black" points="476.5,-168.5 476.5,-187.5 565.5,-187.5 565.5,-168.5 476.5,-168.5"/>
<text text-anchor="middle" x="521" y="-175.5" font-family="Helvetica,sans-Serif" font-size="10.00">ITransform.hpp</text>
</a>
</g>
</g>
<!-- Node5&#45;&gt;Node14 -->
<g id="edge19" class="edge">
<title>Node5&#45;&gt;Node14</title>
<path fill="none" stroke="midnightblue" d="M460.57,-224.32C471.42,-216.18 487.88,-203.84 500.88,-194.09"/>
<polygon fill="midnightblue" stroke="midnightblue" points="503.32,-196.63 509.22,-187.83 499.12,-191.03 503.32,-196.63"/>
</g>
<!-- Node6&#45;&gt;Node7 -->
<g id="edge7" class="edge">
<title>Node6&#45;&gt;Node7</title>
<path fill="none" stroke="midnightblue" d="M599.43,-168.32C588.58,-160.18 572.12,-147.84 559.12,-138.09"/>
<polygon fill="midnightblue" stroke="midnightblue" points="560.88,-135.03 550.78,-131.83 556.68,-140.63 560.88,-135.03"/>
</g>
<!-- Node8 -->
<g id="node8" class="node">
<title>Node8</title>
<g id="a_node8"><a xlink:title=" ">
<polygon fill="white" stroke="#bfbfbf" points="476.5,-56.5 476.5,-75.5 533.5,-75.5 533.5,-56.5 476.5,-56.5"/>
<text text-anchor="middle" x="505" y="-63.5" font-family="Helvetica,sans-Serif" font-size="10.00">ostream</text>
</a>
</g>
</g>
<!-- Node7&#45;&gt;Node8 -->
<g id="edge8" class="edge">
<title>Node7&#45;&gt;Node8</title>
<path fill="none" stroke="midnightblue" d="M533.39,-112.08C528.63,-104.53 521.68,-93.49 515.85,-84.23"/>
<polygon fill="midnightblue" stroke="midnightblue" points="518.8,-82.35 510.51,-75.75 512.88,-86.08 518.8,-82.35"/>
</g>
<!-- Node7&#45;&gt;Node9 -->
<g id="edge9" class="edge">
<title>Node7&#45;&gt;Node9</title>
<path fill="none" stroke="midnightblue" d="M505.88,-112.44C469.88,-103.14 412.23,-88.25 372.81,-78.06"/>
<polygon fill="midnightblue" stroke="midnightblue" points="373.52,-74.63 362.96,-75.52 371.77,-81.41 373.52,-74.63"/>
</g>
<!-- Node9&#45;&gt;Node3 -->
<g id="edge10" class="edge">
<title>Node9&#45;&gt;Node3</title>
<path fill="none" stroke="midnightblue" d="M302.43,-56.44C272.9,-47.28 225.88,-32.69 193.12,-22.52"/>
<polygon fill="midnightblue" stroke="midnightblue" points="194.03,-19.14 183.44,-19.52 191.96,-25.82 194.03,-19.14"/>
</g>
<!-- Node10 -->
<g id="node10" class="node">
<title>Node10</title>
<g id="a_node10"><a xlink:title=" ">
<polygon fill="white" stroke="#bfbfbf" points="288.5,-0.5 288.5,-19.5 371.5,-19.5 371.5,-0.5 288.5,-0.5"/>
<text text-anchor="middle" x="330" y="-7.5" font-family="Helvetica,sans-Serif" font-size="10.00">libconfig.h++</text>
</a>
</g>
</g>
<!-- Node9&#45;&gt;Node10 -->
<g id="edge11" class="edge">
<title>Node9&#45;&gt;Node10</title>
<path fill="none" stroke="midnightblue" d="M330,-56.08C330,-49.01 330,-38.86 330,-29.99"/>
<polygon fill="midnightblue" stroke="midnightblue" points="333.5,-29.75 330,-19.75 326.5,-29.75 333.5,-29.75"/>
</g>
<!-- Node11&#45;&gt;Node8 -->
<g id="edge14" class="edge">
<title>Node11&#45;&gt;Node8</title>
<path fill="none" stroke="midnightblue" d="M398.1,-168.37C417.58,-149.89 463.56,-106.29 488.4,-82.74"/>
<polygon fill="midnightblue" stroke="midnightblue" points="491.09,-85.01 495.94,-75.59 486.28,-79.93 491.09,-85.01"/>
</g>
<!-- Node11&#45;&gt;Node9 -->
<g id="edge15" class="edge">
<title>Node11&#45;&gt;Node9</title>
<path fill="none" stroke="midnightblue" d="M397.5,-168.17C408.85,-155.26 426.28,-130.74 415,-112 405.71,-96.57 389.17,-86.16 373.13,-79.27"/>
<polygon fill="midnightblue" stroke="midnightblue" points="374.39,-76.01 363.8,-75.61 371.83,-82.52 374.39,-76.01"/>
</g>
<!-- Node12 -->
<g id="node12" class="node">
<title>Node12</title>
<g id="a_node12"><a xlink:title=" ">
<polygon fill="white" stroke="#bfbfbf" points="358,-112.5 358,-131.5 406,-131.5 406,-112.5 358,-112.5"/>
<text text-anchor="middle" x="382" y="-119.5" font-family="Helvetica,sans-Serif" font-size="10.00">mutex</text>
</a>
</g>
</g>
<!-- Node11&#45;&gt;Node12 -->
<g id="edge13" class="edge">
<title>Node11&#45;&gt;Node12</title>
<path fill="none" stroke="midnightblue" d="M387.84,-168.08C386.92,-160.93 385.58,-150.64 384.42,-141.69"/>
<polygon fill="midnightblue" stroke="midnightblue" points="387.89,-141.22 383.13,-131.75 380.95,-142.12 387.89,-141.22"/>
</g>
<!-- Node13&#45;&gt;Node2 -->
<g id="edge18" class="edge">
<title>Node13&#45;&gt;Node2</title>
<path fill="none" stroke="midnightblue" d="M205.68,-168.32C197.11,-160.34 184.19,-148.31 173.81,-138.65"/>
<polygon fill="midnightblue" stroke="midnightblue" points="176.19,-136.09 166.49,-131.83 171.42,-141.21 176.19,-136.09"/>
</g>
<!-- Node13&#45;&gt;Node3 -->
<g id="edge17" class="edge">
<title>Node13&#45;&gt;Node3</title>
<path fill="none" stroke="midnightblue" d="M211.83,-168.08C202.5,-141.83 175.03,-64.55 162.44,-29.12"/>
<polygon fill="midnightblue" stroke="midnightblue" points="165.69,-27.82 159.05,-19.57 159.1,-30.16 165.69,-27.82"/>
</g>
<!-- Node14&#45;&gt;Node7 -->
<g id="edge20" class="edge">
<title>Node14&#45;&gt;Node7</title>
<path fill="none" stroke="midnightblue" d="M523.97,-168.08C526.38,-160.85 529.86,-150.41 532.87,-141.4"/>
<polygon fill="midnightblue" stroke="midnightblue" points="536.24,-142.34 536.08,-131.75 529.6,-140.13 536.24,-142.34"/>
</g>
<!-- Node16 -->
<g id="node16" class="node">
<title>Node16</title>
<g id="a_node16"><a xlink:title=" ">
<polygon fill="white" stroke="#bfbfbf" points="28,-168.5 28,-187.5 72,-187.5 72,-168.5 28,-168.5"/>
<text text-anchor="middle" x="50" y="-175.5" font-family="Helvetica,sans-Serif" font-size="10.00">string</text>
</a>
</g>
</g>
<!-- Node15&#45;&gt;Node16 -->
<g id="edge23" class="edge">
<title>Node15&#45;&gt;Node16</title>
<path fill="none" stroke="midnightblue" d="M69.2,-224.08C66.09,-216.77 61.58,-206.18 57.71,-197.1"/>
<polygon fill="midnightblue" stroke="midnightblue" points="60.87,-195.58 53.73,-187.75 54.43,-198.32 60.87,-195.58"/>
</g>
<!-- Node17&#45;&gt;Node5 -->
<g id="edge32" class="edge">
<title>Node17&#45;&gt;Node5</title>
<path fill="none" stroke="midnightblue" d="M449,-280.08C449,-273.01 449,-262.86 449,-253.99"/>
<polygon fill="midnightblue" stroke="midnightblue" points="452.5,-253.75 449,-243.75 445.5,-253.75 452.5,-253.75"/>
</g>
<!-- Node17&#45;&gt;Node6 -->
<g id="edge28" class="edge">
<title>Node17&#45;&gt;Node6</title>
<path fill="none" stroke="midnightblue" d="M462.09,-280.45C475.82,-271.46 498.01,-256.85 517,-244 542.39,-226.82 571.38,-206.7 590.37,-193.44"/>
<polygon fill="midnightblue" stroke="midnightblue" points="592.39,-196.3 598.59,-187.7 588.39,-190.56 592.39,-196.3"/>
</g>
<!-- Node17&#45;&gt;Node7 -->
<g id="edge31" class="edge">
<title>Node17&#45;&gt;Node7</title>
<path fill="none" stroke="midnightblue" d="M495.05,-280.4C542.99,-268.71 615.53,-242.62 648,-188 664.98,-159.44 624.12,-141.97 587.68,-132.44"/>
<polygon fill="midnightblue" stroke="midnightblue" points="588.12,-128.94 577.57,-129.96 586.45,-135.74 588.12,-128.94"/>
</g>
<!-- Node17&#45;&gt;Node9 -->
<g id="edge27" class="edge">
<title>Node17&#45;&gt;Node9</title>
<path fill="none" stroke="midnightblue" d="M435.18,-280.42C422.37,-272.06 403.2,-258.53 389,-244 367.63,-222.12 360.57,-216.31 349,-188 334.97,-153.67 331.24,-109.97 330.28,-85.59"/>
<polygon fill="midnightblue" stroke="midnightblue" points="333.78,-85.47 330.01,-75.57 326.79,-85.66 333.78,-85.47"/>
</g>
<!-- Node17&#45;&gt;Node11 -->
<g id="edge29" class="edge">
<title>Node17&#45;&gt;Node11</title>
<path fill="none" stroke="midnightblue" d="M435.46,-280.39C424.09,-272.4 408.38,-259.43 400,-244 392.23,-229.7 389.7,-211.23 388.98,-197.64"/>
<polygon fill="midnightblue" stroke="midnightblue" points="392.48,-197.48 388.73,-187.57 385.48,-197.65 392.48,-197.48"/>
</g>
<!-- Node17&#45;&gt;Node14 -->
<g id="edge30" class="edge">
<title>Node17&#45;&gt;Node14</title>
<path fill="none" stroke="midnightblue" d="M461.78,-280.42C473.03,-272.26 489.11,-259.02 499,-244 508.31,-229.85 514.07,-211.37 517.34,-197.73"/>
<polygon fill="midnightblue" stroke="midnightblue" points="520.84,-198.13 519.54,-187.61 514,-196.65 520.84,-198.13"/>
</g>
</g>
</svg>
