<?xml version="1.0" encoding="UTF-8" standalone="no"?>
<!DOCTYPE svg PUBLIC "-//W3C//DTD SVG 1.1//EN"
 "http://www.w3.org/Graphics/SVG/1.1/DTD/svg11.dtd">
<!-- Generated by graphviz version 2.43.0 (0)
 -->
<!-- Title: /home/runner/work/Raytracer/Raytracer/PluginsExt/Triangle/TriangleCreator.hpp Pages: 1 -->
<svg width="828pt" height="442pt"
 viewBox="0.00 0.00 828.00 442.00" xmlns="http://www.w3.org/2000/svg" xmlns:xlink="http://www.w3.org/1999/xlink">
<g id="graph0" class="graph" transform="scale(1 1) rotate(0) translate(4 438)">
<title>/home/runner/work/Raytracer/Raytracer/PluginsExt/Triangle/TriangleCreator.hpp</title>
<polygon fill="white" stroke="transparent" points="-4,4 -4,-438 824,-438 824,4 -4,4"/>
<!-- Node1 -->
<g id="node1" class="node">
<title>Node1</title>
<g id="a_node1"><a xlink:title=" ">
<polygon fill="#bfbfbf" stroke="black" points="419,-392.5 419,-433.5 581,-433.5 581,-392.5 419,-392.5"/>
<text text-anchor="start" x="427" y="-421.5" font-family="Helvetica,sans-Serif" font-size="10.00">/home/runner/work/Raytracer</text>
<text text-anchor="start" x="427" y="-410.5" font-family="Helvetica,sans-Serif" font-size="10.00">/Raytracer/PluginsExt/Triangle</text>
<text text-anchor="middle" x="500" y="-399.5" font-family="Helvetica,sans-Serif" font-size="10.00">/TriangleCreator.hpp</text>
</a>
</g>
</g>
<!-- Node2 -->
<g id="node2" class="node">
<title>Node2</title>
<g id="a_node2"><a xlink:title=" ">
<polygon fill="white" stroke="#bfbfbf" points="35.5,-112.5 35.5,-131.5 82.5,-131.5 82.5,-112.5 35.5,-112.5"/>
<text text-anchor="middle" x="59" y="-119.5" font-family="Helvetica,sans-Serif" font-size="10.00">vector</text>
</a>
</g>
</g>
<!-- Node1&#45;&gt;Node2 -->
<g id="edge1" class="edge">
<title>Node1&#45;&gt;Node2</title>
<path fill="none" stroke="midnightblue" d="M419,-407.38C286.5,-397.58 38,-368.84 38,-291 38,-291 38,-291 38,-233 38,-200.38 47.02,-163.28 53.23,-141.57"/>
<polygon fill="midnightblue" stroke="midnightblue" points="56.67,-142.32 56.17,-131.73 49.96,-140.32 56.67,-142.32"/>
</g>
<!-- Node3 -->
<g id="node3" class="node">
<title>Node3</title>
<g id="a_node3"><a xlink:title=" ">
<polygon fill="white" stroke="#bfbfbf" points="226,-0.5 226,-19.5 284,-19.5 284,-0.5 226,-0.5"/>
<text text-anchor="middle" x="255" y="-7.5" font-family="Helvetica,sans-Serif" font-size="10.00">memory</text>
</a>
</g>
</g>
<!-- Node1&#45;&gt;Node3 -->
<g id="edge2" class="edge">
<title>Node1&#45;&gt;Node3</title>
<path fill="none" stroke="midnightblue" d="M418.83,-409.01C277.24,-401.57 0,-376.12 0,-291 0,-291 0,-291 0,-121 0,-28.17 144.23,-12.75 215.75,-10.81"/>
<polygon fill="midnightblue" stroke="midnightblue" points="215.82,-14.31 225.75,-10.62 215.68,-7.31 215.82,-14.31"/>
</g>
<!-- Node4 -->
<g id="node4" class="node">
<title>Node4</title>
<g id="a_node4"><a xlink:href="a00173.html" target="_top" xlink:title=" ">
<polygon fill="white" stroke="black" points="608,-336.5 608,-355.5 712,-355.5 712,-336.5 608,-336.5"/>
<text text-anchor="middle" x="660" y="-343.5" font-family="Helvetica,sans-Serif" font-size="10.00">IEntityCreator.hpp</text>
</a>
</g>
</g>
<!-- Node1&#45;&gt;Node4 -->
<g id="edge3" class="edge">
<title>Node1&#45;&gt;Node4</title>
<path fill="none" stroke="midnightblue" d="M548.01,-392.5C574.42,-381.77 606.41,-368.77 629.43,-359.42"/>
<polygon fill="midnightblue" stroke="midnightblue" points="630.75,-362.66 638.7,-355.65 628.12,-356.17 630.75,-362.66"/>
</g>
<!-- Node11 -->
<g id="node11" class="node">
<title>Node11</title>
<g id="a_node11"><a xlink:href="a00131.html" target="_top" xlink:title=" ">
<polygon fill="white" stroke="black" points="622.5,-280.5 622.5,-299.5 695.5,-299.5 695.5,-280.5 622.5,-280.5"/>
<text text-anchor="middle" x="659" y="-287.5" font-family="Helvetica,sans-Serif" font-size="10.00">ILogger.hpp</text>
</a>
</g>
</g>
<!-- Node1&#45;&gt;Node11 -->
<g id="edge16" class="edge">
<title>Node1&#45;&gt;Node11</title>
<path fill="none" stroke="midnightblue" d="M525.58,-392.24C545.53,-376.85 573.97,-354.99 599,-336 612.39,-325.84 627.53,-314.48 639.26,-305.72"/>
<polygon fill="midnightblue" stroke="midnightblue" points="641.55,-308.38 647.47,-299.59 637.36,-302.77 641.55,-308.38"/>
</g>
<!-- Node14 -->
<g id="node14" class="node">
<title>Node14</title>
<g id="a_node14"><a xlink:href="a00344.html" target="_top" xlink:title=" ">
<polygon fill="white" stroke="black" points="448.5,-336.5 448.5,-355.5 551.5,-355.5 551.5,-336.5 448.5,-336.5"/>
<text text-anchor="middle" x="500" y="-343.5" font-family="Helvetica,sans-Serif" font-size="10.00">TriangleEntity.hpp</text>
</a>
</g>
</g>
<!-- Node1&#45;&gt;Node14 -->
<g id="edge17" class="edge">
<title>Node1&#45;&gt;Node14</title>
<path fill="none" stroke="midnightblue" d="M500,-392.5C500,-384.07 500,-374.24 500,-365.87"/>
<polygon fill="midnightblue" stroke="midnightblue" points="503.5,-365.65 500,-355.65 496.5,-365.65 503.5,-365.65"/>
</g>
<!-- Node4&#45;&gt;Node3 -->
<g id="edge4" class="edge">
<title>Node4&#45;&gt;Node3</title>
<path fill="none" stroke="midnightblue" d="M698.73,-336.43C746.08,-323.39 820,-293.65 820,-235 820,-235 820,-235 820,-121 820,-67.36 422.54,-26.32 294.35,-14.47"/>
<polygon fill="midnightblue" stroke="midnightblue" points="294.46,-10.97 284.19,-13.55 293.83,-17.94 294.46,-10.97"/>
</g>
<!-- Node5 -->
<g id="node5" class="node">
<title>Node5</title>
<g id="a_node5"><a xlink:href="a00083.html" target="_top" xlink:title=" ">
<polygon fill="white" stroke="black" points="436,-224.5 436,-243.5 504,-243.5 504,-224.5 436,-224.5"/>
<text text-anchor="middle" x="470" y="-231.5" font-family="Helvetica,sans-Serif" font-size="10.00">IEntity.hpp</text>
</a>
</g>
</g>
<!-- Node4&#45;&gt;Node5 -->
<g id="edge5" class="edge">
<title>Node4&#45;&gt;Node5</title>
<path fill="none" stroke="midnightblue" d="M645.09,-336.37C612.21,-317.33 533.24,-271.62 493.58,-248.65"/>
<polygon fill="midnightblue" stroke="midnightblue" points="495.25,-245.57 484.84,-243.59 491.74,-251.63 495.25,-245.57"/>
</g>
<!-- Node9 -->
<g id="node9" class="node">
<title>Node9</title>
<g id="a_node9"><a xlink:href="a00218.html" target="_top" xlink:title=" ">
<polygon fill="white" stroke="black" points="444.5,-56.5 444.5,-75.5 519.5,-75.5 519.5,-56.5 444.5,-56.5"/>
<text text-anchor="middle" x="482" y="-63.5" font-family="Helvetica,sans-Serif" font-size="10.00">ISetting.hpp</text>
</a>
</g>
</g>
<!-- Node4&#45;&gt;Node9 -->
<g id="edge15" class="edge">
<title>Node4&#45;&gt;Node9</title>
<path fill="none" stroke="midnightblue" d="M682.95,-336.48C718.29,-321.71 782,-287.76 782,-235 782,-235 782,-235 782,-177 782,-123.89 614.19,-88.69 529.58,-74.32"/>
<polygon fill="midnightblue" stroke="midnightblue" points="530.13,-70.87 519.69,-72.67 528.98,-77.77 530.13,-70.87"/>
</g>
<!-- Node4&#45;&gt;Node11 -->
<g id="edge12" class="edge">
<title>Node4&#45;&gt;Node11</title>
<path fill="none" stroke="midnightblue" d="M659.83,-336.08C659.7,-329.01 659.52,-318.86 659.35,-309.99"/>
<polygon fill="midnightblue" stroke="midnightblue" points="662.85,-309.68 659.16,-299.75 655.85,-309.81 662.85,-309.68"/>
</g>
<!-- Node6 -->
<g id="node6" class="node">
<title>Node6</title>
<g id="a_node6"><a xlink:href="a00095.html" target="_top" xlink:title=" ">
<polygon fill="white" stroke="black" points="412.5,-168.5 412.5,-187.5 553.5,-187.5 553.5,-168.5 412.5,-168.5"/>
<text text-anchor="middle" x="483" y="-175.5" font-family="Helvetica,sans-Serif" font-size="10.00">Transform/ITransform.hpp</text>
</a>
</g>
</g>
<!-- Node5&#45;&gt;Node6 -->
<g id="edge6" class="edge">
<title>Node5&#45;&gt;Node6</title>
<path fill="none" stroke="midnightblue" d="M472.15,-224.08C473.87,-216.93 476.35,-206.64 478.5,-197.69"/>
<polygon fill="midnightblue" stroke="midnightblue" points="481.96,-198.29 480.89,-187.75 475.15,-196.65 481.96,-198.29"/>
</g>
<!-- Node7 -->
<g id="node7" class="node">
<title>Node7</title>
<g id="a_node7"><a xlink:href="a00104.html" target="_top" xlink:title=" ">
<polygon fill="white" stroke="black" points="443.5,-112.5 443.5,-131.5 520.5,-131.5 520.5,-112.5 443.5,-112.5"/>
<text text-anchor="middle" x="482" y="-119.5" font-family="Helvetica,sans-Serif" font-size="10.00">Vector3f.hpp</text>
</a>
</g>
</g>
<!-- Node6&#45;&gt;Node7 -->
<g id="edge7" class="edge">
<title>Node6&#45;&gt;Node7</title>
<path fill="none" stroke="midnightblue" d="M482.83,-168.08C482.7,-161.01 482.52,-150.86 482.35,-141.99"/>
<polygon fill="midnightblue" stroke="midnightblue" points="485.85,-141.68 482.16,-131.75 478.85,-141.81 485.85,-141.68"/>
</g>
<!-- Node8 -->
<g id="node8" class="node">
<title>Node8</title>
<g id="a_node8"><a xlink:title=" ">
<polygon fill="white" stroke="#bfbfbf" points="256.5,-56.5 256.5,-75.5 313.5,-75.5 313.5,-56.5 256.5,-56.5"/>
<text text-anchor="middle" x="285" y="-63.5" font-family="Helvetica,sans-Serif" font-size="10.00">ostream</text>
</a>
</g>
</g>
<!-- Node7&#45;&gt;Node8 -->
<g id="edge8" class="edge">
<title>Node7&#45;&gt;Node8</title>
<path fill="none" stroke="midnightblue" d="M450.78,-112.44C416.27,-102.98 360.65,-87.74 323.48,-77.55"/>
<polygon fill="midnightblue" stroke="midnightblue" points="324.08,-74.08 313.51,-74.82 322.23,-80.83 324.08,-74.08"/>
</g>
<!-- Node7&#45;&gt;Node9 -->
<g id="edge9" class="edge">
<title>Node7&#45;&gt;Node9</title>
<path fill="none" stroke="midnightblue" d="M482,-112.08C482,-105.01 482,-94.86 482,-85.99"/>
<polygon fill="midnightblue" stroke="midnightblue" points="485.5,-85.75 482,-75.75 478.5,-85.75 485.5,-85.75"/>
</g>
<!-- Node9&#45;&gt;Node3 -->
<g id="edge10" class="edge">
<title>Node9&#45;&gt;Node3</title>
<path fill="none" stroke="midnightblue" d="M446.03,-56.44C404.6,-46.59 336.76,-30.45 294.06,-20.29"/>
<polygon fill="midnightblue" stroke="midnightblue" points="294.84,-16.88 284.3,-17.97 293.22,-23.69 294.84,-16.88"/>
</g>
<!-- Node10 -->
<g id="node10" class="node">
<title>Node10</title>
<g id="a_node10"><a xlink:title=" ">
<polygon fill="white" stroke="#bfbfbf" points="440.5,-0.5 440.5,-19.5 523.5,-19.5 523.5,-0.5 440.5,-0.5"/>
<text text-anchor="middle" x="482" y="-7.5" font-family="Helvetica,sans-Serif" font-size="10.00">libconfig.h++</text>
</a>
</g>
</g>
<!-- Node9&#45;&gt;Node10 -->
<g id="edge11" class="edge">
<title>Node9&#45;&gt;Node10</title>
<path fill="none" stroke="midnightblue" d="M482,-56.08C482,-49.01 482,-38.86 482,-29.99"/>
<polygon fill="midnightblue" stroke="midnightblue" points="485.5,-29.75 482,-19.75 478.5,-29.75 485.5,-29.75"/>
</g>
<!-- Node12 -->
<g id="node12" class="node">
<title>Node12</title>
<g id="a_node12"><a xlink:title=" ">
<polygon fill="white" stroke="#bfbfbf" points="626.5,-224.5 626.5,-243.5 691.5,-243.5 691.5,-224.5 626.5,-224.5"/>
<text text-anchor="middle" x="659" y="-231.5" font-family="Helvetica,sans-Serif" font-size="10.00">functional</text>
</a>
</g>
</g>
<!-- Node11&#45;&gt;Node12 -->
<g id="edge13" class="edge">
<title>Node11&#45;&gt;Node12</title>
<path fill="none" stroke="midnightblue" d="M659,-280.08C659,-273.01 659,-262.86 659,-253.99"/>
<polygon fill="midnightblue" stroke="midnightblue" points="662.5,-253.75 659,-243.75 655.5,-253.75 662.5,-253.75"/>
</g>
<!-- Node13 -->
<g id="node13" class="node">
<title>Node13</title>
<g id="a_node13"><a xlink:title=" ">
<polygon fill="white" stroke="#bfbfbf" points="710,-224.5 710,-243.5 754,-243.5 754,-224.5 710,-224.5"/>
<text text-anchor="middle" x="732" y="-231.5" font-family="Helvetica,sans-Serif" font-size="10.00">string</text>
</a>
</g>
</g>
<!-- Node11&#45;&gt;Node13 -->
<g id="edge14" class="edge">
<title>Node11&#45;&gt;Node13</title>
<path fill="none" stroke="midnightblue" d="M670.73,-280.32C681.84,-272.11 698.74,-259.6 711.98,-249.81"/>
<polygon fill="midnightblue" stroke="midnightblue" points="714.1,-252.59 720.06,-243.83 709.94,-246.97 714.1,-252.59"/>
</g>
<!-- Node14&#45;&gt;Node11 -->
<g id="edge19" class="edge">
<title>Node14&#45;&gt;Node11</title>
<path fill="none" stroke="midnightblue" d="M525.19,-336.44C551.94,-327.36 594.4,-312.94 624.31,-302.78"/>
<polygon fill="midnightblue" stroke="midnightblue" points="625.58,-306.05 633.92,-299.52 623.33,-299.42 625.58,-306.05"/>
</g>
<!-- Node14&#45;&gt;Node12 -->
<g id="edge18" class="edge">
<title>Node14&#45;&gt;Node12</title>
<path fill="none" stroke="midnightblue" d="M512.48,-336.37C539.64,-317.57 604.41,-272.77 637.99,-249.53"/>
<polygon fill="midnightblue" stroke="midnightblue" points="640.35,-252.16 646.58,-243.59 636.37,-246.4 640.35,-252.16"/>
</g>
<!-- Node15 -->
<g id="node15" class="node">
<title>Node15</title>
<g id="a_node15"><a xlink:href="a00092.html" target="_top" xlink:title=" ">
<polygon fill="white" stroke="black" points="246.5,-280.5 246.5,-299.5 331.5,-299.5 331.5,-280.5 246.5,-280.5"/>
<text text-anchor="middle" x="289" y="-287.5" font-family="Helvetica,sans-Serif" font-size="10.00">IPrimitive.hpp</text>
</a>
</g>
</g>
<!-- Node14&#45;&gt;Node15 -->
<g id="edge20" class="edge">
<title>Node14&#45;&gt;Node15</title>
<path fill="none" stroke="midnightblue" d="M466.57,-336.44C430.14,-327.12 371.77,-312.18 331.97,-302"/>
<polygon fill="midnightblue" stroke="midnightblue" points="332.83,-298.61 322.28,-299.52 331.1,-305.39 332.83,-298.61"/>
</g>
<!-- Node21 -->
<g id="node21" class="node">
<title>Node21</title>
<g id="a_node21"><a xlink:href="a00089.html" target="_top" xlink:title=" ">
<polygon fill="white" stroke="black" points="336.5,-224.5 336.5,-243.5 417.5,-243.5 417.5,-224.5 336.5,-224.5"/>
<text text-anchor="middle" x="377" y="-231.5" font-family="Helvetica,sans-Serif" font-size="10.00">IMaterial.hpp</text>
</a>
</g>
</g>
<!-- Node14&#45;&gt;Node21 -->
<g id="edge44" class="edge">
<title>Node14&#45;&gt;Node21</title>
<path fill="none" stroke="midnightblue" d="M490.35,-336.37C469.6,-317.81 420.51,-273.91 394.26,-250.44"/>
<polygon fill="midnightblue" stroke="midnightblue" points="396.39,-247.65 386.61,-243.59 391.73,-252.87 396.39,-247.65"/>
</g>
<!-- Node23 -->
<g id="node23" class="node">
<title>Node23</title>
<g id="a_node23"><a xlink:href="a00098.html" target="_top" xlink:title=" ">
<polygon fill="white" stroke="black" points="522,-224.5 522,-243.5 608,-243.5 608,-224.5 522,-224.5"/>
<text text-anchor="middle" x="565" y="-231.5" font-family="Helvetica,sans-Serif" font-size="10.00">Transform.hpp</text>
</a>
</g>
</g>
<!-- Node14&#45;&gt;Node23 -->
<g id="edge40" class="edge">
<title>Node14&#45;&gt;Node23</title>
<path fill="none" stroke="midnightblue" d="M504.28,-336.44C510.64,-323.88 523.12,-299.78 535,-280 540.62,-270.64 547.32,-260.51 552.97,-252.22"/>
<polygon fill="midnightblue" stroke="midnightblue" points="555.98,-254.02 558.77,-243.81 550.21,-250.05 555.98,-254.02"/>
</g>
<!-- Node15&#45;&gt;Node5 -->
<g id="edge30" class="edge">
<title>Node15&#45;&gt;Node5</title>
<path fill="none" stroke="midnightblue" d="M317.68,-280.44C348.53,-271.24 397.73,-256.56 431.83,-246.39"/>
<polygon fill="midnightblue" stroke="midnightblue" points="432.87,-249.73 441.45,-243.52 430.87,-243.02 432.87,-249.73"/>
</g>
<!-- Node15&#45;&gt;Node7 -->
<g id="edge39" class="edge">
<title>Node15&#45;&gt;Node7</title>
<path fill="none" stroke="midnightblue" d="M285.89,-280.18C278.81,-258.4 264.12,-201.38 291,-168 299.98,-156.85 379.58,-140.93 433.14,-131.32"/>
<polygon fill="midnightblue" stroke="midnightblue" points="433.92,-134.74 443.15,-129.54 432.69,-127.84 433.92,-134.74"/>
</g>
<!-- Node16 -->
<g id="node16" class="node">
<title>Node16</title>
<g id="a_node16"><a xlink:title=" ">
<polygon fill="white" stroke="#bfbfbf" points="148,-224.5 148,-243.5 204,-243.5 204,-224.5 148,-224.5"/>
<text text-anchor="middle" x="176" y="-231.5" font-family="Helvetica,sans-Serif" font-size="10.00">optional</text>
</a>
</g>
</g>
<!-- Node15&#45;&gt;Node16 -->
<g id="edge21" class="edge">
<title>Node15&#45;&gt;Node16</title>
<path fill="none" stroke="midnightblue" d="M271.09,-280.44C252.75,-271.68 223.99,-257.94 202.91,-247.86"/>
<polygon fill="midnightblue" stroke="midnightblue" points="204.35,-244.67 193.82,-243.52 201.33,-250.99 204.35,-244.67"/>
</g>
<!-- Node17 -->
<g id="node17" class="node">
<title>Node17</title>
<g id="a_node17"><a xlink:href="a00134.html" target="_top" xlink:title=" ">
<polygon fill="white" stroke="black" points="182,-168.5 182,-187.5 244,-187.5 244,-168.5 182,-168.5"/>
<text text-anchor="middle" x="213" y="-175.5" font-family="Helvetica,sans-Serif" font-size="10.00">Color.hpp</text>
</a>
</g>
</g>
<!-- Node15&#45;&gt;Node17 -->
<g id="edge22" class="edge">
<title>Node15&#45;&gt;Node17</title>
<path fill="none" stroke="midnightblue" d="M282.55,-280.46C275.8,-271.48 264.97,-256.88 256,-244 244.8,-227.92 232.5,-209.23 223.94,-196.03"/>
<polygon fill="midnightblue" stroke="midnightblue" points="226.8,-194 218.44,-187.5 220.92,-197.8 226.8,-194"/>
</g>
<!-- Node20 -->
<g id="node20" class="node">
<title>Node20</title>
<g id="a_node20"><a xlink:href="a00212.html" target="_top" xlink:title=" ">
<polygon fill="white" stroke="black" points="66,-168.5 66,-187.5 164,-187.5 164,-168.5 66,-168.5"/>
<text text-anchor="middle" x="115" y="-175.5" font-family="Helvetica,sans-Serif" font-size="10.00">IDisplayable.hpp</text>
</a>
</g>
</g>
<!-- Node15&#45;&gt;Node20 -->
<g id="edge27" class="edge">
<title>Node15&#45;&gt;Node20</title>
<path fill="none" stroke="midnightblue" d="M246.42,-286.36C213.26,-282.14 168.13,-271.37 139,-244 126.15,-231.92 120.14,-212.36 117.36,-197.84"/>
<polygon fill="midnightblue" stroke="midnightblue" points="120.81,-197.27 115.8,-187.94 113.9,-198.36 120.81,-197.27"/>
</g>
<!-- Node15&#45;&gt;Node21 -->
<g id="edge31" class="edge">
<title>Node15&#45;&gt;Node21</title>
<path fill="none" stroke="midnightblue" d="M303.14,-280.32C316.87,-271.9 337.94,-258.97 354.06,-249.07"/>
<polygon fill="midnightblue" stroke="midnightblue" points="356.2,-251.87 362.9,-243.65 352.54,-245.9 356.2,-251.87"/>
</g>
<!-- Node22 -->
<g id="node22" class="node">
<title>Node22</title>
<g id="a_node22"><a xlink:href="a00149.html" target="_top" xlink:title=" ">
<polygon fill="white" stroke="black" points="300.5,-168.5 300.5,-187.5 355.5,-187.5 355.5,-168.5 300.5,-168.5"/>
<text text-anchor="middle" x="328" y="-175.5" font-family="Helvetica,sans-Serif" font-size="10.00">Ray.hpp</text>
</a>
</g>
</g>
<!-- Node15&#45;&gt;Node22 -->
<g id="edge38" class="edge">
<title>Node15&#45;&gt;Node22</title>
<path fill="none" stroke="midnightblue" d="M292.06,-280.37C298.38,-262.54 313,-221.3 321.52,-197.27"/>
<polygon fill="midnightblue" stroke="midnightblue" points="324.91,-198.19 324.95,-187.59 318.31,-195.85 324.91,-198.19"/>
</g>
<!-- Node17&#45;&gt;Node8 -->
<g id="edge24" class="edge">
<title>Node17&#45;&gt;Node8</title>
<path fill="none" stroke="midnightblue" d="M201.23,-168.41C185.42,-155.8 160.77,-131.65 174,-112 190.08,-88.13 221.23,-76.91 246.44,-71.65"/>
<polygon fill="midnightblue" stroke="midnightblue" points="247.28,-75.06 256.47,-69.8 246,-68.17 247.28,-75.06"/>
</g>
<!-- Node17&#45;&gt;Node9 -->
<g id="edge26" class="edge">
<title>Node17&#45;&gt;Node9</title>
<path fill="none" stroke="midnightblue" d="M244.09,-170.02C292.41,-159.07 381.39,-138.44 395,-132 421.99,-119.23 448.89,-97.38 465.47,-82.57"/>
<polygon fill="midnightblue" stroke="midnightblue" points="468.13,-84.89 473.15,-75.56 463.41,-79.72 468.13,-84.89"/>
</g>
<!-- Node18 -->
<g id="node18" class="node">
<title>Node18</title>
<g id="a_node18"><a xlink:title=" ">
<polygon fill="white" stroke="#bfbfbf" points="183,-112.5 183,-131.5 231,-131.5 231,-112.5 183,-112.5"/>
<text text-anchor="middle" x="207" y="-119.5" font-family="Helvetica,sans-Serif" font-size="10.00">mutex</text>
</a>
</g>
</g>
<!-- Node17&#45;&gt;Node18 -->
<g id="edge23" class="edge">
<title>Node17&#45;&gt;Node18</title>
<path fill="none" stroke="midnightblue" d="M212.01,-168.08C211.21,-160.93 210.07,-150.64 209.08,-141.69"/>
<polygon fill="midnightblue" stroke="midnightblue" points="212.56,-141.3 207.97,-131.75 205.6,-142.08 212.56,-141.3"/>
</g>
<!-- Node19 -->
<g id="node19" class="node">
<title>Node19</title>
<g id="a_node19"><a xlink:title=" ">
<polygon fill="white" stroke="#bfbfbf" points="249.5,-112.5 249.5,-131.5 386.5,-131.5 386.5,-112.5 249.5,-112.5"/>
<text text-anchor="middle" x="318" y="-119.5" font-family="Helvetica,sans-Serif" font-size="10.00">SFML/Graphics/Color.hpp</text>
</a>
</g>
</g>
<!-- Node17&#45;&gt;Node19 -->
<g id="edge25" class="edge">
<title>Node17&#45;&gt;Node19</title>
<path fill="none" stroke="midnightblue" d="M229.87,-168.32C246.71,-159.66 272.81,-146.24 292.24,-136.25"/>
<polygon fill="midnightblue" stroke="midnightblue" points="293.88,-139.34 301.17,-131.65 290.68,-133.12 293.88,-139.34"/>
</g>
<!-- Node20&#45;&gt;Node2 -->
<g id="edge29" class="edge">
<title>Node20&#45;&gt;Node2</title>
<path fill="none" stroke="midnightblue" d="M106,-168.32C97.81,-160.42 85.49,-148.55 75.53,-138.94"/>
<polygon fill="midnightblue" stroke="midnightblue" points="77.79,-136.26 68.16,-131.83 72.93,-141.29 77.79,-136.26"/>
</g>
<!-- Node20&#45;&gt;Node3 -->
<g id="edge28" class="edge">
<title>Node20&#45;&gt;Node3</title>
<path fill="none" stroke="midnightblue" d="M121.62,-168.49C131.39,-155.99 150.33,-131.97 167,-112 192.43,-81.54 223.06,-46.82 240.65,-27.04"/>
<polygon fill="midnightblue" stroke="midnightblue" points="243.3,-29.33 247.34,-19.54 238.08,-24.68 243.3,-29.33"/>
</g>
<!-- Node21&#45;&gt;Node6 -->
<g id="edge36" class="edge">
<title>Node21&#45;&gt;Node6</title>
<path fill="none" stroke="midnightblue" d="M394.03,-224.32C411.03,-215.66 437.38,-202.24 456.99,-192.25"/>
<polygon fill="midnightblue" stroke="midnightblue" points="458.69,-195.31 466.01,-187.65 455.51,-189.08 458.69,-195.31"/>
</g>
<!-- Node21&#45;&gt;Node7 -->
<g id="edge37" class="edge">
<title>Node21&#45;&gt;Node7</title>
<path fill="none" stroke="midnightblue" d="M378.53,-224.47C381.3,-211.06 388.31,-184.86 403,-168 415.28,-153.91 433.1,-143.22 448.71,-135.81"/>
<polygon fill="midnightblue" stroke="midnightblue" points="450.38,-138.9 458.08,-131.62 447.52,-132.51 450.38,-138.9"/>
</g>
<!-- Node21&#45;&gt;Node17 -->
<g id="edge34" class="edge">
<title>Node21&#45;&gt;Node17</title>
<path fill="none" stroke="midnightblue" d="M351.01,-224.44C323.3,-215.32 279.25,-200.81 248.38,-190.65"/>
<polygon fill="midnightblue" stroke="midnightblue" points="249.46,-187.32 238.86,-187.52 247.27,-193.97 249.46,-187.32"/>
</g>
<!-- Node21&#45;&gt;Node20 -->
<g id="edge35" class="edge">
<title>Node21&#45;&gt;Node20</title>
<path fill="none" stroke="midnightblue" d="M336.35,-224.62C290.63,-215.2 216.29,-199.88 166.53,-189.62"/>
<polygon fill="midnightblue" stroke="midnightblue" points="167.11,-186.17 156.61,-187.58 165.7,-193.02 167.11,-186.17"/>
</g>
<!-- Node21&#45;&gt;Node22 -->
<g id="edge32" class="edge">
<title>Node21&#45;&gt;Node22</title>
<path fill="none" stroke="midnightblue" d="M368.91,-224.08C361.84,-216.3 351.41,-204.8 342.85,-195.37"/>
<polygon fill="midnightblue" stroke="midnightblue" points="345.25,-192.8 335.94,-187.75 340.07,-197.51 345.25,-192.8"/>
</g>
<!-- Node22&#45;&gt;Node7 -->
<g id="edge33" class="edge">
<title>Node22&#45;&gt;Node7</title>
<path fill="none" stroke="midnightblue" d="M352.4,-168.44C378.2,-159.4 419.08,-145.06 448.02,-134.92"/>
<polygon fill="midnightblue" stroke="midnightblue" points="449.43,-138.13 457.71,-131.52 447.12,-131.52 449.43,-138.13"/>
</g>
<!-- Node23&#45;&gt;Node6 -->
<g id="edge41" class="edge">
<title>Node23&#45;&gt;Node6</title>
<path fill="none" stroke="midnightblue" d="M551.83,-224.32C539.15,-215.98 519.77,-203.21 504.79,-193.35"/>
<polygon fill="midnightblue" stroke="midnightblue" points="506.42,-190.23 496.14,-187.65 502.57,-196.08 506.42,-190.23"/>
</g>
<!-- Node23&#45;&gt;Node7 -->
<g id="edge43" class="edge">
<title>Node23&#45;&gt;Node7</title>
<path fill="none" stroke="midnightblue" d="M567.28,-224.24C570.19,-211 573.69,-185.55 563,-168 553.78,-152.87 537.5,-142.43 521.94,-135.44"/>
<polygon fill="midnightblue" stroke="midnightblue" points="523,-132.09 512.42,-131.53 520.34,-138.57 523,-132.09"/>
</g>
<!-- Node23&#45;&gt;Node9 -->
<g id="edge42" class="edge">
<title>Node23&#45;&gt;Node9</title>
<path fill="none" stroke="midnightblue" d="M570.15,-224.37C577,-211.7 587.43,-187.48 580,-168 565.48,-129.95 528.32,-98.62 504.15,-81.4"/>
<polygon fill="midnightblue" stroke="midnightblue" points="505.82,-78.3 495.61,-75.51 501.85,-84.07 505.82,-78.3"/>
</g>
</g>
</svg>
