<?xml version="1.0" encoding="UTF-8" standalone="no"?>
<!DOCTYPE svg PUBLIC "-//W3C//DTD SVG 1.1//EN"
 "http://www.w3.org/Graphics/SVG/1.1/DTD/svg11.dtd">
<!-- Generated by graphviz version 2.43.0 (0)
 -->
<!-- Title: RayTracer::Entities::IEntity Pages: 1 -->
<svg width="2284pt" height="606pt"
 viewBox="0.00 0.00 2283.50 606.00" xmlns="http://www.w3.org/2000/svg" xmlns:xlink="http://www.w3.org/1999/xlink">
<g id="graph0" class="graph" transform="scale(1 1) rotate(0) translate(4 602)">
<title>RayTracer::Entities::IEntity</title>
<polygon fill="white" stroke="transparent" points="-4,4 -4,-602 2279.5,-602 2279.5,4 -4,4"/>
<!-- Node1 -->
<g id="node1" class="node">
<title>Node1</title>
<g id="a_node1"><a xlink:title="The IEntity class.">
<polygon fill="#bfbfbf" stroke="black" points="683.5,-496.5 683.5,-597.5 790.5,-597.5 790.5,-496.5 683.5,-496.5"/>
<text text-anchor="start" x="691.5" y="-585.5" font-family="Helvetica,sans-Serif" font-size="10.00">RayTracer::Entities</text>
<text text-anchor="middle" x="737" y="-574.5" font-family="Helvetica,sans-Serif" font-size="10.00">::IEntity</text>
<polyline fill="none" stroke="black" points="683.5,-567.5 790.5,-567.5 "/>
<text text-anchor="middle" x="737" y="-555.5" font-family="Helvetica,sans-Serif" font-size="10.00"> </text>
<polyline fill="none" stroke="black" points="683.5,-548.5 790.5,-548.5 "/>
<text text-anchor="start" x="691.5" y="-536.5" font-family="Helvetica,sans-Serif" font-size="10.00">+ ~IEntity()</text>
<text text-anchor="start" x="691.5" y="-525.5" font-family="Helvetica,sans-Serif" font-size="10.00">+ getTransform()</text>
<text text-anchor="start" x="691.5" y="-514.5" font-family="Helvetica,sans-Serif" font-size="10.00">+ getTransform()</text>
<text text-anchor="start" x="691.5" y="-503.5" font-family="Helvetica,sans-Serif" font-size="10.00">+ getType()</text>
</a>
</g>
</g>
<!-- Node2 -->
<g id="node2" class="node">
<title>Node2</title>
<g id="a_node2"><a xlink:href="a01171.html" target="_top" xlink:title="The ICamera class.">
<polygon fill="white" stroke="black" points="254.5,-314.5 254.5,-459.5 361.5,-459.5 361.5,-314.5 254.5,-314.5"/>
<text text-anchor="start" x="262.5" y="-447.5" font-family="Helvetica,sans-Serif" font-size="10.00">RayTracer::Entities</text>
<text text-anchor="middle" x="308" y="-436.5" font-family="Helvetica,sans-Serif" font-size="10.00">::ICamera</text>
<polyline fill="none" stroke="black" points="254.5,-429.5 361.5,-429.5 "/>
<text text-anchor="middle" x="308" y="-417.5" font-family="Helvetica,sans-Serif" font-size="10.00"> </text>
<polyline fill="none" stroke="black" points="254.5,-410.5 361.5,-410.5 "/>
<text text-anchor="start" x="262.5" y="-398.5" font-family="Helvetica,sans-Serif" font-size="10.00">+ ~ICamera()</text>
<text text-anchor="start" x="262.5" y="-387.5" font-family="Helvetica,sans-Serif" font-size="10.00">+ getFocal()</text>
<text text-anchor="start" x="262.5" y="-376.5" font-family="Helvetica,sans-Serif" font-size="10.00">+ setFocal()</text>
<text text-anchor="start" x="262.5" y="-365.5" font-family="Helvetica,sans-Serif" font-size="10.00">+ setSize()</text>
<text text-anchor="start" x="262.5" y="-354.5" font-family="Helvetica,sans-Serif" font-size="10.00">+ getSize()</text>
<text text-anchor="start" x="262.5" y="-343.5" font-family="Helvetica,sans-Serif" font-size="10.00">+ render()</text>
<text text-anchor="start" x="262.5" y="-332.5" font-family="Helvetica,sans-Serif" font-size="10.00">+ getImage()</text>
<text text-anchor="start" x="262.5" y="-321.5" font-family="Helvetica,sans-Serif" font-size="10.00">+ getFilters()</text>
</a>
</g>
</g>
<!-- Node1&#45;&gt;Node2 -->
<g id="edge1" class="edge">
<title>Node1&#45;&gt;Node2</title>
<path fill="none" stroke="midnightblue" d="M673.62,-522.66C589.1,-491.53 440.97,-436.97 361.68,-407.77"/>
<polygon fill="none" stroke="midnightblue" points="672.51,-525.98 683.1,-526.15 674.93,-519.41 672.51,-525.98"/>
</g>
<!-- Node6 -->
<g id="node6" class="node">
<title>Node6</title>
<g id="a_node6"><a xlink:href="a01179.html" target="_top" xlink:title="The ILight class.">
<polygon fill="white" stroke="black" points="683.5,-325.5 683.5,-448.5 790.5,-448.5 790.5,-325.5 683.5,-325.5"/>
<text text-anchor="start" x="691.5" y="-436.5" font-family="Helvetica,sans-Serif" font-size="10.00">RayTracer::Entities</text>
<text text-anchor="middle" x="737" y="-425.5" font-family="Helvetica,sans-Serif" font-size="10.00">::ILight</text>
<polyline fill="none" stroke="black" points="683.5,-418.5 790.5,-418.5 "/>
<text text-anchor="middle" x="737" y="-406.5" font-family="Helvetica,sans-Serif" font-size="10.00"> </text>
<polyline fill="none" stroke="black" points="683.5,-399.5 790.5,-399.5 "/>
<text text-anchor="start" x="691.5" y="-387.5" font-family="Helvetica,sans-Serif" font-size="10.00">+ ~ILight()</text>
<text text-anchor="start" x="691.5" y="-376.5" font-family="Helvetica,sans-Serif" font-size="10.00">+ getColor()</text>
<text text-anchor="start" x="691.5" y="-365.5" font-family="Helvetica,sans-Serif" font-size="10.00">+ getColor()</text>
<text text-anchor="start" x="691.5" y="-354.5" font-family="Helvetica,sans-Serif" font-size="10.00">+ setColor()</text>
<text text-anchor="start" x="691.5" y="-343.5" font-family="Helvetica,sans-Serif" font-size="10.00">+ isAmbient()</text>
<text text-anchor="start" x="691.5" y="-332.5" font-family="Helvetica,sans-Serif" font-size="10.00">+ getPower()</text>
</a>
</g>
</g>
<!-- Node1&#45;&gt;Node6 -->
<g id="edge5" class="edge">
<title>Node1&#45;&gt;Node6</title>
<path fill="none" stroke="midnightblue" d="M737,-486.31C737,-474.03 737,-461.09 737,-448.77"/>
<polygon fill="none" stroke="midnightblue" points="733.5,-486.44 737,-496.44 740.5,-486.44 733.5,-486.44"/>
</g>
<!-- Node10 -->
<g id="node10" class="node">
<title>Node10</title>
<g id="a_node10"><a xlink:href="a01187.html" target="_top" xlink:title="The IPrimitive class.">
<polygon fill="white" stroke="black" points="1470,-331 1470,-443 1582,-443 1582,-331 1470,-331"/>
<text text-anchor="start" x="1478" y="-431" font-family="Helvetica,sans-Serif" font-size="10.00">RayTracer::Entities</text>
<text text-anchor="middle" x="1526" y="-420" font-family="Helvetica,sans-Serif" font-size="10.00">::IPrimitive</text>
<polyline fill="none" stroke="black" points="1470,-413 1582,-413 "/>
<text text-anchor="middle" x="1526" y="-401" font-family="Helvetica,sans-Serif" font-size="10.00"> </text>
<polyline fill="none" stroke="black" points="1470,-394 1582,-394 "/>
<text text-anchor="start" x="1478" y="-382" font-family="Helvetica,sans-Serif" font-size="10.00">+ ~IPrimitive()</text>
<text text-anchor="start" x="1478" y="-371" font-family="Helvetica,sans-Serif" font-size="10.00">+ getColor()</text>
<text text-anchor="start" x="1478" y="-360" font-family="Helvetica,sans-Serif" font-size="10.00">+ isCollided()</text>
<text text-anchor="start" x="1478" y="-349" font-family="Helvetica,sans-Serif" font-size="10.00">+ isCollided()</text>
<text text-anchor="start" x="1478" y="-338" font-family="Helvetica,sans-Serif" font-size="10.00">+ redirectionLight()</text>
</a>
</g>
</g>
<!-- Node1&#45;&gt;Node10 -->
<g id="edge9" class="edge">
<title>Node1&#45;&gt;Node10</title>
<path fill="none" stroke="midnightblue" d="M800.63,-533.26C951.18,-503.11 1327.31,-427.79 1469.95,-399.22"/>
<polygon fill="none" stroke="midnightblue" points="799.73,-529.87 790.61,-535.26 801.1,-536.73 799.73,-529.87"/>
</g>
<!-- Node3 -->
<g id="node3" class="node">
<title>Node3</title>
<g id="a_node3"><a xlink:href="a01451.html" target="_top" xlink:title=" ">
<polygon fill="white" stroke="black" points="0,-11.5 0,-266.5 134,-266.5 134,-11.5 0,-11.5"/>
<text text-anchor="start" x="8" y="-254.5" font-family="Helvetica,sans-Serif" font-size="10.00">RayTracer::PluginsExt</text>
<text text-anchor="middle" x="67" y="-243.5" font-family="Helvetica,sans-Serif" font-size="10.00">::Camera::CameraEntity</text>
<polyline fill="none" stroke="black" points="0,-236.5 134,-236.5 "/>
<text text-anchor="start" x="8" y="-224.5" font-family="Helvetica,sans-Serif" font-size="10.00">&#45; _image</text>
<text text-anchor="start" x="8" y="-213.5" font-family="Helvetica,sans-Serif" font-size="10.00">&#45; _size</text>
<text text-anchor="start" x="8" y="-202.5" font-family="Helvetica,sans-Serif" font-size="10.00">&#45; _focal</text>
<text text-anchor="start" x="8" y="-191.5" font-family="Helvetica,sans-Serif" font-size="10.00">&#45; _filters</text>
<text text-anchor="start" x="8" y="-180.5" font-family="Helvetica,sans-Serif" font-size="10.00">&#45; _transform</text>
<text text-anchor="start" x="8" y="-169.5" font-family="Helvetica,sans-Serif" font-size="10.00">&#45; _maxThread</text>
<text text-anchor="start" x="8" y="-158.5" font-family="Helvetica,sans-Serif" font-size="10.00">&#45; _logger</text>
<polyline fill="none" stroke="black" points="0,-151.5 134,-151.5 "/>
<text text-anchor="start" x="8" y="-139.5" font-family="Helvetica,sans-Serif" font-size="10.00">+ CameraEntity()</text>
<text text-anchor="start" x="8" y="-128.5" font-family="Helvetica,sans-Serif" font-size="10.00">+ ~CameraEntity()</text>
<text text-anchor="start" x="8" y="-117.5" font-family="Helvetica,sans-Serif" font-size="10.00">+ getType()</text>
<text text-anchor="start" x="8" y="-106.5" font-family="Helvetica,sans-Serif" font-size="10.00">+ getTransform()</text>
<text text-anchor="start" x="8" y="-95.5" font-family="Helvetica,sans-Serif" font-size="10.00">+ getTransform()</text>
<text text-anchor="start" x="8" y="-84.5" font-family="Helvetica,sans-Serif" font-size="10.00">+ getFocal()</text>
<text text-anchor="start" x="8" y="-73.5" font-family="Helvetica,sans-Serif" font-size="10.00">+ setFocal()</text>
<text text-anchor="start" x="8" y="-62.5" font-family="Helvetica,sans-Serif" font-size="10.00">+ setSize()</text>
<text text-anchor="start" x="8" y="-51.5" font-family="Helvetica,sans-Serif" font-size="10.00">+ getSize()</text>
<text text-anchor="start" x="8" y="-40.5" font-family="Helvetica,sans-Serif" font-size="10.00">+ render()</text>
<text text-anchor="start" x="8" y="-29.5" font-family="Helvetica,sans-Serif" font-size="10.00">+ getImage()</text>
<text text-anchor="start" x="8" y="-18.5" font-family="Helvetica,sans-Serif" font-size="10.00">+ getFilters()</text>
</a>
</g>
</g>
<!-- Node2&#45;&gt;Node3 -->
<g id="edge2" class="edge">
<title>Node2&#45;&gt;Node3</title>
<path fill="none" stroke="midnightblue" d="M245.69,-354.9C212.3,-336 172.16,-309.47 143,-278 139.65,-274.39 136.4,-270.6 133.25,-266.69"/>
<polygon fill="none" stroke="midnightblue" points="244.03,-357.98 254.47,-359.78 247.43,-351.86 244.03,-357.98"/>
</g>
<!-- Node4 -->
<g id="node4" class="node">
<title>Node4</title>
<g id="a_node4"><a xlink:href="a01459.html" target="_top" xlink:title=" ">
<polygon fill="white" stroke="black" points="152.5,-0.5 152.5,-277.5 297.5,-277.5 297.5,-0.5 152.5,-0.5"/>
<text text-anchor="start" x="160.5" y="-265.5" font-family="Helvetica,sans-Serif" font-size="10.00">RayTracer::PluginsExt</text>
<text text-anchor="start" x="160.5" y="-254.5" font-family="Helvetica,sans-Serif" font-size="10.00">::Camera::Clustered::</text>
<text text-anchor="middle" x="225" y="-243.5" font-family="Helvetica,sans-Serif" font-size="10.00">CameraClusterEntity</text>
<polyline fill="none" stroke="black" points="152.5,-236.5 297.5,-236.5 "/>
<text text-anchor="start" x="160.5" y="-224.5" font-family="Helvetica,sans-Serif" font-size="10.00">&#45; _screen</text>
<text text-anchor="start" x="160.5" y="-213.5" font-family="Helvetica,sans-Serif" font-size="10.00">&#45; _screenSize</text>
<text text-anchor="start" x="160.5" y="-202.5" font-family="Helvetica,sans-Serif" font-size="10.00">&#45; _fov</text>
<text text-anchor="start" x="160.5" y="-191.5" font-family="Helvetica,sans-Serif" font-size="10.00">&#45; _maxThread</text>
<text text-anchor="start" x="160.5" y="-180.5" font-family="Helvetica,sans-Serif" font-size="10.00">&#45; _cluster</text>
<text text-anchor="start" x="160.5" y="-169.5" font-family="Helvetica,sans-Serif" font-size="10.00">&#45; _image</text>
<text text-anchor="start" x="160.5" y="-158.5" font-family="Helvetica,sans-Serif" font-size="10.00">&#45; _filters</text>
<text text-anchor="start" x="160.5" y="-147.5" font-family="Helvetica,sans-Serif" font-size="10.00">&#45; _logger</text>
<polyline fill="none" stroke="black" points="152.5,-140.5 297.5,-140.5 "/>
<text text-anchor="start" x="160.5" y="-128.5" font-family="Helvetica,sans-Serif" font-size="10.00">+ CameraClusterEntity()</text>
<text text-anchor="start" x="160.5" y="-117.5" font-family="Helvetica,sans-Serif" font-size="10.00">+ ~CameraClusterEntity()</text>
<text text-anchor="start" x="160.5" y="-106.5" font-family="Helvetica,sans-Serif" font-size="10.00">+ getType()</text>
<text text-anchor="start" x="160.5" y="-95.5" font-family="Helvetica,sans-Serif" font-size="10.00">+ getTransform()</text>
<text text-anchor="start" x="160.5" y="-84.5" font-family="Helvetica,sans-Serif" font-size="10.00">+ getTransform()</text>
<text text-anchor="start" x="160.5" y="-73.5" font-family="Helvetica,sans-Serif" font-size="10.00">+ getFocal()</text>
<text text-anchor="start" x="160.5" y="-62.5" font-family="Helvetica,sans-Serif" font-size="10.00">+ setFocal()</text>
<text text-anchor="start" x="160.5" y="-51.5" font-family="Helvetica,sans-Serif" font-size="10.00">+ setSize()</text>
<text text-anchor="start" x="160.5" y="-40.5" font-family="Helvetica,sans-Serif" font-size="10.00">+ getSize()</text>
<text text-anchor="start" x="160.5" y="-29.5" font-family="Helvetica,sans-Serif" font-size="10.00">+ render()</text>
<text text-anchor="start" x="160.5" y="-18.5" font-family="Helvetica,sans-Serif" font-size="10.00">+ getImage()</text>
<text text-anchor="start" x="160.5" y="-7.5" font-family="Helvetica,sans-Serif" font-size="10.00">+ getFilters()</text>
</a>
</g>
</g>
<!-- Node2&#45;&gt;Node4 -->
<g id="edge3" class="edge">
<title>Node2&#45;&gt;Node4</title>
<path fill="none" stroke="midnightblue" d="M280.5,-304.49C277.56,-295.77 274.51,-286.74 271.43,-277.61"/>
<polygon fill="none" stroke="midnightblue" points="277.26,-305.83 283.77,-314.19 283.89,-303.59 277.26,-305.83"/>
</g>
<!-- Node5 -->
<g id="node5" class="node">
<title>Node5</title>
<g id="a_node5"><a xlink:href="a01475.html" target="_top" xlink:title=" ">
<polygon fill="white" stroke="black" points="316,-6 316,-272 464,-272 464,-6 316,-6"/>
<text text-anchor="start" x="324" y="-260" font-family="Helvetica,sans-Serif" font-size="10.00">RayTracer::PluginsExt</text>
<text text-anchor="start" x="324" y="-249" font-family="Helvetica,sans-Serif" font-size="10.00">::Camera::FullCustom</text>
<text text-anchor="middle" x="390" y="-238" font-family="Helvetica,sans-Serif" font-size="10.00">::CameraCustomEntity</text>
<polyline fill="none" stroke="black" points="316,-231 464,-231 "/>
<text text-anchor="start" x="324" y="-219" font-family="Helvetica,sans-Serif" font-size="10.00">&#45; _positionCamera</text>
<text text-anchor="start" x="324" y="-208" font-family="Helvetica,sans-Serif" font-size="10.00">&#45; _screenSize</text>
<text text-anchor="start" x="324" y="-197" font-family="Helvetica,sans-Serif" font-size="10.00">&#45; _fov</text>
<text text-anchor="start" x="324" y="-186" font-family="Helvetica,sans-Serif" font-size="10.00">&#45; _image</text>
<text text-anchor="start" x="324" y="-175" font-family="Helvetica,sans-Serif" font-size="10.00">&#45; _filters</text>
<text text-anchor="start" x="324" y="-164" font-family="Helvetica,sans-Serif" font-size="10.00">&#45; _maxThread</text>
<text text-anchor="start" x="324" y="-153" font-family="Helvetica,sans-Serif" font-size="10.00">&#45; _logger</text>
<polyline fill="none" stroke="black" points="316,-146 464,-146 "/>
<text text-anchor="start" x="324" y="-134" font-family="Helvetica,sans-Serif" font-size="10.00">+ CameraCustomEntity()</text>
<text text-anchor="start" x="324" y="-123" font-family="Helvetica,sans-Serif" font-size="10.00">+ ~CameraCustomEntity()</text>
<text text-anchor="start" x="324" y="-112" font-family="Helvetica,sans-Serif" font-size="10.00">+ getType()</text>
<text text-anchor="start" x="324" y="-101" font-family="Helvetica,sans-Serif" font-size="10.00">+ getTransform()</text>
<text text-anchor="start" x="324" y="-90" font-family="Helvetica,sans-Serif" font-size="10.00">+ getTransform()</text>
<text text-anchor="start" x="324" y="-79" font-family="Helvetica,sans-Serif" font-size="10.00">+ getFocal()</text>
<text text-anchor="start" x="324" y="-68" font-family="Helvetica,sans-Serif" font-size="10.00">+ setFocal()</text>
<text text-anchor="start" x="324" y="-57" font-family="Helvetica,sans-Serif" font-size="10.00">+ setSize()</text>
<text text-anchor="start" x="324" y="-46" font-family="Helvetica,sans-Serif" font-size="10.00">+ getSize()</text>
<text text-anchor="start" x="324" y="-35" font-family="Helvetica,sans-Serif" font-size="10.00">+ render()</text>
<text text-anchor="start" x="324" y="-24" font-family="Helvetica,sans-Serif" font-size="10.00">+ getImage()</text>
<text text-anchor="start" x="324" y="-13" font-family="Helvetica,sans-Serif" font-size="10.00">+ getFilters()</text>
</a>
</g>
</g>
<!-- Node2&#45;&gt;Node5 -->
<g id="edge4" class="edge">
<title>Node2&#45;&gt;Node5</title>
<path fill="none" stroke="midnightblue" d="M335.11,-304.66C338.62,-294.14 342.28,-283.15 345.98,-272.07"/>
<polygon fill="none" stroke="midnightblue" points="331.78,-303.59 331.94,-314.19 338.42,-305.81 331.78,-303.59"/>
</g>
<!-- Node7 -->
<g id="node7" class="node">
<title>Node7</title>
<g id="a_node7"><a xlink:href="a01435.html" target="_top" xlink:title=" ">
<polygon fill="white" stroke="black" points="482.5,-33.5 482.5,-244.5 641.5,-244.5 641.5,-33.5 482.5,-33.5"/>
<text text-anchor="start" x="490.5" y="-232.5" font-family="Helvetica,sans-Serif" font-size="10.00">RayTracer::PluginsExt</text>
<text text-anchor="start" x="490.5" y="-221.5" font-family="Helvetica,sans-Serif" font-size="10.00">::AmbientLight::AmbientLight</text>
<text text-anchor="middle" x="562" y="-210.5" font-family="Helvetica,sans-Serif" font-size="10.00">Entity</text>
<polyline fill="none" stroke="black" points="482.5,-203.5 641.5,-203.5 "/>
<text text-anchor="start" x="490.5" y="-191.5" font-family="Helvetica,sans-Serif" font-size="10.00">&#45; _transform</text>
<text text-anchor="start" x="490.5" y="-180.5" font-family="Helvetica,sans-Serif" font-size="10.00">&#45; _color</text>
<text text-anchor="start" x="490.5" y="-169.5" font-family="Helvetica,sans-Serif" font-size="10.00">&#45; _logger</text>
<text text-anchor="start" x="490.5" y="-158.5" font-family="Helvetica,sans-Serif" font-size="10.00">&#45; _power</text>
<polyline fill="none" stroke="black" points="482.5,-151.5 641.5,-151.5 "/>
<text text-anchor="start" x="490.5" y="-139.5" font-family="Helvetica,sans-Serif" font-size="10.00">+ AmbientLightEntity()</text>
<text text-anchor="start" x="490.5" y="-128.5" font-family="Helvetica,sans-Serif" font-size="10.00">+ ~AmbientLightEntity()</text>
<text text-anchor="start" x="490.5" y="-117.5" font-family="Helvetica,sans-Serif" font-size="10.00">+ getType()</text>
<text text-anchor="start" x="490.5" y="-106.5" font-family="Helvetica,sans-Serif" font-size="10.00">+ getTransform()</text>
<text text-anchor="start" x="490.5" y="-95.5" font-family="Helvetica,sans-Serif" font-size="10.00">+ getTransform()</text>
<text text-anchor="start" x="490.5" y="-84.5" font-family="Helvetica,sans-Serif" font-size="10.00">+ getColor()</text>
<text text-anchor="start" x="490.5" y="-73.5" font-family="Helvetica,sans-Serif" font-size="10.00">+ getColor()</text>
<text text-anchor="start" x="490.5" y="-62.5" font-family="Helvetica,sans-Serif" font-size="10.00">+ setColor()</text>
<text text-anchor="start" x="490.5" y="-51.5" font-family="Helvetica,sans-Serif" font-size="10.00">+ isAmbient()</text>
<text text-anchor="start" x="490.5" y="-40.5" font-family="Helvetica,sans-Serif" font-size="10.00">+ getPower()</text>
</a>
</g>
</g>
<!-- Node6&#45;&gt;Node7 -->
<g id="edge6" class="edge">
<title>Node6&#45;&gt;Node7</title>
<path fill="none" stroke="midnightblue" d="M679.8,-317.31C669.62,-304.44 659.31,-290.96 650,-278 642.37,-267.38 634.65,-256.13 627.1,-244.8"/>
<polygon fill="none" stroke="midnightblue" points="677.14,-319.59 686.11,-325.23 682.62,-315.23 677.14,-319.59"/>
</g>
<!-- Node8 -->
<g id="node8" class="node">
<title>Node8</title>
<g id="a_node8"><a xlink:href="a01555.html" target="_top" xlink:title=" ">
<polygon fill="white" stroke="black" points="659.5,-33.5 659.5,-244.5 814.5,-244.5 814.5,-33.5 659.5,-33.5"/>
<text text-anchor="start" x="667.5" y="-232.5" font-family="Helvetica,sans-Serif" font-size="10.00">RayTracer::PluginsExt</text>
<text text-anchor="middle" x="737" y="-221.5" font-family="Helvetica,sans-Serif" font-size="10.00">::PointLight::PointLightEntity</text>
<polyline fill="none" stroke="black" points="659.5,-214.5 814.5,-214.5 "/>
<text text-anchor="start" x="667.5" y="-202.5" font-family="Helvetica,sans-Serif" font-size="10.00">&#45; _transform</text>
<text text-anchor="start" x="667.5" y="-191.5" font-family="Helvetica,sans-Serif" font-size="10.00">&#45; _color</text>
<text text-anchor="start" x="667.5" y="-180.5" font-family="Helvetica,sans-Serif" font-size="10.00">&#45; _logger</text>
<text text-anchor="start" x="667.5" y="-169.5" font-family="Helvetica,sans-Serif" font-size="10.00">&#45; _power</text>
<text text-anchor="start" x="667.5" y="-158.5" font-family="Helvetica,sans-Serif" font-size="10.00">&#45; _radius</text>
<polyline fill="none" stroke="black" points="659.5,-151.5 814.5,-151.5 "/>
<text text-anchor="start" x="667.5" y="-139.5" font-family="Helvetica,sans-Serif" font-size="10.00">+ PointLightEntity()</text>
<text text-anchor="start" x="667.5" y="-128.5" font-family="Helvetica,sans-Serif" font-size="10.00">+ ~PointLightEntity()</text>
<text text-anchor="start" x="667.5" y="-117.5" font-family="Helvetica,sans-Serif" font-size="10.00">+ getType()</text>
<text text-anchor="start" x="667.5" y="-106.5" font-family="Helvetica,sans-Serif" font-size="10.00">+ getTransform()</text>
<text text-anchor="start" x="667.5" y="-95.5" font-family="Helvetica,sans-Serif" font-size="10.00">+ getTransform()</text>
<text text-anchor="start" x="667.5" y="-84.5" font-family="Helvetica,sans-Serif" font-size="10.00">+ getColor()</text>
<text text-anchor="start" x="667.5" y="-73.5" font-family="Helvetica,sans-Serif" font-size="10.00">+ getColor()</text>
<text text-anchor="start" x="667.5" y="-62.5" font-family="Helvetica,sans-Serif" font-size="10.00">+ setColor()</text>
<text text-anchor="start" x="667.5" y="-51.5" font-family="Helvetica,sans-Serif" font-size="10.00">+ isAmbient()</text>
<text text-anchor="start" x="667.5" y="-40.5" font-family="Helvetica,sans-Serif" font-size="10.00">+ getPower()</text>
</a>
</g>
</g>
<!-- Node6&#45;&gt;Node8 -->
<g id="edge7" class="edge">
<title>Node6&#45;&gt;Node8</title>
<path fill="none" stroke="midnightblue" d="M737,-314.98C737,-293.03 737,-268.37 737,-244.64"/>
<polygon fill="none" stroke="midnightblue" points="733.5,-315.19 737,-325.19 740.5,-315.19 733.5,-315.19"/>
</g>
<!-- Node9 -->
<g id="node9" class="node">
<title>Node9</title>
<g id="a_node9"><a xlink:href="a01571.html" target="_top" xlink:title=" ">
<polygon fill="white" stroke="black" points="832.5,-28 832.5,-250 981.5,-250 981.5,-28 832.5,-28"/>
<text text-anchor="start" x="840.5" y="-238" font-family="Helvetica,sans-Serif" font-size="10.00">RayTracer::PluginsExt</text>
<text text-anchor="middle" x="907" y="-227" font-family="Helvetica,sans-Serif" font-size="10.00">::SpotLight::SpotLightEntity</text>
<polyline fill="none" stroke="black" points="832.5,-220 981.5,-220 "/>
<text text-anchor="start" x="840.5" y="-208" font-family="Helvetica,sans-Serif" font-size="10.00">&#45; _transform</text>
<text text-anchor="start" x="840.5" y="-197" font-family="Helvetica,sans-Serif" font-size="10.00">&#45; _color</text>
<text text-anchor="start" x="840.5" y="-186" font-family="Helvetica,sans-Serif" font-size="10.00">&#45; _logger</text>
<text text-anchor="start" x="840.5" y="-175" font-family="Helvetica,sans-Serif" font-size="10.00">&#45; _power</text>
<text text-anchor="start" x="840.5" y="-164" font-family="Helvetica,sans-Serif" font-size="10.00">&#45; _radius</text>
<text text-anchor="start" x="840.5" y="-153" font-family="Helvetica,sans-Serif" font-size="10.00">&#45; _angle</text>
<polyline fill="none" stroke="black" points="832.5,-146 981.5,-146 "/>
<text text-anchor="start" x="840.5" y="-134" font-family="Helvetica,sans-Serif" font-size="10.00">+ SpotLightEntity()</text>
<text text-anchor="start" x="840.5" y="-123" font-family="Helvetica,sans-Serif" font-size="10.00">+ ~SpotLightEntity()</text>
<text text-anchor="start" x="840.5" y="-112" font-family="Helvetica,sans-Serif" font-size="10.00">+ getType()</text>
<text text-anchor="start" x="840.5" y="-101" font-family="Helvetica,sans-Serif" font-size="10.00">+ getTransform()</text>
<text text-anchor="start" x="840.5" y="-90" font-family="Helvetica,sans-Serif" font-size="10.00">+ getTransform()</text>
<text text-anchor="start" x="840.5" y="-79" font-family="Helvetica,sans-Serif" font-size="10.00">+ getColor()</text>
<text text-anchor="start" x="840.5" y="-68" font-family="Helvetica,sans-Serif" font-size="10.00">+ getColor()</text>
<text text-anchor="start" x="840.5" y="-57" font-family="Helvetica,sans-Serif" font-size="10.00">+ setColor()</text>
<text text-anchor="start" x="840.5" y="-46" font-family="Helvetica,sans-Serif" font-size="10.00">+ isAmbient()</text>
<text text-anchor="start" x="840.5" y="-35" font-family="Helvetica,sans-Serif" font-size="10.00">+ getPower()</text>
</a>
</g>
</g>
<!-- Node6&#45;&gt;Node9 -->
<g id="edge8" class="edge">
<title>Node6&#45;&gt;Node9</title>
<path fill="none" stroke="midnightblue" d="M793.72,-317.41C803.76,-304.53 813.91,-291.02 823,-278 829.26,-269.03 835.57,-259.59 841.76,-250.04"/>
<polygon fill="none" stroke="midnightblue" points="790.91,-315.32 787.49,-325.34 796.42,-319.64 790.91,-315.32"/>
</g>
<!-- Node11 -->
<g id="node11" class="node">
<title>Node11</title>
<g id="a_node11"><a xlink:href="a01491.html" target="_top" xlink:title=" ">
<polygon fill="white" stroke="black" points="1000,-50 1000,-228 1122,-228 1122,-50 1000,-50"/>
<text text-anchor="start" x="1008" y="-216" font-family="Helvetica,sans-Serif" font-size="10.00">RayTracer::PluginsExt</text>
<text text-anchor="middle" x="1061" y="-205" font-family="Helvetica,sans-Serif" font-size="10.00">::Cone::ConeEntity</text>
<polyline fill="none" stroke="black" points="1000,-198 1122,-198 "/>
<text text-anchor="start" x="1008" y="-186" font-family="Helvetica,sans-Serif" font-size="10.00">&#45; _transform</text>
<text text-anchor="start" x="1008" y="-175" font-family="Helvetica,sans-Serif" font-size="10.00">&#45; _angle</text>
<text text-anchor="start" x="1008" y="-164" font-family="Helvetica,sans-Serif" font-size="10.00">&#45; _logger</text>
<text text-anchor="start" x="1008" y="-153" font-family="Helvetica,sans-Serif" font-size="10.00">&#45; _material</text>
<polyline fill="none" stroke="black" points="1000,-146 1122,-146 "/>
<text text-anchor="start" x="1008" y="-134" font-family="Helvetica,sans-Serif" font-size="10.00">+ ConeEntity()</text>
<text text-anchor="start" x="1008" y="-123" font-family="Helvetica,sans-Serif" font-size="10.00">+ getType()</text>
<text text-anchor="start" x="1008" y="-112" font-family="Helvetica,sans-Serif" font-size="10.00">+ getTransform()</text>
<text text-anchor="start" x="1008" y="-101" font-family="Helvetica,sans-Serif" font-size="10.00">+ getTransform()</text>
<text text-anchor="start" x="1008" y="-90" font-family="Helvetica,sans-Serif" font-size="10.00">+ isCollided()</text>
<text text-anchor="start" x="1008" y="-79" font-family="Helvetica,sans-Serif" font-size="10.00">+ isCollided()</text>
<text text-anchor="start" x="1008" y="-68" font-family="Helvetica,sans-Serif" font-size="10.00">+ getColor()</text>
<text text-anchor="start" x="1008" y="-57" font-family="Helvetica,sans-Serif" font-size="10.00">+ redirectionLight()</text>
</a>
</g>
</g>
<!-- Node10&#45;&gt;Node11 -->
<g id="edge10" class="edge">
<title>Node10&#45;&gt;Node11</title>
<path fill="none" stroke="midnightblue" d="M1459.79,-383.91C1374.77,-377.96 1226.83,-356.15 1131,-278 1114.76,-264.76 1101.92,-246.77 1091.91,-228.17"/>
<polygon fill="none" stroke="midnightblue" points="1459.63,-387.41 1469.83,-384.56 1460.08,-380.42 1459.63,-387.41"/>
</g>
<!-- Node12 -->
<g id="node12" class="node">
<title>Node12</title>
<g id="a_node12"><a xlink:href="a01499.html" target="_top" xlink:title=" ">
<polygon fill="white" stroke="black" points="1140,-44.5 1140,-233.5 1278,-233.5 1278,-44.5 1140,-44.5"/>
<text text-anchor="start" x="1148" y="-221.5" font-family="Helvetica,sans-Serif" font-size="10.00">RayTracer::PluginsExt</text>
<text text-anchor="middle" x="1209" y="-210.5" font-family="Helvetica,sans-Serif" font-size="10.00">::Cylinder::CylinderEntity</text>
<polyline fill="none" stroke="black" points="1140,-203.5 1278,-203.5 "/>
<text text-anchor="start" x="1148" y="-191.5" font-family="Helvetica,sans-Serif" font-size="10.00">&#45; _transform</text>
<text text-anchor="start" x="1148" y="-180.5" font-family="Helvetica,sans-Serif" font-size="10.00">&#45; _direction</text>
<text text-anchor="start" x="1148" y="-169.5" font-family="Helvetica,sans-Serif" font-size="10.00">&#45; _radius</text>
<text text-anchor="start" x="1148" y="-158.5" font-family="Helvetica,sans-Serif" font-size="10.00">&#45; _logger</text>
<text text-anchor="start" x="1148" y="-147.5" font-family="Helvetica,sans-Serif" font-size="10.00">&#45; _material</text>
<polyline fill="none" stroke="black" points="1140,-140.5 1278,-140.5 "/>
<text text-anchor="start" x="1148" y="-128.5" font-family="Helvetica,sans-Serif" font-size="10.00">+ CylinderEntity()</text>
<text text-anchor="start" x="1148" y="-117.5" font-family="Helvetica,sans-Serif" font-size="10.00">+ getType()</text>
<text text-anchor="start" x="1148" y="-106.5" font-family="Helvetica,sans-Serif" font-size="10.00">+ getTransform()</text>
<text text-anchor="start" x="1148" y="-95.5" font-family="Helvetica,sans-Serif" font-size="10.00">+ getTransform()</text>
<text text-anchor="start" x="1148" y="-84.5" font-family="Helvetica,sans-Serif" font-size="10.00">+ isCollided()</text>
<text text-anchor="start" x="1148" y="-73.5" font-family="Helvetica,sans-Serif" font-size="10.00">+ isCollided()</text>
<text text-anchor="start" x="1148" y="-62.5" font-family="Helvetica,sans-Serif" font-size="10.00">+ getColor()</text>
<text text-anchor="start" x="1148" y="-51.5" font-family="Helvetica,sans-Serif" font-size="10.00">+ redirectionLight()</text>
</a>
</g>
</g>
<!-- Node10&#45;&gt;Node12 -->
<g id="edge11" class="edge">
<title>Node10&#45;&gt;Node12</title>
<path fill="none" stroke="midnightblue" d="M1460.06,-368.58C1408.13,-352.16 1336.5,-323.23 1287,-278 1273.19,-265.38 1261.21,-249.72 1251.06,-233.54"/>
<polygon fill="none" stroke="midnightblue" points="1459.25,-371.99 1469.84,-371.6 1461.32,-365.3 1459.25,-371.99"/>
</g>
<!-- Node13 -->
<g id="node13" class="node">
<title>Node13</title>
<g id="a_node13"><a xlink:href="a01507.html" target="_top" xlink:title=" ">
<polygon fill="white" stroke="black" points="1296,-50 1296,-228 1418,-228 1418,-50 1296,-50"/>
<text text-anchor="start" x="1304" y="-216" font-family="Helvetica,sans-Serif" font-size="10.00">RayTracer::PluginsExt</text>
<text text-anchor="middle" x="1357" y="-205" font-family="Helvetica,sans-Serif" font-size="10.00">::Disk::DiskEntity</text>
<polyline fill="none" stroke="black" points="1296,-198 1418,-198 "/>
<text text-anchor="start" x="1304" y="-186" font-family="Helvetica,sans-Serif" font-size="10.00">&#45; _transform</text>
<text text-anchor="start" x="1304" y="-175" font-family="Helvetica,sans-Serif" font-size="10.00">&#45; _radius</text>
<text text-anchor="start" x="1304" y="-164" font-family="Helvetica,sans-Serif" font-size="10.00">&#45; _material</text>
<text text-anchor="start" x="1304" y="-153" font-family="Helvetica,sans-Serif" font-size="10.00">&#45; _logger</text>
<polyline fill="none" stroke="black" points="1296,-146 1418,-146 "/>
<text text-anchor="start" x="1304" y="-134" font-family="Helvetica,sans-Serif" font-size="10.00">+ DiskEntity()</text>
<text text-anchor="start" x="1304" y="-123" font-family="Helvetica,sans-Serif" font-size="10.00">+ getType()</text>
<text text-anchor="start" x="1304" y="-112" font-family="Helvetica,sans-Serif" font-size="10.00">+ getTransform()</text>
<text text-anchor="start" x="1304" y="-101" font-family="Helvetica,sans-Serif" font-size="10.00">+ getTransform()</text>
<text text-anchor="start" x="1304" y="-90" font-family="Helvetica,sans-Serif" font-size="10.00">+ isCollided()</text>
<text text-anchor="start" x="1304" y="-79" font-family="Helvetica,sans-Serif" font-size="10.00">+ isCollided()</text>
<text text-anchor="start" x="1304" y="-68" font-family="Helvetica,sans-Serif" font-size="10.00">+ getColor()</text>
<text text-anchor="start" x="1304" y="-57" font-family="Helvetica,sans-Serif" font-size="10.00">+ redirectionLight()</text>
</a>
</g>
</g>
<!-- Node10&#45;&gt;Node13 -->
<g id="edge12" class="edge">
<title>Node10&#45;&gt;Node13</title>
<path fill="none" stroke="midnightblue" d="M1462.98,-322.97C1450.3,-308.78 1437.63,-293.35 1427,-278 1416.29,-262.54 1406.21,-245.22 1397.21,-228.21"/>
<polygon fill="none" stroke="midnightblue" points="1460.69,-325.67 1470,-330.73 1465.88,-320.97 1460.69,-325.67"/>
</g>
<!-- Node14 -->
<g id="node14" class="node">
<title>Node14</title>
<g id="a_node14"><a xlink:href="a01515.html" target="_top" xlink:title=" ">
<polygon fill="white" stroke="black" points="1436,-44.5 1436,-233.5 1616,-233.5 1616,-44.5 1436,-44.5"/>
<text text-anchor="start" x="1444" y="-221.5" font-family="Helvetica,sans-Serif" font-size="10.00">RayTracer::PluginsExt</text>
<text text-anchor="middle" x="1526" y="-210.5" font-family="Helvetica,sans-Serif" font-size="10.00">::LimitedCone::LimitedConeEntity</text>
<polyline fill="none" stroke="black" points="1436,-203.5 1616,-203.5 "/>
<text text-anchor="start" x="1444" y="-191.5" font-family="Helvetica,sans-Serif" font-size="10.00">&#45; _transform</text>
<text text-anchor="start" x="1444" y="-180.5" font-family="Helvetica,sans-Serif" font-size="10.00">&#45; _angle</text>
<text text-anchor="start" x="1444" y="-169.5" font-family="Helvetica,sans-Serif" font-size="10.00">&#45; _logger</text>
<text text-anchor="start" x="1444" y="-158.5" font-family="Helvetica,sans-Serif" font-size="10.00">&#45; _material</text>
<text text-anchor="start" x="1444" y="-147.5" font-family="Helvetica,sans-Serif" font-size="10.00">&#45; _height</text>
<polyline fill="none" stroke="black" points="1436,-140.5 1616,-140.5 "/>
<text text-anchor="start" x="1444" y="-128.5" font-family="Helvetica,sans-Serif" font-size="10.00">+ LimitedConeEntity()</text>
<text text-anchor="start" x="1444" y="-117.5" font-family="Helvetica,sans-Serif" font-size="10.00">+ getType()</text>
<text text-anchor="start" x="1444" y="-106.5" font-family="Helvetica,sans-Serif" font-size="10.00">+ getTransform()</text>
<text text-anchor="start" x="1444" y="-95.5" font-family="Helvetica,sans-Serif" font-size="10.00">+ getTransform()</text>
<text text-anchor="start" x="1444" y="-84.5" font-family="Helvetica,sans-Serif" font-size="10.00">+ isCollided()</text>
<text text-anchor="start" x="1444" y="-73.5" font-family="Helvetica,sans-Serif" font-size="10.00">+ isCollided()</text>
<text text-anchor="start" x="1444" y="-62.5" font-family="Helvetica,sans-Serif" font-size="10.00">+ getColor()</text>
<text text-anchor="start" x="1444" y="-51.5" font-family="Helvetica,sans-Serif" font-size="10.00">+ redirectionLight()</text>
</a>
</g>
</g>
<!-- Node10&#45;&gt;Node14 -->
<g id="edge13" class="edge">
<title>Node10&#45;&gt;Node14</title>
<path fill="none" stroke="midnightblue" d="M1526,-320.46C1526,-293.84 1526,-262.6 1526,-233.66"/>
<polygon fill="none" stroke="midnightblue" points="1522.5,-320.79 1526,-330.79 1529.5,-320.79 1522.5,-320.79"/>
</g>
<!-- Node15 -->
<g id="node15" class="node">
<title>Node15</title>
<g id="a_node15"><a xlink:href="a01523.html" target="_top" xlink:title=" ">
<polygon fill="white" stroke="black" points="1634.5,-33.5 1634.5,-244.5 1817.5,-244.5 1817.5,-33.5 1634.5,-33.5"/>
<text text-anchor="start" x="1642.5" y="-232.5" font-family="Helvetica,sans-Serif" font-size="10.00">RayTracer::PluginsExt</text>
<text text-anchor="start" x="1642.5" y="-221.5" font-family="Helvetica,sans-Serif" font-size="10.00">::LimitedCylinder::LimitedCylinder</text>
<text text-anchor="middle" x="1726" y="-210.5" font-family="Helvetica,sans-Serif" font-size="10.00">Entity</text>
<polyline fill="none" stroke="black" points="1634.5,-203.5 1817.5,-203.5 "/>
<text text-anchor="start" x="1642.5" y="-191.5" font-family="Helvetica,sans-Serif" font-size="10.00">&#45; _transform</text>
<text text-anchor="start" x="1642.5" y="-180.5" font-family="Helvetica,sans-Serif" font-size="10.00">&#45; _direction</text>
<text text-anchor="start" x="1642.5" y="-169.5" font-family="Helvetica,sans-Serif" font-size="10.00">&#45; _radius</text>
<text text-anchor="start" x="1642.5" y="-158.5" font-family="Helvetica,sans-Serif" font-size="10.00">&#45; _logger</text>
<text text-anchor="start" x="1642.5" y="-147.5" font-family="Helvetica,sans-Serif" font-size="10.00">&#45; _material</text>
<text text-anchor="start" x="1642.5" y="-136.5" font-family="Helvetica,sans-Serif" font-size="10.00">&#45; _height</text>
<polyline fill="none" stroke="black" points="1634.5,-129.5 1817.5,-129.5 "/>
<text text-anchor="start" x="1642.5" y="-117.5" font-family="Helvetica,sans-Serif" font-size="10.00">+ LimitedCylinderEntity()</text>
<text text-anchor="start" x="1642.5" y="-106.5" font-family="Helvetica,sans-Serif" font-size="10.00">+ getType()</text>
<text text-anchor="start" x="1642.5" y="-95.5" font-family="Helvetica,sans-Serif" font-size="10.00">+ getTransform()</text>
<text text-anchor="start" x="1642.5" y="-84.5" font-family="Helvetica,sans-Serif" font-size="10.00">+ getTransform()</text>
<text text-anchor="start" x="1642.5" y="-73.5" font-family="Helvetica,sans-Serif" font-size="10.00">+ isCollided()</text>
<text text-anchor="start" x="1642.5" y="-62.5" font-family="Helvetica,sans-Serif" font-size="10.00">+ isCollided()</text>
<text text-anchor="start" x="1642.5" y="-51.5" font-family="Helvetica,sans-Serif" font-size="10.00">+ getColor()</text>
<text text-anchor="start" x="1642.5" y="-40.5" font-family="Helvetica,sans-Serif" font-size="10.00">+ redirectionLight()</text>
</a>
</g>
</g>
<!-- Node10&#45;&gt;Node15 -->
<g id="edge14" class="edge">
<title>Node10&#45;&gt;Node15</title>
<path fill="none" stroke="midnightblue" d="M1585.49,-323.44C1598.81,-308.8 1612.64,-293.07 1625,-278 1633.75,-267.33 1642.66,-255.98 1651.38,-244.55"/>
<polygon fill="none" stroke="midnightblue" points="1582.75,-321.25 1578.58,-330.99 1587.92,-325.97 1582.75,-321.25"/>
</g>
<!-- Node16 -->
<g id="node16" class="node">
<title>Node16</title>
<g id="a_node16"><a xlink:href="a01531.html" target="_top" xlink:title=" ">
<polygon fill="white" stroke="black" points="1836,-44.5 1836,-233.5 1992,-233.5 1992,-44.5 1836,-44.5"/>
<text text-anchor="start" x="1844" y="-221.5" font-family="Helvetica,sans-Serif" font-size="10.00">RayTracer::PluginsExt</text>
<text text-anchor="start" x="1844" y="-210.5" font-family="Helvetica,sans-Serif" font-size="10.00">::LimitedPlane::LimitedPlane</text>
<text text-anchor="middle" x="1914" y="-199.5" font-family="Helvetica,sans-Serif" font-size="10.00">Entity</text>
<polyline fill="none" stroke="black" points="1836,-192.5 1992,-192.5 "/>
<text text-anchor="start" x="1844" y="-180.5" font-family="Helvetica,sans-Serif" font-size="10.00">&#45; _transform</text>
<text text-anchor="start" x="1844" y="-169.5" font-family="Helvetica,sans-Serif" font-size="10.00">&#45; _size</text>
<text text-anchor="start" x="1844" y="-158.5" font-family="Helvetica,sans-Serif" font-size="10.00">&#45; _material</text>
<text text-anchor="start" x="1844" y="-147.5" font-family="Helvetica,sans-Serif" font-size="10.00">&#45; _logger</text>
<polyline fill="none" stroke="black" points="1836,-140.5 1992,-140.5 "/>
<text text-anchor="start" x="1844" y="-128.5" font-family="Helvetica,sans-Serif" font-size="10.00">+ LimitedPlaneEntity()</text>
<text text-anchor="start" x="1844" y="-117.5" font-family="Helvetica,sans-Serif" font-size="10.00">+ getType()</text>
<text text-anchor="start" x="1844" y="-106.5" font-family="Helvetica,sans-Serif" font-size="10.00">+ getTransform()</text>
<text text-anchor="start" x="1844" y="-95.5" font-family="Helvetica,sans-Serif" font-size="10.00">+ getTransform()</text>
<text text-anchor="start" x="1844" y="-84.5" font-family="Helvetica,sans-Serif" font-size="10.00">+ isCollided()</text>
<text text-anchor="start" x="1844" y="-73.5" font-family="Helvetica,sans-Serif" font-size="10.00">+ isCollided()</text>
<text text-anchor="start" x="1844" y="-62.5" font-family="Helvetica,sans-Serif" font-size="10.00">+ getColor()</text>
<text text-anchor="start" x="1844" y="-51.5" font-family="Helvetica,sans-Serif" font-size="10.00">+ redirectionLight()</text>
</a>
</g>
</g>
<!-- Node10&#45;&gt;Node16 -->
<g id="edge15" class="edge">
<title>Node10&#45;&gt;Node16</title>
<path fill="none" stroke="midnightblue" d="M1592.37,-375.21C1657.84,-361.79 1757.85,-333.5 1827,-278 1842.24,-265.77 1855.58,-250.1 1866.95,-233.75"/>
<polygon fill="none" stroke="midnightblue" points="1591.3,-371.86 1582.18,-377.24 1592.67,-378.72 1591.3,-371.86"/>
</g>
<!-- Node17 -->
<g id="node17" class="node">
<title>Node17</title>
<g id="a_node17"><a xlink:href="a01547.html" target="_top" xlink:title=" ">
<polygon fill="white" stroke="black" points="2010,-55.5 2010,-222.5 2132,-222.5 2132,-55.5 2010,-55.5"/>
<text text-anchor="start" x="2018" y="-210.5" font-family="Helvetica,sans-Serif" font-size="10.00">RayTracer::PluginsExt</text>
<text text-anchor="middle" x="2071" y="-199.5" font-family="Helvetica,sans-Serif" font-size="10.00">::Plane::PlaneEntity</text>
<polyline fill="none" stroke="black" points="2010,-192.5 2132,-192.5 "/>
<text text-anchor="start" x="2018" y="-180.5" font-family="Helvetica,sans-Serif" font-size="10.00">&#45; _transform</text>
<text text-anchor="start" x="2018" y="-169.5" font-family="Helvetica,sans-Serif" font-size="10.00">&#45; _material</text>
<text text-anchor="start" x="2018" y="-158.5" font-family="Helvetica,sans-Serif" font-size="10.00">&#45; _logger</text>
<polyline fill="none" stroke="black" points="2010,-151.5 2132,-151.5 "/>
<text text-anchor="start" x="2018" y="-139.5" font-family="Helvetica,sans-Serif" font-size="10.00">+ PlaneEntity()</text>
<text text-anchor="start" x="2018" y="-128.5" font-family="Helvetica,sans-Serif" font-size="10.00">+ getType()</text>
<text text-anchor="start" x="2018" y="-117.5" font-family="Helvetica,sans-Serif" font-size="10.00">+ getTransform()</text>
<text text-anchor="start" x="2018" y="-106.5" font-family="Helvetica,sans-Serif" font-size="10.00">+ getTransform()</text>
<text text-anchor="start" x="2018" y="-95.5" font-family="Helvetica,sans-Serif" font-size="10.00">+ isCollided()</text>
<text text-anchor="start" x="2018" y="-84.5" font-family="Helvetica,sans-Serif" font-size="10.00">+ isCollided()</text>
<text text-anchor="start" x="2018" y="-73.5" font-family="Helvetica,sans-Serif" font-size="10.00">+ getColor()</text>
<text text-anchor="start" x="2018" y="-62.5" font-family="Helvetica,sans-Serif" font-size="10.00">+ redirectionLight()</text>
</a>
</g>
</g>
<!-- Node10&#45;&gt;Node17 -->
<g id="edge16" class="edge">
<title>Node10&#45;&gt;Node17</title>
<path fill="none" stroke="midnightblue" d="M1592.22,-377.97C1707.24,-362.89 1937.73,-327.36 2001,-278 2019.32,-263.71 2033.25,-243.32 2043.67,-222.58"/>
<polygon fill="none" stroke="midnightblue" points="1591.59,-374.52 1582.13,-379.27 1592.49,-381.46 1591.59,-374.52"/>
</g>
<!-- Node18 -->
<g id="node18" class="node">
<title>Node18</title>
<g id="a_node18"><a xlink:href="a01563.html" target="_top" xlink:title=" ">
<polygon fill="white" stroke="black" points="2150.5,-50 2150.5,-228 2275.5,-228 2275.5,-50 2150.5,-50"/>
<text text-anchor="start" x="2158.5" y="-216" font-family="Helvetica,sans-Serif" font-size="10.00">RayTracer::PluginsExt</text>
<text text-anchor="middle" x="2213" y="-205" font-family="Helvetica,sans-Serif" font-size="10.00">::Sphere::SphereEntity</text>
<polyline fill="none" stroke="black" points="2150.5,-198 2275.5,-198 "/>
<text text-anchor="start" x="2158.5" y="-186" font-family="Helvetica,sans-Serif" font-size="10.00">&#45; _transform</text>
<text text-anchor="start" x="2158.5" y="-175" font-family="Helvetica,sans-Serif" font-size="10.00">&#45; _radius</text>
<text text-anchor="start" x="2158.5" y="-164" font-family="Helvetica,sans-Serif" font-size="10.00">&#45; _material</text>
<text text-anchor="start" x="2158.5" y="-153" font-family="Helvetica,sans-Serif" font-size="10.00">&#45; _logger</text>
<polyline fill="none" stroke="black" points="2150.5,-146 2275.5,-146 "/>
<text text-anchor="start" x="2158.5" y="-134" font-family="Helvetica,sans-Serif" font-size="10.00">+ SphereEntity()</text>
<text text-anchor="start" x="2158.5" y="-123" font-family="Helvetica,sans-Serif" font-size="10.00">+ getType()</text>
<text text-anchor="start" x="2158.5" y="-112" font-family="Helvetica,sans-Serif" font-size="10.00">+ getTransform()</text>
<text text-anchor="start" x="2158.5" y="-101" font-family="Helvetica,sans-Serif" font-size="10.00">+ getTransform()</text>
<text text-anchor="start" x="2158.5" y="-90" font-family="Helvetica,sans-Serif" font-size="10.00">+ isCollided()</text>
<text text-anchor="start" x="2158.5" y="-79" font-family="Helvetica,sans-Serif" font-size="10.00">+ isCollided()</text>
<text text-anchor="start" x="2158.5" y="-68" font-family="Helvetica,sans-Serif" font-size="10.00">+ getColor()</text>
<text text-anchor="start" x="2158.5" y="-57" font-family="Helvetica,sans-Serif" font-size="10.00">+ redirectionLight()</text>
</a>
</g>
</g>
<!-- Node10&#45;&gt;Node18 -->
<g id="edge17" class="edge">
<title>Node10&#45;&gt;Node18</title>
<path fill="none" stroke="midnightblue" d="M1592.45,-381.69C1732.93,-371.42 2054.27,-341.48 2141,-278 2158.34,-265.31 2171.85,-247.19 2182.24,-228.24"/>
<polygon fill="none" stroke="midnightblue" points="1591.97,-378.21 1582.25,-382.42 1592.48,-385.19 1591.97,-378.21"/>
</g>
</g>
</svg>
