<?xml version="1.0" encoding="UTF-8" standalone="no"?>
<!DOCTYPE svg PUBLIC "-//W3C//DTD SVG 1.1//EN"
 "http://www.w3.org/Graphics/SVG/1.1/DTD/svg11.dtd">
<!-- Generated by graphviz version 2.43.0 (0)
 -->
<!-- Title: RayTracer::Entities::IEntity Pages: 1 -->
<svg width="2436pt" height="606pt"
 viewBox="0.00 0.00 2436.00 606.00" xmlns="http://www.w3.org/2000/svg" xmlns:xlink="http://www.w3.org/1999/xlink">
<g id="graph0" class="graph" transform="scale(1 1) rotate(0) translate(4 602)">
<title>RayTracer::Entities::IEntity</title>
<polygon fill="white" stroke="transparent" points="-4,4 -4,-602 2432,-602 2432,4 -4,4"/>
<!-- Node1 -->
<g id="node1" class="node">
<title>Node1</title>
<g id="a_node1"><a xlink:title="The IEntity class.">
<polygon fill="#bfbfbf" stroke="black" points="683.5,-496.5 683.5,-597.5 790.5,-597.5 790.5,-496.5 683.5,-496.5"/>
<text text-anchor="start" x="691.5" y="-585.5" font-family="Helvetica,sans-Serif" font-size="10.00">RayTracer::Entities</text>
<text text-anchor="middle" x="737" y="-574.5" font-family="Helvetica,sans-Serif" font-size="10.00">::IEntity</text>
<polyline fill="none" stroke="black" points="683.5,-567.5 790.5,-567.5 "/>
<text text-anchor="middle" x="737" y="-555.5" font-family="Helvetica,sans-Serif" font-size="10.00"> </text>
<polyline fill="none" stroke="black" points="683.5,-548.5 790.5,-548.5 "/>
<text text-anchor="start" x="691.5" y="-536.5" font-family="Helvetica,sans-Serif" font-size="10.00">+ ~IEntity()</text>
<text text-anchor="start" x="691.5" y="-525.5" font-family="Helvetica,sans-Serif" font-size="10.00">+ getTransform()</text>
<text text-anchor="start" x="691.5" y="-514.5" font-family="Helvetica,sans-Serif" font-size="10.00">+ getTransform()</text>
<text text-anchor="start" x="691.5" y="-503.5" font-family="Helvetica,sans-Serif" font-size="10.00">+ getType()</text>
</a>
</g>
</g>
<!-- Node2 -->
<g id="node2" class="node">
<title>Node2</title>
<g id="a_node2"><a xlink:href="a01192.html" target="_top" xlink:title="The ICamera class.">
<polygon fill="white" stroke="black" points="254.5,-314.5 254.5,-459.5 361.5,-459.5 361.5,-314.5 254.5,-314.5"/>
<text text-anchor="start" x="262.5" y="-447.5" font-family="Helvetica,sans-Serif" font-size="10.00">RayTracer::Entities</text>
<text text-anchor="middle" x="308" y="-436.5" font-family="Helvetica,sans-Serif" font-size="10.00">::ICamera</text>
<polyline fill="none" stroke="black" points="254.5,-429.5 361.5,-429.5 "/>
<text text-anchor="middle" x="308" y="-417.5" font-family="Helvetica,sans-Serif" font-size="10.00"> </text>
<polyline fill="none" stroke="black" points="254.5,-410.5 361.5,-410.5 "/>
<text text-anchor="start" x="262.5" y="-398.5" font-family="Helvetica,sans-Serif" font-size="10.00">+ ~ICamera()</text>
<text text-anchor="start" x="262.5" y="-387.5" font-family="Helvetica,sans-Serif" font-size="10.00">+ getFocal()</text>
<text text-anchor="start" x="262.5" y="-376.5" font-family="Helvetica,sans-Serif" font-size="10.00">+ setFocal()</text>
<text text-anchor="start" x="262.5" y="-365.5" font-family="Helvetica,sans-Serif" font-size="10.00">+ setSize()</text>
<text text-anchor="start" x="262.5" y="-354.5" font-family="Helvetica,sans-Serif" font-size="10.00">+ getSize()</text>
<text text-anchor="start" x="262.5" y="-343.5" font-family="Helvetica,sans-Serif" font-size="10.00">+ render()</text>
<text text-anchor="start" x="262.5" y="-332.5" font-family="Helvetica,sans-Serif" font-size="10.00">+ getImage()</text>
<text text-anchor="start" x="262.5" y="-321.5" font-family="Helvetica,sans-Serif" font-size="10.00">+ getFilters()</text>
</a>
</g>
</g>
<!-- Node1&#45;&gt;Node2 -->
<g id="edge1" class="edge">
<title>Node1&#45;&gt;Node2</title>
<path fill="none" stroke="midnightblue" d="M673.62,-522.66C589.1,-491.53 440.97,-436.97 361.68,-407.77"/>
<polygon fill="none" stroke="midnightblue" points="672.51,-525.98 683.1,-526.15 674.93,-519.41 672.51,-525.98"/>
</g>
<!-- Node6 -->
<g id="node6" class="node">
<title>Node6</title>
<g id="a_node6"><a xlink:href="a01200.html" target="_top" xlink:title="The ILight class.">
<polygon fill="white" stroke="black" points="683.5,-325.5 683.5,-448.5 790.5,-448.5 790.5,-325.5 683.5,-325.5"/>
<text text-anchor="start" x="691.5" y="-436.5" font-family="Helvetica,sans-Serif" font-size="10.00">RayTracer::Entities</text>
<text text-anchor="middle" x="737" y="-425.5" font-family="Helvetica,sans-Serif" font-size="10.00">::ILight</text>
<polyline fill="none" stroke="black" points="683.5,-418.5 790.5,-418.5 "/>
<text text-anchor="middle" x="737" y="-406.5" font-family="Helvetica,sans-Serif" font-size="10.00"> </text>
<polyline fill="none" stroke="black" points="683.5,-399.5 790.5,-399.5 "/>
<text text-anchor="start" x="691.5" y="-387.5" font-family="Helvetica,sans-Serif" font-size="10.00">+ ~ILight()</text>
<text text-anchor="start" x="691.5" y="-376.5" font-family="Helvetica,sans-Serif" font-size="10.00">+ getColor()</text>
<text text-anchor="start" x="691.5" y="-365.5" font-family="Helvetica,sans-Serif" font-size="10.00">+ getColor()</text>
<text text-anchor="start" x="691.5" y="-354.5" font-family="Helvetica,sans-Serif" font-size="10.00">+ setColor()</text>
<text text-anchor="start" x="691.5" y="-343.5" font-family="Helvetica,sans-Serif" font-size="10.00">+ isAmbient()</text>
<text text-anchor="start" x="691.5" y="-332.5" font-family="Helvetica,sans-Serif" font-size="10.00">+ getPower()</text>
</a>
</g>
</g>
<!-- Node1&#45;&gt;Node6 -->
<g id="edge5" class="edge">
<title>Node1&#45;&gt;Node6</title>
<path fill="none" stroke="midnightblue" d="M737,-486.31C737,-474.03 737,-461.09 737,-448.77"/>
<polygon fill="none" stroke="midnightblue" points="733.5,-486.44 737,-496.44 740.5,-486.44 733.5,-486.44"/>
</g>
<!-- Node10 -->
<g id="node10" class="node">
<title>Node10</title>
<g id="a_node10"><a xlink:href="a01208.html" target="_top" xlink:title="The IPrimitive class.">
<polygon fill="white" stroke="black" points="1570,-331 1570,-443 1682,-443 1682,-331 1570,-331"/>
<text text-anchor="start" x="1578" y="-431" font-family="Helvetica,sans-Serif" font-size="10.00">RayTracer::Entities</text>
<text text-anchor="middle" x="1626" y="-420" font-family="Helvetica,sans-Serif" font-size="10.00">::IPrimitive</text>
<polyline fill="none" stroke="black" points="1570,-413 1682,-413 "/>
<text text-anchor="middle" x="1626" y="-401" font-family="Helvetica,sans-Serif" font-size="10.00"> </text>
<polyline fill="none" stroke="black" points="1570,-394 1682,-394 "/>
<text text-anchor="start" x="1578" y="-382" font-family="Helvetica,sans-Serif" font-size="10.00">+ ~IPrimitive()</text>
<text text-anchor="start" x="1578" y="-371" font-family="Helvetica,sans-Serif" font-size="10.00">+ getColor()</text>
<text text-anchor="start" x="1578" y="-360" font-family="Helvetica,sans-Serif" font-size="10.00">+ isCollided()</text>
<text text-anchor="start" x="1578" y="-349" font-family="Helvetica,sans-Serif" font-size="10.00">+ isCollided()</text>
<text text-anchor="start" x="1578" y="-338" font-family="Helvetica,sans-Serif" font-size="10.00">+ redirectionLight()</text>
</a>
</g>
</g>
<!-- Node1&#45;&gt;Node10 -->
<g id="edge9" class="edge">
<title>Node1&#45;&gt;Node10</title>
<path fill="none" stroke="midnightblue" d="M800.68,-534.68C966.95,-505.13 1412.17,-426 1569.76,-398"/>
<polygon fill="none" stroke="midnightblue" points="799.84,-531.28 790.61,-536.47 801.07,-538.17 799.84,-531.28"/>
</g>
<!-- Node3 -->
<g id="node3" class="node">
<title>Node3</title>
<g id="a_node3"><a xlink:href="a01472.html" target="_top" xlink:title=" ">
<polygon fill="white" stroke="black" points="0,-11.5 0,-266.5 134,-266.5 134,-11.5 0,-11.5"/>
<text text-anchor="start" x="8" y="-254.5" font-family="Helvetica,sans-Serif" font-size="10.00">RayTracer::PluginsExt</text>
<text text-anchor="middle" x="67" y="-243.5" font-family="Helvetica,sans-Serif" font-size="10.00">::Camera::CameraEntity</text>
<polyline fill="none" stroke="black" points="0,-236.5 134,-236.5 "/>
<text text-anchor="start" x="8" y="-224.5" font-family="Helvetica,sans-Serif" font-size="10.00">&#45; _image</text>
<text text-anchor="start" x="8" y="-213.5" font-family="Helvetica,sans-Serif" font-size="10.00">&#45; _size</text>
<text text-anchor="start" x="8" y="-202.5" font-family="Helvetica,sans-Serif" font-size="10.00">&#45; _focal</text>
<text text-anchor="start" x="8" y="-191.5" font-family="Helvetica,sans-Serif" font-size="10.00">&#45; _filters</text>
<text text-anchor="start" x="8" y="-180.5" font-family="Helvetica,sans-Serif" font-size="10.00">&#45; _transform</text>
<text text-anchor="start" x="8" y="-169.5" font-family="Helvetica,sans-Serif" font-size="10.00">&#45; _maxThread</text>
<text text-anchor="start" x="8" y="-158.5" font-family="Helvetica,sans-Serif" font-size="10.00">&#45; _logger</text>
<polyline fill="none" stroke="black" points="0,-151.5 134,-151.5 "/>
<text text-anchor="start" x="8" y="-139.5" font-family="Helvetica,sans-Serif" font-size="10.00">+ CameraEntity()</text>
<text text-anchor="start" x="8" y="-128.5" font-family="Helvetica,sans-Serif" font-size="10.00">+ ~CameraEntity()</text>
<text text-anchor="start" x="8" y="-117.5" font-family="Helvetica,sans-Serif" font-size="10.00">+ getType()</text>
<text text-anchor="start" x="8" y="-106.5" font-family="Helvetica,sans-Serif" font-size="10.00">+ getTransform()</text>
<text text-anchor="start" x="8" y="-95.5" font-family="Helvetica,sans-Serif" font-size="10.00">+ getTransform()</text>
<text text-anchor="start" x="8" y="-84.5" font-family="Helvetica,sans-Serif" font-size="10.00">+ getFocal()</text>
<text text-anchor="start" x="8" y="-73.5" font-family="Helvetica,sans-Serif" font-size="10.00">+ setFocal()</text>
<text text-anchor="start" x="8" y="-62.5" font-family="Helvetica,sans-Serif" font-size="10.00">+ setSize()</text>
<text text-anchor="start" x="8" y="-51.5" font-family="Helvetica,sans-Serif" font-size="10.00">+ getSize()</text>
<text text-anchor="start" x="8" y="-40.5" font-family="Helvetica,sans-Serif" font-size="10.00">+ render()</text>
<text text-anchor="start" x="8" y="-29.5" font-family="Helvetica,sans-Serif" font-size="10.00">+ getImage()</text>
<text text-anchor="start" x="8" y="-18.5" font-family="Helvetica,sans-Serif" font-size="10.00">+ getFilters()</text>
</a>
</g>
</g>
<!-- Node2&#45;&gt;Node3 -->
<g id="edge2" class="edge">
<title>Node2&#45;&gt;Node3</title>
<path fill="none" stroke="midnightblue" d="M245.69,-354.9C212.3,-336 172.16,-309.47 143,-278 139.65,-274.39 136.4,-270.6 133.25,-266.69"/>
<polygon fill="none" stroke="midnightblue" points="244.03,-357.98 254.47,-359.78 247.43,-351.86 244.03,-357.98"/>
</g>
<!-- Node4 -->
<g id="node4" class="node">
<title>Node4</title>
<g id="a_node4"><a xlink:href="a01480.html" target="_top" xlink:title=" ">
<polygon fill="white" stroke="black" points="152.5,-0.5 152.5,-277.5 297.5,-277.5 297.5,-0.5 152.5,-0.5"/>
<text text-anchor="start" x="160.5" y="-265.5" font-family="Helvetica,sans-Serif" font-size="10.00">RayTracer::PluginsExt</text>
<text text-anchor="start" x="160.5" y="-254.5" font-family="Helvetica,sans-Serif" font-size="10.00">::Camera::Clustered::</text>
<text text-anchor="middle" x="225" y="-243.5" font-family="Helvetica,sans-Serif" font-size="10.00">CameraClusterEntity</text>
<polyline fill="none" stroke="black" points="152.5,-236.5 297.5,-236.5 "/>
<text text-anchor="start" x="160.5" y="-224.5" font-family="Helvetica,sans-Serif" font-size="10.00">&#45; _screen</text>
<text text-anchor="start" x="160.5" y="-213.5" font-family="Helvetica,sans-Serif" font-size="10.00">&#45; _screenSize</text>
<text text-anchor="start" x="160.5" y="-202.5" font-family="Helvetica,sans-Serif" font-size="10.00">&#45; _fov</text>
<text text-anchor="start" x="160.5" y="-191.5" font-family="Helvetica,sans-Serif" font-size="10.00">&#45; _maxThread</text>
<text text-anchor="start" x="160.5" y="-180.5" font-family="Helvetica,sans-Serif" font-size="10.00">&#45; _cluster</text>
<text text-anchor="start" x="160.5" y="-169.5" font-family="Helvetica,sans-Serif" font-size="10.00">&#45; _image</text>
<text text-anchor="start" x="160.5" y="-158.5" font-family="Helvetica,sans-Serif" font-size="10.00">&#45; _filters</text>
<text text-anchor="start" x="160.5" y="-147.5" font-family="Helvetica,sans-Serif" font-size="10.00">&#45; _logger</text>
<polyline fill="none" stroke="black" points="152.5,-140.5 297.5,-140.5 "/>
<text text-anchor="start" x="160.5" y="-128.5" font-family="Helvetica,sans-Serif" font-size="10.00">+ CameraClusterEntity()</text>
<text text-anchor="start" x="160.5" y="-117.5" font-family="Helvetica,sans-Serif" font-size="10.00">+ ~CameraClusterEntity()</text>
<text text-anchor="start" x="160.5" y="-106.5" font-family="Helvetica,sans-Serif" font-size="10.00">+ getType()</text>
<text text-anchor="start" x="160.5" y="-95.5" font-family="Helvetica,sans-Serif" font-size="10.00">+ getTransform()</text>
<text text-anchor="start" x="160.5" y="-84.5" font-family="Helvetica,sans-Serif" font-size="10.00">+ getTransform()</text>
<text text-anchor="start" x="160.5" y="-73.5" font-family="Helvetica,sans-Serif" font-size="10.00">+ getFocal()</text>
<text text-anchor="start" x="160.5" y="-62.5" font-family="Helvetica,sans-Serif" font-size="10.00">+ setFocal()</text>
<text text-anchor="start" x="160.5" y="-51.5" font-family="Helvetica,sans-Serif" font-size="10.00">+ setSize()</text>
<text text-anchor="start" x="160.5" y="-40.5" font-family="Helvetica,sans-Serif" font-size="10.00">+ getSize()</text>
<text text-anchor="start" x="160.5" y="-29.5" font-family="Helvetica,sans-Serif" font-size="10.00">+ render()</text>
<text text-anchor="start" x="160.5" y="-18.5" font-family="Helvetica,sans-Serif" font-size="10.00">+ getImage()</text>
<text text-anchor="start" x="160.5" y="-7.5" font-family="Helvetica,sans-Serif" font-size="10.00">+ getFilters()</text>
</a>
</g>
</g>
<!-- Node2&#45;&gt;Node4 -->
<g id="edge3" class="edge">
<title>Node2&#45;&gt;Node4</title>
<path fill="none" stroke="midnightblue" d="M280.5,-304.49C277.56,-295.77 274.51,-286.74 271.43,-277.61"/>
<polygon fill="none" stroke="midnightblue" points="277.26,-305.83 283.77,-314.19 283.89,-303.59 277.26,-305.83"/>
</g>
<!-- Node5 -->
<g id="node5" class="node">
<title>Node5</title>
<g id="a_node5"><a xlink:href="a01496.html" target="_top" xlink:title=" ">
<polygon fill="white" stroke="black" points="316,-6 316,-272 464,-272 464,-6 316,-6"/>
<text text-anchor="start" x="324" y="-260" font-family="Helvetica,sans-Serif" font-size="10.00">RayTracer::PluginsExt</text>
<text text-anchor="start" x="324" y="-249" font-family="Helvetica,sans-Serif" font-size="10.00">::Camera::FullCustom</text>
<text text-anchor="middle" x="390" y="-238" font-family="Helvetica,sans-Serif" font-size="10.00">::CameraCustomEntity</text>
<polyline fill="none" stroke="black" points="316,-231 464,-231 "/>
<text text-anchor="start" x="324" y="-219" font-family="Helvetica,sans-Serif" font-size="10.00">&#45; _positionCamera</text>
<text text-anchor="start" x="324" y="-208" font-family="Helvetica,sans-Serif" font-size="10.00">&#45; _screenSize</text>
<text text-anchor="start" x="324" y="-197" font-family="Helvetica,sans-Serif" font-size="10.00">&#45; _fov</text>
<text text-anchor="start" x="324" y="-186" font-family="Helvetica,sans-Serif" font-size="10.00">&#45; _image</text>
<text text-anchor="start" x="324" y="-175" font-family="Helvetica,sans-Serif" font-size="10.00">&#45; _filters</text>
<text text-anchor="start" x="324" y="-164" font-family="Helvetica,sans-Serif" font-size="10.00">&#45; _maxThread</text>
<text text-anchor="start" x="324" y="-153" font-family="Helvetica,sans-Serif" font-size="10.00">&#45; _logger</text>
<polyline fill="none" stroke="black" points="316,-146 464,-146 "/>
<text text-anchor="start" x="324" y="-134" font-family="Helvetica,sans-Serif" font-size="10.00">+ CameraCustomEntity()</text>
<text text-anchor="start" x="324" y="-123" font-family="Helvetica,sans-Serif" font-size="10.00">+ ~CameraCustomEntity()</text>
<text text-anchor="start" x="324" y="-112" font-family="Helvetica,sans-Serif" font-size="10.00">+ getType()</text>
<text text-anchor="start" x="324" y="-101" font-family="Helvetica,sans-Serif" font-size="10.00">+ getTransform()</text>
<text text-anchor="start" x="324" y="-90" font-family="Helvetica,sans-Serif" font-size="10.00">+ getTransform()</text>
<text text-anchor="start" x="324" y="-79" font-family="Helvetica,sans-Serif" font-size="10.00">+ getFocal()</text>
<text text-anchor="start" x="324" y="-68" font-family="Helvetica,sans-Serif" font-size="10.00">+ setFocal()</text>
<text text-anchor="start" x="324" y="-57" font-family="Helvetica,sans-Serif" font-size="10.00">+ setSize()</text>
<text text-anchor="start" x="324" y="-46" font-family="Helvetica,sans-Serif" font-size="10.00">+ getSize()</text>
<text text-anchor="start" x="324" y="-35" font-family="Helvetica,sans-Serif" font-size="10.00">+ render()</text>
<text text-anchor="start" x="324" y="-24" font-family="Helvetica,sans-Serif" font-size="10.00">+ getImage()</text>
<text text-anchor="start" x="324" y="-13" font-family="Helvetica,sans-Serif" font-size="10.00">+ getFilters()</text>
</a>
</g>
</g>
<!-- Node2&#45;&gt;Node5 -->
<g id="edge4" class="edge">
<title>Node2&#45;&gt;Node5</title>
<path fill="none" stroke="midnightblue" d="M335.11,-304.66C338.62,-294.14 342.28,-283.15 345.98,-272.07"/>
<polygon fill="none" stroke="midnightblue" points="331.78,-303.59 331.94,-314.19 338.42,-305.81 331.78,-303.59"/>
</g>
<!-- Node7 -->
<g id="node7" class="node">
<title>Node7</title>
<g id="a_node7"><a xlink:href="a01456.html" target="_top" xlink:title=" ">
<polygon fill="white" stroke="black" points="482.5,-33.5 482.5,-244.5 641.5,-244.5 641.5,-33.5 482.5,-33.5"/>
<text text-anchor="start" x="490.5" y="-232.5" font-family="Helvetica,sans-Serif" font-size="10.00">RayTracer::PluginsExt</text>
<text text-anchor="start" x="490.5" y="-221.5" font-family="Helvetica,sans-Serif" font-size="10.00">::AmbientLight::AmbientLight</text>
<text text-anchor="middle" x="562" y="-210.5" font-family="Helvetica,sans-Serif" font-size="10.00">Entity</text>
<polyline fill="none" stroke="black" points="482.5,-203.5 641.5,-203.5 "/>
<text text-anchor="start" x="490.5" y="-191.5" font-family="Helvetica,sans-Serif" font-size="10.00">&#45; _transform</text>
<text text-anchor="start" x="490.5" y="-180.5" font-family="Helvetica,sans-Serif" font-size="10.00">&#45; _color</text>
<text text-anchor="start" x="490.5" y="-169.5" font-family="Helvetica,sans-Serif" font-size="10.00">&#45; _logger</text>
<text text-anchor="start" x="490.5" y="-158.5" font-family="Helvetica,sans-Serif" font-size="10.00">&#45; _power</text>
<polyline fill="none" stroke="black" points="482.5,-151.5 641.5,-151.5 "/>
<text text-anchor="start" x="490.5" y="-139.5" font-family="Helvetica,sans-Serif" font-size="10.00">+ AmbientLightEntity()</text>
<text text-anchor="start" x="490.5" y="-128.5" font-family="Helvetica,sans-Serif" font-size="10.00">+ ~AmbientLightEntity()</text>
<text text-anchor="start" x="490.5" y="-117.5" font-family="Helvetica,sans-Serif" font-size="10.00">+ getType()</text>
<text text-anchor="start" x="490.5" y="-106.5" font-family="Helvetica,sans-Serif" font-size="10.00">+ getTransform()</text>
<text text-anchor="start" x="490.5" y="-95.5" font-family="Helvetica,sans-Serif" font-size="10.00">+ getTransform()</text>
<text text-anchor="start" x="490.5" y="-84.5" font-family="Helvetica,sans-Serif" font-size="10.00">+ getColor()</text>
<text text-anchor="start" x="490.5" y="-73.5" font-family="Helvetica,sans-Serif" font-size="10.00">+ getColor()</text>
<text text-anchor="start" x="490.5" y="-62.5" font-family="Helvetica,sans-Serif" font-size="10.00">+ setColor()</text>
<text text-anchor="start" x="490.5" y="-51.5" font-family="Helvetica,sans-Serif" font-size="10.00">+ isAmbient()</text>
<text text-anchor="start" x="490.5" y="-40.5" font-family="Helvetica,sans-Serif" font-size="10.00">+ getPower()</text>
</a>
</g>
</g>
<!-- Node6&#45;&gt;Node7 -->
<g id="edge6" class="edge">
<title>Node6&#45;&gt;Node7</title>
<path fill="none" stroke="midnightblue" d="M679.8,-317.31C669.62,-304.44 659.31,-290.96 650,-278 642.37,-267.38 634.65,-256.13 627.1,-244.8"/>
<polygon fill="none" stroke="midnightblue" points="677.14,-319.59 686.11,-325.23 682.62,-315.23 677.14,-319.59"/>
</g>
<!-- Node8 -->
<g id="node8" class="node">
<title>Node8</title>
<g id="a_node8"><a xlink:href="a01584.html" target="_top" xlink:title=" ">
<polygon fill="white" stroke="black" points="659.5,-33.5 659.5,-244.5 814.5,-244.5 814.5,-33.5 659.5,-33.5"/>
<text text-anchor="start" x="667.5" y="-232.5" font-family="Helvetica,sans-Serif" font-size="10.00">RayTracer::PluginsExt</text>
<text text-anchor="middle" x="737" y="-221.5" font-family="Helvetica,sans-Serif" font-size="10.00">::PointLight::PointLightEntity</text>
<polyline fill="none" stroke="black" points="659.5,-214.5 814.5,-214.5 "/>
<text text-anchor="start" x="667.5" y="-202.5" font-family="Helvetica,sans-Serif" font-size="10.00">&#45; _transform</text>
<text text-anchor="start" x="667.5" y="-191.5" font-family="Helvetica,sans-Serif" font-size="10.00">&#45; _color</text>
<text text-anchor="start" x="667.5" y="-180.5" font-family="Helvetica,sans-Serif" font-size="10.00">&#45; _logger</text>
<text text-anchor="start" x="667.5" y="-169.5" font-family="Helvetica,sans-Serif" font-size="10.00">&#45; _power</text>
<text text-anchor="start" x="667.5" y="-158.5" font-family="Helvetica,sans-Serif" font-size="10.00">&#45; _radius</text>
<polyline fill="none" stroke="black" points="659.5,-151.5 814.5,-151.5 "/>
<text text-anchor="start" x="667.5" y="-139.5" font-family="Helvetica,sans-Serif" font-size="10.00">+ PointLightEntity()</text>
<text text-anchor="start" x="667.5" y="-128.5" font-family="Helvetica,sans-Serif" font-size="10.00">+ ~PointLightEntity()</text>
<text text-anchor="start" x="667.5" y="-117.5" font-family="Helvetica,sans-Serif" font-size="10.00">+ getType()</text>
<text text-anchor="start" x="667.5" y="-106.5" font-family="Helvetica,sans-Serif" font-size="10.00">+ getTransform()</text>
<text text-anchor="start" x="667.5" y="-95.5" font-family="Helvetica,sans-Serif" font-size="10.00">+ getTransform()</text>
<text text-anchor="start" x="667.5" y="-84.5" font-family="Helvetica,sans-Serif" font-size="10.00">+ getColor()</text>
<text text-anchor="start" x="667.5" y="-73.5" font-family="Helvetica,sans-Serif" font-size="10.00">+ getColor()</text>
<text text-anchor="start" x="667.5" y="-62.5" font-family="Helvetica,sans-Serif" font-size="10.00">+ setColor()</text>
<text text-anchor="start" x="667.5" y="-51.5" font-family="Helvetica,sans-Serif" font-size="10.00">+ isAmbient()</text>
<text text-anchor="start" x="667.5" y="-40.5" font-family="Helvetica,sans-Serif" font-size="10.00">+ getPower()</text>
</a>
</g>
</g>
<!-- Node6&#45;&gt;Node8 -->
<g id="edge7" class="edge">
<title>Node6&#45;&gt;Node8</title>
<path fill="none" stroke="midnightblue" d="M737,-314.98C737,-293.03 737,-268.37 737,-244.64"/>
<polygon fill="none" stroke="midnightblue" points="733.5,-315.19 737,-325.19 740.5,-315.19 733.5,-315.19"/>
</g>
<!-- Node9 -->
<g id="node9" class="node">
<title>Node9</title>
<g id="a_node9"><a xlink:href="a01600.html" target="_top" xlink:title=" ">
<polygon fill="white" stroke="black" points="832.5,-28 832.5,-250 981.5,-250 981.5,-28 832.5,-28"/>
<text text-anchor="start" x="840.5" y="-238" font-family="Helvetica,sans-Serif" font-size="10.00">RayTracer::PluginsExt</text>
<text text-anchor="middle" x="907" y="-227" font-family="Helvetica,sans-Serif" font-size="10.00">::SpotLight::SpotLightEntity</text>
<polyline fill="none" stroke="black" points="832.5,-220 981.5,-220 "/>
<text text-anchor="start" x="840.5" y="-208" font-family="Helvetica,sans-Serif" font-size="10.00">&#45; _transform</text>
<text text-anchor="start" x="840.5" y="-197" font-family="Helvetica,sans-Serif" font-size="10.00">&#45; _color</text>
<text text-anchor="start" x="840.5" y="-186" font-family="Helvetica,sans-Serif" font-size="10.00">&#45; _logger</text>
<text text-anchor="start" x="840.5" y="-175" font-family="Helvetica,sans-Serif" font-size="10.00">&#45; _power</text>
<text text-anchor="start" x="840.5" y="-164" font-family="Helvetica,sans-Serif" font-size="10.00">&#45; _radius</text>
<text text-anchor="start" x="840.5" y="-153" font-family="Helvetica,sans-Serif" font-size="10.00">&#45; _angle</text>
<polyline fill="none" stroke="black" points="832.5,-146 981.5,-146 "/>
<text text-anchor="start" x="840.5" y="-134" font-family="Helvetica,sans-Serif" font-size="10.00">+ SpotLightEntity()</text>
<text text-anchor="start" x="840.5" y="-123" font-family="Helvetica,sans-Serif" font-size="10.00">+ ~SpotLightEntity()</text>
<text text-anchor="start" x="840.5" y="-112" font-family="Helvetica,sans-Serif" font-size="10.00">+ getType()</text>
<text text-anchor="start" x="840.5" y="-101" font-family="Helvetica,sans-Serif" font-size="10.00">+ getTransform()</text>
<text text-anchor="start" x="840.5" y="-90" font-family="Helvetica,sans-Serif" font-size="10.00">+ getTransform()</text>
<text text-anchor="start" x="840.5" y="-79" font-family="Helvetica,sans-Serif" font-size="10.00">+ getColor()</text>
<text text-anchor="start" x="840.5" y="-68" font-family="Helvetica,sans-Serif" font-size="10.00">+ getColor()</text>
<text text-anchor="start" x="840.5" y="-57" font-family="Helvetica,sans-Serif" font-size="10.00">+ setColor()</text>
<text text-anchor="start" x="840.5" y="-46" font-family="Helvetica,sans-Serif" font-size="10.00">+ isAmbient()</text>
<text text-anchor="start" x="840.5" y="-35" font-family="Helvetica,sans-Serif" font-size="10.00">+ getPower()</text>
</a>
</g>
</g>
<!-- Node6&#45;&gt;Node9 -->
<g id="edge8" class="edge">
<title>Node6&#45;&gt;Node9</title>
<path fill="none" stroke="midnightblue" d="M793.72,-317.41C803.76,-304.53 813.91,-291.02 823,-278 829.26,-269.03 835.57,-259.59 841.76,-250.04"/>
<polygon fill="none" stroke="midnightblue" points="790.91,-315.32 787.49,-325.34 796.42,-319.64 790.91,-315.32"/>
</g>
<!-- Node11 -->
<g id="node11" class="node">
<title>Node11</title>
<g id="a_node11"><a xlink:href="a01520.html" target="_top" xlink:title=" ">
<polygon fill="white" stroke="black" points="1000,-50 1000,-228 1122,-228 1122,-50 1000,-50"/>
<text text-anchor="start" x="1008" y="-216" font-family="Helvetica,sans-Serif" font-size="10.00">RayTracer::PluginsExt</text>
<text text-anchor="middle" x="1061" y="-205" font-family="Helvetica,sans-Serif" font-size="10.00">::Cone::ConeEntity</text>
<polyline fill="none" stroke="black" points="1000,-198 1122,-198 "/>
<text text-anchor="start" x="1008" y="-186" font-family="Helvetica,sans-Serif" font-size="10.00">&#45; _transform</text>
<text text-anchor="start" x="1008" y="-175" font-family="Helvetica,sans-Serif" font-size="10.00">&#45; _angle</text>
<text text-anchor="start" x="1008" y="-164" font-family="Helvetica,sans-Serif" font-size="10.00">&#45; _logger</text>
<text text-anchor="start" x="1008" y="-153" font-family="Helvetica,sans-Serif" font-size="10.00">&#45; _material</text>
<polyline fill="none" stroke="black" points="1000,-146 1122,-146 "/>
<text text-anchor="start" x="1008" y="-134" font-family="Helvetica,sans-Serif" font-size="10.00">+ ConeEntity()</text>
<text text-anchor="start" x="1008" y="-123" font-family="Helvetica,sans-Serif" font-size="10.00">+ getType()</text>
<text text-anchor="start" x="1008" y="-112" font-family="Helvetica,sans-Serif" font-size="10.00">+ getTransform()</text>
<text text-anchor="start" x="1008" y="-101" font-family="Helvetica,sans-Serif" font-size="10.00">+ getTransform()</text>
<text text-anchor="start" x="1008" y="-90" font-family="Helvetica,sans-Serif" font-size="10.00">+ isCollided()</text>
<text text-anchor="start" x="1008" y="-79" font-family="Helvetica,sans-Serif" font-size="10.00">+ isCollided()</text>
<text text-anchor="start" x="1008" y="-68" font-family="Helvetica,sans-Serif" font-size="10.00">+ getColor()</text>
<text text-anchor="start" x="1008" y="-57" font-family="Helvetica,sans-Serif" font-size="10.00">+ redirectionLight()</text>
</a>
</g>
</g>
<!-- Node10&#45;&gt;Node11 -->
<g id="edge10" class="edge">
<title>Node10&#45;&gt;Node11</title>
<path fill="none" stroke="midnightblue" d="M1559.66,-378.62C1440.75,-364.27 1197.52,-329.42 1131,-278 1114.21,-265.02 1101.12,-246.91 1091.04,-228.07"/>
<polygon fill="none" stroke="midnightblue" points="1559.38,-382.12 1569.73,-379.83 1560.21,-375.17 1559.38,-382.12"/>
</g>
<!-- Node12 -->
<g id="node12" class="node">
<title>Node12</title>
<g id="a_node12"><a xlink:href="a01528.html" target="_top" xlink:title=" ">
<polygon fill="white" stroke="black" points="1140,-44.5 1140,-233.5 1278,-233.5 1278,-44.5 1140,-44.5"/>
<text text-anchor="start" x="1148" y="-221.5" font-family="Helvetica,sans-Serif" font-size="10.00">RayTracer::PluginsExt</text>
<text text-anchor="middle" x="1209" y="-210.5" font-family="Helvetica,sans-Serif" font-size="10.00">::Cylinder::CylinderEntity</text>
<polyline fill="none" stroke="black" points="1140,-203.5 1278,-203.5 "/>
<text text-anchor="start" x="1148" y="-191.5" font-family="Helvetica,sans-Serif" font-size="10.00">&#45; _transform</text>
<text text-anchor="start" x="1148" y="-180.5" font-family="Helvetica,sans-Serif" font-size="10.00">&#45; _direction</text>
<text text-anchor="start" x="1148" y="-169.5" font-family="Helvetica,sans-Serif" font-size="10.00">&#45; _radius</text>
<text text-anchor="start" x="1148" y="-158.5" font-family="Helvetica,sans-Serif" font-size="10.00">&#45; _logger</text>
<text text-anchor="start" x="1148" y="-147.5" font-family="Helvetica,sans-Serif" font-size="10.00">&#45; _material</text>
<polyline fill="none" stroke="black" points="1140,-140.5 1278,-140.5 "/>
<text text-anchor="start" x="1148" y="-128.5" font-family="Helvetica,sans-Serif" font-size="10.00">+ CylinderEntity()</text>
<text text-anchor="start" x="1148" y="-117.5" font-family="Helvetica,sans-Serif" font-size="10.00">+ getType()</text>
<text text-anchor="start" x="1148" y="-106.5" font-family="Helvetica,sans-Serif" font-size="10.00">+ getTransform()</text>
<text text-anchor="start" x="1148" y="-95.5" font-family="Helvetica,sans-Serif" font-size="10.00">+ getTransform()</text>
<text text-anchor="start" x="1148" y="-84.5" font-family="Helvetica,sans-Serif" font-size="10.00">+ isCollided()</text>
<text text-anchor="start" x="1148" y="-73.5" font-family="Helvetica,sans-Serif" font-size="10.00">+ isCollided()</text>
<text text-anchor="start" x="1148" y="-62.5" font-family="Helvetica,sans-Serif" font-size="10.00">+ getColor()</text>
<text text-anchor="start" x="1148" y="-51.5" font-family="Helvetica,sans-Serif" font-size="10.00">+ redirectionLight()</text>
</a>
</g>
</g>
<!-- Node10&#45;&gt;Node12 -->
<g id="edge11" class="edge">
<title>Node10&#45;&gt;Node12</title>
<path fill="none" stroke="midnightblue" d="M1559.83,-379.4C1486.1,-369.01 1366.78,-342.83 1287,-278 1272.16,-265.94 1259.62,-250.25 1249.24,-233.8"/>
<polygon fill="none" stroke="midnightblue" points="1559.55,-382.89 1569.92,-380.76 1560.48,-375.95 1559.55,-382.89"/>
</g>
<!-- Node13 -->
<g id="node13" class="node">
<title>Node13</title>
<g id="a_node13"><a xlink:href="a01536.html" target="_top" xlink:title=" ">
<polygon fill="white" stroke="black" points="1296,-50 1296,-228 1418,-228 1418,-50 1296,-50"/>
<text text-anchor="start" x="1304" y="-216" font-family="Helvetica,sans-Serif" font-size="10.00">RayTracer::PluginsExt</text>
<text text-anchor="middle" x="1357" y="-205" font-family="Helvetica,sans-Serif" font-size="10.00">::Disk::DiskEntity</text>
<polyline fill="none" stroke="black" points="1296,-198 1418,-198 "/>
<text text-anchor="start" x="1304" y="-186" font-family="Helvetica,sans-Serif" font-size="10.00">&#45; _transform</text>
<text text-anchor="start" x="1304" y="-175" font-family="Helvetica,sans-Serif" font-size="10.00">&#45; _radius</text>
<text text-anchor="start" x="1304" y="-164" font-family="Helvetica,sans-Serif" font-size="10.00">&#45; _material</text>
<text text-anchor="start" x="1304" y="-153" font-family="Helvetica,sans-Serif" font-size="10.00">&#45; _logger</text>
<polyline fill="none" stroke="black" points="1296,-146 1418,-146 "/>
<text text-anchor="start" x="1304" y="-134" font-family="Helvetica,sans-Serif" font-size="10.00">+ DiskEntity()</text>
<text text-anchor="start" x="1304" y="-123" font-family="Helvetica,sans-Serif" font-size="10.00">+ getType()</text>
<text text-anchor="start" x="1304" y="-112" font-family="Helvetica,sans-Serif" font-size="10.00">+ getTransform()</text>
<text text-anchor="start" x="1304" y="-101" font-family="Helvetica,sans-Serif" font-size="10.00">+ getTransform()</text>
<text text-anchor="start" x="1304" y="-90" font-family="Helvetica,sans-Serif" font-size="10.00">+ isCollided()</text>
<text text-anchor="start" x="1304" y="-79" font-family="Helvetica,sans-Serif" font-size="10.00">+ isCollided()</text>
<text text-anchor="start" x="1304" y="-68" font-family="Helvetica,sans-Serif" font-size="10.00">+ getColor()</text>
<text text-anchor="start" x="1304" y="-57" font-family="Helvetica,sans-Serif" font-size="10.00">+ redirectionLight()</text>
</a>
</g>
</g>
<!-- Node10&#45;&gt;Node13 -->
<g id="edge12" class="edge">
<title>Node10&#45;&gt;Node13</title>
<path fill="none" stroke="midnightblue" d="M1560.57,-362.4C1518.26,-344.49 1464.33,-316.38 1427,-278 1413.05,-263.65 1401.29,-245.97 1391.62,-228.11"/>
<polygon fill="none" stroke="midnightblue" points="1559.38,-365.69 1569.96,-366.28 1562.06,-359.22 1559.38,-365.69"/>
</g>
<!-- Node14 -->
<g id="node14" class="node">
<title>Node14</title>
<g id="a_node14"><a xlink:href="a01544.html" target="_top" xlink:title=" ">
<polygon fill="white" stroke="black" points="1436,-44.5 1436,-233.5 1616,-233.5 1616,-44.5 1436,-44.5"/>
<text text-anchor="start" x="1444" y="-221.5" font-family="Helvetica,sans-Serif" font-size="10.00">RayTracer::PluginsExt</text>
<text text-anchor="middle" x="1526" y="-210.5" font-family="Helvetica,sans-Serif" font-size="10.00">::LimitedCone::LimitedConeEntity</text>
<polyline fill="none" stroke="black" points="1436,-203.5 1616,-203.5 "/>
<text text-anchor="start" x="1444" y="-191.5" font-family="Helvetica,sans-Serif" font-size="10.00">&#45; _transform</text>
<text text-anchor="start" x="1444" y="-180.5" font-family="Helvetica,sans-Serif" font-size="10.00">&#45; _angle</text>
<text text-anchor="start" x="1444" y="-169.5" font-family="Helvetica,sans-Serif" font-size="10.00">&#45; _logger</text>
<text text-anchor="start" x="1444" y="-158.5" font-family="Helvetica,sans-Serif" font-size="10.00">&#45; _material</text>
<text text-anchor="start" x="1444" y="-147.5" font-family="Helvetica,sans-Serif" font-size="10.00">&#45; _height</text>
<polyline fill="none" stroke="black" points="1436,-140.5 1616,-140.5 "/>
<text text-anchor="start" x="1444" y="-128.5" font-family="Helvetica,sans-Serif" font-size="10.00">+ LimitedConeEntity()</text>
<text text-anchor="start" x="1444" y="-117.5" font-family="Helvetica,sans-Serif" font-size="10.00">+ getType()</text>
<text text-anchor="start" x="1444" y="-106.5" font-family="Helvetica,sans-Serif" font-size="10.00">+ getTransform()</text>
<text text-anchor="start" x="1444" y="-95.5" font-family="Helvetica,sans-Serif" font-size="10.00">+ getTransform()</text>
<text text-anchor="start" x="1444" y="-84.5" font-family="Helvetica,sans-Serif" font-size="10.00">+ isCollided()</text>
<text text-anchor="start" x="1444" y="-73.5" font-family="Helvetica,sans-Serif" font-size="10.00">+ isCollided()</text>
<text text-anchor="start" x="1444" y="-62.5" font-family="Helvetica,sans-Serif" font-size="10.00">+ getColor()</text>
<text text-anchor="start" x="1444" y="-51.5" font-family="Helvetica,sans-Serif" font-size="10.00">+ redirectionLight()</text>
</a>
</g>
</g>
<!-- Node10&#45;&gt;Node14 -->
<g id="edge13" class="edge">
<title>Node10&#45;&gt;Node14</title>
<path fill="none" stroke="midnightblue" d="M1599.79,-321.51C1588.88,-294.67 1575.99,-262.99 1564.07,-233.66"/>
<polygon fill="none" stroke="midnightblue" points="1596.55,-322.85 1603.56,-330.79 1603.03,-320.21 1596.55,-322.85"/>
</g>
<!-- Node15 -->
<g id="node15" class="node">
<title>Node15</title>
<g id="a_node15"><a xlink:href="a01552.html" target="_top" xlink:title=" ">
<polygon fill="white" stroke="black" points="1634.5,-33.5 1634.5,-244.5 1817.5,-244.5 1817.5,-33.5 1634.5,-33.5"/>
<text text-anchor="start" x="1642.5" y="-232.5" font-family="Helvetica,sans-Serif" font-size="10.00">RayTracer::PluginsExt</text>
<text text-anchor="start" x="1642.5" y="-221.5" font-family="Helvetica,sans-Serif" font-size="10.00">::LimitedCylinder::LimitedCylinder</text>
<text text-anchor="middle" x="1726" y="-210.5" font-family="Helvetica,sans-Serif" font-size="10.00">Entity</text>
<polyline fill="none" stroke="black" points="1634.5,-203.5 1817.5,-203.5 "/>
<text text-anchor="start" x="1642.5" y="-191.5" font-family="Helvetica,sans-Serif" font-size="10.00">&#45; _transform</text>
<text text-anchor="start" x="1642.5" y="-180.5" font-family="Helvetica,sans-Serif" font-size="10.00">&#45; _direction</text>
<text text-anchor="start" x="1642.5" y="-169.5" font-family="Helvetica,sans-Serif" font-size="10.00">&#45; _radius</text>
<text text-anchor="start" x="1642.5" y="-158.5" font-family="Helvetica,sans-Serif" font-size="10.00">&#45; _logger</text>
<text text-anchor="start" x="1642.5" y="-147.5" font-family="Helvetica,sans-Serif" font-size="10.00">&#45; _material</text>
<text text-anchor="start" x="1642.5" y="-136.5" font-family="Helvetica,sans-Serif" font-size="10.00">&#45; _height</text>
<polyline fill="none" stroke="black" points="1634.5,-129.5 1817.5,-129.5 "/>
<text text-anchor="start" x="1642.5" y="-117.5" font-family="Helvetica,sans-Serif" font-size="10.00">+ LimitedCylinderEntity()</text>
<text text-anchor="start" x="1642.5" y="-106.5" font-family="Helvetica,sans-Serif" font-size="10.00">+ getType()</text>
<text text-anchor="start" x="1642.5" y="-95.5" font-family="Helvetica,sans-Serif" font-size="10.00">+ getTransform()</text>
<text text-anchor="start" x="1642.5" y="-84.5" font-family="Helvetica,sans-Serif" font-size="10.00">+ getTransform()</text>
<text text-anchor="start" x="1642.5" y="-73.5" font-family="Helvetica,sans-Serif" font-size="10.00">+ isCollided()</text>
<text text-anchor="start" x="1642.5" y="-62.5" font-family="Helvetica,sans-Serif" font-size="10.00">+ isCollided()</text>
<text text-anchor="start" x="1642.5" y="-51.5" font-family="Helvetica,sans-Serif" font-size="10.00">+ getColor()</text>
<text text-anchor="start" x="1642.5" y="-40.5" font-family="Helvetica,sans-Serif" font-size="10.00">+ redirectionLight()</text>
</a>
</g>
</g>
<!-- Node10&#45;&gt;Node15 -->
<g id="edge14" class="edge">
<title>Node10&#45;&gt;Node15</title>
<path fill="none" stroke="midnightblue" d="M1652.28,-321.35C1661.79,-297.96 1672.78,-270.91 1683.33,-244.96"/>
<polygon fill="none" stroke="midnightblue" points="1648.97,-320.21 1648.44,-330.79 1655.45,-322.85 1648.97,-320.21"/>
</g>
<!-- Node16 -->
<g id="node16" class="node">
<title>Node16</title>
<g id="a_node16"><a xlink:href="a01560.html" target="_top" xlink:title=" ">
<polygon fill="white" stroke="black" points="1836,-44.5 1836,-233.5 1992,-233.5 1992,-44.5 1836,-44.5"/>
<text text-anchor="start" x="1844" y="-221.5" font-family="Helvetica,sans-Serif" font-size="10.00">RayTracer::PluginsExt</text>
<text text-anchor="start" x="1844" y="-210.5" font-family="Helvetica,sans-Serif" font-size="10.00">::LimitedPlane::LimitedPlane</text>
<text text-anchor="middle" x="1914" y="-199.5" font-family="Helvetica,sans-Serif" font-size="10.00">Entity</text>
<polyline fill="none" stroke="black" points="1836,-192.5 1992,-192.5 "/>
<text text-anchor="start" x="1844" y="-180.5" font-family="Helvetica,sans-Serif" font-size="10.00">&#45; _transform</text>
<text text-anchor="start" x="1844" y="-169.5" font-family="Helvetica,sans-Serif" font-size="10.00">&#45; _size</text>
<text text-anchor="start" x="1844" y="-158.5" font-family="Helvetica,sans-Serif" font-size="10.00">&#45; _material</text>
<text text-anchor="start" x="1844" y="-147.5" font-family="Helvetica,sans-Serif" font-size="10.00">&#45; _logger</text>
<polyline fill="none" stroke="black" points="1836,-140.5 1992,-140.5 "/>
<text text-anchor="start" x="1844" y="-128.5" font-family="Helvetica,sans-Serif" font-size="10.00">+ LimitedPlaneEntity()</text>
<text text-anchor="start" x="1844" y="-117.5" font-family="Helvetica,sans-Serif" font-size="10.00">+ getType()</text>
<text text-anchor="start" x="1844" y="-106.5" font-family="Helvetica,sans-Serif" font-size="10.00">+ getTransform()</text>
<text text-anchor="start" x="1844" y="-95.5" font-family="Helvetica,sans-Serif" font-size="10.00">+ getTransform()</text>
<text text-anchor="start" x="1844" y="-84.5" font-family="Helvetica,sans-Serif" font-size="10.00">+ isCollided()</text>
<text text-anchor="start" x="1844" y="-73.5" font-family="Helvetica,sans-Serif" font-size="10.00">+ isCollided()</text>
<text text-anchor="start" x="1844" y="-62.5" font-family="Helvetica,sans-Serif" font-size="10.00">+ getColor()</text>
<text text-anchor="start" x="1844" y="-51.5" font-family="Helvetica,sans-Serif" font-size="10.00">+ redirectionLight()</text>
</a>
</g>
</g>
<!-- Node10&#45;&gt;Node16 -->
<g id="edge15" class="edge">
<title>Node10&#45;&gt;Node16</title>
<path fill="none" stroke="midnightblue" d="M1691.37,-361.17C1733.55,-342.82 1787.68,-314.68 1827,-278 1840.77,-265.15 1853.26,-249.67 1864.2,-233.78"/>
<polygon fill="none" stroke="midnightblue" points="1689.84,-358.02 1682.02,-365.17 1692.59,-364.46 1689.84,-358.02"/>
</g>
<!-- Node17 -->
<g id="node17" class="node">
<title>Node17</title>
<g id="a_node17"><a xlink:href="a01576.html" target="_top" xlink:title=" ">
<polygon fill="white" stroke="black" points="2010,-55.5 2010,-222.5 2132,-222.5 2132,-55.5 2010,-55.5"/>
<text text-anchor="start" x="2018" y="-210.5" font-family="Helvetica,sans-Serif" font-size="10.00">RayTracer::PluginsExt</text>
<text text-anchor="middle" x="2071" y="-199.5" font-family="Helvetica,sans-Serif" font-size="10.00">::Plane::PlaneEntity</text>
<polyline fill="none" stroke="black" points="2010,-192.5 2132,-192.5 "/>
<text text-anchor="start" x="2018" y="-180.5" font-family="Helvetica,sans-Serif" font-size="10.00">&#45; _transform</text>
<text text-anchor="start" x="2018" y="-169.5" font-family="Helvetica,sans-Serif" font-size="10.00">&#45; _material</text>
<text text-anchor="start" x="2018" y="-158.5" font-family="Helvetica,sans-Serif" font-size="10.00">&#45; _logger</text>
<polyline fill="none" stroke="black" points="2010,-151.5 2132,-151.5 "/>
<text text-anchor="start" x="2018" y="-139.5" font-family="Helvetica,sans-Serif" font-size="10.00">+ PlaneEntity()</text>
<text text-anchor="start" x="2018" y="-128.5" font-family="Helvetica,sans-Serif" font-size="10.00">+ getType()</text>
<text text-anchor="start" x="2018" y="-117.5" font-family="Helvetica,sans-Serif" font-size="10.00">+ getTransform()</text>
<text text-anchor="start" x="2018" y="-106.5" font-family="Helvetica,sans-Serif" font-size="10.00">+ getTransform()</text>
<text text-anchor="start" x="2018" y="-95.5" font-family="Helvetica,sans-Serif" font-size="10.00">+ isCollided()</text>
<text text-anchor="start" x="2018" y="-84.5" font-family="Helvetica,sans-Serif" font-size="10.00">+ isCollided()</text>
<text text-anchor="start" x="2018" y="-73.5" font-family="Helvetica,sans-Serif" font-size="10.00">+ getColor()</text>
<text text-anchor="start" x="2018" y="-62.5" font-family="Helvetica,sans-Serif" font-size="10.00">+ redirectionLight()</text>
</a>
</g>
</g>
<!-- Node10&#45;&gt;Node17 -->
<g id="edge16" class="edge">
<title>Node10&#45;&gt;Node17</title>
<path fill="none" stroke="midnightblue" d="M1692.11,-382.69C1773.33,-375.39 1911.37,-352.11 2001,-278 2018.7,-263.36 2032.39,-243.11 2042.77,-222.63"/>
<polygon fill="none" stroke="midnightblue" points="1691.67,-379.21 1682,-383.54 1692.26,-386.19 1691.67,-379.21"/>
</g>
<!-- Node18 -->
<g id="node18" class="node">
<title>Node18</title>
<g id="a_node18"><a xlink:href="a01592.html" target="_top" xlink:title=" ">
<polygon fill="white" stroke="black" points="2150.5,-50 2150.5,-228 2275.5,-228 2275.5,-50 2150.5,-50"/>
<text text-anchor="start" x="2158.5" y="-216" font-family="Helvetica,sans-Serif" font-size="10.00">RayTracer::PluginsExt</text>
<text text-anchor="middle" x="2213" y="-205" font-family="Helvetica,sans-Serif" font-size="10.00">::Sphere::SphereEntity</text>
<polyline fill="none" stroke="black" points="2150.5,-198 2275.5,-198 "/>
<text text-anchor="start" x="2158.5" y="-186" font-family="Helvetica,sans-Serif" font-size="10.00">&#45; _transform</text>
<text text-anchor="start" x="2158.5" y="-175" font-family="Helvetica,sans-Serif" font-size="10.00">&#45; _radius</text>
<text text-anchor="start" x="2158.5" y="-164" font-family="Helvetica,sans-Serif" font-size="10.00">&#45; _material</text>
<text text-anchor="start" x="2158.5" y="-153" font-family="Helvetica,sans-Serif" font-size="10.00">&#45; _logger</text>
<polyline fill="none" stroke="black" points="2150.5,-146 2275.5,-146 "/>
<text text-anchor="start" x="2158.5" y="-134" font-family="Helvetica,sans-Serif" font-size="10.00">+ SphereEntity()</text>
<text text-anchor="start" x="2158.5" y="-123" font-family="Helvetica,sans-Serif" font-size="10.00">+ getType()</text>
<text text-anchor="start" x="2158.5" y="-112" font-family="Helvetica,sans-Serif" font-size="10.00">+ getTransform()</text>
<text text-anchor="start" x="2158.5" y="-101" font-family="Helvetica,sans-Serif" font-size="10.00">+ getTransform()</text>
<text text-anchor="start" x="2158.5" y="-90" font-family="Helvetica,sans-Serif" font-size="10.00">+ isCollided()</text>
<text text-anchor="start" x="2158.5" y="-79" font-family="Helvetica,sans-Serif" font-size="10.00">+ isCollided()</text>
<text text-anchor="start" x="2158.5" y="-68" font-family="Helvetica,sans-Serif" font-size="10.00">+ getColor()</text>
<text text-anchor="start" x="2158.5" y="-57" font-family="Helvetica,sans-Serif" font-size="10.00">+ redirectionLight()</text>
</a>
</g>
</g>
<!-- Node10&#45;&gt;Node18 -->
<g id="edge17" class="edge">
<title>Node10&#45;&gt;Node18</title>
<path fill="none" stroke="midnightblue" d="M1692.24,-379.18C1814.8,-365.44 2070.88,-331.12 2141,-278 2158.02,-265.11 2171.39,-247.03 2181.74,-228.2"/>
<polygon fill="none" stroke="midnightblue" points="1691.78,-375.71 1682.23,-380.29 1692.55,-382.67 1691.78,-375.71"/>
</g>
<!-- Node19 -->
<g id="node19" class="node">
<title>Node19</title>
<g id="a_node19"><a xlink:href="a01608.html" target="_top" xlink:title=" ">
<polygon fill="white" stroke="black" points="2294,-39 2294,-239 2428,-239 2428,-39 2294,-39"/>
<text text-anchor="start" x="2302" y="-227" font-family="Helvetica,sans-Serif" font-size="10.00">RayTracer::PluginsExt</text>
<text text-anchor="middle" x="2361" y="-216" font-family="Helvetica,sans-Serif" font-size="10.00">::Triangle::TriangleEntity</text>
<polyline fill="none" stroke="black" points="2294,-209 2428,-209 "/>
<text text-anchor="start" x="2302" y="-197" font-family="Helvetica,sans-Serif" font-size="10.00">&#45; _transform</text>
<text text-anchor="start" x="2302" y="-186" font-family="Helvetica,sans-Serif" font-size="10.00">&#45; _material</text>
<text text-anchor="start" x="2302" y="-175" font-family="Helvetica,sans-Serif" font-size="10.00">&#45; _pointOne</text>
<text text-anchor="start" x="2302" y="-164" font-family="Helvetica,sans-Serif" font-size="10.00">&#45; _pointTwo</text>
<text text-anchor="start" x="2302" y="-153" font-family="Helvetica,sans-Serif" font-size="10.00">&#45; _pointThree</text>
<text text-anchor="start" x="2302" y="-142" font-family="Helvetica,sans-Serif" font-size="10.00">&#45; _logger</text>
<polyline fill="none" stroke="black" points="2294,-135 2428,-135 "/>
<text text-anchor="start" x="2302" y="-123" font-family="Helvetica,sans-Serif" font-size="10.00">+ TriangleEntity()</text>
<text text-anchor="start" x="2302" y="-112" font-family="Helvetica,sans-Serif" font-size="10.00">+ getType()</text>
<text text-anchor="start" x="2302" y="-101" font-family="Helvetica,sans-Serif" font-size="10.00">+ getTransform()</text>
<text text-anchor="start" x="2302" y="-90" font-family="Helvetica,sans-Serif" font-size="10.00">+ getTransform()</text>
<text text-anchor="start" x="2302" y="-79" font-family="Helvetica,sans-Serif" font-size="10.00">+ isCollided()</text>
<text text-anchor="start" x="2302" y="-68" font-family="Helvetica,sans-Serif" font-size="10.00">+ isCollided()</text>
<text text-anchor="start" x="2302" y="-57" font-family="Helvetica,sans-Serif" font-size="10.00">+ getColor()</text>
<text text-anchor="start" x="2302" y="-46" font-family="Helvetica,sans-Serif" font-size="10.00">+ redirectionLight()</text>
</a>
</g>
</g>
<!-- Node10&#45;&gt;Node19 -->
<g id="edge18" class="edge">
<title>Node10&#45;&gt;Node19</title>
<path fill="none" stroke="midnightblue" d="M1692.51,-382.4C1840.24,-373.27 2190.15,-344.99 2285,-278 2299.41,-267.82 2311.38,-254.01 2321.23,-239.05"/>
<polygon fill="none" stroke="midnightblue" points="1692,-378.93 1682.23,-383.03 1692.42,-385.91 1692,-378.93"/>
</g>
</g>
</svg>
