<?xml version="1.0" encoding="UTF-8" standalone="no"?>
<!DOCTYPE svg PUBLIC "-//W3C//DTD SVG 1.1//EN"
 "http://www.w3.org/Graphics/SVG/1.1/DTD/svg11.dtd">
<!-- Generated by graphviz version 2.43.0 (0)
 -->
<!-- Title: RayTracer::Display::CanvasModule Pages: 1 -->
<svg width="965pt" height="1130pt"
 viewBox="0.00 0.00 964.50 1130.00" xmlns="http://www.w3.org/2000/svg" xmlns:xlink="http://www.w3.org/1999/xlink">
<g id="graph0" class="graph" transform="scale(1 1) rotate(0) translate(4 1126)">
<title>RayTracer::Display::CanvasModule</title>
<polygon fill="white" stroke="transparent" points="-4,4 -4,-1126 960.5,-1126 960.5,4 -4,4"/>
<!-- Node1 -->
<g id="node1" class="node">
<title>Node1</title>
<g id="a_node1"><a xlink:title=" ">
<polygon fill="#bfbfbf" stroke="black" points="551,-0.5 551,-255.5 685,-255.5 685,-0.5 551,-0.5"/>
<text text-anchor="start" x="559" y="-243.5" font-family="Helvetica,sans-Serif" font-size="10.00">RayTracer::Display</text>
<text text-anchor="middle" x="618" y="-232.5" font-family="Helvetica,sans-Serif" font-size="10.00">::CanvasModule</text>
<polyline fill="none" stroke="black" points="551,-225.5 685,-225.5 "/>
<text text-anchor="middle" x="618" y="-213.5" font-family="Helvetica,sans-Serif" font-size="10.00"> </text>
<polyline fill="none" stroke="black" points="551,-206.5 685,-206.5 "/>
<text text-anchor="start" x="559" y="-194.5" font-family="Helvetica,sans-Serif" font-size="10.00">+ CanvasModule()</text>
<text text-anchor="start" x="559" y="-183.5" font-family="Helvetica,sans-Serif" font-size="10.00">+ tick()</text>
<text text-anchor="start" x="559" y="-172.5" font-family="Helvetica,sans-Serif" font-size="10.00">+ event()</text>
<text text-anchor="start" x="559" y="-161.5" font-family="Helvetica,sans-Serif" font-size="10.00">+ start()</text>
<text text-anchor="start" x="559" y="-150.5" font-family="Helvetica,sans-Serif" font-size="10.00">+ end()</text>
<text text-anchor="start" x="559" y="-139.5" font-family="Helvetica,sans-Serif" font-size="10.00">+ getName()</text>
<text text-anchor="start" x="559" y="-128.5" font-family="Helvetica,sans-Serif" font-size="10.00">&#45; resizeWindow()</text>
<text text-anchor="start" x="559" y="-117.5" font-family="Helvetica,sans-Serif" font-size="10.00">&#45; execIfReady()</text>
<text text-anchor="start" x="559" y="-106.5" font-family="Helvetica,sans-Serif" font-size="10.00">&#45; goToNextCamera()</text>
<text text-anchor="start" x="559" y="-95.5" font-family="Helvetica,sans-Serif" font-size="10.00">&#45; goToPreviousCamera()</text>
<text text-anchor="start" x="559" y="-84.5" font-family="Helvetica,sans-Serif" font-size="10.00">&#45; addFocalLength()</text>
<text text-anchor="start" x="559" y="-73.5" font-family="Helvetica,sans-Serif" font-size="10.00">&#45; removeFocalLength()</text>
<text text-anchor="start" x="559" y="-62.5" font-family="Helvetica,sans-Serif" font-size="10.00">&#45; goLeft()</text>
<text text-anchor="start" x="559" y="-51.5" font-family="Helvetica,sans-Serif" font-size="10.00">&#45; goRight()</text>
<text text-anchor="start" x="559" y="-40.5" font-family="Helvetica,sans-Serif" font-size="10.00">&#45; goForward()</text>
<text text-anchor="start" x="559" y="-29.5" font-family="Helvetica,sans-Serif" font-size="10.00">&#45; goBackward()</text>
<text text-anchor="start" x="559" y="-18.5" font-family="Helvetica,sans-Serif" font-size="10.00">&#45; goUp()</text>
<text text-anchor="start" x="559" y="-7.5" font-family="Helvetica,sans-Serif" font-size="10.00">&#45; goDown()</text>
</a>
</g>
</g>
<!-- Node2 -->
<g id="node2" class="node">
<title>Node2</title>
<g id="a_node2"><a xlink:href="a01272.html" target="_top" xlink:title=" ">
<polygon fill="white" stroke="black" points="327.5,-342 327.5,-465 446.5,-465 446.5,-342 327.5,-342"/>
<text text-anchor="start" x="335.5" y="-453" font-family="Helvetica,sans-Serif" font-size="10.00">RayTracer::Display</text>
<text text-anchor="middle" x="387" y="-442" font-family="Helvetica,sans-Serif" font-size="10.00">::IDisplayModule</text>
<polyline fill="none" stroke="black" points="327.5,-435 446.5,-435 "/>
<text text-anchor="middle" x="387" y="-423" font-family="Helvetica,sans-Serif" font-size="10.00"> </text>
<polyline fill="none" stroke="black" points="327.5,-416 446.5,-416 "/>
<text text-anchor="start" x="335.5" y="-404" font-family="Helvetica,sans-Serif" font-size="10.00">+ ~IDisplayModule()</text>
<text text-anchor="start" x="335.5" y="-393" font-family="Helvetica,sans-Serif" font-size="10.00">+ tick()</text>
<text text-anchor="start" x="335.5" y="-382" font-family="Helvetica,sans-Serif" font-size="10.00">+ event()</text>
<text text-anchor="start" x="335.5" y="-371" font-family="Helvetica,sans-Serif" font-size="10.00">+ start()</text>
<text text-anchor="start" x="335.5" y="-360" font-family="Helvetica,sans-Serif" font-size="10.00">+ end()</text>
<text text-anchor="start" x="335.5" y="-349" font-family="Helvetica,sans-Serif" font-size="10.00">+ getName()</text>
</a>
</g>
</g>
<!-- Node2&#45;&gt;Node1 -->
<g id="edge1" class="edge">
<title>Node2&#45;&gt;Node1</title>
<path fill="none" stroke="midnightblue" d="M432.04,-333.62C439.45,-323.17 447.25,-312.66 455,-303 484.66,-266.03 520.39,-227.33 550.84,-195.83"/>
<polygon fill="none" stroke="midnightblue" points="429.06,-331.77 426.18,-341.97 434.79,-335.79 429.06,-331.77"/>
</g>
<!-- Node3 -->
<g id="node3" class="node">
<title>Node3</title>
<g id="a_node3"><a xlink:href="a01532.html" target="_top" xlink:title="The Scene class.">
<polygon fill="white" stroke="black" points="464.5,-303.5 464.5,-503.5 575.5,-503.5 575.5,-303.5 464.5,-303.5"/>
<text text-anchor="start" x="472.5" y="-491.5" font-family="Helvetica,sans-Serif" font-size="10.00">RayTracer::Scenes::</text>
<text text-anchor="middle" x="520" y="-480.5" font-family="Helvetica,sans-Serif" font-size="10.00">Scene</text>
<polyline fill="none" stroke="black" points="464.5,-473.5 575.5,-473.5 "/>
<text text-anchor="middle" x="520" y="-461.5" font-family="Helvetica,sans-Serif" font-size="10.00"> </text>
<polyline fill="none" stroke="black" points="464.5,-454.5 575.5,-454.5 "/>
<text text-anchor="start" x="472.5" y="-442.5" font-family="Helvetica,sans-Serif" font-size="10.00">+ Scene()</text>
<text text-anchor="start" x="472.5" y="-431.5" font-family="Helvetica,sans-Serif" font-size="10.00">+ ~Scene()</text>
<text text-anchor="start" x="472.5" y="-420.5" font-family="Helvetica,sans-Serif" font-size="10.00">+ operator()()</text>
<text text-anchor="start" x="472.5" y="-409.5" font-family="Helvetica,sans-Serif" font-size="10.00">+ renders()</text>
<text text-anchor="start" x="472.5" y="-398.5" font-family="Helvetica,sans-Serif" font-size="10.00">+ getCameras()</text>
<text text-anchor="start" x="472.5" y="-387.5" font-family="Helvetica,sans-Serif" font-size="10.00">+ getCameras()</text>
<text text-anchor="start" x="472.5" y="-376.5" font-family="Helvetica,sans-Serif" font-size="10.00">+ isReady()</text>
<text text-anchor="start" x="472.5" y="-365.5" font-family="Helvetica,sans-Serif" font-size="10.00">+ cancel()</text>
<text text-anchor="start" x="472.5" y="-354.5" font-family="Helvetica,sans-Serif" font-size="10.00">+ wait_end()</text>
<text text-anchor="start" x="472.5" y="-343.5" font-family="Helvetica,sans-Serif" font-size="10.00">+ getState()</text>
<text text-anchor="start" x="472.5" y="-332.5" font-family="Helvetica,sans-Serif" font-size="10.00">+ getState()</text>
<text text-anchor="start" x="472.5" y="-321.5" font-family="Helvetica,sans-Serif" font-size="10.00">&#45; loadConfig()</text>
<text text-anchor="start" x="472.5" y="-310.5" font-family="Helvetica,sans-Serif" font-size="10.00">&#45; waitTillCancel()</text>
</a>
</g>
</g>
<!-- Node3&#45;&gt;Node1 -->
<g id="edge2" class="edge">
<title>Node3&#45;&gt;Node1</title>
<path fill="none" stroke="#404040" d="M555.52,-303.37C559.71,-291.67 564.05,-279.57 568.39,-267.46"/>
<polygon fill="none" stroke="#404040" points="568.5,-267.14 566.76,-260.14 572.55,-255.85 574.29,-262.84 568.5,-267.14"/>
<text text-anchor="middle" x="583.5" y="-277" font-family="Helvetica,sans-Serif" font-size="10.00"> &#45;_scene</text>
</g>
<!-- Node4 -->
<g id="node4" class="node">
<title>Node4</title>
<g id="a_node4"><a xlink:href="a01496.html" target="_top" xlink:title="The Displayable class.">
<polygon fill="white" stroke="black" points="187,-562.5 187,-685.5 303,-685.5 303,-562.5 187,-562.5"/>
<text text-anchor="start" x="195" y="-673.5" font-family="Helvetica,sans-Serif" font-size="10.00">RayTracer::Scenes::</text>
<text text-anchor="middle" x="245" y="-662.5" font-family="Helvetica,sans-Serif" font-size="10.00">Displayable</text>
<polyline fill="none" stroke="black" points="187,-655.5 303,-655.5 "/>
<text text-anchor="middle" x="245" y="-643.5" font-family="Helvetica,sans-Serif" font-size="10.00"> </text>
<polyline fill="none" stroke="black" points="187,-636.5 303,-636.5 "/>
<text text-anchor="start" x="195" y="-624.5" font-family="Helvetica,sans-Serif" font-size="10.00">+ getLightList()</text>
<text text-anchor="start" x="195" y="-613.5" font-family="Helvetica,sans-Serif" font-size="10.00">+ getLightList()</text>
<text text-anchor="start" x="195" y="-602.5" font-family="Helvetica,sans-Serif" font-size="10.00">+ getPrimitiveList()</text>
<text text-anchor="start" x="195" y="-591.5" font-family="Helvetica,sans-Serif" font-size="10.00">+ getPrimitiveList()</text>
<text text-anchor="start" x="195" y="-580.5" font-family="Helvetica,sans-Serif" font-size="10.00">+ getAmbientLight()</text>
<text text-anchor="start" x="195" y="-569.5" font-family="Helvetica,sans-Serif" font-size="10.00">+ getAmbientLight()</text>
</a>
</g>
</g>
<!-- Node4&#45;&gt;Node3 -->
<g id="edge3" class="edge">
<title>Node4&#45;&gt;Node3</title>
<path fill="none" stroke="#404040" d="M298.18,-562.18C302.68,-558.2 307.31,-554.42 312,-551 336.59,-533.09 345.2,-531.8 374,-522 405.77,-511.18 421.69,-522.53 454.17,-503.33"/>
<polygon fill="none" stroke="#404040" points="454.27,-503.27 457.1,-496.64 464.31,-496.7 461.48,-503.33 454.27,-503.27"/>
<text text-anchor="middle" x="408.5" y="-525" font-family="Helvetica,sans-Serif" font-size="10.00"> &#45;_displayable</text>
</g>
<!-- Node5 -->
<g id="node5" class="node">
<title>Node5</title>
<g id="a_node5"><a xlink:href="a01508.html" target="_top" xlink:title="The IDisplayable interface.">
<polygon fill="white" stroke="black" points="187,-744.5 187,-867.5 303,-867.5 303,-744.5 187,-744.5"/>
<text text-anchor="start" x="195" y="-855.5" font-family="Helvetica,sans-Serif" font-size="10.00">RayTracer::Scenes::</text>
<text text-anchor="middle" x="245" y="-844.5" font-family="Helvetica,sans-Serif" font-size="10.00">IDisplayable</text>
<polyline fill="none" stroke="black" points="187,-837.5 303,-837.5 "/>
<text text-anchor="middle" x="245" y="-825.5" font-family="Helvetica,sans-Serif" font-size="10.00"> </text>
<polyline fill="none" stroke="black" points="187,-818.5 303,-818.5 "/>
<text text-anchor="start" x="195" y="-806.5" font-family="Helvetica,sans-Serif" font-size="10.00">+ getLightList()</text>
<text text-anchor="start" x="195" y="-795.5" font-family="Helvetica,sans-Serif" font-size="10.00">+ getLightList()</text>
<text text-anchor="start" x="195" y="-784.5" font-family="Helvetica,sans-Serif" font-size="10.00">+ getPrimitiveList()</text>
<text text-anchor="start" x="195" y="-773.5" font-family="Helvetica,sans-Serif" font-size="10.00">+ getPrimitiveList()</text>
<text text-anchor="start" x="195" y="-762.5" font-family="Helvetica,sans-Serif" font-size="10.00">+ getAmbientLight()</text>
<text text-anchor="start" x="195" y="-751.5" font-family="Helvetica,sans-Serif" font-size="10.00">+ getAmbientLight()</text>
</a>
</g>
</g>
<!-- Node5&#45;&gt;Node4 -->
<g id="edge4" class="edge">
<title>Node5&#45;&gt;Node4</title>
<path fill="none" stroke="midnightblue" d="M245,-733.97C245,-718.01 245,-701.22 245,-685.73"/>
<polygon fill="none" stroke="midnightblue" points="241.5,-734.31 245,-744.31 248.5,-734.31 241.5,-734.31"/>
</g>
<!-- Node6 -->
<g id="node6" class="node">
<title>Node6</title>
<g id="a_node6"><a xlink:title=" ">
<polygon fill="white" stroke="#bfbfbf" points="321,-766.5 321,-845.5 485,-845.5 485,-766.5 321,-766.5"/>
<text text-anchor="start" x="329" y="-833.5" font-family="Helvetica,sans-Serif" font-size="10.00">std::vector&lt; std::reference</text>
<text text-anchor="start" x="329" y="-822.5" font-family="Helvetica,sans-Serif" font-size="10.00">_wrapper&lt; RayTracer::Entities</text>
<text text-anchor="middle" x="403" y="-811.5" font-family="Helvetica,sans-Serif" font-size="10.00">::IPrimitive &gt; &gt;</text>
<polyline fill="none" stroke="#bfbfbf" points="321,-804.5 485,-804.5 "/>
<text text-anchor="middle" x="403" y="-792.5" font-family="Helvetica,sans-Serif" font-size="10.00"> </text>
<polyline fill="none" stroke="#bfbfbf" points="321,-785.5 485,-785.5 "/>
<text text-anchor="middle" x="403" y="-773.5" font-family="Helvetica,sans-Serif" font-size="10.00"> </text>
</a>
</g>
</g>
<!-- Node6&#45;&gt;Node4 -->
<g id="edge5" class="edge">
<title>Node6&#45;&gt;Node4</title>
<path fill="none" stroke="#404040" d="M369.11,-766.39C350.77,-745.5 327.57,-719.06 306.2,-694.72"/>
<polygon fill="none" stroke="#404040" points="306.03,-694.52 299.06,-692.65 298.11,-685.5 305.07,-687.38 306.03,-694.52"/>
<text text-anchor="middle" x="365" y="-718" font-family="Helvetica,sans-Serif" font-size="10.00"> &#45;_primitives</text>
</g>
<!-- Node7 -->
<g id="node7" class="node">
<title>Node7</title>
<g id="a_node7"><a xlink:title=" ">
<polygon fill="white" stroke="#bfbfbf" points="134,-937.5 134,-1016.5 250,-1016.5 250,-937.5 134,-937.5"/>
<text text-anchor="start" x="142" y="-1004.5" font-family="Helvetica,sans-Serif" font-size="10.00">reference_wrapper&lt;</text>
<text text-anchor="start" x="142" y="-993.5" font-family="Helvetica,sans-Serif" font-size="10.00"> RayTracer::Entities</text>
<text text-anchor="middle" x="192" y="-982.5" font-family="Helvetica,sans-Serif" font-size="10.00">::IPrimitive &gt;</text>
<polyline fill="none" stroke="#bfbfbf" points="134,-975.5 250,-975.5 "/>
<text text-anchor="middle" x="192" y="-963.5" font-family="Helvetica,sans-Serif" font-size="10.00"> </text>
<polyline fill="none" stroke="#bfbfbf" points="134,-956.5 250,-956.5 "/>
<text text-anchor="middle" x="192" y="-944.5" font-family="Helvetica,sans-Serif" font-size="10.00"> </text>
</a>
</g>
</g>
<!-- Node7&#45;&gt;Node6 -->
<g id="edge6" class="edge">
<title>Node7&#45;&gt;Node6</title>
<path fill="none" stroke="#404040" d="M181.95,-937.41C179.76,-919.78 181,-899.79 193,-886 210.55,-865.82 287.07,-877.68 312,-868 322.66,-863.86 333.33,-858.3 343.42,-852.22"/>
<polygon fill="none" stroke="#404040" points="343.55,-852.14 346.49,-845.55 353.7,-845.73 350.76,-852.31 343.55,-852.14"/>
<text text-anchor="middle" x="222" y="-900" font-family="Helvetica,sans-Serif" font-size="10.00"> +elements</text>
</g>
<!-- Node8 -->
<g id="node8" class="node">
<title>Node8</title>
<g id="a_node8"><a xlink:title=" ">
<polygon fill="white" stroke="#bfbfbf" points="374.5,-948.5 374.5,-1005.5 471.5,-1005.5 471.5,-948.5 374.5,-948.5"/>
<text text-anchor="middle" x="423" y="-993.5" font-family="Helvetica,sans-Serif" font-size="10.00">std::vector&lt; T &gt;</text>
<polyline fill="none" stroke="#bfbfbf" points="374.5,-986.5 471.5,-986.5 "/>
<text text-anchor="middle" x="423" y="-974.5" font-family="Helvetica,sans-Serif" font-size="10.00"> </text>
<polyline fill="none" stroke="#bfbfbf" points="374.5,-967.5 471.5,-967.5 "/>
<text text-anchor="middle" x="423" y="-955.5" font-family="Helvetica,sans-Serif" font-size="10.00"> </text>
</a>
</g>
</g>
<!-- Node8&#45;&gt;Node6 -->
<g id="edge7" class="edge">
<title>Node8&#45;&gt;Node6</title>
<path fill="none" stroke="orange" d="M418.55,-938.41C415.28,-910.79 410.86,-873.4 407.56,-845.56"/>
<polygon fill="orange" stroke="orange" points="415.09,-938.95 419.74,-948.47 422.04,-938.13 415.09,-938.95"/>
<text text-anchor="start" x="416" y="-911" font-family="Helvetica,sans-Serif" font-size="10.00"> &lt; std::reference_wrapper</text>
<text text-anchor="start" x="416" y="-900" font-family="Helvetica,sans-Serif" font-size="10.00">&lt; RayTracer::Entities::</text>
<text text-anchor="middle" x="479.5" y="-889" font-family="Helvetica,sans-Serif" font-size="10.00">IPrimitive &gt; &gt;</text>
</g>
<!-- Node10 -->
<g id="node10" class="node">
<title>Node10</title>
<g id="a_node10"><a xlink:title=" ">
<polygon fill="white" stroke="#bfbfbf" points="5,-766.5 5,-845.5 169,-845.5 169,-766.5 5,-766.5"/>
<text text-anchor="start" x="13" y="-833.5" font-family="Helvetica,sans-Serif" font-size="10.00">std::vector&lt; std::reference</text>
<text text-anchor="start" x="13" y="-822.5" font-family="Helvetica,sans-Serif" font-size="10.00">_wrapper&lt; RayTracer::Entities</text>
<text text-anchor="middle" x="87" y="-811.5" font-family="Helvetica,sans-Serif" font-size="10.00">::ILight &gt; &gt;</text>
<polyline fill="none" stroke="#bfbfbf" points="5,-804.5 169,-804.5 "/>
<text text-anchor="middle" x="87" y="-792.5" font-family="Helvetica,sans-Serif" font-size="10.00"> </text>
<polyline fill="none" stroke="#bfbfbf" points="5,-785.5 169,-785.5 "/>
<text text-anchor="middle" x="87" y="-773.5" font-family="Helvetica,sans-Serif" font-size="10.00"> </text>
</a>
</g>
</g>
<!-- Node8&#45;&gt;Node10 -->
<g id="edge11" class="edge">
<title>Node8&#45;&gt;Node10</title>
<path fill="none" stroke="orange" d="M364.83,-958.87C338.23,-949.48 307.13,-936.21 282,-919 265.4,-907.63 268.37,-896.16 251,-886 222.15,-869.13 208.56,-881.51 178,-868 164.43,-862 150.68,-854 138.12,-845.76"/>
<polygon fill="orange" stroke="orange" points="363.81,-962.22 374.41,-962.15 366.08,-955.6 363.81,-962.22"/>
<text text-anchor="start" x="282" y="-911" font-family="Helvetica,sans-Serif" font-size="10.00"> &lt; std::reference_wrapper</text>
<text text-anchor="start" x="282" y="-900" font-family="Helvetica,sans-Serif" font-size="10.00">&lt; RayTracer::Entities::</text>
<text text-anchor="middle" x="345.5" y="-889" font-family="Helvetica,sans-Serif" font-size="10.00">ILight &gt; &gt;</text>
</g>
<!-- Node18 -->
<g id="node18" class="node">
<title>Node18</title>
<g id="a_node18"><a xlink:title=" ">
<polygon fill="white" stroke="#bfbfbf" points="511,-766.5 511,-845.5 675,-845.5 675,-766.5 511,-766.5"/>
<text text-anchor="start" x="519" y="-833.5" font-family="Helvetica,sans-Serif" font-size="10.00">std::vector&lt; std::reference</text>
<text text-anchor="start" x="519" y="-822.5" font-family="Helvetica,sans-Serif" font-size="10.00">_wrapper&lt; RayTracer::Entities</text>
<text text-anchor="middle" x="593" y="-811.5" font-family="Helvetica,sans-Serif" font-size="10.00">::ICamera &gt; &gt;</text>
<polyline fill="none" stroke="#bfbfbf" points="511,-804.5 675,-804.5 "/>
<text text-anchor="middle" x="593" y="-792.5" font-family="Helvetica,sans-Serif" font-size="10.00"> </text>
<polyline fill="none" stroke="#bfbfbf" points="511,-785.5 675,-785.5 "/>
<text text-anchor="middle" x="593" y="-773.5" font-family="Helvetica,sans-Serif" font-size="10.00"> </text>
</a>
</g>
</g>
<!-- Node8&#45;&gt;Node18 -->
<g id="edge20" class="edge">
<title>Node8&#45;&gt;Node18</title>
<path fill="none" stroke="orange" d="M481.33,-959.51C504.21,-950.61 529.2,-937.55 547,-919 566.36,-898.83 578.02,-869.39 584.75,-845.75"/>
<polygon fill="orange" stroke="orange" points="479.85,-956.33 471.68,-963.07 482.27,-962.89 479.85,-956.33"/>
<text text-anchor="start" x="569" y="-911" font-family="Helvetica,sans-Serif" font-size="10.00"> &lt; std::reference_wrapper</text>
<text text-anchor="start" x="569" y="-900" font-family="Helvetica,sans-Serif" font-size="10.00">&lt; RayTracer::Entities::</text>
<text text-anchor="middle" x="632.5" y="-889" font-family="Helvetica,sans-Serif" font-size="10.00">ICamera &gt; &gt;</text>
</g>
<!-- Node9 -->
<g id="node9" class="node">
<title>Node9</title>
<g id="a_node9"><a xlink:title=" ">
<polygon fill="white" stroke="#bfbfbf" points="408.5,-1064.5 408.5,-1121.5 437.5,-1121.5 437.5,-1064.5 408.5,-1064.5"/>
<text text-anchor="middle" x="423" y="-1109.5" font-family="Helvetica,sans-Serif" font-size="10.00">T</text>
<polyline fill="none" stroke="#bfbfbf" points="408.5,-1102.5 437.5,-1102.5 "/>
<text text-anchor="middle" x="423" y="-1090.5" font-family="Helvetica,sans-Serif" font-size="10.00"> </text>
<polyline fill="none" stroke="#bfbfbf" points="408.5,-1083.5 437.5,-1083.5 "/>
<text text-anchor="middle" x="423" y="-1071.5" font-family="Helvetica,sans-Serif" font-size="10.00"> </text>
</a>
</g>
</g>
<!-- Node9&#45;&gt;Node8 -->
<g id="edge8" class="edge">
<title>Node9&#45;&gt;Node8</title>
<path fill="none" stroke="#404040" d="M423,-1064.4C423,-1050.5 423,-1033.39 423,-1018.07"/>
<polygon fill="none" stroke="#404040" points="423,-1017.74 419,-1011.74 423,-1005.74 427,-1011.74 423,-1017.74"/>
<text text-anchor="middle" x="452" y="-1038" font-family="Helvetica,sans-Serif" font-size="10.00"> +elements</text>
</g>
<!-- Node10&#45;&gt;Node4 -->
<g id="edge9" class="edge">
<title>Node10&#45;&gt;Node4</title>
<path fill="none" stroke="#404040" d="M120.89,-766.39C139.23,-745.5 162.43,-719.06 183.8,-694.72"/>
<polygon fill="none" stroke="#404040" points="183.97,-694.52 184.93,-687.38 191.89,-685.5 190.94,-692.65 183.97,-694.52"/>
<text text-anchor="middle" x="186" y="-718" font-family="Helvetica,sans-Serif" font-size="10.00"> &#45;_lights</text>
</g>
<!-- Node11 -->
<g id="node11" class="node">
<title>Node11</title>
<g id="a_node11"><a xlink:title=" ">
<polygon fill="white" stroke="#bfbfbf" points="0,-937.5 0,-1016.5 116,-1016.5 116,-937.5 0,-937.5"/>
<text text-anchor="start" x="8" y="-1004.5" font-family="Helvetica,sans-Serif" font-size="10.00">reference_wrapper&lt;</text>
<text text-anchor="start" x="8" y="-993.5" font-family="Helvetica,sans-Serif" font-size="10.00"> RayTracer::Entities</text>
<text text-anchor="middle" x="58" y="-982.5" font-family="Helvetica,sans-Serif" font-size="10.00">::ILight &gt;</text>
<polyline fill="none" stroke="#bfbfbf" points="0,-975.5 116,-975.5 "/>
<text text-anchor="middle" x="58" y="-963.5" font-family="Helvetica,sans-Serif" font-size="10.00"> </text>
<polyline fill="none" stroke="#bfbfbf" points="0,-956.5 116,-956.5 "/>
<text text-anchor="middle" x="58" y="-944.5" font-family="Helvetica,sans-Serif" font-size="10.00"> </text>
</a>
</g>
</g>
<!-- Node11&#45;&gt;Node10 -->
<g id="edge10" class="edge">
<title>Node11&#45;&gt;Node10</title>
<path fill="none" stroke="#404040" d="M64.65,-937.23C68.71,-913.61 73.93,-883.18 78.31,-857.67"/>
<polygon fill="none" stroke="#404040" points="78.35,-857.42 75.42,-850.83 80.38,-845.59 83.31,-852.18 78.35,-857.42"/>
<text text-anchor="middle" x="103" y="-900" font-family="Helvetica,sans-Serif" font-size="10.00"> +elements</text>
</g>
<!-- Node12 -->
<g id="node12" class="node">
<title>Node12</title>
<g id="a_node12"><a xlink:href="a01368.html" target="_top" xlink:title="Logger singleton.">
<polygon fill="white" stroke="black" points="321,-551.5 321,-696.5 457,-696.5 457,-551.5 321,-551.5"/>
<text text-anchor="middle" x="389" y="-684.5" font-family="Helvetica,sans-Serif" font-size="10.00">RayTracer::ILogger</text>
<polyline fill="none" stroke="black" points="321,-677.5 457,-677.5 "/>
<text text-anchor="middle" x="389" y="-665.5" font-family="Helvetica,sans-Serif" font-size="10.00"> </text>
<polyline fill="none" stroke="black" points="321,-658.5 457,-658.5 "/>
<text text-anchor="start" x="329" y="-646.5" font-family="Helvetica,sans-Serif" font-size="10.00">+ ~ILogger()</text>
<text text-anchor="start" x="329" y="-635.5" font-family="Helvetica,sans-Serif" font-size="10.00">+ fatal()</text>
<text text-anchor="start" x="329" y="-624.5" font-family="Helvetica,sans-Serif" font-size="10.00">+ error()</text>
<text text-anchor="start" x="329" y="-613.5" font-family="Helvetica,sans-Serif" font-size="10.00">+ warn()</text>
<text text-anchor="start" x="329" y="-602.5" font-family="Helvetica,sans-Serif" font-size="10.00">+ info()</text>
<text text-anchor="start" x="329" y="-591.5" font-family="Helvetica,sans-Serif" font-size="10.00">+ debug()</text>
<text text-anchor="start" x="329" y="-580.5" font-family="Helvetica,sans-Serif" font-size="10.00">+ trace()</text>
<text text-anchor="start" x="329" y="-569.5" font-family="Helvetica,sans-Serif" font-size="10.00">+ subscribeCallback()</text>
<text text-anchor="start" x="329" y="-558.5" font-family="Helvetica,sans-Serif" font-size="10.00">+ unsubscribeCallback()</text>
</a>
</g>
</g>
<!-- Node12&#45;&gt;Node3 -->
<g id="edge12" class="edge">
<title>Node12&#45;&gt;Node3</title>
<path fill="none" stroke="#404040" d="M431.89,-551.45C440.24,-537.53 449.15,-522.68 457.97,-507.97"/>
<polygon fill="none" stroke="#404040" points="458.19,-507.59 457.85,-500.39 464.36,-497.3 464.71,-504.5 458.19,-507.59"/>
<text text-anchor="middle" x="468.5" y="-525" font-family="Helvetica,sans-Serif" font-size="10.00"> &#45;_logger</text>
</g>
<!-- Node13 -->
<g id="node13" class="node">
<title>Node13</title>
<g id="a_node13"><a xlink:title=" ">
<polygon fill="white" stroke="#bfbfbf" points="475.5,-595.5 475.5,-652.5 564.5,-652.5 564.5,-595.5 475.5,-595.5"/>
<text text-anchor="middle" x="520" y="-640.5" font-family="Helvetica,sans-Serif" font-size="10.00">future&lt; void &gt;</text>
<polyline fill="none" stroke="#bfbfbf" points="475.5,-633.5 564.5,-633.5 "/>
<text text-anchor="middle" x="520" y="-621.5" font-family="Helvetica,sans-Serif" font-size="10.00"> </text>
<polyline fill="none" stroke="#bfbfbf" points="475.5,-614.5 564.5,-614.5 "/>
<text text-anchor="middle" x="520" y="-602.5" font-family="Helvetica,sans-Serif" font-size="10.00"> </text>
</a>
</g>
</g>
<!-- Node13&#45;&gt;Node3 -->
<g id="edge13" class="edge">
<title>Node13&#45;&gt;Node3</title>
<path fill="none" stroke="#404040" d="M520,-595.33C520,-574.84 520,-545.46 520,-515.87"/>
<polygon fill="none" stroke="#404040" points="520,-515.65 516,-509.65 520,-503.65 524,-509.65 520,-515.65"/>
<text text-anchor="middle" x="541" y="-525" font-family="Helvetica,sans-Serif" font-size="10.00"> &#45;_future</text>
</g>
<!-- Node14 -->
<g id="node14" class="node">
<title>Node14</title>
<g id="a_node14"><a xlink:href="a01544.html" target="_top" xlink:title="The SceneState class.">
<polygon fill="white" stroke="black" points="747.5,-579 747.5,-669 858.5,-669 858.5,-579 747.5,-579"/>
<text text-anchor="start" x="755.5" y="-657" font-family="Helvetica,sans-Serif" font-size="10.00">RayTracer::Scenes::</text>
<text text-anchor="middle" x="803" y="-646" font-family="Helvetica,sans-Serif" font-size="10.00">SceneState</text>
<polyline fill="none" stroke="black" points="747.5,-639 858.5,-639 "/>
<text text-anchor="middle" x="803" y="-627" font-family="Helvetica,sans-Serif" font-size="10.00"> </text>
<polyline fill="none" stroke="black" points="747.5,-620 858.5,-620 "/>
<text text-anchor="start" x="755.5" y="-608" font-family="Helvetica,sans-Serif" font-size="10.00">+ SceneState()</text>
<text text-anchor="start" x="755.5" y="-597" font-family="Helvetica,sans-Serif" font-size="10.00">+ getState()</text>
<text text-anchor="start" x="755.5" y="-586" font-family="Helvetica,sans-Serif" font-size="10.00">+ changeState()</text>
</a>
</g>
</g>
<!-- Node14&#45;&gt;Node3 -->
<g id="edge14" class="edge">
<title>Node14&#45;&gt;Node3</title>
<path fill="none" stroke="#404040" d="M747.45,-593.55C685.1,-560.36 591.71,-510.2 585,-504 584.8,-503.82 584.6,-503.63 584.4,-503.45"/>
<polygon fill="none" stroke="#404040" points="584.16,-503.2 577.09,-501.75 575.71,-494.67 582.78,-496.12 584.16,-503.2"/>
<text text-anchor="middle" x="649.5" y="-525" font-family="Helvetica,sans-Serif" font-size="10.00"> &#45;_state</text>
</g>
<!-- Node15 -->
<g id="node15" class="node">
<title>Node15</title>
<g id="a_node15"><a xlink:href="a01516.html" target="_top" xlink:title="The SceneState interface.">
<polygon fill="white" stroke="black" points="693.5,-766.5 693.5,-845.5 804.5,-845.5 804.5,-766.5 693.5,-766.5"/>
<text text-anchor="start" x="701.5" y="-833.5" font-family="Helvetica,sans-Serif" font-size="10.00">RayTracer::Scenes::</text>
<text text-anchor="middle" x="749" y="-822.5" font-family="Helvetica,sans-Serif" font-size="10.00">ISceneState</text>
<polyline fill="none" stroke="black" points="693.5,-815.5 804.5,-815.5 "/>
<text text-anchor="middle" x="749" y="-803.5" font-family="Helvetica,sans-Serif" font-size="10.00"> </text>
<polyline fill="none" stroke="black" points="693.5,-796.5 804.5,-796.5 "/>
<text text-anchor="start" x="701.5" y="-784.5" font-family="Helvetica,sans-Serif" font-size="10.00">+ getState()</text>
<text text-anchor="start" x="701.5" y="-773.5" font-family="Helvetica,sans-Serif" font-size="10.00">+ changeState()</text>
</a>
</g>
</g>
<!-- Node15&#45;&gt;Node14 -->
<g id="edge15" class="edge">
<title>Node15&#45;&gt;Node14</title>
<path fill="none" stroke="midnightblue" d="M763.49,-756.68C771.66,-729.48 781.77,-695.76 789.72,-669.25"/>
<polygon fill="none" stroke="midnightblue" points="760.11,-755.8 760.58,-766.39 766.81,-757.81 760.11,-755.8"/>
</g>
<!-- Node16 -->
<g id="node16" class="node">
<title>Node16</title>
<g id="a_node16"><a xlink:title=" ">
<polygon fill="white" stroke="#bfbfbf" points="822.5,-777.5 822.5,-834.5 891.5,-834.5 891.5,-777.5 822.5,-777.5"/>
<text text-anchor="middle" x="857" y="-822.5" font-family="Helvetica,sans-Serif" font-size="10.00">std::mutex</text>
<polyline fill="none" stroke="#bfbfbf" points="822.5,-815.5 891.5,-815.5 "/>
<text text-anchor="middle" x="857" y="-803.5" font-family="Helvetica,sans-Serif" font-size="10.00"> </text>
<polyline fill="none" stroke="#bfbfbf" points="822.5,-796.5 891.5,-796.5 "/>
<text text-anchor="middle" x="857" y="-784.5" font-family="Helvetica,sans-Serif" font-size="10.00"> </text>
</a>
</g>
</g>
<!-- Node16&#45;&gt;Node14 -->
<g id="edge16" class="edge">
<title>Node16&#45;&gt;Node14</title>
<path fill="none" stroke="#404040" d="M848.68,-777.27C841.02,-751.74 829.43,-713.09 819.83,-681.12"/>
<polygon fill="none" stroke="#404040" points="819.72,-680.72 814.16,-676.13 816.27,-669.23 821.82,-673.83 819.72,-680.72"/>
<text text-anchor="middle" x="852.5" y="-718" font-family="Helvetica,sans-Serif" font-size="10.00"> &#45;mutex</text>
</g>
<!-- Node17 -->
<g id="node17" class="node">
<title>Node17</title>
<g id="a_node17"><a xlink:title=" ">
<polygon fill="white" stroke="#bfbfbf" points="909.5,-777.5 909.5,-834.5 956.5,-834.5 956.5,-777.5 909.5,-777.5"/>
<text text-anchor="middle" x="933" y="-822.5" font-family="Helvetica,sans-Serif" font-size="10.00">States</text>
<polyline fill="none" stroke="#bfbfbf" points="909.5,-815.5 956.5,-815.5 "/>
<text text-anchor="middle" x="933" y="-803.5" font-family="Helvetica,sans-Serif" font-size="10.00"> </text>
<polyline fill="none" stroke="#bfbfbf" points="909.5,-796.5 956.5,-796.5 "/>
<text text-anchor="middle" x="933" y="-784.5" font-family="Helvetica,sans-Serif" font-size="10.00"> </text>
</a>
</g>
</g>
<!-- Node17&#45;&gt;Node14 -->
<g id="edge17" class="edge">
<title>Node17&#45;&gt;Node14</title>
<path fill="none" stroke="#404040" d="M919.98,-777.29C914.58,-766.6 907.94,-754.46 901,-744 886.05,-721.48 867.64,-698.2 850.83,-678.28"/>
<polygon fill="none" stroke="#404040" points="850.77,-678.21 843.83,-676.24 842.98,-669.08 849.92,-671.05 850.77,-678.21"/>
<text text-anchor="middle" x="904.5" y="-718" font-family="Helvetica,sans-Serif" font-size="10.00"> &#45;_state</text>
</g>
<!-- Node18&#45;&gt;Node3 -->
<g id="edge18" class="edge">
<title>Node18&#45;&gt;Node3</title>
<path fill="none" stroke="#404040" d="M594.34,-766.46C595.16,-711.05 592.53,-606.27 566,-522 565.28,-519.73 564.55,-517.44 563.79,-515.13"/>
<polygon fill="none" stroke="#404040" points="563.71,-514.89 558,-510.49 559.86,-503.52 565.57,-507.93 563.71,-514.89"/>
<text text-anchor="middle" x="620.5" y="-621.5" font-family="Helvetica,sans-Serif" font-size="10.00"> &#45;_cameras</text>
</g>
<!-- Node19 -->
<g id="node19" class="node">
<title>Node19</title>
<g id="a_node19"><a xlink:title=" ">
<polygon fill="white" stroke="#bfbfbf" points="665,-937.5 665,-1016.5 781,-1016.5 781,-937.5 665,-937.5"/>
<text text-anchor="start" x="673" y="-1004.5" font-family="Helvetica,sans-Serif" font-size="10.00">reference_wrapper&lt;</text>
<text text-anchor="start" x="673" y="-993.5" font-family="Helvetica,sans-Serif" font-size="10.00"> RayTracer::Entities</text>
<text text-anchor="middle" x="723" y="-982.5" font-family="Helvetica,sans-Serif" font-size="10.00">::ICamera &gt;</text>
<polyline fill="none" stroke="#bfbfbf" points="665,-975.5 781,-975.5 "/>
<text text-anchor="middle" x="723" y="-963.5" font-family="Helvetica,sans-Serif" font-size="10.00"> </text>
<polyline fill="none" stroke="#bfbfbf" points="665,-956.5 781,-956.5 "/>
<text text-anchor="middle" x="723" y="-944.5" font-family="Helvetica,sans-Serif" font-size="10.00"> </text>
</a>
</g>
</g>
<!-- Node19&#45;&gt;Node18 -->
<g id="edge19" class="edge">
<title>Node19&#45;&gt;Node18</title>
<path fill="none" stroke="#404040" d="M719.53,-937.27C716.58,-920.41 711.1,-901.11 701,-886 695.22,-877.36 680.3,-865.12 663.33,-852.84"/>
<polygon fill="none" stroke="#404040" points="662.94,-852.57 655.73,-852.37 653.15,-845.63 660.36,-845.84 662.94,-852.57"/>
<text text-anchor="middle" x="744" y="-900" font-family="Helvetica,sans-Serif" font-size="10.00"> +elements</text>
</g>
<!-- Node20 -->
<g id="node20" class="node">
<title>Node20</title>
<g id="a_node20"><a xlink:title=" ">
<polygon fill="white" stroke="#bfbfbf" points="594,-375 594,-432 650,-432 650,-375 594,-375"/>
<text text-anchor="middle" x="622" y="-420" font-family="Helvetica,sans-Serif" font-size="10.00">size_t &amp;</text>
<polyline fill="none" stroke="#bfbfbf" points="594,-413 650,-413 "/>
<text text-anchor="middle" x="622" y="-401" font-family="Helvetica,sans-Serif" font-size="10.00"> </text>
<polyline fill="none" stroke="#bfbfbf" points="594,-394 650,-394 "/>
<text text-anchor="middle" x="622" y="-382" font-family="Helvetica,sans-Serif" font-size="10.00"> </text>
</a>
</g>
</g>
<!-- Node20&#45;&gt;Node1 -->
<g id="edge21" class="edge">
<title>Node20&#45;&gt;Node1</title>
<path fill="none" stroke="#404040" d="M621.15,-374.96C620.45,-351.15 619.49,-315.81 619,-285 618.91,-279.52 618.83,-273.93 618.76,-268.29"/>
<polygon fill="none" stroke="#404040" points="618.75,-267.86 614.68,-261.91 618.61,-255.86 622.68,-261.81 618.75,-267.86"/>
<text text-anchor="middle" x="645" y="-277" font-family="Helvetica,sans-Serif" font-size="10.00"> &#45;_position</text>
</g>
<!-- Node21 -->
<g id="node21" class="node">
<title>Node21</title>
<g id="a_node21"><a xlink:title=" ">
<polygon fill="white" stroke="#bfbfbf" points="671,-375 671,-432 715,-432 715,-375 671,-375"/>
<text text-anchor="middle" x="693" y="-420" font-family="Helvetica,sans-Serif" font-size="10.00">Clock</text>
<polyline fill="none" stroke="#bfbfbf" points="671,-413 715,-413 "/>
<text text-anchor="middle" x="693" y="-401" font-family="Helvetica,sans-Serif" font-size="10.00"> </text>
<polyline fill="none" stroke="#bfbfbf" points="671,-394 715,-394 "/>
<text text-anchor="middle" x="693" y="-382" font-family="Helvetica,sans-Serif" font-size="10.00"> </text>
</a>
</g>
</g>
<!-- Node21&#45;&gt;Node1 -->
<g id="edge22" class="edge">
<title>Node21&#45;&gt;Node1</title>
<path fill="none" stroke="#404040" d="M689.71,-374.62C686.26,-348.37 680.08,-308.12 671,-274 670.43,-271.86 669.84,-269.71 669.24,-267.54"/>
<polygon fill="none" stroke="#404040" points="669.2,-267.42 663.69,-262.77 665.86,-255.89 671.37,-260.54 669.2,-267.42"/>
<text text-anchor="middle" x="692" y="-277" font-family="Helvetica,sans-Serif" font-size="10.00"> &#45;_clock</text>
</g>
<!-- Node22 -->
<g id="node22" class="node">
<title>Node22</title>
<g id="a_node22"><a xlink:title=" ">
<polygon fill="white" stroke="#bfbfbf" points="735,-375 735,-432 773,-432 773,-375 735,-375"/>
<text text-anchor="middle" x="754" y="-420" font-family="Helvetica,sans-Serif" font-size="10.00">Font</text>
<polyline fill="none" stroke="#bfbfbf" points="735,-413 773,-413 "/>
<text text-anchor="middle" x="754" y="-401" font-family="Helvetica,sans-Serif" font-size="10.00"> </text>
<polyline fill="none" stroke="#bfbfbf" points="735,-394 773,-394 "/>
<text text-anchor="middle" x="754" y="-382" font-family="Helvetica,sans-Serif" font-size="10.00"> </text>
</a>
</g>
</g>
<!-- Node22&#45;&gt;Node1 -->
<g id="edge23" class="edge">
<title>Node22&#45;&gt;Node1</title>
<path fill="none" stroke="#404040" d="M745.65,-374.6C739.67,-354.65 731.39,-327.15 724,-303 720.05,-290.1 720.81,-286.18 715,-274 708.12,-259.59 699.97,-244.97 691.35,-230.84"/>
<polygon fill="none" stroke="#404040" points="691.35,-230.83 684.78,-227.85 685.01,-220.64 691.57,-223.62 691.35,-230.83"/>
<text text-anchor="middle" x="735" y="-277" font-family="Helvetica,sans-Serif" font-size="10.00"> &#45;_font</text>
</g>
</g>
</svg>
