<?xml version="1.0" encoding="UTF-8" standalone="no"?>
<!DOCTYPE svg PUBLIC "-//W3C//DTD SVG 1.1//EN"
 "http://www.w3.org/Graphics/SVG/1.1/DTD/svg11.dtd">
<!-- Generated by graphviz version 2.43.0 (0)
 -->
<!-- Title: RayTracer::Images::ImagePipeLine Pages: 1 -->
<svg width="552pt" height="937pt"
 viewBox="0.00 0.00 552.00 937.00" xmlns="http://www.w3.org/2000/svg" xmlns:xlink="http://www.w3.org/1999/xlink">
<g id="graph0" class="graph" transform="scale(1 1) rotate(0) translate(4 933)">
<title>RayTracer::Images::ImagePipeLine</title>
<polygon fill="white" stroke="transparent" points="-4,4 -4,-933 548,-933 548,4 -4,4"/>
<!-- Node1 -->
<g id="node1" class="node">
<title>Node1</title>
<g id="a_node1"><a xlink:title="The ImagePipeLine class.">
<polygon fill="#bfbfbf" stroke="black" points="188,-0.5 188,-101.5 304,-101.5 304,-0.5 188,-0.5"/>
<text text-anchor="start" x="196" y="-89.5" font-family="Helvetica,sans-Serif" font-size="10.00">RayTracer::Images::</text>
<text text-anchor="middle" x="246" y="-78.5" font-family="Helvetica,sans-Serif" font-size="10.00">ImagePipeLine</text>
<polyline fill="none" stroke="black" points="188,-71.5 304,-71.5 "/>
<text text-anchor="middle" x="246" y="-59.5" font-family="Helvetica,sans-Serif" font-size="10.00"> </text>
<polyline fill="none" stroke="black" points="188,-52.5 304,-52.5 "/>
<text text-anchor="start" x="196" y="-40.5" font-family="Helvetica,sans-Serif" font-size="10.00">+ ImagePipeLine()</text>
<text text-anchor="start" x="196" y="-29.5" font-family="Helvetica,sans-Serif" font-size="10.00">+ generate()</text>
<text text-anchor="start" x="196" y="-18.5" font-family="Helvetica,sans-Serif" font-size="10.00">+ apply()</text>
<text text-anchor="start" x="196" y="-7.5" font-family="Helvetica,sans-Serif" font-size="10.00">+ ~ImagePipeLine()</text>
</a>
</g>
</g>
<!-- Node2 -->
<g id="node2" class="node">
<title>Node2</title>
<g id="a_node2"><a xlink:href="a01393.html" target="_top" xlink:title="The IDisplayable interface.">
<polygon fill="white" stroke="black" points="0,-149.5 0,-272.5 116,-272.5 116,-149.5 0,-149.5"/>
<text text-anchor="start" x="8" y="-260.5" font-family="Helvetica,sans-Serif" font-size="10.00">RayTracer::Scenes::</text>
<text text-anchor="middle" x="58" y="-249.5" font-family="Helvetica,sans-Serif" font-size="10.00">IDisplayable</text>
<polyline fill="none" stroke="black" points="0,-242.5 116,-242.5 "/>
<text text-anchor="middle" x="58" y="-230.5" font-family="Helvetica,sans-Serif" font-size="10.00"> </text>
<polyline fill="none" stroke="black" points="0,-223.5 116,-223.5 "/>
<text text-anchor="start" x="8" y="-211.5" font-family="Helvetica,sans-Serif" font-size="10.00">+ getLightList()</text>
<text text-anchor="start" x="8" y="-200.5" font-family="Helvetica,sans-Serif" font-size="10.00">+ getLightList()</text>
<text text-anchor="start" x="8" y="-189.5" font-family="Helvetica,sans-Serif" font-size="10.00">+ getPrimitiveList()</text>
<text text-anchor="start" x="8" y="-178.5" font-family="Helvetica,sans-Serif" font-size="10.00">+ getPrimitiveList()</text>
<text text-anchor="start" x="8" y="-167.5" font-family="Helvetica,sans-Serif" font-size="10.00">+ getAmbientLight()</text>
<text text-anchor="start" x="8" y="-156.5" font-family="Helvetica,sans-Serif" font-size="10.00">+ getAmbientLight()</text>
</a>
</g>
</g>
<!-- Node2&#45;&gt;Node1 -->
<g id="edge1" class="edge">
<title>Node2&#45;&gt;Node1</title>
<path fill="none" stroke="#404040" d="M105.22,-149.42C114.56,-139.06 124.68,-128.81 135,-120 147.87,-109.02 162.7,-98.65 177.24,-89.47"/>
<polygon fill="none" stroke="#404040" points="177.53,-89.29 180.54,-82.74 187.75,-83.01 184.74,-89.56 177.53,-89.29"/>
<text text-anchor="middle" x="169.5" y="-123" font-family="Helvetica,sans-Serif" font-size="10.00"> &#45;_displayable</text>
</g>
<!-- Node3 -->
<g id="node3" class="node">
<title>Node3</title>
<g id="a_node3"><a xlink:href="a01273.html" target="_top" xlink:title="The RayIterator class.">
<polygon fill="white" stroke="black" points="134.5,-166 134.5,-256 247.5,-256 247.5,-166 134.5,-166"/>
<text text-anchor="start" x="142.5" y="-244" font-family="Helvetica,sans-Serif" font-size="10.00">RayTracer::Images::</text>
<text text-anchor="middle" x="191" y="-233" font-family="Helvetica,sans-Serif" font-size="10.00">IRayIterator</text>
<polyline fill="none" stroke="black" points="134.5,-226 247.5,-226 "/>
<text text-anchor="middle" x="191" y="-214" font-family="Helvetica,sans-Serif" font-size="10.00"> </text>
<polyline fill="none" stroke="black" points="134.5,-207 247.5,-207 "/>
<text text-anchor="start" x="142.5" y="-195" font-family="Helvetica,sans-Serif" font-size="10.00">+ ~IRayIterator()</text>
<text text-anchor="start" x="142.5" y="-184" font-family="Helvetica,sans-Serif" font-size="10.00">+ begin()</text>
<text text-anchor="start" x="142.5" y="-173" font-family="Helvetica,sans-Serif" font-size="10.00">+ end()</text>
</a>
</g>
</g>
<!-- Node3&#45;&gt;Node1 -->
<g id="edge2" class="edge">
<title>Node3&#45;&gt;Node1</title>
<path fill="none" stroke="#404040" d="M199.12,-165.91C202.42,-151.11 206.72,-134.64 212,-120 212.86,-117.62 213.78,-115.22 214.74,-112.81"/>
<polygon fill="none" stroke="#404040" points="214.85,-112.58 213.53,-105.49 219.57,-101.55 220.88,-108.64 214.85,-112.58"/>
<text text-anchor="middle" x="246" y="-123" font-family="Helvetica,sans-Serif" font-size="10.00"> &#45;_rayIterrator</text>
</g>
<!-- Node4 -->
<g id="node4" class="node">
<title>Node4</title>
<g id="a_node4"><a xlink:href="a01261.html" target="_top" xlink:title="The Image class.">
<polygon fill="white" stroke="black" points="265.5,-155 265.5,-267 378.5,-267 378.5,-155 265.5,-155"/>
<text text-anchor="start" x="273.5" y="-255" font-family="Helvetica,sans-Serif" font-size="10.00">RayTracer::Images::</text>
<text text-anchor="middle" x="322" y="-244" font-family="Helvetica,sans-Serif" font-size="10.00">Image</text>
<polyline fill="none" stroke="black" points="265.5,-237 378.5,-237 "/>
<text text-anchor="middle" x="322" y="-225" font-family="Helvetica,sans-Serif" font-size="10.00"> </text>
<polyline fill="none" stroke="black" points="265.5,-218 378.5,-218 "/>
<text text-anchor="start" x="273.5" y="-206" font-family="Helvetica,sans-Serif" font-size="10.00">+ Image()</text>
<text text-anchor="start" x="273.5" y="-195" font-family="Helvetica,sans-Serif" font-size="10.00">+ convertToPPM()</text>
<text text-anchor="start" x="273.5" y="-184" font-family="Helvetica,sans-Serif" font-size="10.00">+ operator[]()</text>
<text text-anchor="start" x="273.5" y="-173" font-family="Helvetica,sans-Serif" font-size="10.00">+ operator[]()</text>
<text text-anchor="start" x="273.5" y="-162" font-family="Helvetica,sans-Serif" font-size="10.00">+ getSize()</text>
</a>
</g>
</g>
<!-- Node4&#45;&gt;Node1 -->
<g id="edge3" class="edge">
<title>Node4&#45;&gt;Node1</title>
<path fill="none" stroke="#404040" d="M296.47,-154.68C291.09,-143.19 285.4,-131.18 280,-120 278.83,-117.59 277.64,-115.13 276.43,-112.65"/>
<polygon fill="none" stroke="#404040" points="276.33,-112.46 270.1,-108.84 271.04,-101.69 277.27,-105.31 276.33,-112.46"/>
<text text-anchor="middle" x="305.5" y="-123" font-family="Helvetica,sans-Serif" font-size="10.00"> &#45;_image</text>
</g>
<!-- Node5 -->
<g id="node5" class="node">
<title>Node5</title>
<g id="a_node5"><a xlink:href="a01213.html" target="_top" xlink:title="The Vector2i class.">
<polygon fill="white" stroke="black" points="182.5,-320.5 182.5,-509.5 299.5,-509.5 299.5,-320.5 182.5,-320.5"/>
<text text-anchor="start" x="190.5" y="-497.5" font-family="Helvetica,sans-Serif" font-size="10.00">RayTracer::Entities</text>
<text text-anchor="middle" x="241" y="-486.5" font-family="Helvetica,sans-Serif" font-size="10.00">::Transform::Vector2i</text>
<polyline fill="none" stroke="black" points="182.5,-479.5 299.5,-479.5 "/>
<text text-anchor="middle" x="241" y="-467.5" font-family="Helvetica,sans-Serif" font-size="10.00"> </text>
<polyline fill="none" stroke="black" points="182.5,-460.5 299.5,-460.5 "/>
<text text-anchor="start" x="190.5" y="-448.5" font-family="Helvetica,sans-Serif" font-size="10.00">+ ~Vector2i()</text>
<text text-anchor="start" x="190.5" y="-437.5" font-family="Helvetica,sans-Serif" font-size="10.00">+ Vector2i()</text>
<text text-anchor="start" x="190.5" y="-426.5" font-family="Helvetica,sans-Serif" font-size="10.00">+ Vector2i()</text>
<text text-anchor="start" x="190.5" y="-415.5" font-family="Helvetica,sans-Serif" font-size="10.00">+ Vector2i()</text>
<text text-anchor="start" x="190.5" y="-404.5" font-family="Helvetica,sans-Serif" font-size="10.00">+ Vector2i()</text>
<text text-anchor="start" x="190.5" y="-393.5" font-family="Helvetica,sans-Serif" font-size="10.00">+ operator+()</text>
<text text-anchor="start" x="190.5" y="-382.5" font-family="Helvetica,sans-Serif" font-size="10.00">+ operator&#45;()</text>
<text text-anchor="start" x="190.5" y="-371.5" font-family="Helvetica,sans-Serif" font-size="10.00">+ operator*()</text>
<text text-anchor="start" x="190.5" y="-360.5" font-family="Helvetica,sans-Serif" font-size="10.00">+ operator/()</text>
<text text-anchor="start" x="190.5" y="-349.5" font-family="Helvetica,sans-Serif" font-size="10.00">+ operator=()</text>
<text text-anchor="start" x="190.5" y="-338.5" font-family="Helvetica,sans-Serif" font-size="10.00">+ getX()</text>
<text text-anchor="start" x="190.5" y="-327.5" font-family="Helvetica,sans-Serif" font-size="10.00">+ getY()</text>
</a>
</g>
</g>
<!-- Node5&#45;&gt;Node4 -->
<g id="edge4" class="edge">
<title>Node5&#45;&gt;Node4</title>
<path fill="none" stroke="#404040" d="M278.54,-320.39C284.2,-306.26 289.94,-291.94 295.32,-278.54"/>
<polygon fill="none" stroke="#404040" points="295.47,-278.16 293.99,-271.11 299.94,-267.03 301.41,-274.08 295.47,-278.16"/>
<text text-anchor="middle" x="304" y="-294" font-family="Helvetica,sans-Serif" font-size="10.00"> &#45;_size</text>
</g>
<!-- Node6 -->
<g id="node6" class="node">
<title>Node6</title>
<g id="a_node6"><a xlink:title=" ">
<polygon fill="white" stroke="#bfbfbf" points="226.5,-651 226.5,-708 255.5,-708 255.5,-651 226.5,-651"/>
<text text-anchor="middle" x="241" y="-696" font-family="Helvetica,sans-Serif" font-size="10.00">int</text>
<polyline fill="none" stroke="#bfbfbf" points="226.5,-689 255.5,-689 "/>
<text text-anchor="middle" x="241" y="-677" font-family="Helvetica,sans-Serif" font-size="10.00"> </text>
<polyline fill="none" stroke="#bfbfbf" points="226.5,-670 255.5,-670 "/>
<text text-anchor="middle" x="241" y="-658" font-family="Helvetica,sans-Serif" font-size="10.00"> </text>
</a>
</g>
</g>
<!-- Node6&#45;&gt;Node5 -->
<g id="edge5" class="edge">
<title>Node6&#45;&gt;Node5</title>
<path fill="none" stroke="#404040" d="M241,-650.9C241,-620.21 241,-568.74 241,-521.8"/>
<polygon fill="none" stroke="#404040" points="241,-521.65 237,-515.65 241,-509.65 245,-515.65 241,-521.65"/>
<text text-anchor="middle" x="250.5" y="-542" font-family="Helvetica,sans-Serif" font-size="10.00"> &#45;_x</text>
<text text-anchor="middle" x="250.5" y="-531" font-family="Helvetica,sans-Serif" font-size="10.00">&#45;_y</text>
</g>
<!-- Node7 -->
<g id="node7" class="node">
<title>Node7</title>
<g id="a_node7"><a xlink:title=" ">
<polygon fill="white" stroke="#bfbfbf" points="318,-381 318,-449 446,-449 446,-381 318,-381"/>
<text text-anchor="start" x="326" y="-437" font-family="Helvetica,sans-Serif" font-size="10.00">std::vector&lt; RayTracer</text>
<text text-anchor="middle" x="382" y="-426" font-family="Helvetica,sans-Serif" font-size="10.00">::Images::Color &gt;</text>
<polyline fill="none" stroke="#bfbfbf" points="318,-419 446,-419 "/>
<text text-anchor="middle" x="382" y="-407" font-family="Helvetica,sans-Serif" font-size="10.00"> </text>
<polyline fill="none" stroke="#bfbfbf" points="318,-400 446,-400 "/>
<text text-anchor="middle" x="382" y="-388" font-family="Helvetica,sans-Serif" font-size="10.00"> </text>
</a>
</g>
</g>
<!-- Node7&#45;&gt;Node4 -->
<g id="edge6" class="edge">
<title>Node7&#45;&gt;Node4</title>
<path fill="none" stroke="#404040" d="M372.09,-380.64C363.9,-353.08 352.02,-313.07 341.88,-278.94"/>
<polygon fill="none" stroke="#404040" points="341.8,-278.65 336.25,-274.03 338.38,-267.14 343.92,-271.76 341.8,-278.65"/>
<text text-anchor="middle" x="368.5" y="-294" font-family="Helvetica,sans-Serif" font-size="10.00"> &#45;_pixels</text>
</g>
<!-- Node8 -->
<g id="node8" class="node">
<title>Node8</title>
<g id="a_node8"><a xlink:href="a01257.html" target="_top" xlink:title="The Color class.">
<polygon fill="white" stroke="black" points="299.5,-568.5 299.5,-790.5 412.5,-790.5 412.5,-568.5 299.5,-568.5"/>
<text text-anchor="start" x="307.5" y="-778.5" font-family="Helvetica,sans-Serif" font-size="10.00">RayTracer::Images::</text>
<text text-anchor="middle" x="356" y="-767.5" font-family="Helvetica,sans-Serif" font-size="10.00">Color</text>
<polyline fill="none" stroke="black" points="299.5,-760.5 412.5,-760.5 "/>
<text text-anchor="middle" x="356" y="-748.5" font-family="Helvetica,sans-Serif" font-size="10.00"> </text>
<polyline fill="none" stroke="black" points="299.5,-741.5 412.5,-741.5 "/>
<text text-anchor="start" x="307.5" y="-729.5" font-family="Helvetica,sans-Serif" font-size="10.00">+ ~Color()</text>
<text text-anchor="start" x="307.5" y="-718.5" font-family="Helvetica,sans-Serif" font-size="10.00">+ Color()</text>
<text text-anchor="start" x="307.5" y="-707.5" font-family="Helvetica,sans-Serif" font-size="10.00">+ Color()</text>
<text text-anchor="start" x="307.5" y="-696.5" font-family="Helvetica,sans-Serif" font-size="10.00">+ Color()</text>
<text text-anchor="start" x="307.5" y="-685.5" font-family="Helvetica,sans-Serif" font-size="10.00">+ operator+()</text>
<text text-anchor="start" x="307.5" y="-674.5" font-family="Helvetica,sans-Serif" font-size="10.00">+ operator&#45;()</text>
<text text-anchor="start" x="307.5" y="-663.5" font-family="Helvetica,sans-Serif" font-size="10.00">+ operator*()</text>
<text text-anchor="start" x="307.5" y="-652.5" font-family="Helvetica,sans-Serif" font-size="10.00">+ operator/()</text>
<text text-anchor="start" x="307.5" y="-641.5" font-family="Helvetica,sans-Serif" font-size="10.00">+ operator=()</text>
<text text-anchor="start" x="307.5" y="-630.5" font-family="Helvetica,sans-Serif" font-size="10.00">+ operator[]()</text>
<text text-anchor="start" x="307.5" y="-619.5" font-family="Helvetica,sans-Serif" font-size="10.00">+ operator[]()</text>
<text text-anchor="start" x="307.5" y="-608.5" font-family="Helvetica,sans-Serif" font-size="10.00">+ set()</text>
<text text-anchor="start" x="307.5" y="-597.5" font-family="Helvetica,sans-Serif" font-size="10.00">+ applyAlpha()</text>
<text text-anchor="start" x="307.5" y="-586.5" font-family="Helvetica,sans-Serif" font-size="10.00">+ mergeColor()</text>
<text text-anchor="start" x="307.5" y="-575.5" font-family="Helvetica,sans-Serif" font-size="10.00">+ applyDistance()</text>
</a>
</g>
</g>
<!-- Node8&#45;&gt;Node7 -->
<g id="edge7" class="edge">
<title>Node8&#45;&gt;Node7</title>
<path fill="none" stroke="#404040" d="M366.91,-568.32C370.63,-530.75 374.59,-490.82 377.52,-461.27"/>
<polygon fill="none" stroke="#404040" points="377.52,-461.22 374.13,-454.86 378.7,-449.28 382.09,-455.65 377.52,-461.22"/>
<text text-anchor="middle" x="399" y="-536.5" font-family="Helvetica,sans-Serif" font-size="10.00"> +elements</text>
</g>
<!-- Node9 -->
<g id="node9" class="node">
<title>Node9</title>
<g id="a_node9"><a xlink:title=" ">
<polygon fill="white" stroke="#bfbfbf" points="281,-871.5 281,-928.5 331,-928.5 331,-871.5 281,-871.5"/>
<text text-anchor="middle" x="306" y="-916.5" font-family="Helvetica,sans-Serif" font-size="10.00">double</text>
<polyline fill="none" stroke="#bfbfbf" points="281,-909.5 331,-909.5 "/>
<text text-anchor="middle" x="306" y="-897.5" font-family="Helvetica,sans-Serif" font-size="10.00"> </text>
<polyline fill="none" stroke="#bfbfbf" points="281,-890.5 331,-890.5 "/>
<text text-anchor="middle" x="306" y="-878.5" font-family="Helvetica,sans-Serif" font-size="10.00"> </text>
</a>
</g>
</g>
<!-- Node9&#45;&gt;Node8 -->
<g id="edge8" class="edge">
<title>Node9&#45;&gt;Node8</title>
<path fill="none" stroke="#404040" d="M312.33,-871.33C316.46,-853.3 322.16,-828.39 328.08,-802.52"/>
<polygon fill="none" stroke="#404040" points="328.13,-802.28 325.57,-795.54 330.81,-790.58 333.37,-797.32 328.13,-802.28"/>
<text text-anchor="middle" x="335.5" y="-845" font-family="Helvetica,sans-Serif" font-size="10.00"> &#45;_a</text>
<text text-anchor="middle" x="335.5" y="-834" font-family="Helvetica,sans-Serif" font-size="10.00">&#45;_b</text>
<text text-anchor="middle" x="335.5" y="-823" font-family="Helvetica,sans-Serif" font-size="10.00">&#45;_g</text>
<text text-anchor="middle" x="335.5" y="-812" font-family="Helvetica,sans-Serif" font-size="10.00">&#45;_r</text>
</g>
<!-- Node10 -->
<g id="node10" class="node">
<title>Node10</title>
<g id="a_node10"><a xlink:title=" ">
<polygon fill="white" stroke="#bfbfbf" points="349.5,-871.5 349.5,-928.5 418.5,-928.5 418.5,-871.5 349.5,-871.5"/>
<text text-anchor="middle" x="384" y="-916.5" font-family="Helvetica,sans-Serif" font-size="10.00">std::mutex</text>
<polyline fill="none" stroke="#bfbfbf" points="349.5,-909.5 418.5,-909.5 "/>
<text text-anchor="middle" x="384" y="-897.5" font-family="Helvetica,sans-Serif" font-size="10.00"> </text>
<polyline fill="none" stroke="#bfbfbf" points="349.5,-890.5 418.5,-890.5 "/>
<text text-anchor="middle" x="384" y="-878.5" font-family="Helvetica,sans-Serif" font-size="10.00"> </text>
</a>
</g>
</g>
<!-- Node10&#45;&gt;Node8 -->
<g id="edge9" class="edge">
<title>Node10&#45;&gt;Node8</title>
<path fill="none" stroke="#404040" d="M380.45,-871.33C378.14,-853.3 374.95,-828.39 371.64,-802.52"/>
<polygon fill="none" stroke="#404040" points="371.63,-802.49 366.9,-797.04 370.11,-790.58 374.84,-796.03 371.63,-802.49"/>
<text text-anchor="middle" x="399" y="-828.5" font-family="Helvetica,sans-Serif" font-size="10.00"> &#45;_mutex</text>
</g>
<!-- Node11 -->
<g id="node11" class="node">
<title>Node11</title>
<g id="a_node11"><a xlink:title=" ">
<polygon fill="white" stroke="#bfbfbf" points="430.5,-651 430.5,-708 527.5,-708 527.5,-651 430.5,-651"/>
<text text-anchor="middle" x="479" y="-696" font-family="Helvetica,sans-Serif" font-size="10.00">std::vector&lt; T &gt;</text>
<polyline fill="none" stroke="#bfbfbf" points="430.5,-689 527.5,-689 "/>
<text text-anchor="middle" x="479" y="-677" font-family="Helvetica,sans-Serif" font-size="10.00"> </text>
<polyline fill="none" stroke="#bfbfbf" points="430.5,-670 527.5,-670 "/>
<text text-anchor="middle" x="479" y="-658" font-family="Helvetica,sans-Serif" font-size="10.00"> </text>
</a>
</g>
</g>
<!-- Node11&#45;&gt;Node7 -->
<g id="edge10" class="edge">
<title>Node11&#45;&gt;Node7</title>
<path fill="none" stroke="orange" d="M468.65,-641.13C459.84,-610.42 446.34,-565.96 432,-528 421.84,-501.11 408.49,-471.43 398.14,-449.39"/>
<polygon fill="orange" stroke="orange" points="465.35,-642.32 471.46,-650.98 472.09,-640.41 465.35,-642.32"/>
<text text-anchor="start" x="439" y="-542" font-family="Helvetica,sans-Serif" font-size="10.00"> &lt; RayTracer::Images</text>
<text text-anchor="middle" x="491.5" y="-531" font-family="Helvetica,sans-Serif" font-size="10.00">::Color &gt;</text>
</g>
<!-- Node12 -->
<g id="node12" class="node">
<title>Node12</title>
<g id="a_node12"><a xlink:title=" ">
<polygon fill="white" stroke="#bfbfbf" points="464.5,-871.5 464.5,-928.5 493.5,-928.5 493.5,-871.5 464.5,-871.5"/>
<text text-anchor="middle" x="479" y="-916.5" font-family="Helvetica,sans-Serif" font-size="10.00">T</text>
<polyline fill="none" stroke="#bfbfbf" points="464.5,-909.5 493.5,-909.5 "/>
<text text-anchor="middle" x="479" y="-897.5" font-family="Helvetica,sans-Serif" font-size="10.00"> </text>
<polyline fill="none" stroke="#bfbfbf" points="464.5,-890.5 493.5,-890.5 "/>
<text text-anchor="middle" x="479" y="-878.5" font-family="Helvetica,sans-Serif" font-size="10.00"> </text>
</a>
</g>
</g>
<!-- Node12&#45;&gt;Node11 -->
<g id="edge11" class="edge">
<title>Node12&#45;&gt;Node11</title>
<path fill="none" stroke="#404040" d="M479,-871.33C479,-833.18 479,-764.2 479,-720.45"/>
<polygon fill="none" stroke="#404040" points="479,-720.29 475,-714.29 479,-708.29 483,-714.29 479,-720.29"/>
<text text-anchor="middle" x="508" y="-828.5" font-family="Helvetica,sans-Serif" font-size="10.00"> +elements</text>
</g>
<!-- Node13 -->
<g id="node13" class="node">
<title>Node13</title>
<g id="a_node13"><a xlink:href="a01401.html" target="_top" xlink:title="The SceneState interface.">
<polygon fill="white" stroke="black" points="396.5,-171.5 396.5,-250.5 507.5,-250.5 507.5,-171.5 396.5,-171.5"/>
<text text-anchor="start" x="404.5" y="-238.5" font-family="Helvetica,sans-Serif" font-size="10.00">RayTracer::Scenes::</text>
<text text-anchor="middle" x="452" y="-227.5" font-family="Helvetica,sans-Serif" font-size="10.00">ISceneState</text>
<polyline fill="none" stroke="black" points="396.5,-220.5 507.5,-220.5 "/>
<text text-anchor="middle" x="452" y="-208.5" font-family="Helvetica,sans-Serif" font-size="10.00"> </text>
<polyline fill="none" stroke="black" points="396.5,-201.5 507.5,-201.5 "/>
<text text-anchor="start" x="404.5" y="-189.5" font-family="Helvetica,sans-Serif" font-size="10.00">+ getState()</text>
<text text-anchor="start" x="404.5" y="-178.5" font-family="Helvetica,sans-Serif" font-size="10.00">+ changeState()</text>
</a>
</g>
</g>
<!-- Node13&#45;&gt;Node1 -->
<g id="edge12" class="edge">
<title>Node13&#45;&gt;Node1</title>
<path fill="none" stroke="#404040" d="M413.31,-171.21C405.17,-163.6 396.47,-155.86 388,-149 364.85,-130.27 338.18,-111.4 314.25,-95.36"/>
<polygon fill="none" stroke="#404040" points="314.17,-95.31 306.96,-95.32 304.18,-88.66 311.39,-88.65 314.17,-95.31"/>
<text text-anchor="middle" x="379.5" y="-123" font-family="Helvetica,sans-Serif" font-size="10.00"> &#45;_state</text>
</g>
</g>
</svg>
