<?xml version="1.0" encoding="UTF-8" standalone="no"?>
<!DOCTYPE svg PUBLIC "-//W3C//DTD SVG 1.1//EN"
 "http://www.w3.org/Graphics/SVG/1.1/DTD/svg11.dtd">
<!-- Generated by graphviz version 2.43.0 (0)
 -->
<!-- Title: RayTracer::Factories::EntityFactory Pages: 1 -->
<svg width="327pt" height="502pt"
 viewBox="0.00 0.00 327.00 502.00" xmlns="http://www.w3.org/2000/svg" xmlns:xlink="http://www.w3.org/1999/xlink">
<g id="graph0" class="graph" transform="scale(1 1) rotate(0) translate(4 498)">
<title>RayTracer::Factories::EntityFactory</title>
<polygon fill="white" stroke="transparent" points="-4,4 -4,-498 323,-498 323,4 -4,4"/>
<!-- Node1 -->
<g id="node1" class="node">
<title>Node1</title>
<g id="a_node1"><a xlink:title="The EntityFactory (singleton factory)">
<polygon fill="#bfbfbf" stroke="black" points="16,-0.5 16,-145.5 130,-145.5 130,-0.5 16,-0.5"/>
<text text-anchor="start" x="24" y="-133.5" font-family="Helvetica,sans-Serif" font-size="10.00">RayTracer::Factories</text>
<text text-anchor="middle" x="73" y="-122.5" font-family="Helvetica,sans-Serif" font-size="10.00">::EntityFactory</text>
<polyline fill="none" stroke="black" points="16,-115.5 130,-115.5 "/>
<text text-anchor="middle" x="73" y="-103.5" font-family="Helvetica,sans-Serif" font-size="10.00"> </text>
<polyline fill="none" stroke="black" points="16,-96.5 130,-96.5 "/>
<text text-anchor="start" x="24" y="-84.5" font-family="Helvetica,sans-Serif" font-size="10.00">+ EntityFactory()</text>
<text text-anchor="start" x="24" y="-73.5" font-family="Helvetica,sans-Serif" font-size="10.00">+ ~EntityFactory()</text>
<text text-anchor="start" x="24" y="-62.5" font-family="Helvetica,sans-Serif" font-size="10.00">+ add()</text>
<text text-anchor="start" x="24" y="-51.5" font-family="Helvetica,sans-Serif" font-size="10.00">+ get()</text>
<text text-anchor="start" x="24" y="-40.5" font-family="Helvetica,sans-Serif" font-size="10.00">+ clearAll()</text>
<text text-anchor="start" x="24" y="-29.5" font-family="Helvetica,sans-Serif" font-size="10.00">+ getInstance()</text>
<text text-anchor="start" x="24" y="-18.5" font-family="Helvetica,sans-Serif" font-size="10.00"># EntityFactory()</text>
<text text-anchor="start" x="24" y="-7.5" font-family="Helvetica,sans-Serif" font-size="10.00"># getFactory()</text>
</a>
</g>
</g>
<!-- Node2 -->
<g id="node2" class="node">
<title>Node2</title>
<g id="a_node2"><a xlink:href="a01299.html" target="_top" xlink:title=" ">
<polygon fill="white" stroke="black" points="0,-193.5 0,-272.5 114,-272.5 114,-193.5 0,-193.5"/>
<text text-anchor="start" x="8" y="-260.5" font-family="Helvetica,sans-Serif" font-size="10.00">RayTracer::Factories</text>
<text text-anchor="middle" x="57" y="-249.5" font-family="Helvetica,sans-Serif" font-size="10.00">::IEntityFactory</text>
<polyline fill="none" stroke="black" points="0,-242.5 114,-242.5 "/>
<text text-anchor="middle" x="57" y="-230.5" font-family="Helvetica,sans-Serif" font-size="10.00"> </text>
<polyline fill="none" stroke="black" points="0,-223.5 114,-223.5 "/>
<text text-anchor="start" x="8" y="-211.5" font-family="Helvetica,sans-Serif" font-size="10.00">+ ~IEntityFactory()</text>
<text text-anchor="start" x="8" y="-200.5" font-family="Helvetica,sans-Serif" font-size="10.00">+ get()</text>
</a>
</g>
</g>
<!-- Node2&#45;&gt;Node1 -->
<g id="edge1" class="edge">
<title>Node2&#45;&gt;Node1</title>
<path fill="none" stroke="midnightblue" d="M61.94,-183.19C63.15,-171.28 64.46,-158.29 65.75,-145.57"/>
<polygon fill="none" stroke="midnightblue" points="58.44,-183.05 60.91,-193.35 65.4,-183.75 58.44,-183.05"/>
</g>
<!-- Node3 -->
<g id="node3" class="node">
<title>Node3</title>
<g id="a_node3"><a xlink:title=" ">
<polygon fill="white" stroke="#bfbfbf" points="132.5,-199 132.5,-267 281.5,-267 281.5,-199 132.5,-199"/>
<text text-anchor="start" x="140.5" y="-255" font-family="Helvetica,sans-Serif" font-size="10.00">std::unique_ptr&lt; RayTracer</text>
<text text-anchor="middle" x="207" y="-244" font-family="Helvetica,sans-Serif" font-size="10.00">::Factories::EntityFactory &gt;</text>
<polyline fill="none" stroke="#bfbfbf" points="132.5,-237 281.5,-237 "/>
<text text-anchor="start" x="140.5" y="-225" font-family="Helvetica,sans-Serif" font-size="10.00">+ ptr</text>
<polyline fill="none" stroke="#bfbfbf" points="132.5,-218 281.5,-218 "/>
<text text-anchor="start" x="140.5" y="-206" font-family="Helvetica,sans-Serif" font-size="10.00">+ operator&#45;&gt;()</text>
</a>
</g>
</g>
<!-- Node3&#45;&gt;Node1 -->
<g id="edge2" class="edge">
<title>Node3&#45;&gt;Node1</title>
<path fill="none" stroke="#404040" d="M178.91,-198.88C166.93,-184.75 152.41,-167.63 138.01,-150.66"/>
<polygon fill="none" stroke="#404040" points="137.81,-150.41 130.88,-148.43 130.05,-141.26 136.98,-143.25 137.81,-150.41"/>
<text text-anchor="middle" x="181" y="-167" font-family="Helvetica,sans-Serif" font-size="10.00"> #_factory</text>
</g>
<!-- Node4 -->
<g id="node4" class="node">
<title>Node4</title>
<g id="a_node4"><a xlink:title=" ">
<polygon fill="white" stroke="#bfbfbf" points="148,-331.5 148,-388.5 266,-388.5 266,-331.5 148,-331.5"/>
<text text-anchor="middle" x="207" y="-376.5" font-family="Helvetica,sans-Serif" font-size="10.00">std::unique_ptr&lt; T &gt;</text>
<polyline fill="none" stroke="#bfbfbf" points="148,-369.5 266,-369.5 "/>
<text text-anchor="middle" x="207" y="-357.5" font-family="Helvetica,sans-Serif" font-size="10.00"> </text>
<polyline fill="none" stroke="#bfbfbf" points="148,-350.5 266,-350.5 "/>
<text text-anchor="start" x="156" y="-338.5" font-family="Helvetica,sans-Serif" font-size="10.00">+ operator&#45;&gt;()</text>
</a>
</g>
</g>
<!-- Node4&#45;&gt;Node3 -->
<g id="edge3" class="edge">
<title>Node4&#45;&gt;Node3</title>
<path fill="none" stroke="orange" d="M207,-321.05C207,-303.96 207,-283.96 207,-267.44"/>
<polygon fill="orange" stroke="orange" points="203.5,-321.26 207,-331.26 210.5,-321.26 203.5,-321.26"/>
<text text-anchor="start" x="207" y="-305" font-family="Helvetica,sans-Serif" font-size="10.00"> &lt; RayTracer::Factories</text>
<text text-anchor="middle" x="263" y="-294" font-family="Helvetica,sans-Serif" font-size="10.00">::EntityFactory &gt;</text>
</g>
<!-- Node5 -->
<g id="node5" class="node">
<title>Node5</title>
<g id="a_node5"><a xlink:title=" ">
<polygon fill="white" stroke="#bfbfbf" points="192.5,-436.5 192.5,-493.5 221.5,-493.5 221.5,-436.5 192.5,-436.5"/>
<text text-anchor="middle" x="207" y="-481.5" font-family="Helvetica,sans-Serif" font-size="10.00">T</text>
<polyline fill="none" stroke="#bfbfbf" points="192.5,-474.5 221.5,-474.5 "/>
<text text-anchor="middle" x="207" y="-462.5" font-family="Helvetica,sans-Serif" font-size="10.00"> </text>
<polyline fill="none" stroke="#bfbfbf" points="192.5,-455.5 221.5,-455.5 "/>
<text text-anchor="middle" x="207" y="-443.5" font-family="Helvetica,sans-Serif" font-size="10.00"> </text>
</a>
</g>
</g>
<!-- Node5&#45;&gt;Node4 -->
<g id="edge4" class="edge">
<title>Node5&#45;&gt;Node4</title>
<path fill="none" stroke="#404040" d="M207,-436.4C207,-425.55 207,-412.87 207,-401.05"/>
<polygon fill="none" stroke="#404040" points="207,-400.68 203,-394.68 207,-388.68 211,-394.68 207,-400.68"/>
<text text-anchor="middle" x="219.5" y="-410" font-family="Helvetica,sans-Serif" font-size="10.00"> +ptr</text>
</g>
</g>
</svg>
