<?xml version="1.0" encoding="UTF-8" standalone="no"?>
<!DOCTYPE svg PUBLIC "-//W3C//DTD SVG 1.1//EN"
 "http://www.w3.org/Graphics/SVG/1.1/DTD/svg11.dtd">
<!-- Generated by graphviz version 2.43.0 (0)
 -->
<!-- Title: RayTracer::Entities::IPrimitive Pages: 1 -->
<svg width="1576pt" height="507pt"
 viewBox="0.00 0.00 1576.00 507.00" xmlns="http://www.w3.org/2000/svg" xmlns:xlink="http://www.w3.org/1999/xlink">
<g id="graph0" class="graph" transform="scale(1 1) rotate(0) translate(4 503)">
<title>RayTracer::Entities::IPrimitive</title>
<polygon fill="white" stroke="transparent" points="-4,4 -4,-503 1572,-503 1572,4 -4,4"/>
<!-- Node1 -->
<g id="node1" class="node">
<title>Node1</title>
<g id="a_node1"><a xlink:title="The IPrimitive class.">
<polygon fill="#bfbfbf" stroke="black" points="764,-248.5 764,-360.5 876,-360.5 876,-248.5 764,-248.5"/>
<text text-anchor="start" x="772" y="-348.5" font-family="Helvetica,sans-Serif" font-size="10.00">RayTracer::Entities</text>
<text text-anchor="middle" x="820" y="-337.5" font-family="Helvetica,sans-Serif" font-size="10.00">::IPrimitive</text>
<polyline fill="none" stroke="black" points="764,-330.5 876,-330.5 "/>
<text text-anchor="middle" x="820" y="-318.5" font-family="Helvetica,sans-Serif" font-size="10.00"> </text>
<polyline fill="none" stroke="black" points="764,-311.5 876,-311.5 "/>
<text text-anchor="start" x="772" y="-299.5" font-family="Helvetica,sans-Serif" font-size="10.00">+ ~IPrimitive()</text>
<text text-anchor="start" x="772" y="-288.5" font-family="Helvetica,sans-Serif" font-size="10.00">+ getColor()</text>
<text text-anchor="start" x="772" y="-277.5" font-family="Helvetica,sans-Serif" font-size="10.00">+ isCollided()</text>
<text text-anchor="start" x="772" y="-266.5" font-family="Helvetica,sans-Serif" font-size="10.00">+ isCollided()</text>
<text text-anchor="start" x="772" y="-255.5" font-family="Helvetica,sans-Serif" font-size="10.00">+ redirectionLight()</text>
</a>
</g>
</g>
<!-- Node3 -->
<g id="node3" class="node">
<title>Node3</title>
<g id="a_node3"><a xlink:href="a01576.html" target="_top" xlink:title=" ">
<polygon fill="white" stroke="black" points="0,-17 0,-195 122,-195 122,-17 0,-17"/>
<text text-anchor="start" x="8" y="-183" font-family="Helvetica,sans-Serif" font-size="10.00">RayTracer::PluginsExt</text>
<text text-anchor="middle" x="61" y="-172" font-family="Helvetica,sans-Serif" font-size="10.00">::Cone::ConeEntity</text>
<polyline fill="none" stroke="black" points="0,-165 122,-165 "/>
<text text-anchor="start" x="8" y="-153" font-family="Helvetica,sans-Serif" font-size="10.00">&#45; _transform</text>
<text text-anchor="start" x="8" y="-142" font-family="Helvetica,sans-Serif" font-size="10.00">&#45; _angle</text>
<text text-anchor="start" x="8" y="-131" font-family="Helvetica,sans-Serif" font-size="10.00">&#45; _logger</text>
<text text-anchor="start" x="8" y="-120" font-family="Helvetica,sans-Serif" font-size="10.00">&#45; _material</text>
<polyline fill="none" stroke="black" points="0,-113 122,-113 "/>
<text text-anchor="start" x="8" y="-101" font-family="Helvetica,sans-Serif" font-size="10.00">+ ConeEntity()</text>
<text text-anchor="start" x="8" y="-90" font-family="Helvetica,sans-Serif" font-size="10.00">+ getType()</text>
<text text-anchor="start" x="8" y="-79" font-family="Helvetica,sans-Serif" font-size="10.00">+ getTransform()</text>
<text text-anchor="start" x="8" y="-68" font-family="Helvetica,sans-Serif" font-size="10.00">+ getTransform()</text>
<text text-anchor="start" x="8" y="-57" font-family="Helvetica,sans-Serif" font-size="10.00">+ isCollided()</text>
<text text-anchor="start" x="8" y="-46" font-family="Helvetica,sans-Serif" font-size="10.00">+ isCollided()</text>
<text text-anchor="start" x="8" y="-35" font-family="Helvetica,sans-Serif" font-size="10.00">+ getColor()</text>
<text text-anchor="start" x="8" y="-24" font-family="Helvetica,sans-Serif" font-size="10.00">+ redirectionLight()</text>
</a>
</g>
</g>
<!-- Node1&#45;&gt;Node3 -->
<g id="edge2" class="edge">
<title>Node1&#45;&gt;Node3</title>
<path fill="none" stroke="midnightblue" d="M753.63,-301.57C601.77,-296.07 234.17,-276.31 131,-212 123.56,-207.36 116.74,-201.61 110.52,-195.21"/>
<polygon fill="none" stroke="midnightblue" points="753.63,-305.07 763.75,-301.93 753.88,-298.08 753.63,-305.07"/>
</g>
<!-- Node4 -->
<g id="node4" class="node">
<title>Node4</title>
<g id="a_node4"><a xlink:href="a01584.html" target="_top" xlink:title=" ">
<polygon fill="white" stroke="black" points="140,-11.5 140,-200.5 278,-200.5 278,-11.5 140,-11.5"/>
<text text-anchor="start" x="148" y="-188.5" font-family="Helvetica,sans-Serif" font-size="10.00">RayTracer::PluginsExt</text>
<text text-anchor="middle" x="209" y="-177.5" font-family="Helvetica,sans-Serif" font-size="10.00">::Cylinder::CylinderEntity</text>
<polyline fill="none" stroke="black" points="140,-170.5 278,-170.5 "/>
<text text-anchor="start" x="148" y="-158.5" font-family="Helvetica,sans-Serif" font-size="10.00">&#45; _transform</text>
<text text-anchor="start" x="148" y="-147.5" font-family="Helvetica,sans-Serif" font-size="10.00">&#45; _direction</text>
<text text-anchor="start" x="148" y="-136.5" font-family="Helvetica,sans-Serif" font-size="10.00">&#45; _radius</text>
<text text-anchor="start" x="148" y="-125.5" font-family="Helvetica,sans-Serif" font-size="10.00">&#45; _logger</text>
<text text-anchor="start" x="148" y="-114.5" font-family="Helvetica,sans-Serif" font-size="10.00">&#45; _material</text>
<polyline fill="none" stroke="black" points="140,-107.5 278,-107.5 "/>
<text text-anchor="start" x="148" y="-95.5" font-family="Helvetica,sans-Serif" font-size="10.00">+ CylinderEntity()</text>
<text text-anchor="start" x="148" y="-84.5" font-family="Helvetica,sans-Serif" font-size="10.00">+ getType()</text>
<text text-anchor="start" x="148" y="-73.5" font-family="Helvetica,sans-Serif" font-size="10.00">+ getTransform()</text>
<text text-anchor="start" x="148" y="-62.5" font-family="Helvetica,sans-Serif" font-size="10.00">+ getTransform()</text>
<text text-anchor="start" x="148" y="-51.5" font-family="Helvetica,sans-Serif" font-size="10.00">+ isCollided()</text>
<text text-anchor="start" x="148" y="-40.5" font-family="Helvetica,sans-Serif" font-size="10.00">+ isCollided()</text>
<text text-anchor="start" x="148" y="-29.5" font-family="Helvetica,sans-Serif" font-size="10.00">+ getColor()</text>
<text text-anchor="start" x="148" y="-18.5" font-family="Helvetica,sans-Serif" font-size="10.00">+ redirectionLight()</text>
</a>
</g>
</g>
<!-- Node1&#45;&gt;Node4 -->
<g id="edge3" class="edge">
<title>Node1&#45;&gt;Node4</title>
<path fill="none" stroke="midnightblue" d="M753.69,-298.27C628.8,-287.44 364.32,-259.51 287,-212 281.58,-208.67 276.42,-204.81 271.51,-200.59"/>
<polygon fill="none" stroke="midnightblue" points="753.62,-301.78 763.88,-299.15 754.22,-294.81 753.62,-301.78"/>
</g>
<!-- Node5 -->
<g id="node5" class="node">
<title>Node5</title>
<g id="a_node5"><a xlink:href="a01592.html" target="_top" xlink:title=" ">
<polygon fill="white" stroke="black" points="296,-17 296,-195 418,-195 418,-17 296,-17"/>
<text text-anchor="start" x="304" y="-183" font-family="Helvetica,sans-Serif" font-size="10.00">RayTracer::PluginsExt</text>
<text text-anchor="middle" x="357" y="-172" font-family="Helvetica,sans-Serif" font-size="10.00">::Disk::DiskEntity</text>
<polyline fill="none" stroke="black" points="296,-165 418,-165 "/>
<text text-anchor="start" x="304" y="-153" font-family="Helvetica,sans-Serif" font-size="10.00">&#45; _transform</text>
<text text-anchor="start" x="304" y="-142" font-family="Helvetica,sans-Serif" font-size="10.00">&#45; _radius</text>
<text text-anchor="start" x="304" y="-131" font-family="Helvetica,sans-Serif" font-size="10.00">&#45; _material</text>
<text text-anchor="start" x="304" y="-120" font-family="Helvetica,sans-Serif" font-size="10.00">&#45; _logger</text>
<polyline fill="none" stroke="black" points="296,-113 418,-113 "/>
<text text-anchor="start" x="304" y="-101" font-family="Helvetica,sans-Serif" font-size="10.00">+ DiskEntity()</text>
<text text-anchor="start" x="304" y="-90" font-family="Helvetica,sans-Serif" font-size="10.00">+ getType()</text>
<text text-anchor="start" x="304" y="-79" font-family="Helvetica,sans-Serif" font-size="10.00">+ getTransform()</text>
<text text-anchor="start" x="304" y="-68" font-family="Helvetica,sans-Serif" font-size="10.00">+ getTransform()</text>
<text text-anchor="start" x="304" y="-57" font-family="Helvetica,sans-Serif" font-size="10.00">+ isCollided()</text>
<text text-anchor="start" x="304" y="-46" font-family="Helvetica,sans-Serif" font-size="10.00">+ isCollided()</text>
<text text-anchor="start" x="304" y="-35" font-family="Helvetica,sans-Serif" font-size="10.00">+ getColor()</text>
<text text-anchor="start" x="304" y="-24" font-family="Helvetica,sans-Serif" font-size="10.00">+ redirectionLight()</text>
</a>
</g>
</g>
<!-- Node1&#45;&gt;Node5 -->
<g id="edge4" class="edge">
<title>Node1&#45;&gt;Node5</title>
<path fill="none" stroke="midnightblue" d="M753.63,-302.61C670.33,-298.44 526.37,-280.83 427,-212 420.16,-207.26 413.8,-201.61 407.94,-195.43"/>
<polygon fill="none" stroke="midnightblue" points="753.58,-306.11 763.72,-303.07 753.89,-299.12 753.58,-306.11"/>
</g>
<!-- Node6 -->
<g id="node6" class="node">
<title>Node6</title>
<g id="a_node6"><a xlink:href="a01600.html" target="_top" xlink:title=" ">
<polygon fill="white" stroke="black" points="436,-11.5 436,-200.5 616,-200.5 616,-11.5 436,-11.5"/>
<text text-anchor="start" x="444" y="-188.5" font-family="Helvetica,sans-Serif" font-size="10.00">RayTracer::PluginsExt</text>
<text text-anchor="middle" x="526" y="-177.5" font-family="Helvetica,sans-Serif" font-size="10.00">::LimitedCone::LimitedConeEntity</text>
<polyline fill="none" stroke="black" points="436,-170.5 616,-170.5 "/>
<text text-anchor="start" x="444" y="-158.5" font-family="Helvetica,sans-Serif" font-size="10.00">&#45; _transform</text>
<text text-anchor="start" x="444" y="-147.5" font-family="Helvetica,sans-Serif" font-size="10.00">&#45; _angle</text>
<text text-anchor="start" x="444" y="-136.5" font-family="Helvetica,sans-Serif" font-size="10.00">&#45; _logger</text>
<text text-anchor="start" x="444" y="-125.5" font-family="Helvetica,sans-Serif" font-size="10.00">&#45; _material</text>
<text text-anchor="start" x="444" y="-114.5" font-family="Helvetica,sans-Serif" font-size="10.00">&#45; _height</text>
<polyline fill="none" stroke="black" points="436,-107.5 616,-107.5 "/>
<text text-anchor="start" x="444" y="-95.5" font-family="Helvetica,sans-Serif" font-size="10.00">+ LimitedConeEntity()</text>
<text text-anchor="start" x="444" y="-84.5" font-family="Helvetica,sans-Serif" font-size="10.00">+ getType()</text>
<text text-anchor="start" x="444" y="-73.5" font-family="Helvetica,sans-Serif" font-size="10.00">+ getTransform()</text>
<text text-anchor="start" x="444" y="-62.5" font-family="Helvetica,sans-Serif" font-size="10.00">+ getTransform()</text>
<text text-anchor="start" x="444" y="-51.5" font-family="Helvetica,sans-Serif" font-size="10.00">+ isCollided()</text>
<text text-anchor="start" x="444" y="-40.5" font-family="Helvetica,sans-Serif" font-size="10.00">+ isCollided()</text>
<text text-anchor="start" x="444" y="-29.5" font-family="Helvetica,sans-Serif" font-size="10.00">+ getColor()</text>
<text text-anchor="start" x="444" y="-18.5" font-family="Helvetica,sans-Serif" font-size="10.00">+ redirectionLight()</text>
</a>
</g>
</g>
<!-- Node1&#45;&gt;Node6 -->
<g id="edge5" class="edge">
<title>Node1&#45;&gt;Node6</title>
<path fill="none" stroke="midnightblue" d="M753.8,-279.71C714.38,-263.82 664.51,-240.61 625,-212 620.13,-208.47 615.3,-204.68 610.55,-200.71"/>
<polygon fill="none" stroke="midnightblue" points="753,-283.15 763.59,-283.59 755.58,-276.65 753,-283.15"/>
</g>
<!-- Node7 -->
<g id="node7" class="node">
<title>Node7</title>
<g id="a_node7"><a xlink:href="a01608.html" target="_top" xlink:title=" ">
<polygon fill="white" stroke="black" points="634.5,-0.5 634.5,-211.5 817.5,-211.5 817.5,-0.5 634.5,-0.5"/>
<text text-anchor="start" x="642.5" y="-199.5" font-family="Helvetica,sans-Serif" font-size="10.00">RayTracer::PluginsExt</text>
<text text-anchor="start" x="642.5" y="-188.5" font-family="Helvetica,sans-Serif" font-size="10.00">::LimitedCylinder::LimitedCylinder</text>
<text text-anchor="middle" x="726" y="-177.5" font-family="Helvetica,sans-Serif" font-size="10.00">Entity</text>
<polyline fill="none" stroke="black" points="634.5,-170.5 817.5,-170.5 "/>
<text text-anchor="start" x="642.5" y="-158.5" font-family="Helvetica,sans-Serif" font-size="10.00">&#45; _transform</text>
<text text-anchor="start" x="642.5" y="-147.5" font-family="Helvetica,sans-Serif" font-size="10.00">&#45; _direction</text>
<text text-anchor="start" x="642.5" y="-136.5" font-family="Helvetica,sans-Serif" font-size="10.00">&#45; _radius</text>
<text text-anchor="start" x="642.5" y="-125.5" font-family="Helvetica,sans-Serif" font-size="10.00">&#45; _logger</text>
<text text-anchor="start" x="642.5" y="-114.5" font-family="Helvetica,sans-Serif" font-size="10.00">&#45; _material</text>
<text text-anchor="start" x="642.5" y="-103.5" font-family="Helvetica,sans-Serif" font-size="10.00">&#45; _height</text>
<polyline fill="none" stroke="black" points="634.5,-96.5 817.5,-96.5 "/>
<text text-anchor="start" x="642.5" y="-84.5" font-family="Helvetica,sans-Serif" font-size="10.00">+ LimitedCylinderEntity()</text>
<text text-anchor="start" x="642.5" y="-73.5" font-family="Helvetica,sans-Serif" font-size="10.00">+ getType()</text>
<text text-anchor="start" x="642.5" y="-62.5" font-family="Helvetica,sans-Serif" font-size="10.00">+ getTransform()</text>
<text text-anchor="start" x="642.5" y="-51.5" font-family="Helvetica,sans-Serif" font-size="10.00">+ getTransform()</text>
<text text-anchor="start" x="642.5" y="-40.5" font-family="Helvetica,sans-Serif" font-size="10.00">+ isCollided()</text>
<text text-anchor="start" x="642.5" y="-29.5" font-family="Helvetica,sans-Serif" font-size="10.00">+ isCollided()</text>
<text text-anchor="start" x="642.5" y="-18.5" font-family="Helvetica,sans-Serif" font-size="10.00">+ getColor()</text>
<text text-anchor="start" x="642.5" y="-7.5" font-family="Helvetica,sans-Serif" font-size="10.00">+ redirectionLight()</text>
</a>
</g>
</g>
<!-- Node1&#45;&gt;Node7 -->
<g id="edge6" class="edge">
<title>Node1&#45;&gt;Node7</title>
<path fill="none" stroke="midnightblue" d="M789.24,-239.19C785.01,-230.35 780.58,-221.09 776.11,-211.76"/>
<polygon fill="none" stroke="midnightblue" points="786.09,-240.73 793.57,-248.24 792.41,-237.71 786.09,-240.73"/>
</g>
<!-- Node8 -->
<g id="node8" class="node">
<title>Node8</title>
<g id="a_node8"><a xlink:href="a01616.html" target="_top" xlink:title=" ">
<polygon fill="white" stroke="black" points="836,-11.5 836,-200.5 992,-200.5 992,-11.5 836,-11.5"/>
<text text-anchor="start" x="844" y="-188.5" font-family="Helvetica,sans-Serif" font-size="10.00">RayTracer::PluginsExt</text>
<text text-anchor="start" x="844" y="-177.5" font-family="Helvetica,sans-Serif" font-size="10.00">::LimitedPlane::LimitedPlane</text>
<text text-anchor="middle" x="914" y="-166.5" font-family="Helvetica,sans-Serif" font-size="10.00">Entity</text>
<polyline fill="none" stroke="black" points="836,-159.5 992,-159.5 "/>
<text text-anchor="start" x="844" y="-147.5" font-family="Helvetica,sans-Serif" font-size="10.00">&#45; _transform</text>
<text text-anchor="start" x="844" y="-136.5" font-family="Helvetica,sans-Serif" font-size="10.00">&#45; _size</text>
<text text-anchor="start" x="844" y="-125.5" font-family="Helvetica,sans-Serif" font-size="10.00">&#45; _material</text>
<text text-anchor="start" x="844" y="-114.5" font-family="Helvetica,sans-Serif" font-size="10.00">&#45; _logger</text>
<polyline fill="none" stroke="black" points="836,-107.5 992,-107.5 "/>
<text text-anchor="start" x="844" y="-95.5" font-family="Helvetica,sans-Serif" font-size="10.00">+ LimitedPlaneEntity()</text>
<text text-anchor="start" x="844" y="-84.5" font-family="Helvetica,sans-Serif" font-size="10.00">+ getType()</text>
<text text-anchor="start" x="844" y="-73.5" font-family="Helvetica,sans-Serif" font-size="10.00">+ getTransform()</text>
<text text-anchor="start" x="844" y="-62.5" font-family="Helvetica,sans-Serif" font-size="10.00">+ getTransform()</text>
<text text-anchor="start" x="844" y="-51.5" font-family="Helvetica,sans-Serif" font-size="10.00">+ isCollided()</text>
<text text-anchor="start" x="844" y="-40.5" font-family="Helvetica,sans-Serif" font-size="10.00">+ isCollided()</text>
<text text-anchor="start" x="844" y="-29.5" font-family="Helvetica,sans-Serif" font-size="10.00">+ getColor()</text>
<text text-anchor="start" x="844" y="-18.5" font-family="Helvetica,sans-Serif" font-size="10.00">+ redirectionLight()</text>
</a>
</g>
</g>
<!-- Node1&#45;&gt;Node8 -->
<g id="edge7" class="edge">
<title>Node1&#45;&gt;Node8</title>
<path fill="none" stroke="midnightblue" d="M850.86,-238.99C856.75,-226.67 863.03,-213.55 869.26,-200.53"/>
<polygon fill="none" stroke="midnightblue" points="847.59,-237.71 846.43,-248.24 853.91,-240.73 847.59,-237.71"/>
</g>
<!-- Node9 -->
<g id="node9" class="node">
<title>Node9</title>
<g id="a_node9"><a xlink:href="a01632.html" target="_top" xlink:title=" ">
<polygon fill="white" stroke="black" points="1010,-22.5 1010,-189.5 1132,-189.5 1132,-22.5 1010,-22.5"/>
<text text-anchor="start" x="1018" y="-177.5" font-family="Helvetica,sans-Serif" font-size="10.00">RayTracer::PluginsExt</text>
<text text-anchor="middle" x="1071" y="-166.5" font-family="Helvetica,sans-Serif" font-size="10.00">::Plane::PlaneEntity</text>
<polyline fill="none" stroke="black" points="1010,-159.5 1132,-159.5 "/>
<text text-anchor="start" x="1018" y="-147.5" font-family="Helvetica,sans-Serif" font-size="10.00">&#45; _transform</text>
<text text-anchor="start" x="1018" y="-136.5" font-family="Helvetica,sans-Serif" font-size="10.00">&#45; _material</text>
<text text-anchor="start" x="1018" y="-125.5" font-family="Helvetica,sans-Serif" font-size="10.00">&#45; _logger</text>
<polyline fill="none" stroke="black" points="1010,-118.5 1132,-118.5 "/>
<text text-anchor="start" x="1018" y="-106.5" font-family="Helvetica,sans-Serif" font-size="10.00">+ PlaneEntity()</text>
<text text-anchor="start" x="1018" y="-95.5" font-family="Helvetica,sans-Serif" font-size="10.00">+ getType()</text>
<text text-anchor="start" x="1018" y="-84.5" font-family="Helvetica,sans-Serif" font-size="10.00">+ getTransform()</text>
<text text-anchor="start" x="1018" y="-73.5" font-family="Helvetica,sans-Serif" font-size="10.00">+ getTransform()</text>
<text text-anchor="start" x="1018" y="-62.5" font-family="Helvetica,sans-Serif" font-size="10.00">+ isCollided()</text>
<text text-anchor="start" x="1018" y="-51.5" font-family="Helvetica,sans-Serif" font-size="10.00">+ isCollided()</text>
<text text-anchor="start" x="1018" y="-40.5" font-family="Helvetica,sans-Serif" font-size="10.00">+ getColor()</text>
<text text-anchor="start" x="1018" y="-29.5" font-family="Helvetica,sans-Serif" font-size="10.00">+ redirectionLight()</text>
</a>
</g>
</g>
<!-- Node1&#45;&gt;Node9 -->
<g id="edge8" class="edge">
<title>Node1&#45;&gt;Node9</title>
<path fill="none" stroke="midnightblue" d="M885.95,-279.86C922.64,-264.47 967.51,-241.7 1001,-212 1008.54,-205.31 1015.63,-197.64 1022.19,-189.55"/>
<polygon fill="none" stroke="midnightblue" points="884.25,-276.78 876.33,-283.81 886.91,-283.26 884.25,-276.78"/>
</g>
<!-- Node10 -->
<g id="node10" class="node">
<title>Node10</title>
<g id="a_node10"><a xlink:href="a01648.html" target="_top" xlink:title=" ">
<polygon fill="white" stroke="black" points="1150.5,-17 1150.5,-195 1275.5,-195 1275.5,-17 1150.5,-17"/>
<text text-anchor="start" x="1158.5" y="-183" font-family="Helvetica,sans-Serif" font-size="10.00">RayTracer::PluginsExt</text>
<text text-anchor="middle" x="1213" y="-172" font-family="Helvetica,sans-Serif" font-size="10.00">::Sphere::SphereEntity</text>
<polyline fill="none" stroke="black" points="1150.5,-165 1275.5,-165 "/>
<text text-anchor="start" x="1158.5" y="-153" font-family="Helvetica,sans-Serif" font-size="10.00">&#45; _transform</text>
<text text-anchor="start" x="1158.5" y="-142" font-family="Helvetica,sans-Serif" font-size="10.00">&#45; _radius</text>
<text text-anchor="start" x="1158.5" y="-131" font-family="Helvetica,sans-Serif" font-size="10.00">&#45; _material</text>
<text text-anchor="start" x="1158.5" y="-120" font-family="Helvetica,sans-Serif" font-size="10.00">&#45; _logger</text>
<polyline fill="none" stroke="black" points="1150.5,-113 1275.5,-113 "/>
<text text-anchor="start" x="1158.5" y="-101" font-family="Helvetica,sans-Serif" font-size="10.00">+ SphereEntity()</text>
<text text-anchor="start" x="1158.5" y="-90" font-family="Helvetica,sans-Serif" font-size="10.00">+ getType()</text>
<text text-anchor="start" x="1158.5" y="-79" font-family="Helvetica,sans-Serif" font-size="10.00">+ getTransform()</text>
<text text-anchor="start" x="1158.5" y="-68" font-family="Helvetica,sans-Serif" font-size="10.00">+ getTransform()</text>
<text text-anchor="start" x="1158.5" y="-57" font-family="Helvetica,sans-Serif" font-size="10.00">+ isCollided()</text>
<text text-anchor="start" x="1158.5" y="-46" font-family="Helvetica,sans-Serif" font-size="10.00">+ isCollided()</text>
<text text-anchor="start" x="1158.5" y="-35" font-family="Helvetica,sans-Serif" font-size="10.00">+ getColor()</text>
<text text-anchor="start" x="1158.5" y="-24" font-family="Helvetica,sans-Serif" font-size="10.00">+ redirectionLight()</text>
</a>
</g>
</g>
<!-- Node1&#45;&gt;Node10 -->
<g id="edge9" class="edge">
<title>Node1&#45;&gt;Node10</title>
<path fill="none" stroke="midnightblue" d="M886.4,-297.83C955.62,-289.08 1064.49,-267.05 1141,-212 1147.82,-207.09 1154.2,-201.33 1160.12,-195.07"/>
<polygon fill="none" stroke="midnightblue" points="885.57,-294.41 876.06,-299.08 886.41,-301.36 885.57,-294.41"/>
</g>
<!-- Node11 -->
<g id="node11" class="node">
<title>Node11</title>
<g id="a_node11"><a xlink:href="a01664.html" target="_top" xlink:title=" ">
<polygon fill="white" stroke="black" points="1294,-11.5 1294,-200.5 1416,-200.5 1416,-11.5 1294,-11.5"/>
<text text-anchor="start" x="1302" y="-188.5" font-family="Helvetica,sans-Serif" font-size="10.00">RayTracer::PluginsExt</text>
<text text-anchor="middle" x="1355" y="-177.5" font-family="Helvetica,sans-Serif" font-size="10.00">::Torus::TorusEntity</text>
<polyline fill="none" stroke="black" points="1294,-170.5 1416,-170.5 "/>
<text text-anchor="start" x="1302" y="-158.5" font-family="Helvetica,sans-Serif" font-size="10.00">&#45; _transform</text>
<text text-anchor="start" x="1302" y="-147.5" font-family="Helvetica,sans-Serif" font-size="10.00">&#45; _material</text>
<text text-anchor="start" x="1302" y="-136.5" font-family="Helvetica,sans-Serif" font-size="10.00">&#45; _logger</text>
<text text-anchor="start" x="1302" y="-125.5" font-family="Helvetica,sans-Serif" font-size="10.00">&#45; _minRadius</text>
<text text-anchor="start" x="1302" y="-114.5" font-family="Helvetica,sans-Serif" font-size="10.00">&#45; _maxRadius</text>
<polyline fill="none" stroke="black" points="1294,-107.5 1416,-107.5 "/>
<text text-anchor="start" x="1302" y="-95.5" font-family="Helvetica,sans-Serif" font-size="10.00">+ TorusEntity()</text>
<text text-anchor="start" x="1302" y="-84.5" font-family="Helvetica,sans-Serif" font-size="10.00">+ getType()</text>
<text text-anchor="start" x="1302" y="-73.5" font-family="Helvetica,sans-Serif" font-size="10.00">+ getTransform()</text>
<text text-anchor="start" x="1302" y="-62.5" font-family="Helvetica,sans-Serif" font-size="10.00">+ getTransform()</text>
<text text-anchor="start" x="1302" y="-51.5" font-family="Helvetica,sans-Serif" font-size="10.00">+ isCollided()</text>
<text text-anchor="start" x="1302" y="-40.5" font-family="Helvetica,sans-Serif" font-size="10.00">+ isCollided()</text>
<text text-anchor="start" x="1302" y="-29.5" font-family="Helvetica,sans-Serif" font-size="10.00">+ getColor()</text>
<text text-anchor="start" x="1302" y="-18.5" font-family="Helvetica,sans-Serif" font-size="10.00">+ redirectionLight()</text>
</a>
</g>
</g>
<!-- Node1&#45;&gt;Node11 -->
<g id="edge10" class="edge">
<title>Node1&#45;&gt;Node11</title>
<path fill="none" stroke="midnightblue" d="M886.28,-296.77C998.61,-284.35 1220.46,-255.08 1285,-212 1289.92,-208.72 1294.58,-204.96 1298.98,-200.86"/>
<polygon fill="none" stroke="midnightblue" points="885.65,-293.32 876.09,-297.89 886.41,-300.28 885.65,-293.32"/>
</g>
<!-- Node12 -->
<g id="node12" class="node">
<title>Node12</title>
<g id="a_node12"><a xlink:href="a01672.html" target="_top" xlink:title=" ">
<polygon fill="white" stroke="black" points="1434,-6 1434,-206 1568,-206 1568,-6 1434,-6"/>
<text text-anchor="start" x="1442" y="-194" font-family="Helvetica,sans-Serif" font-size="10.00">RayTracer::PluginsExt</text>
<text text-anchor="middle" x="1501" y="-183" font-family="Helvetica,sans-Serif" font-size="10.00">::Triangle::TriangleEntity</text>
<polyline fill="none" stroke="black" points="1434,-176 1568,-176 "/>
<text text-anchor="start" x="1442" y="-164" font-family="Helvetica,sans-Serif" font-size="10.00">&#45; _transform</text>
<text text-anchor="start" x="1442" y="-153" font-family="Helvetica,sans-Serif" font-size="10.00">&#45; _material</text>
<text text-anchor="start" x="1442" y="-142" font-family="Helvetica,sans-Serif" font-size="10.00">&#45; _pointOne</text>
<text text-anchor="start" x="1442" y="-131" font-family="Helvetica,sans-Serif" font-size="10.00">&#45; _pointTwo</text>
<text text-anchor="start" x="1442" y="-120" font-family="Helvetica,sans-Serif" font-size="10.00">&#45; _pointThree</text>
<text text-anchor="start" x="1442" y="-109" font-family="Helvetica,sans-Serif" font-size="10.00">&#45; _logger</text>
<polyline fill="none" stroke="black" points="1434,-102 1568,-102 "/>
<text text-anchor="start" x="1442" y="-90" font-family="Helvetica,sans-Serif" font-size="10.00">+ TriangleEntity()</text>
<text text-anchor="start" x="1442" y="-79" font-family="Helvetica,sans-Serif" font-size="10.00">+ getType()</text>
<text text-anchor="start" x="1442" y="-68" font-family="Helvetica,sans-Serif" font-size="10.00">+ getTransform()</text>
<text text-anchor="start" x="1442" y="-57" font-family="Helvetica,sans-Serif" font-size="10.00">+ getTransform()</text>
<text text-anchor="start" x="1442" y="-46" font-family="Helvetica,sans-Serif" font-size="10.00">+ isCollided()</text>
<text text-anchor="start" x="1442" y="-35" font-family="Helvetica,sans-Serif" font-size="10.00">+ isCollided()</text>
<text text-anchor="start" x="1442" y="-24" font-family="Helvetica,sans-Serif" font-size="10.00">+ getColor()</text>
<text text-anchor="start" x="1442" y="-13" font-family="Helvetica,sans-Serif" font-size="10.00">+ redirectionLight()</text>
</a>
</g>
</g>
<!-- Node1&#45;&gt;Node12 -->
<g id="edge11" class="edge">
<title>Node1&#45;&gt;Node12</title>
<path fill="none" stroke="midnightblue" d="M886.19,-299.91C1023.79,-291.42 1335.39,-266.59 1425,-212 1428.07,-210.13 1431.06,-208.08 1433.96,-205.88"/>
<polygon fill="none" stroke="midnightblue" points="885.96,-296.41 876.19,-300.51 886.38,-303.4 885.96,-296.41"/>
</g>
<!-- Node2 -->
<g id="node2" class="node">
<title>Node2</title>
<g id="a_node2"><a xlink:href="a01252.html" target="_top" xlink:title="The IEntity class.">
<polygon fill="white" stroke="black" points="766.5,-397.5 766.5,-498.5 873.5,-498.5 873.5,-397.5 766.5,-397.5"/>
<text text-anchor="start" x="774.5" y="-486.5" font-family="Helvetica,sans-Serif" font-size="10.00">RayTracer::Entities</text>
<text text-anchor="middle" x="820" y="-475.5" font-family="Helvetica,sans-Serif" font-size="10.00">::IEntity</text>
<polyline fill="none" stroke="black" points="766.5,-468.5 873.5,-468.5 "/>
<text text-anchor="middle" x="820" y="-456.5" font-family="Helvetica,sans-Serif" font-size="10.00"> </text>
<polyline fill="none" stroke="black" points="766.5,-449.5 873.5,-449.5 "/>
<text text-anchor="start" x="774.5" y="-437.5" font-family="Helvetica,sans-Serif" font-size="10.00">+ ~IEntity()</text>
<text text-anchor="start" x="774.5" y="-426.5" font-family="Helvetica,sans-Serif" font-size="10.00">+ getTransform()</text>
<text text-anchor="start" x="774.5" y="-415.5" font-family="Helvetica,sans-Serif" font-size="10.00">+ getTransform()</text>
<text text-anchor="start" x="774.5" y="-404.5" font-family="Helvetica,sans-Serif" font-size="10.00">+ getType()</text>
</a>
</g>
</g>
<!-- Node2&#45;&gt;Node1 -->
<g id="edge1" class="edge">
<title>Node2&#45;&gt;Node1</title>
<path fill="none" stroke="midnightblue" d="M820,-387.01C820,-378.29 820,-369.34 820,-360.72"/>
<polygon fill="none" stroke="midnightblue" points="816.5,-387.11 820,-397.11 823.5,-387.11 816.5,-387.11"/>
</g>
</g>
</svg>
