<?xml version="1.0" encoding="UTF-8" standalone="no"?>
<!DOCTYPE svg PUBLIC "-//W3C//DTD SVG 1.1//EN"
 "http://www.w3.org/Graphics/SVG/1.1/DTD/svg11.dtd">
<!-- Generated by graphviz version 2.43.0 (0)
 -->
<!-- Title: RayTracer::Entities::IMaterial Pages: 1 -->
<svg width="513pt" height="314pt"
 viewBox="0.00 0.00 512.50 314.00" xmlns="http://www.w3.org/2000/svg" xmlns:xlink="http://www.w3.org/1999/xlink">
<g id="graph0" class="graph" transform="scale(1 1) rotate(0) translate(4 310)">
<title>RayTracer::Entities::IMaterial</title>
<polygon fill="white" stroke="transparent" points="-4,4 -4,-310 508.5,-310 508.5,4 -4,4"/>
<!-- Node1 -->
<g id="node1" class="node">
<title>Node1</title>
<g id="a_node1"><a xlink:title="The IMaterial class.">
<polygon fill="#bfbfbf" stroke="black" points="225.5,-204.5 225.5,-305.5 337.5,-305.5 337.5,-204.5 225.5,-204.5"/>
<text text-anchor="start" x="233.5" y="-293.5" font-family="Helvetica,sans-Serif" font-size="10.00">RayTracer::Entities</text>
<text text-anchor="middle" x="281.5" y="-282.5" font-family="Helvetica,sans-Serif" font-size="10.00">::IMaterial</text>
<polyline fill="none" stroke="black" points="225.5,-275.5 337.5,-275.5 "/>
<text text-anchor="middle" x="281.5" y="-263.5" font-family="Helvetica,sans-Serif" font-size="10.00"> </text>
<polyline fill="none" stroke="black" points="225.5,-256.5 337.5,-256.5 "/>
<text text-anchor="start" x="233.5" y="-244.5" font-family="Helvetica,sans-Serif" font-size="10.00">+ ~IMaterial()</text>
<text text-anchor="start" x="233.5" y="-233.5" font-family="Helvetica,sans-Serif" font-size="10.00">+ getColor()</text>
<text text-anchor="start" x="233.5" y="-222.5" font-family="Helvetica,sans-Serif" font-size="10.00">+ setColor()</text>
<text text-anchor="start" x="233.5" y="-211.5" font-family="Helvetica,sans-Serif" font-size="10.00">+ redirectionLight()</text>
</a>
</g>
</g>
<!-- Node2 -->
<g id="node2" class="node">
<title>Node2</title>
<g id="a_node2"><a xlink:href="a01561.html" target="_top" xlink:title=" ">
<polygon fill="white" stroke="black" points="0,-0.5 0,-167.5 185,-167.5 185,-0.5 0,-0.5"/>
<text text-anchor="start" x="8" y="-155.5" font-family="Helvetica,sans-Serif" font-size="10.00">RayTracer::PluginsExt</text>
<text text-anchor="middle" x="92.5" y="-144.5" font-family="Helvetica,sans-Serif" font-size="10.00">::ChessBoard::ChessBoardMaterial</text>
<polyline fill="none" stroke="black" points="0,-137.5 185,-137.5 "/>
<text text-anchor="start" x="8" y="-125.5" font-family="Helvetica,sans-Serif" font-size="10.00">&#45; _ambient</text>
<text text-anchor="start" x="8" y="-114.5" font-family="Helvetica,sans-Serif" font-size="10.00">&#45; _diffuse</text>
<text text-anchor="start" x="8" y="-103.5" font-family="Helvetica,sans-Serif" font-size="10.00">&#45; _specular</text>
<text text-anchor="start" x="8" y="-92.5" font-family="Helvetica,sans-Serif" font-size="10.00">&#45; _shininess</text>
<text text-anchor="start" x="8" y="-81.5" font-family="Helvetica,sans-Serif" font-size="10.00">&#45; _pair</text>
<text text-anchor="start" x="8" y="-70.5" font-family="Helvetica,sans-Serif" font-size="10.00">&#45; _impair</text>
<text text-anchor="start" x="8" y="-59.5" font-family="Helvetica,sans-Serif" font-size="10.00">&#45; _size</text>
<polyline fill="none" stroke="black" points="0,-52.5 185,-52.5 "/>
<text text-anchor="start" x="8" y="-40.5" font-family="Helvetica,sans-Serif" font-size="10.00">+ ChessBoardMaterial()</text>
<text text-anchor="start" x="8" y="-29.5" font-family="Helvetica,sans-Serif" font-size="10.00">+ getColor()</text>
<text text-anchor="start" x="8" y="-18.5" font-family="Helvetica,sans-Serif" font-size="10.00">+ setColor()</text>
<text text-anchor="start" x="8" y="-7.5" font-family="Helvetica,sans-Serif" font-size="10.00">+ redirectionLight()</text>
</a>
</g>
</g>
<!-- Node1&#45;&gt;Node2 -->
<g id="edge1" class="edge">
<title>Node1&#45;&gt;Node2</title>
<path fill="none" stroke="midnightblue" d="M218.35,-197.53C207.58,-187.91 196.21,-177.73 184.87,-167.59"/>
<polygon fill="none" stroke="midnightblue" points="216.28,-200.38 226.07,-204.44 220.95,-195.16 216.28,-200.38"/>
</g>
<!-- Node3 -->
<g id="node3" class="node">
<title>Node3</title>
<g id="a_node3"><a xlink:href="a01613.html" target="_top" xlink:title=" ">
<polygon fill="white" stroke="black" points="202.5,-6 202.5,-162 360.5,-162 360.5,-6 202.5,-6"/>
<text text-anchor="start" x="210.5" y="-150" font-family="Helvetica,sans-Serif" font-size="10.00">RayTracer::PluginsExt</text>
<text text-anchor="middle" x="281.5" y="-139" font-family="Helvetica,sans-Serif" font-size="10.00">::PlainMaterial::PlainMaterial</text>
<polyline fill="none" stroke="black" points="202.5,-132 360.5,-132 "/>
<text text-anchor="start" x="210.5" y="-120" font-family="Helvetica,sans-Serif" font-size="10.00">&#45; _color</text>
<text text-anchor="start" x="210.5" y="-109" font-family="Helvetica,sans-Serif" font-size="10.00">&#45; _ambient</text>
<text text-anchor="start" x="210.5" y="-98" font-family="Helvetica,sans-Serif" font-size="10.00">&#45; _diffuse</text>
<text text-anchor="start" x="210.5" y="-87" font-family="Helvetica,sans-Serif" font-size="10.00">&#45; _specular</text>
<text text-anchor="start" x="210.5" y="-76" font-family="Helvetica,sans-Serif" font-size="10.00">&#45; _shininess</text>
<polyline fill="none" stroke="black" points="202.5,-69 360.5,-69 "/>
<text text-anchor="start" x="210.5" y="-57" font-family="Helvetica,sans-Serif" font-size="10.00">+ PlainMaterial()</text>
<text text-anchor="start" x="210.5" y="-46" font-family="Helvetica,sans-Serif" font-size="10.00">+ getColor()</text>
<text text-anchor="start" x="210.5" y="-35" font-family="Helvetica,sans-Serif" font-size="10.00">+ setColor()</text>
<text text-anchor="start" x="210.5" y="-24" font-family="Helvetica,sans-Serif" font-size="10.00">+ redirectionLight()</text>
<text text-anchor="start" x="210.5" y="-13" font-family="Helvetica,sans-Serif" font-size="10.00">+ round()</text>
</a>
</g>
</g>
<!-- Node1&#45;&gt;Node3 -->
<g id="edge2" class="edge">
<title>Node1&#45;&gt;Node3</title>
<path fill="none" stroke="midnightblue" d="M281.5,-194.05C281.5,-183.68 281.5,-172.77 281.5,-162.02"/>
<polygon fill="none" stroke="midnightblue" points="278,-194.21 281.5,-204.21 285,-194.21 278,-194.21"/>
</g>
<!-- Node4 -->
<g id="node4" class="node">
<title>Node4</title>
<g id="a_node4"><a xlink:href="a01665.html" target="_top" xlink:title=" ">
<polygon fill="white" stroke="black" points="378.5,-0.5 378.5,-167.5 504.5,-167.5 504.5,-0.5 378.5,-0.5"/>
<text text-anchor="start" x="386.5" y="-155.5" font-family="Helvetica,sans-Serif" font-size="10.00">RayTracer::PluginsExt</text>
<text text-anchor="middle" x="441.5" y="-144.5" font-family="Helvetica,sans-Serif" font-size="10.00">::Zebra::ZebraMaterial</text>
<polyline fill="none" stroke="black" points="378.5,-137.5 504.5,-137.5 "/>
<text text-anchor="start" x="386.5" y="-125.5" font-family="Helvetica,sans-Serif" font-size="10.00">&#45; _ambient</text>
<text text-anchor="start" x="386.5" y="-114.5" font-family="Helvetica,sans-Serif" font-size="10.00">&#45; _diffuse</text>
<text text-anchor="start" x="386.5" y="-103.5" font-family="Helvetica,sans-Serif" font-size="10.00">&#45; _specular</text>
<text text-anchor="start" x="386.5" y="-92.5" font-family="Helvetica,sans-Serif" font-size="10.00">&#45; _shininess</text>
<text text-anchor="start" x="386.5" y="-81.5" font-family="Helvetica,sans-Serif" font-size="10.00">&#45; _pair</text>
<text text-anchor="start" x="386.5" y="-70.5" font-family="Helvetica,sans-Serif" font-size="10.00">&#45; _impair</text>
<text text-anchor="start" x="386.5" y="-59.5" font-family="Helvetica,sans-Serif" font-size="10.00">&#45; _size</text>
<polyline fill="none" stroke="black" points="378.5,-52.5 504.5,-52.5 "/>
<text text-anchor="start" x="386.5" y="-40.5" font-family="Helvetica,sans-Serif" font-size="10.00">+ ZebraMaterial()</text>
<text text-anchor="start" x="386.5" y="-29.5" font-family="Helvetica,sans-Serif" font-size="10.00">+ getColor()</text>
<text text-anchor="start" x="386.5" y="-18.5" font-family="Helvetica,sans-Serif" font-size="10.00">+ setColor()</text>
<text text-anchor="start" x="386.5" y="-7.5" font-family="Helvetica,sans-Serif" font-size="10.00">+ redirectionLight()</text>
</a>
</g>
</g>
<!-- Node1&#45;&gt;Node4 -->
<g id="edge3" class="edge">
<title>Node1&#45;&gt;Node4</title>
<path fill="none" stroke="midnightblue" d="M341.17,-197C350.78,-187.45 360.51,-177.54 369.5,-168 372.38,-164.95 375.29,-161.8 378.22,-158.61"/>
<polygon fill="none" stroke="midnightblue" points="338.51,-194.7 333.86,-204.22 343.43,-199.68 338.51,-194.7"/>
</g>
</g>
</svg>
