<?xml version="1.0" encoding="UTF-8" standalone="no"?>
<!DOCTYPE svg PUBLIC "-//W3C//DTD SVG 1.1//EN"
 "http://www.w3.org/Graphics/SVG/1.1/DTD/svg11.dtd">
<!-- Generated by graphviz version 2.43.0 (0)
 -->
<!-- Title: RayTracer::Entities::IPrimitive Pages: 1 -->
<svg width="1284pt" height="507pt"
 viewBox="0.00 0.00 1283.50 507.00" xmlns="http://www.w3.org/2000/svg" xmlns:xlink="http://www.w3.org/1999/xlink">
<g id="graph0" class="graph" transform="scale(1 1) rotate(0) translate(4 503)">
<title>RayTracer::Entities::IPrimitive</title>
<polygon fill="white" stroke="transparent" points="-4,4 -4,-503 1279.5,-503 1279.5,4 -4,4"/>
<!-- Node1 -->
<g id="node1" class="node">
<title>Node1</title>
<g id="a_node1"><a xlink:title="The IPrimitive class.">
<polygon fill="#bfbfbf" stroke="black" points="570,-248.5 570,-360.5 682,-360.5 682,-248.5 570,-248.5"/>
<text text-anchor="start" x="578" y="-348.5" font-family="Helvetica,sans-Serif" font-size="10.00">RayTracer::Entities</text>
<text text-anchor="middle" x="626" y="-337.5" font-family="Helvetica,sans-Serif" font-size="10.00">::IPrimitive</text>
<polyline fill="none" stroke="black" points="570,-330.5 682,-330.5 "/>
<text text-anchor="middle" x="626" y="-318.5" font-family="Helvetica,sans-Serif" font-size="10.00"> </text>
<polyline fill="none" stroke="black" points="570,-311.5 682,-311.5 "/>
<text text-anchor="start" x="578" y="-299.5" font-family="Helvetica,sans-Serif" font-size="10.00">+ ~IPrimitive()</text>
<text text-anchor="start" x="578" y="-288.5" font-family="Helvetica,sans-Serif" font-size="10.00">+ getColor()</text>
<text text-anchor="start" x="578" y="-277.5" font-family="Helvetica,sans-Serif" font-size="10.00">+ isCollided()</text>
<text text-anchor="start" x="578" y="-266.5" font-family="Helvetica,sans-Serif" font-size="10.00">+ isCollided()</text>
<text text-anchor="start" x="578" y="-255.5" font-family="Helvetica,sans-Serif" font-size="10.00">+ redirectionLight()</text>
</a>
</g>
</g>
<!-- Node3 -->
<g id="node3" class="node">
<title>Node3</title>
<g id="a_node3"><a xlink:href="a01513.html" target="_top" xlink:title=" ">
<polygon fill="white" stroke="black" points="0,-17 0,-195 122,-195 122,-17 0,-17"/>
<text text-anchor="start" x="8" y="-183" font-family="Helvetica,sans-Serif" font-size="10.00">RayTracer::PluginsExt</text>
<text text-anchor="middle" x="61" y="-172" font-family="Helvetica,sans-Serif" font-size="10.00">::Cone::ConeEntity</text>
<polyline fill="none" stroke="black" points="0,-165 122,-165 "/>
<text text-anchor="start" x="8" y="-153" font-family="Helvetica,sans-Serif" font-size="10.00">&#45; _transform</text>
<text text-anchor="start" x="8" y="-142" font-family="Helvetica,sans-Serif" font-size="10.00">&#45; _angle</text>
<text text-anchor="start" x="8" y="-131" font-family="Helvetica,sans-Serif" font-size="10.00">&#45; _logger</text>
<text text-anchor="start" x="8" y="-120" font-family="Helvetica,sans-Serif" font-size="10.00">&#45; _material</text>
<polyline fill="none" stroke="black" points="0,-113 122,-113 "/>
<text text-anchor="start" x="8" y="-101" font-family="Helvetica,sans-Serif" font-size="10.00">+ ConeEntity()</text>
<text text-anchor="start" x="8" y="-90" font-family="Helvetica,sans-Serif" font-size="10.00">+ getType()</text>
<text text-anchor="start" x="8" y="-79" font-family="Helvetica,sans-Serif" font-size="10.00">+ getTransform()</text>
<text text-anchor="start" x="8" y="-68" font-family="Helvetica,sans-Serif" font-size="10.00">+ getTransform()</text>
<text text-anchor="start" x="8" y="-57" font-family="Helvetica,sans-Serif" font-size="10.00">+ isCollided()</text>
<text text-anchor="start" x="8" y="-46" font-family="Helvetica,sans-Serif" font-size="10.00">+ isCollided()</text>
<text text-anchor="start" x="8" y="-35" font-family="Helvetica,sans-Serif" font-size="10.00">+ getColor()</text>
<text text-anchor="start" x="8" y="-24" font-family="Helvetica,sans-Serif" font-size="10.00">+ redirectionLight()</text>
</a>
</g>
</g>
<!-- Node1&#45;&gt;Node3 -->
<g id="edge2" class="edge">
<title>Node1&#45;&gt;Node3</title>
<path fill="none" stroke="midnightblue" d="M559.83,-297.67C441.77,-286.24 200.66,-257.92 131,-212 123.87,-207.3 117.28,-201.59 111.24,-195.3"/>
<polygon fill="none" stroke="midnightblue" points="559.54,-301.16 569.83,-298.63 560.21,-294.19 559.54,-301.16"/>
</g>
<!-- Node4 -->
<g id="node4" class="node">
<title>Node4</title>
<g id="a_node4"><a xlink:href="a01521.html" target="_top" xlink:title=" ">
<polygon fill="white" stroke="black" points="140,-11.5 140,-200.5 278,-200.5 278,-11.5 140,-11.5"/>
<text text-anchor="start" x="148" y="-188.5" font-family="Helvetica,sans-Serif" font-size="10.00">RayTracer::PluginsExt</text>
<text text-anchor="middle" x="209" y="-177.5" font-family="Helvetica,sans-Serif" font-size="10.00">::Cylinder::CylinderEntity</text>
<polyline fill="none" stroke="black" points="140,-170.5 278,-170.5 "/>
<text text-anchor="start" x="148" y="-158.5" font-family="Helvetica,sans-Serif" font-size="10.00">&#45; _transform</text>
<text text-anchor="start" x="148" y="-147.5" font-family="Helvetica,sans-Serif" font-size="10.00">&#45; _direction</text>
<text text-anchor="start" x="148" y="-136.5" font-family="Helvetica,sans-Serif" font-size="10.00">&#45; _radius</text>
<text text-anchor="start" x="148" y="-125.5" font-family="Helvetica,sans-Serif" font-size="10.00">&#45; _logger</text>
<text text-anchor="start" x="148" y="-114.5" font-family="Helvetica,sans-Serif" font-size="10.00">&#45; _material</text>
<polyline fill="none" stroke="black" points="140,-107.5 278,-107.5 "/>
<text text-anchor="start" x="148" y="-95.5" font-family="Helvetica,sans-Serif" font-size="10.00">+ CylinderEntity()</text>
<text text-anchor="start" x="148" y="-84.5" font-family="Helvetica,sans-Serif" font-size="10.00">+ getType()</text>
<text text-anchor="start" x="148" y="-73.5" font-family="Helvetica,sans-Serif" font-size="10.00">+ getTransform()</text>
<text text-anchor="start" x="148" y="-62.5" font-family="Helvetica,sans-Serif" font-size="10.00">+ getTransform()</text>
<text text-anchor="start" x="148" y="-51.5" font-family="Helvetica,sans-Serif" font-size="10.00">+ isCollided()</text>
<text text-anchor="start" x="148" y="-40.5" font-family="Helvetica,sans-Serif" font-size="10.00">+ isCollided()</text>
<text text-anchor="start" x="148" y="-29.5" font-family="Helvetica,sans-Serif" font-size="10.00">+ getColor()</text>
<text text-anchor="start" x="148" y="-18.5" font-family="Helvetica,sans-Serif" font-size="10.00">+ redirectionLight()</text>
</a>
</g>
</g>
<!-- Node1&#45;&gt;Node4 -->
<g id="edge3" class="edge">
<title>Node1&#45;&gt;Node4</title>
<path fill="none" stroke="midnightblue" d="M559.32,-298.48C486.78,-290.23 370.09,-268.57 287,-212 282.03,-208.61 277.25,-204.8 272.67,-200.69"/>
<polygon fill="none" stroke="midnightblue" points="559.37,-302 569.69,-299.6 560.13,-295.04 559.37,-302"/>
</g>
<!-- Node5 -->
<g id="node5" class="node">
<title>Node5</title>
<g id="a_node5"><a xlink:href="a01529.html" target="_top" xlink:title=" ">
<polygon fill="white" stroke="black" points="296,-17 296,-195 418,-195 418,-17 296,-17"/>
<text text-anchor="start" x="304" y="-183" font-family="Helvetica,sans-Serif" font-size="10.00">RayTracer::PluginsExt</text>
<text text-anchor="middle" x="357" y="-172" font-family="Helvetica,sans-Serif" font-size="10.00">::Disk::DiskEntity</text>
<polyline fill="none" stroke="black" points="296,-165 418,-165 "/>
<text text-anchor="start" x="304" y="-153" font-family="Helvetica,sans-Serif" font-size="10.00">&#45; _transform</text>
<text text-anchor="start" x="304" y="-142" font-family="Helvetica,sans-Serif" font-size="10.00">&#45; _radius</text>
<text text-anchor="start" x="304" y="-131" font-family="Helvetica,sans-Serif" font-size="10.00">&#45; _material</text>
<text text-anchor="start" x="304" y="-120" font-family="Helvetica,sans-Serif" font-size="10.00">&#45; _logger</text>
<polyline fill="none" stroke="black" points="296,-113 418,-113 "/>
<text text-anchor="start" x="304" y="-101" font-family="Helvetica,sans-Serif" font-size="10.00">+ DiskEntity()</text>
<text text-anchor="start" x="304" y="-90" font-family="Helvetica,sans-Serif" font-size="10.00">+ getType()</text>
<text text-anchor="start" x="304" y="-79" font-family="Helvetica,sans-Serif" font-size="10.00">+ getTransform()</text>
<text text-anchor="start" x="304" y="-68" font-family="Helvetica,sans-Serif" font-size="10.00">+ getTransform()</text>
<text text-anchor="start" x="304" y="-57" font-family="Helvetica,sans-Serif" font-size="10.00">+ isCollided()</text>
<text text-anchor="start" x="304" y="-46" font-family="Helvetica,sans-Serif" font-size="10.00">+ isCollided()</text>
<text text-anchor="start" x="304" y="-35" font-family="Helvetica,sans-Serif" font-size="10.00">+ getColor()</text>
<text text-anchor="start" x="304" y="-24" font-family="Helvetica,sans-Serif" font-size="10.00">+ redirectionLight()</text>
</a>
</g>
</g>
<!-- Node1&#45;&gt;Node5 -->
<g id="edge4" class="edge">
<title>Node1&#45;&gt;Node5</title>
<path fill="none" stroke="midnightblue" d="M560.37,-283.69C518.86,-268.79 465.9,-245.22 427,-212 421,-206.88 415.31,-201.12 409.95,-195.01"/>
<polygon fill="none" stroke="midnightblue" points="559.26,-287 569.85,-287.01 561.57,-280.4 559.26,-287"/>
</g>
<!-- Node6 -->
<g id="node6" class="node">
<title>Node6</title>
<g id="a_node6"><a xlink:href="a01537.html" target="_top" xlink:title=" ">
<polygon fill="white" stroke="black" points="436,-11.5 436,-200.5 616,-200.5 616,-11.5 436,-11.5"/>
<text text-anchor="start" x="444" y="-188.5" font-family="Helvetica,sans-Serif" font-size="10.00">RayTracer::PluginsExt</text>
<text text-anchor="middle" x="526" y="-177.5" font-family="Helvetica,sans-Serif" font-size="10.00">::LimitedCone::LimitedConeEntity</text>
<polyline fill="none" stroke="black" points="436,-170.5 616,-170.5 "/>
<text text-anchor="start" x="444" y="-158.5" font-family="Helvetica,sans-Serif" font-size="10.00">&#45; _transform</text>
<text text-anchor="start" x="444" y="-147.5" font-family="Helvetica,sans-Serif" font-size="10.00">&#45; _angle</text>
<text text-anchor="start" x="444" y="-136.5" font-family="Helvetica,sans-Serif" font-size="10.00">&#45; _logger</text>
<text text-anchor="start" x="444" y="-125.5" font-family="Helvetica,sans-Serif" font-size="10.00">&#45; _material</text>
<text text-anchor="start" x="444" y="-114.5" font-family="Helvetica,sans-Serif" font-size="10.00">&#45; _height</text>
<polyline fill="none" stroke="black" points="436,-107.5 616,-107.5 "/>
<text text-anchor="start" x="444" y="-95.5" font-family="Helvetica,sans-Serif" font-size="10.00">+ LimitedConeEntity()</text>
<text text-anchor="start" x="444" y="-84.5" font-family="Helvetica,sans-Serif" font-size="10.00">+ getType()</text>
<text text-anchor="start" x="444" y="-73.5" font-family="Helvetica,sans-Serif" font-size="10.00">+ getTransform()</text>
<text text-anchor="start" x="444" y="-62.5" font-family="Helvetica,sans-Serif" font-size="10.00">+ getTransform()</text>
<text text-anchor="start" x="444" y="-51.5" font-family="Helvetica,sans-Serif" font-size="10.00">+ isCollided()</text>
<text text-anchor="start" x="444" y="-40.5" font-family="Helvetica,sans-Serif" font-size="10.00">+ isCollided()</text>
<text text-anchor="start" x="444" y="-29.5" font-family="Helvetica,sans-Serif" font-size="10.00">+ getColor()</text>
<text text-anchor="start" x="444" y="-18.5" font-family="Helvetica,sans-Serif" font-size="10.00">+ redirectionLight()</text>
</a>
</g>
</g>
<!-- Node1&#45;&gt;Node6 -->
<g id="edge5" class="edge">
<title>Node1&#45;&gt;Node6</title>
<path fill="none" stroke="midnightblue" d="M593.17,-238.99C586.9,-226.67 580.22,-213.55 573.6,-200.53"/>
<polygon fill="none" stroke="midnightblue" points="590.22,-240.92 597.88,-248.24 596.46,-237.74 590.22,-240.92"/>
</g>
<!-- Node7 -->
<g id="node7" class="node">
<title>Node7</title>
<g id="a_node7"><a xlink:href="a01545.html" target="_top" xlink:title=" ">
<polygon fill="white" stroke="black" points="634.5,-0.5 634.5,-211.5 817.5,-211.5 817.5,-0.5 634.5,-0.5"/>
<text text-anchor="start" x="642.5" y="-199.5" font-family="Helvetica,sans-Serif" font-size="10.00">RayTracer::PluginsExt</text>
<text text-anchor="start" x="642.5" y="-188.5" font-family="Helvetica,sans-Serif" font-size="10.00">::LimitedCylinder::LimitedCylinder</text>
<text text-anchor="middle" x="726" y="-177.5" font-family="Helvetica,sans-Serif" font-size="10.00">Entity</text>
<polyline fill="none" stroke="black" points="634.5,-170.5 817.5,-170.5 "/>
<text text-anchor="start" x="642.5" y="-158.5" font-family="Helvetica,sans-Serif" font-size="10.00">&#45; _transform</text>
<text text-anchor="start" x="642.5" y="-147.5" font-family="Helvetica,sans-Serif" font-size="10.00">&#45; _direction</text>
<text text-anchor="start" x="642.5" y="-136.5" font-family="Helvetica,sans-Serif" font-size="10.00">&#45; _radius</text>
<text text-anchor="start" x="642.5" y="-125.5" font-family="Helvetica,sans-Serif" font-size="10.00">&#45; _logger</text>
<text text-anchor="start" x="642.5" y="-114.5" font-family="Helvetica,sans-Serif" font-size="10.00">&#45; _material</text>
<text text-anchor="start" x="642.5" y="-103.5" font-family="Helvetica,sans-Serif" font-size="10.00">&#45; _height</text>
<polyline fill="none" stroke="black" points="634.5,-96.5 817.5,-96.5 "/>
<text text-anchor="start" x="642.5" y="-84.5" font-family="Helvetica,sans-Serif" font-size="10.00">+ LimitedCylinderEntity()</text>
<text text-anchor="start" x="642.5" y="-73.5" font-family="Helvetica,sans-Serif" font-size="10.00">+ getType()</text>
<text text-anchor="start" x="642.5" y="-62.5" font-family="Helvetica,sans-Serif" font-size="10.00">+ getTransform()</text>
<text text-anchor="start" x="642.5" y="-51.5" font-family="Helvetica,sans-Serif" font-size="10.00">+ getTransform()</text>
<text text-anchor="start" x="642.5" y="-40.5" font-family="Helvetica,sans-Serif" font-size="10.00">+ isCollided()</text>
<text text-anchor="start" x="642.5" y="-29.5" font-family="Helvetica,sans-Serif" font-size="10.00">+ isCollided()</text>
<text text-anchor="start" x="642.5" y="-18.5" font-family="Helvetica,sans-Serif" font-size="10.00">+ getColor()</text>
<text text-anchor="start" x="642.5" y="-7.5" font-family="Helvetica,sans-Serif" font-size="10.00">+ redirectionLight()</text>
</a>
</g>
</g>
<!-- Node1&#45;&gt;Node7 -->
<g id="edge6" class="edge">
<title>Node1&#45;&gt;Node7</title>
<path fill="none" stroke="midnightblue" d="M658.73,-239.19C663.22,-230.35 667.94,-221.09 672.69,-211.76"/>
<polygon fill="none" stroke="midnightblue" points="655.54,-237.74 654.12,-248.24 661.78,-240.92 655.54,-237.74"/>
</g>
<!-- Node8 -->
<g id="node8" class="node">
<title>Node8</title>
<g id="a_node8"><a xlink:href="a01553.html" target="_top" xlink:title=" ">
<polygon fill="white" stroke="black" points="836,-11.5 836,-200.5 992,-200.5 992,-11.5 836,-11.5"/>
<text text-anchor="start" x="844" y="-188.5" font-family="Helvetica,sans-Serif" font-size="10.00">RayTracer::PluginsExt</text>
<text text-anchor="start" x="844" y="-177.5" font-family="Helvetica,sans-Serif" font-size="10.00">::LimitedPlane::LimitedPlane</text>
<text text-anchor="middle" x="914" y="-166.5" font-family="Helvetica,sans-Serif" font-size="10.00">Entity</text>
<polyline fill="none" stroke="black" points="836,-159.5 992,-159.5 "/>
<text text-anchor="start" x="844" y="-147.5" font-family="Helvetica,sans-Serif" font-size="10.00">&#45; _transform</text>
<text text-anchor="start" x="844" y="-136.5" font-family="Helvetica,sans-Serif" font-size="10.00">&#45; _size</text>
<text text-anchor="start" x="844" y="-125.5" font-family="Helvetica,sans-Serif" font-size="10.00">&#45; _material</text>
<text text-anchor="start" x="844" y="-114.5" font-family="Helvetica,sans-Serif" font-size="10.00">&#45; _logger</text>
<polyline fill="none" stroke="black" points="836,-107.5 992,-107.5 "/>
<text text-anchor="start" x="844" y="-95.5" font-family="Helvetica,sans-Serif" font-size="10.00">+ LimitedPlaneEntity()</text>
<text text-anchor="start" x="844" y="-84.5" font-family="Helvetica,sans-Serif" font-size="10.00">+ getType()</text>
<text text-anchor="start" x="844" y="-73.5" font-family="Helvetica,sans-Serif" font-size="10.00">+ getTransform()</text>
<text text-anchor="start" x="844" y="-62.5" font-family="Helvetica,sans-Serif" font-size="10.00">+ getTransform()</text>
<text text-anchor="start" x="844" y="-51.5" font-family="Helvetica,sans-Serif" font-size="10.00">+ isCollided()</text>
<text text-anchor="start" x="844" y="-40.5" font-family="Helvetica,sans-Serif" font-size="10.00">+ isCollided()</text>
<text text-anchor="start" x="844" y="-29.5" font-family="Helvetica,sans-Serif" font-size="10.00">+ getColor()</text>
<text text-anchor="start" x="844" y="-18.5" font-family="Helvetica,sans-Serif" font-size="10.00">+ redirectionLight()</text>
</a>
</g>
</g>
<!-- Node1&#45;&gt;Node8 -->
<g id="edge7" class="edge">
<title>Node1&#45;&gt;Node8</title>
<path fill="none" stroke="midnightblue" d="M691.58,-282.25C732.99,-266.84 786.18,-243.23 827,-212 831.61,-208.48 836.13,-204.66 840.54,-200.65"/>
<polygon fill="none" stroke="midnightblue" points="690.32,-278.99 682.13,-285.7 692.73,-285.56 690.32,-278.99"/>
</g>
<!-- Node9 -->
<g id="node9" class="node">
<title>Node9</title>
<g id="a_node9"><a xlink:href="a01569.html" target="_top" xlink:title=" ">
<polygon fill="white" stroke="black" points="1010,-22.5 1010,-189.5 1132,-189.5 1132,-22.5 1010,-22.5"/>
<text text-anchor="start" x="1018" y="-177.5" font-family="Helvetica,sans-Serif" font-size="10.00">RayTracer::PluginsExt</text>
<text text-anchor="middle" x="1071" y="-166.5" font-family="Helvetica,sans-Serif" font-size="10.00">::Plane::PlaneEntity</text>
<polyline fill="none" stroke="black" points="1010,-159.5 1132,-159.5 "/>
<text text-anchor="start" x="1018" y="-147.5" font-family="Helvetica,sans-Serif" font-size="10.00">&#45; _transform</text>
<text text-anchor="start" x="1018" y="-136.5" font-family="Helvetica,sans-Serif" font-size="10.00">&#45; _material</text>
<text text-anchor="start" x="1018" y="-125.5" font-family="Helvetica,sans-Serif" font-size="10.00">&#45; _logger</text>
<polyline fill="none" stroke="black" points="1010,-118.5 1132,-118.5 "/>
<text text-anchor="start" x="1018" y="-106.5" font-family="Helvetica,sans-Serif" font-size="10.00">+ PlaneEntity()</text>
<text text-anchor="start" x="1018" y="-95.5" font-family="Helvetica,sans-Serif" font-size="10.00">+ getType()</text>
<text text-anchor="start" x="1018" y="-84.5" font-family="Helvetica,sans-Serif" font-size="10.00">+ getTransform()</text>
<text text-anchor="start" x="1018" y="-73.5" font-family="Helvetica,sans-Serif" font-size="10.00">+ getTransform()</text>
<text text-anchor="start" x="1018" y="-62.5" font-family="Helvetica,sans-Serif" font-size="10.00">+ isCollided()</text>
<text text-anchor="start" x="1018" y="-51.5" font-family="Helvetica,sans-Serif" font-size="10.00">+ isCollided()</text>
<text text-anchor="start" x="1018" y="-40.5" font-family="Helvetica,sans-Serif" font-size="10.00">+ getColor()</text>
<text text-anchor="start" x="1018" y="-29.5" font-family="Helvetica,sans-Serif" font-size="10.00">+ redirectionLight()</text>
</a>
</g>
</g>
<!-- Node1&#45;&gt;Node9 -->
<g id="edge8" class="edge">
<title>Node1&#45;&gt;Node9</title>
<path fill="none" stroke="midnightblue" d="M692.44,-301.62C772.38,-296.34 907.5,-277.5 1001,-212 1009.88,-205.78 1017.95,-198.04 1025.18,-189.6"/>
<polygon fill="none" stroke="midnightblue" points="691.78,-298.15 682.02,-302.25 692.21,-305.14 691.78,-298.15"/>
</g>
<!-- Node10 -->
<g id="node10" class="node">
<title>Node10</title>
<g id="a_node10"><a xlink:href="a01585.html" target="_top" xlink:title=" ">
<polygon fill="white" stroke="black" points="1150.5,-17 1150.5,-195 1275.5,-195 1275.5,-17 1150.5,-17"/>
<text text-anchor="start" x="1158.5" y="-183" font-family="Helvetica,sans-Serif" font-size="10.00">RayTracer::PluginsExt</text>
<text text-anchor="middle" x="1213" y="-172" font-family="Helvetica,sans-Serif" font-size="10.00">::Sphere::SphereEntity</text>
<polyline fill="none" stroke="black" points="1150.5,-165 1275.5,-165 "/>
<text text-anchor="start" x="1158.5" y="-153" font-family="Helvetica,sans-Serif" font-size="10.00">&#45; _transform</text>
<text text-anchor="start" x="1158.5" y="-142" font-family="Helvetica,sans-Serif" font-size="10.00">&#45; _radius</text>
<text text-anchor="start" x="1158.5" y="-131" font-family="Helvetica,sans-Serif" font-size="10.00">&#45; _material</text>
<text text-anchor="start" x="1158.5" y="-120" font-family="Helvetica,sans-Serif" font-size="10.00">&#45; _logger</text>
<polyline fill="none" stroke="black" points="1150.5,-113 1275.5,-113 "/>
<text text-anchor="start" x="1158.5" y="-101" font-family="Helvetica,sans-Serif" font-size="10.00">+ SphereEntity()</text>
<text text-anchor="start" x="1158.5" y="-90" font-family="Helvetica,sans-Serif" font-size="10.00">+ getType()</text>
<text text-anchor="start" x="1158.5" y="-79" font-family="Helvetica,sans-Serif" font-size="10.00">+ getTransform()</text>
<text text-anchor="start" x="1158.5" y="-68" font-family="Helvetica,sans-Serif" font-size="10.00">+ getTransform()</text>
<text text-anchor="start" x="1158.5" y="-57" font-family="Helvetica,sans-Serif" font-size="10.00">+ isCollided()</text>
<text text-anchor="start" x="1158.5" y="-46" font-family="Helvetica,sans-Serif" font-size="10.00">+ isCollided()</text>
<text text-anchor="start" x="1158.5" y="-35" font-family="Helvetica,sans-Serif" font-size="10.00">+ getColor()</text>
<text text-anchor="start" x="1158.5" y="-24" font-family="Helvetica,sans-Serif" font-size="10.00">+ redirectionLight()</text>
</a>
</g>
</g>
<!-- Node1&#45;&gt;Node10 -->
<g id="edge9" class="edge">
<title>Node1&#45;&gt;Node10</title>
<path fill="none" stroke="midnightblue" d="M692.45,-298.09C814.29,-287.14 1067.68,-259.28 1141,-212 1148.24,-207.33 1154.95,-201.64 1161.12,-195.36"/>
<polygon fill="none" stroke="midnightblue" points="691.79,-294.63 682.14,-299 692.41,-301.6 691.79,-294.63"/>
</g>
<!-- Node2 -->
<g id="node2" class="node">
<title>Node2</title>
<g id="a_node2"><a xlink:href="a01189.html" target="_top" xlink:title="The IEntity class.">
<polygon fill="white" stroke="black" points="572.5,-397.5 572.5,-498.5 679.5,-498.5 679.5,-397.5 572.5,-397.5"/>
<text text-anchor="start" x="580.5" y="-486.5" font-family="Helvetica,sans-Serif" font-size="10.00">RayTracer::Entities</text>
<text text-anchor="middle" x="626" y="-475.5" font-family="Helvetica,sans-Serif" font-size="10.00">::IEntity</text>
<polyline fill="none" stroke="black" points="572.5,-468.5 679.5,-468.5 "/>
<text text-anchor="middle" x="626" y="-456.5" font-family="Helvetica,sans-Serif" font-size="10.00"> </text>
<polyline fill="none" stroke="black" points="572.5,-449.5 679.5,-449.5 "/>
<text text-anchor="start" x="580.5" y="-437.5" font-family="Helvetica,sans-Serif" font-size="10.00">+ ~IEntity()</text>
<text text-anchor="start" x="580.5" y="-426.5" font-family="Helvetica,sans-Serif" font-size="10.00">+ getTransform()</text>
<text text-anchor="start" x="580.5" y="-415.5" font-family="Helvetica,sans-Serif" font-size="10.00">+ getTransform()</text>
<text text-anchor="start" x="580.5" y="-404.5" font-family="Helvetica,sans-Serif" font-size="10.00">+ getType()</text>
</a>
</g>
</g>
<!-- Node2&#45;&gt;Node1 -->
<g id="edge1" class="edge">
<title>Node2&#45;&gt;Node1</title>
<path fill="none" stroke="midnightblue" d="M626,-387.01C626,-378.29 626,-369.34 626,-360.72"/>
<polygon fill="none" stroke="midnightblue" points="622.5,-387.11 626,-397.11 629.5,-387.11 622.5,-387.11"/>
</g>
</g>
</svg>
