<?xml version="1.0" encoding="UTF-8" standalone="no"?>
<!DOCTYPE svg PUBLIC "-//W3C//DTD SVG 1.1//EN"
 "http://www.w3.org/Graphics/SVG/1.1/DTD/svg11.dtd">
<!-- Generated by graphviz version 2.43.0 (0)
 -->
<!-- Title: RayTracer::Images::RayIterrator::Iterrator Pages: 1 -->
<svg width="570pt" height="920pt"
 viewBox="0.00 0.00 570.00 920.00" xmlns="http://www.w3.org/2000/svg" xmlns:xlink="http://www.w3.org/1999/xlink">
<g id="graph0" class="graph" transform="scale(1 1) rotate(0) translate(4 916)">
<title>RayTracer::Images::RayIterrator::Iterrator</title>
<polygon fill="white" stroke="transparent" points="-4,4 -4,-916 566,-916 566,4 -4,4"/>
<!-- Node1 -->
<g id="node1" class="node">
<title>Node1</title>
<g id="a_node1"><a xlink:title=" ">
<polygon fill="#bfbfbf" stroke="black" points="238,-0.5 238,-134.5 359,-134.5 359,-0.5 238,-0.5"/>
<text text-anchor="start" x="246" y="-122.5" font-family="Helvetica,sans-Serif" font-size="10.00">RayTracer::Images::</text>
<text text-anchor="middle" x="298.5" y="-111.5" font-family="Helvetica,sans-Serif" font-size="10.00">RayIterrator::Iterrator</text>
<polyline fill="none" stroke="black" points="238,-104.5 359,-104.5 "/>
<text text-anchor="middle" x="298.5" y="-92.5" font-family="Helvetica,sans-Serif" font-size="10.00"> </text>
<polyline fill="none" stroke="black" points="238,-85.5 359,-85.5 "/>
<text text-anchor="start" x="246" y="-73.5" font-family="Helvetica,sans-Serif" font-size="10.00">+ Iterrator()</text>
<text text-anchor="start" x="246" y="-62.5" font-family="Helvetica,sans-Serif" font-size="10.00">+ operator++()</text>
<text text-anchor="start" x="246" y="-51.5" font-family="Helvetica,sans-Serif" font-size="10.00">+ operator*()</text>
<text text-anchor="start" x="246" y="-40.5" font-family="Helvetica,sans-Serif" font-size="10.00">+ operator==()</text>
<text text-anchor="start" x="246" y="-29.5" font-family="Helvetica,sans-Serif" font-size="10.00">+ operator!=()</text>
<text text-anchor="start" x="246" y="-18.5" font-family="Helvetica,sans-Serif" font-size="10.00">+ operator=()</text>
<text text-anchor="start" x="246" y="-7.5" font-family="Helvetica,sans-Serif" font-size="10.00">+ toString()</text>
</a>
</g>
</g>
<!-- Node2 -->
<g id="node2" class="node">
<title>Node2</title>
<g id="a_node2"><a xlink:href="a01354.html" target="_top" xlink:title=" ">
<polygon fill="white" stroke="black" points="0,-226.5 0,-349.5 119,-349.5 119,-226.5 0,-226.5"/>
<text text-anchor="start" x="8" y="-337.5" font-family="Helvetica,sans-Serif" font-size="10.00">RayTracer::Images::</text>
<text text-anchor="middle" x="59.5" y="-326.5" font-family="Helvetica,sans-Serif" font-size="10.00">IRayIterator::IIterator</text>
<polyline fill="none" stroke="black" points="0,-319.5 119,-319.5 "/>
<text text-anchor="middle" x="59.5" y="-307.5" font-family="Helvetica,sans-Serif" font-size="10.00"> </text>
<polyline fill="none" stroke="black" points="0,-300.5 119,-300.5 "/>
<text text-anchor="start" x="8" y="-288.5" font-family="Helvetica,sans-Serif" font-size="10.00">+ ~IIterator()</text>
<text text-anchor="start" x="8" y="-277.5" font-family="Helvetica,sans-Serif" font-size="10.00">+ operator++()</text>
<text text-anchor="start" x="8" y="-266.5" font-family="Helvetica,sans-Serif" font-size="10.00">+ operator*()</text>
<text text-anchor="start" x="8" y="-255.5" font-family="Helvetica,sans-Serif" font-size="10.00">+ operator==()</text>
<text text-anchor="start" x="8" y="-244.5" font-family="Helvetica,sans-Serif" font-size="10.00">+ operator!=()</text>
<text text-anchor="start" x="8" y="-233.5" font-family="Helvetica,sans-Serif" font-size="10.00">+ toString()</text>
</a>
</g>
</g>
<!-- Node2&#45;&gt;Node1 -->
<g id="edge1" class="edge">
<title>Node2&#45;&gt;Node1</title>
<path fill="none" stroke="midnightblue" d="M92.64,-217.56C105.67,-195.09 122.17,-171.29 141.5,-153 169.16,-126.83 206.48,-106.31 237.8,-92.04"/>
<polygon fill="none" stroke="midnightblue" points="89.51,-215.99 87.64,-226.42 95.6,-219.43 89.51,-215.99"/>
</g>
<!-- Node3 -->
<g id="node3" class="node">
<title>Node3</title>
<g id="a_node3"><a xlink:href="a01294.html" target="_top" xlink:title="The Vector3f class.">
<polygon fill="white" stroke="black" points="140.5,-452.5 140.5,-784.5 258.5,-784.5 258.5,-452.5 140.5,-452.5"/>
<text text-anchor="start" x="148.5" y="-772.5" font-family="Helvetica,sans-Serif" font-size="10.00">RayTracer::Entities</text>
<text text-anchor="middle" x="199.5" y="-761.5" font-family="Helvetica,sans-Serif" font-size="10.00">::Transform::Vector3f</text>
<polyline fill="none" stroke="black" points="140.5,-754.5 258.5,-754.5 "/>
<text text-anchor="middle" x="199.5" y="-742.5" font-family="Helvetica,sans-Serif" font-size="10.00"> </text>
<polyline fill="none" stroke="black" points="140.5,-735.5 258.5,-735.5 "/>
<text text-anchor="start" x="148.5" y="-723.5" font-family="Helvetica,sans-Serif" font-size="10.00">+ ~Vector3f()</text>
<text text-anchor="start" x="148.5" y="-712.5" font-family="Helvetica,sans-Serif" font-size="10.00">+ Vector3f()</text>
<text text-anchor="start" x="148.5" y="-701.5" font-family="Helvetica,sans-Serif" font-size="10.00">+ Vector3f()</text>
<text text-anchor="start" x="148.5" y="-690.5" font-family="Helvetica,sans-Serif" font-size="10.00">+ Vector3f()</text>
<text text-anchor="start" x="148.5" y="-679.5" font-family="Helvetica,sans-Serif" font-size="10.00">+ Vector3f()</text>
<text text-anchor="start" x="148.5" y="-668.5" font-family="Helvetica,sans-Serif" font-size="10.00">+ operator+()</text>
<text text-anchor="start" x="148.5" y="-657.5" font-family="Helvetica,sans-Serif" font-size="10.00">+ operator&#45;()</text>
<text text-anchor="start" x="148.5" y="-646.5" font-family="Helvetica,sans-Serif" font-size="10.00">+ operator*()</text>
<text text-anchor="start" x="148.5" y="-635.5" font-family="Helvetica,sans-Serif" font-size="10.00">+ operator/()</text>
<text text-anchor="start" x="148.5" y="-624.5" font-family="Helvetica,sans-Serif" font-size="10.00">+ operator=()</text>
<text text-anchor="start" x="148.5" y="-613.5" font-family="Helvetica,sans-Serif" font-size="10.00">+ getX()</text>
<text text-anchor="start" x="148.5" y="-602.5" font-family="Helvetica,sans-Serif" font-size="10.00">+ getY()</text>
<text text-anchor="start" x="148.5" y="-591.5" font-family="Helvetica,sans-Serif" font-size="10.00">+ getZ()</text>
<text text-anchor="start" x="148.5" y="-580.5" font-family="Helvetica,sans-Serif" font-size="10.00">+ getNorm()</text>
<text text-anchor="start" x="148.5" y="-569.5" font-family="Helvetica,sans-Serif" font-size="10.00">+ getNormalized()</text>
<text text-anchor="start" x="148.5" y="-558.5" font-family="Helvetica,sans-Serif" font-size="10.00">+ getCrossed()</text>
<text text-anchor="start" x="148.5" y="-547.5" font-family="Helvetica,sans-Serif" font-size="10.00">+ dot()</text>
<text text-anchor="start" x="148.5" y="-536.5" font-family="Helvetica,sans-Serif" font-size="10.00">+ getDistance()</text>
<text text-anchor="start" x="148.5" y="-525.5" font-family="Helvetica,sans-Serif" font-size="10.00">+ toDegrees()</text>
<text text-anchor="start" x="148.5" y="-514.5" font-family="Helvetica,sans-Serif" font-size="10.00">+ toRadians()</text>
<text text-anchor="start" x="148.5" y="-503.5" font-family="Helvetica,sans-Serif" font-size="10.00">+ rotateVector()</text>
<text text-anchor="start" x="148.5" y="-492.5" font-family="Helvetica,sans-Serif" font-size="10.00">+ getAngle()</text>
<text text-anchor="start" x="148.5" y="-481.5" font-family="Helvetica,sans-Serif" font-size="10.00">+ rotateX()</text>
<text text-anchor="start" x="148.5" y="-470.5" font-family="Helvetica,sans-Serif" font-size="10.00">+ rotateY()</text>
<text text-anchor="start" x="148.5" y="-459.5" font-family="Helvetica,sans-Serif" font-size="10.00">+ rotateZ()</text>
</a>
</g>
</g>
<!-- Node3&#45;&gt;Node1 -->
<g id="edge2" class="edge">
<title>Node3&#45;&gt;Node1</title>
<path fill="none" stroke="#404040" d="M150,-452.46C134.44,-371.27 129.3,-273.75 164.5,-193 177.95,-162.15 203.22,-135.51 228.22,-114.88"/>
<polygon fill="none" stroke="#404040" points="228.39,-114.75 230.58,-107.88 237.77,-107.27 235.57,-114.14 228.39,-114.75"/>
<text text-anchor="middle" x="194" y="-291" font-family="Helvetica,sans-Serif" font-size="10.00"> &#45;_pov</text>
<text text-anchor="middle" x="194" y="-280" font-family="Helvetica,sans-Serif" font-size="10.00">&#45;_screenPos</text>
</g>
<!-- Node7 -->
<g id="node7" class="node">
<title>Node7</title>
<g id="a_node7"><a xlink:href="a01362.html" target="_top" xlink:title="The Ray class.">
<polygon fill="white" stroke="black" points="233,-221 233,-355 364,-355 364,-221 233,-221"/>
<text text-anchor="middle" x="298.5" y="-343" font-family="Helvetica,sans-Serif" font-size="10.00">RayTracer::Images::Ray</text>
<polyline fill="none" stroke="black" points="233,-336 364,-336 "/>
<text text-anchor="middle" x="298.5" y="-324" font-family="Helvetica,sans-Serif" font-size="10.00"> </text>
<polyline fill="none" stroke="black" points="233,-317 364,-317 "/>
<text text-anchor="start" x="241" y="-305" font-family="Helvetica,sans-Serif" font-size="10.00">+ Ray()</text>
<text text-anchor="start" x="241" y="-294" font-family="Helvetica,sans-Serif" font-size="10.00">+ getOrigin()</text>
<text text-anchor="start" x="241" y="-283" font-family="Helvetica,sans-Serif" font-size="10.00">+ getDirection()</text>
<text text-anchor="start" x="241" y="-272" font-family="Helvetica,sans-Serif" font-size="10.00">+ getStep()</text>
<text text-anchor="start" x="241" y="-261" font-family="Helvetica,sans-Serif" font-size="10.00">+ operator+=()</text>
<text text-anchor="start" x="241" y="-250" font-family="Helvetica,sans-Serif" font-size="10.00">+ operator&#45;=()</text>
<text text-anchor="start" x="241" y="-239" font-family="Helvetica,sans-Serif" font-size="10.00">+ operator++()</text>
<text text-anchor="start" x="241" y="-228" font-family="Helvetica,sans-Serif" font-size="10.00">+ operator&#45;&#45;()</text>
</a>
</g>
</g>
<!-- Node3&#45;&gt;Node7 -->
<g id="edge7" class="edge">
<title>Node3&#45;&gt;Node7</title>
<path fill="none" stroke="#404040" d="M249.29,-452.29C258.31,-422.36 267.32,-392.48 275.11,-366.61"/>
<polygon fill="none" stroke="#404040" points="275.14,-366.51 273.04,-359.61 278.6,-355.02 280.7,-361.92 275.14,-366.51"/>
<text text-anchor="middle" x="288" y="-426" font-family="Helvetica,sans-Serif" font-size="10.00"> &#45;_normal</text>
<text text-anchor="middle" x="288" y="-415" font-family="Helvetica,sans-Serif" font-size="10.00">&#45;_origin</text>
<text text-anchor="middle" x="288" y="-404" font-family="Helvetica,sans-Serif" font-size="10.00">&#45;_step</text>
</g>
<!-- Node4 -->
<g id="node4" class="node">
<title>Node4</title>
<g id="a_node4"><a xlink:title=" ">
<polygon fill="white" stroke="#bfbfbf" points="174.5,-854.5 174.5,-911.5 224.5,-911.5 224.5,-854.5 174.5,-854.5"/>
<text text-anchor="middle" x="199.5" y="-899.5" font-family="Helvetica,sans-Serif" font-size="10.00">double</text>
<polyline fill="none" stroke="#bfbfbf" points="174.5,-892.5 224.5,-892.5 "/>
<text text-anchor="middle" x="199.5" y="-880.5" font-family="Helvetica,sans-Serif" font-size="10.00"> </text>
<polyline fill="none" stroke="#bfbfbf" points="174.5,-873.5 224.5,-873.5 "/>
<text text-anchor="middle" x="199.5" y="-861.5" font-family="Helvetica,sans-Serif" font-size="10.00"> </text>
</a>
</g>
</g>
<!-- Node4&#45;&gt;Node3 -->
<g id="edge3" class="edge">
<title>Node4&#45;&gt;Node3</title>
<path fill="none" stroke="#404040" d="M199.5,-854.4C199.5,-839.23 199.5,-818.98 199.5,-796.71"/>
<polygon fill="none" stroke="#404040" points="199.5,-796.52 195.5,-790.52 199.5,-784.52 203.5,-790.52 199.5,-796.52"/>
<text text-anchor="middle" x="209" y="-828" font-family="Helvetica,sans-Serif" font-size="10.00"> &#45;_x</text>
<text text-anchor="middle" x="209" y="-817" font-family="Helvetica,sans-Serif" font-size="10.00">&#45;_y</text>
<text text-anchor="middle" x="209" y="-806" font-family="Helvetica,sans-Serif" font-size="10.00">&#45;_z</text>
</g>
<!-- Node5 -->
<g id="node5" class="node">
<title>Node5</title>
<g id="a_node5"><a xlink:href="a01290.html" target="_top" xlink:title="The Vector2i class.">
<polygon fill="white" stroke="black" points="382,-193.5 382,-382.5 499,-382.5 499,-193.5 382,-193.5"/>
<text text-anchor="start" x="390" y="-370.5" font-family="Helvetica,sans-Serif" font-size="10.00">RayTracer::Entities</text>
<text text-anchor="middle" x="440.5" y="-359.5" font-family="Helvetica,sans-Serif" font-size="10.00">::Transform::Vector2i</text>
<polyline fill="none" stroke="black" points="382,-352.5 499,-352.5 "/>
<text text-anchor="middle" x="440.5" y="-340.5" font-family="Helvetica,sans-Serif" font-size="10.00"> </text>
<polyline fill="none" stroke="black" points="382,-333.5 499,-333.5 "/>
<text text-anchor="start" x="390" y="-321.5" font-family="Helvetica,sans-Serif" font-size="10.00">+ ~Vector2i()</text>
<text text-anchor="start" x="390" y="-310.5" font-family="Helvetica,sans-Serif" font-size="10.00">+ Vector2i()</text>
<text text-anchor="start" x="390" y="-299.5" font-family="Helvetica,sans-Serif" font-size="10.00">+ Vector2i()</text>
<text text-anchor="start" x="390" y="-288.5" font-family="Helvetica,sans-Serif" font-size="10.00">+ Vector2i()</text>
<text text-anchor="start" x="390" y="-277.5" font-family="Helvetica,sans-Serif" font-size="10.00">+ Vector2i()</text>
<text text-anchor="start" x="390" y="-266.5" font-family="Helvetica,sans-Serif" font-size="10.00">+ operator+()</text>
<text text-anchor="start" x="390" y="-255.5" font-family="Helvetica,sans-Serif" font-size="10.00">+ operator&#45;()</text>
<text text-anchor="start" x="390" y="-244.5" font-family="Helvetica,sans-Serif" font-size="10.00">+ operator*()</text>
<text text-anchor="start" x="390" y="-233.5" font-family="Helvetica,sans-Serif" font-size="10.00">+ operator/()</text>
<text text-anchor="start" x="390" y="-222.5" font-family="Helvetica,sans-Serif" font-size="10.00">+ operator=()</text>
<text text-anchor="start" x="390" y="-211.5" font-family="Helvetica,sans-Serif" font-size="10.00">+ getX()</text>
<text text-anchor="start" x="390" y="-200.5" font-family="Helvetica,sans-Serif" font-size="10.00">+ getY()</text>
</a>
</g>
</g>
<!-- Node5&#45;&gt;Node1 -->
<g id="edge4" class="edge">
<title>Node5&#45;&gt;Node1</title>
<path fill="none" stroke="#404040" d="M381.92,-196.87C370.73,-179.64 359.1,-161.75 348.21,-145"/>
<polygon fill="none" stroke="#404040" points="348.08,-144.79 341.46,-141.94 341.54,-134.73 348.16,-137.58 348.08,-144.79"/>
<text text-anchor="middle" x="381.5" y="-161.5" font-family="Helvetica,sans-Serif" font-size="10.00"> &#45;_size</text>
</g>
<!-- Node6 -->
<g id="node6" class="node">
<title>Node6</title>
<g id="a_node6"><a xlink:title=" ">
<polygon fill="white" stroke="#bfbfbf" points="426,-590 426,-647 455,-647 455,-590 426,-590"/>
<text text-anchor="middle" x="440.5" y="-635" font-family="Helvetica,sans-Serif" font-size="10.00">int</text>
<polyline fill="none" stroke="#bfbfbf" points="426,-628 455,-628 "/>
<text text-anchor="middle" x="440.5" y="-616" font-family="Helvetica,sans-Serif" font-size="10.00"> </text>
<polyline fill="none" stroke="#bfbfbf" points="426,-609 455,-609 "/>
<text text-anchor="middle" x="440.5" y="-597" font-family="Helvetica,sans-Serif" font-size="10.00"> </text>
</a>
</g>
</g>
<!-- Node6&#45;&gt;Node5 -->
<g id="edge5" class="edge">
<title>Node6&#45;&gt;Node5</title>
<path fill="none" stroke="#404040" d="M440.5,-589.78C440.5,-547.17 440.5,-463.34 440.5,-394.99"/>
<polygon fill="none" stroke="#404040" points="440.5,-394.86 436.5,-388.86 440.5,-382.86 444.5,-388.86 440.5,-394.86"/>
<text text-anchor="middle" x="450" y="-420.5" font-family="Helvetica,sans-Serif" font-size="10.00"> &#45;_x</text>
<text text-anchor="middle" x="450" y="-409.5" font-family="Helvetica,sans-Serif" font-size="10.00">&#45;_y</text>
</g>
<!-- Node7&#45;&gt;Node1 -->
<g id="edge6" class="edge">
<title>Node7&#45;&gt;Node1</title>
<path fill="none" stroke="#404040" d="M298.5,-220.85C298.5,-197.53 298.5,-171.1 298.5,-146.87"/>
<polygon fill="none" stroke="#404040" points="298.5,-146.8 294.5,-140.8 298.5,-134.8 302.5,-140.8 298.5,-146.8"/>
<text text-anchor="middle" x="314" y="-167" font-family="Helvetica,sans-Serif" font-size="10.00"> &#45;_last</text>
<text text-anchor="middle" x="314" y="-156" font-family="Helvetica,sans-Serif" font-size="10.00">&#45;_ray</text>
</g>
<!-- Node8 -->
<g id="node8" class="node">
<title>Node8</title>
<g id="a_node8"><a xlink:title=" ">
<polygon fill="white" stroke="#bfbfbf" points="517,-259.5 517,-316.5 562,-316.5 562,-259.5 517,-259.5"/>
<text text-anchor="middle" x="539.5" y="-304.5" font-family="Helvetica,sans-Serif" font-size="10.00">size_t</text>
<polyline fill="none" stroke="#bfbfbf" points="517,-297.5 562,-297.5 "/>
<text text-anchor="middle" x="539.5" y="-285.5" font-family="Helvetica,sans-Serif" font-size="10.00"> </text>
<polyline fill="none" stroke="#bfbfbf" points="517,-278.5 562,-278.5 "/>
<text text-anchor="middle" x="539.5" y="-266.5" font-family="Helvetica,sans-Serif" font-size="10.00"> </text>
</a>
</g>
</g>
<!-- Node8&#45;&gt;Node1 -->
<g id="edge8" class="edge">
<title>Node8&#45;&gt;Node1</title>
<path fill="none" stroke="#404040" d="M535.71,-259.42C531.76,-239.24 523.9,-212.15 508.5,-193 472.44,-148.14 415.54,-115.84 370.06,-95.4"/>
<polygon fill="none" stroke="#404040" points="370.06,-95.39 362.95,-96.65 359.06,-90.58 366.16,-89.32 370.06,-95.39"/>
<text text-anchor="middle" x="513.5" y="-161.5" font-family="Helvetica,sans-Serif" font-size="10.00"> &#45;_cluster</text>
</g>
</g>
</svg>
