<?xml version="1.0" encoding="UTF-8" standalone="no"?>
<!DOCTYPE svg PUBLIC "-//W3C//DTD SVG 1.1//EN"
 "http://www.w3.org/Graphics/SVG/1.1/DTD/svg11.dtd">
<!-- Generated by graphviz version 2.43.0 (0)
 -->
<!-- Title: RayTracer::Plugins::Filters::FilterLoader Pages: 1 -->
<svg width="222pt" height="387pt"
 viewBox="0.00 0.00 221.50 387.00" xmlns="http://www.w3.org/2000/svg" xmlns:xlink="http://www.w3.org/1999/xlink">
<g id="graph0" class="graph" transform="scale(1 1) rotate(0) translate(4 383)">
<title>RayTracer::Plugins::Filters::FilterLoader</title>
<polygon fill="white" stroke="transparent" points="-4,4 -4,-383 217.5,-383 217.5,4 -4,4"/>
<!-- Node1 -->
<g id="node1" class="node">
<title>Node1</title>
<g id="a_node1"><a xlink:title="The FilterLoader.">
<polygon fill="#bfbfbf" stroke="black" points="23.5,-0.5 23.5,-79.5 139.5,-79.5 139.5,-0.5 23.5,-0.5"/>
<text text-anchor="start" x="31.5" y="-67.5" font-family="Helvetica,sans-Serif" font-size="10.00">RayTracer::Plugins</text>
<text text-anchor="middle" x="81.5" y="-56.5" font-family="Helvetica,sans-Serif" font-size="10.00">::Filters::FilterLoader</text>
<polyline fill="none" stroke="black" points="23.5,-49.5 139.5,-49.5 "/>
<text text-anchor="middle" x="81.5" y="-37.5" font-family="Helvetica,sans-Serif" font-size="10.00"> </text>
<polyline fill="none" stroke="black" points="23.5,-30.5 139.5,-30.5 "/>
<text text-anchor="start" x="31.5" y="-18.5" font-family="Helvetica,sans-Serif" font-size="10.00">+ FilterLoader()</text>
<text text-anchor="start" x="31.5" y="-7.5" font-family="Helvetica,sans-Serif" font-size="10.00">+ loadFilters()</text>
</a>
</g>
</g>
<!-- Node2 -->
<g id="node2" class="node">
<title>Node2</title>
<g id="a_node2"><a xlink:href="a01417.html" target="_top" xlink:title=" ">
<polygon fill="white" stroke="black" points="0,-117.5 0,-218.5 163,-218.5 163,-117.5 0,-117.5"/>
<text text-anchor="start" x="8" y="-206.5" font-family="Helvetica,sans-Serif" font-size="10.00">RayTracer::Plugins</text>
<text text-anchor="start" x="8" y="-195.5" font-family="Helvetica,sans-Serif" font-size="10.00">::PluginLoader&lt; FilterHandler,</text>
<text text-anchor="start" x="8" y="-184.5" font-family="Helvetica,sans-Serif" font-size="10.00"> RayTracer::Filters::IFilter,</text>
<text text-anchor="middle" x="81.5" y="-173.5" font-family="Helvetica,sans-Serif" font-size="10.00"> Factories::FilterFactory &gt;</text>
<polyline fill="none" stroke="black" points="0,-166.5 163,-166.5 "/>
<text text-anchor="start" x="8" y="-154.5" font-family="Helvetica,sans-Serif" font-size="10.00"># _directory</text>
<polyline fill="none" stroke="black" points="0,-147.5 163,-147.5 "/>
<text text-anchor="start" x="8" y="-135.5" font-family="Helvetica,sans-Serif" font-size="10.00">+ PluginLoader()</text>
<text text-anchor="start" x="8" y="-124.5" font-family="Helvetica,sans-Serif" font-size="10.00">+ load()</text>
</a>
</g>
</g>
<!-- Node2&#45;&gt;Node1 -->
<g id="edge1" class="edge">
<title>Node2&#45;&gt;Node1</title>
<path fill="none" stroke="darkgreen" d="M81.5,-107.11C81.5,-97.74 81.5,-88.28 81.5,-79.56"/>
<polygon fill="none" stroke="darkgreen" points="78,-107.2 81.5,-117.2 85,-107.2 78,-107.2"/>
</g>
<!-- Node3 -->
<g id="node3" class="node">
<title>Node3</title>
<g id="a_node3"><a xlink:href="a01417.html" target="_top" xlink:title=" ">
<polygon fill="white" stroke="black" points="12.5,-288.5 12.5,-378.5 150.5,-378.5 150.5,-288.5 12.5,-288.5"/>
<text text-anchor="start" x="20.5" y="-366.5" font-family="Helvetica,sans-Serif" font-size="10.00">RayTracer::Plugins</text>
<text text-anchor="start" x="20.5" y="-355.5" font-family="Helvetica,sans-Serif" font-size="10.00">::PluginLoader&lt; Handler,</text>
<text text-anchor="middle" x="81.5" y="-344.5" font-family="Helvetica,sans-Serif" font-size="10.00"> Interface, Factory &gt;</text>
<polyline fill="none" stroke="black" points="12.5,-337.5 150.5,-337.5 "/>
<text text-anchor="start" x="20.5" y="-325.5" font-family="Helvetica,sans-Serif" font-size="10.00"># _directory</text>
<polyline fill="none" stroke="black" points="12.5,-318.5 150.5,-318.5 "/>
<text text-anchor="start" x="20.5" y="-306.5" font-family="Helvetica,sans-Serif" font-size="10.00">+ PluginLoader()</text>
<text text-anchor="start" x="20.5" y="-295.5" font-family="Helvetica,sans-Serif" font-size="10.00">+ load()</text>
</a>
</g>
</g>
<!-- Node3&#45;&gt;Node2 -->
<g id="edge2" class="edge">
<title>Node3&#45;&gt;Node2</title>
<path fill="none" stroke="orange" d="M81.5,-278.16C81.5,-258.99 81.5,-237.54 81.5,-218.76"/>
<polygon fill="orange" stroke="orange" points="78,-278.25 81.5,-288.25 85,-278.25 78,-278.25"/>
<text text-anchor="start" x="81.5" y="-262" font-family="Helvetica,sans-Serif" font-size="10.00"> &lt; FilterHandler, RayTracer</text>
<text text-anchor="start" x="81.5" y="-251" font-family="Helvetica,sans-Serif" font-size="10.00">::Filters::IFilter, Factories</text>
<text text-anchor="middle" x="147.5" y="-240" font-family="Helvetica,sans-Serif" font-size="10.00">::FilterFactory &gt;</text>
</g>
</g>
</svg>
