<?xml version="1.0" encoding="UTF-8" standalone="no"?>
<!DOCTYPE svg PUBLIC "-//W3C//DTD SVG 1.1//EN"
 "http://www.w3.org/Graphics/SVG/1.1/DTD/svg11.dtd">
<!-- Generated by graphviz version 2.43.0 (0)
 -->
<!-- Title: RayTracer::Images::ImagePipeLine Pages: 1 -->
<svg width="552pt" height="948pt"
 viewBox="0.00 0.00 552.00 948.00" xmlns="http://www.w3.org/2000/svg" xmlns:xlink="http://www.w3.org/1999/xlink">
<g id="graph0" class="graph" transform="scale(1 1) rotate(0) translate(4 944)">
<title>RayTracer::Images::ImagePipeLine</title>
<polygon fill="white" stroke="transparent" points="-4,4 -4,-944 548,-944 548,4 -4,4"/>
<!-- Node1 -->
<g id="node1" class="node">
<title>Node1</title>
<g id="a_node1"><a xlink:title="The ImagePipeLine class.">
<polygon fill="#bfbfbf" stroke="black" points="188,-0.5 188,-101.5 304,-101.5 304,-0.5 188,-0.5"/>
<text text-anchor="start" x="196" y="-89.5" font-family="Helvetica,sans-Serif" font-size="10.00">RayTracer::Images::</text>
<text text-anchor="middle" x="246" y="-78.5" font-family="Helvetica,sans-Serif" font-size="10.00">ImagePipeLine</text>
<polyline fill="none" stroke="black" points="188,-71.5 304,-71.5 "/>
<text text-anchor="middle" x="246" y="-59.5" font-family="Helvetica,sans-Serif" font-size="10.00"> </text>
<polyline fill="none" stroke="black" points="188,-52.5 304,-52.5 "/>
<text text-anchor="start" x="196" y="-40.5" font-family="Helvetica,sans-Serif" font-size="10.00">+ ImagePipeLine()</text>
<text text-anchor="start" x="196" y="-29.5" font-family="Helvetica,sans-Serif" font-size="10.00">+ generate()</text>
<text text-anchor="start" x="196" y="-18.5" font-family="Helvetica,sans-Serif" font-size="10.00">+ apply()</text>
<text text-anchor="start" x="196" y="-7.5" font-family="Helvetica,sans-Serif" font-size="10.00">+ ~ImagePipeLine()</text>
</a>
</g>
</g>
<!-- Node2 -->
<g id="node2" class="node">
<title>Node2</title>
<g id="a_node2"><a xlink:href="a01508.html" target="_top" xlink:title="The IDisplayable interface.">
<polygon fill="white" stroke="black" points="0,-149.5 0,-272.5 116,-272.5 116,-149.5 0,-149.5"/>
<text text-anchor="start" x="8" y="-260.5" font-family="Helvetica,sans-Serif" font-size="10.00">RayTracer::Scenes::</text>
<text text-anchor="middle" x="58" y="-249.5" font-family="Helvetica,sans-Serif" font-size="10.00">IDisplayable</text>
<polyline fill="none" stroke="black" points="0,-242.5 116,-242.5 "/>
<text text-anchor="middle" x="58" y="-230.5" font-family="Helvetica,sans-Serif" font-size="10.00"> </text>
<polyline fill="none" stroke="black" points="0,-223.5 116,-223.5 "/>
<text text-anchor="start" x="8" y="-211.5" font-family="Helvetica,sans-Serif" font-size="10.00">+ getLightList()</text>
<text text-anchor="start" x="8" y="-200.5" font-family="Helvetica,sans-Serif" font-size="10.00">+ getLightList()</text>
<text text-anchor="start" x="8" y="-189.5" font-family="Helvetica,sans-Serif" font-size="10.00">+ getPrimitiveList()</text>
<text text-anchor="start" x="8" y="-178.5" font-family="Helvetica,sans-Serif" font-size="10.00">+ getPrimitiveList()</text>
<text text-anchor="start" x="8" y="-167.5" font-family="Helvetica,sans-Serif" font-size="10.00">+ getAmbientLight()</text>
<text text-anchor="start" x="8" y="-156.5" font-family="Helvetica,sans-Serif" font-size="10.00">+ getAmbientLight()</text>
</a>
</g>
</g>
<!-- Node2&#45;&gt;Node1 -->
<g id="edge1" class="edge">
<title>Node2&#45;&gt;Node1</title>
<path fill="none" stroke="#404040" d="M105.22,-149.42C114.56,-139.06 124.68,-128.81 135,-120 147.87,-109.02 162.7,-98.65 177.24,-89.47"/>
<polygon fill="none" stroke="#404040" points="177.53,-89.29 180.54,-82.74 187.75,-83.01 184.74,-89.56 177.53,-89.29"/>
<text text-anchor="middle" x="169.5" y="-123" font-family="Helvetica,sans-Serif" font-size="10.00"> &#45;_displayable</text>
</g>
<!-- Node3 -->
<g id="node3" class="node">
<title>Node3</title>
<g id="a_node3"><a xlink:href="a01388.html" target="_top" xlink:title="The RayIterator class.">
<polygon fill="white" stroke="black" points="134.5,-166 134.5,-256 247.5,-256 247.5,-166 134.5,-166"/>
<text text-anchor="start" x="142.5" y="-244" font-family="Helvetica,sans-Serif" font-size="10.00">RayTracer::Images::</text>
<text text-anchor="middle" x="191" y="-233" font-family="Helvetica,sans-Serif" font-size="10.00">IRayIterator</text>
<polyline fill="none" stroke="black" points="134.5,-226 247.5,-226 "/>
<text text-anchor="middle" x="191" y="-214" font-family="Helvetica,sans-Serif" font-size="10.00"> </text>
<polyline fill="none" stroke="black" points="134.5,-207 247.5,-207 "/>
<text text-anchor="start" x="142.5" y="-195" font-family="Helvetica,sans-Serif" font-size="10.00">+ ~IRayIterator()</text>
<text text-anchor="start" x="142.5" y="-184" font-family="Helvetica,sans-Serif" font-size="10.00">+ begin()</text>
<text text-anchor="start" x="142.5" y="-173" font-family="Helvetica,sans-Serif" font-size="10.00">+ end()</text>
</a>
</g>
</g>
<!-- Node3&#45;&gt;Node1 -->
<g id="edge2" class="edge">
<title>Node3&#45;&gt;Node1</title>
<path fill="none" stroke="#404040" d="M199.12,-165.91C202.42,-151.11 206.72,-134.64 212,-120 212.86,-117.62 213.78,-115.22 214.74,-112.81"/>
<polygon fill="none" stroke="#404040" points="214.85,-112.58 213.53,-105.49 219.57,-101.55 220.88,-108.64 214.85,-112.58"/>
<text text-anchor="middle" x="246" y="-123" font-family="Helvetica,sans-Serif" font-size="10.00"> &#45;_rayIterrator</text>
</g>
<!-- Node4 -->
<g id="node4" class="node">
<title>Node4</title>
<g id="a_node4"><a xlink:href="a01376.html" target="_top" xlink:title="The Image class.">
<polygon fill="white" stroke="black" points="265.5,-149.5 265.5,-272.5 378.5,-272.5 378.5,-149.5 265.5,-149.5"/>
<text text-anchor="start" x="273.5" y="-260.5" font-family="Helvetica,sans-Serif" font-size="10.00">RayTracer::Images::</text>
<text text-anchor="middle" x="322" y="-249.5" font-family="Helvetica,sans-Serif" font-size="10.00">Image</text>
<polyline fill="none" stroke="black" points="265.5,-242.5 378.5,-242.5 "/>
<text text-anchor="middle" x="322" y="-230.5" font-family="Helvetica,sans-Serif" font-size="10.00"> </text>
<polyline fill="none" stroke="black" points="265.5,-223.5 378.5,-223.5 "/>
<text text-anchor="start" x="273.5" y="-211.5" font-family="Helvetica,sans-Serif" font-size="10.00">+ Image()</text>
<text text-anchor="start" x="273.5" y="-200.5" font-family="Helvetica,sans-Serif" font-size="10.00">+ convertToPPM()</text>
<text text-anchor="start" x="273.5" y="-189.5" font-family="Helvetica,sans-Serif" font-size="10.00">+ operator[]()</text>
<text text-anchor="start" x="273.5" y="-178.5" font-family="Helvetica,sans-Serif" font-size="10.00">+ operator[]()</text>
<text text-anchor="start" x="273.5" y="-167.5" font-family="Helvetica,sans-Serif" font-size="10.00">+ getSize()</text>
<text text-anchor="start" x="273.5" y="-156.5" font-family="Helvetica,sans-Serif" font-size="10.00">+ getPixelsList()</text>
</a>
</g>
</g>
<!-- Node4&#45;&gt;Node1 -->
<g id="edge3" class="edge">
<title>Node4&#45;&gt;Node1</title>
<path fill="none" stroke="#404040" d="M293.98,-149.38C289.36,-139.54 284.58,-129.47 280,-120 278.83,-117.59 277.64,-115.13 276.43,-112.65"/>
<polygon fill="none" stroke="#404040" points="276.33,-112.46 270.1,-108.84 271.04,-101.69 277.27,-105.31 276.33,-112.46"/>
<text text-anchor="middle" x="305.5" y="-123" font-family="Helvetica,sans-Serif" font-size="10.00"> &#45;_image</text>
</g>
<!-- Node5 -->
<g id="node5" class="node">
<title>Node5</title>
<g id="a_node5"><a xlink:href="a01328.html" target="_top" xlink:title="The Vector2i class.">
<polygon fill="white" stroke="black" points="182.5,-320.5 182.5,-509.5 299.5,-509.5 299.5,-320.5 182.5,-320.5"/>
<text text-anchor="start" x="190.5" y="-497.5" font-family="Helvetica,sans-Serif" font-size="10.00">RayTracer::Entities</text>
<text text-anchor="middle" x="241" y="-486.5" font-family="Helvetica,sans-Serif" font-size="10.00">::Transform::Vector2i</text>
<polyline fill="none" stroke="black" points="182.5,-479.5 299.5,-479.5 "/>
<text text-anchor="middle" x="241" y="-467.5" font-family="Helvetica,sans-Serif" font-size="10.00"> </text>
<polyline fill="none" stroke="black" points="182.5,-460.5 299.5,-460.5 "/>
<text text-anchor="start" x="190.5" y="-448.5" font-family="Helvetica,sans-Serif" font-size="10.00">+ ~Vector2i()</text>
<text text-anchor="start" x="190.5" y="-437.5" font-family="Helvetica,sans-Serif" font-size="10.00">+ Vector2i()</text>
<text text-anchor="start" x="190.5" y="-426.5" font-family="Helvetica,sans-Serif" font-size="10.00">+ Vector2i()</text>
<text text-anchor="start" x="190.5" y="-415.5" font-family="Helvetica,sans-Serif" font-size="10.00">+ Vector2i()</text>
<text text-anchor="start" x="190.5" y="-404.5" font-family="Helvetica,sans-Serif" font-size="10.00">+ Vector2i()</text>
<text text-anchor="start" x="190.5" y="-393.5" font-family="Helvetica,sans-Serif" font-size="10.00">+ operator+()</text>
<text text-anchor="start" x="190.5" y="-382.5" font-family="Helvetica,sans-Serif" font-size="10.00">+ operator&#45;()</text>
<text text-anchor="start" x="190.5" y="-371.5" font-family="Helvetica,sans-Serif" font-size="10.00">+ operator*()</text>
<text text-anchor="start" x="190.5" y="-360.5" font-family="Helvetica,sans-Serif" font-size="10.00">+ operator/()</text>
<text text-anchor="start" x="190.5" y="-349.5" font-family="Helvetica,sans-Serif" font-size="10.00">+ operator=()</text>
<text text-anchor="start" x="190.5" y="-338.5" font-family="Helvetica,sans-Serif" font-size="10.00">+ getX()</text>
<text text-anchor="start" x="190.5" y="-327.5" font-family="Helvetica,sans-Serif" font-size="10.00">+ getY()</text>
</a>
</g>
</g>
<!-- Node5&#45;&gt;Node4 -->
<g id="edge4" class="edge">
<title>Node5&#45;&gt;Node4</title>
<path fill="none" stroke="#404040" d="M278.54,-320.39C283.46,-308.11 288.44,-295.69 293.19,-283.85"/>
<polygon fill="none" stroke="#404040" points="293.19,-283.84 291.71,-276.78 297.66,-272.7 299.14,-279.76 293.19,-283.84"/>
<text text-anchor="middle" x="304" y="-294" font-family="Helvetica,sans-Serif" font-size="10.00"> &#45;_size</text>
</g>
<!-- Node6 -->
<g id="node6" class="node">
<title>Node6</title>
<g id="a_node6"><a xlink:title=" ">
<polygon fill="white" stroke="#bfbfbf" points="226.5,-656.5 226.5,-713.5 255.5,-713.5 255.5,-656.5 226.5,-656.5"/>
<text text-anchor="middle" x="241" y="-701.5" font-family="Helvetica,sans-Serif" font-size="10.00">int</text>
<polyline fill="none" stroke="#bfbfbf" points="226.5,-694.5 255.5,-694.5 "/>
<text text-anchor="middle" x="241" y="-682.5" font-family="Helvetica,sans-Serif" font-size="10.00"> </text>
<polyline fill="none" stroke="#bfbfbf" points="226.5,-675.5 255.5,-675.5 "/>
<text text-anchor="middle" x="241" y="-663.5" font-family="Helvetica,sans-Serif" font-size="10.00"> </text>
</a>
</g>
</g>
<!-- Node6&#45;&gt;Node5 -->
<g id="edge5" class="edge">
<title>Node6&#45;&gt;Node5</title>
<path fill="none" stroke="#404040" d="M241,-656.33C241,-624.58 241,-570.61 241,-521.85"/>
<polygon fill="none" stroke="#404040" points="241,-521.58 237,-515.58 241,-509.58 245,-515.58 241,-521.58"/>
<text text-anchor="middle" x="250.5" y="-542" font-family="Helvetica,sans-Serif" font-size="10.00"> &#45;_x</text>
<text text-anchor="middle" x="250.5" y="-531" font-family="Helvetica,sans-Serif" font-size="10.00">&#45;_y</text>
</g>
<!-- Node7 -->
<g id="node7" class="node">
<title>Node7</title>
<g id="a_node7"><a xlink:title=" ">
<polygon fill="white" stroke="#bfbfbf" points="318,-381 318,-449 446,-449 446,-381 318,-381"/>
<text text-anchor="start" x="326" y="-437" font-family="Helvetica,sans-Serif" font-size="10.00">std::vector&lt; RayTracer</text>
<text text-anchor="middle" x="382" y="-426" font-family="Helvetica,sans-Serif" font-size="10.00">::Images::Color &gt;</text>
<polyline fill="none" stroke="#bfbfbf" points="318,-419 446,-419 "/>
<text text-anchor="middle" x="382" y="-407" font-family="Helvetica,sans-Serif" font-size="10.00"> </text>
<polyline fill="none" stroke="#bfbfbf" points="318,-400 446,-400 "/>
<text text-anchor="middle" x="382" y="-388" font-family="Helvetica,sans-Serif" font-size="10.00"> </text>
</a>
</g>
</g>
<!-- Node7&#45;&gt;Node4 -->
<g id="edge6" class="edge">
<title>Node7&#45;&gt;Node4</title>
<path fill="none" stroke="#404040" d="M372.09,-380.64C364.36,-354.6 353.32,-317.44 343.57,-284.63"/>
<polygon fill="none" stroke="#404040" points="343.47,-284.27 337.92,-279.66 340.05,-272.76 345.59,-277.38 343.47,-284.27"/>
<text text-anchor="middle" x="368.5" y="-294" font-family="Helvetica,sans-Serif" font-size="10.00"> &#45;_pixels</text>
</g>
<!-- Node8 -->
<g id="node8" class="node">
<title>Node8</title>
<g id="a_node8"><a xlink:href="a01372.html" target="_top" xlink:title="The Color class.">
<polygon fill="white" stroke="black" points="299.5,-568.5 299.5,-801.5 412.5,-801.5 412.5,-568.5 299.5,-568.5"/>
<text text-anchor="start" x="307.5" y="-789.5" font-family="Helvetica,sans-Serif" font-size="10.00">RayTracer::Images::</text>
<text text-anchor="middle" x="356" y="-778.5" font-family="Helvetica,sans-Serif" font-size="10.00">Color</text>
<polyline fill="none" stroke="black" points="299.5,-771.5 412.5,-771.5 "/>
<text text-anchor="middle" x="356" y="-759.5" font-family="Helvetica,sans-Serif" font-size="10.00"> </text>
<polyline fill="none" stroke="black" points="299.5,-752.5 412.5,-752.5 "/>
<text text-anchor="start" x="307.5" y="-740.5" font-family="Helvetica,sans-Serif" font-size="10.00">+ ~Color()</text>
<text text-anchor="start" x="307.5" y="-729.5" font-family="Helvetica,sans-Serif" font-size="10.00">+ Color()</text>
<text text-anchor="start" x="307.5" y="-718.5" font-family="Helvetica,sans-Serif" font-size="10.00">+ Color()</text>
<text text-anchor="start" x="307.5" y="-707.5" font-family="Helvetica,sans-Serif" font-size="10.00">+ Color()</text>
<text text-anchor="start" x="307.5" y="-696.5" font-family="Helvetica,sans-Serif" font-size="10.00">+ operator+()</text>
<text text-anchor="start" x="307.5" y="-685.5" font-family="Helvetica,sans-Serif" font-size="10.00">+ operator&#45;()</text>
<text text-anchor="start" x="307.5" y="-674.5" font-family="Helvetica,sans-Serif" font-size="10.00">+ operator*()</text>
<text text-anchor="start" x="307.5" y="-663.5" font-family="Helvetica,sans-Serif" font-size="10.00">+ operator/()</text>
<text text-anchor="start" x="307.5" y="-652.5" font-family="Helvetica,sans-Serif" font-size="10.00">+ operator=()</text>
<text text-anchor="start" x="307.5" y="-641.5" font-family="Helvetica,sans-Serif" font-size="10.00">+ operator[]()</text>
<text text-anchor="start" x="307.5" y="-630.5" font-family="Helvetica,sans-Serif" font-size="10.00">+ operator[]()</text>
<text text-anchor="start" x="307.5" y="-619.5" font-family="Helvetica,sans-Serif" font-size="10.00">+ set()</text>
<text text-anchor="start" x="307.5" y="-608.5" font-family="Helvetica,sans-Serif" font-size="10.00">+ applyAlpha()</text>
<text text-anchor="start" x="307.5" y="-597.5" font-family="Helvetica,sans-Serif" font-size="10.00">+ mergeColor()</text>
<text text-anchor="start" x="307.5" y="-586.5" font-family="Helvetica,sans-Serif" font-size="10.00">+ applyDistance()</text>
<text text-anchor="start" x="307.5" y="-575.5" font-family="Helvetica,sans-Serif" font-size="10.00">+ toSfColor()</text>
</a>
</g>
</g>
<!-- Node8&#45;&gt;Node7 -->
<g id="edge7" class="edge">
<title>Node8&#45;&gt;Node7</title>
<path fill="none" stroke="#404040" d="M367.21,-568.4C370.89,-530.47 374.77,-490.53 377.63,-461.06"/>
<polygon fill="none" stroke="#404040" points="377.63,-461.05 374.23,-454.69 378.79,-449.11 382.19,-455.46 377.63,-461.05"/>
<text text-anchor="middle" x="399" y="-536.5" font-family="Helvetica,sans-Serif" font-size="10.00"> +elements</text>
</g>
<!-- Node9 -->
<g id="node9" class="node">
<title>Node9</title>
<g id="a_node9"><a xlink:title=" ">
<polygon fill="white" stroke="#bfbfbf" points="281,-882.5 281,-939.5 331,-939.5 331,-882.5 281,-882.5"/>
<text text-anchor="middle" x="306" y="-927.5" font-family="Helvetica,sans-Serif" font-size="10.00">double</text>
<polyline fill="none" stroke="#bfbfbf" points="281,-920.5 331,-920.5 "/>
<text text-anchor="middle" x="306" y="-908.5" font-family="Helvetica,sans-Serif" font-size="10.00"> </text>
<polyline fill="none" stroke="#bfbfbf" points="281,-901.5 331,-901.5 "/>
<text text-anchor="middle" x="306" y="-889.5" font-family="Helvetica,sans-Serif" font-size="10.00"> </text>
</a>
</g>
</g>
<!-- Node9&#45;&gt;Node8 -->
<g id="edge8" class="edge">
<title>Node9&#45;&gt;Node8</title>
<path fill="none" stroke="#404040" d="M312.23,-882.08C316.24,-864.13 321.76,-839.39 327.54,-813.52"/>
<polygon fill="none" stroke="#404040" points="327.59,-813.29 324.99,-806.56 330.2,-801.58 332.8,-808.31 327.59,-813.29"/>
<text text-anchor="middle" x="334.5" y="-856" font-family="Helvetica,sans-Serif" font-size="10.00"> &#45;_a</text>
<text text-anchor="middle" x="334.5" y="-845" font-family="Helvetica,sans-Serif" font-size="10.00">&#45;_b</text>
<text text-anchor="middle" x="334.5" y="-834" font-family="Helvetica,sans-Serif" font-size="10.00">&#45;_g</text>
<text text-anchor="middle" x="334.5" y="-823" font-family="Helvetica,sans-Serif" font-size="10.00">&#45;_r</text>
</g>
<!-- Node10 -->
<g id="node10" class="node">
<title>Node10</title>
<g id="a_node10"><a xlink:title=" ">
<polygon fill="white" stroke="#bfbfbf" points="349.5,-882.5 349.5,-939.5 418.5,-939.5 418.5,-882.5 349.5,-882.5"/>
<text text-anchor="middle" x="384" y="-927.5" font-family="Helvetica,sans-Serif" font-size="10.00">std::mutex</text>
<polyline fill="none" stroke="#bfbfbf" points="349.5,-920.5 418.5,-920.5 "/>
<text text-anchor="middle" x="384" y="-908.5" font-family="Helvetica,sans-Serif" font-size="10.00"> </text>
<polyline fill="none" stroke="#bfbfbf" points="349.5,-901.5 418.5,-901.5 "/>
<text text-anchor="middle" x="384" y="-889.5" font-family="Helvetica,sans-Serif" font-size="10.00"> </text>
</a>
</g>
</g>
<!-- Node10&#45;&gt;Node8 -->
<g id="edge9" class="edge">
<title>Node10&#45;&gt;Node8</title>
<path fill="none" stroke="#404040" d="M380.51,-882.08C378.27,-864.13 375.17,-839.39 371.94,-813.52"/>
<polygon fill="none" stroke="#404040" points="371.94,-813.49 367.22,-808.03 370.45,-801.58 375.16,-807.04 371.94,-813.49"/>
<text text-anchor="middle" x="399" y="-839.5" font-family="Helvetica,sans-Serif" font-size="10.00"> &#45;_mutex</text>
</g>
<!-- Node11 -->
<g id="node11" class="node">
<title>Node11</title>
<g id="a_node11"><a xlink:title=" ">
<polygon fill="white" stroke="#bfbfbf" points="430.5,-656.5 430.5,-713.5 527.5,-713.5 527.5,-656.5 430.5,-656.5"/>
<text text-anchor="middle" x="479" y="-701.5" font-family="Helvetica,sans-Serif" font-size="10.00">std::vector&lt; T &gt;</text>
<polyline fill="none" stroke="#bfbfbf" points="430.5,-694.5 527.5,-694.5 "/>
<text text-anchor="middle" x="479" y="-682.5" font-family="Helvetica,sans-Serif" font-size="10.00"> </text>
<polyline fill="none" stroke="#bfbfbf" points="430.5,-675.5 527.5,-675.5 "/>
<text text-anchor="middle" x="479" y="-663.5" font-family="Helvetica,sans-Serif" font-size="10.00"> </text>
</a>
</g>
</g>
<!-- Node11&#45;&gt;Node7 -->
<g id="edge10" class="edge">
<title>Node11&#45;&gt;Node7</title>
<path fill="none" stroke="orange" d="M469.15,-646.52C460.43,-614.64 446.82,-567.83 432,-528 421.97,-501.06 408.62,-471.39 398.23,-449.35"/>
<polygon fill="orange" stroke="orange" points="465.81,-647.58 471.81,-656.31 472.57,-645.75 465.81,-647.58"/>
<text text-anchor="start" x="439" y="-542" font-family="Helvetica,sans-Serif" font-size="10.00"> &lt; RayTracer::Images</text>
<text text-anchor="middle" x="491.5" y="-531" font-family="Helvetica,sans-Serif" font-size="10.00">::Color &gt;</text>
</g>
<!-- Node12 -->
<g id="node12" class="node">
<title>Node12</title>
<g id="a_node12"><a xlink:title=" ">
<polygon fill="white" stroke="#bfbfbf" points="464.5,-882.5 464.5,-939.5 493.5,-939.5 493.5,-882.5 464.5,-882.5"/>
<text text-anchor="middle" x="479" y="-927.5" font-family="Helvetica,sans-Serif" font-size="10.00">T</text>
<polyline fill="none" stroke="#bfbfbf" points="464.5,-920.5 493.5,-920.5 "/>
<text text-anchor="middle" x="479" y="-908.5" font-family="Helvetica,sans-Serif" font-size="10.00"> </text>
<polyline fill="none" stroke="#bfbfbf" points="464.5,-901.5 493.5,-901.5 "/>
<text text-anchor="middle" x="479" y="-889.5" font-family="Helvetica,sans-Serif" font-size="10.00"> </text>
</a>
</g>
</g>
<!-- Node12&#45;&gt;Node11 -->
<g id="edge11" class="edge">
<title>Node12&#45;&gt;Node11</title>
<path fill="none" stroke="#404040" d="M479,-882.08C479,-842.72 479,-770.69 479,-725.75"/>
<polygon fill="none" stroke="#404040" points="479,-725.56 475,-719.57 479,-713.56 483,-719.56 479,-725.56"/>
<text text-anchor="middle" x="508" y="-839.5" font-family="Helvetica,sans-Serif" font-size="10.00"> +elements</text>
</g>
<!-- Node13 -->
<g id="node13" class="node">
<title>Node13</title>
<g id="a_node13"><a xlink:href="a01516.html" target="_top" xlink:title="The SceneState interface.">
<polygon fill="white" stroke="black" points="396.5,-171.5 396.5,-250.5 507.5,-250.5 507.5,-171.5 396.5,-171.5"/>
<text text-anchor="start" x="404.5" y="-238.5" font-family="Helvetica,sans-Serif" font-size="10.00">RayTracer::Scenes::</text>
<text text-anchor="middle" x="452" y="-227.5" font-family="Helvetica,sans-Serif" font-size="10.00">ISceneState</text>
<polyline fill="none" stroke="black" points="396.5,-220.5 507.5,-220.5 "/>
<text text-anchor="middle" x="452" y="-208.5" font-family="Helvetica,sans-Serif" font-size="10.00"> </text>
<polyline fill="none" stroke="black" points="396.5,-201.5 507.5,-201.5 "/>
<text text-anchor="start" x="404.5" y="-189.5" font-family="Helvetica,sans-Serif" font-size="10.00">+ getState()</text>
<text text-anchor="start" x="404.5" y="-178.5" font-family="Helvetica,sans-Serif" font-size="10.00">+ changeState()</text>
</a>
</g>
</g>
<!-- Node13&#45;&gt;Node1 -->
<g id="edge12" class="edge">
<title>Node13&#45;&gt;Node1</title>
<path fill="none" stroke="#404040" d="M413.31,-171.21C405.17,-163.6 396.47,-155.86 388,-149 364.85,-130.27 338.18,-111.4 314.25,-95.36"/>
<polygon fill="none" stroke="#404040" points="314.17,-95.31 306.96,-95.32 304.18,-88.66 311.39,-88.65 314.17,-95.31"/>
<text text-anchor="middle" x="379.5" y="-123" font-family="Helvetica,sans-Serif" font-size="10.00"> &#45;_state</text>
</g>
</g>
</svg>
