<?xml version="1.0" encoding="UTF-8" standalone="no"?>
<!DOCTYPE svg PUBLIC "-//W3C//DTD SVG 1.1//EN"
 "http://www.w3.org/Graphics/SVG/1.1/DTD/svg11.dtd">
<!-- Generated by graphviz version 2.43.0 (0)
 -->
<!-- Title: RayTracer::PluginsExt::ChessBoard::ChessBoardCreator Pages: 1 -->
<svg width="623pt" height="904pt"
 viewBox="0.00 0.00 623.00 904.00" xmlns="http://www.w3.org/2000/svg" xmlns:xlink="http://www.w3.org/1999/xlink">
<g id="graph0" class="graph" transform="scale(1 1) rotate(0) translate(4 900)">
<title>RayTracer::PluginsExt::ChessBoard::ChessBoardCreator</title>
<polygon fill="white" stroke="transparent" points="-4,4 -4,-900 619,-900 619,4 -4,4"/>
<!-- Node1 -->
<g id="node1" class="node">
<title>Node1</title>
<g id="a_node1"><a xlink:title=" ">
<polygon fill="#bfbfbf" stroke="black" points="133,-0.5 133,-79.5 313,-79.5 313,-0.5 133,-0.5"/>
<text text-anchor="start" x="141" y="-67.5" font-family="Helvetica,sans-Serif" font-size="10.00">RayTracer::PluginsExt</text>
<text text-anchor="middle" x="223" y="-56.5" font-family="Helvetica,sans-Serif" font-size="10.00">::ChessBoard::ChessBoardCreator</text>
<polyline fill="none" stroke="black" points="133,-49.5 313,-49.5 "/>
<text text-anchor="middle" x="223" y="-37.5" font-family="Helvetica,sans-Serif" font-size="10.00"> </text>
<polyline fill="none" stroke="black" points="133,-30.5 313,-30.5 "/>
<text text-anchor="start" x="141" y="-18.5" font-family="Helvetica,sans-Serif" font-size="10.00">+ ~ChessBoardCreator()</text>
<text text-anchor="start" x="141" y="-7.5" font-family="Helvetica,sans-Serif" font-size="10.00">+ create()</text>
</a>
</g>
</g>
<!-- Node2 -->
<g id="node2" class="node">
<title>Node2</title>
<g id="a_node2"><a xlink:href="a01345.html" target="_top" xlink:title="The IMaterialCreator class.">
<polygon fill="white" stroke="black" points="130,-127.5 130,-206.5 284,-206.5 284,-127.5 130,-127.5"/>
<text text-anchor="start" x="138" y="-194.5" font-family="Helvetica,sans-Serif" font-size="10.00">RayTracer::Plugins</text>
<text text-anchor="middle" x="207" y="-183.5" font-family="Helvetica,sans-Serif" font-size="10.00">::Materials::IMaterialCreator</text>
<polyline fill="none" stroke="black" points="130,-176.5 284,-176.5 "/>
<text text-anchor="middle" x="207" y="-164.5" font-family="Helvetica,sans-Serif" font-size="10.00"> </text>
<polyline fill="none" stroke="black" points="130,-157.5 284,-157.5 "/>
<text text-anchor="start" x="138" y="-145.5" font-family="Helvetica,sans-Serif" font-size="10.00">+ ~IMaterialCreator()</text>
<text text-anchor="start" x="138" y="-134.5" font-family="Helvetica,sans-Serif" font-size="10.00">+ create()</text>
</a>
</g>
</g>
<!-- Node2&#45;&gt;Node1 -->
<g id="edge1" class="edge">
<title>Node2&#45;&gt;Node1</title>
<path fill="none" stroke="midnightblue" d="M213.24,-117.22C214.84,-104.74 216.54,-91.5 218.06,-79.61"/>
<polygon fill="none" stroke="midnightblue" points="209.73,-117.11 211.93,-127.48 216.67,-118 209.73,-117.11"/>
</g>
<!-- Node3 -->
<g id="node3" class="node">
<title>Node3</title>
<g id="a_node3"><a xlink:title=" ">
<polygon fill="white" stroke="#bfbfbf" points="302,-127.5 302,-206.5 442,-206.5 442,-127.5 302,-127.5"/>
<text text-anchor="start" x="310" y="-194.5" font-family="Helvetica,sans-Serif" font-size="10.00">std::vector&lt; RayTracer</text>
<text text-anchor="start" x="310" y="-183.5" font-family="Helvetica,sans-Serif" font-size="10.00">::PluginsExt::ChessBoard</text>
<text text-anchor="middle" x="372" y="-172.5" font-family="Helvetica,sans-Serif" font-size="10.00">::ChessBoardMaterial * &gt;</text>
<polyline fill="none" stroke="#bfbfbf" points="302,-165.5 442,-165.5 "/>
<text text-anchor="middle" x="372" y="-153.5" font-family="Helvetica,sans-Serif" font-size="10.00"> </text>
<polyline fill="none" stroke="#bfbfbf" points="302,-146.5 442,-146.5 "/>
<text text-anchor="middle" x="372" y="-134.5" font-family="Helvetica,sans-Serif" font-size="10.00"> </text>
</a>
</g>
</g>
<!-- Node3&#45;&gt;Node1 -->
<g id="edge2" class="edge">
<title>Node3&#45;&gt;Node1</title>
<path fill="none" stroke="#404040" d="M326.08,-127.48C311.07,-114.88 294.23,-100.76 278.59,-87.63"/>
<polygon fill="none" stroke="#404040" points="278.22,-87.32 271.05,-86.53 269.03,-79.61 276.19,-80.4 278.22,-87.32"/>
<text text-anchor="middle" x="331" y="-101" font-family="Helvetica,sans-Serif" font-size="10.00"> &#45;_elements</text>
</g>
<!-- Node4 -->
<g id="node4" class="node">
<title>Node4</title>
<g id="a_node4"><a xlink:href="a01505.html" target="_top" xlink:title=" ">
<polygon fill="white" stroke="black" points="190.5,-265.5 190.5,-366.5 375.5,-366.5 375.5,-265.5 190.5,-265.5"/>
<text text-anchor="start" x="198.5" y="-354.5" font-family="Helvetica,sans-Serif" font-size="10.00">RayTracer::PluginsExt</text>
<text text-anchor="middle" x="283" y="-343.5" font-family="Helvetica,sans-Serif" font-size="10.00">::ChessBoard::ChessBoardMaterial</text>
<polyline fill="none" stroke="black" points="190.5,-336.5 375.5,-336.5 "/>
<text text-anchor="middle" x="283" y="-324.5" font-family="Helvetica,sans-Serif" font-size="10.00"> </text>
<polyline fill="none" stroke="black" points="190.5,-317.5 375.5,-317.5 "/>
<text text-anchor="start" x="198.5" y="-305.5" font-family="Helvetica,sans-Serif" font-size="10.00">+ ChessBoardMaterial()</text>
<text text-anchor="start" x="198.5" y="-294.5" font-family="Helvetica,sans-Serif" font-size="10.00">+ getColor()</text>
<text text-anchor="start" x="198.5" y="-283.5" font-family="Helvetica,sans-Serif" font-size="10.00">+ setColor()</text>
<text text-anchor="start" x="198.5" y="-272.5" font-family="Helvetica,sans-Serif" font-size="10.00">+ redirectionLight()</text>
</a>
</g>
</g>
<!-- Node4&#45;&gt;Node3 -->
<g id="edge3" class="edge">
<title>Node4&#45;&gt;Node3</title>
<path fill="none" stroke="#404040" d="M313.13,-265.23C322.56,-249.67 332.94,-232.51 342.33,-217"/>
<polygon fill="none" stroke="#404040" points="342.44,-216.83 342.12,-209.62 348.65,-206.56 348.97,-213.77 342.44,-216.83"/>
<text text-anchor="middle" x="365" y="-233.5" font-family="Helvetica,sans-Serif" font-size="10.00"> +elements</text>
</g>
<!-- Node5 -->
<g id="node5" class="node">
<title>Node5</title>
<g id="a_node5"><a xlink:href="a01197.html" target="_top" xlink:title="The IMaterial class.">
<polygon fill="white" stroke="black" points="0,-546.5 0,-647.5 112,-647.5 112,-546.5 0,-546.5"/>
<text text-anchor="start" x="8" y="-635.5" font-family="Helvetica,sans-Serif" font-size="10.00">RayTracer::Entities</text>
<text text-anchor="middle" x="56" y="-624.5" font-family="Helvetica,sans-Serif" font-size="10.00">::IMaterial</text>
<polyline fill="none" stroke="black" points="0,-617.5 112,-617.5 "/>
<text text-anchor="middle" x="56" y="-605.5" font-family="Helvetica,sans-Serif" font-size="10.00"> </text>
<polyline fill="none" stroke="black" points="0,-598.5 112,-598.5 "/>
<text text-anchor="start" x="8" y="-586.5" font-family="Helvetica,sans-Serif" font-size="10.00">+ ~IMaterial()</text>
<text text-anchor="start" x="8" y="-575.5" font-family="Helvetica,sans-Serif" font-size="10.00">+ getColor()</text>
<text text-anchor="start" x="8" y="-564.5" font-family="Helvetica,sans-Serif" font-size="10.00">+ setColor()</text>
<text text-anchor="start" x="8" y="-553.5" font-family="Helvetica,sans-Serif" font-size="10.00">+ redirectionLight()</text>
</a>
</g>
</g>
<!-- Node5&#45;&gt;Node4 -->
<g id="edge4" class="edge">
<title>Node5&#45;&gt;Node4</title>
<path fill="none" stroke="midnightblue" d="M65.19,-536.45C75.09,-490.17 95.01,-426.99 134,-385 149.38,-368.43 169.58,-355.6 190.12,-345.78"/>
<polygon fill="none" stroke="midnightblue" points="61.74,-535.85 63.17,-546.35 68.6,-537.25 61.74,-535.85"/>
</g>
<!-- Node6 -->
<g id="node6" class="node">
<title>Node6</title>
<g id="a_node6"><a xlink:title=" ">
<polygon fill="white" stroke="#bfbfbf" points="258,-838.5 258,-895.5 308,-895.5 308,-838.5 258,-838.5"/>
<text text-anchor="middle" x="283" y="-883.5" font-family="Helvetica,sans-Serif" font-size="10.00">double</text>
<polyline fill="none" stroke="#bfbfbf" points="258,-876.5 308,-876.5 "/>
<text text-anchor="middle" x="283" y="-864.5" font-family="Helvetica,sans-Serif" font-size="10.00"> </text>
<polyline fill="none" stroke="#bfbfbf" points="258,-857.5 308,-857.5 "/>
<text text-anchor="middle" x="283" y="-845.5" font-family="Helvetica,sans-Serif" font-size="10.00"> </text>
</a>
</g>
</g>
<!-- Node6&#45;&gt;Node4 -->
<g id="edge5" class="edge">
<title>Node6&#45;&gt;Node4</title>
<path fill="none" stroke="#404040" d="M257.89,-853.29C227.47,-836.3 177.71,-803.02 157,-758 127.1,-692.99 128.68,-501.71 157,-436 166.93,-412.97 183.75,-392.32 201.92,-374.94"/>
<polygon fill="none" stroke="#404040" points="202.09,-374.79 203.81,-367.78 210.93,-366.68 209.21,-373.68 202.09,-374.79"/>
<text text-anchor="middle" x="186" y="-600" font-family="Helvetica,sans-Serif" font-size="10.00"> &#45;_shininess</text>
<text text-anchor="middle" x="186" y="-589" font-family="Helvetica,sans-Serif" font-size="10.00">&#45;_size</text>
</g>
<!-- Node7 -->
<g id="node7" class="node">
<title>Node7</title>
<g id="a_node7"><a xlink:href="a01217.html" target="_top" xlink:title="The Vector3f class.">
<polygon fill="white" stroke="black" points="224,-436.5 224,-757.5 342,-757.5 342,-436.5 224,-436.5"/>
<text text-anchor="start" x="232" y="-745.5" font-family="Helvetica,sans-Serif" font-size="10.00">RayTracer::Entities</text>
<text text-anchor="middle" x="283" y="-734.5" font-family="Helvetica,sans-Serif" font-size="10.00">::Transform::Vector3f</text>
<polyline fill="none" stroke="black" points="224,-727.5 342,-727.5 "/>
<text text-anchor="middle" x="283" y="-715.5" font-family="Helvetica,sans-Serif" font-size="10.00"> </text>
<polyline fill="none" stroke="black" points="224,-708.5 342,-708.5 "/>
<text text-anchor="start" x="232" y="-696.5" font-family="Helvetica,sans-Serif" font-size="10.00">+ ~Vector3f()</text>
<text text-anchor="start" x="232" y="-685.5" font-family="Helvetica,sans-Serif" font-size="10.00">+ Vector3f()</text>
<text text-anchor="start" x="232" y="-674.5" font-family="Helvetica,sans-Serif" font-size="10.00">+ Vector3f()</text>
<text text-anchor="start" x="232" y="-663.5" font-family="Helvetica,sans-Serif" font-size="10.00">+ Vector3f()</text>
<text text-anchor="start" x="232" y="-652.5" font-family="Helvetica,sans-Serif" font-size="10.00">+ Vector3f()</text>
<text text-anchor="start" x="232" y="-641.5" font-family="Helvetica,sans-Serif" font-size="10.00">+ operator+()</text>
<text text-anchor="start" x="232" y="-630.5" font-family="Helvetica,sans-Serif" font-size="10.00">+ operator&#45;()</text>
<text text-anchor="start" x="232" y="-619.5" font-family="Helvetica,sans-Serif" font-size="10.00">+ operator*()</text>
<text text-anchor="start" x="232" y="-608.5" font-family="Helvetica,sans-Serif" font-size="10.00">+ operator/()</text>
<text text-anchor="start" x="232" y="-597.5" font-family="Helvetica,sans-Serif" font-size="10.00">+ operator=()</text>
<text text-anchor="start" x="232" y="-586.5" font-family="Helvetica,sans-Serif" font-size="10.00">+ getX()</text>
<text text-anchor="start" x="232" y="-575.5" font-family="Helvetica,sans-Serif" font-size="10.00">+ getY()</text>
<text text-anchor="start" x="232" y="-564.5" font-family="Helvetica,sans-Serif" font-size="10.00">+ getZ()</text>
<text text-anchor="start" x="232" y="-553.5" font-family="Helvetica,sans-Serif" font-size="10.00">+ getNorm()</text>
<text text-anchor="start" x="232" y="-542.5" font-family="Helvetica,sans-Serif" font-size="10.00">+ getNormalized()</text>
<text text-anchor="start" x="232" y="-531.5" font-family="Helvetica,sans-Serif" font-size="10.00">+ dot()</text>
<text text-anchor="start" x="232" y="-520.5" font-family="Helvetica,sans-Serif" font-size="10.00">+ getDistance()</text>
<text text-anchor="start" x="232" y="-509.5" font-family="Helvetica,sans-Serif" font-size="10.00">+ toDegrees()</text>
<text text-anchor="start" x="232" y="-498.5" font-family="Helvetica,sans-Serif" font-size="10.00">+ toRadians()</text>
<text text-anchor="start" x="232" y="-487.5" font-family="Helvetica,sans-Serif" font-size="10.00">+ rotateVector()</text>
<text text-anchor="start" x="232" y="-476.5" font-family="Helvetica,sans-Serif" font-size="10.00">+ getAngle()</text>
<text text-anchor="start" x="232" y="-465.5" font-family="Helvetica,sans-Serif" font-size="10.00">+ rotateX()</text>
<text text-anchor="start" x="232" y="-454.5" font-family="Helvetica,sans-Serif" font-size="10.00">+ rotateY()</text>
<text text-anchor="start" x="232" y="-443.5" font-family="Helvetica,sans-Serif" font-size="10.00">+ rotateZ()</text>
</a>
</g>
</g>
<!-- Node6&#45;&gt;Node7 -->
<g id="edge7" class="edge">
<title>Node6&#45;&gt;Node7</title>
<path fill="none" stroke="#404040" d="M283,-838.33C283,-820.76 283,-796.38 283,-769.85"/>
<polygon fill="none" stroke="#404040" points="283,-769.52 279,-763.52 283,-757.52 287,-763.52 283,-769.52"/>
<text text-anchor="middle" x="292.5" y="-806.5" font-family="Helvetica,sans-Serif" font-size="10.00"> &#45;_x</text>
<text text-anchor="middle" x="292.5" y="-795.5" font-family="Helvetica,sans-Serif" font-size="10.00">&#45;_y</text>
<text text-anchor="middle" x="292.5" y="-784.5" font-family="Helvetica,sans-Serif" font-size="10.00">&#45;_z</text>
</g>
<!-- Node8 -->
<g id="node8" class="node">
<title>Node8</title>
<g id="a_node8"><a xlink:href="a01257.html" target="_top" xlink:title="The Color class.">
<polygon fill="white" stroke="black" points="360.5,-486 360.5,-708 473.5,-708 473.5,-486 360.5,-486"/>
<text text-anchor="start" x="368.5" y="-696" font-family="Helvetica,sans-Serif" font-size="10.00">RayTracer::Images::</text>
<text text-anchor="middle" x="417" y="-685" font-family="Helvetica,sans-Serif" font-size="10.00">Color</text>
<polyline fill="none" stroke="black" points="360.5,-678 473.5,-678 "/>
<text text-anchor="middle" x="417" y="-666" font-family="Helvetica,sans-Serif" font-size="10.00"> </text>
<polyline fill="none" stroke="black" points="360.5,-659 473.5,-659 "/>
<text text-anchor="start" x="368.5" y="-647" font-family="Helvetica,sans-Serif" font-size="10.00">+ ~Color()</text>
<text text-anchor="start" x="368.5" y="-636" font-family="Helvetica,sans-Serif" font-size="10.00">+ Color()</text>
<text text-anchor="start" x="368.5" y="-625" font-family="Helvetica,sans-Serif" font-size="10.00">+ Color()</text>
<text text-anchor="start" x="368.5" y="-614" font-family="Helvetica,sans-Serif" font-size="10.00">+ Color()</text>
<text text-anchor="start" x="368.5" y="-603" font-family="Helvetica,sans-Serif" font-size="10.00">+ operator+()</text>
<text text-anchor="start" x="368.5" y="-592" font-family="Helvetica,sans-Serif" font-size="10.00">+ operator&#45;()</text>
<text text-anchor="start" x="368.5" y="-581" font-family="Helvetica,sans-Serif" font-size="10.00">+ operator*()</text>
<text text-anchor="start" x="368.5" y="-570" font-family="Helvetica,sans-Serif" font-size="10.00">+ operator/()</text>
<text text-anchor="start" x="368.5" y="-559" font-family="Helvetica,sans-Serif" font-size="10.00">+ operator=()</text>
<text text-anchor="start" x="368.5" y="-548" font-family="Helvetica,sans-Serif" font-size="10.00">+ operator[]()</text>
<text text-anchor="start" x="368.5" y="-537" font-family="Helvetica,sans-Serif" font-size="10.00">+ operator[]()</text>
<text text-anchor="start" x="368.5" y="-526" font-family="Helvetica,sans-Serif" font-size="10.00">+ set()</text>
<text text-anchor="start" x="368.5" y="-515" font-family="Helvetica,sans-Serif" font-size="10.00">+ applyAlpha()</text>
<text text-anchor="start" x="368.5" y="-504" font-family="Helvetica,sans-Serif" font-size="10.00">+ mergeColor()</text>
<text text-anchor="start" x="368.5" y="-493" font-family="Helvetica,sans-Serif" font-size="10.00">+ applyDistance()</text>
</a>
</g>
</g>
<!-- Node6&#45;&gt;Node8 -->
<g id="edge9" class="edge">
<title>Node6&#45;&gt;Node8</title>
<path fill="none" stroke="#404040" d="M302.25,-838.35C316.68,-816.98 336.36,-786.35 351,-758 357.41,-745.59 363.66,-732.41 369.61,-719.15"/>
<polygon fill="none" stroke="#404040" points="369.69,-718.99 368.45,-711.88 374.54,-708.01 375.77,-715.11 369.69,-718.99"/>
<text text-anchor="middle" x="351.5" y="-812" font-family="Helvetica,sans-Serif" font-size="10.00"> &#45;_a</text>
<text text-anchor="middle" x="351.5" y="-801" font-family="Helvetica,sans-Serif" font-size="10.00">&#45;_b</text>
<text text-anchor="middle" x="351.5" y="-790" font-family="Helvetica,sans-Serif" font-size="10.00">&#45;_g</text>
<text text-anchor="middle" x="351.5" y="-779" font-family="Helvetica,sans-Serif" font-size="10.00">&#45;_r</text>
</g>
<!-- Node7&#45;&gt;Node4 -->
<g id="edge6" class="edge">
<title>Node7&#45;&gt;Node4</title>
<path fill="none" stroke="#404040" d="M283,-436.13C283,-415.85 283,-396.16 283,-378.81"/>
<polygon fill="none" stroke="#404040" points="283,-378.63 279,-372.63 283,-366.63 287,-372.63 283,-378.63"/>
<text text-anchor="middle" x="309.5" y="-410" font-family="Helvetica,sans-Serif" font-size="10.00"> &#45;_ambient</text>
<text text-anchor="middle" x="309.5" y="-399" font-family="Helvetica,sans-Serif" font-size="10.00">&#45;_diffuse</text>
<text text-anchor="middle" x="309.5" y="-388" font-family="Helvetica,sans-Serif" font-size="10.00">&#45;_specular</text>
</g>
<!-- Node8&#45;&gt;Node4 -->
<g id="edge8" class="edge">
<title>Node8&#45;&gt;Node4</title>
<path fill="none" stroke="#404040" d="M384.97,-485.96C373.1,-452.45 358.04,-416.23 340,-385 338.39,-382.22 336.67,-379.44 334.86,-376.68"/>
<polygon fill="none" stroke="#404040" points="334.85,-376.66 328.13,-374.02 327.99,-366.82 334.7,-369.45 334.85,-376.66"/>
<text text-anchor="middle" x="379" y="-404.5" font-family="Helvetica,sans-Serif" font-size="10.00"> &#45;_impair</text>
<text text-anchor="middle" x="379" y="-393.5" font-family="Helvetica,sans-Serif" font-size="10.00">&#45;_pair</text>
</g>
<!-- Node9 -->
<g id="node9" class="node">
<title>Node9</title>
<g id="a_node9"><a xlink:title=" ">
<polygon fill="white" stroke="#bfbfbf" points="382.5,-838.5 382.5,-895.5 451.5,-895.5 451.5,-838.5 382.5,-838.5"/>
<text text-anchor="middle" x="417" y="-883.5" font-family="Helvetica,sans-Serif" font-size="10.00">std::mutex</text>
<polyline fill="none" stroke="#bfbfbf" points="382.5,-876.5 451.5,-876.5 "/>
<text text-anchor="middle" x="417" y="-864.5" font-family="Helvetica,sans-Serif" font-size="10.00"> </text>
<polyline fill="none" stroke="#bfbfbf" points="382.5,-857.5 451.5,-857.5 "/>
<text text-anchor="middle" x="417" y="-845.5" font-family="Helvetica,sans-Serif" font-size="10.00"> </text>
</a>
</g>
</g>
<!-- Node9&#45;&gt;Node8 -->
<g id="edge10" class="edge">
<title>Node9&#45;&gt;Node8</title>
<path fill="none" stroke="#404040" d="M417,-838.33C417,-810.09 417,-764.27 417,-720.17"/>
<polygon fill="none" stroke="#404040" points="417,-720.1 413,-714.1 417,-708.1 421,-714.1 417,-720.1"/>
<text text-anchor="middle" x="439" y="-795.5" font-family="Helvetica,sans-Serif" font-size="10.00"> &#45;_mutex</text>
</g>
<!-- Node10 -->
<g id="node10" class="node">
<title>Node10</title>
<g id="a_node10"><a xlink:title=" ">
<polygon fill="white" stroke="#bfbfbf" points="425.5,-287.5 425.5,-344.5 522.5,-344.5 522.5,-287.5 425.5,-287.5"/>
<text text-anchor="middle" x="474" y="-332.5" font-family="Helvetica,sans-Serif" font-size="10.00">std::vector&lt; T &gt;</text>
<polyline fill="none" stroke="#bfbfbf" points="425.5,-325.5 522.5,-325.5 "/>
<text text-anchor="middle" x="474" y="-313.5" font-family="Helvetica,sans-Serif" font-size="10.00"> </text>
<polyline fill="none" stroke="#bfbfbf" points="425.5,-306.5 522.5,-306.5 "/>
<text text-anchor="middle" x="474" y="-294.5" font-family="Helvetica,sans-Serif" font-size="10.00"> </text>
</a>
</g>
</g>
<!-- Node10&#45;&gt;Node3 -->
<g id="edge11" class="edge">
<title>Node10&#45;&gt;Node3</title>
<path fill="none" stroke="orange" d="M448.99,-278.96C433.77,-257.03 414.33,-229.01 398.8,-206.62"/>
<polygon fill="orange" stroke="orange" points="446.24,-281.13 454.81,-287.35 451.99,-277.14 446.24,-281.13"/>
<text text-anchor="start" x="427" y="-239" font-family="Helvetica,sans-Serif" font-size="10.00"> &lt; RayTracer::PluginsExt</text>
<text text-anchor="middle" x="521" y="-228" font-family="Helvetica,sans-Serif" font-size="10.00">::ChessBoard::ChessBoardMaterial * &gt;</text>
</g>
<!-- Node11 -->
<g id="node11" class="node">
<title>Node11</title>
<g id="a_node11"><a xlink:title=" ">
<polygon fill="white" stroke="#bfbfbf" points="491.5,-568.5 491.5,-625.5 520.5,-625.5 520.5,-568.5 491.5,-568.5"/>
<text text-anchor="middle" x="506" y="-613.5" font-family="Helvetica,sans-Serif" font-size="10.00">T</text>
<polyline fill="none" stroke="#bfbfbf" points="491.5,-606.5 520.5,-606.5 "/>
<text text-anchor="middle" x="506" y="-594.5" font-family="Helvetica,sans-Serif" font-size="10.00"> </text>
<polyline fill="none" stroke="#bfbfbf" points="491.5,-587.5 520.5,-587.5 "/>
<text text-anchor="middle" x="506" y="-575.5" font-family="Helvetica,sans-Serif" font-size="10.00"> </text>
</a>
</g>
</g>
<!-- Node11&#45;&gt;Node10 -->
<g id="edge12" class="edge">
<title>Node11&#45;&gt;Node10</title>
<path fill="none" stroke="#404040" d="M502.84,-568.48C497.16,-518.89 485.17,-414.35 478.58,-356.9"/>
<polygon fill="none" stroke="#404040" points="478.55,-356.64 473.89,-351.14 477.18,-344.72 481.84,-350.23 478.55,-356.64"/>
<text text-anchor="middle" x="514" y="-399" font-family="Helvetica,sans-Serif" font-size="10.00"> +elements</text>
</g>
</g>
</svg>
