<?xml version="1.0" encoding="UTF-8" standalone="no"?>
<!DOCTYPE svg PUBLIC "-//W3C//DTD SVG 1.1//EN"
 "http://www.w3.org/Graphics/SVG/1.1/DTD/svg11.dtd">
<!-- Generated by graphviz version 2.43.0 (0)
 -->
<!-- Title: RayTracer::Plugins::Entities::IEntityCreator Pages: 1 -->
<svg width="2780pt" height="215pt"
 viewBox="0.00 0.00 2780.00 215.00" xmlns="http://www.w3.org/2000/svg" xmlns:xlink="http://www.w3.org/1999/xlink">
<g id="graph0" class="graph" transform="scale(1 1) rotate(0) translate(4 211)">
<title>RayTracer::Plugins::Entities::IEntityCreator</title>
<polygon fill="white" stroke="transparent" points="-4,4 -4,-211 2776,-211 2776,4 -4,4"/>
<!-- Node1 -->
<g id="node1" class="node">
<title>Node1</title>
<g id="a_node1"><a xlink:title="The IEntityCreator.">
<polygon fill="#bfbfbf" stroke="black" points="1356,-127.5 1356,-206.5 1489,-206.5 1489,-127.5 1356,-127.5"/>
<text text-anchor="start" x="1364" y="-194.5" font-family="Helvetica,sans-Serif" font-size="10.00">RayTracer::Plugins</text>
<text text-anchor="middle" x="1422.5" y="-183.5" font-family="Helvetica,sans-Serif" font-size="10.00">::Entities::IEntityCreator</text>
<polyline fill="none" stroke="black" points="1356,-176.5 1489,-176.5 "/>
<text text-anchor="middle" x="1422.5" y="-164.5" font-family="Helvetica,sans-Serif" font-size="10.00"> </text>
<polyline fill="none" stroke="black" points="1356,-157.5 1489,-157.5 "/>
<text text-anchor="start" x="1364" y="-145.5" font-family="Helvetica,sans-Serif" font-size="10.00">+ ~IEntityCreator()</text>
<text text-anchor="start" x="1364" y="-134.5" font-family="Helvetica,sans-Serif" font-size="10.00">+ create()</text>
</a>
</g>
</g>
<!-- Node2 -->
<g id="node2" class="node">
<title>Node2</title>
<g id="a_node2"><a xlink:href="a01570.html" target="_top" xlink:title=" ">
<polygon fill="white" stroke="black" points="0,-0.5 0,-90.5 159,-90.5 159,-0.5 0,-0.5"/>
<text text-anchor="start" x="8" y="-78.5" font-family="Helvetica,sans-Serif" font-size="10.00">RayTracer::PluginsExt</text>
<text text-anchor="start" x="8" y="-67.5" font-family="Helvetica,sans-Serif" font-size="10.00">::AmbientLight::AmbientLight</text>
<text text-anchor="middle" x="79.5" y="-56.5" font-family="Helvetica,sans-Serif" font-size="10.00">Creator</text>
<polyline fill="none" stroke="black" points="0,-49.5 159,-49.5 "/>
<text text-anchor="start" x="8" y="-37.5" font-family="Helvetica,sans-Serif" font-size="10.00">&#45; _elements</text>
<polyline fill="none" stroke="black" points="0,-30.5 159,-30.5 "/>
<text text-anchor="start" x="8" y="-18.5" font-family="Helvetica,sans-Serif" font-size="10.00">+ create()</text>
<text text-anchor="start" x="8" y="-7.5" font-family="Helvetica,sans-Serif" font-size="10.00">+ ~AmbientLightCreator()</text>
</a>
</g>
</g>
<!-- Node1&#45;&gt;Node2 -->
<g id="edge1" class="edge">
<title>Node1&#45;&gt;Node2</title>
<path fill="none" stroke="midnightblue" d="M1345.39,-165.48C1108.09,-163.23 391.35,-151.49 167.5,-91 164.69,-90.24 161.87,-89.39 159.04,-88.45"/>
<polygon fill="none" stroke="midnightblue" points="1345.62,-168.98 1355.65,-165.57 1345.68,-161.98 1345.62,-168.98"/>
</g>
<!-- Node3 -->
<g id="node3" class="node">
<title>Node3</title>
<g id="a_node3"><a xlink:href="a01594.html" target="_top" xlink:title=" ">
<polygon fill="white" stroke="black" points="177,-6 177,-85 318,-85 318,-6 177,-6"/>
<text text-anchor="start" x="185" y="-73" font-family="Helvetica,sans-Serif" font-size="10.00">RayTracer::PluginsExt</text>
<text text-anchor="middle" x="247.5" y="-62" font-family="Helvetica,sans-Serif" font-size="10.00">::Camera::CameraCreator</text>
<polyline fill="none" stroke="black" points="177,-55 318,-55 "/>
<text text-anchor="start" x="185" y="-43" font-family="Helvetica,sans-Serif" font-size="10.00">&#45; _elements</text>
<polyline fill="none" stroke="black" points="177,-36 318,-36 "/>
<text text-anchor="start" x="185" y="-24" font-family="Helvetica,sans-Serif" font-size="10.00">+ ~CameraCreator()</text>
<text text-anchor="start" x="185" y="-13" font-family="Helvetica,sans-Serif" font-size="10.00">+ create()</text>
</a>
</g>
</g>
<!-- Node1&#45;&gt;Node3 -->
<g id="edge2" class="edge">
<title>Node1&#45;&gt;Node3</title>
<path fill="none" stroke="midnightblue" d="M1345.63,-165.08C1129.32,-161.8 518.72,-147.65 327.5,-91 322.01,-89.37 316.49,-87.33 311.04,-85.01"/>
<polygon fill="none" stroke="midnightblue" points="1345.89,-168.58 1355.94,-165.23 1345.99,-161.58 1345.89,-168.58"/>
</g>
<!-- Node4 -->
<g id="node4" class="node">
<title>Node4</title>
<g id="a_node4"><a xlink:href="a01602.html" target="_top" xlink:title=" ">
<polygon fill="white" stroke="black" points="336.5,-0.5 336.5,-90.5 488.5,-90.5 488.5,-0.5 336.5,-0.5"/>
<text text-anchor="start" x="344.5" y="-78.5" font-family="Helvetica,sans-Serif" font-size="10.00">RayTracer::PluginsExt</text>
<text text-anchor="start" x="344.5" y="-67.5" font-family="Helvetica,sans-Serif" font-size="10.00">::Camera::Clustered::</text>
<text text-anchor="middle" x="412.5" y="-56.5" font-family="Helvetica,sans-Serif" font-size="10.00">CameraClusterCreator</text>
<polyline fill="none" stroke="black" points="336.5,-49.5 488.5,-49.5 "/>
<text text-anchor="start" x="344.5" y="-37.5" font-family="Helvetica,sans-Serif" font-size="10.00">&#45; _elements</text>
<polyline fill="none" stroke="black" points="336.5,-30.5 488.5,-30.5 "/>
<text text-anchor="start" x="344.5" y="-18.5" font-family="Helvetica,sans-Serif" font-size="10.00">+ ~CameraClusterCreator()</text>
<text text-anchor="start" x="344.5" y="-7.5" font-family="Helvetica,sans-Serif" font-size="10.00">+ create()</text>
</a>
</g>
</g>
<!-- Node1&#45;&gt;Node4 -->
<g id="edge3" class="edge">
<title>Node1&#45;&gt;Node4</title>
<path fill="none" stroke="midnightblue" d="M1345.76,-163.72C1153.66,-157.37 656.11,-136.88 497.5,-91 494.62,-90.17 491.72,-89.23 488.83,-88.21"/>
<polygon fill="none" stroke="midnightblue" points="1345.67,-167.22 1355.78,-164.04 1345.9,-160.22 1345.67,-167.22"/>
</g>
<!-- Node5 -->
<g id="node5" class="node">
<title>Node5</title>
<g id="a_node5"><a xlink:href="a01618.html" target="_top" xlink:title=" ">
<polygon fill="white" stroke="black" points="507,-0.5 507,-90.5 662,-90.5 662,-0.5 507,-0.5"/>
<text text-anchor="start" x="515" y="-78.5" font-family="Helvetica,sans-Serif" font-size="10.00">RayTracer::PluginsExt</text>
<text text-anchor="start" x="515" y="-67.5" font-family="Helvetica,sans-Serif" font-size="10.00">::Camera::FullCustom</text>
<text text-anchor="middle" x="584.5" y="-56.5" font-family="Helvetica,sans-Serif" font-size="10.00">::CameraCustomCreator</text>
<polyline fill="none" stroke="black" points="507,-49.5 662,-49.5 "/>
<text text-anchor="start" x="515" y="-37.5" font-family="Helvetica,sans-Serif" font-size="10.00">&#45; _elements</text>
<polyline fill="none" stroke="black" points="507,-30.5 662,-30.5 "/>
<text text-anchor="start" x="515" y="-18.5" font-family="Helvetica,sans-Serif" font-size="10.00">+ ~CameraCustomCreator()</text>
<text text-anchor="start" x="515" y="-7.5" font-family="Helvetica,sans-Serif" font-size="10.00">+ create()</text>
</a>
</g>
</g>
<!-- Node1&#45;&gt;Node5 -->
<g id="edge4" class="edge">
<title>Node1&#45;&gt;Node5</title>
<path fill="none" stroke="midnightblue" d="M1345.89,-161.97C1180.84,-152.7 796.55,-127.79 671.5,-91 668.41,-90.09 665.3,-89.07 662.18,-87.96"/>
<polygon fill="none" stroke="midnightblue" points="1345.78,-165.47 1355.96,-162.53 1346.17,-158.48 1345.78,-165.47"/>
</g>
<!-- Node6 -->
<g id="node6" class="node">
<title>Node6</title>
<g id="a_node6"><a xlink:href="a01642.html" target="_top" xlink:title=" ">
<polygon fill="white" stroke="black" points="680.5,-6 680.5,-85 802.5,-85 802.5,-6 680.5,-6"/>
<text text-anchor="start" x="688.5" y="-73" font-family="Helvetica,sans-Serif" font-size="10.00">RayTracer::PluginsExt</text>
<text text-anchor="middle" x="741.5" y="-62" font-family="Helvetica,sans-Serif" font-size="10.00">::Cone::ConeCreator</text>
<polyline fill="none" stroke="black" points="680.5,-55 802.5,-55 "/>
<text text-anchor="start" x="688.5" y="-43" font-family="Helvetica,sans-Serif" font-size="10.00">&#45; _elements</text>
<polyline fill="none" stroke="black" points="680.5,-36 802.5,-36 "/>
<text text-anchor="start" x="688.5" y="-24" font-family="Helvetica,sans-Serif" font-size="10.00">+ ~ConeCreator()</text>
<text text-anchor="start" x="688.5" y="-13" font-family="Helvetica,sans-Serif" font-size="10.00">+ create()</text>
</a>
</g>
</g>
<!-- Node1&#45;&gt;Node6 -->
<g id="edge5" class="edge">
<title>Node1&#45;&gt;Node6</title>
<path fill="none" stroke="midnightblue" d="M1345.56,-160.8C1204.06,-150.55 908.18,-125.66 811.5,-91 806.89,-89.35 802.27,-87.35 797.73,-85.13"/>
<polygon fill="none" stroke="midnightblue" points="1345.66,-164.32 1355.89,-161.55 1346.17,-157.34 1345.66,-164.32"/>
</g>
<!-- Node7 -->
<g id="node7" class="node">
<title>Node7</title>
<g id="a_node7"><a xlink:href="a01650.html" target="_top" xlink:title=" ">
<polygon fill="white" stroke="black" points="820.5,-6 820.5,-85 966.5,-85 966.5,-6 820.5,-6"/>
<text text-anchor="start" x="828.5" y="-73" font-family="Helvetica,sans-Serif" font-size="10.00">RayTracer::PluginsExt</text>
<text text-anchor="middle" x="893.5" y="-62" font-family="Helvetica,sans-Serif" font-size="10.00">::Cylinder::CylinderCreator</text>
<polyline fill="none" stroke="black" points="820.5,-55 966.5,-55 "/>
<text text-anchor="start" x="828.5" y="-43" font-family="Helvetica,sans-Serif" font-size="10.00">&#45; _elements</text>
<polyline fill="none" stroke="black" points="820.5,-36 966.5,-36 "/>
<text text-anchor="start" x="828.5" y="-24" font-family="Helvetica,sans-Serif" font-size="10.00">+ ~CylinderCreator()</text>
<text text-anchor="start" x="828.5" y="-13" font-family="Helvetica,sans-Serif" font-size="10.00">+ create()</text>
</a>
</g>
</g>
<!-- Node1&#45;&gt;Node7 -->
<g id="edge6" class="edge">
<title>Node1&#45;&gt;Node7</title>
<path fill="none" stroke="midnightblue" d="M1345.48,-160.84C1254.86,-153.01 1100.87,-134.18 975.5,-91 970.45,-89.26 965.33,-87.23 960.26,-85.01"/>
<polygon fill="none" stroke="midnightblue" points="1345.41,-164.35 1355.67,-161.7 1346,-157.37 1345.41,-164.35"/>
</g>
<!-- Node8 -->
<g id="node8" class="node">
<title>Node8</title>
<g id="a_node8"><a xlink:href="a01658.html" target="_top" xlink:title=" ">
<polygon fill="white" stroke="black" points="984.5,-6 984.5,-85 1106.5,-85 1106.5,-6 984.5,-6"/>
<text text-anchor="start" x="992.5" y="-73" font-family="Helvetica,sans-Serif" font-size="10.00">RayTracer::PluginsExt</text>
<text text-anchor="middle" x="1045.5" y="-62" font-family="Helvetica,sans-Serif" font-size="10.00">::Disk::DiskCreator</text>
<polyline fill="none" stroke="black" points="984.5,-55 1106.5,-55 "/>
<text text-anchor="start" x="992.5" y="-43" font-family="Helvetica,sans-Serif" font-size="10.00">&#45; _elements</text>
<polyline fill="none" stroke="black" points="984.5,-36 1106.5,-36 "/>
<text text-anchor="start" x="992.5" y="-24" font-family="Helvetica,sans-Serif" font-size="10.00">+ ~DiskCreator()</text>
<text text-anchor="start" x="992.5" y="-13" font-family="Helvetica,sans-Serif" font-size="10.00">+ create()</text>
</a>
</g>
</g>
<!-- Node1&#45;&gt;Node8 -->
<g id="edge7" class="edge">
<title>Node1&#45;&gt;Node8</title>
<path fill="none" stroke="midnightblue" d="M1345.88,-154.45C1282.4,-143.21 1190.72,-123.06 1115.5,-91 1111.39,-89.25 1107.25,-87.27 1103.15,-85.14"/>
<polygon fill="none" stroke="midnightblue" points="1345.37,-157.92 1355.83,-156.18 1346.57,-151.02 1345.37,-157.92"/>
</g>
<!-- Node9 -->
<g id="node9" class="node">
<title>Node9</title>
<g id="a_node9"><a xlink:href="a01666.html" target="_top" xlink:title=" ">
<polygon fill="white" stroke="black" points="1124.5,-6 1124.5,-85 1312.5,-85 1312.5,-6 1124.5,-6"/>
<text text-anchor="start" x="1132.5" y="-73" font-family="Helvetica,sans-Serif" font-size="10.00">RayTracer::PluginsExt</text>
<text text-anchor="middle" x="1218.5" y="-62" font-family="Helvetica,sans-Serif" font-size="10.00">::LimitedCone::LimitedConeCreator</text>
<polyline fill="none" stroke="black" points="1124.5,-55 1312.5,-55 "/>
<text text-anchor="start" x="1132.5" y="-43" font-family="Helvetica,sans-Serif" font-size="10.00">&#45; _elements</text>
<polyline fill="none" stroke="black" points="1124.5,-36 1312.5,-36 "/>
<text text-anchor="start" x="1132.5" y="-24" font-family="Helvetica,sans-Serif" font-size="10.00">+ ~LimitedConeCreator()</text>
<text text-anchor="start" x="1132.5" y="-13" font-family="Helvetica,sans-Serif" font-size="10.00">+ create()</text>
</a>
</g>
</g>
<!-- Node1&#45;&gt;Node9 -->
<g id="edge8" class="edge">
<title>Node1&#45;&gt;Node9</title>
<path fill="none" stroke="midnightblue" d="M1347.74,-122.21C1326.93,-110.01 1304.48,-96.86 1284.22,-85"/>
<polygon fill="none" stroke="midnightblue" points="1346.15,-125.33 1356.55,-127.37 1349.69,-119.29 1346.15,-125.33"/>
</g>
<!-- Node10 -->
<g id="node10" class="node">
<title>Node10</title>
<g id="a_node10"><a xlink:href="a01674.html" target="_top" xlink:title=" ">
<polygon fill="white" stroke="black" points="1331,-0.5 1331,-90.5 1514,-90.5 1514,-0.5 1331,-0.5"/>
<text text-anchor="start" x="1339" y="-78.5" font-family="Helvetica,sans-Serif" font-size="10.00">RayTracer::PluginsExt</text>
<text text-anchor="start" x="1339" y="-67.5" font-family="Helvetica,sans-Serif" font-size="10.00">::LimitedCylinder::LimitedCylinder</text>
<text text-anchor="middle" x="1422.5" y="-56.5" font-family="Helvetica,sans-Serif" font-size="10.00">Creator</text>
<polyline fill="none" stroke="black" points="1331,-49.5 1514,-49.5 "/>
<text text-anchor="start" x="1339" y="-37.5" font-family="Helvetica,sans-Serif" font-size="10.00">&#45; _elements</text>
<polyline fill="none" stroke="black" points="1331,-30.5 1514,-30.5 "/>
<text text-anchor="start" x="1339" y="-18.5" font-family="Helvetica,sans-Serif" font-size="10.00">+ ~LimitedCylinderCreator()</text>
<text text-anchor="start" x="1339" y="-7.5" font-family="Helvetica,sans-Serif" font-size="10.00">+ create()</text>
</a>
</g>
</g>
<!-- Node1&#45;&gt;Node10 -->
<g id="edge9" class="edge">
<title>Node1&#45;&gt;Node10</title>
<path fill="none" stroke="midnightblue" d="M1422.5,-117.19C1422.5,-108.49 1422.5,-99.48 1422.5,-90.91"/>
<polygon fill="none" stroke="midnightblue" points="1419,-117.2 1422.5,-127.2 1426,-117.2 1419,-117.2"/>
</g>
<!-- Node11 -->
<g id="node11" class="node">
<title>Node11</title>
<g id="a_node11"><a xlink:href="a01682.html" target="_top" xlink:title=" ">
<polygon fill="white" stroke="black" points="1532.5,-0.5 1532.5,-90.5 1688.5,-90.5 1688.5,-0.5 1532.5,-0.5"/>
<text text-anchor="start" x="1540.5" y="-78.5" font-family="Helvetica,sans-Serif" font-size="10.00">RayTracer::PluginsExt</text>
<text text-anchor="start" x="1540.5" y="-67.5" font-family="Helvetica,sans-Serif" font-size="10.00">::LimitedPlane::LimitedPlane</text>
<text text-anchor="middle" x="1610.5" y="-56.5" font-family="Helvetica,sans-Serif" font-size="10.00">Creator</text>
<polyline fill="none" stroke="black" points="1532.5,-49.5 1688.5,-49.5 "/>
<text text-anchor="start" x="1540.5" y="-37.5" font-family="Helvetica,sans-Serif" font-size="10.00">&#45; _elements</text>
<polyline fill="none" stroke="black" points="1532.5,-30.5 1688.5,-30.5 "/>
<text text-anchor="start" x="1540.5" y="-18.5" font-family="Helvetica,sans-Serif" font-size="10.00">+ ~LimitedPlaneCreator()</text>
<text text-anchor="start" x="1540.5" y="-7.5" font-family="Helvetica,sans-Serif" font-size="10.00">+ create()</text>
</a>
</g>
</g>
<!-- Node1&#45;&gt;Node11 -->
<g id="edge10" class="edge">
<title>Node1&#45;&gt;Node11</title>
<path fill="none" stroke="midnightblue" d="M1492.06,-121.79C1508.07,-111.61 1525.11,-100.78 1541.12,-90.6"/>
<polygon fill="none" stroke="midnightblue" points="1489.84,-119.05 1483.28,-127.37 1493.6,-124.96 1489.84,-119.05"/>
</g>
<!-- Node12 -->
<g id="node12" class="node">
<title>Node12</title>
<g id="a_node12"><a xlink:href="a01698.html" target="_top" xlink:title=" ">
<polygon fill="white" stroke="black" points="1706.5,-6 1706.5,-85 1828.5,-85 1828.5,-6 1706.5,-6"/>
<text text-anchor="start" x="1714.5" y="-73" font-family="Helvetica,sans-Serif" font-size="10.00">RayTracer::PluginsExt</text>
<text text-anchor="middle" x="1767.5" y="-62" font-family="Helvetica,sans-Serif" font-size="10.00">::Obj::ObjCreator</text>
<polyline fill="none" stroke="black" points="1706.5,-55 1828.5,-55 "/>
<text text-anchor="start" x="1714.5" y="-43" font-family="Helvetica,sans-Serif" font-size="10.00">&#45; _elements</text>
<polyline fill="none" stroke="black" points="1706.5,-36 1828.5,-36 "/>
<text text-anchor="start" x="1714.5" y="-24" font-family="Helvetica,sans-Serif" font-size="10.00">+ ~ObjCreator()</text>
<text text-anchor="start" x="1714.5" y="-13" font-family="Helvetica,sans-Serif" font-size="10.00">+ create()</text>
</a>
</g>
</g>
<!-- Node1&#45;&gt;Node12 -->
<g id="edge11" class="edge">
<title>Node1&#45;&gt;Node12</title>
<path fill="none" stroke="midnightblue" d="M1499.04,-151.59C1555.42,-139.44 1633.13,-119.46 1697.5,-91 1701.58,-89.19 1705.7,-87.17 1709.79,-85.02"/>
<polygon fill="none" stroke="midnightblue" points="1498.19,-148.19 1489.13,-153.69 1499.64,-155.04 1498.19,-148.19"/>
</g>
<!-- Node13 -->
<g id="node13" class="node">
<title>Node13</title>
<g id="a_node13"><a xlink:href="a01718.html" target="_top" xlink:title=" ">
<polygon fill="white" stroke="black" points="1846.5,-6 1846.5,-85 1968.5,-85 1968.5,-6 1846.5,-6"/>
<text text-anchor="start" x="1854.5" y="-73" font-family="Helvetica,sans-Serif" font-size="10.00">RayTracer::PluginsExt</text>
<text text-anchor="middle" x="1907.5" y="-62" font-family="Helvetica,sans-Serif" font-size="10.00">::Plane::PlaneCreator</text>
<polyline fill="none" stroke="black" points="1846.5,-55 1968.5,-55 "/>
<text text-anchor="start" x="1854.5" y="-43" font-family="Helvetica,sans-Serif" font-size="10.00">&#45; _elements</text>
<polyline fill="none" stroke="black" points="1846.5,-36 1968.5,-36 "/>
<text text-anchor="start" x="1854.5" y="-24" font-family="Helvetica,sans-Serif" font-size="10.00">+ ~PlaneCreator()</text>
<text text-anchor="start" x="1854.5" y="-13" font-family="Helvetica,sans-Serif" font-size="10.00">+ create()</text>
</a>
</g>
</g>
<!-- Node1&#45;&gt;Node13 -->
<g id="edge12" class="edge">
<title>Node1&#45;&gt;Node13</title>
<path fill="none" stroke="midnightblue" d="M1499.45,-161.01C1584.63,-153.48 1724.79,-135.05 1837.5,-91 1841.93,-89.27 1846.37,-87.25 1850.77,-85.03"/>
<polygon fill="none" stroke="midnightblue" points="1499,-157.54 1489.34,-161.88 1499.6,-164.51 1499,-157.54"/>
</g>
<!-- Node14 -->
<g id="node14" class="node">
<title>Node14</title>
<g id="a_node14"><a xlink:href="a01726.html" target="_top" xlink:title=" ">
<polygon fill="white" stroke="black" points="1986.5,-6 1986.5,-85 2148.5,-85 2148.5,-6 1986.5,-6"/>
<text text-anchor="start" x="1994.5" y="-73" font-family="Helvetica,sans-Serif" font-size="10.00">RayTracer::PluginsExt</text>
<text text-anchor="middle" x="2067.5" y="-62" font-family="Helvetica,sans-Serif" font-size="10.00">::PointLight::PointLightCreator</text>
<polyline fill="none" stroke="black" points="1986.5,-55 2148.5,-55 "/>
<text text-anchor="start" x="1994.5" y="-43" font-family="Helvetica,sans-Serif" font-size="10.00">&#45; _elements</text>
<polyline fill="none" stroke="black" points="1986.5,-36 2148.5,-36 "/>
<text text-anchor="start" x="1994.5" y="-24" font-family="Helvetica,sans-Serif" font-size="10.00">+ create()</text>
<text text-anchor="start" x="1994.5" y="-13" font-family="Helvetica,sans-Serif" font-size="10.00">+ ~PointLightCreator()</text>
</a>
</g>
</g>
<!-- Node1&#45;&gt;Node14 -->
<g id="edge13" class="edge">
<title>Node1&#45;&gt;Node14</title>
<path fill="none" stroke="midnightblue" d="M1499.56,-163.45C1608.31,-158.1 1811.99,-141.61 1977.5,-91 1983.08,-89.29 1988.75,-87.27 1994.37,-85.04"/>
<polygon fill="none" stroke="midnightblue" points="1499.17,-159.97 1489.34,-163.93 1499.5,-166.96 1499.17,-159.97"/>
</g>
<!-- Node15 -->
<g id="node15" class="node">
<title>Node15</title>
<g id="a_node15"><a xlink:href="a01742.html" target="_top" xlink:title=" ">
<polygon fill="white" stroke="black" points="2166.5,-6 2166.5,-85 2298.5,-85 2298.5,-6 2166.5,-6"/>
<text text-anchor="start" x="2174.5" y="-73" font-family="Helvetica,sans-Serif" font-size="10.00">RayTracer::PluginsExt</text>
<text text-anchor="middle" x="2232.5" y="-62" font-family="Helvetica,sans-Serif" font-size="10.00">::Sphere::SphereCreator</text>
<polyline fill="none" stroke="black" points="2166.5,-55 2298.5,-55 "/>
<text text-anchor="start" x="2174.5" y="-43" font-family="Helvetica,sans-Serif" font-size="10.00">&#45; _elements</text>
<polyline fill="none" stroke="black" points="2166.5,-36 2298.5,-36 "/>
<text text-anchor="start" x="2174.5" y="-24" font-family="Helvetica,sans-Serif" font-size="10.00">+ ~SphereCreator()</text>
<text text-anchor="start" x="2174.5" y="-13" font-family="Helvetica,sans-Serif" font-size="10.00">+ create()</text>
</a>
</g>
</g>
<!-- Node1&#45;&gt;Node15 -->
<g id="edge14" class="edge">
<title>Node1&#45;&gt;Node15</title>
<path fill="none" stroke="midnightblue" d="M1499.65,-162.34C1662.61,-153.92 2036.82,-130.81 2157.5,-91 2162.53,-89.34 2167.59,-87.3 2172.57,-85.02"/>
<polygon fill="none" stroke="midnightblue" points="1499.03,-158.87 1489.23,-162.87 1499.39,-165.86 1499.03,-158.87"/>
</g>
<!-- Node16 -->
<g id="node16" class="node">
<title>Node16</title>
<g id="a_node16"><a xlink:href="a01750.html" target="_top" xlink:title=" ">
<polygon fill="white" stroke="black" points="2316.5,-6 2316.5,-85 2472.5,-85 2472.5,-6 2316.5,-6"/>
<text text-anchor="start" x="2324.5" y="-73" font-family="Helvetica,sans-Serif" font-size="10.00">RayTracer::PluginsExt</text>
<text text-anchor="middle" x="2394.5" y="-62" font-family="Helvetica,sans-Serif" font-size="10.00">::SpotLight::SpotLightCreator</text>
<polyline fill="none" stroke="black" points="2316.5,-55 2472.5,-55 "/>
<text text-anchor="start" x="2324.5" y="-43" font-family="Helvetica,sans-Serif" font-size="10.00">&#45; _elements</text>
<polyline fill="none" stroke="black" points="2316.5,-36 2472.5,-36 "/>
<text text-anchor="start" x="2324.5" y="-24" font-family="Helvetica,sans-Serif" font-size="10.00">+ create()</text>
<text text-anchor="start" x="2324.5" y="-13" font-family="Helvetica,sans-Serif" font-size="10.00">+ ~SpotLightCreator()</text>
</a>
</g>
</g>
<!-- Node1&#45;&gt;Node16 -->
<g id="edge15" class="edge">
<title>Node1&#45;&gt;Node16</title>
<path fill="none" stroke="midnightblue" d="M1499.45,-163.29C1685.71,-156.13 2156.55,-134.19 2307.5,-91 2313.21,-89.37 2318.98,-87.35 2324.7,-85.08"/>
<polygon fill="none" stroke="midnightblue" points="1499.06,-159.8 1489.2,-163.68 1499.32,-166.8 1499.06,-159.8"/>
</g>
<!-- Node17 -->
<g id="node17" class="node">
<title>Node17</title>
<g id="a_node17"><a xlink:href="a01758.html" target="_top" xlink:title=" ">
<polygon fill="white" stroke="black" points="2490.5,-6 2490.5,-85 2612.5,-85 2612.5,-6 2490.5,-6"/>
<text text-anchor="start" x="2498.5" y="-73" font-family="Helvetica,sans-Serif" font-size="10.00">RayTracer::PluginsExt</text>
<text text-anchor="middle" x="2551.5" y="-62" font-family="Helvetica,sans-Serif" font-size="10.00">::Torus::TorusCreator</text>
<polyline fill="none" stroke="black" points="2490.5,-55 2612.5,-55 "/>
<text text-anchor="start" x="2498.5" y="-43" font-family="Helvetica,sans-Serif" font-size="10.00">&#45; _elements</text>
<polyline fill="none" stroke="black" points="2490.5,-36 2612.5,-36 "/>
<text text-anchor="start" x="2498.5" y="-24" font-family="Helvetica,sans-Serif" font-size="10.00">+ ~TorusCreator()</text>
<text text-anchor="start" x="2498.5" y="-13" font-family="Helvetica,sans-Serif" font-size="10.00">+ create()</text>
</a>
</g>
</g>
<!-- Node1&#45;&gt;Node17 -->
<g id="edge16" class="edge">
<title>Node1&#45;&gt;Node17</title>
<path fill="none" stroke="midnightblue" d="M1499.24,-165.43C1710.84,-163.09 2298.94,-151.19 2481.5,-91 2486.42,-89.38 2491.35,-87.33 2496.17,-85.01"/>
<polygon fill="none" stroke="midnightblue" points="1499.12,-161.93 1489.15,-165.54 1499.19,-168.93 1499.12,-161.93"/>
</g>
<!-- Node18 -->
<g id="node18" class="node">
<title>Node18</title>
<g id="a_node18"><a xlink:href="a01774.html" target="_top" xlink:title=" ">
<polygon fill="white" stroke="black" points="2631,-6 2631,-85 2772,-85 2772,-6 2631,-6"/>
<text text-anchor="start" x="2639" y="-73" font-family="Helvetica,sans-Serif" font-size="10.00">RayTracer::PluginsExt</text>
<text text-anchor="middle" x="2701.5" y="-62" font-family="Helvetica,sans-Serif" font-size="10.00">::Triangle::TriangleCreator</text>
<polyline fill="none" stroke="black" points="2631,-55 2772,-55 "/>
<text text-anchor="start" x="2639" y="-43" font-family="Helvetica,sans-Serif" font-size="10.00">&#45; _elements</text>
<polyline fill="none" stroke="black" points="2631,-36 2772,-36 "/>
<text text-anchor="start" x="2639" y="-24" font-family="Helvetica,sans-Serif" font-size="10.00">+ ~TriangleCreator()</text>
<text text-anchor="start" x="2639" y="-13" font-family="Helvetica,sans-Serif" font-size="10.00">+ create()</text>
</a>
</g>
</g>
<!-- Node1&#45;&gt;Node18 -->
<g id="edge17" class="edge">
<title>Node1&#45;&gt;Node18</title>
<path fill="none" stroke="midnightblue" d="M1499.41,-165.61C1729.53,-163.75 2409.84,-153.02 2621.5,-91 2626.99,-89.39 2632.52,-87.35 2637.97,-85.04"/>
<polygon fill="none" stroke="midnightblue" points="1499.09,-162.11 1489.12,-165.69 1499.15,-169.11 1499.09,-162.11"/>
</g>
</g>
</svg>
