<?xml version="1.0" encoding="UTF-8" standalone="no"?>
<!DOCTYPE svg PUBLIC "-//W3C//DTD SVG 1.1//EN"
 "http://www.w3.org/Graphics/SVG/1.1/DTD/svg11.dtd">
<!-- Generated by graphviz version 2.43.0 (0)
 -->
<!-- Title: RayTracer::PluginsExt::Camera::CameraEntity Pages: 1 -->
<svg width="1039pt" height="1157pt"
 viewBox="0.00 0.00 1038.50 1157.00" xmlns="http://www.w3.org/2000/svg" xmlns:xlink="http://www.w3.org/1999/xlink">
<g id="graph0" class="graph" transform="scale(1 1) rotate(0) translate(4 1153)">
<title>RayTracer::PluginsExt::Camera::CameraEntity</title>
<polygon fill="white" stroke="transparent" points="-4,4 -4,-1153 1034.5,-1153 1034.5,4 -4,4"/>
<!-- Node1 -->
<g id="node1" class="node">
<title>Node1</title>
<g id="a_node1"><a xlink:title=" ">
<polygon fill="#bfbfbf" stroke="black" points="364.5,-0.5 364.5,-189.5 498.5,-189.5 498.5,-0.5 364.5,-0.5"/>
<text text-anchor="start" x="372.5" y="-177.5" font-family="Helvetica,sans-Serif" font-size="10.00">RayTracer::PluginsExt</text>
<text text-anchor="middle" x="431.5" y="-166.5" font-family="Helvetica,sans-Serif" font-size="10.00">::Camera::CameraEntity</text>
<polyline fill="none" stroke="black" points="364.5,-159.5 498.5,-159.5 "/>
<text text-anchor="middle" x="431.5" y="-147.5" font-family="Helvetica,sans-Serif" font-size="10.00"> </text>
<polyline fill="none" stroke="black" points="364.5,-140.5 498.5,-140.5 "/>
<text text-anchor="start" x="372.5" y="-128.5" font-family="Helvetica,sans-Serif" font-size="10.00">+ CameraEntity()</text>
<text text-anchor="start" x="372.5" y="-117.5" font-family="Helvetica,sans-Serif" font-size="10.00">+ ~CameraEntity()</text>
<text text-anchor="start" x="372.5" y="-106.5" font-family="Helvetica,sans-Serif" font-size="10.00">+ getType()</text>
<text text-anchor="start" x="372.5" y="-95.5" font-family="Helvetica,sans-Serif" font-size="10.00">+ getTransform()</text>
<text text-anchor="start" x="372.5" y="-84.5" font-family="Helvetica,sans-Serif" font-size="10.00">+ getTransform()</text>
<text text-anchor="start" x="372.5" y="-73.5" font-family="Helvetica,sans-Serif" font-size="10.00">+ getFocal()</text>
<text text-anchor="start" x="372.5" y="-62.5" font-family="Helvetica,sans-Serif" font-size="10.00">+ setFocal()</text>
<text text-anchor="start" x="372.5" y="-51.5" font-family="Helvetica,sans-Serif" font-size="10.00">+ setSize()</text>
<text text-anchor="start" x="372.5" y="-40.5" font-family="Helvetica,sans-Serif" font-size="10.00">+ getSize()</text>
<text text-anchor="start" x="372.5" y="-29.5" font-family="Helvetica,sans-Serif" font-size="10.00">+ render()</text>
<text text-anchor="start" x="372.5" y="-18.5" font-family="Helvetica,sans-Serif" font-size="10.00">+ getImage()</text>
<text text-anchor="start" x="372.5" y="-7.5" font-family="Helvetica,sans-Serif" font-size="10.00">+ getFilters()</text>
</a>
</g>
</g>
<!-- Node2 -->
<g id="node2" class="node">
<title>Node2</title>
<g id="a_node2"><a xlink:href="a01171.html" target="_top" xlink:title="The ICamera class.">
<polygon fill="white" stroke="black" points="4,-237.5 4,-382.5 111,-382.5 111,-237.5 4,-237.5"/>
<text text-anchor="start" x="12" y="-370.5" font-family="Helvetica,sans-Serif" font-size="10.00">RayTracer::Entities</text>
<text text-anchor="middle" x="57.5" y="-359.5" font-family="Helvetica,sans-Serif" font-size="10.00">::ICamera</text>
<polyline fill="none" stroke="black" points="4,-352.5 111,-352.5 "/>
<text text-anchor="middle" x="57.5" y="-340.5" font-family="Helvetica,sans-Serif" font-size="10.00"> </text>
<polyline fill="none" stroke="black" points="4,-333.5 111,-333.5 "/>
<text text-anchor="start" x="12" y="-321.5" font-family="Helvetica,sans-Serif" font-size="10.00">+ ~ICamera()</text>
<text text-anchor="start" x="12" y="-310.5" font-family="Helvetica,sans-Serif" font-size="10.00">+ getFocal()</text>
<text text-anchor="start" x="12" y="-299.5" font-family="Helvetica,sans-Serif" font-size="10.00">+ setFocal()</text>
<text text-anchor="start" x="12" y="-288.5" font-family="Helvetica,sans-Serif" font-size="10.00">+ setSize()</text>
<text text-anchor="start" x="12" y="-277.5" font-family="Helvetica,sans-Serif" font-size="10.00">+ getSize()</text>
<text text-anchor="start" x="12" y="-266.5" font-family="Helvetica,sans-Serif" font-size="10.00">+ render()</text>
<text text-anchor="start" x="12" y="-255.5" font-family="Helvetica,sans-Serif" font-size="10.00">+ getImage()</text>
<text text-anchor="start" x="12" y="-244.5" font-family="Helvetica,sans-Serif" font-size="10.00">+ getFilters()</text>
</a>
</g>
</g>
<!-- Node2&#45;&gt;Node1 -->
<g id="edge1" class="edge">
<title>Node2&#45;&gt;Node1</title>
<path fill="none" stroke="midnightblue" d="M106.93,-229.39C113.87,-221.53 121.42,-214.18 129.5,-208 199.99,-154.04 299.19,-123.94 364.38,-108.85"/>
<polygon fill="none" stroke="midnightblue" points="103.95,-227.49 100.2,-237.4 109.31,-232 103.95,-227.49"/>
</g>
<!-- Node3 -->
<g id="node3" class="node">
<title>Node3</title>
<g id="a_node3"><a xlink:href="a01175.html" target="_top" xlink:title="The IEntity class.">
<polygon fill="white" stroke="black" points="0,-474.5 0,-575.5 107,-575.5 107,-474.5 0,-474.5"/>
<text text-anchor="start" x="8" y="-563.5" font-family="Helvetica,sans-Serif" font-size="10.00">RayTracer::Entities</text>
<text text-anchor="middle" x="53.5" y="-552.5" font-family="Helvetica,sans-Serif" font-size="10.00">::IEntity</text>
<polyline fill="none" stroke="black" points="0,-545.5 107,-545.5 "/>
<text text-anchor="middle" x="53.5" y="-533.5" font-family="Helvetica,sans-Serif" font-size="10.00"> </text>
<polyline fill="none" stroke="black" points="0,-526.5 107,-526.5 "/>
<text text-anchor="start" x="8" y="-514.5" font-family="Helvetica,sans-Serif" font-size="10.00">+ ~IEntity()</text>
<text text-anchor="start" x="8" y="-503.5" font-family="Helvetica,sans-Serif" font-size="10.00">+ getTransform()</text>
<text text-anchor="start" x="8" y="-492.5" font-family="Helvetica,sans-Serif" font-size="10.00">+ getTransform()</text>
<text text-anchor="start" x="8" y="-481.5" font-family="Helvetica,sans-Serif" font-size="10.00">+ getType()</text>
</a>
</g>
</g>
<!-- Node3&#45;&gt;Node2 -->
<g id="edge2" class="edge">
<title>Node3&#45;&gt;Node2</title>
<path fill="none" stroke="midnightblue" d="M54.62,-464.13C55.1,-438.79 55.66,-409.06 56.16,-382.57"/>
<polygon fill="none" stroke="midnightblue" points="51.12,-464.27 54.43,-474.33 58.12,-464.4 51.12,-464.27"/>
</g>
<!-- Node4 -->
<g id="node4" class="node">
<title>Node4</title>
<g id="a_node4"><a xlink:href="a01195.html" target="_top" xlink:title="The Transform class.">
<polygon fill="white" stroke="black" points="236.5,-452.5 236.5,-597.5 362.5,-597.5 362.5,-452.5 236.5,-452.5"/>
<text text-anchor="start" x="244.5" y="-585.5" font-family="Helvetica,sans-Serif" font-size="10.00">RayTracer::Entities</text>
<text text-anchor="middle" x="299.5" y="-574.5" font-family="Helvetica,sans-Serif" font-size="10.00">::Transform::Transform</text>
<polyline fill="none" stroke="black" points="236.5,-567.5 362.5,-567.5 "/>
<text text-anchor="middle" x="299.5" y="-555.5" font-family="Helvetica,sans-Serif" font-size="10.00"> </text>
<polyline fill="none" stroke="black" points="236.5,-548.5 362.5,-548.5 "/>
<text text-anchor="start" x="244.5" y="-536.5" font-family="Helvetica,sans-Serif" font-size="10.00">+ Transform()</text>
<text text-anchor="start" x="244.5" y="-525.5" font-family="Helvetica,sans-Serif" font-size="10.00">+ setPosition()</text>
<text text-anchor="start" x="244.5" y="-514.5" font-family="Helvetica,sans-Serif" font-size="10.00">+ getPosition()</text>
<text text-anchor="start" x="244.5" y="-503.5" font-family="Helvetica,sans-Serif" font-size="10.00">+ setRotation()</text>
<text text-anchor="start" x="244.5" y="-492.5" font-family="Helvetica,sans-Serif" font-size="10.00">+ getRotation()</text>
<text text-anchor="start" x="244.5" y="-481.5" font-family="Helvetica,sans-Serif" font-size="10.00">+ setScale()</text>
<text text-anchor="start" x="244.5" y="-470.5" font-family="Helvetica,sans-Serif" font-size="10.00">+ getScale()</text>
<text text-anchor="start" x="244.5" y="-459.5" font-family="Helvetica,sans-Serif" font-size="10.00">+ operator=()</text>
</a>
</g>
</g>
<!-- Node4&#45;&gt;Node1 -->
<g id="edge3" class="edge">
<title>Node4&#45;&gt;Node1</title>
<path fill="none" stroke="#404040" d="M291.42,-452.4C287.48,-392.71 288.38,-306.5 315.5,-237 324.9,-212.91 340.09,-189.85 356.42,-169.62"/>
<polygon fill="none" stroke="#404040" points="356.57,-169.45 357.34,-162.28 364.25,-160.23 363.48,-167.4 356.57,-169.45"/>
<text text-anchor="middle" x="346" y="-307.5" font-family="Helvetica,sans-Serif" font-size="10.00"> &#45;_transform</text>
</g>
<!-- Node5 -->
<g id="node5" class="node">
<title>Node5</title>
<g id="a_node5"><a xlink:href="a01191.html" target="_top" xlink:title="The ITransform class.">
<polygon fill="white" stroke="black" points="308,-777.5 308,-922.5 437,-922.5 437,-777.5 308,-777.5"/>
<text text-anchor="start" x="316" y="-910.5" font-family="Helvetica,sans-Serif" font-size="10.00">RayTracer::Entities</text>
<text text-anchor="middle" x="372.5" y="-899.5" font-family="Helvetica,sans-Serif" font-size="10.00">::Transform::ITransform</text>
<polyline fill="none" stroke="black" points="308,-892.5 437,-892.5 "/>
<text text-anchor="middle" x="372.5" y="-880.5" font-family="Helvetica,sans-Serif" font-size="10.00"> </text>
<polyline fill="none" stroke="black" points="308,-873.5 437,-873.5 "/>
<text text-anchor="start" x="316" y="-861.5" font-family="Helvetica,sans-Serif" font-size="10.00">+ ~ITransform()</text>
<text text-anchor="start" x="316" y="-850.5" font-family="Helvetica,sans-Serif" font-size="10.00">+ setPosition()</text>
<text text-anchor="start" x="316" y="-839.5" font-family="Helvetica,sans-Serif" font-size="10.00">+ getPosition()</text>
<text text-anchor="start" x="316" y="-828.5" font-family="Helvetica,sans-Serif" font-size="10.00">+ setRotation()</text>
<text text-anchor="start" x="316" y="-817.5" font-family="Helvetica,sans-Serif" font-size="10.00">+ getRotation()</text>
<text text-anchor="start" x="316" y="-806.5" font-family="Helvetica,sans-Serif" font-size="10.00">+ setScale()</text>
<text text-anchor="start" x="316" y="-795.5" font-family="Helvetica,sans-Serif" font-size="10.00">+ getScale()</text>
<text text-anchor="start" x="316" y="-784.5" font-family="Helvetica,sans-Serif" font-size="10.00">+ operator=()</text>
</a>
</g>
</g>
<!-- Node5&#45;&gt;Node4 -->
<g id="edge4" class="edge">
<title>Node5&#45;&gt;Node4</title>
<path fill="none" stroke="midnightblue" d="M358.33,-767.32C351.08,-728.04 341.66,-680.4 331.5,-638 328.37,-624.92 324.7,-611.08 320.99,-597.76"/>
<polygon fill="none" stroke="midnightblue" points="354.93,-768.17 360.17,-777.37 361.81,-766.91 354.93,-768.17"/>
</g>
<!-- Node6 -->
<g id="node6" class="node">
<title>Node6</title>
<g id="a_node6"><a xlink:href="a01203.html" target="_top" xlink:title="The Vector3f class.">
<polygon fill="white" stroke="black" points="171.5,-689.5 171.5,-1010.5 289.5,-1010.5 289.5,-689.5 171.5,-689.5"/>
<text text-anchor="start" x="179.5" y="-998.5" font-family="Helvetica,sans-Serif" font-size="10.00">RayTracer::Entities</text>
<text text-anchor="middle" x="230.5" y="-987.5" font-family="Helvetica,sans-Serif" font-size="10.00">::Transform::Vector3f</text>
<polyline fill="none" stroke="black" points="171.5,-980.5 289.5,-980.5 "/>
<text text-anchor="middle" x="230.5" y="-968.5" font-family="Helvetica,sans-Serif" font-size="10.00"> </text>
<polyline fill="none" stroke="black" points="171.5,-961.5 289.5,-961.5 "/>
<text text-anchor="start" x="179.5" y="-949.5" font-family="Helvetica,sans-Serif" font-size="10.00">+ ~Vector3f()</text>
<text text-anchor="start" x="179.5" y="-938.5" font-family="Helvetica,sans-Serif" font-size="10.00">+ Vector3f()</text>
<text text-anchor="start" x="179.5" y="-927.5" font-family="Helvetica,sans-Serif" font-size="10.00">+ Vector3f()</text>
<text text-anchor="start" x="179.5" y="-916.5" font-family="Helvetica,sans-Serif" font-size="10.00">+ Vector3f()</text>
<text text-anchor="start" x="179.5" y="-905.5" font-family="Helvetica,sans-Serif" font-size="10.00">+ Vector3f()</text>
<text text-anchor="start" x="179.5" y="-894.5" font-family="Helvetica,sans-Serif" font-size="10.00">+ operator+()</text>
<text text-anchor="start" x="179.5" y="-883.5" font-family="Helvetica,sans-Serif" font-size="10.00">+ operator&#45;()</text>
<text text-anchor="start" x="179.5" y="-872.5" font-family="Helvetica,sans-Serif" font-size="10.00">+ operator*()</text>
<text text-anchor="start" x="179.5" y="-861.5" font-family="Helvetica,sans-Serif" font-size="10.00">+ operator/()</text>
<text text-anchor="start" x="179.5" y="-850.5" font-family="Helvetica,sans-Serif" font-size="10.00">+ operator=()</text>
<text text-anchor="start" x="179.5" y="-839.5" font-family="Helvetica,sans-Serif" font-size="10.00">+ getX()</text>
<text text-anchor="start" x="179.5" y="-828.5" font-family="Helvetica,sans-Serif" font-size="10.00">+ getY()</text>
<text text-anchor="start" x="179.5" y="-817.5" font-family="Helvetica,sans-Serif" font-size="10.00">+ getZ()</text>
<text text-anchor="start" x="179.5" y="-806.5" font-family="Helvetica,sans-Serif" font-size="10.00">+ getNorm()</text>
<text text-anchor="start" x="179.5" y="-795.5" font-family="Helvetica,sans-Serif" font-size="10.00">+ getNormalized()</text>
<text text-anchor="start" x="179.5" y="-784.5" font-family="Helvetica,sans-Serif" font-size="10.00">+ dot()</text>
<text text-anchor="start" x="179.5" y="-773.5" font-family="Helvetica,sans-Serif" font-size="10.00">+ getDistance()</text>
<text text-anchor="start" x="179.5" y="-762.5" font-family="Helvetica,sans-Serif" font-size="10.00">+ toDegrees()</text>
<text text-anchor="start" x="179.5" y="-751.5" font-family="Helvetica,sans-Serif" font-size="10.00">+ toRadians()</text>
<text text-anchor="start" x="179.5" y="-740.5" font-family="Helvetica,sans-Serif" font-size="10.00">+ rotateVector()</text>
<text text-anchor="start" x="179.5" y="-729.5" font-family="Helvetica,sans-Serif" font-size="10.00">+ getAngle()</text>
<text text-anchor="start" x="179.5" y="-718.5" font-family="Helvetica,sans-Serif" font-size="10.00">+ rotateX()</text>
<text text-anchor="start" x="179.5" y="-707.5" font-family="Helvetica,sans-Serif" font-size="10.00">+ rotateY()</text>
<text text-anchor="start" x="179.5" y="-696.5" font-family="Helvetica,sans-Serif" font-size="10.00">+ rotateZ()</text>
</a>
</g>
</g>
<!-- Node6&#45;&gt;Node4 -->
<g id="edge5" class="edge">
<title>Node6&#45;&gt;Node4</title>
<path fill="none" stroke="#404040" d="M264.6,-689.39C270.49,-661.8 276.4,-634.14 281.64,-609.62"/>
<polygon fill="none" stroke="#404040" points="281.64,-609.59 278.99,-602.89 284.15,-597.85 286.81,-604.56 281.64,-609.59"/>
<text text-anchor="middle" x="301.5" y="-663" font-family="Helvetica,sans-Serif" font-size="10.00"> &#45;_position</text>
<text text-anchor="middle" x="301.5" y="-652" font-family="Helvetica,sans-Serif" font-size="10.00">&#45;_rotation</text>
<text text-anchor="middle" x="301.5" y="-641" font-family="Helvetica,sans-Serif" font-size="10.00">&#45;_scale</text>
</g>
<!-- Node7 -->
<g id="node7" class="node">
<title>Node7</title>
<g id="a_node7"><a xlink:title=" ">
<polygon fill="white" stroke="#bfbfbf" points="205.5,-1091.5 205.5,-1148.5 255.5,-1148.5 255.5,-1091.5 205.5,-1091.5"/>
<text text-anchor="middle" x="230.5" y="-1136.5" font-family="Helvetica,sans-Serif" font-size="10.00">double</text>
<polyline fill="none" stroke="#bfbfbf" points="205.5,-1129.5 255.5,-1129.5 "/>
<text text-anchor="middle" x="230.5" y="-1117.5" font-family="Helvetica,sans-Serif" font-size="10.00"> </text>
<polyline fill="none" stroke="#bfbfbf" points="205.5,-1110.5 255.5,-1110.5 "/>
<text text-anchor="middle" x="230.5" y="-1098.5" font-family="Helvetica,sans-Serif" font-size="10.00"> </text>
</a>
</g>
</g>
<!-- Node7&#45;&gt;Node1 -->
<g id="edge11" class="edge">
<title>Node7&#45;&gt;Node1</title>
<path fill="none" stroke="#404040" d="M208.3,-1091.47C192.77,-1070.65 172.99,-1040.66 162.5,-1011 138.61,-943.49 143.5,-922.61 143.5,-851 143.5,-851 143.5,-851 143.5,-309 143.5,-204.51 267.57,-145.42 352.84,-117.15"/>
<polygon fill="none" stroke="#404040" points="352.92,-117.13 357.4,-111.48 364.34,-113.45 359.86,-119.1 352.92,-117.13"/>
<text text-anchor="middle" x="162" y="-522.5" font-family="Helvetica,sans-Serif" font-size="10.00"> &#45;_focal</text>
</g>
<!-- Node7&#45;&gt;Node6 -->
<g id="edge6" class="edge">
<title>Node7&#45;&gt;Node6</title>
<path fill="none" stroke="#404040" d="M230.5,-1091.33C230.5,-1073.76 230.5,-1049.38 230.5,-1022.85"/>
<polygon fill="none" stroke="#404040" points="230.5,-1022.52 226.5,-1016.52 230.5,-1010.52 234.5,-1016.52 230.5,-1022.52"/>
<text text-anchor="middle" x="240" y="-1059.5" font-family="Helvetica,sans-Serif" font-size="10.00"> &#45;_x</text>
<text text-anchor="middle" x="240" y="-1048.5" font-family="Helvetica,sans-Serif" font-size="10.00">&#45;_y</text>
<text text-anchor="middle" x="240" y="-1037.5" font-family="Helvetica,sans-Serif" font-size="10.00">&#45;_z</text>
</g>
<!-- Node16 -->
<g id="node16" class="node">
<title>Node16</title>
<g id="a_node16"><a xlink:href="a01243.html" target="_top" xlink:title="The Color class.">
<polygon fill="white" stroke="black" points="502,-739 502,-961 615,-961 615,-739 502,-739"/>
<text text-anchor="start" x="510" y="-949" font-family="Helvetica,sans-Serif" font-size="10.00">RayTracer::Images::</text>
<text text-anchor="middle" x="558.5" y="-938" font-family="Helvetica,sans-Serif" font-size="10.00">Color</text>
<polyline fill="none" stroke="black" points="502,-931 615,-931 "/>
<text text-anchor="middle" x="558.5" y="-919" font-family="Helvetica,sans-Serif" font-size="10.00"> </text>
<polyline fill="none" stroke="black" points="502,-912 615,-912 "/>
<text text-anchor="start" x="510" y="-900" font-family="Helvetica,sans-Serif" font-size="10.00">+ ~Color()</text>
<text text-anchor="start" x="510" y="-889" font-family="Helvetica,sans-Serif" font-size="10.00">+ Color()</text>
<text text-anchor="start" x="510" y="-878" font-family="Helvetica,sans-Serif" font-size="10.00">+ Color()</text>
<text text-anchor="start" x="510" y="-867" font-family="Helvetica,sans-Serif" font-size="10.00">+ Color()</text>
<text text-anchor="start" x="510" y="-856" font-family="Helvetica,sans-Serif" font-size="10.00">+ operator+()</text>
<text text-anchor="start" x="510" y="-845" font-family="Helvetica,sans-Serif" font-size="10.00">+ operator&#45;()</text>
<text text-anchor="start" x="510" y="-834" font-family="Helvetica,sans-Serif" font-size="10.00">+ operator*()</text>
<text text-anchor="start" x="510" y="-823" font-family="Helvetica,sans-Serif" font-size="10.00">+ operator/()</text>
<text text-anchor="start" x="510" y="-812" font-family="Helvetica,sans-Serif" font-size="10.00">+ operator=()</text>
<text text-anchor="start" x="510" y="-801" font-family="Helvetica,sans-Serif" font-size="10.00">+ operator[]()</text>
<text text-anchor="start" x="510" y="-790" font-family="Helvetica,sans-Serif" font-size="10.00">+ operator[]()</text>
<text text-anchor="start" x="510" y="-779" font-family="Helvetica,sans-Serif" font-size="10.00">+ set()</text>
<text text-anchor="start" x="510" y="-768" font-family="Helvetica,sans-Serif" font-size="10.00">+ applyAlpha()</text>
<text text-anchor="start" x="510" y="-757" font-family="Helvetica,sans-Serif" font-size="10.00">+ mergeColor()</text>
<text text-anchor="start" x="510" y="-746" font-family="Helvetica,sans-Serif" font-size="10.00">+ applyDistance()</text>
</a>
</g>
</g>
<!-- Node7&#45;&gt;Node16 -->
<g id="edge18" class="edge">
<title>Node7&#45;&gt;Node16</title>
<path fill="none" stroke="#404040" d="M255.69,-1115.22C306.95,-1106.27 424.31,-1079.18 492.5,-1011 503.68,-999.83 513.05,-986.49 520.88,-972.35"/>
<polygon fill="none" stroke="#404040" points="521.04,-972.05 520.26,-964.88 526.58,-961.41 527.35,-968.58 521.04,-972.05"/>
<text text-anchor="middle" x="480" y="-1065" font-family="Helvetica,sans-Serif" font-size="10.00"> &#45;_a</text>
<text text-anchor="middle" x="480" y="-1054" font-family="Helvetica,sans-Serif" font-size="10.00">&#45;_b</text>
<text text-anchor="middle" x="480" y="-1043" font-family="Helvetica,sans-Serif" font-size="10.00">&#45;_g</text>
<text text-anchor="middle" x="480" y="-1032" font-family="Helvetica,sans-Serif" font-size="10.00">&#45;_r</text>
</g>
<!-- Node8 -->
<g id="node8" class="node">
<title>Node8</title>
<g id="a_node8"><a xlink:title=" ">
<polygon fill="white" stroke="#bfbfbf" points="728,-485.5 728,-564.5 885,-564.5 885,-485.5 728,-485.5"/>
<text text-anchor="start" x="736" y="-552.5" font-family="Helvetica,sans-Serif" font-size="10.00">std::list&lt; std::reference</text>
<text text-anchor="start" x="736" y="-541.5" font-family="Helvetica,sans-Serif" font-size="10.00">_wrapper&lt; RayTracer::Filters</text>
<text text-anchor="middle" x="806.5" y="-530.5" font-family="Helvetica,sans-Serif" font-size="10.00">::IFilter &gt; &gt;</text>
<polyline fill="none" stroke="#bfbfbf" points="728,-523.5 885,-523.5 "/>
<text text-anchor="middle" x="806.5" y="-511.5" font-family="Helvetica,sans-Serif" font-size="10.00"> </text>
<polyline fill="none" stroke="#bfbfbf" points="728,-504.5 885,-504.5 "/>
<text text-anchor="middle" x="806.5" y="-492.5" font-family="Helvetica,sans-Serif" font-size="10.00"> </text>
</a>
</g>
</g>
<!-- Node8&#45;&gt;Node1 -->
<g id="edge7" class="edge">
<title>Node8&#45;&gt;Node1</title>
<path fill="none" stroke="#404040" d="M763.68,-485.31C736.95,-458.93 703.86,-421.84 683.5,-383 652.42,-323.71 685.35,-291.51 646.5,-237 612.2,-188.88 555.88,-152.82 509.48,-129.22"/>
<polygon fill="none" stroke="#404040" points="509.28,-129.12 502.13,-130.03 498.53,-123.78 505.69,-122.87 509.28,-129.12"/>
<text text-anchor="middle" x="703.5" y="-307.5" font-family="Helvetica,sans-Serif" font-size="10.00"> &#45;_filters</text>
</g>
<!-- Node9 -->
<g id="node9" class="node">
<title>Node9</title>
<g id="a_node9"><a xlink:title=" ">
<polygon fill="white" stroke="#bfbfbf" points="748.5,-810.5 748.5,-889.5 864.5,-889.5 864.5,-810.5 748.5,-810.5"/>
<text text-anchor="start" x="756.5" y="-877.5" font-family="Helvetica,sans-Serif" font-size="10.00">reference_wrapper&lt;</text>
<text text-anchor="start" x="756.5" y="-866.5" font-family="Helvetica,sans-Serif" font-size="10.00"> RayTracer::Filters</text>
<text text-anchor="middle" x="806.5" y="-855.5" font-family="Helvetica,sans-Serif" font-size="10.00">::IFilter &gt;</text>
<polyline fill="none" stroke="#bfbfbf" points="748.5,-848.5 864.5,-848.5 "/>
<text text-anchor="middle" x="806.5" y="-836.5" font-family="Helvetica,sans-Serif" font-size="10.00"> </text>
<polyline fill="none" stroke="#bfbfbf" points="748.5,-829.5 864.5,-829.5 "/>
<text text-anchor="middle" x="806.5" y="-817.5" font-family="Helvetica,sans-Serif" font-size="10.00"> </text>
</a>
</g>
</g>
<!-- Node9&#45;&gt;Node8 -->
<g id="edge8" class="edge">
<title>Node9&#45;&gt;Node8</title>
<path fill="none" stroke="#404040" d="M806.5,-810.36C806.5,-752.12 806.5,-641.78 806.5,-577"/>
<polygon fill="none" stroke="#404040" points="806.5,-576.68 802.5,-570.68 806.5,-564.68 810.5,-570.68 806.5,-576.68"/>
<text text-anchor="middle" x="835.5" y="-652" font-family="Helvetica,sans-Serif" font-size="10.00"> +elements</text>
</g>
<!-- Node10 -->
<g id="node10" class="node">
<title>Node10</title>
<g id="a_node10"><a xlink:title=" ">
<polygon fill="white" stroke="#bfbfbf" points="883,-821.5 883,-878.5 964,-878.5 964,-821.5 883,-821.5"/>
<text text-anchor="middle" x="923.5" y="-866.5" font-family="Helvetica,sans-Serif" font-size="10.00">std::list&lt; T &gt;</text>
<polyline fill="none" stroke="#bfbfbf" points="883,-859.5 964,-859.5 "/>
<text text-anchor="middle" x="923.5" y="-847.5" font-family="Helvetica,sans-Serif" font-size="10.00"> </text>
<polyline fill="none" stroke="#bfbfbf" points="883,-840.5 964,-840.5 "/>
<text text-anchor="middle" x="923.5" y="-828.5" font-family="Helvetica,sans-Serif" font-size="10.00"> </text>
</a>
</g>
</g>
<!-- Node10&#45;&gt;Node8 -->
<g id="edge9" class="edge">
<title>Node10&#45;&gt;Node8</title>
<path fill="none" stroke="orange" d="M916.65,-811.32C908.17,-768.39 891.93,-696.62 868.5,-638 858.35,-612.62 843.64,-585.77 831.1,-564.73"/>
<polygon fill="orange" stroke="orange" points="913.25,-812.17 918.59,-821.32 920.12,-810.84 913.25,-812.17"/>
<text text-anchor="start" x="878.5" y="-657.5" font-family="Helvetica,sans-Serif" font-size="10.00"> &lt; std::reference_wrapper</text>
<text text-anchor="middle" x="954.5" y="-646.5" font-family="Helvetica,sans-Serif" font-size="10.00">&lt; RayTracer::Filters::IFilter &gt; &gt;</text>
</g>
<!-- Node11 -->
<g id="node11" class="node">
<title>Node11</title>
<g id="a_node11"><a xlink:title=" ">
<polygon fill="white" stroke="#bfbfbf" points="787,-1091.5 787,-1148.5 816,-1148.5 816,-1091.5 787,-1091.5"/>
<text text-anchor="middle" x="801.5" y="-1136.5" font-family="Helvetica,sans-Serif" font-size="10.00">T</text>
<polyline fill="none" stroke="#bfbfbf" points="787,-1129.5 816,-1129.5 "/>
<text text-anchor="middle" x="801.5" y="-1117.5" font-family="Helvetica,sans-Serif" font-size="10.00"> </text>
<polyline fill="none" stroke="#bfbfbf" points="787,-1110.5 816,-1110.5 "/>
<text text-anchor="middle" x="801.5" y="-1098.5" font-family="Helvetica,sans-Serif" font-size="10.00"> </text>
</a>
</g>
</g>
<!-- Node11&#45;&gt;Node10 -->
<g id="edge10" class="edge">
<title>Node11&#45;&gt;Node10</title>
<path fill="none" stroke="#404040" d="M816.05,-1097.5C821.25,-1089.78 827.15,-1081.01 832.5,-1073 850.84,-1045.52 859.32,-1040.84 873.5,-1011 892.16,-971.73 906.07,-923.79 914.42,-890.69"/>
<polygon fill="none" stroke="#404040" points="914.48,-890.43 912.03,-883.65 917.35,-878.78 919.8,-885.56 914.48,-890.43"/>
<text text-anchor="middle" x="891.5" y="-1048.5" font-family="Helvetica,sans-Serif" font-size="10.00"> +elements</text>
</g>
<!-- Node18 -->
<g id="node18" class="node">
<title>Node18</title>
<g id="a_node18"><a xlink:title=" ">
<polygon fill="white" stroke="#bfbfbf" points="633,-821.5 633,-878.5 730,-878.5 730,-821.5 633,-821.5"/>
<text text-anchor="middle" x="681.5" y="-866.5" font-family="Helvetica,sans-Serif" font-size="10.00">std::vector&lt; T &gt;</text>
<polyline fill="none" stroke="#bfbfbf" points="633,-859.5 730,-859.5 "/>
<text text-anchor="middle" x="681.5" y="-847.5" font-family="Helvetica,sans-Serif" font-size="10.00"> </text>
<polyline fill="none" stroke="#bfbfbf" points="633,-840.5 730,-840.5 "/>
<text text-anchor="middle" x="681.5" y="-828.5" font-family="Helvetica,sans-Serif" font-size="10.00"> </text>
</a>
</g>
</g>
<!-- Node11&#45;&gt;Node18 -->
<g id="edge21" class="edge">
<title>Node11&#45;&gt;Node18</title>
<path fill="none" stroke="#404040" d="M786.75,-1096.03C773.36,-1074.58 753.61,-1041.4 739.5,-1011 720.97,-971.07 704.37,-923.44 693.72,-890.58"/>
<polygon fill="none" stroke="#404040" points="693.6,-890.19 687.96,-885.69 689.94,-878.76 695.58,-883.26 693.6,-890.19"/>
<text text-anchor="middle" x="799.5" y="-1048.5" font-family="Helvetica,sans-Serif" font-size="10.00"> +elements</text>
</g>
<!-- Node12 -->
<g id="node12" class="node">
<title>Node12</title>
<g id="a_node12"><a xlink:href="a01199.html" target="_top" xlink:title="The Vector2i class.">
<polygon fill="white" stroke="black" points="419,-430.5 419,-619.5 536,-619.5 536,-430.5 419,-430.5"/>
<text text-anchor="start" x="427" y="-607.5" font-family="Helvetica,sans-Serif" font-size="10.00">RayTracer::Entities</text>
<text text-anchor="middle" x="477.5" y="-596.5" font-family="Helvetica,sans-Serif" font-size="10.00">::Transform::Vector2i</text>
<polyline fill="none" stroke="black" points="419,-589.5 536,-589.5 "/>
<text text-anchor="middle" x="477.5" y="-577.5" font-family="Helvetica,sans-Serif" font-size="10.00"> </text>
<polyline fill="none" stroke="black" points="419,-570.5 536,-570.5 "/>
<text text-anchor="start" x="427" y="-558.5" font-family="Helvetica,sans-Serif" font-size="10.00">+ ~Vector2i()</text>
<text text-anchor="start" x="427" y="-547.5" font-family="Helvetica,sans-Serif" font-size="10.00">+ Vector2i()</text>
<text text-anchor="start" x="427" y="-536.5" font-family="Helvetica,sans-Serif" font-size="10.00">+ Vector2i()</text>
<text text-anchor="start" x="427" y="-525.5" font-family="Helvetica,sans-Serif" font-size="10.00">+ Vector2i()</text>
<text text-anchor="start" x="427" y="-514.5" font-family="Helvetica,sans-Serif" font-size="10.00">+ Vector2i()</text>
<text text-anchor="start" x="427" y="-503.5" font-family="Helvetica,sans-Serif" font-size="10.00">+ operator+()</text>
<text text-anchor="start" x="427" y="-492.5" font-family="Helvetica,sans-Serif" font-size="10.00">+ operator&#45;()</text>
<text text-anchor="start" x="427" y="-481.5" font-family="Helvetica,sans-Serif" font-size="10.00">+ operator*()</text>
<text text-anchor="start" x="427" y="-470.5" font-family="Helvetica,sans-Serif" font-size="10.00">+ operator/()</text>
<text text-anchor="start" x="427" y="-459.5" font-family="Helvetica,sans-Serif" font-size="10.00">+ operator=()</text>
<text text-anchor="start" x="427" y="-448.5" font-family="Helvetica,sans-Serif" font-size="10.00">+ getX()</text>
<text text-anchor="start" x="427" y="-437.5" font-family="Helvetica,sans-Serif" font-size="10.00">+ getY()</text>
</a>
</g>
</g>
<!-- Node12&#45;&gt;Node1 -->
<g id="edge12" class="edge">
<title>Node12&#45;&gt;Node1</title>
<path fill="none" stroke="#404040" d="M467.43,-430.34C460.18,-362.89 450.4,-271.82 442.87,-201.76"/>
<polygon fill="none" stroke="#404040" points="442.87,-201.75 438.25,-196.22 441.58,-189.82 446.2,-195.36 442.87,-201.75"/>
<text text-anchor="middle" x="478.5" y="-307.5" font-family="Helvetica,sans-Serif" font-size="10.00"> &#45;_size</text>
</g>
<!-- Node14 -->
<g id="node14" class="node">
<title>Node14</title>
<g id="a_node14"><a xlink:href="a01247.html" target="_top" xlink:title="The Image class.">
<polygon fill="white" stroke="black" points="524,-254 524,-366 637,-366 637,-254 524,-254"/>
<text text-anchor="start" x="532" y="-354" font-family="Helvetica,sans-Serif" font-size="10.00">RayTracer::Images::</text>
<text text-anchor="middle" x="580.5" y="-343" font-family="Helvetica,sans-Serif" font-size="10.00">Image</text>
<polyline fill="none" stroke="black" points="524,-336 637,-336 "/>
<text text-anchor="middle" x="580.5" y="-324" font-family="Helvetica,sans-Serif" font-size="10.00"> </text>
<polyline fill="none" stroke="black" points="524,-317 637,-317 "/>
<text text-anchor="start" x="532" y="-305" font-family="Helvetica,sans-Serif" font-size="10.00">+ Image()</text>
<text text-anchor="start" x="532" y="-294" font-family="Helvetica,sans-Serif" font-size="10.00">+ convertToPPM()</text>
<text text-anchor="start" x="532" y="-283" font-family="Helvetica,sans-Serif" font-size="10.00">+ operator[]()</text>
<text text-anchor="start" x="532" y="-272" font-family="Helvetica,sans-Serif" font-size="10.00">+ operator[]()</text>
<text text-anchor="start" x="532" y="-261" font-family="Helvetica,sans-Serif" font-size="10.00">+ getSize()</text>
</a>
</g>
</g>
<!-- Node12&#45;&gt;Node14 -->
<g id="edge15" class="edge">
<title>Node12&#45;&gt;Node14</title>
<path fill="none" stroke="#404040" d="M522.83,-430.27C531.5,-412.32 540.42,-393.88 548.57,-377.04"/>
<polygon fill="none" stroke="#404040" points="548.58,-377.02 547.59,-369.87 553.8,-366.21 554.79,-373.36 548.58,-377.02"/>
<text text-anchor="middle" x="551.5" y="-404" font-family="Helvetica,sans-Serif" font-size="10.00"> &#45;_size</text>
</g>
<!-- Node13 -->
<g id="node13" class="node">
<title>Node13</title>
<g id="a_node13"><a xlink:title=" ">
<polygon fill="white" stroke="#bfbfbf" points="455,-821.5 455,-878.5 484,-878.5 484,-821.5 455,-821.5"/>
<text text-anchor="middle" x="469.5" y="-866.5" font-family="Helvetica,sans-Serif" font-size="10.00">int</text>
<polyline fill="none" stroke="#bfbfbf" points="455,-859.5 484,-859.5 "/>
<text text-anchor="middle" x="469.5" y="-847.5" font-family="Helvetica,sans-Serif" font-size="10.00"> </text>
<polyline fill="none" stroke="#bfbfbf" points="455,-840.5 484,-840.5 "/>
<text text-anchor="middle" x="469.5" y="-828.5" font-family="Helvetica,sans-Serif" font-size="10.00"> </text>
</a>
</g>
</g>
<!-- Node13&#45;&gt;Node1 -->
<g id="edge22" class="edge">
<title>Node13&#45;&gt;Node1</title>
<path fill="none" stroke="#404040" d="M468.14,-821.47C465.92,-789.08 460.16,-734 445.5,-689 434.79,-656.11 419.02,-653.25 409.5,-620 382.64,-526.18 387.46,-498.41 393.5,-401 397.62,-334.62 406.73,-260.58 415,-202.08"/>
<polygon fill="none" stroke="#404040" points="415.06,-201.72 411.95,-195.21 416.75,-189.84 419.87,-196.34 415.06,-201.72"/>
<text text-anchor="middle" x="427.5" y="-404" font-family="Helvetica,sans-Serif" font-size="10.00"> &#45;_maxThread</text>
</g>
<!-- Node13&#45;&gt;Node12 -->
<g id="edge13" class="edge">
<title>Node13&#45;&gt;Node12</title>
<path fill="none" stroke="#404040" d="M470.18,-821.46C471.21,-779.81 473.23,-698.57 474.88,-631.81"/>
<polygon fill="none" stroke="#404040" points="474.89,-631.52 471.04,-625.42 475.18,-619.52 479.03,-625.62 474.89,-631.52"/>
<text text-anchor="middle" x="485" y="-657.5" font-family="Helvetica,sans-Serif" font-size="10.00"> &#45;_x</text>
<text text-anchor="middle" x="485" y="-646.5" font-family="Helvetica,sans-Serif" font-size="10.00">&#45;_y</text>
</g>
<!-- Node14&#45;&gt;Node1 -->
<g id="edge14" class="edge">
<title>Node14&#45;&gt;Node1</title>
<path fill="none" stroke="#404040" d="M541.94,-253.87C530.31,-237.26 517.16,-218.45 504.08,-199.76"/>
<polygon fill="none" stroke="#404040" points="503.93,-199.54 497.21,-196.91 497.05,-189.7 503.76,-192.33 503.93,-199.54"/>
<text text-anchor="middle" x="537" y="-211" font-family="Helvetica,sans-Serif" font-size="10.00"> &#45;_image</text>
</g>
<!-- Node15 -->
<g id="node15" class="node">
<title>Node15</title>
<g id="a_node15"><a xlink:title=" ">
<polygon fill="white" stroke="#bfbfbf" points="554.5,-491 554.5,-559 682.5,-559 682.5,-491 554.5,-491"/>
<text text-anchor="start" x="562.5" y="-547" font-family="Helvetica,sans-Serif" font-size="10.00">std::vector&lt; RayTracer</text>
<text text-anchor="middle" x="618.5" y="-536" font-family="Helvetica,sans-Serif" font-size="10.00">::Images::Color &gt;</text>
<polyline fill="none" stroke="#bfbfbf" points="554.5,-529 682.5,-529 "/>
<text text-anchor="middle" x="618.5" y="-517" font-family="Helvetica,sans-Serif" font-size="10.00"> </text>
<polyline fill="none" stroke="#bfbfbf" points="554.5,-510 682.5,-510 "/>
<text text-anchor="middle" x="618.5" y="-498" font-family="Helvetica,sans-Serif" font-size="10.00"> </text>
</a>
</g>
</g>
<!-- Node15&#45;&gt;Node14 -->
<g id="edge16" class="edge">
<title>Node15&#45;&gt;Node14</title>
<path fill="none" stroke="#404040" d="M612.56,-490.72C607.21,-460.73 599.19,-415.74 592.5,-378.28"/>
<polygon fill="none" stroke="#404040" points="592.49,-378.22 587.5,-373.02 590.38,-366.41 595.38,-371.61 592.49,-378.22"/>
<text text-anchor="middle" x="618" y="-404" font-family="Helvetica,sans-Serif" font-size="10.00"> &#45;_pixels</text>
</g>
<!-- Node16&#45;&gt;Node15 -->
<g id="edge17" class="edge">
<title>Node16&#45;&gt;Node15</title>
<path fill="none" stroke="#404040" d="M564.51,-738.98C567.62,-706.24 572.34,-670.44 579.5,-638 584.51,-615.31 592.68,-590.86 600.25,-570.61"/>
<polygon fill="none" stroke="#404040" points="600.32,-570.43 598.73,-563.39 604.61,-559.22 606.2,-566.25 600.32,-570.43"/>
<text text-anchor="middle" x="608.5" y="-652" font-family="Helvetica,sans-Serif" font-size="10.00"> +elements</text>
</g>
<!-- Node17 -->
<g id="node17" class="node">
<title>Node17</title>
<g id="a_node17"><a xlink:title=" ">
<polygon fill="white" stroke="#bfbfbf" points="524,-1091.5 524,-1148.5 593,-1148.5 593,-1091.5 524,-1091.5"/>
<text text-anchor="middle" x="558.5" y="-1136.5" font-family="Helvetica,sans-Serif" font-size="10.00">std::mutex</text>
<polyline fill="none" stroke="#bfbfbf" points="524,-1129.5 593,-1129.5 "/>
<text text-anchor="middle" x="558.5" y="-1117.5" font-family="Helvetica,sans-Serif" font-size="10.00"> </text>
<polyline fill="none" stroke="#bfbfbf" points="524,-1110.5 593,-1110.5 "/>
<text text-anchor="middle" x="558.5" y="-1098.5" font-family="Helvetica,sans-Serif" font-size="10.00"> </text>
</a>
</g>
</g>
<!-- Node17&#45;&gt;Node16 -->
<g id="edge19" class="edge">
<title>Node17&#45;&gt;Node16</title>
<path fill="none" stroke="#404040" d="M558.5,-1091.33C558.5,-1063.09 558.5,-1017.27 558.5,-973.17"/>
<polygon fill="none" stroke="#404040" points="558.5,-973.1 554.5,-967.1 558.5,-961.1 562.5,-967.1 558.5,-973.1"/>
<text text-anchor="middle" x="580.5" y="-1048.5" font-family="Helvetica,sans-Serif" font-size="10.00"> &#45;_mutex</text>
</g>
<!-- Node18&#45;&gt;Node15 -->
<g id="edge20" class="edge">
<title>Node18&#45;&gt;Node15</title>
<path fill="none" stroke="orange" d="M674.18,-811.45C661.76,-747.8 636.78,-619.74 624.97,-559.18"/>
<polygon fill="orange" stroke="orange" points="670.78,-812.32 676.13,-821.46 677.65,-810.98 670.78,-812.32"/>
<text text-anchor="start" x="645.5" y="-657.5" font-family="Helvetica,sans-Serif" font-size="10.00"> &lt; RayTracer::Images</text>
<text text-anchor="middle" x="698" y="-646.5" font-family="Helvetica,sans-Serif" font-size="10.00">::Color &gt;</text>
</g>
<!-- Node19 -->
<g id="node19" class="node">
<title>Node19</title>
<g id="a_node19"><a xlink:href="a01239.html" target="_top" xlink:title="Logger singleton.">
<polygon fill="white" stroke="black" points="732,-248.5 732,-371.5 839,-371.5 839,-248.5 732,-248.5"/>
<text text-anchor="middle" x="785.5" y="-359.5" font-family="Helvetica,sans-Serif" font-size="10.00">RayTracer::ILogger</text>
<polyline fill="none" stroke="black" points="732,-352.5 839,-352.5 "/>
<text text-anchor="middle" x="785.5" y="-340.5" font-family="Helvetica,sans-Serif" font-size="10.00"> </text>
<polyline fill="none" stroke="black" points="732,-333.5 839,-333.5 "/>
<text text-anchor="start" x="740" y="-321.5" font-family="Helvetica,sans-Serif" font-size="10.00">+ ~ILogger()</text>
<text text-anchor="start" x="740" y="-310.5" font-family="Helvetica,sans-Serif" font-size="10.00">+ fatal()</text>
<text text-anchor="start" x="740" y="-299.5" font-family="Helvetica,sans-Serif" font-size="10.00">+ error()</text>
<text text-anchor="start" x="740" y="-288.5" font-family="Helvetica,sans-Serif" font-size="10.00">+ warn()</text>
<text text-anchor="start" x="740" y="-277.5" font-family="Helvetica,sans-Serif" font-size="10.00">+ info()</text>
<text text-anchor="start" x="740" y="-266.5" font-family="Helvetica,sans-Serif" font-size="10.00">+ debug()</text>
<text text-anchor="start" x="740" y="-255.5" font-family="Helvetica,sans-Serif" font-size="10.00">+ trace()</text>
</a>
</g>
</g>
<!-- Node19&#45;&gt;Node1 -->
<g id="edge23" class="edge">
<title>Node19&#45;&gt;Node1</title>
<path fill="none" stroke="#404040" d="M731.91,-251.78C727.07,-246.76 722.21,-241.77 717.5,-237 704.46,-223.81 702.9,-218.32 687.5,-208 632.22,-170.95 562.67,-141.45 510.02,-122.04"/>
<polygon fill="none" stroke="#404040" points="510,-122.03 502.99,-123.74 498.72,-117.93 505.72,-116.22 510,-122.03"/>
<text text-anchor="middle" x="722" y="-211" font-family="Helvetica,sans-Serif" font-size="10.00"> &#45;_logger</text>
</g>
</g>
</svg>
