<?xml version="1.0" encoding="UTF-8" standalone="no"?>
<!DOCTYPE svg PUBLIC "-//W3C//DTD SVG 1.1//EN"
 "http://www.w3.org/Graphics/SVG/1.1/DTD/svg11.dtd">
<!-- Generated by graphviz version 2.43.0 (0)
 -->
<!-- Title: RayTracer::PluginsExt::Camera::CameraCreator Pages: 1 -->
<svg width="1125pt" height="1422pt"
 viewBox="0.00 0.00 1125.00 1422.00" xmlns="http://www.w3.org/2000/svg" xmlns:xlink="http://www.w3.org/1999/xlink">
<g id="graph0" class="graph" transform="scale(1 1) rotate(0) translate(4 1418)">
<title>RayTracer::PluginsExt::Camera::CameraCreator</title>
<polygon fill="white" stroke="transparent" points="-4,4 -4,-1418 1121,-1418 1121,4 -4,4"/>
<!-- Node1 -->
<g id="node1" class="node">
<title>Node1</title>
<g id="a_node1"><a xlink:title=" ">
<polygon fill="#bfbfbf" stroke="black" points="651.5,-0.5 651.5,-79.5 792.5,-79.5 792.5,-0.5 651.5,-0.5"/>
<text text-anchor="start" x="659.5" y="-67.5" font-family="Helvetica,sans-Serif" font-size="10.00">RayTracer::PluginsExt</text>
<text text-anchor="middle" x="722" y="-56.5" font-family="Helvetica,sans-Serif" font-size="10.00">::Camera::CameraCreator</text>
<polyline fill="none" stroke="black" points="651.5,-49.5 792.5,-49.5 "/>
<text text-anchor="middle" x="722" y="-37.5" font-family="Helvetica,sans-Serif" font-size="10.00"> </text>
<polyline fill="none" stroke="black" points="651.5,-30.5 792.5,-30.5 "/>
<text text-anchor="start" x="659.5" y="-18.5" font-family="Helvetica,sans-Serif" font-size="10.00">+ ~CameraCreator()</text>
<text text-anchor="start" x="659.5" y="-7.5" font-family="Helvetica,sans-Serif" font-size="10.00">+ create()</text>
</a>
</g>
</g>
<!-- Node2 -->
<g id="node2" class="node">
<title>Node2</title>
<g id="a_node2"><a xlink:href="a01336.html" target="_top" xlink:title="The IEntityCreator.">
<polygon fill="white" stroke="black" points="639.5,-127.5 639.5,-206.5 772.5,-206.5 772.5,-127.5 639.5,-127.5"/>
<text text-anchor="start" x="647.5" y="-194.5" font-family="Helvetica,sans-Serif" font-size="10.00">RayTracer::Plugins</text>
<text text-anchor="middle" x="706" y="-183.5" font-family="Helvetica,sans-Serif" font-size="10.00">::Entities::IEntityCreator</text>
<polyline fill="none" stroke="black" points="639.5,-176.5 772.5,-176.5 "/>
<text text-anchor="middle" x="706" y="-164.5" font-family="Helvetica,sans-Serif" font-size="10.00"> </text>
<polyline fill="none" stroke="black" points="639.5,-157.5 772.5,-157.5 "/>
<text text-anchor="start" x="647.5" y="-145.5" font-family="Helvetica,sans-Serif" font-size="10.00">+ ~IEntityCreator()</text>
<text text-anchor="start" x="647.5" y="-134.5" font-family="Helvetica,sans-Serif" font-size="10.00">+ create()</text>
</a>
</g>
</g>
<!-- Node2&#45;&gt;Node1 -->
<g id="edge1" class="edge">
<title>Node2&#45;&gt;Node1</title>
<path fill="none" stroke="midnightblue" d="M712.24,-117.22C713.84,-104.74 715.54,-91.5 717.06,-79.61"/>
<polygon fill="none" stroke="midnightblue" points="708.73,-117.11 710.93,-127.48 715.67,-118 708.73,-117.11"/>
</g>
<!-- Node3 -->
<g id="node3" class="node">
<title>Node3</title>
<g id="a_node3"><a xlink:title=" ">
<polygon fill="white" stroke="#bfbfbf" points="791,-127.5 791,-206.5 919,-206.5 919,-127.5 791,-127.5"/>
<text text-anchor="start" x="799" y="-194.5" font-family="Helvetica,sans-Serif" font-size="10.00">std::vector&lt; RayTracer</text>
<text text-anchor="start" x="799" y="-183.5" font-family="Helvetica,sans-Serif" font-size="10.00">::PluginsExt::Camera::</text>
<text text-anchor="middle" x="855" y="-172.5" font-family="Helvetica,sans-Serif" font-size="10.00">CameraEntity * &gt;</text>
<polyline fill="none" stroke="#bfbfbf" points="791,-165.5 919,-165.5 "/>
<text text-anchor="middle" x="855" y="-153.5" font-family="Helvetica,sans-Serif" font-size="10.00"> </text>
<polyline fill="none" stroke="#bfbfbf" points="791,-146.5 919,-146.5 "/>
<text text-anchor="middle" x="855" y="-134.5" font-family="Helvetica,sans-Serif" font-size="10.00"> </text>
</a>
</g>
</g>
<!-- Node3&#45;&gt;Node1 -->
<g id="edge2" class="edge">
<title>Node3&#45;&gt;Node1</title>
<path fill="none" stroke="#404040" d="M814.01,-127.48C800.74,-115 785.87,-101.02 772.01,-88"/>
<polygon fill="none" stroke="#404040" points="771.83,-87.83 764.72,-86.64 763.08,-79.61 770.19,-80.81 771.83,-87.83"/>
<text text-anchor="middle" x="821" y="-101" font-family="Helvetica,sans-Serif" font-size="10.00"> &#45;_elements</text>
</g>
<!-- Node4 -->
<g id="node4" class="node">
<title>Node4</title>
<g id="a_node4"><a xlink:href="a01472.html" target="_top" xlink:title=" ">
<polygon fill="white" stroke="black" points="486,-254.5 486,-443.5 620,-443.5 620,-254.5 486,-254.5"/>
<text text-anchor="start" x="494" y="-431.5" font-family="Helvetica,sans-Serif" font-size="10.00">RayTracer::PluginsExt</text>
<text text-anchor="middle" x="553" y="-420.5" font-family="Helvetica,sans-Serif" font-size="10.00">::Camera::CameraEntity</text>
<polyline fill="none" stroke="black" points="486,-413.5 620,-413.5 "/>
<text text-anchor="middle" x="553" y="-401.5" font-family="Helvetica,sans-Serif" font-size="10.00"> </text>
<polyline fill="none" stroke="black" points="486,-394.5 620,-394.5 "/>
<text text-anchor="start" x="494" y="-382.5" font-family="Helvetica,sans-Serif" font-size="10.00">+ CameraEntity()</text>
<text text-anchor="start" x="494" y="-371.5" font-family="Helvetica,sans-Serif" font-size="10.00">+ ~CameraEntity()</text>
<text text-anchor="start" x="494" y="-360.5" font-family="Helvetica,sans-Serif" font-size="10.00">+ getType()</text>
<text text-anchor="start" x="494" y="-349.5" font-family="Helvetica,sans-Serif" font-size="10.00">+ getTransform()</text>
<text text-anchor="start" x="494" y="-338.5" font-family="Helvetica,sans-Serif" font-size="10.00">+ getTransform()</text>
<text text-anchor="start" x="494" y="-327.5" font-family="Helvetica,sans-Serif" font-size="10.00">+ getFocal()</text>
<text text-anchor="start" x="494" y="-316.5" font-family="Helvetica,sans-Serif" font-size="10.00">+ setFocal()</text>
<text text-anchor="start" x="494" y="-305.5" font-family="Helvetica,sans-Serif" font-size="10.00">+ setSize()</text>
<text text-anchor="start" x="494" y="-294.5" font-family="Helvetica,sans-Serif" font-size="10.00">+ getSize()</text>
<text text-anchor="start" x="494" y="-283.5" font-family="Helvetica,sans-Serif" font-size="10.00">+ render()</text>
<text text-anchor="start" x="494" y="-272.5" font-family="Helvetica,sans-Serif" font-size="10.00">+ getImage()</text>
<text text-anchor="start" x="494" y="-261.5" font-family="Helvetica,sans-Serif" font-size="10.00">+ getFilters()</text>
</a>
</g>
</g>
<!-- Node4&#45;&gt;Node3 -->
<g id="edge3" class="edge">
<title>Node4&#45;&gt;Node3</title>
<path fill="none" stroke="#404040" d="M620.02,-308.05C667.46,-279.78 731.1,-241.84 780.19,-212.59"/>
<polygon fill="none" stroke="#404040" points="780.44,-212.44 783.55,-205.93 790.75,-206.29 787.65,-212.8 780.44,-212.44"/>
<text text-anchor="middle" x="786" y="-228" font-family="Helvetica,sans-Serif" font-size="10.00"> +elements</text>
</g>
<!-- Node5 -->
<g id="node5" class="node">
<title>Node5</title>
<g id="a_node5"><a xlink:href="a01192.html" target="_top" xlink:title="The ICamera class.">
<polygon fill="white" stroke="black" points="704.5,-491.5 704.5,-636.5 811.5,-636.5 811.5,-491.5 704.5,-491.5"/>
<text text-anchor="start" x="712.5" y="-624.5" font-family="Helvetica,sans-Serif" font-size="10.00">RayTracer::Entities</text>
<text text-anchor="middle" x="758" y="-613.5" font-family="Helvetica,sans-Serif" font-size="10.00">::ICamera</text>
<polyline fill="none" stroke="black" points="704.5,-606.5 811.5,-606.5 "/>
<text text-anchor="middle" x="758" y="-594.5" font-family="Helvetica,sans-Serif" font-size="10.00"> </text>
<polyline fill="none" stroke="black" points="704.5,-587.5 811.5,-587.5 "/>
<text text-anchor="start" x="712.5" y="-575.5" font-family="Helvetica,sans-Serif" font-size="10.00">+ ~ICamera()</text>
<text text-anchor="start" x="712.5" y="-564.5" font-family="Helvetica,sans-Serif" font-size="10.00">+ getFocal()</text>
<text text-anchor="start" x="712.5" y="-553.5" font-family="Helvetica,sans-Serif" font-size="10.00">+ setFocal()</text>
<text text-anchor="start" x="712.5" y="-542.5" font-family="Helvetica,sans-Serif" font-size="10.00">+ setSize()</text>
<text text-anchor="start" x="712.5" y="-531.5" font-family="Helvetica,sans-Serif" font-size="10.00">+ getSize()</text>
<text text-anchor="start" x="712.5" y="-520.5" font-family="Helvetica,sans-Serif" font-size="10.00">+ render()</text>
<text text-anchor="start" x="712.5" y="-509.5" font-family="Helvetica,sans-Serif" font-size="10.00">+ getImage()</text>
<text text-anchor="start" x="712.5" y="-498.5" font-family="Helvetica,sans-Serif" font-size="10.00">+ getFilters()</text>
</a>
</g>
</g>
<!-- Node5&#45;&gt;Node4 -->
<g id="edge4" class="edge">
<title>Node5&#45;&gt;Node4</title>
<path fill="none" stroke="midnightblue" d="M697.06,-498.39C694.68,-495.89 692.32,-493.42 690,-491 667.33,-467.34 642.4,-441.6 620.09,-418.66"/>
<polygon fill="none" stroke="midnightblue" points="694.82,-501.11 704.25,-505.94 699.89,-496.29 694.82,-501.11"/>
</g>
<!-- Node6 -->
<g id="node6" class="node">
<title>Node6</title>
<g id="a_node6"><a xlink:href="a01196.html" target="_top" xlink:title="The IEntity class.">
<polygon fill="white" stroke="black" points="844.5,-728.5 844.5,-829.5 951.5,-829.5 951.5,-728.5 844.5,-728.5"/>
<text text-anchor="start" x="852.5" y="-817.5" font-family="Helvetica,sans-Serif" font-size="10.00">RayTracer::Entities</text>
<text text-anchor="middle" x="898" y="-806.5" font-family="Helvetica,sans-Serif" font-size="10.00">::IEntity</text>
<polyline fill="none" stroke="black" points="844.5,-799.5 951.5,-799.5 "/>
<text text-anchor="middle" x="898" y="-787.5" font-family="Helvetica,sans-Serif" font-size="10.00"> </text>
<polyline fill="none" stroke="black" points="844.5,-780.5 951.5,-780.5 "/>
<text text-anchor="start" x="852.5" y="-768.5" font-family="Helvetica,sans-Serif" font-size="10.00">+ ~IEntity()</text>
<text text-anchor="start" x="852.5" y="-757.5" font-family="Helvetica,sans-Serif" font-size="10.00">+ getTransform()</text>
<text text-anchor="start" x="852.5" y="-746.5" font-family="Helvetica,sans-Serif" font-size="10.00">+ getTransform()</text>
<text text-anchor="start" x="852.5" y="-735.5" font-family="Helvetica,sans-Serif" font-size="10.00">+ getType()</text>
</a>
</g>
</g>
<!-- Node6&#45;&gt;Node5 -->
<g id="edge5" class="edge">
<title>Node6&#45;&gt;Node5</title>
<path fill="none" stroke="midnightblue" d="M859.75,-719.81C842.86,-694.11 822.84,-663.65 805.04,-636.57"/>
<polygon fill="none" stroke="midnightblue" points="856.94,-721.9 865.35,-728.33 862.79,-718.05 856.94,-721.9"/>
</g>
<!-- Node7 -->
<g id="node7" class="node">
<title>Node7</title>
<g id="a_node7"><a xlink:href="a01216.html" target="_top" xlink:title="The Transform class.">
<polygon fill="white" stroke="black" points="132,-706.5 132,-851.5 258,-851.5 258,-706.5 132,-706.5"/>
<text text-anchor="start" x="140" y="-839.5" font-family="Helvetica,sans-Serif" font-size="10.00">RayTracer::Entities</text>
<text text-anchor="middle" x="195" y="-828.5" font-family="Helvetica,sans-Serif" font-size="10.00">::Transform::Transform</text>
<polyline fill="none" stroke="black" points="132,-821.5 258,-821.5 "/>
<text text-anchor="middle" x="195" y="-809.5" font-family="Helvetica,sans-Serif" font-size="10.00"> </text>
<polyline fill="none" stroke="black" points="132,-802.5 258,-802.5 "/>
<text text-anchor="start" x="140" y="-790.5" font-family="Helvetica,sans-Serif" font-size="10.00">+ Transform()</text>
<text text-anchor="start" x="140" y="-779.5" font-family="Helvetica,sans-Serif" font-size="10.00">+ setPosition()</text>
<text text-anchor="start" x="140" y="-768.5" font-family="Helvetica,sans-Serif" font-size="10.00">+ getPosition()</text>
<text text-anchor="start" x="140" y="-757.5" font-family="Helvetica,sans-Serif" font-size="10.00">+ setRotation()</text>
<text text-anchor="start" x="140" y="-746.5" font-family="Helvetica,sans-Serif" font-size="10.00">+ getRotation()</text>
<text text-anchor="start" x="140" y="-735.5" font-family="Helvetica,sans-Serif" font-size="10.00">+ setScale()</text>
<text text-anchor="start" x="140" y="-724.5" font-family="Helvetica,sans-Serif" font-size="10.00">+ getScale()</text>
<text text-anchor="start" x="140" y="-713.5" font-family="Helvetica,sans-Serif" font-size="10.00">+ operator=()</text>
</a>
</g>
</g>
<!-- Node7&#45;&gt;Node4 -->
<g id="edge6" class="edge">
<title>Node7&#45;&gt;Node4</title>
<path fill="none" stroke="#404040" d="M182.36,-706.25C175.4,-643.84 175.55,-553.81 219,-491 276.9,-407.3 394.91,-373.08 474,-359.23"/>
<polygon fill="none" stroke="#404040" points="474.02,-359.23 479.28,-354.3 485.86,-357.25 480.6,-362.19 474.02,-359.23"/>
<text text-anchor="middle" x="249.5" y="-561.5" font-family="Helvetica,sans-Serif" font-size="10.00"> &#45;_transform</text>
</g>
<!-- Node8 -->
<g id="node8" class="node">
<title>Node8</title>
<g id="a_node8"><a xlink:href="a01212.html" target="_top" xlink:title="The ITransform class.">
<polygon fill="white" stroke="black" points="136.5,-1037 136.5,-1182 265.5,-1182 265.5,-1037 136.5,-1037"/>
<text text-anchor="start" x="144.5" y="-1170" font-family="Helvetica,sans-Serif" font-size="10.00">RayTracer::Entities</text>
<text text-anchor="middle" x="201" y="-1159" font-family="Helvetica,sans-Serif" font-size="10.00">::Transform::ITransform</text>
<polyline fill="none" stroke="black" points="136.5,-1152 265.5,-1152 "/>
<text text-anchor="middle" x="201" y="-1140" font-family="Helvetica,sans-Serif" font-size="10.00"> </text>
<polyline fill="none" stroke="black" points="136.5,-1133 265.5,-1133 "/>
<text text-anchor="start" x="144.5" y="-1121" font-family="Helvetica,sans-Serif" font-size="10.00">+ ~ITransform()</text>
<text text-anchor="start" x="144.5" y="-1110" font-family="Helvetica,sans-Serif" font-size="10.00">+ setPosition()</text>
<text text-anchor="start" x="144.5" y="-1099" font-family="Helvetica,sans-Serif" font-size="10.00">+ getPosition()</text>
<text text-anchor="start" x="144.5" y="-1088" font-family="Helvetica,sans-Serif" font-size="10.00">+ setRotation()</text>
<text text-anchor="start" x="144.5" y="-1077" font-family="Helvetica,sans-Serif" font-size="10.00">+ getRotation()</text>
<text text-anchor="start" x="144.5" y="-1066" font-family="Helvetica,sans-Serif" font-size="10.00">+ setScale()</text>
<text text-anchor="start" x="144.5" y="-1055" font-family="Helvetica,sans-Serif" font-size="10.00">+ getScale()</text>
<text text-anchor="start" x="144.5" y="-1044" font-family="Helvetica,sans-Serif" font-size="10.00">+ operator=()</text>
</a>
</g>
</g>
<!-- Node8&#45;&gt;Node7 -->
<g id="edge7" class="edge">
<title>Node8&#45;&gt;Node7</title>
<path fill="none" stroke="midnightblue" d="M199.5,-1026.62C198.52,-972.82 197.25,-903.11 196.31,-851.53"/>
<polygon fill="none" stroke="midnightblue" points="196.01,-1026.88 199.69,-1036.82 203.01,-1026.75 196.01,-1026.88"/>
</g>
<!-- Node9 -->
<g id="node9" class="node">
<title>Node9</title>
<g id="a_node9"><a xlink:href="a01224.html" target="_top" xlink:title="The Vector3f class.">
<polygon fill="white" stroke="black" points="0,-943.5 0,-1275.5 118,-1275.5 118,-943.5 0,-943.5"/>
<text text-anchor="start" x="8" y="-1263.5" font-family="Helvetica,sans-Serif" font-size="10.00">RayTracer::Entities</text>
<text text-anchor="middle" x="59" y="-1252.5" font-family="Helvetica,sans-Serif" font-size="10.00">::Transform::Vector3f</text>
<polyline fill="none" stroke="black" points="0,-1245.5 118,-1245.5 "/>
<text text-anchor="middle" x="59" y="-1233.5" font-family="Helvetica,sans-Serif" font-size="10.00"> </text>
<polyline fill="none" stroke="black" points="0,-1226.5 118,-1226.5 "/>
<text text-anchor="start" x="8" y="-1214.5" font-family="Helvetica,sans-Serif" font-size="10.00">+ ~Vector3f()</text>
<text text-anchor="start" x="8" y="-1203.5" font-family="Helvetica,sans-Serif" font-size="10.00">+ Vector3f()</text>
<text text-anchor="start" x="8" y="-1192.5" font-family="Helvetica,sans-Serif" font-size="10.00">+ Vector3f()</text>
<text text-anchor="start" x="8" y="-1181.5" font-family="Helvetica,sans-Serif" font-size="10.00">+ Vector3f()</text>
<text text-anchor="start" x="8" y="-1170.5" font-family="Helvetica,sans-Serif" font-size="10.00">+ Vector3f()</text>
<text text-anchor="start" x="8" y="-1159.5" font-family="Helvetica,sans-Serif" font-size="10.00">+ operator+()</text>
<text text-anchor="start" x="8" y="-1148.5" font-family="Helvetica,sans-Serif" font-size="10.00">+ operator&#45;()</text>
<text text-anchor="start" x="8" y="-1137.5" font-family="Helvetica,sans-Serif" font-size="10.00">+ operator*()</text>
<text text-anchor="start" x="8" y="-1126.5" font-family="Helvetica,sans-Serif" font-size="10.00">+ operator/()</text>
<text text-anchor="start" x="8" y="-1115.5" font-family="Helvetica,sans-Serif" font-size="10.00">+ operator=()</text>
<text text-anchor="start" x="8" y="-1104.5" font-family="Helvetica,sans-Serif" font-size="10.00">+ getX()</text>
<text text-anchor="start" x="8" y="-1093.5" font-family="Helvetica,sans-Serif" font-size="10.00">+ getY()</text>
<text text-anchor="start" x="8" y="-1082.5" font-family="Helvetica,sans-Serif" font-size="10.00">+ getZ()</text>
<text text-anchor="start" x="8" y="-1071.5" font-family="Helvetica,sans-Serif" font-size="10.00">+ getNorm()</text>
<text text-anchor="start" x="8" y="-1060.5" font-family="Helvetica,sans-Serif" font-size="10.00">+ getNormalized()</text>
<text text-anchor="start" x="8" y="-1049.5" font-family="Helvetica,sans-Serif" font-size="10.00">+ getCrossed()</text>
<text text-anchor="start" x="8" y="-1038.5" font-family="Helvetica,sans-Serif" font-size="10.00">+ dot()</text>
<text text-anchor="start" x="8" y="-1027.5" font-family="Helvetica,sans-Serif" font-size="10.00">+ getDistance()</text>
<text text-anchor="start" x="8" y="-1016.5" font-family="Helvetica,sans-Serif" font-size="10.00">+ toDegrees()</text>
<text text-anchor="start" x="8" y="-1005.5" font-family="Helvetica,sans-Serif" font-size="10.00">+ toRadians()</text>
<text text-anchor="start" x="8" y="-994.5" font-family="Helvetica,sans-Serif" font-size="10.00">+ rotateVector()</text>
<text text-anchor="start" x="8" y="-983.5" font-family="Helvetica,sans-Serif" font-size="10.00">+ getAngle()</text>
<text text-anchor="start" x="8" y="-972.5" font-family="Helvetica,sans-Serif" font-size="10.00">+ rotateX()</text>
<text text-anchor="start" x="8" y="-961.5" font-family="Helvetica,sans-Serif" font-size="10.00">+ rotateY()</text>
<text text-anchor="start" x="8" y="-950.5" font-family="Helvetica,sans-Serif" font-size="10.00">+ rotateZ()</text>
</a>
</g>
</g>
<!-- Node9&#45;&gt;Node7 -->
<g id="edge8" class="edge">
<title>Node9&#45;&gt;Node7</title>
<path fill="none" stroke="#404040" d="M118.02,-950.38C125.86,-930.63 133.97,-910.78 142,-892 146.09,-882.44 150.52,-872.5 155.02,-862.67"/>
<polygon fill="none" stroke="#404040" points="155.08,-862.53 153.97,-855.4 160.12,-851.63 161.23,-858.76 155.08,-862.53"/>
<text text-anchor="middle" x="168" y="-917" font-family="Helvetica,sans-Serif" font-size="10.00"> &#45;_position</text>
<text text-anchor="middle" x="168" y="-906" font-family="Helvetica,sans-Serif" font-size="10.00">&#45;_rotation</text>
<text text-anchor="middle" x="168" y="-895" font-family="Helvetica,sans-Serif" font-size="10.00">&#45;_scale</text>
</g>
<!-- Node10 -->
<g id="node10" class="node">
<title>Node10</title>
<g id="a_node10"><a xlink:title=" ">
<polygon fill="white" stroke="#bfbfbf" points="269,-1356.5 269,-1413.5 319,-1413.5 319,-1356.5 269,-1356.5"/>
<text text-anchor="middle" x="294" y="-1401.5" font-family="Helvetica,sans-Serif" font-size="10.00">double</text>
<polyline fill="none" stroke="#bfbfbf" points="269,-1394.5 319,-1394.5 "/>
<text text-anchor="middle" x="294" y="-1382.5" font-family="Helvetica,sans-Serif" font-size="10.00"> </text>
<polyline fill="none" stroke="#bfbfbf" points="269,-1375.5 319,-1375.5 "/>
<text text-anchor="middle" x="294" y="-1363.5" font-family="Helvetica,sans-Serif" font-size="10.00"> </text>
</a>
</g>
</g>
<!-- Node10&#45;&gt;Node4 -->
<g id="edge14" class="edge">
<title>Node10&#45;&gt;Node4</title>
<path fill="none" stroke="#404040" d="M294,-1356.44C294,-1307.11 294,-1200.48 294,-1110.5 294,-1110.5 294,-1110.5 294,-563 294,-468.45 398.25,-408.14 474.47,-376.68"/>
<polygon fill="none" stroke="#404040" points="474.83,-376.53 478.91,-370.58 485.96,-372.06 481.89,-378.01 474.83,-376.53"/>
<text text-anchor="middle" x="312.5" y="-776.5" font-family="Helvetica,sans-Serif" font-size="10.00"> &#45;_focal</text>
</g>
<!-- Node10&#45;&gt;Node9 -->
<g id="edge9" class="edge">
<title>Node10&#45;&gt;Node9</title>
<path fill="none" stroke="#404040" d="M268.79,-1373.6C232.78,-1357.59 166.61,-1323.67 127,-1276 126.52,-1275.42 126.04,-1274.84 125.57,-1274.25"/>
<polygon fill="none" stroke="#404040" points="125.38,-1274.01 118.57,-1271.65 118.14,-1264.45 124.95,-1266.81 125.38,-1274.01"/>
<text text-anchor="middle" x="211.5" y="-1324.5" font-family="Helvetica,sans-Serif" font-size="10.00"> &#45;_x</text>
<text text-anchor="middle" x="211.5" y="-1313.5" font-family="Helvetica,sans-Serif" font-size="10.00">&#45;_y</text>
<text text-anchor="middle" x="211.5" y="-1302.5" font-family="Helvetica,sans-Serif" font-size="10.00">&#45;_z</text>
</g>
<!-- Node19 -->
<g id="node19" class="node">
<title>Node19</title>
<g id="a_node19"><a xlink:href="a01264.html" target="_top" xlink:title="The Color class.">
<polygon fill="white" stroke="black" points="453.5,-998.5 453.5,-1220.5 566.5,-1220.5 566.5,-998.5 453.5,-998.5"/>
<text text-anchor="start" x="461.5" y="-1208.5" font-family="Helvetica,sans-Serif" font-size="10.00">RayTracer::Images::</text>
<text text-anchor="middle" x="510" y="-1197.5" font-family="Helvetica,sans-Serif" font-size="10.00">Color</text>
<polyline fill="none" stroke="black" points="453.5,-1190.5 566.5,-1190.5 "/>
<text text-anchor="middle" x="510" y="-1178.5" font-family="Helvetica,sans-Serif" font-size="10.00"> </text>
<polyline fill="none" stroke="black" points="453.5,-1171.5 566.5,-1171.5 "/>
<text text-anchor="start" x="461.5" y="-1159.5" font-family="Helvetica,sans-Serif" font-size="10.00">+ ~Color()</text>
<text text-anchor="start" x="461.5" y="-1148.5" font-family="Helvetica,sans-Serif" font-size="10.00">+ Color()</text>
<text text-anchor="start" x="461.5" y="-1137.5" font-family="Helvetica,sans-Serif" font-size="10.00">+ Color()</text>
<text text-anchor="start" x="461.5" y="-1126.5" font-family="Helvetica,sans-Serif" font-size="10.00">+ Color()</text>
<text text-anchor="start" x="461.5" y="-1115.5" font-family="Helvetica,sans-Serif" font-size="10.00">+ operator+()</text>
<text text-anchor="start" x="461.5" y="-1104.5" font-family="Helvetica,sans-Serif" font-size="10.00">+ operator&#45;()</text>
<text text-anchor="start" x="461.5" y="-1093.5" font-family="Helvetica,sans-Serif" font-size="10.00">+ operator*()</text>
<text text-anchor="start" x="461.5" y="-1082.5" font-family="Helvetica,sans-Serif" font-size="10.00">+ operator/()</text>
<text text-anchor="start" x="461.5" y="-1071.5" font-family="Helvetica,sans-Serif" font-size="10.00">+ operator=()</text>
<text text-anchor="start" x="461.5" y="-1060.5" font-family="Helvetica,sans-Serif" font-size="10.00">+ operator[]()</text>
<text text-anchor="start" x="461.5" y="-1049.5" font-family="Helvetica,sans-Serif" font-size="10.00">+ operator[]()</text>
<text text-anchor="start" x="461.5" y="-1038.5" font-family="Helvetica,sans-Serif" font-size="10.00">+ set()</text>
<text text-anchor="start" x="461.5" y="-1027.5" font-family="Helvetica,sans-Serif" font-size="10.00">+ applyAlpha()</text>
<text text-anchor="start" x="461.5" y="-1016.5" font-family="Helvetica,sans-Serif" font-size="10.00">+ mergeColor()</text>
<text text-anchor="start" x="461.5" y="-1005.5" font-family="Helvetica,sans-Serif" font-size="10.00">+ applyDistance()</text>
</a>
</g>
</g>
<!-- Node10&#45;&gt;Node19 -->
<g id="edge21" class="edge">
<title>Node10&#45;&gt;Node19</title>
<path fill="none" stroke="#404040" d="M319.12,-1366.28C345.93,-1346.47 388.53,-1312.38 418,-1276 429.2,-1262.17 439.78,-1246.79 449.5,-1231.13"/>
<polygon fill="none" stroke="#404040" points="449.53,-1231.07 449.23,-1223.86 455.76,-1220.81 456.07,-1228.01 449.53,-1231.07"/>
<text text-anchor="middle" x="410.5" y="-1330" font-family="Helvetica,sans-Serif" font-size="10.00"> &#45;_a</text>
<text text-anchor="middle" x="410.5" y="-1319" font-family="Helvetica,sans-Serif" font-size="10.00">&#45;_b</text>
<text text-anchor="middle" x="410.5" y="-1308" font-family="Helvetica,sans-Serif" font-size="10.00">&#45;_g</text>
<text text-anchor="middle" x="410.5" y="-1297" font-family="Helvetica,sans-Serif" font-size="10.00">&#45;_r</text>
</g>
<!-- Node11 -->
<g id="node11" class="node">
<title>Node11</title>
<g id="a_node11"><a xlink:title=" ">
<polygon fill="white" stroke="#bfbfbf" points="669.5,-739.5 669.5,-818.5 826.5,-818.5 826.5,-739.5 669.5,-739.5"/>
<text text-anchor="start" x="677.5" y="-806.5" font-family="Helvetica,sans-Serif" font-size="10.00">std::list&lt; std::reference</text>
<text text-anchor="start" x="677.5" y="-795.5" font-family="Helvetica,sans-Serif" font-size="10.00">_wrapper&lt; RayTracer::Filters</text>
<text text-anchor="middle" x="748" y="-784.5" font-family="Helvetica,sans-Serif" font-size="10.00">::IFilter &gt; &gt;</text>
<polyline fill="none" stroke="#bfbfbf" points="669.5,-777.5 826.5,-777.5 "/>
<text text-anchor="middle" x="748" y="-765.5" font-family="Helvetica,sans-Serif" font-size="10.00"> </text>
<polyline fill="none" stroke="#bfbfbf" points="669.5,-758.5 826.5,-758.5 "/>
<text text-anchor="middle" x="748" y="-746.5" font-family="Helvetica,sans-Serif" font-size="10.00"> </text>
</a>
</g>
</g>
<!-- Node11&#45;&gt;Node4 -->
<g id="edge10" class="edge">
<title>Node11&#45;&gt;Node4</title>
<path fill="none" stroke="#404040" d="M717.78,-739.26C697.77,-711.98 672.31,-673.89 656,-637 628.88,-575.68 640.57,-554.14 618,-491 613.81,-479.27 609.01,-467.17 603.96,-455.23"/>
<polygon fill="none" stroke="#404040" points="603.8,-454.87 597.75,-450.94 599.05,-443.85 605.1,-447.77 603.8,-454.87"/>
<text text-anchor="middle" x="676" y="-561.5" font-family="Helvetica,sans-Serif" font-size="10.00"> &#45;_filters</text>
</g>
<!-- Node12 -->
<g id="node12" class="node">
<title>Node12</title>
<g id="a_node12"><a xlink:title=" ">
<polygon fill="white" stroke="#bfbfbf" points="713,-1070 713,-1149 829,-1149 829,-1070 713,-1070"/>
<text text-anchor="start" x="721" y="-1137" font-family="Helvetica,sans-Serif" font-size="10.00">reference_wrapper&lt;</text>
<text text-anchor="start" x="721" y="-1126" font-family="Helvetica,sans-Serif" font-size="10.00"> RayTracer::Filters</text>
<text text-anchor="middle" x="771" y="-1115" font-family="Helvetica,sans-Serif" font-size="10.00">::IFilter &gt;</text>
<polyline fill="none" stroke="#bfbfbf" points="713,-1108 829,-1108 "/>
<text text-anchor="middle" x="771" y="-1096" font-family="Helvetica,sans-Serif" font-size="10.00"> </text>
<polyline fill="none" stroke="#bfbfbf" points="713,-1089 829,-1089 "/>
<text text-anchor="middle" x="771" y="-1077" font-family="Helvetica,sans-Serif" font-size="10.00"> </text>
</a>
</g>
</g>
<!-- Node12&#45;&gt;Node11 -->
<g id="edge11" class="edge">
<title>Node12&#45;&gt;Node11</title>
<path fill="none" stroke="#404040" d="M768.29,-1069.85C764.13,-1010.42 756.16,-896.57 751.54,-830.63"/>
<polygon fill="none" stroke="#404040" points="751.53,-830.47 747.12,-824.77 750.7,-818.5 755.11,-824.21 751.53,-830.47"/>
<text text-anchor="middle" x="787" y="-906" font-family="Helvetica,sans-Serif" font-size="10.00"> +elements</text>
</g>
<!-- Node13 -->
<g id="node13" class="node">
<title>Node13</title>
<g id="a_node13"><a xlink:title=" ">
<polygon fill="white" stroke="#bfbfbf" points="921.5,-1081 921.5,-1138 1002.5,-1138 1002.5,-1081 921.5,-1081"/>
<text text-anchor="middle" x="962" y="-1126" font-family="Helvetica,sans-Serif" font-size="10.00">std::list&lt; T &gt;</text>
<polyline fill="none" stroke="#bfbfbf" points="921.5,-1119 1002.5,-1119 "/>
<text text-anchor="middle" x="962" y="-1107" font-family="Helvetica,sans-Serif" font-size="10.00"> </text>
<polyline fill="none" stroke="#bfbfbf" points="921.5,-1100 1002.5,-1100 "/>
<text text-anchor="middle" x="962" y="-1088" font-family="Helvetica,sans-Serif" font-size="10.00"> </text>
</a>
</g>
</g>
<!-- Node13&#45;&gt;Node11 -->
<g id="edge12" class="edge">
<title>Node13&#45;&gt;Node11</title>
<path fill="none" stroke="orange" d="M938.25,-1072.04C897.57,-1009.6 814.92,-882.72 773.24,-818.74"/>
<polygon fill="orange" stroke="orange" points="935.55,-1074.31 943.94,-1080.78 941.41,-1070.49 935.55,-1074.31"/>
<text text-anchor="start" x="842" y="-911.5" font-family="Helvetica,sans-Serif" font-size="10.00"> &lt; std::reference_wrapper</text>
<text text-anchor="middle" x="918" y="-900.5" font-family="Helvetica,sans-Serif" font-size="10.00">&lt; RayTracer::Filters::IFilter &gt; &gt;</text>
</g>
<!-- Node14 -->
<g id="node14" class="node">
<title>Node14</title>
<g id="a_node14"><a xlink:title=" ">
<polygon fill="white" stroke="#bfbfbf" points="788.5,-1356.5 788.5,-1413.5 817.5,-1413.5 817.5,-1356.5 788.5,-1356.5"/>
<text text-anchor="middle" x="803" y="-1401.5" font-family="Helvetica,sans-Serif" font-size="10.00">T</text>
<polyline fill="none" stroke="#bfbfbf" points="788.5,-1394.5 817.5,-1394.5 "/>
<text text-anchor="middle" x="803" y="-1382.5" font-family="Helvetica,sans-Serif" font-size="10.00"> </text>
<polyline fill="none" stroke="#bfbfbf" points="788.5,-1375.5 817.5,-1375.5 "/>
<text text-anchor="middle" x="803" y="-1363.5" font-family="Helvetica,sans-Serif" font-size="10.00"> </text>
</a>
</g>
</g>
<!-- Node14&#45;&gt;Node13 -->
<g id="edge13" class="edge">
<title>Node14&#45;&gt;Node13</title>
<path fill="none" stroke="#404040" d="M817.67,-1358.76C845.64,-1310.66 906.71,-1205.6 939.74,-1148.79"/>
<polygon fill="none" stroke="#404040" points="939.92,-1148.48 939.48,-1141.28 945.95,-1138.1 946.4,-1145.3 939.92,-1148.48"/>
<text text-anchor="middle" x="883" y="-1313.5" font-family="Helvetica,sans-Serif" font-size="10.00"> +elements</text>
</g>
<!-- Node21 -->
<g id="node21" class="node">
<title>Node21</title>
<g id="a_node21"><a xlink:title=" ">
<polygon fill="white" stroke="#bfbfbf" points="597.5,-1081 597.5,-1138 694.5,-1138 694.5,-1081 597.5,-1081"/>
<text text-anchor="middle" x="646" y="-1126" font-family="Helvetica,sans-Serif" font-size="10.00">std::vector&lt; T &gt;</text>
<polyline fill="none" stroke="#bfbfbf" points="597.5,-1119 694.5,-1119 "/>
<text text-anchor="middle" x="646" y="-1107" font-family="Helvetica,sans-Serif" font-size="10.00"> </text>
<polyline fill="none" stroke="#bfbfbf" points="597.5,-1100 694.5,-1100 "/>
<text text-anchor="middle" x="646" y="-1088" font-family="Helvetica,sans-Serif" font-size="10.00"> </text>
</a>
</g>
</g>
<!-- Node14&#45;&gt;Node21 -->
<g id="edge24" class="edge">
<title>Node14&#45;&gt;Node21</title>
<path fill="none" stroke="#404040" d="M788.22,-1371.48C766.91,-1352.72 727.52,-1315.28 704,-1276 680.11,-1236.1 664.08,-1184.9 655.04,-1150.08"/>
<polygon fill="none" stroke="#404040" points="654.94,-1149.69 649.6,-1144.84 652.02,-1138.05 657.36,-1142.9 654.94,-1149.69"/>
<text text-anchor="middle" x="779" y="-1313.5" font-family="Helvetica,sans-Serif" font-size="10.00"> +elements</text>
</g>
<!-- Node15 -->
<g id="node15" class="node">
<title>Node15</title>
<g id="a_node15"><a xlink:href="a01220.html" target="_top" xlink:title="The Vector2i class.">
<polygon fill="white" stroke="black" points="387.5,-684.5 387.5,-873.5 504.5,-873.5 504.5,-684.5 387.5,-684.5"/>
<text text-anchor="start" x="395.5" y="-861.5" font-family="Helvetica,sans-Serif" font-size="10.00">RayTracer::Entities</text>
<text text-anchor="middle" x="446" y="-850.5" font-family="Helvetica,sans-Serif" font-size="10.00">::Transform::Vector2i</text>
<polyline fill="none" stroke="black" points="387.5,-843.5 504.5,-843.5 "/>
<text text-anchor="middle" x="446" y="-831.5" font-family="Helvetica,sans-Serif" font-size="10.00"> </text>
<polyline fill="none" stroke="black" points="387.5,-824.5 504.5,-824.5 "/>
<text text-anchor="start" x="395.5" y="-812.5" font-family="Helvetica,sans-Serif" font-size="10.00">+ ~Vector2i()</text>
<text text-anchor="start" x="395.5" y="-801.5" font-family="Helvetica,sans-Serif" font-size="10.00">+ Vector2i()</text>
<text text-anchor="start" x="395.5" y="-790.5" font-family="Helvetica,sans-Serif" font-size="10.00">+ Vector2i()</text>
<text text-anchor="start" x="395.5" y="-779.5" font-family="Helvetica,sans-Serif" font-size="10.00">+ Vector2i()</text>
<text text-anchor="start" x="395.5" y="-768.5" font-family="Helvetica,sans-Serif" font-size="10.00">+ Vector2i()</text>
<text text-anchor="start" x="395.5" y="-757.5" font-family="Helvetica,sans-Serif" font-size="10.00">+ operator+()</text>
<text text-anchor="start" x="395.5" y="-746.5" font-family="Helvetica,sans-Serif" font-size="10.00">+ operator&#45;()</text>
<text text-anchor="start" x="395.5" y="-735.5" font-family="Helvetica,sans-Serif" font-size="10.00">+ operator*()</text>
<text text-anchor="start" x="395.5" y="-724.5" font-family="Helvetica,sans-Serif" font-size="10.00">+ operator/()</text>
<text text-anchor="start" x="395.5" y="-713.5" font-family="Helvetica,sans-Serif" font-size="10.00">+ operator=()</text>
<text text-anchor="start" x="395.5" y="-702.5" font-family="Helvetica,sans-Serif" font-size="10.00">+ getX()</text>
<text text-anchor="start" x="395.5" y="-691.5" font-family="Helvetica,sans-Serif" font-size="10.00">+ getY()</text>
</a>
</g>
</g>
<!-- Node15&#45;&gt;Node4 -->
<g id="edge15" class="edge">
<title>Node15&#45;&gt;Node4</title>
<path fill="none" stroke="#404040" d="M435.69,-684.22C432.61,-626.98 434.46,-553.12 455,-491 460.76,-473.59 469.41,-456.4 479.23,-440.34"/>
<polygon fill="none" stroke="#404040" points="479.39,-440.08 479.24,-432.87 485.83,-429.95 485.99,-437.16 479.39,-440.08"/>
<text text-anchor="middle" x="471" y="-561.5" font-family="Helvetica,sans-Serif" font-size="10.00"> &#45;_size</text>
</g>
<!-- Node17 -->
<g id="node17" class="node">
<title>Node17</title>
<g id="a_node17"><a xlink:href="a01268.html" target="_top" xlink:title="The Image class.">
<polygon fill="white" stroke="black" points="496.5,-508 496.5,-620 609.5,-620 609.5,-508 496.5,-508"/>
<text text-anchor="start" x="504.5" y="-608" font-family="Helvetica,sans-Serif" font-size="10.00">RayTracer::Images::</text>
<text text-anchor="middle" x="553" y="-597" font-family="Helvetica,sans-Serif" font-size="10.00">Image</text>
<polyline fill="none" stroke="black" points="496.5,-590 609.5,-590 "/>
<text text-anchor="middle" x="553" y="-578" font-family="Helvetica,sans-Serif" font-size="10.00"> </text>
<polyline fill="none" stroke="black" points="496.5,-571 609.5,-571 "/>
<text text-anchor="start" x="504.5" y="-559" font-family="Helvetica,sans-Serif" font-size="10.00">+ Image()</text>
<text text-anchor="start" x="504.5" y="-548" font-family="Helvetica,sans-Serif" font-size="10.00">+ convertToPPM()</text>
<text text-anchor="start" x="504.5" y="-537" font-family="Helvetica,sans-Serif" font-size="10.00">+ operator[]()</text>
<text text-anchor="start" x="504.5" y="-526" font-family="Helvetica,sans-Serif" font-size="10.00">+ operator[]()</text>
<text text-anchor="start" x="504.5" y="-515" font-family="Helvetica,sans-Serif" font-size="10.00">+ getSize()</text>
</a>
</g>
</g>
<!-- Node15&#45;&gt;Node17 -->
<g id="edge18" class="edge">
<title>Node15&#45;&gt;Node17</title>
<path fill="none" stroke="#404040" d="M493.09,-684.27C502.1,-666.32 511.36,-647.88 519.83,-631.04"/>
<polygon fill="none" stroke="#404040" points="519.88,-630.94 519,-623.78 525.26,-620.21 526.14,-627.37 519.88,-630.94"/>
<text text-anchor="middle" x="522" y="-658" font-family="Helvetica,sans-Serif" font-size="10.00"> &#45;_size</text>
</g>
<!-- Node16 -->
<g id="node16" class="node">
<title>Node16</title>
<g id="a_node16"><a xlink:title=" ">
<polygon fill="white" stroke="#bfbfbf" points="380.5,-1081 380.5,-1138 409.5,-1138 409.5,-1081 380.5,-1081"/>
<text text-anchor="middle" x="395" y="-1126" font-family="Helvetica,sans-Serif" font-size="10.00">int</text>
<polyline fill="none" stroke="#bfbfbf" points="380.5,-1119 409.5,-1119 "/>
<text text-anchor="middle" x="395" y="-1107" font-family="Helvetica,sans-Serif" font-size="10.00"> </text>
<polyline fill="none" stroke="#bfbfbf" points="380.5,-1100 409.5,-1100 "/>
<text text-anchor="middle" x="395" y="-1088" font-family="Helvetica,sans-Serif" font-size="10.00"> </text>
</a>
</g>
</g>
<!-- Node16&#45;&gt;Node4 -->
<g id="edge25" class="edge">
<title>Node16&#45;&gt;Node4</title>
<path fill="none" stroke="#404040" d="M388,-1080.83C371.03,-1009.51 331.37,-813.88 363,-655 378.41,-577.61 389.54,-558.14 431,-491 444.43,-469.24 461.19,-447.49 477.95,-427.81"/>
<polygon fill="none" stroke="#404040" points="478.04,-427.7 478.94,-420.54 485.89,-418.62 484.99,-425.77 478.04,-427.7"/>
<text text-anchor="middle" x="397" y="-658" font-family="Helvetica,sans-Serif" font-size="10.00"> &#45;_maxThread</text>
</g>
<!-- Node16&#45;&gt;Node15 -->
<g id="edge16" class="edge">
<title>Node16&#45;&gt;Node15</title>
<path fill="none" stroke="#404040" d="M399.3,-1080.78C405.92,-1038.17 418.93,-954.34 429.54,-885.99"/>
<polygon fill="none" stroke="#404040" points="429.59,-885.71 426.56,-879.17 431.43,-873.86 434.46,-880.4 429.59,-885.71"/>
<text text-anchor="middle" x="438.5" y="-911.5" font-family="Helvetica,sans-Serif" font-size="10.00"> &#45;_x</text>
<text text-anchor="middle" x="438.5" y="-900.5" font-family="Helvetica,sans-Serif" font-size="10.00">&#45;_y</text>
</g>
<!-- Node17&#45;&gt;Node4 -->
<g id="edge17" class="edge">
<title>Node17&#45;&gt;Node4</title>
<path fill="none" stroke="#404040" d="M553,-507.87C553,-491.87 553,-473.83 553,-455.83"/>
<polygon fill="none" stroke="#404040" points="553,-455.7 549,-449.7 553,-443.7 557,-449.7 553,-455.7"/>
<text text-anchor="middle" x="574.5" y="-465" font-family="Helvetica,sans-Serif" font-size="10.00"> &#45;_image</text>
</g>
<!-- Node18 -->
<g id="node18" class="node">
<title>Node18</title>
<g id="a_node18"><a xlink:title=" ">
<polygon fill="white" stroke="#bfbfbf" points="523,-745 523,-813 651,-813 651,-745 523,-745"/>
<text text-anchor="start" x="531" y="-801" font-family="Helvetica,sans-Serif" font-size="10.00">std::vector&lt; RayTracer</text>
<text text-anchor="middle" x="587" y="-790" font-family="Helvetica,sans-Serif" font-size="10.00">::Images::Color &gt;</text>
<polyline fill="none" stroke="#bfbfbf" points="523,-783 651,-783 "/>
<text text-anchor="middle" x="587" y="-771" font-family="Helvetica,sans-Serif" font-size="10.00"> </text>
<polyline fill="none" stroke="#bfbfbf" points="523,-764 651,-764 "/>
<text text-anchor="middle" x="587" y="-752" font-family="Helvetica,sans-Serif" font-size="10.00"> </text>
</a>
</g>
</g>
<!-- Node18&#45;&gt;Node17 -->
<g id="edge19" class="edge">
<title>Node18&#45;&gt;Node17</title>
<path fill="none" stroke="#404040" d="M581.69,-744.72C576.9,-714.73 569.72,-669.74 563.74,-632.28"/>
<polygon fill="none" stroke="#404040" points="563.74,-632.26 558.84,-626.96 561.84,-620.41 566.74,-625.7 563.74,-632.26"/>
<text text-anchor="middle" x="589.5" y="-658" font-family="Helvetica,sans-Serif" font-size="10.00"> &#45;_pixels</text>
</g>
<!-- Node19&#45;&gt;Node18 -->
<g id="edge20" class="edge">
<title>Node19&#45;&gt;Node18</title>
<path fill="none" stroke="#404040" d="M524.25,-998.35C529.78,-964 536.99,-926.17 546,-892 551.96,-869.41 560.63,-844.97 568.47,-824.7"/>
<polygon fill="none" stroke="#404040" points="568.56,-824.46 567.04,-817.41 572.96,-813.3 574.48,-820.34 568.56,-824.46"/>
<text text-anchor="middle" x="575" y="-906" font-family="Helvetica,sans-Serif" font-size="10.00"> +elements</text>
</g>
<!-- Node20 -->
<g id="node20" class="node">
<title>Node20</title>
<g id="a_node20"><a xlink:title=" ">
<polygon fill="white" stroke="#bfbfbf" points="475.5,-1356.5 475.5,-1413.5 544.5,-1413.5 544.5,-1356.5 475.5,-1356.5"/>
<text text-anchor="middle" x="510" y="-1401.5" font-family="Helvetica,sans-Serif" font-size="10.00">std::mutex</text>
<polyline fill="none" stroke="#bfbfbf" points="475.5,-1394.5 544.5,-1394.5 "/>
<text text-anchor="middle" x="510" y="-1382.5" font-family="Helvetica,sans-Serif" font-size="10.00"> </text>
<polyline fill="none" stroke="#bfbfbf" points="475.5,-1375.5 544.5,-1375.5 "/>
<text text-anchor="middle" x="510" y="-1363.5" font-family="Helvetica,sans-Serif" font-size="10.00"> </text>
</a>
</g>
</g>
<!-- Node20&#45;&gt;Node19 -->
<g id="edge22" class="edge">
<title>Node20&#45;&gt;Node19</title>
<path fill="none" stroke="#404040" d="M510,-1356.27C510,-1327.04 510,-1278.94 510,-1233.01"/>
<polygon fill="none" stroke="#404040" points="510,-1232.76 506,-1226.76 510,-1220.76 514,-1226.76 510,-1232.76"/>
<text text-anchor="middle" x="532" y="-1313.5" font-family="Helvetica,sans-Serif" font-size="10.00"> &#45;_mutex</text>
</g>
<!-- Node21&#45;&gt;Node3 -->
<g id="edge27" class="edge">
<title>Node21&#45;&gt;Node3</title>
<path fill="none" stroke="orange" d="M648.4,-1070.55C652.96,-1032.29 666.13,-974.5 704,-943 744.11,-909.64 769.46,-937.93 820,-925 884.56,-908.48 917.48,-924.47 961,-874 988.83,-841.72 980,-822.62 980,-780 980,-780 980,-780 980,-348 980,-291.5 937.94,-239.98 902.61,-206.68"/>
<polygon fill="orange" stroke="orange" points="644.89,-1070.48 647.32,-1080.79 651.85,-1071.21 644.89,-1070.48"/>
<text text-anchor="start" x="980" y="-567" font-family="Helvetica,sans-Serif" font-size="10.00"> &lt; RayTracer::PluginsExt</text>
<text text-anchor="middle" x="1048.5" y="-556" font-family="Helvetica,sans-Serif" font-size="10.00">::Camera::CameraEntity * &gt;</text>
</g>
<!-- Node21&#45;&gt;Node18 -->
<g id="edge23" class="edge">
<title>Node21&#45;&gt;Node18</title>
<path fill="none" stroke="orange" d="M639.19,-1070.59C627.56,-1005.81 604.03,-874.82 592.98,-813.32"/>
<polygon fill="orange" stroke="orange" points="635.81,-1071.55 641.02,-1080.78 642.7,-1070.31 635.81,-1071.55"/>
<text text-anchor="start" x="613" y="-911.5" font-family="Helvetica,sans-Serif" font-size="10.00"> &lt; RayTracer::Images</text>
<text text-anchor="middle" x="665.5" y="-900.5" font-family="Helvetica,sans-Serif" font-size="10.00">::Color &gt;</text>
</g>
<!-- Node22 -->
<g id="node22" class="node">
<title>Node22</title>
<g id="a_node22"><a xlink:href="a01260.html" target="_top" xlink:title="Logger singleton.">
<polygon fill="white" stroke="black" points="829.5,-502.5 829.5,-625.5 936.5,-625.5 936.5,-502.5 829.5,-502.5"/>
<text text-anchor="middle" x="883" y="-613.5" font-family="Helvetica,sans-Serif" font-size="10.00">RayTracer::ILogger</text>
<polyline fill="none" stroke="black" points="829.5,-606.5 936.5,-606.5 "/>
<text text-anchor="middle" x="883" y="-594.5" font-family="Helvetica,sans-Serif" font-size="10.00"> </text>
<polyline fill="none" stroke="black" points="829.5,-587.5 936.5,-587.5 "/>
<text text-anchor="start" x="837.5" y="-575.5" font-family="Helvetica,sans-Serif" font-size="10.00">+ ~ILogger()</text>
<text text-anchor="start" x="837.5" y="-564.5" font-family="Helvetica,sans-Serif" font-size="10.00">+ fatal()</text>
<text text-anchor="start" x="837.5" y="-553.5" font-family="Helvetica,sans-Serif" font-size="10.00">+ error()</text>
<text text-anchor="start" x="837.5" y="-542.5" font-family="Helvetica,sans-Serif" font-size="10.00">+ warn()</text>
<text text-anchor="start" x="837.5" y="-531.5" font-family="Helvetica,sans-Serif" font-size="10.00">+ info()</text>
<text text-anchor="start" x="837.5" y="-520.5" font-family="Helvetica,sans-Serif" font-size="10.00">+ debug()</text>
<text text-anchor="start" x="837.5" y="-509.5" font-family="Helvetica,sans-Serif" font-size="10.00">+ trace()</text>
</a>
</g>
</g>
<!-- Node22&#45;&gt;Node4 -->
<g id="edge26" class="edge">
<title>Node22&#45;&gt;Node4</title>
<path fill="none" stroke="#404040" d="M833.89,-502.35C829.71,-498.33 825.39,-494.49 821,-491 762.98,-444.83 687.55,-406.74 631.5,-381.84"/>
<polygon fill="none" stroke="#404040" points="631.19,-381.7 624.09,-382.95 620.2,-376.88 627.3,-375.63 631.19,-381.7"/>
<text text-anchor="middle" x="815.5" y="-465" font-family="Helvetica,sans-Serif" font-size="10.00"> &#45;_logger</text>
</g>
</g>
</svg>
