<?xml version="1.0" encoding="UTF-8" standalone="no"?>
<!DOCTYPE svg PUBLIC "-//W3C//DTD SVG 1.1//EN"
 "http://www.w3.org/Graphics/SVG/1.1/DTD/svg11.dtd">
<!-- Generated by graphviz version 2.43.0 (0)
 -->
<!-- Title: RayTracer::PluginsExt::Camera::CameraEntity Pages: 1 -->
<svg width="1039pt" height="1168pt"
 viewBox="0.00 0.00 1038.50 1168.00" xmlns="http://www.w3.org/2000/svg" xmlns:xlink="http://www.w3.org/1999/xlink">
<g id="graph0" class="graph" transform="scale(1 1) rotate(0) translate(4 1164)">
<title>RayTracer::PluginsExt::Camera::CameraEntity</title>
<polygon fill="white" stroke="transparent" points="-4,4 -4,-1164 1034.5,-1164 1034.5,4 -4,4"/>
<!-- Node1 -->
<g id="node1" class="node">
<title>Node1</title>
<g id="a_node1"><a xlink:title=" ">
<polygon fill="#bfbfbf" stroke="black" points="364.5,-0.5 364.5,-189.5 498.5,-189.5 498.5,-0.5 364.5,-0.5"/>
<text text-anchor="start" x="372.5" y="-177.5" font-family="Helvetica,sans-Serif" font-size="10.00">RayTracer::PluginsExt</text>
<text text-anchor="middle" x="431.5" y="-166.5" font-family="Helvetica,sans-Serif" font-size="10.00">::Camera::CameraEntity</text>
<polyline fill="none" stroke="black" points="364.5,-159.5 498.5,-159.5 "/>
<text text-anchor="middle" x="431.5" y="-147.5" font-family="Helvetica,sans-Serif" font-size="10.00"> </text>
<polyline fill="none" stroke="black" points="364.5,-140.5 498.5,-140.5 "/>
<text text-anchor="start" x="372.5" y="-128.5" font-family="Helvetica,sans-Serif" font-size="10.00">+ CameraEntity()</text>
<text text-anchor="start" x="372.5" y="-117.5" font-family="Helvetica,sans-Serif" font-size="10.00">+ ~CameraEntity()</text>
<text text-anchor="start" x="372.5" y="-106.5" font-family="Helvetica,sans-Serif" font-size="10.00">+ getType()</text>
<text text-anchor="start" x="372.5" y="-95.5" font-family="Helvetica,sans-Serif" font-size="10.00">+ getTransform()</text>
<text text-anchor="start" x="372.5" y="-84.5" font-family="Helvetica,sans-Serif" font-size="10.00">+ getTransform()</text>
<text text-anchor="start" x="372.5" y="-73.5" font-family="Helvetica,sans-Serif" font-size="10.00">+ getFocal()</text>
<text text-anchor="start" x="372.5" y="-62.5" font-family="Helvetica,sans-Serif" font-size="10.00">+ setFocal()</text>
<text text-anchor="start" x="372.5" y="-51.5" font-family="Helvetica,sans-Serif" font-size="10.00">+ setSize()</text>
<text text-anchor="start" x="372.5" y="-40.5" font-family="Helvetica,sans-Serif" font-size="10.00">+ getSize()</text>
<text text-anchor="start" x="372.5" y="-29.5" font-family="Helvetica,sans-Serif" font-size="10.00">+ render()</text>
<text text-anchor="start" x="372.5" y="-18.5" font-family="Helvetica,sans-Serif" font-size="10.00">+ getImage()</text>
<text text-anchor="start" x="372.5" y="-7.5" font-family="Helvetica,sans-Serif" font-size="10.00">+ getFilters()</text>
</a>
</g>
</g>
<!-- Node2 -->
<g id="node2" class="node">
<title>Node2</title>
<g id="a_node2"><a xlink:href="a01192.html" target="_top" xlink:title="The ICamera class.">
<polygon fill="white" stroke="black" points="4,-237.5 4,-382.5 111,-382.5 111,-237.5 4,-237.5"/>
<text text-anchor="start" x="12" y="-370.5" font-family="Helvetica,sans-Serif" font-size="10.00">RayTracer::Entities</text>
<text text-anchor="middle" x="57.5" y="-359.5" font-family="Helvetica,sans-Serif" font-size="10.00">::ICamera</text>
<polyline fill="none" stroke="black" points="4,-352.5 111,-352.5 "/>
<text text-anchor="middle" x="57.5" y="-340.5" font-family="Helvetica,sans-Serif" font-size="10.00"> </text>
<polyline fill="none" stroke="black" points="4,-333.5 111,-333.5 "/>
<text text-anchor="start" x="12" y="-321.5" font-family="Helvetica,sans-Serif" font-size="10.00">+ ~ICamera()</text>
<text text-anchor="start" x="12" y="-310.5" font-family="Helvetica,sans-Serif" font-size="10.00">+ getFocal()</text>
<text text-anchor="start" x="12" y="-299.5" font-family="Helvetica,sans-Serif" font-size="10.00">+ setFocal()</text>
<text text-anchor="start" x="12" y="-288.5" font-family="Helvetica,sans-Serif" font-size="10.00">+ setSize()</text>
<text text-anchor="start" x="12" y="-277.5" font-family="Helvetica,sans-Serif" font-size="10.00">+ getSize()</text>
<text text-anchor="start" x="12" y="-266.5" font-family="Helvetica,sans-Serif" font-size="10.00">+ render()</text>
<text text-anchor="start" x="12" y="-255.5" font-family="Helvetica,sans-Serif" font-size="10.00">+ getImage()</text>
<text text-anchor="start" x="12" y="-244.5" font-family="Helvetica,sans-Serif" font-size="10.00">+ getFilters()</text>
</a>
</g>
</g>
<!-- Node2&#45;&gt;Node1 -->
<g id="edge1" class="edge">
<title>Node2&#45;&gt;Node1</title>
<path fill="none" stroke="midnightblue" d="M106.93,-229.39C113.87,-221.53 121.42,-214.18 129.5,-208 199.99,-154.04 299.19,-123.94 364.38,-108.85"/>
<polygon fill="none" stroke="midnightblue" points="103.95,-227.49 100.2,-237.4 109.31,-232 103.95,-227.49"/>
</g>
<!-- Node3 -->
<g id="node3" class="node">
<title>Node3</title>
<g id="a_node3"><a xlink:href="a01196.html" target="_top" xlink:title="The IEntity class.">
<polygon fill="white" stroke="black" points="0,-474.5 0,-575.5 107,-575.5 107,-474.5 0,-474.5"/>
<text text-anchor="start" x="8" y="-563.5" font-family="Helvetica,sans-Serif" font-size="10.00">RayTracer::Entities</text>
<text text-anchor="middle" x="53.5" y="-552.5" font-family="Helvetica,sans-Serif" font-size="10.00">::IEntity</text>
<polyline fill="none" stroke="black" points="0,-545.5 107,-545.5 "/>
<text text-anchor="middle" x="53.5" y="-533.5" font-family="Helvetica,sans-Serif" font-size="10.00"> </text>
<polyline fill="none" stroke="black" points="0,-526.5 107,-526.5 "/>
<text text-anchor="start" x="8" y="-514.5" font-family="Helvetica,sans-Serif" font-size="10.00">+ ~IEntity()</text>
<text text-anchor="start" x="8" y="-503.5" font-family="Helvetica,sans-Serif" font-size="10.00">+ getTransform()</text>
<text text-anchor="start" x="8" y="-492.5" font-family="Helvetica,sans-Serif" font-size="10.00">+ getTransform()</text>
<text text-anchor="start" x="8" y="-481.5" font-family="Helvetica,sans-Serif" font-size="10.00">+ getType()</text>
</a>
</g>
</g>
<!-- Node3&#45;&gt;Node2 -->
<g id="edge2" class="edge">
<title>Node3&#45;&gt;Node2</title>
<path fill="none" stroke="midnightblue" d="M54.62,-464.13C55.1,-438.79 55.66,-409.06 56.16,-382.57"/>
<polygon fill="none" stroke="midnightblue" points="51.12,-464.27 54.43,-474.33 58.12,-464.4 51.12,-464.27"/>
</g>
<!-- Node4 -->
<g id="node4" class="node">
<title>Node4</title>
<g id="a_node4"><a xlink:href="a01216.html" target="_top" xlink:title="The Transform class.">
<polygon fill="white" stroke="black" points="236.5,-452.5 236.5,-597.5 362.5,-597.5 362.5,-452.5 236.5,-452.5"/>
<text text-anchor="start" x="244.5" y="-585.5" font-family="Helvetica,sans-Serif" font-size="10.00">RayTracer::Entities</text>
<text text-anchor="middle" x="299.5" y="-574.5" font-family="Helvetica,sans-Serif" font-size="10.00">::Transform::Transform</text>
<polyline fill="none" stroke="black" points="236.5,-567.5 362.5,-567.5 "/>
<text text-anchor="middle" x="299.5" y="-555.5" font-family="Helvetica,sans-Serif" font-size="10.00"> </text>
<polyline fill="none" stroke="black" points="236.5,-548.5 362.5,-548.5 "/>
<text text-anchor="start" x="244.5" y="-536.5" font-family="Helvetica,sans-Serif" font-size="10.00">+ Transform()</text>
<text text-anchor="start" x="244.5" y="-525.5" font-family="Helvetica,sans-Serif" font-size="10.00">+ setPosition()</text>
<text text-anchor="start" x="244.5" y="-514.5" font-family="Helvetica,sans-Serif" font-size="10.00">+ getPosition()</text>
<text text-anchor="start" x="244.5" y="-503.5" font-family="Helvetica,sans-Serif" font-size="10.00">+ setRotation()</text>
<text text-anchor="start" x="244.5" y="-492.5" font-family="Helvetica,sans-Serif" font-size="10.00">+ getRotation()</text>
<text text-anchor="start" x="244.5" y="-481.5" font-family="Helvetica,sans-Serif" font-size="10.00">+ setScale()</text>
<text text-anchor="start" x="244.5" y="-470.5" font-family="Helvetica,sans-Serif" font-size="10.00">+ getScale()</text>
<text text-anchor="start" x="244.5" y="-459.5" font-family="Helvetica,sans-Serif" font-size="10.00">+ operator=()</text>
</a>
</g>
</g>
<!-- Node4&#45;&gt;Node1 -->
<g id="edge3" class="edge">
<title>Node4&#45;&gt;Node1</title>
<path fill="none" stroke="#404040" d="M291.42,-452.4C287.48,-392.71 288.38,-306.5 315.5,-237 324.9,-212.91 340.09,-189.85 356.42,-169.62"/>
<polygon fill="none" stroke="#404040" points="356.57,-169.45 357.34,-162.28 364.25,-160.23 363.48,-167.4 356.57,-169.45"/>
<text text-anchor="middle" x="346" y="-307.5" font-family="Helvetica,sans-Serif" font-size="10.00"> &#45;_transform</text>
</g>
<!-- Node5 -->
<g id="node5" class="node">
<title>Node5</title>
<g id="a_node5"><a xlink:href="a01212.html" target="_top" xlink:title="The ITransform class.">
<polygon fill="white" stroke="black" points="308,-783 308,-928 437,-928 437,-783 308,-783"/>
<text text-anchor="start" x="316" y="-916" font-family="Helvetica,sans-Serif" font-size="10.00">RayTracer::Entities</text>
<text text-anchor="middle" x="372.5" y="-905" font-family="Helvetica,sans-Serif" font-size="10.00">::Transform::ITransform</text>
<polyline fill="none" stroke="black" points="308,-898 437,-898 "/>
<text text-anchor="middle" x="372.5" y="-886" font-family="Helvetica,sans-Serif" font-size="10.00"> </text>
<polyline fill="none" stroke="black" points="308,-879 437,-879 "/>
<text text-anchor="start" x="316" y="-867" font-family="Helvetica,sans-Serif" font-size="10.00">+ ~ITransform()</text>
<text text-anchor="start" x="316" y="-856" font-family="Helvetica,sans-Serif" font-size="10.00">+ setPosition()</text>
<text text-anchor="start" x="316" y="-845" font-family="Helvetica,sans-Serif" font-size="10.00">+ getPosition()</text>
<text text-anchor="start" x="316" y="-834" font-family="Helvetica,sans-Serif" font-size="10.00">+ setRotation()</text>
<text text-anchor="start" x="316" y="-823" font-family="Helvetica,sans-Serif" font-size="10.00">+ getRotation()</text>
<text text-anchor="start" x="316" y="-812" font-family="Helvetica,sans-Serif" font-size="10.00">+ setScale()</text>
<text text-anchor="start" x="316" y="-801" font-family="Helvetica,sans-Serif" font-size="10.00">+ getScale()</text>
<text text-anchor="start" x="316" y="-790" font-family="Helvetica,sans-Serif" font-size="10.00">+ operator=()</text>
</a>
</g>
</g>
<!-- Node5&#45;&gt;Node4 -->
<g id="edge4" class="edge">
<title>Node5&#45;&gt;Node4</title>
<path fill="none" stroke="midnightblue" d="M358.89,-773.09C351.62,-732.34 342.01,-682.36 331.5,-638 328.4,-624.91 324.75,-611.07 321.05,-597.74"/>
<polygon fill="none" stroke="midnightblue" points="355.45,-773.73 360.64,-782.97 362.35,-772.51 355.45,-773.73"/>
</g>
<!-- Node6 -->
<g id="node6" class="node">
<title>Node6</title>
<g id="a_node6"><a xlink:href="a01224.html" target="_top" xlink:title="The Vector3f class.">
<polygon fill="white" stroke="black" points="171.5,-689.5 171.5,-1021.5 289.5,-1021.5 289.5,-689.5 171.5,-689.5"/>
<text text-anchor="start" x="179.5" y="-1009.5" font-family="Helvetica,sans-Serif" font-size="10.00">RayTracer::Entities</text>
<text text-anchor="middle" x="230.5" y="-998.5" font-family="Helvetica,sans-Serif" font-size="10.00">::Transform::Vector3f</text>
<polyline fill="none" stroke="black" points="171.5,-991.5 289.5,-991.5 "/>
<text text-anchor="middle" x="230.5" y="-979.5" font-family="Helvetica,sans-Serif" font-size="10.00"> </text>
<polyline fill="none" stroke="black" points="171.5,-972.5 289.5,-972.5 "/>
<text text-anchor="start" x="179.5" y="-960.5" font-family="Helvetica,sans-Serif" font-size="10.00">+ ~Vector3f()</text>
<text text-anchor="start" x="179.5" y="-949.5" font-family="Helvetica,sans-Serif" font-size="10.00">+ Vector3f()</text>
<text text-anchor="start" x="179.5" y="-938.5" font-family="Helvetica,sans-Serif" font-size="10.00">+ Vector3f()</text>
<text text-anchor="start" x="179.5" y="-927.5" font-family="Helvetica,sans-Serif" font-size="10.00">+ Vector3f()</text>
<text text-anchor="start" x="179.5" y="-916.5" font-family="Helvetica,sans-Serif" font-size="10.00">+ Vector3f()</text>
<text text-anchor="start" x="179.5" y="-905.5" font-family="Helvetica,sans-Serif" font-size="10.00">+ operator+()</text>
<text text-anchor="start" x="179.5" y="-894.5" font-family="Helvetica,sans-Serif" font-size="10.00">+ operator&#45;()</text>
<text text-anchor="start" x="179.5" y="-883.5" font-family="Helvetica,sans-Serif" font-size="10.00">+ operator*()</text>
<text text-anchor="start" x="179.5" y="-872.5" font-family="Helvetica,sans-Serif" font-size="10.00">+ operator/()</text>
<text text-anchor="start" x="179.5" y="-861.5" font-family="Helvetica,sans-Serif" font-size="10.00">+ operator=()</text>
<text text-anchor="start" x="179.5" y="-850.5" font-family="Helvetica,sans-Serif" font-size="10.00">+ getX()</text>
<text text-anchor="start" x="179.5" y="-839.5" font-family="Helvetica,sans-Serif" font-size="10.00">+ getY()</text>
<text text-anchor="start" x="179.5" y="-828.5" font-family="Helvetica,sans-Serif" font-size="10.00">+ getZ()</text>
<text text-anchor="start" x="179.5" y="-817.5" font-family="Helvetica,sans-Serif" font-size="10.00">+ getNorm()</text>
<text text-anchor="start" x="179.5" y="-806.5" font-family="Helvetica,sans-Serif" font-size="10.00">+ getNormalized()</text>
<text text-anchor="start" x="179.5" y="-795.5" font-family="Helvetica,sans-Serif" font-size="10.00">+ getCrossed()</text>
<text text-anchor="start" x="179.5" y="-784.5" font-family="Helvetica,sans-Serif" font-size="10.00">+ dot()</text>
<text text-anchor="start" x="179.5" y="-773.5" font-family="Helvetica,sans-Serif" font-size="10.00">+ getDistance()</text>
<text text-anchor="start" x="179.5" y="-762.5" font-family="Helvetica,sans-Serif" font-size="10.00">+ toDegrees()</text>
<text text-anchor="start" x="179.5" y="-751.5" font-family="Helvetica,sans-Serif" font-size="10.00">+ toRadians()</text>
<text text-anchor="start" x="179.5" y="-740.5" font-family="Helvetica,sans-Serif" font-size="10.00">+ rotateVector()</text>
<text text-anchor="start" x="179.5" y="-729.5" font-family="Helvetica,sans-Serif" font-size="10.00">+ getAngle()</text>
<text text-anchor="start" x="179.5" y="-718.5" font-family="Helvetica,sans-Serif" font-size="10.00">+ rotateX()</text>
<text text-anchor="start" x="179.5" y="-707.5" font-family="Helvetica,sans-Serif" font-size="10.00">+ rotateY()</text>
<text text-anchor="start" x="179.5" y="-696.5" font-family="Helvetica,sans-Serif" font-size="10.00">+ rotateZ()</text>
</a>
</g>
</g>
<!-- Node6&#45;&gt;Node4 -->
<g id="edge5" class="edge">
<title>Node6&#45;&gt;Node4</title>
<path fill="none" stroke="#404040" d="M265.2,-689.29C271.03,-661.55 276.85,-633.85 281.99,-609.35"/>
<polygon fill="none" stroke="#404040" points="281.99,-609.34 279.31,-602.65 284.46,-597.6 287.14,-604.29 281.99,-609.34"/>
<text text-anchor="middle" x="301.5" y="-663" font-family="Helvetica,sans-Serif" font-size="10.00"> &#45;_position</text>
<text text-anchor="middle" x="301.5" y="-652" font-family="Helvetica,sans-Serif" font-size="10.00">&#45;_rotation</text>
<text text-anchor="middle" x="301.5" y="-641" font-family="Helvetica,sans-Serif" font-size="10.00">&#45;_scale</text>
</g>
<!-- Node7 -->
<g id="node7" class="node">
<title>Node7</title>
<g id="a_node7"><a xlink:title=" ">
<polygon fill="white" stroke="#bfbfbf" points="205.5,-1102.5 205.5,-1159.5 255.5,-1159.5 255.5,-1102.5 205.5,-1102.5"/>
<text text-anchor="middle" x="230.5" y="-1147.5" font-family="Helvetica,sans-Serif" font-size="10.00">double</text>
<polyline fill="none" stroke="#bfbfbf" points="205.5,-1140.5 255.5,-1140.5 "/>
<text text-anchor="middle" x="230.5" y="-1128.5" font-family="Helvetica,sans-Serif" font-size="10.00"> </text>
<polyline fill="none" stroke="#bfbfbf" points="205.5,-1121.5 255.5,-1121.5 "/>
<text text-anchor="middle" x="230.5" y="-1109.5" font-family="Helvetica,sans-Serif" font-size="10.00"> </text>
</a>
</g>
</g>
<!-- Node7&#45;&gt;Node1 -->
<g id="edge11" class="edge">
<title>Node7&#45;&gt;Node1</title>
<path fill="none" stroke="#404040" d="M208.26,-1102.48C192.72,-1081.66 172.94,-1051.68 162.5,-1022 137.94,-952.15 143.5,-930.54 143.5,-856.5 143.5,-856.5 143.5,-856.5 143.5,-309 143.5,-204.51 267.57,-145.42 352.84,-117.15"/>
<polygon fill="none" stroke="#404040" points="352.92,-117.13 357.4,-111.48 364.34,-113.45 359.86,-119.1 352.92,-117.13"/>
<text text-anchor="middle" x="162" y="-522.5" font-family="Helvetica,sans-Serif" font-size="10.00"> &#45;_focal</text>
</g>
<!-- Node7&#45;&gt;Node6 -->
<g id="edge6" class="edge">
<title>Node7&#45;&gt;Node6</title>
<path fill="none" stroke="#404040" d="M230.5,-1102.27C230.5,-1084.78 230.5,-1060.54 230.5,-1034.06"/>
<polygon fill="none" stroke="#404040" points="230.5,-1033.74 226.5,-1027.74 230.5,-1021.74 234.5,-1027.74 230.5,-1033.74"/>
<text text-anchor="middle" x="240" y="-1070.5" font-family="Helvetica,sans-Serif" font-size="10.00"> &#45;_x</text>
<text text-anchor="middle" x="240" y="-1059.5" font-family="Helvetica,sans-Serif" font-size="10.00">&#45;_y</text>
<text text-anchor="middle" x="240" y="-1048.5" font-family="Helvetica,sans-Serif" font-size="10.00">&#45;_z</text>
</g>
<!-- Node16 -->
<g id="node16" class="node">
<title>Node16</title>
<g id="a_node16"><a xlink:href="a01264.html" target="_top" xlink:title="The Color class.">
<polygon fill="white" stroke="black" points="502,-744.5 502,-966.5 615,-966.5 615,-744.5 502,-744.5"/>
<text text-anchor="start" x="510" y="-954.5" font-family="Helvetica,sans-Serif" font-size="10.00">RayTracer::Images::</text>
<text text-anchor="middle" x="558.5" y="-943.5" font-family="Helvetica,sans-Serif" font-size="10.00">Color</text>
<polyline fill="none" stroke="black" points="502,-936.5 615,-936.5 "/>
<text text-anchor="middle" x="558.5" y="-924.5" font-family="Helvetica,sans-Serif" font-size="10.00"> </text>
<polyline fill="none" stroke="black" points="502,-917.5 615,-917.5 "/>
<text text-anchor="start" x="510" y="-905.5" font-family="Helvetica,sans-Serif" font-size="10.00">+ ~Color()</text>
<text text-anchor="start" x="510" y="-894.5" font-family="Helvetica,sans-Serif" font-size="10.00">+ Color()</text>
<text text-anchor="start" x="510" y="-883.5" font-family="Helvetica,sans-Serif" font-size="10.00">+ Color()</text>
<text text-anchor="start" x="510" y="-872.5" font-family="Helvetica,sans-Serif" font-size="10.00">+ Color()</text>
<text text-anchor="start" x="510" y="-861.5" font-family="Helvetica,sans-Serif" font-size="10.00">+ operator+()</text>
<text text-anchor="start" x="510" y="-850.5" font-family="Helvetica,sans-Serif" font-size="10.00">+ operator&#45;()</text>
<text text-anchor="start" x="510" y="-839.5" font-family="Helvetica,sans-Serif" font-size="10.00">+ operator*()</text>
<text text-anchor="start" x="510" y="-828.5" font-family="Helvetica,sans-Serif" font-size="10.00">+ operator/()</text>
<text text-anchor="start" x="510" y="-817.5" font-family="Helvetica,sans-Serif" font-size="10.00">+ operator=()</text>
<text text-anchor="start" x="510" y="-806.5" font-family="Helvetica,sans-Serif" font-size="10.00">+ operator[]()</text>
<text text-anchor="start" x="510" y="-795.5" font-family="Helvetica,sans-Serif" font-size="10.00">+ operator[]()</text>
<text text-anchor="start" x="510" y="-784.5" font-family="Helvetica,sans-Serif" font-size="10.00">+ set()</text>
<text text-anchor="start" x="510" y="-773.5" font-family="Helvetica,sans-Serif" font-size="10.00">+ applyAlpha()</text>
<text text-anchor="start" x="510" y="-762.5" font-family="Helvetica,sans-Serif" font-size="10.00">+ mergeColor()</text>
<text text-anchor="start" x="510" y="-751.5" font-family="Helvetica,sans-Serif" font-size="10.00">+ applyDistance()</text>
</a>
</g>
</g>
<!-- Node7&#45;&gt;Node16 -->
<g id="edge18" class="edge">
<title>Node7&#45;&gt;Node16</title>
<path fill="none" stroke="#404040" d="M255.76,-1126.28C307.14,-1117.45 424.71,-1090.58 492.5,-1022 504.96,-1009.4 515.14,-994.15 523.45,-978.07"/>
<polygon fill="none" stroke="#404040" points="523.67,-977.62 522.69,-970.48 528.91,-966.83 529.89,-973.97 523.67,-977.62"/>
<text text-anchor="middle" x="480" y="-1076" font-family="Helvetica,sans-Serif" font-size="10.00"> &#45;_a</text>
<text text-anchor="middle" x="480" y="-1065" font-family="Helvetica,sans-Serif" font-size="10.00">&#45;_b</text>
<text text-anchor="middle" x="480" y="-1054" font-family="Helvetica,sans-Serif" font-size="10.00">&#45;_g</text>
<text text-anchor="middle" x="480" y="-1043" font-family="Helvetica,sans-Serif" font-size="10.00">&#45;_r</text>
</g>
<!-- Node8 -->
<g id="node8" class="node">
<title>Node8</title>
<g id="a_node8"><a xlink:title=" ">
<polygon fill="white" stroke="#bfbfbf" points="728,-485.5 728,-564.5 885,-564.5 885,-485.5 728,-485.5"/>
<text text-anchor="start" x="736" y="-552.5" font-family="Helvetica,sans-Serif" font-size="10.00">std::list&lt; std::reference</text>
<text text-anchor="start" x="736" y="-541.5" font-family="Helvetica,sans-Serif" font-size="10.00">_wrapper&lt; RayTracer::Filters</text>
<text text-anchor="middle" x="806.5" y="-530.5" font-family="Helvetica,sans-Serif" font-size="10.00">::IFilter &gt; &gt;</text>
<polyline fill="none" stroke="#bfbfbf" points="728,-523.5 885,-523.5 "/>
<text text-anchor="middle" x="806.5" y="-511.5" font-family="Helvetica,sans-Serif" font-size="10.00"> </text>
<polyline fill="none" stroke="#bfbfbf" points="728,-504.5 885,-504.5 "/>
<text text-anchor="middle" x="806.5" y="-492.5" font-family="Helvetica,sans-Serif" font-size="10.00"> </text>
</a>
</g>
</g>
<!-- Node8&#45;&gt;Node1 -->
<g id="edge7" class="edge">
<title>Node8&#45;&gt;Node1</title>
<path fill="none" stroke="#404040" d="M763.68,-485.31C736.95,-458.93 703.86,-421.84 683.5,-383 652.42,-323.71 685.35,-291.51 646.5,-237 612.2,-188.88 555.88,-152.82 509.48,-129.22"/>
<polygon fill="none" stroke="#404040" points="509.28,-129.12 502.13,-130.03 498.53,-123.78 505.69,-122.87 509.28,-129.12"/>
<text text-anchor="middle" x="703.5" y="-307.5" font-family="Helvetica,sans-Serif" font-size="10.00"> &#45;_filters</text>
</g>
<!-- Node9 -->
<g id="node9" class="node">
<title>Node9</title>
<g id="a_node9"><a xlink:title=" ">
<polygon fill="white" stroke="#bfbfbf" points="748.5,-816 748.5,-895 864.5,-895 864.5,-816 748.5,-816"/>
<text text-anchor="start" x="756.5" y="-883" font-family="Helvetica,sans-Serif" font-size="10.00">reference_wrapper&lt;</text>
<text text-anchor="start" x="756.5" y="-872" font-family="Helvetica,sans-Serif" font-size="10.00"> RayTracer::Filters</text>
<text text-anchor="middle" x="806.5" y="-861" font-family="Helvetica,sans-Serif" font-size="10.00">::IFilter &gt;</text>
<polyline fill="none" stroke="#bfbfbf" points="748.5,-854 864.5,-854 "/>
<text text-anchor="middle" x="806.5" y="-842" font-family="Helvetica,sans-Serif" font-size="10.00"> </text>
<polyline fill="none" stroke="#bfbfbf" points="748.5,-835 864.5,-835 "/>
<text text-anchor="middle" x="806.5" y="-823" font-family="Helvetica,sans-Serif" font-size="10.00"> </text>
</a>
</g>
</g>
<!-- Node9&#45;&gt;Node8 -->
<g id="edge8" class="edge">
<title>Node9&#45;&gt;Node8</title>
<path fill="none" stroke="#404040" d="M806.5,-815.85C806.5,-756.42 806.5,-642.57 806.5,-576.63"/>
<polygon fill="none" stroke="#404040" points="806.5,-576.5 802.5,-570.5 806.5,-564.5 810.5,-570.5 806.5,-576.5"/>
<text text-anchor="middle" x="835.5" y="-652" font-family="Helvetica,sans-Serif" font-size="10.00"> +elements</text>
</g>
<!-- Node10 -->
<g id="node10" class="node">
<title>Node10</title>
<g id="a_node10"><a xlink:title=" ">
<polygon fill="white" stroke="#bfbfbf" points="883,-827 883,-884 964,-884 964,-827 883,-827"/>
<text text-anchor="middle" x="923.5" y="-872" font-family="Helvetica,sans-Serif" font-size="10.00">std::list&lt; T &gt;</text>
<polyline fill="none" stroke="#bfbfbf" points="883,-865 964,-865 "/>
<text text-anchor="middle" x="923.5" y="-853" font-family="Helvetica,sans-Serif" font-size="10.00"> </text>
<polyline fill="none" stroke="#bfbfbf" points="883,-846 964,-846 "/>
<text text-anchor="middle" x="923.5" y="-834" font-family="Helvetica,sans-Serif" font-size="10.00"> </text>
</a>
</g>
</g>
<!-- Node10&#45;&gt;Node8 -->
<g id="edge9" class="edge">
<title>Node10&#45;&gt;Node8</title>
<path fill="none" stroke="orange" d="M916.98,-816.84C908.69,-772.91 892.5,-698.58 868.5,-638 858.43,-612.58 843.73,-585.74 831.16,-564.7"/>
<polygon fill="orange" stroke="orange" points="913.56,-817.6 918.82,-826.79 920.45,-816.32 913.56,-817.6"/>
<text text-anchor="start" x="878.5" y="-657.5" font-family="Helvetica,sans-Serif" font-size="10.00"> &lt; std::reference_wrapper</text>
<text text-anchor="middle" x="954.5" y="-646.5" font-family="Helvetica,sans-Serif" font-size="10.00">&lt; RayTracer::Filters::IFilter &gt; &gt;</text>
</g>
<!-- Node11 -->
<g id="node11" class="node">
<title>Node11</title>
<g id="a_node11"><a xlink:title=" ">
<polygon fill="white" stroke="#bfbfbf" points="787,-1102.5 787,-1159.5 816,-1159.5 816,-1102.5 787,-1102.5"/>
<text text-anchor="middle" x="801.5" y="-1147.5" font-family="Helvetica,sans-Serif" font-size="10.00">T</text>
<polyline fill="none" stroke="#bfbfbf" points="787,-1140.5 816,-1140.5 "/>
<text text-anchor="middle" x="801.5" y="-1128.5" font-family="Helvetica,sans-Serif" font-size="10.00"> </text>
<polyline fill="none" stroke="#bfbfbf" points="787,-1121.5 816,-1121.5 "/>
<text text-anchor="middle" x="801.5" y="-1109.5" font-family="Helvetica,sans-Serif" font-size="10.00"> </text>
</a>
</g>
</g>
<!-- Node11&#45;&gt;Node10 -->
<g id="edge10" class="edge">
<title>Node11&#45;&gt;Node10</title>
<path fill="none" stroke="#404040" d="M816.05,-1108.5C821.25,-1100.78 827.15,-1092.01 832.5,-1084 850.84,-1056.52 859.46,-1051.91 873.5,-1022 892.87,-980.74 906.85,-930.2 915.02,-895.9"/>
<polygon fill="none" stroke="#404040" points="915.06,-895.74 912.52,-888.99 917.77,-884.05 920.31,-890.8 915.06,-895.74"/>
<text text-anchor="middle" x="891.5" y="-1059.5" font-family="Helvetica,sans-Serif" font-size="10.00"> +elements</text>
</g>
<!-- Node18 -->
<g id="node18" class="node">
<title>Node18</title>
<g id="a_node18"><a xlink:title=" ">
<polygon fill="white" stroke="#bfbfbf" points="633,-827 633,-884 730,-884 730,-827 633,-827"/>
<text text-anchor="middle" x="681.5" y="-872" font-family="Helvetica,sans-Serif" font-size="10.00">std::vector&lt; T &gt;</text>
<polyline fill="none" stroke="#bfbfbf" points="633,-865 730,-865 "/>
<text text-anchor="middle" x="681.5" y="-853" font-family="Helvetica,sans-Serif" font-size="10.00"> </text>
<polyline fill="none" stroke="#bfbfbf" points="633,-846 730,-846 "/>
<text text-anchor="middle" x="681.5" y="-834" font-family="Helvetica,sans-Serif" font-size="10.00"> </text>
</a>
</g>
</g>
<!-- Node11&#45;&gt;Node18 -->
<g id="edge21" class="edge">
<title>Node11&#45;&gt;Node18</title>
<path fill="none" stroke="#404040" d="M786.93,-1107.48C773.49,-1086.06 753.53,-1052.67 739.5,-1022 720.32,-980.08 703.54,-929.86 693.03,-895.81"/>
<polygon fill="none" stroke="#404040" points="692.94,-895.53 687.37,-890.95 689.45,-884.05 695.02,-888.62 692.94,-895.53"/>
<text text-anchor="middle" x="799.5" y="-1059.5" font-family="Helvetica,sans-Serif" font-size="10.00"> +elements</text>
</g>
<!-- Node12 -->
<g id="node12" class="node">
<title>Node12</title>
<g id="a_node12"><a xlink:href="a01220.html" target="_top" xlink:title="The Vector2i class.">
<polygon fill="white" stroke="black" points="419,-430.5 419,-619.5 536,-619.5 536,-430.5 419,-430.5"/>
<text text-anchor="start" x="427" y="-607.5" font-family="Helvetica,sans-Serif" font-size="10.00">RayTracer::Entities</text>
<text text-anchor="middle" x="477.5" y="-596.5" font-family="Helvetica,sans-Serif" font-size="10.00">::Transform::Vector2i</text>
<polyline fill="none" stroke="black" points="419,-589.5 536,-589.5 "/>
<text text-anchor="middle" x="477.5" y="-577.5" font-family="Helvetica,sans-Serif" font-size="10.00"> </text>
<polyline fill="none" stroke="black" points="419,-570.5 536,-570.5 "/>
<text text-anchor="start" x="427" y="-558.5" font-family="Helvetica,sans-Serif" font-size="10.00">+ ~Vector2i()</text>
<text text-anchor="start" x="427" y="-547.5" font-family="Helvetica,sans-Serif" font-size="10.00">+ Vector2i()</text>
<text text-anchor="start" x="427" y="-536.5" font-family="Helvetica,sans-Serif" font-size="10.00">+ Vector2i()</text>
<text text-anchor="start" x="427" y="-525.5" font-family="Helvetica,sans-Serif" font-size="10.00">+ Vector2i()</text>
<text text-anchor="start" x="427" y="-514.5" font-family="Helvetica,sans-Serif" font-size="10.00">+ Vector2i()</text>
<text text-anchor="start" x="427" y="-503.5" font-family="Helvetica,sans-Serif" font-size="10.00">+ operator+()</text>
<text text-anchor="start" x="427" y="-492.5" font-family="Helvetica,sans-Serif" font-size="10.00">+ operator&#45;()</text>
<text text-anchor="start" x="427" y="-481.5" font-family="Helvetica,sans-Serif" font-size="10.00">+ operator*()</text>
<text text-anchor="start" x="427" y="-470.5" font-family="Helvetica,sans-Serif" font-size="10.00">+ operator/()</text>
<text text-anchor="start" x="427" y="-459.5" font-family="Helvetica,sans-Serif" font-size="10.00">+ operator=()</text>
<text text-anchor="start" x="427" y="-448.5" font-family="Helvetica,sans-Serif" font-size="10.00">+ getX()</text>
<text text-anchor="start" x="427" y="-437.5" font-family="Helvetica,sans-Serif" font-size="10.00">+ getY()</text>
</a>
</g>
</g>
<!-- Node12&#45;&gt;Node1 -->
<g id="edge12" class="edge">
<title>Node12&#45;&gt;Node1</title>
<path fill="none" stroke="#404040" d="M467.43,-430.34C460.18,-362.89 450.4,-271.82 442.87,-201.76"/>
<polygon fill="none" stroke="#404040" points="442.87,-201.75 438.25,-196.22 441.58,-189.82 446.2,-195.36 442.87,-201.75"/>
<text text-anchor="middle" x="478.5" y="-307.5" font-family="Helvetica,sans-Serif" font-size="10.00"> &#45;_size</text>
</g>
<!-- Node14 -->
<g id="node14" class="node">
<title>Node14</title>
<g id="a_node14"><a xlink:href="a01268.html" target="_top" xlink:title="The Image class.">
<polygon fill="white" stroke="black" points="524,-254 524,-366 637,-366 637,-254 524,-254"/>
<text text-anchor="start" x="532" y="-354" font-family="Helvetica,sans-Serif" font-size="10.00">RayTracer::Images::</text>
<text text-anchor="middle" x="580.5" y="-343" font-family="Helvetica,sans-Serif" font-size="10.00">Image</text>
<polyline fill="none" stroke="black" points="524,-336 637,-336 "/>
<text text-anchor="middle" x="580.5" y="-324" font-family="Helvetica,sans-Serif" font-size="10.00"> </text>
<polyline fill="none" stroke="black" points="524,-317 637,-317 "/>
<text text-anchor="start" x="532" y="-305" font-family="Helvetica,sans-Serif" font-size="10.00">+ Image()</text>
<text text-anchor="start" x="532" y="-294" font-family="Helvetica,sans-Serif" font-size="10.00">+ convertToPPM()</text>
<text text-anchor="start" x="532" y="-283" font-family="Helvetica,sans-Serif" font-size="10.00">+ operator[]()</text>
<text text-anchor="start" x="532" y="-272" font-family="Helvetica,sans-Serif" font-size="10.00">+ operator[]()</text>
<text text-anchor="start" x="532" y="-261" font-family="Helvetica,sans-Serif" font-size="10.00">+ getSize()</text>
</a>
</g>
</g>
<!-- Node12&#45;&gt;Node14 -->
<g id="edge15" class="edge">
<title>Node12&#45;&gt;Node14</title>
<path fill="none" stroke="#404040" d="M522.83,-430.27C531.5,-412.32 540.42,-393.88 548.57,-377.04"/>
<polygon fill="none" stroke="#404040" points="548.58,-377.02 547.59,-369.87 553.8,-366.21 554.79,-373.36 548.58,-377.02"/>
<text text-anchor="middle" x="551.5" y="-404" font-family="Helvetica,sans-Serif" font-size="10.00"> &#45;_size</text>
</g>
<!-- Node13 -->
<g id="node13" class="node">
<title>Node13</title>
<g id="a_node13"><a xlink:title=" ">
<polygon fill="white" stroke="#bfbfbf" points="455,-827 455,-884 484,-884 484,-827 455,-827"/>
<text text-anchor="middle" x="469.5" y="-872" font-family="Helvetica,sans-Serif" font-size="10.00">int</text>
<polyline fill="none" stroke="#bfbfbf" points="455,-865 484,-865 "/>
<text text-anchor="middle" x="469.5" y="-853" font-family="Helvetica,sans-Serif" font-size="10.00"> </text>
<polyline fill="none" stroke="#bfbfbf" points="455,-846 484,-846 "/>
<text text-anchor="middle" x="469.5" y="-834" font-family="Helvetica,sans-Serif" font-size="10.00"> </text>
</a>
</g>
</g>
<!-- Node13&#45;&gt;Node1 -->
<g id="edge22" class="edge">
<title>Node13&#45;&gt;Node1</title>
<path fill="none" stroke="#404040" d="M468.33,-826.92C466.28,-793.54 460.67,-735.97 445.5,-689 434.87,-656.09 419.02,-653.25 409.5,-620 382.64,-526.18 387.46,-498.41 393.5,-401 397.62,-334.62 406.73,-260.58 415,-202.08"/>
<polygon fill="none" stroke="#404040" points="415.06,-201.72 411.95,-195.21 416.75,-189.84 419.87,-196.34 415.06,-201.72"/>
<text text-anchor="middle" x="427.5" y="-404" font-family="Helvetica,sans-Serif" font-size="10.00"> &#45;_maxThread</text>
</g>
<!-- Node13&#45;&gt;Node12 -->
<g id="edge13" class="edge">
<title>Node13&#45;&gt;Node12</title>
<path fill="none" stroke="#404040" d="M470.18,-826.78C471.21,-784.17 473.25,-700.34 474.92,-631.99"/>
<polygon fill="none" stroke="#404040" points="474.92,-631.85 471.07,-625.76 475.21,-619.86 479.07,-625.95 474.92,-631.85"/>
<text text-anchor="middle" x="485" y="-657.5" font-family="Helvetica,sans-Serif" font-size="10.00"> &#45;_x</text>
<text text-anchor="middle" x="485" y="-646.5" font-family="Helvetica,sans-Serif" font-size="10.00">&#45;_y</text>
</g>
<!-- Node14&#45;&gt;Node1 -->
<g id="edge14" class="edge">
<title>Node14&#45;&gt;Node1</title>
<path fill="none" stroke="#404040" d="M541.94,-253.87C530.31,-237.26 517.16,-218.45 504.08,-199.76"/>
<polygon fill="none" stroke="#404040" points="503.93,-199.54 497.21,-196.91 497.05,-189.7 503.76,-192.33 503.93,-199.54"/>
<text text-anchor="middle" x="537" y="-211" font-family="Helvetica,sans-Serif" font-size="10.00"> &#45;_image</text>
</g>
<!-- Node15 -->
<g id="node15" class="node">
<title>Node15</title>
<g id="a_node15"><a xlink:title=" ">
<polygon fill="white" stroke="#bfbfbf" points="554.5,-491 554.5,-559 682.5,-559 682.5,-491 554.5,-491"/>
<text text-anchor="start" x="562.5" y="-547" font-family="Helvetica,sans-Serif" font-size="10.00">std::vector&lt; RayTracer</text>
<text text-anchor="middle" x="618.5" y="-536" font-family="Helvetica,sans-Serif" font-size="10.00">::Images::Color &gt;</text>
<polyline fill="none" stroke="#bfbfbf" points="554.5,-529 682.5,-529 "/>
<text text-anchor="middle" x="618.5" y="-517" font-family="Helvetica,sans-Serif" font-size="10.00"> </text>
<polyline fill="none" stroke="#bfbfbf" points="554.5,-510 682.5,-510 "/>
<text text-anchor="middle" x="618.5" y="-498" font-family="Helvetica,sans-Serif" font-size="10.00"> </text>
</a>
</g>
</g>
<!-- Node15&#45;&gt;Node14 -->
<g id="edge16" class="edge">
<title>Node15&#45;&gt;Node14</title>
<path fill="none" stroke="#404040" d="M612.56,-490.72C607.21,-460.73 599.19,-415.74 592.5,-378.28"/>
<polygon fill="none" stroke="#404040" points="592.49,-378.22 587.5,-373.02 590.38,-366.41 595.38,-371.61 592.49,-378.22"/>
<text text-anchor="middle" x="618" y="-404" font-family="Helvetica,sans-Serif" font-size="10.00"> &#45;_pixels</text>
</g>
<!-- Node16&#45;&gt;Node15 -->
<g id="edge17" class="edge">
<title>Node16&#45;&gt;Node15</title>
<path fill="none" stroke="#404040" d="M564.07,-744.4C567.17,-710.05 572,-672.21 579.5,-638 584.48,-615.3 592.65,-590.85 600.22,-570.61"/>
<polygon fill="none" stroke="#404040" points="600.29,-570.42 598.71,-563.39 604.59,-559.21 606.18,-566.25 600.29,-570.42"/>
<text text-anchor="middle" x="608.5" y="-652" font-family="Helvetica,sans-Serif" font-size="10.00"> +elements</text>
</g>
<!-- Node17 -->
<g id="node17" class="node">
<title>Node17</title>
<g id="a_node17"><a xlink:title=" ">
<polygon fill="white" stroke="#bfbfbf" points="524,-1102.5 524,-1159.5 593,-1159.5 593,-1102.5 524,-1102.5"/>
<text text-anchor="middle" x="558.5" y="-1147.5" font-family="Helvetica,sans-Serif" font-size="10.00">std::mutex</text>
<polyline fill="none" stroke="#bfbfbf" points="524,-1140.5 593,-1140.5 "/>
<text text-anchor="middle" x="558.5" y="-1128.5" font-family="Helvetica,sans-Serif" font-size="10.00"> </text>
<polyline fill="none" stroke="#bfbfbf" points="524,-1121.5 593,-1121.5 "/>
<text text-anchor="middle" x="558.5" y="-1109.5" font-family="Helvetica,sans-Serif" font-size="10.00"> </text>
</a>
</g>
</g>
<!-- Node17&#45;&gt;Node16 -->
<g id="edge19" class="edge">
<title>Node17&#45;&gt;Node16</title>
<path fill="none" stroke="#404040" d="M558.5,-1102.27C558.5,-1073.04 558.5,-1024.94 558.5,-979.01"/>
<polygon fill="none" stroke="#404040" points="558.5,-978.76 554.5,-972.76 558.5,-966.76 562.5,-972.76 558.5,-978.76"/>
<text text-anchor="middle" x="580.5" y="-1059.5" font-family="Helvetica,sans-Serif" font-size="10.00"> &#45;_mutex</text>
</g>
<!-- Node18&#45;&gt;Node15 -->
<g id="edge20" class="edge">
<title>Node18&#45;&gt;Node15</title>
<path fill="none" stroke="orange" d="M674.23,-816.59C661.81,-751.81 636.68,-620.82 624.89,-559.32"/>
<polygon fill="orange" stroke="orange" points="670.86,-817.61 676.18,-826.78 677.74,-816.3 670.86,-817.61"/>
<text text-anchor="start" x="645.5" y="-657.5" font-family="Helvetica,sans-Serif" font-size="10.00"> &lt; RayTracer::Images</text>
<text text-anchor="middle" x="698" y="-646.5" font-family="Helvetica,sans-Serif" font-size="10.00">::Color &gt;</text>
</g>
<!-- Node19 -->
<g id="node19" class="node">
<title>Node19</title>
<g id="a_node19"><a xlink:href="a01260.html" target="_top" xlink:title="Logger singleton.">
<polygon fill="white" stroke="black" points="732,-248.5 732,-371.5 839,-371.5 839,-248.5 732,-248.5"/>
<text text-anchor="middle" x="785.5" y="-359.5" font-family="Helvetica,sans-Serif" font-size="10.00">RayTracer::ILogger</text>
<polyline fill="none" stroke="black" points="732,-352.5 839,-352.5 "/>
<text text-anchor="middle" x="785.5" y="-340.5" font-family="Helvetica,sans-Serif" font-size="10.00"> </text>
<polyline fill="none" stroke="black" points="732,-333.5 839,-333.5 "/>
<text text-anchor="start" x="740" y="-321.5" font-family="Helvetica,sans-Serif" font-size="10.00">+ ~ILogger()</text>
<text text-anchor="start" x="740" y="-310.5" font-family="Helvetica,sans-Serif" font-size="10.00">+ fatal()</text>
<text text-anchor="start" x="740" y="-299.5" font-family="Helvetica,sans-Serif" font-size="10.00">+ error()</text>
<text text-anchor="start" x="740" y="-288.5" font-family="Helvetica,sans-Serif" font-size="10.00">+ warn()</text>
<text text-anchor="start" x="740" y="-277.5" font-family="Helvetica,sans-Serif" font-size="10.00">+ info()</text>
<text text-anchor="start" x="740" y="-266.5" font-family="Helvetica,sans-Serif" font-size="10.00">+ debug()</text>
<text text-anchor="start" x="740" y="-255.5" font-family="Helvetica,sans-Serif" font-size="10.00">+ trace()</text>
</a>
</g>
</g>
<!-- Node19&#45;&gt;Node1 -->
<g id="edge23" class="edge">
<title>Node19&#45;&gt;Node1</title>
<path fill="none" stroke="#404040" d="M731.91,-251.78C727.07,-246.76 722.21,-241.77 717.5,-237 704.46,-223.81 702.9,-218.32 687.5,-208 632.22,-170.95 562.67,-141.45 510.02,-122.04"/>
<polygon fill="none" stroke="#404040" points="510,-122.03 502.99,-123.74 498.72,-117.93 505.72,-116.22 510,-122.03"/>
<text text-anchor="middle" x="722" y="-211" font-family="Helvetica,sans-Serif" font-size="10.00"> &#45;_logger</text>
</g>
</g>
</svg>
