<?xml version="1.0" encoding="UTF-8" standalone="no"?>
<!DOCTYPE svg PUBLIC "-//W3C//DTD SVG 1.1//EN"
 "http://www.w3.org/Graphics/SVG/1.1/DTD/svg11.dtd">
<!-- Generated by graphviz version 2.43.0 (0)
 -->
<!-- Title: RayTracer::Plugins::PluginLoader&lt; Handler, Interface, Factory &gt; Pages: 1 -->
<svg width="559pt" height="398pt"
 viewBox="0.00 0.00 558.50 398.00" xmlns="http://www.w3.org/2000/svg" xmlns:xlink="http://www.w3.org/1999/xlink">
<g id="graph0" class="graph" transform="scale(1 1) rotate(0) translate(4 394)">
<title>RayTracer::Plugins::PluginLoader&lt; Handler, Interface, Factory &gt;</title>
<polygon fill="white" stroke="transparent" points="-4,4 -4,-394 554.5,-394 554.5,4 -4,4"/>
<!-- Node1 -->
<g id="node1" class="node">
<title>Node1</title>
<g id="a_node1"><a xlink:title=" ">
<polygon fill="#bfbfbf" stroke="black" points="201.5,-299.5 201.5,-389.5 339.5,-389.5 339.5,-299.5 201.5,-299.5"/>
<text text-anchor="start" x="209.5" y="-377.5" font-family="Helvetica,sans-Serif" font-size="10.00">RayTracer::Plugins</text>
<text text-anchor="start" x="209.5" y="-366.5" font-family="Helvetica,sans-Serif" font-size="10.00">::PluginLoader&lt; Handler,</text>
<text text-anchor="middle" x="270.5" y="-355.5" font-family="Helvetica,sans-Serif" font-size="10.00"> Interface, Factory &gt;</text>
<polyline fill="none" stroke="black" points="201.5,-348.5 339.5,-348.5 "/>
<text text-anchor="start" x="209.5" y="-336.5" font-family="Helvetica,sans-Serif" font-size="10.00"># _directory</text>
<polyline fill="none" stroke="black" points="201.5,-329.5 339.5,-329.5 "/>
<text text-anchor="start" x="209.5" y="-317.5" font-family="Helvetica,sans-Serif" font-size="10.00">+ PluginLoader()</text>
<text text-anchor="start" x="209.5" y="-306.5" font-family="Helvetica,sans-Serif" font-size="10.00">+ load()</text>
</a>
</g>
</g>
<!-- Node2 -->
<g id="node2" class="node">
<title>Node2</title>
<g id="a_node2"><a xlink:href="a01473.html" target="_top" xlink:title=" ">
<polygon fill="white" stroke="black" points="0,-117.5 0,-218.5 163,-218.5 163,-117.5 0,-117.5"/>
<text text-anchor="start" x="8" y="-206.5" font-family="Helvetica,sans-Serif" font-size="10.00">RayTracer::Plugins</text>
<text text-anchor="start" x="8" y="-195.5" font-family="Helvetica,sans-Serif" font-size="10.00">::PluginLoader&lt; FilterHandler,</text>
<text text-anchor="start" x="8" y="-184.5" font-family="Helvetica,sans-Serif" font-size="10.00"> RayTracer::Filters::IFilter,</text>
<text text-anchor="middle" x="81.5" y="-173.5" font-family="Helvetica,sans-Serif" font-size="10.00"> Factories::FilterFactory &gt;</text>
<polyline fill="none" stroke="black" points="0,-166.5 163,-166.5 "/>
<text text-anchor="start" x="8" y="-154.5" font-family="Helvetica,sans-Serif" font-size="10.00"># _directory</text>
<polyline fill="none" stroke="black" points="0,-147.5 163,-147.5 "/>
<text text-anchor="start" x="8" y="-135.5" font-family="Helvetica,sans-Serif" font-size="10.00">+ PluginLoader()</text>
<text text-anchor="start" x="8" y="-124.5" font-family="Helvetica,sans-Serif" font-size="10.00">+ load()</text>
</a>
</g>
</g>
<!-- Node1&#45;&gt;Node2 -->
<g id="edge1" class="edge">
<title>Node1&#45;&gt;Node2</title>
<path fill="none" stroke="orange" d="M192.07,-318.58C171.5,-309.25 150.6,-296.92 134.5,-281 117.14,-263.83 104.75,-239.87 96.35,-218.52"/>
<polygon fill="orange" stroke="orange" points="190.91,-321.89 201.48,-322.66 193.69,-315.47 190.91,-321.89"/>
<text text-anchor="start" x="134.5" y="-267.5" font-family="Helvetica,sans-Serif" font-size="10.00"> &lt; FilterHandler, RayTracer</text>
<text text-anchor="start" x="134.5" y="-256.5" font-family="Helvetica,sans-Serif" font-size="10.00">::Filters::IFilter, Factories</text>
<text text-anchor="middle" x="200.5" y="-245.5" font-family="Helvetica,sans-Serif" font-size="10.00">::FilterFactory &gt;</text>
</g>
<!-- Node4 -->
<g id="node4" class="node">
<title>Node4</title>
<g id="a_node4"><a xlink:href="a01473.html" target="_top" xlink:title=" ">
<polygon fill="white" stroke="black" points="181,-117.5 181,-218.5 360,-218.5 360,-117.5 181,-117.5"/>
<text text-anchor="start" x="189" y="-206.5" font-family="Helvetica,sans-Serif" font-size="10.00">RayTracer::Plugins</text>
<text text-anchor="start" x="189" y="-195.5" font-family="Helvetica,sans-Serif" font-size="10.00">::PluginLoader&lt; MaterialHandler,</text>
<text text-anchor="start" x="189" y="-184.5" font-family="Helvetica,sans-Serif" font-size="10.00"> RayTracer::Entities::IMaterial,</text>
<text text-anchor="middle" x="270.5" y="-173.5" font-family="Helvetica,sans-Serif" font-size="10.00"> Factories::MaterialFactory &gt;</text>
<polyline fill="none" stroke="black" points="181,-166.5 360,-166.5 "/>
<text text-anchor="start" x="189" y="-154.5" font-family="Helvetica,sans-Serif" font-size="10.00"># _directory</text>
<polyline fill="none" stroke="black" points="181,-147.5 360,-147.5 "/>
<text text-anchor="start" x="189" y="-135.5" font-family="Helvetica,sans-Serif" font-size="10.00">+ PluginLoader()</text>
<text text-anchor="start" x="189" y="-124.5" font-family="Helvetica,sans-Serif" font-size="10.00">+ load()</text>
</a>
</g>
</g>
<!-- Node1&#45;&gt;Node4 -->
<g id="edge3" class="edge">
<title>Node1&#45;&gt;Node4</title>
<path fill="none" stroke="orange" d="M270.5,-289.35C270.5,-266.75 270.5,-240.66 270.5,-218.57"/>
<polygon fill="orange" stroke="orange" points="267,-289.47 270.5,-299.47 274,-289.47 267,-289.47"/>
<text text-anchor="start" x="270.5" y="-273" font-family="Helvetica,sans-Serif" font-size="10.00"> &lt; MaterialHandler,</text>
<text text-anchor="start" x="270.5" y="-262" font-family="Helvetica,sans-Serif" font-size="10.00"> RayTracer::Entities</text>
<text text-anchor="start" x="270.5" y="-251" font-family="Helvetica,sans-Serif" font-size="10.00">::IMaterial, Factories</text>
<text text-anchor="middle" x="320.5" y="-240" font-family="Helvetica,sans-Serif" font-size="10.00">::MaterialFactory &gt;</text>
</g>
<!-- Node6 -->
<g id="node6" class="node">
<title>Node6</title>
<g id="a_node6"><a xlink:href="a01473.html" target="_top" xlink:title=" ">
<polygon fill="white" stroke="black" points="378,-117.5 378,-218.5 545,-218.5 545,-117.5 378,-117.5"/>
<text text-anchor="start" x="386" y="-206.5" font-family="Helvetica,sans-Serif" font-size="10.00">RayTracer::Plugins</text>
<text text-anchor="start" x="386" y="-195.5" font-family="Helvetica,sans-Serif" font-size="10.00">::PluginLoader&lt; EntityHandler,</text>
<text text-anchor="start" x="386" y="-184.5" font-family="Helvetica,sans-Serif" font-size="10.00"> RayTracer::Entities::IEntity,</text>
<text text-anchor="middle" x="461.5" y="-173.5" font-family="Helvetica,sans-Serif" font-size="10.00"> Factories::EntityFactory &gt;</text>
<polyline fill="none" stroke="black" points="378,-166.5 545,-166.5 "/>
<text text-anchor="start" x="386" y="-154.5" font-family="Helvetica,sans-Serif" font-size="10.00"># _directory</text>
<polyline fill="none" stroke="black" points="378,-147.5 545,-147.5 "/>
<text text-anchor="start" x="386" y="-135.5" font-family="Helvetica,sans-Serif" font-size="10.00">+ PluginLoader()</text>
<text text-anchor="start" x="386" y="-124.5" font-family="Helvetica,sans-Serif" font-size="10.00">+ load()</text>
</a>
</g>
</g>
<!-- Node1&#45;&gt;Node6 -->
<g id="edge5" class="edge">
<title>Node1&#45;&gt;Node6</title>
<path fill="none" stroke="orange" d="M348.14,-301.28C357.4,-294.98 366.42,-288.17 374.5,-281 394.94,-262.86 414.01,-239.4 429.06,-218.63"/>
<polygon fill="orange" stroke="orange" points="346.01,-298.49 339.6,-306.92 349.87,-304.33 346.01,-298.49"/>
<text text-anchor="start" x="414.5" y="-267.5" font-family="Helvetica,sans-Serif" font-size="10.00"> &lt; EntityHandler, RayTracer</text>
<text text-anchor="start" x="414.5" y="-256.5" font-family="Helvetica,sans-Serif" font-size="10.00">::Entities::IEntity, Factories</text>
<text text-anchor="middle" x="482.5" y="-245.5" font-family="Helvetica,sans-Serif" font-size="10.00">::EntityFactory &gt;</text>
</g>
<!-- Node3 -->
<g id="node3" class="node">
<title>Node3</title>
<g id="a_node3"><a xlink:href="a01449.html" target="_top" xlink:title="The FilterLoader.">
<polygon fill="white" stroke="black" points="23.5,-0.5 23.5,-79.5 139.5,-79.5 139.5,-0.5 23.5,-0.5"/>
<text text-anchor="start" x="31.5" y="-67.5" font-family="Helvetica,sans-Serif" font-size="10.00">RayTracer::Plugins</text>
<text text-anchor="middle" x="81.5" y="-56.5" font-family="Helvetica,sans-Serif" font-size="10.00">::Filters::FilterLoader</text>
<polyline fill="none" stroke="black" points="23.5,-49.5 139.5,-49.5 "/>
<text text-anchor="middle" x="81.5" y="-37.5" font-family="Helvetica,sans-Serif" font-size="10.00"> </text>
<polyline fill="none" stroke="black" points="23.5,-30.5 139.5,-30.5 "/>
<text text-anchor="start" x="31.5" y="-18.5" font-family="Helvetica,sans-Serif" font-size="10.00">+ FilterLoader()</text>
<text text-anchor="start" x="31.5" y="-7.5" font-family="Helvetica,sans-Serif" font-size="10.00">+ loadFilters()</text>
</a>
</g>
</g>
<!-- Node2&#45;&gt;Node3 -->
<g id="edge2" class="edge">
<title>Node2&#45;&gt;Node3</title>
<path fill="none" stroke="darkgreen" d="M81.5,-107.11C81.5,-97.74 81.5,-88.28 81.5,-79.56"/>
<polygon fill="none" stroke="darkgreen" points="78,-107.2 81.5,-117.2 85,-107.2 78,-107.2"/>
</g>
<!-- Node5 -->
<g id="node5" class="node">
<title>Node5</title>
<g id="a_node5"><a xlink:href="a01465.html" target="_top" xlink:title="The MaterialLoader.">
<polygon fill="white" stroke="black" points="196.5,-0.5 196.5,-79.5 344.5,-79.5 344.5,-0.5 196.5,-0.5"/>
<text text-anchor="start" x="204.5" y="-67.5" font-family="Helvetica,sans-Serif" font-size="10.00">RayTracer::Plugins</text>
<text text-anchor="middle" x="270.5" y="-56.5" font-family="Helvetica,sans-Serif" font-size="10.00">::Materials::MaterialLoader</text>
<polyline fill="none" stroke="black" points="196.5,-49.5 344.5,-49.5 "/>
<text text-anchor="start" x="204.5" y="-37.5" font-family="Helvetica,sans-Serif" font-size="10.00">&#45; _directory</text>
<polyline fill="none" stroke="black" points="196.5,-30.5 344.5,-30.5 "/>
<text text-anchor="start" x="204.5" y="-18.5" font-family="Helvetica,sans-Serif" font-size="10.00">+ MaterialLoader()</text>
<text text-anchor="start" x="204.5" y="-7.5" font-family="Helvetica,sans-Serif" font-size="10.00">+ loadMaterials()</text>
</a>
</g>
</g>
<!-- Node4&#45;&gt;Node5 -->
<g id="edge4" class="edge">
<title>Node4&#45;&gt;Node5</title>
<path fill="none" stroke="darkgreen" d="M270.5,-107.11C270.5,-97.74 270.5,-88.28 270.5,-79.56"/>
<polygon fill="none" stroke="darkgreen" points="267,-107.2 270.5,-117.2 274,-107.2 267,-107.2"/>
</g>
<!-- Node7 -->
<g id="node7" class="node">
<title>Node7</title>
<g id="a_node7"><a xlink:href="a01437.html" target="_top" xlink:title="The EntityLoader.">
<polygon fill="white" stroke="black" points="398,-0.5 398,-79.5 525,-79.5 525,-0.5 398,-0.5"/>
<text text-anchor="start" x="406" y="-67.5" font-family="Helvetica,sans-Serif" font-size="10.00">RayTracer::Plugins</text>
<text text-anchor="middle" x="461.5" y="-56.5" font-family="Helvetica,sans-Serif" font-size="10.00">::Entities::EntityLoader</text>
<polyline fill="none" stroke="black" points="398,-49.5 525,-49.5 "/>
<text text-anchor="start" x="406" y="-37.5" font-family="Helvetica,sans-Serif" font-size="10.00">&#45; _directory</text>
<polyline fill="none" stroke="black" points="398,-30.5 525,-30.5 "/>
<text text-anchor="start" x="406" y="-18.5" font-family="Helvetica,sans-Serif" font-size="10.00">+ EntityLoader()</text>
<text text-anchor="start" x="406" y="-7.5" font-family="Helvetica,sans-Serif" font-size="10.00">+ loadEntities()</text>
</a>
</g>
</g>
<!-- Node6&#45;&gt;Node7 -->
<g id="edge6" class="edge">
<title>Node6&#45;&gt;Node7</title>
<path fill="none" stroke="darkgreen" d="M461.5,-107.11C461.5,-97.74 461.5,-88.28 461.5,-79.56"/>
<polygon fill="none" stroke="darkgreen" points="458,-107.2 461.5,-117.2 465,-107.2 458,-107.2"/>
</g>
</g>
</svg>
