<?xml version="1.0" encoding="UTF-8" standalone="no"?>
<!DOCTYPE svg PUBLIC "-//W3C//DTD SVG 1.1//EN"
 "http://www.w3.org/Graphics/SVG/1.1/DTD/svg11.dtd">
<!-- Generated by graphviz version 2.43.0 (0)
 -->
<!-- Title: RayTracer::Plugins::Materials::IMaterialCreator Pages: 1 -->
<svg width="680pt" height="215pt"
 viewBox="0.00 0.00 680.00 215.00" xmlns="http://www.w3.org/2000/svg" xmlns:xlink="http://www.w3.org/1999/xlink">
<g id="graph0" class="graph" transform="scale(1 1) rotate(0) translate(4 211)">
<title>RayTracer::Plugins::Materials::IMaterialCreator</title>
<polygon fill="white" stroke="transparent" points="-4,4 -4,-211 676,-211 676,4 -4,4"/>
<!-- Node1 -->
<g id="node1" class="node">
<title>Node1</title>
<g id="a_node1"><a xlink:title="The IMaterialCreator class.">
<polygon fill="#bfbfbf" stroke="black" points="288,-127.5 288,-206.5 442,-206.5 442,-127.5 288,-127.5"/>
<text text-anchor="start" x="296" y="-194.5" font-family="Helvetica,sans-Serif" font-size="10.00">RayTracer::Plugins</text>
<text text-anchor="middle" x="365" y="-183.5" font-family="Helvetica,sans-Serif" font-size="10.00">::Materials::IMaterialCreator</text>
<polyline fill="none" stroke="black" points="288,-176.5 442,-176.5 "/>
<text text-anchor="middle" x="365" y="-164.5" font-family="Helvetica,sans-Serif" font-size="10.00"> </text>
<polyline fill="none" stroke="black" points="288,-157.5 442,-157.5 "/>
<text text-anchor="start" x="296" y="-145.5" font-family="Helvetica,sans-Serif" font-size="10.00">+ ~IMaterialCreator()</text>
<text text-anchor="start" x="296" y="-134.5" font-family="Helvetica,sans-Serif" font-size="10.00">+ create()</text>
</a>
</g>
</g>
<!-- Node2 -->
<g id="node2" class="node">
<title>Node2</title>
<g id="a_node2"><a xlink:href="a01571.html" target="_top" xlink:title=" ">
<polygon fill="white" stroke="black" points="0,-6 0,-85 180,-85 180,-6 0,-6"/>
<text text-anchor="start" x="8" y="-73" font-family="Helvetica,sans-Serif" font-size="10.00">RayTracer::PluginsExt</text>
<text text-anchor="middle" x="90" y="-62" font-family="Helvetica,sans-Serif" font-size="10.00">::ChessBoard::ChessBoardCreator</text>
<polyline fill="none" stroke="black" points="0,-55 180,-55 "/>
<text text-anchor="start" x="8" y="-43" font-family="Helvetica,sans-Serif" font-size="10.00">&#45; _elements</text>
<polyline fill="none" stroke="black" points="0,-36 180,-36 "/>
<text text-anchor="start" x="8" y="-24" font-family="Helvetica,sans-Serif" font-size="10.00">+ ~ChessBoardCreator()</text>
<text text-anchor="start" x="8" y="-13" font-family="Helvetica,sans-Serif" font-size="10.00">+ create()</text>
</a>
</g>
</g>
<!-- Node1&#45;&gt;Node2 -->
<g id="edge1" class="edge">
<title>Node1&#45;&gt;Node2</title>
<path fill="none" stroke="midnightblue" d="M278.23,-129.42C249.75,-117.31 217.98,-103.68 189,-91 184.6,-89.07 180.09,-87.09 175.54,-85.08"/>
<polygon fill="none" stroke="midnightblue" points="277.18,-132.78 287.75,-133.47 279.92,-126.34 277.18,-132.78"/>
</g>
<!-- Node3 -->
<g id="node3" class="node">
<title>Node3</title>
<g id="a_node3"><a xlink:href="a01631.html" target="_top" xlink:title=" ">
<polygon fill="white" stroke="black" points="198,-0.5 198,-90.5 356,-90.5 356,-0.5 198,-0.5"/>
<text text-anchor="start" x="206" y="-78.5" font-family="Helvetica,sans-Serif" font-size="10.00">RayTracer::PluginsExt</text>
<text text-anchor="start" x="206" y="-67.5" font-family="Helvetica,sans-Serif" font-size="10.00">::PlainMaterial::PlainMaterial</text>
<text text-anchor="middle" x="277" y="-56.5" font-family="Helvetica,sans-Serif" font-size="10.00">Creator</text>
<polyline fill="none" stroke="black" points="198,-49.5 356,-49.5 "/>
<text text-anchor="start" x="206" y="-37.5" font-family="Helvetica,sans-Serif" font-size="10.00">&#45; _elements</text>
<polyline fill="none" stroke="black" points="198,-30.5 356,-30.5 "/>
<text text-anchor="start" x="206" y="-18.5" font-family="Helvetica,sans-Serif" font-size="10.00">+ ~PlainMaterialCreator()</text>
<text text-anchor="start" x="206" y="-7.5" font-family="Helvetica,sans-Serif" font-size="10.00">+ create()</text>
</a>
</g>
</g>
<!-- Node1&#45;&gt;Node3 -->
<g id="edge2" class="edge">
<title>Node1&#45;&gt;Node3</title>
<path fill="none" stroke="midnightblue" d="M330.3,-118.88C323.52,-109.67 316.42,-100.03 309.7,-90.91"/>
<polygon fill="none" stroke="midnightblue" points="327.68,-121.22 336.43,-127.2 333.32,-117.07 327.68,-121.22"/>
</g>
<!-- Node4 -->
<g id="node4" class="node">
<title>Node4</title>
<g id="a_node4"><a xlink:href="a01675.html" target="_top" xlink:title=" ">
<polygon fill="white" stroke="black" points="374.5,-0.5 374.5,-90.5 531.5,-90.5 531.5,-0.5 374.5,-0.5"/>
<text text-anchor="start" x="382.5" y="-78.5" font-family="Helvetica,sans-Serif" font-size="10.00">RayTracer::PluginsExt</text>
<text text-anchor="start" x="382.5" y="-67.5" font-family="Helvetica,sans-Serif" font-size="10.00">::Transparency::Transparency</text>
<text text-anchor="middle" x="453" y="-56.5" font-family="Helvetica,sans-Serif" font-size="10.00">Creator</text>
<polyline fill="none" stroke="black" points="374.5,-49.5 531.5,-49.5 "/>
<text text-anchor="start" x="382.5" y="-37.5" font-family="Helvetica,sans-Serif" font-size="10.00">&#45; _elements</text>
<polyline fill="none" stroke="black" points="374.5,-30.5 531.5,-30.5 "/>
<text text-anchor="start" x="382.5" y="-18.5" font-family="Helvetica,sans-Serif" font-size="10.00">+ ~TransparencyCreator()</text>
<text text-anchor="start" x="382.5" y="-7.5" font-family="Helvetica,sans-Serif" font-size="10.00">+ create()</text>
</a>
</g>
</g>
<!-- Node1&#45;&gt;Node4 -->
<g id="edge3" class="edge">
<title>Node1&#45;&gt;Node4</title>
<path fill="none" stroke="midnightblue" d="M399.7,-118.88C406.48,-109.67 413.58,-100.03 420.3,-90.91"/>
<polygon fill="none" stroke="midnightblue" points="396.68,-117.07 393.57,-127.2 402.32,-121.22 396.68,-117.07"/>
</g>
<!-- Node5 -->
<g id="node5" class="node">
<title>Node5</title>
<g id="a_node5"><a xlink:href="a01691.html" target="_top" xlink:title=" ">
<polygon fill="white" stroke="black" points="550,-6 550,-85 672,-85 672,-6 550,-6"/>
<text text-anchor="start" x="558" y="-73" font-family="Helvetica,sans-Serif" font-size="10.00">RayTracer::PluginsExt</text>
<text text-anchor="middle" x="611" y="-62" font-family="Helvetica,sans-Serif" font-size="10.00">::Zebra::ZebraCreator</text>
<polyline fill="none" stroke="black" points="550,-55 672,-55 "/>
<text text-anchor="start" x="558" y="-43" font-family="Helvetica,sans-Serif" font-size="10.00">&#45; _elements</text>
<polyline fill="none" stroke="black" points="550,-36 672,-36 "/>
<text text-anchor="start" x="558" y="-24" font-family="Helvetica,sans-Serif" font-size="10.00">+ ~ZebraCreator()</text>
<text text-anchor="start" x="558" y="-13" font-family="Helvetica,sans-Serif" font-size="10.00">+ create()</text>
</a>
</g>
</g>
<!-- Node1&#45;&gt;Node5 -->
<g id="edge4" class="edge">
<title>Node1&#45;&gt;Node5</title>
<path fill="none" stroke="midnightblue" d="M451.35,-132.51C480.32,-120.41 512.49,-106.01 541,-91 544.57,-89.12 548.19,-87.12 551.82,-85.05"/>
<polygon fill="none" stroke="midnightblue" points="449.96,-129.3 442.07,-136.36 452.64,-135.76 449.96,-129.3"/>
</g>
</g>
</svg>
