<?xml version="1.0" encoding="UTF-8" standalone="no"?>
<!DOCTYPE svg PUBLIC "-//W3C//DTD SVG 1.1//EN"
 "http://www.w3.org/Graphics/SVG/1.1/DTD/svg11.dtd">
<!-- Generated by graphviz version 2.43.0 (0)
 -->
<!-- Title: RayTracer::PluginsExt::Camera::FullCustom::CustomRayIterator Pages: 1 -->
<svg width="393pt" height="628pt"
 viewBox="0.00 0.00 393.00 628.00" xmlns="http://www.w3.org/2000/svg" xmlns:xlink="http://www.w3.org/1999/xlink">
<g id="graph0" class="graph" transform="scale(1 1) rotate(0) translate(4 624)">
<title>RayTracer::PluginsExt::Camera::FullCustom::CustomRayIterator</title>
<polygon fill="white" stroke="transparent" points="-4,4 -4,-624 389,-624 389,4 -4,4"/>
<!-- Node1 -->
<g id="node1" class="node">
<title>Node1</title>
<g id="a_node1"><a xlink:title="The CustomRayIterator class.">
<polygon fill="#bfbfbf" stroke="black" points="126.5,-0.5 126.5,-101.5 254.5,-101.5 254.5,-0.5 126.5,-0.5"/>
<text text-anchor="start" x="134.5" y="-89.5" font-family="Helvetica,sans-Serif" font-size="10.00">RayTracer::PluginsExt</text>
<text text-anchor="start" x="134.5" y="-78.5" font-family="Helvetica,sans-Serif" font-size="10.00">::Camera::FullCustom</text>
<text text-anchor="middle" x="190.5" y="-67.5" font-family="Helvetica,sans-Serif" font-size="10.00">::CustomRayIterator</text>
<polyline fill="none" stroke="black" points="126.5,-60.5 254.5,-60.5 "/>
<text text-anchor="middle" x="190.5" y="-48.5" font-family="Helvetica,sans-Serif" font-size="10.00"> </text>
<polyline fill="none" stroke="black" points="126.5,-41.5 254.5,-41.5 "/>
<text text-anchor="start" x="134.5" y="-29.5" font-family="Helvetica,sans-Serif" font-size="10.00">+ CustomRayIterator()</text>
<text text-anchor="start" x="134.5" y="-18.5" font-family="Helvetica,sans-Serif" font-size="10.00">+ begin()</text>
<text text-anchor="start" x="134.5" y="-7.5" font-family="Helvetica,sans-Serif" font-size="10.00">+ end()</text>
</a>
</g>
</g>
<!-- Node2 -->
<g id="node2" class="node">
<title>Node2</title>
<g id="a_node2"><a xlink:href="a01273.html" target="_top" xlink:title="The RayIterator class.">
<polygon fill="white" stroke="black" points="0,-287 0,-377 113,-377 113,-287 0,-287"/>
<text text-anchor="start" x="8" y="-365" font-family="Helvetica,sans-Serif" font-size="10.00">RayTracer::Images::</text>
<text text-anchor="middle" x="56.5" y="-354" font-family="Helvetica,sans-Serif" font-size="10.00">IRayIterator</text>
<polyline fill="none" stroke="black" points="0,-347 113,-347 "/>
<text text-anchor="middle" x="56.5" y="-335" font-family="Helvetica,sans-Serif" font-size="10.00"> </text>
<polyline fill="none" stroke="black" points="0,-328 113,-328 "/>
<text text-anchor="start" x="8" y="-316" font-family="Helvetica,sans-Serif" font-size="10.00">+ ~IRayIterator()</text>
<text text-anchor="start" x="8" y="-305" font-family="Helvetica,sans-Serif" font-size="10.00">+ begin()</text>
<text text-anchor="start" x="8" y="-294" font-family="Helvetica,sans-Serif" font-size="10.00">+ end()</text>
</a>
</g>
</g>
<!-- Node2&#45;&gt;Node1 -->
<g id="edge1" class="edge">
<title>Node2&#45;&gt;Node1</title>
<path fill="none" stroke="midnightblue" d="M76.62,-277.41C88.91,-245.98 105.5,-205.73 122.5,-171 133.9,-147.7 147.92,-122.67 160.26,-101.61"/>
<polygon fill="none" stroke="midnightblue" points="73.31,-276.28 72.95,-286.87 79.83,-278.82 73.31,-276.28"/>
</g>
<!-- Node3 -->
<g id="node3" class="node">
<title>Node3</title>
<g id="a_node3"><a xlink:href="a01217.html" target="_top" xlink:title="The Vector3f class.">
<polygon fill="white" stroke="black" points="131.5,-171.5 131.5,-492.5 249.5,-492.5 249.5,-171.5 131.5,-171.5"/>
<text text-anchor="start" x="139.5" y="-480.5" font-family="Helvetica,sans-Serif" font-size="10.00">RayTracer::Entities</text>
<text text-anchor="middle" x="190.5" y="-469.5" font-family="Helvetica,sans-Serif" font-size="10.00">::Transform::Vector3f</text>
<polyline fill="none" stroke="black" points="131.5,-462.5 249.5,-462.5 "/>
<text text-anchor="middle" x="190.5" y="-450.5" font-family="Helvetica,sans-Serif" font-size="10.00"> </text>
<polyline fill="none" stroke="black" points="131.5,-443.5 249.5,-443.5 "/>
<text text-anchor="start" x="139.5" y="-431.5" font-family="Helvetica,sans-Serif" font-size="10.00">+ ~Vector3f()</text>
<text text-anchor="start" x="139.5" y="-420.5" font-family="Helvetica,sans-Serif" font-size="10.00">+ Vector3f()</text>
<text text-anchor="start" x="139.5" y="-409.5" font-family="Helvetica,sans-Serif" font-size="10.00">+ Vector3f()</text>
<text text-anchor="start" x="139.5" y="-398.5" font-family="Helvetica,sans-Serif" font-size="10.00">+ Vector3f()</text>
<text text-anchor="start" x="139.5" y="-387.5" font-family="Helvetica,sans-Serif" font-size="10.00">+ Vector3f()</text>
<text text-anchor="start" x="139.5" y="-376.5" font-family="Helvetica,sans-Serif" font-size="10.00">+ operator+()</text>
<text text-anchor="start" x="139.5" y="-365.5" font-family="Helvetica,sans-Serif" font-size="10.00">+ operator&#45;()</text>
<text text-anchor="start" x="139.5" y="-354.5" font-family="Helvetica,sans-Serif" font-size="10.00">+ operator*()</text>
<text text-anchor="start" x="139.5" y="-343.5" font-family="Helvetica,sans-Serif" font-size="10.00">+ operator/()</text>
<text text-anchor="start" x="139.5" y="-332.5" font-family="Helvetica,sans-Serif" font-size="10.00">+ operator=()</text>
<text text-anchor="start" x="139.5" y="-321.5" font-family="Helvetica,sans-Serif" font-size="10.00">+ getX()</text>
<text text-anchor="start" x="139.5" y="-310.5" font-family="Helvetica,sans-Serif" font-size="10.00">+ getY()</text>
<text text-anchor="start" x="139.5" y="-299.5" font-family="Helvetica,sans-Serif" font-size="10.00">+ getZ()</text>
<text text-anchor="start" x="139.5" y="-288.5" font-family="Helvetica,sans-Serif" font-size="10.00">+ getNorm()</text>
<text text-anchor="start" x="139.5" y="-277.5" font-family="Helvetica,sans-Serif" font-size="10.00">+ getNormalized()</text>
<text text-anchor="start" x="139.5" y="-266.5" font-family="Helvetica,sans-Serif" font-size="10.00">+ dot()</text>
<text text-anchor="start" x="139.5" y="-255.5" font-family="Helvetica,sans-Serif" font-size="10.00">+ getDistance()</text>
<text text-anchor="start" x="139.5" y="-244.5" font-family="Helvetica,sans-Serif" font-size="10.00">+ toDegrees()</text>
<text text-anchor="start" x="139.5" y="-233.5" font-family="Helvetica,sans-Serif" font-size="10.00">+ toRadians()</text>
<text text-anchor="start" x="139.5" y="-222.5" font-family="Helvetica,sans-Serif" font-size="10.00">+ rotateVector()</text>
<text text-anchor="start" x="139.5" y="-211.5" font-family="Helvetica,sans-Serif" font-size="10.00">+ getAngle()</text>
<text text-anchor="start" x="139.5" y="-200.5" font-family="Helvetica,sans-Serif" font-size="10.00">+ rotateX()</text>
<text text-anchor="start" x="139.5" y="-189.5" font-family="Helvetica,sans-Serif" font-size="10.00">+ rotateY()</text>
<text text-anchor="start" x="139.5" y="-178.5" font-family="Helvetica,sans-Serif" font-size="10.00">+ rotateZ()</text>
</a>
</g>
</g>
<!-- Node3&#45;&gt;Node1 -->
<g id="edge2" class="edge">
<title>Node3&#45;&gt;Node1</title>
<path fill="none" stroke="#404040" d="M190.5,-171.13C190.5,-150.85 190.5,-131.16 190.5,-113.81"/>
<polygon fill="none" stroke="#404040" points="190.5,-113.63 186.5,-107.63 190.5,-101.63 194.5,-107.63 190.5,-113.63"/>
<text text-anchor="middle" x="224" y="-145" font-family="Helvetica,sans-Serif" font-size="10.00"> &#45;_cameraPos</text>
<text text-anchor="middle" x="224" y="-134" font-family="Helvetica,sans-Serif" font-size="10.00">&#45;_fov</text>
<text text-anchor="middle" x="224" y="-123" font-family="Helvetica,sans-Serif" font-size="10.00">&#45;_fovXYZ</text>
</g>
<!-- Node4 -->
<g id="node4" class="node">
<title>Node4</title>
<g id="a_node4"><a xlink:title=" ">
<polygon fill="white" stroke="#bfbfbf" points="165.5,-562.5 165.5,-619.5 215.5,-619.5 215.5,-562.5 165.5,-562.5"/>
<text text-anchor="middle" x="190.5" y="-607.5" font-family="Helvetica,sans-Serif" font-size="10.00">double</text>
<polyline fill="none" stroke="#bfbfbf" points="165.5,-600.5 215.5,-600.5 "/>
<text text-anchor="middle" x="190.5" y="-588.5" font-family="Helvetica,sans-Serif" font-size="10.00"> </text>
<polyline fill="none" stroke="#bfbfbf" points="165.5,-581.5 215.5,-581.5 "/>
<text text-anchor="middle" x="190.5" y="-569.5" font-family="Helvetica,sans-Serif" font-size="10.00"> </text>
</a>
</g>
</g>
<!-- Node4&#45;&gt;Node3 -->
<g id="edge3" class="edge">
<title>Node4&#45;&gt;Node3</title>
<path fill="none" stroke="#404040" d="M190.5,-562.5C190.5,-547.29 190.5,-527 190.5,-504.74"/>
<polygon fill="none" stroke="#404040" points="190.5,-504.57 186.5,-498.57 190.5,-492.57 194.5,-498.57 190.5,-504.57"/>
<text text-anchor="middle" x="200" y="-536" font-family="Helvetica,sans-Serif" font-size="10.00"> &#45;_x</text>
<text text-anchor="middle" x="200" y="-525" font-family="Helvetica,sans-Serif" font-size="10.00">&#45;_y</text>
<text text-anchor="middle" x="200" y="-514" font-family="Helvetica,sans-Serif" font-size="10.00">&#45;_z</text>
</g>
<!-- Node5 -->
<g id="node5" class="node">
<title>Node5</title>
<g id="a_node5"><a xlink:href="a01213.html" target="_top" xlink:title="The Vector2i class.">
<polygon fill="white" stroke="black" points="268,-237.5 268,-426.5 385,-426.5 385,-237.5 268,-237.5"/>
<text text-anchor="start" x="276" y="-414.5" font-family="Helvetica,sans-Serif" font-size="10.00">RayTracer::Entities</text>
<text text-anchor="middle" x="326.5" y="-403.5" font-family="Helvetica,sans-Serif" font-size="10.00">::Transform::Vector2i</text>
<polyline fill="none" stroke="black" points="268,-396.5 385,-396.5 "/>
<text text-anchor="middle" x="326.5" y="-384.5" font-family="Helvetica,sans-Serif" font-size="10.00"> </text>
<polyline fill="none" stroke="black" points="268,-377.5 385,-377.5 "/>
<text text-anchor="start" x="276" y="-365.5" font-family="Helvetica,sans-Serif" font-size="10.00">+ ~Vector2i()</text>
<text text-anchor="start" x="276" y="-354.5" font-family="Helvetica,sans-Serif" font-size="10.00">+ Vector2i()</text>
<text text-anchor="start" x="276" y="-343.5" font-family="Helvetica,sans-Serif" font-size="10.00">+ Vector2i()</text>
<text text-anchor="start" x="276" y="-332.5" font-family="Helvetica,sans-Serif" font-size="10.00">+ Vector2i()</text>
<text text-anchor="start" x="276" y="-321.5" font-family="Helvetica,sans-Serif" font-size="10.00">+ Vector2i()</text>
<text text-anchor="start" x="276" y="-310.5" font-family="Helvetica,sans-Serif" font-size="10.00">+ operator+()</text>
<text text-anchor="start" x="276" y="-299.5" font-family="Helvetica,sans-Serif" font-size="10.00">+ operator&#45;()</text>
<text text-anchor="start" x="276" y="-288.5" font-family="Helvetica,sans-Serif" font-size="10.00">+ operator*()</text>
<text text-anchor="start" x="276" y="-277.5" font-family="Helvetica,sans-Serif" font-size="10.00">+ operator/()</text>
<text text-anchor="start" x="276" y="-266.5" font-family="Helvetica,sans-Serif" font-size="10.00">+ operator=()</text>
<text text-anchor="start" x="276" y="-255.5" font-family="Helvetica,sans-Serif" font-size="10.00">+ getX()</text>
<text text-anchor="start" x="276" y="-244.5" font-family="Helvetica,sans-Serif" font-size="10.00">+ getY()</text>
</a>
</g>
</g>
<!-- Node5&#45;&gt;Node1 -->
<g id="edge4" class="edge">
<title>Node5&#45;&gt;Node1</title>
<path fill="none" stroke="#404040" d="M308.52,-237.35C298.48,-199.09 283.44,-155.56 261.5,-120 259.65,-117 257.64,-114.05 255.5,-111.15"/>
<polygon fill="none" stroke="#404040" points="255.3,-110.89 248.43,-108.7 247.81,-101.52 254.68,-103.71 255.3,-110.89"/>
<text text-anchor="middle" x="311" y="-134" font-family="Helvetica,sans-Serif" font-size="10.00"> &#45;_screenSize</text>
</g>
<!-- Node6 -->
<g id="node6" class="node">
<title>Node6</title>
<g id="a_node6"><a xlink:title=" ">
<polygon fill="white" stroke="#bfbfbf" points="312,-562.5 312,-619.5 341,-619.5 341,-562.5 312,-562.5"/>
<text text-anchor="middle" x="326.5" y="-607.5" font-family="Helvetica,sans-Serif" font-size="10.00">int</text>
<polyline fill="none" stroke="#bfbfbf" points="312,-600.5 341,-600.5 "/>
<text text-anchor="middle" x="326.5" y="-588.5" font-family="Helvetica,sans-Serif" font-size="10.00"> </text>
<polyline fill="none" stroke="#bfbfbf" points="312,-581.5 341,-581.5 "/>
<text text-anchor="middle" x="326.5" y="-569.5" font-family="Helvetica,sans-Serif" font-size="10.00"> </text>
</a>
</g>
</g>
<!-- Node6&#45;&gt;Node5 -->
<g id="edge5" class="edge">
<title>Node6&#45;&gt;Node5</title>
<path fill="none" stroke="#404040" d="M326.5,-562.5C326.5,-532.9 326.5,-484 326.5,-438.92"/>
<polygon fill="none" stroke="#404040" points="326.5,-438.64 322.5,-432.64 326.5,-426.64 330.5,-432.64 326.5,-438.64"/>
<text text-anchor="middle" x="336" y="-530.5" font-family="Helvetica,sans-Serif" font-size="10.00"> &#45;_x</text>
<text text-anchor="middle" x="336" y="-519.5" font-family="Helvetica,sans-Serif" font-size="10.00">&#45;_y</text>
</g>
</g>
</svg>
