<?xml version="1.0" encoding="UTF-8" standalone="no"?>
<!DOCTYPE svg PUBLIC "-//W3C//DTD SVG 1.1//EN"
 "http://www.w3.org/Graphics/SVG/1.1/DTD/svg11.dtd">
<!-- Generated by graphviz version 2.43.0 (0)
 -->
<!-- Title: RayTracer::Scenes::SceneLoader::BadFileError Pages: 1 -->
<svg width="210pt" height="299pt"
 viewBox="0.00 0.00 210.00 299.00" xmlns="http://www.w3.org/2000/svg" xmlns:xlink="http://www.w3.org/1999/xlink">
<g id="graph0" class="graph" transform="scale(1 1) rotate(0) translate(4 295)">
<title>RayTracer::Scenes::SceneLoader::BadFileError</title>
<polygon fill="white" stroke="transparent" points="-4,4 -4,-295 206,-295 206,4 -4,4"/>
<!-- Node1 -->
<g id="node1" class="node">
<title>Node1</title>
<g id="a_node1"><a xlink:title=" ">
<polygon fill="#bfbfbf" stroke="black" points="0,-0.5 0,-79.5 144,-79.5 144,-0.5 0,-0.5"/>
<text text-anchor="start" x="8" y="-67.5" font-family="Helvetica,sans-Serif" font-size="10.00">RayTracer::Scenes::</text>
<text text-anchor="middle" x="72" y="-56.5" font-family="Helvetica,sans-Serif" font-size="10.00">SceneLoader::BadFileError</text>
<polyline fill="none" stroke="black" points="0,-49.5 144,-49.5 "/>
<text text-anchor="middle" x="72" y="-37.5" font-family="Helvetica,sans-Serif" font-size="10.00"> </text>
<polyline fill="none" stroke="black" points="0,-30.5 144,-30.5 "/>
<text text-anchor="start" x="8" y="-18.5" font-family="Helvetica,sans-Serif" font-size="10.00">+ BadFileError()</text>
<text text-anchor="start" x="8" y="-7.5" font-family="Helvetica,sans-Serif" font-size="10.00">+ what()</text>
</a>
</g>
</g>
<!-- Node2 -->
<g id="node2" class="node">
<title>Node2</title>
<g id="a_node2"><a xlink:title=" ">
<polygon fill="white" stroke="#bfbfbf" points="13,-127.5 13,-184.5 99,-184.5 99,-127.5 13,-127.5"/>
<text text-anchor="middle" x="56" y="-172.5" font-family="Helvetica,sans-Serif" font-size="10.00">std::exception</text>
<polyline fill="none" stroke="#bfbfbf" points="13,-165.5 99,-165.5 "/>
<text text-anchor="middle" x="56" y="-153.5" font-family="Helvetica,sans-Serif" font-size="10.00"> </text>
<polyline fill="none" stroke="#bfbfbf" points="13,-146.5 99,-146.5 "/>
<text text-anchor="middle" x="56" y="-134.5" font-family="Helvetica,sans-Serif" font-size="10.00"> </text>
</a>
</g>
</g>
<!-- Node2&#45;&gt;Node1 -->
<g id="edge1" class="edge">
<title>Node2&#45;&gt;Node1</title>
<path fill="none" stroke="midnightblue" d="M61.31,-117.18C63.01,-105.08 64.89,-91.68 66.59,-79.54"/>
<polygon fill="none" stroke="midnightblue" points="57.8,-117.01 59.87,-127.4 64.73,-117.99 57.8,-117.01"/>
</g>
<!-- Node3 -->
<g id="node3" class="node">
<title>Node3</title>
<g id="a_node3"><a xlink:title=" ">
<polygon fill="white" stroke="#bfbfbf" points="117.5,-127.5 117.5,-184.5 182.5,-184.5 182.5,-127.5 117.5,-127.5"/>
<text text-anchor="middle" x="150" y="-172.5" font-family="Helvetica,sans-Serif" font-size="10.00">std::string</text>
<polyline fill="none" stroke="#bfbfbf" points="117.5,-165.5 182.5,-165.5 "/>
<text text-anchor="middle" x="150" y="-153.5" font-family="Helvetica,sans-Serif" font-size="10.00"> </text>
<polyline fill="none" stroke="#bfbfbf" points="117.5,-146.5 182.5,-146.5 "/>
<text text-anchor="middle" x="150" y="-134.5" font-family="Helvetica,sans-Serif" font-size="10.00"> </text>
</a>
</g>
</g>
<!-- Node3&#45;&gt;Node1 -->
<g id="edge2" class="edge">
<title>Node3&#45;&gt;Node1</title>
<path fill="none" stroke="#404040" d="M131.12,-127.4C123.36,-116.07 114.15,-102.6 105.32,-89.7"/>
<polygon fill="none" stroke="#404040" points="105.15,-89.44 98.46,-86.75 98.37,-79.54 105.06,-82.23 105.15,-89.44"/>
<text text-anchor="middle" x="135" y="-101" font-family="Helvetica,sans-Serif" font-size="10.00"> &#45;_error</text>
</g>
<!-- Node4 -->
<g id="node4" class="node">
<title>Node4</title>
<g id="a_node4"><a xlink:title=" ">
<polygon fill="white" stroke="#bfbfbf" points="98,-222.5 98,-290.5 202,-290.5 202,-222.5 98,-222.5"/>
<text text-anchor="start" x="106" y="-278.5" font-family="Helvetica,sans-Serif" font-size="10.00">std::basic_string&lt;</text>
<text text-anchor="middle" x="150" y="-267.5" font-family="Helvetica,sans-Serif" font-size="10.00"> Char &gt;</text>
<polyline fill="none" stroke="#bfbfbf" points="98,-260.5 202,-260.5 "/>
<text text-anchor="middle" x="150" y="-248.5" font-family="Helvetica,sans-Serif" font-size="10.00"> </text>
<polyline fill="none" stroke="#bfbfbf" points="98,-241.5 202,-241.5 "/>
<text text-anchor="middle" x="150" y="-229.5" font-family="Helvetica,sans-Serif" font-size="10.00"> </text>
</a>
</g>
</g>
<!-- Node4&#45;&gt;Node3 -->
<g id="edge3" class="edge">
<title>Node4&#45;&gt;Node3</title>
<path fill="none" stroke="midnightblue" d="M150,-212.38C150,-202.94 150,-193.2 150,-184.57"/>
<polygon fill="none" stroke="midnightblue" points="146.5,-212.43 150,-222.43 153.5,-212.43 146.5,-212.43"/>
</g>
</g>
</svg>
