<?xml version="1.0" encoding="UTF-8" standalone="no"?>
<!DOCTYPE svg PUBLIC "-//W3C//DTD SVG 1.1//EN"
 "http://www.w3.org/Graphics/SVG/1.1/DTD/svg11.dtd">
<!-- Generated by graphviz version 2.43.0 (0)
 -->
<!-- Title: RayTracer::PluginsExt::Camera::FullCustom::CameraCustomEntity Pages: 1 -->
<svg width="1133pt" height="975pt"
 viewBox="0.00 0.00 1132.50 975.00" xmlns="http://www.w3.org/2000/svg" xmlns:xlink="http://www.w3.org/1999/xlink">
<g id="graph0" class="graph" transform="scale(1 1) rotate(0) translate(4 971)">
<title>RayTracer::PluginsExt::Camera::FullCustom::CameraCustomEntity</title>
<polygon fill="white" stroke="transparent" points="-4,4 -4,-971 1128.5,-971 1128.5,4 -4,4"/>
<!-- Node1 -->
<g id="node1" class="node">
<title>Node1</title>
<g id="a_node1"><a xlink:title=" ">
<polygon fill="#bfbfbf" stroke="black" points="558.5,-0.5 558.5,-200.5 706.5,-200.5 706.5,-0.5 558.5,-0.5"/>
<text text-anchor="start" x="566.5" y="-188.5" font-family="Helvetica,sans-Serif" font-size="10.00">RayTracer::PluginsExt</text>
<text text-anchor="start" x="566.5" y="-177.5" font-family="Helvetica,sans-Serif" font-size="10.00">::Camera::FullCustom</text>
<text text-anchor="middle" x="632.5" y="-166.5" font-family="Helvetica,sans-Serif" font-size="10.00">::CameraCustomEntity</text>
<polyline fill="none" stroke="black" points="558.5,-159.5 706.5,-159.5 "/>
<text text-anchor="middle" x="632.5" y="-147.5" font-family="Helvetica,sans-Serif" font-size="10.00"> </text>
<polyline fill="none" stroke="black" points="558.5,-140.5 706.5,-140.5 "/>
<text text-anchor="start" x="566.5" y="-128.5" font-family="Helvetica,sans-Serif" font-size="10.00">+ CameraCustomEntity()</text>
<text text-anchor="start" x="566.5" y="-117.5" font-family="Helvetica,sans-Serif" font-size="10.00">+ ~CameraCustomEntity()</text>
<text text-anchor="start" x="566.5" y="-106.5" font-family="Helvetica,sans-Serif" font-size="10.00">+ getType()</text>
<text text-anchor="start" x="566.5" y="-95.5" font-family="Helvetica,sans-Serif" font-size="10.00">+ getTransform()</text>
<text text-anchor="start" x="566.5" y="-84.5" font-family="Helvetica,sans-Serif" font-size="10.00">+ getTransform()</text>
<text text-anchor="start" x="566.5" y="-73.5" font-family="Helvetica,sans-Serif" font-size="10.00">+ getFocal()</text>
<text text-anchor="start" x="566.5" y="-62.5" font-family="Helvetica,sans-Serif" font-size="10.00">+ setFocal()</text>
<text text-anchor="start" x="566.5" y="-51.5" font-family="Helvetica,sans-Serif" font-size="10.00">+ setSize()</text>
<text text-anchor="start" x="566.5" y="-40.5" font-family="Helvetica,sans-Serif" font-size="10.00">+ getSize()</text>
<text text-anchor="start" x="566.5" y="-29.5" font-family="Helvetica,sans-Serif" font-size="10.00">+ render()</text>
<text text-anchor="start" x="566.5" y="-18.5" font-family="Helvetica,sans-Serif" font-size="10.00">+ getImage()</text>
<text text-anchor="start" x="566.5" y="-7.5" font-family="Helvetica,sans-Serif" font-size="10.00">+ getFilters()</text>
</a>
</g>
</g>
<!-- Node2 -->
<g id="node2" class="node">
<title>Node2</title>
<g id="a_node2"><a xlink:href="a01192.html" target="_top" xlink:title="The ICamera class.">
<polygon fill="white" stroke="black" points="63,-270.5 63,-415.5 170,-415.5 170,-270.5 63,-270.5"/>
<text text-anchor="start" x="71" y="-403.5" font-family="Helvetica,sans-Serif" font-size="10.00">RayTracer::Entities</text>
<text text-anchor="middle" x="116.5" y="-392.5" font-family="Helvetica,sans-Serif" font-size="10.00">::ICamera</text>
<polyline fill="none" stroke="black" points="63,-385.5 170,-385.5 "/>
<text text-anchor="middle" x="116.5" y="-373.5" font-family="Helvetica,sans-Serif" font-size="10.00"> </text>
<polyline fill="none" stroke="black" points="63,-366.5 170,-366.5 "/>
<text text-anchor="start" x="71" y="-354.5" font-family="Helvetica,sans-Serif" font-size="10.00">+ ~ICamera()</text>
<text text-anchor="start" x="71" y="-343.5" font-family="Helvetica,sans-Serif" font-size="10.00">+ getFocal()</text>
<text text-anchor="start" x="71" y="-332.5" font-family="Helvetica,sans-Serif" font-size="10.00">+ setFocal()</text>
<text text-anchor="start" x="71" y="-321.5" font-family="Helvetica,sans-Serif" font-size="10.00">+ setSize()</text>
<text text-anchor="start" x="71" y="-310.5" font-family="Helvetica,sans-Serif" font-size="10.00">+ getSize()</text>
<text text-anchor="start" x="71" y="-299.5" font-family="Helvetica,sans-Serif" font-size="10.00">+ render()</text>
<text text-anchor="start" x="71" y="-288.5" font-family="Helvetica,sans-Serif" font-size="10.00">+ getImage()</text>
<text text-anchor="start" x="71" y="-277.5" font-family="Helvetica,sans-Serif" font-size="10.00">+ getFilters()</text>
</a>
</g>
</g>
<!-- Node2&#45;&gt;Node1 -->
<g id="edge1" class="edge">
<title>Node2&#45;&gt;Node1</title>
<path fill="none" stroke="midnightblue" d="M178.03,-291.52C197.69,-276.56 219.94,-260.78 241.5,-248 344.39,-187.01 477.08,-143.78 558.41,-120.75"/>
<polygon fill="none" stroke="midnightblue" points="175.86,-288.77 170.07,-297.64 180.13,-294.32 175.86,-288.77"/>
</g>
<!-- Node3 -->
<g id="node3" class="node">
<title>Node3</title>
<g id="a_node3"><a xlink:href="a01196.html" target="_top" xlink:title="The IEntity class.">
<polygon fill="white" stroke="black" points="0,-623 0,-724 107,-724 107,-623 0,-623"/>
<text text-anchor="start" x="8" y="-712" font-family="Helvetica,sans-Serif" font-size="10.00">RayTracer::Entities</text>
<text text-anchor="middle" x="53.5" y="-701" font-family="Helvetica,sans-Serif" font-size="10.00">::IEntity</text>
<polyline fill="none" stroke="black" points="0,-694 107,-694 "/>
<text text-anchor="middle" x="53.5" y="-682" font-family="Helvetica,sans-Serif" font-size="10.00"> </text>
<polyline fill="none" stroke="black" points="0,-675 107,-675 "/>
<text text-anchor="start" x="8" y="-663" font-family="Helvetica,sans-Serif" font-size="10.00">+ ~IEntity()</text>
<text text-anchor="start" x="8" y="-652" font-family="Helvetica,sans-Serif" font-size="10.00">+ getTransform()</text>
<text text-anchor="start" x="8" y="-641" font-family="Helvetica,sans-Serif" font-size="10.00">+ getTransform()</text>
<text text-anchor="start" x="8" y="-630" font-family="Helvetica,sans-Serif" font-size="10.00">+ getType()</text>
</a>
</g>
</g>
<!-- Node3&#45;&gt;Node2 -->
<g id="edge2" class="edge">
<title>Node3&#45;&gt;Node2</title>
<path fill="none" stroke="midnightblue" d="M64.92,-612.93C75.56,-557.45 91.45,-474.64 102.77,-415.58"/>
<polygon fill="none" stroke="midnightblue" points="61.45,-612.48 63,-622.96 68.32,-613.8 61.45,-612.48"/>
</g>
<!-- Node4 -->
<g id="node4" class="node">
<title>Node4</title>
<g id="a_node4"><a xlink:href="a01216.html" target="_top" xlink:title="The Transform class.">
<polygon fill="white" stroke="black" points="250.5,-270.5 250.5,-415.5 376.5,-415.5 376.5,-270.5 250.5,-270.5"/>
<text text-anchor="start" x="258.5" y="-403.5" font-family="Helvetica,sans-Serif" font-size="10.00">RayTracer::Entities</text>
<text text-anchor="middle" x="313.5" y="-392.5" font-family="Helvetica,sans-Serif" font-size="10.00">::Transform::Transform</text>
<polyline fill="none" stroke="black" points="250.5,-385.5 376.5,-385.5 "/>
<text text-anchor="middle" x="313.5" y="-373.5" font-family="Helvetica,sans-Serif" font-size="10.00"> </text>
<polyline fill="none" stroke="black" points="250.5,-366.5 376.5,-366.5 "/>
<text text-anchor="start" x="258.5" y="-354.5" font-family="Helvetica,sans-Serif" font-size="10.00">+ Transform()</text>
<text text-anchor="start" x="258.5" y="-343.5" font-family="Helvetica,sans-Serif" font-size="10.00">+ setPosition()</text>
<text text-anchor="start" x="258.5" y="-332.5" font-family="Helvetica,sans-Serif" font-size="10.00">+ getPosition()</text>
<text text-anchor="start" x="258.5" y="-321.5" font-family="Helvetica,sans-Serif" font-size="10.00">+ setRotation()</text>
<text text-anchor="start" x="258.5" y="-310.5" font-family="Helvetica,sans-Serif" font-size="10.00">+ getRotation()</text>
<text text-anchor="start" x="258.5" y="-299.5" font-family="Helvetica,sans-Serif" font-size="10.00">+ setScale()</text>
<text text-anchor="start" x="258.5" y="-288.5" font-family="Helvetica,sans-Serif" font-size="10.00">+ getScale()</text>
<text text-anchor="start" x="258.5" y="-277.5" font-family="Helvetica,sans-Serif" font-size="10.00">+ operator=()</text>
</a>
</g>
</g>
<!-- Node4&#45;&gt;Node1 -->
<g id="edge3" class="edge">
<title>Node4&#45;&gt;Node1</title>
<path fill="none" stroke="#404040" d="M300.28,-270.24C300.49,-252.18 304.13,-233.76 314.5,-219 366.59,-144.87 471.01,-117.41 546,-107.29"/>
<polygon fill="none" stroke="#404040" points="546.32,-107.25 551.78,-102.53 558.23,-105.76 552.78,-110.47 546.32,-107.25"/>
<text text-anchor="middle" x="359.5" y="-222" font-family="Helvetica,sans-Serif" font-size="10.00"> &#45;_positionCamera</text>
</g>
<!-- Node5 -->
<g id="node5" class="node">
<title>Node5</title>
<g id="a_node5"><a xlink:href="a01212.html" target="_top" xlink:title="The ITransform class.">
<polygon fill="white" stroke="black" points="125,-601 125,-746 254,-746 254,-601 125,-601"/>
<text text-anchor="start" x="133" y="-734" font-family="Helvetica,sans-Serif" font-size="10.00">RayTracer::Entities</text>
<text text-anchor="middle" x="189.5" y="-723" font-family="Helvetica,sans-Serif" font-size="10.00">::Transform::ITransform</text>
<polyline fill="none" stroke="black" points="125,-716 254,-716 "/>
<text text-anchor="middle" x="189.5" y="-704" font-family="Helvetica,sans-Serif" font-size="10.00"> </text>
<polyline fill="none" stroke="black" points="125,-697 254,-697 "/>
<text text-anchor="start" x="133" y="-685" font-family="Helvetica,sans-Serif" font-size="10.00">+ ~ITransform()</text>
<text text-anchor="start" x="133" y="-674" font-family="Helvetica,sans-Serif" font-size="10.00">+ setPosition()</text>
<text text-anchor="start" x="133" y="-663" font-family="Helvetica,sans-Serif" font-size="10.00">+ getPosition()</text>
<text text-anchor="start" x="133" y="-652" font-family="Helvetica,sans-Serif" font-size="10.00">+ setRotation()</text>
<text text-anchor="start" x="133" y="-641" font-family="Helvetica,sans-Serif" font-size="10.00">+ getRotation()</text>
<text text-anchor="start" x="133" y="-630" font-family="Helvetica,sans-Serif" font-size="10.00">+ setScale()</text>
<text text-anchor="start" x="133" y="-619" font-family="Helvetica,sans-Serif" font-size="10.00">+ getScale()</text>
<text text-anchor="start" x="133" y="-608" font-family="Helvetica,sans-Serif" font-size="10.00">+ operator=()</text>
</a>
</g>
</g>
<!-- Node5&#45;&gt;Node4 -->
<g id="edge4" class="edge">
<title>Node5&#45;&gt;Node4</title>
<path fill="none" stroke="midnightblue" d="M220.15,-591.29C240.5,-537.4 266.95,-467.32 286.5,-415.53"/>
<polygon fill="none" stroke="midnightblue" points="216.82,-590.22 216.56,-600.82 223.37,-592.7 216.82,-590.22"/>
</g>
<!-- Node6 -->
<g id="node6" class="node">
<title>Node6</title>
<g id="a_node6"><a xlink:href="a01224.html" target="_top" xlink:title="The Vector3f class.">
<polygon fill="white" stroke="black" points="272.5,-507.5 272.5,-839.5 390.5,-839.5 390.5,-507.5 272.5,-507.5"/>
<text text-anchor="start" x="280.5" y="-827.5" font-family="Helvetica,sans-Serif" font-size="10.00">RayTracer::Entities</text>
<text text-anchor="middle" x="331.5" y="-816.5" font-family="Helvetica,sans-Serif" font-size="10.00">::Transform::Vector3f</text>
<polyline fill="none" stroke="black" points="272.5,-809.5 390.5,-809.5 "/>
<text text-anchor="middle" x="331.5" y="-797.5" font-family="Helvetica,sans-Serif" font-size="10.00"> </text>
<polyline fill="none" stroke="black" points="272.5,-790.5 390.5,-790.5 "/>
<text text-anchor="start" x="280.5" y="-778.5" font-family="Helvetica,sans-Serif" font-size="10.00">+ ~Vector3f()</text>
<text text-anchor="start" x="280.5" y="-767.5" font-family="Helvetica,sans-Serif" font-size="10.00">+ Vector3f()</text>
<text text-anchor="start" x="280.5" y="-756.5" font-family="Helvetica,sans-Serif" font-size="10.00">+ Vector3f()</text>
<text text-anchor="start" x="280.5" y="-745.5" font-family="Helvetica,sans-Serif" font-size="10.00">+ Vector3f()</text>
<text text-anchor="start" x="280.5" y="-734.5" font-family="Helvetica,sans-Serif" font-size="10.00">+ Vector3f()</text>
<text text-anchor="start" x="280.5" y="-723.5" font-family="Helvetica,sans-Serif" font-size="10.00">+ operator+()</text>
<text text-anchor="start" x="280.5" y="-712.5" font-family="Helvetica,sans-Serif" font-size="10.00">+ operator&#45;()</text>
<text text-anchor="start" x="280.5" y="-701.5" font-family="Helvetica,sans-Serif" font-size="10.00">+ operator*()</text>
<text text-anchor="start" x="280.5" y="-690.5" font-family="Helvetica,sans-Serif" font-size="10.00">+ operator/()</text>
<text text-anchor="start" x="280.5" y="-679.5" font-family="Helvetica,sans-Serif" font-size="10.00">+ operator=()</text>
<text text-anchor="start" x="280.5" y="-668.5" font-family="Helvetica,sans-Serif" font-size="10.00">+ getX()</text>
<text text-anchor="start" x="280.5" y="-657.5" font-family="Helvetica,sans-Serif" font-size="10.00">+ getY()</text>
<text text-anchor="start" x="280.5" y="-646.5" font-family="Helvetica,sans-Serif" font-size="10.00">+ getZ()</text>
<text text-anchor="start" x="280.5" y="-635.5" font-family="Helvetica,sans-Serif" font-size="10.00">+ getNorm()</text>
<text text-anchor="start" x="280.5" y="-624.5" font-family="Helvetica,sans-Serif" font-size="10.00">+ getNormalized()</text>
<text text-anchor="start" x="280.5" y="-613.5" font-family="Helvetica,sans-Serif" font-size="10.00">+ getCrossed()</text>
<text text-anchor="start" x="280.5" y="-602.5" font-family="Helvetica,sans-Serif" font-size="10.00">+ dot()</text>
<text text-anchor="start" x="280.5" y="-591.5" font-family="Helvetica,sans-Serif" font-size="10.00">+ getDistance()</text>
<text text-anchor="start" x="280.5" y="-580.5" font-family="Helvetica,sans-Serif" font-size="10.00">+ toDegrees()</text>
<text text-anchor="start" x="280.5" y="-569.5" font-family="Helvetica,sans-Serif" font-size="10.00">+ toRadians()</text>
<text text-anchor="start" x="280.5" y="-558.5" font-family="Helvetica,sans-Serif" font-size="10.00">+ rotateVector()</text>
<text text-anchor="start" x="280.5" y="-547.5" font-family="Helvetica,sans-Serif" font-size="10.00">+ getAngle()</text>
<text text-anchor="start" x="280.5" y="-536.5" font-family="Helvetica,sans-Serif" font-size="10.00">+ rotateX()</text>
<text text-anchor="start" x="280.5" y="-525.5" font-family="Helvetica,sans-Serif" font-size="10.00">+ rotateY()</text>
<text text-anchor="start" x="280.5" y="-514.5" font-family="Helvetica,sans-Serif" font-size="10.00">+ rotateZ()</text>
</a>
</g>
</g>
<!-- Node6&#45;&gt;Node4 -->
<g id="edge5" class="edge">
<title>Node6&#45;&gt;Node4</title>
<path fill="none" stroke="#404040" d="M322.45,-507.29C320.93,-479.68 319.42,-452.11 318.09,-427.69"/>
<polygon fill="none" stroke="#404040" points="318.08,-427.58 313.76,-421.81 317.42,-415.6 321.75,-421.37 318.08,-427.58"/>
<text text-anchor="middle" x="347.5" y="-481" font-family="Helvetica,sans-Serif" font-size="10.00"> &#45;_position</text>
<text text-anchor="middle" x="347.5" y="-470" font-family="Helvetica,sans-Serif" font-size="10.00">&#45;_rotation</text>
<text text-anchor="middle" x="347.5" y="-459" font-family="Helvetica,sans-Serif" font-size="10.00">&#45;_scale</text>
</g>
<!-- Node7 -->
<g id="node7" class="node">
<title>Node7</title>
<g id="a_node7"><a xlink:title=" ">
<polygon fill="white" stroke="#bfbfbf" points="363.5,-909.5 363.5,-966.5 413.5,-966.5 413.5,-909.5 363.5,-909.5"/>
<text text-anchor="middle" x="388.5" y="-954.5" font-family="Helvetica,sans-Serif" font-size="10.00">double</text>
<polyline fill="none" stroke="#bfbfbf" points="363.5,-947.5 413.5,-947.5 "/>
<text text-anchor="middle" x="388.5" y="-935.5" font-family="Helvetica,sans-Serif" font-size="10.00"> </text>
<polyline fill="none" stroke="#bfbfbf" points="363.5,-928.5 413.5,-928.5 "/>
<text text-anchor="middle" x="388.5" y="-916.5" font-family="Helvetica,sans-Serif" font-size="10.00"> </text>
</a>
</g>
</g>
<!-- Node7&#45;&gt;Node1 -->
<g id="edge11" class="edge">
<title>Node7&#45;&gt;Node1</title>
<path fill="none" stroke="#404040" d="M397.18,-909.47C398.83,-903.43 400.39,-897.04 401.5,-891 427.45,-749.92 392.3,-375.26 458.5,-248 478.82,-208.94 514.44,-176.12 548.19,-151.5"/>
<polygon fill="none" stroke="#404040" points="548.33,-151.41 550.9,-144.67 558.11,-144.46 555.53,-151.19 548.33,-151.41"/>
<text text-anchor="middle" x="433.5" y="-470" font-family="Helvetica,sans-Serif" font-size="10.00"> &#45;_fov</text>
</g>
<!-- Node7&#45;&gt;Node6 -->
<g id="edge6" class="edge">
<title>Node7&#45;&gt;Node6</title>
<path fill="none" stroke="#404040" d="M382.51,-909.4C379.2,-894.16 374.77,-873.79 369.91,-851.4"/>
<polygon fill="none" stroke="#404040" points="369.88,-851.25 364.7,-846.24 367.33,-839.52 372.52,-844.54 369.88,-851.25"/>
<text text-anchor="middle" x="388" y="-883" font-family="Helvetica,sans-Serif" font-size="10.00"> &#45;_x</text>
<text text-anchor="middle" x="388" y="-872" font-family="Helvetica,sans-Serif" font-size="10.00">&#45;_y</text>
<text text-anchor="middle" x="388" y="-861" font-family="Helvetica,sans-Serif" font-size="10.00">&#45;_z</text>
</g>
<!-- Node8 -->
<g id="node8" class="node">
<title>Node8</title>
<g id="a_node8"><a xlink:title=" ">
<polygon fill="white" stroke="#bfbfbf" points="468,-303.5 468,-382.5 625,-382.5 625,-303.5 468,-303.5"/>
<text text-anchor="start" x="476" y="-370.5" font-family="Helvetica,sans-Serif" font-size="10.00">std::list&lt; std::reference</text>
<text text-anchor="start" x="476" y="-359.5" font-family="Helvetica,sans-Serif" font-size="10.00">_wrapper&lt; RayTracer::Filters</text>
<text text-anchor="middle" x="546.5" y="-348.5" font-family="Helvetica,sans-Serif" font-size="10.00">::IFilter &gt; &gt;</text>
<polyline fill="none" stroke="#bfbfbf" points="468,-341.5 625,-341.5 "/>
<text text-anchor="middle" x="546.5" y="-329.5" font-family="Helvetica,sans-Serif" font-size="10.00"> </text>
<polyline fill="none" stroke="#bfbfbf" points="468,-322.5 625,-322.5 "/>
<text text-anchor="middle" x="546.5" y="-310.5" font-family="Helvetica,sans-Serif" font-size="10.00"> </text>
</a>
</g>
</g>
<!-- Node8&#45;&gt;Node1 -->
<g id="edge7" class="edge">
<title>Node8&#45;&gt;Node1</title>
<path fill="none" stroke="#404040" d="M560.32,-303.36C569.19,-278.54 581.21,-244.93 592.9,-212.26"/>
<polygon fill="none" stroke="#404040" points="592.97,-212.05 591.22,-205.06 597.01,-200.76 598.75,-207.75 592.97,-212.05"/>
<text text-anchor="middle" x="609.5" y="-222" font-family="Helvetica,sans-Serif" font-size="10.00"> &#45;_filters</text>
</g>
<!-- Node9 -->
<g id="node9" class="node">
<title>Node9</title>
<g id="a_node9"><a xlink:title=" ">
<polygon fill="white" stroke="#bfbfbf" points="446.5,-634 446.5,-713 562.5,-713 562.5,-634 446.5,-634"/>
<text text-anchor="start" x="454.5" y="-701" font-family="Helvetica,sans-Serif" font-size="10.00">reference_wrapper&lt;</text>
<text text-anchor="start" x="454.5" y="-690" font-family="Helvetica,sans-Serif" font-size="10.00"> RayTracer::Filters</text>
<text text-anchor="middle" x="504.5" y="-679" font-family="Helvetica,sans-Serif" font-size="10.00">::IFilter &gt;</text>
<polyline fill="none" stroke="#bfbfbf" points="446.5,-672 562.5,-672 "/>
<text text-anchor="middle" x="504.5" y="-660" font-family="Helvetica,sans-Serif" font-size="10.00"> </text>
<polyline fill="none" stroke="#bfbfbf" points="446.5,-653 562.5,-653 "/>
<text text-anchor="middle" x="504.5" y="-641" font-family="Helvetica,sans-Serif" font-size="10.00"> </text>
</a>
</g>
</g>
<!-- Node9&#45;&gt;Node8 -->
<g id="edge8" class="edge">
<title>Node9&#45;&gt;Node8</title>
<path fill="none" stroke="#404040" d="M494.19,-633.96C484.15,-590.19 472.43,-516.94 487.5,-456 492.91,-434.14 503.44,-411.84 514.12,-392.95"/>
<polygon fill="none" stroke="#404040" points="514.15,-392.89 513.73,-385.7 520.22,-382.54 520.64,-389.74 514.15,-392.89"/>
<text text-anchor="middle" x="516.5" y="-470" font-family="Helvetica,sans-Serif" font-size="10.00"> +elements</text>
</g>
<!-- Node10 -->
<g id="node10" class="node">
<title>Node10</title>
<g id="a_node10"><a xlink:title=" ">
<polygon fill="white" stroke="#bfbfbf" points="581,-645 581,-702 662,-702 662,-645 581,-645"/>
<text text-anchor="middle" x="621.5" y="-690" font-family="Helvetica,sans-Serif" font-size="10.00">std::list&lt; T &gt;</text>
<polyline fill="none" stroke="#bfbfbf" points="581,-683 662,-683 "/>
<text text-anchor="middle" x="621.5" y="-671" font-family="Helvetica,sans-Serif" font-size="10.00"> </text>
<polyline fill="none" stroke="#bfbfbf" points="581,-664 662,-664 "/>
<text text-anchor="middle" x="621.5" y="-652" font-family="Helvetica,sans-Serif" font-size="10.00"> </text>
</a>
</g>
</g>
<!-- Node10&#45;&gt;Node8 -->
<g id="edge9" class="edge">
<title>Node10&#45;&gt;Node8</title>
<path fill="none" stroke="orange" d="M609.11,-635.01C597.31,-598.18 579.73,-540.22 568.5,-489 560.67,-453.31 554.71,-412.07 550.98,-382.72"/>
<polygon fill="orange" stroke="orange" points="605.87,-636.37 612.27,-644.81 612.53,-634.22 605.87,-636.37"/>
<text text-anchor="start" x="568.5" y="-475.5" font-family="Helvetica,sans-Serif" font-size="10.00"> &lt; std::reference_wrapper</text>
<text text-anchor="middle" x="644.5" y="-464.5" font-family="Helvetica,sans-Serif" font-size="10.00">&lt; RayTracer::Filters::IFilter &gt; &gt;</text>
</g>
<!-- Node11 -->
<g id="node11" class="node">
<title>Node11</title>
<g id="a_node11"><a xlink:title=" ">
<polygon fill="white" stroke="#bfbfbf" points="607,-909.5 607,-966.5 636,-966.5 636,-909.5 607,-909.5"/>
<text text-anchor="middle" x="621.5" y="-954.5" font-family="Helvetica,sans-Serif" font-size="10.00">T</text>
<polyline fill="none" stroke="#bfbfbf" points="607,-947.5 636,-947.5 "/>
<text text-anchor="middle" x="621.5" y="-935.5" font-family="Helvetica,sans-Serif" font-size="10.00"> </text>
<polyline fill="none" stroke="#bfbfbf" points="607,-928.5 636,-928.5 "/>
<text text-anchor="middle" x="621.5" y="-916.5" font-family="Helvetica,sans-Serif" font-size="10.00"> </text>
</a>
</g>
</g>
<!-- Node11&#45;&gt;Node10 -->
<g id="edge10" class="edge">
<title>Node11&#45;&gt;Node10</title>
<path fill="none" stroke="#404040" d="M621.5,-909.4C621.5,-862.73 621.5,-768.04 621.5,-714.23"/>
<polygon fill="none" stroke="#404040" points="621.5,-714.12 617.5,-708.12 621.5,-702.12 625.5,-708.12 621.5,-714.12"/>
<text text-anchor="middle" x="650.5" y="-872" font-family="Helvetica,sans-Serif" font-size="10.00"> +elements</text>
</g>
<!-- Node12 -->
<g id="node12" class="node">
<title>Node12</title>
<g id="a_node12"><a xlink:href="a01220.html" target="_top" xlink:title="The Vector2i class.">
<polygon fill="white" stroke="black" points="748,-248.5 748,-437.5 865,-437.5 865,-248.5 748,-248.5"/>
<text text-anchor="start" x="756" y="-425.5" font-family="Helvetica,sans-Serif" font-size="10.00">RayTracer::Entities</text>
<text text-anchor="middle" x="806.5" y="-414.5" font-family="Helvetica,sans-Serif" font-size="10.00">::Transform::Vector2i</text>
<polyline fill="none" stroke="black" points="748,-407.5 865,-407.5 "/>
<text text-anchor="middle" x="806.5" y="-395.5" font-family="Helvetica,sans-Serif" font-size="10.00"> </text>
<polyline fill="none" stroke="black" points="748,-388.5 865,-388.5 "/>
<text text-anchor="start" x="756" y="-376.5" font-family="Helvetica,sans-Serif" font-size="10.00">+ ~Vector2i()</text>
<text text-anchor="start" x="756" y="-365.5" font-family="Helvetica,sans-Serif" font-size="10.00">+ Vector2i()</text>
<text text-anchor="start" x="756" y="-354.5" font-family="Helvetica,sans-Serif" font-size="10.00">+ Vector2i()</text>
<text text-anchor="start" x="756" y="-343.5" font-family="Helvetica,sans-Serif" font-size="10.00">+ Vector2i()</text>
<text text-anchor="start" x="756" y="-332.5" font-family="Helvetica,sans-Serif" font-size="10.00">+ Vector2i()</text>
<text text-anchor="start" x="756" y="-321.5" font-family="Helvetica,sans-Serif" font-size="10.00">+ operator+()</text>
<text text-anchor="start" x="756" y="-310.5" font-family="Helvetica,sans-Serif" font-size="10.00">+ operator&#45;()</text>
<text text-anchor="start" x="756" y="-299.5" font-family="Helvetica,sans-Serif" font-size="10.00">+ operator*()</text>
<text text-anchor="start" x="756" y="-288.5" font-family="Helvetica,sans-Serif" font-size="10.00">+ operator/()</text>
<text text-anchor="start" x="756" y="-277.5" font-family="Helvetica,sans-Serif" font-size="10.00">+ operator=()</text>
<text text-anchor="start" x="756" y="-266.5" font-family="Helvetica,sans-Serif" font-size="10.00">+ getX()</text>
<text text-anchor="start" x="756" y="-255.5" font-family="Helvetica,sans-Serif" font-size="10.00">+ getY()</text>
</a>
</g>
</g>
<!-- Node12&#45;&gt;Node1 -->
<g id="edge12" class="edge">
<title>Node12&#45;&gt;Node1</title>
<path fill="none" stroke="#404040" d="M747.83,-260.91C736.12,-244.73 723.64,-227.48 711.38,-210.53"/>
<polygon fill="none" stroke="#404040" points="711.23,-210.31 704.47,-207.8 704.19,-200.59 710.95,-203.11 711.23,-210.31"/>
<text text-anchor="middle" x="757" y="-222" font-family="Helvetica,sans-Serif" font-size="10.00"> &#45;_screenSize</text>
</g>
<!-- Node13 -->
<g id="node13" class="node">
<title>Node13</title>
<g id="a_node13"><a xlink:title=" ">
<polygon fill="white" stroke="#bfbfbf" points="741,-645 741,-702 770,-702 770,-645 741,-645"/>
<text text-anchor="middle" x="755.5" y="-690" font-family="Helvetica,sans-Serif" font-size="10.00">int</text>
<polyline fill="none" stroke="#bfbfbf" points="741,-683 770,-683 "/>
<text text-anchor="middle" x="755.5" y="-671" font-family="Helvetica,sans-Serif" font-size="10.00"> </text>
<polyline fill="none" stroke="#bfbfbf" points="741,-664 770,-664 "/>
<text text-anchor="middle" x="755.5" y="-652" font-family="Helvetica,sans-Serif" font-size="10.00"> </text>
</a>
</g>
</g>
<!-- Node13&#45;&gt;Node1 -->
<g id="edge14" class="edge">
<title>Node13&#45;&gt;Node1</title>
<path fill="none" stroke="#404040" d="M759.22,-644.68C763.62,-599.69 765.43,-510.49 720.5,-456 705.74,-438.1 685.85,-456.23 671.5,-438 657.59,-420.34 646.39,-303.76 639.62,-212.71"/>
<polygon fill="none" stroke="#404040" points="639.61,-212.58 635.18,-206.88 638.73,-200.61 643.16,-206.3 639.61,-212.58"/>
<text text-anchor="middle" x="705.5" y="-340.5" font-family="Helvetica,sans-Serif" font-size="10.00"> &#45;_maxThread</text>
</g>
<!-- Node13&#45;&gt;Node12 -->
<g id="edge13" class="edge">
<title>Node13&#45;&gt;Node12</title>
<path fill="none" stroke="#404040" d="M759.8,-644.78C766.42,-602.17 779.43,-518.34 790.04,-449.99"/>
<polygon fill="none" stroke="#404040" points="790.09,-449.71 787.06,-443.17 791.93,-437.86 794.96,-444.4 790.09,-449.71"/>
<text text-anchor="middle" x="798" y="-475.5" font-family="Helvetica,sans-Serif" font-size="10.00"> &#45;_x</text>
<text text-anchor="middle" x="798" y="-464.5" font-family="Helvetica,sans-Serif" font-size="10.00">&#45;_y</text>
</g>
<!-- Node14 -->
<g id="node14" class="node">
<title>Node14</title>
<g id="a_node14"><a xlink:href="a01260.html" target="_top" xlink:title="Logger singleton.">
<polygon fill="white" stroke="black" points="883,-281.5 883,-404.5 990,-404.5 990,-281.5 883,-281.5"/>
<text text-anchor="middle" x="936.5" y="-392.5" font-family="Helvetica,sans-Serif" font-size="10.00">RayTracer::ILogger</text>
<polyline fill="none" stroke="black" points="883,-385.5 990,-385.5 "/>
<text text-anchor="middle" x="936.5" y="-373.5" font-family="Helvetica,sans-Serif" font-size="10.00"> </text>
<polyline fill="none" stroke="black" points="883,-366.5 990,-366.5 "/>
<text text-anchor="start" x="891" y="-354.5" font-family="Helvetica,sans-Serif" font-size="10.00">+ ~ILogger()</text>
<text text-anchor="start" x="891" y="-343.5" font-family="Helvetica,sans-Serif" font-size="10.00">+ fatal()</text>
<text text-anchor="start" x="891" y="-332.5" font-family="Helvetica,sans-Serif" font-size="10.00">+ error()</text>
<text text-anchor="start" x="891" y="-321.5" font-family="Helvetica,sans-Serif" font-size="10.00">+ warn()</text>
<text text-anchor="start" x="891" y="-310.5" font-family="Helvetica,sans-Serif" font-size="10.00">+ info()</text>
<text text-anchor="start" x="891" y="-299.5" font-family="Helvetica,sans-Serif" font-size="10.00">+ debug()</text>
<text text-anchor="start" x="891" y="-288.5" font-family="Helvetica,sans-Serif" font-size="10.00">+ trace()</text>
</a>
</g>
</g>
<!-- Node14&#45;&gt;Node1 -->
<g id="edge15" class="edge">
<title>Node14&#45;&gt;Node1</title>
<path fill="none" stroke="#404040" d="M902.18,-281.25C893.99,-269.46 884.64,-257.76 874.5,-248 828.5,-203.75 766.84,-166.67 717.27,-140.89"/>
<polygon fill="none" stroke="#404040" points="717.24,-140.87 710.07,-141.69 706.56,-135.39 713.73,-134.57 717.24,-140.87"/>
<text text-anchor="middle" x="873" y="-222" font-family="Helvetica,sans-Serif" font-size="10.00"> &#45;_logger</text>
</g>
<!-- Node15 -->
<g id="node15" class="node">
<title>Node15</title>
<g id="a_node15"><a xlink:title=" ">
<polygon fill="white" stroke="#bfbfbf" points="1008.5,-309 1008.5,-377 1124.5,-377 1124.5,-309 1008.5,-309"/>
<text text-anchor="start" x="1016.5" y="-365" font-family="Helvetica,sans-Serif" font-size="10.00">optional&lt; RayTracer</text>
<text text-anchor="middle" x="1066.5" y="-354" font-family="Helvetica,sans-Serif" font-size="10.00">::Images::Image &gt;</text>
<polyline fill="none" stroke="#bfbfbf" points="1008.5,-347 1124.5,-347 "/>
<text text-anchor="middle" x="1066.5" y="-335" font-family="Helvetica,sans-Serif" font-size="10.00"> </text>
<polyline fill="none" stroke="#bfbfbf" points="1008.5,-328 1124.5,-328 "/>
<text text-anchor="middle" x="1066.5" y="-316" font-family="Helvetica,sans-Serif" font-size="10.00"> </text>
</a>
</g>
</g>
<!-- Node15&#45;&gt;Node1 -->
<g id="edge16" class="edge">
<title>Node15&#45;&gt;Node1</title>
<path fill="none" stroke="#404040" d="M1049.21,-308.7C1037.47,-288.82 1020.31,-264.34 999.5,-248 915.46,-182.01 797.83,-142.09 718.59,-120.94"/>
<polygon fill="none" stroke="#404040" points="718.31,-120.87 711.5,-123.22 706.7,-117.83 713.52,-115.48 718.31,-120.87"/>
<text text-anchor="middle" x="995" y="-222" font-family="Helvetica,sans-Serif" font-size="10.00"> &#45;_image</text>
</g>
</g>
</svg>
