<?xml version="1.0" encoding="UTF-8" standalone="no"?>
<!DOCTYPE svg PUBLIC "-//W3C//DTD SVG 1.1//EN"
 "http://www.w3.org/Graphics/SVG/1.1/DTD/svg11.dtd">
<!-- Generated by graphviz version 2.43.0 (0)
 -->
<!-- Title: RayTracer::PluginsExt::Camera::Clustered::CameraClusterCreator Pages: 1 -->
<svg width="1321pt" height="1276pt"
 viewBox="0.00 0.00 1320.71 1276.00" xmlns="http://www.w3.org/2000/svg" xmlns:xlink="http://www.w3.org/1999/xlink">
<g id="graph0" class="graph" transform="scale(1 1) rotate(0) translate(4 1272)">
<title>RayTracer::PluginsExt::Camera::Clustered::CameraClusterCreator</title>
<polygon fill="white" stroke="transparent" points="-4,4 -4,-1272 1316.71,-1272 1316.71,4 -4,4"/>
<!-- Node1 -->
<g id="node1" class="node">
<title>Node1</title>
<g id="a_node1"><a xlink:title=" ">
<polygon fill="#bfbfbf" stroke="black" points="748.71,-0.5 748.71,-90.5 900.71,-90.5 900.71,-0.5 748.71,-0.5"/>
<text text-anchor="start" x="756.71" y="-78.5" font-family="Helvetica,sans-Serif" font-size="10.00">RayTracer::PluginsExt</text>
<text text-anchor="start" x="756.71" y="-67.5" font-family="Helvetica,sans-Serif" font-size="10.00">::Camera::Clustered::</text>
<text text-anchor="middle" x="824.71" y="-56.5" font-family="Helvetica,sans-Serif" font-size="10.00">CameraClusterCreator</text>
<polyline fill="none" stroke="black" points="748.71,-49.5 900.71,-49.5 "/>
<text text-anchor="middle" x="824.71" y="-37.5" font-family="Helvetica,sans-Serif" font-size="10.00"> </text>
<polyline fill="none" stroke="black" points="748.71,-30.5 900.71,-30.5 "/>
<text text-anchor="start" x="756.71" y="-18.5" font-family="Helvetica,sans-Serif" font-size="10.00">+ ~CameraClusterCreator()</text>
<text text-anchor="start" x="756.71" y="-7.5" font-family="Helvetica,sans-Serif" font-size="10.00">+ create()</text>
</a>
</g>
</g>
<!-- Node2 -->
<g id="node2" class="node">
<title>Node2</title>
<g id="a_node2"><a xlink:href="a01315.html" target="_top" xlink:title="The IEntityCreator.">
<polygon fill="white" stroke="black" points="742.21,-138.5 742.21,-217.5 875.21,-217.5 875.21,-138.5 742.21,-138.5"/>
<text text-anchor="start" x="750.21" y="-205.5" font-family="Helvetica,sans-Serif" font-size="10.00">RayTracer::Plugins</text>
<text text-anchor="middle" x="808.71" y="-194.5" font-family="Helvetica,sans-Serif" font-size="10.00">::Entities::IEntityCreator</text>
<polyline fill="none" stroke="black" points="742.21,-187.5 875.21,-187.5 "/>
<text text-anchor="middle" x="808.71" y="-175.5" font-family="Helvetica,sans-Serif" font-size="10.00"> </text>
<polyline fill="none" stroke="black" points="742.21,-168.5 875.21,-168.5 "/>
<text text-anchor="start" x="750.21" y="-156.5" font-family="Helvetica,sans-Serif" font-size="10.00">+ ~IEntityCreator()</text>
<text text-anchor="start" x="750.21" y="-145.5" font-family="Helvetica,sans-Serif" font-size="10.00">+ create()</text>
</a>
</g>
</g>
<!-- Node2&#45;&gt;Node1 -->
<g id="edge1" class="edge">
<title>Node2&#45;&gt;Node1</title>
<path fill="none" stroke="midnightblue" d="M814.7,-128.16C816.2,-115.93 817.8,-102.88 819.27,-90.88"/>
<polygon fill="none" stroke="midnightblue" points="811.21,-127.85 813.47,-138.2 818.16,-128.7 811.21,-127.85"/>
</g>
<!-- Node3 -->
<g id="node3" class="node">
<title>Node3</title>
<g id="a_node3"><a xlink:title=" ">
<polygon fill="white" stroke="#bfbfbf" points="893.71,-138.5 893.71,-217.5 1083.71,-217.5 1083.71,-138.5 893.71,-138.5"/>
<text text-anchor="start" x="901.71" y="-205.5" font-family="Helvetica,sans-Serif" font-size="10.00">std::vector&lt; RayTracer</text>
<text text-anchor="start" x="901.71" y="-194.5" font-family="Helvetica,sans-Serif" font-size="10.00">::PluginsExt::Camera::</text>
<text text-anchor="middle" x="988.71" y="-183.5" font-family="Helvetica,sans-Serif" font-size="10.00">Clustered::CameraClusterEntity * &gt;</text>
<polyline fill="none" stroke="#bfbfbf" points="893.71,-176.5 1083.71,-176.5 "/>
<text text-anchor="middle" x="988.71" y="-164.5" font-family="Helvetica,sans-Serif" font-size="10.00"> </text>
<polyline fill="none" stroke="#bfbfbf" points="893.71,-157.5 1083.71,-157.5 "/>
<text text-anchor="middle" x="988.71" y="-145.5" font-family="Helvetica,sans-Serif" font-size="10.00"> </text>
</a>
</g>
</g>
<!-- Node3&#45;&gt;Node1 -->
<g id="edge2" class="edge">
<title>Node3&#45;&gt;Node1</title>
<path fill="none" stroke="#404040" d="M939.95,-138.2C924.24,-125.7 906.58,-111.64 889.89,-98.36"/>
<polygon fill="none" stroke="#404040" points="889.58,-98.12 882.4,-97.51 880.19,-90.65 887.38,-91.25 889.58,-98.12"/>
<text text-anchor="middle" x="944.71" y="-112" font-family="Helvetica,sans-Serif" font-size="10.00"> &#45;_elements</text>
</g>
<!-- Node4 -->
<g id="node4" class="node">
<title>Node4</title>
<g id="a_node4"><a xlink:href="a01459.html" target="_top" xlink:title=" ">
<polygon fill="white" stroke="black" points="598.21,-265.5 598.21,-465.5 743.21,-465.5 743.21,-265.5 598.21,-265.5"/>
<text text-anchor="start" x="606.21" y="-453.5" font-family="Helvetica,sans-Serif" font-size="10.00">RayTracer::PluginsExt</text>
<text text-anchor="start" x="606.21" y="-442.5" font-family="Helvetica,sans-Serif" font-size="10.00">::Camera::Clustered::</text>
<text text-anchor="middle" x="670.71" y="-431.5" font-family="Helvetica,sans-Serif" font-size="10.00">CameraClusterEntity</text>
<polyline fill="none" stroke="black" points="598.21,-424.5 743.21,-424.5 "/>
<text text-anchor="middle" x="670.71" y="-412.5" font-family="Helvetica,sans-Serif" font-size="10.00"> </text>
<polyline fill="none" stroke="black" points="598.21,-405.5 743.21,-405.5 "/>
<text text-anchor="start" x="606.21" y="-393.5" font-family="Helvetica,sans-Serif" font-size="10.00">+ CameraClusterEntity()</text>
<text text-anchor="start" x="606.21" y="-382.5" font-family="Helvetica,sans-Serif" font-size="10.00">+ ~CameraClusterEntity()</text>
<text text-anchor="start" x="606.21" y="-371.5" font-family="Helvetica,sans-Serif" font-size="10.00">+ getType()</text>
<text text-anchor="start" x="606.21" y="-360.5" font-family="Helvetica,sans-Serif" font-size="10.00">+ getTransform()</text>
<text text-anchor="start" x="606.21" y="-349.5" font-family="Helvetica,sans-Serif" font-size="10.00">+ getTransform()</text>
<text text-anchor="start" x="606.21" y="-338.5" font-family="Helvetica,sans-Serif" font-size="10.00">+ getFocal()</text>
<text text-anchor="start" x="606.21" y="-327.5" font-family="Helvetica,sans-Serif" font-size="10.00">+ setFocal()</text>
<text text-anchor="start" x="606.21" y="-316.5" font-family="Helvetica,sans-Serif" font-size="10.00">+ setSize()</text>
<text text-anchor="start" x="606.21" y="-305.5" font-family="Helvetica,sans-Serif" font-size="10.00">+ getSize()</text>
<text text-anchor="start" x="606.21" y="-294.5" font-family="Helvetica,sans-Serif" font-size="10.00">+ render()</text>
<text text-anchor="start" x="606.21" y="-283.5" font-family="Helvetica,sans-Serif" font-size="10.00">+ getImage()</text>
<text text-anchor="start" x="606.21" y="-272.5" font-family="Helvetica,sans-Serif" font-size="10.00">+ getFilters()</text>
</a>
</g>
</g>
<!-- Node4&#45;&gt;Node3 -->
<g id="edge3" class="edge">
<title>Node4&#45;&gt;Node3</title>
<path fill="none" stroke="#404040" d="M743.27,-322.18C793.78,-292.71 861,-253.5 912.32,-223.56"/>
<polygon fill="none" stroke="#404040" points="912.33,-223.56 915.49,-217.08 922.69,-217.51 919.53,-223.99 912.33,-223.56"/>
<text text-anchor="middle" x="914.71" y="-239" font-family="Helvetica,sans-Serif" font-size="10.00"> +elements</text>
</g>
<!-- Node5 -->
<g id="node5" class="node">
<title>Node5</title>
<g id="a_node5"><a xlink:href="a01171.html" target="_top" xlink:title="The ICamera class.">
<polygon fill="white" stroke="black" points="487.21,-557.5 487.21,-702.5 594.21,-702.5 594.21,-557.5 487.21,-557.5"/>
<text text-anchor="start" x="495.21" y="-690.5" font-family="Helvetica,sans-Serif" font-size="10.00">RayTracer::Entities</text>
<text text-anchor="middle" x="540.71" y="-679.5" font-family="Helvetica,sans-Serif" font-size="10.00">::ICamera</text>
<polyline fill="none" stroke="black" points="487.21,-672.5 594.21,-672.5 "/>
<text text-anchor="middle" x="540.71" y="-660.5" font-family="Helvetica,sans-Serif" font-size="10.00"> </text>
<polyline fill="none" stroke="black" points="487.21,-653.5 594.21,-653.5 "/>
<text text-anchor="start" x="495.21" y="-641.5" font-family="Helvetica,sans-Serif" font-size="10.00">+ ~ICamera()</text>
<text text-anchor="start" x="495.21" y="-630.5" font-family="Helvetica,sans-Serif" font-size="10.00">+ getFocal()</text>
<text text-anchor="start" x="495.21" y="-619.5" font-family="Helvetica,sans-Serif" font-size="10.00">+ setFocal()</text>
<text text-anchor="start" x="495.21" y="-608.5" font-family="Helvetica,sans-Serif" font-size="10.00">+ setSize()</text>
<text text-anchor="start" x="495.21" y="-597.5" font-family="Helvetica,sans-Serif" font-size="10.00">+ getSize()</text>
<text text-anchor="start" x="495.21" y="-586.5" font-family="Helvetica,sans-Serif" font-size="10.00">+ render()</text>
<text text-anchor="start" x="495.21" y="-575.5" font-family="Helvetica,sans-Serif" font-size="10.00">+ getImage()</text>
<text text-anchor="start" x="495.21" y="-564.5" font-family="Helvetica,sans-Serif" font-size="10.00">+ getFilters()</text>
</a>
</g>
</g>
<!-- Node5&#45;&gt;Node4 -->
<g id="edge4" class="edge">
<title>Node5&#45;&gt;Node4</title>
<path fill="none" stroke="midnightblue" d="M580.73,-548.19C593.64,-522.12 608.1,-492.93 621.59,-465.69"/>
<polygon fill="none" stroke="midnightblue" points="577.54,-546.76 576.24,-557.27 583.81,-549.86 577.54,-546.76"/>
</g>
<!-- Node6 -->
<g id="node6" class="node">
<title>Node6</title>
<g id="a_node6"><a xlink:href="a01175.html" target="_top" xlink:title="The IEntity class.">
<polygon fill="white" stroke="black" points="585.21,-929.5 585.21,-1030.5 692.21,-1030.5 692.21,-929.5 585.21,-929.5"/>
<text text-anchor="start" x="593.21" y="-1018.5" font-family="Helvetica,sans-Serif" font-size="10.00">RayTracer::Entities</text>
<text text-anchor="middle" x="638.71" y="-1007.5" font-family="Helvetica,sans-Serif" font-size="10.00">::IEntity</text>
<polyline fill="none" stroke="black" points="585.21,-1000.5 692.21,-1000.5 "/>
<text text-anchor="middle" x="638.71" y="-988.5" font-family="Helvetica,sans-Serif" font-size="10.00"> </text>
<polyline fill="none" stroke="black" points="585.21,-981.5 692.21,-981.5 "/>
<text text-anchor="start" x="593.21" y="-969.5" font-family="Helvetica,sans-Serif" font-size="10.00">+ ~IEntity()</text>
<text text-anchor="start" x="593.21" y="-958.5" font-family="Helvetica,sans-Serif" font-size="10.00">+ getTransform()</text>
<text text-anchor="start" x="593.21" y="-947.5" font-family="Helvetica,sans-Serif" font-size="10.00">+ getTransform()</text>
<text text-anchor="start" x="593.21" y="-936.5" font-family="Helvetica,sans-Serif" font-size="10.00">+ getType()</text>
</a>
</g>
</g>
<!-- Node6&#45;&gt;Node5 -->
<g id="edge5" class="edge">
<title>Node6&#45;&gt;Node5</title>
<path fill="none" stroke="midnightblue" d="M647.89,-919.48C652.71,-869.58 652.74,-797.89 624.71,-743 618.97,-731.75 611.18,-734.38 602.71,-725 596.43,-718.03 590.32,-710.37 584.54,-702.53"/>
<polygon fill="none" stroke="midnightblue" points="644.4,-919.16 646.83,-929.47 651.36,-919.89 644.4,-919.16"/>
</g>
<!-- Node7 -->
<g id="node7" class="node">
<title>Node7</title>
<g id="a_node7"><a xlink:href="a01195.html" target="_top" xlink:title="The Transform class.">
<polygon fill="white" stroke="black" points="167.71,-557.5 167.71,-702.5 293.71,-702.5 293.71,-557.5 167.71,-557.5"/>
<text text-anchor="start" x="175.71" y="-690.5" font-family="Helvetica,sans-Serif" font-size="10.00">RayTracer::Entities</text>
<text text-anchor="middle" x="230.71" y="-679.5" font-family="Helvetica,sans-Serif" font-size="10.00">::Transform::Transform</text>
<polyline fill="none" stroke="black" points="167.71,-672.5 293.71,-672.5 "/>
<text text-anchor="middle" x="230.71" y="-660.5" font-family="Helvetica,sans-Serif" font-size="10.00"> </text>
<polyline fill="none" stroke="black" points="167.71,-653.5 293.71,-653.5 "/>
<text text-anchor="start" x="175.71" y="-641.5" font-family="Helvetica,sans-Serif" font-size="10.00">+ Transform()</text>
<text text-anchor="start" x="175.71" y="-630.5" font-family="Helvetica,sans-Serif" font-size="10.00">+ setPosition()</text>
<text text-anchor="start" x="175.71" y="-619.5" font-family="Helvetica,sans-Serif" font-size="10.00">+ getPosition()</text>
<text text-anchor="start" x="175.71" y="-608.5" font-family="Helvetica,sans-Serif" font-size="10.00">+ setRotation()</text>
<text text-anchor="start" x="175.71" y="-597.5" font-family="Helvetica,sans-Serif" font-size="10.00">+ getRotation()</text>
<text text-anchor="start" x="175.71" y="-586.5" font-family="Helvetica,sans-Serif" font-size="10.00">+ setScale()</text>
<text text-anchor="start" x="175.71" y="-575.5" font-family="Helvetica,sans-Serif" font-size="10.00">+ getScale()</text>
<text text-anchor="start" x="175.71" y="-564.5" font-family="Helvetica,sans-Serif" font-size="10.00">+ operator=()</text>
</a>
</g>
</g>
<!-- Node7&#45;&gt;Node4 -->
<g id="edge6" class="edge">
<title>Node7&#45;&gt;Node4</title>
<path fill="none" stroke="#404040" d="M279.51,-557.28C286.73,-549.2 294.52,-541.54 302.71,-535 388.67,-466.44 507.02,-418.74 586.06,-392.02"/>
<polygon fill="none" stroke="#404040" points="586.53,-391.86 590.96,-386.17 597.92,-388.07 593.49,-393.76 586.53,-391.86"/>
<text text-anchor="middle" x="398.21" y="-498" font-family="Helvetica,sans-Serif" font-size="10.00"> &#45;_screen</text>
</g>
<!-- Node8 -->
<g id="node8" class="node">
<title>Node8</title>
<g id="a_node8"><a xlink:href="a01191.html" target="_top" xlink:title="The ITransform class.">
<polygon fill="white" stroke="black" points="49.21,-907.5 49.21,-1052.5 178.21,-1052.5 178.21,-907.5 49.21,-907.5"/>
<text text-anchor="start" x="57.21" y="-1040.5" font-family="Helvetica,sans-Serif" font-size="10.00">RayTracer::Entities</text>
<text text-anchor="middle" x="113.71" y="-1029.5" font-family="Helvetica,sans-Serif" font-size="10.00">::Transform::ITransform</text>
<polyline fill="none" stroke="black" points="49.21,-1022.5 178.21,-1022.5 "/>
<text text-anchor="middle" x="113.71" y="-1010.5" font-family="Helvetica,sans-Serif" font-size="10.00"> </text>
<polyline fill="none" stroke="black" points="49.21,-1003.5 178.21,-1003.5 "/>
<text text-anchor="start" x="57.21" y="-991.5" font-family="Helvetica,sans-Serif" font-size="10.00">+ ~ITransform()</text>
<text text-anchor="start" x="57.21" y="-980.5" font-family="Helvetica,sans-Serif" font-size="10.00">+ setPosition()</text>
<text text-anchor="start" x="57.21" y="-969.5" font-family="Helvetica,sans-Serif" font-size="10.00">+ getPosition()</text>
<text text-anchor="start" x="57.21" y="-958.5" font-family="Helvetica,sans-Serif" font-size="10.00">+ setRotation()</text>
<text text-anchor="start" x="57.21" y="-947.5" font-family="Helvetica,sans-Serif" font-size="10.00">+ getRotation()</text>
<text text-anchor="start" x="57.21" y="-936.5" font-family="Helvetica,sans-Serif" font-size="10.00">+ setScale()</text>
<text text-anchor="start" x="57.21" y="-925.5" font-family="Helvetica,sans-Serif" font-size="10.00">+ getScale()</text>
<text text-anchor="start" x="57.21" y="-914.5" font-family="Helvetica,sans-Serif" font-size="10.00">+ operator=()</text>
</a>
</g>
</g>
<!-- Node8&#45;&gt;Node7 -->
<g id="edge7" class="edge">
<title>Node8&#45;&gt;Node7</title>
<path fill="none" stroke="midnightblue" d="M141.07,-897.64C160.94,-838.53 187.58,-759.3 206.64,-702.59"/>
<polygon fill="none" stroke="midnightblue" points="137.68,-896.72 137.81,-907.32 144.32,-898.95 137.68,-896.72"/>
</g>
<!-- Node9 -->
<g id="node9" class="node">
<title>Node9</title>
<g id="a_node9"><a xlink:href="a01203.html" target="_top" xlink:title="The Vector3f class.">
<polygon fill="white" stroke="black" points="196.71,-819.5 196.71,-1140.5 314.71,-1140.5 314.71,-819.5 196.71,-819.5"/>
<text text-anchor="start" x="204.71" y="-1128.5" font-family="Helvetica,sans-Serif" font-size="10.00">RayTracer::Entities</text>
<text text-anchor="middle" x="255.71" y="-1117.5" font-family="Helvetica,sans-Serif" font-size="10.00">::Transform::Vector3f</text>
<polyline fill="none" stroke="black" points="196.71,-1110.5 314.71,-1110.5 "/>
<text text-anchor="middle" x="255.71" y="-1098.5" font-family="Helvetica,sans-Serif" font-size="10.00"> </text>
<polyline fill="none" stroke="black" points="196.71,-1091.5 314.71,-1091.5 "/>
<text text-anchor="start" x="204.71" y="-1079.5" font-family="Helvetica,sans-Serif" font-size="10.00">+ ~Vector3f()</text>
<text text-anchor="start" x="204.71" y="-1068.5" font-family="Helvetica,sans-Serif" font-size="10.00">+ Vector3f()</text>
<text text-anchor="start" x="204.71" y="-1057.5" font-family="Helvetica,sans-Serif" font-size="10.00">+ Vector3f()</text>
<text text-anchor="start" x="204.71" y="-1046.5" font-family="Helvetica,sans-Serif" font-size="10.00">+ Vector3f()</text>
<text text-anchor="start" x="204.71" y="-1035.5" font-family="Helvetica,sans-Serif" font-size="10.00">+ Vector3f()</text>
<text text-anchor="start" x="204.71" y="-1024.5" font-family="Helvetica,sans-Serif" font-size="10.00">+ operator+()</text>
<text text-anchor="start" x="204.71" y="-1013.5" font-family="Helvetica,sans-Serif" font-size="10.00">+ operator&#45;()</text>
<text text-anchor="start" x="204.71" y="-1002.5" font-family="Helvetica,sans-Serif" font-size="10.00">+ operator*()</text>
<text text-anchor="start" x="204.71" y="-991.5" font-family="Helvetica,sans-Serif" font-size="10.00">+ operator/()</text>
<text text-anchor="start" x="204.71" y="-980.5" font-family="Helvetica,sans-Serif" font-size="10.00">+ operator=()</text>
<text text-anchor="start" x="204.71" y="-969.5" font-family="Helvetica,sans-Serif" font-size="10.00">+ getX()</text>
<text text-anchor="start" x="204.71" y="-958.5" font-family="Helvetica,sans-Serif" font-size="10.00">+ getY()</text>
<text text-anchor="start" x="204.71" y="-947.5" font-family="Helvetica,sans-Serif" font-size="10.00">+ getZ()</text>
<text text-anchor="start" x="204.71" y="-936.5" font-family="Helvetica,sans-Serif" font-size="10.00">+ getNorm()</text>
<text text-anchor="start" x="204.71" y="-925.5" font-family="Helvetica,sans-Serif" font-size="10.00">+ getNormalized()</text>
<text text-anchor="start" x="204.71" y="-914.5" font-family="Helvetica,sans-Serif" font-size="10.00">+ dot()</text>
<text text-anchor="start" x="204.71" y="-903.5" font-family="Helvetica,sans-Serif" font-size="10.00">+ getDistance()</text>
<text text-anchor="start" x="204.71" y="-892.5" font-family="Helvetica,sans-Serif" font-size="10.00">+ toDegrees()</text>
<text text-anchor="start" x="204.71" y="-881.5" font-family="Helvetica,sans-Serif" font-size="10.00">+ toRadians()</text>
<text text-anchor="start" x="204.71" y="-870.5" font-family="Helvetica,sans-Serif" font-size="10.00">+ rotateVector()</text>
<text text-anchor="start" x="204.71" y="-859.5" font-family="Helvetica,sans-Serif" font-size="10.00">+ getAngle()</text>
<text text-anchor="start" x="204.71" y="-848.5" font-family="Helvetica,sans-Serif" font-size="10.00">+ rotateX()</text>
<text text-anchor="start" x="204.71" y="-837.5" font-family="Helvetica,sans-Serif" font-size="10.00">+ rotateY()</text>
<text text-anchor="start" x="204.71" y="-826.5" font-family="Helvetica,sans-Serif" font-size="10.00">+ rotateZ()</text>
</a>
</g>
</g>
<!-- Node9&#45;&gt;Node7 -->
<g id="edge8" class="edge">
<title>Node9&#45;&gt;Node7</title>
<path fill="none" stroke="#404040" d="M244.24,-819.26C241.65,-783.29 239.01,-746.51 236.76,-715.11"/>
<polygon fill="none" stroke="#404040" points="236.74,-714.88 232.32,-709.18 235.88,-702.91 240.3,-708.61 236.74,-714.88"/>
<text text-anchor="middle" x="268.71" y="-780.5" font-family="Helvetica,sans-Serif" font-size="10.00"> &#45;_position</text>
<text text-anchor="middle" x="268.71" y="-769.5" font-family="Helvetica,sans-Serif" font-size="10.00">&#45;_rotation</text>
<text text-anchor="middle" x="268.71" y="-758.5" font-family="Helvetica,sans-Serif" font-size="10.00">&#45;_scale</text>
</g>
<!-- Node10 -->
<g id="node10" class="node">
<title>Node10</title>
<g id="a_node10"><a xlink:title=" ">
<polygon fill="white" stroke="#bfbfbf" points="54.71,-1210.5 54.71,-1267.5 104.71,-1267.5 104.71,-1210.5 54.71,-1210.5"/>
<text text-anchor="middle" x="79.71" y="-1255.5" font-family="Helvetica,sans-Serif" font-size="10.00">double</text>
<polyline fill="none" stroke="#bfbfbf" points="54.71,-1248.5 104.71,-1248.5 "/>
<text text-anchor="middle" x="79.71" y="-1236.5" font-family="Helvetica,sans-Serif" font-size="10.00"> </text>
<polyline fill="none" stroke="#bfbfbf" points="54.71,-1229.5 104.71,-1229.5 "/>
<text text-anchor="middle" x="79.71" y="-1217.5" font-family="Helvetica,sans-Serif" font-size="10.00"> </text>
</a>
</g>
</g>
<!-- Node10&#45;&gt;Node4 -->
<g id="edge14" class="edge">
<title>Node10&#45;&gt;Node4</title>
<path fill="none" stroke="#404040" d="M64.96,-1210.48C55.68,-1191.54 44.56,-1165.48 39.71,-1141 -13.62,-871.75 -42.87,-721.28 158.71,-535 279.11,-423.74 474.49,-385.85 585.85,-373.01"/>
<polygon fill="none" stroke="#404040" points="586.08,-372.99 591.61,-368.35 598.01,-371.67 592.48,-376.3 586.08,-372.99"/>
<text text-anchor="middle" x="29.71" y="-769.5" font-family="Helvetica,sans-Serif" font-size="10.00"> &#45;_fov</text>
</g>
<!-- Node10&#45;&gt;Node9 -->
<g id="edge9" class="edge">
<title>Node10&#45;&gt;Node9</title>
<path fill="none" stroke="#404040" d="M105.07,-1220.07C128.76,-1202.25 163.82,-1173.02 186.71,-1141 187.79,-1139.5 188.85,-1137.98 189.89,-1136.45"/>
<polygon fill="none" stroke="#404040" points="190.1,-1136.13 190.01,-1128.92 196.64,-1126.07 196.72,-1133.28 190.1,-1136.13"/>
<text text-anchor="middle" x="182.21" y="-1184" font-family="Helvetica,sans-Serif" font-size="10.00"> &#45;_x</text>
<text text-anchor="middle" x="182.21" y="-1173" font-family="Helvetica,sans-Serif" font-size="10.00">&#45;_y</text>
<text text-anchor="middle" x="182.21" y="-1162" font-family="Helvetica,sans-Serif" font-size="10.00">&#45;_z</text>
</g>
<!-- Node11 -->
<g id="node11" class="node">
<title>Node11</title>
<g id="a_node11"><a xlink:title=" ">
<polygon fill="white" stroke="#bfbfbf" points="312.21,-590.5 312.21,-669.5 469.21,-669.5 469.21,-590.5 312.21,-590.5"/>
<text text-anchor="start" x="320.21" y="-657.5" font-family="Helvetica,sans-Serif" font-size="10.00">std::list&lt; std::reference</text>
<text text-anchor="start" x="320.21" y="-646.5" font-family="Helvetica,sans-Serif" font-size="10.00">_wrapper&lt; RayTracer::Filters</text>
<text text-anchor="middle" x="390.71" y="-635.5" font-family="Helvetica,sans-Serif" font-size="10.00">::IFilter &gt; &gt;</text>
<polyline fill="none" stroke="#bfbfbf" points="312.21,-628.5 469.21,-628.5 "/>
<text text-anchor="middle" x="390.71" y="-616.5" font-family="Helvetica,sans-Serif" font-size="10.00"> </text>
<polyline fill="none" stroke="#bfbfbf" points="312.21,-609.5 469.21,-609.5 "/>
<text text-anchor="middle" x="390.71" y="-597.5" font-family="Helvetica,sans-Serif" font-size="10.00"> </text>
</a>
</g>
</g>
<!-- Node11&#45;&gt;Node4 -->
<g id="edge10" class="edge">
<title>Node11&#45;&gt;Node4</title>
<path fill="none" stroke="#404040" d="M424.95,-590.16C440.63,-572.87 459.69,-552.51 477.71,-535 513,-500.72 553.83,-464.6 588.82,-434.64"/>
<polygon fill="none" stroke="#404040" points="588.93,-434.55 590.89,-427.61 598.05,-426.76 596.09,-433.7 588.93,-434.55"/>
<text text-anchor="middle" x="549.71" y="-498" font-family="Helvetica,sans-Serif" font-size="10.00"> &#45;_filters</text>
</g>
<!-- Node12 -->
<g id="node12" class="node">
<title>Node12</title>
<g id="a_node12"><a xlink:title=" ">
<polygon fill="white" stroke="#bfbfbf" points="332.71,-940.5 332.71,-1019.5 448.71,-1019.5 448.71,-940.5 332.71,-940.5"/>
<text text-anchor="start" x="340.71" y="-1007.5" font-family="Helvetica,sans-Serif" font-size="10.00">reference_wrapper&lt;</text>
<text text-anchor="start" x="340.71" y="-996.5" font-family="Helvetica,sans-Serif" font-size="10.00"> RayTracer::Filters</text>
<text text-anchor="middle" x="390.71" y="-985.5" font-family="Helvetica,sans-Serif" font-size="10.00">::IFilter &gt;</text>
<polyline fill="none" stroke="#bfbfbf" points="332.71,-978.5 448.71,-978.5 "/>
<text text-anchor="middle" x="390.71" y="-966.5" font-family="Helvetica,sans-Serif" font-size="10.00"> </text>
<polyline fill="none" stroke="#bfbfbf" points="332.71,-959.5 448.71,-959.5 "/>
<text text-anchor="middle" x="390.71" y="-947.5" font-family="Helvetica,sans-Serif" font-size="10.00"> </text>
</a>
</g>
</g>
<!-- Node12&#45;&gt;Node11 -->
<g id="edge11" class="edge">
<title>Node12&#45;&gt;Node11</title>
<path fill="none" stroke="#404040" d="M390.71,-940.43C390.71,-877.32 390.71,-752.03 390.71,-681.78"/>
<polygon fill="none" stroke="#404040" points="390.71,-681.74 386.71,-675.74 390.71,-669.74 394.71,-675.74 390.71,-681.74"/>
<text text-anchor="middle" x="419.71" y="-769.5" font-family="Helvetica,sans-Serif" font-size="10.00"> +elements</text>
</g>
<!-- Node13 -->
<g id="node13" class="node">
<title>Node13</title>
<g id="a_node13"><a xlink:title=" ">
<polygon fill="white" stroke="#bfbfbf" points="477.21,-951.5 477.21,-1008.5 558.21,-1008.5 558.21,-951.5 477.21,-951.5"/>
<text text-anchor="middle" x="517.71" y="-996.5" font-family="Helvetica,sans-Serif" font-size="10.00">std::list&lt; T &gt;</text>
<polyline fill="none" stroke="#bfbfbf" points="477.21,-989.5 558.21,-989.5 "/>
<text text-anchor="middle" x="517.71" y="-977.5" font-family="Helvetica,sans-Serif" font-size="10.00"> </text>
<polyline fill="none" stroke="#bfbfbf" points="477.21,-970.5 558.21,-970.5 "/>
<text text-anchor="middle" x="517.71" y="-958.5" font-family="Helvetica,sans-Serif" font-size="10.00"> </text>
</a>
</g>
</g>
<!-- Node13&#45;&gt;Node11 -->
<g id="edge12" class="edge">
<title>Node13&#45;&gt;Node11</title>
<path fill="none" stroke="orange" d="M507.33,-941.39C490.21,-879.6 457.18,-761.55 449.71,-743 439.58,-717.82 425.49,-690.87 413.62,-669.72"/>
<polygon fill="orange" stroke="orange" points="504,-942.46 510.04,-951.16 510.74,-940.59 504,-942.46"/>
<text text-anchor="start" x="467.71" y="-775" font-family="Helvetica,sans-Serif" font-size="10.00"> &lt; std::reference_wrapper</text>
<text text-anchor="middle" x="543.71" y="-764" font-family="Helvetica,sans-Serif" font-size="10.00">&lt; RayTracer::Filters::IFilter &gt; &gt;</text>
</g>
<!-- Node14 -->
<g id="node14" class="node">
<title>Node14</title>
<g id="a_node14"><a xlink:title=" ">
<polygon fill="white" stroke="#bfbfbf" points="824.21,-1210.5 824.21,-1267.5 853.21,-1267.5 853.21,-1210.5 824.21,-1210.5"/>
<text text-anchor="middle" x="838.71" y="-1255.5" font-family="Helvetica,sans-Serif" font-size="10.00">T</text>
<polyline fill="none" stroke="#bfbfbf" points="824.21,-1248.5 853.21,-1248.5 "/>
<text text-anchor="middle" x="838.71" y="-1236.5" font-family="Helvetica,sans-Serif" font-size="10.00"> </text>
<polyline fill="none" stroke="#bfbfbf" points="824.21,-1229.5 853.21,-1229.5 "/>
<text text-anchor="middle" x="838.71" y="-1217.5" font-family="Helvetica,sans-Serif" font-size="10.00"> </text>
</a>
</g>
</g>
<!-- Node14&#45;&gt;Node13 -->
<g id="edge13" class="edge">
<title>Node14&#45;&gt;Node13</title>
<path fill="none" stroke="#404040" d="M823.9,-1236.81C779.83,-1232.49 648.12,-1213.81 575.71,-1141 543.28,-1108.39 528.85,-1056.29 522.51,-1020.45"/>
<polygon fill="none" stroke="#404040" points="522.5,-1020.36 517.6,-1015.07 520.59,-1008.51 525.5,-1013.8 522.5,-1020.36"/>
<text text-anchor="middle" x="679.71" y="-1173" font-family="Helvetica,sans-Serif" font-size="10.00"> +elements</text>
</g>
<!-- Node19 -->
<g id="node19" class="node">
<title>Node19</title>
<g id="a_node19"><a xlink:title=" ">
<polygon fill="white" stroke="#bfbfbf" points="925.21,-743.5 925.21,-800.5 1022.21,-800.5 1022.21,-743.5 925.21,-743.5"/>
<text text-anchor="middle" x="973.71" y="-788.5" font-family="Helvetica,sans-Serif" font-size="10.00">std::vector&lt; T &gt;</text>
<polyline fill="none" stroke="#bfbfbf" points="925.21,-781.5 1022.21,-781.5 "/>
<text text-anchor="middle" x="973.71" y="-769.5" font-family="Helvetica,sans-Serif" font-size="10.00"> </text>
<polyline fill="none" stroke="#bfbfbf" points="925.21,-762.5 1022.21,-762.5 "/>
<text text-anchor="middle" x="973.71" y="-750.5" font-family="Helvetica,sans-Serif" font-size="10.00"> </text>
</a>
</g>
</g>
<!-- Node14&#45;&gt;Node19 -->
<g id="edge21" class="edge">
<title>Node14&#45;&gt;Node19</title>
<path fill="none" stroke="#404040" d="M846.75,-1210.3C869.71,-1131.23 935.61,-904.25 962.29,-812.34"/>
<polygon fill="none" stroke="#404040" points="962.37,-812.07 960.2,-805.2 965.71,-800.55 967.88,-807.43 962.37,-812.07"/>
<text text-anchor="middle" x="889.71" y="-1173" font-family="Helvetica,sans-Serif" font-size="10.00"> +elements</text>
</g>
<!-- Node15 -->
<g id="node15" class="node">
<title>Node15</title>
<g id="a_node15"><a xlink:href="a01199.html" target="_top" xlink:title="The Vector2i class.">
<polygon fill="white" stroke="black" points="612.21,-535.5 612.21,-724.5 729.21,-724.5 729.21,-535.5 612.21,-535.5"/>
<text text-anchor="start" x="620.21" y="-712.5" font-family="Helvetica,sans-Serif" font-size="10.00">RayTracer::Entities</text>
<text text-anchor="middle" x="670.71" y="-701.5" font-family="Helvetica,sans-Serif" font-size="10.00">::Transform::Vector2i</text>
<polyline fill="none" stroke="black" points="612.21,-694.5 729.21,-694.5 "/>
<text text-anchor="middle" x="670.71" y="-682.5" font-family="Helvetica,sans-Serif" font-size="10.00"> </text>
<polyline fill="none" stroke="black" points="612.21,-675.5 729.21,-675.5 "/>
<text text-anchor="start" x="620.21" y="-663.5" font-family="Helvetica,sans-Serif" font-size="10.00">+ ~Vector2i()</text>
<text text-anchor="start" x="620.21" y="-652.5" font-family="Helvetica,sans-Serif" font-size="10.00">+ Vector2i()</text>
<text text-anchor="start" x="620.21" y="-641.5" font-family="Helvetica,sans-Serif" font-size="10.00">+ Vector2i()</text>
<text text-anchor="start" x="620.21" y="-630.5" font-family="Helvetica,sans-Serif" font-size="10.00">+ Vector2i()</text>
<text text-anchor="start" x="620.21" y="-619.5" font-family="Helvetica,sans-Serif" font-size="10.00">+ Vector2i()</text>
<text text-anchor="start" x="620.21" y="-608.5" font-family="Helvetica,sans-Serif" font-size="10.00">+ operator+()</text>
<text text-anchor="start" x="620.21" y="-597.5" font-family="Helvetica,sans-Serif" font-size="10.00">+ operator&#45;()</text>
<text text-anchor="start" x="620.21" y="-586.5" font-family="Helvetica,sans-Serif" font-size="10.00">+ operator*()</text>
<text text-anchor="start" x="620.21" y="-575.5" font-family="Helvetica,sans-Serif" font-size="10.00">+ operator/()</text>
<text text-anchor="start" x="620.21" y="-564.5" font-family="Helvetica,sans-Serif" font-size="10.00">+ operator=()</text>
<text text-anchor="start" x="620.21" y="-553.5" font-family="Helvetica,sans-Serif" font-size="10.00">+ getX()</text>
<text text-anchor="start" x="620.21" y="-542.5" font-family="Helvetica,sans-Serif" font-size="10.00">+ getY()</text>
</a>
</g>
</g>
<!-- Node15&#45;&gt;Node4 -->
<g id="edge15" class="edge">
<title>Node15&#45;&gt;Node4</title>
<path fill="none" stroke="#404040" d="M670.71,-535.34C670.71,-516.78 670.71,-497.11 670.71,-478.02"/>
<polygon fill="none" stroke="#404040" points="670.71,-477.9 666.71,-471.9 670.71,-465.9 674.71,-471.9 670.71,-477.9"/>
<text text-anchor="middle" x="703.21" y="-498" font-family="Helvetica,sans-Serif" font-size="10.00"> &#45;_screenSize</text>
</g>
<!-- Node16 -->
<g id="node16" class="node">
<title>Node16</title>
<g id="a_node16"><a xlink:title=" ">
<polygon fill="white" stroke="#bfbfbf" points="731.21,-951.5 731.21,-1008.5 760.21,-1008.5 760.21,-951.5 731.21,-951.5"/>
<text text-anchor="middle" x="745.71" y="-996.5" font-family="Helvetica,sans-Serif" font-size="10.00">int</text>
<polyline fill="none" stroke="#bfbfbf" points="731.21,-989.5 760.21,-989.5 "/>
<text text-anchor="middle" x="745.71" y="-977.5" font-family="Helvetica,sans-Serif" font-size="10.00"> </text>
<polyline fill="none" stroke="#bfbfbf" points="731.21,-970.5 760.21,-970.5 "/>
<text text-anchor="middle" x="745.71" y="-958.5" font-family="Helvetica,sans-Serif" font-size="10.00"> </text>
</a>
</g>
</g>
<!-- Node16&#45;&gt;Node4 -->
<g id="edge17" class="edge">
<title>Node16&#45;&gt;Node4</title>
<path fill="none" stroke="#404040" d="M750.22,-951.48C761.65,-875.36 787.66,-656.21 739.71,-484 739.07,-481.69 738.37,-479.38 737.62,-477.08"/>
<polygon fill="none" stroke="#404040" points="737.54,-476.87 731.74,-472.59 733.46,-465.58 739.26,-469.86 737.54,-476.87"/>
<text text-anchor="middle" x="799.21" y="-633" font-family="Helvetica,sans-Serif" font-size="10.00"> &#45;_cluster</text>
<text text-anchor="middle" x="799.21" y="-622" font-family="Helvetica,sans-Serif" font-size="10.00">&#45;_maxThread</text>
</g>
<!-- Node16&#45;&gt;Node15 -->
<g id="edge16" class="edge">
<title>Node16&#45;&gt;Node15</title>
<path fill="none" stroke="#404040" d="M739.77,-951.4C729.87,-905.47 709.51,-811.03 693.45,-736.52"/>
<polygon fill="none" stroke="#404040" points="693.44,-736.47 688.27,-731.45 690.92,-724.74 696.09,-729.76 693.44,-736.47"/>
<text text-anchor="middle" x="715.21" y="-775" font-family="Helvetica,sans-Serif" font-size="10.00"> &#45;_x</text>
<text text-anchor="middle" x="715.21" y="-764" font-family="Helvetica,sans-Serif" font-size="10.00">&#45;_y</text>
</g>
<!-- Node17 -->
<g id="node17" class="node">
<title>Node17</title>
<g id="a_node17"><a xlink:href="a01239.html" target="_top" xlink:title="Logger singleton.">
<polygon fill="white" stroke="black" points="849.21,-568.5 849.21,-691.5 956.21,-691.5 956.21,-568.5 849.21,-568.5"/>
<text text-anchor="middle" x="902.71" y="-679.5" font-family="Helvetica,sans-Serif" font-size="10.00">RayTracer::ILogger</text>
<polyline fill="none" stroke="black" points="849.21,-672.5 956.21,-672.5 "/>
<text text-anchor="middle" x="902.71" y="-660.5" font-family="Helvetica,sans-Serif" font-size="10.00"> </text>
<polyline fill="none" stroke="black" points="849.21,-653.5 956.21,-653.5 "/>
<text text-anchor="start" x="857.21" y="-641.5" font-family="Helvetica,sans-Serif" font-size="10.00">+ ~ILogger()</text>
<text text-anchor="start" x="857.21" y="-630.5" font-family="Helvetica,sans-Serif" font-size="10.00">+ fatal()</text>
<text text-anchor="start" x="857.21" y="-619.5" font-family="Helvetica,sans-Serif" font-size="10.00">+ error()</text>
<text text-anchor="start" x="857.21" y="-608.5" font-family="Helvetica,sans-Serif" font-size="10.00">+ warn()</text>
<text text-anchor="start" x="857.21" y="-597.5" font-family="Helvetica,sans-Serif" font-size="10.00">+ info()</text>
<text text-anchor="start" x="857.21" y="-586.5" font-family="Helvetica,sans-Serif" font-size="10.00">+ debug()</text>
<text text-anchor="start" x="857.21" y="-575.5" font-family="Helvetica,sans-Serif" font-size="10.00">+ trace()</text>
</a>
</g>
</g>
<!-- Node17&#45;&gt;Node4 -->
<g id="edge18" class="edge">
<title>Node17&#45;&gt;Node4</title>
<path fill="none" stroke="#404040" d="M860.82,-568.34C852.46,-557.03 843.53,-545.48 834.71,-535 809.11,-504.55 779.24,-472.86 752.05,-445.3"/>
<polygon fill="none" stroke="#404040" points="751.78,-445.02 744.71,-443.58 743.33,-436.5 750.39,-437.94 751.78,-445.02"/>
<text text-anchor="middle" x="839.21" y="-498" font-family="Helvetica,sans-Serif" font-size="10.00"> &#45;_logger</text>
</g>
<!-- Node18 -->
<g id="node18" class="node">
<title>Node18</title>
<g id="a_node18"><a xlink:title=" ">
<polygon fill="white" stroke="#bfbfbf" points="974.71,-596 974.71,-664 1090.71,-664 1090.71,-596 974.71,-596"/>
<text text-anchor="start" x="982.71" y="-652" font-family="Helvetica,sans-Serif" font-size="10.00">optional&lt; RayTracer</text>
<text text-anchor="middle" x="1032.71" y="-641" font-family="Helvetica,sans-Serif" font-size="10.00">::Images::Image &gt;</text>
<polyline fill="none" stroke="#bfbfbf" points="974.71,-634 1090.71,-634 "/>
<text text-anchor="middle" x="1032.71" y="-622" font-family="Helvetica,sans-Serif" font-size="10.00"> </text>
<polyline fill="none" stroke="#bfbfbf" points="974.71,-615 1090.71,-615 "/>
<text text-anchor="middle" x="1032.71" y="-603" font-family="Helvetica,sans-Serif" font-size="10.00"> </text>
</a>
</g>
</g>
<!-- Node18&#45;&gt;Node4 -->
<g id="edge19" class="edge">
<title>Node18&#45;&gt;Node4</title>
<path fill="none" stroke="#404040" d="M1014.04,-595.8C1002.01,-576.44 985.04,-552.48 965.71,-535 902.68,-477.99 817.14,-431.77 754.4,-402.26"/>
<polygon fill="none" stroke="#404040" points="754.24,-402.19 747.11,-403.28 743.36,-397.13 750.48,-396.03 754.24,-402.19"/>
<text text-anchor="middle" x="958.21" y="-498" font-family="Helvetica,sans-Serif" font-size="10.00"> &#45;_image</text>
</g>
<!-- Node19&#45;&gt;Node3 -->
<g id="edge20" class="edge">
<title>Node19&#45;&gt;Node3</title>
<path fill="none" stroke="orange" d="M1032.17,-764.51C1057.28,-758.5 1084.34,-746.98 1099.71,-725 1212.68,-563.5 1075.51,-313.21 1014.81,-217.77"/>
<polygon fill="orange" stroke="orange" points="1031.35,-761.11 1022.31,-766.63 1032.82,-767.95 1031.35,-761.11"/>
<text text-anchor="start" x="1136.71" y="-509" font-family="Helvetica,sans-Serif" font-size="10.00"> &lt; RayTracer::PluginsExt</text>
<text text-anchor="start" x="1136.71" y="-498" font-family="Helvetica,sans-Serif" font-size="10.00">::Camera::Clustered::CameraCluster</text>
<text text-anchor="middle" x="1224.71" y="-487" font-family="Helvetica,sans-Serif" font-size="10.00">Entity * &gt;</text>
</g>
</g>
</svg>
