<?xml version="1.0" encoding="UTF-8" standalone="no"?>
<!DOCTYPE svg PUBLIC "-//W3C//DTD SVG 1.1//EN"
 "http://www.w3.org/Graphics/SVG/1.1/DTD/svg11.dtd">
<!-- Generated by graphviz version 2.43.0 (0)
 -->
<!-- Title: RayTracer::Scenes::Scene Pages: 1 -->
<svg width="961pt" height="772pt"
 viewBox="0.00 0.00 960.50 772.00" xmlns="http://www.w3.org/2000/svg" xmlns:xlink="http://www.w3.org/1999/xlink">
<g id="graph0" class="graph" transform="scale(1 1) rotate(0) translate(4 768)">
<title>RayTracer::Scenes::Scene</title>
<polygon fill="white" stroke="transparent" points="-4,4 -4,-768 956.5,-768 956.5,4 -4,4"/>
<!-- Node1 -->
<g id="node1" class="node">
<title>Node1</title>
<g id="a_node1"><a xlink:title="The Scene class.">
<polygon fill="#bfbfbf" stroke="black" points="452.5,-0.5 452.5,-167.5 563.5,-167.5 563.5,-0.5 452.5,-0.5"/>
<text text-anchor="start" x="460.5" y="-155.5" font-family="Helvetica,sans-Serif" font-size="10.00">RayTracer::Scenes::</text>
<text text-anchor="middle" x="508" y="-144.5" font-family="Helvetica,sans-Serif" font-size="10.00">Scene</text>
<polyline fill="none" stroke="black" points="452.5,-137.5 563.5,-137.5 "/>
<text text-anchor="middle" x="508" y="-125.5" font-family="Helvetica,sans-Serif" font-size="10.00"> </text>
<polyline fill="none" stroke="black" points="452.5,-118.5 563.5,-118.5 "/>
<text text-anchor="start" x="460.5" y="-106.5" font-family="Helvetica,sans-Serif" font-size="10.00">+ Scene()</text>
<text text-anchor="start" x="460.5" y="-95.5" font-family="Helvetica,sans-Serif" font-size="10.00">+ ~Scene()</text>
<text text-anchor="start" x="460.5" y="-84.5" font-family="Helvetica,sans-Serif" font-size="10.00">+ operator()()</text>
<text text-anchor="start" x="460.5" y="-73.5" font-family="Helvetica,sans-Serif" font-size="10.00">+ renders()</text>
<text text-anchor="start" x="460.5" y="-62.5" font-family="Helvetica,sans-Serif" font-size="10.00">+ getCameras()</text>
<text text-anchor="start" x="460.5" y="-51.5" font-family="Helvetica,sans-Serif" font-size="10.00">+ isReady()</text>
<text text-anchor="start" x="460.5" y="-40.5" font-family="Helvetica,sans-Serif" font-size="10.00">+ cancel()</text>
<text text-anchor="start" x="460.5" y="-29.5" font-family="Helvetica,sans-Serif" font-size="10.00">+ wait_end()</text>
<text text-anchor="start" x="460.5" y="-18.5" font-family="Helvetica,sans-Serif" font-size="10.00">&#45; loadConfig()</text>
<text text-anchor="start" x="460.5" y="-7.5" font-family="Helvetica,sans-Serif" font-size="10.00">&#45; waitTillCancel()</text>
</a>
</g>
</g>
<!-- Node2 -->
<g id="node2" class="node">
<title>Node2</title>
<g id="a_node2"><a xlink:href="a01381.html" target="_top" xlink:title="The Displayable class.">
<polygon fill="white" stroke="black" points="198,-215.5 198,-338.5 314,-338.5 314,-215.5 198,-215.5"/>
<text text-anchor="start" x="206" y="-326.5" font-family="Helvetica,sans-Serif" font-size="10.00">RayTracer::Scenes::</text>
<text text-anchor="middle" x="256" y="-315.5" font-family="Helvetica,sans-Serif" font-size="10.00">Displayable</text>
<polyline fill="none" stroke="black" points="198,-308.5 314,-308.5 "/>
<text text-anchor="middle" x="256" y="-296.5" font-family="Helvetica,sans-Serif" font-size="10.00"> </text>
<polyline fill="none" stroke="black" points="198,-289.5 314,-289.5 "/>
<text text-anchor="start" x="206" y="-277.5" font-family="Helvetica,sans-Serif" font-size="10.00">+ getLightList()</text>
<text text-anchor="start" x="206" y="-266.5" font-family="Helvetica,sans-Serif" font-size="10.00">+ getLightList()</text>
<text text-anchor="start" x="206" y="-255.5" font-family="Helvetica,sans-Serif" font-size="10.00">+ getPrimitiveList()</text>
<text text-anchor="start" x="206" y="-244.5" font-family="Helvetica,sans-Serif" font-size="10.00">+ getPrimitiveList()</text>
<text text-anchor="start" x="206" y="-233.5" font-family="Helvetica,sans-Serif" font-size="10.00">+ getAmbientLight()</text>
<text text-anchor="start" x="206" y="-222.5" font-family="Helvetica,sans-Serif" font-size="10.00">+ getAmbientLight()</text>
</a>
</g>
</g>
<!-- Node2&#45;&gt;Node1 -->
<g id="edge1" class="edge">
<title>Node2&#45;&gt;Node1</title>
<path fill="none" stroke="#404040" d="M314.28,-226.7C319.23,-222.7 324.18,-218.76 329,-215 365.94,-186.2 408.31,-155.34 442.56,-130.91"/>
<polygon fill="none" stroke="#404040" points="442.67,-130.83 445.24,-124.09 452.44,-123.88 449.87,-130.61 442.67,-130.83"/>
<text text-anchor="middle" x="397.5" y="-189" font-family="Helvetica,sans-Serif" font-size="10.00"> &#45;_displayable</text>
</g>
<!-- Node3 -->
<g id="node3" class="node">
<title>Node3</title>
<g id="a_node3"><a xlink:href="a01393.html" target="_top" xlink:title="The IDisplayable interface.">
<polygon fill="white" stroke="black" points="191,-386.5 191,-509.5 307,-509.5 307,-386.5 191,-386.5"/>
<text text-anchor="start" x="199" y="-497.5" font-family="Helvetica,sans-Serif" font-size="10.00">RayTracer::Scenes::</text>
<text text-anchor="middle" x="249" y="-486.5" font-family="Helvetica,sans-Serif" font-size="10.00">IDisplayable</text>
<polyline fill="none" stroke="black" points="191,-479.5 307,-479.5 "/>
<text text-anchor="middle" x="249" y="-467.5" font-family="Helvetica,sans-Serif" font-size="10.00"> </text>
<polyline fill="none" stroke="black" points="191,-460.5 307,-460.5 "/>
<text text-anchor="start" x="199" y="-448.5" font-family="Helvetica,sans-Serif" font-size="10.00">+ getLightList()</text>
<text text-anchor="start" x="199" y="-437.5" font-family="Helvetica,sans-Serif" font-size="10.00">+ getLightList()</text>
<text text-anchor="start" x="199" y="-426.5" font-family="Helvetica,sans-Serif" font-size="10.00">+ getPrimitiveList()</text>
<text text-anchor="start" x="199" y="-415.5" font-family="Helvetica,sans-Serif" font-size="10.00">+ getPrimitiveList()</text>
<text text-anchor="start" x="199" y="-404.5" font-family="Helvetica,sans-Serif" font-size="10.00">+ getAmbientLight()</text>
<text text-anchor="start" x="199" y="-393.5" font-family="Helvetica,sans-Serif" font-size="10.00">+ getAmbientLight()</text>
</a>
</g>
</g>
<!-- Node3&#45;&gt;Node2 -->
<g id="edge2" class="edge">
<title>Node3&#45;&gt;Node2</title>
<path fill="none" stroke="midnightblue" d="M251.94,-376.13C252.45,-363.68 252.98,-350.82 253.49,-338.68"/>
<polygon fill="none" stroke="midnightblue" points="248.42,-376.33 251.51,-386.46 255.42,-376.62 248.42,-376.33"/>
</g>
<!-- Node4 -->
<g id="node4" class="node">
<title>Node4</title>
<g id="a_node4"><a xlink:title=" ">
<polygon fill="white" stroke="#bfbfbf" points="325,-408.5 325,-487.5 489,-487.5 489,-408.5 325,-408.5"/>
<text text-anchor="start" x="333" y="-475.5" font-family="Helvetica,sans-Serif" font-size="10.00">std::vector&lt; std::reference</text>
<text text-anchor="start" x="333" y="-464.5" font-family="Helvetica,sans-Serif" font-size="10.00">_wrapper&lt; RayTracer::Entities</text>
<text text-anchor="middle" x="407" y="-453.5" font-family="Helvetica,sans-Serif" font-size="10.00">::IPrimitive &gt; &gt;</text>
<polyline fill="none" stroke="#bfbfbf" points="325,-446.5 489,-446.5 "/>
<text text-anchor="middle" x="407" y="-434.5" font-family="Helvetica,sans-Serif" font-size="10.00"> </text>
<polyline fill="none" stroke="#bfbfbf" points="325,-427.5 489,-427.5 "/>
<text text-anchor="middle" x="407" y="-415.5" font-family="Helvetica,sans-Serif" font-size="10.00"> </text>
</a>
</g>
</g>
<!-- Node4&#45;&gt;Node2 -->
<g id="edge3" class="edge">
<title>Node4&#45;&gt;Node2</title>
<path fill="none" stroke="#404040" d="M372.36,-408.23C356.35,-390.32 336.85,-368.48 318.41,-347.85"/>
<polygon fill="none" stroke="#404040" points="318.31,-347.73 311.33,-345.93 310.31,-338.79 317.29,-340.6 318.31,-347.73"/>
<text text-anchor="middle" x="368" y="-360" font-family="Helvetica,sans-Serif" font-size="10.00"> &#45;_primitives</text>
</g>
<!-- Node5 -->
<g id="node5" class="node">
<title>Node5</title>
<g id="a_node5"><a xlink:title=" ">
<polygon fill="white" stroke="#bfbfbf" points="134,-579.5 134,-658.5 250,-658.5 250,-579.5 134,-579.5"/>
<text text-anchor="start" x="142" y="-646.5" font-family="Helvetica,sans-Serif" font-size="10.00">reference_wrapper&lt;</text>
<text text-anchor="start" x="142" y="-635.5" font-family="Helvetica,sans-Serif" font-size="10.00"> RayTracer::Entities</text>
<text text-anchor="middle" x="192" y="-624.5" font-family="Helvetica,sans-Serif" font-size="10.00">::IPrimitive &gt;</text>
<polyline fill="none" stroke="#bfbfbf" points="134,-617.5 250,-617.5 "/>
<text text-anchor="middle" x="192" y="-605.5" font-family="Helvetica,sans-Serif" font-size="10.00"> </text>
<polyline fill="none" stroke="#bfbfbf" points="134,-598.5 250,-598.5 "/>
<text text-anchor="middle" x="192" y="-586.5" font-family="Helvetica,sans-Serif" font-size="10.00"> </text>
</a>
</g>
</g>
<!-- Node5&#45;&gt;Node4 -->
<g id="edge4" class="edge">
<title>Node5&#45;&gt;Node4</title>
<path fill="none" stroke="#404040" d="M181.92,-579.39C179.73,-561.75 180.97,-541.77 193,-528 211.18,-507.2 290.22,-519.94 316,-510 326.67,-505.89 337.35,-500.34 347.44,-494.26"/>
<polygon fill="none" stroke="#404040" points="347.57,-494.18 350.51,-487.6 357.72,-487.78 354.78,-494.36 347.57,-494.18"/>
<text text-anchor="middle" x="222" y="-542" font-family="Helvetica,sans-Serif" font-size="10.00"> +elements</text>
</g>
<!-- Node6 -->
<g id="node6" class="node">
<title>Node6</title>
<g id="a_node6"><a xlink:title=" ">
<polygon fill="white" stroke="#bfbfbf" points="374.5,-590.5 374.5,-647.5 471.5,-647.5 471.5,-590.5 374.5,-590.5"/>
<text text-anchor="middle" x="423" y="-635.5" font-family="Helvetica,sans-Serif" font-size="10.00">std::vector&lt; T &gt;</text>
<polyline fill="none" stroke="#bfbfbf" points="374.5,-628.5 471.5,-628.5 "/>
<text text-anchor="middle" x="423" y="-616.5" font-family="Helvetica,sans-Serif" font-size="10.00"> </text>
<polyline fill="none" stroke="#bfbfbf" points="374.5,-609.5 471.5,-609.5 "/>
<text text-anchor="middle" x="423" y="-597.5" font-family="Helvetica,sans-Serif" font-size="10.00"> </text>
</a>
</g>
</g>
<!-- Node6&#45;&gt;Node4 -->
<g id="edge5" class="edge">
<title>Node6&#45;&gt;Node4</title>
<path fill="none" stroke="orange" d="M419.44,-580.41C416.83,-552.79 413.29,-515.4 410.65,-487.56"/>
<polygon fill="orange" stroke="orange" points="415.97,-580.85 420.39,-590.47 422.94,-580.19 415.97,-580.85"/>
<text text-anchor="start" x="418" y="-553" font-family="Helvetica,sans-Serif" font-size="10.00"> &lt; std::reference_wrapper</text>
<text text-anchor="start" x="418" y="-542" font-family="Helvetica,sans-Serif" font-size="10.00">&lt; RayTracer::Entities::</text>
<text text-anchor="middle" x="481.5" y="-531" font-family="Helvetica,sans-Serif" font-size="10.00">IPrimitive &gt; &gt;</text>
</g>
<!-- Node8 -->
<g id="node8" class="node">
<title>Node8</title>
<g id="a_node8"><a xlink:title=" ">
<polygon fill="white" stroke="#bfbfbf" points="9,-408.5 9,-487.5 173,-487.5 173,-408.5 9,-408.5"/>
<text text-anchor="start" x="17" y="-475.5" font-family="Helvetica,sans-Serif" font-size="10.00">std::vector&lt; std::reference</text>
<text text-anchor="start" x="17" y="-464.5" font-family="Helvetica,sans-Serif" font-size="10.00">_wrapper&lt; RayTracer::Entities</text>
<text text-anchor="middle" x="91" y="-453.5" font-family="Helvetica,sans-Serif" font-size="10.00">::ILight &gt; &gt;</text>
<polyline fill="none" stroke="#bfbfbf" points="9,-446.5 173,-446.5 "/>
<text text-anchor="middle" x="91" y="-434.5" font-family="Helvetica,sans-Serif" font-size="10.00"> </text>
<polyline fill="none" stroke="#bfbfbf" points="9,-427.5 173,-427.5 "/>
<text text-anchor="middle" x="91" y="-415.5" font-family="Helvetica,sans-Serif" font-size="10.00"> </text>
</a>
</g>
</g>
<!-- Node6&#45;&gt;Node8 -->
<g id="edge9" class="edge">
<title>Node6&#45;&gt;Node8</title>
<path fill="none" stroke="orange" d="M364.65,-599.93C338.76,-590.47 308.64,-577.4 284,-561 266.73,-549.51 269,-538.31 251,-528 223.5,-512.24 210.9,-523.01 182,-510 168.47,-503.91 154.74,-495.87 142.18,-487.63"/>
<polygon fill="orange" stroke="orange" points="363.75,-603.32 374.34,-603.37 366.09,-596.73 363.75,-603.32"/>
<text text-anchor="start" x="284" y="-553" font-family="Helvetica,sans-Serif" font-size="10.00"> &lt; std::reference_wrapper</text>
<text text-anchor="start" x="284" y="-542" font-family="Helvetica,sans-Serif" font-size="10.00">&lt; RayTracer::Entities::</text>
<text text-anchor="middle" x="347.5" y="-531" font-family="Helvetica,sans-Serif" font-size="10.00">ILight &gt; &gt;</text>
</g>
<!-- Node16 -->
<g id="node16" class="node">
<title>Node16</title>
<g id="a_node16"><a xlink:title=" ">
<polygon fill="white" stroke="#bfbfbf" points="507,-408.5 507,-487.5 671,-487.5 671,-408.5 507,-408.5"/>
<text text-anchor="start" x="515" y="-475.5" font-family="Helvetica,sans-Serif" font-size="10.00">std::vector&lt; std::reference</text>
<text text-anchor="start" x="515" y="-464.5" font-family="Helvetica,sans-Serif" font-size="10.00">_wrapper&lt; RayTracer::Entities</text>
<text text-anchor="middle" x="589" y="-453.5" font-family="Helvetica,sans-Serif" font-size="10.00">::ICamera &gt; &gt;</text>
<polyline fill="none" stroke="#bfbfbf" points="507,-446.5 671,-446.5 "/>
<text text-anchor="middle" x="589" y="-434.5" font-family="Helvetica,sans-Serif" font-size="10.00"> </text>
<polyline fill="none" stroke="#bfbfbf" points="507,-427.5 671,-427.5 "/>
<text text-anchor="middle" x="589" y="-415.5" font-family="Helvetica,sans-Serif" font-size="10.00"> </text>
</a>
</g>
</g>
<!-- Node6&#45;&gt;Node16 -->
<g id="edge18" class="edge">
<title>Node6&#45;&gt;Node16</title>
<path fill="none" stroke="orange" d="M481.26,-602.66C504.98,-593.86 530.98,-580.55 549,-561 567.61,-540.8 577.68,-511.36 583.06,-487.73"/>
<polygon fill="orange" stroke="orange" points="479.89,-599.43 471.62,-606.04 482.21,-606.03 479.89,-599.43"/>
<text text-anchor="start" x="570" y="-553" font-family="Helvetica,sans-Serif" font-size="10.00"> &lt; std::reference_wrapper</text>
<text text-anchor="start" x="570" y="-542" font-family="Helvetica,sans-Serif" font-size="10.00">&lt; RayTracer::Entities::</text>
<text text-anchor="middle" x="633.5" y="-531" font-family="Helvetica,sans-Serif" font-size="10.00">ICamera &gt; &gt;</text>
</g>
<!-- Node7 -->
<g id="node7" class="node">
<title>Node7</title>
<g id="a_node7"><a xlink:title=" ">
<polygon fill="white" stroke="#bfbfbf" points="408.5,-706.5 408.5,-763.5 437.5,-763.5 437.5,-706.5 408.5,-706.5"/>
<text text-anchor="middle" x="423" y="-751.5" font-family="Helvetica,sans-Serif" font-size="10.00">T</text>
<polyline fill="none" stroke="#bfbfbf" points="408.5,-744.5 437.5,-744.5 "/>
<text text-anchor="middle" x="423" y="-732.5" font-family="Helvetica,sans-Serif" font-size="10.00"> </text>
<polyline fill="none" stroke="#bfbfbf" points="408.5,-725.5 437.5,-725.5 "/>
<text text-anchor="middle" x="423" y="-713.5" font-family="Helvetica,sans-Serif" font-size="10.00"> </text>
</a>
</g>
</g>
<!-- Node7&#45;&gt;Node6 -->
<g id="edge6" class="edge">
<title>Node7&#45;&gt;Node6</title>
<path fill="none" stroke="#404040" d="M423,-706.4C423,-692.5 423,-675.39 423,-660.07"/>
<polygon fill="none" stroke="#404040" points="423,-659.74 419,-653.74 423,-647.74 427,-653.74 423,-659.74"/>
<text text-anchor="middle" x="452" y="-680" font-family="Helvetica,sans-Serif" font-size="10.00"> +elements</text>
</g>
<!-- Node8&#45;&gt;Node2 -->
<g id="edge7" class="edge">
<title>Node8&#45;&gt;Node2</title>
<path fill="none" stroke="#404040" d="M128.85,-408.23C146.83,-389.81 168.86,-367.25 189.5,-346.11"/>
<polygon fill="none" stroke="#404040" points="189.55,-346.06 190.88,-338.97 197.94,-337.47 196.61,-344.56 189.55,-346.06"/>
<text text-anchor="middle" x="199" y="-360" font-family="Helvetica,sans-Serif" font-size="10.00"> &#45;_lights</text>
</g>
<!-- Node9 -->
<g id="node9" class="node">
<title>Node9</title>
<g id="a_node9"><a xlink:title=" ">
<polygon fill="white" stroke="#bfbfbf" points="0,-579.5 0,-658.5 116,-658.5 116,-579.5 0,-579.5"/>
<text text-anchor="start" x="8" y="-646.5" font-family="Helvetica,sans-Serif" font-size="10.00">reference_wrapper&lt;</text>
<text text-anchor="start" x="8" y="-635.5" font-family="Helvetica,sans-Serif" font-size="10.00"> RayTracer::Entities</text>
<text text-anchor="middle" x="58" y="-624.5" font-family="Helvetica,sans-Serif" font-size="10.00">::ILight &gt;</text>
<polyline fill="none" stroke="#bfbfbf" points="0,-617.5 116,-617.5 "/>
<text text-anchor="middle" x="58" y="-605.5" font-family="Helvetica,sans-Serif" font-size="10.00"> </text>
<polyline fill="none" stroke="#bfbfbf" points="0,-598.5 116,-598.5 "/>
<text text-anchor="middle" x="58" y="-586.5" font-family="Helvetica,sans-Serif" font-size="10.00"> </text>
</a>
</g>
</g>
<!-- Node9&#45;&gt;Node8 -->
<g id="edge8" class="edge">
<title>Node9&#45;&gt;Node8</title>
<path fill="none" stroke="#404040" d="M65.57,-579.23C70.18,-555.61 76.13,-525.18 81.11,-499.67"/>
<polygon fill="none" stroke="#404040" points="81.16,-499.37 78.39,-492.71 83.46,-487.59 86.24,-494.25 81.16,-499.37"/>
<text text-anchor="middle" x="105" y="-542" font-family="Helvetica,sans-Serif" font-size="10.00"> +elements</text>
</g>
<!-- Node10 -->
<g id="node10" class="node">
<title>Node10</title>
<g id="a_node10"><a xlink:href="a01253.html" target="_top" xlink:title="Logger singleton.">
<polygon fill="white" stroke="black" points="338.5,-215.5 338.5,-338.5 445.5,-338.5 445.5,-215.5 338.5,-215.5"/>
<text text-anchor="middle" x="392" y="-326.5" font-family="Helvetica,sans-Serif" font-size="10.00">RayTracer::ILogger</text>
<polyline fill="none" stroke="black" points="338.5,-319.5 445.5,-319.5 "/>
<text text-anchor="middle" x="392" y="-307.5" font-family="Helvetica,sans-Serif" font-size="10.00"> </text>
<polyline fill="none" stroke="black" points="338.5,-300.5 445.5,-300.5 "/>
<text text-anchor="start" x="346.5" y="-288.5" font-family="Helvetica,sans-Serif" font-size="10.00">+ ~ILogger()</text>
<text text-anchor="start" x="346.5" y="-277.5" font-family="Helvetica,sans-Serif" font-size="10.00">+ fatal()</text>
<text text-anchor="start" x="346.5" y="-266.5" font-family="Helvetica,sans-Serif" font-size="10.00">+ error()</text>
<text text-anchor="start" x="346.5" y="-255.5" font-family="Helvetica,sans-Serif" font-size="10.00">+ warn()</text>
<text text-anchor="start" x="346.5" y="-244.5" font-family="Helvetica,sans-Serif" font-size="10.00">+ info()</text>
<text text-anchor="start" x="346.5" y="-233.5" font-family="Helvetica,sans-Serif" font-size="10.00">+ debug()</text>
<text text-anchor="start" x="346.5" y="-222.5" font-family="Helvetica,sans-Serif" font-size="10.00">+ trace()</text>
</a>
</g>
</g>
<!-- Node10&#45;&gt;Node1 -->
<g id="edge10" class="edge">
<title>Node10&#45;&gt;Node1</title>
<path fill="none" stroke="#404040" d="M428.86,-215.3C436.07,-203.44 443.77,-190.75 451.45,-178.11"/>
<polygon fill="none" stroke="#404040" points="451.65,-177.79 451.34,-170.58 457.88,-167.53 458.18,-174.74 451.65,-177.79"/>
<text text-anchor="middle" x="468.5" y="-189" font-family="Helvetica,sans-Serif" font-size="10.00"> &#45;_logger</text>
</g>
<!-- Node11 -->
<g id="node11" class="node">
<title>Node11</title>
<g id="a_node11"><a xlink:title=" ">
<polygon fill="white" stroke="#bfbfbf" points="463.5,-248.5 463.5,-305.5 552.5,-305.5 552.5,-248.5 463.5,-248.5"/>
<text text-anchor="middle" x="508" y="-293.5" font-family="Helvetica,sans-Serif" font-size="10.00">future&lt; void &gt;</text>
<polyline fill="none" stroke="#bfbfbf" points="463.5,-286.5 552.5,-286.5 "/>
<text text-anchor="middle" x="508" y="-274.5" font-family="Helvetica,sans-Serif" font-size="10.00"> </text>
<polyline fill="none" stroke="#bfbfbf" points="463.5,-267.5 552.5,-267.5 "/>
<text text-anchor="middle" x="508" y="-255.5" font-family="Helvetica,sans-Serif" font-size="10.00"> </text>
</a>
</g>
</g>
<!-- Node11&#45;&gt;Node1 -->
<g id="edge11" class="edge">
<title>Node11&#45;&gt;Node1</title>
<path fill="none" stroke="#404040" d="M508,-248.23C508,-230 508,-204.99 508,-180.02"/>
<polygon fill="none" stroke="#404040" points="508,-179.8 504,-173.8 508,-167.8 512,-173.8 508,-179.8"/>
<text text-anchor="middle" x="529" y="-189" font-family="Helvetica,sans-Serif" font-size="10.00"> &#45;_future</text>
</g>
<!-- Node12 -->
<g id="node12" class="node">
<title>Node12</title>
<g id="a_node12"><a xlink:href="a01429.html" target="_top" xlink:title="The SceneState class.">
<polygon fill="white" stroke="black" points="743.5,-232 743.5,-322 854.5,-322 854.5,-232 743.5,-232"/>
<text text-anchor="start" x="751.5" y="-310" font-family="Helvetica,sans-Serif" font-size="10.00">RayTracer::Scenes::</text>
<text text-anchor="middle" x="799" y="-299" font-family="Helvetica,sans-Serif" font-size="10.00">SceneState</text>
<polyline fill="none" stroke="black" points="743.5,-292 854.5,-292 "/>
<text text-anchor="middle" x="799" y="-280" font-family="Helvetica,sans-Serif" font-size="10.00"> </text>
<polyline fill="none" stroke="black" points="743.5,-273 854.5,-273 "/>
<text text-anchor="start" x="751.5" y="-261" font-family="Helvetica,sans-Serif" font-size="10.00">+ SceneState()</text>
<text text-anchor="start" x="751.5" y="-250" font-family="Helvetica,sans-Serif" font-size="10.00">+ getState()</text>
<text text-anchor="start" x="751.5" y="-239" font-family="Helvetica,sans-Serif" font-size="10.00">+ changeState()</text>
</a>
</g>
</g>
<!-- Node12&#45;&gt;Node1 -->
<g id="edge12" class="edge">
<title>Node12&#45;&gt;Node1</title>
<path fill="none" stroke="#404040" d="M743.24,-239.4C694.91,-207.68 624.92,-161.74 573.85,-128.22"/>
<polygon fill="none" stroke="#404040" points="573.61,-128.06 566.4,-128.11 563.57,-121.48 570.79,-121.43 573.61,-128.06"/>
<text text-anchor="middle" x="689.5" y="-189" font-family="Helvetica,sans-Serif" font-size="10.00"> &#45;_state</text>
</g>
<!-- Node13 -->
<g id="node13" class="node">
<title>Node13</title>
<g id="a_node13"><a xlink:href="a01401.html" target="_top" xlink:title="The SceneState interface.">
<polygon fill="white" stroke="black" points="689.5,-408.5 689.5,-487.5 800.5,-487.5 800.5,-408.5 689.5,-408.5"/>
<text text-anchor="start" x="697.5" y="-475.5" font-family="Helvetica,sans-Serif" font-size="10.00">RayTracer::Scenes::</text>
<text text-anchor="middle" x="745" y="-464.5" font-family="Helvetica,sans-Serif" font-size="10.00">ISceneState</text>
<polyline fill="none" stroke="black" points="689.5,-457.5 800.5,-457.5 "/>
<text text-anchor="middle" x="745" y="-445.5" font-family="Helvetica,sans-Serif" font-size="10.00"> </text>
<polyline fill="none" stroke="black" points="689.5,-438.5 800.5,-438.5 "/>
<text text-anchor="start" x="697.5" y="-426.5" font-family="Helvetica,sans-Serif" font-size="10.00">+ getState()</text>
<text text-anchor="start" x="697.5" y="-415.5" font-family="Helvetica,sans-Serif" font-size="10.00">+ changeState()</text>
</a>
</g>
</g>
<!-- Node13&#45;&gt;Node12 -->
<g id="edge13" class="edge">
<title>Node13&#45;&gt;Node12</title>
<path fill="none" stroke="midnightblue" d="M760.47,-398.59C768.15,-374.55 777.37,-345.71 784.86,-322.26"/>
<polygon fill="none" stroke="midnightblue" points="757.1,-397.64 757.39,-408.23 763.77,-399.77 757.1,-397.64"/>
</g>
<!-- Node14 -->
<g id="node14" class="node">
<title>Node14</title>
<g id="a_node14"><a xlink:title=" ">
<polygon fill="white" stroke="#bfbfbf" points="818.5,-419.5 818.5,-476.5 887.5,-476.5 887.5,-419.5 818.5,-419.5"/>
<text text-anchor="middle" x="853" y="-464.5" font-family="Helvetica,sans-Serif" font-size="10.00">std::mutex</text>
<polyline fill="none" stroke="#bfbfbf" points="818.5,-457.5 887.5,-457.5 "/>
<text text-anchor="middle" x="853" y="-445.5" font-family="Helvetica,sans-Serif" font-size="10.00"> </text>
<polyline fill="none" stroke="#bfbfbf" points="818.5,-438.5 887.5,-438.5 "/>
<text text-anchor="middle" x="853" y="-426.5" font-family="Helvetica,sans-Serif" font-size="10.00"> </text>
</a>
</g>
</g>
<!-- Node14&#45;&gt;Node12 -->
<g id="edge14" class="edge">
<title>Node14&#45;&gt;Node12</title>
<path fill="none" stroke="#404040" d="M844.2,-419.47C836.8,-396.29 825.97,-362.4 816.77,-333.6"/>
<polygon fill="none" stroke="#404040" points="816.72,-333.46 811.08,-328.96 813.07,-322.03 818.7,-326.53 816.72,-333.46"/>
<text text-anchor="middle" x="847.5" y="-360" font-family="Helvetica,sans-Serif" font-size="10.00"> &#45;mutex</text>
</g>
<!-- Node15 -->
<g id="node15" class="node">
<title>Node15</title>
<g id="a_node15"><a xlink:title=" ">
<polygon fill="white" stroke="#bfbfbf" points="905.5,-419.5 905.5,-476.5 952.5,-476.5 952.5,-419.5 905.5,-419.5"/>
<text text-anchor="middle" x="929" y="-464.5" font-family="Helvetica,sans-Serif" font-size="10.00">States</text>
<polyline fill="none" stroke="#bfbfbf" points="905.5,-457.5 952.5,-457.5 "/>
<text text-anchor="middle" x="929" y="-445.5" font-family="Helvetica,sans-Serif" font-size="10.00"> </text>
<polyline fill="none" stroke="#bfbfbf" points="905.5,-438.5 952.5,-438.5 "/>
<text text-anchor="middle" x="929" y="-426.5" font-family="Helvetica,sans-Serif" font-size="10.00"> </text>
</a>
</g>
</g>
<!-- Node15&#45;&gt;Node12 -->
<g id="edge15" class="edge">
<title>Node15&#45;&gt;Node12</title>
<path fill="none" stroke="#404040" d="M915.59,-419.23C910.02,-408.54 903.18,-396.41 896,-386 882.96,-367.09 866.92,-347.96 851.66,-331.16"/>
<polygon fill="none" stroke="#404040" points="851.42,-330.91 844.41,-329.21 843.28,-322.09 850.29,-323.78 851.42,-330.91"/>
<text text-anchor="middle" x="900.5" y="-360" font-family="Helvetica,sans-Serif" font-size="10.00"> &#45;_state</text>
</g>
<!-- Node16&#45;&gt;Node1 -->
<g id="edge16" class="edge">
<title>Node16&#45;&gt;Node1</title>
<path fill="none" stroke="#404040" d="M588.55,-408.31C586.9,-356.37 580.16,-261.85 554,-186 553.22,-183.75 552.41,-181.47 551.58,-179.19"/>
<polygon fill="none" stroke="#404040" points="551.47,-178.92 545.59,-174.75 547.18,-167.71 553.06,-171.89 551.47,-178.92"/>
<text text-anchor="middle" x="611.5" y="-274.5" font-family="Helvetica,sans-Serif" font-size="10.00"> &#45;_cameras</text>
</g>
<!-- Node17 -->
<g id="node17" class="node">
<title>Node17</title>
<g id="a_node17"><a xlink:title=" ">
<polygon fill="white" stroke="#bfbfbf" points="665,-579.5 665,-658.5 781,-658.5 781,-579.5 665,-579.5"/>
<text text-anchor="start" x="673" y="-646.5" font-family="Helvetica,sans-Serif" font-size="10.00">reference_wrapper&lt;</text>
<text text-anchor="start" x="673" y="-635.5" font-family="Helvetica,sans-Serif" font-size="10.00"> RayTracer::Entities</text>
<text text-anchor="middle" x="723" y="-624.5" font-family="Helvetica,sans-Serif" font-size="10.00">::ICamera &gt;</text>
<polyline fill="none" stroke="#bfbfbf" points="665,-617.5 781,-617.5 "/>
<text text-anchor="middle" x="723" y="-605.5" font-family="Helvetica,sans-Serif" font-size="10.00"> </text>
<polyline fill="none" stroke="#bfbfbf" points="665,-598.5 781,-598.5 "/>
<text text-anchor="middle" x="723" y="-586.5" font-family="Helvetica,sans-Serif" font-size="10.00"> </text>
</a>
</g>
</g>
<!-- Node17&#45;&gt;Node16 -->
<g id="edge17" class="edge">
<title>Node17&#45;&gt;Node16</title>
<path fill="none" stroke="#404040" d="M719.66,-579.19C716.72,-562.32 711.23,-543.02 701,-528 697.54,-522.93 678.67,-509.11 657.38,-494.42"/>
<polygon fill="none" stroke="#404040" points="657.37,-494.41 650.16,-494.32 647.47,-487.63 654.68,-487.72 657.37,-494.41"/>
<text text-anchor="middle" x="745" y="-542" font-family="Helvetica,sans-Serif" font-size="10.00"> +elements</text>
</g>
</g>
</svg>
