<?xml version="1.0" encoding="UTF-8" standalone="no"?>
<!DOCTYPE svg PUBLIC "-//W3C//DTD SVG 1.1//EN"
 "http://www.w3.org/Graphics/SVG/1.1/DTD/svg11.dtd">
<!-- Generated by graphviz version 2.43.0 (0)
 -->
<!-- Title: RayTracer::Plugins::Materials::MaterialHandler Pages: 1 -->
<svg width="392pt" height="811pt"
 viewBox="0.00 0.00 391.50 811.00" xmlns="http://www.w3.org/2000/svg" xmlns:xlink="http://www.w3.org/1999/xlink">
<g id="graph0" class="graph" transform="scale(1 1) rotate(0) translate(4 807)">
<title>RayTracer::Plugins::Materials::MaterialHandler</title>
<polygon fill="white" stroke="transparent" points="-4,4 -4,-807 387.5,-807 387.5,4 -4,4"/>
<!-- Node1 -->
<g id="node1" class="node">
<title>Node1</title>
<g id="a_node1"><a xlink:title="The MaterialHandler.">
<polygon fill="#bfbfbf" stroke="black" points="95,-0.5 95,-79.5 248,-79.5 248,-0.5 95,-0.5"/>
<text text-anchor="start" x="103" y="-67.5" font-family="Helvetica,sans-Serif" font-size="10.00">RayTracer::Plugins</text>
<text text-anchor="middle" x="171.5" y="-56.5" font-family="Helvetica,sans-Serif" font-size="10.00">::Materials::MaterialHandler</text>
<polyline fill="none" stroke="black" points="95,-49.5 248,-49.5 "/>
<text text-anchor="middle" x="171.5" y="-37.5" font-family="Helvetica,sans-Serif" font-size="10.00"> </text>
<polyline fill="none" stroke="black" points="95,-30.5 248,-30.5 "/>
<text text-anchor="start" x="103" y="-18.5" font-family="Helvetica,sans-Serif" font-size="10.00">+ MaterialHandler()</text>
<text text-anchor="start" x="103" y="-7.5" font-family="Helvetica,sans-Serif" font-size="10.00">+ get()</text>
</a>
</g>
</g>
<!-- Node2 -->
<g id="node2" class="node">
<title>Node2</title>
<g id="a_node2"><a xlink:href="a01472.html" target="_top" xlink:title=" ">
<polygon fill="white" stroke="black" points="68.5,-127.5 68.5,-283.5 274.5,-283.5 274.5,-127.5 68.5,-127.5"/>
<text text-anchor="start" x="76.5" y="-271.5" font-family="Helvetica,sans-Serif" font-size="10.00">RayTracer::Plugins</text>
<text text-anchor="start" x="76.5" y="-260.5" font-family="Helvetica,sans-Serif" font-size="10.00">::PluginHandler&lt; RayTracer</text>
<text text-anchor="start" x="76.5" y="-249.5" font-family="Helvetica,sans-Serif" font-size="10.00">::Entities::IMaterial, RayTracer</text>
<text text-anchor="middle" x="171.5" y="-238.5" font-family="Helvetica,sans-Serif" font-size="10.00">::Plugins::Materials::IMaterialCreator &gt;</text>
<polyline fill="none" stroke="black" points="68.5,-231.5 274.5,-231.5 "/>
<text text-anchor="start" x="76.5" y="-219.5" font-family="Helvetica,sans-Serif" font-size="10.00"># _creator</text>
<text text-anchor="start" x="76.5" y="-208.5" font-family="Helvetica,sans-Serif" font-size="10.00"># _elements</text>
<text text-anchor="start" x="76.5" y="-197.5" font-family="Helvetica,sans-Serif" font-size="10.00"># _filePath</text>
<text text-anchor="start" x="76.5" y="-186.5" font-family="Helvetica,sans-Serif" font-size="10.00"># _handler</text>
<polyline fill="none" stroke="black" points="68.5,-179.5 274.5,-179.5 "/>
<text text-anchor="start" x="76.5" y="-167.5" font-family="Helvetica,sans-Serif" font-size="10.00">+ PluginHandler()</text>
<text text-anchor="start" x="76.5" y="-156.5" font-family="Helvetica,sans-Serif" font-size="10.00">+ ~PluginHandler()</text>
<text text-anchor="start" x="76.5" y="-145.5" font-family="Helvetica,sans-Serif" font-size="10.00">+ get()</text>
<text text-anchor="start" x="76.5" y="-134.5" font-family="Helvetica,sans-Serif" font-size="10.00"># getResult()</text>
</a>
</g>
</g>
<!-- Node2&#45;&gt;Node1 -->
<g id="edge1" class="edge">
<title>Node2&#45;&gt;Node1</title>
<path fill="none" stroke="#404040" d="M171.5,-127.06C171.5,-115.07 171.5,-102.95 171.5,-91.74"/>
<polygon fill="none" stroke="#404040" points="171.5,-91.53 167.5,-85.53 171.5,-79.53 175.5,-85.53 171.5,-91.53"/>
<text text-anchor="middle" x="196" y="-101" font-family="Helvetica,sans-Serif" font-size="10.00"> &#45;_handler</text>
</g>
<!-- Node3 -->
<g id="node3" class="node">
<title>Node3</title>
<g id="a_node3"><a xlink:href="a01472.html" target="_top" xlink:title="The PluginHandler class.">
<polygon fill="white" stroke="black" points="97,-364.5 97,-476.5 246,-476.5 246,-364.5 97,-364.5"/>
<text text-anchor="start" x="105" y="-464.5" font-family="Helvetica,sans-Serif" font-size="10.00">RayTracer::Plugins</text>
<text text-anchor="start" x="105" y="-453.5" font-family="Helvetica,sans-Serif" font-size="10.00">::PluginHandler&lt; Interface,</text>
<text text-anchor="middle" x="171.5" y="-442.5" font-family="Helvetica,sans-Serif" font-size="10.00"> Creator &gt;</text>
<polyline fill="none" stroke="black" points="97,-435.5 246,-435.5 "/>
<text text-anchor="middle" x="171.5" y="-423.5" font-family="Helvetica,sans-Serif" font-size="10.00"> </text>
<polyline fill="none" stroke="black" points="97,-416.5 246,-416.5 "/>
<text text-anchor="start" x="105" y="-404.5" font-family="Helvetica,sans-Serif" font-size="10.00">+ PluginHandler()</text>
<text text-anchor="start" x="105" y="-393.5" font-family="Helvetica,sans-Serif" font-size="10.00">+ ~PluginHandler()</text>
<text text-anchor="start" x="105" y="-382.5" font-family="Helvetica,sans-Serif" font-size="10.00">+ get()</text>
<text text-anchor="start" x="105" y="-371.5" font-family="Helvetica,sans-Serif" font-size="10.00"># getResult()</text>
</a>
</g>
</g>
<!-- Node3&#45;&gt;Node2 -->
<g id="edge2" class="edge">
<title>Node3&#45;&gt;Node2</title>
<path fill="none" stroke="orange" d="M171.5,-354.36C171.5,-332.1 171.5,-306.99 171.5,-283.86"/>
<polygon fill="orange" stroke="orange" points="168,-354.37 171.5,-364.37 175,-354.37 168,-354.37"/>
<text text-anchor="start" x="171.5" y="-338" font-family="Helvetica,sans-Serif" font-size="10.00"> &lt; RayTracer::Entities</text>
<text text-anchor="start" x="171.5" y="-327" font-family="Helvetica,sans-Serif" font-size="10.00">::IMaterial, RayTracer</text>
<text text-anchor="start" x="171.5" y="-316" font-family="Helvetica,sans-Serif" font-size="10.00">::Plugins::Materials::IMaterial</text>
<text text-anchor="middle" x="243" y="-305" font-family="Helvetica,sans-Serif" font-size="10.00">Creator &gt;</text>
</g>
<!-- Node4 -->
<g id="node4" class="node">
<title>Node4</title>
<g id="a_node4"><a xlink:title=" ">
<polygon fill="white" stroke="#bfbfbf" points="0,-524.5 0,-581.5 61,-581.5 61,-524.5 0,-524.5"/>
<text text-anchor="middle" x="30.5" y="-569.5" font-family="Helvetica,sans-Serif" font-size="10.00">Creator *</text>
<polyline fill="none" stroke="#bfbfbf" points="0,-562.5 61,-562.5 "/>
<text text-anchor="middle" x="30.5" y="-550.5" font-family="Helvetica,sans-Serif" font-size="10.00"> </text>
<polyline fill="none" stroke="#bfbfbf" points="0,-543.5 61,-543.5 "/>
<text text-anchor="middle" x="30.5" y="-531.5" font-family="Helvetica,sans-Serif" font-size="10.00"> </text>
</a>
</g>
</g>
<!-- Node4&#45;&gt;Node3 -->
<g id="edge3" class="edge">
<title>Node4&#45;&gt;Node3</title>
<path fill="none" stroke="#404040" d="M49.49,-524.39C56.79,-514.64 65.53,-503.89 74.5,-495 78.64,-490.89 83.02,-486.82 87.53,-482.81"/>
<polygon fill="none" stroke="#404040" points="87.86,-482.53 89.8,-475.59 96.96,-474.71 95.02,-481.66 87.86,-482.53"/>
<text text-anchor="middle" x="100.5" y="-498" font-family="Helvetica,sans-Serif" font-size="10.00"> #_creator</text>
</g>
<!-- Node5 -->
<g id="node5" class="node">
<title>Node5</title>
<g id="a_node5"><a xlink:title=" ">
<polygon fill="white" stroke="#bfbfbf" points="79,-524.5 79,-581.5 144,-581.5 144,-524.5 79,-524.5"/>
<text text-anchor="middle" x="111.5" y="-569.5" font-family="Helvetica,sans-Serif" font-size="10.00">std::string</text>
<polyline fill="none" stroke="#bfbfbf" points="79,-562.5 144,-562.5 "/>
<text text-anchor="middle" x="111.5" y="-550.5" font-family="Helvetica,sans-Serif" font-size="10.00"> </text>
<polyline fill="none" stroke="#bfbfbf" points="79,-543.5 144,-543.5 "/>
<text text-anchor="middle" x="111.5" y="-531.5" font-family="Helvetica,sans-Serif" font-size="10.00"> </text>
</a>
</g>
</g>
<!-- Node5&#45;&gt;Node3 -->
<g id="edge4" class="edge">
<title>Node5&#45;&gt;Node3</title>
<path fill="none" stroke="#404040" d="M122.78,-524.32C126.7,-514.96 131.19,-504.48 135.5,-495 136.6,-492.58 137.73,-490.13 138.88,-487.65"/>
<polygon fill="none" stroke="#404040" points="138.92,-487.58 137.86,-480.45 144.03,-476.72 145.09,-483.86 138.92,-487.58"/>
<text text-anchor="middle" x="162" y="-498" font-family="Helvetica,sans-Serif" font-size="10.00"> #_filePath</text>
</g>
<!-- Node6 -->
<g id="node6" class="node">
<title>Node6</title>
<g id="a_node6"><a xlink:title=" ">
<polygon fill="white" stroke="#bfbfbf" points="59.5,-629.5 59.5,-697.5 163.5,-697.5 163.5,-629.5 59.5,-629.5"/>
<text text-anchor="start" x="67.5" y="-685.5" font-family="Helvetica,sans-Serif" font-size="10.00">std::basic_string&lt;</text>
<text text-anchor="middle" x="111.5" y="-674.5" font-family="Helvetica,sans-Serif" font-size="10.00"> Char &gt;</text>
<polyline fill="none" stroke="#bfbfbf" points="59.5,-667.5 163.5,-667.5 "/>
<text text-anchor="middle" x="111.5" y="-655.5" font-family="Helvetica,sans-Serif" font-size="10.00"> </text>
<polyline fill="none" stroke="#bfbfbf" points="59.5,-648.5 163.5,-648.5 "/>
<text text-anchor="middle" x="111.5" y="-636.5" font-family="Helvetica,sans-Serif" font-size="10.00"> </text>
</a>
</g>
</g>
<!-- Node6&#45;&gt;Node5 -->
<g id="edge5" class="edge">
<title>Node6&#45;&gt;Node5</title>
<path fill="none" stroke="midnightblue" d="M111.5,-619.06C111.5,-606.51 111.5,-593.15 111.5,-581.83"/>
<polygon fill="none" stroke="midnightblue" points="108,-619.36 111.5,-629.36 115,-619.36 108,-619.36"/>
</g>
<!-- Node7 -->
<g id="node7" class="node">
<title>Node7</title>
<g id="a_node7"><a xlink:title=" ">
<polygon fill="white" stroke="#bfbfbf" points="162,-524.5 162,-581.5 305,-581.5 305,-524.5 162,-524.5"/>
<text text-anchor="middle" x="233.5" y="-569.5" font-family="Helvetica,sans-Serif" font-size="10.00">std::vector&lt; Interface * &gt;</text>
<polyline fill="none" stroke="#bfbfbf" points="162,-562.5 305,-562.5 "/>
<text text-anchor="middle" x="233.5" y="-550.5" font-family="Helvetica,sans-Serif" font-size="10.00"> </text>
<polyline fill="none" stroke="#bfbfbf" points="162,-543.5 305,-543.5 "/>
<text text-anchor="middle" x="233.5" y="-531.5" font-family="Helvetica,sans-Serif" font-size="10.00"> </text>
</a>
</g>
</g>
<!-- Node7&#45;&gt;Node3 -->
<g id="edge6" class="edge">
<title>Node7&#45;&gt;Node3</title>
<path fill="none" stroke="#404040" d="M220.35,-524.32C215.19,-513.45 209.02,-500.47 202.83,-487.45"/>
<polygon fill="none" stroke="#404040" points="202.8,-487.39 196.61,-483.68 197.65,-476.55 203.84,-480.25 202.8,-487.39"/>
<text text-anchor="middle" x="241" y="-498" font-family="Helvetica,sans-Serif" font-size="10.00"> #_elements</text>
</g>
<!-- Node8 -->
<g id="node8" class="node">
<title>Node8</title>
<g id="a_node8"><a xlink:title=" ">
<polygon fill="white" stroke="#bfbfbf" points="190.5,-635 190.5,-692 258.5,-692 258.5,-635 190.5,-635"/>
<text text-anchor="middle" x="224.5" y="-680" font-family="Helvetica,sans-Serif" font-size="10.00">Interface *</text>
<polyline fill="none" stroke="#bfbfbf" points="190.5,-673 258.5,-673 "/>
<text text-anchor="middle" x="224.5" y="-661" font-family="Helvetica,sans-Serif" font-size="10.00"> </text>
<polyline fill="none" stroke="#bfbfbf" points="190.5,-654 258.5,-654 "/>
<text text-anchor="middle" x="224.5" y="-642" font-family="Helvetica,sans-Serif" font-size="10.00"> </text>
</a>
</g>
</g>
<!-- Node8&#45;&gt;Node7 -->
<g id="edge7" class="edge">
<title>Node8&#45;&gt;Node7</title>
<path fill="none" stroke="#404040" d="M226.79,-634.84C227.83,-622.34 229.08,-607.34 230.21,-593.68"/>
<polygon fill="none" stroke="#404040" points="230.22,-593.57 226.73,-587.26 231.21,-581.61 234.7,-587.92 230.22,-593.57"/>
<text text-anchor="middle" x="258.5" y="-603" font-family="Helvetica,sans-Serif" font-size="10.00"> +elements</text>
</g>
<!-- Node9 -->
<g id="node9" class="node">
<title>Node9</title>
<g id="a_node9"><a xlink:title=" ">
<polygon fill="white" stroke="#bfbfbf" points="277,-635 277,-692 374,-692 374,-635 277,-635"/>
<text text-anchor="middle" x="325.5" y="-680" font-family="Helvetica,sans-Serif" font-size="10.00">std::vector&lt; T &gt;</text>
<polyline fill="none" stroke="#bfbfbf" points="277,-673 374,-673 "/>
<text text-anchor="middle" x="325.5" y="-661" font-family="Helvetica,sans-Serif" font-size="10.00"> </text>
<polyline fill="none" stroke="#bfbfbf" points="277,-654 374,-654 "/>
<text text-anchor="middle" x="325.5" y="-642" font-family="Helvetica,sans-Serif" font-size="10.00"> </text>
</a>
</g>
</g>
<!-- Node9&#45;&gt;Node7 -->
<g id="edge8" class="edge">
<title>Node9&#45;&gt;Node7</title>
<path fill="none" stroke="orange" d="M308.7,-625.76C303.8,-616.87 297.99,-607.72 291.5,-600 286.04,-593.51 279.54,-587.31 272.9,-581.68"/>
<polygon fill="orange" stroke="orange" points="305.73,-627.62 313.47,-634.85 311.93,-624.37 305.73,-627.62"/>
<text text-anchor="middle" x="338.5" y="-603" font-family="Helvetica,sans-Serif" font-size="10.00"> &lt; Interface * &gt;</text>
</g>
<!-- Node10 -->
<g id="node10" class="node">
<title>Node10</title>
<g id="a_node10"><a xlink:title=" ">
<polygon fill="white" stroke="#bfbfbf" points="311,-745.5 311,-802.5 340,-802.5 340,-745.5 311,-745.5"/>
<text text-anchor="middle" x="325.5" y="-790.5" font-family="Helvetica,sans-Serif" font-size="10.00">T</text>
<polyline fill="none" stroke="#bfbfbf" points="311,-783.5 340,-783.5 "/>
<text text-anchor="middle" x="325.5" y="-771.5" font-family="Helvetica,sans-Serif" font-size="10.00"> </text>
<polyline fill="none" stroke="#bfbfbf" points="311,-764.5 340,-764.5 "/>
<text text-anchor="middle" x="325.5" y="-752.5" font-family="Helvetica,sans-Serif" font-size="10.00"> </text>
</a>
</g>
</g>
<!-- Node10&#45;&gt;Node9 -->
<g id="edge9" class="edge">
<title>Node10&#45;&gt;Node9</title>
<path fill="none" stroke="#404040" d="M325.5,-745.34C325.5,-732.84 325.5,-717.84 325.5,-704.18"/>
<polygon fill="none" stroke="#404040" points="325.5,-704.11 321.5,-698.11 325.5,-692.11 329.5,-698.11 325.5,-704.11"/>
<text text-anchor="middle" x="354.5" y="-719" font-family="Helvetica,sans-Serif" font-size="10.00"> +elements</text>
</g>
<!-- Node11 -->
<g id="node11" class="node">
<title>Node11</title>
<g id="a_node11"><a xlink:title=" ">
<polygon fill="white" stroke="#bfbfbf" points="323.5,-524.5 323.5,-581.5 369.5,-581.5 369.5,-524.5 323.5,-524.5"/>
<text text-anchor="middle" x="346.5" y="-569.5" font-family="Helvetica,sans-Serif" font-size="10.00">void *</text>
<polyline fill="none" stroke="#bfbfbf" points="323.5,-562.5 369.5,-562.5 "/>
<text text-anchor="middle" x="346.5" y="-550.5" font-family="Helvetica,sans-Serif" font-size="10.00"> </text>
<polyline fill="none" stroke="#bfbfbf" points="323.5,-543.5 369.5,-543.5 "/>
<text text-anchor="middle" x="346.5" y="-531.5" font-family="Helvetica,sans-Serif" font-size="10.00"> </text>
</a>
</g>
</g>
<!-- Node11&#45;&gt;Node3 -->
<g id="edge10" class="edge">
<title>Node11&#45;&gt;Node3</title>
<path fill="none" stroke="#404040" d="M323.24,-531.33C320.32,-528.83 317.36,-526.34 314.5,-524 296.09,-508.95 275.65,-493.57 256.13,-479.46"/>
<polygon fill="none" stroke="#404040" points="256.07,-479.42 248.86,-479.17 246.32,-472.43 253.53,-472.67 256.07,-479.42"/>
<text text-anchor="middle" x="314.5" y="-498" font-family="Helvetica,sans-Serif" font-size="10.00"> #_handler</text>
</g>
</g>
</svg>
