<?xml version="1.0" encoding="UTF-8" standalone="no"?>
<!DOCTYPE svg PUBLIC "-//W3C//DTD SVG 1.1//EN"
 "http://www.w3.org/Graphics/SVG/1.1/DTD/svg11.dtd">
<!-- Generated by graphviz version 2.43.0 (0)
 -->
<!-- Title: RayTracer::Scenes::Scene Pages: 1 -->
<svg width="965pt" height="838pt"
 viewBox="0.00 0.00 964.50 838.00" xmlns="http://www.w3.org/2000/svg" xmlns:xlink="http://www.w3.org/1999/xlink">
<g id="graph0" class="graph" transform="scale(1 1) rotate(0) translate(4 834)">
<title>RayTracer::Scenes::Scene</title>
<polygon fill="white" stroke="transparent" points="-4,4 -4,-834 960.5,-834 960.5,4 -4,4"/>
<!-- Node1 -->
<g id="node1" class="node">
<title>Node1</title>
<g id="a_node1"><a xlink:title="The Scene class.">
<polygon fill="#bfbfbf" stroke="black" points="464.5,-0.5 464.5,-211.5 575.5,-211.5 575.5,-0.5 464.5,-0.5"/>
<text text-anchor="start" x="472.5" y="-199.5" font-family="Helvetica,sans-Serif" font-size="10.00">RayTracer::Scenes::</text>
<text text-anchor="middle" x="520" y="-188.5" font-family="Helvetica,sans-Serif" font-size="10.00">Scene</text>
<polyline fill="none" stroke="black" points="464.5,-181.5 575.5,-181.5 "/>
<text text-anchor="middle" x="520" y="-169.5" font-family="Helvetica,sans-Serif" font-size="10.00"> </text>
<polyline fill="none" stroke="black" points="464.5,-162.5 575.5,-162.5 "/>
<text text-anchor="start" x="472.5" y="-150.5" font-family="Helvetica,sans-Serif" font-size="10.00">+ Scene()</text>
<text text-anchor="start" x="472.5" y="-139.5" font-family="Helvetica,sans-Serif" font-size="10.00">+ ~Scene()</text>
<text text-anchor="start" x="472.5" y="-128.5" font-family="Helvetica,sans-Serif" font-size="10.00">+ operator()()</text>
<text text-anchor="start" x="472.5" y="-117.5" font-family="Helvetica,sans-Serif" font-size="10.00">+ renders()</text>
<text text-anchor="start" x="472.5" y="-106.5" font-family="Helvetica,sans-Serif" font-size="10.00">+ getCameras()</text>
<text text-anchor="start" x="472.5" y="-95.5" font-family="Helvetica,sans-Serif" font-size="10.00">+ getCameras()</text>
<text text-anchor="start" x="472.5" y="-84.5" font-family="Helvetica,sans-Serif" font-size="10.00">+ isReady()</text>
<text text-anchor="start" x="472.5" y="-73.5" font-family="Helvetica,sans-Serif" font-size="10.00">+ cancel()</text>
<text text-anchor="start" x="472.5" y="-62.5" font-family="Helvetica,sans-Serif" font-size="10.00">+ wait_end()</text>
<text text-anchor="start" x="472.5" y="-51.5" font-family="Helvetica,sans-Serif" font-size="10.00">+ getState()</text>
<text text-anchor="start" x="472.5" y="-40.5" font-family="Helvetica,sans-Serif" font-size="10.00">+ getState()</text>
<text text-anchor="start" x="472.5" y="-29.5" font-family="Helvetica,sans-Serif" font-size="10.00">+ getFileBase()</text>
<text text-anchor="start" x="472.5" y="-18.5" font-family="Helvetica,sans-Serif" font-size="10.00">&#45; loadConfig()</text>
<text text-anchor="start" x="472.5" y="-7.5" font-family="Helvetica,sans-Serif" font-size="10.00">&#45; waitTillCancel()</text>
</a>
</g>
</g>
<!-- Node2 -->
<g id="node2" class="node">
<title>Node2</title>
<g id="a_node2"><a xlink:href="a01506.html" target="_top" xlink:title="The Displayable class.">
<polygon fill="white" stroke="black" points="187,-270.5 187,-393.5 303,-393.5 303,-270.5 187,-270.5"/>
<text text-anchor="start" x="195" y="-381.5" font-family="Helvetica,sans-Serif" font-size="10.00">RayTracer::Scenes::</text>
<text text-anchor="middle" x="245" y="-370.5" font-family="Helvetica,sans-Serif" font-size="10.00">Displayable</text>
<polyline fill="none" stroke="black" points="187,-363.5 303,-363.5 "/>
<text text-anchor="middle" x="245" y="-351.5" font-family="Helvetica,sans-Serif" font-size="10.00"> </text>
<polyline fill="none" stroke="black" points="187,-344.5 303,-344.5 "/>
<text text-anchor="start" x="195" y="-332.5" font-family="Helvetica,sans-Serif" font-size="10.00">+ getLightList()</text>
<text text-anchor="start" x="195" y="-321.5" font-family="Helvetica,sans-Serif" font-size="10.00">+ getLightList()</text>
<text text-anchor="start" x="195" y="-310.5" font-family="Helvetica,sans-Serif" font-size="10.00">+ getPrimitiveList()</text>
<text text-anchor="start" x="195" y="-299.5" font-family="Helvetica,sans-Serif" font-size="10.00">+ getPrimitiveList()</text>
<text text-anchor="start" x="195" y="-288.5" font-family="Helvetica,sans-Serif" font-size="10.00">+ getAmbientLight()</text>
<text text-anchor="start" x="195" y="-277.5" font-family="Helvetica,sans-Serif" font-size="10.00">+ getAmbientLight()</text>
</a>
</g>
</g>
<!-- Node2&#45;&gt;Node1 -->
<g id="edge1" class="edge">
<title>Node2&#45;&gt;Node1</title>
<path fill="none" stroke="#404040" d="M299.74,-270.43C303.8,-266.47 307.91,-262.63 312,-259 356.95,-219.08 412.04,-179.17 454.23,-150.28"/>
<polygon fill="none" stroke="#404040" points="454.47,-150.11 457.18,-143.43 464.39,-143.36 461.68,-150.04 454.47,-150.11"/>
<text text-anchor="middle" x="379.5" y="-233" font-family="Helvetica,sans-Serif" font-size="10.00"> &#45;_displayable</text>
</g>
<!-- Node3 -->
<g id="node3" class="node">
<title>Node3</title>
<g id="a_node3"><a xlink:href="a01518.html" target="_top" xlink:title="The IDisplayable interface.">
<polygon fill="white" stroke="black" points="187,-452.5 187,-575.5 303,-575.5 303,-452.5 187,-452.5"/>
<text text-anchor="start" x="195" y="-563.5" font-family="Helvetica,sans-Serif" font-size="10.00">RayTracer::Scenes::</text>
<text text-anchor="middle" x="245" y="-552.5" font-family="Helvetica,sans-Serif" font-size="10.00">IDisplayable</text>
<polyline fill="none" stroke="black" points="187,-545.5 303,-545.5 "/>
<text text-anchor="middle" x="245" y="-533.5" font-family="Helvetica,sans-Serif" font-size="10.00"> </text>
<polyline fill="none" stroke="black" points="187,-526.5 303,-526.5 "/>
<text text-anchor="start" x="195" y="-514.5" font-family="Helvetica,sans-Serif" font-size="10.00">+ getLightList()</text>
<text text-anchor="start" x="195" y="-503.5" font-family="Helvetica,sans-Serif" font-size="10.00">+ getLightList()</text>
<text text-anchor="start" x="195" y="-492.5" font-family="Helvetica,sans-Serif" font-size="10.00">+ getPrimitiveList()</text>
<text text-anchor="start" x="195" y="-481.5" font-family="Helvetica,sans-Serif" font-size="10.00">+ getPrimitiveList()</text>
<text text-anchor="start" x="195" y="-470.5" font-family="Helvetica,sans-Serif" font-size="10.00">+ getAmbientLight()</text>
<text text-anchor="start" x="195" y="-459.5" font-family="Helvetica,sans-Serif" font-size="10.00">+ getAmbientLight()</text>
</a>
</g>
</g>
<!-- Node3&#45;&gt;Node2 -->
<g id="edge2" class="edge">
<title>Node3&#45;&gt;Node2</title>
<path fill="none" stroke="midnightblue" d="M245,-441.97C245,-426.01 245,-409.22 245,-393.73"/>
<polygon fill="none" stroke="midnightblue" points="241.5,-442.31 245,-452.31 248.5,-442.31 241.5,-442.31"/>
</g>
<!-- Node4 -->
<g id="node4" class="node">
<title>Node4</title>
<g id="a_node4"><a xlink:title=" ">
<polygon fill="white" stroke="#bfbfbf" points="321,-474.5 321,-553.5 485,-553.5 485,-474.5 321,-474.5"/>
<text text-anchor="start" x="329" y="-541.5" font-family="Helvetica,sans-Serif" font-size="10.00">std::vector&lt; std::reference</text>
<text text-anchor="start" x="329" y="-530.5" font-family="Helvetica,sans-Serif" font-size="10.00">_wrapper&lt; RayTracer::Entities</text>
<text text-anchor="middle" x="403" y="-519.5" font-family="Helvetica,sans-Serif" font-size="10.00">::IPrimitive &gt; &gt;</text>
<polyline fill="none" stroke="#bfbfbf" points="321,-512.5 485,-512.5 "/>
<text text-anchor="middle" x="403" y="-500.5" font-family="Helvetica,sans-Serif" font-size="10.00"> </text>
<polyline fill="none" stroke="#bfbfbf" points="321,-493.5 485,-493.5 "/>
<text text-anchor="middle" x="403" y="-481.5" font-family="Helvetica,sans-Serif" font-size="10.00"> </text>
</a>
</g>
</g>
<!-- Node4&#45;&gt;Node2 -->
<g id="edge3" class="edge">
<title>Node4&#45;&gt;Node2</title>
<path fill="none" stroke="#404040" d="M369.11,-474.39C350.77,-453.5 327.57,-427.06 306.2,-402.72"/>
<polygon fill="none" stroke="#404040" points="306.03,-402.52 299.06,-400.65 298.11,-393.5 305.07,-395.38 306.03,-402.52"/>
<text text-anchor="middle" x="365" y="-426" font-family="Helvetica,sans-Serif" font-size="10.00"> &#45;_primitives</text>
</g>
<!-- Node5 -->
<g id="node5" class="node">
<title>Node5</title>
<g id="a_node5"><a xlink:title=" ">
<polygon fill="white" stroke="#bfbfbf" points="134,-645.5 134,-724.5 250,-724.5 250,-645.5 134,-645.5"/>
<text text-anchor="start" x="142" y="-712.5" font-family="Helvetica,sans-Serif" font-size="10.00">reference_wrapper&lt;</text>
<text text-anchor="start" x="142" y="-701.5" font-family="Helvetica,sans-Serif" font-size="10.00"> RayTracer::Entities</text>
<text text-anchor="middle" x="192" y="-690.5" font-family="Helvetica,sans-Serif" font-size="10.00">::IPrimitive &gt;</text>
<polyline fill="none" stroke="#bfbfbf" points="134,-683.5 250,-683.5 "/>
<text text-anchor="middle" x="192" y="-671.5" font-family="Helvetica,sans-Serif" font-size="10.00"> </text>
<polyline fill="none" stroke="#bfbfbf" points="134,-664.5 250,-664.5 "/>
<text text-anchor="middle" x="192" y="-652.5" font-family="Helvetica,sans-Serif" font-size="10.00"> </text>
</a>
</g>
</g>
<!-- Node5&#45;&gt;Node4 -->
<g id="edge4" class="edge">
<title>Node5&#45;&gt;Node4</title>
<path fill="none" stroke="#404040" d="M181.95,-645.41C179.76,-627.78 181,-607.79 193,-594 210.55,-573.82 287.07,-585.68 312,-576 322.66,-571.86 333.33,-566.3 343.42,-560.22"/>
<polygon fill="none" stroke="#404040" points="343.55,-560.14 346.49,-553.55 353.7,-553.73 350.76,-560.31 343.55,-560.14"/>
<text text-anchor="middle" x="222" y="-608" font-family="Helvetica,sans-Serif" font-size="10.00"> +elements</text>
</g>
<!-- Node6 -->
<g id="node6" class="node">
<title>Node6</title>
<g id="a_node6"><a xlink:title=" ">
<polygon fill="white" stroke="#bfbfbf" points="374.5,-656.5 374.5,-713.5 471.5,-713.5 471.5,-656.5 374.5,-656.5"/>
<text text-anchor="middle" x="423" y="-701.5" font-family="Helvetica,sans-Serif" font-size="10.00">std::vector&lt; T &gt;</text>
<polyline fill="none" stroke="#bfbfbf" points="374.5,-694.5 471.5,-694.5 "/>
<text text-anchor="middle" x="423" y="-682.5" font-family="Helvetica,sans-Serif" font-size="10.00"> </text>
<polyline fill="none" stroke="#bfbfbf" points="374.5,-675.5 471.5,-675.5 "/>
<text text-anchor="middle" x="423" y="-663.5" font-family="Helvetica,sans-Serif" font-size="10.00"> </text>
</a>
</g>
</g>
<!-- Node6&#45;&gt;Node4 -->
<g id="edge5" class="edge">
<title>Node6&#45;&gt;Node4</title>
<path fill="none" stroke="orange" d="M418.55,-646.41C415.28,-618.79 410.86,-581.4 407.56,-553.56"/>
<polygon fill="orange" stroke="orange" points="415.09,-646.95 419.74,-656.47 422.04,-646.13 415.09,-646.95"/>
<text text-anchor="start" x="416" y="-619" font-family="Helvetica,sans-Serif" font-size="10.00"> &lt; std::reference_wrapper</text>
<text text-anchor="start" x="416" y="-608" font-family="Helvetica,sans-Serif" font-size="10.00">&lt; RayTracer::Entities::</text>
<text text-anchor="middle" x="479.5" y="-597" font-family="Helvetica,sans-Serif" font-size="10.00">IPrimitive &gt; &gt;</text>
</g>
<!-- Node8 -->
<g id="node8" class="node">
<title>Node8</title>
<g id="a_node8"><a xlink:title=" ">
<polygon fill="white" stroke="#bfbfbf" points="5,-474.5 5,-553.5 169,-553.5 169,-474.5 5,-474.5"/>
<text text-anchor="start" x="13" y="-541.5" font-family="Helvetica,sans-Serif" font-size="10.00">std::vector&lt; std::reference</text>
<text text-anchor="start" x="13" y="-530.5" font-family="Helvetica,sans-Serif" font-size="10.00">_wrapper&lt; RayTracer::Entities</text>
<text text-anchor="middle" x="87" y="-519.5" font-family="Helvetica,sans-Serif" font-size="10.00">::ILight &gt; &gt;</text>
<polyline fill="none" stroke="#bfbfbf" points="5,-512.5 169,-512.5 "/>
<text text-anchor="middle" x="87" y="-500.5" font-family="Helvetica,sans-Serif" font-size="10.00"> </text>
<polyline fill="none" stroke="#bfbfbf" points="5,-493.5 169,-493.5 "/>
<text text-anchor="middle" x="87" y="-481.5" font-family="Helvetica,sans-Serif" font-size="10.00"> </text>
</a>
</g>
</g>
<!-- Node6&#45;&gt;Node8 -->
<g id="edge9" class="edge">
<title>Node6&#45;&gt;Node8</title>
<path fill="none" stroke="orange" d="M364.83,-666.87C338.23,-657.48 307.13,-644.21 282,-627 265.4,-615.63 268.37,-604.16 251,-594 222.15,-577.13 208.56,-589.51 178,-576 164.43,-570 150.68,-562 138.12,-553.76"/>
<polygon fill="orange" stroke="orange" points="363.81,-670.22 374.41,-670.15 366.08,-663.6 363.81,-670.22"/>
<text text-anchor="start" x="282" y="-619" font-family="Helvetica,sans-Serif" font-size="10.00"> &lt; std::reference_wrapper</text>
<text text-anchor="start" x="282" y="-608" font-family="Helvetica,sans-Serif" font-size="10.00">&lt; RayTracer::Entities::</text>
<text text-anchor="middle" x="345.5" y="-597" font-family="Helvetica,sans-Serif" font-size="10.00">ILight &gt; &gt;</text>
</g>
<!-- Node16 -->
<g id="node16" class="node">
<title>Node16</title>
<g id="a_node16"><a xlink:title=" ">
<polygon fill="white" stroke="#bfbfbf" points="511,-474.5 511,-553.5 675,-553.5 675,-474.5 511,-474.5"/>
<text text-anchor="start" x="519" y="-541.5" font-family="Helvetica,sans-Serif" font-size="10.00">std::vector&lt; std::reference</text>
<text text-anchor="start" x="519" y="-530.5" font-family="Helvetica,sans-Serif" font-size="10.00">_wrapper&lt; RayTracer::Entities</text>
<text text-anchor="middle" x="593" y="-519.5" font-family="Helvetica,sans-Serif" font-size="10.00">::ICamera &gt; &gt;</text>
<polyline fill="none" stroke="#bfbfbf" points="511,-512.5 675,-512.5 "/>
<text text-anchor="middle" x="593" y="-500.5" font-family="Helvetica,sans-Serif" font-size="10.00"> </text>
<polyline fill="none" stroke="#bfbfbf" points="511,-493.5 675,-493.5 "/>
<text text-anchor="middle" x="593" y="-481.5" font-family="Helvetica,sans-Serif" font-size="10.00"> </text>
</a>
</g>
</g>
<!-- Node6&#45;&gt;Node16 -->
<g id="edge18" class="edge">
<title>Node6&#45;&gt;Node16</title>
<path fill="none" stroke="orange" d="M481.33,-667.51C504.21,-658.61 529.2,-645.55 547,-627 566.36,-606.83 578.02,-577.39 584.75,-553.75"/>
<polygon fill="orange" stroke="orange" points="479.85,-664.33 471.68,-671.07 482.27,-670.89 479.85,-664.33"/>
<text text-anchor="start" x="570" y="-619" font-family="Helvetica,sans-Serif" font-size="10.00"> &lt; std::reference_wrapper</text>
<text text-anchor="start" x="570" y="-608" font-family="Helvetica,sans-Serif" font-size="10.00">&lt; RayTracer::Entities::</text>
<text text-anchor="middle" x="633.5" y="-597" font-family="Helvetica,sans-Serif" font-size="10.00">ICamera &gt; &gt;</text>
</g>
<!-- Node7 -->
<g id="node7" class="node">
<title>Node7</title>
<g id="a_node7"><a xlink:title=" ">
<polygon fill="white" stroke="#bfbfbf" points="408.5,-772.5 408.5,-829.5 437.5,-829.5 437.5,-772.5 408.5,-772.5"/>
<text text-anchor="middle" x="423" y="-817.5" font-family="Helvetica,sans-Serif" font-size="10.00">T</text>
<polyline fill="none" stroke="#bfbfbf" points="408.5,-810.5 437.5,-810.5 "/>
<text text-anchor="middle" x="423" y="-798.5" font-family="Helvetica,sans-Serif" font-size="10.00"> </text>
<polyline fill="none" stroke="#bfbfbf" points="408.5,-791.5 437.5,-791.5 "/>
<text text-anchor="middle" x="423" y="-779.5" font-family="Helvetica,sans-Serif" font-size="10.00"> </text>
</a>
</g>
</g>
<!-- Node7&#45;&gt;Node6 -->
<g id="edge6" class="edge">
<title>Node7&#45;&gt;Node6</title>
<path fill="none" stroke="#404040" d="M423,-772.4C423,-758.5 423,-741.39 423,-726.07"/>
<polygon fill="none" stroke="#404040" points="423,-725.74 419,-719.74 423,-713.74 427,-719.74 423,-725.74"/>
<text text-anchor="middle" x="452" y="-746" font-family="Helvetica,sans-Serif" font-size="10.00"> +elements</text>
</g>
<!-- Node8&#45;&gt;Node2 -->
<g id="edge7" class="edge">
<title>Node8&#45;&gt;Node2</title>
<path fill="none" stroke="#404040" d="M120.89,-474.39C139.23,-453.5 162.43,-427.06 183.8,-402.72"/>
<polygon fill="none" stroke="#404040" points="183.97,-402.52 184.93,-395.38 191.89,-393.5 190.94,-400.65 183.97,-402.52"/>
<text text-anchor="middle" x="186" y="-426" font-family="Helvetica,sans-Serif" font-size="10.00"> &#45;_lights</text>
</g>
<!-- Node9 -->
<g id="node9" class="node">
<title>Node9</title>
<g id="a_node9"><a xlink:title=" ">
<polygon fill="white" stroke="#bfbfbf" points="0,-645.5 0,-724.5 116,-724.5 116,-645.5 0,-645.5"/>
<text text-anchor="start" x="8" y="-712.5" font-family="Helvetica,sans-Serif" font-size="10.00">reference_wrapper&lt;</text>
<text text-anchor="start" x="8" y="-701.5" font-family="Helvetica,sans-Serif" font-size="10.00"> RayTracer::Entities</text>
<text text-anchor="middle" x="58" y="-690.5" font-family="Helvetica,sans-Serif" font-size="10.00">::ILight &gt;</text>
<polyline fill="none" stroke="#bfbfbf" points="0,-683.5 116,-683.5 "/>
<text text-anchor="middle" x="58" y="-671.5" font-family="Helvetica,sans-Serif" font-size="10.00"> </text>
<polyline fill="none" stroke="#bfbfbf" points="0,-664.5 116,-664.5 "/>
<text text-anchor="middle" x="58" y="-652.5" font-family="Helvetica,sans-Serif" font-size="10.00"> </text>
</a>
</g>
</g>
<!-- Node9&#45;&gt;Node8 -->
<g id="edge8" class="edge">
<title>Node9&#45;&gt;Node8</title>
<path fill="none" stroke="#404040" d="M64.65,-645.23C68.71,-621.61 73.93,-591.18 78.31,-565.67"/>
<polygon fill="none" stroke="#404040" points="78.35,-565.42 75.42,-558.83 80.38,-553.59 83.31,-560.18 78.35,-565.42"/>
<text text-anchor="middle" x="103" y="-608" font-family="Helvetica,sans-Serif" font-size="10.00"> +elements</text>
</g>
<!-- Node10 -->
<g id="node10" class="node">
<title>Node10</title>
<g id="a_node10"><a xlink:href="a01378.html" target="_top" xlink:title="Logger singleton.">
<polygon fill="white" stroke="black" points="321,-259.5 321,-404.5 457,-404.5 457,-259.5 321,-259.5"/>
<text text-anchor="middle" x="389" y="-392.5" font-family="Helvetica,sans-Serif" font-size="10.00">RayTracer::ILogger</text>
<polyline fill="none" stroke="black" points="321,-385.5 457,-385.5 "/>
<text text-anchor="middle" x="389" y="-373.5" font-family="Helvetica,sans-Serif" font-size="10.00"> </text>
<polyline fill="none" stroke="black" points="321,-366.5 457,-366.5 "/>
<text text-anchor="start" x="329" y="-354.5" font-family="Helvetica,sans-Serif" font-size="10.00">+ ~ILogger()</text>
<text text-anchor="start" x="329" y="-343.5" font-family="Helvetica,sans-Serif" font-size="10.00">+ fatal()</text>
<text text-anchor="start" x="329" y="-332.5" font-family="Helvetica,sans-Serif" font-size="10.00">+ error()</text>
<text text-anchor="start" x="329" y="-321.5" font-family="Helvetica,sans-Serif" font-size="10.00">+ warn()</text>
<text text-anchor="start" x="329" y="-310.5" font-family="Helvetica,sans-Serif" font-size="10.00">+ info()</text>
<text text-anchor="start" x="329" y="-299.5" font-family="Helvetica,sans-Serif" font-size="10.00">+ debug()</text>
<text text-anchor="start" x="329" y="-288.5" font-family="Helvetica,sans-Serif" font-size="10.00">+ trace()</text>
<text text-anchor="start" x="329" y="-277.5" font-family="Helvetica,sans-Serif" font-size="10.00">+ subscribeCallback()</text>
<text text-anchor="start" x="329" y="-266.5" font-family="Helvetica,sans-Serif" font-size="10.00">+ unsubscribeCallback()</text>
</a>
</g>
</g>
<!-- Node10&#45;&gt;Node1 -->
<g id="edge10" class="edge">
<title>Node10&#45;&gt;Node1</title>
<path fill="none" stroke="#404040" d="M430.99,-259.2C439.71,-244.29 449.07,-228.29 458.32,-212.47"/>
<polygon fill="none" stroke="#404040" points="458.32,-212.46 457.9,-205.26 464.38,-202.1 464.81,-209.3 458.32,-212.46"/>
<text text-anchor="middle" x="468.5" y="-233" font-family="Helvetica,sans-Serif" font-size="10.00"> &#45;_logger</text>
</g>
<!-- Node11 -->
<g id="node11" class="node">
<title>Node11</title>
<g id="a_node11"><a xlink:title=" ">
<polygon fill="white" stroke="#bfbfbf" points="475.5,-303.5 475.5,-360.5 564.5,-360.5 564.5,-303.5 475.5,-303.5"/>
<text text-anchor="middle" x="520" y="-348.5" font-family="Helvetica,sans-Serif" font-size="10.00">future&lt; void &gt;</text>
<polyline fill="none" stroke="#bfbfbf" points="475.5,-341.5 564.5,-341.5 "/>
<text text-anchor="middle" x="520" y="-329.5" font-family="Helvetica,sans-Serif" font-size="10.00"> </text>
<polyline fill="none" stroke="#bfbfbf" points="475.5,-322.5 564.5,-322.5 "/>
<text text-anchor="middle" x="520" y="-310.5" font-family="Helvetica,sans-Serif" font-size="10.00"> </text>
</a>
</g>
</g>
<!-- Node11&#45;&gt;Node1 -->
<g id="edge11" class="edge">
<title>Node11&#45;&gt;Node1</title>
<path fill="none" stroke="#404040" d="M520,-303.08C520,-282.67 520,-253.49 520,-223.84"/>
<polygon fill="none" stroke="#404040" points="520,-223.59 516,-217.59 520,-211.59 524,-217.59 520,-223.59"/>
<text text-anchor="middle" x="541" y="-233" font-family="Helvetica,sans-Serif" font-size="10.00"> &#45;_future</text>
</g>
<!-- Node12 -->
<g id="node12" class="node">
<title>Node12</title>
<g id="a_node12"><a xlink:href="a01554.html" target="_top" xlink:title="The SceneState class.">
<polygon fill="white" stroke="black" points="747.5,-287 747.5,-377 858.5,-377 858.5,-287 747.5,-287"/>
<text text-anchor="start" x="755.5" y="-365" font-family="Helvetica,sans-Serif" font-size="10.00">RayTracer::Scenes::</text>
<text text-anchor="middle" x="803" y="-354" font-family="Helvetica,sans-Serif" font-size="10.00">SceneState</text>
<polyline fill="none" stroke="black" points="747.5,-347 858.5,-347 "/>
<text text-anchor="middle" x="803" y="-335" font-family="Helvetica,sans-Serif" font-size="10.00"> </text>
<polyline fill="none" stroke="black" points="747.5,-328 858.5,-328 "/>
<text text-anchor="start" x="755.5" y="-316" font-family="Helvetica,sans-Serif" font-size="10.00">+ SceneState()</text>
<text text-anchor="start" x="755.5" y="-305" font-family="Helvetica,sans-Serif" font-size="10.00">+ getState()</text>
<text text-anchor="start" x="755.5" y="-294" font-family="Helvetica,sans-Serif" font-size="10.00">+ changeState()</text>
</a>
</g>
</g>
<!-- Node12&#45;&gt;Node1 -->
<g id="edge12" class="edge">
<title>Node12&#45;&gt;Node1</title>
<path fill="none" stroke="#404040" d="M747.43,-287.01C700.95,-250.22 634.56,-197.67 585.5,-158.84"/>
<polygon fill="none" stroke="#404040" points="585.34,-158.72 578.15,-158.13 575.93,-151.27 583.12,-151.86 585.34,-158.72"/>
<text text-anchor="middle" x="705.5" y="-233" font-family="Helvetica,sans-Serif" font-size="10.00"> &#45;_state</text>
</g>
<!-- Node13 -->
<g id="node13" class="node">
<title>Node13</title>
<g id="a_node13"><a xlink:href="a01526.html" target="_top" xlink:title="The SceneState interface.">
<polygon fill="white" stroke="black" points="693.5,-474.5 693.5,-553.5 804.5,-553.5 804.5,-474.5 693.5,-474.5"/>
<text text-anchor="start" x="701.5" y="-541.5" font-family="Helvetica,sans-Serif" font-size="10.00">RayTracer::Scenes::</text>
<text text-anchor="middle" x="749" y="-530.5" font-family="Helvetica,sans-Serif" font-size="10.00">ISceneState</text>
<polyline fill="none" stroke="black" points="693.5,-523.5 804.5,-523.5 "/>
<text text-anchor="middle" x="749" y="-511.5" font-family="Helvetica,sans-Serif" font-size="10.00"> </text>
<polyline fill="none" stroke="black" points="693.5,-504.5 804.5,-504.5 "/>
<text text-anchor="start" x="701.5" y="-492.5" font-family="Helvetica,sans-Serif" font-size="10.00">+ getState()</text>
<text text-anchor="start" x="701.5" y="-481.5" font-family="Helvetica,sans-Serif" font-size="10.00">+ changeState()</text>
</a>
</g>
</g>
<!-- Node13&#45;&gt;Node12 -->
<g id="edge13" class="edge">
<title>Node13&#45;&gt;Node12</title>
<path fill="none" stroke="midnightblue" d="M763.49,-464.68C771.66,-437.48 781.77,-403.76 789.72,-377.25"/>
<polygon fill="none" stroke="midnightblue" points="760.11,-463.8 760.58,-474.39 766.81,-465.81 760.11,-463.8"/>
</g>
<!-- Node14 -->
<g id="node14" class="node">
<title>Node14</title>
<g id="a_node14"><a xlink:title=" ">
<polygon fill="white" stroke="#bfbfbf" points="822.5,-485.5 822.5,-542.5 891.5,-542.5 891.5,-485.5 822.5,-485.5"/>
<text text-anchor="middle" x="857" y="-530.5" font-family="Helvetica,sans-Serif" font-size="10.00">std::mutex</text>
<polyline fill="none" stroke="#bfbfbf" points="822.5,-523.5 891.5,-523.5 "/>
<text text-anchor="middle" x="857" y="-511.5" font-family="Helvetica,sans-Serif" font-size="10.00"> </text>
<polyline fill="none" stroke="#bfbfbf" points="822.5,-504.5 891.5,-504.5 "/>
<text text-anchor="middle" x="857" y="-492.5" font-family="Helvetica,sans-Serif" font-size="10.00"> </text>
</a>
</g>
</g>
<!-- Node14&#45;&gt;Node12 -->
<g id="edge14" class="edge">
<title>Node14&#45;&gt;Node12</title>
<path fill="none" stroke="#404040" d="M848.68,-485.27C841.02,-459.74 829.43,-421.09 819.83,-389.12"/>
<polygon fill="none" stroke="#404040" points="819.72,-388.72 814.16,-384.13 816.27,-377.23 821.82,-381.83 819.72,-388.72"/>
<text text-anchor="middle" x="853.5" y="-426" font-family="Helvetica,sans-Serif" font-size="10.00"> &#45;mutex</text>
</g>
<!-- Node15 -->
<g id="node15" class="node">
<title>Node15</title>
<g id="a_node15"><a xlink:title=" ">
<polygon fill="white" stroke="#bfbfbf" points="909.5,-485.5 909.5,-542.5 956.5,-542.5 956.5,-485.5 909.5,-485.5"/>
<text text-anchor="middle" x="933" y="-530.5" font-family="Helvetica,sans-Serif" font-size="10.00">States</text>
<polyline fill="none" stroke="#bfbfbf" points="909.5,-523.5 956.5,-523.5 "/>
<text text-anchor="middle" x="933" y="-511.5" font-family="Helvetica,sans-Serif" font-size="10.00"> </text>
<polyline fill="none" stroke="#bfbfbf" points="909.5,-504.5 956.5,-504.5 "/>
<text text-anchor="middle" x="933" y="-492.5" font-family="Helvetica,sans-Serif" font-size="10.00"> </text>
</a>
</g>
</g>
<!-- Node15&#45;&gt;Node12 -->
<g id="edge15" class="edge">
<title>Node15&#45;&gt;Node12</title>
<path fill="none" stroke="#404040" d="M919.37,-485.38C913.76,-474.71 906.96,-462.55 900,-452 885.17,-429.53 866.95,-406.27 850.31,-386.33"/>
<polygon fill="none" stroke="#404040" points="850.29,-386.3 843.36,-384.29 842.55,-377.13 849.47,-379.14 850.29,-386.3"/>
<text text-anchor="middle" x="904.5" y="-426" font-family="Helvetica,sans-Serif" font-size="10.00"> &#45;_state</text>
</g>
<!-- Node16&#45;&gt;Node1 -->
<g id="edge16" class="edge">
<title>Node16&#45;&gt;Node1</title>
<path fill="none" stroke="#404040" d="M594.17,-474.05C594.76,-418.59 591.81,-314.23 566,-230 565.31,-227.75 564.6,-225.49 563.88,-223.21"/>
<polygon fill="none" stroke="#404040" points="563.85,-223.13 558.19,-218.66 560.13,-211.72 565.79,-216.18 563.85,-223.13"/>
<text text-anchor="middle" x="620.5" y="-329.5" font-family="Helvetica,sans-Serif" font-size="10.00"> &#45;_cameras</text>
</g>
<!-- Node17 -->
<g id="node17" class="node">
<title>Node17</title>
<g id="a_node17"><a xlink:title=" ">
<polygon fill="white" stroke="#bfbfbf" points="665,-645.5 665,-724.5 781,-724.5 781,-645.5 665,-645.5"/>
<text text-anchor="start" x="673" y="-712.5" font-family="Helvetica,sans-Serif" font-size="10.00">reference_wrapper&lt;</text>
<text text-anchor="start" x="673" y="-701.5" font-family="Helvetica,sans-Serif" font-size="10.00"> RayTracer::Entities</text>
<text text-anchor="middle" x="723" y="-690.5" font-family="Helvetica,sans-Serif" font-size="10.00">::ICamera &gt;</text>
<polyline fill="none" stroke="#bfbfbf" points="665,-683.5 781,-683.5 "/>
<text text-anchor="middle" x="723" y="-671.5" font-family="Helvetica,sans-Serif" font-size="10.00"> </text>
<polyline fill="none" stroke="#bfbfbf" points="665,-664.5 781,-664.5 "/>
<text text-anchor="middle" x="723" y="-652.5" font-family="Helvetica,sans-Serif" font-size="10.00"> </text>
</a>
</g>
</g>
<!-- Node17&#45;&gt;Node16 -->
<g id="edge17" class="edge">
<title>Node17&#45;&gt;Node16</title>
<path fill="none" stroke="#404040" d="M719.53,-645.27C716.58,-628.41 711.1,-609.11 701,-594 695.22,-585.36 680.3,-573.12 663.33,-560.84"/>
<polygon fill="none" stroke="#404040" points="662.94,-560.57 655.73,-560.37 653.15,-553.63 660.36,-553.84 662.94,-560.57"/>
<text text-anchor="middle" x="745" y="-608" font-family="Helvetica,sans-Serif" font-size="10.00"> +elements</text>
</g>
</g>
</svg>
