<?xml version="1.0" encoding="UTF-8" standalone="no"?>
<!DOCTYPE svg PUBLIC "-//W3C//DTD SVG 1.1//EN"
 "http://www.w3.org/Graphics/SVG/1.1/DTD/svg11.dtd">
<!-- Generated by graphviz version 2.43.0 (0)
 -->
<!-- Title: RayTracer::PluginsExt::Camera::CameraEntity Pages: 1 -->
<svg width="1039pt" height="1212pt"
 viewBox="0.00 0.00 1038.50 1212.00" xmlns="http://www.w3.org/2000/svg" xmlns:xlink="http://www.w3.org/1999/xlink">
<g id="graph0" class="graph" transform="scale(1 1) rotate(0) translate(4 1208)">
<title>RayTracer::PluginsExt::Camera::CameraEntity</title>
<polygon fill="white" stroke="transparent" points="-4,4 -4,-1208 1034.5,-1208 1034.5,4 -4,4"/>
<!-- Node1 -->
<g id="node1" class="node">
<title>Node1</title>
<g id="a_node1"><a xlink:title=" ">
<polygon fill="#bfbfbf" stroke="black" points="364.5,-0.5 364.5,-211.5 498.5,-211.5 498.5,-0.5 364.5,-0.5"/>
<text text-anchor="start" x="372.5" y="-199.5" font-family="Helvetica,sans-Serif" font-size="10.00">RayTracer::PluginsExt</text>
<text text-anchor="middle" x="431.5" y="-188.5" font-family="Helvetica,sans-Serif" font-size="10.00">::Camera::CameraEntity</text>
<polyline fill="none" stroke="black" points="364.5,-181.5 498.5,-181.5 "/>
<text text-anchor="middle" x="431.5" y="-169.5" font-family="Helvetica,sans-Serif" font-size="10.00"> </text>
<polyline fill="none" stroke="black" points="364.5,-162.5 498.5,-162.5 "/>
<text text-anchor="start" x="372.5" y="-150.5" font-family="Helvetica,sans-Serif" font-size="10.00">+ CameraEntity()</text>
<text text-anchor="start" x="372.5" y="-139.5" font-family="Helvetica,sans-Serif" font-size="10.00">+ ~CameraEntity()</text>
<text text-anchor="start" x="372.5" y="-128.5" font-family="Helvetica,sans-Serif" font-size="10.00">+ getType()</text>
<text text-anchor="start" x="372.5" y="-117.5" font-family="Helvetica,sans-Serif" font-size="10.00">+ getTransform()</text>
<text text-anchor="start" x="372.5" y="-106.5" font-family="Helvetica,sans-Serif" font-size="10.00">+ getTransform()</text>
<text text-anchor="start" x="372.5" y="-95.5" font-family="Helvetica,sans-Serif" font-size="10.00">+ getFocal()</text>
<text text-anchor="start" x="372.5" y="-84.5" font-family="Helvetica,sans-Serif" font-size="10.00">+ setFocal()</text>
<text text-anchor="start" x="372.5" y="-73.5" font-family="Helvetica,sans-Serif" font-size="10.00">+ setSize()</text>
<text text-anchor="start" x="372.5" y="-62.5" font-family="Helvetica,sans-Serif" font-size="10.00">+ getSize()</text>
<text text-anchor="start" x="372.5" y="-51.5" font-family="Helvetica,sans-Serif" font-size="10.00">+ render()</text>
<text text-anchor="start" x="372.5" y="-40.5" font-family="Helvetica,sans-Serif" font-size="10.00">+ getImage()</text>
<text text-anchor="start" x="372.5" y="-29.5" font-family="Helvetica,sans-Serif" font-size="10.00">+ getFilters()</text>
<text text-anchor="start" x="372.5" y="-18.5" font-family="Helvetica,sans-Serif" font-size="10.00">+ getCluster()</text>
<text text-anchor="start" x="372.5" y="-7.5" font-family="Helvetica,sans-Serif" font-size="10.00">+ setCluster()</text>
</a>
</g>
</g>
<!-- Node2 -->
<g id="node2" class="node">
<title>Node2</title>
<g id="a_node2"><a xlink:href="a01269.html" target="_top" xlink:title="The ICamera class.">
<polygon fill="white" stroke="black" points="4,-259.5 4,-426.5 111,-426.5 111,-259.5 4,-259.5"/>
<text text-anchor="start" x="12" y="-414.5" font-family="Helvetica,sans-Serif" font-size="10.00">RayTracer::Entities</text>
<text text-anchor="middle" x="57.5" y="-403.5" font-family="Helvetica,sans-Serif" font-size="10.00">::ICamera</text>
<polyline fill="none" stroke="black" points="4,-396.5 111,-396.5 "/>
<text text-anchor="middle" x="57.5" y="-384.5" font-family="Helvetica,sans-Serif" font-size="10.00"> </text>
<polyline fill="none" stroke="black" points="4,-377.5 111,-377.5 "/>
<text text-anchor="start" x="12" y="-365.5" font-family="Helvetica,sans-Serif" font-size="10.00">+ ~ICamera()</text>
<text text-anchor="start" x="12" y="-354.5" font-family="Helvetica,sans-Serif" font-size="10.00">+ getFocal()</text>
<text text-anchor="start" x="12" y="-343.5" font-family="Helvetica,sans-Serif" font-size="10.00">+ setFocal()</text>
<text text-anchor="start" x="12" y="-332.5" font-family="Helvetica,sans-Serif" font-size="10.00">+ setSize()</text>
<text text-anchor="start" x="12" y="-321.5" font-family="Helvetica,sans-Serif" font-size="10.00">+ getSize()</text>
<text text-anchor="start" x="12" y="-310.5" font-family="Helvetica,sans-Serif" font-size="10.00">+ render()</text>
<text text-anchor="start" x="12" y="-299.5" font-family="Helvetica,sans-Serif" font-size="10.00">+ getImage()</text>
<text text-anchor="start" x="12" y="-288.5" font-family="Helvetica,sans-Serif" font-size="10.00">+ getFilters()</text>
<text text-anchor="start" x="12" y="-277.5" font-family="Helvetica,sans-Serif" font-size="10.00">+ setCluster()</text>
<text text-anchor="start" x="12" y="-266.5" font-family="Helvetica,sans-Serif" font-size="10.00">+ getCluster()</text>
</a>
</g>
</g>
<!-- Node2&#45;&gt;Node1 -->
<g id="edge1" class="edge">
<title>Node2&#45;&gt;Node1</title>
<path fill="none" stroke="midnightblue" d="M108.32,-251.47C114.83,-243.64 121.9,-236.31 129.5,-230 198.85,-172.4 298.79,-138.86 364.42,-121.74"/>
<polygon fill="none" stroke="midnightblue" points="105.47,-249.43 102.01,-259.45 110.96,-253.78 105.47,-249.43"/>
</g>
<!-- Node3 -->
<g id="node3" class="node">
<title>Node3</title>
<g id="a_node3"><a xlink:href="a01273.html" target="_top" xlink:title="The IEntity class.">
<polygon fill="white" stroke="black" points="0,-518.5 0,-619.5 107,-619.5 107,-518.5 0,-518.5"/>
<text text-anchor="start" x="8" y="-607.5" font-family="Helvetica,sans-Serif" font-size="10.00">RayTracer::Entities</text>
<text text-anchor="middle" x="53.5" y="-596.5" font-family="Helvetica,sans-Serif" font-size="10.00">::IEntity</text>
<polyline fill="none" stroke="black" points="0,-589.5 107,-589.5 "/>
<text text-anchor="middle" x="53.5" y="-577.5" font-family="Helvetica,sans-Serif" font-size="10.00"> </text>
<polyline fill="none" stroke="black" points="0,-570.5 107,-570.5 "/>
<text text-anchor="start" x="8" y="-558.5" font-family="Helvetica,sans-Serif" font-size="10.00">+ ~IEntity()</text>
<text text-anchor="start" x="8" y="-547.5" font-family="Helvetica,sans-Serif" font-size="10.00">+ getTransform()</text>
<text text-anchor="start" x="8" y="-536.5" font-family="Helvetica,sans-Serif" font-size="10.00">+ getTransform()</text>
<text text-anchor="start" x="8" y="-525.5" font-family="Helvetica,sans-Serif" font-size="10.00">+ getType()</text>
</a>
</g>
</g>
<!-- Node3&#45;&gt;Node2 -->
<g id="edge2" class="edge">
<title>Node3&#45;&gt;Node2</title>
<path fill="none" stroke="midnightblue" d="M54.57,-508.21C55.01,-483.16 55.54,-453.63 56.03,-426.57"/>
<polygon fill="none" stroke="midnightblue" points="51.07,-508.23 54.39,-518.29 58.07,-508.35 51.07,-508.23"/>
</g>
<!-- Node4 -->
<g id="node4" class="node">
<title>Node4</title>
<g id="a_node4"><a xlink:href="a01293.html" target="_top" xlink:title="The Transform class.">
<polygon fill="white" stroke="black" points="236.5,-496.5 236.5,-641.5 362.5,-641.5 362.5,-496.5 236.5,-496.5"/>
<text text-anchor="start" x="244.5" y="-629.5" font-family="Helvetica,sans-Serif" font-size="10.00">RayTracer::Entities</text>
<text text-anchor="middle" x="299.5" y="-618.5" font-family="Helvetica,sans-Serif" font-size="10.00">::Transform::Transform</text>
<polyline fill="none" stroke="black" points="236.5,-611.5 362.5,-611.5 "/>
<text text-anchor="middle" x="299.5" y="-599.5" font-family="Helvetica,sans-Serif" font-size="10.00"> </text>
<polyline fill="none" stroke="black" points="236.5,-592.5 362.5,-592.5 "/>
<text text-anchor="start" x="244.5" y="-580.5" font-family="Helvetica,sans-Serif" font-size="10.00">+ Transform()</text>
<text text-anchor="start" x="244.5" y="-569.5" font-family="Helvetica,sans-Serif" font-size="10.00">+ setPosition()</text>
<text text-anchor="start" x="244.5" y="-558.5" font-family="Helvetica,sans-Serif" font-size="10.00">+ getPosition()</text>
<text text-anchor="start" x="244.5" y="-547.5" font-family="Helvetica,sans-Serif" font-size="10.00">+ setRotation()</text>
<text text-anchor="start" x="244.5" y="-536.5" font-family="Helvetica,sans-Serif" font-size="10.00">+ getRotation()</text>
<text text-anchor="start" x="244.5" y="-525.5" font-family="Helvetica,sans-Serif" font-size="10.00">+ setScale()</text>
<text text-anchor="start" x="244.5" y="-514.5" font-family="Helvetica,sans-Serif" font-size="10.00">+ getScale()</text>
<text text-anchor="start" x="244.5" y="-503.5" font-family="Helvetica,sans-Serif" font-size="10.00">+ operator=()</text>
</a>
</g>
</g>
<!-- Node4&#45;&gt;Node1 -->
<g id="edge3" class="edge">
<title>Node4&#45;&gt;Node1</title>
<path fill="none" stroke="#404040" d="M291.48,-496.29C286.99,-432.08 287.09,-336.41 315.5,-259 324.97,-233.21 340.43,-208.21 357.03,-186.19"/>
<polygon fill="none" stroke="#404040" points="357.11,-186.09 357.62,-178.9 364.46,-176.61 363.94,-183.8 357.11,-186.09"/>
<text text-anchor="middle" x="346" y="-340.5" font-family="Helvetica,sans-Serif" font-size="10.00"> &#45;_transform</text>
</g>
<!-- Node5 -->
<g id="node5" class="node">
<title>Node5</title>
<g id="a_node5"><a xlink:href="a01289.html" target="_top" xlink:title="The ITransform class.">
<polygon fill="white" stroke="black" points="308,-827 308,-972 437,-972 437,-827 308,-827"/>
<text text-anchor="start" x="316" y="-960" font-family="Helvetica,sans-Serif" font-size="10.00">RayTracer::Entities</text>
<text text-anchor="middle" x="372.5" y="-949" font-family="Helvetica,sans-Serif" font-size="10.00">::Transform::ITransform</text>
<polyline fill="none" stroke="black" points="308,-942 437,-942 "/>
<text text-anchor="middle" x="372.5" y="-930" font-family="Helvetica,sans-Serif" font-size="10.00"> </text>
<polyline fill="none" stroke="black" points="308,-923 437,-923 "/>
<text text-anchor="start" x="316" y="-911" font-family="Helvetica,sans-Serif" font-size="10.00">+ ~ITransform()</text>
<text text-anchor="start" x="316" y="-900" font-family="Helvetica,sans-Serif" font-size="10.00">+ setPosition()</text>
<text text-anchor="start" x="316" y="-889" font-family="Helvetica,sans-Serif" font-size="10.00">+ getPosition()</text>
<text text-anchor="start" x="316" y="-878" font-family="Helvetica,sans-Serif" font-size="10.00">+ setRotation()</text>
<text text-anchor="start" x="316" y="-867" font-family="Helvetica,sans-Serif" font-size="10.00">+ getRotation()</text>
<text text-anchor="start" x="316" y="-856" font-family="Helvetica,sans-Serif" font-size="10.00">+ setScale()</text>
<text text-anchor="start" x="316" y="-845" font-family="Helvetica,sans-Serif" font-size="10.00">+ getScale()</text>
<text text-anchor="start" x="316" y="-834" font-family="Helvetica,sans-Serif" font-size="10.00">+ operator=()</text>
</a>
</g>
</g>
<!-- Node5&#45;&gt;Node4 -->
<g id="edge4" class="edge">
<title>Node5&#45;&gt;Node4</title>
<path fill="none" stroke="midnightblue" d="M358.89,-817.09C351.62,-776.34 342.01,-726.36 331.5,-682 328.4,-668.91 324.75,-655.07 321.05,-641.74"/>
<polygon fill="none" stroke="midnightblue" points="355.45,-817.73 360.64,-826.97 362.35,-816.51 355.45,-817.73"/>
</g>
<!-- Node6 -->
<g id="node6" class="node">
<title>Node6</title>
<g id="a_node6"><a xlink:href="a01301.html" target="_top" xlink:title="The Vector3f class.">
<polygon fill="white" stroke="black" points="171.5,-733.5 171.5,-1065.5 289.5,-1065.5 289.5,-733.5 171.5,-733.5"/>
<text text-anchor="start" x="179.5" y="-1053.5" font-family="Helvetica,sans-Serif" font-size="10.00">RayTracer::Entities</text>
<text text-anchor="middle" x="230.5" y="-1042.5" font-family="Helvetica,sans-Serif" font-size="10.00">::Transform::Vector3f</text>
<polyline fill="none" stroke="black" points="171.5,-1035.5 289.5,-1035.5 "/>
<text text-anchor="middle" x="230.5" y="-1023.5" font-family="Helvetica,sans-Serif" font-size="10.00"> </text>
<polyline fill="none" stroke="black" points="171.5,-1016.5 289.5,-1016.5 "/>
<text text-anchor="start" x="179.5" y="-1004.5" font-family="Helvetica,sans-Serif" font-size="10.00">+ ~Vector3f()</text>
<text text-anchor="start" x="179.5" y="-993.5" font-family="Helvetica,sans-Serif" font-size="10.00">+ Vector3f()</text>
<text text-anchor="start" x="179.5" y="-982.5" font-family="Helvetica,sans-Serif" font-size="10.00">+ Vector3f()</text>
<text text-anchor="start" x="179.5" y="-971.5" font-family="Helvetica,sans-Serif" font-size="10.00">+ Vector3f()</text>
<text text-anchor="start" x="179.5" y="-960.5" font-family="Helvetica,sans-Serif" font-size="10.00">+ Vector3f()</text>
<text text-anchor="start" x="179.5" y="-949.5" font-family="Helvetica,sans-Serif" font-size="10.00">+ operator+()</text>
<text text-anchor="start" x="179.5" y="-938.5" font-family="Helvetica,sans-Serif" font-size="10.00">+ operator&#45;()</text>
<text text-anchor="start" x="179.5" y="-927.5" font-family="Helvetica,sans-Serif" font-size="10.00">+ operator*()</text>
<text text-anchor="start" x="179.5" y="-916.5" font-family="Helvetica,sans-Serif" font-size="10.00">+ operator/()</text>
<text text-anchor="start" x="179.5" y="-905.5" font-family="Helvetica,sans-Serif" font-size="10.00">+ operator=()</text>
<text text-anchor="start" x="179.5" y="-894.5" font-family="Helvetica,sans-Serif" font-size="10.00">+ getX()</text>
<text text-anchor="start" x="179.5" y="-883.5" font-family="Helvetica,sans-Serif" font-size="10.00">+ getY()</text>
<text text-anchor="start" x="179.5" y="-872.5" font-family="Helvetica,sans-Serif" font-size="10.00">+ getZ()</text>
<text text-anchor="start" x="179.5" y="-861.5" font-family="Helvetica,sans-Serif" font-size="10.00">+ getNorm()</text>
<text text-anchor="start" x="179.5" y="-850.5" font-family="Helvetica,sans-Serif" font-size="10.00">+ getNormalized()</text>
<text text-anchor="start" x="179.5" y="-839.5" font-family="Helvetica,sans-Serif" font-size="10.00">+ getCrossed()</text>
<text text-anchor="start" x="179.5" y="-828.5" font-family="Helvetica,sans-Serif" font-size="10.00">+ dot()</text>
<text text-anchor="start" x="179.5" y="-817.5" font-family="Helvetica,sans-Serif" font-size="10.00">+ getDistance()</text>
<text text-anchor="start" x="179.5" y="-806.5" font-family="Helvetica,sans-Serif" font-size="10.00">+ toDegrees()</text>
<text text-anchor="start" x="179.5" y="-795.5" font-family="Helvetica,sans-Serif" font-size="10.00">+ toRadians()</text>
<text text-anchor="start" x="179.5" y="-784.5" font-family="Helvetica,sans-Serif" font-size="10.00">+ rotateVector()</text>
<text text-anchor="start" x="179.5" y="-773.5" font-family="Helvetica,sans-Serif" font-size="10.00">+ getAngle()</text>
<text text-anchor="start" x="179.5" y="-762.5" font-family="Helvetica,sans-Serif" font-size="10.00">+ rotateX()</text>
<text text-anchor="start" x="179.5" y="-751.5" font-family="Helvetica,sans-Serif" font-size="10.00">+ rotateY()</text>
<text text-anchor="start" x="179.5" y="-740.5" font-family="Helvetica,sans-Serif" font-size="10.00">+ rotateZ()</text>
</a>
</g>
</g>
<!-- Node6&#45;&gt;Node4 -->
<g id="edge5" class="edge">
<title>Node6&#45;&gt;Node4</title>
<path fill="none" stroke="#404040" d="M265.2,-733.29C271.03,-705.55 276.85,-677.85 281.99,-653.35"/>
<polygon fill="none" stroke="#404040" points="281.99,-653.34 279.31,-646.65 284.46,-641.6 287.14,-648.29 281.99,-653.34"/>
<text text-anchor="middle" x="301.5" y="-707" font-family="Helvetica,sans-Serif" font-size="10.00"> &#45;_position</text>
<text text-anchor="middle" x="301.5" y="-696" font-family="Helvetica,sans-Serif" font-size="10.00">&#45;_rotation</text>
<text text-anchor="middle" x="301.5" y="-685" font-family="Helvetica,sans-Serif" font-size="10.00">&#45;_scale</text>
</g>
<!-- Node7 -->
<g id="node7" class="node">
<title>Node7</title>
<g id="a_node7"><a xlink:title=" ">
<polygon fill="white" stroke="#bfbfbf" points="205.5,-1146.5 205.5,-1203.5 255.5,-1203.5 255.5,-1146.5 205.5,-1146.5"/>
<text text-anchor="middle" x="230.5" y="-1191.5" font-family="Helvetica,sans-Serif" font-size="10.00">double</text>
<polyline fill="none" stroke="#bfbfbf" points="205.5,-1184.5 255.5,-1184.5 "/>
<text text-anchor="middle" x="230.5" y="-1172.5" font-family="Helvetica,sans-Serif" font-size="10.00"> </text>
<polyline fill="none" stroke="#bfbfbf" points="205.5,-1165.5 255.5,-1165.5 "/>
<text text-anchor="middle" x="230.5" y="-1153.5" font-family="Helvetica,sans-Serif" font-size="10.00"> </text>
</a>
</g>
</g>
<!-- Node7&#45;&gt;Node1 -->
<g id="edge11" class="edge">
<title>Node7&#45;&gt;Node1</title>
<path fill="none" stroke="#404040" d="M208.26,-1146.48C192.72,-1125.66 172.94,-1095.68 162.5,-1066 137.94,-996.15 143.5,-974.54 143.5,-900.5 143.5,-900.5 143.5,-900.5 143.5,-342 143.5,-233.46 267.82,-166.1 353.1,-132.66"/>
<polygon fill="none" stroke="#404040" points="353.13,-132.65 357.31,-126.77 364.34,-128.36 360.17,-134.24 353.13,-132.65"/>
<text text-anchor="middle" x="162" y="-566.5" font-family="Helvetica,sans-Serif" font-size="10.00"> &#45;_focal</text>
</g>
<!-- Node7&#45;&gt;Node6 -->
<g id="edge6" class="edge">
<title>Node7&#45;&gt;Node6</title>
<path fill="none" stroke="#404040" d="M230.5,-1146.27C230.5,-1128.78 230.5,-1104.54 230.5,-1078.06"/>
<polygon fill="none" stroke="#404040" points="230.5,-1077.74 226.5,-1071.74 230.5,-1065.74 234.5,-1071.74 230.5,-1077.74"/>
<text text-anchor="middle" x="240" y="-1114.5" font-family="Helvetica,sans-Serif" font-size="10.00"> &#45;_x</text>
<text text-anchor="middle" x="240" y="-1103.5" font-family="Helvetica,sans-Serif" font-size="10.00">&#45;_y</text>
<text text-anchor="middle" x="240" y="-1092.5" font-family="Helvetica,sans-Serif" font-size="10.00">&#45;_z</text>
</g>
<!-- Node16 -->
<g id="node16" class="node">
<title>Node16</title>
<g id="a_node16"><a xlink:href="a01341.html" target="_top" xlink:title="The Color class.">
<polygon fill="white" stroke="black" points="502,-783 502,-1016 615,-1016 615,-783 502,-783"/>
<text text-anchor="start" x="510" y="-1004" font-family="Helvetica,sans-Serif" font-size="10.00">RayTracer::Images::</text>
<text text-anchor="middle" x="558.5" y="-993" font-family="Helvetica,sans-Serif" font-size="10.00">Color</text>
<polyline fill="none" stroke="black" points="502,-986 615,-986 "/>
<text text-anchor="middle" x="558.5" y="-974" font-family="Helvetica,sans-Serif" font-size="10.00"> </text>
<polyline fill="none" stroke="black" points="502,-967 615,-967 "/>
<text text-anchor="start" x="510" y="-955" font-family="Helvetica,sans-Serif" font-size="10.00">+ ~Color()</text>
<text text-anchor="start" x="510" y="-944" font-family="Helvetica,sans-Serif" font-size="10.00">+ Color()</text>
<text text-anchor="start" x="510" y="-933" font-family="Helvetica,sans-Serif" font-size="10.00">+ Color()</text>
<text text-anchor="start" x="510" y="-922" font-family="Helvetica,sans-Serif" font-size="10.00">+ Color()</text>
<text text-anchor="start" x="510" y="-911" font-family="Helvetica,sans-Serif" font-size="10.00">+ operator+()</text>
<text text-anchor="start" x="510" y="-900" font-family="Helvetica,sans-Serif" font-size="10.00">+ operator&#45;()</text>
<text text-anchor="start" x="510" y="-889" font-family="Helvetica,sans-Serif" font-size="10.00">+ operator*()</text>
<text text-anchor="start" x="510" y="-878" font-family="Helvetica,sans-Serif" font-size="10.00">+ operator/()</text>
<text text-anchor="start" x="510" y="-867" font-family="Helvetica,sans-Serif" font-size="10.00">+ operator=()</text>
<text text-anchor="start" x="510" y="-856" font-family="Helvetica,sans-Serif" font-size="10.00">+ operator[]()</text>
<text text-anchor="start" x="510" y="-845" font-family="Helvetica,sans-Serif" font-size="10.00">+ operator[]()</text>
<text text-anchor="start" x="510" y="-834" font-family="Helvetica,sans-Serif" font-size="10.00">+ set()</text>
<text text-anchor="start" x="510" y="-823" font-family="Helvetica,sans-Serif" font-size="10.00">+ applyAlpha()</text>
<text text-anchor="start" x="510" y="-812" font-family="Helvetica,sans-Serif" font-size="10.00">+ mergeColor()</text>
<text text-anchor="start" x="510" y="-801" font-family="Helvetica,sans-Serif" font-size="10.00">+ applyDistance()</text>
<text text-anchor="start" x="510" y="-790" font-family="Helvetica,sans-Serif" font-size="10.00">+ toSfColor()</text>
</a>
</g>
</g>
<!-- Node7&#45;&gt;Node16 -->
<g id="edge18" class="edge">
<title>Node7&#45;&gt;Node16</title>
<path fill="none" stroke="#404040" d="M255.76,-1170.28C307.14,-1161.45 424.71,-1134.58 492.5,-1066 503.59,-1054.78 512.88,-1041.46 520.65,-1027.33"/>
<polygon fill="none" stroke="#404040" points="520.8,-1027.05 519.99,-1019.88 526.3,-1016.38 527.1,-1023.55 520.8,-1027.05"/>
<text text-anchor="middle" x="480" y="-1120" font-family="Helvetica,sans-Serif" font-size="10.00"> &#45;_a</text>
<text text-anchor="middle" x="480" y="-1109" font-family="Helvetica,sans-Serif" font-size="10.00">&#45;_b</text>
<text text-anchor="middle" x="480" y="-1098" font-family="Helvetica,sans-Serif" font-size="10.00">&#45;_g</text>
<text text-anchor="middle" x="480" y="-1087" font-family="Helvetica,sans-Serif" font-size="10.00">&#45;_r</text>
</g>
<!-- Node8 -->
<g id="node8" class="node">
<title>Node8</title>
<g id="a_node8"><a xlink:title=" ">
<polygon fill="white" stroke="#bfbfbf" points="728,-529.5 728,-608.5 885,-608.5 885,-529.5 728,-529.5"/>
<text text-anchor="start" x="736" y="-596.5" font-family="Helvetica,sans-Serif" font-size="10.00">std::list&lt; std::reference</text>
<text text-anchor="start" x="736" y="-585.5" font-family="Helvetica,sans-Serif" font-size="10.00">_wrapper&lt; RayTracer::Filters</text>
<text text-anchor="middle" x="806.5" y="-574.5" font-family="Helvetica,sans-Serif" font-size="10.00">::IFilter &gt; &gt;</text>
<polyline fill="none" stroke="#bfbfbf" points="728,-567.5 885,-567.5 "/>
<text text-anchor="middle" x="806.5" y="-555.5" font-family="Helvetica,sans-Serif" font-size="10.00"> </text>
<polyline fill="none" stroke="#bfbfbf" points="728,-548.5 885,-548.5 "/>
<text text-anchor="middle" x="806.5" y="-536.5" font-family="Helvetica,sans-Serif" font-size="10.00"> </text>
</a>
</g>
</g>
<!-- Node8&#45;&gt;Node1 -->
<g id="edge7" class="edge">
<title>Node8&#45;&gt;Node1</title>
<path fill="none" stroke="#404040" d="M762.54,-529.33C735.44,-503.1 702.21,-466.17 682.5,-427 648.17,-358.79 688.56,-322.74 646.5,-259 612.98,-208.2 556.18,-169.13 509.38,-143.33"/>
<polygon fill="none" stroke="#404040" points="509.2,-143.23 502.02,-143.91 498.64,-137.54 505.82,-136.87 509.2,-143.23"/>
<text text-anchor="middle" x="702.5" y="-340.5" font-family="Helvetica,sans-Serif" font-size="10.00"> &#45;_filters</text>
</g>
<!-- Node9 -->
<g id="node9" class="node">
<title>Node9</title>
<g id="a_node9"><a xlink:title=" ">
<polygon fill="white" stroke="#bfbfbf" points="748.5,-860 748.5,-939 864.5,-939 864.5,-860 748.5,-860"/>
<text text-anchor="start" x="756.5" y="-927" font-family="Helvetica,sans-Serif" font-size="10.00">reference_wrapper&lt;</text>
<text text-anchor="start" x="756.5" y="-916" font-family="Helvetica,sans-Serif" font-size="10.00"> RayTracer::Filters</text>
<text text-anchor="middle" x="806.5" y="-905" font-family="Helvetica,sans-Serif" font-size="10.00">::IFilter &gt;</text>
<polyline fill="none" stroke="#bfbfbf" points="748.5,-898 864.5,-898 "/>
<text text-anchor="middle" x="806.5" y="-886" font-family="Helvetica,sans-Serif" font-size="10.00"> </text>
<polyline fill="none" stroke="#bfbfbf" points="748.5,-879 864.5,-879 "/>
<text text-anchor="middle" x="806.5" y="-867" font-family="Helvetica,sans-Serif" font-size="10.00"> </text>
</a>
</g>
</g>
<!-- Node9&#45;&gt;Node8 -->
<g id="edge8" class="edge">
<title>Node9&#45;&gt;Node8</title>
<path fill="none" stroke="#404040" d="M806.5,-859.85C806.5,-800.42 806.5,-686.57 806.5,-620.63"/>
<polygon fill="none" stroke="#404040" points="806.5,-620.5 802.5,-614.5 806.5,-608.5 810.5,-614.5 806.5,-620.5"/>
<text text-anchor="middle" x="835.5" y="-696" font-family="Helvetica,sans-Serif" font-size="10.00"> +elements</text>
</g>
<!-- Node10 -->
<g id="node10" class="node">
<title>Node10</title>
<g id="a_node10"><a xlink:title=" ">
<polygon fill="white" stroke="#bfbfbf" points="883,-871 883,-928 964,-928 964,-871 883,-871"/>
<text text-anchor="middle" x="923.5" y="-916" font-family="Helvetica,sans-Serif" font-size="10.00">std::list&lt; T &gt;</text>
<polyline fill="none" stroke="#bfbfbf" points="883,-909 964,-909 "/>
<text text-anchor="middle" x="923.5" y="-897" font-family="Helvetica,sans-Serif" font-size="10.00"> </text>
<polyline fill="none" stroke="#bfbfbf" points="883,-890 964,-890 "/>
<text text-anchor="middle" x="923.5" y="-878" font-family="Helvetica,sans-Serif" font-size="10.00"> </text>
</a>
</g>
</g>
<!-- Node10&#45;&gt;Node8 -->
<g id="edge9" class="edge">
<title>Node10&#45;&gt;Node8</title>
<path fill="none" stroke="orange" d="M916.98,-860.84C908.69,-816.91 892.5,-742.58 868.5,-682 858.43,-656.58 843.73,-629.74 831.16,-608.7"/>
<polygon fill="orange" stroke="orange" points="913.56,-861.6 918.82,-870.79 920.45,-860.32 913.56,-861.6"/>
<text text-anchor="start" x="878.5" y="-701.5" font-family="Helvetica,sans-Serif" font-size="10.00"> &lt; std::reference_wrapper</text>
<text text-anchor="middle" x="954.5" y="-690.5" font-family="Helvetica,sans-Serif" font-size="10.00">&lt; RayTracer::Filters::IFilter &gt; &gt;</text>
</g>
<!-- Node11 -->
<g id="node11" class="node">
<title>Node11</title>
<g id="a_node11"><a xlink:title=" ">
<polygon fill="white" stroke="#bfbfbf" points="787,-1146.5 787,-1203.5 816,-1203.5 816,-1146.5 787,-1146.5"/>
<text text-anchor="middle" x="801.5" y="-1191.5" font-family="Helvetica,sans-Serif" font-size="10.00">T</text>
<polyline fill="none" stroke="#bfbfbf" points="787,-1184.5 816,-1184.5 "/>
<text text-anchor="middle" x="801.5" y="-1172.5" font-family="Helvetica,sans-Serif" font-size="10.00"> </text>
<polyline fill="none" stroke="#bfbfbf" points="787,-1165.5 816,-1165.5 "/>
<text text-anchor="middle" x="801.5" y="-1153.5" font-family="Helvetica,sans-Serif" font-size="10.00"> </text>
</a>
</g>
</g>
<!-- Node11&#45;&gt;Node10 -->
<g id="edge10" class="edge">
<title>Node11&#45;&gt;Node10</title>
<path fill="none" stroke="#404040" d="M816.05,-1152.5C821.25,-1144.78 827.15,-1136.01 832.5,-1128 850.84,-1100.52 859.46,-1095.91 873.5,-1066 892.87,-1024.74 906.85,-974.2 915.02,-939.9"/>
<polygon fill="none" stroke="#404040" points="915.06,-939.74 912.52,-932.99 917.77,-928.05 920.31,-934.8 915.06,-939.74"/>
<text text-anchor="middle" x="891.5" y="-1103.5" font-family="Helvetica,sans-Serif" font-size="10.00"> +elements</text>
</g>
<!-- Node18 -->
<g id="node18" class="node">
<title>Node18</title>
<g id="a_node18"><a xlink:title=" ">
<polygon fill="white" stroke="#bfbfbf" points="633,-871 633,-928 730,-928 730,-871 633,-871"/>
<text text-anchor="middle" x="681.5" y="-916" font-family="Helvetica,sans-Serif" font-size="10.00">std::vector&lt; T &gt;</text>
<polyline fill="none" stroke="#bfbfbf" points="633,-909 730,-909 "/>
<text text-anchor="middle" x="681.5" y="-897" font-family="Helvetica,sans-Serif" font-size="10.00"> </text>
<polyline fill="none" stroke="#bfbfbf" points="633,-890 730,-890 "/>
<text text-anchor="middle" x="681.5" y="-878" font-family="Helvetica,sans-Serif" font-size="10.00"> </text>
</a>
</g>
</g>
<!-- Node11&#45;&gt;Node18 -->
<g id="edge21" class="edge">
<title>Node11&#45;&gt;Node18</title>
<path fill="none" stroke="#404040" d="M786.93,-1151.48C773.49,-1130.06 753.53,-1096.67 739.5,-1066 720.32,-1024.08 703.54,-973.86 693.03,-939.81"/>
<polygon fill="none" stroke="#404040" points="692.94,-939.53 687.37,-934.95 689.45,-928.05 695.02,-932.62 692.94,-939.53"/>
<text text-anchor="middle" x="799.5" y="-1103.5" font-family="Helvetica,sans-Serif" font-size="10.00"> +elements</text>
</g>
<!-- Node12 -->
<g id="node12" class="node">
<title>Node12</title>
<g id="a_node12"><a xlink:href="a01297.html" target="_top" xlink:title="The Vector2i class.">
<polygon fill="white" stroke="black" points="419,-474.5 419,-663.5 536,-663.5 536,-474.5 419,-474.5"/>
<text text-anchor="start" x="427" y="-651.5" font-family="Helvetica,sans-Serif" font-size="10.00">RayTracer::Entities</text>
<text text-anchor="middle" x="477.5" y="-640.5" font-family="Helvetica,sans-Serif" font-size="10.00">::Transform::Vector2i</text>
<polyline fill="none" stroke="black" points="419,-633.5 536,-633.5 "/>
<text text-anchor="middle" x="477.5" y="-621.5" font-family="Helvetica,sans-Serif" font-size="10.00"> </text>
<polyline fill="none" stroke="black" points="419,-614.5 536,-614.5 "/>
<text text-anchor="start" x="427" y="-602.5" font-family="Helvetica,sans-Serif" font-size="10.00">+ ~Vector2i()</text>
<text text-anchor="start" x="427" y="-591.5" font-family="Helvetica,sans-Serif" font-size="10.00">+ Vector2i()</text>
<text text-anchor="start" x="427" y="-580.5" font-family="Helvetica,sans-Serif" font-size="10.00">+ Vector2i()</text>
<text text-anchor="start" x="427" y="-569.5" font-family="Helvetica,sans-Serif" font-size="10.00">+ Vector2i()</text>
<text text-anchor="start" x="427" y="-558.5" font-family="Helvetica,sans-Serif" font-size="10.00">+ Vector2i()</text>
<text text-anchor="start" x="427" y="-547.5" font-family="Helvetica,sans-Serif" font-size="10.00">+ operator+()</text>
<text text-anchor="start" x="427" y="-536.5" font-family="Helvetica,sans-Serif" font-size="10.00">+ operator&#45;()</text>
<text text-anchor="start" x="427" y="-525.5" font-family="Helvetica,sans-Serif" font-size="10.00">+ operator*()</text>
<text text-anchor="start" x="427" y="-514.5" font-family="Helvetica,sans-Serif" font-size="10.00">+ operator/()</text>
<text text-anchor="start" x="427" y="-503.5" font-family="Helvetica,sans-Serif" font-size="10.00">+ operator=()</text>
<text text-anchor="start" x="427" y="-492.5" font-family="Helvetica,sans-Serif" font-size="10.00">+ getX()</text>
<text text-anchor="start" x="427" y="-481.5" font-family="Helvetica,sans-Serif" font-size="10.00">+ getY()</text>
</a>
</g>
</g>
<!-- Node12&#45;&gt;Node1 -->
<g id="edge12" class="edge">
<title>Node12&#45;&gt;Node1</title>
<path fill="none" stroke="#404040" d="M468.16,-474.43C460.95,-402.11 450.92,-301.58 443.17,-223.95"/>
<polygon fill="none" stroke="#404040" points="443.14,-223.64 438.56,-218.06 441.95,-211.69 446.52,-217.27 443.14,-223.64"/>
<text text-anchor="middle" x="479.5" y="-340.5" font-family="Helvetica,sans-Serif" font-size="10.00"> &#45;_size</text>
</g>
<!-- Node14 -->
<g id="node14" class="node">
<title>Node14</title>
<g id="a_node14"><a xlink:href="a01345.html" target="_top" xlink:title="The Image class.">
<polygon fill="white" stroke="black" points="524,-281.5 524,-404.5 637,-404.5 637,-281.5 524,-281.5"/>
<text text-anchor="start" x="532" y="-392.5" font-family="Helvetica,sans-Serif" font-size="10.00">RayTracer::Images::</text>
<text text-anchor="middle" x="580.5" y="-381.5" font-family="Helvetica,sans-Serif" font-size="10.00">Image</text>
<polyline fill="none" stroke="black" points="524,-374.5 637,-374.5 "/>
<text text-anchor="middle" x="580.5" y="-362.5" font-family="Helvetica,sans-Serif" font-size="10.00"> </text>
<polyline fill="none" stroke="black" points="524,-355.5 637,-355.5 "/>
<text text-anchor="start" x="532" y="-343.5" font-family="Helvetica,sans-Serif" font-size="10.00">+ Image()</text>
<text text-anchor="start" x="532" y="-332.5" font-family="Helvetica,sans-Serif" font-size="10.00">+ convertToPPM()</text>
<text text-anchor="start" x="532" y="-321.5" font-family="Helvetica,sans-Serif" font-size="10.00">+ operator[]()</text>
<text text-anchor="start" x="532" y="-310.5" font-family="Helvetica,sans-Serif" font-size="10.00">+ operator[]()</text>
<text text-anchor="start" x="532" y="-299.5" font-family="Helvetica,sans-Serif" font-size="10.00">+ getSize()</text>
<text text-anchor="start" x="532" y="-288.5" font-family="Helvetica,sans-Serif" font-size="10.00">+ getPixelsList()</text>
</a>
</g>
</g>
<!-- Node12&#45;&gt;Node14 -->
<g id="edge15" class="edge">
<title>Node12&#45;&gt;Node14</title>
<path fill="none" stroke="#404040" d="M520.58,-474.3C529.57,-454.75 538.92,-434.44 547.47,-415.83"/>
<polygon fill="none" stroke="#404040" points="547.54,-415.69 546.41,-408.56 552.55,-404.78 553.68,-411.91 547.54,-415.69"/>
<text text-anchor="middle" x="548.5" y="-448" font-family="Helvetica,sans-Serif" font-size="10.00"> &#45;_size</text>
</g>
<!-- Node13 -->
<g id="node13" class="node">
<title>Node13</title>
<g id="a_node13"><a xlink:title=" ">
<polygon fill="white" stroke="#bfbfbf" points="455,-871 455,-928 484,-928 484,-871 455,-871"/>
<text text-anchor="middle" x="469.5" y="-916" font-family="Helvetica,sans-Serif" font-size="10.00">int</text>
<polyline fill="none" stroke="#bfbfbf" points="455,-909 484,-909 "/>
<text text-anchor="middle" x="469.5" y="-897" font-family="Helvetica,sans-Serif" font-size="10.00"> </text>
<polyline fill="none" stroke="#bfbfbf" points="455,-890 484,-890 "/>
<text text-anchor="middle" x="469.5" y="-878" font-family="Helvetica,sans-Serif" font-size="10.00"> </text>
</a>
</g>
</g>
<!-- Node13&#45;&gt;Node1 -->
<g id="edge22" class="edge">
<title>Node13&#45;&gt;Node1</title>
<path fill="none" stroke="#404040" d="M468.33,-870.92C466.28,-837.54 460.67,-779.97 445.5,-733 434.87,-700.09 418.94,-697.28 409.5,-664 382.87,-570.14 389.18,-542.42 394.5,-445 398.53,-371.2 407.47,-288.74 415.55,-223.74"/>
<polygon fill="none" stroke="#404040" points="415.55,-223.72 412.33,-217.27 417.05,-211.81 420.27,-218.26 415.55,-223.72"/>
<text text-anchor="middle" x="428.5" y="-448" font-family="Helvetica,sans-Serif" font-size="10.00"> &#45;_maxThread</text>
</g>
<!-- Node13&#45;&gt;Node12 -->
<g id="edge13" class="edge">
<title>Node13&#45;&gt;Node12</title>
<path fill="none" stroke="#404040" d="M470.18,-870.78C471.21,-828.17 473.25,-744.34 474.92,-675.99"/>
<polygon fill="none" stroke="#404040" points="474.92,-675.85 471.07,-669.76 475.21,-663.86 479.07,-669.95 474.92,-675.85"/>
<text text-anchor="middle" x="485" y="-701.5" font-family="Helvetica,sans-Serif" font-size="10.00"> &#45;_x</text>
<text text-anchor="middle" x="485" y="-690.5" font-family="Helvetica,sans-Serif" font-size="10.00">&#45;_y</text>
</g>
<!-- Node14&#45;&gt;Node1 -->
<g id="edge14" class="edge">
<title>Node14&#45;&gt;Node1</title>
<path fill="none" stroke="#404040" d="M542.13,-281.48C530.55,-263.22 517.43,-242.53 504.38,-221.94"/>
<polygon fill="none" stroke="#404040" points="504.2,-221.67 497.61,-218.74 497.78,-211.53 504.37,-214.46 504.2,-221.67"/>
<text text-anchor="middle" x="537" y="-233" font-family="Helvetica,sans-Serif" font-size="10.00"> &#45;_image</text>
</g>
<!-- Node15 -->
<g id="node15" class="node">
<title>Node15</title>
<g id="a_node15"><a xlink:title=" ">
<polygon fill="white" stroke="#bfbfbf" points="554.5,-535 554.5,-603 682.5,-603 682.5,-535 554.5,-535"/>
<text text-anchor="start" x="562.5" y="-591" font-family="Helvetica,sans-Serif" font-size="10.00">std::vector&lt; RayTracer</text>
<text text-anchor="middle" x="618.5" y="-580" font-family="Helvetica,sans-Serif" font-size="10.00">::Images::Color &gt;</text>
<polyline fill="none" stroke="#bfbfbf" points="554.5,-573 682.5,-573 "/>
<text text-anchor="middle" x="618.5" y="-561" font-family="Helvetica,sans-Serif" font-size="10.00"> </text>
<polyline fill="none" stroke="#bfbfbf" points="554.5,-554 682.5,-554 "/>
<text text-anchor="middle" x="618.5" y="-542" font-family="Helvetica,sans-Serif" font-size="10.00"> </text>
</a>
</g>
</g>
<!-- Node15&#45;&gt;Node14 -->
<g id="edge16" class="edge">
<title>Node15&#45;&gt;Node14</title>
<path fill="none" stroke="#404040" d="M612.89,-534.95C607.64,-503.96 599.59,-456.56 592.84,-416.74"/>
<polygon fill="none" stroke="#404040" points="592.8,-416.48 587.85,-411.23 590.79,-404.65 595.74,-409.9 592.8,-416.48"/>
<text text-anchor="middle" x="620" y="-448" font-family="Helvetica,sans-Serif" font-size="10.00"> &#45;_pixels</text>
</g>
<!-- Node16&#45;&gt;Node15 -->
<g id="edge17" class="edge">
<title>Node16&#45;&gt;Node15</title>
<path fill="none" stroke="#404040" d="M564.59,-782.82C567.7,-749.98 572.4,-714.37 579.5,-682 584.48,-659.3 592.65,-634.85 600.22,-614.61"/>
<polygon fill="none" stroke="#404040" points="600.29,-614.42 598.71,-607.39 604.59,-603.21 606.18,-610.25 600.29,-614.42"/>
<text text-anchor="middle" x="608.5" y="-696" font-family="Helvetica,sans-Serif" font-size="10.00"> +elements</text>
</g>
<!-- Node17 -->
<g id="node17" class="node">
<title>Node17</title>
<g id="a_node17"><a xlink:title=" ">
<polygon fill="white" stroke="#bfbfbf" points="524,-1146.5 524,-1203.5 593,-1203.5 593,-1146.5 524,-1146.5"/>
<text text-anchor="middle" x="558.5" y="-1191.5" font-family="Helvetica,sans-Serif" font-size="10.00">std::mutex</text>
<polyline fill="none" stroke="#bfbfbf" points="524,-1184.5 593,-1184.5 "/>
<text text-anchor="middle" x="558.5" y="-1172.5" font-family="Helvetica,sans-Serif" font-size="10.00"> </text>
<polyline fill="none" stroke="#bfbfbf" points="524,-1165.5 593,-1165.5 "/>
<text text-anchor="middle" x="558.5" y="-1153.5" font-family="Helvetica,sans-Serif" font-size="10.00"> </text>
</a>
</g>
</g>
<!-- Node17&#45;&gt;Node16 -->
<g id="edge19" class="edge">
<title>Node17&#45;&gt;Node16</title>
<path fill="none" stroke="#404040" d="M558.5,-1146.27C558.5,-1118.16 558.5,-1072.6 558.5,-1028.3"/>
<polygon fill="none" stroke="#404040" points="558.5,-1028.16 554.5,-1022.16 558.5,-1016.16 562.5,-1022.16 558.5,-1028.16"/>
<text text-anchor="middle" x="580.5" y="-1103.5" font-family="Helvetica,sans-Serif" font-size="10.00"> &#45;_mutex</text>
</g>
<!-- Node18&#45;&gt;Node15 -->
<g id="edge20" class="edge">
<title>Node18&#45;&gt;Node15</title>
<path fill="none" stroke="orange" d="M674.23,-860.59C661.81,-795.81 636.68,-664.82 624.89,-603.32"/>
<polygon fill="orange" stroke="orange" points="670.86,-861.61 676.18,-870.78 677.74,-860.3 670.86,-861.61"/>
<text text-anchor="start" x="645.5" y="-701.5" font-family="Helvetica,sans-Serif" font-size="10.00"> &lt; RayTracer::Images</text>
<text text-anchor="middle" x="698" y="-690.5" font-family="Helvetica,sans-Serif" font-size="10.00">::Color &gt;</text>
</g>
<!-- Node19 -->
<g id="node19" class="node">
<title>Node19</title>
<g id="a_node19"><a xlink:href="a01337.html" target="_top" xlink:title="Logger singleton.">
<polygon fill="white" stroke="black" points="731.5,-270.5 731.5,-415.5 867.5,-415.5 867.5,-270.5 731.5,-270.5"/>
<text text-anchor="middle" x="799.5" y="-403.5" font-family="Helvetica,sans-Serif" font-size="10.00">RayTracer::ILogger</text>
<polyline fill="none" stroke="black" points="731.5,-396.5 867.5,-396.5 "/>
<text text-anchor="middle" x="799.5" y="-384.5" font-family="Helvetica,sans-Serif" font-size="10.00"> </text>
<polyline fill="none" stroke="black" points="731.5,-377.5 867.5,-377.5 "/>
<text text-anchor="start" x="739.5" y="-365.5" font-family="Helvetica,sans-Serif" font-size="10.00">+ ~ILogger()</text>
<text text-anchor="start" x="739.5" y="-354.5" font-family="Helvetica,sans-Serif" font-size="10.00">+ fatal()</text>
<text text-anchor="start" x="739.5" y="-343.5" font-family="Helvetica,sans-Serif" font-size="10.00">+ error()</text>
<text text-anchor="start" x="739.5" y="-332.5" font-family="Helvetica,sans-Serif" font-size="10.00">+ warn()</text>
<text text-anchor="start" x="739.5" y="-321.5" font-family="Helvetica,sans-Serif" font-size="10.00">+ info()</text>
<text text-anchor="start" x="739.5" y="-310.5" font-family="Helvetica,sans-Serif" font-size="10.00">+ debug()</text>
<text text-anchor="start" x="739.5" y="-299.5" font-family="Helvetica,sans-Serif" font-size="10.00">+ trace()</text>
<text text-anchor="start" x="739.5" y="-288.5" font-family="Helvetica,sans-Serif" font-size="10.00">+ subscribeCallback()</text>
<text text-anchor="start" x="739.5" y="-277.5" font-family="Helvetica,sans-Serif" font-size="10.00">+ unsubscribeCallback()</text>
</a>
</g>
</g>
<!-- Node19&#45;&gt;Node1 -->
<g id="edge23" class="edge">
<title>Node19&#45;&gt;Node1</title>
<path fill="none" stroke="#404040" d="M731.16,-272.59C726.55,-267.98 721.96,-263.42 717.5,-259 704.32,-245.96 702.72,-240.6 687.5,-230 631.99,-191.35 562.46,-158.8 509.87,-136.92"/>
<polygon fill="none" stroke="#404040" points="509.68,-136.84 502.61,-138.25 498.58,-132.27 505.65,-130.86 509.68,-136.84"/>
<text text-anchor="middle" x="721" y="-233" font-family="Helvetica,sans-Serif" font-size="10.00"> &#45;_logger</text>
</g>
</g>
</svg>
