<?xml version="1.0" encoding="UTF-8" standalone="no"?>
<!DOCTYPE svg PUBLIC "-//W3C//DTD SVG 1.1//EN"
 "http://www.w3.org/Graphics/SVG/1.1/DTD/svg11.dtd">
<!-- Generated by graphviz version 2.43.0 (0)
 -->
<!-- Title: RayTracer::Scenes::SceneLoader Pages: 1 -->
<svg width="1275pt" height="568pt"
 viewBox="0.00 0.00 1274.50 568.00" xmlns="http://www.w3.org/2000/svg" xmlns:xlink="http://www.w3.org/1999/xlink">
<g id="graph0" class="graph" transform="scale(1 1) rotate(0) translate(4 564)">
<title>RayTracer::Scenes::SceneLoader</title>
<polygon fill="white" stroke="transparent" points="-4,4 -4,-564 1270.5,-564 1270.5,4 -4,4"/>
<!-- Node1 -->
<g id="node1" class="node">
<title>Node1</title>
<g id="a_node1"><a xlink:title="The SceneLoader class.">
<polygon fill="#bfbfbf" stroke="black" points="655,-0.5 655,-112.5 766,-112.5 766,-0.5 655,-0.5"/>
<text text-anchor="start" x="663" y="-100.5" font-family="Helvetica,sans-Serif" font-size="10.00">RayTracer::Scenes::</text>
<text text-anchor="middle" x="710.5" y="-89.5" font-family="Helvetica,sans-Serif" font-size="10.00">SceneLoader</text>
<polyline fill="none" stroke="black" points="655,-82.5 766,-82.5 "/>
<text text-anchor="middle" x="710.5" y="-70.5" font-family="Helvetica,sans-Serif" font-size="10.00"> </text>
<polyline fill="none" stroke="black" points="655,-63.5 766,-63.5 "/>
<text text-anchor="start" x="663" y="-51.5" font-family="Helvetica,sans-Serif" font-size="10.00">+ SceneLoader()</text>
<text text-anchor="start" x="663" y="-40.5" font-family="Helvetica,sans-Serif" font-size="10.00">+ ~SceneLoader()</text>
<text text-anchor="start" x="663" y="-29.5" font-family="Helvetica,sans-Serif" font-size="10.00">+ subscribe()</text>
<text text-anchor="start" x="663" y="-18.5" font-family="Helvetica,sans-Serif" font-size="10.00">+ update()</text>
<text text-anchor="start" x="663" y="-7.5" font-family="Helvetica,sans-Serif" font-size="10.00">+ checkGoodFile()</text>
</a>
</g>
</g>
<!-- Node2 -->
<g id="node2" class="node">
<title>Node2</title>
<g id="a_node2"><a xlink:title=" ">
<polygon fill="white" stroke="#bfbfbf" points="1029.5,-188 1029.5,-278 1167.5,-278 1167.5,-188 1029.5,-188"/>
<text text-anchor="start" x="1037.5" y="-266" font-family="Helvetica,sans-Serif" font-size="10.00">std::map&lt; std::string,</text>
<text text-anchor="start" x="1037.5" y="-255" font-family="Helvetica,sans-Serif" font-size="10.00"> std::function&lt; void</text>
<text text-anchor="start" x="1037.5" y="-244" font-family="Helvetica,sans-Serif" font-size="10.00">(const RayTracer::Scenes</text>
<text text-anchor="middle" x="1098.5" y="-233" font-family="Helvetica,sans-Serif" font-size="10.00">::ISetting &amp;)&gt; &gt;</text>
<polyline fill="none" stroke="#bfbfbf" points="1029.5,-226 1167.5,-226 "/>
<text text-anchor="middle" x="1098.5" y="-214" font-family="Helvetica,sans-Serif" font-size="10.00"> </text>
<polyline fill="none" stroke="#bfbfbf" points="1029.5,-207 1167.5,-207 "/>
<text text-anchor="middle" x="1098.5" y="-195" font-family="Helvetica,sans-Serif" font-size="10.00"> </text>
</a>
</g>
</g>
<!-- Node2&#45;&gt;Node1 -->
<g id="edge1" class="edge">
<title>Node2&#45;&gt;Node1</title>
<path fill="none" stroke="#404040" d="M1057.02,-187.69C1045.89,-177.57 1033.36,-167.58 1020.5,-160 943.26,-114.49 843.14,-86.09 777.89,-71.03"/>
<polygon fill="none" stroke="#404040" points="777.83,-71.02 771.09,-73.6 766.12,-68.37 772.86,-65.79 777.83,-71.02"/>
<text text-anchor="middle" x="1003.5" y="-134" font-family="Helvetica,sans-Serif" font-size="10.00"> &#45;_events</text>
</g>
<!-- Node3 -->
<g id="node3" class="node">
<title>Node3</title>
<g id="a_node3"><a xlink:title=" ">
<polygon fill="white" stroke="#bfbfbf" points="978.5,-375.5 978.5,-443.5 1152.5,-443.5 1152.5,-375.5 978.5,-375.5"/>
<text text-anchor="start" x="986.5" y="-431.5" font-family="Helvetica,sans-Serif" font-size="10.00">function&lt; void(const</text>
<text text-anchor="middle" x="1065.5" y="-420.5" font-family="Helvetica,sans-Serif" font-size="10.00"> RayTracer::Scenes::ISetting &amp;)&gt;</text>
<polyline fill="none" stroke="#bfbfbf" points="978.5,-413.5 1152.5,-413.5 "/>
<text text-anchor="middle" x="1065.5" y="-401.5" font-family="Helvetica,sans-Serif" font-size="10.00"> </text>
<polyline fill="none" stroke="#bfbfbf" points="978.5,-394.5 1152.5,-394.5 "/>
<text text-anchor="middle" x="1065.5" y="-382.5" font-family="Helvetica,sans-Serif" font-size="10.00"> </text>
</a>
</g>
</g>
<!-- Node3&#45;&gt;Node2 -->
<g id="edge2" class="edge">
<title>Node3&#45;&gt;Node2</title>
<path fill="none" stroke="#404040" d="M1065.61,-375.37C1066.13,-359.69 1067.44,-340.77 1070.5,-324 1072.53,-312.89 1075.5,-301.22 1078.75,-290.11"/>
<polygon fill="none" stroke="#404040" points="1078.85,-289.8 1076.78,-282.89 1082.37,-278.33 1084.43,-285.24 1078.85,-289.8"/>
<text text-anchor="middle" x="1099.5" y="-338" font-family="Helvetica,sans-Serif" font-size="10.00"> +elements</text>
</g>
<!-- Node4 -->
<g id="node4" class="node">
<title>Node4</title>
<g id="a_node4"><a xlink:title=" ">
<polygon fill="white" stroke="#bfbfbf" points="1171,-381 1171,-438 1236,-438 1236,-381 1171,-381"/>
<text text-anchor="middle" x="1203.5" y="-426" font-family="Helvetica,sans-Serif" font-size="10.00">std::string</text>
<polyline fill="none" stroke="#bfbfbf" points="1171,-419 1236,-419 "/>
<text text-anchor="middle" x="1203.5" y="-407" font-family="Helvetica,sans-Serif" font-size="10.00"> </text>
<polyline fill="none" stroke="#bfbfbf" points="1171,-400 1236,-400 "/>
<text text-anchor="middle" x="1203.5" y="-388" font-family="Helvetica,sans-Serif" font-size="10.00"> </text>
</a>
</g>
</g>
<!-- Node4&#45;&gt;Node1 -->
<g id="edge15" class="edge">
<title>Node4&#45;&gt;Node1</title>
<path fill="none" stroke="#404040" d="M1209.79,-380.9C1219.57,-330.22 1232,-221.86 1176.5,-160 1124.19,-101.7 894.87,-73.6 778.61,-62.9"/>
<polygon fill="none" stroke="#404040" points="778.31,-62.87 771.98,-66.32 766.36,-61.79 772.7,-58.35 778.31,-62.87"/>
<text text-anchor="middle" x="1242" y="-230.5" font-family="Helvetica,sans-Serif" font-size="10.00"> &#45;_filePath</text>
</g>
<!-- Node4&#45;&gt;Node2 -->
<g id="edge3" class="edge">
<title>Node4&#45;&gt;Node2</title>
<path fill="none" stroke="#404040" d="M1174.87,-380.99C1168.03,-373.59 1161.09,-365.32 1155.5,-357 1141.46,-336.13 1129.21,-311.25 1119.7,-289.34"/>
<polygon fill="none" stroke="#404040" points="1119.66,-289.25 1113.64,-285.28 1114.98,-278.19 1121.01,-282.16 1119.66,-289.25"/>
<text text-anchor="middle" x="1172.5" y="-338" font-family="Helvetica,sans-Serif" font-size="10.00"> +keys</text>
</g>
<!-- Node5 -->
<g id="node5" class="node">
<title>Node5</title>
<g id="a_node5"><a xlink:title=" ">
<polygon fill="white" stroke="#bfbfbf" points="1151.5,-491.5 1151.5,-559.5 1255.5,-559.5 1255.5,-491.5 1151.5,-491.5"/>
<text text-anchor="start" x="1159.5" y="-547.5" font-family="Helvetica,sans-Serif" font-size="10.00">std::basic_string&lt;</text>
<text text-anchor="middle" x="1203.5" y="-536.5" font-family="Helvetica,sans-Serif" font-size="10.00"> Char &gt;</text>
<polyline fill="none" stroke="#bfbfbf" points="1151.5,-529.5 1255.5,-529.5 "/>
<text text-anchor="middle" x="1203.5" y="-517.5" font-family="Helvetica,sans-Serif" font-size="10.00"> </text>
<polyline fill="none" stroke="#bfbfbf" points="1151.5,-510.5 1255.5,-510.5 "/>
<text text-anchor="middle" x="1203.5" y="-498.5" font-family="Helvetica,sans-Serif" font-size="10.00"> </text>
</a>
</g>
</g>
<!-- Node5&#45;&gt;Node4 -->
<g id="edge4" class="edge">
<title>Node5&#45;&gt;Node4</title>
<path fill="none" stroke="midnightblue" d="M1203.5,-481.03C1203.5,-466.67 1203.5,-451.1 1203.5,-438.24"/>
<polygon fill="none" stroke="midnightblue" points="1200,-481.22 1203.5,-491.22 1207,-481.22 1200,-481.22"/>
</g>
<!-- Node6 -->
<g id="node6" class="node">
<title>Node6</title>
<g id="a_node6"><a xlink:title=" ">
<polygon fill="white" stroke="#bfbfbf" points="778,-381 778,-438 879,-438 879,-381 778,-381"/>
<text text-anchor="middle" x="828.5" y="-426" font-family="Helvetica,sans-Serif" font-size="10.00">std::map&lt; K, T &gt;</text>
<polyline fill="none" stroke="#bfbfbf" points="778,-419 879,-419 "/>
<text text-anchor="middle" x="828.5" y="-407" font-family="Helvetica,sans-Serif" font-size="10.00"> </text>
<polyline fill="none" stroke="#bfbfbf" points="778,-400 879,-400 "/>
<text text-anchor="middle" x="828.5" y="-388" font-family="Helvetica,sans-Serif" font-size="10.00"> </text>
</a>
</g>
</g>
<!-- Node6&#45;&gt;Node2 -->
<g id="edge5" class="edge">
<title>Node6&#45;&gt;Node2</title>
<path fill="none" stroke="orange" d="M847.78,-371.8C858.81,-354.48 874.3,-335.2 893.5,-324 942.75,-295.28 969,-330.44 1020.5,-306 1034.82,-299.2 1048.32,-288.85 1059.94,-278.09"/>
<polygon fill="orange" stroke="orange" points="844.62,-370.26 842.42,-380.62 850.6,-373.89 844.62,-370.26"/>
<text text-anchor="start" x="893.5" y="-349" font-family="Helvetica,sans-Serif" font-size="10.00"> &lt; std::string, std</text>
<text text-anchor="start" x="893.5" y="-338" font-family="Helvetica,sans-Serif" font-size="10.00">::function&lt; void(const</text>
<text text-anchor="middle" x="978" y="-327" font-family="Helvetica,sans-Serif" font-size="10.00"> RayTracer::Scenes::ISetting &amp;)&gt; &gt;</text>
</g>
<!-- Node7 -->
<g id="node7" class="node">
<title>Node7</title>
<g id="a_node7"><a xlink:title=" ">
<polygon fill="white" stroke="#bfbfbf" points="814,-497 814,-554 843,-554 843,-497 814,-497"/>
<text text-anchor="middle" x="828.5" y="-542" font-family="Helvetica,sans-Serif" font-size="10.00">K</text>
<polyline fill="none" stroke="#bfbfbf" points="814,-535 843,-535 "/>
<text text-anchor="middle" x="828.5" y="-523" font-family="Helvetica,sans-Serif" font-size="10.00"> </text>
<polyline fill="none" stroke="#bfbfbf" points="814,-516 843,-516 "/>
<text text-anchor="middle" x="828.5" y="-504" font-family="Helvetica,sans-Serif" font-size="10.00"> </text>
</a>
</g>
</g>
<!-- Node7&#45;&gt;Node6 -->
<g id="edge6" class="edge">
<title>Node7&#45;&gt;Node6</title>
<path fill="none" stroke="#404040" d="M828.5,-496.9C828.5,-483 828.5,-465.89 828.5,-450.57"/>
<polygon fill="none" stroke="#404040" points="828.5,-450.24 824.5,-444.24 828.5,-438.24 832.5,-444.24 828.5,-450.24"/>
<text text-anchor="middle" x="845.5" y="-465" font-family="Helvetica,sans-Serif" font-size="10.00"> +keys</text>
</g>
<!-- Node8 -->
<g id="node8" class="node">
<title>Node8</title>
<g id="a_node8"><a xlink:title=" ">
<polygon fill="white" stroke="#bfbfbf" points="585,-497 585,-554 614,-554 614,-497 585,-497"/>
<text text-anchor="middle" x="599.5" y="-542" font-family="Helvetica,sans-Serif" font-size="10.00">T</text>
<polyline fill="none" stroke="#bfbfbf" points="585,-535 614,-535 "/>
<text text-anchor="middle" x="599.5" y="-523" font-family="Helvetica,sans-Serif" font-size="10.00"> </text>
<polyline fill="none" stroke="#bfbfbf" points="585,-516 614,-516 "/>
<text text-anchor="middle" x="599.5" y="-504" font-family="Helvetica,sans-Serif" font-size="10.00"> </text>
</a>
</g>
</g>
<!-- Node8&#45;&gt;Node6 -->
<g id="edge7" class="edge">
<title>Node8&#45;&gt;Node6</title>
<path fill="none" stroke="#404040" d="M614.17,-517.2C644.4,-502.15 715.14,-466.93 767.11,-441.06"/>
<polygon fill="none" stroke="#404040" points="767.16,-441.04 770.75,-434.78 777.9,-435.69 774.31,-441.94 767.16,-441.04"/>
<text text-anchor="middle" x="749.5" y="-465" font-family="Helvetica,sans-Serif" font-size="10.00"> +elements</text>
</g>
<!-- Node10 -->
<g id="node10" class="node">
<title>Node10</title>
<g id="a_node10"><a xlink:title=" ">
<polygon fill="white" stroke="#bfbfbf" points="436.5,-381 436.5,-438 554.5,-438 554.5,-381 436.5,-381"/>
<text text-anchor="middle" x="495.5" y="-426" font-family="Helvetica,sans-Serif" font-size="10.00">std::unique_ptr&lt; T &gt;</text>
<polyline fill="none" stroke="#bfbfbf" points="436.5,-419 554.5,-419 "/>
<text text-anchor="middle" x="495.5" y="-407" font-family="Helvetica,sans-Serif" font-size="10.00"> </text>
<polyline fill="none" stroke="#bfbfbf" points="436.5,-400 554.5,-400 "/>
<text text-anchor="start" x="444.5" y="-388" font-family="Helvetica,sans-Serif" font-size="10.00">+ operator&#45;&gt;()</text>
</a>
</g>
</g>
<!-- Node8&#45;&gt;Node10 -->
<g id="edge10" class="edge">
<title>Node8&#45;&gt;Node10</title>
<path fill="none" stroke="#404040" d="M584.6,-508.17C570.18,-492.36 547.83,-467.86 529.12,-447.35"/>
<polygon fill="none" stroke="#404040" points="528.9,-447.12 521.91,-445.38 520.82,-438.25 527.82,-439.99 528.9,-447.12"/>
<text text-anchor="middle" x="563" y="-465" font-family="Helvetica,sans-Serif" font-size="10.00"> +ptr</text>
</g>
<!-- Node9 -->
<g id="node9" class="node">
<title>Node9</title>
<g id="a_node9"><a xlink:title=" ">
<polygon fill="white" stroke="#bfbfbf" points="0,-199 0,-267 169,-267 169,-199 0,-199"/>
<text text-anchor="start" x="8" y="-255" font-family="Helvetica,sans-Serif" font-size="10.00">std::unique_ptr&lt; RayTracer</text>
<text text-anchor="middle" x="84.5" y="-244" font-family="Helvetica,sans-Serif" font-size="10.00">::Plugins::Filters::FilterLoader &gt;</text>
<polyline fill="none" stroke="#bfbfbf" points="0,-237 169,-237 "/>
<text text-anchor="start" x="8" y="-225" font-family="Helvetica,sans-Serif" font-size="10.00">+ ptr</text>
<polyline fill="none" stroke="#bfbfbf" points="0,-218 169,-218 "/>
<text text-anchor="start" x="8" y="-206" font-family="Helvetica,sans-Serif" font-size="10.00">+ operator&#45;&gt;()</text>
</a>
</g>
</g>
<!-- Node9&#45;&gt;Node1 -->
<g id="edge8" class="edge">
<title>Node9&#45;&gt;Node1</title>
<path fill="none" stroke="#404040" d="M119.45,-198.98C136.14,-184.93 157.12,-169.6 178.5,-160 334.96,-89.76 538.43,-67.58 642.57,-60.63"/>
<polygon fill="none" stroke="#404040" points="642.79,-60.61 648.53,-56.24 654.77,-59.85 649.03,-64.23 642.79,-60.61"/>
<text text-anchor="middle" x="281.5" y="-134" font-family="Helvetica,sans-Serif" font-size="10.00"> &#45;_filterLoader</text>
</g>
<!-- Node10&#45;&gt;Node9 -->
<g id="edge9" class="edge">
<title>Node10&#45;&gt;Node9</title>
<path fill="none" stroke="orange" d="M426.21,-407.64C365.42,-404.29 276.24,-392.89 207.5,-357 166.41,-335.55 130.37,-295.6 108.1,-267.05"/>
<polygon fill="orange" stroke="orange" points="426.31,-411.15 436.47,-408.15 426.65,-404.16 426.31,-411.15"/>
<text text-anchor="start" x="207.5" y="-343.5" font-family="Helvetica,sans-Serif" font-size="10.00"> &lt; RayTracer::Plugins</text>
<text text-anchor="middle" x="263.5" y="-332.5" font-family="Helvetica,sans-Serif" font-size="10.00">::Filters::FilterLoader &gt;</text>
</g>
<!-- Node13 -->
<g id="node13" class="node">
<title>Node13</title>
<g id="a_node13"><a xlink:title=" ">
<polygon fill="white" stroke="#bfbfbf" points="187.5,-199 187.5,-267 387.5,-267 387.5,-199 187.5,-199"/>
<text text-anchor="start" x="195.5" y="-255" font-family="Helvetica,sans-Serif" font-size="10.00">std::unique_ptr&lt; RayTracer</text>
<text text-anchor="middle" x="287.5" y="-244" font-family="Helvetica,sans-Serif" font-size="10.00">::Plugins::Materials::MaterialLoader &gt;</text>
<polyline fill="none" stroke="#bfbfbf" points="187.5,-237 387.5,-237 "/>
<text text-anchor="start" x="195.5" y="-225" font-family="Helvetica,sans-Serif" font-size="10.00">+ ptr</text>
<polyline fill="none" stroke="#bfbfbf" points="187.5,-218 387.5,-218 "/>
<text text-anchor="start" x="195.5" y="-206" font-family="Helvetica,sans-Serif" font-size="10.00">+ operator&#45;&gt;()</text>
</a>
</g>
</g>
<!-- Node10&#45;&gt;Node13 -->
<g id="edge14" class="edge">
<title>Node10&#45;&gt;Node13</title>
<path fill="none" stroke="orange" d="M426.68,-396.1C399.84,-388.47 370.34,-376.3 348.5,-357 321.53,-333.17 305.15,-294.66 296.26,-267.07"/>
<polygon fill="orange" stroke="orange" points="425.87,-399.51 436.43,-398.72 427.68,-392.75 425.87,-399.51"/>
<text text-anchor="start" x="348.5" y="-343.5" font-family="Helvetica,sans-Serif" font-size="10.00"> &lt; RayTracer::Plugins</text>
<text text-anchor="middle" x="420" y="-332.5" font-family="Helvetica,sans-Serif" font-size="10.00">::Materials::MaterialLoader &gt;</text>
</g>
<!-- Node14 -->
<g id="node14" class="node">
<title>Node14</title>
<g id="a_node14"><a xlink:title=" ">
<polygon fill="white" stroke="#bfbfbf" points="406,-199 406,-267 585,-267 585,-199 406,-199"/>
<text text-anchor="start" x="414" y="-255" font-family="Helvetica,sans-Serif" font-size="10.00">std::unique_ptr&lt; RayTracer</text>
<text text-anchor="middle" x="495.5" y="-244" font-family="Helvetica,sans-Serif" font-size="10.00">::Plugins::Entities::EntityLoader &gt;</text>
<polyline fill="none" stroke="#bfbfbf" points="406,-237 585,-237 "/>
<text text-anchor="start" x="414" y="-225" font-family="Helvetica,sans-Serif" font-size="10.00">+ ptr</text>
<polyline fill="none" stroke="#bfbfbf" points="406,-218 585,-218 "/>
<text text-anchor="start" x="414" y="-206" font-family="Helvetica,sans-Serif" font-size="10.00">+ operator&#45;&gt;()</text>
</a>
</g>
</g>
<!-- Node10&#45;&gt;Node14 -->
<g id="edge17" class="edge">
<title>Node10&#45;&gt;Node14</title>
<path fill="none" stroke="orange" d="M495.5,-370.5C495.5,-339.67 495.5,-296.64 495.5,-267.18"/>
<polygon fill="orange" stroke="orange" points="492,-370.85 495.5,-380.85 499,-370.85 492,-370.85"/>
<text text-anchor="start" x="495.5" y="-343.5" font-family="Helvetica,sans-Serif" font-size="10.00"> &lt; RayTracer::Plugins</text>
<text text-anchor="middle" x="556.5" y="-332.5" font-family="Helvetica,sans-Serif" font-size="10.00">::Entities::EntityLoader &gt;</text>
</g>
<!-- Node15 -->
<g id="node15" class="node">
<title>Node15</title>
<g id="a_node15"><a xlink:title=" ">
<polygon fill="white" stroke="#bfbfbf" points="862,-199 862,-267 1011,-267 1011,-199 862,-199"/>
<text text-anchor="start" x="870" y="-255" font-family="Helvetica,sans-Serif" font-size="10.00">std::unique_ptr&lt; RayTracer</text>
<text text-anchor="middle" x="936.5" y="-244" font-family="Helvetica,sans-Serif" font-size="10.00">::Scenes::IConfig &gt;</text>
<polyline fill="none" stroke="#bfbfbf" points="862,-237 1011,-237 "/>
<text text-anchor="start" x="870" y="-225" font-family="Helvetica,sans-Serif" font-size="10.00">+ ptr</text>
<polyline fill="none" stroke="#bfbfbf" points="862,-218 1011,-218 "/>
<text text-anchor="start" x="870" y="-206" font-family="Helvetica,sans-Serif" font-size="10.00">+ operator&#45;&gt;()</text>
</a>
</g>
</g>
<!-- Node10&#45;&gt;Node15 -->
<g id="edge19" class="edge">
<title>Node10&#45;&gt;Node15</title>
<path fill="none" stroke="orange" d="M564.18,-383.02C615.51,-364.68 687.7,-340.4 752.5,-324 796.28,-312.92 811.71,-325.37 852.5,-306 872.28,-296.61 891.1,-281.3 905.89,-267.21"/>
<polygon fill="orange" stroke="orange" points="562.76,-379.81 554.53,-386.48 565.12,-386.4 562.76,-379.81"/>
<text text-anchor="start" x="752.5" y="-343.5" font-family="Helvetica,sans-Serif" font-size="10.00"> &lt; RayTracer::Scenes</text>
<text text-anchor="middle" x="804" y="-332.5" font-family="Helvetica,sans-Serif" font-size="10.00">::IConfig &gt;</text>
</g>
<!-- Node11 -->
<g id="node11" class="node">
<title>Node11</title>
<g id="a_node11"><a xlink:title=" ">
<polygon fill="white" stroke="#bfbfbf" points="603.5,-204.5 603.5,-261.5 689.5,-261.5 689.5,-204.5 603.5,-204.5"/>
<text text-anchor="middle" x="646.5" y="-249.5" font-family="Helvetica,sans-Serif" font-size="10.00">file_time_type</text>
<polyline fill="none" stroke="#bfbfbf" points="603.5,-242.5 689.5,-242.5 "/>
<text text-anchor="middle" x="646.5" y="-230.5" font-family="Helvetica,sans-Serif" font-size="10.00"> </text>
<polyline fill="none" stroke="#bfbfbf" points="603.5,-223.5 689.5,-223.5 "/>
<text text-anchor="middle" x="646.5" y="-211.5" font-family="Helvetica,sans-Serif" font-size="10.00"> </text>
</a>
</g>
</g>
<!-- Node11&#45;&gt;Node1 -->
<g id="edge11" class="edge">
<title>Node11&#45;&gt;Node1</title>
<path fill="none" stroke="#404040" d="M651.42,-204.44C655.55,-183.81 662.27,-155.13 671.5,-131 672.41,-128.63 673.37,-126.24 674.39,-123.84"/>
<polygon fill="none" stroke="#404040" points="674.51,-123.56 673.32,-116.45 679.42,-112.61 680.62,-119.72 674.51,-123.56"/>
<text text-anchor="middle" x="712.5" y="-134" font-family="Helvetica,sans-Serif" font-size="10.00"> &#45;_lastWriteTime</text>
</g>
<!-- Node12 -->
<g id="node12" class="node">
<title>Node12</title>
<g id="a_node12"><a xlink:href="a01368.html" target="_top" xlink:title="Logger singleton.">
<polygon fill="white" stroke="black" points="707.5,-160.5 707.5,-305.5 843.5,-305.5 843.5,-160.5 707.5,-160.5"/>
<text text-anchor="middle" x="775.5" y="-293.5" font-family="Helvetica,sans-Serif" font-size="10.00">RayTracer::ILogger</text>
<polyline fill="none" stroke="black" points="707.5,-286.5 843.5,-286.5 "/>
<text text-anchor="middle" x="775.5" y="-274.5" font-family="Helvetica,sans-Serif" font-size="10.00"> </text>
<polyline fill="none" stroke="black" points="707.5,-267.5 843.5,-267.5 "/>
<text text-anchor="start" x="715.5" y="-255.5" font-family="Helvetica,sans-Serif" font-size="10.00">+ ~ILogger()</text>
<text text-anchor="start" x="715.5" y="-244.5" font-family="Helvetica,sans-Serif" font-size="10.00">+ fatal()</text>
<text text-anchor="start" x="715.5" y="-233.5" font-family="Helvetica,sans-Serif" font-size="10.00">+ error()</text>
<text text-anchor="start" x="715.5" y="-222.5" font-family="Helvetica,sans-Serif" font-size="10.00">+ warn()</text>
<text text-anchor="start" x="715.5" y="-211.5" font-family="Helvetica,sans-Serif" font-size="10.00">+ info()</text>
<text text-anchor="start" x="715.5" y="-200.5" font-family="Helvetica,sans-Serif" font-size="10.00">+ debug()</text>
<text text-anchor="start" x="715.5" y="-189.5" font-family="Helvetica,sans-Serif" font-size="10.00">+ trace()</text>
<text text-anchor="start" x="715.5" y="-178.5" font-family="Helvetica,sans-Serif" font-size="10.00">+ subscribeCallback()</text>
<text text-anchor="start" x="715.5" y="-167.5" font-family="Helvetica,sans-Serif" font-size="10.00">+ unsubscribeCallback()</text>
</a>
</g>
</g>
<!-- Node12&#45;&gt;Node1 -->
<g id="edge12" class="edge">
<title>Node12&#45;&gt;Node1</title>
<path fill="none" stroke="#404040" d="M762.81,-160.26C760.2,-150.28 757.12,-140.28 753.5,-131 752.58,-128.63 751.58,-126.25 750.53,-123.87"/>
<polygon fill="none" stroke="#404040" points="750.41,-123.61 744.22,-119.9 745.26,-112.76 751.45,-116.47 750.41,-123.61"/>
<text text-anchor="middle" x="778" y="-134" font-family="Helvetica,sans-Serif" font-size="10.00"> &#45;_logger</text>
</g>
<!-- Node13&#45;&gt;Node1 -->
<g id="edge13" class="edge">
<title>Node13&#45;&gt;Node1</title>
<path fill="none" stroke="#404040" d="M332.21,-198.89C351.59,-185.56 374.97,-170.83 397.5,-160 478.64,-121 578.37,-91.2 643.13,-74.04"/>
<polygon fill="none" stroke="#404040" points="643.2,-74.02 647.99,-68.63 654.81,-70.98 650.02,-76.37 643.2,-74.02"/>
<text text-anchor="middle" x="507" y="-134" font-family="Helvetica,sans-Serif" font-size="10.00"> &#45;_materialLoader</text>
</g>
<!-- Node14&#45;&gt;Node1 -->
<g id="edge16" class="edge">
<title>Node14&#45;&gt;Node1</title>
<path fill="none" stroke="#404040" d="M522.24,-198.86C540.03,-177.99 564.61,-151.27 589.5,-131 606.3,-117.31 625.89,-104.33 644.35,-93.2"/>
<polygon fill="none" stroke="#404040" points="644.43,-93.15 647.55,-86.65 654.75,-87.04 651.63,-93.53 644.43,-93.15"/>
<text text-anchor="middle" x="626.5" y="-134" font-family="Helvetica,sans-Serif" font-size="10.00"> &#45;_entityLoader</text>
</g>
<!-- Node15&#45;&gt;Node1 -->
<g id="edge18" class="edge">
<title>Node15&#45;&gt;Node1</title>
<path fill="none" stroke="#404040" d="M899.01,-198.7C884.68,-186.28 868.04,-172.24 852.5,-160 828.04,-140.74 800.43,-120.49 776.1,-103.12"/>
<polygon fill="none" stroke="#404040" points="776.03,-103.07 768.82,-102.86 766.25,-96.12 773.46,-96.34 776.03,-103.07"/>
<text text-anchor="middle" x="867" y="-134" font-family="Helvetica,sans-Serif" font-size="10.00"> &#45;_configWrapper</text>
</g>
</g>
</svg>
