<?xml version="1.0" encoding="UTF-8" standalone="no"?>
<!DOCTYPE svg PUBLIC "-//W3C//DTD SVG 1.1//EN"
 "http://www.w3.org/Graphics/SVG/1.1/DTD/svg11.dtd">
<!-- Generated by graphviz version 2.43.0 (0)
 -->
<!-- Title: RayTracer::PluginsExt::SpotLight::SpotLightEntity Pages: 1 -->
<svg width="644pt" height="898pt"
 viewBox="0.00 0.00 644.00 898.00" xmlns="http://www.w3.org/2000/svg" xmlns:xlink="http://www.w3.org/1999/xlink">
<g id="graph0" class="graph" transform="scale(1 1) rotate(0) translate(4 894)">
<title>RayTracer::PluginsExt::SpotLight::SpotLightEntity</title>
<polygon fill="white" stroke="transparent" points="-4,4 -4,-894 640,-894 640,4 -4,4"/>
<!-- Node1 -->
<g id="node1" class="node">
<title>Node1</title>
<g id="a_node1"><a xlink:title=" ">
<polygon fill="#bfbfbf" stroke="black" points="344,-0.5 344,-167.5 493,-167.5 493,-0.5 344,-0.5"/>
<text text-anchor="start" x="352" y="-155.5" font-family="Helvetica,sans-Serif" font-size="10.00">RayTracer::PluginsExt</text>
<text text-anchor="middle" x="418.5" y="-144.5" font-family="Helvetica,sans-Serif" font-size="10.00">::SpotLight::SpotLightEntity</text>
<polyline fill="none" stroke="black" points="344,-137.5 493,-137.5 "/>
<text text-anchor="middle" x="418.5" y="-125.5" font-family="Helvetica,sans-Serif" font-size="10.00"> </text>
<polyline fill="none" stroke="black" points="344,-118.5 493,-118.5 "/>
<text text-anchor="start" x="352" y="-106.5" font-family="Helvetica,sans-Serif" font-size="10.00">+ SpotLightEntity()</text>
<text text-anchor="start" x="352" y="-95.5" font-family="Helvetica,sans-Serif" font-size="10.00">+ ~SpotLightEntity()</text>
<text text-anchor="start" x="352" y="-84.5" font-family="Helvetica,sans-Serif" font-size="10.00">+ getType()</text>
<text text-anchor="start" x="352" y="-73.5" font-family="Helvetica,sans-Serif" font-size="10.00">+ getTransform()</text>
<text text-anchor="start" x="352" y="-62.5" font-family="Helvetica,sans-Serif" font-size="10.00">+ getTransform()</text>
<text text-anchor="start" x="352" y="-51.5" font-family="Helvetica,sans-Serif" font-size="10.00">+ getColor()</text>
<text text-anchor="start" x="352" y="-40.5" font-family="Helvetica,sans-Serif" font-size="10.00">+ getColor()</text>
<text text-anchor="start" x="352" y="-29.5" font-family="Helvetica,sans-Serif" font-size="10.00">+ setColor()</text>
<text text-anchor="start" x="352" y="-18.5" font-family="Helvetica,sans-Serif" font-size="10.00">+ isAmbient()</text>
<text text-anchor="start" x="352" y="-7.5" font-family="Helvetica,sans-Serif" font-size="10.00">+ getPower()</text>
</a>
</g>
</g>
<!-- Node2 -->
<g id="node2" class="node">
<title>Node2</title>
<g id="a_node2"><a xlink:href="a01179.html" target="_top" xlink:title="The ILight class.">
<polygon fill="white" stroke="black" points="70,-226.5 70,-349.5 177,-349.5 177,-226.5 70,-226.5"/>
<text text-anchor="start" x="78" y="-337.5" font-family="Helvetica,sans-Serif" font-size="10.00">RayTracer::Entities</text>
<text text-anchor="middle" x="123.5" y="-326.5" font-family="Helvetica,sans-Serif" font-size="10.00">::ILight</text>
<polyline fill="none" stroke="black" points="70,-319.5 177,-319.5 "/>
<text text-anchor="middle" x="123.5" y="-307.5" font-family="Helvetica,sans-Serif" font-size="10.00"> </text>
<polyline fill="none" stroke="black" points="70,-300.5 177,-300.5 "/>
<text text-anchor="start" x="78" y="-288.5" font-family="Helvetica,sans-Serif" font-size="10.00">+ ~ILight()</text>
<text text-anchor="start" x="78" y="-277.5" font-family="Helvetica,sans-Serif" font-size="10.00">+ getColor()</text>
<text text-anchor="start" x="78" y="-266.5" font-family="Helvetica,sans-Serif" font-size="10.00">+ getColor()</text>
<text text-anchor="start" x="78" y="-255.5" font-family="Helvetica,sans-Serif" font-size="10.00">+ setColor()</text>
<text text-anchor="start" x="78" y="-244.5" font-family="Helvetica,sans-Serif" font-size="10.00">+ isAmbient()</text>
<text text-anchor="start" x="78" y="-233.5" font-family="Helvetica,sans-Serif" font-size="10.00">+ getPower()</text>
</a>
</g>
</g>
<!-- Node2&#45;&gt;Node1 -->
<g id="edge1" class="edge">
<title>Node2&#45;&gt;Node1</title>
<path fill="none" stroke="midnightblue" d="M185.67,-244.43C231.79,-212.85 294.87,-169.66 343.73,-136.2"/>
<polygon fill="none" stroke="midnightblue" points="183.54,-241.65 177.26,-250.18 187.49,-247.42 183.54,-241.65"/>
</g>
<!-- Node3 -->
<g id="node3" class="node">
<title>Node3</title>
<g id="a_node3"><a xlink:href="a01175.html" target="_top" xlink:title="The IEntity class.">
<polygon fill="white" stroke="black" points="0,-540.5 0,-641.5 107,-641.5 107,-540.5 0,-540.5"/>
<text text-anchor="start" x="8" y="-629.5" font-family="Helvetica,sans-Serif" font-size="10.00">RayTracer::Entities</text>
<text text-anchor="middle" x="53.5" y="-618.5" font-family="Helvetica,sans-Serif" font-size="10.00">::IEntity</text>
<polyline fill="none" stroke="black" points="0,-611.5 107,-611.5 "/>
<text text-anchor="middle" x="53.5" y="-599.5" font-family="Helvetica,sans-Serif" font-size="10.00"> </text>
<polyline fill="none" stroke="black" points="0,-592.5 107,-592.5 "/>
<text text-anchor="start" x="8" y="-580.5" font-family="Helvetica,sans-Serif" font-size="10.00">+ ~IEntity()</text>
<text text-anchor="start" x="8" y="-569.5" font-family="Helvetica,sans-Serif" font-size="10.00">+ getTransform()</text>
<text text-anchor="start" x="8" y="-558.5" font-family="Helvetica,sans-Serif" font-size="10.00">+ getTransform()</text>
<text text-anchor="start" x="8" y="-547.5" font-family="Helvetica,sans-Serif" font-size="10.00">+ getType()</text>
</a>
</g>
</g>
<!-- Node3&#45;&gt;Node2 -->
<g id="edge2" class="edge">
<title>Node3&#45;&gt;Node2</title>
<path fill="none" stroke="midnightblue" d="M67.34,-530.49C79.51,-478.16 97.14,-402.36 109.39,-349.69"/>
<polygon fill="none" stroke="midnightblue" points="63.92,-529.76 65.06,-540.3 70.73,-531.35 63.92,-529.76"/>
</g>
<!-- Node4 -->
<g id="node4" class="node">
<title>Node4</title>
<g id="a_node4"><a xlink:href="a01195.html" target="_top" xlink:title="The Transform class.">
<polygon fill="white" stroke="black" points="264.5,-215.5 264.5,-360.5 390.5,-360.5 390.5,-215.5 264.5,-215.5"/>
<text text-anchor="start" x="272.5" y="-348.5" font-family="Helvetica,sans-Serif" font-size="10.00">RayTracer::Entities</text>
<text text-anchor="middle" x="327.5" y="-337.5" font-family="Helvetica,sans-Serif" font-size="10.00">::Transform::Transform</text>
<polyline fill="none" stroke="black" points="264.5,-330.5 390.5,-330.5 "/>
<text text-anchor="middle" x="327.5" y="-318.5" font-family="Helvetica,sans-Serif" font-size="10.00"> </text>
<polyline fill="none" stroke="black" points="264.5,-311.5 390.5,-311.5 "/>
<text text-anchor="start" x="272.5" y="-299.5" font-family="Helvetica,sans-Serif" font-size="10.00">+ Transform()</text>
<text text-anchor="start" x="272.5" y="-288.5" font-family="Helvetica,sans-Serif" font-size="10.00">+ setPosition()</text>
<text text-anchor="start" x="272.5" y="-277.5" font-family="Helvetica,sans-Serif" font-size="10.00">+ getPosition()</text>
<text text-anchor="start" x="272.5" y="-266.5" font-family="Helvetica,sans-Serif" font-size="10.00">+ setRotation()</text>
<text text-anchor="start" x="272.5" y="-255.5" font-family="Helvetica,sans-Serif" font-size="10.00">+ getRotation()</text>
<text text-anchor="start" x="272.5" y="-244.5" font-family="Helvetica,sans-Serif" font-size="10.00">+ setScale()</text>
<text text-anchor="start" x="272.5" y="-233.5" font-family="Helvetica,sans-Serif" font-size="10.00">+ getScale()</text>
<text text-anchor="start" x="272.5" y="-222.5" font-family="Helvetica,sans-Serif" font-size="10.00">+ operator=()</text>
</a>
</g>
</g>
<!-- Node4&#45;&gt;Node1 -->
<g id="edge3" class="edge">
<title>Node4&#45;&gt;Node1</title>
<path fill="none" stroke="#404040" d="M334.42,-215.43C336.66,-205.33 339.61,-195.25 343.5,-186 344.55,-183.51 345.67,-181.02 346.86,-178.54"/>
<polygon fill="none" stroke="#404040" points="346.93,-178.4 346.14,-171.23 352.45,-167.75 353.24,-174.91 346.93,-178.4"/>
<text text-anchor="middle" x="374" y="-189" font-family="Helvetica,sans-Serif" font-size="10.00"> &#45;_transform</text>
</g>
<!-- Node5 -->
<g id="node5" class="node">
<title>Node5</title>
<g id="a_node5"><a xlink:href="a01191.html" target="_top" xlink:title="The ITransform class.">
<polygon fill="white" stroke="black" points="125,-518.5 125,-663.5 254,-663.5 254,-518.5 125,-518.5"/>
<text text-anchor="start" x="133" y="-651.5" font-family="Helvetica,sans-Serif" font-size="10.00">RayTracer::Entities</text>
<text text-anchor="middle" x="189.5" y="-640.5" font-family="Helvetica,sans-Serif" font-size="10.00">::Transform::ITransform</text>
<polyline fill="none" stroke="black" points="125,-633.5 254,-633.5 "/>
<text text-anchor="middle" x="189.5" y="-621.5" font-family="Helvetica,sans-Serif" font-size="10.00"> </text>
<polyline fill="none" stroke="black" points="125,-614.5 254,-614.5 "/>
<text text-anchor="start" x="133" y="-602.5" font-family="Helvetica,sans-Serif" font-size="10.00">+ ~ITransform()</text>
<text text-anchor="start" x="133" y="-591.5" font-family="Helvetica,sans-Serif" font-size="10.00">+ setPosition()</text>
<text text-anchor="start" x="133" y="-580.5" font-family="Helvetica,sans-Serif" font-size="10.00">+ getPosition()</text>
<text text-anchor="start" x="133" y="-569.5" font-family="Helvetica,sans-Serif" font-size="10.00">+ setRotation()</text>
<text text-anchor="start" x="133" y="-558.5" font-family="Helvetica,sans-Serif" font-size="10.00">+ getRotation()</text>
<text text-anchor="start" x="133" y="-547.5" font-family="Helvetica,sans-Serif" font-size="10.00">+ setScale()</text>
<text text-anchor="start" x="133" y="-536.5" font-family="Helvetica,sans-Serif" font-size="10.00">+ getScale()</text>
<text text-anchor="start" x="133" y="-525.5" font-family="Helvetica,sans-Serif" font-size="10.00">+ operator=()</text>
</a>
</g>
</g>
<!-- Node5&#45;&gt;Node4 -->
<g id="edge4" class="edge">
<title>Node5&#45;&gt;Node4</title>
<path fill="none" stroke="midnightblue" d="M226.55,-509.19C247.77,-462.91 274.16,-405.35 294.63,-360.69"/>
<polygon fill="none" stroke="midnightblue" points="223.37,-507.74 222.38,-518.29 229.73,-510.65 223.37,-507.74"/>
</g>
<!-- Node6 -->
<g id="node6" class="node">
<title>Node6</title>
<g id="a_node6"><a xlink:href="a01203.html" target="_top" xlink:title="The Vector3f class.">
<polygon fill="white" stroke="black" points="272.5,-430.5 272.5,-751.5 390.5,-751.5 390.5,-430.5 272.5,-430.5"/>
<text text-anchor="start" x="280.5" y="-739.5" font-family="Helvetica,sans-Serif" font-size="10.00">RayTracer::Entities</text>
<text text-anchor="middle" x="331.5" y="-728.5" font-family="Helvetica,sans-Serif" font-size="10.00">::Transform::Vector3f</text>
<polyline fill="none" stroke="black" points="272.5,-721.5 390.5,-721.5 "/>
<text text-anchor="middle" x="331.5" y="-709.5" font-family="Helvetica,sans-Serif" font-size="10.00"> </text>
<polyline fill="none" stroke="black" points="272.5,-702.5 390.5,-702.5 "/>
<text text-anchor="start" x="280.5" y="-690.5" font-family="Helvetica,sans-Serif" font-size="10.00">+ ~Vector3f()</text>
<text text-anchor="start" x="280.5" y="-679.5" font-family="Helvetica,sans-Serif" font-size="10.00">+ Vector3f()</text>
<text text-anchor="start" x="280.5" y="-668.5" font-family="Helvetica,sans-Serif" font-size="10.00">+ Vector3f()</text>
<text text-anchor="start" x="280.5" y="-657.5" font-family="Helvetica,sans-Serif" font-size="10.00">+ Vector3f()</text>
<text text-anchor="start" x="280.5" y="-646.5" font-family="Helvetica,sans-Serif" font-size="10.00">+ Vector3f()</text>
<text text-anchor="start" x="280.5" y="-635.5" font-family="Helvetica,sans-Serif" font-size="10.00">+ operator+()</text>
<text text-anchor="start" x="280.5" y="-624.5" font-family="Helvetica,sans-Serif" font-size="10.00">+ operator&#45;()</text>
<text text-anchor="start" x="280.5" y="-613.5" font-family="Helvetica,sans-Serif" font-size="10.00">+ operator*()</text>
<text text-anchor="start" x="280.5" y="-602.5" font-family="Helvetica,sans-Serif" font-size="10.00">+ operator/()</text>
<text text-anchor="start" x="280.5" y="-591.5" font-family="Helvetica,sans-Serif" font-size="10.00">+ operator=()</text>
<text text-anchor="start" x="280.5" y="-580.5" font-family="Helvetica,sans-Serif" font-size="10.00">+ getX()</text>
<text text-anchor="start" x="280.5" y="-569.5" font-family="Helvetica,sans-Serif" font-size="10.00">+ getY()</text>
<text text-anchor="start" x="280.5" y="-558.5" font-family="Helvetica,sans-Serif" font-size="10.00">+ getZ()</text>
<text text-anchor="start" x="280.5" y="-547.5" font-family="Helvetica,sans-Serif" font-size="10.00">+ getNorm()</text>
<text text-anchor="start" x="280.5" y="-536.5" font-family="Helvetica,sans-Serif" font-size="10.00">+ getNormalized()</text>
<text text-anchor="start" x="280.5" y="-525.5" font-family="Helvetica,sans-Serif" font-size="10.00">+ dot()</text>
<text text-anchor="start" x="280.5" y="-514.5" font-family="Helvetica,sans-Serif" font-size="10.00">+ getDistance()</text>
<text text-anchor="start" x="280.5" y="-503.5" font-family="Helvetica,sans-Serif" font-size="10.00">+ toDegrees()</text>
<text text-anchor="start" x="280.5" y="-492.5" font-family="Helvetica,sans-Serif" font-size="10.00">+ toRadians()</text>
<text text-anchor="start" x="280.5" y="-481.5" font-family="Helvetica,sans-Serif" font-size="10.00">+ rotateVector()</text>
<text text-anchor="start" x="280.5" y="-470.5" font-family="Helvetica,sans-Serif" font-size="10.00">+ getAngle()</text>
<text text-anchor="start" x="280.5" y="-459.5" font-family="Helvetica,sans-Serif" font-size="10.00">+ rotateX()</text>
<text text-anchor="start" x="280.5" y="-448.5" font-family="Helvetica,sans-Serif" font-size="10.00">+ rotateY()</text>
<text text-anchor="start" x="280.5" y="-437.5" font-family="Helvetica,sans-Serif" font-size="10.00">+ rotateZ()</text>
</a>
</g>
</g>
<!-- Node6&#45;&gt;Node4 -->
<g id="edge5" class="edge">
<title>Node6&#45;&gt;Node4</title>
<path fill="none" stroke="#404040" d="M329.38,-430.25C329.11,-410.47 328.85,-390.9 328.62,-372.93"/>
<polygon fill="none" stroke="#404040" points="328.61,-372.75 324.53,-366.8 328.45,-360.75 332.53,-366.7 328.61,-372.75"/>
<text text-anchor="middle" x="355.5" y="-404" font-family="Helvetica,sans-Serif" font-size="10.00"> &#45;_position</text>
<text text-anchor="middle" x="355.5" y="-393" font-family="Helvetica,sans-Serif" font-size="10.00">&#45;_rotation</text>
<text text-anchor="middle" x="355.5" y="-382" font-family="Helvetica,sans-Serif" font-size="10.00">&#45;_scale</text>
</g>
<!-- Node7 -->
<g id="node7" class="node">
<title>Node7</title>
<g id="a_node7"><a xlink:title=" ">
<polygon fill="white" stroke="#bfbfbf" points="393.5,-832.5 393.5,-889.5 443.5,-889.5 443.5,-832.5 393.5,-832.5"/>
<text text-anchor="middle" x="418.5" y="-877.5" font-family="Helvetica,sans-Serif" font-size="10.00">double</text>
<polyline fill="none" stroke="#bfbfbf" points="393.5,-870.5 443.5,-870.5 "/>
<text text-anchor="middle" x="418.5" y="-858.5" font-family="Helvetica,sans-Serif" font-size="10.00"> </text>
<polyline fill="none" stroke="#bfbfbf" points="393.5,-851.5 443.5,-851.5 "/>
<text text-anchor="middle" x="418.5" y="-839.5" font-family="Helvetica,sans-Serif" font-size="10.00"> </text>
</a>
</g>
</g>
<!-- Node7&#45;&gt;Node1 -->
<g id="edge7" class="edge">
<title>Node7&#45;&gt;Node1</title>
<path fill="none" stroke="#404040" d="M418.5,-832.42C418.5,-728.35 418.5,-356.5 418.5,-179.7"/>
<polygon fill="none" stroke="#404040" points="418.5,-179.57 414.5,-173.57 418.5,-167.57 422.5,-173.57 418.5,-179.57"/>
<text text-anchor="middle" x="438.5" y="-404" font-family="Helvetica,sans-Serif" font-size="10.00"> &#45;_angle</text>
<text text-anchor="middle" x="438.5" y="-393" font-family="Helvetica,sans-Serif" font-size="10.00">&#45;_power</text>
<text text-anchor="middle" x="438.5" y="-382" font-family="Helvetica,sans-Serif" font-size="10.00">&#45;_radius</text>
</g>
<!-- Node7&#45;&gt;Node6 -->
<g id="edge6" class="edge">
<title>Node7&#45;&gt;Node6</title>
<path fill="none" stroke="#404040" d="M396.1,-832.34C392.14,-826.52 388.37,-820.25 385.5,-814 378.1,-797.88 371.64,-780.63 366.01,-763.12"/>
<polygon fill="none" stroke="#404040" points="365.99,-763.05 360.39,-758.5 362.43,-751.59 368.03,-756.13 365.99,-763.05"/>
<text text-anchor="middle" x="395" y="-800.5" font-family="Helvetica,sans-Serif" font-size="10.00"> &#45;_x</text>
<text text-anchor="middle" x="395" y="-789.5" font-family="Helvetica,sans-Serif" font-size="10.00">&#45;_y</text>
<text text-anchor="middle" x="395" y="-778.5" font-family="Helvetica,sans-Serif" font-size="10.00">&#45;_z</text>
</g>
<!-- Node8 -->
<g id="node8" class="node">
<title>Node8</title>
<g id="a_node8"><a xlink:href="a01243.html" target="_top" xlink:title="The Color class.">
<polygon fill="white" stroke="black" points="447,-480 447,-702 560,-702 560,-480 447,-480"/>
<text text-anchor="start" x="455" y="-690" font-family="Helvetica,sans-Serif" font-size="10.00">RayTracer::Images::</text>
<text text-anchor="middle" x="503.5" y="-679" font-family="Helvetica,sans-Serif" font-size="10.00">Color</text>
<polyline fill="none" stroke="black" points="447,-672 560,-672 "/>
<text text-anchor="middle" x="503.5" y="-660" font-family="Helvetica,sans-Serif" font-size="10.00"> </text>
<polyline fill="none" stroke="black" points="447,-653 560,-653 "/>
<text text-anchor="start" x="455" y="-641" font-family="Helvetica,sans-Serif" font-size="10.00">+ ~Color()</text>
<text text-anchor="start" x="455" y="-630" font-family="Helvetica,sans-Serif" font-size="10.00">+ Color()</text>
<text text-anchor="start" x="455" y="-619" font-family="Helvetica,sans-Serif" font-size="10.00">+ Color()</text>
<text text-anchor="start" x="455" y="-608" font-family="Helvetica,sans-Serif" font-size="10.00">+ Color()</text>
<text text-anchor="start" x="455" y="-597" font-family="Helvetica,sans-Serif" font-size="10.00">+ operator+()</text>
<text text-anchor="start" x="455" y="-586" font-family="Helvetica,sans-Serif" font-size="10.00">+ operator&#45;()</text>
<text text-anchor="start" x="455" y="-575" font-family="Helvetica,sans-Serif" font-size="10.00">+ operator*()</text>
<text text-anchor="start" x="455" y="-564" font-family="Helvetica,sans-Serif" font-size="10.00">+ operator/()</text>
<text text-anchor="start" x="455" y="-553" font-family="Helvetica,sans-Serif" font-size="10.00">+ operator=()</text>
<text text-anchor="start" x="455" y="-542" font-family="Helvetica,sans-Serif" font-size="10.00">+ operator[]()</text>
<text text-anchor="start" x="455" y="-531" font-family="Helvetica,sans-Serif" font-size="10.00">+ operator[]()</text>
<text text-anchor="start" x="455" y="-520" font-family="Helvetica,sans-Serif" font-size="10.00">+ set()</text>
<text text-anchor="start" x="455" y="-509" font-family="Helvetica,sans-Serif" font-size="10.00">+ applyAlpha()</text>
<text text-anchor="start" x="455" y="-498" font-family="Helvetica,sans-Serif" font-size="10.00">+ mergeColor()</text>
<text text-anchor="start" x="455" y="-487" font-family="Helvetica,sans-Serif" font-size="10.00">+ applyDistance()</text>
</a>
</g>
</g>
<!-- Node7&#45;&gt;Node8 -->
<g id="edge9" class="edge">
<title>Node7&#45;&gt;Node8</title>
<path fill="none" stroke="#404040" d="M427.28,-832.33C436.27,-803.97 450.89,-757.88 464.93,-713.61"/>
<polygon fill="none" stroke="#404040" points="464.95,-713.54 462.95,-706.61 468.58,-702.1 470.58,-709.03 464.95,-713.54"/>
<text text-anchor="middle" x="455" y="-806" font-family="Helvetica,sans-Serif" font-size="10.00"> &#45;_a</text>
<text text-anchor="middle" x="455" y="-795" font-family="Helvetica,sans-Serif" font-size="10.00">&#45;_b</text>
<text text-anchor="middle" x="455" y="-784" font-family="Helvetica,sans-Serif" font-size="10.00">&#45;_g</text>
<text text-anchor="middle" x="455" y="-773" font-family="Helvetica,sans-Serif" font-size="10.00">&#45;_r</text>
</g>
<!-- Node8&#45;&gt;Node1 -->
<g id="edge8" class="edge">
<title>Node8&#45;&gt;Node1</title>
<path fill="none" stroke="#404040" d="M484.95,-479.8C469.85,-390.09 448.76,-264.79 434.42,-179.58"/>
<polygon fill="none" stroke="#404040" points="434.39,-179.4 429.45,-174.15 432.4,-167.56 437.34,-172.82 434.39,-179.4"/>
<text text-anchor="middle" x="482" y="-285.5" font-family="Helvetica,sans-Serif" font-size="10.00"> &#45;_color</text>
</g>
<!-- Node9 -->
<g id="node9" class="node">
<title>Node9</title>
<g id="a_node9"><a xlink:title=" ">
<polygon fill="white" stroke="#bfbfbf" points="469,-832.5 469,-889.5 538,-889.5 538,-832.5 469,-832.5"/>
<text text-anchor="middle" x="503.5" y="-877.5" font-family="Helvetica,sans-Serif" font-size="10.00">std::mutex</text>
<polyline fill="none" stroke="#bfbfbf" points="469,-870.5 538,-870.5 "/>
<text text-anchor="middle" x="503.5" y="-858.5" font-family="Helvetica,sans-Serif" font-size="10.00"> </text>
<polyline fill="none" stroke="#bfbfbf" points="469,-851.5 538,-851.5 "/>
<text text-anchor="middle" x="503.5" y="-839.5" font-family="Helvetica,sans-Serif" font-size="10.00"> </text>
</a>
</g>
</g>
<!-- Node9&#45;&gt;Node8 -->
<g id="edge10" class="edge">
<title>Node9&#45;&gt;Node8</title>
<path fill="none" stroke="#404040" d="M503.5,-832.33C503.5,-804.09 503.5,-758.27 503.5,-714.17"/>
<polygon fill="none" stroke="#404040" points="503.5,-714.1 499.5,-708.1 503.5,-702.1 507.5,-708.1 503.5,-714.1"/>
<text text-anchor="middle" x="525.5" y="-789.5" font-family="Helvetica,sans-Serif" font-size="10.00"> &#45;_mutex</text>
</g>
<!-- Node10 -->
<g id="node10" class="node">
<title>Node10</title>
<g id="a_node10"><a xlink:href="a01239.html" target="_top" xlink:title="Logger singleton.">
<polygon fill="white" stroke="black" points="529,-226.5 529,-349.5 636,-349.5 636,-226.5 529,-226.5"/>
<text text-anchor="middle" x="582.5" y="-337.5" font-family="Helvetica,sans-Serif" font-size="10.00">RayTracer::ILogger</text>
<polyline fill="none" stroke="black" points="529,-330.5 636,-330.5 "/>
<text text-anchor="middle" x="582.5" y="-318.5" font-family="Helvetica,sans-Serif" font-size="10.00"> </text>
<polyline fill="none" stroke="black" points="529,-311.5 636,-311.5 "/>
<text text-anchor="start" x="537" y="-299.5" font-family="Helvetica,sans-Serif" font-size="10.00">+ ~ILogger()</text>
<text text-anchor="start" x="537" y="-288.5" font-family="Helvetica,sans-Serif" font-size="10.00">+ fatal()</text>
<text text-anchor="start" x="537" y="-277.5" font-family="Helvetica,sans-Serif" font-size="10.00">+ error()</text>
<text text-anchor="start" x="537" y="-266.5" font-family="Helvetica,sans-Serif" font-size="10.00">+ warn()</text>
<text text-anchor="start" x="537" y="-255.5" font-family="Helvetica,sans-Serif" font-size="10.00">+ info()</text>
<text text-anchor="start" x="537" y="-244.5" font-family="Helvetica,sans-Serif" font-size="10.00">+ debug()</text>
<text text-anchor="start" x="537" y="-233.5" font-family="Helvetica,sans-Serif" font-size="10.00">+ trace()</text>
</a>
</g>
</g>
<!-- Node10&#45;&gt;Node1 -->
<g id="edge11" class="edge">
<title>Node10&#45;&gt;Node1</title>
<path fill="none" stroke="#404040" d="M533.29,-226.39C520.75,-210.95 506.99,-193.99 493.48,-177.35"/>
<polygon fill="none" stroke="#404040" points="493.13,-176.92 486.24,-174.78 485.57,-167.61 492.45,-169.74 493.13,-176.92"/>
<text text-anchor="middle" x="526" y="-189" font-family="Helvetica,sans-Serif" font-size="10.00"> &#45;_logger</text>
</g>
</g>
</svg>
