<?xml version="1.0" encoding="UTF-8" standalone="no"?>
<!DOCTYPE svg PUBLIC "-//W3C//DTD SVG 1.1//EN"
 "http://www.w3.org/Graphics/SVG/1.1/DTD/svg11.dtd">
<!-- Generated by graphviz version 2.43.0 (0)
 -->
<!-- Title: RayTracer::Scenes::ConfigWrapper::WriteException Pages: 1 -->
<svg width="223pt" height="299pt"
 viewBox="0.00 0.00 222.50 299.00" xmlns="http://www.w3.org/2000/svg" xmlns:xlink="http://www.w3.org/1999/xlink">
<g id="graph0" class="graph" transform="scale(1 1) rotate(0) translate(4 295)">
<title>RayTracer::Scenes::ConfigWrapper::WriteException</title>
<polygon fill="white" stroke="transparent" points="-4,4 -4,-295 218.5,-295 218.5,4 -4,4"/>
<!-- Node1 -->
<g id="node1" class="node">
<title>Node1</title>
<g id="a_node1"><a xlink:title="an exception for when the file can&#39;t be written">
<polygon fill="#bfbfbf" stroke="black" points="0,-0.5 0,-79.5 169,-79.5 169,-0.5 0,-0.5"/>
<text text-anchor="start" x="8" y="-67.5" font-family="Helvetica,sans-Serif" font-size="10.00">RayTracer::Scenes::</text>
<text text-anchor="middle" x="84.5" y="-56.5" font-family="Helvetica,sans-Serif" font-size="10.00">ConfigWrapper::WriteException</text>
<polyline fill="none" stroke="black" points="0,-49.5 169,-49.5 "/>
<text text-anchor="middle" x="84.5" y="-37.5" font-family="Helvetica,sans-Serif" font-size="10.00"> </text>
<polyline fill="none" stroke="black" points="0,-30.5 169,-30.5 "/>
<text text-anchor="start" x="8" y="-18.5" font-family="Helvetica,sans-Serif" font-size="10.00">+ WriteException()</text>
<text text-anchor="start" x="8" y="-7.5" font-family="Helvetica,sans-Serif" font-size="10.00">+ what()</text>
</a>
</g>
</g>
<!-- Node2 -->
<g id="node2" class="node">
<title>Node2</title>
<g id="a_node2"><a xlink:title=" ">
<polygon fill="white" stroke="#bfbfbf" points="25.5,-127.5 25.5,-184.5 111.5,-184.5 111.5,-127.5 25.5,-127.5"/>
<text text-anchor="middle" x="68.5" y="-172.5" font-family="Helvetica,sans-Serif" font-size="10.00">std::exception</text>
<polyline fill="none" stroke="#bfbfbf" points="25.5,-165.5 111.5,-165.5 "/>
<text text-anchor="middle" x="68.5" y="-153.5" font-family="Helvetica,sans-Serif" font-size="10.00"> </text>
<polyline fill="none" stroke="#bfbfbf" points="25.5,-146.5 111.5,-146.5 "/>
<text text-anchor="middle" x="68.5" y="-134.5" font-family="Helvetica,sans-Serif" font-size="10.00"> </text>
</a>
</g>
</g>
<!-- Node2&#45;&gt;Node1 -->
<g id="edge1" class="edge">
<title>Node2&#45;&gt;Node1</title>
<path fill="none" stroke="midnightblue" d="M73.81,-117.18C75.51,-105.08 77.39,-91.68 79.09,-79.54"/>
<polygon fill="none" stroke="midnightblue" points="70.3,-117.01 72.37,-127.4 77.23,-117.99 70.3,-117.01"/>
</g>
<!-- Node3 -->
<g id="node3" class="node">
<title>Node3</title>
<g id="a_node3"><a xlink:title=" ">
<polygon fill="white" stroke="#bfbfbf" points="130,-127.5 130,-184.5 195,-184.5 195,-127.5 130,-127.5"/>
<text text-anchor="middle" x="162.5" y="-172.5" font-family="Helvetica,sans-Serif" font-size="10.00">std::string</text>
<polyline fill="none" stroke="#bfbfbf" points="130,-165.5 195,-165.5 "/>
<text text-anchor="middle" x="162.5" y="-153.5" font-family="Helvetica,sans-Serif" font-size="10.00"> </text>
<polyline fill="none" stroke="#bfbfbf" points="130,-146.5 195,-146.5 "/>
<text text-anchor="middle" x="162.5" y="-134.5" font-family="Helvetica,sans-Serif" font-size="10.00"> </text>
</a>
</g>
</g>
<!-- Node3&#45;&gt;Node1 -->
<g id="edge2" class="edge">
<title>Node3&#45;&gt;Node1</title>
<path fill="none" stroke="#404040" d="M143.62,-127.4C135.86,-116.07 126.65,-102.6 117.82,-89.7"/>
<polygon fill="none" stroke="#404040" points="117.65,-89.44 110.96,-86.75 110.87,-79.54 117.56,-82.23 117.65,-89.44"/>
<text text-anchor="middle" x="158" y="-101" font-family="Helvetica,sans-Serif" font-size="10.00"> &#45;_message</text>
</g>
<!-- Node4 -->
<g id="node4" class="node">
<title>Node4</title>
<g id="a_node4"><a xlink:title=" ">
<polygon fill="white" stroke="#bfbfbf" points="110.5,-222.5 110.5,-290.5 214.5,-290.5 214.5,-222.5 110.5,-222.5"/>
<text text-anchor="start" x="118.5" y="-278.5" font-family="Helvetica,sans-Serif" font-size="10.00">std::basic_string&lt;</text>
<text text-anchor="middle" x="162.5" y="-267.5" font-family="Helvetica,sans-Serif" font-size="10.00"> Char &gt;</text>
<polyline fill="none" stroke="#bfbfbf" points="110.5,-260.5 214.5,-260.5 "/>
<text text-anchor="middle" x="162.5" y="-248.5" font-family="Helvetica,sans-Serif" font-size="10.00"> </text>
<polyline fill="none" stroke="#bfbfbf" points="110.5,-241.5 214.5,-241.5 "/>
<text text-anchor="middle" x="162.5" y="-229.5" font-family="Helvetica,sans-Serif" font-size="10.00"> </text>
</a>
</g>
</g>
<!-- Node4&#45;&gt;Node3 -->
<g id="edge3" class="edge">
<title>Node4&#45;&gt;Node3</title>
<path fill="none" stroke="midnightblue" d="M162.5,-212.38C162.5,-202.94 162.5,-193.2 162.5,-184.57"/>
<polygon fill="none" stroke="midnightblue" points="159,-212.43 162.5,-222.43 166,-212.43 159,-212.43"/>
</g>
</g>
</svg>
