<?xml version="1.0" encoding="UTF-8" standalone="no"?>
<!DOCTYPE svg PUBLIC "-//W3C//DTD SVG 1.1//EN"
 "http://www.w3.org/Graphics/SVG/1.1/DTD/svg11.dtd">
<!-- Generated by graphviz version 2.43.0 (0)
 -->
<!-- Title: RayTracer::PluginsExt::Cone::ConeCreator Pages: 1 -->
<svg width="808pt" height="1130pt"
 viewBox="0.00 0.00 807.50 1130.00" xmlns="http://www.w3.org/2000/svg" xmlns:xlink="http://www.w3.org/1999/xlink">
<g id="graph0" class="graph" transform="scale(1 1) rotate(0) translate(4 1126)">
<title>RayTracer::PluginsExt::Cone::ConeCreator</title>
<polygon fill="white" stroke="transparent" points="-4,4 -4,-1126 803.5,-1126 803.5,4 -4,4"/>
<!-- Node1 -->
<g id="node1" class="node">
<title>Node1</title>
<g id="a_node1"><a xlink:title=" ">
<polygon fill="#bfbfbf" stroke="black" points="328.5,-0.5 328.5,-79.5 450.5,-79.5 450.5,-0.5 328.5,-0.5"/>
<text text-anchor="start" x="336.5" y="-67.5" font-family="Helvetica,sans-Serif" font-size="10.00">RayTracer::PluginsExt</text>
<text text-anchor="middle" x="389.5" y="-56.5" font-family="Helvetica,sans-Serif" font-size="10.00">::Cone::ConeCreator</text>
<polyline fill="none" stroke="black" points="328.5,-49.5 450.5,-49.5 "/>
<text text-anchor="middle" x="389.5" y="-37.5" font-family="Helvetica,sans-Serif" font-size="10.00"> </text>
<polyline fill="none" stroke="black" points="328.5,-30.5 450.5,-30.5 "/>
<text text-anchor="start" x="336.5" y="-18.5" font-family="Helvetica,sans-Serif" font-size="10.00">+ ~ConeCreator()</text>
<text text-anchor="start" x="336.5" y="-7.5" font-family="Helvetica,sans-Serif" font-size="10.00">+ create()</text>
</a>
</g>
</g>
<!-- Node2 -->
<g id="node2" class="node">
<title>Node2</title>
<g id="a_node2"><a xlink:href="a01329.html" target="_top" xlink:title="The IEntityCreator.">
<polygon fill="white" stroke="black" points="307,-127.5 307,-206.5 440,-206.5 440,-127.5 307,-127.5"/>
<text text-anchor="start" x="315" y="-194.5" font-family="Helvetica,sans-Serif" font-size="10.00">RayTracer::Plugins</text>
<text text-anchor="middle" x="373.5" y="-183.5" font-family="Helvetica,sans-Serif" font-size="10.00">::Entities::IEntityCreator</text>
<polyline fill="none" stroke="black" points="307,-176.5 440,-176.5 "/>
<text text-anchor="middle" x="373.5" y="-164.5" font-family="Helvetica,sans-Serif" font-size="10.00"> </text>
<polyline fill="none" stroke="black" points="307,-157.5 440,-157.5 "/>
<text text-anchor="start" x="315" y="-145.5" font-family="Helvetica,sans-Serif" font-size="10.00">+ ~IEntityCreator()</text>
<text text-anchor="start" x="315" y="-134.5" font-family="Helvetica,sans-Serif" font-size="10.00">+ create()</text>
</a>
</g>
</g>
<!-- Node2&#45;&gt;Node1 -->
<g id="edge1" class="edge">
<title>Node2&#45;&gt;Node1</title>
<path fill="none" stroke="midnightblue" d="M379.74,-117.22C381.34,-104.74 383.04,-91.5 384.56,-79.61"/>
<polygon fill="none" stroke="midnightblue" points="376.23,-117.11 378.43,-127.48 383.17,-118 376.23,-117.11"/>
</g>
<!-- Node3 -->
<g id="node3" class="node">
<title>Node3</title>
<g id="a_node3"><a xlink:title=" ">
<polygon fill="white" stroke="#bfbfbf" points="458,-133 458,-201 641,-201 641,-133 458,-133"/>
<text text-anchor="start" x="466" y="-189" font-family="Helvetica,sans-Serif" font-size="10.00">std::vector&lt; RayTracer</text>
<text text-anchor="middle" x="549.5" y="-178" font-family="Helvetica,sans-Serif" font-size="10.00">::PluginsExt::Cone::ConeEntity * &gt;</text>
<polyline fill="none" stroke="#bfbfbf" points="458,-171 641,-171 "/>
<text text-anchor="middle" x="549.5" y="-159" font-family="Helvetica,sans-Serif" font-size="10.00"> </text>
<polyline fill="none" stroke="#bfbfbf" points="458,-152 641,-152 "/>
<text text-anchor="middle" x="549.5" y="-140" font-family="Helvetica,sans-Serif" font-size="10.00"> </text>
</a>
</g>
</g>
<!-- Node3&#45;&gt;Node1 -->
<g id="edge2" class="edge">
<title>Node3&#45;&gt;Node1</title>
<path fill="none" stroke="#404040" d="M507.04,-132.83C489.14,-118.85 468,-102.33 448.62,-87.19"/>
<polygon fill="none" stroke="#404040" points="448.43,-87.04 441.24,-86.49 438.97,-79.65 446.16,-80.19 448.43,-87.04"/>
<text text-anchor="middle" x="503.5" y="-101" font-family="Helvetica,sans-Serif" font-size="10.00"> &#45;_elements</text>
</g>
<!-- Node4 -->
<g id="node4" class="node">
<title>Node4</title>
<g id="a_node4"><a xlink:href="a01513.html" target="_top" xlink:title=" ">
<polygon fill="white" stroke="black" points="419.5,-265.5 419.5,-410.5 541.5,-410.5 541.5,-265.5 419.5,-265.5"/>
<text text-anchor="start" x="427.5" y="-398.5" font-family="Helvetica,sans-Serif" font-size="10.00">RayTracer::PluginsExt</text>
<text text-anchor="middle" x="480.5" y="-387.5" font-family="Helvetica,sans-Serif" font-size="10.00">::Cone::ConeEntity</text>
<polyline fill="none" stroke="black" points="419.5,-380.5 541.5,-380.5 "/>
<text text-anchor="middle" x="480.5" y="-368.5" font-family="Helvetica,sans-Serif" font-size="10.00"> </text>
<polyline fill="none" stroke="black" points="419.5,-361.5 541.5,-361.5 "/>
<text text-anchor="start" x="427.5" y="-349.5" font-family="Helvetica,sans-Serif" font-size="10.00">+ ConeEntity()</text>
<text text-anchor="start" x="427.5" y="-338.5" font-family="Helvetica,sans-Serif" font-size="10.00">+ getType()</text>
<text text-anchor="start" x="427.5" y="-327.5" font-family="Helvetica,sans-Serif" font-size="10.00">+ getTransform()</text>
<text text-anchor="start" x="427.5" y="-316.5" font-family="Helvetica,sans-Serif" font-size="10.00">+ getTransform()</text>
<text text-anchor="start" x="427.5" y="-305.5" font-family="Helvetica,sans-Serif" font-size="10.00">+ isCollided()</text>
<text text-anchor="start" x="427.5" y="-294.5" font-family="Helvetica,sans-Serif" font-size="10.00">+ isCollided()</text>
<text text-anchor="start" x="427.5" y="-283.5" font-family="Helvetica,sans-Serif" font-size="10.00">+ getColor()</text>
<text text-anchor="start" x="427.5" y="-272.5" font-family="Helvetica,sans-Serif" font-size="10.00">+ redirectionLight()</text>
</a>
</g>
</g>
<!-- Node4&#45;&gt;Node3 -->
<g id="edge3" class="edge">
<title>Node4&#45;&gt;Node3</title>
<path fill="none" stroke="#404040" d="M501.01,-265.34C505.61,-251.75 510.82,-237.79 516.5,-225 518.43,-220.66 520.6,-216.22 522.89,-211.84"/>
<polygon fill="none" stroke="#404040" points="522.98,-211.67 522.34,-204.48 528.73,-201.13 529.37,-208.31 522.98,-211.67"/>
<text text-anchor="middle" x="545.5" y="-233.5" font-family="Helvetica,sans-Serif" font-size="10.00"> +elements</text>
</g>
<!-- Node5 -->
<g id="node5" class="node">
<title>Node5</title>
<g id="a_node5"><a xlink:href="a01201.html" target="_top" xlink:title="The IPrimitive class.">
<polygon fill="white" stroke="black" points="629.5,-475 629.5,-587 741.5,-587 741.5,-475 629.5,-475"/>
<text text-anchor="start" x="637.5" y="-575" font-family="Helvetica,sans-Serif" font-size="10.00">RayTracer::Entities</text>
<text text-anchor="middle" x="685.5" y="-564" font-family="Helvetica,sans-Serif" font-size="10.00">::IPrimitive</text>
<polyline fill="none" stroke="black" points="629.5,-557 741.5,-557 "/>
<text text-anchor="middle" x="685.5" y="-545" font-family="Helvetica,sans-Serif" font-size="10.00"> </text>
<polyline fill="none" stroke="black" points="629.5,-538 741.5,-538 "/>
<text text-anchor="start" x="637.5" y="-526" font-family="Helvetica,sans-Serif" font-size="10.00">+ ~IPrimitive()</text>
<text text-anchor="start" x="637.5" y="-515" font-family="Helvetica,sans-Serif" font-size="10.00">+ getColor()</text>
<text text-anchor="start" x="637.5" y="-504" font-family="Helvetica,sans-Serif" font-size="10.00">+ isCollided()</text>
<text text-anchor="start" x="637.5" y="-493" font-family="Helvetica,sans-Serif" font-size="10.00">+ isCollided()</text>
<text text-anchor="start" x="637.5" y="-482" font-family="Helvetica,sans-Serif" font-size="10.00">+ redirectionLight()</text>
</a>
</g>
</g>
<!-- Node5&#45;&gt;Node4 -->
<g id="edge4" class="edge">
<title>Node5&#45;&gt;Node4</title>
<path fill="none" stroke="midnightblue" d="M629.09,-467.5C625.88,-464.25 622.67,-461.07 619.5,-458 594.95,-434.27 566.5,-409.48 541.77,-388.71"/>
<polygon fill="none" stroke="midnightblue" points="626.6,-469.97 636.08,-474.7 631.62,-465.09 626.6,-469.97"/>
</g>
<!-- Node6 -->
<g id="node6" class="node">
<title>Node6</title>
<g id="a_node6"><a xlink:href="a01189.html" target="_top" xlink:title="The IEntity class.">
<polygon fill="white" stroke="black" points="632,-783.5 632,-884.5 739,-884.5 739,-783.5 632,-783.5"/>
<text text-anchor="start" x="640" y="-872.5" font-family="Helvetica,sans-Serif" font-size="10.00">RayTracer::Entities</text>
<text text-anchor="middle" x="685.5" y="-861.5" font-family="Helvetica,sans-Serif" font-size="10.00">::IEntity</text>
<polyline fill="none" stroke="black" points="632,-854.5 739,-854.5 "/>
<text text-anchor="middle" x="685.5" y="-842.5" font-family="Helvetica,sans-Serif" font-size="10.00"> </text>
<polyline fill="none" stroke="black" points="632,-835.5 739,-835.5 "/>
<text text-anchor="start" x="640" y="-823.5" font-family="Helvetica,sans-Serif" font-size="10.00">+ ~IEntity()</text>
<text text-anchor="start" x="640" y="-812.5" font-family="Helvetica,sans-Serif" font-size="10.00">+ getTransform()</text>
<text text-anchor="start" x="640" y="-801.5" font-family="Helvetica,sans-Serif" font-size="10.00">+ getTransform()</text>
<text text-anchor="start" x="640" y="-790.5" font-family="Helvetica,sans-Serif" font-size="10.00">+ getType()</text>
</a>
</g>
</g>
<!-- Node6&#45;&gt;Node5 -->
<g id="edge5" class="edge">
<title>Node6&#45;&gt;Node5</title>
<path fill="none" stroke="midnightblue" d="M685.5,-773.15C685.5,-718.97 685.5,-639.81 685.5,-587.14"/>
<polygon fill="none" stroke="midnightblue" points="682,-773.3 685.5,-783.3 689,-773.3 682,-773.3"/>
</g>
<!-- Node7 -->
<g id="node7" class="node">
<title>Node7</title>
<g id="a_node7"><a xlink:href="a01209.html" target="_top" xlink:title="The Transform class.">
<polygon fill="white" stroke="black" points="139.5,-458.5 139.5,-603.5 265.5,-603.5 265.5,-458.5 139.5,-458.5"/>
<text text-anchor="start" x="147.5" y="-591.5" font-family="Helvetica,sans-Serif" font-size="10.00">RayTracer::Entities</text>
<text text-anchor="middle" x="202.5" y="-580.5" font-family="Helvetica,sans-Serif" font-size="10.00">::Transform::Transform</text>
<polyline fill="none" stroke="black" points="139.5,-573.5 265.5,-573.5 "/>
<text text-anchor="middle" x="202.5" y="-561.5" font-family="Helvetica,sans-Serif" font-size="10.00"> </text>
<polyline fill="none" stroke="black" points="139.5,-554.5 265.5,-554.5 "/>
<text text-anchor="start" x="147.5" y="-542.5" font-family="Helvetica,sans-Serif" font-size="10.00">+ Transform()</text>
<text text-anchor="start" x="147.5" y="-531.5" font-family="Helvetica,sans-Serif" font-size="10.00">+ setPosition()</text>
<text text-anchor="start" x="147.5" y="-520.5" font-family="Helvetica,sans-Serif" font-size="10.00">+ getPosition()</text>
<text text-anchor="start" x="147.5" y="-509.5" font-family="Helvetica,sans-Serif" font-size="10.00">+ setRotation()</text>
<text text-anchor="start" x="147.5" y="-498.5" font-family="Helvetica,sans-Serif" font-size="10.00">+ getRotation()</text>
<text text-anchor="start" x="147.5" y="-487.5" font-family="Helvetica,sans-Serif" font-size="10.00">+ setScale()</text>
<text text-anchor="start" x="147.5" y="-476.5" font-family="Helvetica,sans-Serif" font-size="10.00">+ getScale()</text>
<text text-anchor="start" x="147.5" y="-465.5" font-family="Helvetica,sans-Serif" font-size="10.00">+ operator=()</text>
</a>
</g>
</g>
<!-- Node7&#45;&gt;Node4 -->
<g id="edge6" class="edge">
<title>Node7&#45;&gt;Node4</title>
<path fill="none" stroke="#404040" d="M203.94,-458.43C206.83,-447.7 211.42,-437.43 218.5,-429 265.01,-373.61 347.3,-352.24 407.27,-344.03"/>
<polygon fill="none" stroke="#404040" points="407.42,-344.01 412.88,-339.3 419.33,-342.52 413.87,-347.23 407.42,-344.01"/>
<text text-anchor="middle" x="249" y="-432" font-family="Helvetica,sans-Serif" font-size="10.00"> &#45;_transform</text>
</g>
<!-- Node8 -->
<g id="node8" class="node">
<title>Node8</title>
<g id="a_node8"><a xlink:href="a01205.html" target="_top" xlink:title="The ITransform class.">
<polygon fill="white" stroke="black" points="0,-761.5 0,-906.5 129,-906.5 129,-761.5 0,-761.5"/>
<text text-anchor="start" x="8" y="-894.5" font-family="Helvetica,sans-Serif" font-size="10.00">RayTracer::Entities</text>
<text text-anchor="middle" x="64.5" y="-883.5" font-family="Helvetica,sans-Serif" font-size="10.00">::Transform::ITransform</text>
<polyline fill="none" stroke="black" points="0,-876.5 129,-876.5 "/>
<text text-anchor="middle" x="64.5" y="-864.5" font-family="Helvetica,sans-Serif" font-size="10.00"> </text>
<polyline fill="none" stroke="black" points="0,-857.5 129,-857.5 "/>
<text text-anchor="start" x="8" y="-845.5" font-family="Helvetica,sans-Serif" font-size="10.00">+ ~ITransform()</text>
<text text-anchor="start" x="8" y="-834.5" font-family="Helvetica,sans-Serif" font-size="10.00">+ setPosition()</text>
<text text-anchor="start" x="8" y="-823.5" font-family="Helvetica,sans-Serif" font-size="10.00">+ getPosition()</text>
<text text-anchor="start" x="8" y="-812.5" font-family="Helvetica,sans-Serif" font-size="10.00">+ setRotation()</text>
<text text-anchor="start" x="8" y="-801.5" font-family="Helvetica,sans-Serif" font-size="10.00">+ getRotation()</text>
<text text-anchor="start" x="8" y="-790.5" font-family="Helvetica,sans-Serif" font-size="10.00">+ setScale()</text>
<text text-anchor="start" x="8" y="-779.5" font-family="Helvetica,sans-Serif" font-size="10.00">+ getScale()</text>
<text text-anchor="start" x="8" y="-768.5" font-family="Helvetica,sans-Serif" font-size="10.00">+ operator=()</text>
</a>
</g>
</g>
<!-- Node8&#45;&gt;Node7 -->
<g id="edge7" class="edge">
<title>Node8&#45;&gt;Node7</title>
<path fill="none" stroke="midnightblue" d="M101.55,-752.19C122.77,-705.91 149.16,-648.35 169.63,-603.69"/>
<polygon fill="none" stroke="midnightblue" points="98.37,-750.74 97.38,-761.29 104.73,-753.65 98.37,-750.74"/>
</g>
<!-- Node9 -->
<g id="node9" class="node">
<title>Node9</title>
<g id="a_node9"><a xlink:href="a01217.html" target="_top" xlink:title="The Vector3f class.">
<polygon fill="white" stroke="black" points="147.5,-673.5 147.5,-994.5 265.5,-994.5 265.5,-673.5 147.5,-673.5"/>
<text text-anchor="start" x="155.5" y="-982.5" font-family="Helvetica,sans-Serif" font-size="10.00">RayTracer::Entities</text>
<text text-anchor="middle" x="206.5" y="-971.5" font-family="Helvetica,sans-Serif" font-size="10.00">::Transform::Vector3f</text>
<polyline fill="none" stroke="black" points="147.5,-964.5 265.5,-964.5 "/>
<text text-anchor="middle" x="206.5" y="-952.5" font-family="Helvetica,sans-Serif" font-size="10.00"> </text>
<polyline fill="none" stroke="black" points="147.5,-945.5 265.5,-945.5 "/>
<text text-anchor="start" x="155.5" y="-933.5" font-family="Helvetica,sans-Serif" font-size="10.00">+ ~Vector3f()</text>
<text text-anchor="start" x="155.5" y="-922.5" font-family="Helvetica,sans-Serif" font-size="10.00">+ Vector3f()</text>
<text text-anchor="start" x="155.5" y="-911.5" font-family="Helvetica,sans-Serif" font-size="10.00">+ Vector3f()</text>
<text text-anchor="start" x="155.5" y="-900.5" font-family="Helvetica,sans-Serif" font-size="10.00">+ Vector3f()</text>
<text text-anchor="start" x="155.5" y="-889.5" font-family="Helvetica,sans-Serif" font-size="10.00">+ Vector3f()</text>
<text text-anchor="start" x="155.5" y="-878.5" font-family="Helvetica,sans-Serif" font-size="10.00">+ operator+()</text>
<text text-anchor="start" x="155.5" y="-867.5" font-family="Helvetica,sans-Serif" font-size="10.00">+ operator&#45;()</text>
<text text-anchor="start" x="155.5" y="-856.5" font-family="Helvetica,sans-Serif" font-size="10.00">+ operator*()</text>
<text text-anchor="start" x="155.5" y="-845.5" font-family="Helvetica,sans-Serif" font-size="10.00">+ operator/()</text>
<text text-anchor="start" x="155.5" y="-834.5" font-family="Helvetica,sans-Serif" font-size="10.00">+ operator=()</text>
<text text-anchor="start" x="155.5" y="-823.5" font-family="Helvetica,sans-Serif" font-size="10.00">+ getX()</text>
<text text-anchor="start" x="155.5" y="-812.5" font-family="Helvetica,sans-Serif" font-size="10.00">+ getY()</text>
<text text-anchor="start" x="155.5" y="-801.5" font-family="Helvetica,sans-Serif" font-size="10.00">+ getZ()</text>
<text text-anchor="start" x="155.5" y="-790.5" font-family="Helvetica,sans-Serif" font-size="10.00">+ getNorm()</text>
<text text-anchor="start" x="155.5" y="-779.5" font-family="Helvetica,sans-Serif" font-size="10.00">+ getNormalized()</text>
<text text-anchor="start" x="155.5" y="-768.5" font-family="Helvetica,sans-Serif" font-size="10.00">+ dot()</text>
<text text-anchor="start" x="155.5" y="-757.5" font-family="Helvetica,sans-Serif" font-size="10.00">+ getDistance()</text>
<text text-anchor="start" x="155.5" y="-746.5" font-family="Helvetica,sans-Serif" font-size="10.00">+ toDegrees()</text>
<text text-anchor="start" x="155.5" y="-735.5" font-family="Helvetica,sans-Serif" font-size="10.00">+ toRadians()</text>
<text text-anchor="start" x="155.5" y="-724.5" font-family="Helvetica,sans-Serif" font-size="10.00">+ rotateVector()</text>
<text text-anchor="start" x="155.5" y="-713.5" font-family="Helvetica,sans-Serif" font-size="10.00">+ getAngle()</text>
<text text-anchor="start" x="155.5" y="-702.5" font-family="Helvetica,sans-Serif" font-size="10.00">+ rotateX()</text>
<text text-anchor="start" x="155.5" y="-691.5" font-family="Helvetica,sans-Serif" font-size="10.00">+ rotateY()</text>
<text text-anchor="start" x="155.5" y="-680.5" font-family="Helvetica,sans-Serif" font-size="10.00">+ rotateZ()</text>
</a>
</g>
</g>
<!-- Node9&#45;&gt;Node7 -->
<g id="edge8" class="edge">
<title>Node9&#45;&gt;Node7</title>
<path fill="none" stroke="#404040" d="M204.38,-673.25C204.11,-653.47 203.85,-633.9 203.62,-615.93"/>
<polygon fill="none" stroke="#404040" points="203.61,-615.75 199.53,-609.8 203.45,-603.75 207.53,-609.7 203.61,-615.75"/>
<text text-anchor="middle" x="230.5" y="-647" font-family="Helvetica,sans-Serif" font-size="10.00"> &#45;_position</text>
<text text-anchor="middle" x="230.5" y="-636" font-family="Helvetica,sans-Serif" font-size="10.00">&#45;_rotation</text>
<text text-anchor="middle" x="230.5" y="-625" font-family="Helvetica,sans-Serif" font-size="10.00">&#45;_scale</text>
</g>
<!-- Node10 -->
<g id="node10" class="node">
<title>Node10</title>
<g id="a_node10"><a xlink:title=" ">
<polygon fill="white" stroke="#bfbfbf" points="225.5,-1064.5 225.5,-1121.5 275.5,-1121.5 275.5,-1064.5 225.5,-1064.5"/>
<text text-anchor="middle" x="250.5" y="-1109.5" font-family="Helvetica,sans-Serif" font-size="10.00">double</text>
<polyline fill="none" stroke="#bfbfbf" points="225.5,-1102.5 275.5,-1102.5 "/>
<text text-anchor="middle" x="250.5" y="-1090.5" font-family="Helvetica,sans-Serif" font-size="10.00"> </text>
<polyline fill="none" stroke="#bfbfbf" points="225.5,-1083.5 275.5,-1083.5 "/>
<text text-anchor="middle" x="250.5" y="-1071.5" font-family="Helvetica,sans-Serif" font-size="10.00"> </text>
</a>
</g>
</g>
<!-- Node10&#45;&gt;Node4 -->
<g id="edge10" class="edge">
<title>Node10&#45;&gt;Node4</title>
<path fill="none" stroke="#404040" d="M260.18,-1064.45C262.1,-1058.42 263.99,-1052.03 265.5,-1046 271.08,-1023.67 271.68,-1017.84 274.5,-995 289.14,-876.27 253.83,-562.26 312.5,-458 333.95,-419.89 373.26,-391.03 408.47,-371.28"/>
<polygon fill="none" stroke="#404040" points="408.69,-371.16 412.06,-364.78 419.24,-365.44 415.87,-371.82 408.69,-371.16"/>
<text text-anchor="middle" x="299.5" y="-636" font-family="Helvetica,sans-Serif" font-size="10.00"> &#45;_angle</text>
</g>
<!-- Node10&#45;&gt;Node9 -->
<g id="edge9" class="edge">
<title>Node10&#45;&gt;Node9</title>
<path fill="none" stroke="#404040" d="M245.79,-1064.5C243.18,-1049.22 239.68,-1028.81 235.85,-1006.43"/>
<polygon fill="none" stroke="#404040" points="235.84,-1006.4 230.89,-1001.16 233.82,-994.57 238.77,-999.81 235.84,-1006.4"/>
<text text-anchor="middle" x="252" y="-1038" font-family="Helvetica,sans-Serif" font-size="10.00"> &#45;_x</text>
<text text-anchor="middle" x="252" y="-1027" font-family="Helvetica,sans-Serif" font-size="10.00">&#45;_y</text>
<text text-anchor="middle" x="252" y="-1016" font-family="Helvetica,sans-Serif" font-size="10.00">&#45;_z</text>
</g>
<!-- Node11 -->
<g id="node11" class="node">
<title>Node11</title>
<g id="a_node11"><a xlink:title=" ">
<polygon fill="white" stroke="#bfbfbf" points="321.5,-491.5 321.5,-570.5 485.5,-570.5 485.5,-491.5 321.5,-491.5"/>
<text text-anchor="start" x="329.5" y="-558.5" font-family="Helvetica,sans-Serif" font-size="10.00">optional&lt; std::reference</text>
<text text-anchor="start" x="329.5" y="-547.5" font-family="Helvetica,sans-Serif" font-size="10.00">_wrapper&lt; RayTracer::Entities</text>
<text text-anchor="middle" x="403.5" y="-536.5" font-family="Helvetica,sans-Serif" font-size="10.00">::IMaterial &gt; &gt;</text>
<polyline fill="none" stroke="#bfbfbf" points="321.5,-529.5 485.5,-529.5 "/>
<text text-anchor="middle" x="403.5" y="-517.5" font-family="Helvetica,sans-Serif" font-size="10.00"> </text>
<polyline fill="none" stroke="#bfbfbf" points="321.5,-510.5 485.5,-510.5 "/>
<text text-anchor="middle" x="403.5" y="-498.5" font-family="Helvetica,sans-Serif" font-size="10.00"> </text>
</a>
</g>
</g>
<!-- Node11&#45;&gt;Node4 -->
<g id="edge11" class="edge">
<title>Node11&#45;&gt;Node4</title>
<path fill="none" stroke="#404040" d="M419.08,-491.35C427.12,-471.4 437.27,-446.25 446.98,-422.16"/>
<polygon fill="none" stroke="#404040" points="447.06,-421.95 445.59,-414.89 451.55,-410.82 453.01,-417.88 447.06,-421.95"/>
<text text-anchor="middle" x="469.5" y="-432" font-family="Helvetica,sans-Serif" font-size="10.00"> &#45;_material</text>
</g>
<!-- Node12 -->
<g id="node12" class="node">
<title>Node12</title>
<g id="a_node12"><a xlink:href="a01253.html" target="_top" xlink:title="Logger singleton.">
<polygon fill="white" stroke="black" points="504,-469.5 504,-592.5 611,-592.5 611,-469.5 504,-469.5"/>
<text text-anchor="middle" x="557.5" y="-580.5" font-family="Helvetica,sans-Serif" font-size="10.00">RayTracer::ILogger</text>
<polyline fill="none" stroke="black" points="504,-573.5 611,-573.5 "/>
<text text-anchor="middle" x="557.5" y="-561.5" font-family="Helvetica,sans-Serif" font-size="10.00"> </text>
<polyline fill="none" stroke="black" points="504,-554.5 611,-554.5 "/>
<text text-anchor="start" x="512" y="-542.5" font-family="Helvetica,sans-Serif" font-size="10.00">+ ~ILogger()</text>
<text text-anchor="start" x="512" y="-531.5" font-family="Helvetica,sans-Serif" font-size="10.00">+ fatal()</text>
<text text-anchor="start" x="512" y="-520.5" font-family="Helvetica,sans-Serif" font-size="10.00">+ error()</text>
<text text-anchor="start" x="512" y="-509.5" font-family="Helvetica,sans-Serif" font-size="10.00">+ warn()</text>
<text text-anchor="start" x="512" y="-498.5" font-family="Helvetica,sans-Serif" font-size="10.00">+ info()</text>
<text text-anchor="start" x="512" y="-487.5" font-family="Helvetica,sans-Serif" font-size="10.00">+ debug()</text>
<text text-anchor="start" x="512" y="-476.5" font-family="Helvetica,sans-Serif" font-size="10.00">+ trace()</text>
</a>
</g>
</g>
<!-- Node12&#45;&gt;Node4 -->
<g id="edge12" class="edge">
<title>Node12&#45;&gt;Node4</title>
<path fill="none" stroke="#404040" d="M533.03,-469.3C526.97,-454.27 520.37,-437.91 513.97,-422.02"/>
<polygon fill="none" stroke="#404040" points="513.83,-421.68 507.88,-417.61 509.35,-410.55 515.3,-414.62 513.83,-421.68"/>
<text text-anchor="middle" x="541" y="-432" font-family="Helvetica,sans-Serif" font-size="10.00"> &#45;_logger</text>
</g>
<!-- Node13 -->
<g id="node13" class="node">
<title>Node13</title>
<g id="a_node13"><a xlink:title=" ">
<polygon fill="white" stroke="#bfbfbf" points="643,-309.5 643,-366.5 740,-366.5 740,-309.5 643,-309.5"/>
<text text-anchor="middle" x="691.5" y="-354.5" font-family="Helvetica,sans-Serif" font-size="10.00">std::vector&lt; T &gt;</text>
<polyline fill="none" stroke="#bfbfbf" points="643,-347.5 740,-347.5 "/>
<text text-anchor="middle" x="691.5" y="-335.5" font-family="Helvetica,sans-Serif" font-size="10.00"> </text>
<polyline fill="none" stroke="#bfbfbf" points="643,-328.5 740,-328.5 "/>
<text text-anchor="middle" x="691.5" y="-316.5" font-family="Helvetica,sans-Serif" font-size="10.00"> </text>
</a>
</g>
</g>
<!-- Node13&#45;&gt;Node3 -->
<g id="edge13" class="edge">
<title>Node13&#45;&gt;Node3</title>
<path fill="none" stroke="orange" d="M661.64,-301.46C636.74,-271.83 601.54,-229.94 577.25,-201.03"/>
<polygon fill="orange" stroke="orange" points="659.26,-304.07 668.37,-309.47 664.62,-299.56 659.26,-304.07"/>
<text text-anchor="start" x="612.5" y="-239" font-family="Helvetica,sans-Serif" font-size="10.00"> &lt; RayTracer::PluginsExt</text>
<text text-anchor="middle" x="672.5" y="-228" font-family="Helvetica,sans-Serif" font-size="10.00">::Cone::ConeEntity * &gt;</text>
</g>
<!-- Node14 -->
<g id="node14" class="node">
<title>Node14</title>
<g id="a_node14"><a xlink:title=" ">
<polygon fill="white" stroke="#bfbfbf" points="760,-502.5 760,-559.5 789,-559.5 789,-502.5 760,-502.5"/>
<text text-anchor="middle" x="774.5" y="-547.5" font-family="Helvetica,sans-Serif" font-size="10.00">T</text>
<polyline fill="none" stroke="#bfbfbf" points="760,-540.5 789,-540.5 "/>
<text text-anchor="middle" x="774.5" y="-528.5" font-family="Helvetica,sans-Serif" font-size="10.00"> </text>
<polyline fill="none" stroke="#bfbfbf" points="760,-521.5 789,-521.5 "/>
<text text-anchor="middle" x="774.5" y="-509.5" font-family="Helvetica,sans-Serif" font-size="10.00"> </text>
</a>
</g>
</g>
<!-- Node14&#45;&gt;Node13 -->
<g id="edge14" class="edge">
<title>Node14&#45;&gt;Node13</title>
<path fill="none" stroke="#404040" d="M766.26,-502.32C761.99,-488.79 756.43,-472.37 750.5,-458 739.17,-430.52 724.29,-400.54 712.31,-377.55"/>
<polygon fill="none" stroke="#404040" points="712.28,-377.48 705.94,-374.04 706.69,-366.86 713.02,-370.31 712.28,-377.48"/>
<text text-anchor="middle" x="770.5" y="-432" font-family="Helvetica,sans-Serif" font-size="10.00"> +elements</text>
</g>
</g>
</svg>
