<?xml version="1.0" encoding="UTF-8" standalone="no"?>
<!DOCTYPE svg PUBLIC "-//W3C//DTD SVG 1.1//EN"
 "http://www.w3.org/Graphics/SVG/1.1/DTD/svg11.dtd">
<!-- Generated by graphviz version 2.43.0 (0)
 -->
<!-- Title: RayTracer::PluginsExt::BlackAndWhite::BlackAndWhiteCreator Pages: 1 -->
<svg width="185pt" height="215pt"
 viewBox="0.00 0.00 185.00 215.00" xmlns="http://www.w3.org/2000/svg" xmlns:xlink="http://www.w3.org/1999/xlink">
<g id="graph0" class="graph" transform="scale(1 1) rotate(0) translate(4 211)">
<title>RayTracer::PluginsExt::BlackAndWhite::BlackAndWhiteCreator</title>
<polygon fill="white" stroke="transparent" points="-4,4 -4,-211 181,-211 181,4 -4,4"/>
<!-- Node1 -->
<g id="node1" class="node">
<title>Node1</title>
<g id="a_node1"><a xlink:title=" ">
<polygon fill="#bfbfbf" stroke="black" points="0,-0.5 0,-90.5 177,-90.5 177,-0.5 0,-0.5"/>
<text text-anchor="start" x="8" y="-78.5" font-family="Helvetica,sans-Serif" font-size="10.00">RayTracer::PluginsExt</text>
<text text-anchor="start" x="8" y="-67.5" font-family="Helvetica,sans-Serif" font-size="10.00">::BlackAndWhite::BlackAndWhite</text>
<text text-anchor="middle" x="88.5" y="-56.5" font-family="Helvetica,sans-Serif" font-size="10.00">Creator</text>
<polyline fill="none" stroke="black" points="0,-49.5 177,-49.5 "/>
<text text-anchor="start" x="8" y="-37.5" font-family="Helvetica,sans-Serif" font-size="10.00">&#45; _elements</text>
<polyline fill="none" stroke="black" points="0,-30.5 177,-30.5 "/>
<text text-anchor="start" x="8" y="-18.5" font-family="Helvetica,sans-Serif" font-size="10.00">+ ~BlackAndWhiteCreator()</text>
<text text-anchor="start" x="8" y="-7.5" font-family="Helvetica,sans-Serif" font-size="10.00">+ create()</text>
</a>
</g>
</g>
<!-- Node2 -->
<g id="node2" class="node">
<title>Node2</title>
<g id="a_node2"><a xlink:href="a01453.html" target="_top" xlink:title="The IFilterCreator class.">
<polygon fill="white" stroke="black" points="27.5,-127.5 27.5,-206.5 149.5,-206.5 149.5,-127.5 27.5,-127.5"/>
<text text-anchor="start" x="35.5" y="-194.5" font-family="Helvetica,sans-Serif" font-size="10.00">RayTracer::Plugins</text>
<text text-anchor="middle" x="88.5" y="-183.5" font-family="Helvetica,sans-Serif" font-size="10.00">::Filters::IFilterCreator</text>
<polyline fill="none" stroke="black" points="27.5,-176.5 149.5,-176.5 "/>
<text text-anchor="middle" x="88.5" y="-164.5" font-family="Helvetica,sans-Serif" font-size="10.00"> </text>
<polyline fill="none" stroke="black" points="27.5,-157.5 149.5,-157.5 "/>
<text text-anchor="start" x="35.5" y="-145.5" font-family="Helvetica,sans-Serif" font-size="10.00">+ ~IFilterCreator()</text>
<text text-anchor="start" x="35.5" y="-134.5" font-family="Helvetica,sans-Serif" font-size="10.00">+ create()</text>
</a>
</g>
</g>
<!-- Node2&#45;&gt;Node1 -->
<g id="edge1" class="edge">
<title>Node2&#45;&gt;Node1</title>
<path fill="none" stroke="midnightblue" d="M88.5,-117.19C88.5,-108.49 88.5,-99.48 88.5,-90.91"/>
<polygon fill="none" stroke="midnightblue" points="85,-117.2 88.5,-127.2 92,-117.2 85,-117.2"/>
</g>
</g>
</svg>
