<?xml version="1.0" encoding="UTF-8" standalone="no"?>
<!DOCTYPE svg PUBLIC "-//W3C//DTD SVG 1.1//EN"
 "http://www.w3.org/Graphics/SVG/1.1/DTD/svg11.dtd">
<!-- Generated by graphviz version 2.43.0 (0)
 -->
<!-- Title: RayTracer::PluginsExt::Sphere::SphereCreator Pages: 1 -->
<svg width="808pt" height="1141pt"
 viewBox="0.00 0.00 807.50 1141.00" xmlns="http://www.w3.org/2000/svg" xmlns:xlink="http://www.w3.org/1999/xlink">
<g id="graph0" class="graph" transform="scale(1 1) rotate(0) translate(4 1137)">
<title>RayTracer::PluginsExt::Sphere::SphereCreator</title>
<polygon fill="white" stroke="transparent" points="-4,4 -4,-1137 803.5,-1137 803.5,4 -4,4"/>
<!-- Node1 -->
<g id="node1" class="node">
<title>Node1</title>
<g id="a_node1"><a xlink:title=" ">
<polygon fill="#bfbfbf" stroke="black" points="351.5,-0.5 351.5,-79.5 483.5,-79.5 483.5,-0.5 351.5,-0.5"/>
<text text-anchor="start" x="359.5" y="-67.5" font-family="Helvetica,sans-Serif" font-size="10.00">RayTracer::PluginsExt</text>
<text text-anchor="middle" x="417.5" y="-56.5" font-family="Helvetica,sans-Serif" font-size="10.00">::Sphere::SphereCreator</text>
<polyline fill="none" stroke="black" points="351.5,-49.5 483.5,-49.5 "/>
<text text-anchor="middle" x="417.5" y="-37.5" font-family="Helvetica,sans-Serif" font-size="10.00"> </text>
<polyline fill="none" stroke="black" points="351.5,-30.5 483.5,-30.5 "/>
<text text-anchor="start" x="359.5" y="-18.5" font-family="Helvetica,sans-Serif" font-size="10.00">+ ~SphereCreator()</text>
<text text-anchor="start" x="359.5" y="-7.5" font-family="Helvetica,sans-Serif" font-size="10.00">+ create()</text>
</a>
</g>
</g>
<!-- Node2 -->
<g id="node2" class="node">
<title>Node2</title>
<g id="a_node2"><a xlink:href="a01336.html" target="_top" xlink:title="The IEntityCreator.">
<polygon fill="white" stroke="black" points="335,-127.5 335,-206.5 468,-206.5 468,-127.5 335,-127.5"/>
<text text-anchor="start" x="343" y="-194.5" font-family="Helvetica,sans-Serif" font-size="10.00">RayTracer::Plugins</text>
<text text-anchor="middle" x="401.5" y="-183.5" font-family="Helvetica,sans-Serif" font-size="10.00">::Entities::IEntityCreator</text>
<polyline fill="none" stroke="black" points="335,-176.5 468,-176.5 "/>
<text text-anchor="middle" x="401.5" y="-164.5" font-family="Helvetica,sans-Serif" font-size="10.00"> </text>
<polyline fill="none" stroke="black" points="335,-157.5 468,-157.5 "/>
<text text-anchor="start" x="343" y="-145.5" font-family="Helvetica,sans-Serif" font-size="10.00">+ ~IEntityCreator()</text>
<text text-anchor="start" x="343" y="-134.5" font-family="Helvetica,sans-Serif" font-size="10.00">+ create()</text>
</a>
</g>
</g>
<!-- Node2&#45;&gt;Node1 -->
<g id="edge1" class="edge">
<title>Node2&#45;&gt;Node1</title>
<path fill="none" stroke="midnightblue" d="M407.74,-117.22C409.34,-104.74 411.04,-91.5 412.56,-79.61"/>
<polygon fill="none" stroke="midnightblue" points="404.23,-117.11 406.43,-127.48 411.17,-118 404.23,-117.11"/>
</g>
<!-- Node3 -->
<g id="node3" class="node">
<title>Node3</title>
<g id="a_node3"><a xlink:title=" ">
<polygon fill="white" stroke="#bfbfbf" points="486.5,-127.5 486.5,-206.5 614.5,-206.5 614.5,-127.5 486.5,-127.5"/>
<text text-anchor="start" x="494.5" y="-194.5" font-family="Helvetica,sans-Serif" font-size="10.00">std::vector&lt; RayTracer</text>
<text text-anchor="start" x="494.5" y="-183.5" font-family="Helvetica,sans-Serif" font-size="10.00">::PluginsExt::Sphere::</text>
<text text-anchor="middle" x="550.5" y="-172.5" font-family="Helvetica,sans-Serif" font-size="10.00">SphereEntity * &gt;</text>
<polyline fill="none" stroke="#bfbfbf" points="486.5,-165.5 614.5,-165.5 "/>
<text text-anchor="middle" x="550.5" y="-153.5" font-family="Helvetica,sans-Serif" font-size="10.00"> </text>
<polyline fill="none" stroke="#bfbfbf" points="486.5,-146.5 614.5,-146.5 "/>
<text text-anchor="middle" x="550.5" y="-134.5" font-family="Helvetica,sans-Serif" font-size="10.00"> </text>
</a>
</g>
</g>
<!-- Node3&#45;&gt;Node1 -->
<g id="edge2" class="edge">
<title>Node3&#45;&gt;Node1</title>
<path fill="none" stroke="#404040" d="M509.51,-127.48C496.24,-115 481.37,-101.02 467.51,-88"/>
<polygon fill="none" stroke="#404040" points="467.33,-87.83 460.22,-86.64 458.58,-79.61 465.69,-80.81 467.33,-87.83"/>
<text text-anchor="middle" x="517.5" y="-101" font-family="Helvetica,sans-Serif" font-size="10.00"> &#45;_elements</text>
</g>
<!-- Node4 -->
<g id="node4" class="node">
<title>Node4</title>
<g id="a_node4"><a xlink:href="a01592.html" target="_top" xlink:title=" ">
<polygon fill="white" stroke="black" points="418,-265.5 418,-410.5 543,-410.5 543,-265.5 418,-265.5"/>
<text text-anchor="start" x="426" y="-398.5" font-family="Helvetica,sans-Serif" font-size="10.00">RayTracer::PluginsExt</text>
<text text-anchor="middle" x="480.5" y="-387.5" font-family="Helvetica,sans-Serif" font-size="10.00">::Sphere::SphereEntity</text>
<polyline fill="none" stroke="black" points="418,-380.5 543,-380.5 "/>
<text text-anchor="middle" x="480.5" y="-368.5" font-family="Helvetica,sans-Serif" font-size="10.00"> </text>
<polyline fill="none" stroke="black" points="418,-361.5 543,-361.5 "/>
<text text-anchor="start" x="426" y="-349.5" font-family="Helvetica,sans-Serif" font-size="10.00">+ SphereEntity()</text>
<text text-anchor="start" x="426" y="-338.5" font-family="Helvetica,sans-Serif" font-size="10.00">+ getType()</text>
<text text-anchor="start" x="426" y="-327.5" font-family="Helvetica,sans-Serif" font-size="10.00">+ getTransform()</text>
<text text-anchor="start" x="426" y="-316.5" font-family="Helvetica,sans-Serif" font-size="10.00">+ getTransform()</text>
<text text-anchor="start" x="426" y="-305.5" font-family="Helvetica,sans-Serif" font-size="10.00">+ isCollided()</text>
<text text-anchor="start" x="426" y="-294.5" font-family="Helvetica,sans-Serif" font-size="10.00">+ isCollided()</text>
<text text-anchor="start" x="426" y="-283.5" font-family="Helvetica,sans-Serif" font-size="10.00">+ getColor()</text>
<text text-anchor="start" x="426" y="-272.5" font-family="Helvetica,sans-Serif" font-size="10.00">+ redirectionLight()</text>
</a>
</g>
</g>
<!-- Node4&#45;&gt;Node3 -->
<g id="edge3" class="edge">
<title>Node4&#45;&gt;Node3</title>
<path fill="none" stroke="#404040" d="M501.73,-265.36C506.44,-251.76 511.76,-237.8 517.5,-225 518.6,-222.54 519.78,-220.05 521.02,-217.56"/>
<polygon fill="none" stroke="#404040" points="521.14,-217.33 520.37,-210.16 526.69,-206.69 527.46,-213.86 521.14,-217.33"/>
<text text-anchor="middle" x="546.5" y="-233.5" font-family="Helvetica,sans-Serif" font-size="10.00"> +elements</text>
</g>
<!-- Node5 -->
<g id="node5" class="node">
<title>Node5</title>
<g id="a_node5"><a xlink:href="a01208.html" target="_top" xlink:title="The IPrimitive class.">
<polygon fill="white" stroke="black" points="629.5,-475 629.5,-587 741.5,-587 741.5,-475 629.5,-475"/>
<text text-anchor="start" x="637.5" y="-575" font-family="Helvetica,sans-Serif" font-size="10.00">RayTracer::Entities</text>
<text text-anchor="middle" x="685.5" y="-564" font-family="Helvetica,sans-Serif" font-size="10.00">::IPrimitive</text>
<polyline fill="none" stroke="black" points="629.5,-557 741.5,-557 "/>
<text text-anchor="middle" x="685.5" y="-545" font-family="Helvetica,sans-Serif" font-size="10.00"> </text>
<polyline fill="none" stroke="black" points="629.5,-538 741.5,-538 "/>
<text text-anchor="start" x="637.5" y="-526" font-family="Helvetica,sans-Serif" font-size="10.00">+ ~IPrimitive()</text>
<text text-anchor="start" x="637.5" y="-515" font-family="Helvetica,sans-Serif" font-size="10.00">+ getColor()</text>
<text text-anchor="start" x="637.5" y="-504" font-family="Helvetica,sans-Serif" font-size="10.00">+ isCollided()</text>
<text text-anchor="start" x="637.5" y="-493" font-family="Helvetica,sans-Serif" font-size="10.00">+ isCollided()</text>
<text text-anchor="start" x="637.5" y="-482" font-family="Helvetica,sans-Serif" font-size="10.00">+ redirectionLight()</text>
</a>
</g>
</g>
<!-- Node5&#45;&gt;Node4 -->
<g id="edge4" class="edge">
<title>Node5&#45;&gt;Node4</title>
<path fill="none" stroke="midnightblue" d="M629.09,-467.5C625.88,-464.25 622.67,-461.07 619.5,-458 595.4,-434.71 567.56,-410.4 543.15,-389.88"/>
<polygon fill="none" stroke="midnightblue" points="626.6,-469.97 636.08,-474.7 631.62,-465.09 626.6,-469.97"/>
</g>
<!-- Node6 -->
<g id="node6" class="node">
<title>Node6</title>
<g id="a_node6"><a xlink:href="a01196.html" target="_top" xlink:title="The IEntity class.">
<polygon fill="white" stroke="black" points="632,-789 632,-890 739,-890 739,-789 632,-789"/>
<text text-anchor="start" x="640" y="-878" font-family="Helvetica,sans-Serif" font-size="10.00">RayTracer::Entities</text>
<text text-anchor="middle" x="685.5" y="-867" font-family="Helvetica,sans-Serif" font-size="10.00">::IEntity</text>
<polyline fill="none" stroke="black" points="632,-860 739,-860 "/>
<text text-anchor="middle" x="685.5" y="-848" font-family="Helvetica,sans-Serif" font-size="10.00"> </text>
<polyline fill="none" stroke="black" points="632,-841 739,-841 "/>
<text text-anchor="start" x="640" y="-829" font-family="Helvetica,sans-Serif" font-size="10.00">+ ~IEntity()</text>
<text text-anchor="start" x="640" y="-818" font-family="Helvetica,sans-Serif" font-size="10.00">+ getTransform()</text>
<text text-anchor="start" x="640" y="-807" font-family="Helvetica,sans-Serif" font-size="10.00">+ getTransform()</text>
<text text-anchor="start" x="640" y="-796" font-family="Helvetica,sans-Serif" font-size="10.00">+ getType()</text>
</a>
</g>
</g>
<!-- Node6&#45;&gt;Node5 -->
<g id="edge5" class="edge">
<title>Node6&#45;&gt;Node5</title>
<path fill="none" stroke="midnightblue" d="M685.5,-778.87C685.5,-723.35 685.5,-641.26 685.5,-587.22"/>
<polygon fill="none" stroke="midnightblue" points="682,-778.91 685.5,-788.91 689,-778.91 682,-778.91"/>
</g>
<!-- Node7 -->
<g id="node7" class="node">
<title>Node7</title>
<g id="a_node7"><a xlink:href="a01216.html" target="_top" xlink:title="The Transform class.">
<polygon fill="white" stroke="black" points="139.5,-458.5 139.5,-603.5 265.5,-603.5 265.5,-458.5 139.5,-458.5"/>
<text text-anchor="start" x="147.5" y="-591.5" font-family="Helvetica,sans-Serif" font-size="10.00">RayTracer::Entities</text>
<text text-anchor="middle" x="202.5" y="-580.5" font-family="Helvetica,sans-Serif" font-size="10.00">::Transform::Transform</text>
<polyline fill="none" stroke="black" points="139.5,-573.5 265.5,-573.5 "/>
<text text-anchor="middle" x="202.5" y="-561.5" font-family="Helvetica,sans-Serif" font-size="10.00"> </text>
<polyline fill="none" stroke="black" points="139.5,-554.5 265.5,-554.5 "/>
<text text-anchor="start" x="147.5" y="-542.5" font-family="Helvetica,sans-Serif" font-size="10.00">+ Transform()</text>
<text text-anchor="start" x="147.5" y="-531.5" font-family="Helvetica,sans-Serif" font-size="10.00">+ setPosition()</text>
<text text-anchor="start" x="147.5" y="-520.5" font-family="Helvetica,sans-Serif" font-size="10.00">+ getPosition()</text>
<text text-anchor="start" x="147.5" y="-509.5" font-family="Helvetica,sans-Serif" font-size="10.00">+ setRotation()</text>
<text text-anchor="start" x="147.5" y="-498.5" font-family="Helvetica,sans-Serif" font-size="10.00">+ getRotation()</text>
<text text-anchor="start" x="147.5" y="-487.5" font-family="Helvetica,sans-Serif" font-size="10.00">+ setScale()</text>
<text text-anchor="start" x="147.5" y="-476.5" font-family="Helvetica,sans-Serif" font-size="10.00">+ getScale()</text>
<text text-anchor="start" x="147.5" y="-465.5" font-family="Helvetica,sans-Serif" font-size="10.00">+ operator=()</text>
</a>
</g>
</g>
<!-- Node7&#45;&gt;Node4 -->
<g id="edge6" class="edge">
<title>Node7&#45;&gt;Node4</title>
<path fill="none" stroke="#404040" d="M203.94,-458.43C206.83,-447.7 211.42,-437.43 218.5,-429 264.65,-374.04 346.02,-352.57 405.87,-344.23"/>
<polygon fill="none" stroke="#404040" points="406.01,-344.21 411.45,-339.48 417.91,-342.68 412.47,-347.41 406.01,-344.21"/>
<text text-anchor="middle" x="249" y="-432" font-family="Helvetica,sans-Serif" font-size="10.00"> &#45;_transform</text>
</g>
<!-- Node8 -->
<g id="node8" class="node">
<title>Node8</title>
<g id="a_node8"><a xlink:href="a01212.html" target="_top" xlink:title="The ITransform class.">
<polygon fill="white" stroke="black" points="0,-767 0,-912 129,-912 129,-767 0,-767"/>
<text text-anchor="start" x="8" y="-900" font-family="Helvetica,sans-Serif" font-size="10.00">RayTracer::Entities</text>
<text text-anchor="middle" x="64.5" y="-889" font-family="Helvetica,sans-Serif" font-size="10.00">::Transform::ITransform</text>
<polyline fill="none" stroke="black" points="0,-882 129,-882 "/>
<text text-anchor="middle" x="64.5" y="-870" font-family="Helvetica,sans-Serif" font-size="10.00"> </text>
<polyline fill="none" stroke="black" points="0,-863 129,-863 "/>
<text text-anchor="start" x="8" y="-851" font-family="Helvetica,sans-Serif" font-size="10.00">+ ~ITransform()</text>
<text text-anchor="start" x="8" y="-840" font-family="Helvetica,sans-Serif" font-size="10.00">+ setPosition()</text>
<text text-anchor="start" x="8" y="-829" font-family="Helvetica,sans-Serif" font-size="10.00">+ getPosition()</text>
<text text-anchor="start" x="8" y="-818" font-family="Helvetica,sans-Serif" font-size="10.00">+ setRotation()</text>
<text text-anchor="start" x="8" y="-807" font-family="Helvetica,sans-Serif" font-size="10.00">+ getRotation()</text>
<text text-anchor="start" x="8" y="-796" font-family="Helvetica,sans-Serif" font-size="10.00">+ setScale()</text>
<text text-anchor="start" x="8" y="-785" font-family="Helvetica,sans-Serif" font-size="10.00">+ getScale()</text>
<text text-anchor="start" x="8" y="-774" font-family="Helvetica,sans-Serif" font-size="10.00">+ operator=()</text>
</a>
</g>
</g>
<!-- Node8&#45;&gt;Node7 -->
<g id="edge7" class="edge">
<title>Node8&#45;&gt;Node7</title>
<path fill="none" stroke="midnightblue" d="M100.65,-757.41C112.66,-730.53 126.13,-700.47 138.5,-673 148.66,-650.45 159.78,-625.9 169.86,-603.69"/>
<polygon fill="none" stroke="midnightblue" points="97.35,-756.22 96.47,-766.77 103.74,-759.07 97.35,-756.22"/>
</g>
<!-- Node9 -->
<g id="node9" class="node">
<title>Node9</title>
<g id="a_node9"><a xlink:href="a01224.html" target="_top" xlink:title="The Vector3f class.">
<polygon fill="white" stroke="black" points="147.5,-673.5 147.5,-1005.5 265.5,-1005.5 265.5,-673.5 147.5,-673.5"/>
<text text-anchor="start" x="155.5" y="-993.5" font-family="Helvetica,sans-Serif" font-size="10.00">RayTracer::Entities</text>
<text text-anchor="middle" x="206.5" y="-982.5" font-family="Helvetica,sans-Serif" font-size="10.00">::Transform::Vector3f</text>
<polyline fill="none" stroke="black" points="147.5,-975.5 265.5,-975.5 "/>
<text text-anchor="middle" x="206.5" y="-963.5" font-family="Helvetica,sans-Serif" font-size="10.00"> </text>
<polyline fill="none" stroke="black" points="147.5,-956.5 265.5,-956.5 "/>
<text text-anchor="start" x="155.5" y="-944.5" font-family="Helvetica,sans-Serif" font-size="10.00">+ ~Vector3f()</text>
<text text-anchor="start" x="155.5" y="-933.5" font-family="Helvetica,sans-Serif" font-size="10.00">+ Vector3f()</text>
<text text-anchor="start" x="155.5" y="-922.5" font-family="Helvetica,sans-Serif" font-size="10.00">+ Vector3f()</text>
<text text-anchor="start" x="155.5" y="-911.5" font-family="Helvetica,sans-Serif" font-size="10.00">+ Vector3f()</text>
<text text-anchor="start" x="155.5" y="-900.5" font-family="Helvetica,sans-Serif" font-size="10.00">+ Vector3f()</text>
<text text-anchor="start" x="155.5" y="-889.5" font-family="Helvetica,sans-Serif" font-size="10.00">+ operator+()</text>
<text text-anchor="start" x="155.5" y="-878.5" font-family="Helvetica,sans-Serif" font-size="10.00">+ operator&#45;()</text>
<text text-anchor="start" x="155.5" y="-867.5" font-family="Helvetica,sans-Serif" font-size="10.00">+ operator*()</text>
<text text-anchor="start" x="155.5" y="-856.5" font-family="Helvetica,sans-Serif" font-size="10.00">+ operator/()</text>
<text text-anchor="start" x="155.5" y="-845.5" font-family="Helvetica,sans-Serif" font-size="10.00">+ operator=()</text>
<text text-anchor="start" x="155.5" y="-834.5" font-family="Helvetica,sans-Serif" font-size="10.00">+ getX()</text>
<text text-anchor="start" x="155.5" y="-823.5" font-family="Helvetica,sans-Serif" font-size="10.00">+ getY()</text>
<text text-anchor="start" x="155.5" y="-812.5" font-family="Helvetica,sans-Serif" font-size="10.00">+ getZ()</text>
<text text-anchor="start" x="155.5" y="-801.5" font-family="Helvetica,sans-Serif" font-size="10.00">+ getNorm()</text>
<text text-anchor="start" x="155.5" y="-790.5" font-family="Helvetica,sans-Serif" font-size="10.00">+ getNormalized()</text>
<text text-anchor="start" x="155.5" y="-779.5" font-family="Helvetica,sans-Serif" font-size="10.00">+ getCrossed()</text>
<text text-anchor="start" x="155.5" y="-768.5" font-family="Helvetica,sans-Serif" font-size="10.00">+ dot()</text>
<text text-anchor="start" x="155.5" y="-757.5" font-family="Helvetica,sans-Serif" font-size="10.00">+ getDistance()</text>
<text text-anchor="start" x="155.5" y="-746.5" font-family="Helvetica,sans-Serif" font-size="10.00">+ toDegrees()</text>
<text text-anchor="start" x="155.5" y="-735.5" font-family="Helvetica,sans-Serif" font-size="10.00">+ toRadians()</text>
<text text-anchor="start" x="155.5" y="-724.5" font-family="Helvetica,sans-Serif" font-size="10.00">+ rotateVector()</text>
<text text-anchor="start" x="155.5" y="-713.5" font-family="Helvetica,sans-Serif" font-size="10.00">+ getAngle()</text>
<text text-anchor="start" x="155.5" y="-702.5" font-family="Helvetica,sans-Serif" font-size="10.00">+ rotateX()</text>
<text text-anchor="start" x="155.5" y="-691.5" font-family="Helvetica,sans-Serif" font-size="10.00">+ rotateY()</text>
<text text-anchor="start" x="155.5" y="-680.5" font-family="Helvetica,sans-Serif" font-size="10.00">+ rotateZ()</text>
</a>
</g>
</g>
<!-- Node9&#45;&gt;Node7 -->
<g id="edge8" class="edge">
<title>Node9&#45;&gt;Node7</title>
<path fill="none" stroke="#404040" d="M204.34,-673.14C204.08,-653.27 203.83,-633.67 203.59,-615.69"/>
<polygon fill="none" stroke="#404040" points="203.59,-615.52 199.51,-609.57 203.43,-603.52 207.51,-609.47 203.59,-615.52"/>
<text text-anchor="middle" x="230.5" y="-647" font-family="Helvetica,sans-Serif" font-size="10.00"> &#45;_position</text>
<text text-anchor="middle" x="230.5" y="-636" font-family="Helvetica,sans-Serif" font-size="10.00">&#45;_rotation</text>
<text text-anchor="middle" x="230.5" y="-625" font-family="Helvetica,sans-Serif" font-size="10.00">&#45;_scale</text>
</g>
<!-- Node10 -->
<g id="node10" class="node">
<title>Node10</title>
<g id="a_node10"><a xlink:title=" ">
<polygon fill="white" stroke="#bfbfbf" points="225.5,-1075.5 225.5,-1132.5 275.5,-1132.5 275.5,-1075.5 225.5,-1075.5"/>
<text text-anchor="middle" x="250.5" y="-1120.5" font-family="Helvetica,sans-Serif" font-size="10.00">double</text>
<polyline fill="none" stroke="#bfbfbf" points="225.5,-1113.5 275.5,-1113.5 "/>
<text text-anchor="middle" x="250.5" y="-1101.5" font-family="Helvetica,sans-Serif" font-size="10.00"> </text>
<polyline fill="none" stroke="#bfbfbf" points="225.5,-1094.5 275.5,-1094.5 "/>
<text text-anchor="middle" x="250.5" y="-1082.5" font-family="Helvetica,sans-Serif" font-size="10.00"> </text>
</a>
</g>
</g>
<!-- Node10&#45;&gt;Node4 -->
<g id="edge10" class="edge">
<title>Node10&#45;&gt;Node4</title>
<path fill="none" stroke="#404040" d="M260.18,-1075.45C262.1,-1069.42 263.99,-1063.03 265.5,-1057 271.08,-1034.67 271.7,-1028.85 274.5,-1006 289.35,-884.84 252.71,-564.42 312.5,-458 333.68,-420.3 372.36,-391.66 407.28,-371.93"/>
<polygon fill="none" stroke="#404040" points="407.43,-371.84 410.78,-365.46 417.97,-366.09 414.62,-372.48 407.43,-371.84"/>
<text text-anchor="middle" x="301" y="-636" font-family="Helvetica,sans-Serif" font-size="10.00"> &#45;_radius</text>
</g>
<!-- Node10&#45;&gt;Node9 -->
<g id="edge9" class="edge">
<title>Node10&#45;&gt;Node9</title>
<path fill="none" stroke="#404040" d="M245.87,-1075.4C243.32,-1060.16 239.91,-1039.79 236.15,-1017.4"/>
<polygon fill="none" stroke="#404040" points="236.14,-1017.36 231.21,-1012.1 234.16,-1005.52 239.1,-1010.78 236.14,-1017.36"/>
<text text-anchor="middle" x="252" y="-1049" font-family="Helvetica,sans-Serif" font-size="10.00"> &#45;_x</text>
<text text-anchor="middle" x="252" y="-1038" font-family="Helvetica,sans-Serif" font-size="10.00">&#45;_y</text>
<text text-anchor="middle" x="252" y="-1027" font-family="Helvetica,sans-Serif" font-size="10.00">&#45;_z</text>
</g>
<!-- Node11 -->
<g id="node11" class="node">
<title>Node11</title>
<g id="a_node11"><a xlink:title=" ">
<polygon fill="white" stroke="#bfbfbf" points="321.5,-491.5 321.5,-570.5 485.5,-570.5 485.5,-491.5 321.5,-491.5"/>
<text text-anchor="start" x="329.5" y="-558.5" font-family="Helvetica,sans-Serif" font-size="10.00">optional&lt; std::reference</text>
<text text-anchor="start" x="329.5" y="-547.5" font-family="Helvetica,sans-Serif" font-size="10.00">_wrapper&lt; RayTracer::Entities</text>
<text text-anchor="middle" x="403.5" y="-536.5" font-family="Helvetica,sans-Serif" font-size="10.00">::IMaterial &gt; &gt;</text>
<polyline fill="none" stroke="#bfbfbf" points="321.5,-529.5 485.5,-529.5 "/>
<text text-anchor="middle" x="403.5" y="-517.5" font-family="Helvetica,sans-Serif" font-size="10.00"> </text>
<polyline fill="none" stroke="#bfbfbf" points="321.5,-510.5 485.5,-510.5 "/>
<text text-anchor="middle" x="403.5" y="-498.5" font-family="Helvetica,sans-Serif" font-size="10.00"> </text>
</a>
</g>
</g>
<!-- Node11&#45;&gt;Node4 -->
<g id="edge11" class="edge">
<title>Node11&#45;&gt;Node4</title>
<path fill="none" stroke="#404040" d="M419.08,-491.35C427.12,-471.4 437.27,-446.25 446.98,-422.16"/>
<polygon fill="none" stroke="#404040" points="447.06,-421.95 445.59,-414.89 451.55,-410.82 453.01,-417.88 447.06,-421.95"/>
<text text-anchor="middle" x="469.5" y="-432" font-family="Helvetica,sans-Serif" font-size="10.00"> &#45;_material</text>
</g>
<!-- Node12 -->
<g id="node12" class="node">
<title>Node12</title>
<g id="a_node12"><a xlink:href="a01260.html" target="_top" xlink:title="Logger singleton.">
<polygon fill="white" stroke="black" points="504,-469.5 504,-592.5 611,-592.5 611,-469.5 504,-469.5"/>
<text text-anchor="middle" x="557.5" y="-580.5" font-family="Helvetica,sans-Serif" font-size="10.00">RayTracer::ILogger</text>
<polyline fill="none" stroke="black" points="504,-573.5 611,-573.5 "/>
<text text-anchor="middle" x="557.5" y="-561.5" font-family="Helvetica,sans-Serif" font-size="10.00"> </text>
<polyline fill="none" stroke="black" points="504,-554.5 611,-554.5 "/>
<text text-anchor="start" x="512" y="-542.5" font-family="Helvetica,sans-Serif" font-size="10.00">+ ~ILogger()</text>
<text text-anchor="start" x="512" y="-531.5" font-family="Helvetica,sans-Serif" font-size="10.00">+ fatal()</text>
<text text-anchor="start" x="512" y="-520.5" font-family="Helvetica,sans-Serif" font-size="10.00">+ error()</text>
<text text-anchor="start" x="512" y="-509.5" font-family="Helvetica,sans-Serif" font-size="10.00">+ warn()</text>
<text text-anchor="start" x="512" y="-498.5" font-family="Helvetica,sans-Serif" font-size="10.00">+ info()</text>
<text text-anchor="start" x="512" y="-487.5" font-family="Helvetica,sans-Serif" font-size="10.00">+ debug()</text>
<text text-anchor="start" x="512" y="-476.5" font-family="Helvetica,sans-Serif" font-size="10.00">+ trace()</text>
</a>
</g>
</g>
<!-- Node12&#45;&gt;Node4 -->
<g id="edge12" class="edge">
<title>Node12&#45;&gt;Node4</title>
<path fill="none" stroke="#404040" d="M533.03,-469.3C526.97,-454.27 520.37,-437.91 513.97,-422.02"/>
<polygon fill="none" stroke="#404040" points="513.83,-421.68 507.88,-417.61 509.35,-410.55 515.3,-414.62 513.83,-421.68"/>
<text text-anchor="middle" x="541" y="-432" font-family="Helvetica,sans-Serif" font-size="10.00"> &#45;_logger</text>
</g>
<!-- Node13 -->
<g id="node13" class="node">
<title>Node13</title>
<g id="a_node13"><a xlink:title=" ">
<polygon fill="white" stroke="#bfbfbf" points="643,-309.5 643,-366.5 740,-366.5 740,-309.5 643,-309.5"/>
<text text-anchor="middle" x="691.5" y="-354.5" font-family="Helvetica,sans-Serif" font-size="10.00">std::vector&lt; T &gt;</text>
<polyline fill="none" stroke="#bfbfbf" points="643,-347.5 740,-347.5 "/>
<text text-anchor="middle" x="691.5" y="-335.5" font-family="Helvetica,sans-Serif" font-size="10.00"> </text>
<polyline fill="none" stroke="#bfbfbf" points="643,-328.5 740,-328.5 "/>
<text text-anchor="middle" x="691.5" y="-316.5" font-family="Helvetica,sans-Serif" font-size="10.00"> </text>
</a>
</g>
</g>
<!-- Node13&#45;&gt;Node3 -->
<g id="edge13" class="edge">
<title>Node13&#45;&gt;Node3</title>
<path fill="none" stroke="orange" d="M661.95,-301.58C638.75,-273.78 606.51,-235.13 582.67,-206.56"/>
<polygon fill="orange" stroke="orange" points="659.44,-304.03 668.53,-309.47 664.81,-299.55 659.44,-304.03"/>
<text text-anchor="start" x="613.5" y="-239" font-family="Helvetica,sans-Serif" font-size="10.00"> &lt; RayTracer::PluginsExt</text>
<text text-anchor="middle" x="677.5" y="-228" font-family="Helvetica,sans-Serif" font-size="10.00">::Sphere::SphereEntity * &gt;</text>
</g>
<!-- Node14 -->
<g id="node14" class="node">
<title>Node14</title>
<g id="a_node14"><a xlink:title=" ">
<polygon fill="white" stroke="#bfbfbf" points="760,-502.5 760,-559.5 789,-559.5 789,-502.5 760,-502.5"/>
<text text-anchor="middle" x="774.5" y="-547.5" font-family="Helvetica,sans-Serif" font-size="10.00">T</text>
<polyline fill="none" stroke="#bfbfbf" points="760,-540.5 789,-540.5 "/>
<text text-anchor="middle" x="774.5" y="-528.5" font-family="Helvetica,sans-Serif" font-size="10.00"> </text>
<polyline fill="none" stroke="#bfbfbf" points="760,-521.5 789,-521.5 "/>
<text text-anchor="middle" x="774.5" y="-509.5" font-family="Helvetica,sans-Serif" font-size="10.00"> </text>
</a>
</g>
</g>
<!-- Node14&#45;&gt;Node13 -->
<g id="edge14" class="edge">
<title>Node14&#45;&gt;Node13</title>
<path fill="none" stroke="#404040" d="M766.26,-502.32C761.99,-488.79 756.43,-472.37 750.5,-458 739.17,-430.52 724.29,-400.54 712.31,-377.55"/>
<polygon fill="none" stroke="#404040" points="712.28,-377.48 705.94,-374.04 706.69,-366.86 713.02,-370.31 712.28,-377.48"/>
<text text-anchor="middle" x="770.5" y="-432" font-family="Helvetica,sans-Serif" font-size="10.00"> +elements</text>
</g>
</g>
</svg>
