<?xml version="1.0" encoding="UTF-8" standalone="no"?>
<!DOCTYPE svg PUBLIC "-//W3C//DTD SVG 1.1//EN"
 "http://www.w3.org/Graphics/SVG/1.1/DTD/svg11.dtd">
<!-- Generated by graphviz version 2.43.0 (0)
 -->
<!-- Title: RayTracer::PluginsExt::Camera::Clustered::ClusterRayIterator Pages: 1 -->
<svg width="456pt" height="639pt"
 viewBox="0.00 0.00 456.00 639.00" xmlns="http://www.w3.org/2000/svg" xmlns:xlink="http://www.w3.org/1999/xlink">
<g id="graph0" class="graph" transform="scale(1 1) rotate(0) translate(4 635)">
<title>RayTracer::PluginsExt::Camera::Clustered::ClusterRayIterator</title>
<polygon fill="white" stroke="transparent" points="-4,4 -4,-635 452,-635 452,4 -4,4"/>
<!-- Node1 -->
<g id="node1" class="node">
<title>Node1</title>
<g id="a_node1"><a xlink:title="The ClusterRayIterator class.">
<polygon fill="#bfbfbf" stroke="black" points="196,-0.5 196,-101.5 321,-101.5 321,-0.5 196,-0.5"/>
<text text-anchor="start" x="204" y="-89.5" font-family="Helvetica,sans-Serif" font-size="10.00">RayTracer::PluginsExt</text>
<text text-anchor="start" x="204" y="-78.5" font-family="Helvetica,sans-Serif" font-size="10.00">::Camera::Clustered::</text>
<text text-anchor="middle" x="258.5" y="-67.5" font-family="Helvetica,sans-Serif" font-size="10.00">ClusterRayIterator</text>
<polyline fill="none" stroke="black" points="196,-60.5 321,-60.5 "/>
<text text-anchor="middle" x="258.5" y="-48.5" font-family="Helvetica,sans-Serif" font-size="10.00"> </text>
<polyline fill="none" stroke="black" points="196,-41.5 321,-41.5 "/>
<text text-anchor="start" x="204" y="-29.5" font-family="Helvetica,sans-Serif" font-size="10.00">+ ClusterRayIterator()</text>
<text text-anchor="start" x="204" y="-18.5" font-family="Helvetica,sans-Serif" font-size="10.00">+ begin()</text>
<text text-anchor="start" x="204" y="-7.5" font-family="Helvetica,sans-Serif" font-size="10.00">+ end()</text>
</a>
</g>
</g>
<!-- Node2 -->
<g id="node2" class="node">
<title>Node2</title>
<g id="a_node2"><a xlink:href="a01336.html" target="_top" xlink:title="The RayIterator class.">
<polygon fill="white" stroke="black" points="0,-292.5 0,-382.5 113,-382.5 113,-292.5 0,-292.5"/>
<text text-anchor="start" x="8" y="-370.5" font-family="Helvetica,sans-Serif" font-size="10.00">RayTracer::Images::</text>
<text text-anchor="middle" x="56.5" y="-359.5" font-family="Helvetica,sans-Serif" font-size="10.00">IRayIterator</text>
<polyline fill="none" stroke="black" points="0,-352.5 113,-352.5 "/>
<text text-anchor="middle" x="56.5" y="-340.5" font-family="Helvetica,sans-Serif" font-size="10.00"> </text>
<polyline fill="none" stroke="black" points="0,-333.5 113,-333.5 "/>
<text text-anchor="start" x="8" y="-321.5" font-family="Helvetica,sans-Serif" font-size="10.00">+ ~IRayIterator()</text>
<text text-anchor="start" x="8" y="-310.5" font-family="Helvetica,sans-Serif" font-size="10.00">+ begin()</text>
<text text-anchor="start" x="8" y="-299.5" font-family="Helvetica,sans-Serif" font-size="10.00">+ end()</text>
</a>
</g>
</g>
<!-- Node2&#45;&gt;Node1 -->
<g id="edge1" class="edge">
<title>Node2&#45;&gt;Node1</title>
<path fill="none" stroke="midnightblue" d="M70.92,-282.46C81.65,-248.46 98.6,-204.79 122.5,-171 142.43,-142.83 170.34,-116.89 195.7,-96.48"/>
<polygon fill="none" stroke="midnightblue" points="67.51,-281.64 67.92,-292.23 74.2,-283.7 67.51,-281.64"/>
</g>
<!-- Node3 -->
<g id="node3" class="node">
<title>Node3</title>
<g id="a_node3"><a xlink:href="a01280.html" target="_top" xlink:title="The Vector3f class.">
<polygon fill="white" stroke="black" points="131.5,-171.5 131.5,-503.5 249.5,-503.5 249.5,-171.5 131.5,-171.5"/>
<text text-anchor="start" x="139.5" y="-491.5" font-family="Helvetica,sans-Serif" font-size="10.00">RayTracer::Entities</text>
<text text-anchor="middle" x="190.5" y="-480.5" font-family="Helvetica,sans-Serif" font-size="10.00">::Transform::Vector3f</text>
<polyline fill="none" stroke="black" points="131.5,-473.5 249.5,-473.5 "/>
<text text-anchor="middle" x="190.5" y="-461.5" font-family="Helvetica,sans-Serif" font-size="10.00"> </text>
<polyline fill="none" stroke="black" points="131.5,-454.5 249.5,-454.5 "/>
<text text-anchor="start" x="139.5" y="-442.5" font-family="Helvetica,sans-Serif" font-size="10.00">+ ~Vector3f()</text>
<text text-anchor="start" x="139.5" y="-431.5" font-family="Helvetica,sans-Serif" font-size="10.00">+ Vector3f()</text>
<text text-anchor="start" x="139.5" y="-420.5" font-family="Helvetica,sans-Serif" font-size="10.00">+ Vector3f()</text>
<text text-anchor="start" x="139.5" y="-409.5" font-family="Helvetica,sans-Serif" font-size="10.00">+ Vector3f()</text>
<text text-anchor="start" x="139.5" y="-398.5" font-family="Helvetica,sans-Serif" font-size="10.00">+ Vector3f()</text>
<text text-anchor="start" x="139.5" y="-387.5" font-family="Helvetica,sans-Serif" font-size="10.00">+ operator+()</text>
<text text-anchor="start" x="139.5" y="-376.5" font-family="Helvetica,sans-Serif" font-size="10.00">+ operator&#45;()</text>
<text text-anchor="start" x="139.5" y="-365.5" font-family="Helvetica,sans-Serif" font-size="10.00">+ operator*()</text>
<text text-anchor="start" x="139.5" y="-354.5" font-family="Helvetica,sans-Serif" font-size="10.00">+ operator/()</text>
<text text-anchor="start" x="139.5" y="-343.5" font-family="Helvetica,sans-Serif" font-size="10.00">+ operator=()</text>
<text text-anchor="start" x="139.5" y="-332.5" font-family="Helvetica,sans-Serif" font-size="10.00">+ getX()</text>
<text text-anchor="start" x="139.5" y="-321.5" font-family="Helvetica,sans-Serif" font-size="10.00">+ getY()</text>
<text text-anchor="start" x="139.5" y="-310.5" font-family="Helvetica,sans-Serif" font-size="10.00">+ getZ()</text>
<text text-anchor="start" x="139.5" y="-299.5" font-family="Helvetica,sans-Serif" font-size="10.00">+ getNorm()</text>
<text text-anchor="start" x="139.5" y="-288.5" font-family="Helvetica,sans-Serif" font-size="10.00">+ getNormalized()</text>
<text text-anchor="start" x="139.5" y="-277.5" font-family="Helvetica,sans-Serif" font-size="10.00">+ getCrossed()</text>
<text text-anchor="start" x="139.5" y="-266.5" font-family="Helvetica,sans-Serif" font-size="10.00">+ dot()</text>
<text text-anchor="start" x="139.5" y="-255.5" font-family="Helvetica,sans-Serif" font-size="10.00">+ getDistance()</text>
<text text-anchor="start" x="139.5" y="-244.5" font-family="Helvetica,sans-Serif" font-size="10.00">+ toDegrees()</text>
<text text-anchor="start" x="139.5" y="-233.5" font-family="Helvetica,sans-Serif" font-size="10.00">+ toRadians()</text>
<text text-anchor="start" x="139.5" y="-222.5" font-family="Helvetica,sans-Serif" font-size="10.00">+ rotateVector()</text>
<text text-anchor="start" x="139.5" y="-211.5" font-family="Helvetica,sans-Serif" font-size="10.00">+ getAngle()</text>
<text text-anchor="start" x="139.5" y="-200.5" font-family="Helvetica,sans-Serif" font-size="10.00">+ rotateX()</text>
<text text-anchor="start" x="139.5" y="-189.5" font-family="Helvetica,sans-Serif" font-size="10.00">+ rotateY()</text>
<text text-anchor="start" x="139.5" y="-178.5" font-family="Helvetica,sans-Serif" font-size="10.00">+ rotateZ()</text>
</a>
</g>
</g>
<!-- Node3&#45;&gt;Node1 -->
<g id="edge2" class="edge">
<title>Node3&#45;&gt;Node1</title>
<path fill="none" stroke="#404040" d="M187.74,-171.28C190.72,-153.62 195.14,-136.2 201.5,-120 202.55,-117.34 203.74,-114.71 205.05,-112.11"/>
<polygon fill="none" stroke="#404040" points="205.07,-112.08 204.61,-104.88 211.07,-101.68 211.54,-108.88 205.07,-112.08"/>
<text text-anchor="middle" x="248.5" y="-145" font-family="Helvetica,sans-Serif" font-size="10.00"> &#45;_cameraPos</text>
<text text-anchor="middle" x="248.5" y="-134" font-family="Helvetica,sans-Serif" font-size="10.00">&#45;_screenPosCenter</text>
<text text-anchor="middle" x="248.5" y="-123" font-family="Helvetica,sans-Serif" font-size="10.00">&#45;_screenPosTopLeft</text>
</g>
<!-- Node4 -->
<g id="node4" class="node">
<title>Node4</title>
<g id="a_node4"><a xlink:title=" ">
<polygon fill="white" stroke="#bfbfbf" points="165.5,-573.5 165.5,-630.5 215.5,-630.5 215.5,-573.5 165.5,-573.5"/>
<text text-anchor="middle" x="190.5" y="-618.5" font-family="Helvetica,sans-Serif" font-size="10.00">double</text>
<polyline fill="none" stroke="#bfbfbf" points="165.5,-611.5 215.5,-611.5 "/>
<text text-anchor="middle" x="190.5" y="-599.5" font-family="Helvetica,sans-Serif" font-size="10.00"> </text>
<polyline fill="none" stroke="#bfbfbf" points="165.5,-592.5 215.5,-592.5 "/>
<text text-anchor="middle" x="190.5" y="-580.5" font-family="Helvetica,sans-Serif" font-size="10.00"> </text>
</a>
</g>
</g>
<!-- Node4&#45;&gt;Node3 -->
<g id="edge3" class="edge">
<title>Node4&#45;&gt;Node3</title>
<path fill="none" stroke="#404040" d="M190.5,-573.4C190.5,-558.23 190.5,-537.98 190.5,-515.71"/>
<polygon fill="none" stroke="#404040" points="190.5,-515.52 186.5,-509.52 190.5,-503.52 194.5,-509.52 190.5,-515.52"/>
<text text-anchor="middle" x="200" y="-547" font-family="Helvetica,sans-Serif" font-size="10.00"> &#45;_x</text>
<text text-anchor="middle" x="200" y="-536" font-family="Helvetica,sans-Serif" font-size="10.00">&#45;_y</text>
<text text-anchor="middle" x="200" y="-525" font-family="Helvetica,sans-Serif" font-size="10.00">&#45;_z</text>
</g>
<!-- Node5 -->
<g id="node5" class="node">
<title>Node5</title>
<g id="a_node5"><a xlink:href="a01276.html" target="_top" xlink:title="The Vector2i class.">
<polygon fill="white" stroke="black" points="268,-243 268,-432 385,-432 385,-243 268,-243"/>
<text text-anchor="start" x="276" y="-420" font-family="Helvetica,sans-Serif" font-size="10.00">RayTracer::Entities</text>
<text text-anchor="middle" x="326.5" y="-409" font-family="Helvetica,sans-Serif" font-size="10.00">::Transform::Vector2i</text>
<polyline fill="none" stroke="black" points="268,-402 385,-402 "/>
<text text-anchor="middle" x="326.5" y="-390" font-family="Helvetica,sans-Serif" font-size="10.00"> </text>
<polyline fill="none" stroke="black" points="268,-383 385,-383 "/>
<text text-anchor="start" x="276" y="-371" font-family="Helvetica,sans-Serif" font-size="10.00">+ ~Vector2i()</text>
<text text-anchor="start" x="276" y="-360" font-family="Helvetica,sans-Serif" font-size="10.00">+ Vector2i()</text>
<text text-anchor="start" x="276" y="-349" font-family="Helvetica,sans-Serif" font-size="10.00">+ Vector2i()</text>
<text text-anchor="start" x="276" y="-338" font-family="Helvetica,sans-Serif" font-size="10.00">+ Vector2i()</text>
<text text-anchor="start" x="276" y="-327" font-family="Helvetica,sans-Serif" font-size="10.00">+ Vector2i()</text>
<text text-anchor="start" x="276" y="-316" font-family="Helvetica,sans-Serif" font-size="10.00">+ operator+()</text>
<text text-anchor="start" x="276" y="-305" font-family="Helvetica,sans-Serif" font-size="10.00">+ operator&#45;()</text>
<text text-anchor="start" x="276" y="-294" font-family="Helvetica,sans-Serif" font-size="10.00">+ operator*()</text>
<text text-anchor="start" x="276" y="-283" font-family="Helvetica,sans-Serif" font-size="10.00">+ operator/()</text>
<text text-anchor="start" x="276" y="-272" font-family="Helvetica,sans-Serif" font-size="10.00">+ operator=()</text>
<text text-anchor="start" x="276" y="-261" font-family="Helvetica,sans-Serif" font-size="10.00">+ getX()</text>
<text text-anchor="start" x="276" y="-250" font-family="Helvetica,sans-Serif" font-size="10.00">+ getY()</text>
</a>
</g>
</g>
<!-- Node5&#45;&gt;Node1 -->
<g id="edge4" class="edge">
<title>Node5&#45;&gt;Node1</title>
<path fill="none" stroke="#404040" d="M320.43,-242.92C316.05,-204.16 308.5,-159.19 295.5,-120 294.71,-117.61 293.83,-115.2 292.89,-112.8"/>
<polygon fill="none" stroke="#404040" points="292.81,-112.62 286.76,-108.69 288.06,-101.6 294.11,-105.52 292.81,-112.62"/>
<text text-anchor="middle" x="336" y="-134" font-family="Helvetica,sans-Serif" font-size="10.00"> &#45;_screenSize</text>
</g>
<!-- Node6 -->
<g id="node6" class="node">
<title>Node6</title>
<g id="a_node6"><a xlink:title=" ">
<polygon fill="white" stroke="#bfbfbf" points="312,-573.5 312,-630.5 341,-630.5 341,-573.5 312,-573.5"/>
<text text-anchor="middle" x="326.5" y="-618.5" font-family="Helvetica,sans-Serif" font-size="10.00">int</text>
<polyline fill="none" stroke="#bfbfbf" points="312,-611.5 341,-611.5 "/>
<text text-anchor="middle" x="326.5" y="-599.5" font-family="Helvetica,sans-Serif" font-size="10.00"> </text>
<polyline fill="none" stroke="#bfbfbf" points="312,-592.5 341,-592.5 "/>
<text text-anchor="middle" x="326.5" y="-580.5" font-family="Helvetica,sans-Serif" font-size="10.00"> </text>
</a>
</g>
</g>
<!-- Node6&#45;&gt;Node5 -->
<g id="edge5" class="edge">
<title>Node6&#45;&gt;Node5</title>
<path fill="none" stroke="#404040" d="M326.5,-573.4C326.5,-542.71 326.5,-491.24 326.5,-444.3"/>
<polygon fill="none" stroke="#404040" points="326.5,-444.15 322.5,-438.15 326.5,-432.15 330.5,-438.15 326.5,-444.15"/>
<text text-anchor="middle" x="336" y="-541.5" font-family="Helvetica,sans-Serif" font-size="10.00"> &#45;_x</text>
<text text-anchor="middle" x="336" y="-530.5" font-family="Helvetica,sans-Serif" font-size="10.00">&#45;_y</text>
</g>
<!-- Node7 -->
<g id="node7" class="node">
<title>Node7</title>
<g id="a_node7"><a xlink:title=" ">
<polygon fill="white" stroke="#bfbfbf" points="403,-309 403,-366 448,-366 448,-309 403,-309"/>
<text text-anchor="middle" x="425.5" y="-354" font-family="Helvetica,sans-Serif" font-size="10.00">size_t</text>
<polyline fill="none" stroke="#bfbfbf" points="403,-347 448,-347 "/>
<text text-anchor="middle" x="425.5" y="-335" font-family="Helvetica,sans-Serif" font-size="10.00"> </text>
<polyline fill="none" stroke="#bfbfbf" points="403,-328 448,-328 "/>
<text text-anchor="middle" x="425.5" y="-316" font-family="Helvetica,sans-Serif" font-size="10.00"> </text>
</a>
</g>
</g>
<!-- Node7&#45;&gt;Node1 -->
<g id="edge6" class="edge">
<title>Node7&#45;&gt;Node1</title>
<path fill="none" stroke="#404040" d="M426.43,-308.93C426.44,-263.88 419.97,-174.11 372.5,-120 361.02,-106.91 346.38,-95.62 331.45,-86.21"/>
<polygon fill="none" stroke="#404040" points="331.39,-86.18 324.19,-86.52 321.11,-80 328.31,-79.66 331.39,-86.18"/>
<text text-anchor="middle" x="408" y="-134" font-family="Helvetica,sans-Serif" font-size="10.00"> &#45;_unit</text>
</g>
</g>
</svg>
