<?xml version="1.0" encoding="UTF-8" standalone="no"?>
<!DOCTYPE svg PUBLIC "-//W3C//DTD SVG 1.1//EN"
 "http://www.w3.org/Graphics/SVG/1.1/DTD/svg11.dtd">
<!-- Generated by graphviz version 2.43.0 (0)
 -->
<!-- Title: RayTracer::PluginsExt::ChessBoard::ChessBoardMaterial Pages: 1 -->
<svg width="193pt" height="314pt"
 viewBox="0.00 0.00 193.00 314.00" xmlns="http://www.w3.org/2000/svg" xmlns:xlink="http://www.w3.org/1999/xlink">
<g id="graph0" class="graph" transform="scale(1 1) rotate(0) translate(4 310)">
<title>RayTracer::PluginsExt::ChessBoard::ChessBoardMaterial</title>
<polygon fill="white" stroke="transparent" points="-4,4 -4,-310 189,-310 189,4 -4,4"/>
<!-- Node1 -->
<g id="node1" class="node">
<title>Node1</title>
<g id="a_node1"><a xlink:title=" ">
<polygon fill="#bfbfbf" stroke="black" points="0,-0.5 0,-167.5 185,-167.5 185,-0.5 0,-0.5"/>
<text text-anchor="start" x="8" y="-155.5" font-family="Helvetica,sans-Serif" font-size="10.00">RayTracer::PluginsExt</text>
<text text-anchor="middle" x="92.5" y="-144.5" font-family="Helvetica,sans-Serif" font-size="10.00">::ChessBoard::ChessBoardMaterial</text>
<polyline fill="none" stroke="black" points="0,-137.5 185,-137.5 "/>
<text text-anchor="start" x="8" y="-125.5" font-family="Helvetica,sans-Serif" font-size="10.00">&#45; _ambient</text>
<text text-anchor="start" x="8" y="-114.5" font-family="Helvetica,sans-Serif" font-size="10.00">&#45; _diffuse</text>
<text text-anchor="start" x="8" y="-103.5" font-family="Helvetica,sans-Serif" font-size="10.00">&#45; _specular</text>
<text text-anchor="start" x="8" y="-92.5" font-family="Helvetica,sans-Serif" font-size="10.00">&#45; _shininess</text>
<text text-anchor="start" x="8" y="-81.5" font-family="Helvetica,sans-Serif" font-size="10.00">&#45; _pair</text>
<text text-anchor="start" x="8" y="-70.5" font-family="Helvetica,sans-Serif" font-size="10.00">&#45; _impair</text>
<text text-anchor="start" x="8" y="-59.5" font-family="Helvetica,sans-Serif" font-size="10.00">&#45; _size</text>
<polyline fill="none" stroke="black" points="0,-52.5 185,-52.5 "/>
<text text-anchor="start" x="8" y="-40.5" font-family="Helvetica,sans-Serif" font-size="10.00">+ ChessBoardMaterial()</text>
<text text-anchor="start" x="8" y="-29.5" font-family="Helvetica,sans-Serif" font-size="10.00">+ getColor()</text>
<text text-anchor="start" x="8" y="-18.5" font-family="Helvetica,sans-Serif" font-size="10.00">+ setColor()</text>
<text text-anchor="start" x="8" y="-7.5" font-family="Helvetica,sans-Serif" font-size="10.00">+ redirectionLight()</text>
</a>
</g>
</g>
<!-- Node2 -->
<g id="node2" class="node">
<title>Node2</title>
<g id="a_node2"><a xlink:href="a01267.html" target="_top" xlink:title="The IMaterial class.">
<polygon fill="white" stroke="black" points="36.5,-204.5 36.5,-305.5 148.5,-305.5 148.5,-204.5 36.5,-204.5"/>
<text text-anchor="start" x="44.5" y="-293.5" font-family="Helvetica,sans-Serif" font-size="10.00">RayTracer::Entities</text>
<text text-anchor="middle" x="92.5" y="-282.5" font-family="Helvetica,sans-Serif" font-size="10.00">::IMaterial</text>
<polyline fill="none" stroke="black" points="36.5,-275.5 148.5,-275.5 "/>
<text text-anchor="middle" x="92.5" y="-263.5" font-family="Helvetica,sans-Serif" font-size="10.00"> </text>
<polyline fill="none" stroke="black" points="36.5,-256.5 148.5,-256.5 "/>
<text text-anchor="start" x="44.5" y="-244.5" font-family="Helvetica,sans-Serif" font-size="10.00">+ ~IMaterial()</text>
<text text-anchor="start" x="44.5" y="-233.5" font-family="Helvetica,sans-Serif" font-size="10.00">+ getColor()</text>
<text text-anchor="start" x="44.5" y="-222.5" font-family="Helvetica,sans-Serif" font-size="10.00">+ setColor()</text>
<text text-anchor="start" x="44.5" y="-211.5" font-family="Helvetica,sans-Serif" font-size="10.00">+ redirectionLight()</text>
</a>
</g>
</g>
<!-- Node2&#45;&gt;Node1 -->
<g id="edge1" class="edge">
<title>Node2&#45;&gt;Node1</title>
<path fill="none" stroke="midnightblue" d="M92.5,-194.01C92.5,-185.48 92.5,-176.59 92.5,-167.72"/>
<polygon fill="none" stroke="midnightblue" points="89,-194.21 92.5,-204.21 96,-194.21 89,-194.21"/>
</g>
</g>
</svg>
