<?xml version="1.0" encoding="UTF-8" standalone="no"?>
<!DOCTYPE svg PUBLIC "-//W3C//DTD SVG 1.1//EN"
 "http://www.w3.org/Graphics/SVG/1.1/DTD/svg11.dtd">
<!-- Generated by graphviz version 2.43.0 (0)
 -->
<!-- Title: RayTracer::PluginsExt::LimitedCylinder::LimitedCylinderCreator Pages: 1 -->
<svg width="819pt" height="1163pt"
 viewBox="0.00 0.00 819.38 1163.00" xmlns="http://www.w3.org/2000/svg" xmlns:xlink="http://www.w3.org/1999/xlink">
<g id="graph0" class="graph" transform="scale(1 1) rotate(0) translate(4 1159)">
<title>RayTracer::PluginsExt::LimitedCylinder::LimitedCylinderCreator</title>
<polygon fill="white" stroke="transparent" points="-4,4 -4,-1159 815.38,-1159 815.38,4 -4,4"/>
<!-- Node1 -->
<g id="node1" class="node">
<title>Node1</title>
<g id="a_node1"><a xlink:title=" ">
<polygon fill="#bfbfbf" stroke="black" points="265.88,-0.5 265.88,-90.5 448.88,-90.5 448.88,-0.5 265.88,-0.5"/>
<text text-anchor="start" x="273.88" y="-78.5" font-family="Helvetica,sans-Serif" font-size="10.00">RayTracer::PluginsExt</text>
<text text-anchor="start" x="273.88" y="-67.5" font-family="Helvetica,sans-Serif" font-size="10.00">::LimitedCylinder::LimitedCylinder</text>
<text text-anchor="middle" x="357.38" y="-56.5" font-family="Helvetica,sans-Serif" font-size="10.00">Creator</text>
<polyline fill="none" stroke="black" points="265.88,-49.5 448.88,-49.5 "/>
<text text-anchor="middle" x="357.38" y="-37.5" font-family="Helvetica,sans-Serif" font-size="10.00"> </text>
<polyline fill="none" stroke="black" points="265.88,-30.5 448.88,-30.5 "/>
<text text-anchor="start" x="273.88" y="-18.5" font-family="Helvetica,sans-Serif" font-size="10.00">+ ~LimitedCylinderCreator()</text>
<text text-anchor="start" x="273.88" y="-7.5" font-family="Helvetica,sans-Serif" font-size="10.00">+ create()</text>
</a>
</g>
</g>
<!-- Node2 -->
<g id="node2" class="node">
<title>Node2</title>
<g id="a_node2"><a xlink:href="a01315.html" target="_top" xlink:title="The IEntityCreator.">
<polygon fill="white" stroke="black" points="274.88,-138.5 274.88,-217.5 407.88,-217.5 407.88,-138.5 274.88,-138.5"/>
<text text-anchor="start" x="282.88" y="-205.5" font-family="Helvetica,sans-Serif" font-size="10.00">RayTracer::Plugins</text>
<text text-anchor="middle" x="341.38" y="-194.5" font-family="Helvetica,sans-Serif" font-size="10.00">::Entities::IEntityCreator</text>
<polyline fill="none" stroke="black" points="274.88,-187.5 407.88,-187.5 "/>
<text text-anchor="middle" x="341.38" y="-175.5" font-family="Helvetica,sans-Serif" font-size="10.00"> </text>
<polyline fill="none" stroke="black" points="274.88,-168.5 407.88,-168.5 "/>
<text text-anchor="start" x="282.88" y="-156.5" font-family="Helvetica,sans-Serif" font-size="10.00">+ ~IEntityCreator()</text>
<text text-anchor="start" x="282.88" y="-145.5" font-family="Helvetica,sans-Serif" font-size="10.00">+ create()</text>
</a>
</g>
</g>
<!-- Node2&#45;&gt;Node1 -->
<g id="edge1" class="edge">
<title>Node2&#45;&gt;Node1</title>
<path fill="none" stroke="midnightblue" d="M347.37,-128.16C348.87,-115.93 350.47,-102.88 351.94,-90.88"/>
<polygon fill="none" stroke="midnightblue" points="343.88,-127.85 346.14,-138.2 350.83,-128.7 343.88,-127.85"/>
</g>
<!-- Node3 -->
<g id="node3" class="node">
<title>Node3</title>
<g id="a_node3"><a xlink:title=" ">
<polygon fill="white" stroke="#bfbfbf" points="425.88,-138.5 425.88,-217.5 582.88,-217.5 582.88,-138.5 425.88,-138.5"/>
<text text-anchor="start" x="433.88" y="-205.5" font-family="Helvetica,sans-Serif" font-size="10.00">std::vector&lt; RayTracer</text>
<text text-anchor="start" x="433.88" y="-194.5" font-family="Helvetica,sans-Serif" font-size="10.00">::PluginsExt::LimitedCylinder</text>
<text text-anchor="middle" x="504.38" y="-183.5" font-family="Helvetica,sans-Serif" font-size="10.00">::LimitedCylinderEntity * &gt;</text>
<polyline fill="none" stroke="#bfbfbf" points="425.88,-176.5 582.88,-176.5 "/>
<text text-anchor="middle" x="504.38" y="-164.5" font-family="Helvetica,sans-Serif" font-size="10.00"> </text>
<polyline fill="none" stroke="#bfbfbf" points="425.88,-157.5 582.88,-157.5 "/>
<text text-anchor="middle" x="504.38" y="-145.5" font-family="Helvetica,sans-Serif" font-size="10.00"> </text>
</a>
</g>
</g>
<!-- Node3&#45;&gt;Node1 -->
<g id="edge2" class="edge">
<title>Node3&#45;&gt;Node1</title>
<path fill="none" stroke="#404040" d="M460.68,-138.2C446.73,-125.82 431.06,-111.91 416.22,-98.73"/>
<polygon fill="none" stroke="#404040" points="416.09,-98.61 408.94,-97.62 407.11,-90.65 414.25,-91.64 416.09,-98.61"/>
<text text-anchor="middle" x="469.38" y="-112" font-family="Helvetica,sans-Serif" font-size="10.00"> &#45;_elements</text>
</g>
<!-- Node4 -->
<g id="node4" class="node">
<title>Node4</title>
<g id="a_node4"><a xlink:href="a01523.html" target="_top" xlink:title=" ">
<polygon fill="white" stroke="black" points="324.88,-287.5 324.88,-443.5 507.88,-443.5 507.88,-287.5 324.88,-287.5"/>
<text text-anchor="start" x="332.88" y="-431.5" font-family="Helvetica,sans-Serif" font-size="10.00">RayTracer::PluginsExt</text>
<text text-anchor="start" x="332.88" y="-420.5" font-family="Helvetica,sans-Serif" font-size="10.00">::LimitedCylinder::LimitedCylinder</text>
<text text-anchor="middle" x="416.38" y="-409.5" font-family="Helvetica,sans-Serif" font-size="10.00">Entity</text>
<polyline fill="none" stroke="black" points="324.88,-402.5 507.88,-402.5 "/>
<text text-anchor="middle" x="416.38" y="-390.5" font-family="Helvetica,sans-Serif" font-size="10.00"> </text>
<polyline fill="none" stroke="black" points="324.88,-383.5 507.88,-383.5 "/>
<text text-anchor="start" x="332.88" y="-371.5" font-family="Helvetica,sans-Serif" font-size="10.00">+ LimitedCylinderEntity()</text>
<text text-anchor="start" x="332.88" y="-360.5" font-family="Helvetica,sans-Serif" font-size="10.00">+ getType()</text>
<text text-anchor="start" x="332.88" y="-349.5" font-family="Helvetica,sans-Serif" font-size="10.00">+ getTransform()</text>
<text text-anchor="start" x="332.88" y="-338.5" font-family="Helvetica,sans-Serif" font-size="10.00">+ getTransform()</text>
<text text-anchor="start" x="332.88" y="-327.5" font-family="Helvetica,sans-Serif" font-size="10.00">+ isCollided()</text>
<text text-anchor="start" x="332.88" y="-316.5" font-family="Helvetica,sans-Serif" font-size="10.00">+ isCollided()</text>
<text text-anchor="start" x="332.88" y="-305.5" font-family="Helvetica,sans-Serif" font-size="10.00">+ getColor()</text>
<text text-anchor="start" x="332.88" y="-294.5" font-family="Helvetica,sans-Serif" font-size="10.00">+ redirectionLight()</text>
</a>
</g>
</g>
<!-- Node4&#45;&gt;Node3 -->
<g id="edge3" class="edge">
<title>Node4&#45;&gt;Node3</title>
<path fill="none" stroke="#404040" d="M450.29,-287.36C458.02,-270.36 466.33,-252.5 474.38,-236 475.56,-233.59 476.78,-231.13 478.02,-228.66"/>
<polygon fill="none" stroke="#404040" points="478.12,-228.47 477.28,-221.31 483.57,-217.78 484.41,-224.94 478.12,-228.47"/>
<text text-anchor="middle" x="503.38" y="-250" font-family="Helvetica,sans-Serif" font-size="10.00"> +elements</text>
</g>
<!-- Node5 -->
<g id="node5" class="node">
<title>Node5</title>
<g id="a_node5"><a xlink:href="a01187.html" target="_top" xlink:title="The IPrimitive class.">
<polygon fill="white" stroke="black" points="642.38,-508 642.38,-620 754.38,-620 754.38,-508 642.38,-508"/>
<text text-anchor="start" x="650.38" y="-608" font-family="Helvetica,sans-Serif" font-size="10.00">RayTracer::Entities</text>
<text text-anchor="middle" x="698.38" y="-597" font-family="Helvetica,sans-Serif" font-size="10.00">::IPrimitive</text>
<polyline fill="none" stroke="black" points="642.38,-590 754.38,-590 "/>
<text text-anchor="middle" x="698.38" y="-578" font-family="Helvetica,sans-Serif" font-size="10.00"> </text>
<polyline fill="none" stroke="black" points="642.38,-571 754.38,-571 "/>
<text text-anchor="start" x="650.38" y="-559" font-family="Helvetica,sans-Serif" font-size="10.00">+ ~IPrimitive()</text>
<text text-anchor="start" x="650.38" y="-548" font-family="Helvetica,sans-Serif" font-size="10.00">+ getColor()</text>
<text text-anchor="start" x="650.38" y="-537" font-family="Helvetica,sans-Serif" font-size="10.00">+ isCollided()</text>
<text text-anchor="start" x="650.38" y="-526" font-family="Helvetica,sans-Serif" font-size="10.00">+ isCollided()</text>
<text text-anchor="start" x="650.38" y="-515" font-family="Helvetica,sans-Serif" font-size="10.00">+ redirectionLight()</text>
</a>
</g>
</g>
<!-- Node5&#45;&gt;Node4 -->
<g id="edge4" class="edge">
<title>Node5&#45;&gt;Node4</title>
<path fill="none" stroke="midnightblue" d="M643.59,-500.64C639.9,-497.27 636.15,-494.02 632.38,-491 594.39,-460.54 548.08,-432.81 508.09,-411.29"/>
<polygon fill="none" stroke="midnightblue" points="641.39,-503.38 651.05,-507.73 646.21,-498.3 641.39,-503.38"/>
</g>
<!-- Node6 -->
<g id="node6" class="node">
<title>Node6</title>
<g id="a_node6"><a xlink:href="a01175.html" target="_top" xlink:title="The IEntity class.">
<polygon fill="white" stroke="black" points="644.88,-816.5 644.88,-917.5 751.88,-917.5 751.88,-816.5 644.88,-816.5"/>
<text text-anchor="start" x="652.88" y="-905.5" font-family="Helvetica,sans-Serif" font-size="10.00">RayTracer::Entities</text>
<text text-anchor="middle" x="698.38" y="-894.5" font-family="Helvetica,sans-Serif" font-size="10.00">::IEntity</text>
<polyline fill="none" stroke="black" points="644.88,-887.5 751.88,-887.5 "/>
<text text-anchor="middle" x="698.38" y="-875.5" font-family="Helvetica,sans-Serif" font-size="10.00"> </text>
<polyline fill="none" stroke="black" points="644.88,-868.5 751.88,-868.5 "/>
<text text-anchor="start" x="652.88" y="-856.5" font-family="Helvetica,sans-Serif" font-size="10.00">+ ~IEntity()</text>
<text text-anchor="start" x="652.88" y="-845.5" font-family="Helvetica,sans-Serif" font-size="10.00">+ getTransform()</text>
<text text-anchor="start" x="652.88" y="-834.5" font-family="Helvetica,sans-Serif" font-size="10.00">+ getTransform()</text>
<text text-anchor="start" x="652.88" y="-823.5" font-family="Helvetica,sans-Serif" font-size="10.00">+ getType()</text>
</a>
</g>
</g>
<!-- Node6&#45;&gt;Node5 -->
<g id="edge5" class="edge">
<title>Node6&#45;&gt;Node5</title>
<path fill="none" stroke="midnightblue" d="M698.38,-806.15C698.38,-751.97 698.38,-672.81 698.38,-620.14"/>
<polygon fill="none" stroke="midnightblue" points="694.88,-806.3 698.38,-816.3 701.88,-806.3 694.88,-806.3"/>
</g>
<!-- Node7 -->
<g id="node7" class="node">
<title>Node7</title>
<g id="a_node7"><a xlink:href="a01195.html" target="_top" xlink:title="The Transform class.">
<polygon fill="white" stroke="black" points="99.38,-491.5 99.38,-636.5 225.38,-636.5 225.38,-491.5 99.38,-491.5"/>
<text text-anchor="start" x="107.38" y="-624.5" font-family="Helvetica,sans-Serif" font-size="10.00">RayTracer::Entities</text>
<text text-anchor="middle" x="162.38" y="-613.5" font-family="Helvetica,sans-Serif" font-size="10.00">::Transform::Transform</text>
<polyline fill="none" stroke="black" points="99.38,-606.5 225.38,-606.5 "/>
<text text-anchor="middle" x="162.38" y="-594.5" font-family="Helvetica,sans-Serif" font-size="10.00"> </text>
<polyline fill="none" stroke="black" points="99.38,-587.5 225.38,-587.5 "/>
<text text-anchor="start" x="107.38" y="-575.5" font-family="Helvetica,sans-Serif" font-size="10.00">+ Transform()</text>
<text text-anchor="start" x="107.38" y="-564.5" font-family="Helvetica,sans-Serif" font-size="10.00">+ setPosition()</text>
<text text-anchor="start" x="107.38" y="-553.5" font-family="Helvetica,sans-Serif" font-size="10.00">+ getPosition()</text>
<text text-anchor="start" x="107.38" y="-542.5" font-family="Helvetica,sans-Serif" font-size="10.00">+ setRotation()</text>
<text text-anchor="start" x="107.38" y="-531.5" font-family="Helvetica,sans-Serif" font-size="10.00">+ getRotation()</text>
<text text-anchor="start" x="107.38" y="-520.5" font-family="Helvetica,sans-Serif" font-size="10.00">+ setScale()</text>
<text text-anchor="start" x="107.38" y="-509.5" font-family="Helvetica,sans-Serif" font-size="10.00">+ getScale()</text>
<text text-anchor="start" x="107.38" y="-498.5" font-family="Helvetica,sans-Serif" font-size="10.00">+ operator=()</text>
</a>
</g>
</g>
<!-- Node7&#45;&gt;Node4 -->
<g id="edge6" class="edge">
<title>Node7&#45;&gt;Node4</title>
<path fill="none" stroke="#404040" d="M170.45,-491.3C174.08,-480.65 179.2,-470.44 186.38,-462 218.61,-424.14 268.29,-401.03 313.25,-387.05"/>
<polygon fill="none" stroke="#404040" points="313.36,-387.01 317.97,-381.47 324.86,-383.6 320.25,-389.14 313.36,-387.01"/>
<text text-anchor="middle" x="216.88" y="-465" font-family="Helvetica,sans-Serif" font-size="10.00"> &#45;_transform</text>
</g>
<!-- Node8 -->
<g id="node8" class="node">
<title>Node8</title>
<g id="a_node8"><a xlink:href="a01191.html" target="_top" xlink:title="The ITransform class.">
<polygon fill="white" stroke="black" points="65.88,-794.5 65.88,-939.5 194.88,-939.5 194.88,-794.5 65.88,-794.5"/>
<text text-anchor="start" x="73.88" y="-927.5" font-family="Helvetica,sans-Serif" font-size="10.00">RayTracer::Entities</text>
<text text-anchor="middle" x="130.38" y="-916.5" font-family="Helvetica,sans-Serif" font-size="10.00">::Transform::ITransform</text>
<polyline fill="none" stroke="black" points="65.88,-909.5 194.88,-909.5 "/>
<text text-anchor="middle" x="130.38" y="-897.5" font-family="Helvetica,sans-Serif" font-size="10.00"> </text>
<polyline fill="none" stroke="black" points="65.88,-890.5 194.88,-890.5 "/>
<text text-anchor="start" x="73.88" y="-878.5" font-family="Helvetica,sans-Serif" font-size="10.00">+ ~ITransform()</text>
<text text-anchor="start" x="73.88" y="-867.5" font-family="Helvetica,sans-Serif" font-size="10.00">+ setPosition()</text>
<text text-anchor="start" x="73.88" y="-856.5" font-family="Helvetica,sans-Serif" font-size="10.00">+ getPosition()</text>
<text text-anchor="start" x="73.88" y="-845.5" font-family="Helvetica,sans-Serif" font-size="10.00">+ setRotation()</text>
<text text-anchor="start" x="73.88" y="-834.5" font-family="Helvetica,sans-Serif" font-size="10.00">+ getRotation()</text>
<text text-anchor="start" x="73.88" y="-823.5" font-family="Helvetica,sans-Serif" font-size="10.00">+ setScale()</text>
<text text-anchor="start" x="73.88" y="-812.5" font-family="Helvetica,sans-Serif" font-size="10.00">+ getScale()</text>
<text text-anchor="start" x="73.88" y="-801.5" font-family="Helvetica,sans-Serif" font-size="10.00">+ operator=()</text>
</a>
</g>
</g>
<!-- Node8&#45;&gt;Node7 -->
<g id="edge7" class="edge">
<title>Node8&#45;&gt;Node7</title>
<path fill="none" stroke="midnightblue" d="M139.07,-784.32C143.97,-738.19 150.04,-681.07 154.76,-636.69"/>
<polygon fill="none" stroke="midnightblue" points="135.58,-783.97 138.01,-794.29 142.54,-784.71 135.58,-783.97"/>
</g>
<!-- Node9 -->
<g id="node9" class="node">
<title>Node9</title>
<g id="a_node9"><a xlink:href="a01203.html" target="_top" xlink:title="The Vector3f class.">
<polygon fill="white" stroke="black" points="213.38,-706.5 213.38,-1027.5 331.38,-1027.5 331.38,-706.5 213.38,-706.5"/>
<text text-anchor="start" x="221.38" y="-1015.5" font-family="Helvetica,sans-Serif" font-size="10.00">RayTracer::Entities</text>
<text text-anchor="middle" x="272.38" y="-1004.5" font-family="Helvetica,sans-Serif" font-size="10.00">::Transform::Vector3f</text>
<polyline fill="none" stroke="black" points="213.38,-997.5 331.38,-997.5 "/>
<text text-anchor="middle" x="272.38" y="-985.5" font-family="Helvetica,sans-Serif" font-size="10.00"> </text>
<polyline fill="none" stroke="black" points="213.38,-978.5 331.38,-978.5 "/>
<text text-anchor="start" x="221.38" y="-966.5" font-family="Helvetica,sans-Serif" font-size="10.00">+ ~Vector3f()</text>
<text text-anchor="start" x="221.38" y="-955.5" font-family="Helvetica,sans-Serif" font-size="10.00">+ Vector3f()</text>
<text text-anchor="start" x="221.38" y="-944.5" font-family="Helvetica,sans-Serif" font-size="10.00">+ Vector3f()</text>
<text text-anchor="start" x="221.38" y="-933.5" font-family="Helvetica,sans-Serif" font-size="10.00">+ Vector3f()</text>
<text text-anchor="start" x="221.38" y="-922.5" font-family="Helvetica,sans-Serif" font-size="10.00">+ Vector3f()</text>
<text text-anchor="start" x="221.38" y="-911.5" font-family="Helvetica,sans-Serif" font-size="10.00">+ operator+()</text>
<text text-anchor="start" x="221.38" y="-900.5" font-family="Helvetica,sans-Serif" font-size="10.00">+ operator&#45;()</text>
<text text-anchor="start" x="221.38" y="-889.5" font-family="Helvetica,sans-Serif" font-size="10.00">+ operator*()</text>
<text text-anchor="start" x="221.38" y="-878.5" font-family="Helvetica,sans-Serif" font-size="10.00">+ operator/()</text>
<text text-anchor="start" x="221.38" y="-867.5" font-family="Helvetica,sans-Serif" font-size="10.00">+ operator=()</text>
<text text-anchor="start" x="221.38" y="-856.5" font-family="Helvetica,sans-Serif" font-size="10.00">+ getX()</text>
<text text-anchor="start" x="221.38" y="-845.5" font-family="Helvetica,sans-Serif" font-size="10.00">+ getY()</text>
<text text-anchor="start" x="221.38" y="-834.5" font-family="Helvetica,sans-Serif" font-size="10.00">+ getZ()</text>
<text text-anchor="start" x="221.38" y="-823.5" font-family="Helvetica,sans-Serif" font-size="10.00">+ getNorm()</text>
<text text-anchor="start" x="221.38" y="-812.5" font-family="Helvetica,sans-Serif" font-size="10.00">+ getNormalized()</text>
<text text-anchor="start" x="221.38" y="-801.5" font-family="Helvetica,sans-Serif" font-size="10.00">+ dot()</text>
<text text-anchor="start" x="221.38" y="-790.5" font-family="Helvetica,sans-Serif" font-size="10.00">+ getDistance()</text>
<text text-anchor="start" x="221.38" y="-779.5" font-family="Helvetica,sans-Serif" font-size="10.00">+ toDegrees()</text>
<text text-anchor="start" x="221.38" y="-768.5" font-family="Helvetica,sans-Serif" font-size="10.00">+ toRadians()</text>
<text text-anchor="start" x="221.38" y="-757.5" font-family="Helvetica,sans-Serif" font-size="10.00">+ rotateVector()</text>
<text text-anchor="start" x="221.38" y="-746.5" font-family="Helvetica,sans-Serif" font-size="10.00">+ getAngle()</text>
<text text-anchor="start" x="221.38" y="-735.5" font-family="Helvetica,sans-Serif" font-size="10.00">+ rotateX()</text>
<text text-anchor="start" x="221.38" y="-724.5" font-family="Helvetica,sans-Serif" font-size="10.00">+ rotateY()</text>
<text text-anchor="start" x="221.38" y="-713.5" font-family="Helvetica,sans-Serif" font-size="10.00">+ rotateZ()</text>
</a>
</g>
</g>
<!-- Node9&#45;&gt;Node4 -->
<g id="edge11" class="edge">
<title>Node9&#45;&gt;Node4</title>
<path fill="none" stroke="#404040" d="M258.26,-706.38C253.42,-622.22 252.96,-528.76 270.38,-491 280.7,-468.65 297.23,-448.82 315.52,-431.93"/>
<polygon fill="none" stroke="#404040" points="315.64,-431.83 317.48,-424.86 324.62,-423.88 322.78,-430.85 315.64,-431.83"/>
<text text-anchor="middle" x="297.88" y="-561.5" font-family="Helvetica,sans-Serif" font-size="10.00"> &#45;_direction</text>
</g>
<!-- Node9&#45;&gt;Node7 -->
<g id="edge8" class="edge">
<title>Node9&#45;&gt;Node7</title>
<path fill="none" stroke="#404040" d="M213.2,-728.49C209.89,-720.88 206.6,-713.34 203.38,-706 199.87,-697.98 198.3,-696.25 195.38,-688 190.9,-675.35 186.69,-661.77 182.88,-648.43"/>
<polygon fill="none" stroke="#404040" points="182.85,-648.36 177.39,-643.65 179.63,-636.8 185.09,-641.5 182.85,-648.36"/>
<text text-anchor="middle" x="221.38" y="-680" font-family="Helvetica,sans-Serif" font-size="10.00"> &#45;_position</text>
<text text-anchor="middle" x="221.38" y="-669" font-family="Helvetica,sans-Serif" font-size="10.00">&#45;_rotation</text>
<text text-anchor="middle" x="221.38" y="-658" font-family="Helvetica,sans-Serif" font-size="10.00">&#45;_scale</text>
</g>
<!-- Node10 -->
<g id="node10" class="node">
<title>Node10</title>
<g id="a_node10"><a xlink:title=" ">
<polygon fill="white" stroke="#bfbfbf" points="28.38,-1097.5 28.38,-1154.5 78.38,-1154.5 78.38,-1097.5 28.38,-1097.5"/>
<text text-anchor="middle" x="53.38" y="-1142.5" font-family="Helvetica,sans-Serif" font-size="10.00">double</text>
<polyline fill="none" stroke="#bfbfbf" points="28.38,-1135.5 78.38,-1135.5 "/>
<text text-anchor="middle" x="53.38" y="-1123.5" font-family="Helvetica,sans-Serif" font-size="10.00"> </text>
<polyline fill="none" stroke="#bfbfbf" points="28.38,-1116.5 78.38,-1116.5 "/>
<text text-anchor="middle" x="53.38" y="-1104.5" font-family="Helvetica,sans-Serif" font-size="10.00"> </text>
</a>
</g>
</g>
<!-- Node10&#45;&gt;Node4 -->
<g id="edge10" class="edge">
<title>Node10&#45;&gt;Node4</title>
<path fill="none" stroke="#404040" d="M44.92,-1097.28C17.34,-1000.91 -59.8,-676.18 90.38,-491 144.7,-424.03 239.38,-393.04 312.76,-378.73"/>
<polygon fill="none" stroke="#404040" points="313.01,-378.68 318.18,-373.65 324.81,-376.49 319.64,-381.52 313.01,-378.68"/>
<text text-anchor="middle" x="35.88" y="-674.5" font-family="Helvetica,sans-Serif" font-size="10.00"> &#45;_height</text>
<text text-anchor="middle" x="35.88" y="-663.5" font-family="Helvetica,sans-Serif" font-size="10.00">&#45;_radius</text>
</g>
<!-- Node10&#45;&gt;Node9 -->
<g id="edge9" class="edge">
<title>Node10&#45;&gt;Node9</title>
<path fill="none" stroke="#404040" d="M78.41,-1114.46C111.11,-1099.55 168.34,-1069.44 203.38,-1028 204.24,-1026.99 205.08,-1025.97 205.92,-1024.93"/>
<polygon fill="none" stroke="#404040" points="205.95,-1024.89 206.39,-1017.69 213.21,-1015.33 212.76,-1022.53 205.95,-1024.89"/>
<text text-anchor="middle" x="192.88" y="-1071" font-family="Helvetica,sans-Serif" font-size="10.00"> &#45;_x</text>
<text text-anchor="middle" x="192.88" y="-1060" font-family="Helvetica,sans-Serif" font-size="10.00">&#45;_y</text>
<text text-anchor="middle" x="192.88" y="-1049" font-family="Helvetica,sans-Serif" font-size="10.00">&#45;_z</text>
</g>
<!-- Node11 -->
<g id="node11" class="node">
<title>Node11</title>
<g id="a_node11"><a xlink:title=" ">
<polygon fill="white" stroke="#bfbfbf" points="334.38,-524.5 334.38,-603.5 498.38,-603.5 498.38,-524.5 334.38,-524.5"/>
<text text-anchor="start" x="342.38" y="-591.5" font-family="Helvetica,sans-Serif" font-size="10.00">optional&lt; std::reference</text>
<text text-anchor="start" x="342.38" y="-580.5" font-family="Helvetica,sans-Serif" font-size="10.00">_wrapper&lt; RayTracer::Entities</text>
<text text-anchor="middle" x="416.38" y="-569.5" font-family="Helvetica,sans-Serif" font-size="10.00">::IMaterial &gt; &gt;</text>
<polyline fill="none" stroke="#bfbfbf" points="334.38,-562.5 498.38,-562.5 "/>
<text text-anchor="middle" x="416.38" y="-550.5" font-family="Helvetica,sans-Serif" font-size="10.00"> </text>
<polyline fill="none" stroke="#bfbfbf" points="334.38,-543.5 498.38,-543.5 "/>
<text text-anchor="middle" x="416.38" y="-531.5" font-family="Helvetica,sans-Serif" font-size="10.00"> </text>
</a>
</g>
</g>
<!-- Node11&#45;&gt;Node4 -->
<g id="edge12" class="edge">
<title>Node11&#45;&gt;Node4</title>
<path fill="none" stroke="#404040" d="M416.38,-524.18C416.38,-504.56 416.38,-479.89 416.38,-455.92"/>
<polygon fill="none" stroke="#404040" points="416.38,-455.86 412.38,-449.86 416.38,-443.86 420.38,-449.86 416.38,-455.86"/>
<text text-anchor="middle" x="443.38" y="-465" font-family="Helvetica,sans-Serif" font-size="10.00"> &#45;_material</text>
</g>
<!-- Node12 -->
<g id="node12" class="node">
<title>Node12</title>
<g id="a_node12"><a xlink:href="a01239.html" target="_top" xlink:title="Logger singleton.">
<polygon fill="white" stroke="black" points="516.88,-502.5 516.88,-625.5 623.88,-625.5 623.88,-502.5 516.88,-502.5"/>
<text text-anchor="middle" x="570.38" y="-613.5" font-family="Helvetica,sans-Serif" font-size="10.00">RayTracer::ILogger</text>
<polyline fill="none" stroke="black" points="516.88,-606.5 623.88,-606.5 "/>
<text text-anchor="middle" x="570.38" y="-594.5" font-family="Helvetica,sans-Serif" font-size="10.00"> </text>
<polyline fill="none" stroke="black" points="516.88,-587.5 623.88,-587.5 "/>
<text text-anchor="start" x="524.88" y="-575.5" font-family="Helvetica,sans-Serif" font-size="10.00">+ ~ILogger()</text>
<text text-anchor="start" x="524.88" y="-564.5" font-family="Helvetica,sans-Serif" font-size="10.00">+ fatal()</text>
<text text-anchor="start" x="524.88" y="-553.5" font-family="Helvetica,sans-Serif" font-size="10.00">+ error()</text>
<text text-anchor="start" x="524.88" y="-542.5" font-family="Helvetica,sans-Serif" font-size="10.00">+ warn()</text>
<text text-anchor="start" x="524.88" y="-531.5" font-family="Helvetica,sans-Serif" font-size="10.00">+ info()</text>
<text text-anchor="start" x="524.88" y="-520.5" font-family="Helvetica,sans-Serif" font-size="10.00">+ debug()</text>
<text text-anchor="start" x="524.88" y="-509.5" font-family="Helvetica,sans-Serif" font-size="10.00">+ trace()</text>
</a>
</g>
</g>
<!-- Node12&#45;&gt;Node4 -->
<g id="edge13" class="edge">
<title>Node12&#45;&gt;Node4</title>
<path fill="none" stroke="#404040" d="M522.92,-502.44C510.73,-486.89 497.38,-469.85 484.37,-453.25"/>
<polygon fill="none" stroke="#404040" points="484.17,-452.99 477.32,-450.74 476.77,-443.55 483.61,-445.8 484.17,-452.99"/>
<text text-anchor="middle" x="519.88" y="-465" font-family="Helvetica,sans-Serif" font-size="10.00"> &#45;_logger</text>
</g>
<!-- Node13 -->
<g id="node13" class="node">
<title>Node13</title>
<g id="a_node13"><a xlink:title=" ">
<polygon fill="white" stroke="#bfbfbf" points="631.88,-337 631.88,-394 728.88,-394 728.88,-337 631.88,-337"/>
<text text-anchor="middle" x="680.38" y="-382" font-family="Helvetica,sans-Serif" font-size="10.00">std::vector&lt; T &gt;</text>
<polyline fill="none" stroke="#bfbfbf" points="631.88,-375 728.88,-375 "/>
<text text-anchor="middle" x="680.38" y="-363" font-family="Helvetica,sans-Serif" font-size="10.00"> </text>
<polyline fill="none" stroke="#bfbfbf" points="631.88,-356 728.88,-356 "/>
<text text-anchor="middle" x="680.38" y="-344" font-family="Helvetica,sans-Serif" font-size="10.00"> </text>
</a>
</g>
</g>
<!-- Node13&#45;&gt;Node3 -->
<g id="edge14" class="edge">
<title>Node13&#45;&gt;Node3</title>
<path fill="none" stroke="orange" d="M647.05,-329.37C616.79,-297.48 572.27,-250.55 541.03,-217.62"/>
<polygon fill="orange" stroke="orange" points="644.61,-331.88 654.03,-336.73 649.69,-327.07 644.61,-331.88"/>
<text text-anchor="start" x="587.38" y="-261" font-family="Helvetica,sans-Serif" font-size="10.00"> &lt; RayTracer::PluginsExt</text>
<text text-anchor="start" x="587.38" y="-250" font-family="Helvetica,sans-Serif" font-size="10.00">::LimitedCylinder::LimitedCylinder</text>
<text text-anchor="middle" x="670.88" y="-239" font-family="Helvetica,sans-Serif" font-size="10.00">Entity * &gt;</text>
</g>
<!-- Node14 -->
<g id="node14" class="node">
<title>Node14</title>
<g id="a_node14"><a xlink:title=" ">
<polygon fill="white" stroke="#bfbfbf" points="772.88,-535.5 772.88,-592.5 801.88,-592.5 801.88,-535.5 772.88,-535.5"/>
<text text-anchor="middle" x="787.38" y="-580.5" font-family="Helvetica,sans-Serif" font-size="10.00">T</text>
<polyline fill="none" stroke="#bfbfbf" points="772.88,-573.5 801.88,-573.5 "/>
<text text-anchor="middle" x="787.38" y="-561.5" font-family="Helvetica,sans-Serif" font-size="10.00"> </text>
<polyline fill="none" stroke="#bfbfbf" points="772.88,-554.5 801.88,-554.5 "/>
<text text-anchor="middle" x="787.38" y="-542.5" font-family="Helvetica,sans-Serif" font-size="10.00"> </text>
</a>
</g>
</g>
<!-- Node14&#45;&gt;Node13 -->
<g id="edge15" class="edge">
<title>Node14&#45;&gt;Node13</title>
<path fill="none" stroke="#404040" d="M780.04,-535.31C775.94,-521.63 770.27,-505.09 763.38,-491 748.3,-460.17 726.68,-428 709.28,-404.08"/>
<polygon fill="none" stroke="#404040" points="709.24,-404.03 702.46,-401.57 702.12,-394.37 708.9,-396.82 709.24,-404.03"/>
<text text-anchor="middle" x="782.38" y="-465" font-family="Helvetica,sans-Serif" font-size="10.00"> +elements</text>
</g>
</g>
</svg>
