<?xml version="1.0" encoding="UTF-8" standalone="no"?>
<!DOCTYPE svg PUBLIC "-//W3C//DTD SVG 1.1//EN"
 "http://www.w3.org/Graphics/SVG/1.1/DTD/svg11.dtd">
<!-- Generated by graphviz version 2.43.0 (0)
 -->
<!-- Title: RayTracer::PluginsExt::BlackAndWhite::BlackAndWhiteFilter Pages: 1 -->
<svg width="185pt" height="281pt"
 viewBox="0.00 0.00 185.00 281.00" xmlns="http://www.w3.org/2000/svg" xmlns:xlink="http://www.w3.org/1999/xlink">
<g id="graph0" class="graph" transform="scale(1 1) rotate(0) translate(4 277)">
<title>RayTracer::PluginsExt::BlackAndWhite::BlackAndWhiteFilter</title>
<polygon fill="white" stroke="transparent" points="-4,4 -4,-277 181,-277 181,4 -4,4"/>
<!-- Node1 -->
<g id="node1" class="node">
<title>Node1</title>
<g id="a_node1"><a xlink:title=" ">
<polygon fill="#bfbfbf" stroke="black" points="0,-0.5 0,-156.5 177,-156.5 177,-0.5 0,-0.5"/>
<text text-anchor="start" x="8" y="-144.5" font-family="Helvetica,sans-Serif" font-size="10.00">RayTracer::PluginsExt</text>
<text text-anchor="start" x="8" y="-133.5" font-family="Helvetica,sans-Serif" font-size="10.00">::BlackAndWhite::BlackAndWhite</text>
<text text-anchor="middle" x="88.5" y="-122.5" font-family="Helvetica,sans-Serif" font-size="10.00">Filter</text>
<polyline fill="none" stroke="black" points="0,-115.5 177,-115.5 "/>
<text text-anchor="start" x="8" y="-103.5" font-family="Helvetica,sans-Serif" font-size="10.00">&#45; _logger</text>
<text text-anchor="start" x="8" y="-92.5" font-family="Helvetica,sans-Serif" font-size="10.00">&#45; _maxThread</text>
<text text-anchor="start" x="8" y="-81.5" font-family="Helvetica,sans-Serif" font-size="10.00">&#45; _futures</text>
<text text-anchor="start" x="8" y="-70.5" font-family="Helvetica,sans-Serif" font-size="10.00">&#45; _method</text>
<polyline fill="none" stroke="black" points="0,-63.5 177,-63.5 "/>
<text text-anchor="start" x="8" y="-51.5" font-family="Helvetica,sans-Serif" font-size="10.00">+ BlackAndWhiteFilter()</text>
<text text-anchor="start" x="8" y="-40.5" font-family="Helvetica,sans-Serif" font-size="10.00">+ apply()</text>
<text text-anchor="start" x="8" y="-29.5" font-family="Helvetica,sans-Serif" font-size="10.00">&#45; waitOnePlace()</text>
<text text-anchor="start" x="8" y="-18.5" font-family="Helvetica,sans-Serif" font-size="10.00">&#45; waitAllFinisehd()</text>
<text text-anchor="start" x="8" y="-7.5" font-family="Helvetica,sans-Serif" font-size="10.00">&#45; getColorsMean()</text>
</a>
</g>
</g>
<!-- Node2 -->
<g id="node2" class="node">
<title>Node2</title>
<g id="a_node2"><a xlink:href="a01374.html" target="_top" xlink:title="The IFilter class.">
<polygon fill="white" stroke="black" points="38,-193.5 38,-272.5 139,-272.5 139,-193.5 38,-193.5"/>
<text text-anchor="start" x="46" y="-260.5" font-family="Helvetica,sans-Serif" font-size="10.00">RayTracer::Filters</text>
<text text-anchor="middle" x="88.5" y="-249.5" font-family="Helvetica,sans-Serif" font-size="10.00">::IFilter</text>
<polyline fill="none" stroke="black" points="38,-242.5 139,-242.5 "/>
<text text-anchor="middle" x="88.5" y="-230.5" font-family="Helvetica,sans-Serif" font-size="10.00"> </text>
<polyline fill="none" stroke="black" points="38,-223.5 139,-223.5 "/>
<text text-anchor="start" x="46" y="-211.5" font-family="Helvetica,sans-Serif" font-size="10.00">+ ~IFilter()</text>
<text text-anchor="start" x="46" y="-200.5" font-family="Helvetica,sans-Serif" font-size="10.00">+ apply()</text>
</a>
</g>
</g>
<!-- Node2&#45;&gt;Node1 -->
<g id="edge1" class="edge">
<title>Node2&#45;&gt;Node1</title>
<path fill="none" stroke="midnightblue" d="M88.5,-183.08C88.5,-174.61 88.5,-165.62 88.5,-156.61"/>
<polygon fill="none" stroke="midnightblue" points="85,-183.12 88.5,-193.12 92,-183.12 85,-183.12"/>
</g>
</g>
</svg>
