<?xml version="1.0" encoding="UTF-8" standalone="no"?>
<!DOCTYPE svg PUBLIC "-//W3C//DTD SVG 1.1//EN"
 "http://www.w3.org/Graphics/SVG/1.1/DTD/svg11.dtd">
<!-- Generated by graphviz version 2.43.0 (0)
 -->
<!-- Title: RayTracer::PluginsExt::ChessBoard::ChessBoardMaterial Pages: 1 -->
<svg width="482pt" height="650pt"
 viewBox="0.00 0.00 481.50 650.00" xmlns="http://www.w3.org/2000/svg" xmlns:xlink="http://www.w3.org/1999/xlink">
<g id="graph0" class="graph" transform="scale(1 1) rotate(0) translate(4 646)">
<title>RayTracer::PluginsExt::ChessBoard::ChessBoardMaterial</title>
<polygon fill="white" stroke="transparent" points="-4,4 -4,-646 477.5,-646 477.5,4 -4,4"/>
<!-- Node1 -->
<g id="node1" class="node">
<title>Node1</title>
<g id="a_node1"><a xlink:title=" ">
<polygon fill="#bfbfbf" stroke="black" points="97.5,-0.5 97.5,-101.5 282.5,-101.5 282.5,-0.5 97.5,-0.5"/>
<text text-anchor="start" x="105.5" y="-89.5" font-family="Helvetica,sans-Serif" font-size="10.00">RayTracer::PluginsExt</text>
<text text-anchor="middle" x="190" y="-78.5" font-family="Helvetica,sans-Serif" font-size="10.00">::ChessBoard::ChessBoardMaterial</text>
<polyline fill="none" stroke="black" points="97.5,-71.5 282.5,-71.5 "/>
<text text-anchor="middle" x="190" y="-59.5" font-family="Helvetica,sans-Serif" font-size="10.00"> </text>
<polyline fill="none" stroke="black" points="97.5,-52.5 282.5,-52.5 "/>
<text text-anchor="start" x="105.5" y="-40.5" font-family="Helvetica,sans-Serif" font-size="10.00">+ ChessBoardMaterial()</text>
<text text-anchor="start" x="105.5" y="-29.5" font-family="Helvetica,sans-Serif" font-size="10.00">+ getColor()</text>
<text text-anchor="start" x="105.5" y="-18.5" font-family="Helvetica,sans-Serif" font-size="10.00">+ setColor()</text>
<text text-anchor="start" x="105.5" y="-7.5" font-family="Helvetica,sans-Serif" font-size="10.00">+ redirectionLight()</text>
</a>
</g>
</g>
<!-- Node2 -->
<g id="node2" class="node">
<title>Node2</title>
<g id="a_node2"><a xlink:href="a01299.html" target="_top" xlink:title="The IMaterial class.">
<polygon fill="white" stroke="black" points="0,-287 0,-388 112,-388 112,-287 0,-287"/>
<text text-anchor="start" x="8" y="-376" font-family="Helvetica,sans-Serif" font-size="10.00">RayTracer::Entities</text>
<text text-anchor="middle" x="56" y="-365" font-family="Helvetica,sans-Serif" font-size="10.00">::IMaterial</text>
<polyline fill="none" stroke="black" points="0,-358 112,-358 "/>
<text text-anchor="middle" x="56" y="-346" font-family="Helvetica,sans-Serif" font-size="10.00"> </text>
<polyline fill="none" stroke="black" points="0,-339 112,-339 "/>
<text text-anchor="start" x="8" y="-327" font-family="Helvetica,sans-Serif" font-size="10.00">+ ~IMaterial()</text>
<text text-anchor="start" x="8" y="-316" font-family="Helvetica,sans-Serif" font-size="10.00">+ getColor()</text>
<text text-anchor="start" x="8" y="-305" font-family="Helvetica,sans-Serif" font-size="10.00">+ setColor()</text>
<text text-anchor="start" x="8" y="-294" font-family="Helvetica,sans-Serif" font-size="10.00">+ redirectionLight()</text>
</a>
</g>
</g>
<!-- Node2&#45;&gt;Node1 -->
<g id="edge1" class="edge">
<title>Node2&#45;&gt;Node1</title>
<path fill="none" stroke="midnightblue" d="M71.49,-276.81C84.53,-231.94 105.62,-169.88 134,-120 137.48,-113.89 141.52,-107.77 145.8,-101.86"/>
<polygon fill="none" stroke="midnightblue" points="68.05,-276.11 68.66,-286.69 74.78,-278.03 68.05,-276.11"/>
</g>
<!-- Node3 -->
<g id="node3" class="node">
<title>Node3</title>
<g id="a_node3"><a xlink:title=" ">
<polygon fill="white" stroke="#bfbfbf" points="258,-584.5 258,-641.5 308,-641.5 308,-584.5 258,-584.5"/>
<text text-anchor="middle" x="283" y="-629.5" font-family="Helvetica,sans-Serif" font-size="10.00">double</text>
<polyline fill="none" stroke="#bfbfbf" points="258,-622.5 308,-622.5 "/>
<text text-anchor="middle" x="283" y="-610.5" font-family="Helvetica,sans-Serif" font-size="10.00"> </text>
<polyline fill="none" stroke="#bfbfbf" points="258,-603.5 308,-603.5 "/>
<text text-anchor="middle" x="283" y="-591.5" font-family="Helvetica,sans-Serif" font-size="10.00"> </text>
</a>
</g>
</g>
<!-- Node3&#45;&gt;Node1 -->
<g id="edge2" class="edge">
<title>Node3&#45;&gt;Node1</title>
<path fill="none" stroke="#404040" d="M257.89,-599.29C227.47,-582.3 177.71,-549.02 157,-504 97.69,-375.04 138.36,-203.38 167.55,-113.24"/>
<polygon fill="none" stroke="#404040" points="167.63,-112.99 165.72,-106.04 171.4,-101.6 173.31,-108.55 167.63,-112.99"/>
<text text-anchor="middle" x="186" y="-340.5" font-family="Helvetica,sans-Serif" font-size="10.00"> &#45;_shininess</text>
<text text-anchor="middle" x="186" y="-329.5" font-family="Helvetica,sans-Serif" font-size="10.00">&#45;_size</text>
</g>
<!-- Node4 -->
<g id="node4" class="node">
<title>Node4</title>
<g id="a_node4"><a xlink:href="a01319.html" target="_top" xlink:title="The Vector3f class.">
<polygon fill="white" stroke="black" points="224,-171.5 224,-503.5 342,-503.5 342,-171.5 224,-171.5"/>
<text text-anchor="start" x="232" y="-491.5" font-family="Helvetica,sans-Serif" font-size="10.00">RayTracer::Entities</text>
<text text-anchor="middle" x="283" y="-480.5" font-family="Helvetica,sans-Serif" font-size="10.00">::Transform::Vector3f</text>
<polyline fill="none" stroke="black" points="224,-473.5 342,-473.5 "/>
<text text-anchor="middle" x="283" y="-461.5" font-family="Helvetica,sans-Serif" font-size="10.00"> </text>
<polyline fill="none" stroke="black" points="224,-454.5 342,-454.5 "/>
<text text-anchor="start" x="232" y="-442.5" font-family="Helvetica,sans-Serif" font-size="10.00">+ ~Vector3f()</text>
<text text-anchor="start" x="232" y="-431.5" font-family="Helvetica,sans-Serif" font-size="10.00">+ Vector3f()</text>
<text text-anchor="start" x="232" y="-420.5" font-family="Helvetica,sans-Serif" font-size="10.00">+ Vector3f()</text>
<text text-anchor="start" x="232" y="-409.5" font-family="Helvetica,sans-Serif" font-size="10.00">+ Vector3f()</text>
<text text-anchor="start" x="232" y="-398.5" font-family="Helvetica,sans-Serif" font-size="10.00">+ Vector3f()</text>
<text text-anchor="start" x="232" y="-387.5" font-family="Helvetica,sans-Serif" font-size="10.00">+ operator+()</text>
<text text-anchor="start" x="232" y="-376.5" font-family="Helvetica,sans-Serif" font-size="10.00">+ operator&#45;()</text>
<text text-anchor="start" x="232" y="-365.5" font-family="Helvetica,sans-Serif" font-size="10.00">+ operator*()</text>
<text text-anchor="start" x="232" y="-354.5" font-family="Helvetica,sans-Serif" font-size="10.00">+ operator/()</text>
<text text-anchor="start" x="232" y="-343.5" font-family="Helvetica,sans-Serif" font-size="10.00">+ operator=()</text>
<text text-anchor="start" x="232" y="-332.5" font-family="Helvetica,sans-Serif" font-size="10.00">+ getX()</text>
<text text-anchor="start" x="232" y="-321.5" font-family="Helvetica,sans-Serif" font-size="10.00">+ getY()</text>
<text text-anchor="start" x="232" y="-310.5" font-family="Helvetica,sans-Serif" font-size="10.00">+ getZ()</text>
<text text-anchor="start" x="232" y="-299.5" font-family="Helvetica,sans-Serif" font-size="10.00">+ getNorm()</text>
<text text-anchor="start" x="232" y="-288.5" font-family="Helvetica,sans-Serif" font-size="10.00">+ getNormalized()</text>
<text text-anchor="start" x="232" y="-277.5" font-family="Helvetica,sans-Serif" font-size="10.00">+ getCrossed()</text>
<text text-anchor="start" x="232" y="-266.5" font-family="Helvetica,sans-Serif" font-size="10.00">+ dot()</text>
<text text-anchor="start" x="232" y="-255.5" font-family="Helvetica,sans-Serif" font-size="10.00">+ getDistance()</text>
<text text-anchor="start" x="232" y="-244.5" font-family="Helvetica,sans-Serif" font-size="10.00">+ toDegrees()</text>
<text text-anchor="start" x="232" y="-233.5" font-family="Helvetica,sans-Serif" font-size="10.00">+ toRadians()</text>
<text text-anchor="start" x="232" y="-222.5" font-family="Helvetica,sans-Serif" font-size="10.00">+ rotateVector()</text>
<text text-anchor="start" x="232" y="-211.5" font-family="Helvetica,sans-Serif" font-size="10.00">+ getAngle()</text>
<text text-anchor="start" x="232" y="-200.5" font-family="Helvetica,sans-Serif" font-size="10.00">+ rotateX()</text>
<text text-anchor="start" x="232" y="-189.5" font-family="Helvetica,sans-Serif" font-size="10.00">+ rotateY()</text>
<text text-anchor="start" x="232" y="-178.5" font-family="Helvetica,sans-Serif" font-size="10.00">+ rotateZ()</text>
</a>
</g>
</g>
<!-- Node3&#45;&gt;Node4 -->
<g id="edge4" class="edge">
<title>Node3&#45;&gt;Node4</title>
<path fill="none" stroke="#404040" d="M283,-584.27C283,-566.78 283,-542.54 283,-516.06"/>
<polygon fill="none" stroke="#404040" points="283,-515.74 279,-509.74 283,-503.74 287,-509.74 283,-515.74"/>
<text text-anchor="middle" x="292.5" y="-552.5" font-family="Helvetica,sans-Serif" font-size="10.00"> &#45;_x</text>
<text text-anchor="middle" x="292.5" y="-541.5" font-family="Helvetica,sans-Serif" font-size="10.00">&#45;_y</text>
<text text-anchor="middle" x="292.5" y="-530.5" font-family="Helvetica,sans-Serif" font-size="10.00">&#45;_z</text>
</g>
<!-- Node5 -->
<g id="node5" class="node">
<title>Node5</title>
<g id="a_node5"><a xlink:href="a01359.html" target="_top" xlink:title="The Color class.">
<polygon fill="white" stroke="black" points="360.5,-221 360.5,-454 473.5,-454 473.5,-221 360.5,-221"/>
<text text-anchor="start" x="368.5" y="-442" font-family="Helvetica,sans-Serif" font-size="10.00">RayTracer::Images::</text>
<text text-anchor="middle" x="417" y="-431" font-family="Helvetica,sans-Serif" font-size="10.00">Color</text>
<polyline fill="none" stroke="black" points="360.5,-424 473.5,-424 "/>
<text text-anchor="middle" x="417" y="-412" font-family="Helvetica,sans-Serif" font-size="10.00"> </text>
<polyline fill="none" stroke="black" points="360.5,-405 473.5,-405 "/>
<text text-anchor="start" x="368.5" y="-393" font-family="Helvetica,sans-Serif" font-size="10.00">+ ~Color()</text>
<text text-anchor="start" x="368.5" y="-382" font-family="Helvetica,sans-Serif" font-size="10.00">+ Color()</text>
<text text-anchor="start" x="368.5" y="-371" font-family="Helvetica,sans-Serif" font-size="10.00">+ Color()</text>
<text text-anchor="start" x="368.5" y="-360" font-family="Helvetica,sans-Serif" font-size="10.00">+ Color()</text>
<text text-anchor="start" x="368.5" y="-349" font-family="Helvetica,sans-Serif" font-size="10.00">+ operator+()</text>
<text text-anchor="start" x="368.5" y="-338" font-family="Helvetica,sans-Serif" font-size="10.00">+ operator&#45;()</text>
<text text-anchor="start" x="368.5" y="-327" font-family="Helvetica,sans-Serif" font-size="10.00">+ operator*()</text>
<text text-anchor="start" x="368.5" y="-316" font-family="Helvetica,sans-Serif" font-size="10.00">+ operator/()</text>
<text text-anchor="start" x="368.5" y="-305" font-family="Helvetica,sans-Serif" font-size="10.00">+ operator=()</text>
<text text-anchor="start" x="368.5" y="-294" font-family="Helvetica,sans-Serif" font-size="10.00">+ operator[]()</text>
<text text-anchor="start" x="368.5" y="-283" font-family="Helvetica,sans-Serif" font-size="10.00">+ operator[]()</text>
<text text-anchor="start" x="368.5" y="-272" font-family="Helvetica,sans-Serif" font-size="10.00">+ set()</text>
<text text-anchor="start" x="368.5" y="-261" font-family="Helvetica,sans-Serif" font-size="10.00">+ applyAlpha()</text>
<text text-anchor="start" x="368.5" y="-250" font-family="Helvetica,sans-Serif" font-size="10.00">+ mergeColor()</text>
<text text-anchor="start" x="368.5" y="-239" font-family="Helvetica,sans-Serif" font-size="10.00">+ applyDistance()</text>
<text text-anchor="start" x="368.5" y="-228" font-family="Helvetica,sans-Serif" font-size="10.00">+ toSfColor()</text>
</a>
</g>
</g>
<!-- Node3&#45;&gt;Node5 -->
<g id="edge6" class="edge">
<title>Node3&#45;&gt;Node5</title>
<path fill="none" stroke="#404040" d="M302.35,-584.4C316.82,-563.05 336.53,-532.44 351,-504 357.3,-491.62 363.42,-478.48 369.24,-465.24"/>
<polygon fill="none" stroke="#404040" points="369.29,-465.13 367.99,-458.03 374.04,-454.11 375.34,-461.2 369.29,-465.13"/>
<text text-anchor="middle" x="351.5" y="-558" font-family="Helvetica,sans-Serif" font-size="10.00"> &#45;_a</text>
<text text-anchor="middle" x="351.5" y="-547" font-family="Helvetica,sans-Serif" font-size="10.00">&#45;_b</text>
<text text-anchor="middle" x="351.5" y="-536" font-family="Helvetica,sans-Serif" font-size="10.00">&#45;_g</text>
<text text-anchor="middle" x="351.5" y="-525" font-family="Helvetica,sans-Serif" font-size="10.00">&#45;_r</text>
</g>
<!-- Node4&#45;&gt;Node1 -->
<g id="edge3" class="edge">
<title>Node4&#45;&gt;Node1</title>
<path fill="none" stroke="#404040" d="M229.04,-171.42C222.27,-150.7 215.71,-130.65 209.97,-113.09"/>
<polygon fill="none" stroke="#404040" points="209.95,-113.04 204.29,-108.58 206.22,-101.63 211.89,-106.09 209.95,-113.04"/>
<text text-anchor="middle" x="249.5" y="-145" font-family="Helvetica,sans-Serif" font-size="10.00"> &#45;_ambient</text>
<text text-anchor="middle" x="249.5" y="-134" font-family="Helvetica,sans-Serif" font-size="10.00">&#45;_diffuse</text>
<text text-anchor="middle" x="249.5" y="-123" font-family="Helvetica,sans-Serif" font-size="10.00">&#45;_specular</text>
</g>
<!-- Node5&#45;&gt;Node1 -->
<g id="edge5" class="edge">
<title>Node5&#45;&gt;Node1</title>
<path fill="none" stroke="#404040" d="M380.51,-220.72C372.3,-203.16 362.52,-185.94 351,-171 332.81,-147.41 308.76,-126.28 284.81,-108.61"/>
<polygon fill="none" stroke="#404040" points="284.67,-108.51 277.46,-108.25 274.93,-101.5 282.14,-101.76 284.67,-108.51"/>
<text text-anchor="middle" x="356" y="-139.5" font-family="Helvetica,sans-Serif" font-size="10.00"> &#45;_impair</text>
<text text-anchor="middle" x="356" y="-128.5" font-family="Helvetica,sans-Serif" font-size="10.00">&#45;_pair</text>
</g>
<!-- Node6 -->
<g id="node6" class="node">
<title>Node6</title>
<g id="a_node6"><a xlink:title=" ">
<polygon fill="white" stroke="#bfbfbf" points="382.5,-584.5 382.5,-641.5 451.5,-641.5 451.5,-584.5 382.5,-584.5"/>
<text text-anchor="middle" x="417" y="-629.5" font-family="Helvetica,sans-Serif" font-size="10.00">std::mutex</text>
<polyline fill="none" stroke="#bfbfbf" points="382.5,-622.5 451.5,-622.5 "/>
<text text-anchor="middle" x="417" y="-610.5" font-family="Helvetica,sans-Serif" font-size="10.00"> </text>
<polyline fill="none" stroke="#bfbfbf" points="382.5,-603.5 451.5,-603.5 "/>
<text text-anchor="middle" x="417" y="-591.5" font-family="Helvetica,sans-Serif" font-size="10.00"> </text>
</a>
</g>
</g>
<!-- Node6&#45;&gt;Node5 -->
<g id="edge7" class="edge">
<title>Node6&#45;&gt;Node5</title>
<path fill="none" stroke="#404040" d="M417,-584.27C417,-556.16 417,-510.6 417,-466.3"/>
<polygon fill="none" stroke="#404040" points="417,-466.16 413,-460.16 417,-454.16 421,-460.16 417,-466.16"/>
<text text-anchor="middle" x="439" y="-541.5" font-family="Helvetica,sans-Serif" font-size="10.00"> &#45;_mutex</text>
</g>
</g>
</svg>
