<?xml version="1.0" encoding="UTF-8" standalone="no"?>
<!DOCTYPE svg PUBLIC "-//W3C//DTD SVG 1.1//EN"
 "http://www.w3.org/Graphics/SVG/1.1/DTD/svg11.dtd">
<!-- Generated by graphviz version 2.43.0 (0)
 -->
<!-- Title: RayTracer::PluginsExt::Camera::Clustered::ClusterRayIterator::Iterator Pages: 1 -->
<svg width="605pt" height="942pt"
 viewBox="0.00 0.00 605.00 942.00" xmlns="http://www.w3.org/2000/svg" xmlns:xlink="http://www.w3.org/1999/xlink">
<g id="graph0" class="graph" transform="scale(1 1) rotate(0) translate(4 938)">
<title>RayTracer::PluginsExt::Camera::Clustered::ClusterRayIterator::Iterator</title>
<polygon fill="white" stroke="transparent" points="-4,4 -4,-938 601,-938 601,4 -4,4"/>
<!-- Node1 -->
<g id="node1" class="node">
<title>Node1</title>
<g id="a_node1"><a xlink:title=" ">
<polygon fill="#bfbfbf" stroke="black" points="259.5,-0.5 259.5,-145.5 407.5,-145.5 407.5,-0.5 259.5,-0.5"/>
<text text-anchor="start" x="267.5" y="-133.5" font-family="Helvetica,sans-Serif" font-size="10.00">RayTracer::PluginsExt</text>
<text text-anchor="start" x="267.5" y="-122.5" font-family="Helvetica,sans-Serif" font-size="10.00">::Camera::Clustered::</text>
<text text-anchor="middle" x="333.5" y="-111.5" font-family="Helvetica,sans-Serif" font-size="10.00">ClusterRayIterator::Iterator</text>
<polyline fill="none" stroke="black" points="259.5,-104.5 407.5,-104.5 "/>
<text text-anchor="middle" x="333.5" y="-92.5" font-family="Helvetica,sans-Serif" font-size="10.00"> </text>
<polyline fill="none" stroke="black" points="259.5,-85.5 407.5,-85.5 "/>
<text text-anchor="start" x="267.5" y="-73.5" font-family="Helvetica,sans-Serif" font-size="10.00">+ Iterator()</text>
<text text-anchor="start" x="267.5" y="-62.5" font-family="Helvetica,sans-Serif" font-size="10.00">+ operator++()</text>
<text text-anchor="start" x="267.5" y="-51.5" font-family="Helvetica,sans-Serif" font-size="10.00">+ operator*()</text>
<text text-anchor="start" x="267.5" y="-40.5" font-family="Helvetica,sans-Serif" font-size="10.00">+ operator==()</text>
<text text-anchor="start" x="267.5" y="-29.5" font-family="Helvetica,sans-Serif" font-size="10.00">+ operator!=()</text>
<text text-anchor="start" x="267.5" y="-18.5" font-family="Helvetica,sans-Serif" font-size="10.00">+ toString()</text>
<text text-anchor="start" x="267.5" y="-7.5" font-family="Helvetica,sans-Serif" font-size="10.00">+ operator=()</text>
</a>
</g>
</g>
<!-- Node2 -->
<g id="node2" class="node">
<title>Node2</title>
<g id="a_node2"><a xlink:title=" ">
<polygon fill="white" stroke="#bfbfbf" points="0,-281.5 0,-338.5 119,-338.5 119,-281.5 0,-281.5"/>
<text text-anchor="middle" x="59.5" y="-326.5" font-family="Helvetica,sans-Serif" font-size="10.00">IRayIterator::IIterator</text>
<polyline fill="none" stroke="#bfbfbf" points="0,-319.5 119,-319.5 "/>
<text text-anchor="middle" x="59.5" y="-307.5" font-family="Helvetica,sans-Serif" font-size="10.00"> </text>
<polyline fill="none" stroke="#bfbfbf" points="0,-300.5 119,-300.5 "/>
<text text-anchor="middle" x="59.5" y="-288.5" font-family="Helvetica,sans-Serif" font-size="10.00"> </text>
</a>
</g>
</g>
<!-- Node2&#45;&gt;Node1 -->
<g id="edge1" class="edge">
<title>Node2&#45;&gt;Node1</title>
<path fill="none" stroke="midnightblue" d="M72.95,-271.89C86.18,-239.81 109.1,-194.01 141.5,-164 174.85,-133.1 220.71,-111.07 259.24,-96.54"/>
<polygon fill="none" stroke="midnightblue" points="69.63,-270.78 69.16,-281.37 76.13,-273.38 69.63,-270.78"/>
</g>
<!-- Node3 -->
<g id="node3" class="node">
<title>Node3</title>
<g id="a_node3"><a xlink:href="a01332.html" target="_top" xlink:title="The Vector3f class.">
<polygon fill="white" stroke="black" points="149.5,-474.5 149.5,-806.5 267.5,-806.5 267.5,-474.5 149.5,-474.5"/>
<text text-anchor="start" x="157.5" y="-794.5" font-family="Helvetica,sans-Serif" font-size="10.00">RayTracer::Entities</text>
<text text-anchor="middle" x="208.5" y="-783.5" font-family="Helvetica,sans-Serif" font-size="10.00">::Transform::Vector3f</text>
<polyline fill="none" stroke="black" points="149.5,-776.5 267.5,-776.5 "/>
<text text-anchor="middle" x="208.5" y="-764.5" font-family="Helvetica,sans-Serif" font-size="10.00"> </text>
<polyline fill="none" stroke="black" points="149.5,-757.5 267.5,-757.5 "/>
<text text-anchor="start" x="157.5" y="-745.5" font-family="Helvetica,sans-Serif" font-size="10.00">+ ~Vector3f()</text>
<text text-anchor="start" x="157.5" y="-734.5" font-family="Helvetica,sans-Serif" font-size="10.00">+ Vector3f()</text>
<text text-anchor="start" x="157.5" y="-723.5" font-family="Helvetica,sans-Serif" font-size="10.00">+ Vector3f()</text>
<text text-anchor="start" x="157.5" y="-712.5" font-family="Helvetica,sans-Serif" font-size="10.00">+ Vector3f()</text>
<text text-anchor="start" x="157.5" y="-701.5" font-family="Helvetica,sans-Serif" font-size="10.00">+ Vector3f()</text>
<text text-anchor="start" x="157.5" y="-690.5" font-family="Helvetica,sans-Serif" font-size="10.00">+ operator+()</text>
<text text-anchor="start" x="157.5" y="-679.5" font-family="Helvetica,sans-Serif" font-size="10.00">+ operator&#45;()</text>
<text text-anchor="start" x="157.5" y="-668.5" font-family="Helvetica,sans-Serif" font-size="10.00">+ operator*()</text>
<text text-anchor="start" x="157.5" y="-657.5" font-family="Helvetica,sans-Serif" font-size="10.00">+ operator/()</text>
<text text-anchor="start" x="157.5" y="-646.5" font-family="Helvetica,sans-Serif" font-size="10.00">+ operator=()</text>
<text text-anchor="start" x="157.5" y="-635.5" font-family="Helvetica,sans-Serif" font-size="10.00">+ getX()</text>
<text text-anchor="start" x="157.5" y="-624.5" font-family="Helvetica,sans-Serif" font-size="10.00">+ getY()</text>
<text text-anchor="start" x="157.5" y="-613.5" font-family="Helvetica,sans-Serif" font-size="10.00">+ getZ()</text>
<text text-anchor="start" x="157.5" y="-602.5" font-family="Helvetica,sans-Serif" font-size="10.00">+ getNorm()</text>
<text text-anchor="start" x="157.5" y="-591.5" font-family="Helvetica,sans-Serif" font-size="10.00">+ getNormalized()</text>
<text text-anchor="start" x="157.5" y="-580.5" font-family="Helvetica,sans-Serif" font-size="10.00">+ getCrossed()</text>
<text text-anchor="start" x="157.5" y="-569.5" font-family="Helvetica,sans-Serif" font-size="10.00">+ dot()</text>
<text text-anchor="start" x="157.5" y="-558.5" font-family="Helvetica,sans-Serif" font-size="10.00">+ getDistance()</text>
<text text-anchor="start" x="157.5" y="-547.5" font-family="Helvetica,sans-Serif" font-size="10.00">+ toDegrees()</text>
<text text-anchor="start" x="157.5" y="-536.5" font-family="Helvetica,sans-Serif" font-size="10.00">+ toRadians()</text>
<text text-anchor="start" x="157.5" y="-525.5" font-family="Helvetica,sans-Serif" font-size="10.00">+ rotateVector()</text>
<text text-anchor="start" x="157.5" y="-514.5" font-family="Helvetica,sans-Serif" font-size="10.00">+ getAngle()</text>
<text text-anchor="start" x="157.5" y="-503.5" font-family="Helvetica,sans-Serif" font-size="10.00">+ rotateX()</text>
<text text-anchor="start" x="157.5" y="-492.5" font-family="Helvetica,sans-Serif" font-size="10.00">+ rotateY()</text>
<text text-anchor="start" x="157.5" y="-481.5" font-family="Helvetica,sans-Serif" font-size="10.00">+ rotateZ()</text>
</a>
</g>
</g>
<!-- Node3&#45;&gt;Node1 -->
<g id="edge2" class="edge">
<title>Node3&#45;&gt;Node1</title>
<path fill="none" stroke="#404040" d="M152.24,-474.28C134.05,-392.81 127.01,-295.11 164.5,-215 182.41,-176.74 216.37,-145.22 249.18,-121.77"/>
<polygon fill="none" stroke="#404040" points="249.44,-121.59 252.1,-114.88 259.31,-114.75 256.65,-121.45 249.44,-121.59"/>
<text text-anchor="middle" x="211.5" y="-313" font-family="Helvetica,sans-Serif" font-size="10.00"> &#45;_cameraPos</text>
<text text-anchor="middle" x="211.5" y="-302" font-family="Helvetica,sans-Serif" font-size="10.00">&#45;_screenPosTopLeft</text>
</g>
<!-- Node7 -->
<g id="node7" class="node">
<title>Node7</title>
<g id="a_node7"><a xlink:href="a01400.html" target="_top" xlink:title="The Ray class.">
<polygon fill="white" stroke="black" points="268,-243 268,-377 399,-377 399,-243 268,-243"/>
<text text-anchor="middle" x="333.5" y="-365" font-family="Helvetica,sans-Serif" font-size="10.00">RayTracer::Images::Ray</text>
<polyline fill="none" stroke="black" points="268,-358 399,-358 "/>
<text text-anchor="middle" x="333.5" y="-346" font-family="Helvetica,sans-Serif" font-size="10.00"> </text>
<polyline fill="none" stroke="black" points="268,-339 399,-339 "/>
<text text-anchor="start" x="276" y="-327" font-family="Helvetica,sans-Serif" font-size="10.00">+ Ray()</text>
<text text-anchor="start" x="276" y="-316" font-family="Helvetica,sans-Serif" font-size="10.00">+ getOrigin()</text>
<text text-anchor="start" x="276" y="-305" font-family="Helvetica,sans-Serif" font-size="10.00">+ getDirection()</text>
<text text-anchor="start" x="276" y="-294" font-family="Helvetica,sans-Serif" font-size="10.00">+ getStep()</text>
<text text-anchor="start" x="276" y="-283" font-family="Helvetica,sans-Serif" font-size="10.00">+ operator+=()</text>
<text text-anchor="start" x="276" y="-272" font-family="Helvetica,sans-Serif" font-size="10.00">+ operator&#45;=()</text>
<text text-anchor="start" x="276" y="-261" font-family="Helvetica,sans-Serif" font-size="10.00">+ operator++()</text>
<text text-anchor="start" x="276" y="-250" font-family="Helvetica,sans-Serif" font-size="10.00">+ operator&#45;&#45;()</text>
</a>
</g>
</g>
<!-- Node3&#45;&gt;Node7 -->
<g id="edge7" class="edge">
<title>Node3&#45;&gt;Node7</title>
<path fill="none" stroke="#404040" d="M267.52,-484.39C280.13,-451.25 292.94,-417.6 303.86,-388.89"/>
<polygon fill="none" stroke="#404040" points="304,-388.52 302.4,-381.49 308.27,-377.31 309.87,-384.34 304,-388.52"/>
<text text-anchor="middle" x="313" y="-448" font-family="Helvetica,sans-Serif" font-size="10.00"> &#45;_normal</text>
<text text-anchor="middle" x="313" y="-437" font-family="Helvetica,sans-Serif" font-size="10.00">&#45;_origin</text>
<text text-anchor="middle" x="313" y="-426" font-family="Helvetica,sans-Serif" font-size="10.00">&#45;_step</text>
</g>
<!-- Node4 -->
<g id="node4" class="node">
<title>Node4</title>
<g id="a_node4"><a xlink:title=" ">
<polygon fill="white" stroke="#bfbfbf" points="183.5,-876.5 183.5,-933.5 233.5,-933.5 233.5,-876.5 183.5,-876.5"/>
<text text-anchor="middle" x="208.5" y="-921.5" font-family="Helvetica,sans-Serif" font-size="10.00">double</text>
<polyline fill="none" stroke="#bfbfbf" points="183.5,-914.5 233.5,-914.5 "/>
<text text-anchor="middle" x="208.5" y="-902.5" font-family="Helvetica,sans-Serif" font-size="10.00"> </text>
<polyline fill="none" stroke="#bfbfbf" points="183.5,-895.5 233.5,-895.5 "/>
<text text-anchor="middle" x="208.5" y="-883.5" font-family="Helvetica,sans-Serif" font-size="10.00"> </text>
</a>
</g>
</g>
<!-- Node4&#45;&gt;Node3 -->
<g id="edge3" class="edge">
<title>Node4&#45;&gt;Node3</title>
<path fill="none" stroke="#404040" d="M208.5,-876.4C208.5,-861.23 208.5,-840.98 208.5,-818.71"/>
<polygon fill="none" stroke="#404040" points="208.5,-818.52 204.5,-812.52 208.5,-806.52 212.5,-812.52 208.5,-818.52"/>
<text text-anchor="middle" x="218" y="-850" font-family="Helvetica,sans-Serif" font-size="10.00"> &#45;_x</text>
<text text-anchor="middle" x="218" y="-839" font-family="Helvetica,sans-Serif" font-size="10.00">&#45;_y</text>
<text text-anchor="middle" x="218" y="-828" font-family="Helvetica,sans-Serif" font-size="10.00">&#45;_z</text>
</g>
<!-- Node5 -->
<g id="node5" class="node">
<title>Node5</title>
<g id="a_node5"><a xlink:href="a01328.html" target="_top" xlink:title="The Vector2i class.">
<polygon fill="white" stroke="black" points="417,-215.5 417,-404.5 534,-404.5 534,-215.5 417,-215.5"/>
<text text-anchor="start" x="425" y="-392.5" font-family="Helvetica,sans-Serif" font-size="10.00">RayTracer::Entities</text>
<text text-anchor="middle" x="475.5" y="-381.5" font-family="Helvetica,sans-Serif" font-size="10.00">::Transform::Vector2i</text>
<polyline fill="none" stroke="black" points="417,-374.5 534,-374.5 "/>
<text text-anchor="middle" x="475.5" y="-362.5" font-family="Helvetica,sans-Serif" font-size="10.00"> </text>
<polyline fill="none" stroke="black" points="417,-355.5 534,-355.5 "/>
<text text-anchor="start" x="425" y="-343.5" font-family="Helvetica,sans-Serif" font-size="10.00">+ ~Vector2i()</text>
<text text-anchor="start" x="425" y="-332.5" font-family="Helvetica,sans-Serif" font-size="10.00">+ Vector2i()</text>
<text text-anchor="start" x="425" y="-321.5" font-family="Helvetica,sans-Serif" font-size="10.00">+ Vector2i()</text>
<text text-anchor="start" x="425" y="-310.5" font-family="Helvetica,sans-Serif" font-size="10.00">+ Vector2i()</text>
<text text-anchor="start" x="425" y="-299.5" font-family="Helvetica,sans-Serif" font-size="10.00">+ Vector2i()</text>
<text text-anchor="start" x="425" y="-288.5" font-family="Helvetica,sans-Serif" font-size="10.00">+ operator+()</text>
<text text-anchor="start" x="425" y="-277.5" font-family="Helvetica,sans-Serif" font-size="10.00">+ operator&#45;()</text>
<text text-anchor="start" x="425" y="-266.5" font-family="Helvetica,sans-Serif" font-size="10.00">+ operator*()</text>
<text text-anchor="start" x="425" y="-255.5" font-family="Helvetica,sans-Serif" font-size="10.00">+ operator/()</text>
<text text-anchor="start" x="425" y="-244.5" font-family="Helvetica,sans-Serif" font-size="10.00">+ operator=()</text>
<text text-anchor="start" x="425" y="-233.5" font-family="Helvetica,sans-Serif" font-size="10.00">+ getX()</text>
<text text-anchor="start" x="425" y="-222.5" font-family="Helvetica,sans-Serif" font-size="10.00">+ getY()</text>
</a>
</g>
</g>
<!-- Node5&#45;&gt;Node1 -->
<g id="edge4" class="edge">
<title>Node5&#45;&gt;Node1</title>
<path fill="none" stroke="#404040" d="M418.97,-215.45C407.09,-195.79 394.65,-175.2 383.05,-156.01"/>
<polygon fill="none" stroke="#404040" points="382.91,-155.77 376.39,-152.71 376.71,-145.5 383.23,-148.57 382.91,-155.77"/>
<text text-anchor="middle" x="437" y="-178" font-family="Helvetica,sans-Serif" font-size="10.00"> &#45;_screenSize</text>
</g>
<!-- Node6 -->
<g id="node6" class="node">
<title>Node6</title>
<g id="a_node6"><a xlink:title=" ">
<polygon fill="white" stroke="#bfbfbf" points="461,-612 461,-669 490,-669 490,-612 461,-612"/>
<text text-anchor="middle" x="475.5" y="-657" font-family="Helvetica,sans-Serif" font-size="10.00">int</text>
<polyline fill="none" stroke="#bfbfbf" points="461,-650 490,-650 "/>
<text text-anchor="middle" x="475.5" y="-638" font-family="Helvetica,sans-Serif" font-size="10.00"> </text>
<polyline fill="none" stroke="#bfbfbf" points="461,-631 490,-631 "/>
<text text-anchor="middle" x="475.5" y="-619" font-family="Helvetica,sans-Serif" font-size="10.00"> </text>
</a>
</g>
</g>
<!-- Node6&#45;&gt;Node5 -->
<g id="edge5" class="edge">
<title>Node6&#45;&gt;Node5</title>
<path fill="none" stroke="#404040" d="M475.5,-611.78C475.5,-569.17 475.5,-485.34 475.5,-416.99"/>
<polygon fill="none" stroke="#404040" points="475.5,-416.86 471.5,-410.86 475.5,-404.86 479.5,-410.86 475.5,-416.86"/>
<text text-anchor="middle" x="485" y="-442.5" font-family="Helvetica,sans-Serif" font-size="10.00"> &#45;_x</text>
<text text-anchor="middle" x="485" y="-431.5" font-family="Helvetica,sans-Serif" font-size="10.00">&#45;_y</text>
</g>
<!-- Node7&#45;&gt;Node1 -->
<g id="edge6" class="edge">
<title>Node7&#45;&gt;Node1</title>
<path fill="none" stroke="#404040" d="M333.5,-242.91C333.5,-216.54 333.5,-185.87 333.5,-157.95"/>
<polygon fill="none" stroke="#404040" points="333.5,-157.76 329.5,-151.76 333.5,-145.76 337.5,-151.76 333.5,-157.76"/>
<text text-anchor="middle" x="347.5" y="-178" font-family="Helvetica,sans-Serif" font-size="10.00"> &#45;_ray</text>
</g>
<!-- Node8 -->
<g id="node8" class="node">
<title>Node8</title>
<g id="a_node8"><a xlink:title=" ">
<polygon fill="white" stroke="#bfbfbf" points="552,-281.5 552,-338.5 597,-338.5 597,-281.5 552,-281.5"/>
<text text-anchor="middle" x="574.5" y="-326.5" font-family="Helvetica,sans-Serif" font-size="10.00">size_t</text>
<polyline fill="none" stroke="#bfbfbf" points="552,-319.5 597,-319.5 "/>
<text text-anchor="middle" x="574.5" y="-307.5" font-family="Helvetica,sans-Serif" font-size="10.00"> </text>
<polyline fill="none" stroke="#bfbfbf" points="552,-300.5 597,-300.5 "/>
<text text-anchor="middle" x="574.5" y="-288.5" font-family="Helvetica,sans-Serif" font-size="10.00"> </text>
</a>
</g>
</g>
<!-- Node8&#45;&gt;Node1 -->
<g id="edge8" class="edge">
<title>Node8&#45;&gt;Node1</title>
<path fill="none" stroke="#404040" d="M570.08,-281.41C565.84,-261.48 557.87,-234.72 543.5,-215 511.55,-171.16 461.53,-136.8 418.33,-112.98"/>
<polygon fill="none" stroke="#404040" points="418.07,-112.84 410.89,-113.51 407.51,-107.15 414.69,-106.47 418.07,-112.84"/>
<text text-anchor="middle" x="548.5" y="-189" font-family="Helvetica,sans-Serif" font-size="10.00"> &#45;_cluster</text>
<text text-anchor="middle" x="548.5" y="-178" font-family="Helvetica,sans-Serif" font-size="10.00">&#45;_x</text>
<text text-anchor="middle" x="548.5" y="-167" font-family="Helvetica,sans-Serif" font-size="10.00">&#45;_y</text>
</g>
</g>
</svg>
