<?xml version="1.0" encoding="UTF-8" standalone="no"?>
<!DOCTYPE svg PUBLIC "-//W3C//DTD SVG 1.1//EN"
 "http://www.w3.org/Graphics/SVG/1.1/DTD/svg11.dtd">
<!-- Generated by graphviz version 2.43.0 (0)
 -->
<!-- Title: RayTracer::PluginsExt::LimitedPlane::LimitedPlaneCreator Pages: 1 -->
<svg width="865pt" height="1218pt"
 viewBox="0.00 0.00 864.50 1218.00" xmlns="http://www.w3.org/2000/svg" xmlns:xlink="http://www.w3.org/1999/xlink">
<g id="graph0" class="graph" transform="scale(1 1) rotate(0) translate(4 1214)">
<title>RayTracer::PluginsExt::LimitedPlane::LimitedPlaneCreator</title>
<polygon fill="white" stroke="transparent" points="-4,4 -4,-1214 860.5,-1214 860.5,4 -4,4"/>
<!-- Node1 -->
<g id="node1" class="node">
<title>Node1</title>
<g id="a_node1"><a xlink:title=" ">
<polygon fill="#bfbfbf" stroke="black" points="381.5,-0.5 381.5,-90.5 537.5,-90.5 537.5,-0.5 381.5,-0.5"/>
<text text-anchor="start" x="389.5" y="-78.5" font-family="Helvetica,sans-Serif" font-size="10.00">RayTracer::PluginsExt</text>
<text text-anchor="start" x="389.5" y="-67.5" font-family="Helvetica,sans-Serif" font-size="10.00">::LimitedPlane::LimitedPlane</text>
<text text-anchor="middle" x="459.5" y="-56.5" font-family="Helvetica,sans-Serif" font-size="10.00">Creator</text>
<polyline fill="none" stroke="black" points="381.5,-49.5 537.5,-49.5 "/>
<text text-anchor="middle" x="459.5" y="-37.5" font-family="Helvetica,sans-Serif" font-size="10.00"> </text>
<polyline fill="none" stroke="black" points="381.5,-30.5 537.5,-30.5 "/>
<text text-anchor="start" x="389.5" y="-18.5" font-family="Helvetica,sans-Serif" font-size="10.00">+ ~LimitedPlaneCreator()</text>
<text text-anchor="start" x="389.5" y="-7.5" font-family="Helvetica,sans-Serif" font-size="10.00">+ create()</text>
</a>
</g>
</g>
<!-- Node2 -->
<g id="node2" class="node">
<title>Node2</title>
<g id="a_node2"><a xlink:href="a01413.html" target="_top" xlink:title="The IEntityCreator.">
<polygon fill="white" stroke="black" points="377,-138.5 377,-217.5 510,-217.5 510,-138.5 377,-138.5"/>
<text text-anchor="start" x="385" y="-205.5" font-family="Helvetica,sans-Serif" font-size="10.00">RayTracer::Plugins</text>
<text text-anchor="middle" x="443.5" y="-194.5" font-family="Helvetica,sans-Serif" font-size="10.00">::Entities::IEntityCreator</text>
<polyline fill="none" stroke="black" points="377,-187.5 510,-187.5 "/>
<text text-anchor="middle" x="443.5" y="-175.5" font-family="Helvetica,sans-Serif" font-size="10.00"> </text>
<polyline fill="none" stroke="black" points="377,-168.5 510,-168.5 "/>
<text text-anchor="start" x="385" y="-156.5" font-family="Helvetica,sans-Serif" font-size="10.00">+ ~IEntityCreator()</text>
<text text-anchor="start" x="385" y="-145.5" font-family="Helvetica,sans-Serif" font-size="10.00">+ create()</text>
</a>
</g>
</g>
<!-- Node2&#45;&gt;Node1 -->
<g id="edge1" class="edge">
<title>Node2&#45;&gt;Node1</title>
<path fill="none" stroke="midnightblue" d="M449.49,-128.16C450.99,-115.93 452.59,-102.88 454.06,-90.88"/>
<polygon fill="none" stroke="midnightblue" points="446,-127.85 448.26,-138.2 452.95,-128.7 446,-127.85"/>
</g>
<!-- Node3 -->
<g id="node3" class="node">
<title>Node3</title>
<g id="a_node3"><a xlink:title=" ">
<polygon fill="white" stroke="#bfbfbf" points="528,-138.5 528,-217.5 671,-217.5 671,-138.5 528,-138.5"/>
<text text-anchor="start" x="536" y="-205.5" font-family="Helvetica,sans-Serif" font-size="10.00">std::vector&lt; RayTracer</text>
<text text-anchor="start" x="536" y="-194.5" font-family="Helvetica,sans-Serif" font-size="10.00">::PluginsExt::LimitedPlane</text>
<text text-anchor="middle" x="599.5" y="-183.5" font-family="Helvetica,sans-Serif" font-size="10.00">::LimitedPlaneEntity * &gt;</text>
<polyline fill="none" stroke="#bfbfbf" points="528,-176.5 671,-176.5 "/>
<text text-anchor="middle" x="599.5" y="-164.5" font-family="Helvetica,sans-Serif" font-size="10.00"> </text>
<polyline fill="none" stroke="#bfbfbf" points="528,-157.5 671,-157.5 "/>
<text text-anchor="middle" x="599.5" y="-145.5" font-family="Helvetica,sans-Serif" font-size="10.00"> </text>
</a>
</g>
</g>
<!-- Node3&#45;&gt;Node1 -->
<g id="edge2" class="edge">
<title>Node3&#45;&gt;Node1</title>
<path fill="none" stroke="#404040" d="M557.87,-138.2C544.78,-126 530.1,-112.31 516.15,-99.3"/>
<polygon fill="none" stroke="#404040" points="515.89,-99.06 508.77,-97.9 507.11,-90.88 514.23,-92.04 515.89,-99.06"/>
<text text-anchor="middle" x="567.5" y="-112" font-family="Helvetica,sans-Serif" font-size="10.00"> &#45;_elements</text>
</g>
<!-- Node4 -->
<g id="node4" class="node">
<title>Node4</title>
<g id="a_node4"><a xlink:href="a01645.html" target="_top" xlink:title=" ">
<polygon fill="white" stroke="black" points="441.5,-287.5 441.5,-443.5 597.5,-443.5 597.5,-287.5 441.5,-287.5"/>
<text text-anchor="start" x="449.5" y="-431.5" font-family="Helvetica,sans-Serif" font-size="10.00">RayTracer::PluginsExt</text>
<text text-anchor="start" x="449.5" y="-420.5" font-family="Helvetica,sans-Serif" font-size="10.00">::LimitedPlane::LimitedPlane</text>
<text text-anchor="middle" x="519.5" y="-409.5" font-family="Helvetica,sans-Serif" font-size="10.00">Entity</text>
<polyline fill="none" stroke="black" points="441.5,-402.5 597.5,-402.5 "/>
<text text-anchor="middle" x="519.5" y="-390.5" font-family="Helvetica,sans-Serif" font-size="10.00"> </text>
<polyline fill="none" stroke="black" points="441.5,-383.5 597.5,-383.5 "/>
<text text-anchor="start" x="449.5" y="-371.5" font-family="Helvetica,sans-Serif" font-size="10.00">+ LimitedPlaneEntity()</text>
<text text-anchor="start" x="449.5" y="-360.5" font-family="Helvetica,sans-Serif" font-size="10.00">+ getType()</text>
<text text-anchor="start" x="449.5" y="-349.5" font-family="Helvetica,sans-Serif" font-size="10.00">+ getTransform()</text>
<text text-anchor="start" x="449.5" y="-338.5" font-family="Helvetica,sans-Serif" font-size="10.00">+ getTransform()</text>
<text text-anchor="start" x="449.5" y="-327.5" font-family="Helvetica,sans-Serif" font-size="10.00">+ isCollided()</text>
<text text-anchor="start" x="449.5" y="-316.5" font-family="Helvetica,sans-Serif" font-size="10.00">+ isCollided()</text>
<text text-anchor="start" x="449.5" y="-305.5" font-family="Helvetica,sans-Serif" font-size="10.00">+ getColor()</text>
<text text-anchor="start" x="449.5" y="-294.5" font-family="Helvetica,sans-Serif" font-size="10.00">+ redirectionLight()</text>
</a>
</g>
</g>
<!-- Node4&#45;&gt;Node3 -->
<g id="edge3" class="edge">
<title>Node4&#45;&gt;Node3</title>
<path fill="none" stroke="#404040" d="M546.99,-287.36C553.61,-270.27 560.97,-252.38 568.5,-236 569.63,-233.55 570.82,-231.05 572.05,-228.55"/>
<polygon fill="none" stroke="#404040" points="572.18,-228.28 571.33,-221.12 577.62,-217.59 578.46,-224.75 572.18,-228.28"/>
<text text-anchor="middle" x="597.5" y="-250" font-family="Helvetica,sans-Serif" font-size="10.00"> +elements</text>
</g>
<!-- Node5 -->
<g id="node5" class="node">
<title>Node5</title>
<g id="a_node5"><a xlink:href="a01285.html" target="_top" xlink:title="The IPrimitive class.">
<polygon fill="white" stroke="black" points="21.5,-530 21.5,-642 133.5,-642 133.5,-530 21.5,-530"/>
<text text-anchor="start" x="29.5" y="-630" font-family="Helvetica,sans-Serif" font-size="10.00">RayTracer::Entities</text>
<text text-anchor="middle" x="77.5" y="-619" font-family="Helvetica,sans-Serif" font-size="10.00">::IPrimitive</text>
<polyline fill="none" stroke="black" points="21.5,-612 133.5,-612 "/>
<text text-anchor="middle" x="77.5" y="-600" font-family="Helvetica,sans-Serif" font-size="10.00"> </text>
<polyline fill="none" stroke="black" points="21.5,-593 133.5,-593 "/>
<text text-anchor="start" x="29.5" y="-581" font-family="Helvetica,sans-Serif" font-size="10.00">+ ~IPrimitive()</text>
<text text-anchor="start" x="29.5" y="-570" font-family="Helvetica,sans-Serif" font-size="10.00">+ getColor()</text>
<text text-anchor="start" x="29.5" y="-559" font-family="Helvetica,sans-Serif" font-size="10.00">+ isCollided()</text>
<text text-anchor="start" x="29.5" y="-548" font-family="Helvetica,sans-Serif" font-size="10.00">+ isCollided()</text>
<text text-anchor="start" x="29.5" y="-537" font-family="Helvetica,sans-Serif" font-size="10.00">+ redirectionLight()</text>
</a>
</g>
</g>
<!-- Node5&#45;&gt;Node4 -->
<g id="edge4" class="edge">
<title>Node5&#45;&gt;Node4</title>
<path fill="none" stroke="midnightblue" d="M141.71,-524.29C156.39,-512.26 172.43,-500.44 188.5,-491 269.49,-443.41 371.9,-408.24 441.2,-387.63"/>
<polygon fill="none" stroke="midnightblue" points="139.13,-521.89 133.7,-530.99 143.62,-527.26 139.13,-521.89"/>
</g>
<!-- Node6 -->
<g id="node6" class="node">
<title>Node6</title>
<g id="a_node6"><a xlink:href="a01273.html" target="_top" xlink:title="The IEntity class.">
<polygon fill="white" stroke="black" points="0,-866 0,-967 107,-967 107,-866 0,-866"/>
<text text-anchor="start" x="8" y="-955" font-family="Helvetica,sans-Serif" font-size="10.00">RayTracer::Entities</text>
<text text-anchor="middle" x="53.5" y="-944" font-family="Helvetica,sans-Serif" font-size="10.00">::IEntity</text>
<polyline fill="none" stroke="black" points="0,-937 107,-937 "/>
<text text-anchor="middle" x="53.5" y="-925" font-family="Helvetica,sans-Serif" font-size="10.00"> </text>
<polyline fill="none" stroke="black" points="0,-918 107,-918 "/>
<text text-anchor="start" x="8" y="-906" font-family="Helvetica,sans-Serif" font-size="10.00">+ ~IEntity()</text>
<text text-anchor="start" x="8" y="-895" font-family="Helvetica,sans-Serif" font-size="10.00">+ getTransform()</text>
<text text-anchor="start" x="8" y="-884" font-family="Helvetica,sans-Serif" font-size="10.00">+ getTransform()</text>
<text text-anchor="start" x="8" y="-873" font-family="Helvetica,sans-Serif" font-size="10.00">+ getType()</text>
</a>
</g>
</g>
<!-- Node6&#45;&gt;Node5 -->
<g id="edge5" class="edge">
<title>Node6&#45;&gt;Node5</title>
<path fill="none" stroke="midnightblue" d="M57.87,-855.74C62.31,-794.89 69.15,-701.3 73.47,-642.16"/>
<polygon fill="none" stroke="midnightblue" points="54.36,-855.74 57.12,-865.96 61.34,-856.25 54.36,-855.74"/>
</g>
<!-- Node7 -->
<g id="node7" class="node">
<title>Node7</title>
<g id="a_node7"><a xlink:href="a01293.html" target="_top" xlink:title="The Transform class.">
<polygon fill="white" stroke="black" points="197.5,-513.5 197.5,-658.5 323.5,-658.5 323.5,-513.5 197.5,-513.5"/>
<text text-anchor="start" x="205.5" y="-646.5" font-family="Helvetica,sans-Serif" font-size="10.00">RayTracer::Entities</text>
<text text-anchor="middle" x="260.5" y="-635.5" font-family="Helvetica,sans-Serif" font-size="10.00">::Transform::Transform</text>
<polyline fill="none" stroke="black" points="197.5,-628.5 323.5,-628.5 "/>
<text text-anchor="middle" x="260.5" y="-616.5" font-family="Helvetica,sans-Serif" font-size="10.00"> </text>
<polyline fill="none" stroke="black" points="197.5,-609.5 323.5,-609.5 "/>
<text text-anchor="start" x="205.5" y="-597.5" font-family="Helvetica,sans-Serif" font-size="10.00">+ Transform()</text>
<text text-anchor="start" x="205.5" y="-586.5" font-family="Helvetica,sans-Serif" font-size="10.00">+ setPosition()</text>
<text text-anchor="start" x="205.5" y="-575.5" font-family="Helvetica,sans-Serif" font-size="10.00">+ getPosition()</text>
<text text-anchor="start" x="205.5" y="-564.5" font-family="Helvetica,sans-Serif" font-size="10.00">+ setRotation()</text>
<text text-anchor="start" x="205.5" y="-553.5" font-family="Helvetica,sans-Serif" font-size="10.00">+ getRotation()</text>
<text text-anchor="start" x="205.5" y="-542.5" font-family="Helvetica,sans-Serif" font-size="10.00">+ setScale()</text>
<text text-anchor="start" x="205.5" y="-531.5" font-family="Helvetica,sans-Serif" font-size="10.00">+ getScale()</text>
<text text-anchor="start" x="205.5" y="-520.5" font-family="Helvetica,sans-Serif" font-size="10.00">+ operator=()</text>
</a>
</g>
</g>
<!-- Node7&#45;&gt;Node4 -->
<g id="edge6" class="edge">
<title>Node7&#45;&gt;Node4</title>
<path fill="none" stroke="#404040" d="M311.59,-513.03C318.26,-505.26 325.3,-497.74 332.5,-491 361.92,-463.47 398.05,-437.88 430.69,-417.15"/>
<polygon fill="none" stroke="#404040" points="430.98,-416.97 433.94,-410.39 441.15,-410.59 438.19,-417.17 430.98,-416.97"/>
<text text-anchor="middle" x="396" y="-465" font-family="Helvetica,sans-Serif" font-size="10.00"> &#45;_transform</text>
</g>
<!-- Node8 -->
<g id="node8" class="node">
<title>Node8</title>
<g id="a_node8"><a xlink:href="a01289.html" target="_top" xlink:title="The ITransform class.">
<polygon fill="white" stroke="black" points="125,-844 125,-989 254,-989 254,-844 125,-844"/>
<text text-anchor="start" x="133" y="-977" font-family="Helvetica,sans-Serif" font-size="10.00">RayTracer::Entities</text>
<text text-anchor="middle" x="189.5" y="-966" font-family="Helvetica,sans-Serif" font-size="10.00">::Transform::ITransform</text>
<polyline fill="none" stroke="black" points="125,-959 254,-959 "/>
<text text-anchor="middle" x="189.5" y="-947" font-family="Helvetica,sans-Serif" font-size="10.00"> </text>
<polyline fill="none" stroke="black" points="125,-940 254,-940 "/>
<text text-anchor="start" x="133" y="-928" font-family="Helvetica,sans-Serif" font-size="10.00">+ ~ITransform()</text>
<text text-anchor="start" x="133" y="-917" font-family="Helvetica,sans-Serif" font-size="10.00">+ setPosition()</text>
<text text-anchor="start" x="133" y="-906" font-family="Helvetica,sans-Serif" font-size="10.00">+ getPosition()</text>
<text text-anchor="start" x="133" y="-895" font-family="Helvetica,sans-Serif" font-size="10.00">+ setRotation()</text>
<text text-anchor="start" x="133" y="-884" font-family="Helvetica,sans-Serif" font-size="10.00">+ getRotation()</text>
<text text-anchor="start" x="133" y="-873" font-family="Helvetica,sans-Serif" font-size="10.00">+ setScale()</text>
<text text-anchor="start" x="133" y="-862" font-family="Helvetica,sans-Serif" font-size="10.00">+ getScale()</text>
<text text-anchor="start" x="133" y="-851" font-family="Helvetica,sans-Serif" font-size="10.00">+ operator=()</text>
</a>
</g>
</g>
<!-- Node8&#45;&gt;Node7 -->
<g id="edge7" class="edge">
<title>Node8&#45;&gt;Node7</title>
<path fill="none" stroke="midnightblue" d="M207.12,-833.96C218.76,-780.11 233.87,-710.21 245.04,-658.53"/>
<polygon fill="none" stroke="midnightblue" points="203.69,-833.3 204.99,-843.82 210.53,-834.78 203.69,-833.3"/>
</g>
<!-- Node9 -->
<g id="node9" class="node">
<title>Node9</title>
<g id="a_node9"><a xlink:href="a01301.html" target="_top" xlink:title="The Vector3f class.">
<polygon fill="white" stroke="black" points="272.5,-750.5 272.5,-1082.5 390.5,-1082.5 390.5,-750.5 272.5,-750.5"/>
<text text-anchor="start" x="280.5" y="-1070.5" font-family="Helvetica,sans-Serif" font-size="10.00">RayTracer::Entities</text>
<text text-anchor="middle" x="331.5" y="-1059.5" font-family="Helvetica,sans-Serif" font-size="10.00">::Transform::Vector3f</text>
<polyline fill="none" stroke="black" points="272.5,-1052.5 390.5,-1052.5 "/>
<text text-anchor="middle" x="331.5" y="-1040.5" font-family="Helvetica,sans-Serif" font-size="10.00"> </text>
<polyline fill="none" stroke="black" points="272.5,-1033.5 390.5,-1033.5 "/>
<text text-anchor="start" x="280.5" y="-1021.5" font-family="Helvetica,sans-Serif" font-size="10.00">+ ~Vector3f()</text>
<text text-anchor="start" x="280.5" y="-1010.5" font-family="Helvetica,sans-Serif" font-size="10.00">+ Vector3f()</text>
<text text-anchor="start" x="280.5" y="-999.5" font-family="Helvetica,sans-Serif" font-size="10.00">+ Vector3f()</text>
<text text-anchor="start" x="280.5" y="-988.5" font-family="Helvetica,sans-Serif" font-size="10.00">+ Vector3f()</text>
<text text-anchor="start" x="280.5" y="-977.5" font-family="Helvetica,sans-Serif" font-size="10.00">+ Vector3f()</text>
<text text-anchor="start" x="280.5" y="-966.5" font-family="Helvetica,sans-Serif" font-size="10.00">+ operator+()</text>
<text text-anchor="start" x="280.5" y="-955.5" font-family="Helvetica,sans-Serif" font-size="10.00">+ operator&#45;()</text>
<text text-anchor="start" x="280.5" y="-944.5" font-family="Helvetica,sans-Serif" font-size="10.00">+ operator*()</text>
<text text-anchor="start" x="280.5" y="-933.5" font-family="Helvetica,sans-Serif" font-size="10.00">+ operator/()</text>
<text text-anchor="start" x="280.5" y="-922.5" font-family="Helvetica,sans-Serif" font-size="10.00">+ operator=()</text>
<text text-anchor="start" x="280.5" y="-911.5" font-family="Helvetica,sans-Serif" font-size="10.00">+ getX()</text>
<text text-anchor="start" x="280.5" y="-900.5" font-family="Helvetica,sans-Serif" font-size="10.00">+ getY()</text>
<text text-anchor="start" x="280.5" y="-889.5" font-family="Helvetica,sans-Serif" font-size="10.00">+ getZ()</text>
<text text-anchor="start" x="280.5" y="-878.5" font-family="Helvetica,sans-Serif" font-size="10.00">+ getNorm()</text>
<text text-anchor="start" x="280.5" y="-867.5" font-family="Helvetica,sans-Serif" font-size="10.00">+ getNormalized()</text>
<text text-anchor="start" x="280.5" y="-856.5" font-family="Helvetica,sans-Serif" font-size="10.00">+ getCrossed()</text>
<text text-anchor="start" x="280.5" y="-845.5" font-family="Helvetica,sans-Serif" font-size="10.00">+ dot()</text>
<text text-anchor="start" x="280.5" y="-834.5" font-family="Helvetica,sans-Serif" font-size="10.00">+ getDistance()</text>
<text text-anchor="start" x="280.5" y="-823.5" font-family="Helvetica,sans-Serif" font-size="10.00">+ toDegrees()</text>
<text text-anchor="start" x="280.5" y="-812.5" font-family="Helvetica,sans-Serif" font-size="10.00">+ toRadians()</text>
<text text-anchor="start" x="280.5" y="-801.5" font-family="Helvetica,sans-Serif" font-size="10.00">+ rotateVector()</text>
<text text-anchor="start" x="280.5" y="-790.5" font-family="Helvetica,sans-Serif" font-size="10.00">+ getAngle()</text>
<text text-anchor="start" x="280.5" y="-779.5" font-family="Helvetica,sans-Serif" font-size="10.00">+ rotateX()</text>
<text text-anchor="start" x="280.5" y="-768.5" font-family="Helvetica,sans-Serif" font-size="10.00">+ rotateY()</text>
<text text-anchor="start" x="280.5" y="-757.5" font-family="Helvetica,sans-Serif" font-size="10.00">+ rotateZ()</text>
</a>
</g>
</g>
<!-- Node9&#45;&gt;Node7 -->
<g id="edge8" class="edge">
<title>Node9&#45;&gt;Node7</title>
<path fill="none" stroke="#404040" d="M295.79,-750.29C289.8,-722.55 283.81,-694.85 278.52,-670.35"/>
<polygon fill="none" stroke="#404040" points="278.51,-670.33 273.33,-665.31 275.98,-658.6 281.15,-663.62 278.51,-670.33"/>
<text text-anchor="middle" x="318.5" y="-724" font-family="Helvetica,sans-Serif" font-size="10.00"> &#45;_position</text>
<text text-anchor="middle" x="318.5" y="-713" font-family="Helvetica,sans-Serif" font-size="10.00">&#45;_rotation</text>
<text text-anchor="middle" x="318.5" y="-702" font-family="Helvetica,sans-Serif" font-size="10.00">&#45;_scale</text>
</g>
<!-- Node10 -->
<g id="node10" class="node">
<title>Node10</title>
<g id="a_node10"><a xlink:title=" ">
<polygon fill="white" stroke="#bfbfbf" points="306.5,-1152.5 306.5,-1209.5 356.5,-1209.5 356.5,-1152.5 306.5,-1152.5"/>
<text text-anchor="middle" x="331.5" y="-1197.5" font-family="Helvetica,sans-Serif" font-size="10.00">double</text>
<polyline fill="none" stroke="#bfbfbf" points="306.5,-1190.5 356.5,-1190.5 "/>
<text text-anchor="middle" x="331.5" y="-1178.5" font-family="Helvetica,sans-Serif" font-size="10.00"> </text>
<polyline fill="none" stroke="#bfbfbf" points="306.5,-1171.5 356.5,-1171.5 "/>
<text text-anchor="middle" x="331.5" y="-1159.5" font-family="Helvetica,sans-Serif" font-size="10.00"> </text>
</a>
</g>
</g>
<!-- Node10&#45;&gt;Node9 -->
<g id="edge9" class="edge">
<title>Node10&#45;&gt;Node9</title>
<path fill="none" stroke="#404040" d="M331.5,-1152.4C331.5,-1137.23 331.5,-1116.98 331.5,-1094.71"/>
<polygon fill="none" stroke="#404040" points="331.5,-1094.52 327.5,-1088.52 331.5,-1082.52 335.5,-1088.52 331.5,-1094.52"/>
<text text-anchor="middle" x="341" y="-1126" font-family="Helvetica,sans-Serif" font-size="10.00"> &#45;_x</text>
<text text-anchor="middle" x="341" y="-1115" font-family="Helvetica,sans-Serif" font-size="10.00">&#45;_y</text>
<text text-anchor="middle" x="341" y="-1104" font-family="Helvetica,sans-Serif" font-size="10.00">&#45;_z</text>
</g>
<!-- Node11 -->
<g id="node11" class="node">
<title>Node11</title>
<g id="a_node11"><a xlink:href="a01297.html" target="_top" xlink:title="The Vector2i class.">
<polygon fill="white" stroke="black" points="342,-491.5 342,-680.5 459,-680.5 459,-491.5 342,-491.5"/>
<text text-anchor="start" x="350" y="-668.5" font-family="Helvetica,sans-Serif" font-size="10.00">RayTracer::Entities</text>
<text text-anchor="middle" x="400.5" y="-657.5" font-family="Helvetica,sans-Serif" font-size="10.00">::Transform::Vector2i</text>
<polyline fill="none" stroke="black" points="342,-650.5 459,-650.5 "/>
<text text-anchor="middle" x="400.5" y="-638.5" font-family="Helvetica,sans-Serif" font-size="10.00"> </text>
<polyline fill="none" stroke="black" points="342,-631.5 459,-631.5 "/>
<text text-anchor="start" x="350" y="-619.5" font-family="Helvetica,sans-Serif" font-size="10.00">+ ~Vector2i()</text>
<text text-anchor="start" x="350" y="-608.5" font-family="Helvetica,sans-Serif" font-size="10.00">+ Vector2i()</text>
<text text-anchor="start" x="350" y="-597.5" font-family="Helvetica,sans-Serif" font-size="10.00">+ Vector2i()</text>
<text text-anchor="start" x="350" y="-586.5" font-family="Helvetica,sans-Serif" font-size="10.00">+ Vector2i()</text>
<text text-anchor="start" x="350" y="-575.5" font-family="Helvetica,sans-Serif" font-size="10.00">+ Vector2i()</text>
<text text-anchor="start" x="350" y="-564.5" font-family="Helvetica,sans-Serif" font-size="10.00">+ operator+()</text>
<text text-anchor="start" x="350" y="-553.5" font-family="Helvetica,sans-Serif" font-size="10.00">+ operator&#45;()</text>
<text text-anchor="start" x="350" y="-542.5" font-family="Helvetica,sans-Serif" font-size="10.00">+ operator*()</text>
<text text-anchor="start" x="350" y="-531.5" font-family="Helvetica,sans-Serif" font-size="10.00">+ operator/()</text>
<text text-anchor="start" x="350" y="-520.5" font-family="Helvetica,sans-Serif" font-size="10.00">+ operator=()</text>
<text text-anchor="start" x="350" y="-509.5" font-family="Helvetica,sans-Serif" font-size="10.00">+ getX()</text>
<text text-anchor="start" x="350" y="-498.5" font-family="Helvetica,sans-Serif" font-size="10.00">+ getY()</text>
</a>
</g>
</g>
<!-- Node11&#45;&gt;Node4 -->
<g id="edge10" class="edge">
<title>Node11&#45;&gt;Node4</title>
<path fill="none" stroke="#404040" d="M451.48,-491.39C458.17,-479.11 465,-466.57 471.63,-454.4"/>
<polygon fill="none" stroke="#404040" points="471.66,-454.35 471.01,-447.16 477.4,-443.81 478.04,-450.99 471.66,-454.35"/>
<text text-anchor="middle" x="483.5" y="-465" font-family="Helvetica,sans-Serif" font-size="10.00"> &#45;_size</text>
</g>
<!-- Node12 -->
<g id="node12" class="node">
<title>Node12</title>
<g id="a_node12"><a xlink:title=" ">
<polygon fill="white" stroke="#bfbfbf" points="409,-888 409,-945 438,-945 438,-888 409,-888"/>
<text text-anchor="middle" x="423.5" y="-933" font-family="Helvetica,sans-Serif" font-size="10.00">int</text>
<polyline fill="none" stroke="#bfbfbf" points="409,-926 438,-926 "/>
<text text-anchor="middle" x="423.5" y="-914" font-family="Helvetica,sans-Serif" font-size="10.00"> </text>
<polyline fill="none" stroke="#bfbfbf" points="409,-907 438,-907 "/>
<text text-anchor="middle" x="423.5" y="-895" font-family="Helvetica,sans-Serif" font-size="10.00"> </text>
</a>
</g>
</g>
<!-- Node12&#45;&gt;Node11 -->
<g id="edge11" class="edge">
<title>Node12&#45;&gt;Node11</title>
<path fill="none" stroke="#404040" d="M421.56,-887.78C418.58,-845.17 412.71,-761.34 407.92,-692.99"/>
<polygon fill="none" stroke="#404040" points="407.91,-692.83 403.5,-687.12 407.07,-680.86 411.48,-686.56 407.91,-692.83"/>
<text text-anchor="middle" x="421" y="-718.5" font-family="Helvetica,sans-Serif" font-size="10.00"> &#45;_x</text>
<text text-anchor="middle" x="421" y="-707.5" font-family="Helvetica,sans-Serif" font-size="10.00">&#45;_y</text>
</g>
<!-- Node13 -->
<g id="node13" class="node">
<title>Node13</title>
<g id="a_node13"><a xlink:title=" ">
<polygon fill="white" stroke="#bfbfbf" points="477.5,-546.5 477.5,-625.5 641.5,-625.5 641.5,-546.5 477.5,-546.5"/>
<text text-anchor="start" x="485.5" y="-613.5" font-family="Helvetica,sans-Serif" font-size="10.00">optional&lt; std::reference</text>
<text text-anchor="start" x="485.5" y="-602.5" font-family="Helvetica,sans-Serif" font-size="10.00">_wrapper&lt; RayTracer::Entities</text>
<text text-anchor="middle" x="559.5" y="-591.5" font-family="Helvetica,sans-Serif" font-size="10.00">::IMaterial &gt; &gt;</text>
<polyline fill="none" stroke="#bfbfbf" points="477.5,-584.5 641.5,-584.5 "/>
<text text-anchor="middle" x="559.5" y="-572.5" font-family="Helvetica,sans-Serif" font-size="10.00"> </text>
<polyline fill="none" stroke="#bfbfbf" points="477.5,-565.5 641.5,-565.5 "/>
<text text-anchor="middle" x="559.5" y="-553.5" font-family="Helvetica,sans-Serif" font-size="10.00"> </text>
</a>
</g>
</g>
<!-- Node13&#45;&gt;Node4 -->
<g id="edge12" class="edge">
<title>Node13&#45;&gt;Node4</title>
<path fill="none" stroke="#404040" d="M552.44,-546.44C547.83,-521.24 541.6,-487.24 535.81,-455.58"/>
<polygon fill="none" stroke="#404040" points="535.77,-455.39 530.76,-450.21 533.61,-443.58 538.63,-448.76 535.77,-455.39"/>
<text text-anchor="middle" x="565.5" y="-465" font-family="Helvetica,sans-Serif" font-size="10.00"> &#45;_material</text>
</g>
<!-- Node14 -->
<g id="node14" class="node">
<title>Node14</title>
<g id="a_node14"><a xlink:href="a01337.html" target="_top" xlink:title="Logger singleton.">
<polygon fill="white" stroke="black" points="659.5,-513.5 659.5,-658.5 795.5,-658.5 795.5,-513.5 659.5,-513.5"/>
<text text-anchor="middle" x="727.5" y="-646.5" font-family="Helvetica,sans-Serif" font-size="10.00">RayTracer::ILogger</text>
<polyline fill="none" stroke="black" points="659.5,-639.5 795.5,-639.5 "/>
<text text-anchor="middle" x="727.5" y="-627.5" font-family="Helvetica,sans-Serif" font-size="10.00"> </text>
<polyline fill="none" stroke="black" points="659.5,-620.5 795.5,-620.5 "/>
<text text-anchor="start" x="667.5" y="-608.5" font-family="Helvetica,sans-Serif" font-size="10.00">+ ~ILogger()</text>
<text text-anchor="start" x="667.5" y="-597.5" font-family="Helvetica,sans-Serif" font-size="10.00">+ fatal()</text>
<text text-anchor="start" x="667.5" y="-586.5" font-family="Helvetica,sans-Serif" font-size="10.00">+ error()</text>
<text text-anchor="start" x="667.5" y="-575.5" font-family="Helvetica,sans-Serif" font-size="10.00">+ warn()</text>
<text text-anchor="start" x="667.5" y="-564.5" font-family="Helvetica,sans-Serif" font-size="10.00">+ info()</text>
<text text-anchor="start" x="667.5" y="-553.5" font-family="Helvetica,sans-Serif" font-size="10.00">+ debug()</text>
<text text-anchor="start" x="667.5" y="-542.5" font-family="Helvetica,sans-Serif" font-size="10.00">+ trace()</text>
<text text-anchor="start" x="667.5" y="-531.5" font-family="Helvetica,sans-Serif" font-size="10.00">+ subscribeCallback()</text>
<text text-anchor="start" x="667.5" y="-520.5" font-family="Helvetica,sans-Serif" font-size="10.00">+ unsubscribeCallback()</text>
</a>
</g>
</g>
<!-- Node14&#45;&gt;Node4 -->
<g id="edge13" class="edge">
<title>Node14&#45;&gt;Node4</title>
<path fill="none" stroke="#404040" d="M670.4,-513.37C663.82,-505.7 657.1,-498.11 650.5,-491 636.67,-476.11 621.44,-460.78 606.42,-446.19"/>
<polygon fill="none" stroke="#404040" points="606.25,-446.02 599.16,-444.74 597.61,-437.69 604.71,-438.98 606.25,-446.02"/>
<text text-anchor="middle" x="652" y="-465" font-family="Helvetica,sans-Serif" font-size="10.00"> &#45;_logger</text>
</g>
<!-- Node15 -->
<g id="node15" class="node">
<title>Node15</title>
<g id="a_node15"><a xlink:title=" ">
<polygon fill="white" stroke="#bfbfbf" points="718,-337 718,-394 815,-394 815,-337 718,-337"/>
<text text-anchor="middle" x="766.5" y="-382" font-family="Helvetica,sans-Serif" font-size="10.00">std::vector&lt; T &gt;</text>
<polyline fill="none" stroke="#bfbfbf" points="718,-375 815,-375 "/>
<text text-anchor="middle" x="766.5" y="-363" font-family="Helvetica,sans-Serif" font-size="10.00"> </text>
<polyline fill="none" stroke="#bfbfbf" points="718,-356 815,-356 "/>
<text text-anchor="middle" x="766.5" y="-344" font-family="Helvetica,sans-Serif" font-size="10.00"> </text>
</a>
</g>
</g>
<!-- Node15&#45;&gt;Node3 -->
<g id="edge14" class="edge">
<title>Node15&#45;&gt;Node3</title>
<path fill="none" stroke="orange" d="M734.5,-328.96C705.81,-297.08 663.79,-250.41 634.27,-217.62"/>
<polygon fill="orange" stroke="orange" points="732.21,-331.64 741.5,-336.73 737.41,-326.96 732.21,-331.64"/>
<text text-anchor="start" x="677.5" y="-261" font-family="Helvetica,sans-Serif" font-size="10.00"> &lt; RayTracer::PluginsExt</text>
<text text-anchor="start" x="677.5" y="-250" font-family="Helvetica,sans-Serif" font-size="10.00">::LimitedPlane::LimitedPlane</text>
<text text-anchor="middle" x="747.5" y="-239" font-family="Helvetica,sans-Serif" font-size="10.00">Entity * &gt;</text>
</g>
<!-- Node16 -->
<g id="node16" class="node">
<title>Node16</title>
<g id="a_node16"><a xlink:title=" ">
<polygon fill="white" stroke="#bfbfbf" points="814,-557.5 814,-614.5 843,-614.5 843,-557.5 814,-557.5"/>
<text text-anchor="middle" x="828.5" y="-602.5" font-family="Helvetica,sans-Serif" font-size="10.00">T</text>
<polyline fill="none" stroke="#bfbfbf" points="814,-595.5 843,-595.5 "/>
<text text-anchor="middle" x="828.5" y="-583.5" font-family="Helvetica,sans-Serif" font-size="10.00"> </text>
<polyline fill="none" stroke="#bfbfbf" points="814,-576.5 843,-576.5 "/>
<text text-anchor="middle" x="828.5" y="-564.5" font-family="Helvetica,sans-Serif" font-size="10.00"> </text>
</a>
</g>
</g>
<!-- Node16&#45;&gt;Node15 -->
<g id="edge15" class="edge">
<title>Node16&#45;&gt;Node15</title>
<path fill="none" stroke="#404040" d="M821.8,-557.35C817.16,-538.58 810.72,-513.22 804.5,-491 796.47,-462.33 786.64,-430.2 778.99,-405.76"/>
<polygon fill="none" stroke="#404040" points="778.92,-405.53 773.3,-401.01 775.32,-394.08 780.94,-398.61 778.92,-405.53"/>
<text text-anchor="middle" x="827.5" y="-465" font-family="Helvetica,sans-Serif" font-size="10.00"> +elements</text>
</g>
</g>
</svg>
