<?xml version="1.0" encoding="UTF-8" standalone="no"?>
<!DOCTYPE svg PUBLIC "-//W3C//DTD SVG 1.1//EN"
 "http://www.w3.org/Graphics/SVG/1.1/DTD/svg11.dtd">
<!-- Generated by graphviz version 2.43.0 (0)
 -->
<!-- Title: RayTracer::PluginsExt::SpotLight::SpotLightEntity Pages: 1 -->
<svg width="673pt" height="909pt"
 viewBox="0.00 0.00 672.50 909.00" xmlns="http://www.w3.org/2000/svg" xmlns:xlink="http://www.w3.org/1999/xlink">
<g id="graph0" class="graph" transform="scale(1 1) rotate(0) translate(4 905)">
<title>RayTracer::PluginsExt::SpotLight::SpotLightEntity</title>
<polygon fill="white" stroke="transparent" points="-4,4 -4,-905 668.5,-905 668.5,4 -4,4"/>
<!-- Node1 -->
<g id="node1" class="node">
<title>Node1</title>
<g id="a_node1"><a xlink:title=" ">
<polygon fill="#bfbfbf" stroke="black" points="344,-0.5 344,-167.5 493,-167.5 493,-0.5 344,-0.5"/>
<text text-anchor="start" x="352" y="-155.5" font-family="Helvetica,sans-Serif" font-size="10.00">RayTracer::PluginsExt</text>
<text text-anchor="middle" x="418.5" y="-144.5" font-family="Helvetica,sans-Serif" font-size="10.00">::SpotLight::SpotLightEntity</text>
<polyline fill="none" stroke="black" points="344,-137.5 493,-137.5 "/>
<text text-anchor="middle" x="418.5" y="-125.5" font-family="Helvetica,sans-Serif" font-size="10.00"> </text>
<polyline fill="none" stroke="black" points="344,-118.5 493,-118.5 "/>
<text text-anchor="start" x="352" y="-106.5" font-family="Helvetica,sans-Serif" font-size="10.00">+ SpotLightEntity()</text>
<text text-anchor="start" x="352" y="-95.5" font-family="Helvetica,sans-Serif" font-size="10.00">+ ~SpotLightEntity()</text>
<text text-anchor="start" x="352" y="-84.5" font-family="Helvetica,sans-Serif" font-size="10.00">+ getType()</text>
<text text-anchor="start" x="352" y="-73.5" font-family="Helvetica,sans-Serif" font-size="10.00">+ getTransform()</text>
<text text-anchor="start" x="352" y="-62.5" font-family="Helvetica,sans-Serif" font-size="10.00">+ getTransform()</text>
<text text-anchor="start" x="352" y="-51.5" font-family="Helvetica,sans-Serif" font-size="10.00">+ getColor()</text>
<text text-anchor="start" x="352" y="-40.5" font-family="Helvetica,sans-Serif" font-size="10.00">+ getColor()</text>
<text text-anchor="start" x="352" y="-29.5" font-family="Helvetica,sans-Serif" font-size="10.00">+ setColor()</text>
<text text-anchor="start" x="352" y="-18.5" font-family="Helvetica,sans-Serif" font-size="10.00">+ isAmbient()</text>
<text text-anchor="start" x="352" y="-7.5" font-family="Helvetica,sans-Serif" font-size="10.00">+ getPower()</text>
</a>
</g>
</g>
<!-- Node2 -->
<g id="node2" class="node">
<title>Node2</title>
<g id="a_node2"><a xlink:href="a01256.html" target="_top" xlink:title="The ILight class.">
<polygon fill="white" stroke="black" points="70,-226.5 70,-349.5 177,-349.5 177,-226.5 70,-226.5"/>
<text text-anchor="start" x="78" y="-337.5" font-family="Helvetica,sans-Serif" font-size="10.00">RayTracer::Entities</text>
<text text-anchor="middle" x="123.5" y="-326.5" font-family="Helvetica,sans-Serif" font-size="10.00">::ILight</text>
<polyline fill="none" stroke="black" points="70,-319.5 177,-319.5 "/>
<text text-anchor="middle" x="123.5" y="-307.5" font-family="Helvetica,sans-Serif" font-size="10.00"> </text>
<polyline fill="none" stroke="black" points="70,-300.5 177,-300.5 "/>
<text text-anchor="start" x="78" y="-288.5" font-family="Helvetica,sans-Serif" font-size="10.00">+ ~ILight()</text>
<text text-anchor="start" x="78" y="-277.5" font-family="Helvetica,sans-Serif" font-size="10.00">+ getColor()</text>
<text text-anchor="start" x="78" y="-266.5" font-family="Helvetica,sans-Serif" font-size="10.00">+ getColor()</text>
<text text-anchor="start" x="78" y="-255.5" font-family="Helvetica,sans-Serif" font-size="10.00">+ setColor()</text>
<text text-anchor="start" x="78" y="-244.5" font-family="Helvetica,sans-Serif" font-size="10.00">+ isAmbient()</text>
<text text-anchor="start" x="78" y="-233.5" font-family="Helvetica,sans-Serif" font-size="10.00">+ getPower()</text>
</a>
</g>
</g>
<!-- Node2&#45;&gt;Node1 -->
<g id="edge1" class="edge">
<title>Node2&#45;&gt;Node1</title>
<path fill="none" stroke="midnightblue" d="M185.67,-244.43C231.79,-212.85 294.87,-169.66 343.73,-136.2"/>
<polygon fill="none" stroke="midnightblue" points="183.54,-241.65 177.26,-250.18 187.49,-247.42 183.54,-241.65"/>
</g>
<!-- Node3 -->
<g id="node3" class="node">
<title>Node3</title>
<g id="a_node3"><a xlink:href="a01252.html" target="_top" xlink:title="The IEntity class.">
<polygon fill="white" stroke="black" points="0,-546 0,-647 107,-647 107,-546 0,-546"/>
<text text-anchor="start" x="8" y="-635" font-family="Helvetica,sans-Serif" font-size="10.00">RayTracer::Entities</text>
<text text-anchor="middle" x="53.5" y="-624" font-family="Helvetica,sans-Serif" font-size="10.00">::IEntity</text>
<polyline fill="none" stroke="black" points="0,-617 107,-617 "/>
<text text-anchor="middle" x="53.5" y="-605" font-family="Helvetica,sans-Serif" font-size="10.00"> </text>
<polyline fill="none" stroke="black" points="0,-598 107,-598 "/>
<text text-anchor="start" x="8" y="-586" font-family="Helvetica,sans-Serif" font-size="10.00">+ ~IEntity()</text>
<text text-anchor="start" x="8" y="-575" font-family="Helvetica,sans-Serif" font-size="10.00">+ getTransform()</text>
<text text-anchor="start" x="8" y="-564" font-family="Helvetica,sans-Serif" font-size="10.00">+ getTransform()</text>
<text text-anchor="start" x="8" y="-553" font-family="Helvetica,sans-Serif" font-size="10.00">+ getType()</text>
</a>
</g>
</g>
<!-- Node3&#45;&gt;Node2 -->
<g id="edge2" class="edge">
<title>Node3&#45;&gt;Node2</title>
<path fill="none" stroke="midnightblue" d="M67.12,-535.85C79.39,-482.15 97.33,-403.58 109.66,-349.59"/>
<polygon fill="none" stroke="midnightblue" points="63.64,-535.39 64.82,-545.91 70.46,-536.95 63.64,-535.39"/>
</g>
<!-- Node4 -->
<g id="node4" class="node">
<title>Node4</title>
<g id="a_node4"><a xlink:href="a01272.html" target="_top" xlink:title="The Transform class.">
<polygon fill="white" stroke="black" points="264.5,-215.5 264.5,-360.5 390.5,-360.5 390.5,-215.5 264.5,-215.5"/>
<text text-anchor="start" x="272.5" y="-348.5" font-family="Helvetica,sans-Serif" font-size="10.00">RayTracer::Entities</text>
<text text-anchor="middle" x="327.5" y="-337.5" font-family="Helvetica,sans-Serif" font-size="10.00">::Transform::Transform</text>
<polyline fill="none" stroke="black" points="264.5,-330.5 390.5,-330.5 "/>
<text text-anchor="middle" x="327.5" y="-318.5" font-family="Helvetica,sans-Serif" font-size="10.00"> </text>
<polyline fill="none" stroke="black" points="264.5,-311.5 390.5,-311.5 "/>
<text text-anchor="start" x="272.5" y="-299.5" font-family="Helvetica,sans-Serif" font-size="10.00">+ Transform()</text>
<text text-anchor="start" x="272.5" y="-288.5" font-family="Helvetica,sans-Serif" font-size="10.00">+ setPosition()</text>
<text text-anchor="start" x="272.5" y="-277.5" font-family="Helvetica,sans-Serif" font-size="10.00">+ getPosition()</text>
<text text-anchor="start" x="272.5" y="-266.5" font-family="Helvetica,sans-Serif" font-size="10.00">+ setRotation()</text>
<text text-anchor="start" x="272.5" y="-255.5" font-family="Helvetica,sans-Serif" font-size="10.00">+ getRotation()</text>
<text text-anchor="start" x="272.5" y="-244.5" font-family="Helvetica,sans-Serif" font-size="10.00">+ setScale()</text>
<text text-anchor="start" x="272.5" y="-233.5" font-family="Helvetica,sans-Serif" font-size="10.00">+ getScale()</text>
<text text-anchor="start" x="272.5" y="-222.5" font-family="Helvetica,sans-Serif" font-size="10.00">+ operator=()</text>
</a>
</g>
</g>
<!-- Node4&#45;&gt;Node1 -->
<g id="edge3" class="edge">
<title>Node4&#45;&gt;Node1</title>
<path fill="none" stroke="#404040" d="M334.42,-215.43C336.66,-205.33 339.61,-195.25 343.5,-186 344.55,-183.51 345.67,-181.02 346.86,-178.54"/>
<polygon fill="none" stroke="#404040" points="346.93,-178.4 346.14,-171.23 352.45,-167.75 353.24,-174.91 346.93,-178.4"/>
<text text-anchor="middle" x="374" y="-189" font-family="Helvetica,sans-Serif" font-size="10.00"> &#45;_transform</text>
</g>
<!-- Node5 -->
<g id="node5" class="node">
<title>Node5</title>
<g id="a_node5"><a xlink:href="a01268.html" target="_top" xlink:title="The ITransform class.">
<polygon fill="white" stroke="black" points="125,-524 125,-669 254,-669 254,-524 125,-524"/>
<text text-anchor="start" x="133" y="-657" font-family="Helvetica,sans-Serif" font-size="10.00">RayTracer::Entities</text>
<text text-anchor="middle" x="189.5" y="-646" font-family="Helvetica,sans-Serif" font-size="10.00">::Transform::ITransform</text>
<polyline fill="none" stroke="black" points="125,-639 254,-639 "/>
<text text-anchor="middle" x="189.5" y="-627" font-family="Helvetica,sans-Serif" font-size="10.00"> </text>
<polyline fill="none" stroke="black" points="125,-620 254,-620 "/>
<text text-anchor="start" x="133" y="-608" font-family="Helvetica,sans-Serif" font-size="10.00">+ ~ITransform()</text>
<text text-anchor="start" x="133" y="-597" font-family="Helvetica,sans-Serif" font-size="10.00">+ setPosition()</text>
<text text-anchor="start" x="133" y="-586" font-family="Helvetica,sans-Serif" font-size="10.00">+ getPosition()</text>
<text text-anchor="start" x="133" y="-575" font-family="Helvetica,sans-Serif" font-size="10.00">+ setRotation()</text>
<text text-anchor="start" x="133" y="-564" font-family="Helvetica,sans-Serif" font-size="10.00">+ getRotation()</text>
<text text-anchor="start" x="133" y="-553" font-family="Helvetica,sans-Serif" font-size="10.00">+ setScale()</text>
<text text-anchor="start" x="133" y="-542" font-family="Helvetica,sans-Serif" font-size="10.00">+ getScale()</text>
<text text-anchor="start" x="133" y="-531" font-family="Helvetica,sans-Serif" font-size="10.00">+ operator=()</text>
</a>
</g>
</g>
<!-- Node5&#45;&gt;Node4 -->
<g id="edge4" class="edge">
<title>Node5&#45;&gt;Node4</title>
<path fill="none" stroke="midnightblue" d="M225.65,-514.41C237.66,-487.53 251.13,-457.47 263.5,-430 273.66,-407.45 284.78,-382.9 294.86,-360.69"/>
<polygon fill="none" stroke="midnightblue" points="222.35,-513.22 221.47,-523.77 228.74,-516.07 222.35,-513.22"/>
</g>
<!-- Node6 -->
<g id="node6" class="node">
<title>Node6</title>
<g id="a_node6"><a xlink:href="a01280.html" target="_top" xlink:title="The Vector3f class.">
<polygon fill="white" stroke="black" points="272.5,-430.5 272.5,-762.5 390.5,-762.5 390.5,-430.5 272.5,-430.5"/>
<text text-anchor="start" x="280.5" y="-750.5" font-family="Helvetica,sans-Serif" font-size="10.00">RayTracer::Entities</text>
<text text-anchor="middle" x="331.5" y="-739.5" font-family="Helvetica,sans-Serif" font-size="10.00">::Transform::Vector3f</text>
<polyline fill="none" stroke="black" points="272.5,-732.5 390.5,-732.5 "/>
<text text-anchor="middle" x="331.5" y="-720.5" font-family="Helvetica,sans-Serif" font-size="10.00"> </text>
<polyline fill="none" stroke="black" points="272.5,-713.5 390.5,-713.5 "/>
<text text-anchor="start" x="280.5" y="-701.5" font-family="Helvetica,sans-Serif" font-size="10.00">+ ~Vector3f()</text>
<text text-anchor="start" x="280.5" y="-690.5" font-family="Helvetica,sans-Serif" font-size="10.00">+ Vector3f()</text>
<text text-anchor="start" x="280.5" y="-679.5" font-family="Helvetica,sans-Serif" font-size="10.00">+ Vector3f()</text>
<text text-anchor="start" x="280.5" y="-668.5" font-family="Helvetica,sans-Serif" font-size="10.00">+ Vector3f()</text>
<text text-anchor="start" x="280.5" y="-657.5" font-family="Helvetica,sans-Serif" font-size="10.00">+ Vector3f()</text>
<text text-anchor="start" x="280.5" y="-646.5" font-family="Helvetica,sans-Serif" font-size="10.00">+ operator+()</text>
<text text-anchor="start" x="280.5" y="-635.5" font-family="Helvetica,sans-Serif" font-size="10.00">+ operator&#45;()</text>
<text text-anchor="start" x="280.5" y="-624.5" font-family="Helvetica,sans-Serif" font-size="10.00">+ operator*()</text>
<text text-anchor="start" x="280.5" y="-613.5" font-family="Helvetica,sans-Serif" font-size="10.00">+ operator/()</text>
<text text-anchor="start" x="280.5" y="-602.5" font-family="Helvetica,sans-Serif" font-size="10.00">+ operator=()</text>
<text text-anchor="start" x="280.5" y="-591.5" font-family="Helvetica,sans-Serif" font-size="10.00">+ getX()</text>
<text text-anchor="start" x="280.5" y="-580.5" font-family="Helvetica,sans-Serif" font-size="10.00">+ getY()</text>
<text text-anchor="start" x="280.5" y="-569.5" font-family="Helvetica,sans-Serif" font-size="10.00">+ getZ()</text>
<text text-anchor="start" x="280.5" y="-558.5" font-family="Helvetica,sans-Serif" font-size="10.00">+ getNorm()</text>
<text text-anchor="start" x="280.5" y="-547.5" font-family="Helvetica,sans-Serif" font-size="10.00">+ getNormalized()</text>
<text text-anchor="start" x="280.5" y="-536.5" font-family="Helvetica,sans-Serif" font-size="10.00">+ getCrossed()</text>
<text text-anchor="start" x="280.5" y="-525.5" font-family="Helvetica,sans-Serif" font-size="10.00">+ dot()</text>
<text text-anchor="start" x="280.5" y="-514.5" font-family="Helvetica,sans-Serif" font-size="10.00">+ getDistance()</text>
<text text-anchor="start" x="280.5" y="-503.5" font-family="Helvetica,sans-Serif" font-size="10.00">+ toDegrees()</text>
<text text-anchor="start" x="280.5" y="-492.5" font-family="Helvetica,sans-Serif" font-size="10.00">+ toRadians()</text>
<text text-anchor="start" x="280.5" y="-481.5" font-family="Helvetica,sans-Serif" font-size="10.00">+ rotateVector()</text>
<text text-anchor="start" x="280.5" y="-470.5" font-family="Helvetica,sans-Serif" font-size="10.00">+ getAngle()</text>
<text text-anchor="start" x="280.5" y="-459.5" font-family="Helvetica,sans-Serif" font-size="10.00">+ rotateX()</text>
<text text-anchor="start" x="280.5" y="-448.5" font-family="Helvetica,sans-Serif" font-size="10.00">+ rotateY()</text>
<text text-anchor="start" x="280.5" y="-437.5" font-family="Helvetica,sans-Serif" font-size="10.00">+ rotateZ()</text>
</a>
</g>
</g>
<!-- Node6&#45;&gt;Node4 -->
<g id="edge5" class="edge">
<title>Node6&#45;&gt;Node4</title>
<path fill="none" stroke="#404040" d="M329.34,-430.14C329.08,-410.27 328.83,-390.67 328.59,-372.69"/>
<polygon fill="none" stroke="#404040" points="328.59,-372.52 324.51,-366.57 328.43,-360.52 332.51,-366.47 328.59,-372.52"/>
<text text-anchor="middle" x="355.5" y="-404" font-family="Helvetica,sans-Serif" font-size="10.00"> &#45;_position</text>
<text text-anchor="middle" x="355.5" y="-393" font-family="Helvetica,sans-Serif" font-size="10.00">&#45;_rotation</text>
<text text-anchor="middle" x="355.5" y="-382" font-family="Helvetica,sans-Serif" font-size="10.00">&#45;_scale</text>
</g>
<!-- Node7 -->
<g id="node7" class="node">
<title>Node7</title>
<g id="a_node7"><a xlink:title=" ">
<polygon fill="white" stroke="#bfbfbf" points="393.5,-843.5 393.5,-900.5 443.5,-900.5 443.5,-843.5 393.5,-843.5"/>
<text text-anchor="middle" x="418.5" y="-888.5" font-family="Helvetica,sans-Serif" font-size="10.00">double</text>
<polyline fill="none" stroke="#bfbfbf" points="393.5,-881.5 443.5,-881.5 "/>
<text text-anchor="middle" x="418.5" y="-869.5" font-family="Helvetica,sans-Serif" font-size="10.00"> </text>
<polyline fill="none" stroke="#bfbfbf" points="393.5,-862.5 443.5,-862.5 "/>
<text text-anchor="middle" x="418.5" y="-850.5" font-family="Helvetica,sans-Serif" font-size="10.00"> </text>
</a>
</g>
</g>
<!-- Node7&#45;&gt;Node1 -->
<g id="edge7" class="edge">
<title>Node7&#45;&gt;Node1</title>
<path fill="none" stroke="#404040" d="M418.5,-843.49C418.5,-738.31 418.5,-358.59 418.5,-179.6"/>
<polygon fill="none" stroke="#404040" points="418.5,-179.59 414.5,-173.59 418.5,-167.59 422.5,-173.59 418.5,-179.59"/>
<text text-anchor="middle" x="438.5" y="-404" font-family="Helvetica,sans-Serif" font-size="10.00"> &#45;_angle</text>
<text text-anchor="middle" x="438.5" y="-393" font-family="Helvetica,sans-Serif" font-size="10.00">&#45;_power</text>
<text text-anchor="middle" x="438.5" y="-382" font-family="Helvetica,sans-Serif" font-size="10.00">&#45;_radius</text>
</g>
<!-- Node7&#45;&gt;Node6 -->
<g id="edge6" class="edge">
<title>Node7&#45;&gt;Node6</title>
<path fill="none" stroke="#404040" d="M396.07,-843.35C392.11,-837.54 388.35,-831.26 385.5,-825 378.15,-808.87 371.73,-791.61 366.14,-774.09"/>
<polygon fill="none" stroke="#404040" points="366.12,-774.02 360.53,-769.46 362.59,-762.55 368.18,-767.11 366.12,-774.02"/>
<text text-anchor="middle" x="395" y="-811.5" font-family="Helvetica,sans-Serif" font-size="10.00"> &#45;_x</text>
<text text-anchor="middle" x="395" y="-800.5" font-family="Helvetica,sans-Serif" font-size="10.00">&#45;_y</text>
<text text-anchor="middle" x="395" y="-789.5" font-family="Helvetica,sans-Serif" font-size="10.00">&#45;_z</text>
</g>
<!-- Node8 -->
<g id="node8" class="node">
<title>Node8</title>
<g id="a_node8"><a xlink:href="a01320.html" target="_top" xlink:title="The Color class.">
<polygon fill="white" stroke="black" points="447,-480 447,-713 560,-713 560,-480 447,-480"/>
<text text-anchor="start" x="455" y="-701" font-family="Helvetica,sans-Serif" font-size="10.00">RayTracer::Images::</text>
<text text-anchor="middle" x="503.5" y="-690" font-family="Helvetica,sans-Serif" font-size="10.00">Color</text>
<polyline fill="none" stroke="black" points="447,-683 560,-683 "/>
<text text-anchor="middle" x="503.5" y="-671" font-family="Helvetica,sans-Serif" font-size="10.00"> </text>
<polyline fill="none" stroke="black" points="447,-664 560,-664 "/>
<text text-anchor="start" x="455" y="-652" font-family="Helvetica,sans-Serif" font-size="10.00">+ ~Color()</text>
<text text-anchor="start" x="455" y="-641" font-family="Helvetica,sans-Serif" font-size="10.00">+ Color()</text>
<text text-anchor="start" x="455" y="-630" font-family="Helvetica,sans-Serif" font-size="10.00">+ Color()</text>
<text text-anchor="start" x="455" y="-619" font-family="Helvetica,sans-Serif" font-size="10.00">+ Color()</text>
<text text-anchor="start" x="455" y="-608" font-family="Helvetica,sans-Serif" font-size="10.00">+ operator+()</text>
<text text-anchor="start" x="455" y="-597" font-family="Helvetica,sans-Serif" font-size="10.00">+ operator&#45;()</text>
<text text-anchor="start" x="455" y="-586" font-family="Helvetica,sans-Serif" font-size="10.00">+ operator*()</text>
<text text-anchor="start" x="455" y="-575" font-family="Helvetica,sans-Serif" font-size="10.00">+ operator/()</text>
<text text-anchor="start" x="455" y="-564" font-family="Helvetica,sans-Serif" font-size="10.00">+ operator=()</text>
<text text-anchor="start" x="455" y="-553" font-family="Helvetica,sans-Serif" font-size="10.00">+ operator[]()</text>
<text text-anchor="start" x="455" y="-542" font-family="Helvetica,sans-Serif" font-size="10.00">+ operator[]()</text>
<text text-anchor="start" x="455" y="-531" font-family="Helvetica,sans-Serif" font-size="10.00">+ set()</text>
<text text-anchor="start" x="455" y="-520" font-family="Helvetica,sans-Serif" font-size="10.00">+ applyAlpha()</text>
<text text-anchor="start" x="455" y="-509" font-family="Helvetica,sans-Serif" font-size="10.00">+ mergeColor()</text>
<text text-anchor="start" x="455" y="-498" font-family="Helvetica,sans-Serif" font-size="10.00">+ applyDistance()</text>
<text text-anchor="start" x="455" y="-487" font-family="Helvetica,sans-Serif" font-size="10.00">+ toSfColor()</text>
</a>
</g>
</g>
<!-- Node7&#45;&gt;Node8 -->
<g id="edge9" class="edge">
<title>Node7&#45;&gt;Node8</title>
<path fill="none" stroke="#404040" d="M427.12,-843.27C435.89,-815.04 450.14,-769.21 463.96,-724.73"/>
<polygon fill="none" stroke="#404040" points="463.99,-724.62 461.95,-717.7 467.56,-713.16 469.59,-720.07 463.99,-724.62"/>
<text text-anchor="middle" x="455" y="-817" font-family="Helvetica,sans-Serif" font-size="10.00"> &#45;_a</text>
<text text-anchor="middle" x="455" y="-806" font-family="Helvetica,sans-Serif" font-size="10.00">&#45;_b</text>
<text text-anchor="middle" x="455" y="-795" font-family="Helvetica,sans-Serif" font-size="10.00">&#45;_g</text>
<text text-anchor="middle" x="455" y="-784" font-family="Helvetica,sans-Serif" font-size="10.00">&#45;_r</text>
</g>
<!-- Node8&#45;&gt;Node1 -->
<g id="edge8" class="edge">
<title>Node8&#45;&gt;Node1</title>
<path fill="none" stroke="#404040" d="M484.27,-479.98C469.17,-389.34 448.42,-264.71 434.29,-179.86"/>
<polygon fill="none" stroke="#404040" points="434.27,-179.73 429.34,-174.47 432.3,-167.89 437.23,-173.15 434.27,-179.73"/>
<text text-anchor="middle" x="482" y="-285.5" font-family="Helvetica,sans-Serif" font-size="10.00"> &#45;_color</text>
</g>
<!-- Node9 -->
<g id="node9" class="node">
<title>Node9</title>
<g id="a_node9"><a xlink:title=" ">
<polygon fill="white" stroke="#bfbfbf" points="469,-843.5 469,-900.5 538,-900.5 538,-843.5 469,-843.5"/>
<text text-anchor="middle" x="503.5" y="-888.5" font-family="Helvetica,sans-Serif" font-size="10.00">std::mutex</text>
<polyline fill="none" stroke="#bfbfbf" points="469,-881.5 538,-881.5 "/>
<text text-anchor="middle" x="503.5" y="-869.5" font-family="Helvetica,sans-Serif" font-size="10.00"> </text>
<polyline fill="none" stroke="#bfbfbf" points="469,-862.5 538,-862.5 "/>
<text text-anchor="middle" x="503.5" y="-850.5" font-family="Helvetica,sans-Serif" font-size="10.00"> </text>
</a>
</g>
</g>
<!-- Node9&#45;&gt;Node8 -->
<g id="edge10" class="edge">
<title>Node9&#45;&gt;Node8</title>
<path fill="none" stroke="#404040" d="M503.5,-843.27C503.5,-815.16 503.5,-769.6 503.5,-725.3"/>
<polygon fill="none" stroke="#404040" points="503.5,-725.16 499.5,-719.16 503.5,-713.16 507.5,-719.16 503.5,-725.16"/>
<text text-anchor="middle" x="525.5" y="-800.5" font-family="Helvetica,sans-Serif" font-size="10.00"> &#45;_mutex</text>
</g>
<!-- Node10 -->
<g id="node10" class="node">
<title>Node10</title>
<g id="a_node10"><a xlink:href="a01316.html" target="_top" xlink:title="Logger singleton.">
<polygon fill="white" stroke="black" points="528.5,-215.5 528.5,-360.5 664.5,-360.5 664.5,-215.5 528.5,-215.5"/>
<text text-anchor="middle" x="596.5" y="-348.5" font-family="Helvetica,sans-Serif" font-size="10.00">RayTracer::ILogger</text>
<polyline fill="none" stroke="black" points="528.5,-341.5 664.5,-341.5 "/>
<text text-anchor="middle" x="596.5" y="-329.5" font-family="Helvetica,sans-Serif" font-size="10.00"> </text>
<polyline fill="none" stroke="black" points="528.5,-322.5 664.5,-322.5 "/>
<text text-anchor="start" x="536.5" y="-310.5" font-family="Helvetica,sans-Serif" font-size="10.00">+ ~ILogger()</text>
<text text-anchor="start" x="536.5" y="-299.5" font-family="Helvetica,sans-Serif" font-size="10.00">+ fatal()</text>
<text text-anchor="start" x="536.5" y="-288.5" font-family="Helvetica,sans-Serif" font-size="10.00">+ error()</text>
<text text-anchor="start" x="536.5" y="-277.5" font-family="Helvetica,sans-Serif" font-size="10.00">+ warn()</text>
<text text-anchor="start" x="536.5" y="-266.5" font-family="Helvetica,sans-Serif" font-size="10.00">+ info()</text>
<text text-anchor="start" x="536.5" y="-255.5" font-family="Helvetica,sans-Serif" font-size="10.00">+ debug()</text>
<text text-anchor="start" x="536.5" y="-244.5" font-family="Helvetica,sans-Serif" font-size="10.00">+ trace()</text>
<text text-anchor="start" x="536.5" y="-233.5" font-family="Helvetica,sans-Serif" font-size="10.00">+ subscribeCallback()</text>
<text text-anchor="start" x="536.5" y="-222.5" font-family="Helvetica,sans-Serif" font-size="10.00">+ unsubscribeCallback()</text>
</a>
</g>
</g>
<!-- Node10&#45;&gt;Node1 -->
<g id="edge11" class="edge">
<title>Node10&#45;&gt;Node1</title>
<path fill="none" stroke="#404040" d="M533.49,-215.5C522.55,-203.08 511.03,-190 499.68,-177.13"/>
<polygon fill="none" stroke="#404040" points="499.39,-176.8 492.42,-174.94 491.46,-167.79 498.43,-169.65 499.39,-176.8"/>
<text text-anchor="middle" x="534" y="-189" font-family="Helvetica,sans-Serif" font-size="10.00"> &#45;_logger</text>
</g>
</g>
</svg>
