<?xml version="1.0" encoding="UTF-8" standalone="no"?>
<!DOCTYPE svg PUBLIC "-//W3C//DTD SVG 1.1//EN"
 "http://www.w3.org/Graphics/SVG/1.1/DTD/svg11.dtd">
<!-- Generated by graphviz version 2.43.0 (0)
 -->
<!-- Title: RayTracer::PluginsExt::LimitedCylinder::LimitedCylinderCreator Pages: 1 -->
<svg width="848pt" height="1174pt"
 viewBox="0.00 0.00 847.73 1174.00" xmlns="http://www.w3.org/2000/svg" xmlns:xlink="http://www.w3.org/1999/xlink">
<g id="graph0" class="graph" transform="scale(1 1) rotate(0) translate(4 1170)">
<title>RayTracer::PluginsExt::LimitedCylinder::LimitedCylinderCreator</title>
<polygon fill="white" stroke="transparent" points="-4,4 -4,-1170 843.73,-1170 843.73,4 -4,4"/>
<!-- Node1 -->
<g id="node1" class="node">
<title>Node1</title>
<g id="a_node1"><a xlink:title=" ">
<polygon fill="#bfbfbf" stroke="black" points="267.23,-0.5 267.23,-90.5 450.23,-90.5 450.23,-0.5 267.23,-0.5"/>
<text text-anchor="start" x="275.23" y="-78.5" font-family="Helvetica,sans-Serif" font-size="10.00">RayTracer::PluginsExt</text>
<text text-anchor="start" x="275.23" y="-67.5" font-family="Helvetica,sans-Serif" font-size="10.00">::LimitedCylinder::LimitedCylinder</text>
<text text-anchor="middle" x="358.73" y="-56.5" font-family="Helvetica,sans-Serif" font-size="10.00">Creator</text>
<polyline fill="none" stroke="black" points="267.23,-49.5 450.23,-49.5 "/>
<text text-anchor="middle" x="358.73" y="-37.5" font-family="Helvetica,sans-Serif" font-size="10.00"> </text>
<polyline fill="none" stroke="black" points="267.23,-30.5 450.23,-30.5 "/>
<text text-anchor="start" x="275.23" y="-18.5" font-family="Helvetica,sans-Serif" font-size="10.00">+ ~LimitedCylinderCreator()</text>
<text text-anchor="start" x="275.23" y="-7.5" font-family="Helvetica,sans-Serif" font-size="10.00">+ create()</text>
</a>
</g>
</g>
<!-- Node2 -->
<g id="node2" class="node">
<title>Node2</title>
<g id="a_node2"><a xlink:href="a01444.html" target="_top" xlink:title="The IEntityCreator.">
<polygon fill="white" stroke="black" points="276.23,-138.5 276.23,-217.5 409.23,-217.5 409.23,-138.5 276.23,-138.5"/>
<text text-anchor="start" x="284.23" y="-205.5" font-family="Helvetica,sans-Serif" font-size="10.00">RayTracer::Plugins</text>
<text text-anchor="middle" x="342.73" y="-194.5" font-family="Helvetica,sans-Serif" font-size="10.00">::Entities::IEntityCreator</text>
<polyline fill="none" stroke="black" points="276.23,-187.5 409.23,-187.5 "/>
<text text-anchor="middle" x="342.73" y="-175.5" font-family="Helvetica,sans-Serif" font-size="10.00"> </text>
<polyline fill="none" stroke="black" points="276.23,-168.5 409.23,-168.5 "/>
<text text-anchor="start" x="284.23" y="-156.5" font-family="Helvetica,sans-Serif" font-size="10.00">+ ~IEntityCreator()</text>
<text text-anchor="start" x="284.23" y="-145.5" font-family="Helvetica,sans-Serif" font-size="10.00">+ create()</text>
</a>
</g>
</g>
<!-- Node2&#45;&gt;Node1 -->
<g id="edge1" class="edge">
<title>Node2&#45;&gt;Node1</title>
<path fill="none" stroke="midnightblue" d="M348.72,-128.16C350.22,-115.93 351.82,-102.88 353.29,-90.88"/>
<polygon fill="none" stroke="midnightblue" points="345.23,-127.85 347.49,-138.2 352.18,-128.7 345.23,-127.85"/>
</g>
<!-- Node3 -->
<g id="node3" class="node">
<title>Node3</title>
<g id="a_node3"><a xlink:title=" ">
<polygon fill="white" stroke="#bfbfbf" points="427.23,-138.5 427.23,-217.5 584.23,-217.5 584.23,-138.5 427.23,-138.5"/>
<text text-anchor="start" x="435.23" y="-205.5" font-family="Helvetica,sans-Serif" font-size="10.00">std::vector&lt; RayTracer</text>
<text text-anchor="start" x="435.23" y="-194.5" font-family="Helvetica,sans-Serif" font-size="10.00">::PluginsExt::LimitedCylinder</text>
<text text-anchor="middle" x="505.73" y="-183.5" font-family="Helvetica,sans-Serif" font-size="10.00">::LimitedCylinderEntity * &gt;</text>
<polyline fill="none" stroke="#bfbfbf" points="427.23,-176.5 584.23,-176.5 "/>
<text text-anchor="middle" x="505.73" y="-164.5" font-family="Helvetica,sans-Serif" font-size="10.00"> </text>
<polyline fill="none" stroke="#bfbfbf" points="427.23,-157.5 584.23,-157.5 "/>
<text text-anchor="middle" x="505.73" y="-145.5" font-family="Helvetica,sans-Serif" font-size="10.00"> </text>
</a>
</g>
</g>
<!-- Node3&#45;&gt;Node1 -->
<g id="edge2" class="edge">
<title>Node3&#45;&gt;Node1</title>
<path fill="none" stroke="#404040" d="M462.03,-138.2C448.08,-125.82 432.41,-111.91 417.57,-98.73"/>
<polygon fill="none" stroke="#404040" points="417.43,-98.61 410.29,-97.62 408.46,-90.65 415.6,-91.64 417.43,-98.61"/>
<text text-anchor="middle" x="470.73" y="-112" font-family="Helvetica,sans-Serif" font-size="10.00"> &#45;_elements</text>
</g>
<!-- Node4 -->
<g id="node4" class="node">
<title>Node4</title>
<g id="a_node4"><a xlink:href="a01668.html" target="_top" xlink:title=" ">
<polygon fill="white" stroke="black" points="326.23,-287.5 326.23,-443.5 509.23,-443.5 509.23,-287.5 326.23,-287.5"/>
<text text-anchor="start" x="334.23" y="-431.5" font-family="Helvetica,sans-Serif" font-size="10.00">RayTracer::PluginsExt</text>
<text text-anchor="start" x="334.23" y="-420.5" font-family="Helvetica,sans-Serif" font-size="10.00">::LimitedCylinder::LimitedCylinder</text>
<text text-anchor="middle" x="417.73" y="-409.5" font-family="Helvetica,sans-Serif" font-size="10.00">Entity</text>
<polyline fill="none" stroke="black" points="326.23,-402.5 509.23,-402.5 "/>
<text text-anchor="middle" x="417.73" y="-390.5" font-family="Helvetica,sans-Serif" font-size="10.00"> </text>
<polyline fill="none" stroke="black" points="326.23,-383.5 509.23,-383.5 "/>
<text text-anchor="start" x="334.23" y="-371.5" font-family="Helvetica,sans-Serif" font-size="10.00">+ LimitedCylinderEntity()</text>
<text text-anchor="start" x="334.23" y="-360.5" font-family="Helvetica,sans-Serif" font-size="10.00">+ getType()</text>
<text text-anchor="start" x="334.23" y="-349.5" font-family="Helvetica,sans-Serif" font-size="10.00">+ getTransform()</text>
<text text-anchor="start" x="334.23" y="-338.5" font-family="Helvetica,sans-Serif" font-size="10.00">+ getTransform()</text>
<text text-anchor="start" x="334.23" y="-327.5" font-family="Helvetica,sans-Serif" font-size="10.00">+ isCollided()</text>
<text text-anchor="start" x="334.23" y="-316.5" font-family="Helvetica,sans-Serif" font-size="10.00">+ isCollided()</text>
<text text-anchor="start" x="334.23" y="-305.5" font-family="Helvetica,sans-Serif" font-size="10.00">+ getColor()</text>
<text text-anchor="start" x="334.23" y="-294.5" font-family="Helvetica,sans-Serif" font-size="10.00">+ redirectionLight()</text>
</a>
</g>
</g>
<!-- Node4&#45;&gt;Node3 -->
<g id="edge3" class="edge">
<title>Node4&#45;&gt;Node3</title>
<path fill="none" stroke="#404040" d="M451.64,-287.36C459.36,-270.36 467.68,-252.5 475.73,-236 476.91,-233.59 478.13,-231.13 479.37,-228.66"/>
<polygon fill="none" stroke="#404040" points="479.47,-228.47 478.63,-221.31 484.92,-217.78 485.76,-224.94 479.47,-228.47"/>
<text text-anchor="middle" x="504.73" y="-250" font-family="Helvetica,sans-Serif" font-size="10.00"> +elements</text>
</g>
<!-- Node5 -->
<g id="node5" class="node">
<title>Node5</title>
<g id="a_node5"><a xlink:href="a01316.html" target="_top" xlink:title="The IPrimitive class.">
<polygon fill="white" stroke="black" points="671.73,-508 671.73,-620 783.73,-620 783.73,-508 671.73,-508"/>
<text text-anchor="start" x="679.73" y="-608" font-family="Helvetica,sans-Serif" font-size="10.00">RayTracer::Entities</text>
<text text-anchor="middle" x="727.73" y="-597" font-family="Helvetica,sans-Serif" font-size="10.00">::IPrimitive</text>
<polyline fill="none" stroke="black" points="671.73,-590 783.73,-590 "/>
<text text-anchor="middle" x="727.73" y="-578" font-family="Helvetica,sans-Serif" font-size="10.00"> </text>
<polyline fill="none" stroke="black" points="671.73,-571 783.73,-571 "/>
<text text-anchor="start" x="679.73" y="-559" font-family="Helvetica,sans-Serif" font-size="10.00">+ ~IPrimitive()</text>
<text text-anchor="start" x="679.73" y="-548" font-family="Helvetica,sans-Serif" font-size="10.00">+ getColor()</text>
<text text-anchor="start" x="679.73" y="-537" font-family="Helvetica,sans-Serif" font-size="10.00">+ isCollided()</text>
<text text-anchor="start" x="679.73" y="-526" font-family="Helvetica,sans-Serif" font-size="10.00">+ isCollided()</text>
<text text-anchor="start" x="679.73" y="-515" font-family="Helvetica,sans-Serif" font-size="10.00">+ redirectionLight()</text>
</a>
</g>
</g>
<!-- Node5&#45;&gt;Node4 -->
<g id="edge4" class="edge">
<title>Node5&#45;&gt;Node4</title>
<path fill="none" stroke="midnightblue" d="M674.53,-500.86C670.67,-497.38 666.73,-494.06 662.73,-491 616.04,-455.26 557.52,-425.07 509.38,-403.38"/>
<polygon fill="none" stroke="midnightblue" points="672.14,-503.43 681.82,-507.74 676.94,-498.33 672.14,-503.43"/>
</g>
<!-- Node6 -->
<g id="node6" class="node">
<title>Node6</title>
<g id="a_node6"><a xlink:href="a01304.html" target="_top" xlink:title="The IEntity class.">
<polygon fill="white" stroke="black" points="674.23,-822 674.23,-923 781.23,-923 781.23,-822 674.23,-822"/>
<text text-anchor="start" x="682.23" y="-911" font-family="Helvetica,sans-Serif" font-size="10.00">RayTracer::Entities</text>
<text text-anchor="middle" x="727.73" y="-900" font-family="Helvetica,sans-Serif" font-size="10.00">::IEntity</text>
<polyline fill="none" stroke="black" points="674.23,-893 781.23,-893 "/>
<text text-anchor="middle" x="727.73" y="-881" font-family="Helvetica,sans-Serif" font-size="10.00"> </text>
<polyline fill="none" stroke="black" points="674.23,-874 781.23,-874 "/>
<text text-anchor="start" x="682.23" y="-862" font-family="Helvetica,sans-Serif" font-size="10.00">+ ~IEntity()</text>
<text text-anchor="start" x="682.23" y="-851" font-family="Helvetica,sans-Serif" font-size="10.00">+ getTransform()</text>
<text text-anchor="start" x="682.23" y="-840" font-family="Helvetica,sans-Serif" font-size="10.00">+ getTransform()</text>
<text text-anchor="start" x="682.23" y="-829" font-family="Helvetica,sans-Serif" font-size="10.00">+ getType()</text>
</a>
</g>
</g>
<!-- Node6&#45;&gt;Node5 -->
<g id="edge5" class="edge">
<title>Node6&#45;&gt;Node5</title>
<path fill="none" stroke="midnightblue" d="M727.73,-811.87C727.73,-756.35 727.73,-674.26 727.73,-620.22"/>
<polygon fill="none" stroke="midnightblue" points="724.23,-811.91 727.73,-821.91 731.23,-811.91 724.23,-811.91"/>
</g>
<!-- Node7 -->
<g id="node7" class="node">
<title>Node7</title>
<g id="a_node7"><a xlink:href="a01324.html" target="_top" xlink:title="The Transform class.">
<polygon fill="white" stroke="black" points="100.73,-491.5 100.73,-636.5 226.73,-636.5 226.73,-491.5 100.73,-491.5"/>
<text text-anchor="start" x="108.73" y="-624.5" font-family="Helvetica,sans-Serif" font-size="10.00">RayTracer::Entities</text>
<text text-anchor="middle" x="163.73" y="-613.5" font-family="Helvetica,sans-Serif" font-size="10.00">::Transform::Transform</text>
<polyline fill="none" stroke="black" points="100.73,-606.5 226.73,-606.5 "/>
<text text-anchor="middle" x="163.73" y="-594.5" font-family="Helvetica,sans-Serif" font-size="10.00"> </text>
<polyline fill="none" stroke="black" points="100.73,-587.5 226.73,-587.5 "/>
<text text-anchor="start" x="108.73" y="-575.5" font-family="Helvetica,sans-Serif" font-size="10.00">+ Transform()</text>
<text text-anchor="start" x="108.73" y="-564.5" font-family="Helvetica,sans-Serif" font-size="10.00">+ setPosition()</text>
<text text-anchor="start" x="108.73" y="-553.5" font-family="Helvetica,sans-Serif" font-size="10.00">+ getPosition()</text>
<text text-anchor="start" x="108.73" y="-542.5" font-family="Helvetica,sans-Serif" font-size="10.00">+ setRotation()</text>
<text text-anchor="start" x="108.73" y="-531.5" font-family="Helvetica,sans-Serif" font-size="10.00">+ getRotation()</text>
<text text-anchor="start" x="108.73" y="-520.5" font-family="Helvetica,sans-Serif" font-size="10.00">+ setScale()</text>
<text text-anchor="start" x="108.73" y="-509.5" font-family="Helvetica,sans-Serif" font-size="10.00">+ getScale()</text>
<text text-anchor="start" x="108.73" y="-498.5" font-family="Helvetica,sans-Serif" font-size="10.00">+ operator=()</text>
</a>
</g>
</g>
<!-- Node7&#45;&gt;Node4 -->
<g id="edge6" class="edge">
<title>Node7&#45;&gt;Node4</title>
<path fill="none" stroke="#404040" d="M171.8,-491.3C175.43,-480.65 180.55,-470.44 187.73,-462 219.96,-424.14 269.64,-401.03 314.59,-387.05"/>
<polygon fill="none" stroke="#404040" points="314.71,-387.01 319.32,-381.47 326.21,-383.6 321.6,-389.14 314.71,-387.01"/>
<text text-anchor="middle" x="218.23" y="-465" font-family="Helvetica,sans-Serif" font-size="10.00"> &#45;_transform</text>
</g>
<!-- Node8 -->
<g id="node8" class="node">
<title>Node8</title>
<g id="a_node8"><a xlink:href="a01320.html" target="_top" xlink:title="The ITransform class.">
<polygon fill="white" stroke="black" points="67.23,-800 67.23,-945 196.23,-945 196.23,-800 67.23,-800"/>
<text text-anchor="start" x="75.23" y="-933" font-family="Helvetica,sans-Serif" font-size="10.00">RayTracer::Entities</text>
<text text-anchor="middle" x="131.73" y="-922" font-family="Helvetica,sans-Serif" font-size="10.00">::Transform::ITransform</text>
<polyline fill="none" stroke="black" points="67.23,-915 196.23,-915 "/>
<text text-anchor="middle" x="131.73" y="-903" font-family="Helvetica,sans-Serif" font-size="10.00"> </text>
<polyline fill="none" stroke="black" points="67.23,-896 196.23,-896 "/>
<text text-anchor="start" x="75.23" y="-884" font-family="Helvetica,sans-Serif" font-size="10.00">+ ~ITransform()</text>
<text text-anchor="start" x="75.23" y="-873" font-family="Helvetica,sans-Serif" font-size="10.00">+ setPosition()</text>
<text text-anchor="start" x="75.23" y="-862" font-family="Helvetica,sans-Serif" font-size="10.00">+ getPosition()</text>
<text text-anchor="start" x="75.23" y="-851" font-family="Helvetica,sans-Serif" font-size="10.00">+ setRotation()</text>
<text text-anchor="start" x="75.23" y="-840" font-family="Helvetica,sans-Serif" font-size="10.00">+ getRotation()</text>
<text text-anchor="start" x="75.23" y="-829" font-family="Helvetica,sans-Serif" font-size="10.00">+ setScale()</text>
<text text-anchor="start" x="75.23" y="-818" font-family="Helvetica,sans-Serif" font-size="10.00">+ getScale()</text>
<text text-anchor="start" x="75.23" y="-807" font-family="Helvetica,sans-Serif" font-size="10.00">+ operator=()</text>
</a>
</g>
</g>
<!-- Node8&#45;&gt;Node7 -->
<g id="edge7" class="edge">
<title>Node8&#45;&gt;Node7</title>
<path fill="none" stroke="midnightblue" d="M140.28,-789.66C145.25,-742 151.47,-682.48 156.25,-636.68"/>
<polygon fill="none" stroke="midnightblue" points="136.79,-789.33 139.23,-799.64 143.75,-790.06 136.79,-789.33"/>
</g>
<!-- Node9 -->
<g id="node9" class="node">
<title>Node9</title>
<g id="a_node9"><a xlink:href="a01332.html" target="_top" xlink:title="The Vector3f class.">
<polygon fill="white" stroke="black" points="214.73,-706.5 214.73,-1038.5 332.73,-1038.5 332.73,-706.5 214.73,-706.5"/>
<text text-anchor="start" x="222.73" y="-1026.5" font-family="Helvetica,sans-Serif" font-size="10.00">RayTracer::Entities</text>
<text text-anchor="middle" x="273.73" y="-1015.5" font-family="Helvetica,sans-Serif" font-size="10.00">::Transform::Vector3f</text>
<polyline fill="none" stroke="black" points="214.73,-1008.5 332.73,-1008.5 "/>
<text text-anchor="middle" x="273.73" y="-996.5" font-family="Helvetica,sans-Serif" font-size="10.00"> </text>
<polyline fill="none" stroke="black" points="214.73,-989.5 332.73,-989.5 "/>
<text text-anchor="start" x="222.73" y="-977.5" font-family="Helvetica,sans-Serif" font-size="10.00">+ ~Vector3f()</text>
<text text-anchor="start" x="222.73" y="-966.5" font-family="Helvetica,sans-Serif" font-size="10.00">+ Vector3f()</text>
<text text-anchor="start" x="222.73" y="-955.5" font-family="Helvetica,sans-Serif" font-size="10.00">+ Vector3f()</text>
<text text-anchor="start" x="222.73" y="-944.5" font-family="Helvetica,sans-Serif" font-size="10.00">+ Vector3f()</text>
<text text-anchor="start" x="222.73" y="-933.5" font-family="Helvetica,sans-Serif" font-size="10.00">+ Vector3f()</text>
<text text-anchor="start" x="222.73" y="-922.5" font-family="Helvetica,sans-Serif" font-size="10.00">+ operator+()</text>
<text text-anchor="start" x="222.73" y="-911.5" font-family="Helvetica,sans-Serif" font-size="10.00">+ operator&#45;()</text>
<text text-anchor="start" x="222.73" y="-900.5" font-family="Helvetica,sans-Serif" font-size="10.00">+ operator*()</text>
<text text-anchor="start" x="222.73" y="-889.5" font-family="Helvetica,sans-Serif" font-size="10.00">+ operator/()</text>
<text text-anchor="start" x="222.73" y="-878.5" font-family="Helvetica,sans-Serif" font-size="10.00">+ operator=()</text>
<text text-anchor="start" x="222.73" y="-867.5" font-family="Helvetica,sans-Serif" font-size="10.00">+ getX()</text>
<text text-anchor="start" x="222.73" y="-856.5" font-family="Helvetica,sans-Serif" font-size="10.00">+ getY()</text>
<text text-anchor="start" x="222.73" y="-845.5" font-family="Helvetica,sans-Serif" font-size="10.00">+ getZ()</text>
<text text-anchor="start" x="222.73" y="-834.5" font-family="Helvetica,sans-Serif" font-size="10.00">+ getNorm()</text>
<text text-anchor="start" x="222.73" y="-823.5" font-family="Helvetica,sans-Serif" font-size="10.00">+ getNormalized()</text>
<text text-anchor="start" x="222.73" y="-812.5" font-family="Helvetica,sans-Serif" font-size="10.00">+ getCrossed()</text>
<text text-anchor="start" x="222.73" y="-801.5" font-family="Helvetica,sans-Serif" font-size="10.00">+ dot()</text>
<text text-anchor="start" x="222.73" y="-790.5" font-family="Helvetica,sans-Serif" font-size="10.00">+ getDistance()</text>
<text text-anchor="start" x="222.73" y="-779.5" font-family="Helvetica,sans-Serif" font-size="10.00">+ toDegrees()</text>
<text text-anchor="start" x="222.73" y="-768.5" font-family="Helvetica,sans-Serif" font-size="10.00">+ toRadians()</text>
<text text-anchor="start" x="222.73" y="-757.5" font-family="Helvetica,sans-Serif" font-size="10.00">+ rotateVector()</text>
<text text-anchor="start" x="222.73" y="-746.5" font-family="Helvetica,sans-Serif" font-size="10.00">+ getAngle()</text>
<text text-anchor="start" x="222.73" y="-735.5" font-family="Helvetica,sans-Serif" font-size="10.00">+ rotateX()</text>
<text text-anchor="start" x="222.73" y="-724.5" font-family="Helvetica,sans-Serif" font-size="10.00">+ rotateY()</text>
<text text-anchor="start" x="222.73" y="-713.5" font-family="Helvetica,sans-Serif" font-size="10.00">+ rotateZ()</text>
</a>
</g>
</g>
<!-- Node9&#45;&gt;Node4 -->
<g id="edge11" class="edge">
<title>Node9&#45;&gt;Node4</title>
<path fill="none" stroke="#404040" d="M259.23,-706.28C254.51,-621.74 254.28,-528.83 271.73,-491 282.05,-468.65 298.58,-448.82 316.87,-431.93"/>
<polygon fill="none" stroke="#404040" points="316.99,-431.83 318.83,-424.86 325.97,-423.88 324.13,-430.85 316.99,-431.83"/>
<text text-anchor="middle" x="299.23" y="-561.5" font-family="Helvetica,sans-Serif" font-size="10.00"> &#45;_direction</text>
</g>
<!-- Node9&#45;&gt;Node7 -->
<g id="edge8" class="edge">
<title>Node9&#45;&gt;Node7</title>
<path fill="none" stroke="#404040" d="M214.66,-729.22C211.32,-721.36 207.99,-713.58 204.73,-706 201.27,-697.96 199.65,-696.25 196.73,-688 192.25,-675.35 188.04,-661.77 184.23,-648.43"/>
<polygon fill="none" stroke="#404040" points="184.2,-648.36 178.74,-643.65 180.97,-636.8 186.44,-641.5 184.2,-648.36"/>
<text text-anchor="middle" x="222.73" y="-680" font-family="Helvetica,sans-Serif" font-size="10.00"> &#45;_position</text>
<text text-anchor="middle" x="222.73" y="-669" font-family="Helvetica,sans-Serif" font-size="10.00">&#45;_rotation</text>
<text text-anchor="middle" x="222.73" y="-658" font-family="Helvetica,sans-Serif" font-size="10.00">&#45;_scale</text>
</g>
<!-- Node10 -->
<g id="node10" class="node">
<title>Node10</title>
<g id="a_node10"><a xlink:title=" ">
<polygon fill="white" stroke="#bfbfbf" points="29.73,-1108.5 29.73,-1165.5 79.73,-1165.5 79.73,-1108.5 29.73,-1108.5"/>
<text text-anchor="middle" x="54.73" y="-1153.5" font-family="Helvetica,sans-Serif" font-size="10.00">double</text>
<polyline fill="none" stroke="#bfbfbf" points="29.73,-1146.5 79.73,-1146.5 "/>
<text text-anchor="middle" x="54.73" y="-1134.5" font-family="Helvetica,sans-Serif" font-size="10.00"> </text>
<polyline fill="none" stroke="#bfbfbf" points="29.73,-1127.5 79.73,-1127.5 "/>
<text text-anchor="middle" x="54.73" y="-1115.5" font-family="Helvetica,sans-Serif" font-size="10.00"> </text>
</a>
</g>
</g>
<!-- Node10&#45;&gt;Node4 -->
<g id="edge10" class="edge">
<title>Node10&#45;&gt;Node4</title>
<path fill="none" stroke="#404040" d="M46.28,-1108.48C18.25,-1011.28 -61.4,-679.82 91.73,-491 146.05,-424.03 240.73,-393.04 314.11,-378.73"/>
<polygon fill="none" stroke="#404040" points="314.36,-378.68 319.53,-373.65 326.16,-376.49 320.99,-381.52 314.36,-378.68"/>
<text text-anchor="middle" x="37.23" y="-674.5" font-family="Helvetica,sans-Serif" font-size="10.00"> &#45;_height</text>
<text text-anchor="middle" x="37.23" y="-663.5" font-family="Helvetica,sans-Serif" font-size="10.00">&#45;_radius</text>
</g>
<!-- Node10&#45;&gt;Node9 -->
<g id="edge9" class="edge">
<title>Node10&#45;&gt;Node9</title>
<path fill="none" stroke="#404040" d="M79.83,-1125.52C112.62,-1110.69 169.94,-1080.65 204.73,-1039 205.58,-1037.98 206.42,-1036.96 207.25,-1035.92"/>
<polygon fill="none" stroke="#404040" points="207.27,-1035.89 207.68,-1028.69 214.48,-1026.29 214.07,-1033.49 207.27,-1035.89"/>
<text text-anchor="middle" x="194.23" y="-1082" font-family="Helvetica,sans-Serif" font-size="10.00"> &#45;_x</text>
<text text-anchor="middle" x="194.23" y="-1071" font-family="Helvetica,sans-Serif" font-size="10.00">&#45;_y</text>
<text text-anchor="middle" x="194.23" y="-1060" font-family="Helvetica,sans-Serif" font-size="10.00">&#45;_z</text>
</g>
<!-- Node11 -->
<g id="node11" class="node">
<title>Node11</title>
<g id="a_node11"><a xlink:title=" ">
<polygon fill="white" stroke="#bfbfbf" points="335.73,-524.5 335.73,-603.5 499.73,-603.5 499.73,-524.5 335.73,-524.5"/>
<text text-anchor="start" x="343.73" y="-591.5" font-family="Helvetica,sans-Serif" font-size="10.00">optional&lt; std::reference</text>
<text text-anchor="start" x="343.73" y="-580.5" font-family="Helvetica,sans-Serif" font-size="10.00">_wrapper&lt; RayTracer::Entities</text>
<text text-anchor="middle" x="417.73" y="-569.5" font-family="Helvetica,sans-Serif" font-size="10.00">::IMaterial &gt; &gt;</text>
<polyline fill="none" stroke="#bfbfbf" points="335.73,-562.5 499.73,-562.5 "/>
<text text-anchor="middle" x="417.73" y="-550.5" font-family="Helvetica,sans-Serif" font-size="10.00"> </text>
<polyline fill="none" stroke="#bfbfbf" points="335.73,-543.5 499.73,-543.5 "/>
<text text-anchor="middle" x="417.73" y="-531.5" font-family="Helvetica,sans-Serif" font-size="10.00"> </text>
</a>
</g>
</g>
<!-- Node11&#45;&gt;Node4 -->
<g id="edge12" class="edge">
<title>Node11&#45;&gt;Node4</title>
<path fill="none" stroke="#404040" d="M417.73,-524.18C417.73,-504.56 417.73,-479.89 417.73,-455.92"/>
<polygon fill="none" stroke="#404040" points="417.73,-455.86 413.73,-449.86 417.73,-443.86 421.73,-449.86 417.73,-455.86"/>
<text text-anchor="middle" x="444.73" y="-465" font-family="Helvetica,sans-Serif" font-size="10.00"> &#45;_material</text>
</g>
<!-- Node12 -->
<g id="node12" class="node">
<title>Node12</title>
<g id="a_node12"><a xlink:href="a01368.html" target="_top" xlink:title="Logger singleton.">
<polygon fill="white" stroke="black" points="517.73,-491.5 517.73,-636.5 653.73,-636.5 653.73,-491.5 517.73,-491.5"/>
<text text-anchor="middle" x="585.73" y="-624.5" font-family="Helvetica,sans-Serif" font-size="10.00">RayTracer::ILogger</text>
<polyline fill="none" stroke="black" points="517.73,-617.5 653.73,-617.5 "/>
<text text-anchor="middle" x="585.73" y="-605.5" font-family="Helvetica,sans-Serif" font-size="10.00"> </text>
<polyline fill="none" stroke="black" points="517.73,-598.5 653.73,-598.5 "/>
<text text-anchor="start" x="525.73" y="-586.5" font-family="Helvetica,sans-Serif" font-size="10.00">+ ~ILogger()</text>
<text text-anchor="start" x="525.73" y="-575.5" font-family="Helvetica,sans-Serif" font-size="10.00">+ fatal()</text>
<text text-anchor="start" x="525.73" y="-564.5" font-family="Helvetica,sans-Serif" font-size="10.00">+ error()</text>
<text text-anchor="start" x="525.73" y="-553.5" font-family="Helvetica,sans-Serif" font-size="10.00">+ warn()</text>
<text text-anchor="start" x="525.73" y="-542.5" font-family="Helvetica,sans-Serif" font-size="10.00">+ info()</text>
<text text-anchor="start" x="525.73" y="-531.5" font-family="Helvetica,sans-Serif" font-size="10.00">+ debug()</text>
<text text-anchor="start" x="525.73" y="-520.5" font-family="Helvetica,sans-Serif" font-size="10.00">+ trace()</text>
<text text-anchor="start" x="525.73" y="-509.5" font-family="Helvetica,sans-Serif" font-size="10.00">+ subscribeCallback()</text>
<text text-anchor="start" x="525.73" y="-498.5" font-family="Helvetica,sans-Serif" font-size="10.00">+ unsubscribeCallback()</text>
</a>
</g>
</g>
<!-- Node12&#45;&gt;Node4 -->
<g id="edge13" class="edge">
<title>Node12&#45;&gt;Node4</title>
<path fill="none" stroke="#404040" d="M524.37,-491.22C513.73,-478.79 502.57,-465.73 491.65,-452.95"/>
<polygon fill="none" stroke="#404040" points="491.54,-452.83 484.6,-450.87 483.74,-443.71 490.68,-445.67 491.54,-452.83"/>
<text text-anchor="middle" x="529.23" y="-465" font-family="Helvetica,sans-Serif" font-size="10.00"> &#45;_logger</text>
</g>
<!-- Node13 -->
<g id="node13" class="node">
<title>Node13</title>
<g id="a_node13"><a xlink:title=" ">
<polygon fill="white" stroke="#bfbfbf" points="647.23,-337 647.23,-394 744.23,-394 744.23,-337 647.23,-337"/>
<text text-anchor="middle" x="695.73" y="-382" font-family="Helvetica,sans-Serif" font-size="10.00">std::vector&lt; T &gt;</text>
<polyline fill="none" stroke="#bfbfbf" points="647.23,-375 744.23,-375 "/>
<text text-anchor="middle" x="695.73" y="-363" font-family="Helvetica,sans-Serif" font-size="10.00"> </text>
<polyline fill="none" stroke="#bfbfbf" points="647.23,-356 744.23,-356 "/>
<text text-anchor="middle" x="695.73" y="-344" font-family="Helvetica,sans-Serif" font-size="10.00"> </text>
</a>
</g>
</g>
<!-- Node13&#45;&gt;Node3 -->
<g id="edge14" class="edge">
<title>Node13&#45;&gt;Node3</title>
<path fill="none" stroke="orange" d="M659.74,-329.37C627.09,-297.48 579.02,-250.55 545.29,-217.62"/>
<polygon fill="orange" stroke="orange" points="657.69,-332.25 667.29,-336.73 662.58,-327.24 657.69,-332.25"/>
<text text-anchor="start" x="595.73" y="-261" font-family="Helvetica,sans-Serif" font-size="10.00"> &lt; RayTracer::PluginsExt</text>
<text text-anchor="start" x="595.73" y="-250" font-family="Helvetica,sans-Serif" font-size="10.00">::LimitedCylinder::LimitedCylinder</text>
<text text-anchor="middle" x="679.23" y="-239" font-family="Helvetica,sans-Serif" font-size="10.00">Entity * &gt;</text>
</g>
<!-- Node14 -->
<g id="node14" class="node">
<title>Node14</title>
<g id="a_node14"><a xlink:title=" ">
<polygon fill="white" stroke="#bfbfbf" points="802.23,-535.5 802.23,-592.5 831.23,-592.5 831.23,-535.5 802.23,-535.5"/>
<text text-anchor="middle" x="816.73" y="-580.5" font-family="Helvetica,sans-Serif" font-size="10.00">T</text>
<polyline fill="none" stroke="#bfbfbf" points="802.23,-573.5 831.23,-573.5 "/>
<text text-anchor="middle" x="816.73" y="-561.5" font-family="Helvetica,sans-Serif" font-size="10.00"> </text>
<polyline fill="none" stroke="#bfbfbf" points="802.23,-554.5 831.23,-554.5 "/>
<text text-anchor="middle" x="816.73" y="-542.5" font-family="Helvetica,sans-Serif" font-size="10.00"> </text>
</a>
</g>
</g>
<!-- Node14&#45;&gt;Node13 -->
<g id="edge15" class="edge">
<title>Node14&#45;&gt;Node13</title>
<path fill="none" stroke="#404040" d="M809.93,-535.43C805.94,-521.63 800.2,-504.94 792.73,-491 775.67,-459.16 750.46,-427.09 730.01,-403.48"/>
<polygon fill="none" stroke="#404040" points="729.8,-403.23 722.83,-401.37 721.87,-394.22 728.84,-396.09 729.8,-403.23"/>
<text text-anchor="middle" x="810.73" y="-465" font-family="Helvetica,sans-Serif" font-size="10.00"> +elements</text>
</g>
</g>
</svg>
