<?xml version="1.0" encoding="UTF-8" standalone="no"?>
<!DOCTYPE svg PUBLIC "-//W3C//DTD SVG 1.1//EN"
 "http://www.w3.org/Graphics/SVG/1.1/DTD/svg11.dtd">
<!-- Generated by graphviz version 2.43.0 (0)
 -->
<!-- Title: RayTracer::PluginsExt::Obj::ObjEntity Pages: 1 -->
<svg width="136pt" height="518pt"
 viewBox="0.00 0.00 136.00 518.00" xmlns="http://www.w3.org/2000/svg" xmlns:xlink="http://www.w3.org/1999/xlink">
<g id="graph0" class="graph" transform="scale(1 1) rotate(0) translate(4 514)">
<title>RayTracer::PluginsExt::Obj::ObjEntity</title>
<polygon fill="white" stroke="transparent" points="-4,4 -4,-514 132,-514 132,4 -4,4"/>
<!-- Node1 -->
<g id="node1" class="node">
<title>Node1</title>
<g id="a_node1"><a xlink:title=" ">
<polygon fill="#bfbfbf" stroke="black" points="0,-0.5 0,-222.5 128,-222.5 128,-0.5 0,-0.5"/>
<text text-anchor="start" x="8" y="-210.5" font-family="Helvetica,sans-Serif" font-size="10.00">RayTracer::PluginsExt</text>
<text text-anchor="middle" x="64" y="-199.5" font-family="Helvetica,sans-Serif" font-size="10.00">::Obj::ObjEntity</text>
<polyline fill="none" stroke="black" points="0,-192.5 128,-192.5 "/>
<text text-anchor="start" x="8" y="-180.5" font-family="Helvetica,sans-Serif" font-size="10.00">&#45; _transform</text>
<text text-anchor="start" x="8" y="-169.5" font-family="Helvetica,sans-Serif" font-size="10.00">&#45; _material</text>
<text text-anchor="start" x="8" y="-158.5" font-family="Helvetica,sans-Serif" font-size="10.00">&#45; _pointList</text>
<text text-anchor="start" x="8" y="-147.5" font-family="Helvetica,sans-Serif" font-size="10.00">&#45; _normalList</text>
<text text-anchor="start" x="8" y="-136.5" font-family="Helvetica,sans-Serif" font-size="10.00">&#45; _faceList</text>
<text text-anchor="start" x="8" y="-125.5" font-family="Helvetica,sans-Serif" font-size="10.00">&#45; _triangleList</text>
<text text-anchor="start" x="8" y="-114.5" font-family="Helvetica,sans-Serif" font-size="10.00">&#45; _logger</text>
<polyline fill="none" stroke="black" points="0,-107.5 128,-107.5 "/>
<text text-anchor="start" x="8" y="-95.5" font-family="Helvetica,sans-Serif" font-size="10.00">+ ObjEntity()</text>
<text text-anchor="start" x="8" y="-84.5" font-family="Helvetica,sans-Serif" font-size="10.00">+ triangulatePolygon()</text>
<text text-anchor="start" x="8" y="-73.5" font-family="Helvetica,sans-Serif" font-size="10.00">+ getType()</text>
<text text-anchor="start" x="8" y="-62.5" font-family="Helvetica,sans-Serif" font-size="10.00">+ getTransform()</text>
<text text-anchor="start" x="8" y="-51.5" font-family="Helvetica,sans-Serif" font-size="10.00">+ getTransform()</text>
<text text-anchor="start" x="8" y="-40.5" font-family="Helvetica,sans-Serif" font-size="10.00">+ isCollided()</text>
<text text-anchor="start" x="8" y="-29.5" font-family="Helvetica,sans-Serif" font-size="10.00">+ isCollided()</text>
<text text-anchor="start" x="8" y="-18.5" font-family="Helvetica,sans-Serif" font-size="10.00">+ getColor()</text>
<text text-anchor="start" x="8" y="-7.5" font-family="Helvetica,sans-Serif" font-size="10.00">+ redirectionLight()</text>
</a>
</g>
</g>
<!-- Node2 -->
<g id="node2" class="node">
<title>Node2</title>
<g id="a_node2"><a xlink:href="a01326.html" target="_top" xlink:title="The IPrimitive class.">
<polygon fill="white" stroke="black" points="8,-259.5 8,-371.5 120,-371.5 120,-259.5 8,-259.5"/>
<text text-anchor="start" x="16" y="-359.5" font-family="Helvetica,sans-Serif" font-size="10.00">RayTracer::Entities</text>
<text text-anchor="middle" x="64" y="-348.5" font-family="Helvetica,sans-Serif" font-size="10.00">::IPrimitive</text>
<polyline fill="none" stroke="black" points="8,-341.5 120,-341.5 "/>
<text text-anchor="middle" x="64" y="-329.5" font-family="Helvetica,sans-Serif" font-size="10.00"> </text>
<polyline fill="none" stroke="black" points="8,-322.5 120,-322.5 "/>
<text text-anchor="start" x="16" y="-310.5" font-family="Helvetica,sans-Serif" font-size="10.00">+ ~IPrimitive()</text>
<text text-anchor="start" x="16" y="-299.5" font-family="Helvetica,sans-Serif" font-size="10.00">+ getColor()</text>
<text text-anchor="start" x="16" y="-288.5" font-family="Helvetica,sans-Serif" font-size="10.00">+ isCollided()</text>
<text text-anchor="start" x="16" y="-277.5" font-family="Helvetica,sans-Serif" font-size="10.00">+ isCollided()</text>
<text text-anchor="start" x="16" y="-266.5" font-family="Helvetica,sans-Serif" font-size="10.00">+ redirectionLight()</text>
</a>
</g>
</g>
<!-- Node2&#45;&gt;Node1 -->
<g id="edge1" class="edge">
<title>Node2&#45;&gt;Node1</title>
<path fill="none" stroke="midnightblue" d="M64,-249.14C64,-240.64 64,-231.76 64,-222.77"/>
<polygon fill="none" stroke="midnightblue" points="60.5,-249.3 64,-259.3 67.5,-249.3 60.5,-249.3"/>
</g>
<!-- Node3 -->
<g id="node3" class="node">
<title>Node3</title>
<g id="a_node3"><a xlink:href="a01314.html" target="_top" xlink:title="The IEntity class.">
<polygon fill="white" stroke="black" points="10.5,-408.5 10.5,-509.5 117.5,-509.5 117.5,-408.5 10.5,-408.5"/>
<text text-anchor="start" x="18.5" y="-497.5" font-family="Helvetica,sans-Serif" font-size="10.00">RayTracer::Entities</text>
<text text-anchor="middle" x="64" y="-486.5" font-family="Helvetica,sans-Serif" font-size="10.00">::IEntity</text>
<polyline fill="none" stroke="black" points="10.5,-479.5 117.5,-479.5 "/>
<text text-anchor="middle" x="64" y="-467.5" font-family="Helvetica,sans-Serif" font-size="10.00"> </text>
<polyline fill="none" stroke="black" points="10.5,-460.5 117.5,-460.5 "/>
<text text-anchor="start" x="18.5" y="-448.5" font-family="Helvetica,sans-Serif" font-size="10.00">+ ~IEntity()</text>
<text text-anchor="start" x="18.5" y="-437.5" font-family="Helvetica,sans-Serif" font-size="10.00">+ getTransform()</text>
<text text-anchor="start" x="18.5" y="-426.5" font-family="Helvetica,sans-Serif" font-size="10.00">+ getTransform()</text>
<text text-anchor="start" x="18.5" y="-415.5" font-family="Helvetica,sans-Serif" font-size="10.00">+ getType()</text>
</a>
</g>
</g>
<!-- Node3&#45;&gt;Node2 -->
<g id="edge2" class="edge">
<title>Node3&#45;&gt;Node2</title>
<path fill="none" stroke="midnightblue" d="M64,-398.01C64,-389.29 64,-380.34 64,-371.72"/>
<polygon fill="none" stroke="midnightblue" points="60.5,-398.11 64,-408.11 67.5,-398.11 60.5,-398.11"/>
</g>
</g>
</svg>
