<?xml version="1.0" encoding="UTF-8" standalone="no"?>
<!DOCTYPE svg PUBLIC "-//W3C//DTD SVG 1.1//EN"
 "http://www.w3.org/Graphics/SVG/1.1/DTD/svg11.dtd">
<!-- Generated by graphviz version 2.43.0 (0)
 -->
<!-- Title: /home/runner/work/Raytracer/Raytracer/PluginsExt/ChessBoardMaterial Pages: 1 -->
<svg width="156pt" height="151pt"
 viewBox="0.00 0.00 156.00 151.00" xmlns="http://www.w3.org/2000/svg" xmlns:xlink="http://www.w3.org/1999/xlink">
<g id="graph0" class="graph" transform="scale(1 1) rotate(0) translate(4 147)">
<title>/home/runner/work/Raytracer/Raytracer/PluginsExt/ChessBoardMaterial</title>
<polygon fill="white" stroke="transparent" points="-4,4 -4,-147 152,-147 152,4 -4,4"/>
<g id="clust1" class="cluster">
<title>clusterdir_4b314500dd3730d1ba9f053c438de308</title>
<g id="a_clust1"><a xlink:href="dir_4b314500dd3730d1ba9f053c438de308.html" target="_top" xlink:title="PluginsExt">
<polygon fill="#ddddee" stroke="black" points="8,-64 8,-135 140,-135 140,-64 8,-64"/>
<text text-anchor="middle" x="74" y="-123" font-family="Helvetica,sans-Serif" font-size="10.00">PluginsExt</text>
</a>
</g>
</g>
<!-- dir_616a73672332529d3731a9ebd7c994a8 -->
<g id="node1" class="node">
<title>dir_616a73672332529d3731a9ebd7c994a8</title>
<g id="a_node1"><a xlink:href="dir_616a73672332529d3731a9ebd7c994a8.html" target="_top" xlink:title="ChessBoardMaterial">
<polygon fill="#eeeeff" stroke="black" points="131.5,-108 16.5,-108 16.5,-72 131.5,-72 131.5,-108"/>
<text text-anchor="middle" x="74" y="-87.5" font-family="Helvetica,sans-Serif" font-size="10.00">ChessBoardMaterial</text>
</a>
</g>
</g>
<!-- dir_68267d1309a1af8e8297ef4c3efbcdba -->
<g id="node2" class="node">
<title>dir_68267d1309a1af8e8297ef4c3efbcdba</title>
<g id="a_node2"><a xlink:href="dir_68267d1309a1af8e8297ef4c3efbcdba.html" target="_top" xlink:title="src">
<polygon fill="white" stroke="red" points="101,-36 47,-36 47,0 101,0 101,-36"/>
<text text-anchor="middle" x="74" y="-15.5" font-family="Helvetica,sans-Serif" font-size="10.00">src</text>
</a>
</g>
</g>
<!-- dir_616a73672332529d3731a9ebd7c994a8&#45;&gt;dir_68267d1309a1af8e8297ef4c3efbcdba -->
<g id="edge1" class="edge">
<title>dir_616a73672332529d3731a9ebd7c994a8&#45;&gt;dir_68267d1309a1af8e8297ef4c3efbcdba</title>
<path fill="none" stroke="black" d="M74,-71.7C74,-63.98 74,-54.71 74,-46.11"/>
<polygon fill="black" stroke="black" points="77.5,-46.1 74,-36.1 70.5,-46.1 77.5,-46.1"/>
<g id="a_edge1&#45;headlabel"><a xlink:href="dir_000009_000025.html" target="_top" xlink:title="8">
<text text-anchor="middle" x="80.34" y="-47.2" font-family="Helvetica,sans-Serif" font-size="10.00">8</text>
</a>
</g>
</g>
</g>
</svg>
