<?xml version="1.0" encoding="UTF-8" standalone="no"?>
<!DOCTYPE svg PUBLIC "-//W3C//DTD SVG 1.1//EN"
 "http://www.w3.org/Graphics/SVG/1.1/DTD/svg11.dtd">
<!-- Generated by graphviz version 2.43.0 (0)
 -->
<!-- Title: /home/runner/work/Raytracer/Raytracer/PluginsExt/AntiAliasing/SSAAx4 Pages: 1 -->
<svg width="99pt" height="151pt"
 viewBox="0.00 0.00 99.00 151.00" xmlns="http://www.w3.org/2000/svg" xmlns:xlink="http://www.w3.org/1999/xlink">
<g id="graph0" class="graph" transform="scale(1 1) rotate(0) translate(4 147)">
<title>/home/runner/work/Raytracer/Raytracer/PluginsExt/AntiAliasing/SSAAx4</title>
<polygon fill="white" stroke="transparent" points="-4,4 -4,-147 95,-147 95,4 -4,4"/>
<g id="clust1" class="cluster">
<title>clusterdir_d4bc861357cab59352e84826f962b9a0</title>
<g id="a_clust1"><a xlink:href="dir_d4bc861357cab59352e84826f962b9a0.html" target="_top" xlink:title="AntiAliasing">
<polygon fill="#ddddee" stroke="black" points="8,-64 8,-135 83,-135 83,-64 8,-64"/>
<text text-anchor="middle" x="45.5" y="-123" font-family="Helvetica,sans-Serif" font-size="10.00">AntiAliasing</text>
</a>
</g>
</g>
<!-- dir_d2bd47c18e6fb74ecf9809c13d3336b6 -->
<g id="node1" class="node">
<title>dir_d2bd47c18e6fb74ecf9809c13d3336b6</title>
<g id="a_node1"><a xlink:href="dir_d2bd47c18e6fb74ecf9809c13d3336b6.html" target="_top" xlink:title="SSAAx4">
<polygon fill="#eeeeff" stroke="black" points="72.5,-108 17.5,-108 17.5,-72 72.5,-72 72.5,-108"/>
<text text-anchor="middle" x="45" y="-87.5" font-family="Helvetica,sans-Serif" font-size="10.00">SSAAx4</text>
</a>
</g>
</g>
<!-- dir_68267d1309a1af8e8297ef4c3efbcdba -->
<g id="node2" class="node">
<title>dir_68267d1309a1af8e8297ef4c3efbcdba</title>
<g id="a_node2"><a xlink:href="dir_68267d1309a1af8e8297ef4c3efbcdba.html" target="_top" xlink:title="src">
<polygon fill="white" stroke="red" points="72,-36 18,-36 18,0 72,0 72,-36"/>
<text text-anchor="middle" x="45" y="-15.5" font-family="Helvetica,sans-Serif" font-size="10.00">src</text>
</a>
</g>
</g>
<!-- dir_d2bd47c18e6fb74ecf9809c13d3336b6&#45;&gt;dir_68267d1309a1af8e8297ef4c3efbcdba -->
<g id="edge1" class="edge">
<title>dir_d2bd47c18e6fb74ecf9809c13d3336b6&#45;&gt;dir_68267d1309a1af8e8297ef4c3efbcdba</title>
<path fill="none" stroke="black" d="M45,-71.7C45,-63.98 45,-54.71 45,-46.11"/>
<polygon fill="black" stroke="black" points="48.5,-46.1 45,-36.1 41.5,-46.1 48.5,-46.1"/>
<g id="a_edge1&#45;headlabel"><a xlink:href="dir_000003_000026.html" target="_top" xlink:title="9">
<text text-anchor="middle" x="51.34" y="-47.2" font-family="Helvetica,sans-Serif" font-size="10.00">9</text>
</a>
</g>
</g>
</g>
</svg>
