<?xml version="1.0" encoding="UTF-8" standalone="no"?>
<!DOCTYPE svg PUBLIC "-//W3C//DTD SVG 1.1//EN"
 "http://www.w3.org/Graphics/SVG/1.1/DTD/svg11.dtd">
<!-- Generated by graphviz version 2.43.0 (0)
 -->
<!-- Title: /home/runner/work/Raytracer/Raytracer/PluginsExt Pages: 1 -->
<svg width="2066pt" height="132pt"
 viewBox="0.00 0.00 2066.00 132.00" xmlns="http://www.w3.org/2000/svg" xmlns:xlink="http://www.w3.org/1999/xlink">
<g id="graph0" class="graph" transform="scale(1 1) rotate(0) translate(4 128)">
<title>/home/runner/work/Raytracer/Raytracer/PluginsExt</title>
<polygon fill="white" stroke="transparent" points="-4,4 -4,-128 2062,-128 2062,4 -4,4"/>
<g id="clust1" class="cluster">
<title>clusterdir_4b314500dd3730d1ba9f053c438de308</title>
<g id="a_clust1"><a xlink:href="dir_4b314500dd3730d1ba9f053c438de308.html" target="_top">
<polygon fill="#eeeeff" stroke="black" points="8,-64 8,-116 2050,-116 2050,-64 8,-64"/>
</a>
</g>
</g>
<!-- dir_4b314500dd3730d1ba9f053c438de308 -->
<g id="node1" class="node">
<title>dir_4b314500dd3730d1ba9f053c438de308</title>
<text text-anchor="middle" x="2008" y="-87.5" font-family="Helvetica,sans-Serif" font-size="10.00">PluginsExt</text>
</g>
<!-- dir_23797dfc4efa85139749bce11a446eac -->
<g id="node2" class="node">
<title>dir_23797dfc4efa85139749bce11a446eac</title>
<g id="a_node2"><a xlink:href="dir_23797dfc4efa85139749bce11a446eac.html" target="_top" xlink:title="AmbientLight">
<polygon fill="white" stroke="black" points="1956,-108 1874,-108 1874,-72 1956,-72 1956,-108"/>
<text text-anchor="middle" x="1915" y="-87.5" font-family="Helvetica,sans-Serif" font-size="10.00">AmbientLight</text>
</a>
</g>
</g>
<!-- dir_68267d1309a1af8e8297ef4c3efbcdba -->
<g id="node23" class="node">
<title>dir_68267d1309a1af8e8297ef4c3efbcdba</title>
<g id="a_node23"><a xlink:href="dir_68267d1309a1af8e8297ef4c3efbcdba.html" target="_top" xlink:title="src">
<polygon fill="white" stroke="red" points="1006,-36 952,-36 952,0 1006,0 1006,-36"/>
<text text-anchor="middle" x="979" y="-15.5" font-family="Helvetica,sans-Serif" font-size="10.00">src</text>
</a>
</g>
</g>
<!-- dir_23797dfc4efa85139749bce11a446eac&#45;&gt;dir_68267d1309a1af8e8297ef4c3efbcdba -->
<g id="edge5" class="edge">
<title>dir_23797dfc4efa85139749bce11a446eac&#45;&gt;dir_68267d1309a1af8e8297ef4c3efbcdba</title>
<path fill="none" stroke="black" d="M1885.92,-71.96C1879.25,-68.76 1872.04,-65.85 1865,-64 1700.98,-20.86 1163.42,-18.64 1016.44,-18.86"/>
<polygon fill="black" stroke="black" points="1016.14,-15.36 1006.15,-18.88 1016.15,-22.36 1016.14,-15.36"/>
<g id="a_edge5&#45;headlabel"><a xlink:href="dir_000001_000026.html" target="_top" xlink:title="6">
<text text-anchor="middle" x="1019.73" y="-10.02" font-family="Helvetica,sans-Serif" font-size="10.00">6</text>
</a>
</g>
</g>
<!-- dir_d4bc861357cab59352e84826f962b9a0 -->
<g id="node3" class="node">
<title>dir_d4bc861357cab59352e84826f962b9a0</title>
<g id="a_node3"><a xlink:href="dir_d4bc861357cab59352e84826f962b9a0.html" target="_top" xlink:title="AntiAliasing">
<polygon fill="white" stroke="red" points="1855.5,-108 1780.5,-108 1780.5,-72 1855.5,-72 1855.5,-108"/>
<text text-anchor="middle" x="1818" y="-87.5" font-family="Helvetica,sans-Serif" font-size="10.00">AntiAliasing</text>
</a>
</g>
</g>
<!-- dir_d4bc861357cab59352e84826f962b9a0&#45;&gt;dir_68267d1309a1af8e8297ef4c3efbcdba -->
<g id="edge16" class="edge">
<title>dir_d4bc861357cab59352e84826f962b9a0&#45;&gt;dir_68267d1309a1af8e8297ef4c3efbcdba</title>
<path fill="none" stroke="black" d="M1791.12,-71.85C1785.04,-68.71 1778.47,-65.84 1772,-64 1627.37,-22.84 1153.62,-19.15 1016.5,-18.96"/>
<polygon fill="black" stroke="black" points="1016.11,-15.46 1006.11,-18.95 1016.11,-22.46 1016.11,-15.46"/>
<g id="a_edge16&#45;headlabel"><a xlink:href="dir_000002_000026.html" target="_top" xlink:title="9">
<text text-anchor="middle" x="1019.71" y="-10.12" font-family="Helvetica,sans-Serif" font-size="10.00">9</text>
</a>
</g>
</g>
<!-- dir_a1e7b0f6c8c966f643def133f499c25f -->
<g id="node4" class="node">
<title>dir_a1e7b0f6c8c966f643def133f499c25f</title>
<g id="a_node4"><a xlink:href="dir_a1e7b0f6c8c966f643def133f499c25f.html" target="_top" xlink:title="BlackAndWhite">
<polygon fill="white" stroke="black" points="1762.5,-108 1671.5,-108 1671.5,-72 1762.5,-72 1762.5,-108"/>
<text text-anchor="middle" x="1717" y="-87.5" font-family="Helvetica,sans-Serif" font-size="10.00">BlackAndWhite</text>
</a>
</g>
</g>
<!-- dir_a1e7b0f6c8c966f643def133f499c25f&#45;&gt;dir_68267d1309a1af8e8297ef4c3efbcdba -->
<g id="edge11" class="edge">
<title>dir_a1e7b0f6c8c966f643def133f499c25f&#45;&gt;dir_68267d1309a1af8e8297ef4c3efbcdba</title>
<path fill="none" stroke="black" d="M1685.16,-71.92C1678.05,-68.77 1670.41,-65.89 1663,-64 1539.04,-32.4 1140.9,-22.14 1016.5,-19.66"/>
<polygon fill="black" stroke="black" points="1016.4,-16.16 1006.34,-19.46 1016.27,-23.16 1016.4,-16.16"/>
<g id="a_edge11&#45;headlabel"><a xlink:href="dir_000004_000026.html" target="_top" xlink:title="9">
<text text-anchor="middle" x="1020.05" y="-10.89" font-family="Helvetica,sans-Serif" font-size="10.00">9</text>
</a>
</g>
</g>
<!-- dir_62f615b43676db5ddd87f008b4cc30b3 -->
<g id="node5" class="node">
<title>dir_62f615b43676db5ddd87f008b4cc30b3</title>
<g id="a_node5"><a xlink:href="dir_62f615b43676db5ddd87f008b4cc30b3.html" target="_top" xlink:title="Camera">
<polygon fill="white" stroke="red" points="1653.5,-108 1598.5,-108 1598.5,-72 1653.5,-72 1653.5,-108"/>
<text text-anchor="middle" x="1626" y="-87.5" font-family="Helvetica,sans-Serif" font-size="10.00">Camera</text>
</a>
</g>
</g>
<!-- dir_62f615b43676db5ddd87f008b4cc30b3&#45;&gt;dir_68267d1309a1af8e8297ef4c3efbcdba -->
<g id="edge2" class="edge">
<title>dir_62f615b43676db5ddd87f008b4cc30b3&#45;&gt;dir_68267d1309a1af8e8297ef4c3efbcdba</title>
<path fill="none" stroke="black" d="M1605.33,-71.91C1600.56,-68.76 1595.31,-65.88 1590,-64 1483.29,-26.22 1131.63,-20.16 1016.12,-19.18"/>
<polygon fill="black" stroke="black" points="1016.04,-15.68 1006.01,-19.11 1015.98,-22.68 1016.04,-15.68"/>
<g id="a_edge2&#45;headlabel"><a xlink:href="dir_000005_000026.html" target="_top" xlink:title="35">
<text text-anchor="middle" x="1019.65" y="-10.37" font-family="Helvetica,sans-Serif" font-size="10.00">35</text>
</a>
</g>
</g>
<!-- dir_616a73672332529d3731a9ebd7c994a8 -->
<g id="node6" class="node">
<title>dir_616a73672332529d3731a9ebd7c994a8</title>
<g id="a_node6"><a xlink:href="dir_616a73672332529d3731a9ebd7c994a8.html" target="_top" xlink:title="ChessBoardMaterial">
<polygon fill="white" stroke="black" points="1580.5,-108 1465.5,-108 1465.5,-72 1580.5,-72 1580.5,-108"/>
<text text-anchor="middle" x="1523" y="-87.5" font-family="Helvetica,sans-Serif" font-size="10.00">ChessBoardMaterial</text>
</a>
</g>
</g>
<!-- dir_616a73672332529d3731a9ebd7c994a8&#45;&gt;dir_68267d1309a1af8e8297ef4c3efbcdba -->
<g id="edge10" class="edge">
<title>dir_616a73672332529d3731a9ebd7c994a8&#45;&gt;dir_68267d1309a1af8e8297ef4c3efbcdba</title>
<path fill="none" stroke="black" d="M1482.42,-71.92C1473.82,-68.85 1464.71,-66 1456,-64 1295.2,-27.1 1097.23,-20.36 1016.22,-19.2"/>
<polygon fill="black" stroke="black" points="1016.07,-15.7 1006.03,-19.08 1015.98,-22.7 1016.07,-15.7"/>
<g id="a_edge10&#45;headlabel"><a xlink:href="dir_000009_000026.html" target="_top" xlink:title="8">
<text text-anchor="middle" x="1019.7" y="-10.41" font-family="Helvetica,sans-Serif" font-size="10.00">8</text>
</a>
</g>
</g>
<!-- dir_c8fd1adca193700d0c20cd153f75c1a6 -->
<g id="node7" class="node">
<title>dir_c8fd1adca193700d0c20cd153f75c1a6</title>
<g id="a_node7"><a xlink:href="dir_c8fd1adca193700d0c20cd153f75c1a6.html" target="_top" xlink:title="Cone">
<polygon fill="white" stroke="black" points="1447,-108 1393,-108 1393,-72 1447,-72 1447,-108"/>
<text text-anchor="middle" x="1420" y="-87.5" font-family="Helvetica,sans-Serif" font-size="10.00">Cone</text>
</a>
</g>
</g>
<!-- dir_c8fd1adca193700d0c20cd153f75c1a6&#45;&gt;dir_68267d1309a1af8e8297ef4c3efbcdba -->
<g id="edge17" class="edge">
<title>dir_c8fd1adca193700d0c20cd153f75c1a6&#45;&gt;dir_68267d1309a1af8e8297ef4c3efbcdba</title>
<path fill="none" stroke="black" d="M1398.89,-71.8C1394.22,-68.74 1389.13,-65.92 1384,-64 1317.07,-38.9 1103.46,-25.39 1016.44,-20.81"/>
<polygon fill="black" stroke="black" points="1016.39,-17.3 1006.23,-20.28 1016.03,-24.29 1016.39,-17.3"/>
<g id="a_edge17&#45;headlabel"><a xlink:href="dir_000010_000026.html" target="_top" xlink:title="6">
<text text-anchor="middle" x="1020.13" y="-12.15" font-family="Helvetica,sans-Serif" font-size="10.00">6</text>
</a>
</g>
</g>
<!-- dir_c584899c254c4b537d8e386d8cf94f87 -->
<g id="node8" class="node">
<title>dir_c584899c254c4b537d8e386d8cf94f87</title>
<g id="a_node8"><a xlink:href="dir_c584899c254c4b537d8e386d8cf94f87.html" target="_top" xlink:title="Cylinder">
<polygon fill="white" stroke="black" points="1374.5,-108 1317.5,-108 1317.5,-72 1374.5,-72 1374.5,-108"/>
<text text-anchor="middle" x="1346" y="-87.5" font-family="Helvetica,sans-Serif" font-size="10.00">Cylinder</text>
</a>
</g>
</g>
<!-- dir_c584899c254c4b537d8e386d8cf94f87&#45;&gt;dir_68267d1309a1af8e8297ef4c3efbcdba -->
<g id="edge12" class="edge">
<title>dir_c584899c254c4b537d8e386d8cf94f87&#45;&gt;dir_68267d1309a1af8e8297ef4c3efbcdba</title>
<path fill="none" stroke="black" d="M1323.58,-71.92C1318.66,-68.85 1313.32,-66 1308,-64 1207.48,-26.29 1079.11,-19.63 1016.6,-18.8"/>
<polygon fill="black" stroke="black" points="1016.46,-15.3 1006.43,-18.71 1016.4,-22.3 1016.46,-15.3"/>
<g id="a_edge12&#45;headlabel"><a xlink:href="dir_000011_000026.html" target="_top" xlink:title="9">
<text text-anchor="middle" x="1020.08" y="-9.99" font-family="Helvetica,sans-Serif" font-size="10.00">9</text>
</a>
</g>
</g>
<!-- dir_e384b0f4955c8ba1a5bac76831a2f8ef -->
<g id="node9" class="node">
<title>dir_e384b0f4955c8ba1a5bac76831a2f8ef</title>
<g id="a_node9"><a xlink:href="dir_e384b0f4955c8ba1a5bac76831a2f8ef.html" target="_top" xlink:title="Disk">
<polygon fill="white" stroke="black" points="1299,-108 1245,-108 1245,-72 1299,-72 1299,-108"/>
<text text-anchor="middle" x="1272" y="-87.5" font-family="Helvetica,sans-Serif" font-size="10.00">Disk</text>
</a>
</g>
</g>
<!-- dir_e384b0f4955c8ba1a5bac76831a2f8ef&#45;&gt;dir_68267d1309a1af8e8297ef4c3efbcdba -->
<g id="edge1" class="edge">
<title>dir_e384b0f4955c8ba1a5bac76831a2f8ef&#45;&gt;dir_68267d1309a1af8e8297ef4c3efbcdba</title>
<path fill="none" stroke="black" d="M1250.4,-71.79C1245.85,-68.81 1240.93,-66.03 1236,-64 1162.08,-33.6 1067.97,-23.73 1016.61,-20.53"/>
<polygon fill="black" stroke="black" points="1016.51,-17.02 1006.33,-19.94 1016.11,-24.01 1016.51,-17.02"/>
<g id="a_edge1&#45;headlabel"><a xlink:href="dir_000012_000026.html" target="_top" xlink:title="6">
<text text-anchor="middle" x="1020.26" y="-11.89" font-family="Helvetica,sans-Serif" font-size="10.00">6</text>
</a>
</g>
</g>
<!-- dir_d68547482c6b4917e6bf98401287b991 -->
<g id="node10" class="node">
<title>dir_d68547482c6b4917e6bf98401287b991</title>
<g id="a_node10"><a xlink:href="dir_d68547482c6b4917e6bf98401287b991.html" target="_top" xlink:title="LimitedCone">
<polygon fill="white" stroke="black" points="1227,-108 1149,-108 1149,-72 1227,-72 1227,-108"/>
<text text-anchor="middle" x="1188" y="-87.5" font-family="Helvetica,sans-Serif" font-size="10.00">LimitedCone</text>
</a>
</g>
</g>
<!-- dir_d68547482c6b4917e6bf98401287b991&#45;&gt;dir_68267d1309a1af8e8297ef4c3efbcdba -->
<g id="edge13" class="edge">
<title>dir_d68547482c6b4917e6bf98401287b991&#45;&gt;dir_68267d1309a1af8e8297ef4c3efbcdba</title>
<path fill="none" stroke="black" d="M1157.46,-71.89C1151.75,-69.04 1145.77,-66.28 1140,-64 1098.72,-47.69 1049.3,-34.8 1016.19,-27.07"/>
<polygon fill="black" stroke="black" points="1016.58,-23.57 1006.05,-24.75 1015.02,-30.39 1016.58,-23.57"/>
<g id="a_edge13&#45;headlabel"><a xlink:href="dir_000013_000026.html" target="_top" xlink:title="5">
<text text-anchor="middle" x="1020.72" y="-19.11" font-family="Helvetica,sans-Serif" font-size="10.00">5</text>
</a>
</g>
</g>
<!-- dir_87bd571a5d22a4b13c2ae4dfbf537614 -->
<g id="node11" class="node">
<title>dir_87bd571a5d22a4b13c2ae4dfbf537614</title>
<g id="a_node11"><a xlink:href="dir_87bd571a5d22a4b13c2ae4dfbf537614.html" target="_top" xlink:title="LimitedCylinder">
<polygon fill="white" stroke="black" points="1131,-108 1037,-108 1037,-72 1131,-72 1131,-108"/>
<text text-anchor="middle" x="1084" y="-87.5" font-family="Helvetica,sans-Serif" font-size="10.00">LimitedCylinder</text>
</a>
</g>
</g>
<!-- dir_87bd571a5d22a4b13c2ae4dfbf537614&#45;&gt;dir_68267d1309a1af8e8297ef4c3efbcdba -->
<g id="edge18" class="edge">
<title>dir_87bd571a5d22a4b13c2ae4dfbf537614&#45;&gt;dir_68267d1309a1af8e8297ef4c3efbcdba</title>
<path fill="none" stroke="black" d="M1058.31,-71.88C1044.71,-62.81 1027.83,-51.55 1013.14,-41.76"/>
<polygon fill="black" stroke="black" points="1015.05,-38.82 1004.78,-36.19 1011.16,-44.65 1015.05,-38.82"/>
<g id="a_edge18&#45;headlabel"><a xlink:href="dir_000014_000026.html" target="_top" xlink:title="9">
<text text-anchor="middle" x="1019.61" y="-35.96" font-family="Helvetica,sans-Serif" font-size="10.00">9</text>
</a>
</g>
</g>
<!-- dir_56d1ca5d3ff5391e378c4668801107ef -->
<g id="node12" class="node">
<title>dir_56d1ca5d3ff5391e378c4668801107ef</title>
<g id="a_node12"><a xlink:href="dir_56d1ca5d3ff5391e378c4668801107ef.html" target="_top" xlink:title="LimitedPlane">
<polygon fill="white" stroke="black" points="1019,-108 939,-108 939,-72 1019,-72 1019,-108"/>
<text text-anchor="middle" x="979" y="-87.5" font-family="Helvetica,sans-Serif" font-size="10.00">LimitedPlane</text>
</a>
</g>
</g>
<!-- dir_56d1ca5d3ff5391e378c4668801107ef&#45;&gt;dir_68267d1309a1af8e8297ef4c3efbcdba -->
<g id="edge14" class="edge">
<title>dir_56d1ca5d3ff5391e378c4668801107ef&#45;&gt;dir_68267d1309a1af8e8297ef4c3efbcdba</title>
<path fill="none" stroke="black" d="M979,-71.7C979,-63.98 979,-54.71 979,-46.11"/>
<polygon fill="black" stroke="black" points="982.5,-46.1 979,-36.1 975.5,-46.1 982.5,-46.1"/>
<g id="a_edge14&#45;headlabel"><a xlink:href="dir_000015_000026.html" target="_top" xlink:title="7">
<text text-anchor="middle" x="985.34" y="-47.2" font-family="Helvetica,sans-Serif" font-size="10.00">7</text>
</a>
</g>
</g>
<!-- dir_97bfd06170dbfdc7259e55f67270c986 -->
<g id="node13" class="node">
<title>dir_97bfd06170dbfdc7259e55f67270c986</title>
<g id="a_node13"><a xlink:href="dir_97bfd06170dbfdc7259e55f67270c986.html" target="_top" xlink:title="PlainMaterial">
<polygon fill="white" stroke="black" points="920.5,-108 839.5,-108 839.5,-72 920.5,-72 920.5,-108"/>
<text text-anchor="middle" x="880" y="-87.5" font-family="Helvetica,sans-Serif" font-size="10.00">PlainMaterial</text>
</a>
</g>
</g>
<!-- dir_97bfd06170dbfdc7259e55f67270c986&#45;&gt;dir_68267d1309a1af8e8297ef4c3efbcdba -->
<g id="edge8" class="edge">
<title>dir_97bfd06170dbfdc7259e55f67270c986&#45;&gt;dir_68267d1309a1af8e8297ef4c3efbcdba</title>
<path fill="none" stroke="black" d="M904.22,-71.88C916.92,-62.89 932.66,-51.76 946.42,-42.03"/>
<polygon fill="black" stroke="black" points="948.54,-44.82 954.69,-36.19 944.5,-39.11 948.54,-44.82"/>
<g id="a_edge8&#45;headlabel"><a xlink:href="dir_000016_000026.html" target="_top" xlink:title="8">
<text text-anchor="middle" x="947.25" y="-46.71" font-family="Helvetica,sans-Serif" font-size="10.00">8</text>
</a>
</g>
</g>
<!-- dir_7d8807d5aadc5bcef0cec14b97ad3e5d -->
<g id="node14" class="node">
<title>dir_7d8807d5aadc5bcef0cec14b97ad3e5d</title>
<g id="a_node14"><a xlink:href="dir_7d8807d5aadc5bcef0cec14b97ad3e5d.html" target="_top" xlink:title="Plane">
<polygon fill="white" stroke="black" points="821,-108 767,-108 767,-72 821,-72 821,-108"/>
<text text-anchor="middle" x="794" y="-87.5" font-family="Helvetica,sans-Serif" font-size="10.00">Plane</text>
</a>
</g>
</g>
<!-- dir_7d8807d5aadc5bcef0cec14b97ad3e5d&#45;&gt;dir_68267d1309a1af8e8297ef4c3efbcdba -->
<g id="edge3" class="edge">
<title>dir_7d8807d5aadc5bcef0cec14b97ad3e5d&#45;&gt;dir_68267d1309a1af8e8297ef4c3efbcdba</title>
<path fill="none" stroke="black" d="M817.26,-71.77C821.68,-68.93 826.38,-66.2 831,-64 867.16,-46.77 911.42,-34.34 942.07,-26.97"/>
<polygon fill="black" stroke="black" points="942.97,-30.35 951.91,-24.66 941.37,-23.54 942.97,-30.35"/>
<g id="a_edge3&#45;headlabel"><a xlink:href="dir_000017_000026.html" target="_top" xlink:title="6">
<text text-anchor="middle" x="940.12" y="-31.44" font-family="Helvetica,sans-Serif" font-size="10.00">6</text>
</a>
</g>
</g>
<!-- dir_6ca2c1351489a3b7c4c79e847604cc6e -->
<g id="node15" class="node">
<title>dir_6ca2c1351489a3b7c4c79e847604cc6e</title>
<g id="a_node15"><a xlink:href="dir_6ca2c1351489a3b7c4c79e847604cc6e.html" target="_top" xlink:title="PointLight">
<polygon fill="white" stroke="black" points="748.5,-108 683.5,-108 683.5,-72 748.5,-72 748.5,-108"/>
<text text-anchor="middle" x="716" y="-87.5" font-family="Helvetica,sans-Serif" font-size="10.00">PointLight</text>
</a>
</g>
</g>
<!-- dir_6ca2c1351489a3b7c4c79e847604cc6e&#45;&gt;dir_68267d1309a1af8e8297ef4c3efbcdba -->
<g id="edge20" class="edge">
<title>dir_6ca2c1351489a3b7c4c79e847604cc6e&#45;&gt;dir_68267d1309a1af8e8297ef4c3efbcdba</title>
<path fill="none" stroke="black" d="M741.52,-71.98C746.81,-68.98 752.46,-66.14 758,-64 820.04,-40.01 897.06,-28.05 941.86,-22.71"/>
<polygon fill="black" stroke="black" points="942.45,-26.16 951.99,-21.55 941.66,-19.21 942.45,-26.16"/>
<g id="a_edge20&#45;headlabel"><a xlink:href="dir_000018_000026.html" target="_top" xlink:title="6">
<text text-anchor="middle" x="939.2" y="-26.89" font-family="Helvetica,sans-Serif" font-size="10.00">6</text>
</a>
</g>
</g>
<!-- dir_a1be71b4a87ea0a43842201df25556cd -->
<g id="node16" class="node">
<title>dir_a1be71b4a87ea0a43842201df25556cd</title>
<g id="a_node16"><a xlink:href="dir_a1be71b4a87ea0a43842201df25556cd.html" target="_top" xlink:title="RefractionMaterial">
<polygon fill="white" stroke="black" points="665.5,-108 558.5,-108 558.5,-72 665.5,-72 665.5,-108"/>
<text text-anchor="middle" x="612" y="-87.5" font-family="Helvetica,sans-Serif" font-size="10.00">RefractionMaterial</text>
</a>
</g>
</g>
<!-- dir_a1be71b4a87ea0a43842201df25556cd&#45;&gt;dir_68267d1309a1af8e8297ef4c3efbcdba -->
<g id="edge15" class="edge">
<title>dir_a1be71b4a87ea0a43842201df25556cd&#45;&gt;dir_68267d1309a1af8e8297ef4c3efbcdba</title>
<path fill="none" stroke="black" d="M650.85,-71.97C658.73,-68.97 667.04,-66.14 675,-64 769.11,-38.73 883.66,-26.61 941.59,-21.74"/>
<polygon fill="black" stroke="black" points="942.05,-25.22 951.73,-20.92 941.48,-18.24 942.05,-25.22"/>
<g id="a_edge15&#45;headlabel"><a xlink:href="dir_000019_000026.html" target="_top" xlink:title="8">
<text text-anchor="middle" x="938.7" y="-25.84" font-family="Helvetica,sans-Serif" font-size="10.00">8</text>
</a>
</g>
</g>
<!-- dir_3f92ed83a6efedd91e4e130b78a07f9b -->
<g id="node17" class="node">
<title>dir_3f92ed83a6efedd91e4e130b78a07f9b</title>
<g id="a_node17"><a xlink:href="dir_3f92ed83a6efedd91e4e130b78a07f9b.html" target="_top" xlink:title="Sphere">
<polygon fill="white" stroke="black" points="540,-108 486,-108 486,-72 540,-72 540,-108"/>
<text text-anchor="middle" x="513" y="-87.5" font-family="Helvetica,sans-Serif" font-size="10.00">Sphere</text>
</a>
</g>
</g>
<!-- dir_3f92ed83a6efedd91e4e130b78a07f9b&#45;&gt;dir_68267d1309a1af8e8297ef4c3efbcdba -->
<g id="edge9" class="edge">
<title>dir_3f92ed83a6efedd91e4e130b78a07f9b&#45;&gt;dir_68267d1309a1af8e8297ef4c3efbcdba</title>
<path fill="none" stroke="black" d="M534.74,-71.78C539.53,-68.72 544.76,-65.91 550,-64 621.75,-37.86 851.41,-24.81 941.87,-20.58"/>
<polygon fill="black" stroke="black" points="942.12,-24.08 951.95,-20.12 941.8,-17.08 942.12,-24.08"/>
<g id="a_edge9&#45;headlabel"><a xlink:href="dir_000020_000026.html" target="_top" xlink:title="10">
<text text-anchor="middle" x="938.66" y="-24.58" font-family="Helvetica,sans-Serif" font-size="10.00">10</text>
</a>
</g>
</g>
<!-- dir_2a4e33f9be323f7713d427729ee72615 -->
<g id="node18" class="node">
<title>dir_2a4e33f9be323f7713d427729ee72615</title>
<g id="a_node18"><a xlink:href="dir_2a4e33f9be323f7713d427729ee72615.html" target="_top" xlink:title="SpotLight">
<polygon fill="white" stroke="black" points="468,-108 406,-108 406,-72 468,-72 468,-108"/>
<text text-anchor="middle" x="437" y="-87.5" font-family="Helvetica,sans-Serif" font-size="10.00">SpotLight</text>
</a>
</g>
</g>
<!-- dir_2a4e33f9be323f7713d427729ee72615&#45;&gt;dir_68267d1309a1af8e8297ef4c3efbcdba -->
<g id="edge21" class="edge">
<title>dir_2a4e33f9be323f7713d427729ee72615&#45;&gt;dir_68267d1309a1af8e8297ef4c3efbcdba</title>
<path fill="none" stroke="black" d="M460.19,-71.98C465.49,-68.83 471.26,-65.93 477,-64 563.32,-35.01 841.11,-23.41 941.97,-20.09"/>
<polygon fill="black" stroke="black" points="942.11,-23.59 951.99,-19.77 941.89,-16.59 942.11,-23.59"/>
<g id="a_edge21&#45;headlabel"><a xlink:href="dir_000021_000026.html" target="_top" xlink:title="6">
<text text-anchor="middle" x="938.61" y="-24.04" font-family="Helvetica,sans-Serif" font-size="10.00">6</text>
</a>
</g>
</g>
<!-- dir_4a58c7c6211f80dbf76df32f4b4d6b54 -->
<g id="node19" class="node">
<title>dir_4a58c7c6211f80dbf76df32f4b4d6b54</title>
<g id="a_node19"><a xlink:href="dir_4a58c7c6211f80dbf76df32f4b4d6b54.html" target="_top" xlink:title="Torus">
<polygon fill="white" stroke="black" points="388,-108 334,-108 334,-72 388,-72 388,-108"/>
<text text-anchor="middle" x="361" y="-87.5" font-family="Helvetica,sans-Serif" font-size="10.00">Torus</text>
</a>
</g>
</g>
<!-- dir_4a58c7c6211f80dbf76df32f4b4d6b54&#45;&gt;dir_68267d1309a1af8e8297ef4c3efbcdba -->
<g id="edge4" class="edge">
<title>dir_4a58c7c6211f80dbf76df32f4b4d6b54&#45;&gt;dir_68267d1309a1af8e8297ef4c3efbcdba</title>
<path fill="none" stroke="black" d="M381.67,-71.92C386.45,-68.77 391.7,-65.89 397,-64 498.04,-28.02 829.89,-20.77 941.78,-19.34"/>
<polygon fill="black" stroke="black" points="941.95,-22.84 951.91,-19.22 941.87,-15.84 941.95,-22.84"/>
<g id="a_edge4&#45;headlabel"><a xlink:href="dir_000022_000026.html" target="_top" xlink:title="6">
<text text-anchor="middle" x="938.39" y="-23.22" font-family="Helvetica,sans-Serif" font-size="10.00">6</text>
</a>
</g>
</g>
<!-- dir_dcc0eb66a747b99a198a3766040ba045 -->
<g id="node20" class="node">
<title>dir_dcc0eb66a747b99a198a3766040ba045</title>
<g id="a_node20"><a xlink:href="dir_dcc0eb66a747b99a198a3766040ba045.html" target="_top" xlink:title="TransparencyMaterial">
<polygon fill="white" stroke="black" points="316,-108 194,-108 194,-72 316,-72 316,-108"/>
<text text-anchor="middle" x="255" y="-87.5" font-family="Helvetica,sans-Serif" font-size="10.00">TransparencyMaterial</text>
</a>
</g>
</g>
<!-- dir_dcc0eb66a747b99a198a3766040ba045&#45;&gt;dir_68267d1309a1af8e8297ef4c3efbcdba -->
<g id="edge6" class="edge">
<title>dir_dcc0eb66a747b99a198a3766040ba045&#45;&gt;dir_68267d1309a1af8e8297ef4c3efbcdba</title>
<path fill="none" stroke="black" d="M297.03,-71.89C306.12,-68.79 315.78,-65.93 325,-64 444.23,-39.1 821.27,-24.38 941.66,-20.22"/>
<polygon fill="black" stroke="black" points="941.97,-23.72 951.84,-19.88 941.73,-16.72 941.97,-23.72"/>
<g id="a_edge6&#45;headlabel"><a xlink:href="dir_000023_000026.html" target="_top" xlink:title="8">
<text text-anchor="middle" x="938.47" y="-24.18" font-family="Helvetica,sans-Serif" font-size="10.00">8</text>
</a>
</g>
</g>
<!-- dir_7ebe953558711c8784c6270e1aaf8a7f -->
<g id="node21" class="node">
<title>dir_7ebe953558711c8784c6270e1aaf8a7f</title>
<g id="a_node21"><a xlink:href="dir_7ebe953558711c8784c6270e1aaf8a7f.html" target="_top" xlink:title="Triangle">
<polygon fill="white" stroke="black" points="175.5,-108 120.5,-108 120.5,-72 175.5,-72 175.5,-108"/>
<text text-anchor="middle" x="148" y="-87.5" font-family="Helvetica,sans-Serif" font-size="10.00">Triangle</text>
</a>
</g>
</g>
<!-- dir_7ebe953558711c8784c6270e1aaf8a7f&#45;&gt;dir_68267d1309a1af8e8297ef4c3efbcdba -->
<g id="edge7" class="edge">
<title>dir_7ebe953558711c8784c6270e1aaf8a7f&#45;&gt;dir_68267d1309a1af8e8297ef4c3efbcdba</title>
<path fill="none" stroke="black" d="M169.27,-71.84C174.18,-68.7 179.56,-65.83 185,-64 327.8,-15.82 804.47,-17.09 941.73,-18.51"/>
<polygon fill="black" stroke="black" points="941.71,-22.01 951.75,-18.62 941.79,-15.01 941.71,-22.01"/>
<g id="a_edge7&#45;headlabel"><a xlink:href="dir_000024_000026.html" target="_top" xlink:title="6">
<text text-anchor="middle" x="938.09" y="-22.31" font-family="Helvetica,sans-Serif" font-size="10.00">6</text>
</a>
</g>
</g>
<!-- dir_3a54d858ddf47f1666bf932c87179399 -->
<g id="node22" class="node">
<title>dir_3a54d858ddf47f1666bf932c87179399</title>
<g id="a_node22"><a xlink:href="dir_3a54d858ddf47f1666bf932c87179399.html" target="_top" xlink:title="ZebraMaterial">
<polygon fill="white" stroke="black" points="102,-108 16,-108 16,-72 102,-72 102,-108"/>
<text text-anchor="middle" x="59" y="-87.5" font-family="Helvetica,sans-Serif" font-size="10.00">ZebraMaterial</text>
</a>
</g>
</g>
<!-- dir_3a54d858ddf47f1666bf932c87179399&#45;&gt;dir_68267d1309a1af8e8297ef4c3efbcdba -->
<g id="edge19" class="edge">
<title>dir_3a54d858ddf47f1666bf932c87179399&#45;&gt;dir_68267d1309a1af8e8297ef4c3efbcdba</title>
<path fill="none" stroke="black" d="M89.92,-71.97C96.99,-68.78 104.6,-65.86 112,-64 272.61,-23.62 796.34,-19.41 941.43,-19.02"/>
<polygon fill="black" stroke="black" points="941.61,-22.52 951.6,-19 941.6,-15.52 941.61,-22.52"/>
<g id="a_edge19&#45;headlabel"><a xlink:href="dir_000025_000026.html" target="_top" xlink:title="8">
<text text-anchor="middle" x="938.02" y="-22.87" font-family="Helvetica,sans-Serif" font-size="10.00">8</text>
</a>
</g>
</g>
</g>
</svg>
