<?xml version="1.0" encoding="UTF-8" standalone="no"?>
<!DOCTYPE svg PUBLIC "-//W3C//DTD SVG 1.1//EN"
 "http://www.w3.org/Graphics/SVG/1.1/DTD/svg11.dtd">
<!-- Generated by graphviz version 2.43.0 (0)
 -->
<!-- Title: /home/runner/work/Raytracer/Raytracer/PluginsExt Pages: 1 -->
<svg width="1941pt" height="132pt"
 viewBox="0.00 0.00 1941.00 132.00" xmlns="http://www.w3.org/2000/svg" xmlns:xlink="http://www.w3.org/1999/xlink">
<g id="graph0" class="graph" transform="scale(1 1) rotate(0) translate(4 128)">
<title>/home/runner/work/Raytracer/Raytracer/PluginsExt</title>
<polygon fill="white" stroke="transparent" points="-4,4 -4,-128 1937,-128 1937,4 -4,4"/>
<g id="clust1" class="cluster">
<title>clusterdir_4b314500dd3730d1ba9f053c438de308</title>
<g id="a_clust1"><a xlink:href="dir_4b314500dd3730d1ba9f053c438de308.html" target="_top">
<polygon fill="#eeeeff" stroke="black" points="8,-64 8,-116 1925,-116 1925,-64 8,-64"/>
</a>
</g>
</g>
<!-- dir_4b314500dd3730d1ba9f053c438de308 -->
<g id="node1" class="node">
<title>dir_4b314500dd3730d1ba9f053c438de308</title>
<text text-anchor="middle" x="1883" y="-87.5" font-family="Helvetica,sans-Serif" font-size="10.00">PluginsExt</text>
</g>
<!-- dir_23797dfc4efa85139749bce11a446eac -->
<g id="node2" class="node">
<title>dir_23797dfc4efa85139749bce11a446eac</title>
<g id="a_node2"><a xlink:href="dir_23797dfc4efa85139749bce11a446eac.html" target="_top" xlink:title="AmbientLight">
<polygon fill="white" stroke="black" points="1831,-108 1749,-108 1749,-72 1831,-72 1831,-108"/>
<text text-anchor="middle" x="1790" y="-87.5" font-family="Helvetica,sans-Serif" font-size="10.00">AmbientLight</text>
</a>
</g>
</g>
<!-- dir_68267d1309a1af8e8297ef4c3efbcdba -->
<g id="node22" class="node">
<title>dir_68267d1309a1af8e8297ef4c3efbcdba</title>
<g id="a_node22"><a xlink:href="dir_68267d1309a1af8e8297ef4c3efbcdba.html" target="_top" xlink:title="src">
<polygon fill="white" stroke="red" points="933,-36 879,-36 879,0 933,0 933,-36"/>
<text text-anchor="middle" x="906" y="-15.5" font-family="Helvetica,sans-Serif" font-size="10.00">src</text>
</a>
</g>
</g>
<!-- dir_23797dfc4efa85139749bce11a446eac&#45;&gt;dir_68267d1309a1af8e8297ef4c3efbcdba -->
<g id="edge5" class="edge">
<title>dir_23797dfc4efa85139749bce11a446eac&#45;&gt;dir_68267d1309a1af8e8297ef4c3efbcdba</title>
<path fill="none" stroke="black" d="M1760.91,-71.97C1754.24,-68.78 1747.04,-65.86 1740,-64 1586.48,-23.36 1085.09,-19.32 943.53,-19"/>
<polygon fill="black" stroke="black" points="943.21,-15.5 933.21,-18.98 943.2,-22.5 943.21,-15.5"/>
<g id="a_edge5&#45;headlabel"><a xlink:href="dir_000001_000025.html" target="_top" xlink:title="6">
<text text-anchor="middle" x="946.81" y="-10.17" font-family="Helvetica,sans-Serif" font-size="10.00">6</text>
</a>
</g>
</g>
<!-- dir_d4bc861357cab59352e84826f962b9a0 -->
<g id="node3" class="node">
<title>dir_d4bc861357cab59352e84826f962b9a0</title>
<g id="a_node3"><a xlink:href="dir_d4bc861357cab59352e84826f962b9a0.html" target="_top" xlink:title="AntiAliasing">
<polygon fill="white" stroke="red" points="1730.5,-108 1655.5,-108 1655.5,-72 1730.5,-72 1730.5,-108"/>
<text text-anchor="middle" x="1693" y="-87.5" font-family="Helvetica,sans-Serif" font-size="10.00">AntiAliasing</text>
</a>
</g>
</g>
<!-- dir_d4bc861357cab59352e84826f962b9a0&#45;&gt;dir_68267d1309a1af8e8297ef4c3efbcdba -->
<g id="edge15" class="edge">
<title>dir_d4bc861357cab59352e84826f962b9a0&#45;&gt;dir_68267d1309a1af8e8297ef4c3efbcdba</title>
<path fill="none" stroke="black" d="M1666.11,-71.87C1660.04,-68.72 1653.47,-65.85 1647,-64 1512.79,-25.52 1075,-19.94 943.61,-19.14"/>
<polygon fill="black" stroke="black" points="943.29,-15.63 933.27,-19.08 943.25,-22.63 943.29,-15.63"/>
<g id="a_edge15&#45;headlabel"><a xlink:href="dir_000002_000025.html" target="_top" xlink:title="9">
<text text-anchor="middle" x="946.9" y="-10.31" font-family="Helvetica,sans-Serif" font-size="10.00">9</text>
</a>
</g>
</g>
<!-- dir_a1e7b0f6c8c966f643def133f499c25f -->
<g id="node4" class="node">
<title>dir_a1e7b0f6c8c966f643def133f499c25f</title>
<g id="a_node4"><a xlink:href="dir_a1e7b0f6c8c966f643def133f499c25f.html" target="_top" xlink:title="BlackAndWhite">
<polygon fill="white" stroke="black" points="1637.5,-108 1546.5,-108 1546.5,-72 1637.5,-72 1637.5,-108"/>
<text text-anchor="middle" x="1592" y="-87.5" font-family="Helvetica,sans-Serif" font-size="10.00">BlackAndWhite</text>
</a>
</g>
</g>
<!-- dir_a1e7b0f6c8c966f643def133f499c25f&#45;&gt;dir_68267d1309a1af8e8297ef4c3efbcdba -->
<g id="edge11" class="edge">
<title>dir_a1e7b0f6c8c966f643def133f499c25f&#45;&gt;dir_68267d1309a1af8e8297ef4c3efbcdba</title>
<path fill="none" stroke="black" d="M1560.15,-71.95C1553.04,-68.8 1545.4,-65.91 1538,-64 1424.38,-34.71 1061.22,-22.98 943.34,-19.89"/>
<polygon fill="black" stroke="black" points="943.11,-16.39 933.03,-19.63 942.93,-23.38 943.11,-16.39"/>
<g id="a_edge11&#45;headlabel"><a xlink:href="dir_000004_000025.html" target="_top" xlink:title="9">
<text text-anchor="middle" x="946.78" y="-11.14" font-family="Helvetica,sans-Serif" font-size="10.00">9</text>
</a>
</g>
</g>
<!-- dir_62f615b43676db5ddd87f008b4cc30b3 -->
<g id="node5" class="node">
<title>dir_62f615b43676db5ddd87f008b4cc30b3</title>
<g id="a_node5"><a xlink:href="dir_62f615b43676db5ddd87f008b4cc30b3.html" target="_top" xlink:title="Camera">
<polygon fill="white" stroke="red" points="1528.5,-108 1473.5,-108 1473.5,-72 1528.5,-72 1528.5,-108"/>
<text text-anchor="middle" x="1501" y="-87.5" font-family="Helvetica,sans-Serif" font-size="10.00">Camera</text>
</a>
</g>
</g>
<!-- dir_62f615b43676db5ddd87f008b4cc30b3&#45;&gt;dir_68267d1309a1af8e8297ef4c3efbcdba -->
<g id="edge2" class="edge">
<title>dir_62f615b43676db5ddd87f008b4cc30b3&#45;&gt;dir_68267d1309a1af8e8297ef4c3efbcdba</title>
<path fill="none" stroke="black" d="M1480.32,-71.94C1475.55,-68.79 1470.3,-65.9 1465,-64 1368.41,-29.43 1052.05,-21.28 943.19,-19.48"/>
<polygon fill="black" stroke="black" points="943.08,-15.98 933.02,-19.32 942.97,-22.98 943.08,-15.98"/>
<g id="a_edge2&#45;headlabel"><a xlink:href="dir_000005_000025.html" target="_top" xlink:title="35">
<text text-anchor="middle" x="946.72" y="-10.7" font-family="Helvetica,sans-Serif" font-size="10.00">35</text>
</a>
</g>
</g>
<!-- dir_616a73672332529d3731a9ebd7c994a8 -->
<g id="node6" class="node">
<title>dir_616a73672332529d3731a9ebd7c994a8</title>
<g id="a_node6"><a xlink:href="dir_616a73672332529d3731a9ebd7c994a8.html" target="_top" xlink:title="ChessBoardMaterial">
<polygon fill="white" stroke="black" points="1455.5,-108 1340.5,-108 1340.5,-72 1455.5,-72 1455.5,-108"/>
<text text-anchor="middle" x="1398" y="-87.5" font-family="Helvetica,sans-Serif" font-size="10.00">ChessBoardMaterial</text>
</a>
</g>
</g>
<!-- dir_616a73672332529d3731a9ebd7c994a8&#45;&gt;dir_68267d1309a1af8e8297ef4c3efbcdba -->
<g id="edge10" class="edge">
<title>dir_616a73672332529d3731a9ebd7c994a8&#45;&gt;dir_68267d1309a1af8e8297ef4c3efbcdba</title>
<path fill="none" stroke="black" d="M1357.4,-72C1348.81,-68.92 1339.7,-66.05 1331,-64 1190.58,-30.93 1018.29,-22.13 943.55,-19.82"/>
<polygon fill="black" stroke="black" points="943.34,-16.31 933.25,-19.52 943.14,-23.31 943.34,-16.31"/>
<g id="a_edge10&#45;headlabel"><a xlink:href="dir_000009_000025.html" target="_top" xlink:title="8">
<text text-anchor="middle" x="947.02" y="-11.08" font-family="Helvetica,sans-Serif" font-size="10.00">8</text>
</a>
</g>
</g>
<!-- dir_c8fd1adca193700d0c20cd153f75c1a6 -->
<g id="node7" class="node">
<title>dir_c8fd1adca193700d0c20cd153f75c1a6</title>
<g id="a_node7"><a xlink:href="dir_c8fd1adca193700d0c20cd153f75c1a6.html" target="_top" xlink:title="Cone">
<polygon fill="white" stroke="black" points="1322,-108 1268,-108 1268,-72 1322,-72 1322,-108"/>
<text text-anchor="middle" x="1295" y="-87.5" font-family="Helvetica,sans-Serif" font-size="10.00">Cone</text>
</a>
</g>
</g>
<!-- dir_c8fd1adca193700d0c20cd153f75c1a6&#45;&gt;dir_68267d1309a1af8e8297ef4c3efbcdba -->
<g id="edge16" class="edge">
<title>dir_c8fd1adca193700d0c20cd153f75c1a6&#45;&gt;dir_68267d1309a1af8e8297ef4c3efbcdba</title>
<path fill="none" stroke="black" d="M1273.87,-71.87C1269.2,-68.8 1264.11,-65.97 1259,-64 1201.93,-42.07 1022.07,-27.15 943.43,-21.51"/>
<polygon fill="black" stroke="black" points="943.25,-17.99 933.03,-20.78 942.76,-24.97 943.25,-17.99"/>
<g id="a_edge16&#45;headlabel"><a xlink:href="dir_000010_000025.html" target="_top" xlink:title="6">
<text text-anchor="middle" x="947.03" y="-12.91" font-family="Helvetica,sans-Serif" font-size="10.00">6</text>
</a>
</g>
</g>
<!-- dir_c584899c254c4b537d8e386d8cf94f87 -->
<g id="node8" class="node">
<title>dir_c584899c254c4b537d8e386d8cf94f87</title>
<g id="a_node8"><a xlink:href="dir_c584899c254c4b537d8e386d8cf94f87.html" target="_top" xlink:title="Cylinder">
<polygon fill="white" stroke="black" points="1249.5,-108 1192.5,-108 1192.5,-72 1249.5,-72 1249.5,-108"/>
<text text-anchor="middle" x="1221" y="-87.5" font-family="Helvetica,sans-Serif" font-size="10.00">Cylinder</text>
</a>
</g>
</g>
<!-- dir_c584899c254c4b537d8e386d8cf94f87&#45;&gt;dir_68267d1309a1af8e8297ef4c3efbcdba -->
<g id="edge12" class="edge">
<title>dir_c584899c254c4b537d8e386d8cf94f87&#45;&gt;dir_68267d1309a1af8e8297ef4c3efbcdba</title>
<path fill="none" stroke="black" d="M1198.13,-71.76C1193.33,-68.78 1188.15,-66.01 1183,-64 1101.5,-32.25 998.08,-22.9 943.56,-20.15"/>
<polygon fill="black" stroke="black" points="943.48,-16.64 933.34,-19.68 943.17,-23.63 943.48,-16.64"/>
<g id="a_edge12&#45;headlabel"><a xlink:href="dir_000011_000025.html" target="_top" xlink:title="9">
<text text-anchor="middle" x="947.2" y="-11.47" font-family="Helvetica,sans-Serif" font-size="10.00">9</text>
</a>
</g>
</g>
<!-- dir_e384b0f4955c8ba1a5bac76831a2f8ef -->
<g id="node9" class="node">
<title>dir_e384b0f4955c8ba1a5bac76831a2f8ef</title>
<g id="a_node9"><a xlink:href="dir_e384b0f4955c8ba1a5bac76831a2f8ef.html" target="_top" xlink:title="Disk">
<polygon fill="white" stroke="black" points="1174,-108 1120,-108 1120,-72 1174,-72 1174,-108"/>
<text text-anchor="middle" x="1147" y="-87.5" font-family="Helvetica,sans-Serif" font-size="10.00">Disk</text>
</a>
</g>
</g>
<!-- dir_e384b0f4955c8ba1a5bac76831a2f8ef&#45;&gt;dir_68267d1309a1af8e8297ef4c3efbcdba -->
<g id="edge1" class="edge">
<title>dir_e384b0f4955c8ba1a5bac76831a2f8ef&#45;&gt;dir_68267d1309a1af8e8297ef4c3efbcdba</title>
<path fill="none" stroke="black" d="M1125.33,-71.96C1120.79,-68.97 1115.88,-66.13 1111,-64 1055.43,-39.75 985.49,-28.01 943.34,-22.77"/>
<polygon fill="black" stroke="black" points="943.59,-19.27 933.25,-21.57 942.76,-26.22 943.59,-19.27"/>
<g id="a_edge1&#45;headlabel"><a xlink:href="dir_000012_000025.html" target="_top" xlink:title="6">
<text text-anchor="middle" x="947.49" y="-14.37" font-family="Helvetica,sans-Serif" font-size="10.00">6</text>
</a>
</g>
</g>
<!-- dir_d68547482c6b4917e6bf98401287b991 -->
<g id="node10" class="node">
<title>dir_d68547482c6b4917e6bf98401287b991</title>
<g id="a_node10"><a xlink:href="dir_d68547482c6b4917e6bf98401287b991.html" target="_top" xlink:title="LimitedCone">
<polygon fill="white" stroke="black" points="1102,-108 1024,-108 1024,-72 1102,-72 1102,-108"/>
<text text-anchor="middle" x="1063" y="-87.5" font-family="Helvetica,sans-Serif" font-size="10.00">LimitedCone</text>
</a>
</g>
</g>
<!-- dir_d68547482c6b4917e6bf98401287b991&#45;&gt;dir_68267d1309a1af8e8297ef4c3efbcdba -->
<g id="edge13" class="edge">
<title>dir_d68547482c6b4917e6bf98401287b991&#45;&gt;dir_68267d1309a1af8e8297ef4c3efbcdba</title>
<path fill="none" stroke="black" d="M1031.18,-71.93C1025.82,-69.19 1020.28,-66.46 1015,-64 991.18,-52.91 963.85,-41.63 942.51,-33.13"/>
<polygon fill="black" stroke="black" points="943.75,-29.86 933.16,-29.44 941.18,-36.37 943.75,-29.86"/>
<g id="a_edge13&#45;headlabel"><a xlink:href="dir_000013_000025.html" target="_top" xlink:title="5">
<text text-anchor="middle" x="948.14" y="-26.04" font-family="Helvetica,sans-Serif" font-size="10.00">5</text>
</a>
</g>
</g>
<!-- dir_87bd571a5d22a4b13c2ae4dfbf537614 -->
<g id="node11" class="node">
<title>dir_87bd571a5d22a4b13c2ae4dfbf537614</title>
<g id="a_node11"><a xlink:href="dir_87bd571a5d22a4b13c2ae4dfbf537614.html" target="_top" xlink:title="LimitedCylinder">
<polygon fill="white" stroke="black" points="1006,-108 912,-108 912,-72 1006,-72 1006,-108"/>
<text text-anchor="middle" x="959" y="-87.5" font-family="Helvetica,sans-Serif" font-size="10.00">LimitedCylinder</text>
</a>
</g>
</g>
<!-- dir_87bd571a5d22a4b13c2ae4dfbf537614&#45;&gt;dir_68267d1309a1af8e8297ef4c3efbcdba -->
<g id="edge17" class="edge">
<title>dir_87bd571a5d22a4b13c2ae4dfbf537614&#45;&gt;dir_68267d1309a1af8e8297ef4c3efbcdba</title>
<path fill="none" stroke="black" d="M945.9,-71.7C939.61,-63.39 931.95,-53.28 925.04,-44.14"/>
<polygon fill="black" stroke="black" points="927.78,-41.96 918.95,-36.1 922.2,-46.19 927.78,-41.96"/>
<g id="a_edge17&#45;headlabel"><a xlink:href="dir_000014_000025.html" target="_top" xlink:title="9">
<text text-anchor="middle" x="932.21" y="-40.62" font-family="Helvetica,sans-Serif" font-size="10.00">9</text>
</a>
</g>
</g>
<!-- dir_56d1ca5d3ff5391e378c4668801107ef -->
<g id="node12" class="node">
<title>dir_56d1ca5d3ff5391e378c4668801107ef</title>
<g id="a_node12"><a xlink:href="dir_56d1ca5d3ff5391e378c4668801107ef.html" target="_top" xlink:title="LimitedPlane">
<polygon fill="white" stroke="black" points="894,-108 814,-108 814,-72 894,-72 894,-108"/>
<text text-anchor="middle" x="854" y="-87.5" font-family="Helvetica,sans-Serif" font-size="10.00">LimitedPlane</text>
</a>
</g>
</g>
<!-- dir_56d1ca5d3ff5391e378c4668801107ef&#45;&gt;dir_68267d1309a1af8e8297ef4c3efbcdba -->
<g id="edge14" class="edge">
<title>dir_56d1ca5d3ff5391e378c4668801107ef&#45;&gt;dir_68267d1309a1af8e8297ef4c3efbcdba</title>
<path fill="none" stroke="black" d="M866.85,-71.7C873.03,-63.39 880.54,-53.28 887.32,-44.14"/>
<polygon fill="black" stroke="black" points="890.14,-46.22 893.29,-36.1 884.52,-42.04 890.14,-46.22"/>
<g id="a_edge14&#45;headlabel"><a xlink:href="dir_000015_000025.html" target="_top" xlink:title="7">
<text text-anchor="middle" x="890.28" y="-48.3" font-family="Helvetica,sans-Serif" font-size="10.00">7</text>
</a>
</g>
</g>
<!-- dir_97bfd06170dbfdc7259e55f67270c986 -->
<g id="node13" class="node">
<title>dir_97bfd06170dbfdc7259e55f67270c986</title>
<g id="a_node13"><a xlink:href="dir_97bfd06170dbfdc7259e55f67270c986.html" target="_top" xlink:title="PlainMaterial">
<polygon fill="white" stroke="black" points="795.5,-108 714.5,-108 714.5,-72 795.5,-72 795.5,-108"/>
<text text-anchor="middle" x="755" y="-87.5" font-family="Helvetica,sans-Serif" font-size="10.00">PlainMaterial</text>
</a>
</g>
</g>
<!-- dir_97bfd06170dbfdc7259e55f67270c986&#45;&gt;dir_68267d1309a1af8e8297ef4c3efbcdba -->
<g id="edge8" class="edge">
<title>dir_97bfd06170dbfdc7259e55f67270c986&#45;&gt;dir_68267d1309a1af8e8297ef4c3efbcdba</title>
<path fill="none" stroke="black" d="M788.52,-71.98C794.01,-69.27 799.65,-66.53 805,-64 826.23,-53.97 850.24,-43.25 869.51,-34.79"/>
<polygon fill="black" stroke="black" points="871.08,-37.92 878.84,-30.71 868.28,-31.51 871.08,-37.92"/>
<g id="a_edge8&#45;headlabel"><a xlink:href="dir_000016_000025.html" target="_top" xlink:title="8">
<text text-anchor="middle" x="868.93" y="-39.46" font-family="Helvetica,sans-Serif" font-size="10.00">8</text>
</a>
</g>
</g>
<!-- dir_7d8807d5aadc5bcef0cec14b97ad3e5d -->
<g id="node14" class="node">
<title>dir_7d8807d5aadc5bcef0cec14b97ad3e5d</title>
<g id="a_node14"><a xlink:href="dir_7d8807d5aadc5bcef0cec14b97ad3e5d.html" target="_top" xlink:title="Plane">
<polygon fill="white" stroke="black" points="696,-108 642,-108 642,-72 696,-72 696,-108"/>
<text text-anchor="middle" x="669" y="-87.5" font-family="Helvetica,sans-Serif" font-size="10.00">Plane</text>
</a>
</g>
</g>
<!-- dir_7d8807d5aadc5bcef0cec14b97ad3e5d&#45;&gt;dir_68267d1309a1af8e8297ef4c3efbcdba -->
<g id="edge3" class="edge">
<title>dir_7d8807d5aadc5bcef0cec14b97ad3e5d&#45;&gt;dir_68267d1309a1af8e8297ef4c3efbcdba</title>
<path fill="none" stroke="black" d="M691.32,-71.99C695.99,-69 701.02,-66.15 706,-64 759.95,-40.69 827.51,-28.73 868.68,-23.18"/>
<polygon fill="black" stroke="black" points="869.34,-26.62 878.81,-21.87 868.44,-19.68 869.34,-26.62"/>
<g id="a_edge3&#45;headlabel"><a xlink:href="dir_000017_000025.html" target="_top" xlink:title="6">
<text text-anchor="middle" x="866.14" y="-27.4" font-family="Helvetica,sans-Serif" font-size="10.00">6</text>
</a>
</g>
</g>
<!-- dir_6ca2c1351489a3b7c4c79e847604cc6e -->
<g id="node15" class="node">
<title>dir_6ca2c1351489a3b7c4c79e847604cc6e</title>
<g id="a_node15"><a xlink:href="dir_6ca2c1351489a3b7c4c79e847604cc6e.html" target="_top" xlink:title="PointLight">
<polygon fill="white" stroke="black" points="623.5,-108 558.5,-108 558.5,-72 623.5,-72 623.5,-108"/>
<text text-anchor="middle" x="591" y="-87.5" font-family="Helvetica,sans-Serif" font-size="10.00">PointLight</text>
</a>
</g>
</g>
<!-- dir_6ca2c1351489a3b7c4c79e847604cc6e&#45;&gt;dir_68267d1309a1af8e8297ef4c3efbcdba -->
<g id="edge19" class="edge">
<title>dir_6ca2c1351489a3b7c4c79e847604cc6e&#45;&gt;dir_68267d1309a1af8e8297ef4c3efbcdba</title>
<path fill="none" stroke="black" d="M616.46,-71.81C621.75,-68.83 627.42,-66.04 633,-64 713.79,-34.5 815.13,-24.25 868.74,-20.76"/>
<polygon fill="black" stroke="black" points="869.04,-24.24 878.81,-20.14 868.61,-17.26 869.04,-24.24"/>
<g id="a_edge19&#45;headlabel"><a xlink:href="dir_000018_000025.html" target="_top" xlink:title="6">
<text text-anchor="middle" x="865.62" y="-24.8" font-family="Helvetica,sans-Serif" font-size="10.00">6</text>
</a>
</g>
</g>
<!-- dir_3f92ed83a6efedd91e4e130b78a07f9b -->
<g id="node16" class="node">
<title>dir_3f92ed83a6efedd91e4e130b78a07f9b</title>
<g id="a_node16"><a xlink:href="dir_3f92ed83a6efedd91e4e130b78a07f9b.html" target="_top" xlink:title="Sphere">
<polygon fill="white" stroke="black" points="540,-108 486,-108 486,-72 540,-72 540,-108"/>
<text text-anchor="middle" x="513" y="-87.5" font-family="Helvetica,sans-Serif" font-size="10.00">Sphere</text>
</a>
</g>
</g>
<!-- dir_3f92ed83a6efedd91e4e130b78a07f9b&#45;&gt;dir_68267d1309a1af8e8297ef4c3efbcdba -->
<g id="edge9" class="edge">
<title>dir_3f92ed83a6efedd91e4e130b78a07f9b&#45;&gt;dir_68267d1309a1af8e8297ef4c3efbcdba</title>
<path fill="none" stroke="black" d="M534.77,-71.87C539.56,-68.8 544.78,-65.97 550,-64 660.18,-22.53 801.69,-17.76 868.23,-18.11"/>
<polygon fill="black" stroke="black" points="868.6,-21.61 878.63,-18.21 868.66,-14.61 868.6,-21.61"/>
<g id="a_edge9&#45;headlabel"><a xlink:href="dir_000019_000025.html" target="_top" xlink:title="10">
<text text-anchor="middle" x="864.97" y="-21.92" font-family="Helvetica,sans-Serif" font-size="10.00">10</text>
</a>
</g>
</g>
<!-- dir_2a4e33f9be323f7713d427729ee72615 -->
<g id="node17" class="node">
<title>dir_2a4e33f9be323f7713d427729ee72615</title>
<g id="a_node17"><a xlink:href="dir_2a4e33f9be323f7713d427729ee72615.html" target="_top" xlink:title="SpotLight">
<polygon fill="white" stroke="black" points="468,-108 406,-108 406,-72 468,-72 468,-108"/>
<text text-anchor="middle" x="437" y="-87.5" font-family="Helvetica,sans-Serif" font-size="10.00">SpotLight</text>
</a>
</g>
</g>
<!-- dir_2a4e33f9be323f7713d427729ee72615&#45;&gt;dir_68267d1309a1af8e8297ef4c3efbcdba -->
<g id="edge20" class="edge">
<title>dir_2a4e33f9be323f7713d427729ee72615&#45;&gt;dir_68267d1309a1af8e8297ef4c3efbcdba</title>
<path fill="none" stroke="black" d="M460.65,-71.79C465.82,-68.74 471.42,-65.92 477,-64 549.2,-39.14 778.59,-25.33 868.93,-20.74"/>
<polygon fill="black" stroke="black" points="869.18,-24.24 878.99,-20.24 868.83,-17.24 869.18,-24.24"/>
<g id="a_edge20&#45;headlabel"><a xlink:href="dir_000020_000025.html" target="_top" xlink:title="6">
<text text-anchor="middle" x="865.73" y="-24.75" font-family="Helvetica,sans-Serif" font-size="10.00">6</text>
</a>
</g>
</g>
<!-- dir_4a58c7c6211f80dbf76df32f4b4d6b54 -->
<g id="node18" class="node">
<title>dir_4a58c7c6211f80dbf76df32f4b4d6b54</title>
<g id="a_node18"><a xlink:href="dir_4a58c7c6211f80dbf76df32f4b4d6b54.html" target="_top" xlink:title="Torus">
<polygon fill="white" stroke="black" points="388,-108 334,-108 334,-72 388,-72 388,-108"/>
<text text-anchor="middle" x="361" y="-87.5" font-family="Helvetica,sans-Serif" font-size="10.00">Torus</text>
</a>
</g>
</g>
<!-- dir_4a58c7c6211f80dbf76df32f4b4d6b54&#45;&gt;dir_68267d1309a1af8e8297ef4c3efbcdba -->
<g id="edge4" class="edge">
<title>dir_4a58c7c6211f80dbf76df32f4b4d6b54&#45;&gt;dir_68267d1309a1af8e8297ef4c3efbcdba</title>
<path fill="none" stroke="black" d="M381.69,-71.97C386.46,-68.82 391.71,-65.92 397,-64 483.9,-32.52 766.57,-22.47 868.73,-19.82"/>
<polygon fill="black" stroke="black" points="868.97,-23.32 878.88,-19.57 868.8,-16.32 868.97,-23.32"/>
<g id="a_edge4&#45;headlabel"><a xlink:href="dir_000021_000025.html" target="_top" xlink:title="6">
<text text-anchor="middle" x="865.45" y="-23.75" font-family="Helvetica,sans-Serif" font-size="10.00">6</text>
</a>
</g>
</g>
<!-- dir_dcc0eb66a747b99a198a3766040ba045 -->
<g id="node19" class="node">
<title>dir_dcc0eb66a747b99a198a3766040ba045</title>
<g id="a_node19"><a xlink:href="dir_dcc0eb66a747b99a198a3766040ba045.html" target="_top" xlink:title="TransparencyMaterial">
<polygon fill="white" stroke="black" points="316,-108 194,-108 194,-72 316,-72 316,-108"/>
<text text-anchor="middle" x="255" y="-87.5" font-family="Helvetica,sans-Serif" font-size="10.00">TransparencyMaterial</text>
</a>
</g>
</g>
<!-- dir_dcc0eb66a747b99a198a3766040ba045&#45;&gt;dir_68267d1309a1af8e8297ef4c3efbcdba -->
<g id="edge6" class="edge">
<title>dir_dcc0eb66a747b99a198a3766040ba045&#45;&gt;dir_68267d1309a1af8e8297ef4c3efbcdba</title>
<path fill="none" stroke="black" d="M297.05,-71.95C306.14,-68.84 315.79,-65.97 325,-64 526.98,-20.92 776.26,-17.93 868.99,-18.49"/>
<polygon fill="black" stroke="black" points="868.97,-21.99 879,-18.57 869.03,-14.99 868.97,-21.99"/>
<g id="a_edge6&#45;headlabel"><a xlink:href="dir_000022_000025.html" target="_top" xlink:title="8">
<text text-anchor="middle" x="865.36" y="-22.3" font-family="Helvetica,sans-Serif" font-size="10.00">8</text>
</a>
</g>
</g>
<!-- dir_7ebe953558711c8784c6270e1aaf8a7f -->
<g id="node20" class="node">
<title>dir_7ebe953558711c8784c6270e1aaf8a7f</title>
<g id="a_node20"><a xlink:href="dir_7ebe953558711c8784c6270e1aaf8a7f.html" target="_top" xlink:title="Triangle">
<polygon fill="white" stroke="black" points="175.5,-108 120.5,-108 120.5,-72 175.5,-72 175.5,-108"/>
<text text-anchor="middle" x="148" y="-87.5" font-family="Helvetica,sans-Serif" font-size="10.00">Triangle</text>
</a>
</g>
</g>
<!-- dir_7ebe953558711c8784c6270e1aaf8a7f&#45;&gt;dir_68267d1309a1af8e8297ef4c3efbcdba -->
<g id="edge7" class="edge">
<title>dir_7ebe953558711c8784c6270e1aaf8a7f&#45;&gt;dir_68267d1309a1af8e8297ef4c3efbcdba</title>
<path fill="none" stroke="black" d="M169.28,-71.86C174.19,-68.72 179.57,-65.85 185,-64 313.46,-20.25 740,-18.31 868.83,-18.76"/>
<polygon fill="black" stroke="black" points="868.96,-22.26 878.98,-18.8 868.99,-15.26 868.96,-22.26"/>
<g id="a_edge7&#45;headlabel"><a xlink:href="dir_000023_000025.html" target="_top" xlink:title="6">
<text text-anchor="middle" x="865.36" y="-22.58" font-family="Helvetica,sans-Serif" font-size="10.00">6</text>
</a>
</g>
</g>
<!-- dir_3a54d858ddf47f1666bf932c87179399 -->
<g id="node21" class="node">
<title>dir_3a54d858ddf47f1666bf932c87179399</title>
<g id="a_node21"><a xlink:href="dir_3a54d858ddf47f1666bf932c87179399.html" target="_top" xlink:title="ZebraMaterial">
<polygon fill="white" stroke="black" points="102,-108 16,-108 16,-72 102,-72 102,-108"/>
<text text-anchor="middle" x="59" y="-87.5" font-family="Helvetica,sans-Serif" font-size="10.00">ZebraMaterial</text>
</a>
</g>
</g>
<!-- dir_3a54d858ddf47f1666bf932c87179399&#45;&gt;dir_68267d1309a1af8e8297ef4c3efbcdba -->
<g id="edge18" class="edge">
<title>dir_3a54d858ddf47f1666bf932c87179399&#45;&gt;dir_68267d1309a1af8e8297ef4c3efbcdba</title>
<path fill="none" stroke="black" d="M89.93,-72C96.99,-68.8 104.6,-65.88 112,-64 257.93,-26.94 731.49,-20.37 868.53,-19.23"/>
<polygon fill="black" stroke="black" points="868.94,-22.73 878.91,-19.15 868.88,-15.73 868.94,-22.73"/>
<g id="a_edge18&#45;headlabel"><a xlink:href="dir_000024_000025.html" target="_top" xlink:title="8">
<text text-anchor="middle" x="865.36" y="-23.09" font-family="Helvetica,sans-Serif" font-size="10.00">8</text>
</a>
</g>
</g>
</g>
</svg>
