<?xml version="1.0" encoding="UTF-8" standalone="no"?>
<!DOCTYPE svg PUBLIC "-//W3C//DTD SVG 1.1//EN"
 "http://www.w3.org/Graphics/SVG/1.1/DTD/svg11.dtd">
<!-- Generated by graphviz version 2.43.0 (0)
 -->
<!-- Title: /home/runner/work/Raytracer/Raytracer/src/Scenes Pages: 1 -->
<svg width="174pt" height="383pt"
 viewBox="0.00 0.00 174.00 383.00" xmlns="http://www.w3.org/2000/svg" xmlns:xlink="http://www.w3.org/1999/xlink">
<g id="graph0" class="graph" transform="scale(1 1) rotate(0) translate(4 379)">
<title>/home/runner/work/Raytracer/Raytracer/src/Scenes</title>
<polygon fill="white" stroke="transparent" points="-4,4 -4,-379 170,-379 170,4 -4,4"/>
<g id="clust1" class="cluster">
<title>clusterdir_68267d1309a1af8e8297ef4c3efbcdba</title>
<g id="a_clust1"><a xlink:href="dir_68267d1309a1af8e8297ef4c3efbcdba.html" target="_top" xlink:title="src">
<polygon fill="#ddddee" stroke="black" points="8,-8 8,-367 158,-367 158,-8 8,-8"/>
<text text-anchor="middle" x="83" y="-355" font-family="Helvetica,sans-Serif" font-size="10.00">src</text>
</a>
</g>
</g>
<!-- dir_022e325a8f259b9b8d324d8b04589350 -->
<g id="node1" class="node">
<title>dir_022e325a8f259b9b8d324d8b04589350</title>
<g id="a_node1"><a xlink:href="dir_022e325a8f259b9b8d324d8b04589350.html" target="_top" xlink:title="Plugins">
<polygon fill="white" stroke="red" points="150,-340 96,-340 96,-304 150,-304 150,-340"/>
<text text-anchor="middle" x="123" y="-319.5" font-family="Helvetica,sans-Serif" font-size="10.00">Plugins</text>
</a>
</g>
</g>
<!-- dir_093f3b7f7c7a61ef21fffb3d339f67e1 -->
<g id="node2" class="node">
<title>dir_093f3b7f7c7a61ef21fffb3d339f67e1</title>
<g id="a_node2"><a xlink:href="dir_093f3b7f7c7a61ef21fffb3d339f67e1.html" target="_top" xlink:title="Entities">
<polygon fill="white" stroke="red" points="100,-268 46,-268 46,-232 100,-232 100,-268"/>
<text text-anchor="middle" x="73" y="-247.5" font-family="Helvetica,sans-Serif" font-size="10.00">Entities</text>
</a>
</g>
</g>
<!-- dir_022e325a8f259b9b8d324d8b04589350&#45;&gt;dir_093f3b7f7c7a61ef21fffb3d339f67e1 -->
<g id="edge3" class="edge">
<title>dir_022e325a8f259b9b8d324d8b04589350&#45;&gt;dir_093f3b7f7c7a61ef21fffb3d339f67e1</title>
<path fill="none" stroke="black" d="M110.64,-303.7C104.77,-295.47 97.63,-285.48 91.16,-276.42"/>
<polygon fill="black" stroke="black" points="93.88,-274.21 85.22,-268.1 88.18,-278.28 93.88,-274.21"/>
<g id="a_edge3&#45;headlabel"><a xlink:href="dir_000027_000022.html" target="_top" xlink:title="6">
<text text-anchor="middle" x="98.28" y="-272.98" font-family="Helvetica,sans-Serif" font-size="10.00">6</text>
</a>
</g>
</g>
<!-- dir_3dbe57e65c50a7a17fba27939d267647 -->
<g id="node3" class="node">
<title>dir_3dbe57e65c50a7a17fba27939d267647</title>
<g id="a_node3"><a xlink:href="dir_3dbe57e65c50a7a17fba27939d267647.html" target="_top" xlink:title="Factories">
<polygon fill="none" stroke="black" points="133,-52 73,-52 73,-16 133,-16 133,-52"/>
<text text-anchor="middle" x="103" y="-31.5" font-family="Helvetica,sans-Serif" font-size="10.00">Factories</text>
</a>
</g>
</g>
<!-- dir_022e325a8f259b9b8d324d8b04589350&#45;&gt;dir_3dbe57e65c50a7a17fba27939d267647 -->
<g id="edge4" class="edge">
<title>dir_022e325a8f259b9b8d324d8b04589350&#45;&gt;dir_3dbe57e65c50a7a17fba27939d267647</title>
<path fill="none" stroke="black" d="M123.62,-303.85C130.55,-264.62 153.89,-165.71 130,-88 127.02,-78.32 121.61,-68.82 116.27,-60.6"/>
<polygon fill="black" stroke="black" points="119.12,-58.56 110.63,-52.23 113.32,-62.48 119.12,-58.56"/>
<g id="a_edge4&#45;headlabel"><a xlink:href="dir_000027_000024.html" target="_top" xlink:title="7">
<text text-anchor="middle" x="123.49" y="-57.46" font-family="Helvetica,sans-Serif" font-size="10.00">7</text>
</a>
</g>
</g>
<!-- dir_58e3c3ebd10c56521cbe2e4a6271b724 -->
<g id="node4" class="node">
<title>dir_58e3c3ebd10c56521cbe2e4a6271b724</title>
<g id="a_node4"><a xlink:href="dir_58e3c3ebd10c56521cbe2e4a6271b724.html" target="_top" xlink:title="Images">
<polygon fill="none" stroke="black" points="90,-196 36,-196 36,-160 90,-160 90,-196"/>
<text text-anchor="middle" x="63" y="-175.5" font-family="Helvetica,sans-Serif" font-size="10.00">Images</text>
</a>
</g>
</g>
<!-- dir_093f3b7f7c7a61ef21fffb3d339f67e1&#45;&gt;dir_58e3c3ebd10c56521cbe2e4a6271b724 -->
<g id="edge1" class="edge">
<title>dir_093f3b7f7c7a61ef21fffb3d339f67e1&#45;&gt;dir_58e3c3ebd10c56521cbe2e4a6271b724</title>
<path fill="none" stroke="black" d="M64.61,-231.7C62.71,-223.98 61.16,-214.71 60.28,-206.11"/>
<polygon fill="black" stroke="black" points="63.77,-205.82 59.55,-196.1 56.78,-206.33 63.77,-205.82"/>
<g id="a_edge1&#45;headlabel"><a xlink:href="dir_000022_000026.html" target="_top" xlink:title="6">
<text text-anchor="middle" x="66.86" y="-206.7" font-family="Helvetica,sans-Serif" font-size="10.00">6</text>
</a>
</g>
</g>
<!-- dir_d665af80335f773f8bfcf2f56b3f3e8a -->
<g id="node5" class="node">
<title>dir_d665af80335f773f8bfcf2f56b3f3e8a</title>
<g id="a_node5"><a xlink:href="dir_d665af80335f773f8bfcf2f56b3f3e8a.html" target="_top" xlink:title="Scenes">
<polygon fill="#eeeeff" stroke="black" points="130,-124 76,-124 76,-88 130,-88 130,-124"/>
<text text-anchor="middle" x="103" y="-103.5" font-family="Helvetica,sans-Serif" font-size="10.00">Scenes</text>
</a>
</g>
</g>
<!-- dir_093f3b7f7c7a61ef21fffb3d339f67e1&#45;&gt;dir_d665af80335f773f8bfcf2f56b3f3e8a -->
<g id="edge2" class="edge">
<title>dir_093f3b7f7c7a61ef21fffb3d339f67e1&#45;&gt;dir_d665af80335f773f8bfcf2f56b3f3e8a</title>
<path fill="none" stroke="black" d="M75.9,-231.56C80.45,-221.55 86.8,-208.51 90,-196 95.2,-175.68 96.01,-151.91 96.97,-134.05"/>
<polygon fill="black" stroke="black" points="100.46,-134.23 97.6,-124.03 93.47,-133.79 100.46,-134.23"/>
<g id="a_edge2&#45;headlabel"><a xlink:href="dir_000022_000031.html" target="_top" xlink:title="8">
<text text-anchor="middle" x="103.07" y="-135.5" font-family="Helvetica,sans-Serif" font-size="10.00">8</text>
</a>
</g>
</g>
<!-- dir_3dbe57e65c50a7a17fba27939d267647&#45;&gt;dir_022e325a8f259b9b8d324d8b04589350 -->
<g id="edge11" class="edge">
<title>dir_3dbe57e65c50a7a17fba27939d267647&#45;&gt;dir_022e325a8f259b9b8d324d8b04589350</title>
<path fill="none" stroke="black" d="M126.59,-52.23C135.37,-61.97 143.95,-74.82 148,-88 170.17,-160.09 151.67,-250.43 136.45,-294.44"/>
<polygon fill="black" stroke="black" points="133.16,-293.26 132.98,-303.85 139.72,-295.68 133.16,-293.26"/>
<g id="a_edge11&#45;headlabel"><a xlink:href="dir_000024_000027.html" target="_top" xlink:title="3">
<text text-anchor="middle" x="131.74" y="-286.4" font-family="Helvetica,sans-Serif" font-size="10.00">3</text>
</a>
</g>
</g>
<!-- dir_3dbe57e65c50a7a17fba27939d267647&#45;&gt;dir_093f3b7f7c7a61ef21fffb3d339f67e1 -->
<g id="edge12" class="edge">
<title>dir_3dbe57e65c50a7a17fba27939d267647&#45;&gt;dir_093f3b7f7c7a61ef21fffb3d339f67e1</title>
<path fill="none" stroke="black" d="M88.01,-52.09C69.21,-74.85 38.09,-117.22 27,-160 22.99,-175.49 21.4,-181.01 27,-196 30.88,-206.38 37.8,-216.07 45.12,-224.26"/>
<polygon fill="black" stroke="black" points="42.73,-226.82 52.18,-231.62 47.78,-221.97 42.73,-226.82"/>
<g id="a_edge12&#45;headlabel"><a xlink:href="dir_000024_000022.html" target="_top" xlink:title="4">
<text text-anchor="middle" x="38.19" y="-223.69" font-family="Helvetica,sans-Serif" font-size="10.00">4</text>
</a>
</g>
</g>
<!-- dir_3dbe57e65c50a7a17fba27939d267647&#45;&gt;dir_d665af80335f773f8bfcf2f56b3f3e8a -->
<g id="edge13" class="edge">
<title>dir_3dbe57e65c50a7a17fba27939d267647&#45;&gt;dir_d665af80335f773f8bfcf2f56b3f3e8a</title>
<path fill="none" stroke="black" d="M108.9,-52.1C109.7,-59.79 109.94,-69.05 109.6,-77.67"/>
<polygon fill="black" stroke="black" points="106.11,-77.48 108.92,-87.7 113.09,-77.96 106.11,-77.48"/>
<g id="a_edge13&#45;headlabel"><a xlink:href="dir_000024_000031.html" target="_top" xlink:title="4">
<text text-anchor="middle" x="103.52" y="-71.2" font-family="Helvetica,sans-Serif" font-size="10.00">4</text>
</a>
</g>
</g>
<!-- dir_58e3c3ebd10c56521cbe2e4a6271b724&#45;&gt;dir_093f3b7f7c7a61ef21fffb3d339f67e1 -->
<g id="edge9" class="edge">
<title>dir_58e3c3ebd10c56521cbe2e4a6271b724&#45;&gt;dir_093f3b7f7c7a61ef21fffb3d339f67e1</title>
<path fill="none" stroke="black" d="M71.34,-196.1C73.24,-203.79 74.8,-213.05 75.7,-221.67"/>
<polygon fill="black" stroke="black" points="72.21,-221.98 76.44,-231.7 79.19,-221.46 72.21,-221.98"/>
<g id="a_edge9&#45;headlabel"><a xlink:href="dir_000026_000022.html" target="_top" xlink:title="5">
<text text-anchor="middle" x="69.12" y="-216.11" font-family="Helvetica,sans-Serif" font-size="10.00">5</text>
</a>
</g>
</g>
<!-- dir_58e3c3ebd10c56521cbe2e4a6271b724&#45;&gt;dir_d665af80335f773f8bfcf2f56b3f3e8a -->
<g id="edge10" class="edge">
<title>dir_58e3c3ebd10c56521cbe2e4a6271b724&#45;&gt;dir_d665af80335f773f8bfcf2f56b3f3e8a</title>
<path fill="none" stroke="black" d="M66.97,-159.7C70.78,-151.56 76.22,-141.69 81.78,-132.7"/>
<polygon fill="black" stroke="black" points="84.85,-134.4 87.33,-124.1 78.97,-130.61 84.85,-134.4"/>
<g id="a_edge10&#45;headlabel"><a xlink:href="dir_000026_000031.html" target="_top" xlink:title="4">
<text text-anchor="middle" x="85.28" y="-136.46" font-family="Helvetica,sans-Serif" font-size="10.00">4</text>
</a>
</g>
</g>
<!-- dir_d665af80335f773f8bfcf2f56b3f3e8a&#45;&gt;dir_022e325a8f259b9b8d324d8b04589350 -->
<g id="edge5" class="edge">
<title>dir_d665af80335f773f8bfcf2f56b3f3e8a&#45;&gt;dir_022e325a8f259b9b8d324d8b04589350</title>
<path fill="none" stroke="black" d="M104.61,-124.23C108.08,-161.32 116.27,-248.98 120.45,-293.71"/>
<polygon fill="black" stroke="black" points="116.98,-294.22 121.4,-303.85 123.95,-293.57 116.98,-294.22"/>
<g id="a_edge5&#45;headlabel"><a xlink:href="dir_000031_000027.html" target="_top" xlink:title="3">
<text text-anchor="middle" x="113.82" y="-288.4" font-family="Helvetica,sans-Serif" font-size="10.00">3</text>
</a>
</g>
</g>
<!-- dir_d665af80335f773f8bfcf2f56b3f3e8a&#45;&gt;dir_093f3b7f7c7a61ef21fffb3d339f67e1 -->
<g id="edge6" class="edge">
<title>dir_d665af80335f773f8bfcf2f56b3f3e8a&#45;&gt;dir_093f3b7f7c7a61ef21fffb3d339f67e1</title>
<path fill="none" stroke="black" d="M110.95,-124.03C114.16,-142.17 114.25,-171.58 108,-196 105.65,-205.19 101.6,-214.66 96.96,-223.01"/>
<polygon fill="black" stroke="black" points="93.97,-221.2 91.76,-231.56 99.95,-224.84 93.97,-221.2"/>
<g id="a_edge6&#45;headlabel"><a xlink:href="dir_000031_000022.html" target="_top" xlink:title="3">
<text text-anchor="middle" x="93.41" y="-214.15" font-family="Helvetica,sans-Serif" font-size="10.00">3</text>
</a>
</g>
</g>
<!-- dir_d665af80335f773f8bfcf2f56b3f3e8a&#45;&gt;dir_3dbe57e65c50a7a17fba27939d267647 -->
<g id="edge7" class="edge">
<title>dir_d665af80335f773f8bfcf2f56b3f3e8a&#45;&gt;dir_3dbe57e65c50a7a17fba27939d267647</title>
<path fill="none" stroke="black" d="M97.08,-87.7C96.29,-79.98 96.06,-70.71 96.4,-62.11"/>
<polygon fill="black" stroke="black" points="99.9,-62.32 97.1,-52.1 92.92,-61.84 99.9,-62.32"/>
<g id="a_edge7&#45;headlabel"><a xlink:href="dir_000031_000024.html" target="_top" xlink:title="1">
<text text-anchor="middle" x="102.48" y="-63.61" font-family="Helvetica,sans-Serif" font-size="10.00">1</text>
</a>
</g>
</g>
<!-- dir_d665af80335f773f8bfcf2f56b3f3e8a&#45;&gt;dir_58e3c3ebd10c56521cbe2e4a6271b724 -->
<g id="edge8" class="edge">
<title>dir_d665af80335f773f8bfcf2f56b3f3e8a&#45;&gt;dir_58e3c3ebd10c56521cbe2e4a6271b724</title>
<path fill="none" stroke="black" d="M99.12,-124.1C95.34,-132.21 89.92,-142.08 84.36,-151.08"/>
<polygon fill="black" stroke="black" points="81.28,-149.39 78.8,-159.7 87.16,-153.19 81.28,-149.39"/>
<g id="a_edge8&#45;headlabel"><a xlink:href="dir_000031_000026.html" target="_top" xlink:title="1">
<text text-anchor="middle" x="80.84" y="-142.34" font-family="Helvetica,sans-Serif" font-size="10.00">1</text>
</a>
</g>
</g>
</g>
</svg>
