<?xml version="1.0" encoding="UTF-8" standalone="no"?>
<!DOCTYPE svg PUBLIC "-//W3C//DTD SVG 1.1//EN"
 "http://www.w3.org/Graphics/SVG/1.1/DTD/svg11.dtd">
<!-- Generated by graphviz version 2.43.0 (0)
 -->
<!-- Title: /home/runner/work/Raytracer/Raytracer/src/Display Pages: 1 -->
<svg width="186pt" height="247pt"
 viewBox="0.00 0.00 186.00 247.00" xmlns="http://www.w3.org/2000/svg" xmlns:xlink="http://www.w3.org/1999/xlink">
<g id="graph0" class="graph" transform="scale(1 1) rotate(0) translate(4 243)">
<title>/home/runner/work/Raytracer/Raytracer/src/Display</title>
<polygon fill="white" stroke="transparent" points="-4,4 -4,-243 182,-243 182,4 -4,4"/>
<g id="clust1" class="cluster">
<title>clusterdir_68267d1309a1af8e8297ef4c3efbcdba</title>
<g id="a_clust1"><a xlink:href="dir_68267d1309a1af8e8297ef4c3efbcdba.html" target="_top" xlink:title="src">
<polygon fill="#ddddee" stroke="black" points="8,-8 8,-231 170,-231 170,-8 8,-8"/>
<text text-anchor="middle" x="89" y="-219" font-family="Helvetica,sans-Serif" font-size="10.00">src</text>
</a>
</g>
</g>
<g id="clust2" class="cluster">
<title>clusterdir_8b29354ea792f14f229ba6ab36888b3c</title>
<g id="a_clust2"><a xlink:href="dir_8b29354ea792f14f229ba6ab36888b3c.html" target="_top">
<polygon fill="#eeeeff" stroke="black" points="16,-152 16,-204 162,-204 162,-152 16,-152"/>
</a>
</g>
</g>
<!-- dir_d665af80335f773f8bfcf2f56b3f3e8a -->
<g id="node1" class="node">
<title>dir_d665af80335f773f8bfcf2f56b3f3e8a</title>
<g id="a_node1"><a xlink:href="dir_d665af80335f773f8bfcf2f56b3f3e8a.html" target="_top" xlink:title="Scenes">
<polygon fill="none" stroke="black" points="106,-124 52,-124 52,-88 106,-88 106,-124"/>
<text text-anchor="middle" x="79" y="-103.5" font-family="Helvetica,sans-Serif" font-size="10.00">Scenes</text>
</a>
</g>
</g>
<!-- dir_093f3b7f7c7a61ef21fffb3d339f67e1 -->
<g id="node2" class="node">
<title>dir_093f3b7f7c7a61ef21fffb3d339f67e1</title>
<g id="a_node2"><a xlink:href="dir_093f3b7f7c7a61ef21fffb3d339f67e1.html" target="_top" xlink:title="Entities">
<polygon fill="white" stroke="red" points="106,-52 52,-52 52,-16 106,-16 106,-52"/>
<text text-anchor="middle" x="79" y="-31.5" font-family="Helvetica,sans-Serif" font-size="10.00">Entities</text>
</a>
</g>
</g>
<!-- dir_d665af80335f773f8bfcf2f56b3f3e8a&#45;&gt;dir_093f3b7f7c7a61ef21fffb3d339f67e1 -->
<g id="edge2" class="edge">
<title>dir_d665af80335f773f8bfcf2f56b3f3e8a&#45;&gt;dir_093f3b7f7c7a61ef21fffb3d339f67e1</title>
<path fill="none" stroke="black" d="M73.08,-87.7C72.29,-79.98 72.06,-70.71 72.4,-62.11"/>
<polygon fill="black" stroke="black" points="75.9,-62.32 73.1,-52.1 68.92,-61.84 75.9,-62.32"/>
<g id="a_edge2&#45;headlabel"><a xlink:href="dir_000040_000031.html" target="_top" xlink:title="3">
<text text-anchor="middle" x="78.48" y="-63.61" font-family="Helvetica,sans-Serif" font-size="10.00">3</text>
</a>
</g>
</g>
<!-- dir_093f3b7f7c7a61ef21fffb3d339f67e1&#45;&gt;dir_d665af80335f773f8bfcf2f56b3f3e8a -->
<g id="edge1" class="edge">
<title>dir_093f3b7f7c7a61ef21fffb3d339f67e1&#45;&gt;dir_d665af80335f773f8bfcf2f56b3f3e8a</title>
<path fill="none" stroke="black" d="M84.9,-52.1C85.7,-59.79 85.94,-69.05 85.6,-77.67"/>
<polygon fill="black" stroke="black" points="82.11,-77.48 84.92,-87.7 89.09,-77.96 82.11,-77.48"/>
<g id="a_edge1&#45;headlabel"><a xlink:href="dir_000031_000040.html" target="_top" xlink:title="8">
<text text-anchor="middle" x="79.52" y="-71.2" font-family="Helvetica,sans-Serif" font-size="10.00">8</text>
</a>
</g>
</g>
<!-- dir_8b29354ea792f14f229ba6ab36888b3c -->
<g id="node3" class="node">
<title>dir_8b29354ea792f14f229ba6ab36888b3c</title>
<text text-anchor="middle" x="51" y="-175.5" font-family="Helvetica,sans-Serif" font-size="10.00">Display</text>
</g>
<!-- dir_8b29354ea792f14f229ba6ab36888b3c&#45;&gt;dir_d665af80335f773f8bfcf2f56b3f3e8a -->
<g id="edge3" class="edge">
<title>dir_8b29354ea792f14f229ba6ab36888b3c&#45;&gt;dir_d665af80335f773f8bfcf2f56b3f3e8a</title>
<path fill="none" stroke="black" d="M57.92,-159.7C61.07,-151.81 64.88,-142.3 68.38,-133.55"/>
<polygon fill="black" stroke="black" points="71.69,-134.69 72.16,-124.1 65.19,-132.09 71.69,-134.69"/>
<g id="a_edge3&#45;headlabel"><a xlink:href="dir_000029_000040.html" target="_top" xlink:title="4">
<text text-anchor="middle" x="73" y="-136.58" font-family="Helvetica,sans-Serif" font-size="10.00">4</text>
</a>
</g>
</g>
<!-- dir_03812256f86b8612ea29c117ed644088 -->
<g id="node4" class="node">
<title>dir_03812256f86b8612ea29c117ed644088</title>
<g id="a_node4"><a xlink:href="dir_03812256f86b8612ea29c117ed644088.html" target="_top" xlink:title="Modules">
<polygon fill="white" stroke="black" points="154,-196 96,-196 96,-160 154,-160 154,-196"/>
<text text-anchor="middle" x="125" y="-175.5" font-family="Helvetica,sans-Serif" font-size="10.00">Modules</text>
</a>
</g>
</g>
<!-- dir_03812256f86b8612ea29c117ed644088&#45;&gt;dir_d665af80335f773f8bfcf2f56b3f3e8a -->
<g id="edge5" class="edge">
<title>dir_03812256f86b8612ea29c117ed644088&#45;&gt;dir_d665af80335f773f8bfcf2f56b3f3e8a</title>
<path fill="none" stroke="black" d="M113.63,-159.7C108.28,-151.56 101.8,-141.69 95.89,-132.7"/>
<polygon fill="black" stroke="black" points="98.66,-130.54 90.24,-124.1 92.81,-134.38 98.66,-130.54"/>
<g id="a_edge5&#45;headlabel"><a xlink:href="dir_000030_000040.html" target="_top" xlink:title="2">
<text text-anchor="middle" x="103" y="-129.48" font-family="Helvetica,sans-Serif" font-size="10.00">2</text>
</a>
</g>
</g>
<!-- dir_03812256f86b8612ea29c117ed644088&#45;&gt;dir_093f3b7f7c7a61ef21fffb3d339f67e1 -->
<g id="edge4" class="edge">
<title>dir_03812256f86b8612ea29c117ed644088&#45;&gt;dir_093f3b7f7c7a61ef21fffb3d339f67e1</title>
<path fill="none" stroke="black" d="M125.48,-159.71C125.44,-141.35 123.79,-111.77 115,-88 111.45,-78.4 105.8,-68.85 100.02,-60.56"/>
<polygon fill="black" stroke="black" points="102.77,-58.4 94.03,-52.42 97.14,-62.55 102.77,-58.4"/>
<g id="a_edge4&#45;headlabel"><a xlink:href="dir_000030_000031.html" target="_top" xlink:title="8">
<text text-anchor="middle" x="107.19" y="-57.11" font-family="Helvetica,sans-Serif" font-size="10.00">8</text>
</a>
</g>
</g>
</g>
</svg>
