<?xml version="1.0" encoding="UTF-8" standalone="no"?>
<!DOCTYPE svg PUBLIC "-//W3C//DTD SVG 1.1//EN"
 "http://www.w3.org/Graphics/SVG/1.1/DTD/svg11.dtd">
<!-- Generated by graphviz version 2.43.0 (0)
 -->
<!-- Title: /home/runner/work/Raytracer/Raytracer/src/Display/Modules Pages: 1 -->
<svg width="108pt" height="223pt"
 viewBox="0.00 0.00 108.00 223.00" xmlns="http://www.w3.org/2000/svg" xmlns:xlink="http://www.w3.org/1999/xlink">
<g id="graph0" class="graph" transform="scale(1 1) rotate(0) translate(4 219)">
<title>/home/runner/work/Raytracer/Raytracer/src/Display/Modules</title>
<polygon fill="white" stroke="transparent" points="-4,4 -4,-219 104,-219 104,4 -4,4"/>
<g id="clust1" class="cluster">
<title>clusterdir_8b29354ea792f14f229ba6ab36888b3c</title>
<g id="a_clust1"><a xlink:href="dir_8b29354ea792f14f229ba6ab36888b3c.html" target="_top" xlink:title="Display">
<polygon fill="#ddddee" stroke="black" points="18,-136 18,-207 92,-207 92,-136 18,-136"/>
<text text-anchor="middle" x="55" y="-195" font-family="Helvetica,sans-Serif" font-size="10.00">Display</text>
</a>
</g>
</g>
<!-- dir_03812256f86b8612ea29c117ed644088 -->
<g id="node1" class="node">
<title>dir_03812256f86b8612ea29c117ed644088</title>
<g id="a_node1"><a xlink:href="dir_03812256f86b8612ea29c117ed644088.html" target="_top" xlink:title="Modules">
<polygon fill="#eeeeff" stroke="black" points="84,-180 26,-180 26,-144 84,-144 84,-180"/>
<text text-anchor="middle" x="55" y="-159.5" font-family="Helvetica,sans-Serif" font-size="10.00">Modules</text>
</a>
</g>
</g>
<!-- dir_093f3b7f7c7a61ef21fffb3d339f67e1 -->
<g id="node2" class="node">
<title>dir_093f3b7f7c7a61ef21fffb3d339f67e1</title>
<g id="a_node2"><a xlink:href="dir_093f3b7f7c7a61ef21fffb3d339f67e1.html" target="_top" xlink:title="Entities">
<polygon fill="white" stroke="red" points="54,-108 0,-108 0,-72 54,-72 54,-108"/>
<text text-anchor="middle" x="27" y="-87.5" font-family="Helvetica,sans-Serif" font-size="10.00">Entities</text>
</a>
</g>
</g>
<!-- dir_03812256f86b8612ea29c117ed644088&#45;&gt;dir_093f3b7f7c7a61ef21fffb3d339f67e1 -->
<g id="edge3" class="edge">
<title>dir_03812256f86b8612ea29c117ed644088&#45;&gt;dir_093f3b7f7c7a61ef21fffb3d339f67e1</title>
<path fill="none" stroke="black" d="M48.08,-143.7C44.93,-135.81 41.12,-126.3 37.62,-117.55"/>
<polygon fill="black" stroke="black" points="40.81,-116.09 33.84,-108.1 34.31,-118.69 40.81,-116.09"/>
<g id="a_edge3&#45;headlabel"><a xlink:href="dir_000029_000030.html" target="_top" xlink:title="8">
<text text-anchor="middle" x="44.78" y="-115.87" font-family="Helvetica,sans-Serif" font-size="10.00">8</text>
</a>
</g>
</g>
<!-- dir_d665af80335f773f8bfcf2f56b3f3e8a -->
<g id="node3" class="node">
<title>dir_d665af80335f773f8bfcf2f56b3f3e8a</title>
<g id="a_node3"><a xlink:href="dir_d665af80335f773f8bfcf2f56b3f3e8a.html" target="_top" xlink:title="Scenes">
<polygon fill="none" stroke="black" points="54,-36 0,-36 0,0 54,0 54,-36"/>
<text text-anchor="middle" x="27" y="-15.5" font-family="Helvetica,sans-Serif" font-size="10.00">Scenes</text>
</a>
</g>
</g>
<!-- dir_03812256f86b8612ea29c117ed644088&#45;&gt;dir_d665af80335f773f8bfcf2f56b3f3e8a -->
<g id="edge4" class="edge">
<title>dir_03812256f86b8612ea29c117ed644088&#45;&gt;dir_d665af80335f773f8bfcf2f56b3f3e8a</title>
<path fill="none" stroke="black" d="M60.34,-143.87C65.16,-125.64 70.43,-96.17 63,-72 59.99,-62.22 54.49,-52.62 48.68,-44.33"/>
<polygon fill="black" stroke="black" points="51.41,-42.13 42.61,-36.23 45.81,-46.33 51.41,-42.13"/>
<g id="a_edge4&#45;headlabel"><a xlink:href="dir_000029_000039.html" target="_top" xlink:title="2">
<text text-anchor="middle" x="55.83" y="-40.8" font-family="Helvetica,sans-Serif" font-size="10.00">2</text>
</a>
</g>
</g>
<!-- dir_093f3b7f7c7a61ef21fffb3d339f67e1&#45;&gt;dir_d665af80335f773f8bfcf2f56b3f3e8a -->
<g id="edge1" class="edge">
<title>dir_093f3b7f7c7a61ef21fffb3d339f67e1&#45;&gt;dir_d665af80335f773f8bfcf2f56b3f3e8a</title>
<path fill="none" stroke="black" d="M21.08,-71.7C20.29,-63.98 20.06,-54.71 20.4,-46.11"/>
<polygon fill="black" stroke="black" points="23.9,-46.32 21.1,-36.1 16.92,-45.84 23.9,-46.32"/>
<g id="a_edge1&#45;headlabel"><a xlink:href="dir_000030_000039.html" target="_top" xlink:title="8">
<text text-anchor="middle" x="26.48" y="-47.61" font-family="Helvetica,sans-Serif" font-size="10.00">8</text>
</a>
</g>
</g>
<!-- dir_d665af80335f773f8bfcf2f56b3f3e8a&#45;&gt;dir_093f3b7f7c7a61ef21fffb3d339f67e1 -->
<g id="edge2" class="edge">
<title>dir_d665af80335f773f8bfcf2f56b3f3e8a&#45;&gt;dir_093f3b7f7c7a61ef21fffb3d339f67e1</title>
<path fill="none" stroke="black" d="M32.9,-36.1C33.7,-43.79 33.94,-53.05 33.6,-61.67"/>
<polygon fill="black" stroke="black" points="30.11,-61.48 32.92,-71.7 37.09,-61.96 30.11,-61.48"/>
<g id="a_edge2&#45;headlabel"><a xlink:href="dir_000039_000030.html" target="_top" xlink:title="3">
<text text-anchor="middle" x="27.52" y="-55.2" font-family="Helvetica,sans-Serif" font-size="10.00">3</text>
</a>
</g>
</g>
</g>
</svg>
