<?xml version="1.0" encoding="UTF-8" standalone="no"?>
<!DOCTYPE svg PUBLIC "-//W3C//DTD SVG 1.1//EN"
 "http://www.w3.org/Graphics/SVG/1.1/DTD/svg11.dtd">
<!-- Generated by graphviz version 2.43.0 (0)
 -->
<!-- Title: Graphical Class Hierarchy Pages: 1 -->
<svg width="378pt" height="259pt"
 viewBox="0.00 0.00 378.00 259.00" xmlns="http://www.w3.org/2000/svg" xmlns:xlink="http://www.w3.org/1999/xlink">
<g id="graph0" class="graph" transform="scale(1 1) rotate(0) translate(4 255)">
<title>Graphical Class Hierarchy</title>
<polygon fill="white" stroke="transparent" points="-4,4 -4,-255 374,-255 374,4 -4,4"/>
<!-- Node0 -->
<g id="node1" class="node">
<title>Node0</title>
<g id="a_node1"><a xlink:href="a01447.html" target="_top" xlink:title="The IMaterialCreator class.">
<polygon fill="white" stroke="black" points="0,-110.5 0,-140.5 154,-140.5 154,-110.5 0,-110.5"/>
<text text-anchor="start" x="8" y="-128.5" font-family="Helvetica,sans-Serif" font-size="10.00">RayTracer::Plugins</text>
<text text-anchor="middle" x="77" y="-117.5" font-family="Helvetica,sans-Serif" font-size="10.00">::Materials::IMaterialCreator</text>
</a>
</g>
</g>
<!-- Node1 -->
<g id="node2" class="node">
<title>Node1</title>
<g id="a_node2"><a xlink:href="a01611.html" target="_top" xlink:title=" ">
<polygon fill="white" stroke="black" points="190,-220.5 190,-250.5 370,-250.5 370,-220.5 190,-220.5"/>
<text text-anchor="start" x="198" y="-238.5" font-family="Helvetica,sans-Serif" font-size="10.00">RayTracer::PluginsExt</text>
<text text-anchor="middle" x="280" y="-227.5" font-family="Helvetica,sans-Serif" font-size="10.00">::ChessBoard::ChessBoardCreator</text>
</a>
</g>
</g>
<!-- Node0&#45;&gt;Node1 -->
<g id="edge1" class="edge">
<title>Node0&#45;&gt;Node1</title>
<path fill="none" stroke="midnightblue" d="M101.39,-147.48C122.91,-166.61 156.47,-193.83 190,-210.5 197.62,-214.29 205.89,-217.58 214.23,-220.42"/>
<polygon fill="midnightblue" stroke="midnightblue" points="103.53,-144.69 93.76,-140.58 98.83,-149.88 103.53,-144.69"/>
</g>
<!-- Node2 -->
<g id="node3" class="node">
<title>Node2</title>
<g id="a_node3"><a xlink:href="a01671.html" target="_top" xlink:title=" ">
<polygon fill="white" stroke="black" points="201,-160 201,-201 359,-201 359,-160 201,-160"/>
<text text-anchor="start" x="209" y="-189" font-family="Helvetica,sans-Serif" font-size="10.00">RayTracer::PluginsExt</text>
<text text-anchor="start" x="209" y="-178" font-family="Helvetica,sans-Serif" font-size="10.00">::PlainMaterial::PlainMaterial</text>
<text text-anchor="middle" x="280" y="-167" font-family="Helvetica,sans-Serif" font-size="10.00">Creator</text>
</a>
</g>
</g>
<!-- Node0&#45;&gt;Node2 -->
<g id="edge2" class="edge">
<title>Node0&#45;&gt;Node2</title>
<path fill="none" stroke="midnightblue" d="M142.61,-143.18C162.11,-148.51 183.68,-154.42 203.8,-159.92"/>
<polygon fill="midnightblue" stroke="midnightblue" points="143.49,-139.79 132.92,-140.53 141.65,-146.54 143.49,-139.79"/>
</g>
<!-- Node3 -->
<g id="node4" class="node">
<title>Node3</title>
<g id="a_node4"><a xlink:href="a01691.html" target="_top" xlink:title=" ">
<polygon fill="white" stroke="black" points="197.5,-110.5 197.5,-140.5 362.5,-140.5 362.5,-110.5 197.5,-110.5"/>
<text text-anchor="start" x="205.5" y="-128.5" font-family="Helvetica,sans-Serif" font-size="10.00">RayTracer::PluginsExt</text>
<text text-anchor="middle" x="280" y="-117.5" font-family="Helvetica,sans-Serif" font-size="10.00">::Refraction::RefractionCreator</text>
</a>
</g>
</g>
<!-- Node0&#45;&gt;Node3 -->
<g id="edge3" class="edge">
<title>Node0&#45;&gt;Node3</title>
<path fill="none" stroke="midnightblue" d="M164.29,-125.5C175.28,-125.5 186.5,-125.5 197.42,-125.5"/>
<polygon fill="midnightblue" stroke="midnightblue" points="164.28,-122 154.28,-125.5 164.28,-129 164.28,-122"/>
</g>
<!-- Node4 -->
<g id="node5" class="node">
<title>Node4</title>
<g id="a_node5"><a xlink:href="a01723.html" target="_top" xlink:title=" ">
<polygon fill="white" stroke="black" points="201.5,-50 201.5,-91 358.5,-91 358.5,-50 201.5,-50"/>
<text text-anchor="start" x="209.5" y="-79" font-family="Helvetica,sans-Serif" font-size="10.00">RayTracer::PluginsExt</text>
<text text-anchor="start" x="209.5" y="-68" font-family="Helvetica,sans-Serif" font-size="10.00">::Transparency::Transparency</text>
<text text-anchor="middle" x="280" y="-57" font-family="Helvetica,sans-Serif" font-size="10.00">Creator</text>
</a>
</g>
</g>
<!-- Node0&#45;&gt;Node4 -->
<g id="edge4" class="edge">
<title>Node0&#45;&gt;Node4</title>
<path fill="none" stroke="midnightblue" d="M142.61,-107.82C162.11,-102.49 183.68,-96.58 203.8,-91.08"/>
<polygon fill="midnightblue" stroke="midnightblue" points="141.65,-104.46 132.92,-110.47 143.49,-111.21 141.65,-104.46"/>
</g>
<!-- Node5 -->
<g id="node6" class="node">
<title>Node5</title>
<g id="a_node6"><a xlink:href="a01739.html" target="_top" xlink:title=" ">
<polygon fill="white" stroke="black" points="219,-0.5 219,-30.5 341,-30.5 341,-0.5 219,-0.5"/>
<text text-anchor="start" x="227" y="-18.5" font-family="Helvetica,sans-Serif" font-size="10.00">RayTracer::PluginsExt</text>
<text text-anchor="middle" x="280" y="-7.5" font-family="Helvetica,sans-Serif" font-size="10.00">::Zebra::ZebraCreator</text>
</a>
</g>
</g>
<!-- Node0&#45;&gt;Node5 -->
<g id="edge5" class="edge">
<title>Node0&#45;&gt;Node5</title>
<path fill="none" stroke="midnightblue" d="M101.39,-103.52C122.91,-84.39 156.47,-57.17 190,-40.5 199.05,-36 209.04,-32.2 218.95,-29.03"/>
<polygon fill="midnightblue" stroke="midnightblue" points="98.83,-101.12 93.76,-110.42 103.53,-106.31 98.83,-101.12"/>
</g>
</g>
</svg>
