<?xml version="1.0" encoding="UTF-8" standalone="no"?>
<!DOCTYPE svg PUBLIC "-//W3C//DTD SVG 1.1//EN"
 "http://www.w3.org/Graphics/SVG/1.1/DTD/svg11.dtd">
<!-- Generated by graphviz version 2.43.0 (0)
 -->
<!-- Title: Graphical Class Hierarchy Pages: 1 -->
<svg width="336pt" height="198pt"
 viewBox="0.00 0.00 336.00 198.00" xmlns="http://www.w3.org/2000/svg" xmlns:xlink="http://www.w3.org/1999/xlink">
<g id="graph0" class="graph" transform="scale(1 1) rotate(0) translate(4 194)">
<title>Graphical Class Hierarchy</title>
<polygon fill="white" stroke="transparent" points="-4,4 -4,-194 332,-194 332,4 -4,4"/>
<!-- Node0 -->
<g id="node1" class="node">
<title>Node0</title>
<g id="a_node1"><a xlink:href="a01267.html" target="_top" xlink:title="The IMaterial class.">
<polygon fill="white" stroke="black" points="0,-82.5 0,-112.5 107,-112.5 107,-82.5 0,-82.5"/>
<text text-anchor="start" x="8" y="-100.5" font-family="Helvetica,sans-Serif" font-size="10.00">RayTracer::Entities</text>
<text text-anchor="middle" x="53.5" y="-89.5" font-family="Helvetica,sans-Serif" font-size="10.00">::IMaterial</text>
</a>
</g>
</g>
<!-- Node1 -->
<g id="node2" class="node">
<title>Node1</title>
<g id="a_node2"><a xlink:href="a01575.html" target="_top" xlink:title=" ">
<polygon fill="white" stroke="black" points="143,-159.5 143,-189.5 328,-189.5 328,-159.5 143,-159.5"/>
<text text-anchor="start" x="151" y="-177.5" font-family="Helvetica,sans-Serif" font-size="10.00">RayTracer::PluginsExt</text>
<text text-anchor="middle" x="235.5" y="-166.5" font-family="Helvetica,sans-Serif" font-size="10.00">::ChessBoard::ChessBoardMaterial</text>
</a>
</g>
</g>
<!-- Node0&#45;&gt;Node1 -->
<g id="edge1" class="edge">
<title>Node0&#45;&gt;Node1</title>
<path fill="none" stroke="midnightblue" d="M84.48,-118.37C101.11,-129.18 122.52,-141.89 143,-150.5 150.87,-153.81 159.32,-156.77 167.79,-159.37"/>
<polygon fill="midnightblue" stroke="midnightblue" points="86.04,-115.2 75.77,-112.59 82.17,-121.04 86.04,-115.2"/>
</g>
<!-- Node2 -->
<g id="node3" class="node">
<title>Node2</title>
<g id="a_node3"><a xlink:href="a01627.html" target="_top" xlink:title=" ">
<polygon fill="white" stroke="black" points="156.5,-110.5 156.5,-140.5 314.5,-140.5 314.5,-110.5 156.5,-110.5"/>
<text text-anchor="start" x="164.5" y="-128.5" font-family="Helvetica,sans-Serif" font-size="10.00">RayTracer::PluginsExt</text>
<text text-anchor="middle" x="235.5" y="-117.5" font-family="Helvetica,sans-Serif" font-size="10.00">::PlainMaterial::PlainMaterial</text>
</a>
</g>
</g>
<!-- Node0&#45;&gt;Node2 -->
<g id="edge2" class="edge">
<title>Node0&#45;&gt;Node2</title>
<path fill="none" stroke="midnightblue" d="M117.05,-107.23C129.76,-109.21 143.29,-111.31 156.46,-113.36"/>
<polygon fill="midnightblue" stroke="midnightblue" points="117.47,-103.75 107.05,-105.67 116.39,-110.67 117.47,-103.75"/>
</g>
<!-- Node3 -->
<g id="node4" class="node">
<title>Node3</title>
<g id="a_node4"><a xlink:href="a01679.html" target="_top" xlink:title=" ">
<polygon fill="white" stroke="black" points="157,-50 157,-91 314,-91 314,-50 157,-50"/>
<text text-anchor="start" x="165" y="-79" font-family="Helvetica,sans-Serif" font-size="10.00">RayTracer::PluginsExt</text>
<text text-anchor="start" x="165" y="-68" font-family="Helvetica,sans-Serif" font-size="10.00">::Transparency::Transparency</text>
<text text-anchor="middle" x="235.5" y="-57" font-family="Helvetica,sans-Serif" font-size="10.00">Material</text>
</a>
</g>
</g>
<!-- Node0&#45;&gt;Node3 -->
<g id="edge3" class="edge">
<title>Node0&#45;&gt;Node3</title>
<path fill="none" stroke="midnightblue" d="M117.12,-88.11C129.92,-86.19 143.54,-84.14 156.8,-82.16"/>
<polygon fill="midnightblue" stroke="midnightblue" points="116.42,-84.67 107.05,-89.62 117.46,-91.6 116.42,-84.67"/>
</g>
<!-- Node4 -->
<g id="node5" class="node">
<title>Node4</title>
<g id="a_node5"><a xlink:href="a01695.html" target="_top" xlink:title=" ">
<polygon fill="white" stroke="black" points="172.5,-0.5 172.5,-30.5 298.5,-30.5 298.5,-0.5 172.5,-0.5"/>
<text text-anchor="start" x="180.5" y="-18.5" font-family="Helvetica,sans-Serif" font-size="10.00">RayTracer::PluginsExt</text>
<text text-anchor="middle" x="235.5" y="-7.5" font-family="Helvetica,sans-Serif" font-size="10.00">::Zebra::ZebraMaterial</text>
</a>
</g>
</g>
<!-- Node0&#45;&gt;Node4 -->
<g id="edge4" class="edge">
<title>Node0&#45;&gt;Node4</title>
<path fill="none" stroke="midnightblue" d="M82.5,-76.31C99.31,-64.41 121.54,-50.07 143,-40.5 152.17,-36.41 162.17,-32.85 172.08,-29.8"/>
<polygon fill="midnightblue" stroke="midnightblue" points="80.29,-73.58 74.23,-82.27 84.39,-79.26 80.29,-73.58"/>
</g>
</g>
</svg>
