<?xml version="1.0" encoding="UTF-8" standalone="no"?>
<!DOCTYPE svg PUBLIC "-//W3C//DTD SVG 1.1//EN"
 "http://www.w3.org/Graphics/SVG/1.1/DTD/svg11.dtd">
<!-- Generated by graphviz version 2.43.0 (0)
 -->
<!-- Title: Graphical Class Hierarchy Pages: 1 -->
<svg width="322pt" height="110pt"
 viewBox="0.00 0.00 322.00 110.00" xmlns="http://www.w3.org/2000/svg" xmlns:xlink="http://www.w3.org/1999/xlink">
<g id="graph0" class="graph" transform="scale(1 1) rotate(0) translate(4 106)">
<title>Graphical Class Hierarchy</title>
<polygon fill="white" stroke="transparent" points="-4,4 -4,-106 318,-106 318,4 -4,4"/>
<!-- Node0 -->
<g id="node1" class="node">
<title>Node0</title>
<g id="a_node1"><a xlink:href="a01333.html" target="_top" xlink:title="The IFilter class.">
<polygon fill="white" stroke="black" points="0,-36 0,-66 101,-66 101,-36 0,-36"/>
<text text-anchor="start" x="8" y="-54" font-family="Helvetica,sans-Serif" font-size="10.00">RayTracer::Filters</text>
<text text-anchor="middle" x="50.5" y="-43" font-family="Helvetica,sans-Serif" font-size="10.00">::IFilter</text>
</a>
</g>
</g>
<!-- Node1 -->
<g id="node2" class="node">
<title>Node1</title>
<g id="a_node2"><a xlink:href="a01541.html" target="_top" xlink:title=" ">
<polygon fill="white" stroke="black" points="163,-60.5 163,-101.5 288,-101.5 288,-60.5 163,-60.5"/>
<text text-anchor="start" x="171" y="-89.5" font-family="Helvetica,sans-Serif" font-size="10.00">RayTracer::PluginsExt</text>
<text text-anchor="start" x="171" y="-78.5" font-family="Helvetica,sans-Serif" font-size="10.00">::AntiAliasing::SSAAx4</text>
<text text-anchor="middle" x="225.5" y="-67.5" font-family="Helvetica,sans-Serif" font-size="10.00">::SSAAx4Filter</text>
</a>
</g>
</g>
<!-- Node0&#45;&gt;Node1 -->
<g id="edge1" class="edge">
<title>Node0&#45;&gt;Node1</title>
<path fill="none" stroke="midnightblue" d="M111.25,-61.36C127.94,-64.26 146.11,-67.41 162.91,-70.32"/>
<polygon fill="midnightblue" stroke="midnightblue" points="111.53,-57.86 101.07,-59.6 110.33,-64.75 111.53,-57.86"/>
</g>
<!-- Node2 -->
<g id="node3" class="node">
<title>Node2</title>
<g id="a_node3"><a xlink:href="a01549.html" target="_top" xlink:title=" ">
<polygon fill="white" stroke="black" points="137,-0.5 137,-41.5 314,-41.5 314,-0.5 137,-0.5"/>
<text text-anchor="start" x="145" y="-29.5" font-family="Helvetica,sans-Serif" font-size="10.00">RayTracer::PluginsExt</text>
<text text-anchor="start" x="145" y="-18.5" font-family="Helvetica,sans-Serif" font-size="10.00">::BlackAndWhite::BlackAndWhite</text>
<text text-anchor="middle" x="225.5" y="-7.5" font-family="Helvetica,sans-Serif" font-size="10.00">Filter</text>
</a>
</g>
</g>
<!-- Node0&#45;&gt;Node2 -->
<g id="edge2" class="edge">
<title>Node0&#45;&gt;Node2</title>
<path fill="none" stroke="midnightblue" d="M111,-40.68C119.31,-39.24 127.99,-37.74 136.69,-36.23"/>
<polygon fill="midnightblue" stroke="midnightblue" points="110.33,-37.25 101.07,-42.4 111.53,-44.14 110.33,-37.25"/>
</g>
</g>
</svg>
