<?xml version="1.0" encoding="UTF-8" standalone="no"?>
<!DOCTYPE svg PUBLIC "-//W3C//DTD SVG 1.1//EN"
 "http://www.w3.org/Graphics/SVG/1.1/DTD/svg11.dtd">
<!-- Generated by graphviz version 2.43.0 (0)
 -->
<!-- Title: Graphical Class Hierarchy Pages: 1 -->
<svg width="343pt" height="110pt"
 viewBox="0.00 0.00 343.00 110.00" xmlns="http://www.w3.org/2000/svg" xmlns:xlink="http://www.w3.org/1999/xlink">
<g id="graph0" class="graph" transform="scale(1 1) rotate(0) translate(4 106)">
<title>Graphical Class Hierarchy</title>
<polygon fill="white" stroke="transparent" points="-4,4 -4,-106 339,-106 339,4 -4,4"/>
<!-- Node0 -->
<g id="node1" class="node">
<title>Node0</title>
<g id="a_node1"><a xlink:href="a01453.html" target="_top" xlink:title="The IFilterCreator class.">
<polygon fill="white" stroke="black" points="0,-36 0,-66 122,-66 122,-36 0,-36"/>
<text text-anchor="start" x="8" y="-54" font-family="Helvetica,sans-Serif" font-size="10.00">RayTracer::Plugins</text>
<text text-anchor="middle" x="61" y="-43" font-family="Helvetica,sans-Serif" font-size="10.00">::Filters::IFilterCreator</text>
</a>
</g>
</g>
<!-- Node1 -->
<g id="node2" class="node">
<title>Node1</title>
<g id="a_node2"><a xlink:href="a01565.html" target="_top" xlink:title=" ">
<polygon fill="white" stroke="black" points="184,-60.5 184,-101.5 309,-101.5 309,-60.5 184,-60.5"/>
<text text-anchor="start" x="192" y="-89.5" font-family="Helvetica,sans-Serif" font-size="10.00">RayTracer::PluginsExt</text>
<text text-anchor="start" x="192" y="-78.5" font-family="Helvetica,sans-Serif" font-size="10.00">::AntiAliasing::SSAAx4</text>
<text text-anchor="middle" x="246.5" y="-67.5" font-family="Helvetica,sans-Serif" font-size="10.00">::SSAAx4Creator</text>
</a>
</g>
</g>
<!-- Node0&#45;&gt;Node1 -->
<g id="edge1" class="edge">
<title>Node0&#45;&gt;Node1</title>
<path fill="none" stroke="midnightblue" d="M131.97,-62.44C149,-65.22 167.09,-68.18 183.71,-70.9"/>
<polygon fill="midnightblue" stroke="midnightblue" points="132.52,-58.98 122.08,-60.82 131.39,-65.89 132.52,-58.98"/>
</g>
<!-- Node2 -->
<g id="node3" class="node">
<title>Node2</title>
<g id="a_node3"><a xlink:href="a01573.html" target="_top" xlink:title=" ">
<polygon fill="white" stroke="black" points="158,-0.5 158,-41.5 335,-41.5 335,-0.5 158,-0.5"/>
<text text-anchor="start" x="166" y="-29.5" font-family="Helvetica,sans-Serif" font-size="10.00">RayTracer::PluginsExt</text>
<text text-anchor="start" x="166" y="-18.5" font-family="Helvetica,sans-Serif" font-size="10.00">::BlackAndWhite::BlackAndWhite</text>
<text text-anchor="middle" x="246.5" y="-7.5" font-family="Helvetica,sans-Serif" font-size="10.00">Creator</text>
</a>
</g>
</g>
<!-- Node0&#45;&gt;Node2 -->
<g id="edge2" class="edge">
<title>Node0&#45;&gt;Node2</title>
<path fill="none" stroke="midnightblue" d="M132.22,-39.52C140.66,-38.14 149.35,-36.72 157.99,-35.31"/>
<polygon fill="midnightblue" stroke="midnightblue" points="131.39,-36.11 122.08,-41.18 132.52,-43.02 131.39,-36.11"/>
</g>
</g>
</svg>
