<?xml version="1.0" encoding="UTF-8" standalone="no"?>
<!DOCTYPE svg PUBLIC "-//W3C//DTD SVG 1.1//EN"
 "http://www.w3.org/Graphics/SVG/1.1/DTD/svg11.dtd">
<!-- Generated by graphviz version 2.43.0 (0)
 -->
<!-- Title: Graphical Class Hierarchy Pages: 1 -->
<svg width="521pt" height="678pt"
 viewBox="0.00 0.00 521.00 678.00" xmlns="http://www.w3.org/2000/svg" xmlns:xlink="http://www.w3.org/1999/xlink">
<g id="graph0" class="graph" transform="scale(1 1) rotate(0) translate(4 674)">
<title>Graphical Class Hierarchy</title>
<polygon fill="white" stroke="transparent" points="-4,4 -4,-674 517,-674 517,4 -4,4"/>
<!-- Node4 -->
<g id="node1" class="node">
<title>Node4</title>
<g id="a_node1"><a xlink:title=" ">
<polygon fill="white" stroke="#bfbfbf" points="0,-334 0,-353 86,-353 86,-334 0,-334"/>
<text text-anchor="middle" x="43" y="-341" font-family="Helvetica,sans-Serif" font-size="10.00">std::exception</text>
</a>
</g>
</g>
<!-- Node0 -->
<g id="node2" class="node">
<title>Node0</title>
<g id="a_node2"><a xlink:href="a01268.html" target="_top" xlink:title=" ">
<polygon fill="white" stroke="black" points="148.5,-639.5 148.5,-669.5 264.5,-669.5 264.5,-639.5 148.5,-639.5"/>
<text text-anchor="start" x="156.5" y="-657.5" font-family="Helvetica,sans-Serif" font-size="10.00">RayTracer::Display</text>
<text text-anchor="middle" x="206.5" y="-646.5" font-family="Helvetica,sans-Serif" font-size="10.00">::Display::StartFailed</text>
</a>
</g>
</g>
<!-- Node4&#45;&gt;Node0 -->
<g id="edge1" class="edge">
<title>Node4&#45;&gt;Node0</title>
<path fill="none" stroke="midnightblue" d="M43.22,-363.11C42.31,-414.54 47.19,-554.6 122,-630.5 129.2,-637.81 138.47,-642.92 148.19,-646.5"/>
<polygon fill="midnightblue" stroke="midnightblue" points="46.73,-363.12 43.5,-353.02 39.73,-362.92 46.73,-363.12"/>
</g>
<!-- Node6 -->
<g id="node3" class="node">
<title>Node6</title>
<g id="a_node3"><a xlink:href="a01280.html" target="_top" xlink:title="If the function end failed, but it can continue without being completed.">
<polygon fill="white" stroke="black" points="131,-590.5 131,-620.5 282,-620.5 282,-590.5 131,-590.5"/>
<text text-anchor="start" x="139" y="-608.5" font-family="Helvetica,sans-Serif" font-size="10.00">RayTracer::Display</text>
<text text-anchor="middle" x="206.5" y="-597.5" font-family="Helvetica,sans-Serif" font-size="10.00">::IDisplayModule::EndFailed</text>
</a>
</g>
</g>
<!-- Node4&#45;&gt;Node6 -->
<g id="edge2" class="edge">
<title>Node4&#45;&gt;Node6</title>
<path fill="none" stroke="midnightblue" d="M44.54,-363.36C46.88,-408.75 59.08,-520.86 122,-581.5 125.58,-584.95 129.63,-587.92 133.96,-590.46"/>
<polygon fill="midnightblue" stroke="midnightblue" points="48.04,-363.18 44.13,-353.33 41.04,-363.46 48.04,-363.18"/>
</g>
<!-- Node7 -->
<g id="node4" class="node">
<title>Node7</title>
<g id="a_node4"><a xlink:href="a01284.html" target="_top" xlink:title="If the function event failed, but it can continue without being completed.">
<polygon fill="white" stroke="black" points="126,-541.5 126,-571.5 287,-571.5 287,-541.5 126,-541.5"/>
<text text-anchor="start" x="134" y="-559.5" font-family="Helvetica,sans-Serif" font-size="10.00">RayTracer::Display</text>
<text text-anchor="middle" x="206.5" y="-548.5" font-family="Helvetica,sans-Serif" font-size="10.00">::IDisplayModule::EventFailed</text>
</a>
</g>
</g>
<!-- Node4&#45;&gt;Node7 -->
<g id="edge3" class="edge">
<title>Node4&#45;&gt;Node7</title>
<path fill="none" stroke="midnightblue" d="M46.48,-363.35C52.35,-401.78 70.68,-486.61 122,-532.5 125.82,-535.92 130.1,-538.85 134.65,-541.37"/>
<polygon fill="midnightblue" stroke="midnightblue" points="49.89,-362.42 45.04,-353 42.95,-363.39 49.89,-362.42"/>
</g>
<!-- Node8 -->
<g id="node5" class="node">
<title>Node8</title>
<g id="a_node5"><a xlink:href="a01276.html" target="_top" xlink:title="If the function start failed, but it can continue without being completed.">
<polygon fill="white" stroke="black" points="128.5,-492.5 128.5,-522.5 284.5,-522.5 284.5,-492.5 128.5,-492.5"/>
<text text-anchor="start" x="136.5" y="-510.5" font-family="Helvetica,sans-Serif" font-size="10.00">RayTracer::Display</text>
<text text-anchor="middle" x="206.5" y="-499.5" font-family="Helvetica,sans-Serif" font-size="10.00">::IDisplayModule::StartFailed</text>
</a>
</g>
</g>
<!-- Node4&#45;&gt;Node8 -->
<g id="edge4" class="edge">
<title>Node4&#45;&gt;Node8</title>
<path fill="none" stroke="midnightblue" d="M49.61,-363.2C59.29,-393.6 82.03,-451.75 122,-483.5 126.37,-486.97 131.22,-489.94 136.32,-492.48"/>
<polygon fill="midnightblue" stroke="midnightblue" points="52.88,-361.91 46.63,-353.36 46.18,-363.94 52.88,-361.91"/>
</g>
<!-- Node9 -->
<g id="node6" class="node">
<title>Node9</title>
<g id="a_node6"><a xlink:href="a01288.html" target="_top" xlink:title="If the function tick failed, but it can continue without being completed.">
<polygon fill="white" stroke="black" points="130,-443.5 130,-473.5 283,-473.5 283,-443.5 130,-443.5"/>
<text text-anchor="start" x="138" y="-461.5" font-family="Helvetica,sans-Serif" font-size="10.00">RayTracer::Display</text>
<text text-anchor="middle" x="206.5" y="-450.5" font-family="Helvetica,sans-Serif" font-size="10.00">::IDisplayModule::TickFailed</text>
</a>
</g>
</g>
<!-- Node4&#45;&gt;Node9 -->
<g id="edge5" class="edge">
<title>Node4&#45;&gt;Node9</title>
<path fill="none" stroke="midnightblue" d="M54.83,-361.58C68.12,-382.23 92.55,-415.58 122,-434.5 127.33,-437.92 133.16,-440.87 139.18,-443.4"/>
<polygon fill="midnightblue" stroke="midnightblue" points="57.8,-359.72 49.53,-353.09 51.86,-363.42 57.8,-359.72"/>
</g>
<!-- Node10 -->
<g id="node7" class="node">
<title>Node10</title>
<g id="a_node7"><a xlink:href="a01424.html" target="_top" xlink:title=" ">
<polygon fill="white" stroke="black" points="132,-394.5 132,-424.5 281,-424.5 281,-394.5 132,-394.5"/>
<text text-anchor="start" x="140" y="-412.5" font-family="Helvetica,sans-Serif" font-size="10.00">RayTracer::Main::Argument</text>
<text text-anchor="middle" x="206.5" y="-401.5" font-family="Helvetica,sans-Serif" font-size="10.00">Error</text>
</a>
</g>
</g>
<!-- Node4&#45;&gt;Node10 -->
<g id="edge6" class="edge">
<title>Node4&#45;&gt;Node10</title>
<path fill="none" stroke="midnightblue" d="M68.7,-358.06C83.75,-366.53 103.58,-376.99 122,-384.5 130.83,-388.1 140.37,-391.44 149.73,-394.44"/>
<polygon fill="midnightblue" stroke="midnightblue" points="70.41,-355.01 60,-353.08 66.94,-361.08 70.41,-355.01"/>
</g>
<!-- Node11 -->
<g id="node8" class="node">
<title>Node11</title>
<g id="a_node8"><a xlink:href="a01420.html" target="_top" xlink:title=" ">
<polygon fill="white" stroke="black" points="132.5,-356 132.5,-375 280.5,-375 280.5,-356 132.5,-356"/>
<text text-anchor="middle" x="206.5" y="-363" font-family="Helvetica,sans-Serif" font-size="10.00">RayTracer::Main::MainError</text>
</a>
</g>
</g>
<!-- Node4&#45;&gt;Node11 -->
<g id="edge7" class="edge">
<title>Node4&#45;&gt;Node11</title>
<path fill="none" stroke="midnightblue" d="M96.26,-350.62C108.79,-352.33 122.37,-354.18 135.55,-355.97"/>
<polygon fill="midnightblue" stroke="midnightblue" points="96.39,-347.1 86.01,-349.22 95.45,-354.04 96.39,-347.1"/>
</g>
<!-- Node12 -->
<g id="node9" class="node">
<title>Node12</title>
<g id="a_node9"><a xlink:href="a01432.html" target="_top" xlink:title=" ">
<polygon fill="white" stroke="black" points="143.5,-306.5 143.5,-336.5 269.5,-336.5 269.5,-306.5 143.5,-306.5"/>
<text text-anchor="start" x="151.5" y="-324.5" font-family="Helvetica,sans-Serif" font-size="10.00">RayTracer::Parameters</text>
<text text-anchor="middle" x="206.5" y="-313.5" font-family="Helvetica,sans-Serif" font-size="10.00">::KeyNotFoundError</text>
</a>
</g>
</g>
<!-- Node4&#45;&gt;Node12 -->
<g id="edge8" class="edge">
<title>Node4&#45;&gt;Node12</title>
<path fill="none" stroke="midnightblue" d="M96.15,-336.4C111.18,-334.35 127.73,-332.09 143.31,-329.97"/>
<polygon fill="midnightblue" stroke="midnightblue" points="95.45,-332.96 86.01,-337.78 96.39,-339.9 95.45,-332.96"/>
</g>
<!-- Node13 -->
<g id="node10" class="node">
<title>Node13</title>
<g id="a_node10"><a xlink:href="a01488.html" target="_top" xlink:title="an exception for when the file can&#39;t be read">
<polygon fill="white" stroke="black" points="123,-257.5 123,-287.5 290,-287.5 290,-257.5 123,-257.5"/>
<text text-anchor="start" x="131" y="-275.5" font-family="Helvetica,sans-Serif" font-size="10.00">RayTracer::Scenes::</text>
<text text-anchor="middle" x="206.5" y="-264.5" font-family="Helvetica,sans-Serif" font-size="10.00">ConfigWrapper::ReadException</text>
</a>
</g>
</g>
<!-- Node4&#45;&gt;Node13 -->
<g id="edge9" class="edge">
<title>Node4&#45;&gt;Node13</title>
<path fill="none" stroke="midnightblue" d="M66.5,-328.26C81.68,-318.47 102.43,-306.05 122,-297.5 130.32,-293.87 139.33,-290.56 148.24,-287.63"/>
<polygon fill="midnightblue" stroke="midnightblue" points="64.27,-325.53 57.83,-333.95 68.11,-331.38 64.27,-325.53"/>
</g>
<!-- Node14 -->
<g id="node11" class="node">
<title>Node14</title>
<g id="a_node11"><a xlink:href="a01492.html" target="_top" xlink:title="an exception for when the file can&#39;t be written">
<polygon fill="white" stroke="black" points="122,-208.5 122,-238.5 291,-238.5 291,-208.5 122,-208.5"/>
<text text-anchor="start" x="130" y="-226.5" font-family="Helvetica,sans-Serif" font-size="10.00">RayTracer::Scenes::</text>
<text text-anchor="middle" x="206.5" y="-215.5" font-family="Helvetica,sans-Serif" font-size="10.00">ConfigWrapper::WriteException</text>
</a>
</g>
</g>
<!-- Node4&#45;&gt;Node14 -->
<g id="edge10" class="edge">
<title>Node4&#45;&gt;Node14</title>
<path fill="none" stroke="midnightblue" d="M54.48,-325C67.57,-303.52 91.96,-268.49 122,-248.5 127.8,-244.64 134.2,-241.37 140.82,-238.58"/>
<polygon fill="midnightblue" stroke="midnightblue" points="51.34,-323.42 49.27,-333.82 57.37,-326.98 51.34,-323.42"/>
</g>
<!-- Node15 -->
<g id="node12" class="node">
<title>Node15</title>
<g id="a_node12"><a xlink:href="a01512.html" target="_top" xlink:title="an exception for when the key is not found">
<polygon fill="white" stroke="black" points="134.5,-148 134.5,-189 278.5,-189 278.5,-148 134.5,-148"/>
<text text-anchor="start" x="142.5" y="-177" font-family="Helvetica,sans-Serif" font-size="10.00">RayTracer::Scenes::</text>
<text text-anchor="start" x="142.5" y="-166" font-family="Helvetica,sans-Serif" font-size="10.00">IDisplayable::IDisplayable</text>
<text text-anchor="middle" x="206.5" y="-155" font-family="Helvetica,sans-Serif" font-size="10.00">Exception</text>
</a>
</g>
</g>
<!-- Node4&#45;&gt;Node15 -->
<g id="edge11" class="edge">
<title>Node4&#45;&gt;Node15</title>
<path fill="none" stroke="midnightblue" d="M49.61,-324.05C59.39,-293.41 82.42,-233.86 122,-199.5 126.55,-195.55 131.66,-192.08 137.04,-189.04"/>
<polygon fill="midnightblue" stroke="midnightblue" points="46.16,-323.35 46.59,-333.93 52.86,-325.39 46.16,-323.35"/>
</g>
<!-- Node17 -->
<g id="node14" class="node">
<title>Node17</title>
<g id="a_node14"><a xlink:href="a01524.html" target="_top" xlink:title="an exception for when the key is not found">
<polygon fill="white" stroke="black" points="133.5,-98.5 133.5,-128.5 279.5,-128.5 279.5,-98.5 133.5,-98.5"/>
<text text-anchor="start" x="141.5" y="-116.5" font-family="Helvetica,sans-Serif" font-size="10.00">RayTracer::Scenes::</text>
<text text-anchor="middle" x="206.5" y="-105.5" font-family="Helvetica,sans-Serif" font-size="10.00">ISetting::IParsingException</text>
</a>
</g>
</g>
<!-- Node4&#45;&gt;Node17 -->
<g id="edge13" class="edge">
<title>Node4&#45;&gt;Node17</title>
<path fill="none" stroke="midnightblue" d="M45.8,-323.7C50.57,-282.99 67.2,-189.46 122,-138.5 126.1,-134.69 130.76,-131.45 135.73,-128.71"/>
<polygon fill="midnightblue" stroke="midnightblue" points="42.31,-323.39 44.75,-333.7 49.27,-324.12 42.31,-323.39"/>
</g>
<!-- Node19 -->
<g id="node16" class="node">
<title>Node19</title>
<g id="a_node16"><a xlink:href="a01528.html" target="_top" xlink:title="an exception for when the key is not found">
<polygon fill="white" stroke="black" points="139.5,-49.5 139.5,-79.5 273.5,-79.5 273.5,-49.5 139.5,-49.5"/>
<text text-anchor="start" x="147.5" y="-67.5" font-family="Helvetica,sans-Serif" font-size="10.00">RayTracer::Scenes::</text>
<text text-anchor="middle" x="206.5" y="-56.5" font-family="Helvetica,sans-Serif" font-size="10.00">ISetting::ITypeException</text>
</a>
</g>
</g>
<!-- Node4&#45;&gt;Node19 -->
<g id="edge15" class="edge">
<title>Node4&#45;&gt;Node19</title>
<path fill="none" stroke="midnightblue" d="M44.03,-323.55C45.23,-275.86 55.06,-154.32 122,-88.5 126.95,-83.64 132.81,-79.74 139.11,-76.63"/>
<polygon fill="midnightblue" stroke="midnightblue" points="40.53,-323.72 43.89,-333.77 47.53,-323.82 40.53,-323.72"/>
</g>
<!-- Node21 -->
<g id="node18" class="node">
<title>Node21</title>
<g id="a_node18"><a xlink:href="a01540.html" target="_top" xlink:title=" ">
<polygon fill="white" stroke="black" points="134.5,-0.5 134.5,-30.5 278.5,-30.5 278.5,-0.5 134.5,-0.5"/>
<text text-anchor="start" x="142.5" y="-18.5" font-family="Helvetica,sans-Serif" font-size="10.00">RayTracer::Scenes::</text>
<text text-anchor="middle" x="206.5" y="-7.5" font-family="Helvetica,sans-Serif" font-size="10.00">SceneLoader::BadFileError</text>
</a>
</g>
</g>
<!-- Node4&#45;&gt;Node21 -->
<g id="edge17" class="edge">
<title>Node4&#45;&gt;Node21</title>
<path fill="none" stroke="midnightblue" d="M46.52,-323.59C54.59,-262.76 81.69,-80.98 122,-39.5 125.68,-35.71 129.91,-32.51 134.48,-29.81"/>
<polygon fill="midnightblue" stroke="midnightblue" points="43.01,-323.41 45.19,-333.77 49.95,-324.31 43.01,-323.41"/>
</g>
<!-- Node16 -->
<g id="node13" class="node">
<title>Node16</title>
<g id="a_node13"><a xlink:href="a01500.html" target="_top" xlink:title="an exception for when the key is not found">
<polygon fill="white" stroke="black" points="327,-153.5 327,-183.5 513,-183.5 513,-153.5 327,-153.5"/>
<text text-anchor="start" x="335" y="-171.5" font-family="Helvetica,sans-Serif" font-size="10.00">RayTracer::Scenes::</text>
<text text-anchor="middle" x="420" y="-160.5" font-family="Helvetica,sans-Serif" font-size="10.00">Displayable::DisplayableException</text>
</a>
</g>
</g>
<!-- Node15&#45;&gt;Node16 -->
<g id="edge12" class="edge">
<title>Node15&#45;&gt;Node16</title>
<path fill="none" stroke="midnightblue" d="M288.82,-168.5C301.24,-168.5 314.13,-168.5 326.76,-168.5"/>
<polygon fill="midnightblue" stroke="midnightblue" points="288.51,-165 278.51,-168.5 288.51,-172 288.51,-165"/>
</g>
<!-- Node18 -->
<g id="node15" class="node">
<title>Node18</title>
<g id="a_node15"><a xlink:href="a01552.html" target="_top" xlink:title="an exception for when the key is not found">
<polygon fill="white" stroke="black" points="329,-98.5 329,-128.5 511,-128.5 511,-98.5 329,-98.5"/>
<text text-anchor="start" x="337" y="-116.5" font-family="Helvetica,sans-Serif" font-size="10.00">RayTracer::Scenes::</text>
<text text-anchor="middle" x="420" y="-105.5" font-family="Helvetica,sans-Serif" font-size="10.00">SettingWrapper::ParsingException</text>
</a>
</g>
</g>
<!-- Node17&#45;&gt;Node18 -->
<g id="edge14" class="edge">
<title>Node17&#45;&gt;Node18</title>
<path fill="none" stroke="midnightblue" d="M289.82,-113.5C302.6,-113.5 315.86,-113.5 328.8,-113.5"/>
<polygon fill="midnightblue" stroke="midnightblue" points="289.69,-110 279.69,-113.5 289.69,-117 289.69,-110"/>
</g>
<!-- Node20 -->
<g id="node17" class="node">
<title>Node20</title>
<g id="a_node17"><a xlink:href="a01556.html" target="_top" xlink:title="an exception for when the key is not found">
<polygon fill="white" stroke="black" points="335.5,-49.5 335.5,-79.5 504.5,-79.5 504.5,-49.5 335.5,-49.5"/>
<text text-anchor="start" x="343.5" y="-67.5" font-family="Helvetica,sans-Serif" font-size="10.00">RayTracer::Scenes::</text>
<text text-anchor="middle" x="420" y="-56.5" font-family="Helvetica,sans-Serif" font-size="10.00">SettingWrapper::TypeException</text>
</a>
</g>
</g>
<!-- Node19&#45;&gt;Node20 -->
<g id="edge16" class="edge">
<title>Node19&#45;&gt;Node20</title>
<path fill="none" stroke="midnightblue" d="M283.78,-64.5C300.46,-64.5 318.21,-64.5 335.16,-64.5"/>
<polygon fill="midnightblue" stroke="midnightblue" points="283.55,-61 273.55,-64.5 283.55,-68 283.55,-61"/>
</g>
</g>
</svg>
