<?xml version="1.0" encoding="UTF-8" standalone="no"?>
<!DOCTYPE svg PUBLIC "-//W3C//DTD SVG 1.1//EN"
 "http://www.w3.org/Graphics/SVG/1.1/DTD/svg11.dtd">
<!-- Generated by graphviz version 2.43.0 (0)
 -->
<!-- Title: Graphical Class Hierarchy Pages: 1 -->
<svg width="521pt" height="433pt"
 viewBox="0.00 0.00 521.00 433.00" xmlns="http://www.w3.org/2000/svg" xmlns:xlink="http://www.w3.org/1999/xlink">
<g id="graph0" class="graph" transform="scale(1 1) rotate(0) translate(4 429)">
<title>Graphical Class Hierarchy</title>
<polygon fill="white" stroke="transparent" points="-4,4 -4,-429 517,-429 517,4 -4,4"/>
<!-- Node3 -->
<g id="node1" class="node">
<title>Node3</title>
<g id="a_node1"><a xlink:title=" ">
<polygon fill="white" stroke="#bfbfbf" points="0,-214 0,-233 86,-233 86,-214 0,-214"/>
<text text-anchor="middle" x="43" y="-221" font-family="Helvetica,sans-Serif" font-size="10.00">std::exception</text>
</a>
</g>
</g>
<!-- Node0 -->
<g id="node2" class="node">
<title>Node0</title>
<g id="a_node2"><a xlink:href="a01309.html" target="_top" xlink:title=" ">
<polygon fill="white" stroke="black" points="132,-394.5 132,-424.5 281,-424.5 281,-394.5 132,-394.5"/>
<text text-anchor="start" x="140" y="-412.5" font-family="Helvetica,sans-Serif" font-size="10.00">RayTracer::Main::Argument</text>
<text text-anchor="middle" x="206.5" y="-401.5" font-family="Helvetica,sans-Serif" font-size="10.00">Error</text>
</a>
</g>
</g>
<!-- Node3&#45;&gt;Node0 -->
<g id="edge1" class="edge">
<title>Node3&#45;&gt;Node0</title>
<path fill="none" stroke="midnightblue" d="M48.09,-243.17C56.16,-277.07 77.38,-346.51 122,-384.5 126.49,-388.33 131.56,-391.57 136.91,-394.31"/>
<polygon fill="midnightblue" stroke="midnightblue" points="51.44,-242.12 45.84,-233.13 44.61,-243.65 51.44,-242.12"/>
</g>
<!-- Node5 -->
<g id="node3" class="node">
<title>Node5</title>
<g id="a_node3"><a xlink:href="a01305.html" target="_top" xlink:title=" ">
<polygon fill="white" stroke="black" points="132.5,-356 132.5,-375 280.5,-375 280.5,-356 132.5,-356"/>
<text text-anchor="middle" x="206.5" y="-363" font-family="Helvetica,sans-Serif" font-size="10.00">RayTracer::Main::MainError</text>
</a>
</g>
</g>
<!-- Node3&#45;&gt;Node5 -->
<g id="edge2" class="edge">
<title>Node3&#45;&gt;Node5</title>
<path fill="none" stroke="midnightblue" d="M50.85,-243.01C61.57,-270.54 84.98,-320.37 122,-346.5 127.47,-350.36 133.59,-353.45 139.97,-355.92"/>
<polygon fill="midnightblue" stroke="midnightblue" points="54.02,-241.48 47.25,-233.33 47.46,-243.92 54.02,-241.48"/>
</g>
<!-- Node6 -->
<g id="node4" class="node">
<title>Node6</title>
<g id="a_node4"><a xlink:href="a01317.html" target="_top" xlink:title=" ">
<polygon fill="white" stroke="black" points="143.5,-306.5 143.5,-336.5 269.5,-336.5 269.5,-306.5 143.5,-306.5"/>
<text text-anchor="start" x="151.5" y="-324.5" font-family="Helvetica,sans-Serif" font-size="10.00">RayTracer::Parameters</text>
<text text-anchor="middle" x="206.5" y="-313.5" font-family="Helvetica,sans-Serif" font-size="10.00">::KeyNotFoundError</text>
</a>
</g>
</g>
<!-- Node3&#45;&gt;Node6 -->
<g id="edge3" class="edge">
<title>Node3&#45;&gt;Node6</title>
<path fill="none" stroke="midnightblue" d="M58.18,-241.17C72.57,-257.98 96.33,-282.82 122,-297.5 128.68,-301.32 136.01,-304.57 143.47,-307.32"/>
<polygon fill="midnightblue" stroke="midnightblue" points="60.64,-238.65 51.55,-233.21 55.26,-243.13 60.64,-238.65"/>
</g>
<!-- Node7 -->
<g id="node5" class="node">
<title>Node7</title>
<g id="a_node5"><a xlink:href="a01373.html" target="_top" xlink:title="an exception for when the file can&#39;t be read">
<polygon fill="white" stroke="black" points="123,-257.5 123,-287.5 290,-287.5 290,-257.5 123,-257.5"/>
<text text-anchor="start" x="131" y="-275.5" font-family="Helvetica,sans-Serif" font-size="10.00">RayTracer::Scenes::</text>
<text text-anchor="middle" x="206.5" y="-264.5" font-family="Helvetica,sans-Serif" font-size="10.00">ConfigWrapper::ReadException</text>
</a>
</g>
</g>
<!-- Node3&#45;&gt;Node7 -->
<g id="edge4" class="edge">
<title>Node3&#45;&gt;Node7</title>
<path fill="none" stroke="midnightblue" d="M82.85,-236.21C95.33,-240.22 109.22,-244.62 122,-248.5 131.67,-251.44 142,-254.48 151.98,-257.38"/>
<polygon fill="midnightblue" stroke="midnightblue" points="83.79,-232.83 73.2,-233.09 81.64,-239.49 83.79,-232.83"/>
</g>
<!-- Node8 -->
<g id="node6" class="node">
<title>Node8</title>
<g id="a_node6"><a xlink:href="a01377.html" target="_top" xlink:title="an exception for when the file can&#39;t be written">
<polygon fill="white" stroke="black" points="122,-208.5 122,-238.5 291,-238.5 291,-208.5 122,-208.5"/>
<text text-anchor="start" x="130" y="-226.5" font-family="Helvetica,sans-Serif" font-size="10.00">RayTracer::Scenes::</text>
<text text-anchor="middle" x="206.5" y="-215.5" font-family="Helvetica,sans-Serif" font-size="10.00">ConfigWrapper::WriteException</text>
</a>
</g>
</g>
<!-- Node3&#45;&gt;Node8 -->
<g id="edge5" class="edge">
<title>Node3&#45;&gt;Node8</title>
<path fill="none" stroke="midnightblue" d="M96.14,-223.5C104.35,-223.5 113.01,-223.5 121.72,-223.5"/>
<polygon fill="midnightblue" stroke="midnightblue" points="96.01,-220 86.01,-223.5 96.01,-227 96.01,-220"/>
</g>
<!-- Node9 -->
<g id="node7" class="node">
<title>Node9</title>
<g id="a_node7"><a xlink:href="a01397.html" target="_top" xlink:title="an exception for when the key is not found">
<polygon fill="white" stroke="black" points="134.5,-148 134.5,-189 278.5,-189 278.5,-148 134.5,-148"/>
<text text-anchor="start" x="142.5" y="-177" font-family="Helvetica,sans-Serif" font-size="10.00">RayTracer::Scenes::</text>
<text text-anchor="start" x="142.5" y="-166" font-family="Helvetica,sans-Serif" font-size="10.00">IDisplayable::IDisplayable</text>
<text text-anchor="middle" x="206.5" y="-155" font-family="Helvetica,sans-Serif" font-size="10.00">Exception</text>
</a>
</g>
</g>
<!-- Node3&#45;&gt;Node9 -->
<g id="edge6" class="edge">
<title>Node3&#45;&gt;Node9</title>
<path fill="none" stroke="midnightblue" d="M81.84,-210.61C100.72,-204.18 124,-196.25 145.26,-189.02"/>
<polygon fill="midnightblue" stroke="midnightblue" points="80.47,-207.38 72.13,-213.92 82.73,-214.01 80.47,-207.38"/>
</g>
<!-- Node11 -->
<g id="node9" class="node">
<title>Node11</title>
<g id="a_node9"><a xlink:href="a01409.html" target="_top" xlink:title="an exception for when the key is not found">
<polygon fill="white" stroke="black" points="133.5,-98.5 133.5,-128.5 279.5,-128.5 279.5,-98.5 133.5,-98.5"/>
<text text-anchor="start" x="141.5" y="-116.5" font-family="Helvetica,sans-Serif" font-size="10.00">RayTracer::Scenes::</text>
<text text-anchor="middle" x="206.5" y="-105.5" font-family="Helvetica,sans-Serif" font-size="10.00">ISetting::IParsingException</text>
</a>
</g>
</g>
<!-- Node3&#45;&gt;Node11 -->
<g id="edge8" class="edge">
<title>Node3&#45;&gt;Node11</title>
<path fill="none" stroke="midnightblue" d="M55.97,-205.52C69.72,-186.24 94.01,-156.03 122,-138.5 128.16,-134.64 134.94,-131.36 141.9,-128.56"/>
<polygon fill="midnightblue" stroke="midnightblue" points="53.08,-203.56 50.26,-213.77 58.83,-207.54 53.08,-203.56"/>
</g>
<!-- Node13 -->
<g id="node11" class="node">
<title>Node13</title>
<g id="a_node11"><a xlink:href="a01413.html" target="_top" xlink:title="an exception for when the key is not found">
<polygon fill="white" stroke="black" points="139.5,-49.5 139.5,-79.5 273.5,-79.5 273.5,-49.5 139.5,-49.5"/>
<text text-anchor="start" x="147.5" y="-67.5" font-family="Helvetica,sans-Serif" font-size="10.00">RayTracer::Scenes::</text>
<text text-anchor="middle" x="206.5" y="-56.5" font-family="Helvetica,sans-Serif" font-size="10.00">ISetting::ITypeException</text>
</a>
</g>
</g>
<!-- Node3&#45;&gt;Node13 -->
<g id="edge10" class="edge">
<title>Node3&#45;&gt;Node13</title>
<path fill="none" stroke="midnightblue" d="M49.94,-204.11C59.97,-174.68 83.04,-118.95 122,-88.5 127.23,-84.41 133.13,-81.02 139.31,-78.21"/>
<polygon fill="midnightblue" stroke="midnightblue" points="46.49,-203.4 46.74,-213.99 53.15,-205.56 46.49,-203.4"/>
</g>
<!-- Node15 -->
<g id="node13" class="node">
<title>Node15</title>
<g id="a_node13"><a xlink:href="a01425.html" target="_top" xlink:title=" ">
<polygon fill="white" stroke="black" points="134.5,-0.5 134.5,-30.5 278.5,-30.5 278.5,-0.5 134.5,-0.5"/>
<text text-anchor="start" x="142.5" y="-18.5" font-family="Helvetica,sans-Serif" font-size="10.00">RayTracer::Scenes::</text>
<text text-anchor="middle" x="206.5" y="-7.5" font-family="Helvetica,sans-Serif" font-size="10.00">SceneLoader::BadFileError</text>
</a>
</g>
</g>
<!-- Node3&#45;&gt;Node15 -->
<g id="edge12" class="edge">
<title>Node3&#45;&gt;Node15</title>
<path fill="none" stroke="midnightblue" d="M46.74,-203.64C52.99,-165.96 71.86,-83.91 122,-39.5 125.84,-36.1 130.13,-33.18 134.69,-30.67"/>
<polygon fill="midnightblue" stroke="midnightblue" points="43.23,-203.4 45.18,-213.82 50.15,-204.46 43.23,-203.4"/>
</g>
<!-- Node10 -->
<g id="node8" class="node">
<title>Node10</title>
<g id="a_node8"><a xlink:href="a01385.html" target="_top" xlink:title="an exception for when the key is not found">
<polygon fill="white" stroke="black" points="327,-153.5 327,-183.5 513,-183.5 513,-153.5 327,-153.5"/>
<text text-anchor="start" x="335" y="-171.5" font-family="Helvetica,sans-Serif" font-size="10.00">RayTracer::Scenes::</text>
<text text-anchor="middle" x="420" y="-160.5" font-family="Helvetica,sans-Serif" font-size="10.00">Displayable::DisplayableException</text>
</a>
</g>
</g>
<!-- Node9&#45;&gt;Node10 -->
<g id="edge7" class="edge">
<title>Node9&#45;&gt;Node10</title>
<path fill="none" stroke="midnightblue" d="M288.82,-168.5C301.24,-168.5 314.13,-168.5 326.76,-168.5"/>
<polygon fill="midnightblue" stroke="midnightblue" points="288.51,-165 278.51,-168.5 288.51,-172 288.51,-165"/>
</g>
<!-- Node12 -->
<g id="node10" class="node">
<title>Node12</title>
<g id="a_node10"><a xlink:href="a01437.html" target="_top" xlink:title="an exception for when the key is not found">
<polygon fill="white" stroke="black" points="329,-98.5 329,-128.5 511,-128.5 511,-98.5 329,-98.5"/>
<text text-anchor="start" x="337" y="-116.5" font-family="Helvetica,sans-Serif" font-size="10.00">RayTracer::Scenes::</text>
<text text-anchor="middle" x="420" y="-105.5" font-family="Helvetica,sans-Serif" font-size="10.00">SettingWrapper::ParsingException</text>
</a>
</g>
</g>
<!-- Node11&#45;&gt;Node12 -->
<g id="edge9" class="edge">
<title>Node11&#45;&gt;Node12</title>
<path fill="none" stroke="midnightblue" d="M289.82,-113.5C302.6,-113.5 315.86,-113.5 328.8,-113.5"/>
<polygon fill="midnightblue" stroke="midnightblue" points="289.69,-110 279.69,-113.5 289.69,-117 289.69,-110"/>
</g>
<!-- Node14 -->
<g id="node12" class="node">
<title>Node14</title>
<g id="a_node12"><a xlink:href="a01441.html" target="_top" xlink:title="an exception for when the key is not found">
<polygon fill="white" stroke="black" points="335.5,-49.5 335.5,-79.5 504.5,-79.5 504.5,-49.5 335.5,-49.5"/>
<text text-anchor="start" x="343.5" y="-67.5" font-family="Helvetica,sans-Serif" font-size="10.00">RayTracer::Scenes::</text>
<text text-anchor="middle" x="420" y="-56.5" font-family="Helvetica,sans-Serif" font-size="10.00">SettingWrapper::TypeException</text>
</a>
</g>
</g>
<!-- Node13&#45;&gt;Node14 -->
<g id="edge11" class="edge">
<title>Node13&#45;&gt;Node14</title>
<path fill="none" stroke="midnightblue" d="M283.78,-64.5C300.46,-64.5 318.21,-64.5 335.16,-64.5"/>
<polygon fill="midnightblue" stroke="midnightblue" points="283.55,-61 273.55,-64.5 283.55,-68 283.55,-61"/>
</g>
</g>
</svg>
