<?xml version="1.0" encoding="UTF-8" standalone="no"?>
<!DOCTYPE svg PUBLIC "-//W3C//DTD SVG 1.1//EN"
 "http://www.w3.org/Graphics/SVG/1.1/DTD/svg11.dtd">
<!-- Generated by graphviz version 2.43.0 (0)
 -->
<!-- Title: Graphical Class Hierarchy Pages: 1 -->
<svg width="477pt" height="782pt"
 viewBox="0.00 0.00 477.00 782.00" xmlns="http://www.w3.org/2000/svg" xmlns:xlink="http://www.w3.org/1999/xlink">
<g id="graph0" class="graph" transform="scale(1 1) rotate(0) translate(4 778)">
<title>Graphical Class Hierarchy</title>
<polygon fill="white" stroke="transparent" points="-4,4 -4,-778 473,-778 473,4 -4,4"/>
<!-- Node0 -->
<g id="node1" class="node">
<title>Node0</title>
<g id="a_node1"><a xlink:href="a01245.html" target="_top" xlink:title="The IEntity class.">
<polygon fill="white" stroke="black" points="0,-513.5 0,-543.5 107,-543.5 107,-513.5 0,-513.5"/>
<text text-anchor="start" x="8" y="-531.5" font-family="Helvetica,sans-Serif" font-size="10.00">RayTracer::Entities</text>
<text text-anchor="middle" x="53.5" y="-520.5" font-family="Helvetica,sans-Serif" font-size="10.00">::IEntity</text>
</a>
</g>
</g>
<!-- Node1 -->
<g id="node2" class="node">
<title>Node1</title>
<g id="a_node2"><a xlink:href="a01241.html" target="_top" xlink:title="The ICamera class.">
<polygon fill="white" stroke="black" points="143,-658.5 143,-688.5 250,-688.5 250,-658.5 143,-658.5"/>
<text text-anchor="start" x="151" y="-676.5" font-family="Helvetica,sans-Serif" font-size="10.00">RayTracer::Entities</text>
<text text-anchor="middle" x="196.5" y="-665.5" font-family="Helvetica,sans-Serif" font-size="10.00">::ICamera</text>
</a>
</g>
</g>
<!-- Node0&#45;&gt;Node1 -->
<g id="edge1" class="edge">
<title>Node0&#45;&gt;Node1</title>
<path fill="none" stroke="midnightblue" d="M76.58,-551.21C105.69,-581.14 156.09,-632.97 180.88,-658.46"/>
<polygon fill="midnightblue" stroke="midnightblue" points="78.8,-548.47 69.32,-543.74 73.79,-553.35 78.8,-548.47"/>
</g>
<!-- Node5 -->
<g id="node6" class="node">
<title>Node5</title>
<g id="a_node6"><a xlink:href="a01249.html" target="_top" xlink:title="The ILight class.">
<polygon fill="white" stroke="black" points="143,-513.5 143,-543.5 250,-543.5 250,-513.5 143,-513.5"/>
<text text-anchor="start" x="151" y="-531.5" font-family="Helvetica,sans-Serif" font-size="10.00">RayTracer::Entities</text>
<text text-anchor="middle" x="196.5" y="-520.5" font-family="Helvetica,sans-Serif" font-size="10.00">::ILight</text>
</a>
</g>
</g>
<!-- Node0&#45;&gt;Node5 -->
<g id="edge5" class="edge">
<title>Node0&#45;&gt;Node5</title>
<path fill="none" stroke="midnightblue" d="M117.05,-528.5C125.7,-528.5 134.51,-528.5 142.95,-528.5"/>
<polygon fill="midnightblue" stroke="midnightblue" points="117,-525 107,-528.5 117,-532 117,-525"/>
</g>
<!-- Node9 -->
<g id="node10" class="node">
<title>Node9</title>
<g id="a_node10"><a xlink:href="a01257.html" target="_top" xlink:title="The IPrimitive class.">
<polygon fill="white" stroke="black" points="143,-241.5 143,-271.5 250,-271.5 250,-241.5 143,-241.5"/>
<text text-anchor="start" x="151" y="-259.5" font-family="Helvetica,sans-Serif" font-size="10.00">RayTracer::Entities</text>
<text text-anchor="middle" x="196.5" y="-248.5" font-family="Helvetica,sans-Serif" font-size="10.00">::IPrimitive</text>
</a>
</g>
</g>
<!-- Node0&#45;&gt;Node9 -->
<g id="edge9" class="edge">
<title>Node0&#45;&gt;Node9</title>
<path fill="none" stroke="midnightblue" d="M66.94,-504.51C95.31,-449.78 164.17,-316.93 187.57,-271.8"/>
<polygon fill="midnightblue" stroke="midnightblue" points="63.78,-503 62.28,-513.49 69.99,-506.22 63.78,-503"/>
</g>
<!-- Node2 -->
<g id="node3" class="node">
<title>Node2</title>
<g id="a_node3"><a xlink:href="a01521.html" target="_top" xlink:title=" ">
<polygon fill="white" stroke="black" points="310.5,-743.5 310.5,-773.5 444.5,-773.5 444.5,-743.5 310.5,-743.5"/>
<text text-anchor="start" x="318.5" y="-761.5" font-family="Helvetica,sans-Serif" font-size="10.00">RayTracer::PluginsExt</text>
<text text-anchor="middle" x="377.5" y="-750.5" font-family="Helvetica,sans-Serif" font-size="10.00">::Camera::CameraEntity</text>
</a>
</g>
</g>
<!-- Node1&#45;&gt;Node2 -->
<g id="edge2" class="edge">
<title>Node1&#45;&gt;Node2</title>
<path fill="none" stroke="midnightblue" d="M224.02,-694.87C240.92,-707.6 263.76,-723.23 286,-733.5 294.14,-737.26 302.96,-740.56 311.79,-743.42"/>
<polygon fill="midnightblue" stroke="midnightblue" points="225.82,-691.83 215.76,-688.52 221.56,-697.38 225.82,-691.83"/>
</g>
<!-- Node3 -->
<g id="node4" class="node">
<title>Node3</title>
<g id="a_node4"><a xlink:href="a01529.html" target="_top" xlink:title=" ">
<polygon fill="white" stroke="black" points="316.5,-683 316.5,-724 438.5,-724 438.5,-683 316.5,-683"/>
<text text-anchor="start" x="324.5" y="-712" font-family="Helvetica,sans-Serif" font-size="10.00">RayTracer::PluginsExt</text>
<text text-anchor="start" x="324.5" y="-701" font-family="Helvetica,sans-Serif" font-size="10.00">::Camera::Clustered::</text>
<text text-anchor="middle" x="377.5" y="-690" font-family="Helvetica,sans-Serif" font-size="10.00">CameraClusterEntity</text>
</a>
</g>
</g>
<!-- Node1&#45;&gt;Node3 -->
<g id="edge3" class="edge">
<title>Node1&#45;&gt;Node3</title>
<path fill="none" stroke="midnightblue" d="M260.17,-684C278.38,-687.05 298.22,-690.38 316.28,-693.41"/>
<polygon fill="midnightblue" stroke="midnightblue" points="260.68,-680.54 250.24,-682.34 259.52,-687.44 260.68,-680.54"/>
</g>
<!-- Node4 -->
<g id="node5" class="node">
<title>Node4</title>
<g id="a_node5"><a xlink:href="a01545.html" target="_top" xlink:title=" ">
<polygon fill="white" stroke="black" points="314,-623 314,-664 441,-664 441,-623 314,-623"/>
<text text-anchor="start" x="322" y="-652" font-family="Helvetica,sans-Serif" font-size="10.00">RayTracer::PluginsExt</text>
<text text-anchor="start" x="322" y="-641" font-family="Helvetica,sans-Serif" font-size="10.00">::Camera::FullCustom</text>
<text text-anchor="middle" x="377.5" y="-630" font-family="Helvetica,sans-Serif" font-size="10.00">::CameraCustomEntity</text>
</a>
</g>
</g>
<!-- Node1&#45;&gt;Node4 -->
<g id="edge4" class="edge">
<title>Node1&#45;&gt;Node4</title>
<path fill="none" stroke="midnightblue" d="M260.25,-662.98C277.58,-660.08 296.38,-656.93 313.71,-654.02"/>
<polygon fill="midnightblue" stroke="midnightblue" points="259.52,-659.56 250.24,-664.66 260.68,-666.46 259.52,-659.56"/>
</g>
<!-- Node6 -->
<g id="node7" class="node">
<title>Node6</title>
<g id="a_node7"><a xlink:href="a01505.html" target="_top" xlink:title=" ">
<polygon fill="white" stroke="black" points="298,-563 298,-604 457,-604 457,-563 298,-563"/>
<text text-anchor="start" x="306" y="-592" font-family="Helvetica,sans-Serif" font-size="10.00">RayTracer::PluginsExt</text>
<text text-anchor="start" x="306" y="-581" font-family="Helvetica,sans-Serif" font-size="10.00">::AmbientLight::AmbientLight</text>
<text text-anchor="middle" x="377.5" y="-570" font-family="Helvetica,sans-Serif" font-size="10.00">Entity</text>
</a>
</g>
</g>
<!-- Node5&#45;&gt;Node6 -->
<g id="edge6" class="edge">
<title>Node5&#45;&gt;Node6</title>
<path fill="none" stroke="midnightblue" d="M256.23,-546.55C273.28,-551.78 292.02,-557.54 309.53,-562.92"/>
<polygon fill="midnightblue" stroke="midnightblue" points="257,-543.12 246.41,-543.53 254.94,-549.81 257,-543.12"/>
</g>
<!-- Node7 -->
<g id="node8" class="node">
<title>Node7</title>
<g id="a_node8"><a xlink:href="a01633.html" target="_top" xlink:title=" ">
<polygon fill="white" stroke="black" points="300,-513.5 300,-543.5 455,-543.5 455,-513.5 300,-513.5"/>
<text text-anchor="start" x="308" y="-531.5" font-family="Helvetica,sans-Serif" font-size="10.00">RayTracer::PluginsExt</text>
<text text-anchor="middle" x="377.5" y="-520.5" font-family="Helvetica,sans-Serif" font-size="10.00">::PointLight::PointLightEntity</text>
</a>
</g>
</g>
<!-- Node5&#45;&gt;Node7 -->
<g id="edge7" class="edge">
<title>Node5&#45;&gt;Node7</title>
<path fill="none" stroke="midnightblue" d="M260.31,-528.5C273.11,-528.5 286.71,-528.5 299.93,-528.5"/>
<polygon fill="midnightblue" stroke="midnightblue" points="260.24,-525 250.24,-528.5 260.24,-532 260.24,-525"/>
</g>
<!-- Node8 -->
<g id="node9" class="node">
<title>Node8</title>
<g id="a_node9"><a xlink:href="a01649.html" target="_top" xlink:title=" ">
<polygon fill="white" stroke="black" points="303,-464.5 303,-494.5 452,-494.5 452,-464.5 303,-464.5"/>
<text text-anchor="start" x="311" y="-482.5" font-family="Helvetica,sans-Serif" font-size="10.00">RayTracer::PluginsExt</text>
<text text-anchor="middle" x="377.5" y="-471.5" font-family="Helvetica,sans-Serif" font-size="10.00">::SpotLight::SpotLightEntity</text>
</a>
</g>
</g>
<!-- Node5&#45;&gt;Node8 -->
<g id="edge8" class="edge">
<title>Node5&#45;&gt;Node8</title>
<path fill="none" stroke="midnightblue" d="M259.92,-511.41C280.03,-505.91 302.14,-499.86 321.65,-494.51"/>
<polygon fill="midnightblue" stroke="midnightblue" points="258.96,-508.05 250.24,-514.06 260.81,-514.8 258.96,-508.05"/>
</g>
<!-- Node10 -->
<g id="node11" class="node">
<title>Node10</title>
<g id="a_node11"><a xlink:href="a01569.html" target="_top" xlink:title=" ">
<polygon fill="white" stroke="black" points="316.5,-415.5 316.5,-445.5 438.5,-445.5 438.5,-415.5 316.5,-415.5"/>
<text text-anchor="start" x="324.5" y="-433.5" font-family="Helvetica,sans-Serif" font-size="10.00">RayTracer::PluginsExt</text>
<text text-anchor="middle" x="377.5" y="-422.5" font-family="Helvetica,sans-Serif" font-size="10.00">::Cone::ConeEntity</text>
</a>
</g>
</g>
<!-- Node9&#45;&gt;Node10 -->
<g id="edge10" class="edge">
<title>Node9&#45;&gt;Node10</title>
<path fill="none" stroke="midnightblue" d="M205.45,-281.46C217.45,-315.03 243.41,-374.23 286,-406.5 294.94,-413.27 305.63,-418.14 316.49,-421.63"/>
<polygon fill="midnightblue" stroke="midnightblue" points="208.74,-280.24 202.18,-271.93 202.12,-282.52 208.74,-280.24"/>
</g>
<!-- Node11 -->
<g id="node12" class="node">
<title>Node11</title>
<g id="a_node12"><a xlink:href="a01577.html" target="_top" xlink:title=" ">
<polygon fill="white" stroke="black" points="308.5,-366.5 308.5,-396.5 446.5,-396.5 446.5,-366.5 308.5,-366.5"/>
<text text-anchor="start" x="316.5" y="-384.5" font-family="Helvetica,sans-Serif" font-size="10.00">RayTracer::PluginsExt</text>
<text text-anchor="middle" x="377.5" y="-373.5" font-family="Helvetica,sans-Serif" font-size="10.00">::Cylinder::CylinderEntity</text>
</a>
</g>
</g>
<!-- Node9&#45;&gt;Node11 -->
<g id="edge11" class="edge">
<title>Node9&#45;&gt;Node11</title>
<path fill="none" stroke="midnightblue" d="M212.19,-280.25C227.73,-303.39 254.34,-337.86 286,-357.5 292.91,-361.78 300.57,-365.31 308.42,-368.21"/>
<polygon fill="midnightblue" stroke="midnightblue" points="215,-278.16 206.6,-271.7 209.14,-281.99 215,-278.16"/>
</g>
<!-- Node12 -->
<g id="node13" class="node">
<title>Node12</title>
<g id="a_node13"><a xlink:href="a01585.html" target="_top" xlink:title=" ">
<polygon fill="white" stroke="black" points="316.5,-317.5 316.5,-347.5 438.5,-347.5 438.5,-317.5 316.5,-317.5"/>
<text text-anchor="start" x="324.5" y="-335.5" font-family="Helvetica,sans-Serif" font-size="10.00">RayTracer::PluginsExt</text>
<text text-anchor="middle" x="377.5" y="-324.5" font-family="Helvetica,sans-Serif" font-size="10.00">::Disk::DiskEntity</text>
</a>
</g>
</g>
<!-- Node9&#45;&gt;Node12 -->
<g id="edge12" class="edge">
<title>Node9&#45;&gt;Node12</title>
<path fill="none" stroke="midnightblue" d="M227.89,-277.14C244.49,-287.69 265.74,-300.05 286,-308.5 295.6,-312.51 306.06,-316.01 316.34,-319.01"/>
<polygon fill="midnightblue" stroke="midnightblue" points="229.47,-274 219.18,-271.5 225.67,-279.88 229.47,-274"/>
</g>
<!-- Node13 -->
<g id="node14" class="node">
<title>Node13</title>
<g id="a_node14"><a xlink:href="a01593.html" target="_top" xlink:title=" ">
<polygon fill="white" stroke="black" points="287.5,-268.5 287.5,-298.5 467.5,-298.5 467.5,-268.5 287.5,-268.5"/>
<text text-anchor="start" x="295.5" y="-286.5" font-family="Helvetica,sans-Serif" font-size="10.00">RayTracer::PluginsExt</text>
<text text-anchor="middle" x="377.5" y="-275.5" font-family="Helvetica,sans-Serif" font-size="10.00">::LimitedCone::LimitedConeEntity</text>
</a>
</g>
</g>
<!-- Node9&#45;&gt;Node13 -->
<g id="edge13" class="edge">
<title>Node9&#45;&gt;Node13</title>
<path fill="none" stroke="midnightblue" d="M260.29,-265.97C269.01,-267.29 278.11,-268.66 287.2,-270.03"/>
<polygon fill="midnightblue" stroke="midnightblue" points="260.65,-262.49 250.24,-264.45 259.6,-269.41 260.65,-262.49"/>
</g>
<!-- Node14 -->
<g id="node15" class="node">
<title>Node14</title>
<g id="a_node15"><a xlink:href="a01601.html" target="_top" xlink:title=" ">
<polygon fill="white" stroke="black" points="286,-208 286,-249 469,-249 469,-208 286,-208"/>
<text text-anchor="start" x="294" y="-237" font-family="Helvetica,sans-Serif" font-size="10.00">RayTracer::PluginsExt</text>
<text text-anchor="start" x="294" y="-226" font-family="Helvetica,sans-Serif" font-size="10.00">::LimitedCylinder::LimitedCylinder</text>
<text text-anchor="middle" x="377.5" y="-215" font-family="Helvetica,sans-Serif" font-size="10.00">Entity</text>
</a>
</g>
</g>
<!-- Node9&#45;&gt;Node14 -->
<g id="edge14" class="edge">
<title>Node9&#45;&gt;Node14</title>
<path fill="none" stroke="midnightblue" d="M260.2,-246.69C268.52,-245.39 277.18,-244.04 285.86,-242.68"/>
<polygon fill="midnightblue" stroke="midnightblue" points="259.58,-243.25 250.24,-248.25 260.66,-250.16 259.58,-243.25"/>
</g>
<!-- Node15 -->
<g id="node16" class="node">
<title>Node15</title>
<g id="a_node16"><a xlink:href="a01609.html" target="_top" xlink:title=" ">
<polygon fill="white" stroke="black" points="299.5,-148 299.5,-189 455.5,-189 455.5,-148 299.5,-148"/>
<text text-anchor="start" x="307.5" y="-177" font-family="Helvetica,sans-Serif" font-size="10.00">RayTracer::PluginsExt</text>
<text text-anchor="start" x="307.5" y="-166" font-family="Helvetica,sans-Serif" font-size="10.00">::LimitedPlane::LimitedPlane</text>
<text text-anchor="middle" x="377.5" y="-155" font-family="Helvetica,sans-Serif" font-size="10.00">Entity</text>
</a>
</g>
</g>
<!-- Node9&#45;&gt;Node15 -->
<g id="edge15" class="edge">
<title>Node9&#45;&gt;Node15</title>
<path fill="none" stroke="midnightblue" d="M225.64,-235.34C242.5,-223.36 264.73,-208.78 286,-198.5 293,-195.12 300.49,-191.96 308.04,-189.07"/>
<polygon fill="midnightblue" stroke="midnightblue" points="223.41,-232.63 217.35,-241.32 227.5,-238.31 223.41,-232.63"/>
</g>
<!-- Node16 -->
<g id="node17" class="node">
<title>Node16</title>
<g id="a_node17"><a xlink:href="a01625.html" target="_top" xlink:title=" ">
<polygon fill="white" stroke="black" points="316.5,-98.5 316.5,-128.5 438.5,-128.5 438.5,-98.5 316.5,-98.5"/>
<text text-anchor="start" x="324.5" y="-116.5" font-family="Helvetica,sans-Serif" font-size="10.00">RayTracer::PluginsExt</text>
<text text-anchor="middle" x="377.5" y="-105.5" font-family="Helvetica,sans-Serif" font-size="10.00">::Plane::PlaneEntity</text>
</a>
</g>
</g>
<!-- Node9&#45;&gt;Node16 -->
<g id="edge16" class="edge">
<title>Node9&#45;&gt;Node16</title>
<path fill="none" stroke="midnightblue" d="M209.46,-232.15C223.92,-205.23 250.76,-162.53 286,-138.5 295.02,-132.35 305.52,-127.7 316.11,-124.2"/>
<polygon fill="midnightblue" stroke="midnightblue" points="206.21,-230.8 204.7,-241.28 212.42,-234.03 206.21,-230.8"/>
</g>
<!-- Node17 -->
<g id="node18" class="node">
<title>Node17</title>
<g id="a_node18"><a xlink:href="a01641.html" target="_top" xlink:title=" ">
<polygon fill="white" stroke="black" points="315,-49.5 315,-79.5 440,-79.5 440,-49.5 315,-49.5"/>
<text text-anchor="start" x="323" y="-67.5" font-family="Helvetica,sans-Serif" font-size="10.00">RayTracer::PluginsExt</text>
<text text-anchor="middle" x="377.5" y="-56.5" font-family="Helvetica,sans-Serif" font-size="10.00">::Sphere::SphereEntity</text>
</a>
</g>
</g>
<!-- Node9&#45;&gt;Node17 -->
<g id="edge17" class="edge">
<title>Node9&#45;&gt;Node17</title>
<path fill="none" stroke="midnightblue" d="M203.89,-231.55C214.59,-194.86 239.66,-126.71 286,-89.5 294.39,-82.76 304.47,-77.84 314.81,-74.24"/>
<polygon fill="midnightblue" stroke="midnightblue" points="200.45,-230.86 201.14,-241.43 207.19,-232.74 200.45,-230.86"/>
</g>
<!-- Node18 -->
<g id="node19" class="node">
<title>Node18</title>
<g id="a_node19"><a xlink:href="a01657.html" target="_top" xlink:title=" ">
<polygon fill="white" stroke="black" points="310.5,-0.5 310.5,-30.5 444.5,-30.5 444.5,-0.5 310.5,-0.5"/>
<text text-anchor="start" x="318.5" y="-18.5" font-family="Helvetica,sans-Serif" font-size="10.00">RayTracer::PluginsExt</text>
<text text-anchor="middle" x="377.5" y="-7.5" font-family="Helvetica,sans-Serif" font-size="10.00">::Triangle::TriangleEntity</text>
</a>
</g>
</g>
<!-- Node9&#45;&gt;Node18 -->
<g id="edge18" class="edge">
<title>Node9&#45;&gt;Node18</title>
<path fill="none" stroke="midnightblue" d="M200.51,-231.07C207.25,-185.67 227.86,-90.64 286,-39.5 292.96,-33.38 301.3,-28.8 310.07,-25.37"/>
<polygon fill="midnightblue" stroke="midnightblue" points="197,-230.85 199.11,-241.23 203.94,-231.81 197,-230.85"/>
</g>
</g>
</svg>
