<?xml version="1.0" encoding="UTF-8" standalone="no"?>
<!DOCTYPE svg PUBLIC "-//W3C//DTD SVG 1.1//EN"
 "http://www.w3.org/Graphics/SVG/1.1/DTD/svg11.dtd">
<!-- Generated by graphviz version 2.43.0 (0)
 -->
<!-- Title: Graphical Class Hierarchy Pages: 1 -->
<svg width="365pt" height="783pt"
 viewBox="0.00 0.00 365.00 782.50" xmlns="http://www.w3.org/2000/svg" xmlns:xlink="http://www.w3.org/1999/xlink">
<g id="graph0" class="graph" transform="scale(1 1) rotate(0) translate(4 778.5)">
<title>Graphical Class Hierarchy</title>
<polygon fill="white" stroke="transparent" points="-4,4 -4,-778.5 361,-778.5 361,4 -4,4"/>
<!-- Node0 -->
<g id="node1" class="node">
<title>Node0</title>
<g id="a_node1"><a xlink:href="a01385.html" target="_top" xlink:title="The IEntityCreator.">
<polygon fill="white" stroke="black" points="0,-366.5 0,-396.5 133,-396.5 133,-366.5 0,-366.5"/>
<text text-anchor="start" x="8" y="-384.5" font-family="Helvetica,sans-Serif" font-size="10.00">RayTracer::Plugins</text>
<text text-anchor="middle" x="66.5" y="-373.5" font-family="Helvetica,sans-Serif" font-size="10.00">::Entities::IEntityCreator</text>
</a>
</g>
</g>
<!-- Node1 -->
<g id="node2" class="node">
<title>Node1</title>
<g id="a_node2"><a xlink:href="a01501.html" target="_top" xlink:title=" ">
<polygon fill="white" stroke="black" points="183.5,-733 183.5,-774 342.5,-774 342.5,-733 183.5,-733"/>
<text text-anchor="start" x="191.5" y="-762" font-family="Helvetica,sans-Serif" font-size="10.00">RayTracer::PluginsExt</text>
<text text-anchor="start" x="191.5" y="-751" font-family="Helvetica,sans-Serif" font-size="10.00">::AmbientLight::AmbientLight</text>
<text text-anchor="middle" x="263" y="-740" font-family="Helvetica,sans-Serif" font-size="10.00">Creator</text>
</a>
</g>
</g>
<!-- Node0&#45;&gt;Node1 -->
<g id="edge1" class="edge">
<title>Node0&#45;&gt;Node1</title>
<path fill="none" stroke="midnightblue" d="M67.43,-406.69C68.65,-469.23 80.61,-633.01 169,-723.5 173.27,-727.87 178.17,-731.6 183.46,-734.79"/>
<polygon fill="midnightblue" stroke="midnightblue" points="70.93,-406.52 67.31,-396.56 63.93,-406.6 70.93,-406.52"/>
</g>
<!-- Node2 -->
<g id="node3" class="node">
<title>Node2</title>
<g id="a_node3"><a xlink:href="a01517.html" target="_top" xlink:title=" ">
<polygon fill="white" stroke="black" points="192.5,-683.5 192.5,-713.5 333.5,-713.5 333.5,-683.5 192.5,-683.5"/>
<text text-anchor="start" x="200.5" y="-701.5" font-family="Helvetica,sans-Serif" font-size="10.00">RayTracer::PluginsExt</text>
<text text-anchor="middle" x="263" y="-690.5" font-family="Helvetica,sans-Serif" font-size="10.00">::Camera::CameraCreator</text>
</a>
</g>
</g>
<!-- Node0&#45;&gt;Node2 -->
<g id="edge2" class="edge">
<title>Node0&#45;&gt;Node2</title>
<path fill="none" stroke="midnightblue" d="M68.66,-406.68C72.64,-463.07 90.36,-600.32 169,-673.5 175.73,-679.76 183.86,-684.49 192.48,-688.05"/>
<polygon fill="midnightblue" stroke="midnightblue" points="72.14,-406.28 68.03,-396.52 65.15,-406.71 72.14,-406.28"/>
</g>
<!-- Node3 -->
<g id="node4" class="node">
<title>Node3</title>
<g id="a_node4"><a xlink:href="a01525.html" target="_top" xlink:title=" ">
<polygon fill="white" stroke="black" points="200.5,-623 200.5,-664 325.5,-664 325.5,-623 200.5,-623"/>
<text text-anchor="start" x="208.5" y="-652" font-family="Helvetica,sans-Serif" font-size="10.00">RayTracer::PluginsExt</text>
<text text-anchor="start" x="208.5" y="-641" font-family="Helvetica,sans-Serif" font-size="10.00">::Camera::Clustered::</text>
<text text-anchor="middle" x="263" y="-630" font-family="Helvetica,sans-Serif" font-size="10.00">CameraClusterCreator</text>
</a>
</g>
</g>
<!-- Node0&#45;&gt;Node3 -->
<g id="edge3" class="edge">
<title>Node0&#45;&gt;Node3</title>
<path fill="none" stroke="midnightblue" d="M71.55,-406.76C80.47,-454.15 106.23,-556.73 169,-613.5 177.93,-621.58 189.07,-627.48 200.49,-631.8"/>
<polygon fill="midnightblue" stroke="midnightblue" points="74.96,-405.97 69.76,-396.74 68.07,-407.2 74.96,-405.97"/>
</g>
<!-- Node4 -->
<g id="node5" class="node">
<title>Node4</title>
<g id="a_node5"><a xlink:href="a01541.html" target="_top" xlink:title=" ">
<polygon fill="white" stroke="black" points="196,-563 196,-604 330,-604 330,-563 196,-563"/>
<text text-anchor="start" x="204" y="-592" font-family="Helvetica,sans-Serif" font-size="10.00">RayTracer::PluginsExt</text>
<text text-anchor="start" x="204" y="-581" font-family="Helvetica,sans-Serif" font-size="10.00">::Camera::FullCustom</text>
<text text-anchor="middle" x="263" y="-570" font-family="Helvetica,sans-Serif" font-size="10.00">::CameraCustomCreator</text>
</a>
</g>
</g>
<!-- Node0&#45;&gt;Node4 -->
<g id="edge4" class="edge">
<title>Node0&#45;&gt;Node4</title>
<path fill="none" stroke="midnightblue" d="M75.61,-406.21C89.09,-443.5 119.63,-514 169,-553.5 176.95,-559.86 186.28,-564.89 195.91,-568.86"/>
<polygon fill="midnightblue" stroke="midnightblue" points="78.86,-404.9 72.26,-396.62 72.26,-407.22 78.86,-404.9"/>
</g>
<!-- Node5 -->
<g id="node6" class="node">
<title>Node5</title>
<g id="a_node6"><a xlink:href="a01565.html" target="_top" xlink:title=" ">
<polygon fill="white" stroke="black" points="202,-513.5 202,-543.5 324,-543.5 324,-513.5 202,-513.5"/>
<text text-anchor="start" x="210" y="-531.5" font-family="Helvetica,sans-Serif" font-size="10.00">RayTracer::PluginsExt</text>
<text text-anchor="middle" x="263" y="-520.5" font-family="Helvetica,sans-Serif" font-size="10.00">::Cone::ConeCreator</text>
</a>
</g>
</g>
<!-- Node0&#45;&gt;Node5 -->
<g id="edge5" class="edge">
<title>Node0&#45;&gt;Node5</title>
<path fill="none" stroke="midnightblue" d="M80.78,-405.36C97.63,-433.39 129.34,-479.26 169,-504.5 178.85,-510.77 190.26,-515.4 201.65,-518.83"/>
<polygon fill="midnightblue" stroke="midnightblue" points="83.72,-403.45 75.65,-396.59 77.68,-406.99 83.72,-403.45"/>
</g>
<!-- Node6 -->
<g id="node7" class="node">
<title>Node6</title>
<g id="a_node7"><a xlink:href="a01573.html" target="_top" xlink:title=" ">
<polygon fill="white" stroke="black" points="190,-464.5 190,-494.5 336,-494.5 336,-464.5 190,-464.5"/>
<text text-anchor="start" x="198" y="-482.5" font-family="Helvetica,sans-Serif" font-size="10.00">RayTracer::PluginsExt</text>
<text text-anchor="middle" x="263" y="-471.5" font-family="Helvetica,sans-Serif" font-size="10.00">::Cylinder::CylinderCreator</text>
</a>
</g>
</g>
<!-- Node0&#45;&gt;Node6 -->
<g id="edge6" class="edge">
<title>Node0&#45;&gt;Node6</title>
<path fill="none" stroke="midnightblue" d="M91.97,-403.47C111.54,-419.97 140.36,-441.97 169,-455.5 176.24,-458.92 184.03,-461.9 191.92,-464.48"/>
<polygon fill="midnightblue" stroke="midnightblue" points="94.04,-400.64 84.18,-396.77 89.48,-405.95 94.04,-400.64"/>
</g>
<!-- Node7 -->
<g id="node8" class="node">
<title>Node7</title>
<g id="a_node8"><a xlink:href="a01581.html" target="_top" xlink:title=" ">
<polygon fill="white" stroke="black" points="202,-415.5 202,-445.5 324,-445.5 324,-415.5 202,-415.5"/>
<text text-anchor="start" x="210" y="-433.5" font-family="Helvetica,sans-Serif" font-size="10.00">RayTracer::PluginsExt</text>
<text text-anchor="middle" x="263" y="-422.5" font-family="Helvetica,sans-Serif" font-size="10.00">::Disk::DiskCreator</text>
</a>
</g>
</g>
<!-- Node0&#45;&gt;Node7 -->
<g id="edge7" class="edge">
<title>Node0&#45;&gt;Node7</title>
<path fill="none" stroke="midnightblue" d="M137.16,-399.05C158.52,-404.43 181.81,-410.3 202.43,-415.49"/>
<polygon fill="midnightblue" stroke="midnightblue" points="137.73,-395.58 127.18,-396.53 136.02,-402.37 137.73,-395.58"/>
</g>
<!-- Node8 -->
<g id="node9" class="node">
<title>Node8</title>
<g id="a_node9"><a xlink:href="a01589.html" target="_top" xlink:title=" ">
<polygon fill="white" stroke="black" points="169,-366.5 169,-396.5 357,-396.5 357,-366.5 169,-366.5"/>
<text text-anchor="start" x="177" y="-384.5" font-family="Helvetica,sans-Serif" font-size="10.00">RayTracer::PluginsExt</text>
<text text-anchor="middle" x="263" y="-373.5" font-family="Helvetica,sans-Serif" font-size="10.00">::LimitedCone::LimitedConeCreator</text>
</a>
</g>
</g>
<!-- Node0&#45;&gt;Node8 -->
<g id="edge8" class="edge">
<title>Node0&#45;&gt;Node8</title>
<path fill="none" stroke="midnightblue" d="M143.17,-381.5C151.55,-381.5 160.16,-381.5 168.72,-381.5"/>
<polygon fill="midnightblue" stroke="midnightblue" points="143.08,-378 133.08,-381.5 143.08,-385 143.08,-378"/>
</g>
<!-- Node9 -->
<g id="node10" class="node">
<title>Node9</title>
<g id="a_node10"><a xlink:href="a01597.html" target="_top" xlink:title=" ">
<polygon fill="white" stroke="black" points="171.5,-306 171.5,-347 354.5,-347 354.5,-306 171.5,-306"/>
<text text-anchor="start" x="179.5" y="-335" font-family="Helvetica,sans-Serif" font-size="10.00">RayTracer::PluginsExt</text>
<text text-anchor="start" x="179.5" y="-324" font-family="Helvetica,sans-Serif" font-size="10.00">::LimitedCylinder::LimitedCylinder</text>
<text text-anchor="middle" x="263" y="-313" font-family="Helvetica,sans-Serif" font-size="10.00">Creator</text>
</a>
</g>
</g>
<!-- Node0&#45;&gt;Node9 -->
<g id="edge9" class="edge">
<title>Node0&#45;&gt;Node9</title>
<path fill="none" stroke="midnightblue" d="M130.28,-363.75C149.08,-358.43 169.85,-352.56 189.23,-347.08"/>
<polygon fill="midnightblue" stroke="midnightblue" points="129.32,-360.38 120.65,-366.47 131.22,-367.12 129.32,-360.38"/>
</g>
<!-- Node10 -->
<g id="node11" class="node">
<title>Node10</title>
<g id="a_node11"><a xlink:href="a01605.html" target="_top" xlink:title=" ">
<polygon fill="white" stroke="black" points="185,-246 185,-287 341,-287 341,-246 185,-246"/>
<text text-anchor="start" x="193" y="-275" font-family="Helvetica,sans-Serif" font-size="10.00">RayTracer::PluginsExt</text>
<text text-anchor="start" x="193" y="-264" font-family="Helvetica,sans-Serif" font-size="10.00">::LimitedPlane::LimitedPlane</text>
<text text-anchor="middle" x="263" y="-253" font-family="Helvetica,sans-Serif" font-size="10.00">Creator</text>
</a>
</g>
</g>
<!-- Node0&#45;&gt;Node10 -->
<g id="edge10" class="edge">
<title>Node0&#45;&gt;Node10</title>
<path fill="none" stroke="midnightblue" d="M89.06,-359.12C108.43,-340.13 138.45,-313.37 169,-296.5 175.24,-293.06 181.93,-289.93 188.76,-287.12"/>
<polygon fill="midnightblue" stroke="midnightblue" points="86.54,-356.68 81.94,-366.22 91.49,-361.64 86.54,-356.68"/>
</g>
<!-- Node11 -->
<g id="node12" class="node">
<title>Node11</title>
<g id="a_node12"><a xlink:href="a01621.html" target="_top" xlink:title=" ">
<polygon fill="white" stroke="black" points="202,-196.5 202,-226.5 324,-226.5 324,-196.5 202,-196.5"/>
<text text-anchor="start" x="210" y="-214.5" font-family="Helvetica,sans-Serif" font-size="10.00">RayTracer::PluginsExt</text>
<text text-anchor="middle" x="263" y="-203.5" font-family="Helvetica,sans-Serif" font-size="10.00">::Plane::PlaneCreator</text>
</a>
</g>
</g>
<!-- Node0&#45;&gt;Node11 -->
<g id="edge11" class="edge">
<title>Node0&#45;&gt;Node11</title>
<path fill="none" stroke="midnightblue" d="M78.12,-356.86C93.41,-324.31 124.76,-267.51 169,-236.5 178.72,-229.69 190.2,-224.73 201.72,-221.12"/>
<polygon fill="midnightblue" stroke="midnightblue" points="74.85,-355.57 73.89,-366.13 81.22,-358.48 74.85,-355.57"/>
</g>
<!-- Node12 -->
<g id="node13" class="node">
<title>Node12</title>
<g id="a_node13"><a xlink:href="a01629.html" target="_top" xlink:title=" ">
<polygon fill="white" stroke="black" points="182,-147.5 182,-177.5 344,-177.5 344,-147.5 182,-147.5"/>
<text text-anchor="start" x="190" y="-165.5" font-family="Helvetica,sans-Serif" font-size="10.00">RayTracer::PluginsExt</text>
<text text-anchor="middle" x="263" y="-154.5" font-family="Helvetica,sans-Serif" font-size="10.00">::PointLight::PointLightCreator</text>
</a>
</g>
</g>
<!-- Node0&#45;&gt;Node12 -->
<g id="edge12" class="edge">
<title>Node0&#45;&gt;Node12</title>
<path fill="none" stroke="midnightblue" d="M73.52,-356.64C84.88,-315.16 113.48,-232.01 169,-187.5 173.83,-183.63 179.2,-180.36 184.86,-177.59"/>
<polygon fill="midnightblue" stroke="midnightblue" points="70.09,-355.91 70.94,-366.47 76.86,-357.69 70.09,-355.91"/>
</g>
<!-- Node13 -->
<g id="node14" class="node">
<title>Node13</title>
<g id="a_node14"><a xlink:href="a01637.html" target="_top" xlink:title=" ">
<polygon fill="white" stroke="black" points="197,-98.5 197,-128.5 329,-128.5 329,-98.5 197,-98.5"/>
<text text-anchor="start" x="205" y="-116.5" font-family="Helvetica,sans-Serif" font-size="10.00">RayTracer::PluginsExt</text>
<text text-anchor="middle" x="263" y="-105.5" font-family="Helvetica,sans-Serif" font-size="10.00">::Sphere::SphereCreator</text>
</a>
</g>
</g>
<!-- Node0&#45;&gt;Node13 -->
<g id="edge13" class="edge">
<title>Node0&#45;&gt;Node13</title>
<path fill="none" stroke="midnightblue" d="M70.7,-356.16C78.3,-306.69 102.15,-197 169,-138.5 176.93,-131.56 186.58,-126.53 196.64,-122.88"/>
<polygon fill="midnightblue" stroke="midnightblue" points="67.2,-355.9 69.24,-366.3 74.12,-356.9 67.2,-355.9"/>
</g>
<!-- Node14 -->
<g id="node15" class="node">
<title>Node14</title>
<g id="a_node15"><a xlink:href="a01645.html" target="_top" xlink:title=" ">
<polygon fill="white" stroke="black" points="185,-49.5 185,-79.5 341,-79.5 341,-49.5 185,-49.5"/>
<text text-anchor="start" x="193" y="-67.5" font-family="Helvetica,sans-Serif" font-size="10.00">RayTracer::PluginsExt</text>
<text text-anchor="middle" x="263" y="-56.5" font-family="Helvetica,sans-Serif" font-size="10.00">::SpotLight::SpotLightCreator</text>
</a>
</g>
</g>
<!-- Node0&#45;&gt;Node14 -->
<g id="edge14" class="edge">
<title>Node0&#45;&gt;Node14</title>
<path fill="none" stroke="midnightblue" d="M68.66,-356.32C72.64,-299.93 90.36,-162.68 169,-89.5 173.65,-85.17 178.97,-81.58 184.66,-78.6"/>
<polygon fill="midnightblue" stroke="midnightblue" points="65.15,-356.29 68.03,-366.48 72.14,-356.72 65.15,-356.29"/>
</g>
<!-- Node15 -->
<g id="node16" class="node">
<title>Node15</title>
<g id="a_node16"><a xlink:href="a01653.html" target="_top" xlink:title=" ">
<polygon fill="white" stroke="black" points="192.5,-0.5 192.5,-30.5 333.5,-30.5 333.5,-0.5 192.5,-0.5"/>
<text text-anchor="start" x="200.5" y="-18.5" font-family="Helvetica,sans-Serif" font-size="10.00">RayTracer::PluginsExt</text>
<text text-anchor="middle" x="263" y="-7.5" font-family="Helvetica,sans-Serif" font-size="10.00">::Triangle::TriangleCreator</text>
</a>
</g>
</g>
<!-- Node0&#45;&gt;Node15 -->
<g id="edge15" class="edge">
<title>Node0&#45;&gt;Node15</title>
<path fill="none" stroke="midnightblue" d="M67.18,-356.11C67.84,-293.13 78.61,-128.51 169,-40.5 175.59,-34.09 183.64,-29.27 192.22,-25.67"/>
<polygon fill="midnightblue" stroke="midnightblue" points="63.68,-356.3 67.16,-366.31 70.68,-356.32 63.68,-356.3"/>
</g>
</g>
</svg>
